<?xml version="1.0" encoding="UTF-8"?>
<svg width="32" height="32" version="1.1" xmlns="http://www.w3.org/2000/svg" xmlns:cc="http://creativecommons.org/ns#" xmlns:dc="http://purl.org/dc/elements/1.1/" xmlns:rdf="http://www.w3.org/1999/02/22-rdf-syntax-ns#">
 <metadata>
  <rdf:RDF>
   <cc:Work rdf:about="">
    <dc:format>image/svg+xml</dc:format>
    <dc:type rdf:resource="http://purl.org/dc/dcmitype/StillImage"/>
    <dc:title/>
   </cc:Work>
  </rdf:RDF>
 </metadata>
 <circle cx="16" cy="16" r="15" fill="#fff" opacity=".6" stroke-linecap="round" stroke-width="1.8959"/>
 <g transform="translate(72 70.001)">
  <g transform="translate(.49971 -1.0001)" fill="none" stroke="#000" stroke-dashoffset="3" stroke-linecap="round">
   <path d="m-48-53a8.5002 8.5002 0 0 1-5.2471 7.8531 8.5002 8.5002 0 0 1-9.2632-1.8426 8.5002 8.5002 0 0 1-1.8426-9.2632 8.5002 8.5002 0 0 1 7.8531-5.2471" opacity=".8" stroke-width=".99984" style="paint-order:stroke fill markers"/>
   <path d="m-55.502-50.581a1.0003 1.0003 0 0 1-0.47747 0.93056 1.0003 1.0003 0 0 1-1.0459-0.0037 1.0003 1.0003 0 0 1-0.47089-0.93392" opacity=".8" stroke-width=".99972" style="paint-order:stroke fill markers"/>
  </g>
  <g transform="translate(-8 -1)" fill="#323232" fill-rule="evenodd">
   <rect x="-45" y="-59" width="4" height=".99999" ry=".49999" stroke-width="3.086" style="paint-order:stroke fill markers"/>
   <rect x="-45" y="-56" width="5" height=".99999" ry=".49999" stroke-width="3.1943" style="paint-order:stroke fill markers"/>
   <rect transform="rotate(-45)" x="7.2881" y="-71.233" width="5.2228" height="1.0446" ry=".52228" stroke-width="3.3366" style="paint-order:stroke fill markers"/>
  </g>
 </g>
</svg>
