<?xml version="1.0" encoding="UTF-8"?>
<svg width="64" height="64" version="1.1" viewBox="0 0 64 64" xmlns="http://www.w3.org/2000/svg" xmlns:cc="http://creativecommons.org/ns#" xmlns:dc="http://purl.org/dc/elements/1.1/" xmlns:rdf="http://www.w3.org/1999/02/22-rdf-syntax-ns#" xmlns:xlink="http://www.w3.org/1999/xlink">
 <metadata>
  <rdf:RDF>
   <cc:Work rdf:about="">
    <dc:format>image/svg+xml</dc:format>
    <dc:type rdf:resource="http://purl.org/dc/dcmitype/StillImage"/>
    <dc:title/>
   </cc:Work>
  </rdf:RDF>
 </metadata>
 <defs>
  <linearGradient id="linearGradient1057">
   <stop stop-color="#fff" offset="0"/>
   <stop stop-color="#fff" stop-opacity="0" offset="1"/>
  </linearGradient>
  <linearGradient id="linearGradient982" x1="34.999" x2="34.999" y1="27.545" y2="52.847" gradientTransform="matrix(1.5625 0 0 1.5625 .40633 -5.1891)" gradientUnits="userSpaceOnUse">
   <stop stop-color="#32b4ff" offset="0"/>
   <stop stop-color="#3287ff" offset="1"/>
  </linearGradient>
  <style type="text/css"/>
  <style type="text/css"/>
  <linearGradient id="linearGradient1047" x1="21.314" x2="21.314" y1="18.052" y2="43.681" gradientTransform="matrix(1.5625,0,0,1.5625,-9.2253,1.3231)" gradientUnits="userSpaceOnUse">
   <stop stop-color="#14dc78" offset="0"/>
   <stop stop-color="#14a03c" offset="1"/>
  </linearGradient>
  <linearGradient id="linearGradient1049" x1="41.729" x2="41.729" y1="12.316" y2="37.368" gradientTransform="matrix(1.5625,0,0,1.5625,-8.1072,-10.908)" gradientUnits="userSpaceOnUse">
   <stop stop-color="#ff3c64" offset="0"/>
   <stop stop-color="#ff4628" offset="1"/>
  </linearGradient>
  <linearGradient id="linearGradient1059" x1="34.427" x2="34.427" y1="32.234" y2="39.768" gradientTransform="matrix(1 0 0 1.2271 .20646 -10.975)" gradientUnits="userSpaceOnUse" xlink:href="#linearGradient1057"/>
  <linearGradient id="linearGradient1063" x1="34.427" x2="34.427" y1="32.234" y2="39.768" gradientTransform="matrix(1,0,0,1.2271,-12.55,-19.793)" gradientUnits="userSpaceOnUse" xlink:href="#linearGradient1057"/>
  <linearGradient id="linearGradient1067" x1="34.427" x2="34.427" y1="32.234" y2="39.768" gradientTransform="matrix(1,0,0,1.2271,5.7554,-25.761)" gradientUnits="userSpaceOnUse" xlink:href="#linearGradient1057"/>
  <filter id="filter11290" x="-.024" y="-.024" width="1.048" height="1.048" color-interpolation-filters="sRGB">
   <feGaussianBlur stdDeviation="0.15875313"/>
  </filter>
  <linearGradient id="linearGradient1005" x1=".73911" x2="16.388" y1="16.296" y2=".64687" gradientTransform="matrix(3.7796 0 0 3.7796 -.13195 .024567)" gradientUnits="userSpaceOnUse">
   <stop stop-color="#dddfe1" offset="0"/>
   <stop stop-color="#f3f4f6" offset="1"/>
  </linearGradient>
 </defs>
 <circle transform="matrix(3.7796 0 0 3.7796 -.1028 .024568)" cx="8.4937" cy="8.46" r="7.9377" filter="url(#filter11290)" opacity=".25" stroke-width=".14032"/>
 <path d="m62 32c0 3.5964-0.63305 7.0448-1.794 10.24-0.80698 2.2212-1.8686 4.3212-3.1519 6.2636-0.53754 0.8167-1.1155 1.6054-1.729 2.3633-1.9641 2.4257-4.2982 4.5382-6.9186 6.2526-0.96493 0.63187-1.9678 1.2099-3.0061 1.7277-4.0321 2.0179-8.5839 3.153-13.401 3.153-4.8171 0-9.3689-1.1351-13.401-3.1531-1.0384-0.51799-2.0425-1.096-3.0074-1.7277-2.6535-1.7376-5.0155-3.8832-6.9957-6.349-0.61468-0.76408-1.1915-1.56-1.729-2.3841-1.249-1.9102-2.2837-3.9712-3.0747-6.1494-1.1608-3.1949-1.7927-6.6419-1.7927-10.237 0-16.569 13.432-30.001 30.001-30.001 8.317 0 15.843 3.3846 21.277 8.8507 1.5661 1.5747 2.9584 3.3234 4.1436 5.214 1.1205 1.7805 2.0572 3.6882 2.7857 5.6951 1.161 3.196 1.7941 6.6442 1.7941 10.24z" fill="url(#linearGradient1005)" stroke-width=".11719"/>
 <!-- color: #eeeeee -->
 <circle cx="-1248.7" cy="-1241.6" r="0" fill="#5e4aa6"/>
 <circle cx="-149.15" cy="23.855" r="0" fill="#5e4aa6" fill-rule="evenodd"/>
 <g transform="translate(.8225 -.576)">
  <circle cx="40.33" cy="25.029" r="12.5" fill="url(#linearGradient1049)"/>
  <ellipse cx="40.33" cy="18.929" rx="7.5523" ry="5.1983" fill="url(#linearGradient1067)" opacity=".7" stroke-width=".27607"/>
  <circle cx="22.025" cy="31.011" r="12.5" fill="url(#linearGradient1047)"/>
  <ellipse cx="22.025" cy="24.897" rx="7.5523" ry="5.1983" fill="url(#linearGradient1063)" opacity=".7" stroke-width=".27607"/>
  <circle cx="34.781" cy="40.123" r="12.5" fill="url(#linearGradient982)"/>
  <ellipse cx="34.781" cy="33.714" rx="7.5523" ry="5.1983" fill="url(#linearGradient1059)" opacity=".7" stroke-width=".27607"/>
 </g>
 <g transform="matrix(3.7796 0 0 3.7796 -102.92 -38.72)" fill="#5e4aa6" stroke-width=".26458">
  <circle cx="-330.35" cy="-328.38" r="0"/>
  <circle cx="-312.11" cy="-326.25" r="0"/>
  <circle cx="-306.02" cy="-333.07" r="0"/>
  <circle cx="-308.84" cy="-326.01" r="0"/>
 </g>
</svg>
