<?xml version="1.0" encoding="UTF-8"?>
<svg width="64" height="64" version="1.1" viewBox="0 0 64 64" xmlns="http://www.w3.org/2000/svg" xmlns:cc="http://creativecommons.org/ns#" xmlns:dc="http://purl.org/dc/elements/1.1/" xmlns:rdf="http://www.w3.org/1999/02/22-rdf-syntax-ns#">
 <metadata>
  <rdf:RDF>
   <cc:Work rdf:about="">
    <dc:format>image/svg+xml</dc:format>
    <dc:type rdf:resource="http://purl.org/dc/dcmitype/StillImage"/>
    <dc:title/>
   </cc:Work>
  </rdf:RDF>
 </metadata>
 <defs>
  <filter id="filter11290" x="-.024" y="-.024" width="1.048" height="1.048" color-interpolation-filters="sRGB">
   <feGaussianBlur stdDeviation="0.15875313"/>
  </filter>
  <linearGradient id="linearGradient1005" x1=".73911" x2="13.303" y1="16.296" y2="3.7322" gradientTransform="matrix(3.7796 0 0 3.7796 -.13193 .024583)" gradientUnits="userSpaceOnUse">
   <stop stop-color="#ff7d1e" offset="0"/>
   <stop stop-color="#ffa53c" offset="1"/>
  </linearGradient>
 </defs>
 <circle transform="matrix(3.7796 0 0 3.7796 -.10279 .024585)" cx="8.4937" cy="8.46" r="7.9377" filter="url(#filter11290)" opacity=".25" stroke-width=".14032"/>
 <path d="m62 32c0 3.5964-0.63304 7.0448-1.794 10.24-0.80698 2.2212-1.8686 4.3212-3.1519 6.2636-0.53754 0.8167-1.1155 1.6054-1.729 2.3633-1.9641 2.4257-4.2982 4.5382-6.9186 6.2526-0.96493 0.63187-1.9678 1.2098-3.0061 1.7277-4.0321 2.0179-8.5838 3.153-13.401 3.153-4.8171 0-9.3689-1.1351-13.401-3.1531-1.0384-0.51799-2.0425-1.096-3.0074-1.7277-2.6535-1.7376-5.0155-3.8832-6.9957-6.349-0.61468-0.76408-1.1915-1.56-1.729-2.3841-1.249-1.9102-2.2837-3.9712-3.0747-6.1494-1.1608-3.1949-1.7927-6.6419-1.7927-10.237 0-16.569 13.432-30.001 30.001-30.001 8.317 0 15.843 3.3846 21.277 8.8507 1.5661 1.5747 2.9584 3.3234 4.1436 5.214 1.1205 1.7805 2.0572 3.6882 2.7857 5.6951 1.161 3.196 1.7941 6.6442 1.7941 10.24z" fill="url(#linearGradient1005)" stroke-width=".11719"/>
 <circle cx="-1168.4" cy="-1251.4" r="0" fill="#5e4aa6"/>
 <circle cx="-68.875" cy="14.092" r="0" fill="#5e4aa6" fill-rule="evenodd"/>
 <g transform="matrix(4.1339 0 0 4.1339 -113.33 -23.871)" fill-opacity=".8">
  <path d="m35.156 9.2822c-0.76017 0-1.4647 0.20483-2.0814 0.55562h-1.5875v1.5699c-0.35739 0.62089-0.56444 1.34-0.56444 2.1078 0 0.76784 0.20705 1.487 0.56444 2.1078v1.5522h1.5522c0.62434 0.36286 1.3425 0.57326 2.1167 0.57326s1.5011-0.21041 2.1255-0.57326h1.5434v-1.5434c0.36078-0.62304 0.56444-1.3449 0.56444-2.1167 0-0.77176-0.20366-1.4936-0.56444-2.1167v-1.561h-1.5787c-0.61665-0.3508-1.33-0.55562-2.0902-0.55562zm0.01764 0.71437c1.94 0 3.5101 1.5701 3.5101 3.5101s-1.5701 3.519-3.5101 3.519-3.5101-1.5789-3.5101-3.519 1.5701-3.5101 3.5101-3.5101z"/>
  <path d="m35.978 11.878 0.15685 0.2166-0.35105 2.3229c-0.25831-1.0459-0.59628-2.4318-0.59753-2.4349l-0.56765 2.4275-0.44068-2.1138 0.08963-0.4108-1.2772-0.01494c0.10218 0.07806 0.18006 0.20946 0.26142 0.3137l0.80666 3.2789c-0.06637 0.12313-0.16608 0.23927-0.24648 0.34358 0.43074 0.0023 0.87079 0.0052 1.2399 0.0075l-0.08963-0.38838 0.24648-1.1278 0.20914 1.2249-0.03735 0.2913 1.2175-0.0075-0.0075-0.0075-0.16432-0.3137 0.49296-3.0773 0.37345-0.54524c-0.43819 0.0048-0.87637 0.0099-1.3146 0.01494z"/>
 </g>
 <g transform="matrix(3.7796 0 0 3.7796 -78.964 -54.073)" fill="#5e4aa6" stroke-width=".26458">
  <circle cx="-330.35" cy="-328.38" r="0"/>
  <circle cx="-312.11" cy="-326.25" r="0"/>
  <circle cx="-306.02" cy="-333.07" r="0"/>
  <circle cx="-308.84" cy="-326.01" r="0"/>
 </g>
</svg>
