<?xml version="1.0" encoding="UTF-8"?>
<svg width="64" height="64" version="1.1" viewBox="0 0 16.933 16.933" xmlns="http://www.w3.org/2000/svg" xmlns:cc="http://creativecommons.org/ns#" xmlns:dc="http://purl.org/dc/elements/1.1/" xmlns:rdf="http://www.w3.org/1999/02/22-rdf-syntax-ns#">
 <metadata>
  <rdf:RDF>
   <cc:Work rdf:about="">
    <dc:format>image/svg+xml</dc:format>
    <dc:type rdf:resource="http://purl.org/dc/dcmitype/StillImage"/>
    <dc:title/>
   </cc:Work>
  </rdf:RDF>
 </metadata>
 <defs>
  <filter id="filter11290" x="-.024" y="-.024" width="1.048" height="1.048" color-interpolation-filters="sRGB">
   <feGaussianBlur stdDeviation="0.15875313"/>
  </filter>
  <linearGradient id="linearGradient1005" x1=".73911" x2="16.388" y1="16.296" y2=".64687" gradientTransform="translate(-.035055 .00645)" gradientUnits="userSpaceOnUse">
   <stop stop-color="#a0b9cd" offset="0"/>
   <stop stop-color="#96b4c8" offset=".48743"/>
   <stop stop-color="#a0b9cd" offset="1"/>
  </linearGradient>
  <filter id="filter917" x="-.083994" y="-.084006" width="1.168" height="1.168" color-interpolation-filters="sRGB">
   <feGaussianBlur stdDeviation="0.22223482"/>
  </filter>
 </defs>
 <circle cx="8.4665" cy="8.4665" r="7.9377" filter="url(#filter11290)" opacity=".25" stroke-width=".14032"/>
 <path d="m16.404 8.4664c0 0.95154-0.16749 1.8639-0.47464 2.7094-0.21351 0.58768-0.49439 1.1433-0.83393 1.6572-0.14222 0.21608-0.29514 0.42475-0.45746 0.62529-0.51966 0.64179-1.1372 1.2007-1.8305 1.6543-0.2553 0.16718-0.52065 0.3201-0.79536 0.45712-1.0668 0.53389-2.2711 0.83421-3.5456 0.83421s-2.4788-0.30032-3.5456-0.83424c-0.27474-0.13705-0.5404-0.28997-0.7957-0.45712-0.70207-0.45973-1.327-1.0274-1.8509-1.6798-0.16263-0.20216-0.31524-0.41275-0.45746-0.63078-0.33046-0.5054-0.60421-1.0507-0.8135-1.627-0.30711-0.84529-0.4743-1.7573-0.4743-2.7085 0-4.3838 3.5537-7.9375 7.9375-7.9375 2.2005 0 4.1917 0.89548 5.6295 2.3417 0.41436 0.41662 0.78274 0.87929 1.0963 1.3795 0.29645 0.47107 0.54428 0.97582 0.73704 1.5068 0.30718 0.84559 0.47467 1.7579 0.47467 2.7094z" fill="url(#linearGradient1005)" stroke-width=".031006"/>
 <g transform="translate(-.0272 .0065001)" fill="#5e4aa6" stroke-width=".26458">
  <circle cx="-330.35" cy="-328.38" r="0"/>
  <circle cx="-312.11" cy="-326.25" r="0"/>
  <circle cx="-306.02" cy="-333.07" r="0"/>
  <circle cx="-308.84" cy="-326.01" r="0"/>
 </g>
 <path transform="matrix(1.1368 0 0 1.1368 -1.707 -.68628)" d="m5.774 10.824c-4e-3 -1.524 2.2-5.925 3.226-5.947 0.513-0.013 1.282 0.962 1.928 2.222 0.647 1.259 1.17 2.804 1.196 3.932 0 0-2.483-4.849-3.102-4.863-0.63-0.017-2.342 3.416-2.138 3.798 0.2 0.373 3.888-0.83 3.888-0.83-0.08 0.123-2.487 1.715-4.293 2.09-0.273-0.012-0.682 0-0.705-0.402" fill="#6e8ca5" fill-rule="evenodd" filter="url(#filter917)"/>
 <path d="m4.8571 11.618c-0.00455-1.7325 2.501-6.7357 3.6674-6.7607 0.58319-0.014779 1.4574 1.0936 2.1918 2.526 0.73553 1.4313 1.3301 3.1877 1.3596 4.47 0 0-2.8227-5.5125-3.5264-5.5284-0.7162-0.019326-2.6625 3.8834-2.4305 4.3177 0.22737 0.42404 4.42-0.94357 4.42-0.94357-0.09095 0.13983-2.8273 1.9497-4.8804 2.376-0.31035-0.01364-0.77532 0-0.80146-0.457" fill="#fff" fill-rule="evenodd" stroke-width="1.1368"/>
</svg>
