<?xml version="1.0" encoding="UTF-8"?>
<svg width="64" height="64" version="1.1" xmlns="http://www.w3.org/2000/svg" xmlns:cc="http://creativecommons.org/ns#" xmlns:dc="http://purl.org/dc/elements/1.1/" xmlns:rdf="http://www.w3.org/1999/02/22-rdf-syntax-ns#" xmlns:xlink="http://www.w3.org/1999/xlink">
 <metadata>
  <rdf:RDF>
   <cc:Work rdf:about="">
    <dc:format>image/svg+xml</dc:format>
    <dc:type rdf:resource="http://purl.org/dc/dcmitype/StillImage"/>
    <dc:title/>
   </cc:Work>
  </rdf:RDF>
 </metadata>
 <defs>
  <filter id="filter11290" x="-.024" y="-.024" width="1.048" height="1.048" color-interpolation-filters="sRGB">
   <feGaussianBlur stdDeviation="0.15875313"/>
  </filter>
  <linearGradient id="linearGradient1005" x1=".73911" x2="16.388" y1="16.296" y2=".64687" gradientTransform="matrix(3.7796 0 0 3.7796 -.13249 .024378)" gradientUnits="userSpaceOnUse">
   <stop stop-color="#dddfe1" offset="0"/>
   <stop stop-color="#f3f4f6" offset="1"/>
  </linearGradient>
 </defs>
 <circle transform="matrix(3.7796 0 0 3.7796 -.1028 .024568)" cx="8.4937" cy="8.46" r="7.9377" filter="url(#filter11290)" opacity=".25" stroke-width=".14032"/>
 <path d="m62 32c0 3.5964-0.63305 7.0448-1.794 10.24-0.80698 2.2212-1.8686 4.3212-3.1519 6.2636-0.53754 0.8167-1.1155 1.6054-1.729 2.3633-1.9641 2.4257-4.2982 4.5382-6.9186 6.2526-0.96493 0.63187-1.9678 1.2098-3.0061 1.7277-4.0321 2.0179-8.5839 3.153-13.401 3.153-4.8171 0-9.3689-1.1351-13.401-3.1531-1.0384-0.518-2.0425-1.096-3.0074-1.7277-2.6535-1.7376-5.0155-3.8832-6.9957-6.349-0.61468-0.76408-1.1915-1.56-1.729-2.3841-1.249-1.9102-2.2837-3.9712-3.0747-6.1494-1.1608-3.1949-1.7927-6.6419-1.7927-10.237 0-16.569 13.432-30.001 30.001-30.001 8.317 0 15.843 3.3846 21.277 8.8507 1.5661 1.5747 2.9584 3.3234 4.1436 5.214 1.1205 1.7805 2.0572 3.6882 2.7857 5.6951 1.161 3.196 1.7941 6.6442 1.7941 10.24z" fill="url(#linearGradient1005)" stroke-width=".11719"/>
 <g transform="matrix(3.7796 0 0 3.7796 -.1028 .024568)" fill="#5e4aa6" stroke-width=".26458">
  <circle cx="-330.35" cy="-328.38" r="0"/>
  <circle cx="-312.11" cy="-326.25" r="0"/>
  <circle cx="-306.02" cy="-333.07" r="0"/>
  <circle cx="-308.84" cy="-326.01" r="0"/>
 </g>
 <path d="m32 25.087c3.5803 0 6.493 2.9128 6.493 6.493 0 0.51666 0.41904 0.9357 0.9357 0.9357 0.51666 0 0.9357-0.41904 0.9357-0.9357 0-4.6121-3.7523-8.3644-8.3644-8.3644s-8.3645 3.7523-8.3645 8.3644 3.7523 8.3644 8.3644 8.3644c2.9615 0 5.7304-1.5899 7.2261-4.1494 0.26075-0.44617 0.11041-1.0191-0.33576-1.28-0.44602-0.26044-1.0191-0.11026-1.28 0.33576-1.1615 1.9876-3.3113 3.2222-5.6105 3.2222-3.5803 0-6.493-2.9128-6.493-6.493s2.913-6.493 6.4933-6.493z" fill="#333" stroke-width="2.4855"/>
 <path d="m48.016 30.341c-0.58637-7.8067-6.9126-14.157-14.715-14.773-4.7166-0.37194-9.3303 1.3242-12.659 4.6534-3.3292 3.3292-5.0253 7.9433-4.6534 12.659 0.61304 7.7736 6.9371 14.098 14.711 14.711 0.4284 0.03384 0.85523 0.05037 1.281 0.05037 4.262 0 8.3516-1.6769 11.378-4.7036 0.36539-0.36555 0.36539-0.958 0-1.3232-0.36539-0.36523-0.95784-0.36554-1.3232-1.54e-4 -2.9415 2.9414-7.0196 4.4399-11.189 4.111-6.8654-0.5413-12.451-6.1267-12.992-12.992-0.32874-4.1693 1.1696-8.2477 4.111-11.189 2.9414-2.9414 7.019-4.4404 11.189-4.111 6.8913 0.54317 12.478 6.1524 12.996 13.047 0.07096 0.94459 0.05006 1.8935-0.06191 2.8205-0.11883 0.98311-0.71394 1.841-1.5919 2.2945-0.79457 0.41062-1.6872 0.40906-2.4494-0.0041-0.45428-0.24671-1.0224-0.07782-1.2685 0.37662-0.2464 0.45428-0.07782 1.0223 0.37662 1.2685 1.3154 0.71316 2.8462 0.72096 4.2002 0.02168 1.4291-0.73827 2.3977-2.1337 2.5908-3.7327 0.12663-1.0478 0.15018-2.1194 0.07018-3.1851z" fill="#333" stroke-width="2.4855"/>
</svg>
