<?xml version="1.0" encoding="UTF-8"?>
<!-- Created with Inkscape (http://www.inkscape.org/) -->
<svg width="64" height="64" version="1.1" viewBox="0 0 16.933 16.933" xmlns="http://www.w3.org/2000/svg" xmlns:cc="http://creativecommons.org/ns#" xmlns:dc="http://purl.org/dc/elements/1.1/" xmlns:rdf="http://www.w3.org/1999/02/22-rdf-syntax-ns#">
 <defs>
  <filter id="filter11290" x="-.024" y="-.024" width="1.048" height="1.048" color-interpolation-filters="sRGB">
   <feGaussianBlur stdDeviation="0.15875313"/>
  </filter>
  <linearGradient id="linearGradient1005" x1="4.5093" x2="12.872" y1="12.526" y2="4.1627" gradientTransform="translate(-.0080452 -5.0139e-5)" gradientUnits="userSpaceOnUse">
   <stop stop-color="#9150dc" offset="0"/>
   <stop stop-color="#b496ff" offset="1"/>
  </linearGradient>
  <linearGradient id="b" x1="45.094" x2="45.094" y1="50" y2="14" gradientTransform="matrix(.19079 0 0 .19079 26.968 -2.1362)" gradientUnits="userSpaceOnUse">
   <stop offset="0"/>
   <stop stop-opacity="0" offset="1"/>
  </linearGradient>
  <filter id="filter949" x="-.075915" y="-.094012" width="1.1518" height="1.188" color-interpolation-filters="sRGB">
   <feGaussianBlur stdDeviation="0.49298235"/>
  </filter>
 </defs>
 <metadata>
  <rdf:RDF>
   <cc:Work rdf:about="">
    <dc:format>image/svg+xml</dc:format>
    <dc:type rdf:resource="http://purl.org/dc/dcmitype/StillImage"/>
    <dc:title/>
   </cc:Work>
  </rdf:RDF>
 </metadata>
 <circle cx="8.4937" cy="8.46" r="7.9377" filter="url(#filter11290)" opacity=".25" stroke-width=".14032"/>
 <path d="m16.431 8.4599c0 0.95154-0.16749 1.8639-0.47464 2.7094-0.21351 0.58768-0.49439 1.1433-0.83393 1.6572-0.14222 0.21608-0.29514 0.42475-0.45746 0.62529-0.51966 0.64179-1.1372 1.2007-1.8305 1.6543-0.2553 0.16718-0.52065 0.3201-0.79536 0.45712-1.0668 0.53389-2.2711 0.83421-3.5456 0.83421s-2.4788-0.30032-3.5456-0.83424c-0.27474-0.13705-0.5404-0.28997-0.7957-0.45712-0.70207-0.45973-1.327-1.0274-1.8509-1.6798-0.16263-0.20216-0.31524-0.41275-0.45746-0.63078-0.33046-0.5054-0.60421-1.0507-0.8135-1.627-0.30711-0.84529-0.4743-1.7573-0.4743-2.7085 0-4.3838 3.5537-7.9375 7.9375-7.9375 2.2005 0 4.1917 0.89548 5.6295 2.3417 0.41436 0.41662 0.78274 0.87929 1.0963 1.3795 0.29645 0.47107 0.54428 0.97582 0.73704 1.5068 0.30718 0.84559 0.47467 1.7579 0.47467 2.7094z" fill="url(#linearGradient1005)" stroke-width=".031006"/>
 <g fill="#5e4aa6" stroke-width=".26458">
  <circle cx="-330.35" cy="-328.38" r="0"/>
  <circle cx="-312.11" cy="-326.25" r="0"/>
  <circle cx="-306.02" cy="-333.07" r="0"/>
  <circle cx="-308.84" cy="-326.01" r="0"/>
 </g>
 <g transform="translate(-24.579 4.4909)" fill-rule="evenodd">
  <g transform="matrix(.72112 0 0 .72112 6.8999 -15.796)" fill="#9150dc" filter="url(#filter949)">
   <path d="m41.805 33.428c-0.054 0.2-0.27 0.316-0.48 0.26l-12.524-3.356c-0.212-0.057-0.34-0.267-0.287-0.465l2.272-8.476c0.053-0.2 0.27-0.316 0.48-0.26l12.523 3.357c0.211 0.057 0.34 0.267 0.286 0.465z"/>
   <path d="m43.175 31.797c0 0.207-0.18 0.375-0.397 0.375h-12.965c-0.219 0-0.397-0.17-0.397-0.375v-8.774c0-0.207 0.18-0.375 0.397-0.375h12.966c0.22 0 0.397 0.17 0.397 0.375z"/>
   <path d="m39.206 28.865v-3.308a0.397 0.397 0 0 0-0.394-0.396h-4.633v-1.059c0-0.132-0.132-0.397-0.397-0.397-0.264 0-0.397 0.265-0.397 0.397v1.059h-1.058c-0.132 0-0.397 0.132-0.397 0.397 0 0.264 0.265 0.396 0.397 0.396h1.058v3.308c0 0.22 0.18 0.397 0.395 0.397h4.632v1.058c0 0.132 0.133 0.397 0.397 0.397 0.265 0 0.397-0.265 0.397-0.397v-1.058h1.058c0.133 0 0.397-0.133 0.397-0.397 0-0.265-0.264-0.397-0.397-0.397zm-5.027 0v-2.91h4.233v2.91z"/>
   <path d="m41.279 22.647a15.346 14.023 0 0 1-4.9339 9.5249h6.4325c0.21801 0 0.39687-0.16774 0.39687-0.37464v-8.7756c0-0.20478-0.17753-0.37464-0.39687-0.37464z" opacity=".15" stroke-width=".26458"/>
  </g>
  <g stroke-width=".72112">
   <path d="m37.046 8.3092c-0.03894 0.14422-0.1947 0.22787-0.34614 0.18749l-9.0313-2.4201c-0.15288-0.041104-0.24518-0.19254-0.20696-0.33532l1.6384-6.1122c0.03822-0.14422 0.1947-0.22787 0.34614-0.18749l9.0306 2.4208c0.15216 0.041104 0.24518 0.19254 0.20624 0.33532z" fill="#ffc771"/>
   <path d="m38.034 7.1331c0 0.14927-0.1298 0.27042-0.28628 0.27042h-9.3493c-0.15793 0-0.28628-0.12259-0.28628-0.27042v-6.3271c0-0.14927 0.1298-0.27042 0.28628-0.27042h9.35c0.15865 0 0.28628 0.12259 0.28628 0.27042z" fill="#a75dfa"/>
   <path d="m35.172 5.0188v-2.3855a0.28628 0.28628 0 0 0-0.28412-0.28556h-3.3409v-0.76367c0-0.095188-0.09519-0.28628-0.28628-0.28628-0.19038 0-0.28628 0.1911-0.28628 0.28628v0.76367h-0.76294c-0.09519 0-0.28628 0.095188-0.28628 0.28628 0 0.19038 0.1911 0.28556 0.28628 0.28556h0.76294v2.3855c0 0.15865 0.1298 0.28628 0.28484 0.28628h3.3402v0.76294c0 0.095188 0.09591 0.28628 0.28628 0.28628 0.1911 0 0.28628-0.1911 0.28628-0.28628v-0.76294h0.76294c0.09591 0 0.28628-0.095909 0.28628-0.28628 0-0.1911-0.19038-0.28628-0.28628-0.28628zm-3.6251 0v-2.0985h3.0525v2.0985z" fill="#fff9f9"/>
  </g>
  <path d="m36.667 0.53483a11.066 10.112 0 0 1-3.5579 6.8686h4.6386c0.15721 0 0.28619-0.12096 0.28619-0.27016v-6.3283c0-0.14767-0.12802-0.27016-0.28619-0.27016z" fill="url(#b)" opacity=".15" stroke-width=".19079"/>
 </g>
</svg>
