<?xml version="1.0" encoding="UTF-8"?>
<!-- Created with Inkscape (http://www.inkscape.org/) -->
<svg width="64" height="64" version="1.1" viewBox="0 0 16.933 16.933" xmlns="http://www.w3.org/2000/svg" xmlns:cc="http://creativecommons.org/ns#" xmlns:dc="http://purl.org/dc/elements/1.1/" xmlns:rdf="http://www.w3.org/1999/02/22-rdf-syntax-ns#">
 <defs>
  <filter id="filter11290" x="-.024" y="-.024" width="1.048" height="1.048" color-interpolation-filters="sRGB">
   <feGaussianBlur stdDeviation="0.15875313"/>
  </filter>
  <linearGradient id="linearGradient1005" x1=".73911" x2="12.872" y1="16.296" y2="4.1627" gradientTransform="translate(.31481 -5.0139e-5)" gradientUnits="userSpaceOnUse">
   <stop stop-color="#3caaff" offset="0"/>
   <stop stop-color="#b496ff" offset="1"/>
  </linearGradient>
  <linearGradient id="linearGradient1001" x1="5.7215" x2="2.8442" y1="8.4996" y2="14.519" gradientTransform="matrix(1.1404,0,0,1.1404,-2.201,-1.2951)" gradientUnits="userSpaceOnUse">
   <stop stop-color="#c3d2ff" offset="0"/>
   <stop stop-color="#82c8ff" offset="1"/>
  </linearGradient>
  <linearGradient id="linearGradient1003" x1="6.5814" x2="13.959" y1="6.7137" y2="13.123" gradientTransform="matrix(1.1404,0,0,1.1404,-2.201,-1.2951)" gradientUnits="userSpaceOnUse">
   <stop stop-color="#fff" offset="0"/>
   <stop stop-color="#e6e6ff" offset="1"/>
  </linearGradient>
 </defs>
 <metadata>
  <rdf:RDF>
   <cc:Work rdf:about="">
    <dc:format>image/svg+xml</dc:format>
    <dc:type rdf:resource="http://purl.org/dc/dcmitype/StillImage"/>
    <dc:title/>
   </cc:Work>
  </rdf:RDF>
 </metadata>
 <circle cx="8.4937" cy="8.46" r="7.9377" filter="url(#filter11290)" opacity=".25" stroke-width=".14032"/>
 <g fill="#5e4aa6" stroke-width=".26458">
  <circle cx="-330.35" cy="-328.38" r="0"/>
  <circle cx="-312.11" cy="-326.25" r="0"/>
  <circle cx="-306.02" cy="-333.07" r="0"/>
  <circle cx="-308.84" cy="-326.01" r="0"/>
 </g>
 <g transform="translate(-.32286)">
  <path d="m16.754 8.4599c0 0.95154-0.16749 1.8639-0.47464 2.7094-0.21351 0.58768-0.49439 1.1433-0.83393 1.6572-0.14222 0.21608-0.29514 0.42475-0.45746 0.62529-0.51966 0.64179-1.1372 1.2007-1.8305 1.6543-0.2553 0.16718-0.52065 0.3201-0.79536 0.45712-1.0668 0.53389-2.2711 0.83421-3.5456 0.83421s-2.4788-0.30032-3.5456-0.83424c-0.27474-0.13705-0.5404-0.28997-0.7957-0.45712-0.70207-0.45973-1.327-1.0274-1.8509-1.6798-0.16263-0.20216-0.31524-0.41275-0.45746-0.63078-0.33046-0.5054-0.60421-1.0507-0.8135-1.627-0.30711-0.84529-0.4743-1.7573-0.4743-2.7085 0-4.3838 3.5537-7.9375 7.9375-7.9375 2.2005 0 4.1917 0.89548 5.6295 2.3417 0.41436 0.41662 0.78274 0.87929 1.0963 1.3795 0.29645 0.47107 0.54428 0.97582 0.73704 1.5068 0.30718 0.84559 0.47467 1.7579 0.47467 2.7094z" fill="url(#linearGradient1005)" stroke-width=".031006"/>
  <circle cx="11.04" cy="3.2763" r="1.0816" fill="#fff"/>
  <g transform="translate(1.3597)" stroke-width="1.1404">
   <path d="m6.3812 6.3804c-0.6435 0.0033887-1.7488 0.19636-2.3678 0.53381-0.37642 0.16778-0.79877 0.38125-1.2707 0.65318-0.47195 0.27193-0.99354 0.60185-1.5678 1.0015-0.47794 0.33258-1.0018 0.72621-1.5549 1.1622 0.079842 0.49581 0.20419 0.97697 0.37155 1.4376 0.20929 0.5763 0.48291 1.1213 0.81337 1.6267 0.14222 0.21803 0.29521 0.4288 0.45784 0.63096 0.5239 0.6524 1.1484 1.2202 1.8505 1.68 0.2553 0.16715 0.52106 0.31976 0.7958 0.45681 1.0668 0.53392 2.2715 0.83456 3.546 0.83456 1.2745 1e-6 2.4787-0.30067 3.5455-0.83456 0.27471-0.13702 0.53998-0.28963 0.79528-0.45681 0.34962-0.22874 0.67978-0.48434 0.98803-0.76376-0.2947-0.23736-0.61425-0.48427-0.98597-0.74154-0.54778-0.37913-1.1768-0.76756-1.881-1.1301-0.70423-0.36257-1.4623-0.78312-2.1528-1.2449-0.34527-0.23086-0.6739-0.47184-0.97046-0.72139s-0.56109-0.50785-0.77875-0.77203c-0.21764-0.26417-0.38858-0.5345-0.49712-0.80924-0.10854-0.27473-0.15426-0.55384-0.1235-0.83507s0.13873-0.56433 0.33899-0.84799c0.20025-0.28366 0.49249-0.56752 0.89243-0.84954-0.070316-0.0073759-0.1525-0.010819-0.24442-0.010335z" enable-background="new" fill="url(#linearGradient1001)"/>
   <path d="m6.6252 6.3902c-0.39913 0.28145-0.69118 0.56491-0.8914 0.84799-4.04e-4 5.746e-4 -0.00125 9.802e-4 -0.00155 0.00155-1.209e-4 1.699e-4 1.18e-4 8.636e-4 0 0.00103-0.19279 0.27323-0.29158 0.54546-0.32659 0.81647-0.0062 0.068495-0.02329 0.16568-0.02067 0.23822 0.0019 0.16329 0.033561 0.32572 0.082681 0.48678 0.04956 0.16003 0.13145 0.3414 0.23047 0.51675 0.06119 0.10388 0.13773 0.21863 0.21445 0.3209 0.10015 0.13996 0.23269 0.27151 0.36845 0.42012 0.15635 0.16149 0.32743 0.30865 0.5121 0.46404 0.08307 0.06991 0.17892 0.14904 0.26664 0.21755 0.17447 0.13039 0.21992 0.17037 0.53742 0.39067 0.32513 0.22559 0.70787 0.48149 1.0991 0.7188 0.39812 0.2306 0.86069 0.46904 1.2464 0.66765 0.74052 0.39027 1.4246 0.81518 2.0376 1.2433 0.26833 0.18809 0.53556 0.39199 0.80097 0.60254 0.30394-0.27529 0.5866-0.57395 0.84489-0.89295 0.16232-0.20054 0.31562-0.40919 0.45784-0.62527 0.33954-0.5139 0.62001-1.0696 0.83352-1.6572 0.09994-0.2751 0.1838-0.55763 0.25321-0.84593-0.57275-0.26998-1.1606-0.55056-1.7177-0.86453-0.54234-0.30569-1.876-1.1248-3.2607-1.8417-0.69237-0.35843-1.3972-0.69125-2.0226-0.92137-0.53929-0.17223-1.0005-0.25702-1.5446-0.3054z" enable-background="new" fill="url(#linearGradient1003)"/>
  </g>
 </g>
</svg>
