<?xml version="1.0" encoding="UTF-8"?>
<svg width="64" height="64" version="1.1" viewBox="0 0 16.933 16.933" xmlns="http://www.w3.org/2000/svg" xmlns:cc="http://creativecommons.org/ns#" xmlns:dc="http://purl.org/dc/elements/1.1/" xmlns:rdf="http://www.w3.org/1999/02/22-rdf-syntax-ns#">
 <metadata>
  <rdf:RDF>
   <cc:Work rdf:about="">
    <dc:format>image/svg+xml</dc:format>
    <dc:type rdf:resource="http://purl.org/dc/dcmitype/StillImage"/>
    <dc:title/>
   </cc:Work>
  </rdf:RDF>
 </metadata>
 <defs>
  <filter id="filter11290" x="-.024" y="-.024" width="1.048" height="1.048" color-interpolation-filters="sRGB">
   <feGaussianBlur stdDeviation="0.15875313"/>
  </filter>
  <linearGradient id="linearGradient1005" x1=".73911" x2="16.388" y1="16.296" y2=".64687" gradientTransform="translate(-.035055 .00645)" gradientUnits="userSpaceOnUse">
   <stop stop-color="#dc2828" offset="0"/>
   <stop stop-color="#ff4141" offset="1"/>
  </linearGradient>
 </defs>
 <circle cx="8.4665" cy="8.4665" r="7.9377" filter="url(#filter11290)" opacity=".25" stroke-width=".14032"/>
 <path d="m16.404 8.4664c0 0.95154-0.16749 1.8639-0.47464 2.7094-0.21351 0.58768-0.49439 1.1433-0.83393 1.6572-0.14222 0.21608-0.29514 0.42475-0.45746 0.62529-0.51966 0.64179-1.1372 1.2007-1.8305 1.6543-0.2553 0.16718-0.52065 0.3201-0.79536 0.45712-1.0668 0.53389-2.2711 0.83421-3.5456 0.83421s-2.4788-0.30032-3.5456-0.83424c-0.27474-0.13705-0.5404-0.28997-0.7957-0.45712-0.70207-0.45973-1.327-1.0274-1.8509-1.6798-0.16263-0.20216-0.31524-0.41275-0.45746-0.63078-0.33046-0.5054-0.60421-1.0507-0.8135-1.627-0.30711-0.84529-0.4743-1.7573-0.4743-2.7085 0-4.3838 3.5537-7.9375 7.9375-7.9375 2.2005 0 4.1917 0.89548 5.6295 2.3417 0.41436 0.41662 0.78274 0.87929 1.0963 1.3795 0.29645 0.47107 0.54428 0.97582 0.73704 1.5068 0.30718 0.84559 0.47467 1.7579 0.47467 2.7094z" fill="url(#linearGradient1005)" stroke-width=".031006"/>
 <g transform="translate(-.0272 .0065001)" fill="#5e4aa6" stroke-width=".26458">
  <circle cx="-330.35" cy="-328.38" r="0"/>
  <circle cx="-312.11" cy="-326.25" r="0"/>
  <circle cx="-306.02" cy="-333.07" r="0"/>
  <circle cx="-308.84" cy="-326.01" r="0"/>
  <circle cx="-279" cy="-327.65" r="0"/>
  <circle cx="11.912" cy="7.1715" r="0" fill-rule="evenodd"/>
 </g>
 <path d="m7.833 4.1446c-0.086745-0.013886-0.1724 0.04366-0.26359 0.19905-0.1459 0.24747-0.21311 0.94039-0.09289 1.6069 0.040616 0.22778 0.12738 0.55908 0.24489 0.92047-0.093009 0.33851-0.19719 0.69747-0.31066 1.0538-0.44824 1.4077-1.411 2.8827-1.9187 3.6764-0.321 0.49959-1.0928 1.0867-1.1581 0.97232-0.064203-0.1144 0.15324-0.37084 0.42403-0.78172 0.26964-0.40856 0.96028-0.83239 0.96028-0.83239s-0.29493-0.01148-1.0502 0.65385c-0.75522 0.66884-0.52659 0.99926-0.34682 1.1008 0.17859 0.10388 0.6802 0.50043 2.3844-2.4585 0.62229-1.0809 0.9836-2.0639 1.1937-2.8791 0.21526 0.55765 0.49308 1.1211 0.80163 1.476 0.17988 0.20804 0.41625 0.40624 0.6786 0.58993-0.20658 0.037634-0.44391 0.083403-0.76544 0.14235-1.1774 0.21354-1.7634 0.67668-1.7764 0.68703 0.00948-0.0031 1.3786-0.4361 2.8332-0.63758 0.57211 0.34808 1.2293 0.61584 1.7727 0.72443 0.84787 0.17154 1.079-0.13928 1.1063-0.18095-0.03304 0.02736-0.14322 0.07863-0.49342 0.04885-0.28137-0.02321-1.0506-0.24074-1.8301-0.65868 1.614-0.14914 2.1718 0.014852 2.3156 0.12968 0.14357 0.11556 0.14356 0.24309 0.14356 0.24309s0.18473-0.17858 0.06333-0.35951c-0.10272-0.18792-0.26052-0.34428-1.555-0.30461-0.64185 0.019048-0.98749 0.041093-1.318 0.08505-0.39215-0.24396-0.76988-0.53484-1.0676-0.88728-0.39913-0.47246-0.64314-1.0162-0.80225-1.5514 0.23842-1.1481 0.16425-1.8589 0.16347-1.8663 0 0-0.12111 0.55021-0.30763 1.2758-0.10701-0.54843-0.14379-1.054-0.17432-1.4133-0.065369-0.82409 0.30336-0.59546 0.35587-0.4904 0.084043 0.067702 0.12487 0.29315 0.12487 0.29315s-0.029057-0.3366-0.17613-0.48135c-0.054714-0.053839-0.10719-0.087575-0.15924-0.095907zm-0.99527 6.1273c-3.27e-5 1e-5 -0.0036 0.0012-0.0036 0.0012l-0.0012 0.0024s0.00468-0.0035 0.00479-0.0036z" fill="#fff" stroke-width="1.0895"/>
</svg>
