<?xml version="1.0" encoding="UTF-8"?>
<!-- Created with Inkscape (http://www.inkscape.org/) -->
<svg width="64" height="64" version="1.1" viewBox="0 0 16.933 16.933" xmlns="http://www.w3.org/2000/svg" xmlns:cc="http://creativecommons.org/ns#" xmlns:dc="http://purl.org/dc/elements/1.1/" xmlns:rdf="http://www.w3.org/1999/02/22-rdf-syntax-ns#" xmlns:xlink="http://www.w3.org/1999/xlink">
 <defs>
  <filter id="filter11290" x="-.024" y="-.024" width="1.048" height="1.048" color-interpolation-filters="sRGB">
   <feGaussianBlur stdDeviation="0.15875313"/>
  </filter>
  <linearGradient id="a-9" x1="23.487" x2="23.487" y1="15.18" y2="32.913" gradientTransform="matrix(.12676 0 0 .12676 -27.515 6.7925)" gradientUnits="userSpaceOnUse">
   <stop stop-color="#141414" offset="0"/>
   <stop stop-color="#30277f" offset="1"/>
  </linearGradient>
  <radialGradient id="c-7" cx="24.047" cy="23.949" r="2.9867" gradientTransform="matrix(.2056 -3.7539e-8 2.8431e-8 .15571 -39.607 5.456)" gradientUnits="userSpaceOnUse">
   <stop stop-color="#2839e6" offset="0"/>
   <stop stop-opacity="0" offset="1"/>
  </radialGradient>
  <linearGradient id="d-6" x1="361.36" x2="361.36" y1="616.07" y2="722.79" gradientTransform="matrix(.0040372 0 0 .0040372 -25.925 7.1257)" gradientUnits="userSpaceOnUse">
   <stop stop-color="#fff" offset="0"/>
   <stop stop-color="#fff" stop-opacity="0" offset="1"/>
  </linearGradient>
  <radialGradient id="radialGradient123131" cx="-24.473" cy="9.8348" r="1.1409" gradientTransform="matrix(1.4202 0 0 1.0512 .054505 -1.1471)" gradientUnits="userSpaceOnUse" xlink:href="#a-9"/>
  <linearGradient id="linearGradient123141" x1="-24.485" x2="-24.485" y1="8.6962" y2="9.7506" gradientTransform="translate(-10.196 -.6431)" gradientUnits="userSpaceOnUse" xlink:href="#d-6"/>
  <linearGradient id="linearGradient123149" x1="-24.478" x2="-24.478" y1="11.104" y2="8.4912" gradientTransform="translate(-10.229 -.6431)" gradientUnits="userSpaceOnUse">
   <stop stop-color="#2d1edc" offset="0"/>
   <stop stop-color="#141414" offset="1"/>
  </linearGradient>
  <radialGradient id="radialGradient123155" cx="-24.473" cy="9.8348" r="1.1409" gradientTransform="matrix(1.1403 0 0 .84405 -6.7958 .89063)" gradientUnits="userSpaceOnUse" xlink:href="#a-9"/>
  <linearGradient id="linearGradient123157" x1="-24.478" x2="-24.478" y1="11.104" y2="8.4912" gradientTransform="matrix(.8029 0 0 .8029 -15.053 1.2953)" gradientUnits="userSpaceOnUse" xlink:href="#a-9"/>
  <radialGradient id="radialGradient123159" cx="-24.473" cy="9.8348" r="1.5211" gradientTransform="matrix(.93082 0 0 .93082 -11.889 .037279)" gradientUnits="userSpaceOnUse">
   <stop stop-color="#291dc0" offset="0"/>
   <stop stop-color="#1b1b23" offset="1"/>
  </radialGradient>
  <linearGradient id="linearGradient123161" x1="361.36" x2="361.36" y1="616.07" y2="722.79" gradientTransform="matrix(.0040372 0 0 .0040372 -36.122 6.4826)" gradientUnits="userSpaceOnUse" xlink:href="#d-6"/>
  <linearGradient id="linearGradient123197" x1="-36.117" x2="-33.22" y1="10.638" y2="7.7404" gradientUnits="userSpaceOnUse">
   <stop offset="0"/>
   <stop stop-opacity="0" offset="1"/>
  </linearGradient>
  <linearGradient id="linearGradient952" x1="-20.384" x2="-23.272" y1="6.1331" y2="15.312" gradientUnits="userSpaceOnUse">
   <stop stop-color="#232323" offset="0"/>
   <stop stop-color="#323296" offset=".95004"/>
   <stop stop-color="#232323" offset="1"/>
  </linearGradient>
  <linearGradient id="linearGradient1000" x1="-25.122" x2="-15.582" y1="9.3424" y2="9.3424" gradientUnits="userSpaceOnUse">
   <stop stop-color="#407fff" offset="0"/>
   <stop stop-color="#ff407a" offset="1"/>
  </linearGradient>
  <linearGradient id="linearGradient1005" x1=".73911" x2="16.388" y1="16.296" y2=".64687" gradientTransform="translate(-.0078552 -5.0139e-5)" gradientUnits="userSpaceOnUse">
   <stop stop-color="#dddfe1" offset="0"/>
   <stop stop-color="#f3f4f6" offset="1"/>
  </linearGradient>
 </defs>
 <metadata>
  <rdf:RDF>
   <cc:Work rdf:about="">
    <dc:format>image/svg+xml</dc:format>
    <dc:type rdf:resource="http://purl.org/dc/dcmitype/StillImage"/>
    <dc:title/>
   </cc:Work>
  </rdf:RDF>
 </metadata>
 <circle cx="8.4937" cy="8.46" r="7.9377" filter="url(#filter11290)" opacity=".25" stroke-width=".14032"/>
 <path d="m16.431 8.4599c0 0.95154-0.16749 1.8639-0.47464 2.7094-0.21351 0.58768-0.49439 1.1433-0.83393 1.6572-0.14222 0.21608-0.29514 0.42475-0.45746 0.62529-0.51966 0.64179-1.1372 1.2007-1.8305 1.6543-0.2553 0.16718-0.52065 0.3201-0.79536 0.45712-1.0668 0.53389-2.2711 0.83421-3.5456 0.83421s-2.4788-0.30032-3.5456-0.83424c-0.27474-0.13705-0.5404-0.28997-0.7957-0.45712-0.70207-0.45973-1.327-1.0274-1.8509-1.6798-0.16263-0.20216-0.31524-0.41275-0.45746-0.63078-0.33046-0.5054-0.60421-1.0507-0.8135-1.627-0.30711-0.84529-0.4743-1.7573-0.4743-2.7085 0-4.3838 3.5537-7.9375 7.9375-7.9375 2.2005 0 4.1917 0.89548 5.6295 2.3417 0.41436 0.41662 0.78274 0.87929 1.0963 1.3795 0.29645 0.47107 0.54428 0.97582 0.73704 1.5068 0.30718 0.84559 0.47467 1.7579 0.47467 2.7094z" fill="url(#linearGradient1005)" stroke-width=".031006"/>
 <g fill="#5e4aa6" stroke-width=".26458">
  <circle cx="-330.35" cy="-328.38" r="0"/>
  <circle cx="-312.11" cy="-326.25" r="0"/>
  <circle cx="-306.02" cy="-333.07" r="0"/>
  <circle cx="-308.84" cy="-326.01" r="0"/>
 </g>
 <g transform="matrix(1.1176 0 0 1.1176 31.21 -2.0334)">
  <circle cx="-20.326" cy="9.3892" r="4.5619" fill="none" stroke="url(#linearGradient1000)" stroke-dashoffset=".42096" stroke-width=".41831"/>
  <g transform="translate(1.442 .17857)">
   <circle cx="-21.768" cy="9.2106" r="3.7206" fill="url(#linearGradient952)" stroke="#131313" stroke-dashoffset=".42096" stroke-linecap="round" stroke-width=".10583"/>
   <g fill="none" stroke="#131313" stroke-linecap="round" stroke-width=".10583">
    <path d="m-21.571 11.054s-1.9854 0.90882-3.768-0.84568"/>
    <path d="m-19.926 8.4729s1.3917 1.6826 0.15838 3.8585"/>
    <path d="m-22.976 7.6132s1.265-1.7798 3.6861-1.1516"/>
   </g>
   <g transform="matrix(1.4044,0,0,1.4044,26.913,-3.7824)">
    <circle cx="-34.669" cy="9.1917" r="1.4159" fill="url(#radialGradient123159)" stroke="url(#linearGradient123197)" stroke-width=".084198"/>
    <circle cx="-34.702" cy="9.1917" r="1.1409" fill="url(#radialGradient123131)" stroke="url(#linearGradient123149)" stroke-width=".079373"/>
    <circle cx="-34.702" cy="9.1917" r=".916" fill="url(#radialGradient123155)" stroke="url(#linearGradient123157)" stroke-width=".063729"/>
    <circle cx="-34.663" cy="9.1852" r=".45681" fill-opacity=".58824" stroke-width="1.6252"/>
    <circle cx="-34.663" cy="9.1852" r=".3786" fill="url(#c-7)" stroke-width="2.0203"/>
    <ellipse cx="-34.682" cy="8.6235" rx=".71737" ry=".53163" fill="#fafafa" opacity=".3" stroke="url(#linearGradient123141)" stroke-width=".079373"/>
    <circle cx="-34.663" cy="9.1852" r=".21543" fill="url(#linearGradient123161)" opacity=".15" stroke-width="1.3734"/>
   </g>
  </g>
 </g>
</svg>
