<?xml version="1.0" encoding="UTF-8"?>
<svg width="64" height="64" version="1.1" viewBox="0 0 16.933 16.933" xmlns="http://www.w3.org/2000/svg" xmlns:cc="http://creativecommons.org/ns#" xmlns:dc="http://purl.org/dc/elements/1.1/" xmlns:rdf="http://www.w3.org/1999/02/22-rdf-syntax-ns#">
 <metadata>
  <rdf:RDF>
   <cc:Work rdf:about="">
    <dc:format>image/svg+xml</dc:format>
    <dc:type rdf:resource="http://purl.org/dc/dcmitype/StillImage"/>
    <dc:title/>
   </cc:Work>
  </rdf:RDF>
 </metadata>
 <defs>
  <style type="text/css"/>
  <style type="text/css"/>
  <filter id="filter11290" x="-.024" y="-.024" width="1.048" height="1.048" color-interpolation-filters="sRGB">
   <feGaussianBlur stdDeviation="0.15875313"/>
  </filter>
  <linearGradient id="linearGradient1005" x1=".8714" x2="16.246" y1="16.164" y2=".78937" gradientTransform="translate(-.035138 .0065691)" gradientUnits="userSpaceOnUse">
   <stop stop-color="#00c8ff" offset="0"/>
   <stop stop-color="#14a0ff" offset="1"/>
  </linearGradient>
 </defs>
 <circle cx="8.4665" cy="8.4665" r="7.9377" filter="url(#filter11290)" opacity=".25" stroke-width=".14032"/>
 <path d="m16.404 8.4666c0 0.95153-0.16749 1.8639-0.47465 2.7093-0.21351 0.58768-0.49439 1.1433-0.83392 1.6572-0.14222 0.21608-0.29514 0.42475-0.45746 0.62528-0.51966 0.64179-1.1372 1.2007-1.8305 1.6543-0.2553 0.16718-0.52064 0.32009-0.79535 0.45711-1.0668 0.53389-2.2711 0.83422-3.5456 0.83422s-2.4788-0.30032-3.5456-0.83424c-0.27474-0.13705-0.5404-0.28998-0.79569-0.45711-0.70206-0.45973-1.327-1.0274-1.8509-1.6798-0.16263-0.20216-0.31524-0.41274-0.45746-0.63078-0.33046-0.5054-0.60422-1.0507-0.8135-1.627-0.30712-0.8453-0.47431-1.7573-0.47431-2.7085 0-4.3838 3.5538-7.9376 7.9376-7.9376 2.2005 0 4.1917 0.89549 5.6294 2.3417 0.41436 0.41663 0.78273 0.8793 1.0963 1.3795 0.29646 0.47108 0.54429 0.97582 0.73704 1.5068 0.30718 0.84559 0.47468 1.7579 0.47468 2.7093z" fill="url(#linearGradient1005)" stroke-width=".031006"/>
 <g fill="#5e4aa6">
  <g transform="scale(.26458)" image-rendering="optimizeSpeed">
   <circle cx="-1160" cy="-1257.6" r="0"/>
   <circle cx="-1160" cy="-1257.6" r="0"/>
   <circle cx="-1244.2" cy="-1289.6" r="0"/>
  </g>
  <circle cx="-297.6" cy="-338.47" r="0" image-rendering="optimizeSpeed" stroke-width=".26458"/>
  <g transform="translate(32.763 -10.103)" image-rendering="optimizeSpeed" stroke-width=".26458">
   <circle cx="-299.02" cy="-338.77" r="0"/>
   <circle cx="-8.1062" cy="-3.9487" r="0" fill-rule="evenodd"/>
   <circle cx="-278.25" cy="-357.69" r="0"/>
   <circle cx="12.663" cy="-22.859" r="0" fill-rule="evenodd"/>
  </g>
 </g>
 <g transform="translate(-31.138 -11.193)" fill="#5e4aa6" image-rendering="optimizeSpeed" stroke-width=".26458">
  <circle cx="-347.64" cy="-328.38" r="0"/>
  <circle cx="-56.726" cy="6.44" r="0" fill-rule="evenodd"/>
  <g transform="translate(-.0272 .0065001)">
   <circle cx="-330.35" cy="-328.38" r="0"/>
   <circle cx="-312.11" cy="-326.25" r="0"/>
   <circle cx="-306.02" cy="-333.07" r="0"/>
   <circle cx="-308.84" cy="-326.01" r="0"/>
  </g>
 </g>
 <g fill="#fff">
  <path d="m8.269 2.5138a5.9589 5.9589 0 0 0-4.0167 1.7395 5.9589 5.9589 0 0 0-0.4862 7.8626l1.2519-1.2519a4.2062 4.2062 0 0 1 0.47428-5.3707 4.2062 4.2062 0 0 1 4.3758-0.98564v1.5049l2.2482-2.2482a5.9589 5.9589 0 0 0-3.8472-1.2506z" stroke-width=".99505" style="paint-order:stroke markers fill"/>
  <path d="m13.167 4.8192-1.2519 1.2519a4.2062 4.2062 0 0 1-0.4756 5.3707 4.2062 4.2062 0 0 1-4.3758 0.98564v-1.5063l-1.4864 1.4877-0.76175 0.76043a5.9589 5.9589 0 0 0 7.864-0.48753 5.9589 5.9589 0 0 0 0.48753-7.8626z" stroke-width=".99505" style="paint-order:stroke markers fill"/>
  <path d="m7.8203 8.7508c0 0.60887 0.01149 0.8214-0.37911 0.8214-0.39059 0-0.70078 0.12637-0.70078 0.4825s0.36762 0.52845 0.59738 0.52845 0.68355-0.16083 0.68355-0.64333v-2.1827l1.953-0.45377v1.6716s0.02298 0.20105-0.2355 0.20105-0.82714-0.07468-0.82714 0.47102c0 0.54568 0.55143 0.51122 0.63759 0.51122s0.64334-0.09191 0.64334-0.74099v-3.0673l-2.3837 0.45952z" stroke-width=".13349"/>
 </g>
 <g fill="#5e4aa6">
  <circle cx="-268.76" cy="-341.28" r="0" stroke-width=".26458"/>
  <g transform="translate(61.602 -12.906)" stroke-width=".26458">
   <circle cx="-299.02" cy="-338.77" r="0"/>
   <circle cx="-8.1062" cy="-3.9487" r="0" fill-rule="evenodd"/>
   <circle cx="-278.25" cy="-357.69" r="0"/>
   <circle cx="12.663" cy="-22.859" r="0" fill-rule="evenodd"/>
  </g>
  <g transform="translate(28.812 -2.7967)" stroke-width=".26458">
   <circle cx="-330.35" cy="-328.38" r="0"/>
   <circle cx="-312.11" cy="-326.25" r="0"/>
   <circle cx="-306.02" cy="-333.07" r="0"/>
   <circle cx="-308.84" cy="-326.01" r="0"/>
  </g>
 </g>
</svg>
