<?xml version="1.0" encoding="UTF-8"?>
<!-- Created with Inkscape (http://www.inkscape.org/) -->
<svg width="64" height="64" version="1.1" viewBox="0 0 16.933 16.933" xmlns="http://www.w3.org/2000/svg" xmlns:cc="http://creativecommons.org/ns#" xmlns:dc="http://purl.org/dc/elements/1.1/" xmlns:rdf="http://www.w3.org/1999/02/22-rdf-syntax-ns#" xmlns:xlink="http://www.w3.org/1999/xlink">
 <defs>
  <filter id="filter11290" x="-.024" y="-.024" width="1.048" height="1.048" color-interpolation-filters="sRGB">
   <feGaussianBlur stdDeviation="0.15875313"/>
  </filter>
  <linearGradient id="linearGradient1005" x1=".8714" x2="16.246" y1="16.164" y2=".78937" gradientTransform="translate(-.0080452 -5.0139e-5)" gradientUnits="userSpaceOnUse">
   <stop stop-color="#505050" offset="0"/>
   <stop stop-color="#505050" offset="1"/>
  </linearGradient>
  <linearGradient id="e-3" x1="24.705" x2="24.705" y1="43.939" y2="3.8297" gradientTransform="matrix(.26458 0 0 .26458 2.1436 2.1104)" gradientUnits="userSpaceOnUse">
   <stop stop-color="#008c28" offset="0"/>
   <stop stop-color="#00d25a" offset="1"/>
  </linearGradient>
  <filter id="filter1549" x="-.0945" y="-.0756" width="1.189" height="1.1512" color-interpolation-filters="sRGB">
   <feGaussianBlur stdDeviation="0.333368"/>
  </filter>
  <linearGradient id="linearGradient873" x1="24.705" x2="24.705" y1="43.939" y2="3.8297" gradientTransform="matrix(.26458 0 0 .26458 2.1436 2.1104)" gradientUnits="userSpaceOnUse" xlink:href="#e-3"/>
 </defs>
 <metadata>
  <rdf:RDF>
   <cc:Work rdf:about="">
    <dc:format>image/svg+xml</dc:format>
    <dc:type rdf:resource="http://purl.org/dc/dcmitype/StillImage"/>
    <dc:title/>
   </cc:Work>
  </rdf:RDF>
 </metadata>
 <circle cx="8.4937" cy="8.46" r="7.9377" filter="url(#filter11290)" opacity=".25" stroke-width=".14032"/>
 <path d="m16.431 8.4599c0 0.95154-0.16749 1.8639-0.47464 2.7094-0.21351 0.58768-0.49439 1.1433-0.83393 1.6572-0.14222 0.21608-0.29514 0.42475-0.45746 0.62529-0.51966 0.64179-1.1372 1.2007-1.8305 1.6543-0.2553 0.16718-0.52065 0.3201-0.79536 0.45712-1.0668 0.53389-2.2711 0.83421-3.5456 0.83421s-2.4788-0.30032-3.5456-0.83424c-0.27474-0.13705-0.5404-0.28997-0.7957-0.45712-0.70207-0.45973-1.327-1.0274-1.8509-1.6798-0.16263-0.20216-0.31524-0.41275-0.45746-0.63078-0.33046-0.5054-0.60421-1.0507-0.8135-1.627-0.30711-0.84529-0.4743-1.7573-0.4743-2.7085 0-4.3838 3.5537-7.9375 7.9375-7.9375 2.2005 0 4.1917 0.89548 5.6295 2.3417 0.41436 0.41662 0.78274 0.87929 1.0963 1.3795 0.29645 0.47107 0.54428 0.97582 0.73704 1.5068 0.30718 0.84559 0.47467 1.7579 0.47467 2.7094z" fill="url(#linearGradient1005)" stroke-width=".031006"/>
 <g fill="#5e4aa6" stroke-width=".26458">
  <circle cx="-330.35" cy="-328.38" r="0"/>
  <circle cx="-312.11" cy="-326.25" r="0"/>
  <circle cx="-306.02" cy="-333.07" r="0"/>
  <circle cx="-308.84" cy="-326.01" r="0"/>
 </g>
 <g transform="translate(.00024979)" filter="url(#filter1549)" stroke-width=".26458">
  <circle cx="-39.434" cy="6.44" r="0" fill="#5e4aa6" fill-rule="evenodd"/>
  <path d="m4.2602 7.2638c0 2.7225 2.2479 6.4877 4.2332 6.4877 1.869 0 4.2333-3.7655 4.2333-6.4877 0-2.7225-1.8953-4.0954-4.2333-4.0954s-4.2332 1.3728-4.2332 4.0954z" fill="url(#linearGradient873)"/>
  <path d="m9.6529 9.0905c0.53461-0.53461 1.2805-0.72902 1.9689-0.58353 0.14548 0.68838-0.04894 1.4343-0.58353 1.9688-0.53461 0.53461-1.2805 0.72902-1.9688 0.58353-0.1455-0.6884 0.048934-1.4343 0.58353-1.9688z" fill="#363636"/>
  <path d="m5.3651 8.5431c0.68838-0.14346 1.4343 0.048256 1.9688 0.57543 0.53461 0.52717 0.72902 1.2627 0.58353 1.9415-0.68838 0.14346-1.4343-0.048253-1.9689-0.57543-0.53461-0.5272-0.72902-1.2627-0.58353-1.9415z" fill="#363636"/>
  <circle cx="-302.06" cy="-337.95" r="0" fill="#5e4aa6"/>
  <circle cx="-11.145" cy="-3.1314" r="0" fill="#5e4aa6" fill-rule="evenodd"/>
 </g>
 <g transform="translate(.00024985)" stroke-width=".26458">
  <circle cx="-39.434" cy="6.44" r="0" fill="#5e4aa6" fill-rule="evenodd"/>
  <path d="m4.2602 7.2638c0 2.7225 2.2479 6.4877 4.2332 6.4877 1.869 0 4.2333-3.7655 4.2333-6.4877 0-2.7225-1.8953-4.0954-4.2333-4.0954s-4.2332 1.3728-4.2332 4.0954z" fill="url(#linearGradient873)"/>
  <path d="m9.6529 9.0905c0.53461-0.53461 1.2805-0.72902 1.9689-0.58353 0.14548 0.68838-0.04894 1.4343-0.58353 1.9688-0.53461 0.53461-1.2805 0.72902-1.9688 0.58353-0.1455-0.6884 0.048934-1.4343 0.58353-1.9688z" fill="#363636"/>
  <path d="m5.3651 8.5431c0.68838-0.14346 1.4343 0.048256 1.9688 0.57543 0.53461 0.52717 0.72902 1.2627 0.58353 1.9415-0.68838 0.14346-1.4343-0.048253-1.9689-0.57543-0.53461-0.5272-0.72902-1.2627-0.58353-1.9415z" fill="#363636"/>
  <circle cx="-302.06" cy="-337.95" r="0" fill="#5e4aa6"/>
  <circle cx="-11.145" cy="-3.1314" r="0" fill="#5e4aa6" fill-rule="evenodd"/>
 </g>
</svg>
