<?xml version="1.0" encoding="UTF-8" standalone="no"?>
<svg
   xmlns:dc="http://purl.org/dc/elements/1.1/"
   xmlns:cc="http://creativecommons.org/ns#"
   xmlns:rdf="http://www.w3.org/1999/02/22-rdf-syntax-ns#"
   xmlns:svg="http://www.w3.org/2000/svg"
   xmlns="http://www.w3.org/2000/svg"
   xmlns:xlink="http://www.w3.org/1999/xlink"
   xmlns:sodipodi="http://sodipodi.sourceforge.net/DTD/sodipodi-0.dtd"
   xmlns:inkscape="http://www.inkscape.org/namespaces/inkscape"
   width="64"
   height="64"
   version="1.1"
   viewBox="0 0 64 64"
   id="svg41"
   sodipodi:docname="android-file-transfer.svg"
   inkscape:version="0.92.4 5da689c313, 2019-01-14">
  <sodipodi:namedview
     pagecolor="#ffffff"
     bordercolor="#666666"
     borderopacity="1"
     objecttolerance="10"
     gridtolerance="10"
     guidetolerance="10"
     inkscape:pageopacity="0"
     inkscape:pageshadow="2"
     inkscape:window-width="1920"
     inkscape:window-height="1005"
     id="namedview43"
     showgrid="false"
     inkscape:zoom="3.6875"
     inkscape:cx="32"
     inkscape:cy="32"
     inkscape:window-x="0"
     inkscape:window-y="45"
     inkscape:window-maximized="1"
     inkscape:current-layer="svg41" />
  <metadata
     id="metadata2">
    <rdf:RDF>
      <cc:Work
         rdf:about="">
        <dc:format>image/svg+xml</dc:format>
        <dc:type
           rdf:resource="http://purl.org/dc/dcmitype/StillImage" />
        <dc:title></dc:title>
      </cc:Work>
    </rdf:RDF>
  </metadata>
  <defs
     id="defs17">
    <linearGradient
       id="linearGradient1047"
       x1="149.02"
       x2="149.02"
       y1="59.192"
       y2="25.95"
       gradientUnits="userSpaceOnUse">
      <stop
         stop-color="#16a085"
         offset="0"
         id="stop4" />
      <stop
         stop-color="#2ecc85"
         offset="1"
         id="stop6" />
    </linearGradient>
    <filter
       id="filter2761-3"
       x="-.024"
       y="-.024"
       width="1.048"
       height="1.048"
       color-interpolation-filters="sRGB">
      <feGaussianBlur
         stdDeviation="0.14552168"
         id="feGaussianBlur9" />
    </filter>
    <linearGradient
       id="linearGradient1024"
       x1="1.3315"
       x2="15.65"
       y1="15.576"
       y2="1.17"
       gradientTransform="matrix(3.7796,0,0,3.7796,-98.443323,0.53066)"
       gradientUnits="userSpaceOnUse">
      <stop
         stop-color="#dddfe1"
         offset="0"
         id="stop12" />
      <stop
         stop-color="#f3f4f6"
         stop-opacity=".99608"
         offset="1"
         id="stop14" />
    </linearGradient>
    <linearGradient
       gradientUnits="userSpaceOnUse"
       gradientTransform="matrix(1.0742,0,0,1.0742,-127.86998,-1.9188838)"
       y2="25.95"
       y1="59.192"
       x2="149.02"
       x1="149.02"
       id="linearGradient1047-3">
      <stop
         id="stop852"
         offset="0"
         stop-color="#16a085" />
      <stop
         id="stop854"
         offset="1"
         stop-color="#2ecc85" />
    </linearGradient>
    <filter
       color-interpolation-filters="sRGB"
       height="1.048"
       width="1.048"
       y="-.024"
       x="-.024"
       id="filter11290">
      <feGaussianBlur
         id="feGaussianBlur857"
         stdDeviation="0.15875313" />
    </filter>
    <filter
       color-interpolation-filters="sRGB"
       height="1.048"
       width="1.048"
       y="-.024"
       x="-.024"
       id="filter11290-6">
      <feGaussianBlur
         id="feGaussianBlur903"
         stdDeviation="0.15875313" />
    </filter>
    <linearGradient
       gradientUnits="userSpaceOnUse"
       gradientTransform="matrix(.12676 0 0 .12676 -27.515 6.7925)"
       y2="32.913"
       y1="15.18"
       x2="23.487"
       x1="23.487"
       id="a-9">
      <stop
         id="stop906"
         offset="0"
         stop-color="#141414" />
      <stop
         id="stop908"
         offset="1"
         stop-color="#30277f" />
    </linearGradient>
    <radialGradient
       gradientUnits="userSpaceOnUse"
       gradientTransform="matrix(0.2056,-3.7539e-8,2.8431e-8,0.15571,-39.607,5.456)"
       r="2.9867"
       cy="23.949"
       cx="24.047"
       id="c-7">
      <stop
         id="stop911"
         offset="0"
         stop-color="#2839e6" />
      <stop
         id="stop913"
         offset="1"
         stop-opacity="0" />
    </radialGradient>
    <linearGradient
       gradientUnits="userSpaceOnUse"
       gradientTransform="matrix(.0040372 0 0 .0040372 -25.925 7.1257)"
       y2="722.79"
       y1="616.07"
       x2="361.36"
       x1="361.36"
       id="d-6">
      <stop
         id="stop916"
         offset="0"
         stop-color="#fff" />
      <stop
         id="stop918"
         offset="1"
         stop-opacity="0"
         stop-color="#fff" />
    </linearGradient>
    <radialGradient
       xlink:href="#a-9"
       gradientUnits="userSpaceOnUse"
       gradientTransform="matrix(1.4202,0,0,1.0512,0.054505,-1.1471)"
       r="1.1409"
       cy="9.8348"
       cx="-24.473"
       id="radialGradient123131" />
    <linearGradient
       xlink:href="#d-6"
       gradientUnits="userSpaceOnUse"
       gradientTransform="translate(-10.196,-0.6431)"
       y2="9.7506"
       y1="8.6962"
       x2="-24.485"
       x1="-24.485"
       id="linearGradient123141" />
    <linearGradient
       gradientUnits="userSpaceOnUse"
       gradientTransform="translate(-10.229,-0.6431)"
       y2="8.4912"
       y1="11.104"
       x2="-24.478"
       x1="-24.478"
       id="linearGradient123149">
      <stop
         id="stop923"
         offset="0"
         stop-color="#2d1edc" />
      <stop
         id="stop925"
         offset="1"
         stop-color="#141414" />
    </linearGradient>
    <radialGradient
       xlink:href="#a-9"
       gradientUnits="userSpaceOnUse"
       gradientTransform="matrix(1.1403,0,0,0.84405,-6.7958,0.89063)"
       r="1.1409"
       cy="9.8348"
       cx="-24.473"
       id="radialGradient123155" />
    <linearGradient
       xlink:href="#a-9"
       gradientUnits="userSpaceOnUse"
       gradientTransform="matrix(0.8029,0,0,0.8029,-15.053,1.2953)"
       y2="8.4912"
       y1="11.104"
       x2="-24.478"
       x1="-24.478"
       id="linearGradient123157" />
    <radialGradient
       gradientUnits="userSpaceOnUse"
       gradientTransform="matrix(0.93082,0,0,0.93082,-11.889,0.037279)"
       r="1.5211"
       cy="9.8348"
       cx="-24.473"
       id="radialGradient123159">
      <stop
         id="stop930"
         offset="0"
         stop-color="#291dc0" />
      <stop
         id="stop932"
         offset="1"
         stop-color="#1b1b23" />
    </radialGradient>
    <linearGradient
       xlink:href="#d-6"
       gradientUnits="userSpaceOnUse"
       gradientTransform="matrix(0.0040372,0,0,0.0040372,-36.122,6.4826)"
       y2="722.79"
       y1="616.07"
       x2="361.36"
       x1="361.36"
       id="linearGradient123161" />
    <linearGradient
       gradientUnits="userSpaceOnUse"
       y2="7.7404"
       y1="10.638"
       x2="-33.22"
       x1="-36.117"
       id="linearGradient123197">
      <stop
         id="stop936"
         offset="0" />
      <stop
         id="stop938"
         offset="1"
         stop-opacity="0" />
    </linearGradient>
    <linearGradient
       gradientUnits="userSpaceOnUse"
       y2="15.312"
       y1="6.1331"
       x2="-23.272"
       x1="-20.384"
       id="linearGradient952">
      <stop
         id="stop941"
         offset="0"
         stop-color="#232323" />
      <stop
         id="stop943"
         offset=".95004"
         stop-color="#323296" />
      <stop
         id="stop945"
         offset="1"
         stop-color="#232323" />
    </linearGradient>
    <linearGradient
       gradientUnits="userSpaceOnUse"
       y2="9.3424"
       y1="9.3424"
       x2="-15.582"
       x1="-25.122"
       id="linearGradient1000">
      <stop
         id="stop948"
         offset="0"
         stop-color="#407fff" />
      <stop
         id="stop950"
         offset="1"
         stop-color="#ff407a" />
    </linearGradient>
    <linearGradient
       gradientUnits="userSpaceOnUse"
       gradientTransform="matrix(3.779602,0,0,3.779602,-0.13195,0.0245665)"
       y2=".64687"
       y1="16.296"
       x2="16.388"
       x1=".73911"
       id="linearGradient1005">
      <stop
         id="stop953"
         offset="0"
         stop-color="#dddfe1" />
      <stop
         id="stop955"
         offset="1"
         stop-color="#f3f4f6" />
    </linearGradient>
  </defs>
  <circle
     cx="8.4937"
     cy="8.46"
     r="7.9376998"
     id="circle962"
     style="opacity:0.25;stroke-width:0.14032;filter:url(#filter11290-6)"
     transform="matrix(3.779602,0,0,3.779602,-0.10280494,0.02456761)" />
  <path
     style="fill:url(#linearGradient1005);stroke-width:0.11719034"
     inkscape:connector-curvature="0"
     d="m 62.00038,31.999811 c 0,3.596443 -0.63305,7.044801 -1.79395,10.240454 -0.80698,2.221196 -1.8686,4.321219 -3.15192,6.263556 -0.53754,0.816696 -1.11552,1.605387 -1.72902,2.363347 -1.96411,2.425711 -4.29816,4.538169 -6.91856,6.252596 -0.96493,0.631874 -1.96785,1.209851 -3.00615,1.727732 -4.03208,2.017891 -8.58385,3.152981 -13.40095,3.152981 -4.81711,0 -9.36888,-1.13509 -13.40096,-3.153095 -1.03841,-0.517994 -2.0425,-1.095971 -3.00743,-1.727731 C 12.9379,55.382055 10.57591,53.236488 8.59578,50.770676 7.9811,50.006591 7.40429,49.210644 6.86676,48.386578 5.61775,46.476367 4.58309,44.415351 3.79205,42.237166 2.6313,39.042306 1.99939,35.595271 1.99939,32.000113 c 0,-16.569018 13.43157,-30.0005905 30.00059,-30.0005905 8.31701,0 15.84296,3.3845585 21.27727,8.8506945 1.56611,1.574658 2.95844,3.323366 4.14358,5.213961 1.12046,1.780457 2.05716,3.688211 2.78571,5.695104 1.16102,3.195994 1.79407,6.644162 1.79407,10.240453 z"
     id="path964" />
  <path
     inkscape:connector-curvature="0"
     d="m 45.428016,25.859016 c -0.48084,0.03331 -0.93493,0.29706 -1.1953,0.74805 l -5.2578,9.1074 c -2.0694,-0.53509 -4.375,-0.84961 -6.9766,-0.84961 -2.6015,0 -4.9071,0.31452 -6.9766,0.84961 l -5.2539,-9.1074 c -0.31244,-0.54126 -0.90667,-0.81317 -1.4883,-0.74023 -0.19386,0.02406 -0.38602,0.08779 -0.56641,0.19141 -0.72154,0.41658 -0.96736,1.3331 -0.55078,2.0547 l 4.9434,8.5625 c -7.4513,3.0783 -10.966,9.5046 -12.6329998,15.104 1.7918998,2.0391 3.8396998,3.8472 6.1190998,5.3398 0.96493,0.63176 1.9694,1.2105 3.0078,1.7285 3.4902,1.7468 7.3707,2.8277 11.475,3.0879 h 3.8516 c 4.104,-0.26016 7.9845,-1.3412 11.475,-3.0879 1.0383,-0.51788 2.0409,-1.0966 3.0059,-1.7285 2.2808,-1.4923 4.3293,-3.3004 6.1211,-5.3398 -1.6677,-5.5986 -5.1852,-12.027 -12.633,-15.105 l 4.9434,-8.5625 c 0.41658,-0.72157 0.16881,-1.6362 -0.55274,-2.0527 -0.27058,-0.15621 -0.56892,-0.2192 -0.85742,-0.19922 z"
     id="path866"
     style="fill:url(#linearGradient1047-3);stroke-width:4.06010008;enable-background:new" />
  <g
     style="fill:#ffffff"
     id="g874"
     transform="translate(1.6203648e-5,1.6203648e-5)">
    <rect
       x="17.99"
       y="54.462002"
       width="28"
       height="2.8"
       rx="1.4"
       ry="1.4"
       id="rect868" />
    <circle
       cx="23.59"
       cy="47.462002"
       r="2.8"
       id="circle870" />
    <circle
       cx="40.389999"
       cy="47.462002"
       r="2.8"
       id="circle872" />
  </g>
  <rect
     x="22.780016"
     y="12.746017"
     width="3.661"
     height="10.034"
     ry="1.8305"
     style="fill:#2ecc85;fill-rule:evenodd;paint-order:stroke fill markers"
     id="rect876" />
  <rect
     x="37.559013"
     y="12.746017"
     width="3.661"
     height="10.034"
     ry="1.8305"
     style="fill:#2ecc85;fill-rule:evenodd;paint-order:stroke fill markers"
     id="rect878" />
  <circle
     style="fill:#5e4aa6"
     cx="-1014.7"
     cy="-1299.4"
     r="0"
     id="circle880" />
  <g
     style="fill:#5e4aa6;stroke-width:0.26458001"
     id="g974"
     transform="matrix(3.779602,0,0,3.779602,102.67685,-15.161874)">
    <circle
       cx="-330.35001"
       cy="-328.38"
       r="0"
       id="circle966" />
    <circle
       cx="-312.10999"
       cy="-326.25"
       r="0"
       id="circle968" />
    <circle
       cx="-306.01999"
       cy="-333.07001"
       r="0"
       id="circle970" />
    <circle
       cx="-308.84"
       cy="-326.01001"
       r="0"
       id="circle972" />
  </g>
</svg>
