<?xml version="1.0" encoding="UTF-8" standalone="no"?>
<svg
   xmlns:dc="http://purl.org/dc/elements/1.1/"
   xmlns:cc="http://creativecommons.org/ns#"
   xmlns:rdf="http://www.w3.org/1999/02/22-rdf-syntax-ns#"
   xmlns:svg="http://www.w3.org/2000/svg"
   xmlns="http://www.w3.org/2000/svg"
   xmlns:sodipodi="http://sodipodi.sourceforge.net/DTD/sodipodi-0.dtd"
   xmlns:inkscape="http://www.inkscape.org/namespaces/inkscape"
   width="64"
   height="64"
   version="1.1"
   viewBox="0 0 64 64"
   id="svg48"
   sodipodi:docname="android-studio.svg"
   inkscape:version="0.92.4 5da689c313, 2019-01-14">
  <sodipodi:namedview
     pagecolor="#ffffff"
     bordercolor="#666666"
     borderopacity="1"
     objecttolerance="10"
     gridtolerance="10"
     guidetolerance="10"
     inkscape:pageopacity="0"
     inkscape:pageshadow="2"
     inkscape:window-width="1920"
     inkscape:window-height="1005"
     id="namedview50"
     showgrid="false"
     inkscape:zoom="3.6875"
     inkscape:cx="32"
     inkscape:cy="32"
     inkscape:window-x="0"
     inkscape:window-y="45"
     inkscape:window-maximized="1"
     inkscape:current-layer="svg48" />
  <metadata
     id="metadata2">
    <rdf:RDF>
      <cc:Work
         rdf:about="">
        <dc:format>image/svg+xml</dc:format>
        <dc:type
           rdf:resource="http://purl.org/dc/dcmitype/StillImage" />
        <dc:title></dc:title>
      </cc:Work>
    </rdf:RDF>
  </metadata>
  <defs
     id="defs16">
    <style
       type="text/css"
       id="style4" />
    <filter
       id="filter2761"
       x="-.024"
       y="-.024"
       width="1.048"
       height="1.048"
       color-interpolation-filters="sRGB">
      <feGaussianBlur
         stdDeviation="0.14552168"
         id="feGaussianBlur6" />
    </filter>
    <linearGradient
       id="linearGradient4673"
       x1="1.2573"
       x2="15.644"
       y1="15.429"
       y2="1.1082"
       gradientTransform="matrix(3.7796,0,0,3.7796,101.69,7.5815)"
       gradientUnits="userSpaceOnUse">
      <stop
         stop-color="#8cd750"
         offset="0"
         id="stop9" />
      <stop
         stop-color="#7dcd32"
         offset=".47728"
         id="stop11" />
      <stop
         stop-color="#87d241"
         offset="1"
         id="stop13" />
    </linearGradient>
    <filter
       color-interpolation-filters="sRGB"
       height="1.048"
       width="1.048"
       y="-.024"
       x="-.024"
       id="filter11290">
      <feGaussianBlur
         id="feGaussianBlur862"
         stdDeviation="0.15875313" />
    </filter>
    <linearGradient
       gradientUnits="userSpaceOnUse"
       gradientTransform="matrix(3.779602,0,0,3.779602,-0.13249395,0.02437843)"
       y2=".64687"
       y1="16.296"
       x2="16.388"
       x1=".73911"
       id="linearGradient1005">
      <stop
         id="stop865"
         offset="0"
         stop-color="#8cd750" />
      <stop
         id="stop867"
         offset=".48311"
         stop-color="#7dcd32" />
      <stop
         id="stop869"
         offset="1"
         stop-color="#87d241" />
    </linearGradient>
    <linearGradient
       gradientUnits="userSpaceOnUse"
       gradientTransform="matrix(1.0000071,0,0,1.0000071,0.03378586,-1.9609709)"
       y2="4.0937"
       y1="46.773"
       x2="32.153"
       x1="32.153"
       id="linearGradient1288">
      <stop
         id="stop872"
         offset="0"
         stop-color="#d1ecba" />
      <stop
         id="stop874"
         offset="1"
         stop-opacity="0"
         stop-color="#d1ecba" />
    </linearGradient>
    <style
       id="style877"
       type="text/css" />
    <filter
       color-interpolation-filters="sRGB"
       height="1.0726"
       width="1.0714"
       y="-.0363"
       x="-.035705"
       id="filter948">
      <feGaussianBlur
         id="feGaussianBlur879"
         stdDeviation="15.43542" />
    </filter>
  </defs>
  <g
     transform="matrix(3.7796 0 0 3.7796 101.59 7.0752)"
     fill="#5e4aa6"
     stroke-width=".26458"
     id="g46">
    <circle
       cx="-330.35"
       cy="-328.38"
       r="0"
       id="circle38" />
    <circle
       cx="-312.11"
       cy="-326.25"
       r="0"
       id="circle40" />
    <circle
       cx="-306.02"
       cy="-333.07"
       r="0"
       id="circle42" />
    <circle
       cx="-308.84"
       cy="-326.01"
       r="0"
       id="circle44" />
  </g>
  <circle
     style="opacity:0.25;stroke-width:0.14032;filter:url(#filter11290)"
     cx="8.4665003"
     cy="8.4665003"
     r="7.9376998"
     id="circle884"
     transform="scale(3.779602)" />
  <path
     style="fill:url(#linearGradient1005);stroke-width:0.11719034"
     inkscape:connector-curvature="0"
     d="m 62.000591,31.999622 c 0,3.596443 -0.633045,7.044801 -1.79395,10.240454 -0.806983,2.221197 -1.868598,4.321219 -3.151924,6.263556 -0.537535,0.816697 -1.115511,1.605386 -1.729016,2.363348 -1.964108,2.425711 -4.298164,4.538168 -6.918562,6.252595 -0.964932,0.631874 -1.96785,1.209851 -3.006144,1.727732 -4.032079,2.017892 -8.583854,3.152982 -13.400957,3.152982 -4.817103,0 -9.368877,-1.13509 -13.400957,-3.153095 C 17.560673,58.329199 16.556584,57.751222 15.591652,57.119462 12.938107,55.381866 10.57612,53.236299 8.5959866,50.770487 7.98131,50.006402 7.4045049,49.210456 6.8669699,48.386389 5.6179626,46.476178 4.5832966,44.415161 3.7922637,42.236977 2.6315101,39.042117 1.9995984,35.595082 1.9995984,31.999925 c 0,-16.56902 13.4315716,-30.0005911 30.0005906,-30.0005911 8.317015,0 15.842958,3.384558 21.27727,8.8506941 1.566116,1.574658 2.958445,3.323366 4.143577,5.213961 1.120463,1.780457 2.057162,3.688211 2.785718,5.695104 1.161018,3.195994 1.794064,6.644162 1.794064,10.240454 z"
     id="path886" />
  <g
     style="fill:#5e4aa6;stroke-width:0.26458001"
     transform="matrix(3.779602,0,0,3.779602,-0.10280517,0.02456779)"
     id="g896">
    <circle
       cx="-330.35001"
       cy="-328.38"
       r="0"
       id="circle888" />
    <circle
       cx="-312.10999"
       cy="-326.25"
       r="0"
       id="circle890" />
    <circle
       cx="-306.01999"
       cy="-333.07001"
       r="0"
       id="circle892" />
    <circle
       cx="-308.84"
       cy="-326.01001"
       r="0"
       id="circle894" />
  </g>
  <g
     transform="translate(-0.74065,-6.1927)"
     id="g36"
     style="stroke-width:0.99997002">
    <g
       id="g32">
      <path
         d="m 30.985,21.199 -3.7527,2.1666 19.499,33.774 4.0429,2.6693 -0.29019,-4.8359 z"
         id="path24"
         inkscape:connector-curvature="0"
         style="fill:#ffffff" />
      <path
         d="m 47.887,28.132 c 0,5.7896 -1.7204,7.1629 -3.8142,9.6094 -1.0821,1.2468 -2.3525,2.3054 -3.8109,3.1052 -1.9761,1.1057 -4.9803,1.7174 -7.4034,1.7174 -2.423,0 -4.7048,-0.63525 -6.6574,-1.7174 -1.4245,-1.1474 -4.3133,3.1858 -2.3994,3.7539 2.6818,1.5056 5.787,2.3207 9.0804,2.3207 3.2934,0 7.121,-0.81508 9.8029,-2.3207 1.435,-0.79976 2.7523,-1.7877 3.9051,-2.917 3.4816,-3.3876 5.6694,-8.2816 5.6694,-13.528 -1.4854,-0.01444 -3.055,0 -4.3723,-0.01444 z"
         id="path26"
         inkscape:connector-curvature="0"
         style="fill:#f0f0f0" />
      <path
         d="m 33.011,21.199 3.7527,2.1666 -19.499,33.774 -4.0429,2.6693 0.2902,-4.8359 z"
         id="path28"
         inkscape:connector-curvature="0"
         style="fill:#f0f0f0" />
      <path
         d="M 36.497,20.91 H 34.8882 V 16.5765 H 29.1106 V 20.91 h -1.6323 c -1.4796,0 -2.7009,1.2227 -2.7009,2.6854 v 7.0711 h 0.0235 c -0.0235,0.23226 0.11739,0.48777 0.42275,0.78951 l 5.4253,4.7852 c 0.37578,0.3715 0.86899,0.55725 1.3387,0.55725 v -0.02311 l 0.0235,0.02311 c 0.4932,0 0.98641,-0.18575 1.3387,-0.55725 l 5.4253,-4.7852 c 0.30532,-0.30174 0.42275,-0.5805 0.42275,-0.78951 h 0.0235 V 23.6187 C 39.1979,22.1328 38.0001,20.91 36.497,20.91 Z"
         id="path30"
         inkscape:connector-curvature="0"
         style="fill:#323232" />
    </g>
    <path
       d="m 32.009,29.577 h -0.01883 c -1.5809,0 -2.8794,-1.2858 -2.8794,-2.8696 0,-1.5839 1.2985,-2.8697 2.8794,-2.8697 V 23.80015 L 32.009,23.8377 c 1.5809,0.01878 2.8794,1.2858 2.8794,2.8697 0,1.5838 -1.2985,2.851 -2.8794,2.8696 z"
       id="path34"
       inkscape:connector-curvature="0"
       style="fill:#ffffff" />
  </g>
</svg>
