<?xml version="1.0" encoding="UTF-8"?>
<svg width="64" height="64" version="1.1" viewBox="0 0 16.933 16.933" xmlns="http://www.w3.org/2000/svg" xmlns:cc="http://creativecommons.org/ns#" xmlns:dc="http://purl.org/dc/elements/1.1/" xmlns:rdf="http://www.w3.org/1999/02/22-rdf-syntax-ns#" xmlns:xlink="http://www.w3.org/1999/xlink">
 <metadata>
  <rdf:RDF>
   <cc:Work rdf:about="">
    <dc:format>image/svg+xml</dc:format>
    <dc:type rdf:resource="http://purl.org/dc/dcmitype/StillImage"/>
    <dc:title/>
   </cc:Work>
  </rdf:RDF>
 </metadata>
 <defs>
  <linearGradient id="a" x1="6.576" x2="6.576" y1="1.58" y2="15.33" gradientTransform="matrix(1.1554 0 0 1.1548 -1.2853 -1.2909)" gradientUnits="userSpaceOnUse">
   <stop stop-color="#f00064" offset="0"/>
   <stop stop-color="#fa3c4b" offset="1"/>
  </linearGradient>
  <filter id="filter11290" x="-.024" y="-.024" width="1.048" height="1.048" color-interpolation-filters="sRGB">
   <feGaussianBlur stdDeviation="0.15875313"/>
  </filter>
  <linearGradient id="linearGradient1005" x1=".73911" x2="16.388" y1="16.296" y2=".64687" gradientTransform="translate(-.035055 .00645)" gradientUnits="userSpaceOnUse">
   <stop stop-color="#fad21e" offset="0"/>
   <stop stop-color="#faeb1e" offset="1"/>
  </linearGradient>
 </defs>
 <circle cx="8.4665" cy="8.4665" r="7.9377" filter="url(#filter11290)" opacity=".25" stroke-width=".14032"/>
 <path d="m16.404 8.4664c0 0.95154-0.16749 1.8639-0.47464 2.7094-0.21351 0.58768-0.49439 1.1433-0.83393 1.6572-0.14222 0.21608-0.29514 0.42475-0.45746 0.62529-0.51966 0.64179-1.1372 1.2007-1.8305 1.6543-0.2553 0.16718-0.52065 0.3201-0.79536 0.45712-1.0668 0.53389-2.2711 0.83421-3.5456 0.83421s-2.4788-0.30032-3.5456-0.83424c-0.27474-0.13705-0.5404-0.28997-0.7957-0.45712-0.70207-0.45973-1.327-1.0274-1.8509-1.6798-0.16263-0.20216-0.31524-0.41275-0.45746-0.63078-0.33046-0.5054-0.60421-1.0507-0.8135-1.627-0.30711-0.84529-0.4743-1.7573-0.4743-2.7085 0-4.3838 3.5537-7.9375 7.9375-7.9375 2.2005 0 4.1917 0.89548 5.6295 2.3417 0.41436 0.41662 0.78274 0.87929 1.0963 1.3795 0.29645 0.47107 0.54428 0.97582 0.73704 1.5068 0.30718 0.84559 0.47467 1.7579 0.47467 2.7094z" fill="url(#linearGradient1005)" stroke-width=".031006"/>
 <g transform="translate(-.0272 .0065001)" fill="#5e4aa6" stroke-width=".26458">
  <circle cx="-330.35" cy="-328.38" r="0"/>
  <circle cx="-312.11" cy="-326.25" r="0"/>
  <circle cx="-306.02" cy="-333.07" r="0"/>
  <circle cx="-308.84" cy="-326.01" r="0"/>
 </g>
 <path d="m8.4977 0.53373a7.9956 7.9914 0 0 0-1.2097 0.099315c-0.78339 0.72755-6.006 5.9151-6.6391 6.5941a7.7761 7.772 0 0 0-0.017334 0.1178c0.16292-0.13281 0.41596-0.33605 0.67709-0.5728 0.13634-0.12356 0.30503-0.27023 0.37436-0.32566 0.069328-0.055428 0.19873-0.16629 0.28539-0.24598 0.24033-0.22288 0.80995-0.72755 0.97749-0.86612 0.080884-0.06929 0.39977-0.34876 0.70713-0.6213 0.30734-0.2737 0.70482-0.62361 0.88275-0.7772 0.17794-0.15475 0.54652-0.48965 0.82036-0.74602 0.52687-0.49427 2.156-1.9378 2.3363-2.0717 0.058923-0.042728 0.11439-0.072755 0.12247-0.06467 0.017335 0.017323-0.084349 0.18939-0.44715 0.74833a2038.2 2037.1 0 0 0-2.899 4.4911l-1.4559 2.2542-1.4605 2.2635c-0.17331 0.26677-0.32005 0.49312-0.42174 0.65941a7.9528 7.9487 0 0 0 6.7997 4.9427l0.00581-0.14436c0.012708-0.18477 0.041599-0.64094 0.062388-1.0116 0.22762-4.0534 1.6084-8.9811 3.7968-13.555 0.080884-0.16976 0.15136-0.26215 0.19873-0.3476a7.9597 7.9556 0 0 0-3.4963-0.81993z" fill="url(#a)" stroke-width=".868"/>
</svg>
