<?xml version="1.0" encoding="UTF-8"?>
<svg width="64" height="64" version="1.1" viewBox="0 0 16.933 16.933" xmlns="http://www.w3.org/2000/svg" xmlns:cc="http://creativecommons.org/ns#" xmlns:dc="http://purl.org/dc/elements/1.1/" xmlns:rdf="http://www.w3.org/1999/02/22-rdf-syntax-ns#">
 <metadata>
  <rdf:RDF>
   <cc:Work rdf:about="">
    <dc:format>image/svg+xml</dc:format>
    <dc:type rdf:resource="http://purl.org/dc/dcmitype/StillImage"/>
    <dc:title/>
   </cc:Work>
  </rdf:RDF>
 </metadata>
 <defs>
  <filter id="filter11290-3" x="-.024" y="-.024" width="1.048" height="1.048" color-interpolation-filters="sRGB">
   <feGaussianBlur stdDeviation="0.15875313"/>
  </filter>
  <linearGradient id="linearGradient1005-6" x1=".8714" x2="16.246" y1="16.164" y2=".78937" gradientTransform="translate(-.035245 .00645)" gradientUnits="userSpaceOnUse">
   <stop stop-color="#00c8ff" offset="0"/>
   <stop stop-color="#14a0ff" offset="1"/>
  </linearGradient>
 </defs>
 <circle cx="8.4665" cy="8.4665" r="7.9377" filter="url(#filter11290-3)" opacity=".25" stroke-width=".14032"/>
 <path d="m16.404 8.4664c0 0.95154-0.16749 1.8639-0.47464 2.7094-0.21351 0.58768-0.49439 1.1433-0.83393 1.6572-0.14222 0.21608-0.29514 0.42475-0.45746 0.62529-0.51966 0.64179-1.1372 1.2007-1.8305 1.6543-0.2553 0.16718-0.52065 0.3201-0.79536 0.45712-1.0668 0.53389-2.2711 0.83421-3.5456 0.83421s-2.4788-0.30032-3.5456-0.83424c-0.27474-0.13705-0.5404-0.28997-0.7957-0.45712-0.70207-0.45973-1.327-1.0274-1.8509-1.6798-0.16263-0.20216-0.31524-0.41275-0.45746-0.63078-0.33046-0.5054-0.60421-1.0507-0.8135-1.627-0.30711-0.84529-0.4743-1.7573-0.4743-2.7085 0-4.3838 3.5537-7.9375 7.9375-7.9375 2.2005 0 4.1917 0.89548 5.6295 2.3417 0.41436 0.41662 0.78274 0.87929 1.0963 1.3795 0.29645 0.47107 0.54428 0.97582 0.73704 1.5068 0.30718 0.84559 0.47467 1.7579 0.47467 2.7094z" fill="url(#linearGradient1005-6)" stroke-width=".031006"/>
 <g transform="translate(-.0272 .0065001)" fill="#5e4aa6" stroke-width=".26458">
  <circle cx="-330.35" cy="-328.38" r="0"/>
  <circle cx="-312.11" cy="-326.25" r="0"/>
  <circle cx="-306.02" cy="-333.07" r="0"/>
  <circle cx="-308.84" cy="-326.01" r="0"/>
 </g>
 <g transform="matrix(1.2499 0 0 1.2499 -2.116 -352.18)" fill="#fff">
  <path d="m4.235 290.53 0.65-3.175h1.502c0.65 0.04 0.974 0.353 0.974 0.902 0 0.94-0.771 1.487-1.461 1.45h-0.732l-0.163 0.824h-0.772m1.098-1.411 0.203-1.176h0.528c0.285 0 0.487 0.118 0.487 0.353-0.041 0.666-0.365 0.784-0.73 0.823" fill-rule="evenodd"/>
  <path d="m7.119 289.71 0.65-3.174h0.771l-0.162 0.822h0.731c0.65 0.04 0.894 0.353 0.812 0.745l-0.284 1.607h-0.813l0.285-1.45c0.04-0.196 0.04-0.314-0.245-0.314h-0.608l-0.366 1.763h-0.77"/>
  <path d="m9.572 290.53 0.65-3.175h1.504c0.65 0.04 0.974 0.353 0.974 0.902 0 0.94-0.772 1.487-1.463 1.45h-0.731l-0.162 0.824m0.325-1.411 0.203-1.176h0.528c0.284 0 0.487 0.118 0.487 0.353-0.04 0.666-0.365 0.784-0.732 0.823" fill-rule="evenodd"/>
 </g>
</svg>
