<?xml version="1.0" encoding="UTF-8" standalone="no"?>
<svg
   xmlns:dc="http://purl.org/dc/elements/1.1/"
   xmlns:cc="http://creativecommons.org/ns#"
   xmlns:rdf="http://www.w3.org/1999/02/22-rdf-syntax-ns#"
   xmlns:svg="http://www.w3.org/2000/svg"
   xmlns="http://www.w3.org/2000/svg"
   xmlns:sodipodi="http://sodipodi.sourceforge.net/DTD/sodipodi-0.dtd"
   xmlns:inkscape="http://www.inkscape.org/namespaces/inkscape"
   width="64"
   height="64"
   version="1.1"
   viewBox="0 0 16.933 16.933"
   id="svg38"
   sodipodi:docname="applications-accessories.svg"
   inkscape:version="0.92.4 5da689c313, 2019-01-14">
  <sodipodi:namedview
     pagecolor="#ffffff"
     bordercolor="#666666"
     borderopacity="1"
     objecttolerance="10"
     gridtolerance="10"
     guidetolerance="10"
     inkscape:pageopacity="0"
     inkscape:pageshadow="2"
     inkscape:window-width="1920"
     inkscape:window-height="1005"
     id="namedview40"
     showgrid="false"
     inkscape:zoom="3.6875"
     inkscape:cx="32"
     inkscape:cy="32"
     inkscape:window-x="0"
     inkscape:window-y="45"
     inkscape:window-maximized="1"
     inkscape:current-layer="svg38" />
  <metadata
     id="metadata2">
    <rdf:RDF>
      <cc:Work
         rdf:about="">
        <dc:format>image/svg+xml</dc:format>
        <dc:type
           rdf:resource="http://purl.org/dc/dcmitype/StillImage" />
        <dc:title></dc:title>
      </cc:Work>
    </rdf:RDF>
  </metadata>
  <defs
     id="defs14">
    <style
       type="text/css"
       id="style4" />
    <filter
       id="filter2761"
       x="-.024"
       y="-.024"
       width="1.048"
       height="1.048"
       color-interpolation-filters="sRGB">
      <feGaussianBlur
         stdDeviation="0.14552168"
         id="feGaussianBlur6" />
    </filter>
    <linearGradient
       id="linearGradient1024"
       x1="1.3315"
       x2="15.65"
       y1="15.576"
       y2="1.17"
       gradientTransform="translate(-28.0548,0.14035)"
       gradientUnits="userSpaceOnUse">
      <stop
         stop-color="#00c8ff"
         offset="0"
         id="stop9" />
      <stop
         stop-color="#14a0ff"
         offset="1"
         id="stop11" />
    </linearGradient>
    <filter
       color-interpolation-filters="sRGB"
       height="1.048"
       width="1.048"
       y="-.024"
       x="-.024"
       id="filter11290">
      <feGaussianBlur
         id="feGaussianBlur847"
         stdDeviation="0.15875313" />
    </filter>
    <linearGradient
       gradientUnits="userSpaceOnUse"
       gradientTransform="translate(-0.03524505,0.00645)"
       y2=".78937"
       y1="16.164"
       x2="16.246"
       x1=".8714"
       id="linearGradient1005">
      <stop
         id="stop850"
         offset="0"
         stop-color="#00c8ff" />
      <stop
         id="stop852"
         offset="1"
         stop-color="#14a0ff" />
    </linearGradient>
    <filter
       color-interpolation-filters="sRGB"
       height="1.101"
       width="1.1479"
       y="-.050487"
       x="-.07393"
       id="filter871">
      <feGaussianBlur
         id="feGaussianBlur855"
         stdDeviation="0.12698534" />
    </filter>
  </defs>
  <g
     transform="translate(.00030032 -9.9674e-5)"
     fill="#5e4aa6"
     stroke-width=".26458"
     id="g30">
    <circle
       cx="-347.64"
       cy="-328.38"
       r="0"
       id="circle16" />
    <circle
       cx="-56.726"
       cy="6.44"
       r="0"
       fill-rule="evenodd"
       id="circle18" />
    <g
       transform="translate(-.0272 .0065001)"
       id="g28">
      <circle
         cx="-330.35"
         cy="-328.38"
         r="0"
         id="circle20" />
      <circle
         cx="-312.11"
         cy="-326.25"
         r="0"
         id="circle22" />
      <circle
         cx="-306.02"
         cy="-333.07"
         r="0"
         id="circle24" />
      <circle
         cx="-308.84"
         cy="-326.01"
         r="0"
         id="circle26" />
    </g>
  </g>
  <circle
     style="opacity:0.25;stroke-width:0.14032;filter:url(#filter11290)"
     cx="8.4665003"
     cy="8.4665003"
     r="7.9376998"
     id="circle862" />
  <path
     style="fill:url(#linearGradient1005);stroke-width:0.031006"
     inkscape:connector-curvature="0"
     d="m 16.4038,8.4664001 c 0,0.95154 -0.16749,1.8638999 -0.47464,2.7093999 -0.21351,0.58768 -0.49439,1.1433 -0.83393,1.6572 -0.14222,0.21608 -0.29514,0.42475 -0.45746,0.62529 -0.51966,0.64179 -1.1372,1.2007 -1.8305,1.6543 -0.2553,0.16718 -0.52065,0.3201 -0.79536,0.45712 -1.0668,0.53389 -2.2710999,0.83421 -3.5455999,0.83421 -1.2745,0 -2.4788,-0.30032 -3.5456,-0.83424 -0.27474,-0.13705 -0.5404,-0.28997 -0.7957,-0.45712 -0.70207,-0.45973 -1.327,-1.0274 -1.8509,-1.6798 -0.16263,-0.20216 -0.31524,-0.41275 -0.45746,-0.63078 -0.33046,-0.5054 -0.60421,-1.0507 -0.8135,-1.627 C 0.69604015,10.32969 0.52885015,9.4176801 0.52885015,8.4664801 c 0,-4.3838 3.55369995,-7.93749996 7.93749995,-7.93749996 2.2004999,0 4.1916999,0.89547996 5.6294999,2.34169996 0.41436,0.41662 0.78274,0.87929 1.0963,1.3795 0.29645,0.47107 0.54428,0.97582 0.73704,1.5068 0.30718,0.84559 0.47467,1.7579 0.47467,2.7094 z"
     id="path864" />
  <g
     style="fill:#5e4aa6;stroke-width:0.26458001"
     id="g874"
     transform="translate(-0.02719985,0.00650014)">
    <circle
       cx="-330.35001"
       cy="-328.38"
       r="0"
       id="circle866" />
    <circle
       cx="-312.10999"
       cy="-326.25"
       r="0"
       id="circle868" />
    <circle
       cx="-306.01999"
       cy="-333.07001"
       r="0"
       id="circle870" />
    <circle
       cx="-308.84"
       cy="-326.01001"
       r="0"
       id="circle872" />
  </g>
  <path
     d="m 12.990948,12.990359 a 0.96187,0.96187 0 0 1 -1.3582,0 l -2.6770998,-2.678 c -0.64092,0.16912 -1.3477,0.01006 -1.8497,-0.49197 -0.50304,-0.50256 -0.66206,-1.2098 -0.49295,-1.8502 l 1.1709,1.1709 1.3582,-1.3582 -1.1704,-1.1709 c 0.64045,-0.16864 1.3477,-0.00964 1.8497,0.49246 0.5020598,0.50207 0.6611098,1.2093 0.4919998,1.8497 l 2.6747,2.6785 c 0.37668,0.37427 0.37668,0.98396 0.0029,1.3582 z m -3.7282998,0.27915 h -1.5937 l -0.50928,-1.1915 c -0.12347,-0.05142 -0.20035,-0.08167 -0.32334,-0.13308 l -1.204,0.48141 -1.1276,-1.1271 0.48188,-1.2021 a 38.786,38.786 0 0 1 -0.13308,-0.32286 l -1.1915,-0.51264 v -1.5942 l 1.1915,-0.50976 c 0.04468,-0.10762 0.08937,-0.21524 0.13308,-0.32285 l -0.48189,-1.2021 1.1276,-1.1276 1.2016,0.48189 c 0.1254,-0.053809 0.19987,-0.084557 0.32526,-0.13596 l 0.50976,-1.1891 h 1.5941 l 0.50928,1.1891 c 0.12588,0.053809 0.20035,0.084557 0.3257498,0.13596 l 1.2016,-0.48189 1.1276,1.1276 -0.4819,1.2021 c 0.05381,0.12492 0.08456,0.19987 0.13596,0.32526 l 1.1886,0.51025 v 1.5937 l -0.90181,0.38725 -1.0354,-1.0354 a 2.8866,2.8866 0 0 0 -0.83261,-2.1913 2.838,2.838 0 0 0 -2.0265998,-0.83792 c -0.25127,0 -0.50207,0.03364 -0.74566,0.097526 a 2.8683,2.8683 0 0 0 -2.0419,2.0419 c -0.26136,0.99213 0.02067,2.0559 0.74038,2.7761 a 2.838,2.838 0 0 0 2.1909,0.83262 l 1.0325,1.033 -0.38677,0.90181 z"
     p-id="4564"
     id="path36"
     inkscape:connector-curvature="0"
     style="fill:#ffffff;stroke-width:0.0093853" />
</svg>
