<?xml version="1.0" encoding="UTF-8"?>
<svg width="64" height="64" version="1.1" viewBox="0 0 16.933 16.933" xmlns="http://www.w3.org/2000/svg" xmlns:cc="http://creativecommons.org/ns#" xmlns:dc="http://purl.org/dc/elements/1.1/" xmlns:rdf="http://www.w3.org/1999/02/22-rdf-syntax-ns#">
 <metadata>
  <rdf:RDF>
   <cc:Work rdf:about="">
    <dc:format>image/svg+xml</dc:format>
    <dc:type rdf:resource="http://purl.org/dc/dcmitype/StillImage"/>
    <dc:title/>
   </cc:Work>
  </rdf:RDF>
 </metadata>
 <defs>
  <style type="text/css"/>
  <style type="text/css"/>
  <style type="text/css"/>
  <style type="text/css"/>
  <filter id="filter11290" x="-.024" y="-.024" width="1.048" height="1.048" color-interpolation-filters="sRGB">
   <feGaussianBlur stdDeviation="0.15875313"/>
  </filter>
  <linearGradient id="linearGradient1005" x1=".73911" x2="16.388" y1="16.296" y2=".64687" gradientTransform="translate(-.035055 .00645)" gradientUnits="userSpaceOnUse">
   <stop stop-color="#8cd750" offset="0"/>
   <stop stop-color="#7dcd32" offset=".48311"/>
   <stop stop-color="#87d241" offset="1"/>
  </linearGradient>
  <style type="text/css"/>
  <style type="text/css"/>
 </defs>
 <g transform="translate(-.02705 .0064503)" fill="#5e4aa6" stroke-width=".26458">
  <circle cx="-330.35" cy="-328.38" r="0"/>
  <circle cx="-312.11" cy="-326.25" r="0"/>
  <circle cx="-306.02" cy="-333.07" r="0"/>
  <circle cx="-308.84" cy="-326.01" r="0"/>
 </g>
 <g transform="matrix(.26458 0 0 .26458 -27.767 -1.3632)" fill="#5e4aa6" stroke-width=".26458">
  <g transform="matrix(3.7796 0 0 3.7796 -.10281 .024568)">
   <circle cx="-330.35" cy="-328.38" r="0"/>
   <circle cx="-312.11" cy="-326.25" r="0"/>
   <circle cx="-306.02" cy="-333.07" r="0"/>
   <circle cx="-308.84" cy="-326.01" r="0"/>
  </g>
  <g transform="matrix(3.7796 0 0 3.7796 -.10281 .024568)">
   <circle cx="-330.35" cy="-328.38" r="0"/>
   <circle cx="-312.11" cy="-326.25" r="0"/>
   <circle cx="-306.02" cy="-333.07" r="0"/>
   <circle cx="-308.84" cy="-326.01" r="0"/>
  </g>
  <g transform="matrix(3.7796 0 0 3.7796 -.10224 .024379)">
   <circle cx="-330.35" cy="-328.38" r="0"/>
   <circle cx="-312.11" cy="-326.25" r="0"/>
   <circle cx="-306.02" cy="-333.07" r="0"/>
   <circle cx="-308.84" cy="-326.01" r="0"/>
  </g>
 </g>
 <circle cx="8.4665" cy="8.4665" r="7.9377" filter="url(#filter11290)" opacity=".25" stroke-width=".14032"/>
 <path d="m16.404 8.4664c0 0.95154-0.16749 1.8639-0.47464 2.7094-0.21351 0.58768-0.49439 1.1433-0.83393 1.6572-0.14222 0.21608-0.29514 0.42475-0.45746 0.62529-0.51966 0.64179-1.1372 1.2007-1.8305 1.6543-0.2553 0.16718-0.52065 0.3201-0.79536 0.45712-1.0668 0.53389-2.2711 0.83421-3.5456 0.83421s-2.4788-0.30032-3.5456-0.83424c-0.27474-0.13705-0.5404-0.28997-0.7957-0.45712-0.70207-0.45973-1.327-1.0274-1.8509-1.6798-0.16263-0.20216-0.31524-0.41275-0.45746-0.63078-0.33046-0.5054-0.60421-1.0507-0.8135-1.627-0.30711-0.84529-0.4743-1.7573-0.4743-2.7085 0-4.3838 3.5537-7.9375 7.9375-7.9375 2.2005 0 4.1917 0.89548 5.6295 2.3417 0.41436 0.41662 0.78274 0.87929 1.0963 1.3795 0.29645 0.47107 0.54428 0.97582 0.73704 1.5068 0.30718 0.84559 0.47467 1.7579 0.47467 2.7094z" fill="url(#linearGradient1005)" stroke-width=".031006"/>
 <g fill="#5e4aa6" stroke-width=".26458">
  <g transform="translate(-.0272 .0065001)">
   <circle cx="-330.35" cy="-328.38" r="0"/>
   <circle cx="-312.11" cy="-326.25" r="0"/>
   <circle cx="-306.02" cy="-333.07" r="0"/>
   <circle cx="-308.84" cy="-326.01" r="0"/>
  </g>
  <g transform="translate(-23.059 -14.128)">
   <circle cx="-330.35" cy="-328.38" r="0"/>
   <circle cx="-312.11" cy="-326.25" r="0"/>
   <circle cx="-306.02" cy="-333.07" r="0"/>
   <circle cx="-308.84" cy="-326.01" r="0"/>
  </g>
  <g transform="translate(-23.059 -14.128)">
   <circle cx="-330.35" cy="-328.38" r="0"/>
   <circle cx="-312.11" cy="-326.25" r="0"/>
   <circle cx="-306.02" cy="-333.07" r="0"/>
   <circle cx="-308.84" cy="-326.01" r="0"/>
  </g>
 </g>
 <path d="m10.437 13.732c-0.87919-0.14605-2.0208-1.1525-3.063-2.7-0.43735-0.64954-0.88475-1.4512-1.1768-2.109-0.05847-0.13229-0.0799-0.16404-0.09789-0.14499-0.03519 0.037835-0.28971 0.59133-0.42385 0.92179-0.22542 0.55641-0.38443 1.0866-0.47545 1.5867-0.05821 0.3204-0.0635 0.94137-0.0093 1.1337 0.12594 0.44687 0.39925 0.63234 0.82548 0.56091 0.30691-0.05133 0.67891-0.2196 1.0734-0.4855 0.17515-0.11827 0.22145-0.14076 0.28918-0.14102 0.10345-7.94e-4 0.18097 0.05556 0.21695 0.15822 0.02408 0.068 0.02408 0.08784-5.29e-4 0.15266-0.02381 0.06244-0.06456 0.09922-0.2495 0.22489-0.25558 0.17303-0.6924 0.39634-0.91597 0.46777-0.58578 0.18732-1.0416 0.1188-1.3626-0.20531-0.295-0.29739-0.422-0.77812-0.38284-1.4491 0.05106-0.87311 0.4347-2.0648 1.0411-3.2331l0.15213-0.29262-0.11483-0.31088c-0.11006-0.29739-0.32728-0.98688-0.32728-1.0382 0-0.03757-0.06667-0.029897-0.35824 0.041803-0.66806 0.1643-1.1647 0.37358-1.5205 0.64081-0.69981 0.52519-0.5146 1.1176 0.53445 1.7076 0.16668 0.093925 0.20531 0.14446 0.20531 0.26961 0 0.065351-0.01217 0.092073-0.06562 0.14552-0.11456 0.11483-0.22145 0.09075-0.57546-0.12858-0.51222-0.31749-0.83607-0.67917-0.94984-1.0604-0.0418-0.13917-0.0418-0.41962 0-0.55985 0.06032-0.20399 0.16219-0.36618 0.3458-0.55112 0.41195-0.41433 1.0954-0.73235 2.032-0.94613 0.19076-0.043655 0.23495-0.060059 0.22754-0.084401-0.0048-0.016404-0.02646-0.12567-0.04815-0.24235-0.12753-0.68341-0.13123-1.4668-0.0095-1.9013 0.14023-0.50111 0.39475-0.79929 0.80008-0.93846 0.16536-0.05689 0.49661-0.04762 0.72389 0.01958 0.22833 0.068 0.51169 0.20769 0.76225 0.3757 0.29897 0.20002 0.38681 0.28389 0.39951 0.38073 0.0291 0.22225-0.20055 0.3421-0.38814 0.2024-0.58736-0.43761-1.007-0.60403-1.3433-0.53312-0.24421 0.05159-0.43073 0.30268-0.52519 0.70642-0.0373 0.1606-0.04233 0.2368-0.0426 0.63605-2.64e-4 0.45296 0.0063 0.52598 0.0889 1.0012l0.04154 0.23865 0.09789-0.011906c0.45005-0.054238 0.83792-0.092073 1.0768-0.10504l0.28389-0.015081 0.04419-0.056884c0.47942-0.61647 1.1766-1.3361 1.7047-1.7597 1.0115-0.81173 1.879-1.0935 2.4757-0.80432 0.33707 0.16324 0.55032 0.49688 0.63287 0.99085 0.05397 0.32279 0.01138 1.0864-0.07249 1.3015-0.0291 0.074082-0.12224 0.12779-0.22225 0.12779-0.06323 0-0.09631-0.0127-0.14499-0.056091-0.05768-0.051593-0.06297-0.066145-0.06244-0.16907 0-0.061911 0.0164-0.23838 0.03598-0.39237 0.05715-0.44767 0.01799-0.8612-0.10424-1.1006-0.05927-0.11641-0.18044-0.24024-0.28548-0.29183-0.07858-0.03889-0.11906-0.04498-0.30294-0.04419-0.19341 7.94e-4 -0.23124 0.0071-0.422 0.07223-0.59001 0.20108-1.2665 0.68526-1.9923 1.4255a14.06 14.06 0 0 0-0.46301 0.49873l-0.21008 0.2413 0.18256 0.00423c2.5585 0.060853 4.7148 0.64822 5.7313 1.5615 0.2286 0.20558 0.42597 0.51169 0.48312 0.75061 0.0291 0.12091 0.02963 0.35612 0.0011 0.4818-0.10504 0.4646-0.61567 0.921-1.3599 1.216-0.11774 0.04683-0.14261 0.05027-0.20611 0.03148a0.23204 0.23204 0 0 1-0.17171-0.22383c0-0.12276 0.05926-0.1815 0.27172-0.27066 0.46248-0.19394 0.82099-0.46566 0.95698-0.72547 0.04736-0.090486 0.0545-0.12541 0.0545-0.26802 0-0.14816-0.0063-0.17621-0.06482-0.28971-0.082587-0.15981-0.3551-0.43311-0.58132-0.58287-1.1112-0.735-3.2051-1.212-5.3193-1.2123h-0.34871l-0.1315 0.17859c-0.19658 0.26722-0.62308 0.9165-0.79294 1.2067l-0.14975 0.25638 0.10318 0.236c1.0319 2.3682 2.6339 4.3682 3.8152 4.7624 0.25717 0.08599 0.45137 0.08996 0.60853 0.01323 0.29421-0.14393 0.4482-0.51725 0.47174-1.1438 0.03969-1.0456-0.33707-2.4907-1.0393-3.9883-0.07276-0.15531-0.11641-0.27384-0.11641-0.31591 0-0.12647 0.10398-0.22621 0.23442-0.22436 0.11562 0.00132 0.16668 0.047889 0.25479 0.23283 0.56937 1.1909 0.94904 2.3841 1.0909 3.4287 0.04763 0.3511 0.04763 1.066 5.3e-4 1.3213-0.07567 0.40877-0.2106 0.70298-0.41724 0.91015-0.25135 0.25267-0.5781 0.34924-0.96412 0.28495zm-4.0851-6.3581c0.07196-0.11668 0.21219-0.33125 0.31167-0.47677 0.09948-0.14552 0.18071-0.2704 0.18071-0.27781 0-0.024606-0.912 0.067732-0.93952 0.095248-0.01667 0.016668 0.0381 0.21986 0.15954 0.59345 0.08837 0.27146 0.11218 0.32675 0.13229 0.30479 0.01323-0.014552 0.08308-0.12224 0.15531-0.23891zm1.946 1.7314c-0.28998-0.10345-0.45931-0.34554-0.4556-0.65033 0.0021-0.15981 0.03836-0.26934 0.13176-0.39634 0.23653-0.32226 0.71965-0.35903 1.0107-0.076728 0.3339 0.32411 0.23521 0.90274-0.18759 1.0961-0.14552 0.066409-0.35692 0.07805-0.49926 0.027252z" fill="#fff" stroke="#fff" stroke-width=".076728"/>
</svg>
