<?xml version="1.0" encoding="UTF-8"?>
<!-- Created with Inkscape (http://www.inkscape.org/) -->
<svg width="64" height="64" version="1.1" viewBox="0 0 16.933 16.933" xmlns="http://www.w3.org/2000/svg" xmlns:cc="http://creativecommons.org/ns#" xmlns:dc="http://purl.org/dc/elements/1.1/" xmlns:rdf="http://www.w3.org/1999/02/22-rdf-syntax-ns#" xmlns:xlink="http://www.w3.org/1999/xlink">
 <defs>
  <filter id="filter11290" x="-.024" y="-.024" width="1.048" height="1.048" color-interpolation-filters="sRGB">
   <feGaussianBlur stdDeviation="0.15875313"/>
  </filter>
  <linearGradient id="linearGradient1005" x1=".73911" x2="16.388" y1="16.296" y2=".64687" gradientTransform="translate(-.0078552 -5.0139e-5)" gradientUnits="userSpaceOnUse">
   <stop stop-color="#dddfe1" offset="0"/>
   <stop stop-color="#f3f4f6" offset="1"/>
  </linearGradient>
  <clipPath id="clipPath13429-36">
   <path d="m481 318h22v22h-22z"/>
  </clipPath>
  <clipPath id="clipPath13465-7">
   <path d="m507 318h22v22h-22z"/>
  </clipPath>
  <clipPath id="clipPath13501-5">
   <path d="m530 318h22v22h-22z"/>
  </clipPath>
  <clipPath id="clipPath13753-3">
   <path d="m672 1064c0-1.105 4.925-2 11-2s11 0.895 11 2-4.925 2-11 2-11-0.895-11-2"/>
  </clipPath>
  <clipPath id="clipPath13771-5">
   <path d="m660 1057h51v65.001h-51z"/>
  </clipPath>
  <clipPath id="clipPath14035-6">
   <path d="m659 517h53v18h-53z"/>
  </clipPath>
  <clipPath id="clipPath14127-2">
   <path d="m659 500h53v18h-53z"/>
  </clipPath>
  <clipPath id="clipPath14445-9">
   <path d="m648 112h73v60h-73z"/>
  </clipPath>
  <clipPath id="clipPath14609-1">
   <path d="m826 1056h59v60h-59z"/>
  </clipPath>
  <clipPath id="clipPath15305-27">
   <path d="m805 276h100v100h-100z"/>
  </clipPath>
  <clipPath id="clipPath15341-09">
   <path d="m145 1063.8h74.152v45.21h-74.152z"/>
  </clipPath>
  <clipPath id="clipPath15715-3">
   <path d="m151 667h57v57h-57z"/>
  </clipPath>
  <clipPath id="clipPath15807-6">
   <path d="m154 697h51v51h-51z"/>
  </clipPath>
  <clipPath id="clipPath16001-0">
   <path d="m500.04 864.45h36.012v67.52h-36.012z"/>
  </clipPath>
  <clipPath id="clipPath16093-6">
   <path d="m836 870.54h47v55.539h-47z"/>
  </clipPath>
  <clipPath id="clipPath16477-2">
   <path d="m318.03 702.35h62.848v37.991h-62.848z"/>
  </clipPath>
  <clipPath id="clipPath16579-6">
   <path d="m485.03 133.35h62.847v37.991h-62.847z"/>
  </clipPath>
  <clipPath id="clipPath16709-1">
   <path d="m493.37 677.93h45.643v68.067h-45.643z"/>
  </clipPath>
  <clipPath id="clipPath24218-87">
   <path d="m144.34 1018.2h71.467v78h-71.467z"/>
  </clipPath>
  <clipPath id="clipPath24382-92">
   <path d="m293.21 1068.6 66.323-38.292 36.047 62.435-66.323 38.292z"/>
  </clipPath>
  <clipPath id="clipPath24650-0">
   <path d="m488.86 1054.5h10v10.706h-10z"/>
  </clipPath>
  <clipPath id="clipPath24700-2">
   <path d="m508 1066.8h10.001v10.705h-10.001z"/>
  </clipPath>
  <clipPath id="clipPath24750-3">
   <path d="m525 1045.8h10v10.706h-10z"/>
  </clipPath>
  <clipPath id="clipPath24864-7">
   <path d="m836 1043.7h25.5v31.5h-25.5z"/>
  </clipPath>
  <clipPath id="clipPath24896-5">
   <path d="m838 1062.2h24v24h-24z"/>
  </clipPath>
  <clipPath id="clipPath25070-92">
   <path d="m134 489.24h7v6h-7z"/>
  </clipPath>
  <clipPath id="clipPath25100-28">
   <path d="m216 489.24h7v6h-7z"/>
  </clipPath>
  <clipPath id="clipPath25502-9">
   <path d="m838 477.24h22v22h-22z"/>
  </clipPath>
  <clipPath id="clipPath25686-73">
   <path d="m704 1061.2h25v25h-25z"/>
  </clipPath>
  <clipPath id="clipPath25788-6">
   <path d="m663.04 1078.6-1.808-3.514-21.07-47.453c13.336-18.439 48.336-26.938 73.836-3.439 0.842 0 6.476 6.246 6 7l-18.386 25.895c-0.483 0.765-1.453 0.946-2.177 0.431l-15.505-11.011c-0.359-0.255-0.847-0.153-1.07 0.238l-18.272 31.869c-0.218 0.384-0.502 0.578-0.782 0.578-0.282 0-0.561-0.197-0.766-0.594"/>
  </clipPath>
  <clipPath id="clipPath26420-1">
   <path d="m127 820.24h100v100h-100z"/>
  </clipPath>
  <clipPath id="clipPath26860-29">
   <path d="m809 680.24c0-22.092 17.908-40 40-40s40 17.908 40 40c0 22.091-17.908 40-40 40s-40-17.909-40-40"/>
  </clipPath>
  <clipPath id="clipPath27506-3">
   <path d="m658 469.24h44v45h-44z"/>
  </clipPath>
  <clipPath id="clipPath27772-1">
   <path d="m651 271.24h58v58h-58z"/>
  </clipPath>
  <clipPath id="clipPath27864-9">
   <path d="m662 307.24h38v8h-38z"/>
  </clipPath>
  <clipPath id="clipPath28028-4">
   <path d="m858.98 137.24c0.013-0.101 0.021-0.203 0.021-0.307v-6.693h15.75c1.237 0 2.25-1.013 2.25-2.25v-11.25l-27-4.5-27 4.5v-2.25l27-4.5 27 4.5v-27c0-1.237-1.013-2.25-2.25-2.25h-49.5c-1.237 0-2.25 1.013-2.25 2.25v-4.25h54v54zm-35.979 0v-9.25c0 1.237 1.013 2.25 2.25 2.25h15.75v6.693c0 0.104 7e-3 0.207 0.02 0.307zm22.5-7h9v4.5h-9zm1.125-9c-0.62 0-1.125-0.506-1.125-1.125v-2.25c0-0.619 0.505-1.125 1.125-1.125h6.75c0.619 0 1.125 0.506 1.125 1.125v2.25c0 0.619-0.506 1.125-1.125 1.125z"/>
  </clipPath>
  <clipPath id="clipPath28200-7">
   <path d="m531.27 136.24c6.325-2.29 10.727-8.277 10.727-15.484 0-11.316-10.2-20.563-25.65-34.575l-4.35-3.941-4.35 3.941c-15.45 14.012-25.65 23.259-25.65 34.575v-39.516h60v55zm-26.983 0c2.995-1.052 5.686-2.883 7.71-5.25 2.024 2.367 4.715 4.198 7.71 5.25zm-22.29 0v-15.484c0 7.207 4.402 13.194 10.727 15.484z"/>
  </clipPath>
  <clipPath id="clipPath28364-8">
   <path d="m648 79.241h64v64h-64z"/>
  </clipPath>
  <clipPath id="clipPath28984-4">
   <path d="m500 691.74c0-3.037 2.463-5.5 5.5-5.5s5.5 2.463 5.5 5.5-2.463 5.5-5.5 5.5-5.5-2.463-5.5-5.5"/>
  </clipPath>
  <clipPath id="clipPath29012-5">
   <path d="m500 669.74c0-3.037 2.463-5.5 5.5-5.5s5.5 2.463 5.5 5.5c0 3.038-2.463 5.5-5.5 5.5s-5.5-2.462-5.5-5.5"/>
  </clipPath>
  <clipPath id="clipPath29040-0">
   <path d="m494 680.74c0-3.037 2.462-5.5 5.5-5.5s5.5 2.463 5.5 5.5c0 3.038-2.462 5.5-5.5 5.5s-5.5-2.462-5.5-5.5"/>
  </clipPath>
  <clipPath id="clipPath29068-36">
   <path d="m513 691.74c0-3.037 2.463-5.5 5.5-5.5s5.5 2.463 5.5 5.5-2.463 5.5-5.5 5.5-5.5-2.463-5.5-5.5"/>
  </clipPath>
  <clipPath id="clipPath29096-10">
   <path d="m513 669.74c0-3.037 2.463-5.5 5.5-5.5s5.5 2.463 5.5 5.5c0 3.038-2.463 5.5-5.5 5.5s-5.5-2.462-5.5-5.5"/>
  </clipPath>
  <clipPath id="clipPath29124-63">
   <path d="m507 680.74c0-3.037 2.463-5.5 5.5-5.5s5.5 2.463 5.5 5.5c0 3.038-2.463 5.5-5.5 5.5s-5.5-2.462-5.5-5.5"/>
  </clipPath>
  <clipPath id="clipPath29152-2">
   <path d="m520 680.74c0-3.037 2.463-5.5 5.5-5.5s5.5 2.463 5.5 5.5c0 3.038-2.463 5.5-5.5 5.5s-5.5-2.462-5.5-5.5"/>
  </clipPath>
  <clipPath id="clipPath29252-0">
   <path d="m321 322.24c-4.97 0-9-4.029-9-9 0-4.97 4.03-9 9-9h45c4.971 0 9 4.03 9 9 0 4.971-4.029 9-9 9z"/>
  </clipPath>
  <clipPath id="clipPath29280-6">
   <path d="m322 297.24c-4.971 0-9-4.029-9-9 0-4.97 4.029-9 9-9h45c4.971 0 9 4.03 9 9 0 4.971-4.029 9-9 9z"/>
  </clipPath>
  <clipPath id="clipPath29400-1">
   <path d="m155 83.24h44v53h-44z"/>
  </clipPath>
  <linearGradient id="linearGradient1006" x1="3.1335" x2="13.854" y1="8.46" y2="8.46" gradientTransform="translate(-17.072 -.27906)" gradientUnits="userSpaceOnUse">
   <stop stop-color="#c8c8c8" offset="0"/>
   <stop stop-color="#fafafa" offset="1"/>
  </linearGradient>
 </defs>
 <metadata>
  <rdf:RDF>
   <cc:Work rdf:about="">
    <dc:format>image/svg+xml</dc:format>
    <dc:type rdf:resource="http://purl.org/dc/dcmitype/StillImage"/>
    <dc:title/>
   </cc:Work>
  </rdf:RDF>
 </metadata>
 <circle cx="8.4937" cy="8.46" r="7.9377" filter="url(#filter11290)" opacity=".25" stroke-width=".14032"/>
 <path d="m16.431 8.4599c0 0.95154-0.16749 1.8639-0.47464 2.7094-0.21351 0.58768-0.49439 1.1433-0.83393 1.6572-0.14222 0.21608-0.29514 0.42475-0.45746 0.62529-0.51966 0.64179-1.1372 1.2007-1.8305 1.6543-0.2553 0.16718-0.52065 0.3201-0.79536 0.45712-1.0668 0.53389-2.2711 0.83421-3.5456 0.83421s-2.4788-0.30032-3.5456-0.83424c-0.27474-0.13705-0.5404-0.28997-0.7957-0.45712-0.70207-0.45973-1.327-1.0274-1.8509-1.6798-0.16263-0.20216-0.31524-0.41275-0.45746-0.63078-0.33046-0.5054-0.60421-1.0507-0.8135-1.627-0.30711-0.84529-0.4743-1.7573-0.4743-2.7085 0-4.3838 3.5537-7.9375 7.9375-7.9375 2.2005 0 4.1917 0.89548 5.6295 2.3417 0.41436 0.41662 0.78274 0.87929 1.0963 1.3795 0.29645 0.47107 0.54428 0.97582 0.73704 1.5068 0.30718 0.84559 0.47467 1.7579 0.47467 2.7094z" fill="url(#linearGradient1005)" stroke-width=".031006"/>
 <g fill="#5e4aa6" stroke-width=".26458">
  <circle cx="-330.35" cy="-328.38" r="0"/>
  <circle cx="-312.11" cy="-326.25" r="0"/>
  <circle cx="-306.02" cy="-333.07" r="0"/>
  <circle cx="-308.84" cy="-326.01" r="0"/>
 </g>
 <style type="text/css">.st0{opacity:0.15;fill:#45413C;}
	.st1{fill:#FFE500;}
	.st2{fill:#EBCB00;}
	.st3{fill:none;stroke:#45413C;stroke-linecap:round;stroke-linejoin:round;stroke-miterlimit:10;}
	.st4{fill:#FFAA54;}
	.st5{fill:#FF8A14;}
	.st6{fill:#FFB0CA;stroke:#45413C;stroke-linecap:round;stroke-linejoin:round;stroke-miterlimit:10;}
	.st7{fill:#FF87AF;stroke:#45413C;stroke-linecap:round;stroke-linejoin:round;stroke-miterlimit:10;}
	.st8{fill:#FFCC99;}
	.st9{fill:#FFFFFF;}
	.st10{fill:#F0F0F0;}
	.st11{fill:#BF8256;}
	.st12{fill:#915E3A;}
	.st13{fill:#DEA47A;}
	.st14{fill:#F0D5A8;}
	.st15{fill:#DEBB7E;}
	.st16{fill:#F7E5C6;}
	.st17{fill:#FF8A14;stroke:#45413C;stroke-linecap:round;stroke-linejoin:round;stroke-miterlimit:10;}
	.st18{fill:#FFF5E3;}
	.st19{fill:#FFF48C;}
	.st20{fill:#FFFACF;}
	.st21{fill:#FFFCE5;}
	.st22{fill:#FF87AF;}
	.st23{fill:#FFB0CA;}
	.st24{fill:#FFE500;stroke:#45413C;stroke-linecap:round;stroke-linejoin:round;stroke-miterlimit:10;}
	.st25{fill:#9CEB60;stroke:#45413C;stroke-linecap:round;stroke-linejoin:round;stroke-miterlimit:10;}
	.st26{fill:#FFFACF;stroke:#45413C;stroke-linecap:round;stroke-linejoin:round;stroke-miterlimit:10;}
	.st27{fill:#00F5BC;stroke:#45413C;stroke-linecap:round;stroke-linejoin:round;stroke-miterlimit:10;}
	.st28{fill:#BF8256;stroke:#45413C;stroke-linecap:round;stroke-linejoin:round;stroke-miterlimit:10;}
	.st29{fill:#FFE3CF;stroke:#45413C;stroke-linecap:round;stroke-linejoin:round;stroke-miterlimit:10;}
	.st30{fill:#FF6242;}
	.st31{fill:#FF866E;}
	.st32{fill:none;stroke:#E04122;stroke-linecap:round;stroke-linejoin:round;stroke-miterlimit:10;}
	.st33{fill:#FFFEF2;stroke:#45413C;stroke-linecap:round;stroke-linejoin:round;stroke-miterlimit:10;}
	.st34{fill:#FF6242;stroke:#45413C;stroke-linecap:round;stroke-linejoin:round;stroke-miterlimit:10;}
	.st35{fill:#FFA694;}
	.st36{fill:#FFFFFF;stroke:#45413C;stroke-linecap:round;stroke-linejoin:round;stroke-miterlimit:10;}
	.st37{fill:#FFFEF2;}
	.st38{fill:#FF6196;}
	.st39{fill:#B89558;}
	.st40{fill:none;stroke:#915E3A;stroke-linecap:round;stroke-linejoin:round;stroke-miterlimit:10;}
	.st41{fill:#DEBB7E;stroke:#45413C;stroke-linecap:round;stroke-linejoin:round;stroke-miterlimit:10;}
	.st42{fill:#6DD627;stroke:#45413C;stroke-linecap:round;stroke-linejoin:round;stroke-miterlimit:10;}
	.st43{fill:#E5F8FF;}
	.st44{fill:#E8F4FA;}
	.st45{fill:#E8F4FA;stroke:#45413C;stroke-linecap:round;stroke-linejoin:round;stroke-miterlimit:10;}
	.st46{fill:#FFCCDD;}
	.st47{fill:#E5F8FF;stroke:#45413C;stroke-linecap:round;stroke-linejoin:round;stroke-miterlimit:10;}
	.st48{fill:#00B8F0;stroke:#45413C;stroke-linecap:round;stroke-linejoin:round;stroke-miterlimit:10;}
	.st49{fill:#00B8F0;}
	.st50{fill:#4ACFFF;}
	.st51{fill:#E04122;}
	.st52{fill:#E04122;stroke:#45413C;stroke-linecap:round;stroke-linejoin:round;stroke-miterlimit:10;}
	.st53{fill:#87898C;}
	.st54{fill:#BDBEC0;}
	.st55{fill:#656769;}
	.st56{fill:#525252;}
	.st57{fill:#FFF48C;stroke:#45413C;stroke-linecap:round;stroke-linejoin:round;stroke-miterlimit:10;}
	.st58{fill:#6DD627;}
	.st59{fill:#EB6D00;}
	.st60{fill:#46B000;}
	.st61{fill:#80DDFF;}
	.st62{fill:#DAEDF7;}
	.st63{fill:#BF8DF2;stroke:#45413C;stroke-linecap:round;stroke-linejoin:round;stroke-miterlimit:10;}
	.st64{fill:#9F5AE5;stroke:#45413C;stroke-linecap:round;stroke-linejoin:round;stroke-miterlimit:10;}
	.st65{fill:#C8FFA1;}
	.st66{fill:#E4FFD1;}
	.st67{fill:#9CEB60;}
	.st68{fill:#E5FEFF;}
	.st69{fill:#B8ECFF;}
	.st70{fill:#E0E0E0;stroke:#45413C;stroke-linecap:round;stroke-linejoin:round;stroke-miterlimit:10;}
	.st71{fill:#E0E0E0;}
	.st72{fill:none;stroke:#4F4B45;stroke-linejoin:round;stroke-miterlimit:10;}
	.st73{fill:none;stroke:#4F4B45;stroke-linecap:round;stroke-linejoin:round;stroke-miterlimit:10;}
	.st74{fill:#E0366F;stroke:#45413C;stroke-linecap:round;stroke-linejoin:round;stroke-miterlimit:10;}
	.st75{fill:none;stroke:#45413C;stroke-miterlimit:10;}
	.st76{fill:#FF866E;stroke:#45413C;stroke-linecap:round;stroke-linejoin:round;stroke-miterlimit:10;}
	.st77{fill:#45413C;stroke:#45413C;stroke-linecap:round;stroke-linejoin:round;stroke-miterlimit:10;}
	.st78{fill:#9F5AE5;}
	.st79{fill:#803EC2;}
	.st80{fill:#803EC2;stroke:#45413C;stroke-linecap:round;stroke-linejoin:round;stroke-miterlimit:10;}
	.st81{fill:#BF8DF2;}
	.st82{fill:#FFAA54;stroke:#45413C;stroke-linecap:round;stroke-linejoin:round;stroke-miterlimit:10;}
	.st83{fill:none;stroke:#45413C;stroke-linejoin:round;stroke-miterlimit:10;}
	.st84{fill:#FFCCDD;stroke:#45413C;stroke-linecap:round;stroke-linejoin:round;stroke-miterlimit:10;}
	.st85{fill:#FF6196;stroke:#45413C;stroke-linecap:round;stroke-linejoin:round;stroke-miterlimit:10;}
	.st86{fill:#FFE5EE;}
	.st87{fill:#F7E5C6;stroke:#45413C;stroke-linecap:round;stroke-linejoin:round;stroke-miterlimit:10;}
	.st88{fill:#E5FFF9;}
	.st89{fill:none;stroke:#45413C;stroke-width:1.0064;stroke-linecap:round;stroke-linejoin:round;stroke-miterlimit:10;}
	.st90{fill:#4AEFF7;}
	.st91{fill:#A6FBFF;}
	.st92{fill:#E5FEFF;stroke:#45413C;stroke-linecap:round;stroke-linejoin:round;stroke-miterlimit:10;}
	.st93{fill:#46B000;stroke:#45413C;stroke-linecap:round;stroke-linejoin:round;stroke-miterlimit:10;}
	.st94{fill:#FFFFFF;stroke:#45413C;stroke-linejoin:round;stroke-miterlimit:10;}
	.st95{fill:#FFFFFF;stroke:#45413C;stroke-miterlimit:10;}
	.st96{fill:#009FD9;}
	.st97{fill:#00DFEB;}
	.st98{fill:#C0DCEB;stroke:#45413C;stroke-linecap:round;stroke-linejoin:round;stroke-miterlimit:10;}
	.st99{fill:#00DFEB;stroke:#45413C;stroke-linecap:round;stroke-linejoin:round;stroke-miterlimit:10;}
	.st100{fill:#FFE5EE;stroke:#45413C;stroke-linecap:round;stroke-linejoin:round;stroke-miterlimit:10;}
	.st101{fill:#8CA4B8;}
	.st102{fill:#ADC4D9;}
	.st103{fill:#656769;stroke:#45413C;stroke-linecap:round;stroke-linejoin:round;stroke-miterlimit:10;}
	.st104{fill:#F0F0F0;stroke:#45413C;stroke-linecap:round;stroke-linejoin:round;stroke-miterlimit:10;}
	.st105{fill:#C0DCEB;}
	.st106{fill:#45413C;}
	.st107{fill:#FFCABF;}
	.st108{fill:#87898C;stroke:#45413C;stroke-linecap:round;stroke-linejoin:round;stroke-miterlimit:10;}
	.st109{fill:#EBCB00;stroke:#45413C;stroke-linecap:round;stroke-linejoin:round;stroke-miterlimit:10;}</style>
 <circle cx="-276.95" cy="-340.81" r="0" fill="#5e4aa6" stroke-width=".26458"/>
 <g transform="translate(51.377 -12.191)" fill="#5e4aa6" stroke-width=".26458">
  <g transform="translate(-21.833 .89722)">
   <circle cx="-330.35" cy="-328.38" r="0"/>
   <circle cx="-312.11" cy="-326.25" r="0"/>
   <circle cx="-306.02" cy="-333.07" r="0"/>
   <circle cx="-308.84" cy="-326.01" r="0"/>
  </g>
  <circle cx="-284.23" cy="-330.42" r="0"/>
  <circle cx="6.6786" cy="4.3998" r="0" fill-rule="evenodd"/>
 </g>
 <g transform="matrix(.35277 0 0 -.35277 250.12 230.71)">
  <g clip-path="url(#clipPath13429-36)">
   <g transform="translate(448,326)">
    <path d="m0 0c3.866 0 7 3.134 7 7s-3.134 7-7 7-7-3.134-7-7 3.134-7 7-7" fill="#fff" fill-rule="evenodd"/>
   </g>
  </g>
 </g>
 <g transform="matrix(.35277 0 0 -.35277 250.12 230.71)">
  <g clip-path="url(#clipPath13465-7)">
   <g transform="translate(474,326)">
    <path d="m0 0c3.866 0 7 3.134 7 7s-3.134 7-7 7-7-3.134-7-7 3.134-7 7-7" fill="#fff" fill-rule="evenodd"/>
   </g>
  </g>
 </g>
 <g transform="matrix(.35277 0 0 -.35277 250.12 230.71)">
  <g clip-path="url(#clipPath13501-5)">
   <g transform="translate(497,326)">
    <path d="m0 0c3.866 0 7 3.134 7 7s-3.134 7-7 7-7-3.134-7-7 3.134-7 7-7" fill="#fff" fill-rule="evenodd"/>
   </g>
  </g>
 </g>
 <g transform="matrix(.35277 0 0 -.35277 250.12 230.71)">
  <g clip-path="url(#clipPath13753-3)">
   <path d="m593 1073h36v-18h-36zm18-11c6.075 0 11 0.895 11 2s-4.925 2-11 2-11-0.895-11-2 4.925-2 11-2" fill="#fff" fill-rule="evenodd"/>
  </g>
 </g>
 <g transform="matrix(.35277 0 0 -.35277 250.12 230.71)">
  <g clip-path="url(#clipPath13771-5)">
   <g transform="translate(583.42,1063)">
    <path d="m0 0s21.582 23.182 21.582 35.147c0 12.048-9.684 21.853-21.582 21.853-11.816 0-21.418-9.805-21.418-21.853 0-8.06 9.766-21.188 16.002-28.832zm0 42.542c3.938 0 7.14-3.323 7.14-7.395 0-3.822-3.202-7.146-7.14-7.146-3.856 0-7.222 3.324-7.222 7.146 0 4.072 3.366 7.395 7.222 7.395" fill="#fff"/>
   </g>
  </g>
 </g>
 <g transform="matrix(.35277 0 0 -.35277 250.12 230.71)">
  <g clip-path="url(#clipPath14035-6)">
   <g transform="translate(562,535)">
    <path d="m0 0h35c2.762 0 5-2.238 5-5s-2.238-5-5-5h-35c-2.762 0-5 2.238-5 5s2.238 5 5 5" fill="#fff" fill-rule="evenodd"/>
   </g>
  </g>
 </g>
 <g transform="matrix(.35277 0 0 -.35277 250.12 230.71)">
  <g clip-path="url(#clipPath14127-2)">
   <g transform="translate(562,518)">
    <path d="m0 0h35c2.762 0 5-2.238 5-5s-2.238-5-5-5h-35c-2.762 0-5 2.238-5 5s2.238 5 5 5" fill="#fff" fill-rule="evenodd"/>
   </g>
  </g>
 </g>
 <g transform="matrix(.35277 0 0 -.35277 250.12 230.71)">
  <g clip-path="url(#clipPath14445-9)">
   <g transform="translate(536.43,133.83)">
    <path d="m0 0c-10.01-12.916-22.288-9.047-24.23-8.072-4.847 1.293-6.464 10.015-0.326 12.918 10.018 3.226 19.06-0.325 25.524-3.553-0.644-0.967-0.968-1.293-0.968-1.293m10.667 3.553c4.521 8.072 6.139 15.826 6.139 15.826h-15.189v5.812h17.767v2.26h-17.767v8.723h-8.074v-8.723h-16.156v-2.584h16.156v-5.812h-13.57v-2.585h27.783c0-0.325 0-0.325-0.324-0.968 0-2.909-1.936-6.779-3.554-10.014-20.677 8.079-26.491 3.235-28.108 2.584-13.564-9.689-0.968-21.963 1.293-21.638 14.538-3.227 23.905 2.91 30.369 10.657 0.324-0.325 0.967-0.325 1.292-0.325 4.528-2.578 25.848-12.592 25.848-12.592v12.274c-3.878 0.325-15.506 4.195-23.905 7.105" fill="#fff"/>
   </g>
  </g>
 </g>
 <g transform="matrix(.35277 0 0 -.35277 250.12 230.71)">
  <g clip-path="url(#clipPath14609-1)">
   <g transform="translate(720.03,1091.5)">
    <path d="m0 0c-0.149 0.354-0.224 0.837-0.224 1.451 0 0.372 0.103 0.828 0.306 1.368 0.205 0.539 0.428 0.958 0.671 1.256-0.019 0.409 0.051 0.902 0.209 1.478 0.159 0.576 0.368 0.976 0.629 1.2 0 2.586 0.86 5.269 2.581 8.05 1.722 2.782 3.744 4.73 6.07 5.846 2.585 1.228 5.6 1.842 9.041 1.842 2.475 0 4.949-0.511 7.423-1.534 0.912-0.391 1.749-0.837 2.512-1.34 0.762-0.502 1.423-1.022 1.981-1.562 0.559-0.54 1.07-1.172 1.534-1.897 0.465-0.725 0.856-1.413 1.172-2.064 0.318-0.651 0.619-1.437 0.908-2.358 0.287-0.921 0.524-1.753 0.71-2.497s0.391-1.655 0.614-2.734l0.028-0.14c1.023-1.543 1.535-2.939 1.535-4.186 0-0.26-0.084-0.632-0.252-1.115-0.168-0.484-0.252-0.837-0.252-1.061 0-0.019 0.015-0.052 0.043-0.099s0.061-0.093 0.098-0.139c0.038-0.046 0.057-0.077 0.057-0.098 1.432-2.121 2.553-4.116 3.363-5.985 0.809-1.869 1.214-3.808 1.214-5.817 0-0.8-0.182-1.73-0.544-2.791-0.363-1.06-0.879-1.59-1.549-1.59-0.167 0-0.349 0.069-0.544 0.209-0.194 0.14-0.371 0.303-0.529 0.489-0.159 0.186-0.335 0.428-0.53 0.725s-0.344 0.543-0.447 0.739-0.228 0.438-0.377 0.725c-0.147 0.288-0.231 0.451-0.251 0.489-0.019 0.019-0.047 0.028-0.085 0.028l-0.138-0.111c-1.099-2.864-2.327-4.938-3.684-6.222 0.372-0.372 0.944-0.73 1.716-1.075s1.414-0.73 1.925-1.158c0.511-0.426 0.841-1.031 0.991-1.814-0.037-0.074-0.074-0.223-0.112-0.447-0.036-0.224-0.101-0.391-0.195-0.501-1.19-1.804-4-2.706-8.427-2.706-0.986 0-2.013 0.084-3.084 0.251-1.069 0.168-1.981 0.354-2.734 0.558s-1.726 0.483-2.916 0.837c-0.279 0.093-0.493 0.158-0.643 0.196-0.259 0.075-0.687 0.115-1.282 0.125-0.595 9e-3 -0.967 0.023-1.116 0.042-0.763-0.838-1.949-1.442-3.559-1.814-1.609-0.372-3.176-0.558-4.702-0.558-0.65 0-1.293 0.014-1.925 0.042s-1.498 0.113-2.595 0.252c-1.098 0.139-2.038 0.33-2.82 0.572-0.781 0.241-1.473 0.613-2.078 1.115-0.604 0.502-0.906 1.098-0.906 1.786 0 0.744 0.093 1.298 0.279 1.661 0.187 0.364 0.569 0.815 1.144 1.353 0.205 0.038 0.581 0.159 1.131 0.363 0.549 0.204 1.009 0.316 1.381 0.334 0.074 0 0.204 0.019 0.39 0.057 0.038 0.037 0.057 0.074 0.057 0.111l-0.057 0.084c-0.892 0.204-1.897 1.185-3.014 2.944-1.117 1.758-1.796 3.214-2.038 4.367l-0.139 0.084c-0.074 0-0.186-0.185-0.334-0.557-0.335-0.763-0.842-1.455-1.521-2.079-0.679-0.622-1.4-0.971-2.163-1.046h-0.028c-0.073 0-0.129 0.041-0.167 0.125-0.037 0.083-0.084 0.134-0.139 0.153-0.428 1.004-0.642 1.934-0.642 2.79 0 5.116 2.343 9.45 7.032 13.002z" fill="#fff"/>
   </g>
  </g>
 </g>
 <g transform="matrix(.35277 0 0 -.35277 250.12 230.71)">
  <g clip-path="url(#clipPath15305-27)">
   <g transform="translate(655,300)">
    <path d="m0 0c16.568 0 30 13.432 30 30s-13.432 30-30 30-30-13.432-30-30 13.432-30 30-30z" fill="none" stroke="#fff" stroke-miterlimit="10" stroke-width="8"/>
   </g>
  </g>
 </g>
 <g transform="matrix(.35277 0 0 -.35277 250.12 230.71)">
  <g clip-path="url(#clipPath15341-09)">
   <g transform="translate(66.849,1083.1)">
    <path d="m0 0c0 5.302-3.661 9.749-8.591 10.948-0.209 8.314-7.006 14.991-15.366 14.991-4.897 0-9.254-2.293-12.07-5.861-1.579 2.041-4.05 3.358-6.828 3.358-4.769 0-8.633-3.868-8.633-8.639 0-0.416 0.031-0.825 0.089-1.224-0.726 0.13-1.47 0.203-2.232 0.203-6.913 0-12.515-5.607-12.515-12.524 0-6.916 5.602-12.523 12.515-12.523h42.394c6.21 0.013 11.241 5.053 11.241 11.269z" fill="#fff"/>
   </g>
  </g>
 </g>
 <g transform="matrix(.35277 0 0 -.35277 250.12 230.71)">
  <g clip-path="url(#clipPath15715-3)">
   <g transform="translate(65.5,681)">
    <path d="m0 0c9.113 0 16.5 7.387 16.5 16.5s-7.387 16.5-16.5 16.5-16.5-7.387-16.5-16.5 7.387-16.5 16.5-16.5z" fill="none" stroke="#fff" stroke-miterlimit="10" stroke-width="4"/>
   </g>
  </g>
 </g>
 <g transform="matrix(.35277 0 0 -.35277 250.12 230.71)">
  <g clip-path="url(#clipPath15807-6)">
   <g transform="translate(77.5,711)">
    <path d="m0 0c7.456 0 13.5 6.044 13.5 13.5s-6.044 13.5-13.5 13.5-13.5-6.044-13.5-13.5 6.044-13.5 13.5-13.5z" fill="none" stroke="#fff" stroke-miterlimit="10" stroke-width="4"/>
   </g>
  </g>
 </g>
 <g transform="matrix(.35277 0 0 -.35277 250.12 230.71)">
  <g clip-path="url(#clipPath16001-0)">
   <g transform="translate(455.91,931.53)">
    <path d="m0 0c-0.742-1.039-4.75-2.821-8.165-3.563-4.305-0.891-6.531-1.633-8.758-2.82-2.969-1.782-4.601-4.009-4.305-6.087 0.149-0.445 3.711-5.64 7.868-11.578 4.304-5.938 7.868-10.985 8.016-11.134 0.149-0.297-0.445-0.297-2.524-0.148-6.531 0.445-12.469-2.969-15.142-8.314-0.742-1.632-0.89-2.523-0.89-4.453 0-4.453 2.376-8.016 6.829-10.094 1.781-0.742 2.375-0.891 6.086-0.891 4.007 0 4.156 0 6.829 1.336 7.125 3.414 10.093 10.095 7.125 16.181-0.594 1.336-4.305 7.719-8.313 14.251l-7.274 12.024h1.187c4.75 0.297 8.017 1.781 10.244 4.305 1.929 2.227 2.523 4.453 2.374 8.016-0.148 3.266-0.445 4.008-1.187 2.969" fill="#fff"/>
   </g>
  </g>
 </g>
 <g transform="matrix(.35277 0 0 -.35277 250.12 230.71)">
  <g clip-path="url(#clipPath16093-6)">
   <g transform="translate(784,902.31)">
    <path d="m0 0c0-1.565-0.904-2.931-2.251-3.674l-27.781-18.472c-0.012-8e-3 -0.026-0.014-0.037-0.02l-0.017-0.011c-0.684-0.376-1.48-0.592-2.331-0.592-2.53 0-4.583 1.913-4.583 4.269v37c0 2.356 2.053 4.27 4.583 4.27 0.851 0 1.647-0.217 2.331-0.596l0.017-8e-3c0.011-9e-3 0.022-0.014 0.037-0.02l27.781-18.471c1.347-0.743 2.251-2.11 2.251-3.675" fill="#fff"/>
   </g>
  </g>
 </g>
 <g transform="matrix(.35277 0 0 -.35277 250.12 230.71)">
  <g clip-path="url(#clipPath16477-2)">
   <g transform="translate(223.75,708.35)">
    <path d="m0 0c-15.123 0-27.418 12.329-27.418 27.486 0 1.382 1.111 2.505 2.487 2.505 1.379 0 2.499-1.123 2.499-2.505 0-12.4 10.06-22.487 22.432-22.487 12.375 0 22.443 10.087 22.443 22.487 0 1.382 1.112 2.505 2.488 2.505 1.378 0 2.499-1.123 2.499-2.505 0-15.157-12.304-27.486-27.43-27.486" fill="#fff" fill-rule="evenodd"/>
   </g>
  </g>
 </g>
 <g transform="matrix(.35277 0 0 -.35277 250.12 230.71)">
  <g clip-path="url(#clipPath16579-6)">
   <g transform="translate(390.75,139.35)">
    <path d="m0 0c-15.123 0-27.418 12.329-27.418 27.485 0 1.383 1.111 2.506 2.487 2.506 1.379 0 2.499-1.123 2.499-2.506 0-12.398 10.06-22.486 22.432-22.486 12.375 0 22.443 10.088 22.443 22.486 0 1.383 1.112 2.506 2.488 2.506 1.378 0 2.499-1.123 2.499-2.506 0-15.156-12.304-27.485-27.43-27.485" fill="#fff" fill-rule="evenodd"/>
   </g>
  </g>
 </g>
 <g transform="matrix(.35277 0 0 -.35277 250.12 230.71)">
  <g clip-path="url(#clipPath16709-1)">
   <g transform="translate(423.93,686.39)">
    <path d="m0 0c0.245-0.286 0.605-0.456 0.986-0.456 0.382 0 0.743 0.17 0.988 0.456l17.516 20.497c0.333 0.388 0.408 0.933 0.191 1.388-0.211 0.463-0.674 0.756-1.184 0.756h-9.93c-2.118 4.172-3.109 8.382-2.973 12.63 0.135 4.248 1.954 12.361 5.455 24.34-10.956-6.59-17.656-18.44-17.656-31.225v-5.745h-9.93c-0.51 0-0.966-0.293-1.184-0.756-0.211-0.462-0.135-1 0.191-1.388z" fill="#fff"/>
   </g>
  </g>
 </g>
 <g transform="matrix(.35277 0 0 -.35277 214.95 271.91)">
  <g clip-path="url(#clipPath24218-87)">
   <g transform="translate(9.1685,1040.9)">
    <path d="m0 0 25.314 21.067-26.077 18.651c5.846 7.671 15.079 12.622 25.468 12.622 17.673 0 32-14.327 32-32s-14.327-32-32-32c-9.948 0-18.836 4.539-24.705 11.66m27.349 31.812c2.835 0 5.132 2.297 5.132 5.132 0 2.834-2.297 5.132-5.132 5.132-2.834 0-5.132-2.298-5.132-5.132 0-2.835 2.298-5.132 5.132-5.132" fill="#fff" fill-rule="evenodd"/>
   </g>
  </g>
 </g>
 <g transform="matrix(.35277 0 0 -.35277 214.95 271.91)">
  <g clip-path="url(#clipPath24382-92)">
   <g transform="translate(194.25,1130.3)">
    <path d="m0 0c20.173-11.579 43.841 2 51.309 14.862 7.467 12.861 5.032 31.138-10.468 37.638s-45.487 6.611-54.5-9-6.515-31.922 13.659-43.5" fill="#fff" fill-rule="evenodd"/>
   </g>
  </g>
 </g>
 <g transform="matrix(.35277 0 0 -.35277 214.95 271.91)">
  <g clip-path="url(#clipPath24650-0)">
   <g transform="translate(473.86,1057.5)">
    <path d="m0 0c1.657 0 3 1.501 3 3.353s-1.343 3.353-3 3.353c-1.656 0-3-1.501-3-3.353s1.344-3.353 3-3.353" fill="#fff" fill-rule="evenodd"/>
   </g>
  </g>
 </g>
 <g transform="matrix(.35277 0 0 -.35277 214.95 271.91)">
  <g clip-path="url(#clipPath24700-2)">
   <g transform="translate(493,1069.8)">
    <path d="m0 0c1.657 0 3 1.501 3 3.353s-1.343 3.353-3 3.353-3-1.501-3-3.353 1.343-3.353 3-3.353" fill="#fff" fill-rule="evenodd"/>
   </g>
  </g>
 </g>
 <g transform="matrix(.35277 0 0 -.35277 214.95 271.91)">
  <g clip-path="url(#clipPath24750-3)">
   <g transform="translate(510,1048.8)">
    <path d="m0 0c1.657 0 3 1.501 3 3.353s-1.343 3.353-3 3.353-3-1.501-3-3.353 1.343-3.353 3-3.353" fill="#fff" fill-rule="evenodd"/>
   </g>
  </g>
 </g>
 <g transform="matrix(.35277 0 0 -.35277 214.95 271.91)">
  <g clip-path="url(#clipPath24864-7)">
   <g transform="translate(806.5,1072.2)">
    <path d="m0 0c-3.667-14-9.5-21.833-17.5-23.5" fill="none" stroke="#fff" stroke-linecap="round" stroke-miterlimit="10"/>
   </g>
  </g>
 </g>
 <g transform="matrix(.35277 0 0 -.35277 214.95 271.91)">
  <g clip-path="url(#clipPath24896-5)">
   <g transform="translate(802,1066.2)">
    <path d="m0 0c-4.971 0-9 4.029-9 9s4.029 9 9 9 9-4.029 9-9-4.029-9-9-9m0 6c1.657 0 3 1.343 3 3s-1.343 3-3 3-3-1.343-3-3 1.343-3 3-3" fill="#fff" fill-rule="evenodd"/>
   </g>
  </g>
 </g>
 <g transform="matrix(.35277 0 0 -.35277 214.95 271.91)">
  <g clip-path="url(#clipPath25070-92)">
   <g transform="translate(122,495.24)">
    <path d="m0 0h3c0.553 0 1-0.447 1-1v-2c0-0.553-0.447-1-1-1h-3c-0.553 0-1 0.447-1 1v2c0 0.553 0.447 1 1 1" fill="#fff" fill-rule="evenodd"/>
   </g>
  </g>
 </g>
 <g transform="matrix(.35277 0 0 -.35277 214.95 271.91)">
  <g clip-path="url(#clipPath25100-28)">
   <g transform="translate(204,495.24)">
    <path d="m0 0h3c0.553 0 1-0.447 1-1v-2c0-0.553-0.447-1-1-1h-3c-0.553 0-1 0.447-1 1v2c0 0.553 0.447 1 1 1" fill="#fff" fill-rule="evenodd"/>
   </g>
  </g>
 </g>
 <g transform="matrix(.35277 0 0 -.35277 214.95 271.91)">
  <g clip-path="url(#clipPath25502-9)">
   <g transform="translate(805,482.24)">
    <path d="m0 0c4.418 0 8 3.582 8 8s-3.582 8-8 8-8-3.582-8-8 3.582-8 8-8" fill="#fff" fill-rule="evenodd"/>
   </g>
  </g>
 </g>
 <g transform="matrix(.35277 0 0 -.35277 214.95 271.91)">
  <g clip-path="url(#clipPath25686-73)">
   <g transform="translate(658,1075.7)">
    <path d="m0 0c0-4.694 3.806-8.5 8.5-8.5s8.5 3.806 8.5 8.5-3.806 8.5-8.5 8.5-8.5-3.806-8.5-8.5" fill="#fff"/>
   </g>
  </g>
 </g>
 <g transform="matrix(.35277 0 0 -.35277 214.95 271.91)">
  <g clip-path="url(#clipPath25788-6)">
   <path d="m465.44 1082.2h85.864v-75.319h-85.864zm64.45-25.106c-0.483 0.765-1.453 0.947-2.178 0.431l-15.504-11.01c-0.359-0.255-0.847-0.153-1.071 0.238l-18.271 31.869c-0.438 0.771-1.139 0.776-1.549-0.016l-1.807-3.514-21.07-47.452c13.336-18.44 48.336-26.94 73.836-3.44 0.841 0 6.477 6.246 6 7z" fill="#fff" fill-rule="evenodd"/>
  </g>
 </g>
 <g transform="matrix(.35277 0 0 -.35277 214.95 271.91)">
  <g clip-path="url(#clipPath26420-1)">
   <g transform="translate(-23,837.24)">
    <path d="m0 0c18.778 0 34 15.222 34 34s-15.222 34-34 34-34-15.222-34-34 15.222-34 34-34z" fill="none" stroke="#fff" stroke-miterlimit="10" stroke-width="8"/>
   </g>
  </g>
 </g>
 <g transform="matrix(.35277 0 0 -.35277 214.95 271.91)">
  <g clip-path="url(#clipPath26860-29)">
   <path d="m644 721.24h82v-82h-82zm41-81c22.092 0 40 17.908 40 40s-17.908 40-40 40-40-17.908-40-40 17.908-40 40-40" fill="#fff" fill-rule="evenodd"/>
  </g>
 </g>
 <g transform="matrix(.35277 0 0 -.35277 214.95 271.91)">
  <g clip-path="url(#clipPath27506-3)">
   <g transform="translate(613.88,476.03)">
    <path d="m0 0c0.187-0.771 0.148-1.502-0.116-2.193-0.266-0.692-0.678-1.303-1.239-1.833-0.561-0.531-1.247-0.949-2.057-1.255-0.81-0.305-1.683-0.457-2.617-0.457-5.889-0.033-11.156-0.049-15.798-0.049h-15.891c-1.122 0-2.111 0.209-2.968 0.627s-1.543 0.932-2.056 1.543c-0.515 0.611-0.858 1.279-1.029 2.002s-0.148 1.375 0.071 1.953c0.186 0.451 0.373 0.917 0.56 1.398 0.157 0.418 0.343 0.893 0.561 1.424 0.219 0.53 0.452 1.069 0.701 1.615l1.776 4.438h5.329l-2.01-6.077h30.099l-2.009 6.077h5.094c0.655-1.64 1.246-3.119 1.777-4.438 0.218-0.578 0.435-1.14 0.654-1.687 0.218-0.547 0.412-1.037 0.584-1.472 0.171-0.433 0.312-0.804 0.421-1.109 0.108-0.306 0.163-0.474 0.163-0.507m-22.922 9.236c-0.601 0.698-1.289 1.571-2.064 2.618-0.776 1.046-1.575 2.125-2.398 3.235-0.822 1.11-1.637 2.204-2.443 3.283-0.808 1.079-1.527 2.015-2.16 2.808-0.728 0.856-1.013 1.562-0.855 2.117s0.696 0.832 1.614 0.832c0.506-0.031 1.187-0.024 2.041 0.024 0.855 0.048 1.567 0.072 2.136 0.072 0.633 0 1.029 0.19 1.187 0.57 0.158 0.381 0.237 0.889 0.237 1.523 0 0.698-8e-3 1.467-0.024 2.308s-0.024 1.705-0.024 2.593-8e-3 1.76-0.023 2.617c-0.016 0.856-0.024 1.65-0.024 2.379 0 0.318 0.024 0.65 0.071 1 0.047 0.348 0.158 0.666 0.333 0.951 0.173 0.285 0.426 0.523 0.758 0.714 0.332 0.19 0.784 0.285 1.353 0.285 0.665 0 1.274 9e-3 1.827 0.024 0.555 0.016 1.195 0.024 1.923 0.024 1.044 0 1.748-0.246 2.112-0.737 0.364-0.492 0.562-1.277 0.593-2.356v-1.855c0-0.73 8e-3 -1.507 0.023-2.331 0.017-0.826 0.025-1.651 0.025-2.475v-2.236c0-0.92 0.095-1.659 0.284-2.213 0.191-0.555 0.617-0.817 1.282-0.785 0.475 0 1.052-0.016 1.732-0.047 0.68-0.032 1.274-0.049 1.78-0.049 0.855 0 1.4-0.23 1.638-0.69 0.237-0.46 0.071-1.054-0.498-1.784-0.602-0.76-1.298-1.68-2.089-2.759-0.791-1.08-1.606-2.197-2.445-3.355-0.838-1.158-1.661-2.284-2.467-3.379-0.807-1.094-1.528-2.037-2.16-2.83-0.57-0.73-1.116-1.103-1.637-1.119-0.523-0.016-1.069 0.326-1.638 1.023" fill="#fff"/>
   </g>
  </g>
 </g>
 <g transform="matrix(.35277 0 0 -.35277 214.95 271.91)">
  <g clip-path="url(#clipPath27772-1)">
   <g transform="translate(588.67,331.24)">
    <path d="m0 0h-49.301c-2.41 0-4.367-1.941-4.367-4.299v-49.402c0-2.393 1.957-4.299 4.367-4.299h49.301c2.41 0 4.332 1.941 4.332 4.299v49.367c0 2.393-1.957 4.334-4.332 4.334m-33.403-53.008h-8.839v6.795h8.839zm-8.91 24.58h8.84v-6.795h-8.84zm8.945-15.566h-8.84v6.795h8.84zm12.998-9.014h-8.84v6.795h8.84zm-8.91 24.58h8.84v-6.795h-8.84zm8.944-15.566h-8.839v6.795h8.839zm13.277-9.014h-8.84v6.795h8.84zm-8.909 24.58h8.84v-6.795h-8.84zm8.945-15.566h-8.84v6.795h8.84zm5.276 24.441c0-2.392-1.957-4.299-4.368-4.299h-37.77c-2.411-0.035-4.367 1.907-4.367 4.299v10.054c0 2.392 1.956 4.333 4.332 4.333h37.805c2.411 0 4.368-1.941 4.368-4.333z" fill="#fff"/>
   </g>
  </g>
 </g>
 <g transform="matrix(.35277 0 0 -.35277 214.95 271.91)">
  <g clip-path="url(#clipPath27864-9)">
   <g transform="translate(609.3,312.46)">
    <path d="m0 0h-0.72c-0.206 0-0.377 0-0.514-0.212-0.103-0.142-0.103-0.283-0.103-0.46v-0.566c0-0.178 0-0.319 0.103-0.461 0.137-0.212 0.308-0.212 0.514-0.212h0.72c0.205 0 0.376 0 0.514 0.212 0.102 0.142 0.102 0.283 0.102 0.461v0.566c0 0.213 0 0.318-0.102 0.46-0.138 0.212-0.275 0.212-0.514 0.212m-5.003 4.779h-2.947c-0.548 0-0.993-0.46-0.993-1.026v-2.407h0.993v2.407h2.947v-2.407h0.993v2.407c0 0.566-0.445 1.026-0.993 1.026m0-6.973h-2.947v2.407h-0.993v-2.407c0-0.567 0.411-1.027 0.993-1.027h2.947c0.582 0 0.993 0.46 0.993 1.027v2.407h-0.993zm-14.357 0h-2.947v2.584h-0.994v-2.584c0-0.567 0.411-1.027 0.994-1.027h2.947c0.583 0 0.994 0.46 0.994 1.027v2.584h-0.994zm0 6.973h-2.947c-0.548 0-0.994-0.46-0.994-1.026v-2.231h0.994v2.231h2.947v-2.231h0.994v2.231c0 0.566-0.446 1.026-0.994 1.026m7.195 0h-2.946c-0.549 0-0.994-0.46-0.994-1.026v-2.231h0.994v2.231h2.946v-2.231h0.994v2.231c0 0.566-0.445 1.026-0.994 1.026m0-6.973h-2.946v2.584h-0.994v-2.584c0-0.567 0.445-1.027 0.994-1.027h2.946c0.583 0 0.994 0.46 0.994 1.027v2.584h-0.994zm18.675 6.973h-2.947c-0.548 0-0.994-0.46-0.994-1.026v-2.584h0.994v2.584h2.947v-2.584h0.994v2.584c0 0.566-0.445 1.026-0.994 1.026m0-6.973h-2.947v2.23h-0.994v-2.23c0-0.567 0.446-1.027 0.994-1.027h2.947c0.583 0 0.994 0.46 0.994 1.027v2.23h-0.994zm7.195 0h-2.946v2.053h-0.994v-2.053c0-0.567 0.411-1.027 0.994-1.027h2.946c0.583 0 0.994 0.46 0.994 1.027v2.053h-0.994zm0 6.973h-2.946c-0.548 0-0.994-0.46-0.994-1.026v-2.761h0.994v2.761h2.946v-2.761h0.994v2.761c0 0.566-0.479 1.026-0.994 1.026" fill="#fff"/>
   </g>
  </g>
 </g>
 <g transform="matrix(.35277 0 0 -.35277 214.95 271.91)">
  <g clip-path="url(#clipPath28028-4)">
   <g transform="translate(766.75,130.24)">
    <path d="m0 0h-15.75v6.693c0 1.239-1.013 2.307-2.307 2.307h-13.386c-1.239 0-2.307-1.013-2.307-2.307v-6.693h-15.75c-1.237 0-2.25-1.013-2.25-2.25v-11.25l27-4.5 27 4.5v11.25c0 1.237-1.013 2.25-2.25 2.25m-29.25 4.5h9v-4.5h-9zm9-16.875c0-0.619-0.506-1.125-1.125-1.125h-6.75c-0.619 0-1.125 0.506-1.125 1.125v2.25c0 0.619 0.506 1.125 1.125 1.125h6.75c0.619 0 1.125-0.506 1.125-1.125zm-4.5-7.875 27 4.5v-27c0-1.237-1.013-2.25-2.25-2.25h-49.5c-1.237 0-2.25 1.013-2.25 2.25v27z" fill="#fff"/>
   </g>
  </g>
 </g>
 <g transform="matrix(.35277 0 0 -.35277 214.95 271.91)">
  <g clip-path="url(#clipPath28200-7)">
   <g transform="translate(392,82.24)">
    <path d="M 0,0 -4.35,3.941 C -19.8,17.953 -30,27.2 -30,38.516 -30,47.762 -22.755,55 -13.5,55 -8.28,55 -3.27,52.572 0,48.75 3.27,52.572 8.28,55 13.5,55 22.755,55 30,47.762 30,38.516 30,27.2 19.8,17.953 4.35,3.941 Z" fill="#fff"/>
   </g>
  </g>
 </g>
 <g transform="matrix(.35277 0 0 -.35277 214.95 271.91)">
  <g clip-path="url(#clipPath28364-8)">
   <g transform="translate(542.77,113.24)">
    <path d="m0 0c0 2.621 0.885 4.8 2.689 6.604s3.983 2.689 6.604 2.689c2.622 0 4.801-0.885 6.604-2.689 1.805-1.804 2.69-3.983 2.69-6.604s-0.885-4.834-2.69-6.639c-1.803-1.803-3.982-2.689-6.604-2.689-2.621 0-4.809 0.877-6.604 2.689-1.813 1.83-2.689 4.051-2.689 6.639m-13.141-6.06c0.545-1.94 1.363-3.846 2.35-5.617l-6.128-7.523 6.944-6.945 7.524 6.127c1.769-0.986 3.71-1.803 5.65-2.382l1.022-9.6h10.008l1.022 9.6c1.94 0.579 3.778 1.396 5.651 2.382l7.49-6.127 7.012 6.945-6.162 7.523c0.953 1.771 1.805 3.677 2.383 5.617l9.601 1.056v10.008l-9.601 1.021c-0.578 1.941-1.43 3.745-2.383 5.618l6.162 7.523-7.012 7.013-7.49-6.161c-1.907 0.953-3.711 1.803-5.651 2.382l-1.022 9.6h-10.008l-1.022-9.6c-2.008-0.579-3.88-1.429-5.65-2.382l-7.524 6.161-6.944-7.013 6.128-7.523c-0.953-1.873-1.771-3.677-2.35-5.618l-9.633-1.021v-10.008z" fill="#fff"/>
   </g>
  </g>
 </g>
 <g transform="matrix(.35277 0 0 -.35277 214.95 271.91)">
  <g clip-path="url(#clipPath28984-4)">
   <path d="m473 698.24h13v-13h-13zm6.5-12c3.037 0 5.5 2.463 5.5 5.5 0 3.038-2.463 5.5-5.5 5.5s-5.5-2.462-5.5-5.5c0-3.037 2.463-5.5 5.5-5.5" fill="#fff" fill-rule="evenodd"/>
  </g>
 </g>
 <g transform="matrix(.35277 0 0 -.35277 214.95 271.91)">
  <g clip-path="url(#clipPath29012-5)">
   <path d="m473 676.24h13v-13h-13zm6.5-12c3.037 0 5.5 2.463 5.5 5.5 0 3.038-2.463 5.5-5.5 5.5s-5.5-2.462-5.5-5.5c0-3.037 2.463-5.5 5.5-5.5" fill="#fff" fill-rule="evenodd"/>
  </g>
 </g>
 <g transform="matrix(.35277 0 0 -.35277 214.95 271.91)">
  <g clip-path="url(#clipPath29040-0)">
   <path d="m467 687.24h13v-13h-13zm6.5-12c3.037 0 5.5 2.463 5.5 5.5 0 3.038-2.463 5.5-5.5 5.5s-5.5-2.462-5.5-5.5c0-3.037 2.463-5.5 5.5-5.5" fill="#fff" fill-rule="evenodd"/>
  </g>
 </g>
 <g transform="matrix(.35277 0 0 -.35277 214.95 271.91)">
  <g clip-path="url(#clipPath29068-36)">
   <path d="m486 698.24h13v-13h-13zm6.5-12c3.037 0 5.5 2.463 5.5 5.5 0 3.038-2.463 5.5-5.5 5.5s-5.5-2.462-5.5-5.5c0-3.037 2.463-5.5 5.5-5.5" fill="#fff" fill-rule="evenodd"/>
  </g>
 </g>
 <g transform="matrix(.35277 0 0 -.35277 214.95 271.91)">
  <g clip-path="url(#clipPath29096-10)">
   <path d="m486 676.24h13v-13h-13zm6.5-12c3.037 0 5.5 2.463 5.5 5.5 0 3.038-2.463 5.5-5.5 5.5s-5.5-2.462-5.5-5.5c0-3.037 2.463-5.5 5.5-5.5" fill="#fff" fill-rule="evenodd"/>
  </g>
 </g>
 <g transform="matrix(.35277 0 0 -.35277 214.95 271.91)">
  <g clip-path="url(#clipPath29124-63)">
   <path d="m480 687.24h13v-13h-13zm6.5-12c3.037 0 5.5 2.463 5.5 5.5 0 3.038-2.463 5.5-5.5 5.5s-5.5-2.462-5.5-5.5c0-3.037 2.463-5.5 5.5-5.5" fill="#fff" fill-rule="evenodd"/>
  </g>
 </g>
 <g transform="matrix(.35277 0 0 -.35277 214.95 271.91)">
  <g clip-path="url(#clipPath29152-2)">
   <path d="m493 687.24h13v-13h-13zm6.5-12c3.037 0 5.5 2.463 5.5 5.5 0 3.038-2.463 5.5-5.5 5.5s-5.5-2.462-5.5-5.5c0-3.037 2.463-5.5 5.5-5.5" fill="#fff" fill-rule="evenodd"/>
  </g>
 </g>
 <g transform="matrix(.35277 0 0 -.35277 214.95 271.91)">
  <g clip-path="url(#clipPath29252-0)">
   <path d="m161 327.24h73v-28h-73zm14-5h45c4.971 0 9-4.029 9-9 0-4.97-4.029-9-9-9h-45c-4.971 0-9 4.03-9 9 0 4.971 4.029 9 9 9" fill="#fff" fill-rule="evenodd"/>
  </g>
 </g>
 <g transform="matrix(.35277 0 0 -.35277 214.95 271.91)">
  <g clip-path="url(#clipPath29280-6)">
   <path d="m162 302.24h73v-28h-73zm14-5h45c4.971 0 9-4.029 9-9 0-4.97-4.029-9-9-9h-45c-4.971 0-9 4.03-9 9 0 4.971 4.029 9 9 9" fill="#fff" fill-rule="evenodd"/>
  </g>
 </g>
 <g transform="matrix(.35277 0 0 -.35277 214.95 271.91)">
  <g clip-path="url(#clipPath29400-1)">
   <g transform="translate(104.49,129.57)">
    <path d="m0 0c-4.298-0.338-8.165-0.637-11.604-0.898-1.458-0.113-2.906-0.225-4.344-0.336-1.44-0.114-2.747-0.207-3.924-0.282-1.178-0.074-2.168-0.149-2.972-0.224-0.803-0.074-1.28-0.113-1.428-0.113-0.188-0.037-0.403-0.065-0.645-0.084-0.244-0.018-0.459-0.065-0.645-0.139l-0.673-0.225-2.467 1.121c0.187 0.263 0.412 0.506 0.674 0.731 0.185 0.186 0.42 0.364 0.7 0.533 0.28 0.168 0.569 0.27 0.868 0.309 0.225 0.037 0.822 0.093 1.795 0.168 0.971 0.074 2.167 0.168 3.588 0.28 0 0.486 0.047 1.15 0.14 1.992 0.092 0.841 0.317 1.674 0.672 2.497 0.356 0.822 0.869 1.553 1.541 2.188 0.673 0.636 1.589 1.009 2.747 1.123 1.346 0.111 2.439-0.094 3.281-0.618 0.84-0.523 1.494-1.169 1.961-1.935 0.467-0.768 0.795-1.553 0.981-2.358 0.187-0.804 0.299-1.43 0.337-1.878 1.606 0.111 2.942 0.205 4.008 0.279 1.064 0.076 1.653 0.131 1.765 0.169 0.412 0.038 0.87-0.038 1.373-0.225 0.505-0.186 0.907-0.43 1.206-0.729 0.075-0.075 0.177-0.188 0.308-0.336 0.131-0.151 0.252-0.3 0.365-0.449 0.149-0.151 0.28-0.337 0.392-0.561m-15.528 6.676c-0.709-0.074-1.28-0.326-1.709-0.757-0.43-0.431-0.758-0.944-0.982-1.543-0.223-0.599-0.374-1.206-0.448-1.823-0.075-0.617-0.112-1.114-0.112-1.488 1.159 0.076 2.344 0.169 3.559 0.281s2.402 0.206 3.56 0.281c-0.037 0.336-0.121 0.804-0.252 1.402-0.131 0.599-0.346 1.178-0.645 1.74-0.299 0.561-0.691 1.028-1.176 1.403-0.487 0.373-1.084 0.542-1.795 0.504m21.919-41.24c0.186-1.047 0.159-1.917-0.084-2.61-0.244-0.691-0.925-1.168-2.046-1.43-0.374-0.113-1.187-0.299-2.439-0.562-1.252-0.262-2.747-0.579-4.485-0.953-1.737-0.374-3.597-0.777-5.577-1.207-1.982-0.43-3.878-0.832-5.691-1.205-1.812-0.375-3.437-0.711-4.877-1.011-1.438-0.3-2.457-0.505-3.054-0.617-1.383-0.3-2.402-0.206-3.055 0.28-0.654 0.486-0.982 1.217-0.982 2.189v34.452c0 0.934 0.197 1.691 0.589 2.271 0.393 0.58 0.962 0.889 1.709 0.926 0.299 0 0.664 0.02 1.094 0.057s0.85 0.074 1.261 0.112c0.485 0.037 0.991 0.075 1.514 0.112l0.504-8.023c-0.037-0.038-0.112-0.057-0.224-0.057-0.074 0-0.187-0.01-0.336-0.027-0.15-0.02-0.318-0.029-0.505-0.029-0.784-0.075-1.159-0.542-1.121-1.403 0.038-0.336 0.075-0.805 0.112-1.402 0.037-0.599 0.066-1.225 0.084-1.88 0.019-0.655 0.047-1.29 0.084-1.907s0.074-1.114 0.113-1.488c0.037-0.711 0.149-1.112 0.336-1.206 0.186-0.093 0.598-0.14 1.233-0.14h0.785c0.225 0 0.439 0.01 0.645 0.027 0.205 0.02 0.439 0.038 0.701 0.057 0.261 0.018 0.597 0.047 1.008 0.084 0.785 0.075 1.29 0.243 1.513 0.506 0.225 0.261 0.319 0.654 0.281 1.177 0 0.262-0.028 0.721-0.084 1.375-0.056 0.655-0.113 1.337-0.168 2.048-0.056 0.71-0.103 1.384-0.14 2.02-0.037 0.635-0.074 1.085-0.112 1.346-0.076 0.45-0.168 0.768-0.281 0.954-0.112 0.187-0.318 0.262-0.617 0.224-0.148 0-0.299-9e-3 -0.447-0.027-0.151-0.019-0.3-0.028-0.449-0.028h-0.449l-0.505 7.967c2.542 0.225 4.877 0.412 7.008 0.561 0.897 0.076 1.803 0.15 2.719 0.224 0.916 0.076 1.766 0.141 2.551 0.198 0.785 0.055 1.476 0.111 2.074 0.168 0.598 0.056 1.046 0.103 1.346 0.14 1.083 0.074 1.942-0.113 2.578-0.561 0.635-0.449 1.027-1.122 1.178-2.021 0.037-0.299 0.168-1.196 0.391-2.693 0.224-1.496 0.505-3.291 0.841-5.386s0.691-4.349 1.065-6.761c0.374-2.413 0.729-4.667 1.066-6.761 0.336-2.095 0.625-3.891 0.869-5.387 0.242-1.496 0.4-2.395 0.476-2.693m-35.261-4.881c0-0.525 0.028-0.983 0.084-1.375 0.057-0.393 0.122-0.701 0.197-0.926 0.074-0.299 0.168-0.524 0.279-0.674-0.933 0.486-1.831 0.973-2.69 1.459-0.747 0.412-1.495 0.832-2.242 1.263-0.747 0.43-1.383 0.795-1.906 1.094-0.972 0.561-1.635 1.235-1.99 2.02s-0.439 1.608-0.253 2.469c0.076 0.224 0.244 1.047 0.505 2.469 0.262 1.421 0.588 3.142 0.981 5.162 0.392 2.019 0.803 4.189 1.233 6.508 0.43 2.32 0.831 4.49 1.205 6.509 0.374 2.02 0.701 3.76 0.982 5.218 0.28 1.459 0.439 2.319 0.476 2.581 0.15 0.823 0.42 1.459 0.813 1.908 0.392 0.449 0.849 0.561 1.373 0.336 0.299-0.149 0.543-0.317 0.728-0.504 0.114-0.113 0.188-0.207 0.225-0.281z" fill="#fff"/>
   </g>
  </g>
 </g>
 <g transform="translate(63.556 -8.139)" fill="#5e4aa6" stroke-width=".26458">
  <circle cx="-330.35" cy="-328.38" r="0"/>
  <circle cx="-39.434" cy="6.44" r="0" fill-rule="evenodd"/>
  <circle cx="-306.9" cy="-332.28" r="0"/>
 </g>
 <path d="m13.276 6.5557h-8.0548v4.924h0.32357v0.57317h3.6902v-0.57317h0.35016v0.57317h3.6902v-0.57317h5.98e-4c0.3192 0 0.57791-0.25889 0.57791-0.57805v-3.7681c0-0.31915-0.25871-0.57786-0.57791-0.57786zm-7.2661 5.3093h-0.184v-0.41401h0.184zm0.36801 0h-0.184v-0.41401h0.184zm0.36801 0h-0.184v-0.41401h0.184zm0.36801 0h-0.184v-0.41401h0.184zm0.36801 0h-0.184v-0.41401h0.184zm0.36801 0h-0.184v-0.41401h0.184zm0.36801 0h-0.184v-0.41401h0.184zm0.36801 0h-0.184v-0.41401h0.184zm0.36801 0h-0.184v-0.41401h0.184zm1.0964 0h-0.184v-0.41401h0.184zm0.36801 0h-0.184v-0.41401h0.184zm0.36801 0h-0.184v-0.41401h0.184zm0.36801 0h-0.184v-0.41401h0.184zm0.36801 0h-0.184v-0.41401h0.184zm-1.5197-1.3002h-4.1589v-3.1281h4.1589c0.86362 0 1.564 0.7005 1.564 1.564 0 0.86348-0.70036 1.564-1.564 1.564zm1.8877 1.3002h-0.184v-0.41401h0.184zm0.36801 0h-0.184v-0.41401h0.184zm0.36801 0h-0.184v-0.41401h0.184zm0.36801 0h-0.184v-0.41401h0.184zm-8.9213-2.6489v-1.2426h-0.29523v-1.7091h0.29523v-0.67502h-0.93916v-0.72244h1.6616v6.6569h-0.72244v-0.59856h-0.29523v-1.7092h0.29523zm6.5661-0.14049c-0.02374 0.01191-0.04715 0.02341-0.07024 0.03487h5.52e-4c0.03432 0.0068 0.069 0.01366 0.10277 0.02015 0.03376 0.0058 0.06721 0.01109 0.09936 0.01633 0.03225 0.0052 0.06325 0.01081 0.09246 0.01426 0.02921 0.0038 0.05667 0.0076 0.08202 0.01109 0.02507 0.0026 0.04789 0.0048 0.06817 0.0072 0.0046 9.2e-5 0.0092 7.36e-4 0.0138 0.0013-0.04522 0.25903-0.18603 0.48503-0.38489 0.64052-0.0022-9.66e-4 -0.0044-0.0023-0.0066-0.0034-0.02981-0.01573-0.06003-0.03358-0.09113-0.05189-0.03123-0.01826-0.06348-0.03671-0.09619-0.05584-0.03206-0.02015-0.06431-0.04011-0.09683-0.06026-0.03243-0.02038-0.06504-0.03974-0.09614-0.06054-0.02226-0.01467-0.04384-0.02889-0.06541-0.04329 9.2e-5 0 1.84e-4 9.2e-5 1.84e-4 2.3e-4 0.01132 0.03335 0.02291 0.06684 0.03404 0.09941 0.01196 0.03179 0.02401 0.06362 0.03556 0.0943 0.01141 0.03036 0.02236 0.05966 0.03395 0.08708 0.01104 0.02723 0.02171 0.05263 0.03137 0.07632 0.01026 0.02309 0.01941 0.04393 0.02778 0.06261 0.0022 0.0046 0.0039 0.0089 0.0058 0.01334-0.11132 0.04025-0.23143 0.06247-0.35688 0.06247-0.13828 0-0.26984-0.02687-0.39046-0.07581 0-0.0025-4.6e-5 -0.0048-9.2e-5 -0.0076-0.0013-0.03358-0.0012-0.06873-9.2e-4 -0.10493 1.84e-4 -0.03593 2.76e-4 -0.07342 4.6e-4 -0.11151 0.0011-0.03717 0.0023-0.07567 0.0036-0.11358 0.0015-0.03841 0.0021-0.07622 0.0045-0.11362 0.0016-0.02682 0.0031-0.05272 0.0047-0.07866 0 9.2e-5 -9.2e-5 3.22e-4 -9.2e-5 4.14e-4 -0.02318 0.02691-0.04619 0.05332-0.06891 0.07908-0.02185 0.02691-0.04324 0.05272-0.06389 0.07825-0.02075 0.02525-0.0408 0.04945-0.05842 0.07282-0.01799 0.02309-0.03496 0.04513-0.05069 0.06569-0.01463 0.02019-0.02838 0.03873-0.04034 0.05497-0.0027 0.0039-0.0055 0.0079-0.0081 0.01159-0.19295-0.16169-0.32621-0.3923-0.36251-0.65349 0.0023-0.0017 0.0043-0.0027 0.0067-0.0042 0.02838-0.01776 0.05884-0.0351 0.09021-0.05331 0.03137-0.01794 0.0638-0.03639 0.0966-0.05506 0.03326-0.01794 0.06684-0.03583 0.10047-0.05391 0.03386-0.01766 0.06721-0.03611 0.10065-0.05304 0.02374-0.01187 0.04724-0.02341 0.07034-0.03478h-5.52e-4c-0.0345-0.0068-0.069-0.01366-0.10304-0.02019-0.03376-0.0057-0.06721-0.01095-0.09945-0.01619-0.03206-0.0052-0.06297-0.01086-0.09219-0.0144-0.02912-0.0037-0.05667-0.0075-0.08202-0.01095-0.02498-0.0026-0.04789-0.0049-0.06808-0.0074-0.0048-4.6e-5 -0.0095-6.9e-4 -0.01403-0.0012 0.04536-0.25899 0.18607-0.48513 0.38489-0.64056 0.0023 1e-3 0.0043 0.0023 0.0067 0.0034 0.02967 0.01582 0.06003 0.03354 0.09108 0.05189 0.03137 0.01831 0.06353 0.03675 0.09614 0.05594 0.03188 0.0201 0.06449 0.04007 0.09702 0.06017 0.03234 0.02038 0.06477 0.03974 0.09605 0.06063 0.02203 0.01454 0.04375 0.0288 0.06518 0.04306-0.01132-0.03344-0.02282-0.06684-0.03404-0.09945-0.01224-0.03179-0.02406-0.06344-0.03547-0.09421-0.0115-0.03045-0.02254-0.05971-0.03395-0.08722-0.01122-0.02723-0.02185-0.05258-0.03142-0.07632-0.0103-0.02305-0.01973-0.04388-0.02779-0.06261-0.0021-0.0046-0.0041-0.0088-0.0058-0.01334 0.11141-0.04016 0.23143-0.06247 0.35697-0.06247 0.138 0 0.26961 0.02691 0.39027 0.07585 9.2e-5 0.0026 1.84e-4 0.0048 1.84e-4 0.0076 0.0012 0.03354 0.0011 0.06882 9.66e-4 0.10497-1.84e-4 0.03602-3.68e-4 0.07337-5.52e-4 0.11155-0.0012 0.03721-0.0024 0.07567-0.0038 0.11358-0.0014 0.03832-0.0019 0.07613-0.0042 0.11362-0.0017 0.02673-0.0033 0.05272-0.0049 0.07862 1.84e-4 -1.38e-4 2.76e-4 -2.76e-4 3.68e-4 -2.76e-4 0.02309-0.02705 0.04618-0.05336 0.06882-0.07917 0.02185-0.02696 0.0432-0.05276 0.0639-0.07825 0.02084-0.02535 0.04085-0.04954 0.05842-0.07282 0.01799-0.02314 0.03496-0.04522 0.05078-0.06578 0.01454-0.02015 0.02801-0.03864 0.04016-0.05497 0.0029-0.0038 0.0057-0.0079 0.0083-0.01155 0.19288 0.16165 0.32619 0.39234 0.36244 0.65344-0.0023 0.0017-0.0043 0.0027-0.0067 0.0043-0.02838 0.01785-0.05884 0.03501-0.09048 0.05331-0.03119 0.01789-0.06362 0.03639-0.09642 0.05497-0.03335 0.01799-0.06702 0.03588-0.1007 0.05401-0.03363 0.01748-0.06688 0.03607-0.10033 0.05286zm-3.8032-0.35126 0.80124-0.55762v1.702l-0.80124-0.55762v0.14628h-0.63123v-0.87931h0.63123zm1.0696 0.71232-0.06564-0.15719c0.10612-0.04416 0.17453-0.14693 0.17453-0.26175s-0.0684-0.21763-0.17453-0.26175l0.06564-0.15719c0.16951 0.07075 0.27918 0.23525 0.27918 0.41893 4.6e-5 0.18368-0.10962 0.34818-0.27918 0.41893zm0.6695-0.41893c0 0.33295-0.19859 0.63086-0.50596 0.75929l-0.0656-0.15686c0.24376-0.10198 0.4014-0.33838 0.4014-0.60243s-0.15765-0.50044-0.4014-0.60243l0.0656-0.15686c0.30738 0.12843 0.50596 0.42634 0.50596 0.75929z" fill="#505050" stroke="url(#linearGradient1006)" stroke-width=".13229"/>
</svg>
