<?xml version="1.0" encoding="UTF-8" standalone="no"?>
<svg
   xmlns:dc="http://purl.org/dc/elements/1.1/"
   xmlns:cc="http://creativecommons.org/ns#"
   xmlns:rdf="http://www.w3.org/1999/02/22-rdf-syntax-ns#"
   xmlns:svg="http://www.w3.org/2000/svg"
   xmlns="http://www.w3.org/2000/svg"
   xmlns:sodipodi="http://sodipodi.sourceforge.net/DTD/sodipodi-0.dtd"
   xmlns:inkscape="http://www.inkscape.org/namespaces/inkscape"
   inkscape:version="1.0 (4035a4fb49, 2020-05-01)"
   sodipodi:docname="bomi.svg"
   id="svg51"
   version="1.1"
   height="64"
   width="64">
  <sodipodi:namedview
     inkscape:current-layer="svg51"
     inkscape:window-maximized="1"
     inkscape:window-y="0"
     inkscape:window-x="0"
     inkscape:cy="16.542631"
     inkscape:cx="65.780483"
     inkscape:zoom="3.2851563"
     showgrid="false"
     id="namedview53"
     inkscape:window-height="1015"
     inkscape:window-width="1920"
     inkscape:pageshadow="2"
     inkscape:pageopacity="0"
     guidetolerance="10"
     gridtolerance="10"
     objecttolerance="10"
     borderopacity="1"
     bordercolor="#666666"
     pagecolor="#ffffff" />
  <metadata
     id="metadata2">
    <rdf:RDF>
      <cc:Work
         rdf:about="">
        <dc:format>image/svg+xml</dc:format>
        <dc:type
           rdf:resource="http://purl.org/dc/dcmitype/StillImage" />
        <dc:title></dc:title>
      </cc:Work>
    </rdf:RDF>
  </metadata>
  <defs
     id="defs27">
    <style
       id="style4"
       type="text/css" />
    <linearGradient
       gradientUnits="userSpaceOnUse"
       gradientTransform="translate(14.056,0.42995)"
       y2="283.98"
       y1="280.31"
       x2="-82.91"
       x1="-82.91"
       id="linearGradient2727">
      <stop
         id="stop6"
         offset="0"
         stop-color="#faf0c8" />
      <stop
         id="stop8"
         offset="1"
         stop-color="#ffc85a" />
    </linearGradient>
    <linearGradient
       gradientUnits="userSpaceOnUse"
       gradientTransform="translate(14.056,0.42995)"
       y2="285.69"
       y1="278.35"
       x2="-83.608"
       x1="-76.928"
       id="linearGradient2735">
      <stop
         id="stop11"
         offset="0"
         stop-color="#fafadc" />
      <stop
         id="stop13"
         offset="1"
         stop-color="#faf0a0" />
    </linearGradient>
    <filter
       color-interpolation-filters="sRGB"
       height="1.1146"
       width="1.1259"
       y="-.05732"
       x="-.062943"
       id="filter2747">
      <feGaussianBlur
         id="feGaussianBlur16"
         stdDeviation="0.16528108" />
    </filter>
    <filter
       color-interpolation-filters="sRGB"
       height="1.048"
       width="1.048"
       y="-.024"
       x="-.024"
       id="filter2761-3">
      <feGaussianBlur
         id="feGaussianBlur19"
         stdDeviation="0.14552168" />
    </filter>
    <linearGradient
       gradientUnits="userSpaceOnUse"
       gradientTransform="matrix(3.7796 0 0 3.7796 -.49932 -1058)"
       y2="295.6"
       y1="281.24"
       x2="1.3927"
       x1="15.752"
       id="linearGradient1025">
      <stop
         id="stop22"
         offset="0"
         stop-color="#ffdc32" />
      <stop
         id="stop24"
         offset="1"
         stop-color="#ff7832" />
    </linearGradient>
    <filter
       id="filter11290"
       x="-.024"
       y="-.024"
       width="1.048"
       height="1.048"
       color-interpolation-filters="sRGB">
      <feGaussianBlur
         stdDeviation="0.15875313"
         id="feGaussianBlur880" />
    </filter>
    <linearGradient
       id="linearGradient1307"
       x1="16.393"
       x2=".60977"
       y1=".69761"
       y2="16.375"
       gradientUnits="userSpaceOnUse">
      <stop
         stop-color="#ffdc32"
         offset="0"
         id="stop883" />
      <stop
         stop-color="#ff7832"
         offset="1"
         id="stop885" />
    </linearGradient>
    <filter
       id="filter2747-3"
       x="-.062943"
       y="-.05732"
       width="1.1259"
       height="1.1146"
       color-interpolation-filters="sRGB">
      <feGaussianBlur
         stdDeviation="0.16528108"
         id="feGaussianBlur898" />
    </filter>
  </defs>
  <g
     id="g31"
     stroke-width=".76923"
     font-size="12.666px"
     transform="matrix(1.3 0 0 1.3 -573.45 -648.94)">
    <text
       id="text29"
       stroke-width=".76923"
       font-family="'Droid Sans'"
       y="132.19"
       x="730.88" />
  </g>
  <circle
     id="circle33"
     fill="#5e4aa6"
     r="0"
     cy="-1241.6"
     cx="-1248.7" />
  <g
     transform="matrix(3.779602,0,0,3.779602,-0.10280494,0.02456761)"
     id="g923">
    <circle
       cx="8.4937"
       cy="8.46"
       r="7.9376998"
       filter="url(#filter11290)"
       opacity="0.25"
       stroke-width="0.14032"
       id="circle903" />
    <path
       style="fill:url(#linearGradient1307)"
       d="m 16.439,8.46 c 0,0.95154 -0.16749,1.8639 -0.47464,2.7094 -0.21351,0.58768 -0.49439,1.1433 -0.83393,1.6572 -0.14222,0.21608 -0.29514,0.42475 -0.45746,0.62529 -0.51966,0.64179 -1.1372,1.2007 -1.8305,1.6543 -0.2553,0.16718 -0.52065,0.3201 -0.79536,0.45712 -1.0668,0.53389 -2.2711,0.83421 -3.5456,0.83421 -1.2745,0 -2.4788,-0.30032 -3.5456,-0.83424 -0.27474,-0.13705 -0.5404,-0.28997 -0.7957,-0.45712 -0.70207,-0.45973 -1.327,-1.0274 -1.8509,-1.6798 -0.16263,-0.20216 -0.31524,-0.41275 -0.45746,-0.63078 -0.33046,-0.5054 -0.60421,-1.0507 -0.8135,-1.627 -0.30711,-0.84529 -0.4743,-1.7573 -0.4743,-2.7085 0,-4.3838 3.5537,-7.9375 7.9375,-7.9375 2.2005,0 4.1917,0.89548 5.6295,2.3417 0.41436,0.41662 0.78274,0.87929 1.0963,1.3795 0.29645,0.47107 0.54428,0.97582 0.73704,1.5068 0.30718,0.84559 0.47467,1.7579 0.47467,2.7094 z"
       fill="url(#linearGradient1307)"
       stroke-width="0.031006"
       id="path905" />
    <circle
       cx="-330.35001"
       cy="-328.38"
       r="0"
       fill="#5e4aa6"
       stroke-width="0.26458"
       id="circle907" />
    <g
       transform="translate(0.79737,-0.082169)"
       fill-rule="evenodd"
       id="g921">
      <g
         transform="matrix(1.4731,0,0,1.4731,106.38,-407.89)"
         fill="#fa7846"
         filter="url(#filter2747)"
         id="g913"
         style="filter:url(#filter2747-3)">
        <path
           d="m -68.837,281.7 a 0.74769,0.74769 0 0 0 -0.74776,0.74673 0.74769,0.74769 0 0 0 0,5.1e-4 v 2.5885 h 1.4955 v -2.5885 a 0.74769,0.74769 0 0 0 0,-5.1e-4 0.74769,0.74769 0 0 0 -0.74776,-0.74673 z"
           id="path909" />
        <path
           d="m -68.604,279.23 a 0.73279,0.73279 0 0 0 -0.65216,0.36639 0.73279,0.73279 0 0 0 0.2682,1.0004 0.73279,0.73279 0 0 0 5.18e-4,5.2e-4 v 5.2e-4 l 0.74259,0.42839 2.9755,1.7441 c 0,0 -1.7859,1.0253 -2.9352,1.7033 -1.1493,0.67799 -1.3808,-0.50436 -1.3808,-0.50436 v 1.1327 c 0.1819,1.356 1.48,1.0335 1.6702,0.96739 0.1902,-0.0661 4.1119,-2.4102 4.1119,-2.4102 0.66019,-0.40426 0.70708,-1.2998 0.05271,-1.7715 -0.10894,-0.0934 -3.2659,-1.8506 -3.6587,-2.0691 l 0.0015,-0.002 -0.84646,-0.48886 -5.16e-4,5.2e-4 a 0.73279,0.73279 0 0 0 -5.19e-4,0 0.73279,0.73279 0 0 0 -0.34882,-0.0982 z"
           id="path911" />
      </g>
      <g
         transform="matrix(1.4731,0,0,1.4731,106.38,-407.89)"
         id="g919">
        <path
           style="fill:url(#linearGradient2727)"
           d="m -68.837,281.7 a 0.74769,0.74769 0 0 0 -0.74776,0.74673 0.74769,0.74769 0 0 0 0,5.1e-4 v 2.5885 h 1.4955 v -2.5885 a 0.74769,0.74769 0 0 0 0,-5.1e-4 0.74769,0.74769 0 0 0 -0.74776,-0.74673 z"
           fill="url(#linearGradient2727)"
           id="path915" />
        <path
           style="fill:url(#linearGradient2735)"
           d="m -68.604,279.23 a 0.73279,0.73279 0 0 0 -0.65216,0.36639 0.73279,0.73279 0 0 0 0.2682,1.0004 0.73279,0.73279 0 0 0 5.18e-4,5.2e-4 v 5.2e-4 l 0.74259,0.42839 2.9755,1.7441 c 0,0 -1.7859,1.0253 -2.9352,1.7033 -1.1493,0.67799 -1.3808,-0.50436 -1.3808,-0.50436 v 1.1327 c 0.1819,1.356 1.48,1.0335 1.6702,0.96739 0.1902,-0.0661 4.1119,-2.4102 4.1119,-2.4102 0.66019,-0.40426 0.70708,-1.2998 0.05271,-1.7715 -0.10894,-0.0934 -3.2659,-1.8506 -3.6587,-2.0691 l 0.0015,-0.002 -0.84646,-0.48886 -5.16e-4,5.2e-4 a 0.73279,0.73279 0 0 0 -5.19e-4,0 0.73279,0.73279 0 0 0 -0.34882,-0.0982 z"
           fill="url(#linearGradient2735)"
           id="path917" />
      </g>
    </g>
  </g>
</svg>
