<?xml version="1.0" encoding="UTF-8"?>
<svg width="64" height="64" version="1.1" viewBox="0 0 64 64" xmlns="http://www.w3.org/2000/svg" xmlns:cc="http://creativecommons.org/ns#" xmlns:dc="http://purl.org/dc/elements/1.1/" xmlns:rdf="http://www.w3.org/1999/02/22-rdf-syntax-ns#">
 <metadata>
  <rdf:RDF>
   <cc:Work rdf:about="">
    <dc:format>image/svg+xml</dc:format>
    <dc:type rdf:resource="http://purl.org/dc/dcmitype/StillImage"/>
    <dc:title/>
   </cc:Work>
  </rdf:RDF>
 </metadata>
 <defs>
  <style type="text/css"/>
  <filter id="filter11290" x="-.024" y="-.024" width="1.048" height="1.048" color-interpolation-filters="sRGB">
   <feGaussianBlur stdDeviation="0.15875313"/>
  </filter>
  <linearGradient id="linearGradient1005" x1=".8714" x2="16.246" y1="16.164" y2=".78937" gradientTransform="matrix(3.7796,0,0,3.7796,99.392,-22.484)" gradientUnits="userSpaceOnUse">
   <stop stop-color="#ffc841" offset="0"/>
   <stop stop-color="#ffc841" offset="1"/>
  </linearGradient>
 </defs>
 <g transform="translate(-.00078795 .00058453)">
  <g transform="translate(-99.525,22.508)">
   <circle transform="matrix(3.7796,0,0,3.7796,99.423,-22.484)" cx="8.4937" cy="8.46" r="7.9377" filter="url(#filter11290)" opacity=".25" stroke-width=".14032"/>
   <path d="m161.53 9.4911c0 3.5964-0.63304 7.0448-1.794 10.24-0.80698 2.2212-1.8686 4.3212-3.1519 6.2636-0.53753 0.8167-1.1155 1.6054-1.729 2.3633-1.9641 2.4257-4.2982 4.5382-6.9186 6.2526-0.96493 0.63187-1.9678 1.2099-3.0061 1.7277-4.0321 2.0179-8.5839 3.153-13.401 3.153s-9.3689-1.1351-13.401-3.1531c-1.0384-0.51799-2.0425-1.096-3.0074-1.7277-2.6536-1.7376-5.0155-3.8832-6.9957-6.349-0.61468-0.76408-1.1915-1.56-1.729-2.3841-1.249-1.9102-2.2837-3.9712-3.0747-6.1494-1.1608-3.1949-1.7927-6.6419-1.7927-10.237 0-16.569 13.432-30.001 30.001-30.001 8.317 0 15.843 3.3846 21.277 8.8507 1.5661 1.5747 2.9584 3.3234 4.1436 5.214 1.1205 1.7805 2.0572 3.6882 2.7857 5.6951 1.161 3.196 1.7941 6.6442 1.7941 10.24z" fill="url(#linearGradient1005)" stroke-width=".11719"/>
  </g>
  <g fill="#5e4aa6">
   <circle cx="-1168.4" cy="-1251.4" r="0"/>
   <circle cx="-68.876" cy="14.092" r="0" fill-rule="evenodd"/>
   <g transform="matrix(3.7796,0,0,3.7796,99.423,-22.484)" stroke-width=".26458">
    <circle cx="-330.35" cy="-328.38" r="0"/>
    <circle cx="-312.11" cy="-326.25" r="0"/>
    <circle cx="-306.02" cy="-333.07" r="0"/>
    <circle cx="-308.84" cy="-326.01" r="0"/>
   </g>
  </g>
 </g>
 <circle cx="-1266.3" cy="-1269.2" r="0" fill="#5e4aa6"/>
 <circle cx="-166.78" cy="-3.6702" r="0" fill="#5e4aa6" fill-rule="evenodd"/>
 <g transform="matrix(.875 0 0 .875 -62.678 -.15257)" stroke-width=".9524">
  <path d="m101.54 15.079c-0.83336 0-3.75 3.3334-4.1666 3.3334h-2.0834c-0.83336 0-3.75 2.9166-3.75 3.75v2.5c0 0.41666-3.315 3.3334-3.3334 4.1666-0.01833 0.83336 5.8334 20.417 6.6666 21.25 0.83336 0.83336 10 8.3336 12.5 8.3336h1.6666c2.5 0 11.666-7.5 12.5-8.3336 0.83336-0.83336 6.6834-20.417 6.6666-21.25-0.0183-0.82832-3.3334-3.75-3.3334-4.1666v-2.5c0-0.83336-2.9166-3.75-3.75-3.75h-2.0834c-0.41666 0-3.3334-3.3334-4.1666-3.3334z" fill="#eb8c00"/>
  <path d="m108.2 20.899c-0.83 0-1.6566 0.285-2.5 0.84664-2.5 1.6666-5.8334-0.83336-6.6666-0.83336-0.83336 0-5.8334 6.0717-5.8334 8.3336 0 1.6666 6.25 5.5 6.25 6.6666 0 0.83336-1.25 1.2334-1.25 3.0017 0 1.165 1.6666 3.2483 3.3334 3.2483 1.6666 0 5.8366-3.2717 5.8334-4.0817v-0.50166c0-1-3.75-2.26-3.75-4.1666 0-1.6666 1.25-2.2834 1.25-4.1666 0-1.62-3.3334-2.0834-5.8334-2.5-0.83336 0 2.5-2.7417 7.0834 0.22166 1.16 0.75-1.25 3.715-0.83336 6.445 0.625 0.58334 1.7717 0.87496 2.9166 0.87496 1.1466 0 2.2917-0.29166 2.9166-0.87496 0.41666-2.73-1.9934-5.695-0.83336-6.445 4.5834-2.9634 7.9166-0.22166 7.0834-0.22166-2.5 0.41666-5.8334 0.88-5.8334 2.5 0 1.8834 1.25 2.5 1.25 4.1666 0 1.9066-3.75 3.1666-3.75 4.1666v0.50166c-3e-3 0.81 4.1666 4.0817 5.8334 4.0817s3.3334-2.0834 3.3334-3.2483c0-1.7666-1.25-2.1683-1.25-3.0017 0-1.1666 6.25-5 6.25-6.6666 0-2.2617-5-8.3336-5.8334-8.3336s-4.1666 2.5-6.6666 0.83336c-0.84336-0.56166-1.6666-0.84664-2.5-0.84664zm0 19.846c-1.6666 0-5.4166 2.5834-5.4166 3.0834s3.75 4.5834 5.4166 4.5834 5.4166-4.0834 5.4166-4.5834-3.75-3.0834-5.4166-3.0834z" fill="#f9f9f9"/>
 </g>
</svg>
