<?xml version="1.0" encoding="UTF-8"?>
<svg width="64" height="64" version="1.1" xmlns="http://www.w3.org/2000/svg" xmlns:cc="http://creativecommons.org/ns#" xmlns:dc="http://purl.org/dc/elements/1.1/" xmlns:rdf="http://www.w3.org/1999/02/22-rdf-syntax-ns#">
 <metadata>
  <rdf:RDF>
   <cc:Work rdf:about="">
    <dc:format>image/svg+xml</dc:format>
    <dc:type rdf:resource="http://purl.org/dc/dcmitype/StillImage"/>
    <dc:title/>
   </cc:Work>
  </rdf:RDF>
 </metadata>
 <defs>
  <linearGradient id="b-3" x1="399.57" x2="399.57" y1="545.8" y2="517.8" gradientTransform="matrix(2.1429 0 0 2.1429 -963.59 -1143.3)" gradientUnits="userSpaceOnUse">
   <stop stop-color="#3889e9" offset="0"/>
   <stop stop-color="#5ea5fb" offset="1"/>
  </linearGradient>
  <style type="text/css"/>
  <linearGradient id="linearGradient927" x1="39.034" x2="-7.7455" y1="24.542" y2="71.322" gradientTransform="matrix(2.0044,0,0,2.0044,123.77,261.85)" gradientUnits="userSpaceOnUse">
   <stop stop-color="#ffbe14" offset="0"/>
   <stop stop-color="#ff8214" offset="1"/>
  </linearGradient>
  <style type="text/css"/>
  <style type="text/css"/>
  <filter id="filter11290" x="-.024" y="-.024" width="1.048" height="1.048" color-interpolation-filters="sRGB">
   <feGaussianBlur stdDeviation="0.15875313"/>
  </filter>
  <linearGradient id="linearGradient1005" x1=".73911" x2="16.388" y1="16.296" y2=".64687" gradientTransform="translate(-.0078552 -5.0139e-5)" gradientUnits="userSpaceOnUse">
   <stop stop-color="#ff4637" offset="0"/>
   <stop stop-color="#fa4b5a" offset=".49272"/>
   <stop stop-color="#ff3c5f" offset="1"/>
  </linearGradient>
  <clipPath>
   <path d="m-1 1335h1029v-1334h-1029z"/>
  </clipPath>
 </defs>
 <g transform="matrix(3.7796 0 0 3.7796 -.1028 .024568)">
  <circle cx="8.4937" cy="8.46" r="7.9377" filter="url(#filter11290)" opacity=".25" stroke-width=".14032"/>
  <path d="m16.431 8.4599c0 0.95154-0.16749 1.8639-0.47464 2.7094-0.21351 0.58768-0.49439 1.1433-0.83393 1.6572-0.14222 0.21608-0.29514 0.42475-0.45746 0.62529-0.51966 0.64179-1.1372 1.2007-1.8305 1.6543-0.2553 0.16718-0.52065 0.3201-0.79536 0.45712-1.0668 0.53389-2.2711 0.83421-3.5456 0.83421s-2.4788-0.30032-3.5456-0.83424c-0.27474-0.13705-0.5404-0.28997-0.7957-0.45712-0.70207-0.45973-1.327-1.0274-1.8509-1.6798-0.16263-0.20216-0.31524-0.41275-0.45746-0.63078-0.33046-0.5054-0.60421-1.0507-0.8135-1.627-0.30711-0.84529-0.4743-1.7573-0.4743-2.7085 0-4.3838 3.5537-7.9375 7.9375-7.9375 2.2005 0 4.1917 0.89548 5.6295 2.3417 0.41436 0.41662 0.78274 0.87929 1.0963 1.3795 0.29645 0.47107 0.54428 0.97582 0.73704 1.5068 0.30718 0.84559 0.47467 1.7579 0.47467 2.7094z" fill="url(#linearGradient1005)" stroke-width=".031006"/>
  <g fill="#5e4aa6" stroke-width=".26458">
   <circle cx="-330.35" cy="-328.38" r="0"/>
   <circle cx="-312.11" cy="-326.25" r="0"/>
   <circle cx="-306.02" cy="-333.07" r="0"/>
   <circle cx="-308.84" cy="-326.01" r="0"/>
   <circle cx="-279" cy="-327.65" r="0"/>
   <circle cx="11.912" cy="7.1715" r="0" fill-rule="evenodd"/>
  </g>
  <g transform="matrix(.99998 0 0 .99998 .68901 -279.99)" fill="#fff">
   <g transform="matrix(.15891 0 0 -.15891 -91.308 375.61)">
    <g fill="#fff">
     <g fill="#fff">
      <g fill="#fff"></g>
     </g>
    </g>
   </g>
  </g>
 </g>
 <g transform="translate(-137.22 -35.254)" fill="#5e4aa6">
  <g image-rendering="optimizeSpeed">
   <circle cx="-1248.6" cy="-1241.1" r="0"/>
   <g transform="matrix(3.7796,0,0,3.7796,-6.9956e-4,6.044e-4)" stroke-width=".26458">
    <circle cx="-330.35" cy="-328.38" r="0"/>
    <circle cx="-330.35" cy="-328.38" r="0"/>
    <circle cx="-352.63" cy="-336.84" r="0"/>
   </g>
   <circle cx="-1248.6" cy="-1241.1" r="0"/>
  </g>
  <g transform="translate(92.643 .35997)" image-rendering="optimizeSpeed">
   <circle cx="-1248.6" cy="-1241.1" r="0"/>
   <g transform="matrix(3.7796,0,0,3.7796,-6.9956e-4,6.044e-4)" stroke-width=".26458">
    <circle cx="-330.35" cy="-328.38" r="0"/>
    <circle cx="-330.35" cy="-328.38" r="0"/>
    <circle cx="-352.63" cy="-336.84" r="0"/>
   </g>
   <circle cx="-1248.6" cy="-1241.1" r="0"/>
  </g>
  <circle cx="-1152.9" cy="-1242.3" r="0"/>
 </g>
 <circle cx="-105.21" cy="-3.7102" r="0" fill="url(#b-3)" stroke-width="1.5715"/>
 <circle cx="-1179.3" cy="-1268.3" r="0" fill="#5e4aa6"/>
 <circle cx="-1173.6" cy="-1229.2" r="0" fill="#5e4aa6" image-rendering="optimizeSpeed"/>
 <g transform="translate(171.85 7.9683)">
  <g transform="translate(1,1)">
   <g opacity=".1">
    <!-- color: #e57e29 --></g>
  </g>
 </g>
 <g transform="matrix(.7 0 0 .7 9.5998 9.6)" stroke-width="1.1905">
  <path d="m23.667 4.9167c-1.0417 0-4.6875 4.1667-5.2083 4.1667h-2.6042c-1.0417 0-4.6875 3.6458-4.6875 4.6875v3.125c0 0.52083-4.1437 4.1667-4.1667 5.2083-0.02292 1.0417 7.2917 25.521 8.3333 26.562 1.0417 1.0417 12.5 10.417 15.625 10.417h2.0833c3.125 0 14.583-9.375 15.625-10.417 1.0417-1.0417 8.3542-25.521 8.3333-26.562-0.02292-1.0354-4.1667-4.6875-4.1667-5.2083v-3.125c0-1.0417-3.6458-4.6875-4.6875-4.6875h-2.6042c-0.52083 0-4.1667-4.1667-5.2083-4.1667z" fill="url(#linearGradient927)"/>
  <path d="m32 12.192c-1.0375 0-2.0708 0.35625-3.125 1.0583-3.125 2.0833-7.2917-1.0417-8.3333-1.0417-1.0417 0-7.2917 7.5896-7.2917 10.417 0 2.0833 7.8125 6.875 7.8125 8.3333 0 1.0417-1.5625 1.5417-1.5625 3.7521 0 1.4562 2.0833 4.0604 4.1667 4.0604 2.0833 0 7.2958-4.0896 7.2917-5.1021v-0.62708c0-1.25-4.6875-2.825-4.6875-5.2083 0-2.0833 1.5625-2.8542 1.5625-5.2083 0-2.025-4.1667-2.6042-7.2917-3.125-1.0417 0 3.125-3.4271 8.8541 0.27708 1.45 0.9375-1.5625 4.6437-1.0417 8.0562 0.78125 0.72917 2.2146 1.0937 3.6458 1.0937 1.4333 0 2.8646-0.36458 3.6458-1.0937 0.52083-3.4125-2.4917-7.1187-1.0417-8.0562 5.7292-3.7042 9.8958-0.27708 8.8541-0.27708-3.125 0.52083-7.2917 1.1-7.2917 3.125 0 2.3542 1.5625 3.125 1.5625 5.2083 0 2.3833-4.6875 3.9583-4.6875 5.2083v0.62708c-0.0042 1.0125 5.2083 5.1021 7.2917 5.1021 2.0833 0 4.1667-2.6042 4.1667-4.0604 0-2.2083-1.5625-2.7104-1.5625-3.7521 0-1.4583 7.8125-6.25 7.8125-8.3333 0-2.8271-6.25-10.417-7.2917-10.417s-5.2083 3.125-8.3333 1.0417c-1.0542-0.70208-2.0833-1.0583-3.125-1.0583zm0 24.808c-2.0833 0-6.7708 3.2292-6.7708 3.8542s4.6875 5.7292 6.7708 5.7292 6.7708-5.1042 6.7708-5.7292-4.6875-3.8542-6.7708-3.8542z" fill="#f9f9f9"/>
 </g>
 <circle cx="-1080" cy="-1247.9" r="0" fill="#5e4aa6"/>
 <circle cx="19.546" cy="17.545" r="0" fill="#5e4aa6" fill-rule="evenodd"/>
</svg>
