<?xml version="1.0" encoding="UTF-8" standalone="no"?>
<svg
   xmlns:dc="http://purl.org/dc/elements/1.1/"
   xmlns:cc="http://creativecommons.org/ns#"
   xmlns:rdf="http://www.w3.org/1999/02/22-rdf-syntax-ns#"
   xmlns:svg="http://www.w3.org/2000/svg"
   xmlns="http://www.w3.org/2000/svg"
   xmlns:sodipodi="http://sodipodi.sourceforge.net/DTD/sodipodi-0.dtd"
   xmlns:inkscape="http://www.inkscape.org/namespaces/inkscape"
   width="64"
   height="64"
   version="1.1"
   viewBox="0 0 64 64"
   id="svg16"
   sodipodi:docname="cellwriter.svg"
   inkscape:version="1.0 (4035a4fb49, 2020-05-01)">
  <metadata
     id="metadata22">
    <rdf:RDF>
      <cc:Work
         rdf:about="">
        <dc:format>image/svg+xml</dc:format>
        <dc:type
           rdf:resource="http://purl.org/dc/dcmitype/StillImage" />
        <dc:title></dc:title>
      </cc:Work>
    </rdf:RDF>
  </metadata>
  <defs
     id="defs20">
    <style
       id="style851"
       type="text/css" />
    <style
       id="style853"
       type="text/css" />
    <style
       id="style855"
       type="text/css" />
    <filter
       color-interpolation-filters="sRGB"
       height="1.048"
       width="1.048"
       y="-.024"
       x="-.024"
       id="filter2761">
      <feGaussianBlur
         id="feGaussianBlur857"
         stdDeviation="0.14552168" />
    </filter>
    <linearGradient
       gradientUnits="userSpaceOnUse"
       gradientTransform="matrix(3.779602,0,0,3.779602,2.1145996,-13.690874)"
       y2="1.17"
       y1="15.576"
       x2="15.65"
       x1="1.3315"
       id="linearGradient1024">
      <stop
         id="stop860"
         offset="0"
         stop-color="#00c8ff" />
      <stop
         id="stop862"
         offset="1"
         stop-color="#14a0ff" />
    </linearGradient>
    <filter
       id="filter11290"
       x="-.024"
       y="-.024"
       width="1.048"
       height="1.048"
       color-interpolation-filters="sRGB">
      <feGaussianBlur
         stdDeviation="0.15875313"
         id="feGaussianBlur852" />
    </filter>
    <linearGradient
       id="linearGradient1005"
       x1=".8714"
       x2="16.246"
       y1="16.164"
       y2=".78937"
       gradientTransform="matrix(3.779602,0,0,3.779602,-0.13342,0.02456715)"
       gradientUnits="userSpaceOnUse">
      <stop
         stop-color="#00c8ff"
         offset="0"
         id="stop855" />
      <stop
         stop-color="#14a0ff"
         offset="1"
         id="stop857" />
    </linearGradient>
  </defs>
  <sodipodi:namedview
     inkscape:document-rotation="0"
     pagecolor="#ffffff"
     bordercolor="#666666"
     borderopacity="1"
     objecttolerance="10"
     gridtolerance="10"
     guidetolerance="10"
     inkscape:pageopacity="0"
     inkscape:pageshadow="2"
     inkscape:window-width="1920"
     inkscape:window-height="932"
     id="namedview18"
     showgrid="false"
     inkscape:zoom="2.9804688"
     inkscape:cx="57.176517"
     inkscape:cy="44.161978"
     inkscape:window-x="0"
     inkscape:window-y="36"
     inkscape:window-maximized="1"
     inkscape:current-layer="svg16" />
  <circle
     transform="scale(3.779602)"
     id="circle862"
     stroke-width="0.14032"
     opacity="0.25"
     filter="url(#filter11290)"
     r="7.9376998"
     cy="8.4665003"
     cx="8.4665003" />
  <path
     id="path864"
     stroke-width="0.11719"
     fill="url(#linearGradient1005)"
     d="m 62.000383,31.999811 c 0,3.596442 -0.633045,7.0448 -1.79395,10.240453 -0.806983,2.221197 -1.868598,4.321219 -3.151924,6.263557 -0.537535,0.816696 -1.115511,1.605386 -1.729016,2.363347 -1.964108,2.425711 -4.298164,4.538168 -6.918562,6.252596 -0.964932,0.631874 -1.96785,1.20985 -3.006144,1.727731 -4.032079,2.017892 -8.583854,3.152982 -13.400957,3.152982 -4.817103,0 -9.368877,-1.13509 -13.400957,-3.153095 C 17.560465,58.329388 16.556376,57.751411 15.591444,57.11965 12.937899,55.382054 10.575912,53.236487 8.595779,50.770675 7.981102,50.006591 7.404297,49.210644 6.866762,48.386578 5.617755,46.476367 4.583089,44.41535 3.792056,42.237165 2.631302,39.042305 1.99939,35.595271 1.99939,32.000113 c 0,-16.569019 13.431572,-30.0005903 30.000591,-30.0005903 8.317015,0 15.842958,3.3845577 21.27727,8.8506933 1.566116,1.574658 2.958445,3.323367 4.143577,5.213961 1.120463,1.780457 2.057162,3.688211 2.785718,5.695105 1.161018,3.195993 1.794064,6.644162 1.794064,10.240453 z"
     style="fill:url(#linearGradient1005)" />
  <g
     id="g877"
     fill="#5e4aa6">
    <circle
       id="circle871"
       r="0"
       cy="-1262.9"
       cx="-1401.7" />
    <circle
       id="circle873"
       fill-rule="evenodd"
       r="0"
       cy="2.5994"
       cx="-302.14001" />
    <circle
       id="circle875"
       r="0"
       cy="-1279.3"
       cx="-1124.8" />
  </g>
  <g
     id="g887"
     stroke-width="0.26458"
     fill="#5e4aa6"
     transform="matrix(3.779602,0,0,3.779602,123.83,-38.184006)">
    <circle
       id="circle879"
       r="0"
       cy="-338.76999"
       cx="-299.01999" />
    <circle
       id="circle881"
       fill-rule="evenodd"
       r="0"
       cy="-3.9487"
       cx="-8.1062002" />
    <circle
       id="circle883"
       r="0"
       cy="-357.69"
       cx="-278.25" />
    <circle
       id="circle885"
       fill-rule="evenodd"
       r="0"
       cy="-22.858999"
       cx="12.663" />
  </g>
  <text
     xml:space="preserve"
     style="font-style:normal;font-weight:bold;font-size:25.413px;line-height:1.25;font-family:'Noto Sans Tamil UI';letter-spacing:0px;word-spacing:0px;fill:#ffffff;fill-opacity:1;stroke:none;stroke-width:0.635325;-inkscape-font-specification:'Noto Sans Tamil UI, Bold';font-stretch:normal;font-variant:normal;font-variant-ligatures:normal;font-variant-caps:normal;font-variant-numeric:normal;font-variant-east-asian:normal;"
     x="10.780184"
     y="41.123268"
     id="text922"><tspan
       sodipodi:role="line"
       id="tspan920"
       x="10.780184"
       y="41.123268"
       style="stroke-width:0.635325;-inkscape-font-specification:'Noto Sans Tamil UI, Bold';font-family:'Noto Sans Tamil UI';font-weight:bold;font-style:normal;font-stretch:normal;font-variant:normal;font-size:25.41300011px;font-variant-ligatures:normal;font-variant-caps:normal;font-variant-numeric:normal;font-variant-east-asian:normal;fill:#ffffff;fill-opacity:1;">CW</tspan></text>
  <g
     id="g874"
     stroke-width="0.26458"
     fill="#5e4aa6"
     transform="matrix(3.779602,0,0,3.779602,-89.906463,5.3116222)">
    <circle
       id="circle866"
       r="0"
       cy="-328.38"
       cx="-330.35001" />
    <circle
       id="circle868"
       r="0"
       cy="-326.25"
       cx="-312.10999" />
    <circle
       id="circle870"
       r="0"
       cy="-333.07001"
       cx="-306.01999" />
    <circle
       id="circle872"
       r="0"
       cy="-326.01001"
       cx="-308.84" />
  </g>
</svg>
