<?xml version="1.0" encoding="UTF-8" standalone="no"?>
<svg
   xmlns:dc="http://purl.org/dc/elements/1.1/"
   xmlns:cc="http://creativecommons.org/ns#"
   xmlns:rdf="http://www.w3.org/1999/02/22-rdf-syntax-ns#"
   xmlns:svg="http://www.w3.org/2000/svg"
   xmlns="http://www.w3.org/2000/svg"
   xmlns:sodipodi="http://sodipodi.sourceforge.net/DTD/sodipodi-0.dtd"
   xmlns:inkscape="http://www.inkscape.org/namespaces/inkscape"
   width="64"
   height="64"
   version="1.1"
   id="svg29"
   sodipodi:docname="converseen.svg"
   inkscape:version="0.92.5 (6c0c36ef5a, 2020-05-15, custom)">
  <sodipodi:namedview
     pagecolor="#ffffff"
     bordercolor="#666666"
     borderopacity="1"
     objecttolerance="10"
     gridtolerance="10"
     guidetolerance="10"
     inkscape:pageopacity="0"
     inkscape:pageshadow="2"
     inkscape:window-width="1920"
     inkscape:window-height="949"
     id="namedview31"
     showgrid="false"
     inkscape:zoom="3.6875"
     inkscape:cx="22.944094"
     inkscape:cy="32.432313"
     inkscape:window-x="0"
     inkscape:window-y="36"
     inkscape:window-maximized="1"
     inkscape:current-layer="svg29" />
  <metadata
     id="metadata2">
    <rdf:RDF>
      <cc:Work
         rdf:about="">
        <dc:format>image/svg+xml</dc:format>
        <dc:type
           rdf:resource="http://purl.org/dc/dcmitype/StillImage" />
        <dc:title></dc:title>
      </cc:Work>
    </rdf:RDF>
  </metadata>
  <defs
     id="defs9">
    <linearGradient
       id="linearGradient11422"
       x1="-6.1472"
       x2="-6.1472"
       y1="-137.82"
       y2="-100.78"
       gradientTransform="matrix(2.0044,0,0,2.0044,151.4312,271.61)"
       gradientUnits="userSpaceOnUse">
      <stop
         stop-color="#32b4ff"
         offset="0"
         id="stop4" />
      <stop
         stop-color="#3287ff"
         offset="1"
         id="stop6" />
    </linearGradient>
    <filter
       color-interpolation-filters="sRGB"
       height="1.048"
       width="1.048"
       y="-.024"
       x="-.024"
       id="filter2761">
      <feGaussianBlur
         id="feGaussianBlur840"
         stdDeviation="0.14552168" />
    </filter>
    <linearGradient
       gradientUnits="userSpaceOnUse"
       gradientTransform="matrix(3.7796,0,0,3.7796,1.3538771,-7.3339198)"
       y2="1.17"
       y1="15.576"
       x2="15.65"
       x1="1.3315"
       id="linearGradient1024">
      <stop
         id="stop843"
         offset="0"
         stop-color="#00c8ff" />
      <stop
         id="stop845"
         offset="1"
         stop-color="#14a0ff" />
    </linearGradient>
    <style
       id="style839"
       type="text/css" />
    <filter
       color-interpolation-filters="sRGB"
       height="1.048"
       width="1.048"
       y="-.024"
       x="-.024"
       id="filter11290">
      <feGaussianBlur
         id="feGaussianBlur841"
         stdDeviation="0.15875313" />
    </filter>
    <linearGradient
       gradientUnits="userSpaceOnUse"
       gradientTransform="matrix(3.7796,0,0,3.7796,-0.13281,0.0248281)"
       y2=".78937"
       y1="16.164"
       x2="16.246"
       x1=".8714"
       id="linearGradient1005">
      <stop
         id="stop844"
         offset="0"
         stop-color="#00c8ff" />
      <stop
         id="stop846"
         offset="1"
         stop-color="#14a0ff" />
    </linearGradient>
  </defs>
  <circle
     style="opacity:0.25;stroke-width:0.14032;filter:url(#filter11290)"
     transform="matrix(3.7796,0,0,3.7796,-0.10278795,0.02458453)"
     cx="8.4937"
     cy="8.46"
     r="7.9376998"
     id="circle863" />
  <path
     style="fill:url(#linearGradient1005);stroke-width:0.11719"
     inkscape:connector-curvature="0"
     d="m 62.0004,32.00045 c 0,3.5964 -0.63305,7.0448 -1.794,10.24 -0.80698,2.2212 -1.8686,4.3212 -3.1519,6.2636 -0.53754,0.8167 -1.1155,1.6054 -1.729,2.3633 -1.9641,2.4257 -4.2982,4.5382 -6.9186,6.2526 -0.96493,0.63187 -1.9678,1.2098 -3.0061,1.7277 -4.0321,2.0179 -8.5839,3.153 -13.401,3.153 -4.8171,0 -9.3689,-1.1351 -13.401,-3.1531 -1.0384,-0.518 -2.0425,-1.096 -3.0074,-1.7277 -2.6535,-1.7376 -5.0155,-3.8832 -6.9957,-6.349 -0.61468,-0.76408 -1.1915,-1.56 -1.729,-2.3841 -1.249,-1.9102 -2.2837,-3.9712 -3.0747,-6.1494 -1.1608,-3.1949 -1.7927,-6.6419 -1.7927,-10.237 0,-16.569 13.432,-30.0009999 30.001,-30.0009999 8.317,0 15.843,3.3846 21.277,8.8506999 1.5661,1.5747 2.9584,3.3234 4.1436,5.214 1.1205,1.7805 2.0572,3.6882 2.7857,5.6951 1.161,3.196 1.7941,6.6442 1.7941,10.24 z"
     id="path865" />
  <circle
     cx="-1248.7"
     cy="-1241.6"
     r="0"
     fill="#5e4aa6"
     id="circle11" />
  <circle
     cx="-149.15"
     cy="23.855"
     r="0"
     fill="#5e4aa6"
     fill-rule="evenodd"
     id="circle13" />
  <circle
     cx="-1170.2"
     cy="-1313.1"
     r="0"
     fill="#5e4aa6"
     id="circle19" />
  <circle
     style="fill:#5e4aa6;fill-rule:evenodd"
     id="circle21"
     r="0"
     cy="-47.617001"
     cx="37.284199" />
  <g
     style="fill:#5e4aa6;stroke-width:0.26458001;image-rendering:optimizeSpeed"
     transform="matrix(3.7796,0,0,3.7796,-117.68998,-42.304983)"
     id="g872">
    <circle
       cx="-347.64001"
       cy="-328.38"
       r="0"
       id="circle858" />
    <circle
       style="fill-rule:evenodd"
       cx="-56.726002"
       cy="6.4400001"
       r="0"
       id="circle860" />
    <g
       transform="translate(-0.0272,0.0065001)"
       id="g870">
      <circle
         cx="-330.35001"
         cy="-328.38"
         r="0"
         id="circle862" />
      <circle
         cx="-312.10999"
         cy="-326.25"
         r="0"
         id="circle864" />
      <circle
         cx="-306.01999"
         cy="-333.07001"
         r="0"
         id="circle866" />
      <circle
         cx="-308.84"
         cy="-326.01001"
         r="0"
         id="circle868" />
    </g>
  </g>
  <path
     style="fill:#ffffff;fill-rule:evenodd"
     inkscape:connector-curvature="0"
     id="path25"
     d="m 33.5952,10.999745 c 5.1696,4.4628 6.462,8.9863 6.462,16.095 l 2.1204,-5.4929 c 2.2324,2.1948 3.7538,5.1029 4.2004,8.3603 0.16432,2.5048 -0.24466,4.7223 -0.89084,6.6609 2.637,-1.679 5.9675,-3.5976 7.3931,-6.6609 -0.95157,-10.136 -9.0989,-18.187 -19.285,-18.962 z m -3.6332,0.11961 c -10.136,0.95158 -18.187,9.0987 -18.962,19.285 4.4628,-5.1696 8.9861,-6.4619 16.095,-6.4619 l -5.4926,-2.1204 c 2.1948,-2.2324 5.1029,-3.7537 8.3603,-4.2001 2.5048,-0.16434 4.7223,0.24446 6.6609,0.89066 -1.679,-2.637 -3.5976,-5.9675 -6.6609,-7.3931 z m -11.449,16.258 c -2.637,1.679 -5.9678,3.5976 -7.3934,6.6609 0.95159,10.136 9.0989,18.187 19.285,18.962 -5.1696,-4.4628 -6.462,-8.9863 -6.462,-16.095 l -2.1204,5.4927 c -2.2324,-2.1948 -3.7537,-5.1029 -4.2001,-8.3603 -0.16433,-2.5048 0.24465,-4.7223 0.89084,-6.6609 z M 53,33.595455 c -4.4628,5.1696 -8.9861,6.462 -16.095,6.462 l 5.4926,2.1204 c -2.1948,2.2324 -5.1029,3.7538 -8.3603,4.2004 -2.5048,0.16432 -4.7223,-0.24466 -6.6609,-0.89086 1.679,2.637 3.5976,5.9675 6.6609,7.3931 10.136,-0.95158 18.187,-9.0989 18.962,-19.285 z" />
  <circle
     style="fill:#5e4aa6"
     cx="-1209.139"
     cy="-1283.9102"
     r="0"
     id="circle851" />
  <g
     style="fill:#5e4aa6;stroke-width:0.26458001"
     transform="matrix(3.7796,0,0,3.7796,39.491024,-42.794153)"
     id="g861">
    <circle
       cx="-299.01999"
       cy="-338.76999"
       r="0"
       id="circle853" />
    <circle
       style="fill-rule:evenodd"
       cx="-8.1062002"
       cy="-3.9487"
       r="0"
       id="circle855" />
    <circle
       cx="-278.25"
       cy="-357.69"
       r="0"
       id="circle857" />
    <circle
       style="fill-rule:evenodd"
       cx="12.663"
       cy="-22.858999"
       r="0"
       id="circle859" />
  </g>
  <g
     style="fill:#5e4aa6;stroke-width:0.26458001"
     transform="matrix(3.7796,0,0,3.7796,-84.441776,-4.5855848)"
     id="g875">
    <circle
       cx="-330.35001"
       cy="-328.38"
       r="0"
       id="circle867" />
    <circle
       cx="-312.10999"
       cy="-326.25"
       r="0"
       id="circle869" />
    <circle
       cx="-306.01999"
       cy="-333.07001"
       r="0"
       id="circle871" />
    <circle
       cx="-308.84"
       cy="-326.01001"
       r="0"
       id="circle873" />
  </g>
</svg>
