<?xml version="1.0" encoding="UTF-8" standalone="no"?>
<svg
   xmlns:dc="http://purl.org/dc/elements/1.1/"
   xmlns:cc="http://creativecommons.org/ns#"
   xmlns:rdf="http://www.w3.org/1999/02/22-rdf-syntax-ns#"
   xmlns:svg="http://www.w3.org/2000/svg"
   xmlns="http://www.w3.org/2000/svg"
   xmlns:sodipodi="http://sodipodi.sourceforge.net/DTD/sodipodi-0.dtd"
   xmlns:inkscape="http://www.inkscape.org/namespaces/inkscape"
   width="64"
   height="64"
   version="1.1"
   viewBox="0 0 16.933 16.933"
   id="svg25"
   sodipodi:docname="cs-user.svg"
   inkscape:version="0.92.5 (6c0c36ef5a, 2020-05-15, custom)">
  <sodipodi:namedview
     pagecolor="#ffffff"
     bordercolor="#666666"
     borderopacity="1"
     objecttolerance="10"
     gridtolerance="10"
     guidetolerance="10"
     inkscape:pageopacity="0"
     inkscape:pageshadow="2"
     inkscape:window-width="1920"
     inkscape:window-height="949"
     id="namedview27"
     showgrid="false"
     inkscape:zoom="2.6074563"
     inkscape:cx="37.072145"
     inkscape:cy="18.785081"
     inkscape:window-x="0"
     inkscape:window-y="36"
     inkscape:window-maximized="1"
     inkscape:current-layer="svg25" />
  <metadata
     id="metadata2">
    <rdf:RDF>
      <cc:Work
         rdf:about="">
        <dc:format>image/svg+xml</dc:format>
        <dc:type
           rdf:resource="http://purl.org/dc/dcmitype/StillImage" />
        <dc:title></dc:title>
      </cc:Work>
    </rdf:RDF>
  </metadata>
  <defs
     id="defs9">
    <linearGradient
       id="a"
       x1="-6.1472"
       x2="-6.1472"
       y1="-137.82"
       y2="-100.78"
       gradientTransform="matrix(.53033 0 0 .53033 11.509 71.862)"
       gradientUnits="userSpaceOnUse">
      <stop
         stop-color="#32b4ff"
         offset="0"
         id="stop4" />
      <stop
         stop-color="#3287ff"
         offset="1"
         id="stop6" />
    </linearGradient>
    <linearGradient
       gradientUnits="userSpaceOnUse"
       gradientTransform="matrix(0.53033,0,0,0.53033,35.151469,71.862)"
       y2="-100.78"
       y1="-137.82"
       x2="-6.1472"
       x1="-6.1472"
       id="a-7">
      <stop
         id="stop4-5"
         offset="0"
         stop-color="#32b4ff" />
      <stop
         id="stop6-3"
         offset="1"
         stop-color="#3287ff" />
    </linearGradient>
    <filter
       id="filter2761"
       x="-.024"
       y="-.024"
       width="1.048"
       height="1.048"
       color-interpolation-filters="sRGB">
      <feGaussianBlur
         stdDeviation="0.14552168"
         id="feGaussianBlur834" />
    </filter>
    <linearGradient
       id="linearGradient4673"
       x1="1.2573"
       x2="15.644"
       y1="15.429"
       y2="1.1082"
       gradientTransform="translate(-5.5e-4,0.21475)"
       gradientUnits="userSpaceOnUse">
      <stop
         stop-color="#32dcff"
         offset="0"
         id="stop837" />
      <stop
         stop-color="#3296ff"
         offset="1"
         id="stop839" />
    </linearGradient>
    <filter
       id="filter2761-6"
       x="-.024"
       y="-.024"
       width="1.048"
       height="1.048"
       color-interpolation-filters="sRGB">
      <feGaussianBlur
         stdDeviation="0.14552168"
         id="feGaussianBlur834-2" />
    </filter>
    <filter
       id="filter11290"
       x="-.024"
       y="-.024"
       width="1.048"
       height="1.048"
       color-interpolation-filters="sRGB">
      <feGaussianBlur
         stdDeviation="0.15875313"
         id="feGaussianBlur835" />
    </filter>
    <linearGradient
       id="linearGradient1005"
       x1=".8714"
       x2="16.246"
       y1="16.164"
       y2=".78937"
       gradientTransform="translate(-0.035245,0.00645)"
       gradientUnits="userSpaceOnUse">
      <stop
         stop-color="#00c8ff"
         offset="0"
         id="stop838" />
      <stop
         stop-color="#14a0ff"
         offset="1"
         id="stop840" />
    </linearGradient>
  </defs>
  <circle
     cx="-330.38"
     cy="-328.51"
     r="0"
     fill="#5e4aa6"
     stroke-width=".26458"
     id="circle11" />
  <circle
     cx="-39.461"
     cy="6.3115"
     r="0"
     fill="#5e4aa6"
     fill-rule="evenodd"
     stroke-width=".26458"
     id="circle17" />
  <g
     id="g893">
    <circle
       id="circle11-2"
       r="0"
       cy="-328.51001"
       cx="-330.38"
       style="fill:#5e4aa6;stroke-width:0.26458001" />
    <circle
       id="circle21-7"
       r="0"
       cy="6.3115001"
       cx="-39.460999"
       style="fill:#5e4aa6;fill-rule:evenodd;stroke-width:0.26458001" />
    <g
       id="g890">
      <circle
         style="fill:#5e4aa6;stroke-width:0.26458001"
         cx="-330.35001"
         cy="-328.38"
         r="0"
         id="circle845" />
      <circle
         style="fill:#5e4aa6;fill-rule:evenodd;stroke-width:0.26458001"
         cx="-39.433998"
         cy="6.4400001"
         r="0"
         id="circle847" />
      <circle
         style="opacity:0.25;stroke-width:0.14032;filter:url(#filter11290)"
         cx="8.4665003"
         cy="8.4665003"
         r="7.9376998"
         id="circle849" />
      <path
         style="fill:url(#linearGradient1005);stroke-width:0.031006"
         inkscape:connector-curvature="0"
         d="m 16.404,8.4664 c 0,0.95154 -0.16749,1.8639 -0.47464,2.7094 -0.21351,0.58768 -0.49439,1.1433 -0.83393,1.6572 -0.14222,0.21608 -0.29514,0.42475 -0.45746,0.62529 -0.51966,0.64179 -1.1372,1.2007 -1.8305,1.6543 -0.2553,0.16718 -0.52065,0.3201 -0.79536,0.45712 -1.0668,0.53389 -2.2711,0.83421 -3.5456,0.83421 -1.2745,0 -2.4788,-0.30032 -3.5456,-0.83424 -0.27474,-0.13705 -0.5404,-0.28997 -0.7957,-0.45712 -0.70207,-0.45973 -1.327,-1.0274 -1.8509,-1.6798 -0.16263,-0.20216 -0.31524,-0.41275 -0.45746,-0.63078 -0.33046,-0.5054 -0.60421,-1.0507 -0.8135,-1.627 -0.30711,-0.84529 -0.4743,-1.7573 -0.4743,-2.7085 0,-4.3838 3.5537,-7.9375 7.9375,-7.9375 2.2005,0 4.1917,0.89548 5.6295,2.3417 0.41436,0.41662 0.78274,0.87929 1.0963,1.3795 0.29645,0.47107 0.54428,0.97582 0.73704,1.5068 0.30718,0.84559 0.47467,1.7579 0.47467,2.7094 z"
         id="path851" />
      <g
         style="fill:#5e4aa6;stroke-width:0.26458001"
         transform="translate(-0.0272,0.0065001)"
         id="g861">
        <circle
           cx="-330.35001"
           cy="-328.38"
           r="0"
           id="circle853" />
        <circle
           cx="-312.10999"
           cy="-326.25"
           r="0"
           id="circle855" />
        <circle
           cx="-306.01999"
           cy="-333.07001"
           r="0"
           id="circle857" />
        <circle
           cx="-308.84"
           cy="-326.01001"
           r="0"
           id="circle859" />
      </g>
      <g
         style="fill:#ffffff"
         transform="translate(-19.857,-0.21669)"
         id="g867">
        <path
           inkscape:connector-curvature="0"
           d="m 29.881,6.5604 a 1.0831,0.82507 0 0 0 -0.03514,0.00155 v 0.43407 c 0.0059,0.00718 0.02194,0.00618 0.02739,0.013436 0.11073,0.14733 0.15806,0.3158 0.15813,0.4904 -6.5e-5,0.1746 -0.04739,0.34307 -0.15813,0.4904 -0.05599,0.074496 -0.18403,0.090251 -0.27956,0.14262 -0.0337,0.12312 -0.04251,0.23914 -0.10697,0.3669 -0.01193,0.023785 -0.02597,0.047005 -0.04134,0.068728 l -0.22427,0.31419 2.2029,1.3771 c 0.02411,0.01506 0.04682,0.03191 0.06821,0.05064 0.45344,0.39945 0.65113,0.91028 0.60564,1.3487 h 0.04909 c 0.31623,0 0.76614,-0.49113 0.17156,-1.0857 l -1.9507,-1.2195 0.38963,-0.54879 c 0.05974,-0.13443 0.08836,-0.26067 0.0987,-0.37516 h 0.10904 v -5.17e-4 a 0.13231,0.17607 0 0 0 0.12299,-0.1757 0.13231,0.17607 0 0 0 -0.12299,-0.1757 v -0.71519 h -0.0021 a 1.0831,0.82507 0 0 0 -1.082,-0.80252 z m -1.1777,3.2462 -1.2273,0.76686 c -0.66533,0.58612 -0.15062,1.0857 0.17156,1.0857 h 3.2705 c 0.03639,-0.02402 0.11516,-0.0657 0.13281,-0.10645 0.02545,-0.05877 0.07161,-0.1451 -0.25011,-0.43562 z"
           style="paint-order:markers fill stroke"
           id="path863" />
        <path
           inkscape:connector-curvature="0"
           d="m 27.812,5.1571 a 1.498,1.1411 0 0 0 -1.496,1.1105 h -0.0031 v 0.98855 a 0.18299,0.24351 0 0 0 -0.0041,0 0.18299,0.24351 0 0 0 -0.18293,0.24339 0.18299,0.24351 0 0 0 0.18293,0.24339 0.18299,0.24351 0 0 0 0.0041,0 h 0.15089 c 0.01534,0.15907 0.05868,0.33401 0.15193,0.51881 l 0.54879,0.77204 -2.6783,1.6743 c -0.92021,0.81065 -0.20842,1.5012 0.23719,1.5012 h 6.2229 c 0.43738,0 1.0595,-0.67883 0.23719,-1.5012 l -2.6985,-1.6872 0.5395,-0.75911 c 0.08263,-0.18592 0.12212,-0.36046 0.13642,-0.51881 h 0.15038 v -5.292e-4 a 0.18299,0.24351 0 0 1 5.29e-4,0 0.18299,0.24351 0 0 0 0.17001,-0.24288 0.18299,0.24351 0 0 0 -0.17053,-0.24288 v -0.98905 h -0.0026 a 1.498,1.1411 0 0 0 -1.4965,-1.1105 z"
           style="paint-order:markers fill stroke"
           id="path865" />
      </g>
    </g>
  </g>
</svg>
