<?xml version="1.0" encoding="UTF-8" standalone="no"?>
<svg
   xmlns:dc="http://purl.org/dc/elements/1.1/"
   xmlns:cc="http://creativecommons.org/ns#"
   xmlns:rdf="http://www.w3.org/1999/02/22-rdf-syntax-ns#"
   xmlns:svg="http://www.w3.org/2000/svg"
   xmlns="http://www.w3.org/2000/svg"
   xmlns:xlink="http://www.w3.org/1999/xlink"
   xmlns:sodipodi="http://sodipodi.sourceforge.net/DTD/sodipodi-0.dtd"
   xmlns:inkscape="http://www.inkscape.org/namespaces/inkscape"
   width="64"
   height="64"
   version="1.1"
   id="svg57"
   sodipodi:docname="cutemarked.svg"
   inkscape:version="0.92.5 (6c0c36ef5a, 2020-05-15, custom)">
  <metadata
     id="metadata61">
    <rdf:RDF>
      <cc:Work
         rdf:about="">
        <dc:format>image/svg+xml</dc:format>
        <dc:type
           rdf:resource="http://purl.org/dc/dcmitype/StillImage" />
        <dc:title></dc:title>
      </cc:Work>
    </rdf:RDF>
  </metadata>
  <sodipodi:namedview
     pagecolor="#ffffff"
     bordercolor="#666666"
     borderopacity="1"
     objecttolerance="10"
     gridtolerance="10"
     guidetolerance="10"
     inkscape:pageopacity="0"
     inkscape:pageshadow="2"
     inkscape:window-width="1920"
     inkscape:window-height="1000"
     id="namedview59"
     showgrid="false"
     inkscape:zoom="3.6874999"
     inkscape:cx="-6.3835088"
     inkscape:cy="19.995582"
     inkscape:window-x="0"
     inkscape:window-y="0"
     inkscape:window-maximized="1"
     inkscape:current-layer="svg57" />
  <defs
     id="defs7">
    <linearGradient
       id="a"
       x1="50"
       x2="50"
       y1="63"
       y2="37"
       gradientUnits="userSpaceOnUse">
      <stop
         offset="0"
         id="stop2" />
      <stop
         stop-opacity="0"
         offset="1"
         id="stop4" />
    </linearGradient>
    <filter
       color-interpolation-filters="sRGB"
       height="1.048"
       width="1.048"
       y="-.024"
       x="-.024"
       id="filter2761">
      <feGaussianBlur
         id="feGaussianBlur873"
         stdDeviation="0.14552168" />
    </filter>
    <linearGradient
       gradientUnits="userSpaceOnUse"
       gradientTransform="translate(-.00069968 .06619)"
       y2="1.17"
       y1="15.576"
       x2="15.65"
       x1="1.3315"
       id="linearGradient1024">
      <stop
         id="stop876"
         offset="0"
         stop-color="#ffc841" />
      <stop
         id="stop878"
         offset=".5167"
         stop-color="#ffbe37" />
      <stop
         id="stop880"
         offset="1"
         stop-color="#ffc841" />
    </linearGradient>
    <linearGradient
       xlink:href="#linearGradient1024"
       gradientUnits="userSpaceOnUse"
       gradientTransform="matrix(0.89814682,0,0,0.89814682,-84.588179,14.428442)"
       y2="1.17"
       y1="15.576"
       x2="15.65"
       x1="1.3315"
       id="linearGradient1040" />
    <filter
       color-interpolation-filters="sRGB"
       height="1.048"
       width="1.048"
       y="-.024"
       x="-.024"
       id="filter11290">
      <feGaussianBlur
         id="feGaussianBlur835"
         stdDeviation="0.15875313" />
    </filter>
    <linearGradient
       gradientUnits="userSpaceOnUse"
       gradientTransform="translate(-.035245 .00645)"
       y2=".78937"
       y1="16.164"
       x2="16.246"
       x1=".8714"
       id="linearGradient1005">
      <stop
         id="stop838"
         offset="0"
         stop-color="#ffc841" />
      <stop
         id="stop840"
         offset="1"
         stop-color="#ffc841" />
    </linearGradient>
    <filter
       color-interpolation-filters="sRGB"
       height="1.168"
       width="1.168"
       y="-.084016"
       x="-.084016"
       id="filter1091-3">
      <feGaussianBlur
         id="feGaussianBlur843"
         stdDeviation="0.30215974" />
    </filter>
    <linearGradient
       gradientUnits="userSpaceOnUse"
       y2="-13.703"
       y1="-5.5948"
       x2="16.465"
       x1="8.5858"
       id="linearGradient1011">
      <stop
         id="stop846"
         offset="0"
         stop-color="#f5f5f5" />
      <stop
         id="stop848"
         offset="1"
         stop-color="#fff" />
    </linearGradient>
    <linearGradient
       gradientUnits="userSpaceOnUse"
       y2="-11.992"
       y1="-5.3552"
       x2="15.926"
       x1="8.9222"
       id="linearGradient1013">
      <stop
         id="stop851"
         offset="0"
         stop-color="#ffdc96" />
      <stop
         id="stop853"
         offset="1"
         stop-color="#fff" />
    </linearGradient>
    <linearGradient
       xlink:href="#linearGradient1005"
       gradientUnits="userSpaceOnUse"
       y2="6.9354"
       y1="6.9354"
       x2="10.319"
       x1="7.4091"
       id="linearGradient1066" />
    <linearGradient
       inkscape:collect="always"
       xlink:href="#linearGradient1005"
       id="linearGradient981"
       gradientUnits="userSpaceOnUse"
       gradientTransform="matrix(3.779602,0,0,3.779602,-0.13321207,0.02437843)"
       x1=".8714"
       y1="16.164"
       x2="16.246"
       y2=".78937" />
  </defs>
  <circle
     style="fill:#5e4aa6;stroke-width:1.00000715"
     cx="-1248.5909"
     cy="-1241.1459"
     r="0"
     id="circle886" />
  <circle
     style="fill:#5e4aa6;stroke-width:1.00000715"
     cx="-1248.5916"
     cy="-1241.1458"
     r="0"
     id="circle859" />
  <g
     style="fill:#5e4aa6;stroke-width:0.26458001"
     id="g867"
     transform="scale(3.779602)">
    <circle
       cx="-330.35001"
       cy="-328.38"
       r="0"
       id="circle861" />
    <circle
       style="fill-rule:evenodd"
       cx="-39.433998"
       cy="6.4400001"
       r="0"
       id="circle863" />
    <circle
       cx="-330.35001"
       cy="-328.38"
       r="0"
       id="circle865" />
  </g>
  <circle
     style="opacity:0.25;stroke-width:0.14032;filter:url(#filter11290)"
     cx="8.4665003"
     cy="8.4665003"
     r="7.9376998"
     id="circle869"
     transform="scale(3.779602)" />
  <path
     style="fill:url(#linearGradient981);stroke-width:0.11719034"
     inkscape:connector-curvature="0"
     d="m 62.000591,31.999622 c 0,3.596443 -0.633045,7.044801 -1.79395,10.240454 -0.806983,2.221197 -1.868598,4.321219 -3.151924,6.263556 -0.537535,0.816697 -1.115511,1.605386 -1.729016,2.363348 -1.964108,2.425711 -4.298164,4.538168 -6.918562,6.252595 -0.964932,0.631874 -1.96785,1.209851 -3.006144,1.727732 -4.032079,2.017892 -8.583854,3.152982 -13.400957,3.152982 -4.817103,0 -9.368877,-1.13509 -13.400957,-3.153095 C 17.560673,58.329199 16.556584,57.751222 15.591652,57.119462 12.938107,55.381866 10.57612,53.236299 8.5959866,50.770487 7.98131,50.006402 7.4045049,49.210456 6.8669699,48.386389 5.6179626,46.476178 4.5832966,44.415161 3.7922637,42.236977 2.6315101,39.042117 1.9995984,35.595082 1.9995984,31.999925 c 0,-16.56902 13.4315716,-30.0005911 30.0005906,-30.0005911 8.317015,0 15.842958,3.384558 21.27727,8.8506941 1.566116,1.574658 2.958445,3.323366 4.143577,5.213961 1.120463,1.780457 2.057162,3.688211 2.785718,5.695104 1.161018,3.195994 1.794064,6.644162 1.794064,10.240454 z"
     id="path871" />
  <g
     style="fill:#5e4aa6;stroke-width:0.26458001"
     transform="matrix(3.779602,0,0,3.779602,-0.10280517,0.02456779)"
     id="g881">
    <circle
       cx="-330.35001"
       cy="-328.38"
       r="0"
       id="circle873" />
    <circle
       cx="-312.10999"
       cy="-326.25"
       r="0"
       id="circle875" />
    <circle
       cx="-306.01999"
       cy="-333.07001"
       r="0"
       id="circle877" />
    <circle
       cx="-308.84"
       cy="-326.01001"
       r="0"
       id="circle879" />
  </g>
  <path
     style="fill:#fafafa;stroke-width:0.09921455"
     inkscape:connector-curvature="0"
     d="m 57.397036,31.999622 c 0,3.044734 -0.535948,5.964212 -1.518757,8.669651 -0.683201,1.880466 -1.581953,3.658353 -2.6684,5.302782 -0.455064,0.691403 -0.944371,1.359107 -1.463764,2.000808 -1.662798,2.053609 -3.638812,3.841965 -5.857249,5.293333 -0.816923,0.534927 -1.665973,1.024272 -2.544995,1.462706 -3.413548,1.708342 -7.267041,2.669306 -11.345231,2.669306 -4.078191,0 -7.931495,-0.960964 -11.345232,-2.669382 C 19.774311,54.290279 18.92424,53.800971 18.107317,53.26612 15.860835,51.795061 13.861312,49.97866 12.184681,47.891148 11.664305,47.244269 11.175981,46.570442 10.720917,45.872765 9.6634974,44.255587 8.7875747,42.510733 8.117867,40.666741 7.1351705,37.961982 6.6002056,35.043827 6.6002056,32.000114 c 0,-14.027237 11.3713104,-25.3985478 25.3985474,-25.3985478 7.041021,0 13.412674,2.8653541 18.013205,7.4930608 1.325885,1.333104 2.504591,2.813536 3.507924,4.414197 0.948567,1.507343 1.741603,3.122443 2.358397,4.821639 0.982923,2.705703 1.518833,5.624803 1.518833,8.669651 z"
     id="path883" />
  <path
     id="path885"
     style="opacity:0.6;fill:#f08705;stroke-width:2.52545452;paint-order:normal"
     d="m 15.777949,29.911392 c -0.02275,0.132411 -0.03685,0.270506 -0.0587,0.406194 h 35.003272 c -0.02079,-0.135669 -0.03591,-0.273881 -0.061,-0.406194 z"
     inkscape:connector-curvature="0" />
  <path
     id="path889"
     style="opacity:0.6;fill:#f08705;stroke-width:2.52545452;paint-order:normal"
     d="m 15.777949,37.879171 c -0.02275,0.1324 -0.03685,0.270506 -0.0587,0.406194 h 35.003272 c -0.02079,-0.135688 -0.03591,-0.27387 -0.061,-0.406194 z"
     inkscape:connector-curvature="0" />
  <path
     id="path891"
     style="opacity:0.6;fill:#f08705;stroke-width:2.52545452;paint-order:normal"
     d="m 15.777949,45.842793 c -0.02275,0.132437 -0.03685,0.270506 -0.0587,0.406193 h 35.003272 c -0.02079,-0.135687 -0.03591,-0.273869 -0.061,-0.406193 z"
     inkscape:connector-curvature="0" />
  <circle
     style="fill:#5e4aa6;stroke-width:1.00000715"
     cx="-1261.8958"
     cy="-1217.8256"
     r="0"
     id="circle909" />
  <g
     style="fill:#5e4aa6;stroke-width:0.26458001"
     transform="matrix(3.779602,0,0,3.779602,82.066498,23.346602)"
     id="g919">
    <circle
       cx="-330.35001"
       cy="-328.38"
       r="0"
       id="circle911" />
    <circle
       cx="-312.10999"
       cy="-326.25"
       r="0"
       id="circle913" />
    <circle
       cx="-306.01999"
       cy="-333.07001"
       r="0"
       id="circle915" />
    <circle
       cx="-308.84"
       cy="-326.01001"
       r="0"
       id="circle917" />
  </g>
  <path
     d="m 24.5,14.230391 c -1.108,0 -2,0.892 -2,2 v 7 c 0,1.108 0.892,2 2,2 h 15 c 1.108,0 2,-0.892 2,-2 v -7 c 0,-1.108 -0.892,-2 -2,-2 z m 0,1 h 15 c 0.554,0 1,0.446 1,1 v 7 c 0,0.554 -0.446,1 -1,1 h -15 c -0.554,0 -1,-0.446 -1,-1 v -7 c 0,-0.554 0.446,-1 1,-1 z m 0,1 v 7 h 2 v -4.172 l 2,2 2,-2 v 4.172 h 2 v -7 h -2 l -2,2 -2,-2 z m 11,0 v 4 h -2 l 3,3 3,-3 h -2 v -4 z"
     id="path39"
     inkscape:connector-curvature="0"
     style="fill:#ffc841;fill-opacity:1" />
</svg>
