<?xml version="1.0" encoding="UTF-8"?>
<!-- Created with Inkscape (http://www.inkscape.org/) -->
<svg width="64" height="64" version="1.1" viewBox="0 0 16.933 16.933" xmlns="http://www.w3.org/2000/svg" xmlns:cc="http://creativecommons.org/ns#" xmlns:dc="http://purl.org/dc/elements/1.1/" xmlns:rdf="http://www.w3.org/1999/02/22-rdf-syntax-ns#">
 <defs>
  <filter id="filter11290" x="-.024" y="-.024" width="1.048" height="1.048" color-interpolation-filters="sRGB">
   <feGaussianBlur stdDeviation="0.15875313"/>
  </filter>
  <linearGradient id="linearGradient1005" x1=".73911" x2="16.388" y1="16.296" y2=".64687" gradientTransform="translate(-.0078552 -5.0139e-5)" gradientUnits="userSpaceOnUse">
   <stop stop-color="#96aab4" offset="0"/>
   <stop stop-color="#a0b4c3" offset="1"/>
  </linearGradient>
 </defs>
 <metadata>
  <rdf:RDF>
   <cc:Work rdf:about="">
    <dc:format>image/svg+xml</dc:format>
    <dc:type rdf:resource="http://purl.org/dc/dcmitype/StillImage"/>
    <dc:title/>
   </cc:Work>
  </rdf:RDF>
 </metadata>
 <circle cx="8.4937" cy="8.46" r="7.9377" filter="url(#filter11290)" opacity=".25" stroke-width=".14032"/>
 <path d="m16.431 8.4599c0 0.95154-0.16749 1.8639-0.47464 2.7094-0.21351 0.58768-0.49439 1.1433-0.83393 1.6572-0.14222 0.21608-0.29514 0.42475-0.45746 0.62529-0.51966 0.64179-1.1372 1.2007-1.8305 1.6543-0.2553 0.16718-0.52065 0.3201-0.79536 0.45712-1.0668 0.53389-2.2711 0.83421-3.5456 0.83421s-2.4788-0.30032-3.5456-0.83424c-0.27474-0.13705-0.5404-0.28997-0.7957-0.45712-0.70207-0.45973-1.327-1.0274-1.8509-1.6798-0.16263-0.20216-0.31524-0.41275-0.45746-0.63078-0.33046-0.5054-0.60421-1.0507-0.8135-1.627-0.30711-0.84529-0.4743-1.7573-0.4743-2.7085 0-4.3838 3.5537-7.9375 7.9375-7.9375 2.2005 0 4.1917 0.89548 5.6295 2.3417 0.41436 0.41662 0.78274 0.87929 1.0963 1.3795 0.29645 0.47107 0.54428 0.97582 0.73704 1.5068 0.30718 0.84559 0.47467 1.7579 0.47467 2.7094z" fill="url(#linearGradient1005)" stroke-width=".031006"/>
 <g fill="#5e4aa6" stroke-width=".26458">
  <circle cx="-330.35" cy="-328.38" r="0"/>
  <circle cx="-312.11" cy="-326.25" r="0"/>
  <circle cx="-306.02" cy="-333.07" r="0"/>
  <circle cx="-308.84" cy="-326.01" r="0"/>
 </g>
 <path id="gear" class="shp86" d="m11.408 3.9062-0.22888 0.61139c-0.0149 0.0401 3.55e-4 0.09332 0.03407 0.11923l0.26933 0.20616c0.033 0.02519 0.08942 0.02662 0.1242 0.0018l0.53084-0.37897c0.03478-0.02484 0.08765-0.02058 0.11781 0.0099l0.22249 0.22249c0.03087 0.03087 0.03478 0.08303 0.0099 0.11781l-0.37897 0.5305c-0.02484 0.03478-0.02377 0.09048 0.0021 0.1242l0.20652 0.26933c0.0252 0.033 0.07948 0.04897 0.11923 0.03407l0.61069-0.22888c0.0401-0.0149 0.08978 0.0028 0.11107 0.0401l0.15719 0.27216c0.022 0.03796 0.01207 0.08907-0.02093 0.11639l-0.50387 0.41481c-0.033 0.02733-0.04648 0.08126-0.03016 0.12029l0.12952 0.31332c0.01597 0.03832 0.06387 0.06778 0.10645 0.06387l0.64972-0.06316c0.04258-0.0043 0.08623 0.0259 0.09723 0.06742l0.08126 0.30375c0.01136 0.04223-0.01136 0.08907-0.05039 0.10681l-0.59429 0.2704c-0.03903 0.01774-0.066 0.06636-0.06033 0.10858l0.04436 0.33604c0.0053 0.04116 0.04436 0.08197 0.08658 0.08907l0.64368 0.10716c0.04223 0.0071 0.07629 0.04755 0.07629 0.09013v0.31439c0 0.04365-0.03407 0.08339-0.07629 0.09013l-0.64298 0.10716c-0.04223 0.0071-0.0809 0.04684-0.08623 0.08907l-0.04401 0.3364c-0.0053 0.04116 0.02164 0.09084 0.06033 0.10858l0.59329 0.27004c0.03867 0.01774 0.06138 0.06565 0.05039 0.10681l-0.08126 0.30375c-0.01136 0.04223-0.05464 0.07168-0.09723 0.06742l-0.649-0.0628c-0.04258-0.0043-0.09013 0.02448-0.10645 0.06387l-0.13023 0.31332c-0.01597 0.03832-0.0028 0.09332 0.03016 0.12029l0.50387 0.41481c0.033 0.02733 0.04258 0.07913 0.02093 0.11639l-0.15719 0.27216c-0.022 0.03796-0.07132 0.055-0.11142 0.0401l-0.61139-0.22888c-0.0401-0.0149-0.09332 3.55e-4 -0.11923 0.03407l-0.20616 0.26933c-0.02519 0.033-0.02662 0.08942-0.0018 0.1242l0.37897 0.53084c0.02484 0.03478 0.02058 0.08765-0.0099 0.11781l-0.22249 0.22249c-0.03087 0.03087-0.08303 0.03478-0.11781 0.0099l-0.5305-0.37897c-0.03478-0.02484-0.09048-0.02377-0.12419 0.0021l-0.26933 0.20652c-0.033 0.02519-0.04897 0.07948-0.03407 0.11923l0.22888 0.61069c0.0149 0.0401-0.0028 0.08977-0.0401 0.11107l-0.27216 0.15719c-0.03796 0.022-0.08907 0.01207-0.11639-0.02093l-0.41481-0.50387c-0.02733-0.033-0.08126-0.04648-0.12029-0.03016l-0.31332 0.12952c-0.03832 0.01597-0.06778 0.06387-0.06387 0.10645l0.06316 0.64972c0.0043 0.04258-0.02591 0.08623-0.06742 0.09723l-0.30375 0.08126c-0.04223 0.01136-0.08907-0.01136-0.10681-0.05039l-0.27041-0.5943c-0.01774-0.03903-0.06636-0.066-0.10858-0.06033l-0.33604 0.04436c-0.04116 0.0053-0.08197 0.04436-0.08907 0.08658l-0.10716 0.64368c-0.0071 0.04223-0.04755 0.07629-0.09013 0.07629h-0.31439c-0.04365 0-0.08339-0.03407-0.09013-0.07629l-0.10716-0.64298c-0.0071-0.04223-0.04683-0.0809-0.08907-0.08623l-0.33638-0.04404c-0.04116-0.0053-0.09084 0.02164-0.10858 0.06033l-0.27004 0.59329c-0.01774 0.03867-0.06565 0.06139-0.10681 0.05039l-0.30375-0.08126c-0.04223-0.01136-0.07168-0.05464-0.06742-0.09723l0.0628-0.649c0.0043-0.04258-0.02449-0.09013-0.06387-0.10645l-0.31332-0.13023c-0.03832-0.01597-0.09333-0.0028-0.12029 0.03016l-0.41481 0.50387c-0.02733 0.033-0.07913 0.04258-0.11639 0.02094l-0.27216-0.1572c-0.03796-0.022-0.055-0.07132-0.0401-0.11142l0.22887-0.61139c0.0149-0.0401-3.54e-4 -0.09332-0.03407-0.11923l-0.26933-0.20616c-0.033-0.02519-0.08942-0.02662-0.1242-0.0018l-0.53084 0.37897c-0.03478 0.02484-0.08765 0.02059-0.11781-0.0099l-0.22249-0.22253c-0.03087-0.03087-0.03478-0.08303-0.0099-0.11781l0.37893-0.5305c0.02484-0.03478 0.02377-0.09049-0.0021-0.1242l-0.20652-0.26933c-0.02519-0.033-0.07948-0.04897-0.11923-0.03407l-0.61069 0.22888c-0.0401 0.0149-0.08978-0.0028-0.11107-0.0401l-0.15721-0.27214c-0.022-0.03796-0.01206-0.08907 0.02094-0.11639l0.50387-0.41481c0.033-0.02733 0.04648-0.08126 0.03016-0.12029l-0.12952-0.31332c-0.01597-0.03832-0.06387-0.06778-0.10645-0.06387l-0.64972 0.06316c-0.04258 0.0043-0.08623-0.0259-0.09723-0.06742l-0.08126-0.30375c-0.01136-0.04223 0.01136-0.08907 0.05039-0.10681l0.59436-0.27039c0.03903-0.01774 0.066-0.06636 0.06033-0.10858l-0.04436-0.33604c-0.0053-0.04116-0.04436-0.08197-0.08658-0.08907l-0.64369-0.10716c-0.04223-0.0071-0.07629-0.04755-0.07629-0.09013v-0.31439c0-0.04365 0.03407-0.08339 0.07629-0.09013l0.64298-0.10716c0.04223-0.0071 0.0809-0.04684 0.08623-0.08907l0.04401-0.3364c0.0053-0.04116-0.02164-0.09084-0.06033-0.10858l-0.5933-0.27004c-0.03867-0.01774-0.06139-0.06565-0.05039-0.10681l0.08126-0.30375c0.01136-0.04223 0.05464-0.07168 0.09723-0.06742l0.649 0.0628c0.04258 0.0043 0.09013-0.02448 0.10645-0.06387l0.13023-0.31332c0.01597-0.03832 0.0028-0.09332-0.03016-0.12029l-0.50388-0.41481c-0.033-0.02733-0.04258-0.07913-0.02094-0.11639l0.1572-0.27216c0.022-0.03796 0.07132-0.055 0.11142-0.0401l0.61139 0.22888c0.0401 0.0149 0.09333-3.56e-4 0.11923-0.03407l0.20616-0.26933c0.02519-0.033 0.02662-0.08942 0.0018-0.1242l-0.37896-0.53084c-0.02484-0.03478-0.02059-0.08765 0.0099-0.11781l0.22247-0.22249c0.03087-0.03087 0.08303-0.03478 0.11781-0.0099l0.5305 0.37897c0.03478 0.02484 0.09049 0.02377 0.1242-0.0021l0.26933-0.20651c0.033-0.02519 0.04897-0.07948 0.03407-0.11923l-0.22888-0.61069c-0.0149-0.0401 0.0028-0.08978 0.0401-0.11107l0.27216-0.15719c0.03796-0.022 0.08907-0.01206 0.11639 0.02094l0.41481 0.50387c0.02733 0.033 0.08126 0.04648 0.12029 0.03016l0.31332-0.12952c0.03832-0.01597 0.06778-0.06387 0.06387-0.10645l-0.06316-0.64972c-0.0043-0.04258 0.02591-0.08623 0.06742-0.09723l0.30375-0.08126c0.04223-0.01136 0.08907 0.01136 0.10681 0.05039l0.27043 0.59436c0.01774 0.03903 0.06636 0.066 0.10858 0.06033l0.33604-0.04436c0.04116-0.0053 0.08197-0.04436 0.08907-0.08658l0.10716-0.64368c0.0071-0.04223 0.04755-0.07629 0.09013-0.07629h0.31439c0.04365 0 0.08339 0.03407 0.09013 0.07629l0.10716 0.64298c0.0071 0.04223 0.04684 0.0809 0.08907 0.08623l0.3364 0.044c0.04116 0.0053 0.09084-0.02164 0.10858-0.06033l0.27003-0.59329c0.01774-0.03868 0.06565-0.06139 0.10681-0.05039l0.30375 0.08126c0.04223 0.01136 0.07168 0.05465 0.06742 0.09723l-0.0628 0.649c-0.0043 0.04258 0.02448 0.09013 0.06387 0.10645l0.31332 0.13023c0.03832 0.01597 0.09333 0.0028 0.12029-0.03016l0.4148-0.50386c0.02733-0.033 0.07913-0.04258 0.11639-0.02093l0.27216 0.15719c0.03796 0.022 0.055 0.07132 0.0401 0.11142zm-1.0418 1.3026c-0.88213-0.50955-1.8853-0.62026-2.8004-0.3882-0.17636 0.04471-0.07274 0.02022-0.07274 0.02022-0.24555 0.08375-0.34349 0.33674-0.21965 0.56243 0 0-0.07132-0.13023 0.0056 0.0099 0.3669 0.66959 1.1014 2.0095 1.1014 2.0095 0.16606 0.30303 0.58087 0.5429 0.92684 0.53582 0 0 1.6273-0.03371 2.4413-0.05074 0.15117-0.0032 0 0 0 0 0.25051-0.0053 0.4134-0.21609 0.35875-0.45207-0.25402-0.91479-0.85336-1.7345-1.7408-2.2469zm-0.06139 6.5351c0.891-0.49394 1.5024-1.2966 1.7749-2.2007 0.05252-0.17423 0.02023-0.07274 0.02023-0.07274 0.05464-0.25372-0.11178-0.46768-0.36903-0.47798 0 0 0.14832 0.0061-0.01136-3.55e-4 -0.7629-0.03016-2.2894-0.09084-2.2894-0.09084-0.34527-0.01383-0.76469 0.21822-0.93678 0.51842 0 0-0.80904 1.4122-1.2139 2.1188-0.07523 0.13129 0 0 0 0-0.12455 0.21752-0.02733 0.46556 0.20297 0.54043 0 0-0.14549-0.04045 0 0 0.91514 0.25336 1.9265 0.16181 2.8224-0.33498zm-4.4422-0.59791c0.17991 0.16217 0.44355 0.12207 0.56953-0.09474 0 0-0.07594 0.13058 0 0 0.40949-0.70365 1.2278-2.1105 1.2278-2.1105 0.17387-0.29913 0.16536-0.77818-0.01916-1.0706 0 0-0.81579-1.292-1.2235-1.9374-0.08552-0.1352-0.0061-0.0096-0.0061-0.0096-0.13729-0.21752-0.4059-0.25478-0.59823-0.08055 0 0 0.07168-0.07878-0.05287 0.05393-0.64653 0.68803-1.0361 1.6187-1.0184 2.6376 0.01774 1.0244 0.44427 1.9459 1.1213 2.6117z" fill="#fff" image-rendering="optimizeSpeed" stroke-width=".60323"/>
</svg>
