<?xml version="1.0" encoding="UTF-8" standalone="no"?>
<svg
   xmlns:dc="http://purl.org/dc/elements/1.1/"
   xmlns:cc="http://creativecommons.org/ns#"
   xmlns:rdf="http://www.w3.org/1999/02/22-rdf-syntax-ns#"
   xmlns:svg="http://www.w3.org/2000/svg"
   xmlns="http://www.w3.org/2000/svg"
   xmlns:sodipodi="http://sodipodi.sourceforge.net/DTD/sodipodi-0.dtd"
   xmlns:inkscape="http://www.inkscape.org/namespaces/inkscape"
   width="64"
   height="64"
   version="1.1"
   viewBox="0 0 16.933 16.933"
   id="svg8"
   sodipodi:docname="deluge.svg"
   inkscape:version="0.92.5 (6c0c36ef5a, 2020-05-15, custom)">
  <metadata
     id="metadata14">
    <rdf:RDF>
      <cc:Work
         rdf:about="">
        <dc:format>image/svg+xml</dc:format>
        <dc:type
           rdf:resource="http://purl.org/dc/dcmitype/StillImage" />
        <dc:title></dc:title>
      </cc:Work>
    </rdf:RDF>
  </metadata>
  <defs
     id="defs12">
    <linearGradient
       id="a"
       gradientUnits="userSpaceOnUse"
       x1="400.16821"
       x2="400.47992"
       y1="543.79803"
       y2="518.47333">
      <stop
         offset="0"
         stop-color="#2c5aa0"
         id="stop2" />
      <stop
         offset="1"
         stop-color="#3771c8"
         id="stop4" />
    </linearGradient>
    <filter
       color-interpolation-filters="sRGB"
       height="1.048"
       width="1.048"
       y="-.024"
       x="-.024"
       id="filter2761">
      <feGaussianBlur
         id="feGaussianBlur884"
         stdDeviation="0.14552168" />
    </filter>
    <linearGradient
       gradientUnits="userSpaceOnUse"
       gradientTransform="translate(-0.64644967,-5.0255998)"
       y2="1.17"
       y1="15.576"
       x2="15.65"
       x1="1.3315"
       id="linearGradient1024">
      <stop
         id="stop887"
         offset="0"
         stop-color="#00c8ff" />
      <stop
         id="stop889"
         offset="1"
         stop-color="#14a0ff" />
    </linearGradient>
    <filter
       color-interpolation-filters="sRGB"
       height="1.1154"
       width="1.125"
       y="-.057691"
       x="-.062502"
       id="filter943">
      <feGaussianBlur
         id="feGaussianBlur892"
         stdDeviation="0.3307375" />
    </filter>
    <filter
       inkscape:collect="always"
       style="color-interpolation-filters:sRGB"
       id="filter975"
       x="-0.074108959"
       width="1.1482179"
       y="-0.050404018"
       height="1.100808">
      <feGaussianBlur
         inkscape:collect="always"
         stdDeviation="0.21966115"
         id="feGaussianBlur977" />
    </filter>
    <style
       id="style829"
       type="text/css" />
    <filter
       color-interpolation-filters="sRGB"
       height="1.048"
       width="1.048"
       y="-.024"
       x="-.024"
       id="filter11290-3">
      <feGaussianBlur
         id="feGaussianBlur831"
         stdDeviation="0.15875313" />
    </filter>
    <linearGradient
       gradientUnits="userSpaceOnUse"
       gradientTransform="translate(-0.034965,0.0065499)"
       y2=".64687"
       y1="16.296"
       x2="16.388"
       x1=".73911"
       id="linearGradient1005-6">
      <stop
         id="stop834"
         offset="0"
         stop-color="#00c8ff" />
      <stop
         id="stop836"
         offset="1"
         stop-color="#14a0ff" />
    </linearGradient>
  </defs>
  <sodipodi:namedview
     pagecolor="#ffffff"
     bordercolor="#666666"
     borderopacity="1"
     objecttolerance="10"
     gridtolerance="10"
     guidetolerance="10"
     inkscape:pageopacity="0"
     inkscape:pageshadow="2"
     inkscape:window-width="1920"
     inkscape:window-height="1000"
     id="namedview10"
     showgrid="false"
     inkscape:zoom="3.6875001"
     inkscape:cx="45.901591"
     inkscape:cy="45.080016"
     inkscape:window-x="0"
     inkscape:window-y="0"
     inkscape:window-maximized="1"
     inkscape:current-layer="svg8" />
  <circle
     style="opacity:0.25;stroke-width:0.14032;filter:url(#filter11290-3)"
     cx="8.4665003"
     cy="8.4665003"
     r="7.9376998"
     id="circle843" />
  <path
     style="fill:url(#linearGradient1005-6);stroke-width:0.031006"
     inkscape:connector-curvature="0"
     d="m 16.403945,8.46645 c 0,0.95154 -0.16749,1.8639 -0.47464,2.7094 -0.21351,0.58768 -0.49439,1.1433 -0.83393,1.6572 -0.14222,0.21608 -0.29514,0.42475 -0.45746,0.62529 -0.51966,0.64179 -1.1372,1.2007 -1.8305,1.6543 -0.2553,0.16718 -0.52065,0.3201 -0.79536,0.45712 -1.0668,0.53389 -2.2711,0.83421 -3.5456,0.83421 -1.2745,0 -2.4788,-0.30032 -3.5456,-0.83424 -0.27474,-0.13705 -0.5404,-0.28997 -0.7957,-0.45712 -0.70207,-0.45973 -1.327,-1.0274 -1.8509,-1.6798 -0.16263,-0.20216 -0.31524,-0.41275 -0.45746,-0.63078 -0.33046,-0.5054 -0.60421,-1.0507 -0.8135,-1.627 -0.30711,-0.84529 -0.4743,-1.7573 -0.4743,-2.7085 0,-4.3838 3.5537,-7.9375 7.9375,-7.9375 2.2005,0 4.1917,0.89548 5.6295,2.3417 0.41436,0.41662 0.78274,0.87929 1.0963,1.3795 0.29645,0.47107 0.54428,0.97582 0.73704,1.5068 0.30718,0.84559 0.47467,1.7579 0.47467,2.7094 z"
     id="path845" />
  <path
     id="path7"
     d="M 8.2515036,3.4229177 5.3798725,8.4310319 c -0.6034404,1.0587824 -0.6500493,2.4050631 0,3.5387381 0.9771962,1.704221 3.1509228,2.293606 4.8551525,1.316397 1.704226,-0.977192 2.293611,-3.150905 1.316402,-4.8551482 L 8.6798,3.4229177 c -0.094861,-0.1654344 -0.3334488,-0.1654344 -0.4282964,0 z"
     inkscape:connector-curvature="0"
     style="fill-opacity:1;stroke-width:0.43580079;filter:url(#filter975);fill:#0a96ff" />
  <path
     id="path11"
     d="M 8.2515167,3.3609654 5.3798856,8.3690796 c -0.6034404,1.0587824 -0.6500493,2.4050634 0,3.5387384 0.9771962,1.704221 3.1509228,2.293606 4.8551524,1.316397 1.704226,-0.977192 2.293611,-3.150905 1.316402,-4.8551486 L 8.679813,3.3609654 c -0.094861,-0.1654344 -0.3334487,-0.1654344 -0.4282963,0 z"
     inkscape:connector-curvature="0"
     style="fill:#ffffff;fill-opacity:1;stroke-width:0.43580079" />
  <path
     d="m 8.46653,4.2333101 c -0.0542,0.14097 -0.11531,0.28389 -0.17762,0.42023 -0.0053,0.01173 -0.01303,0.02182 -0.01834,0.03354 -0.05749,0.12423 -0.11455,0.24042 -0.17762,0.361 -0.01308,0.02507 -0.02443,0.0507 -0.03772,0.07545 -0.05698,0.10652 -0.11664,0.21541 -0.1771,0.31906 -0.021,0.03605 -0.04414,0.07385 -0.06549,0.10951 -0.54071,0.8856 -1.2516,1.8104 -1.8129,2.5867 -0.4447,0.58409 -0.70042,1.2147 -0.77544,1.8227998 0,1.5103001 1.4502,2.7381001 3.2422,2.7381001 1.792,0 3.2422,-1.2278 3.2422,-2.7381001 0,-0.9516298 -0.77623,-1.9296998 -1.6724,-3.1834998 -0.28368,-0.38946 -0.55769,-0.79891 -0.80374,-1.1841 -0.13355,-0.21091 -0.26417,-0.42801 -0.39244,-0.65492 -0.04007,-0.07096 -0.08226,-0.14598 -0.12156,-0.2185 -0.08493,-0.15712 -0.17169,-0.32205 -0.25202,-0.48728 z m 0,1.1433 c 0,1.4609 0.36721,2.6602 0.76392,4.1408 h 0.93158 L 9.31428,10.53391 8.46653,11.55671 7.61878,10.53391 6.77103,9.5174101 h 0.97402 c 0.41221,-1.5384 0.72148,-2.6833 0.72148,-4.1408 z"
     id="path6"
     inkscape:connector-curvature="0"
     style="fill:#ffffff" />
  <path
     style="fill:#0faaff;fill-opacity:1;stroke-width:0.43580076"
     d="m 8.4665,5.3765684 c 0,1.4574998 -0.3091788,2.602351 -0.7213886,4.1407508 H 6.7710297 L 7.6190232,10.533775 8.4665,11.556432 9.3144935,10.533775 10.16197,9.5173192 H 9.2307794 C 8.8340694,8.0367194 8.4665,6.8374683 8.4665,5.3765684 Z"
     id="path979"
     inkscape:connector-curvature="0"
     sodipodi:nodetypes="ccccccccc" />
  <g
     style="fill:#5e4aa6;stroke-width:0.26458001"
     id="g855"
     transform="translate(23.390499,-7.6772502)">
    <circle
       cx="-330.35001"
       cy="-328.38"
       r="0"
       id="circle847" />
    <circle
       cx="-330.35001"
       cy="-328.37"
       r="0"
       id="circle849" />
    <circle
       cx="-330.35001"
       cy="-328.37"
       r="0"
       id="circle851" />
    <circle
       cx="-352.63"
       cy="-336.82999"
       r="0"
       id="circle853" />
  </g>
  <g
     style="fill:#5e4aa6;stroke-width:0.26458001"
     transform="translate(0.690499,-15.77845)"
     id="g867">
    <circle
       cx="-330.35001"
       cy="-328.38"
       r="0"
       id="circle859" />
    <circle
       cx="-312.10999"
       cy="-326.25"
       r="0"
       id="circle861" />
    <circle
       cx="-306.01999"
       cy="-333.07001"
       r="0"
       id="circle863" />
    <circle
       cx="-308.84"
       cy="-326.01001"
       r="0"
       id="circle865" />
  </g>
</svg>
