<?xml version="1.0" encoding="UTF-8"?>
<svg width="64" height="64" version="1.1" viewBox="0 0 64 64" xmlns="http://www.w3.org/2000/svg" xmlns:cc="http://creativecommons.org/ns#" xmlns:dc="http://purl.org/dc/elements/1.1/" xmlns:rdf="http://www.w3.org/1999/02/22-rdf-syntax-ns#" xmlns:xlink="http://www.w3.org/1999/xlink">
 <metadata>
  <rdf:RDF>
   <cc:Work rdf:about="">
    <dc:format>image/svg+xml</dc:format>
    <dc:type rdf:resource="http://purl.org/dc/dcmitype/StillImage"/>
    <dc:title/>
   </cc:Work>
  </rdf:RDF>
 </metadata>
 <defs>
  <style type="text/css"/>
  <style type="text/css"/>
  <style type="text/css"/>
  <style type="text/css"/>
  <filter id="filter11290" x="-.024" y="-.024" width="1.048" height="1.048" color-interpolation-filters="sRGB">
   <feGaussianBlur stdDeviation="0.15875313"/>
  </filter>
  <linearGradient id="linearGradient1005" x1=".8714" x2="16.246" y1="16.164" y2=".78937" gradientTransform="matrix(3.7796 0 0 3.7796 -.1332 .024395)" gradientUnits="userSpaceOnUse">
   <stop stop-color="#00c8ff" offset="0"/>
   <stop stop-color="#14a0ff" offset="1"/>
  </linearGradient>
  <linearGradient id="linearGradient1169" x1="15.91" x2="1.3581" y1="1.3164" y2="15.868" gradientTransform="matrix(3.7796 0 0 3.7796 -.1332 .024395)" gradientUnits="userSpaceOnUse" xlink:href="#linearGradient1005"/>
 </defs>
 <g fill="#5e4aa6">
  <circle cx="-1248.7" cy="-1241.6" r="0"/>
  <circle cx="-149.15" cy="23.855" r="0" fill-rule="evenodd"/>
  <circle cx="-1124.8" cy="-1279.3" r="0"/>
  <g transform="matrix(3.7796,0,0,3.7796,123.83,-38.184)" stroke-width=".26458">
   <circle cx="-299.02" cy="-338.77" r="0"/>
   <circle cx="-8.1062" cy="-3.9487" r="0" fill-rule="evenodd"/>
   <circle cx="-278.25" cy="-357.69" r="0"/>
   <circle cx="12.663" cy="-22.859" r="0" fill-rule="evenodd"/>
  </g>
  <circle cx="-1324.8" cy="-1249.7" r="0"/>
  <circle cx="-225.26" cy="15.747" r="0" fill-rule="evenodd"/>
  <circle cx="-1248.7" cy="-1241.6" r="0"/>
  <circle cx="-149.15" cy="23.855" r="0" fill-rule="evenodd"/>
  <circle cx="-1248.7" cy="-1241.6" r="0"/>
  <circle cx="-149.15" cy="23.855" r="0" fill-rule="evenodd"/>
  <circle cx="-1124.8" cy="-1279.3" r="0"/>
  <g transform="matrix(3.7796,0,0,3.7796,123.83,-38.184)" stroke-width=".26458">
   <circle cx="-299.02" cy="-338.77" r="0"/>
   <circle cx="-8.1062" cy="-3.9487" r="0" fill-rule="evenodd"/>
   <circle cx="-278.25" cy="-357.69" r="0"/>
   <circle cx="12.663" cy="-22.859" r="0" fill-rule="evenodd"/>
  </g>
  <circle cx="-1124.8" cy="-1279.3" r="0"/>
  <g transform="matrix(3.7796 0 0 3.7796 123.83 -38.184)" stroke-width=".26458">
   <circle cx="-299.02" cy="-338.77" r="0"/>
   <circle cx="-8.1062" cy="-3.9487" r="0" fill-rule="evenodd"/>
   <circle cx="-278.25" cy="-357.69" r="0"/>
   <circle cx="12.663" cy="-22.859" r="0" fill-rule="evenodd"/>
  </g>
 </g>
 <circle transform="matrix(3.7796 0 0 3.7796 -.10279 .024585)" cx="8.4937" cy="8.46" r="7.9377" filter="url(#filter11290)" opacity=".25" stroke-width=".14032"/>
 <path d="m28.6 2.3418c-14.947 1.7083-26.602 14.254-26.602 29.658 0 3.5951 0.63217 7.0414 1.793 10.236 0.791 2.1782 1.8272 4.2402 3.0762 6.1504 0.5375 0.8241 1.1138 1.6187 1.7285 2.3828 1.9802 2.4658 4.3426 4.612 6.9961 6.3496 0.9649 0.6317 1.9675 1.2105 3.0059 1.7285 3.9916 1.9977 8.4983 3.1142 13.262 3.1367l29.141-31.984-32.4-27.658z" fill="url(#linearGradient1005)"/>
 <path d="m28.6 2.3418 32.4 27.658-29.141 31.984c0.048325 2.29e-4 0.092246 0.015625 0.14062 0.015625 4.8171 0 9.3683-1.1344 13.4-3.1523 1.0383-0.5179 2.0409-1.0966 3.0059-1.7285 2.6204-1.7144 4.9539-3.8263 6.918-6.252 0.6135-0.7579 1.1929-1.5466 1.7305-2.3633 1.2833-1.9424 2.3434-4.0425 3.1504-6.2637 1.161-3.1952 1.7949-6.6438 1.7949-10.24v-0.001953c0-3.5958-0.63197-7.0442-1.793-10.24-0.7285-2.0069-1.6666-3.9129-2.7871-5.6934-1.1852-1.8906-2.5765-3.6401-4.1426-5.2148-5.434-5.4661-12.96-8.8516-21.277-8.8516-1.1647 0-2.2703 0.21459-3.4004 0.34375z" fill="url(#linearGradient1169)"/>
 <g transform="matrix(3.7796 0 0 3.7796 -.10279 .024585)" fill="#5e4aa6" stroke-width=".26458">
  <circle cx="-330.35" cy="-328.38" r="0"/>
  <circle cx="-312.11" cy="-326.25" r="0"/>
  <circle cx="-306.02" cy="-333.07" r="0"/>
  <circle cx="-308.84" cy="-326.01" r="0"/>
 </g>
 <path d="m60.964 30-32.329-27.658c0.66002-0.1102 0.81076-0.10717 1.3648-0.1752l31.932 27.833h-0.91454z" fill="#32dcff" stroke-width="1.3044"/>
 <path d="m60.947 30-29.088 31.984c0.77993 0.015625 1.312 0.015625 1.9246-0.042034l28.148-31.942h-0.93174z" fill="#32dcff" stroke-width="1.3044"/>
 <path d="m35.516 26.507c0 8.3333-4.7619 11.905-9.5238 11.905h-8.3333v-23.81h8.3333c4.7619 0 9.5238 3.5714 9.5238 11.905m-3.5714 0c0-4.7619-2.3214-8.3333-6.1905-8.3333h-4.5238v16.667h4.5238c3.9679 0 6.1905-3.5714 6.1905-8.3333z" fill="#fff"/>
</svg>
