<?xml version="1.0" encoding="UTF-8"?>
<!-- Created with Inkscape (http://www.inkscape.org/) -->
<svg width="64" height="64" version="1.1" viewBox="0 0 16.933 16.933" xmlns="http://www.w3.org/2000/svg" xmlns:cc="http://creativecommons.org/ns#" xmlns:dc="http://purl.org/dc/elements/1.1/" xmlns:rdf="http://www.w3.org/1999/02/22-rdf-syntax-ns#">
 <defs>
  <filter id="filter11290" x="-.024" y="-.024" width="1.048" height="1.048" color-interpolation-filters="sRGB">
   <feGaussianBlur stdDeviation="0.15875313"/>
  </filter>
  <linearGradient id="linearGradient1005" x1=".73911" x2="16.388" y1="16.296" y2=".64687" gradientTransform="translate(-.0078552 -5.0139e-5)" gradientUnits="userSpaceOnUse">
   <stop stop-color="#32dcff" offset="0"/>
   <stop stop-color="#3296ff" offset="1"/>
  </linearGradient>
  <linearGradient id="linearGradient845" x1="3.1161" x2="13.676" y1="4.5948" y2="12.128" gradientTransform="translate(.025331 .1345)" gradientUnits="userSpaceOnUse">
   <stop stop-color="#fff" offset="0"/>
   <stop stop-color="#c6efff" offset="1"/>
  </linearGradient>
 </defs>
 <metadata>
  <rdf:RDF>
   <cc:Work rdf:about="">
    <dc:format>image/svg+xml</dc:format>
    <dc:type rdf:resource="http://purl.org/dc/dcmitype/StillImage"/>
    <dc:title/>
   </cc:Work>
  </rdf:RDF>
 </metadata>
 <circle cx="8.4937" cy="8.46" r="7.9377" filter="url(#filter11290)" opacity=".25" stroke-width=".14032"/>
 <path d="m16.431 8.4599c0 0.95154-0.16749 1.8639-0.47464 2.7094-0.21351 0.58768-0.49439 1.1433-0.83393 1.6572-0.14222 0.21608-0.29514 0.42475-0.45746 0.62529-0.51966 0.64179-1.1372 1.2007-1.8305 1.6543-0.2553 0.16718-0.52065 0.3201-0.79536 0.45712-1.0668 0.53389-2.2711 0.83421-3.5456 0.83421s-2.4788-0.30032-3.5456-0.83424c-0.27474-0.13705-0.5404-0.28997-0.7957-0.45712-0.70207-0.45973-1.327-1.0274-1.8509-1.6798-0.16263-0.20216-0.31524-0.41275-0.45746-0.63078-0.33046-0.5054-0.60421-1.0507-0.8135-1.627-0.30711-0.84529-0.4743-1.7573-0.4743-2.7085 0-4.3838 3.5537-7.9375 7.9375-7.9375 2.2005 0 4.1917 0.89548 5.6295 2.3417 0.41436 0.41662 0.78274 0.87929 1.0963 1.3795 0.29645 0.47107 0.54428 0.97582 0.73704 1.5068 0.30718 0.84559 0.47467 1.7579 0.47467 2.7094z" fill="url(#linearGradient1005)" stroke-width=".031006"/>
 <g fill="#5e4aa6" stroke-width=".26458">
  <circle cx="-330.35" cy="-328.38" r="0"/>
  <circle cx="-312.11" cy="-326.25" r="0"/>
  <circle cx="-306.02" cy="-333.07" r="0"/>
  <circle cx="-308.84" cy="-326.01" r="0"/>
 </g>
 <path d="m10.375 11.454c0.62511-0.19624 1.1645-0.50057 1.5837-1.0425-2.2945 1.326-4.5644 1.2854-6.8546 0.0092 0.18686 0.26661 0.41187 0.46916 0.6745 0.6212 0.26185 0.1516 0.53978 0.27545 0.82004 0.41624-0.12085 0.15091-0.26427 0.3087-0.3824 0.48353-0.11244 0.16658-0.23994 0.22493-0.44545 0.20104-0.77436-0.08999-1.4705-0.3477-2.0477-0.8867-0.01673-0.01567-0.03246-0.0324-0.04944-0.0477-0.23566-0.21224-0.33404-0.44913-0.31376-0.7918 0.09588-1.622 0.50059-3.1568 1.2091-4.6146 0.03473-0.071457 0.09405-0.14024 0.15895-0.18629 0.566-0.40175 1.1867-0.67927 1.8734-0.79923 0.13107-0.022912 0.26405-0.040069 0.39677-0.045958 0.05395-0.00238 0.10958 0.032329 0.16324 0.07116-0.81592 0.27275-1.5913 0.60135-2.2732 1.1504 2.3432-1.1162 4.6728-1.1714 7.0088-0.028293-0.62447-0.50465-1.3464-0.81737-2.1016-1.0645 0.05638-0.116 0.13508-0.13831 0.25569-0.12708 0.81731 0.075948 1.5471 0.37637 2.2134 0.8437 0.06252 0.043851 0.1209 0.1083 0.15455 0.17635 0.51692 1.0465 0.86535 2.1476 1.0629 3.2979 0.09173 0.53459 0.13898 1.0729 0.14835 1.6143 0.0012 0.07611-0.03103 0.16682-0.0779 0.22763-0.43529 0.56479-1.0155 0.91363-1.6988 1.0881-0.2639 0.06738-0.53912 0.09137-0.8101 0.12864-0.04197 0.0058-0.10548-0.0092-0.13064-0.03879-0.18048-0.21153-0.35356-0.42927-0.53783-0.6559zm-3.6193-1.4464c0.29954-7.4e-4 0.47713-0.06417 0.633-0.19365 0.25477-0.21178 0.34982-0.49078 0.36944-0.81467 0.0219-0.3622-0.11872-0.63159-0.41964-0.81539-0.31046-0.18959-0.63486-0.20526-0.94909-0.0081-0.50436 0.3165-0.59909 1.0694-0.19778 1.5231 0.1756 0.1985 0.39373 0.30659 0.56408 0.3087zm3.3061 0.01398c0.10297-0.02362 0.21076-0.03485 0.30813-0.0729 0.60094-0.23446 0.79229-1.0414 0.37677-1.5732-0.3238-0.4144-0.92712-0.45174-1.296-0.07641-0.24402 0.24824-0.32014 0.55193-0.27855 0.8918 0.0551 0.45044 0.44937 0.81476 0.8897 0.83071z" fill="url(#linearGradient845)" stroke-width=".045727"/>
</svg>
