<?xml version="1.0" encoding="UTF-8"?>
<svg width="64" height="64" version="1.1" viewBox="0 0 64 64" xmlns="http://www.w3.org/2000/svg" xmlns:cc="http://creativecommons.org/ns#" xmlns:dc="http://purl.org/dc/elements/1.1/" xmlns:rdf="http://www.w3.org/1999/02/22-rdf-syntax-ns#">
 <metadata>
  <rdf:RDF>
   <cc:Work rdf:about="">
    <dc:format>image/svg+xml</dc:format>
    <dc:type rdf:resource="http://purl.org/dc/dcmitype/StillImage"/>
    <dc:title/>
   </cc:Work>
  </rdf:RDF>
 </metadata>
 <defs>
  <style type="text/css"/>
  <style type="text/css"/>
  <style type="text/css"/>
  <style type="text/css"/>
  <style type="text/css"/>
  <style type="text/css"/>
  <style type="text/css"/>
  <style type="text/css"/>
  <style type="text/css"/>
  <style type="text/css"/>
  <style type="text/css"/>
  <style type="text/css"/>
  <style type="text/css"/>
  <style type="text/css"/>
  <filter id="filter11290" x="-.024" y="-.024" width="1.048" height="1.048" color-interpolation-filters="sRGB">
   <feGaussianBlur stdDeviation="0.15875313"/>
  </filter>
  <linearGradient id="linearGradient1005" x1=".73911" x2="16.388" y1="16.296" y2=".64687" gradientTransform="matrix(3.7796 0 0 3.7796 97.495 -34.145)" gradientUnits="userSpaceOnUse">
   <stop stop-color="#00dc96" offset="0"/>
   <stop stop-color="#14d29b" offset="1"/>
  </linearGradient>
 </defs>
 <g transform="translate(-97.627 34.169)">
  <circle transform="matrix(3.7796 0 0 3.7796 97.627 -34.169)" cx="8.4665" cy="8.4665" r="7.9377" filter="url(#filter11290)" opacity=".25" stroke-width=".14032"/>
  <path d="m159.63-2.1695c0 3.5964-0.63304 7.0448-1.794 10.24-0.80698 2.2212-1.8686 4.3212-3.1519 6.2636-0.53754 0.8167-1.1155 1.6054-1.729 2.3633-1.9641 2.4257-4.2982 4.5382-6.9186 6.2526-0.96493 0.63187-1.9678 1.2099-3.0061 1.7277-4.0321 2.0179-8.5839 3.153-13.401 3.153s-9.3689-1.1351-13.401-3.1531c-1.0384-0.518-2.0425-1.096-3.0074-1.7277-2.6535-1.7376-5.0155-3.8832-6.9957-6.349-0.61468-0.76408-1.1915-1.56-1.729-2.3841-1.249-1.9102-2.2837-3.9712-3.0747-6.1494-1.1608-3.1949-1.7927-6.6419-1.7927-10.237 0-16.569 13.432-30.001 30.001-30.001 8.317 0 15.843 3.3846 21.277 8.8507 1.5661 1.5747 2.9584 3.3234 4.1436 5.214 1.1205 1.7805 2.0572 3.6882 2.7857 5.6951 1.161 3.196 1.7941 6.6442 1.7941 10.24z" fill="url(#linearGradient1005)" stroke-width=".11719"/>
 </g>
 <g fill="#5e4aa6">
  <circle cx="-1248.7" cy="-1241.6" r="0"/>
  <circle cx="-149.15" cy="23.855" r="0" fill-rule="evenodd"/>
  <circle cx="-1150.9" cy="-1256.6" r="0"/>
  <circle cx="-51.327" cy="8.8744" r="0" fill-rule="evenodd"/>
  <g transform="matrix(3.7796,0,0,3.7796,167.86,4.61)" stroke-width=".26458">
   <g transform="translate(-.0272 .0065001)">
    <circle cx="-330.35" cy="-328.38" r="0"/>
    <circle cx="-312.11" cy="-326.25" r="0"/>
    <circle cx="-306.02" cy="-333.07" r="0"/>
    <circle cx="-308.84" cy="-326.01" r="0"/>
   </g>
   <g transform="translate(-.0272 .0065001)">
    <circle cx="-330.35" cy="-328.38" r="0"/>
    <circle cx="-312.11" cy="-326.25" r="0"/>
    <circle cx="-306.02" cy="-333.07" r="0"/>
    <circle cx="-308.84" cy="-326.01" r="0"/>
   </g>
   <g transform="translate(-.02705 .0064503)">
    <circle cx="-330.35" cy="-328.38" r="0"/>
    <circle cx="-312.11" cy="-326.25" r="0"/>
    <circle cx="-306.02" cy="-333.07" r="0"/>
    <circle cx="-308.84" cy="-326.01" r="0"/>
   </g>
  </g>
 </g>
 <g transform="matrix(1.346 0 0 1.346 -.30326 -.31512)" fill="#fafafa">
  <g fill="#fafafa">
   <!-- color: #6cce3d -->
   <g fill="#fafafa">
    <path d="m15.199 16.04h2.469c0.141 0 0.254-0.113 0.254-0.254 0 0-0.031-2.09-0.031-2.672v-8e-3c0-0.477 0.102-0.895 0.281-1.242l0.082-0.156c-8e-3 0-0.02 4e-3 -0.027 0.016l-4.797 4.699c-8e-3 8e-3 -0.012 0.02-0.016 0.031 0.098-0.051 0.234-0.117 0.254-0.125 0.418-0.188 0.922-0.289 1.531-0.289m19.2-0.512c-0.195-1.039-0.816-1.547-1.383-1.75-0.609-0.219-1.844-0.441-3.391-0.621-1.25-0.148-2.715-0.137-3.602-0.109-0.105-0.719-0.617-1.375-1.188-1.605-1.523-0.602-3.875-0.457-4.48-0.289-0.477 0.129-1.012 0.402-1.305 0.82-0.199 0.281-0.328 0.641-0.328 1.141 0 0.281 8e-3 0.949 0.016 1.543 8e-3 0.602 0.016 1.129 0.016 1.129 0 0.531-0.434 0.961-0.973 0.973h-2.469c-0.527 0-0.93 0.086-1.234 0.223-0.309 0.141-0.527 0.324-0.691 0.547-0.332 0.438-0.387 0.977-0.387 1.527 0 0 4e-3 0.441 0.113 1.316 0.094 0.68 0.832 5.391 1.535 6.816 0.273 0.559 0.453 0.789 0.988 1.035 1.191 0.504 3.918 1.066 5.191 1.227 1.277 0.16 2.074 0.5 2.551-0.48 4e-3 0 0.098-0.246 0.227-0.605 0.414-1.238 0.469-2.34 0.469-3.137 0-0.078 0.121-0.082 0.121 0 0 0.563-0.109 2.551 1.41 3.086 0.602 0.211 1.844 0.398 3.109 0.543 1.145 0.129 1.973 0.574 1.973 3.477 0 1.766-0.375 2-2.332 2-1.59 0-2.195 0.043-2.195-1.207 0-1.012 1.012-0.898 1.758-0.898 0.332 0 0.09-0.246 0.09-0.867 0-0.617 0.391-0.977 0.02-0.984-2.582-0.07-4.105-4e-3 -4.105 3.191 0 2.902 1.125 3.441 4.793 3.441 2.875 0 3.891-0.098 5.078-3.738 0.234-0.719 0.805-2.914 1.148-6.602 0.215-2.328-0.207-9.359-0.543-11.141m-5.01 7.773c-0.355-0.016-0.699 0.012-1.023 0.063 0.098-0.719 0.395-1.598 1.445-1.559 1.176 0.039 1.34 1.137 1.344 1.879-0.496-0.219-1.102-0.359-1.77-0.383" fill="#fafafa"/>
   </g>
  </g>
 </g>
 <g fill="#5e4aa6">
  <g stroke-width=".26458">
   <g transform="matrix(3.7796 0 0 3.7796 184.14 -27.661)">
    <g transform="translate(-.0272 .0065001)">
     <circle cx="-330.35" cy="-328.38" r="0"/>
     <circle cx="-312.11" cy="-326.25" r="0"/>
     <circle cx="-306.02" cy="-333.07" r="0"/>
     <circle cx="-308.84" cy="-326.01" r="0"/>
    </g>
    <g transform="translate(-.0272 .0065001)">
     <circle cx="-330.35" cy="-328.38" r="0"/>
     <circle cx="-312.11" cy="-326.25" r="0"/>
     <circle cx="-306.02" cy="-333.07" r="0"/>
     <circle cx="-308.84" cy="-326.01" r="0"/>
    </g>
    <g transform="translate(-.02705 .0064503)">
     <circle cx="-330.35" cy="-328.38" r="0"/>
     <circle cx="-312.11" cy="-326.25" r="0"/>
     <circle cx="-306.02" cy="-333.07" r="0"/>
     <circle cx="-308.84" cy="-326.01" r="0"/>
    </g>
   </g>
   <g transform="matrix(3.7796 0 0 3.7796 97.525 -34.145)">
    <circle cx="-330.35" cy="-328.38" r="0"/>
    <circle cx="-312.11" cy="-326.25" r="0"/>
    <circle cx="-306.02" cy="-333.07" r="0"/>
    <circle cx="-308.84" cy="-326.01" r="0"/>
   </g>
   <g transform="matrix(3.7796 0 0 3.7796 97.524 -34.145)">
    <circle cx="-330.35" cy="-328.38" r="0"/>
    <circle cx="-312.11" cy="-326.25" r="0"/>
    <circle cx="-306.02" cy="-333.07" r="0"/>
    <circle cx="-308.84" cy="-326.01" r="0"/>
   </g>
  </g>
  <g transform="translate(97.627 -34.169)">
   <circle cx="-1248.7" cy="-1241.6" r="0"/>
   <circle cx="-149.15" cy="23.855" r="0" fill-rule="evenodd"/>
   <g transform="matrix(3.7796,0,0,3.7796,86.508,6.5083)" stroke-width=".26458">
    <g transform="translate(-.0272 .0065001)">
     <circle cx="-330.35" cy="-328.38" r="0"/>
     <circle cx="-312.11" cy="-326.25" r="0"/>
     <circle cx="-306.02" cy="-333.07" r="0"/>
     <circle cx="-308.84" cy="-326.01" r="0"/>
    </g>
    <g transform="translate(-.0272 .0065001)">
     <circle cx="-330.35" cy="-328.38" r="0"/>
     <circle cx="-312.11" cy="-326.25" r="0"/>
     <circle cx="-306.02" cy="-333.07" r="0"/>
     <circle cx="-308.84" cy="-326.01" r="0"/>
    </g>
    <g transform="translate(-.02705 .0064503)">
     <circle cx="-330.35" cy="-328.38" r="0"/>
     <circle cx="-312.11" cy="-326.25" r="0"/>
     <circle cx="-306.02" cy="-333.07" r="0"/>
     <circle cx="-308.84" cy="-326.01" r="0"/>
    </g>
   </g>
  </g>
 </g>
</svg>
