<?xml version="1.0" encoding="UTF-8"?>
<svg width="64" height="64" version="1.1" viewBox="0 0 16.933 16.933" xmlns="http://www.w3.org/2000/svg" xmlns:cc="http://creativecommons.org/ns#" xmlns:dc="http://purl.org/dc/elements/1.1/" xmlns:rdf="http://www.w3.org/1999/02/22-rdf-syntax-ns#" xmlns:xlink="http://www.w3.org/1999/xlink">
 <metadata>
  <rdf:RDF>
   <cc:Work rdf:about="">
    <dc:format>image/svg+xml</dc:format>
    <dc:type rdf:resource="http://purl.org/dc/dcmitype/StillImage"/>
    <dc:title/>
   </cc:Work>
  </rdf:RDF>
 </metadata>
 <defs>
  <filter id="filter11290" x="-.024" y="-.024" width="1.048" height="1.048" color-interpolation-filters="sRGB">
   <feGaussianBlur stdDeviation="0.15875313"/>
  </filter>
  <linearGradient id="linearGradient1005" x1=".8714" x2="16.246" y1="16.164" y2=".78937" gradientTransform="translate(-.035245 .00645)" gradientUnits="userSpaceOnUse">
   <stop stop-color="#ffc841" offset="0"/>
   <stop stop-color="#ffc841" offset="1"/>
  </linearGradient>
  <filter id="filter1091-3" x="-.084016" y="-.084016" width="1.168" height="1.168" color-interpolation-filters="sRGB">
   <feGaussianBlur stdDeviation="0.30215974"/>
  </filter>
  <linearGradient id="linearGradient1011" x1="8.5858" x2="16.465" y1="-5.5948" y2="-13.703" gradientUnits="userSpaceOnUse">
   <stop stop-color="#f5f5f5" offset="0"/>
   <stop stop-color="#fff" offset="1"/>
  </linearGradient>
  <linearGradient id="linearGradient1013" x1="8.9222" x2="15.926" y1="-5.3552" y2="-11.992" gradientUnits="userSpaceOnUse">
   <stop stop-color="#ffdc96" offset="0"/>
   <stop stop-color="#fff" offset="1"/>
  </linearGradient>
 </defs>
 <g fill="#5e4aa6">
  <circle cx="-330.35" cy="-328.38" r="0" stroke-width=".26458"/>
  <circle cx="-39.434" cy="6.44" r="0" fill-rule="evenodd" stroke-width=".26458"/>
  <circle cx="-330.35" cy="-328.38" r="0" stroke-width=".26458"/>
 </g>
 <circle cx="8.4665" cy="8.4665" r="7.9377" filter="url(#filter11290)" opacity=".25" stroke-width=".14032"/>
 <path d="m16.404 8.4664c0 0.95154-0.16749 1.8639-0.47464 2.7094-0.21351 0.58768-0.49439 1.1433-0.83393 1.6572-0.14222 0.21608-0.29514 0.42475-0.45746 0.62529-0.51966 0.64179-1.1372 1.2007-1.8305 1.6543-0.2553 0.16718-0.52065 0.3201-0.79536 0.45712-1.0668 0.53389-2.2711 0.83421-3.5456 0.83421s-2.4788-0.30032-3.5456-0.83424c-0.27474-0.13705-0.5404-0.28997-0.7957-0.45712-0.70207-0.45973-1.327-1.0274-1.8509-1.6798-0.16263-0.20216-0.31524-0.41275-0.45746-0.63078-0.33046-0.5054-0.60421-1.0507-0.8135-1.627-0.30711-0.84529-0.4743-1.7573-0.4743-2.7085 0-4.3838 3.5537-7.9375 7.9375-7.9375 2.2005 0 4.1917 0.89548 5.6295 2.3417 0.41436 0.41662 0.78274 0.87929 1.0963 1.3795 0.29645 0.47107 0.54428 0.97582 0.73704 1.5068 0.30718 0.84559 0.47467 1.7579 0.47467 2.7094z" fill="url(#linearGradient1005)" stroke-width=".031006"/>
 <g transform="translate(-.0272 .0065001)" fill="#5e4aa6" stroke-width=".26458">
  <circle cx="-330.35" cy="-328.38" r="0"/>
  <circle cx="-312.11" cy="-326.25" r="0"/>
  <circle cx="-306.02" cy="-333.07" r="0"/>
  <circle cx="-308.84" cy="-326.01" r="0"/>
 </g>
 <path d="m15.186 8.4664c0 0.80557-0.1418 1.578-0.40183 2.2938-0.18076 0.49753-0.41855 0.96792-0.706 1.403-0.1204 0.18293-0.24986 0.35959-0.38728 0.52937-0.43994 0.54334-0.96275 1.0165-1.5497 1.4005-0.21614 0.14153-0.44078 0.271-0.67335 0.387-0.90315 0.45199-1.9227 0.70624-3.0017 0.70624-1.079 0-2.0985-0.25425-3.0017-0.70626-0.23259-0.11603-0.4575-0.24549-0.67364-0.387-0.59437-0.38921-1.1234-0.86979-1.567-1.4221-0.13768-0.17115-0.26688-0.34943-0.38728-0.53402-0.27977-0.42787-0.51152-0.88952-0.68871-1.3774-0.26-0.71562-0.40154-1.4877-0.40154-2.293 0-3.7113 3.0086-6.7199 6.7199-6.7199 1.8629 0 3.5487 0.75811 4.7659 1.9825 0.3508 0.35271 0.66266 0.7444 0.92812 1.1679 0.25097 0.39881 0.46079 0.82613 0.62398 1.2757 0.26006 0.71587 0.40185 1.4882 0.40185 2.2938z" fill="#fafafa" stroke-width=".02625"/>
 <g transform="matrix(1.0298 0 0 1.184 .070103 -.75377)" fill="#f08705">
  <path d="m3.9856 6.9374c-0.00585 0.029589-0.00947 0.060448-0.015081 0.09077h8.9931c-0.0053-0.030317-0.0092-0.061202-0.01567-0.09077z" opacity=".6" stroke-width=".60512" style="paint-order:normal"/>
  <path d="m4.1332 4.9655c0.00521 0.030317 0.010173 0.060579 0.015962 0.09077h8.6371c0.0054-0.032616 0.01-0.058576 0.01482-0.09077z" opacity=".6" stroke-width=".59404" style="paint-order:normal"/>
  <path d="m3.9856 8.9093c-0.00585 0.029589-0.00947 0.060448-0.015081 0.09077h8.9931c-0.0053-0.030317-0.0092-0.061202-0.01567-0.09077z" opacity=".6" stroke-width=".60512" style="paint-order:normal"/>
  <path d="m3.9856 10.881c-0.00585 0.02959-0.00947 0.06045-0.015081 0.09077h8.9931c-0.0053-0.03032-0.0092-0.0612-0.01567-0.09077z" opacity=".6" stroke-width=".60512" style="paint-order:normal"/>
 </g>
 <g transform="matrix(.98855 0 0 .95108 -3.9285 17.654)" fill="#f08705" filter="url(#filter1091-3)" opacity=".5">
  <path d="m8.8145-5.537s-0.19283-0.13005-0.19283-0.19731c0-0.067264 0.5286-1.9107 0.58567-2.0122 0.057077-0.10147 6.1025-6.1025 6.1025-6.1025s0.27603-0.21726 0.44643-0.08272c0.17041 0.13453 0.74406 0.74406 0.74406 0.74406z"/>
  <path d="m8.8145-5.537s0.13005 0.19283 0.19731 0.19283c0.067264 0 1.9107-0.5286 2.0122-0.58567 0.10147-0.057077 6.1025-6.1025 6.1025-6.1025s0.21725-0.27603 0.08272-0.44643c-0.13453-0.17041-0.74406-0.74406-0.74406-0.74406z"/>
 </g>
 <g transform="translate(-4.1484 17.892)">
  <path d="m8.8145-5.537s-0.19283-0.13005-0.19283-0.19731c0-0.067264 0.5286-1.9107 0.58567-2.0122 0.057077-0.10147 6.1025-6.1025 6.1025-6.1025s0.27603-0.21726 0.44643-0.08272c0.17041 0.13453 0.74406 0.74406 0.74406 0.74406z" fill="url(#linearGradient1011)"/>
  <path d="m8.8145-5.537s0.13005 0.19283 0.19731 0.19283c0.067264 0 1.9107-0.5286 2.0122-0.58567 0.10147-0.057077 6.1025-6.1025 6.1025-6.1025s0.21725-0.27603 0.08272-0.44643c-0.13453-0.17041-0.74406-0.74406-0.74406-0.74406z" fill="url(#linearGradient1013)"/>
 </g>
 <circle cx="-333.87" cy="-322.21" r="0" fill="#5e4aa6" stroke-width=".26458"/>
 <g transform="translate(21.713,6.177)" fill="#5e4aa6" stroke-width=".26458">
  <circle cx="-330.35" cy="-328.38" r="0"/>
  <circle cx="-312.11" cy="-326.25" r="0"/>
  <circle cx="-306.02" cy="-333.07" r="0"/>
  <circle cx="-308.84" cy="-326.01" r="0"/>
 </g>
</svg>
