<?xml version="1.0" encoding="UTF-8"?>
<svg width="64" height="64" version="1.1" viewBox="0 0 16.933 16.933" xmlns="http://www.w3.org/2000/svg" xmlns:cc="http://creativecommons.org/ns#" xmlns:dc="http://purl.org/dc/elements/1.1/" xmlns:rdf="http://www.w3.org/1999/02/22-rdf-syntax-ns#">
 <metadata>
  <rdf:RDF>
   <cc:Work rdf:about="">
    <dc:format>image/svg+xml</dc:format>
    <dc:type rdf:resource="http://purl.org/dc/dcmitype/StillImage"/>
    <dc:title/>
   </cc:Work>
  </rdf:RDF>
 </metadata>
 <defs>
  <filter id="filter843" x="-.024" y="-.024" width="1.048" height="1.048" color-interpolation-filters="sRGB">
   <feGaussianBlur stdDeviation="0.15874688"/>
  </filter>
 </defs>
 <circle cx="8.4665" cy="8.4665" r="7.9373" filter="url(#filter843)" opacity=".25" stroke-width="1.07" style="paint-order:stroke markers fill"/>
 <circle cx="8.4665" cy="8.4665" r="7.9373" fill="#313642" stroke-width="1.07" style="paint-order:stroke markers fill"/>
 <g transform="matrix(1 0 0 1 16.159 -1.574)" stroke-width=".29398">
  <path d="m-9.6765 12.025a1.9843 1.9843 0 0 0-1.9843 1.9843 1.9843 1.9843 0 0 0 1.9843 1.9843 1.9843 1.9843 0 0 0 1.9843-1.9843v-1.9843z" fill="#09c37b"/>
  <path d="m-9.6765 8.0561h1.9843v3.9687h-1.9843c-1.0993 0-1.9843-0.88502-1.9843-1.9843 0-1.0993 0.88501-1.9843 1.9843-1.9843z" fill="#9154dd"/>
  <circle cx="-5.7079" cy="10.04" r="1.9843" fill="#01b1f8"/>
  <path d="m-9.6765 4.0874c-1.0993 0-1.9843 0.88501-1.9843 1.9843 0 1.0993 0.88501 1.9843 1.9843 1.9843h1.9843v-3.9687z" fill="#f24e1e"/>
  <path d="m-7.6922 4.0874h1.9843c1.0993 0 1.9843 0.88501 1.9843 1.9843 0 1.0993-0.88501 1.9843-1.9843 1.9843h-1.9843z" fill="#ff7262"/>
 </g>
</svg>
