<?xml version="1.0" encoding="UTF-8"?>
<!-- Created with Inkscape (http://www.inkscape.org/) -->
<svg width="64" height="64" version="1.1" viewBox="0 0 16.933 16.933" xmlns="http://www.w3.org/2000/svg" xmlns:cc="http://creativecommons.org/ns#" xmlns:dc="http://purl.org/dc/elements/1.1/" xmlns:rdf="http://www.w3.org/1999/02/22-rdf-syntax-ns#" xmlns:xlink="http://www.w3.org/1999/xlink">
 <defs>
  <filter id="filter11290-3" x="-.024" y="-.024" width="1.048" height="1.048" color-interpolation-filters="sRGB">
   <feGaussianBlur stdDeviation="0.15875313"/>
  </filter>
  <linearGradient id="linearGradient1006" x1=".73911" x2="16.388" y1="16.296" y2=".64687" gradientTransform="translate(-.03491 .0064999)" gradientUnits="userSpaceOnUse">
   <stop stop-color="#dddfe1" offset="0"/>
   <stop stop-color="#f3f4f6" offset="1"/>
  </linearGradient>
 </defs>
 <metadata>
  <rdf:RDF>
   <cc:Work rdf:about="">
    <dc:format>image/svg+xml</dc:format>
    <dc:type rdf:resource="http://purl.org/dc/dcmitype/StillImage"/>
    <dc:title/>
   </cc:Work>
  </rdf:RDF>
 </metadata>
 <circle cx="8.4665" cy="8.4665" r="7.9377" filter="url(#filter11290-3)" opacity=".25" stroke-width=".14032"/>
 <path d="m16.404 8.4664c0 0.95154-0.16749 1.8639-0.47464 2.7094-0.21351 0.58768-0.49439 1.1433-0.83393 1.6572-0.14222 0.21608-0.29514 0.42475-0.45746 0.62529-0.51966 0.64179-1.1372 1.2007-1.8305 1.6543-0.2553 0.16718-0.52065 0.3201-0.79536 0.45712-1.0668 0.53389-2.2711 0.83421-3.5456 0.83421s-2.4788-0.30032-3.5456-0.83424c-0.27474-0.13705-0.5404-0.28997-0.7957-0.45712-0.70207-0.45973-1.327-1.0274-1.8509-1.6798-0.16263-0.20216-0.31524-0.41275-0.45746-0.63078-0.33046-0.5054-0.60421-1.0507-0.8135-1.627-0.30711-0.84529-0.4743-1.7573-0.4743-2.7085 0-4.3838 3.5537-7.9375 7.9375-7.9375 2.2005 0 4.1917 0.89548 5.6295 2.3417 0.41436 0.41662 0.78274 0.87929 1.0963 1.3795 0.29645 0.47107 0.54428 0.97582 0.73704 1.5068 0.30718 0.84559 0.47467 1.7579 0.47467 2.7094z" fill="url(#linearGradient1006)" stroke-width=".031006"/>
 <g fill="#5e4aa6" stroke-width=".26458">
  <circle cx="-330.35" cy="-328.38" r="0"/>
  <circle cx="-312.11" cy="-326.25" r="0"/>
  <circle cx="-306.02" cy="-333.07" r="0"/>
  <circle cx="-308.84" cy="-326.01" r="0"/>
 </g>
 <path d="m7.7827 11.51-0.44574-1.465h-2.2464l-0.4471 1.4663h-1.4065l2.1744-6.186h1.5968l2.1825 6.186h-1.4079m-0.7583-2.5617c-0.41313-1.3291-0.64551-2.0792-0.69851-2.2559a7.083 7.083 0 0 1-0.11008-0.41177c-0.09241 0.36013-0.35877 1.2489-0.79636 2.6677h1.6049m5.8273 2.5603-0.24869-0.63872h-0.03262c-0.21744 0.27179-0.44031 0.46205-0.66997 0.56805-0.22831 0.10464-0.52592 0.15628-0.8942 0.15628-0.45118 0-0.80859-0.1291-1.0695-0.38731-0.2582-0.2582-0.38731-0.62648-0.38731-1.1048 0-0.5001 0.17395-0.86702 0.52185-1.1035 0.35061-0.23918 0.87925-0.371 1.5846-0.39546l0.81674-0.02718v-0.2052c0-0.477-0.24462-0.71618-0.73384-0.71618-0.37508 0-0.8181 0.11415-1.3264 0.3411l-0.42535-0.86838a3.8296 3.8296 0 0 1 1.8034-0.42536c0.63192 0 1.1171 0.13726 1.4541 0.41313 0.33702 0.27587 0.50554 0.69307 0.50554 1.2557v3.1392h-0.89692m-0.38051-2.1825-0.49602 0.01631c-0.37372 0.01087-0.65231 0.07882-0.83441 0.20249-0.18346 0.12367-0.27451 0.31256-0.27451 0.56533 0 0.36149 0.20792 0.54359 0.62377 0.54359 0.29762 0 0.53543-0.08697 0.7121-0.2582a0.89964 0.89964 0 0 0 0.26908-0.6822v-0.38731" font-size="24" font-weight="700" letter-spacing="0" opacity=".6" stroke-width="1.0002" word-spacing="0"/>
 <g transform="translate(21.785 -4.155)" fill="#5e4aa6" stroke-width=".26458">
  <circle cx="-330.35" cy="-328.38" r="0"/>
  <circle cx="-312.11" cy="-326.25" r="0"/>
  <circle cx="-306.02" cy="-333.07" r="0"/>
  <circle cx="-308.84" cy="-326.01" r="0"/>
 </g>
</svg>
