<?xml version="1.0" encoding="UTF-8"?>
<!-- Created with Inkscape (http://www.inkscape.org/) -->
<svg width="64" height="64" version="1.1" viewBox="0 0 16.933 16.933" xmlns="http://www.w3.org/2000/svg" xmlns:cc="http://creativecommons.org/ns#" xmlns:dc="http://purl.org/dc/elements/1.1/" xmlns:rdf="http://www.w3.org/1999/02/22-rdf-syntax-ns#" xmlns:xlink="http://www.w3.org/1999/xlink">
 <defs>
  <filter id="filter11290" x="-.024" y="-.024" width="1.048" height="1.048" color-interpolation-filters="sRGB">
   <feGaussianBlur stdDeviation="0.15875313"/>
  </filter>
  <linearGradient id="linearGradient1122" x1="3.1053" x2="13.829" y1="8.326" y2="8.326" gradientTransform="translate(.58664 .29502)" gradientUnits="userSpaceOnUse">
   <stop stop-color="#96aab4" offset="0"/>
   <stop stop-color="#a0b4c3" offset="1"/>
  </linearGradient>
  <filter id="filter1272" x="-.18" y="-.18" width="1.36" height="1.36" color-interpolation-filters="sRGB">
   <feGaussianBlur stdDeviation="0.32461313"/>
  </filter>
  <linearGradient id="linearGradient865" x1="3.6611" x2="13.274" y1="8.3261" y2="8.3261" gradientTransform="matrix(.9923 0 0 .95498 .6518 .66984)" gradientUnits="userSpaceOnUse">
   <stop stop-color="#3c505f" offset="0"/>
   <stop stop-color="#c3e6ff" offset="1"/>
  </linearGradient>
  <linearGradient id="linearGradient1057" x1=".98655" x2="16.135" y1="16.137" y2=".98882" gradientUnits="userSpaceOnUse">
   <stop stop-color="#96aab4" offset="0"/>
   <stop stop-color="#a0b4c3" offset="1"/>
  </linearGradient>
 </defs>
 <metadata>
  <rdf:RDF>
   <cc:Work rdf:about="">
    <dc:format>image/svg+xml</dc:format>
    <dc:type rdf:resource="http://purl.org/dc/dcmitype/StillImage"/>
    <dc:title/>
   </cc:Work>
  </rdf:RDF>
 </metadata>
 <circle cx="8.4937" cy="8.46" r="7.9377" filter="url(#filter11290)" opacity=".25" stroke-width=".14032"/>
 <path d="m16.431 8.4599c0 0.95154-0.16749 1.8639-0.47464 2.7094-0.21351 0.58768-0.49439 1.1433-0.83393 1.6572-0.14222 0.21608-0.29514 0.42475-0.45746 0.62529-0.51966 0.64179-1.1372 1.2007-1.8305 1.6543-0.2553 0.16718-0.52065 0.3201-0.79536 0.45712-1.0668 0.53389-2.2711 0.83421-3.5456 0.83421s-2.4788-0.30032-3.5456-0.83424c-0.27474-0.13705-0.5404-0.28997-0.7957-0.45712-0.70207-0.45973-1.327-1.0274-1.8509-1.6798-0.16263-0.20216-0.31524-0.41275-0.45746-0.63078-0.33046-0.5054-0.60421-1.0507-0.8135-1.627-0.30711-0.84529-0.4743-1.7573-0.4743-2.7085 0-4.3838 3.5537-7.9375 7.9375-7.9375 2.2005 0 4.1917 0.89548 5.6295 2.3417 0.41436 0.41662 0.78274 0.87929 1.0963 1.3795 0.29645 0.47107 0.54428 0.97582 0.73704 1.5068 0.30718 0.84559 0.47467 1.7579 0.47467 2.7094z" fill="url(#linearGradient1057)" stroke-width=".031006"/>
 <g fill="#5e4aa6" stroke-width=".26458">
  <circle cx="-330.35" cy="-328.38" r="0"/>
  <circle cx="-312.11" cy="-326.25" r="0"/>
  <circle cx="-306.02" cy="-333.07" r="0"/>
  <circle cx="-308.84" cy="-326.01" r="0"/>
 </g>
 <g transform="translate(-.64529 -.16123)">
  <path d="m6.8899 5.5553h4.328c1.6862 0 3.0658 1.3796 3.0658 3.0658s-1.3796 3.0658-3.0658 3.0658h-4.328c-1.6862 0-3.0658-1.3796-3.0658-3.0658s1.3796-3.0658 3.0658-3.0658z" fill="url(#linearGradient1122)" stroke="#41555f" stroke-width=".13229"/>
  <path d="m7.0805 5.9305h3.9468c1.5377 0 2.7958 1.2108 2.7958 2.6906s-1.2581 2.6906-2.7958 2.6906h-3.9468c-1.5377 0-2.7958-1.2108-2.7958-2.6906s1.2581-2.6906 2.7958-2.6906z" fill="url(#linearGradient865)"/>
  <circle transform="matrix(1.1219 0 0 1.1219 -.70916 -.71988)" cx="10.631" cy="8.3261" r="2.1641" fill="#465a64" filter="url(#filter1272)" stroke-width="2.8283"/>
  <circle cx="11.218" cy="8.6211" r="2.6207" fill="#fff" stroke-width="3.4251"/>
  <circle cx="11.225" cy="8.64" r="1.9612" fill="#9fb3c2" stroke-width=".32039" style="paint-order:stroke markers fill"/>
 </g>
</svg>
