<?xml version="1.0" encoding="UTF-8"?>
<!-- Created with Inkscape (http://www.inkscape.org/) -->
<svg width="64" height="64" version="1.1" viewBox="0 0 16.933 16.933" xmlns="http://www.w3.org/2000/svg" xmlns:cc="http://creativecommons.org/ns#" xmlns:dc="http://purl.org/dc/elements/1.1/" xmlns:rdf="http://www.w3.org/1999/02/22-rdf-syntax-ns#" xmlns:xlink="http://www.w3.org/1999/xlink">
 <defs>
  <filter id="filter11290" x="-.024" y="-.024" width="1.048" height="1.048" color-interpolation-filters="sRGB">
   <feGaussianBlur stdDeviation="0.15875313"/>
  </filter>
  <linearGradient id="linearGradient1005" x1=".73911" x2="16.388" y1="16.296" y2=".64687" gradientTransform="translate(-.0078552 -5.0139e-5)" gradientUnits="userSpaceOnUse">
   <stop stop-color="#dddfe1" offset="0"/>
   <stop stop-color="#f3f4f6" offset="1"/>
  </linearGradient>
 </defs>
 <metadata>
  <rdf:RDF>
   <cc:Work rdf:about="">
    <dc:format>image/svg+xml</dc:format>
    <dc:type rdf:resource="http://purl.org/dc/dcmitype/StillImage"/>
    <dc:title/>
   </cc:Work>
  </rdf:RDF>
 </metadata>
 <circle cx="8.4937" cy="8.46" r="7.9377" filter="url(#filter11290)" opacity=".25" stroke-width=".14032"/>
 <path d="m16.431 8.4599c0 0.95154-0.16749 1.8639-0.47464 2.7094-0.21351 0.58768-0.49439 1.1433-0.83393 1.6572-0.14222 0.21608-0.29514 0.42475-0.45746 0.62529-0.51966 0.64179-1.1372 1.2007-1.8305 1.6543-0.2553 0.16718-0.52065 0.3201-0.79536 0.45712-1.0668 0.53389-2.2711 0.83421-3.5456 0.83421s-2.4788-0.30032-3.5456-0.83424c-0.27474-0.13705-0.5404-0.28997-0.7957-0.45712-0.70207-0.45973-1.327-1.0274-1.8509-1.6798-0.16263-0.20216-0.31524-0.41275-0.45746-0.63078-0.33046-0.5054-0.60421-1.0507-0.8135-1.627-0.30711-0.84529-0.4743-1.7573-0.4743-2.7085 0-4.3838 3.5537-7.9375 7.9375-7.9375 2.2005 0 4.1917 0.89548 5.6295 2.3417 0.41436 0.41662 0.78274 0.87929 1.0963 1.3795 0.29645 0.47107 0.54428 0.97582 0.73704 1.5068 0.30718 0.84559 0.47467 1.7579 0.47467 2.7094z" fill="url(#linearGradient1005)" stroke-width=".031006"/>
 <g fill="#5e4aa6">
  <g stroke-width=".26458">
   <circle cx="-330.35" cy="-328.38" r="0"/>
   <circle cx="-312.11" cy="-326.25" r="0"/>
   <circle cx="-306.02" cy="-333.07" r="0"/>
   <circle cx="-308.84" cy="-326.01" r="0"/>
  </g>
  <circle cx="-298.82" cy="-353.17" r="0" stroke-width=".26458"/>
  <g transform="translate(10.272 -16.531)" stroke-width=".26458">
   <circle cx="-330.35" cy="-328.38" r="0"/>
   <circle cx="-39.434" cy="6.44" r="0" fill-rule="evenodd"/>
   <circle cx="-306.9" cy="-332.28" r="0"/>
  </g>
 </g>
 <g transform="translate(-31.435 9.1321)">
  <g transform="translate(31.175 -8.8516)" fill="#d2d2d2" stroke-width=".27968">
   <rect x="3.4395" y="2.8656" width=".55937" height=".55937" rx=".41953" ry=".41953"/>
   <rect x="13.508" y="2.8656" width=".55937" height=".55937" rx=".41953" ry=".41953"/>
   <rect x="13.508" y="12.934" width=".55937" height=".55937" rx=".41953" ry=".41953"/>
   <rect x="3.4395" y="12.934" width=".55937" height=".55937" rx=".41953" ry=".41953"/>
  </g>
  <g transform="matrix(.018829 0 0 .018829 35.108 -5.4922)">
   <path d="m256 0c-123.11 0-154.63 81.918-154.63 136.44v239.13c0 54.517 31.52 136.44 154.63 136.44s154.63-81.918 154.63-136.44v-239.13c0-54.519-31.52-136.44-154.63-136.44z" fill="#323232"/>
   <path d="m256 270.54c-4.714 0-8.533-3.82-8.533-8.533v-227.88c0-4.714 3.82-8.533 8.533-8.533 4.714 0 8.533 3.82 8.533 8.533v227.88c0 4.714-3.819 8.533-8.533 8.533z" fill="#dcdcdc"/>
   <path d="m256 77.692c-16.651 0-30.151 13.499-30.151 30.151v46.326c0 16.653 13.5 30.151 30.151 30.151s30.151-13.499 30.151-30.151v-46.326c0-16.652-13.5-30.151-30.151-30.151z" fill="#fff"/>
  </g>
 </g>
</svg>
