<?xml version="1.0" encoding="UTF-8"?>
<svg width="64" height="64" version="1.1" viewBox="0 0 64 64" xmlns="http://www.w3.org/2000/svg" xmlns:cc="http://creativecommons.org/ns#" xmlns:dc="http://purl.org/dc/elements/1.1/" xmlns:rdf="http://www.w3.org/1999/02/22-rdf-syntax-ns#" xmlns:xlink="http://www.w3.org/1999/xlink">
 <metadata>
  <rdf:RDF>
   <cc:Work rdf:about="">
    <dc:format>image/svg+xml</dc:format>
    <dc:type rdf:resource="http://purl.org/dc/dcmitype/StillImage"/>
    <dc:title/>
   </cc:Work>
  </rdf:RDF>
 </metadata>
 <defs>
  <linearGradient id="linearGradient856" x1="86.345" x2="97.988" y1="58.765" y2="56.894" gradientTransform="matrix(.35581 0 0 .35581 8.1505 10.15)" gradientUnits="userSpaceOnUse">
   <stop offset="0"/>
   <stop stop-opacity=".054902" offset=".8249"/>
   <stop stop-opacity=".027451" offset=".90864"/>
   <stop stop-opacity=".019608" offset=".92884"/>
   <stop stop-opacity=".011765" offset=".95191"/>
   <stop stop-opacity="0" offset="1"/>
  </linearGradient>
  <linearGradient id="linearGradient1006" x1=".73911" x2="16.388" y1="16.296" y2=".64687" gradientTransform="matrix(3.7796 0 0 3.7796 -.13215 .024756)" gradientUnits="userSpaceOnUse">
   <stop stop-color="#dddfe1" offset="0"/>
   <stop stop-color="#f3f4f6" offset="1"/>
  </linearGradient>
  <filter id="filter11290-3" x="-.024" y="-.024" width="1.048" height="1.048" color-interpolation-filters="sRGB">
   <feGaussianBlur stdDeviation="0.15875313"/>
  </filter>
 </defs>
 <linearGradient id="a" x1="509.48" x2="452.97" y1="103.96" y2="191.84" gradientTransform="matrix(5.2904 6e-8 -6e-8 5.2904 -2379.8 -500.04)" gradientUnits="userSpaceOnUse">
  <stop stop-color="#dc412d" offset="0"/>
  <stop stop-color="#c33737" offset="1"/>
 </linearGradient>
 <circle transform="scale(3.7796)" cx="8.4665" cy="8.4665" r="7.9377" filter="url(#filter11290-3)" opacity=".25" stroke-width=".14032"/>
 <path d="m62 32c0 3.5964-0.63304 7.0448-1.794 10.24-0.80698 2.2212-1.8686 4.3212-3.1519 6.2636-0.53754 0.8167-1.1155 1.6054-1.729 2.3633-1.9641 2.4257-4.2982 4.5382-6.9186 6.2526-0.96493 0.63187-1.9678 1.2098-3.0061 1.7277-4.0321 2.0179-8.5839 3.153-13.401 3.153-4.8171 0-9.3689-1.1351-13.401-3.1531-1.0384-0.518-2.0425-1.096-3.0074-1.7277-2.6535-1.7376-5.0155-3.8832-6.9957-6.349-0.61468-0.76408-1.1915-1.56-1.729-2.3841-1.249-1.9102-2.2837-3.9712-3.0747-6.1494-1.1608-3.1949-1.7927-6.6419-1.7927-10.237 0-16.569 13.432-30.001 30.001-30.001 8.317 0 15.843 3.3846 21.277 8.8507 1.5661 1.5747 2.9584 3.3234 4.1436 5.214 1.1205 1.7805 2.0572 3.6882 2.7857 5.6951 1.161 3.196 1.7941 6.6442 1.7941 10.24z" fill="url(#linearGradient1006)" stroke-width=".11719"/>
 <g transform="matrix(.089182 0 0 .089182 9.31 10.323)">
  <rect transform="rotate(3.9056)" x="292.9" y="4.1388" width="195.15" height="411.66" ry="25.079" fill="#d22a2a"/>
  <path transform="rotate(3.9056)" d="m290.88 24.843h176.12v367.26h-176.12z" fill="#eeeff1"/>
  <path d="m396.26 86.68c32.415 8.4911 51.825 41.609 43.334 74.022l-58.697-15.376c0.0122 3e-3 15.375-58.643 15.363-58.646zm-20.677 11.627-15.376 58.699 58.697 15.376c-8.5008 32.452-41.646 51.816-74.073 43.321-32.427-8.4943-51.797-41.615-43.297-74.067 8.4943-32.427 41.634-51.82 74.049-43.329z" fill="#d22a2a" stroke-width="15.962"/>
  <path d="m310.81 276.51-1.6112 17.928 106.84 9.6017 1.6112-17.928zm6.9034 59.364-1.6112 17.928 94.696 8.5106 1.6112-17.928z" fill="#d22a2a"/>
  <path transform="rotate(-8.6391)" d="m16.549 49.945h298.99v464.95h-298.99z" fill="url(#a)"/>
  <text transform="rotate(-7.9784)" x="146.20186" y="374.68011" fill="#ffffff" font-family="'TeX Gyre Heros Cn'" font-size="242px" font-stretch="condensed" font-weight="bold" letter-spacing="0" stroke-width="2.5208" word-spacing="0"><tspan x="146.20186" y="374.68011" stroke-width="2.5208">I</tspan></text>
 </g>
 <path d="m38.127 12.656 5.6492 37.184 4.1988 0.28701c1.2362 0.0844 2.2993-0.84305 2.3837-2.0793l2.196-32.165c0.0844-1.2362-0.84305-2.2993-2.0793-2.3837z" fill="url(#linearGradient856)"/>
</svg>
