<?xml version="1.0" encoding="UTF-8"?>
<svg width="64" height="64" version="1.1" viewBox="0 0 64 64" xmlns="http://www.w3.org/2000/svg" xmlns:cc="http://creativecommons.org/ns#" xmlns:dc="http://purl.org/dc/elements/1.1/" xmlns:rdf="http://www.w3.org/1999/02/22-rdf-syntax-ns#" xmlns:xlink="http://www.w3.org/1999/xlink">
 <metadata>
  <rdf:RDF>
   <cc:Work rdf:about="">
    <dc:format>image/svg+xml</dc:format>
    <dc:type rdf:resource="http://purl.org/dc/dcmitype/StillImage"/>
    <dc:title/>
   </cc:Work>
  </rdf:RDF>
 </metadata>
 <defs>
  <linearGradient id="b-3" x1="410.79" x2="410.79" y1="546.47" y2="501.28" gradientTransform="matrix(1.3182 0 0 1.3182 -506.82 -658.63)" gradientUnits="userSpaceOnUse">
   <stop stop-color="#cfdef0" offset="0"/>
   <stop stop-color="#f5faff" offset="1"/>
  </linearGradient>
  <linearGradient id="linearGradient888" x1="98.271" x2="98.271" y1="43.089" y2="-52.753" gradientUnits="userSpaceOnUse" xlink:href="#b-3"/>
  <linearGradient id="linearGradient901" x1="410.79" x2="410.79" y1="546.47" y2="501.28" gradientTransform="matrix(1.3182 0 0 1.3182 -506.51 -658.51)" gradientUnits="userSpaceOnUse" xlink:href="#b-3"/>
  <linearGradient id="linearGradient1004" x1="418.14" x2="386.16" y1="501.33" y2="546.52" gradientTransform="matrix(1.3182 0 0 1.3182 -506.51 -658.51)" gradientUnits="userSpaceOnUse">
   <stop stop-color="#006ec8" offset="0"/>
   <stop stop-color="#0050a5" offset="1"/>
  </linearGradient>
  <filter id="filter1047" x="-.014142" y="-.010421" width="1.0283" height="1.0208" color-interpolation-filters="sRGB">
   <feGaussianBlur stdDeviation="0.25616634"/>
  </filter>
  <linearGradient id="linearGradient1089" x1="121.64" x2="137.18" y1="34.339" y2="31.042" gradientTransform="matrix(.9905 0 0 .9515 .88626 2.4434)" gradientUnits="userSpaceOnUse">
   <stop offset="0"/>
   <stop stop-opacity=".054902" offset=".7761"/>
   <stop stop-opacity=".027451" offset=".91316"/>
   <stop stop-opacity=".019608" offset=".9324"/>
   <stop stop-opacity=".011765" offset=".9501"/>
   <stop stop-opacity="0" offset="1"/>
  </linearGradient>
 </defs>
 <filter id="b" x="-.29025" y="-.31562" width="1.5805" height="1.6312" color-interpolation-filters="sRGB">
  <feGaussianBlur stdDeviation="23.878758"/>
 </filter>
 <g transform="matrix(3.7796 0 0 3.7796 179.79 .19278)" fill="#5e4aa6" stroke-width=".26458">
  <circle cx="-330.35" cy="-328.38" r="0"/>
  <circle cx="-312.11" cy="-326.25" r="0"/>
  <circle cx="-306.02" cy="-333.07" r="0"/>
  <circle cx="-308.84" cy="-326.01" r="0"/>
 </g>
 <rect x="2.5201" y="2.3337" width="59.576" height="59.576" ry="29.788" fill="url(#linearGradient901)" stroke-width="1.0044"/>
 <g transform="matrix(.42676 0 0 .42676 -.57327 33.746)" stroke-width=".25065">
  <rect transform="rotate(3.9056)" x="72.334" y="-62.565" width="48.913" height="103.18" ry="6.286" fill="#0064be"/>
  <path d="m75.57-52.35 44.041 3.0067-6.2699 91.838-44.041-3.0067z" fill="url(#linearGradient888)"/>
  <path d="m75.23-47.392-0.32633 5.2937 37.929 2.3438 0.32891-5.2937zm-0.76401 12.359-0.32633 5.2937 37.929 2.3438 0.32891-5.2937zm-0.76142 12.359-0.32892 5.2937 37.931 2.3438 0.32632-5.2937zm-0.764 12.356-0.32892 5.2937 37.931 2.3438 0.32632-5.2937zm-0.76402 12.359-0.32632 5.2937 37.929 2.3438 0.32633-5.2937zm-0.76401 12.359-0.32632 5.2937 37.929 2.3438 0.32634-5.2937zm-0.76401 12.356-0.32632 5.2937 37.929 2.3438 0.32892-5.2937z" fill="#0064be"/>
 </g>
 <path transform="matrix(1.0001 0 0 .99488 -90.785 .18389)" d="m123.85 2.4824c-16.938 0.086086-30.551 13.197-30.551 29.489 0 0.19459 0.01161 0.38615 0.01548 0.57982 0.32029-15.379 13.264-27.664 29.332-27.746 0.16667 0.050165 0.35914 0.035626 0.51848 0.10035 0.6516 0.26471 1.2387 0.64725 1.7314 1.1206 0.49277 0.47336 0.89098 1.0373 1.1665 1.6633 0.27558 0.62595 0.42754 1.3143 0.42754 2.0368v19.952c0 1.0057 0.30628 1.964 0.84928 2.7764 0.543 0.81248 1.3237 1.4786 2.2751 1.8974l3.1243 1.3752c0.70702 0.31142 1.2879 0.80687 1.6908 1.4105 0.40294 0.60365 0.62872 1.3161 0.62872 2.0628v18.564c0 0.43909-0.11725 0.84498-0.25923 1.2377-3.5018 1.4946-7.3474 2.3823-11.418 2.4605 0.2106 4e-3 0.41902 0.01487 0.63067 0.01487 4.4616 0 8.6693-0.94795 12.488-2.5776 0.14781-0.4088 0.27085-0.83078 0.27085-1.2879v-19.324c0-0.77734-0.23637-1.5199-0.65584-2.1483-0.41945-0.62838-1.0245-1.1439-1.7605-1.4681l-3.252-1.431c-0.99035-0.43599-1.8027-1.1297-2.3679-1.9755-0.56526-0.84578-0.8841-1.8429-0.8841-2.8898v-20.769c0-0.75209-0.1581-1.4688-0.44495-2.1204-0.28686-0.6516-0.70198-1.2393-1.2149-1.732-0.51297-0.49276-1.1228-0.88966-1.8011-1.1652-0.16587-0.067379-0.36627-0.053707-0.53976-0.10593z" fill="url(#linearGradient1089)" filter="url(#filter1047)" stroke-width="1.015"/>
 <path d="m44.419 59.309c0.14334-0.41272 0.26172-0.83931 0.26172-1.3008v-19.51c0-0.7848-0.22795-1.5335-0.63476-2.168-0.40682-0.63442-0.99323-1.1551-1.707-1.4824l-3.1543-1.4453c-0.96049-0.44017-1.7487-1.1402-2.2969-1.9941s-0.85742-1.861-0.85742-2.918v-20.969c0-0.75931-0.15343-1.4828-0.43164-2.1406-0.27821-0.65786-0.68024-1.2506-1.1777-1.748-0.4975-0.49749-1.0902-0.89953-1.748-1.1777-0.16086-0.068026-0.35518-0.052746-0.52344-0.10547-16.427 0.086914-29.629 13.323-29.629 29.771 0 16.503 13.285 29.789 29.787 29.789 4.3271 0 8.4081-0.95627 12.111-2.6016z" fill="url(#linearGradient1004)" stroke-width="1.0044"/>
 <path d="m26.425 28.418-2.1002 8.4134-2.5814-8.8312-2.39 0.0337-2.3249 8.891-2.3985-8.5636-2.6298-0.062026 3.8747 13.701 2.3943-0.01978 2.3506-8.9887 2.5845 8.845 2.3904-0.03628 3.4055-13.499z" fill="#fff" stroke-width=".085083"/>
</svg>
