<?xml version="1.0" encoding="UTF-8"?>
<svg width="64" height="64" version="1.1" viewBox="0 0 64 64" xmlns="http://www.w3.org/2000/svg" xmlns:cc="http://creativecommons.org/ns#" xmlns:dc="http://purl.org/dc/elements/1.1/" xmlns:rdf="http://www.w3.org/1999/02/22-rdf-syntax-ns#">
 <metadata>
  <rdf:RDF>
   <cc:Work rdf:about="">
    <dc:format>image/svg+xml</dc:format>
    <dc:type rdf:resource="http://purl.org/dc/dcmitype/StillImage"/>
    <dc:title/>
   </cc:Work>
  </rdf:RDF>
 </metadata>
 <defs>
  <linearGradient id="d" x1="32" x2="32" y1="2" y2="62" gradientUnits="userSpaceOnUse">
   <stop stop-opacity="0" offset="0"/>
   <stop offset="1"/>
  </linearGradient>
  <linearGradient id="c" x1="32" x2="32" y1="2" y2="62" gradientUnits="userSpaceOnUse">
   <stop stop-color="#41d78c" offset="0"/>
   <stop stop-color="#40e89b" offset=".22539"/>
   <stop stop-color="#23c373" offset=".22539"/>
   <stop stop-color="#2cbc76" offset=".46111"/>
   <stop stop-color="#1e965a" offset=".4626"/>
   <stop stop-color="#318356" offset=".75644"/>
   <stop stop-color="#235032" offset=".75644"/>
   <stop stop-color="#284b37" offset="1"/>
  </linearGradient>
  <linearGradient id="b" x1="13.5" x2="13.5" y1="2.8633" y2="47.359" gradientUnits="userSpaceOnUse">
   <stop stop-color="#23824e" offset="0"/>
   <stop stop-color="#32925b" offset="1"/>
  </linearGradient>
  <linearGradient id="f" x1="45" x2="45" y1="27" y2="63" gradientUnits="userSpaceOnUse">
   <stop stop-color="#238c50" offset="0"/>
   <stop stop-color="#32965a" offset="1"/>
  </linearGradient>
  <filter id="filter1074" x="-.024" y="-.024" width="1.048" height="1.048" color-interpolation-filters="sRGB">
   <feGaussianBlur stdDeviation="0.6"/>
  </filter>
 </defs>
 <g fill-rule="evenodd">
  <circle cx="32" cy="32" r="30" filter="url(#filter1074)" opacity=".25" style="paint-order:stroke fill markers"/>
  <circle cx="32" cy="32" r="30" fill="url(#c)" style="paint-order:stroke fill markers"/>
  <circle cx="32" cy="32" r="30" fill="url(#d)" opacity=".15" style="paint-order:stroke fill markers"/>
  <circle cx="45" cy="45" r="18" fill="url(#f)" style="paint-order:stroke fill markers"/>
 </g>
 <path d="m35.367 35 6.9866 9.9983-6.9866 10.002h5.2964l4.3367-6.2095 4.3367 6.2095h5.2964l-6.9865-10.002 6.9865-9.9983h-5.2964l-4.3367 6.2095-4.3367-6.2095z" fill="#fff"/>
 <path d="m25 2.8633a30 30 0 0 0-23 29.137 30 30 0 0 0 4.2676 15.359h18.732v-44.496z" fill="url(#b)" fill-rule="evenodd" opacity=".6" style="paint-order:stroke fill markers"/>
 <g transform="matrix(3.7796 0 0 3.7796 88.581 28.586)" fill="#5e4aa6" stroke-width=".26458">
  <circle cx="-330.35" cy="-328.38" r="0"/>
  <circle cx="-312.11" cy="-326.25" r="0"/>
  <circle cx="-306.02" cy="-333.07" r="0"/>
  <circle cx="-308.84" cy="-326.01" r="0"/>
 </g>
</svg>
