<?xml version="1.0" encoding="UTF-8"?>
<svg width="64" height="64" version="1.1" viewBox="0 0 64 64" xmlns="http://www.w3.org/2000/svg" xmlns:cc="http://creativecommons.org/ns#" xmlns:dc="http://purl.org/dc/elements/1.1/" xmlns:rdf="http://www.w3.org/1999/02/22-rdf-syntax-ns#">
 <metadata>
  <rdf:RDF>
   <cc:Work rdf:about="">
    <dc:format>image/svg+xml</dc:format>
    <dc:type rdf:resource="http://purl.org/dc/dcmitype/StillImage"/>
    <dc:title/>
   </cc:Work>
  </rdf:RDF>
 </metadata>
 <defs>
  <linearGradient id="d" x1="32" x2="32" y1="2" y2="62" gradientTransform="translate(2.9165e-6)" gradientUnits="userSpaceOnUse">
   <stop stop-opacity="0" offset="0"/>
   <stop offset="1"/>
  </linearGradient>
  <linearGradient id="f" x1="13.481" x2="89.94" y1="102.42" y2="124.94" gradientTransform="matrix(-.65446 .00063706 .00063706 .65446 70.768 -24.103)" gradientUnits="userSpaceOnUse">
   <stop stop-color="#0f87c8" offset="0"/>
   <stop stop-color="#1ea5f0" offset="1"/>
  </linearGradient>
  <linearGradient id="c" x1="97.368" x2="99.202" y1="101.32" y2="97.035" gradientTransform="matrix(-.64638 .10253 .10253 .64638 70.769 -24.103)" gradientUnits="userSpaceOnUse">
   <stop offset="0"/>
   <stop stop-opacity="0" offset="1"/>
  </linearGradient>
  <linearGradient id="b" x1="45" x2="45" y1="27" y2="63" gradientTransform="translate(1.9184e-6)" gradientUnits="userSpaceOnUse">
   <stop stop-color="#004196" offset="0"/>
   <stop stop-color="#0564d2" offset="1"/>
  </linearGradient>
  <linearGradient id="a" x1="32" x2="32" y1="2" y2="62" gradientTransform="translate(-2.0586e-6)" gradientUnits="userSpaceOnUse">
   <stop stop-color="#37cdff" offset="0"/>
   <stop stop-color="#30c9fd" offset=".22539"/>
   <stop stop-color="#1ea5ff" offset=".22539"/>
   <stop stop-color="#1aa7f4" offset=".46111"/>
   <stop stop-color="#0f50b4" offset=".46111"/>
   <stop stop-color="#3366b7" offset=".75362"/>
   <stop stop-color="#005fb4" offset=".75362"/>
   <stop stop-color="#28468c" offset="1"/>
  </linearGradient>
  <filter id="filter902" x="-.024" y="-.024" width="1.048" height="1.048" color-interpolation-filters="sRGB">
   <feGaussianBlur stdDeviation="0.6"/>
  </filter>
 </defs>
 <circle cx="32" cy="32" r="30" fill-rule="evenodd" filter="url(#filter902)" opacity=".25" style="paint-order:stroke fill markers"/>
 <circle cx="32" cy="32" r="30" fill="url(#a)" fill-rule="evenodd" style="paint-order:stroke fill markers"/>
 <path d="m2.906 24.912 48.592 29.895a30 30 0 0 1-19.436 7.1914h-0.09375a30 30 0 0 1-29.945-29.988v-0.0098a30 30 0 0 1 0-0.01367 30 30 0 0 1 0.88281-7.0742z" fill="#2396e6" style="paint-order:fill markers stroke"/>
 <path d="m61.078 24.682a30 30 0 0 1 0.92188 6.8418v1.1289a30 30 0 0 1-26.494 29.123l-6.7852 0.0078a30 30 0 0 1-16.281-7.1055z" fill="url(#f)" style="paint-order:fill markers stroke"/>
 <path d="m23.281 37.445-16.271 11.119a30 30 0 0 0 5.3887 6.123l19.289-11.926-0.16797-0.24414-8.2383-5.0723z" fill="url(#c)" opacity=".088"/>
 <circle cx="32" cy="32" r="30" fill="url(#d)" fill-rule="evenodd" opacity=".15" style="paint-order:stroke fill markers"/>
 <circle cx="45" cy="45" r="18" fill="url(#b)" fill-rule="evenodd" style="paint-order:stroke fill markers"/>
 <path d="m45.224 34.201c-3.0326 0-5.6143 1.1007-7.4144 3.0418-1.8002 1.9412-2.8097 4.7016-2.8097 7.9628 0 3.1542 0.93409 5.8078 2.6376 7.6746 1.7035 1.8668 4.1679 2.9198 7.0963 2.9198 3.0338 0 5.6246-1.1131 7.4345-3.0638 1.8099-1.9508 2.8317-4.7205 2.8317-7.9828 0-3.1554-0.94711-5.8026-2.6616-7.6586-1.7145-1.856-4.1872-2.8937-7.1143-2.8937zm-0.45027 3.8923c1.7662 0 3.2136 0.70508 4.2546 1.9392 1.041 1.2341 1.667 3.0183 1.667 5.1731 0 2.0787-0.5677 3.7583-1.5249 4.9069-0.95721 1.1487-2.2969 1.7931-3.9864 1.7931-1.7681 0-3.2045-0.69553-4.2345-1.9232-1.0301-1.2276-1.647-3.0094-1.647-5.1871 0-2.1017 0.56061-3.7829 1.5069-4.925s2.273-1.7771 3.9644-1.7771z" fill="#fff"/>
</svg>
