<?xml version="1.0" encoding="UTF-8"?>
<svg id="Apps-Opera" width="64" height="64" enable-background="new 0 0 1024 1024" image-rendering="optimizeSpeed" version="1.1" viewBox="0 0 64 64" xmlns="http://www.w3.org/2000/svg" xmlns:cc="http://creativecommons.org/ns#" xmlns:dc="http://purl.org/dc/elements/1.1/" xmlns:rdf="http://www.w3.org/1999/02/22-rdf-syntax-ns#" xmlns:xlink="http://www.w3.org/1999/xlink">
 <metadata>
  <rdf:RDF>
   <cc:Work rdf:about="">
    <dc:format>image/svg+xml</dc:format>
    <dc:type rdf:resource="http://purl.org/dc/dcmitype/StillImage"/>
    <dc:title/>
   </cc:Work>
  </rdf:RDF>
 </metadata>
 <defs>
  <style type="text/css"/>
  <linearGradient id="e" x1="74.643" x2="83.932" y1="18.269" y2="101.96" gradientUnits="userSpaceOnUse" xlink:href="#a-5"/>
  <linearGradient id="a-5">
   <stop stop-color="#ccc" offset="0"/>
   <stop stop-color="#fff" offset="1"/>
  </linearGradient>
  <linearGradient id="d-3" x1="40.533" x2="37.578" y1="107.5" y2="15.159" gradientUnits="userSpaceOnUse" xlink:href="#a-5"/>
  <filter id="filter11290" x="-.024" y="-.024" width="1.048" height="1.048" color-interpolation-filters="sRGB">
   <feGaussianBlur stdDeviation="0.15875313"/>
  </filter>
  <linearGradient id="linearGradient1005" x1=".8714" x2="16.246" y1="16.164" y2=".78937" gradientTransform="matrix(3.7796 0 0 3.7796 -.13302 .025016)" gradientUnits="userSpaceOnUse">
   <stop stop-color="#00c8ff" offset="0"/>
   <stop stop-color="#14a0ff" offset="1"/>
  </linearGradient>
 </defs>
 <circle transform="matrix(3.7796 0 0 3.7796 1.6204e-5 1.6204e-5)" cx="8.4665" cy="8.4665" r="7.9377" filter="url(#filter11290)" image-rendering="optimizeSpeed" opacity=".25" stroke-width=".14032"/>
 <path d="m62 32c0 3.5964-0.63304 7.0448-1.794 10.24-0.80698 2.2212-1.8686 4.3212-3.1519 6.2636-0.53754 0.8167-1.1155 1.6054-1.729 2.3633-1.9641 2.4257-4.2982 4.5382-6.9186 6.2526-0.96493 0.63187-1.9678 1.2099-3.0061 1.7277-4.0321 2.0179-8.5839 3.153-13.401 3.153s-9.3689-1.1351-13.401-3.1531c-1.0384-0.518-2.0425-1.096-3.0074-1.7277-2.6535-1.7376-5.0155-3.8832-6.9957-6.349-0.61468-0.76408-1.1915-1.56-1.729-2.3841-1.249-1.9102-2.2837-3.9712-3.0747-6.1494-1.1608-3.1949-1.7927-6.6419-1.7927-10.237 0-16.569 13.432-30.001 30.001-30.001 8.317 0 15.843 3.3846 21.277 8.8507 1.5661 1.5747 2.9584 3.3234 4.1436 5.214 1.1205 1.7805 2.0572 3.6882 2.7857 5.6951 1.161 3.196 1.7941 6.6442 1.7941 10.24z" fill="url(#linearGradient1005)" image-rendering="optimizeSpeed" stroke-width=".11719"/>
 <g fill="#5e4aa6">
  <g transform="matrix(3.7796 0 0 3.7796 2.9037 -9.3546)" stroke-width=".26458">
   <circle cx="-330.35" cy="-328.38" r="0"/>
   <circle cx="-312.11" cy="-326.25" r="0"/>
   <circle cx="-306.02" cy="-333.07" r="0"/>
   <circle cx="-308.84" cy="-326.01" r="0"/>
  </g>
  <g transform="matrix(3.7796 0 0 3.7796 2.9037 -9.3546)" stroke-width=".26458">
   <circle cx="-330.35" cy="-328.38" r="0"/>
   <circle cx="-312.11" cy="-326.25" r="0"/>
   <circle cx="-306.02" cy="-333.07" r="0"/>
   <circle cx="-308.84" cy="-326.01" r="0"/>
  </g>
  <circle cx="-1248.1" cy="-1311" r="0"/>
  <g transform="matrix(3.7796 0 0 3.7796 .51016 -69.88)" stroke-width=".26458">
   <circle cx="-299.02" cy="-338.77" r="0"/>
   <circle cx="-8.1062" cy="-3.9487" r="0" fill-rule="evenodd"/>
   <circle cx="-278.25" cy="-357.69" r="0"/>
   <circle cx="12.663" cy="-22.859" r="0" fill-rule="evenodd"/>
  </g>
 </g>
 <g transform="matrix(.43781 0 0 .43781 5.752 5.7313)">
  <path d="m42.84 31.571c4.6462-5.4828 10.653-8.7986 17.204-8.7986 14.745 0 26.698 16.72 26.698 37.331 0 20.621-11.953 37.331-26.698 37.331-6.5612 0-12.558-3.3058-17.204-8.7885 7.2667 9.4336 18.061 15.42 30.125 15.42 7.4178 0 14.362-2.2677 20.298-6.1983 10.371-9.2723 16.892-22.747 16.892-37.754 0-14.997-6.5209-28.482-16.892-37.754-5.9363-3.9407-12.88-6.1983-20.298-6.1983-12.064 0-22.858 5.9867-30.125 15.42" fill="url(#e)"/>
  <path d="m60 9.75c-27.75 0-50.25 22.5-50.25 50.25 0 26.95 21.22 48.94 47.86 50.19 0.8 0.04 1.59 0.06 2.39 0.06 12.87 0 24.6-4.84 33.49-12.79-5.89 3.91-12.78 6.15-20.14 6.15-11.97 0-22.68-5.94-29.89-15.3-5.56-6.56-9.15-16.25-9.4-27.13v-2.37c0.25-10.88 3.84-20.58 9.4-27.13 7.21-9.36 17.93-15.3 29.89-15.3 7.36 0 14.25 2.25 20.14 6.16-8.84-7.91-20.51-12.74-33.3-12.79h-0.19z" fill="url(#d-3)"/>
 </g>
 <g transform="matrix(3.7796 0 0 3.7796 -218.46 -52.261)" fill="#5e4aa6" image-rendering="optimizeSpeed" stroke-width=".26458">
  <circle cx="-347.64" cy="-328.38" r="0"/>
  <circle cx="-56.726" cy="6.44" r="0" fill-rule="evenodd"/>
  <g transform="translate(-.0272 .0065001)">
   <circle cx="-330.35" cy="-328.38" r="0"/>
   <circle cx="-312.11" cy="-326.25" r="0"/>
   <circle cx="-306.02" cy="-333.07" r="0"/>
   <circle cx="-308.84" cy="-326.01" r="0"/>
  </g>
 </g>
 <g transform="matrix(3.7796 0 0 3.7796 -209.35 -45.457)" fill="#5e4aa6" image-rendering="optimizeSpeed" stroke-width=".26458">
  <circle cx="-330.35" cy="-328.38" r="0"/>
  <circle cx="-312.11" cy="-326.25" r="0"/>
  <circle cx="-306.02" cy="-333.07" r="0"/>
  <circle cx="-308.84" cy="-326.01" r="0"/>
 </g>
</svg>
