<?xml version="1.0" encoding="UTF-8" standalone="no"?>
<svg
   xmlns:dc="http://purl.org/dc/elements/1.1/"
   xmlns:cc="http://creativecommons.org/ns#"
   xmlns:rdf="http://www.w3.org/1999/02/22-rdf-syntax-ns#"
   xmlns:svg="http://www.w3.org/2000/svg"
   xmlns="http://www.w3.org/2000/svg"
   xmlns:sodipodi="http://sodipodi.sourceforge.net/DTD/sodipodi-0.dtd"
   xmlns:inkscape="http://www.inkscape.org/namespaces/inkscape"
   width="64"
   height="64"
   version="1.1"
   viewBox="0 0 16.933 16.933"
   id="svg61"
   sodipodi:docname="orca.svg"
   inkscape:version="1.0 (4035a4fb49, 2020-05-01)">
  <sodipodi:namedview
     inkscape:document-rotation="0"
     pagecolor="#ffffff"
     bordercolor="#666666"
     borderopacity="1"
     objecttolerance="10"
     gridtolerance="10"
     guidetolerance="10"
     inkscape:pageopacity="0"
     inkscape:pageshadow="2"
     inkscape:window-width="1920"
     inkscape:window-height="932"
     id="namedview63"
     showgrid="false"
     inkscape:zoom="2.1075097"
     inkscape:cx="-54.240659"
     inkscape:cy="23.866579"
     inkscape:window-x="0"
     inkscape:window-y="36"
     inkscape:window-maximized="1"
     inkscape:current-layer="svg61" />
  <metadata
     id="metadata2">
    <rdf:RDF>
      <cc:Work
         rdf:about="">
        <dc:format>image/svg+xml</dc:format>
        <dc:type
           rdf:resource="http://purl.org/dc/dcmitype/StillImage" />
        <dc:title></dc:title>
      </cc:Work>
    </rdf:RDF>
  </metadata>
  <defs
     id="defs31">
    <clipPath
       id="clipPath6">
      <rect
         width="384"
         height="384"
         id="rect4" />
    </clipPath>
    <clipPath
       id="clipPath10">
      <rect
         width="384"
         height="384"
         id="rect8" />
    </clipPath>
    <clipPath
       id="clipPath14">
      <rect
         width="384"
         height="384"
         id="rect12" />
    </clipPath>
    <clipPath
       id="clipPath18">
      <rect
         width="384"
         height="384"
         id="rect16" />
    </clipPath>
    <clipPath
       id="clipPath22">
      <rect
         width="384"
         height="384"
         id="rect20" />
    </clipPath>
    <linearGradient
       id="linearGradient11422"
       x1="-6.1472"
       x2="-6.1472"
       y1="-137.82"
       y2="-100.78"
       gradientTransform="matrix(0.53033,0,0,0.53033,-21.262437,71.863)"
       gradientUnits="userSpaceOnUse">
      <stop
         stop-color="#32b4ff"
         offset="0"
         id="stop24" />
      <stop
         stop-color="#3287ff"
         offset="1"
         id="stop26" />
    </linearGradient>
    <style
       type="text/css"
       id="style29" />
    <linearGradient
       id="linearGradient11422-6"
       x1="-6.1472"
       x2="-6.1472"
       y1="-137.82"
       y2="-100.78"
       gradientTransform="matrix(2.0044,0,0,2.0044,-39.184632,271.61)"
       gradientUnits="userSpaceOnUse">
      <stop
         stop-color="#32b4ff"
         offset="0"
         id="stop4" />
      <stop
         stop-color="#3287ff"
         offset="1"
         id="stop6" />
    </linearGradient>
    <style
       type="text/css"
       id="style9" />
    <style
       type="text/css"
       id="style11" />
    <style
       id="style865"
       type="text/css" />
    <filter
       color-interpolation-filters="sRGB"
       height="1.048"
       width="1.048"
       y="-.024"
       x="-.024"
       id="filter2761">
      <feGaussianBlur
         id="feGaussianBlur867"
         stdDeviation="0.14552168" />
    </filter>
    <linearGradient
       gradientUnits="userSpaceOnUse"
       gradientTransform="translate(0.30676207,-3.3300072)"
       y2="1.1082"
       y1="15.429"
       x2="15.644"
       x1="1.2573"
       id="linearGradient4673">
      <stop
         id="stop870"
         offset="0"
         stop-color="#32dcff" />
      <stop
         id="stop872"
         offset="1"
         stop-color="#3296ff" />
    </linearGradient>
    <style
       type="text/css"
       id="style884" />
    <filter
       id="filter11290"
       x="-.024"
       y="-.024"
       width="1.048"
       height="1.048"
       color-interpolation-filters="sRGB">
      <feGaussianBlur
         stdDeviation="0.15875313"
         id="feGaussianBlur886" />
    </filter>
    <linearGradient
       id="linearGradient1005"
       x1=".8714"
       x2="16.246"
       y1="16.164"
       y2=".78937"
       gradientTransform="translate(-0.035138,0.00656905)"
       gradientUnits="userSpaceOnUse">
      <stop
         stop-color="#00c8ff"
         offset="0"
         id="stop889" />
      <stop
         stop-color="#14a0ff"
         offset="1"
         id="stop891" />
    </linearGradient>
  </defs>
  <circle
     id="circle908"
     stroke-width="0.14032"
     opacity="0.25"
     filter="url(#filter11290)"
     r="7.9376998"
     cy="8.4665003"
     cx="8.4665003" />
  <path
     id="path910"
     stroke-width="0.0310059"
     fill="url(#linearGradient1005)"
     d="m 16.403949,8.4666189 c 0,0.9515288 -0.167491,1.8639001 -0.474653,2.7092801 -0.213509,0.587681 -0.49439,1.143295 -0.833923,1.657211 -0.142222,0.216081 -0.295137,0.424754 -0.457456,0.625278 -0.519658,0.641787 -1.13721,1.200709 -1.83051,1.654301 -0.2553,0.167179 -0.520637,0.320087 -0.795349,0.457112 -1.066805,0.533892 -2.271112,0.834215 -3.545611,0.834215 -1.274499,0 -2.478806,-0.300323 -3.545611,-0.834241 C 4.646098,15.432723 4.380435,15.279797 4.125143,15.112663 3.423085,14.652932 2.798152,14.085253 2.274234,13.432856 2.111603,13.230697 1.958989,13.020114 1.816779,12.802075 1.486321,12.296678 1.212562,11.751383 1.00328,11.175079 0.696158,10.329778 0.528971,9.4177773 0.528971,8.4665925 c 0,-4.3837948 3.553814,-7.93760815 7.937608,-7.93760815 2.200497,0 4.191712,0.89549105 5.629429,2.34170155 0.414356,0.4166311 0.782728,0.8792989 1.096306,1.3795103 0.29646,0.4710814 0.54429,0.9758171 0.737035,1.5067988 0.307175,0.8455917 0.47468,1.75791 0.47468,2.70928 z"
     style="fill:url(#linearGradient1005)" />
  <circle
     cx="-297.6"
     cy="-338.48"
     r="0"
     fill="#5e4aa6"
     stroke-width=".26458"
     id="circle33" />
  <g
     transform="matrix(1 0 0 1 32.763 -10.103)"
     fill="#5e4aa6"
     stroke-width=".26458"
     id="g47">
    <circle
       cx="-299.02"
       cy="-338.77"
       r="0"
       id="circle39" />
    <circle
       cx="-8.1062"
       cy="-3.9487"
       r="0"
       fill-rule="evenodd"
       id="circle41" />
    <circle
       cx="-278.25"
       cy="-357.69"
       r="0"
       id="circle43" />
    <circle
       cx="12.663"
       cy="-22.859"
       r="0"
       fill-rule="evenodd"
       id="circle45" />
  </g>
  <style
     id="style53"><![CDATA[.B{clip-path:url(#C)}.C{fill:#3e2723}.D{fill-opacity:.15}.E{fill-opacity:.2}]]></style>
  <style
     id="style55"><![CDATA[.B{clip-path:url(#C)}.C{fill:#3e2723}.D{fill-opacity:.15}.E{fill-opacity:.2}]]></style>
  <style
     id="style57"><![CDATA[.B{clip-path:url(#C)}.C{fill:#3e2723}.D{fill-opacity:.15}.E{fill-opacity:.2}]]></style>
  <style
     id="style59"><![CDATA[.B{clip-path:url(#C)}.C{fill:#3e2723}.D{fill-opacity:.15}.E{fill-opacity:.2}]]></style>
  <style
     type="text/css"
     id="style15">
	.st0{fill:#535555;}
	.st1{fill:url(#SVGID_1_);}
	.st2{fill:#717475;}
	.st3{fill:#E8E9E9;}
	.st4{fill:#585A5A;}
	.st5{fill:url(#SVGID_2_);}
	.st6{fill:#D2DADD;}
	.st7{fill:#7F8587;}
	.st8{fill:url(#SVGID_3_);}
	.st9{fill:url(#SVGID_4_);}
	.st10{fill:url(#SVGID_5_);}
	.st11{fill:#D8D8D8;}
	.st12{fill:#8E9698;}
	.st13{fill:#B3BBBD;}
	.st14{fill:url(#SVGID_6_);}
	.st15{fill:#CCD1D3;}
	.st16{fill:url(#SVGID_7_);}
	.st17{fill:#E5E6E6;}
	.st18{fill:#ADB2B2;}
	.st19{fill:url(#SVGID_8_);}
	.st20{fill:url(#SVGID_9_);}
	.st21{fill:#E2E5E6;}
	.st22{opacity:0.8;fill:#BABEBF;}
</style>
  <circle
     id="circle17"
     fill="#5e4aa6"
     r="0"
     cy="-338.47479"
     cx="-297.59747"
     style="stroke-width:0.264578" />
  <g
     id="g31"
     stroke-width="0.26458"
     fill="#5e4aa6"
     transform="translate(32.762709,-10.102651)">
    <circle
       id="circle23"
       r="0"
       cy="-338.76999"
       cx="-299.01999" />
    <circle
       id="circle25"
       fill-rule="evenodd"
       r="0"
       cy="-3.9487"
       cx="-8.1062002" />
    <circle
       id="circle27"
       r="0"
       cy="-357.69"
       cx="-278.25" />
    <circle
       id="circle29"
       fill-rule="evenodd"
       r="0"
       cy="-22.858999"
       cx="12.663" />
  </g>
  <circle
     id="circle877"
     fill="#5e4aa6"
     r="0"
     cy="-338.47479"
     cx="-297.59747"
     style="stroke-width:0.264578" />
  <g
     id="g887"
     stroke-width="0.26458"
     fill="#5e4aa6"
     transform="translate(32.762714,-10.102646)">
    <circle
       id="circle879"
       r="0"
       cy="-338.76999"
       cx="-299.01999" />
    <circle
       id="circle881"
       fill-rule="evenodd"
       r="0"
       cy="-3.9487"
       cx="-8.1062002" />
    <circle
       id="circle883"
       r="0"
       cy="-357.69"
       cx="-278.25" />
    <circle
       id="circle885"
       fill-rule="evenodd"
       r="0"
       cy="-22.858999"
       cx="12.663" />
  </g>
  <g
     id="g965"
     transform="translate(32.772302,-1e-4)">
    <path
       id="path49"
       fill="#ffffff"
       d="m -23.496537,3.9583 c -2.2719,0 -4.1555,1.6968 -4.4438,3.8941 l 0.77998,-0.045136 c 0.23981,-1.8283 1.766,-3.0959 3.6638,-3.0959 2.0641,0 3.7294,1.6643 3.7294,3.7285 0,2.0641 -1.6652,3.7296 -3.7294,3.7296 -0.45668,0 -0.89246,-0.08152 -1.2958,-0.23102 l -0.42001,0.66525 c 0.48546,0.17992 1.1691,0.31862 1.7158,0.31862 2.4711,0 4.4824,-2.0114 4.4824,-4.4824 0,-2.4711 -2.0114,-4.4816 -4.4824,-4.4816 z m 0,1.6084 a 0.56184,0.56184 0 0 0 -0.56164,0.56186 0.56184,0.56184 0 0 0 0.56164,0.56186 0.56184,0.56184 0 0 0 0.56186,-0.56186 0.56184,0.56184 0 0 0 -0.56186,-0.56186 z m -2.0587,1.2009 c -0.11544,0.00275 -0.21681,0.086279 -0.23813,0.20433 -0.02429,0.13465 0.06489,0.26359 0.19944,0.28838 0.48648,0.088237 0.86909,0.14718 1.3434,0.17787 0.31262,0.11382 0.22383,0.53464 0.11851,1.5946 l -0.47559,1.9898 c -0.03013,0.12715 0.0485,0.25466 0.17565,0.28482 0.12688,0.03018 0.25426,-0.04798 0.28482,-0.17476 l 0.49627,-1.8632 c 0.07017,-0.26188 0.27406,-0.25832 0.3513,0 l 0.49538,1.8632 c 0.03054,0.12724 0.15852,0.20551 0.28571,0.17476 0.12683,-0.03055 0.20498,-0.15792 0.17476,-0.28482 l -0.47404,-1.9842 -0.0044,-0.018234 c -0.10519,-1.0543 -0.19279,-1.4732 0.12407,-1.584 0.46495,-0.031319 0.81839,-0.089787 1.2983,-0.17587 0.13492,-0.024366 0.22458,-0.15344 0.20033,-0.28838 -0.02132,-0.11814 -0.12284,-0.20166 -0.23835,-0.20433 -0.0165,-3.825e-4 -0.03337,9.465e-4 -0.05025,0.004 -1.4559,0.26117 -2.5778,0.26102 -4.0169,0 -0.01687,-0.00301 -0.03376,-0.0044 -0.05025,-0.004 z m -1.803,1.7285 a 2.2394,2.2394 0 0 0 -2.2392,2.2394 2.2394,2.2394 0 0 0 2.2392,2.2394 2.2394,2.2394 0 0 0 2.2394,-2.2394 2.2394,2.2394 0 0 0 -2.2394,-2.2394 z" />
    <path
       id="path51"
       stroke-width="0.21513"
       stroke-linejoin="round"
       stroke-dashoffset="1"
       fill="#3298ff"
       color="#000000"
       d="m -27.408437,9.7223 c -0.02824,-9.036e-4 -0.05572,0.00929 -0.07649,0.028458 l -0.60166,0.55097 h -0.406 c -0.10015,0 -0.18077,0.08061 -0.18077,0.18077 v 0.55942 c 0,0.10016 0.08061,0.18076 0.18077,0.18076 h 0.37598 l 0.61567,0.55164 c 0.06887,0.06251 0.17925,0.01407 0.17988,-0.07893 l 0.01579,-1.8639 c 9.03e-4,-0.058349 -0.04486,-0.10679 -0.10317,-0.10917 z m 1.0237,0.16476 c -0.01785,0.00327 -0.03516,0.00996 -0.05069,0.020011 -0.06522,0.042071 -0.08365,0.12918 -0.04113,0.19411 0.116,0.17801 0.18321,0.38967 0.18321,0.61856 0,0.26239 -0.08814,0.50208 -0.23702,0.69416 -0.04773,0.06099 -0.03672,0.14906 0.02446,0.19655 0.06121,0.04754 0.14932,0.03632 0.19655,-0.02512 0.18539,-0.23918 0.29594,-0.54009 0.29594,-0.86558 -9.04e-4,-0.02376 -0.0012,-0.04212 -0.0034,-0.07004 -0.01323,-0.25608 -0.09329,-0.4988 -0.22523,-0.70127 -0.02023,-0.031069 -0.052,-0.053026 -0.08827,-0.0607 -0.0181,-0.00387 -0.03662,-0.00396 -0.05447,-6.884e-4 z m -0.37954,0.32529 a 0.13983,0.13983 0 0 0 -0.1065,0.01156 0.13983,0.13983 0 0 0 -0.05536,0.18988 c 0.05374,0.09871 0.08405,0.21108 0.08405,0.33196 0,0.13238 -0.0364,0.25469 -0.10005,0.35975 a 0.13983,0.13983 0 0 0 0.04714,0.19233 0.13983,0.13983 0 0 0 0.19166,-0.04691 c 0.08924,-0.14729 0.14119,-0.32095 0.14119,-0.50516 0,-0.1682 -0.04311,-0.32777 -0.11851,-0.46626 a 0.13983,0.13983 0 0 0 -0.0836,-0.06715 z"
       style="fill:#04bfff;fill-opacity:1" />
  </g>
  <circle
     style="stroke-width:0.264578"
     id="circle896"
     fill="#5e4aa6"
     r="0"
     cy="-342.82681"
     cx="-324.50998" />
  <g
     id="g906"
     stroke-width="0.26458"
     fill="#5e4aa6"
     transform="translate(5.8502076,-14.454667)">
    <circle
       id="circle898"
       r="0"
       cy="-338.76999"
       cx="-299.01999" />
    <circle
       id="circle900"
       fill-rule="evenodd"
       r="0"
       cy="-3.9487"
       cx="-8.1062002" />
    <circle
       id="circle902"
       r="0"
       cy="-357.69"
       cx="-278.25" />
    <circle
       id="circle904"
       fill-rule="evenodd"
       r="0"
       cy="-22.858999"
       cx="12.663" />
  </g>
  <g
     id="g920"
     stroke-width="0.26458"
     fill="#5e4aa6"
     transform="translate(-26.9397,-4.3455163)">
    <circle
       id="circle912"
       r="0"
       cy="-328.38"
       cx="-330.35001" />
    <circle
       id="circle914"
       r="0"
       cy="-326.25"
       cx="-312.10999" />
    <circle
       id="circle916"
       r="0"
       cy="-333.07001"
       cx="-306.01999" />
    <circle
       id="circle918"
       r="0"
       cy="-326.01001"
       cx="-308.84" />
  </g>
</svg>
