<?xml version="1.0" encoding="UTF-8"?>
<!-- Created with Inkscape (http://www.inkscape.org/) -->
<svg width="64" height="64" version="1.1" viewBox="0 0 16.933 16.933" xmlns="http://www.w3.org/2000/svg" xmlns:cc="http://creativecommons.org/ns#" xmlns:dc="http://purl.org/dc/elements/1.1/" xmlns:rdf="http://www.w3.org/1999/02/22-rdf-syntax-ns#">
 <defs>
  <filter id="filter11290" x="-.024" y="-.024" width="1.048" height="1.048" color-interpolation-filters="sRGB">
   <feGaussianBlur stdDeviation="0.15875313"/>
  </filter>
  <linearGradient id="linearGradient1005" x1=".73911" x2="12.872" y1="16.296" y2="4.1627" gradientTransform="translate(-.00805 -5.0139e-5)" gradientUnits="userSpaceOnUse">
   <stop stop-color="#3caaff" offset="0"/>
   <stop stop-color="#b496ff" offset="1"/>
  </linearGradient>
 </defs>
 <metadata>
  <rdf:RDF>
   <cc:Work rdf:about="">
    <dc:format>image/svg+xml</dc:format>
    <dc:type rdf:resource="http://purl.org/dc/dcmitype/StillImage"/>
    <dc:title/>
   </cc:Work>
  </rdf:RDF>
 </metadata>
 <circle cx="8.4937" cy="8.46" r="7.9377" filter="url(#filter11290)" opacity=".25" stroke-width=".14032"/>
 <g fill="#5e4aa6" stroke-width=".26458">
  <circle cx="-330.35" cy="-328.38" r="0"/>
  <circle cx="-312.11" cy="-326.25" r="0"/>
  <circle cx="-306.02" cy="-333.07" r="0"/>
  <circle cx="-308.84" cy="-326.01" r="0"/>
 </g>
 <path d="m16.431 8.4599c0 0.95154-0.16749 1.8639-0.47464 2.7094-0.21351 0.58768-0.49439 1.1433-0.83393 1.6572-0.14222 0.21608-0.29514 0.42475-0.45746 0.62529-0.51966 0.64179-1.1372 1.2007-1.8305 1.6543-0.2553 0.16718-0.52065 0.3201-0.79536 0.45712-1.0668 0.53389-2.2711 0.83421-3.5456 0.83421s-2.4788-0.30032-3.5456-0.83424c-0.27474-0.13705-0.5404-0.28997-0.7957-0.45712-0.70207-0.45973-1.327-1.0274-1.8509-1.6798-0.16263-0.20216-0.31524-0.41275-0.45746-0.63078-0.33046-0.5054-0.60421-1.0507-0.8135-1.627-0.30711-0.84529-0.4743-1.7573-0.4743-2.7085 0-4.3838 3.5537-7.9375 7.9375-7.9375 2.2005 0 4.1917 0.89548 5.6295 2.3417 0.41436 0.41662 0.78274 0.87929 1.0963 1.3795 0.29645 0.47107 0.54428 0.97582 0.73704 1.5068 0.30718 0.84559 0.47467 1.7579 0.47467 2.7094z" fill="url(#linearGradient1005)" stroke-width=".031006"/>
 <g transform="translate(-.38096 .1025)">
  <g transform="matrix(.75254 0 0 .75254 3.5284 .96245)" stroke-width=".025791">
   <path d="m13.671 4.7886h-10.336c-0.39351 0-0.70834 0.31483-0.70834 0.70834v7.1796c0 0.39351 0.31483 0.70834 0.70834 0.70834h10.328c0.39351 0 0.70834-0.31483 0.70834-0.70834v-7.1796c0.008743-0.39351-0.31483-0.70834-0.6996-0.70834z" fill="#f1f3f7"/>
   <rect x="3.3347" y="6.5289" width="10.336" height="6.1127" fill="#fcfcfd"/>
   <circle cx="13.444" cy="5.7069" r=".22737" fill="#f0582f"/>
   <circle cx="12.648" cy="5.7069" r=".22737" fill="#fbd303"/>
   <circle cx="11.852" cy="5.7069" r=".22737" fill="#6eb1e1"/>
  </g>
  <g transform="matrix(.82638 0 0 .82638 1.3023 -228.66)" stroke-width="1.612">
   <path d="m2.646 290.65h2.646v2.646h-2.646z" fill="#fff" opacity=".1"/>
   <path d="m3.631 285.09-0.985 2.125c0.159-0.09 0.332-0.155 0.511-0.197l0.478 4.637 0.477-4.638c0.178 0.042 0.349 0.107 0.504 0.198zm5.261 6.237c0.09 0.159 0.155 0.332 0.197 0.511l-4.802 0.478 4.803 0.478a1.84 1.84 0 0 1-0.198 0.503l2.125-0.985z" fill="#fff"/>
   <path d="m2.81 288.54h4.596v4.596h-4.596z" fill="none" opacity=".2" stroke="#fff" stroke-dasharray="0.85295759, 0.85295759" stroke-dashoffset="1" stroke-width=".52919"/>
  </g>
 </g>
</svg>
