<?xml version="1.0" encoding="UTF-8"?>
<!-- Created with Inkscape (http://www.inkscape.org/) -->
<svg width="64" height="64" version="1.1" viewBox="0 0 16.933 16.933" xmlns="http://www.w3.org/2000/svg" xmlns:cc="http://creativecommons.org/ns#" xmlns:dc="http://purl.org/dc/elements/1.1/" xmlns:rdf="http://www.w3.org/1999/02/22-rdf-syntax-ns#">
 <defs>
  <filter id="filter11290" x="-.024" y="-.024" width="1.048" height="1.048" color-interpolation-filters="sRGB">
   <feGaussianBlur stdDeviation="0.15875313"/>
  </filter>
  <linearGradient id="linearGradient1005" x1=".73911" x2="16.388" y1="16.296" y2=".64687" gradientTransform="translate(-.0078552 -5.0139e-5)" gradientUnits="userSpaceOnUse">
   <stop stop-color="#3c4b55" offset="0"/>
   <stop stop-color="#324146" offset="1"/>
  </linearGradient>
 </defs>
 <metadata>
  <rdf:RDF>
   <cc:Work rdf:about="">
    <dc:format>image/svg+xml</dc:format>
    <dc:type rdf:resource="http://purl.org/dc/dcmitype/StillImage"/>
    <dc:title/>
   </cc:Work>
  </rdf:RDF>
 </metadata>
 <circle cx="8.4937" cy="8.46" r="7.9377" filter="url(#filter11290)" opacity=".25" stroke-width=".14032"/>
 <path d="m16.431 8.4599c0 0.95154-0.16749 1.8639-0.47464 2.7094-0.21351 0.58768-0.49439 1.1433-0.83393 1.6572-0.14222 0.21608-0.29514 0.42475-0.45746 0.62529-0.51966 0.64179-1.1372 1.2007-1.8305 1.6543-0.2553 0.16718-0.52065 0.3201-0.79536 0.45712-1.0668 0.53389-2.2711 0.83421-3.5456 0.83421s-2.4788-0.30032-3.5456-0.83424c-0.27474-0.13705-0.5404-0.28997-0.7957-0.45712-0.70207-0.45973-1.327-1.0274-1.8509-1.6798-0.16263-0.20216-0.31524-0.41275-0.45746-0.63078-0.33046-0.5054-0.60421-1.0507-0.8135-1.627-0.30711-0.84529-0.4743-1.7573-0.4743-2.7085 0-4.3838 3.5537-7.9375 7.9375-7.9375 2.2005 0 4.1917 0.89548 5.6295 2.3417 0.41436 0.41662 0.78274 0.87929 1.0963 1.3795 0.29645 0.47107 0.54428 0.97582 0.73704 1.5068 0.30718 0.84559 0.47467 1.7579 0.47467 2.7094z" fill="url(#linearGradient1005)" stroke-width=".031006"/>
 <g fill="#5e4aa6" stroke-width=".26458">
  <circle cx="-330.35" cy="-328.38" r="0"/>
  <circle cx="-312.11" cy="-326.25" r="0"/>
  <circle cx="-306.02" cy="-333.07" r="0"/>
  <circle cx="-308.84" cy="-326.01" r="0"/>
 </g>
 <g transform="translate(-.25988 .28046)" fill="#b2b7bf" stroke-width=".27968">
  <rect x="3.4395" y="2.8656" width=".55937" height=".55937" rx=".41953" ry=".41953"/>
  <rect x="13.508" y="2.8656" width=".55937" height=".55937" rx=".41953" ry=".41953"/>
  <rect x="13.508" y="12.934" width=".55937" height=".55937" rx=".41953" ry=".41953"/>
  <rect x="3.4395" y="12.934" width=".55937" height=".55937" rx=".41953" ry=".41953"/>
 </g>
 <path d="m11.573 5.3552h-2.4691c-0.10896 0-0.1976 0.088644-0.1976 0.1976v3.0974h-3.162c-0.10895 0-0.1976 0.088769-0.1976 0.19785v2.4171c0 0.10896 0.08864 0.1976 0.1976 0.1976l5.8284-0.0015c0.10895 0 0.19772-0.08877 0.19772-0.19785l2.5e-4 -5.7107c1.26e-4 -0.10885-0.08852-0.19749-0.19772-0.19749zm-3.0798 4.859c0 0.12801-0.10369 0.2317-0.2317 0.2317h-1.2937c-0.0088 0-0.0173-5.22e-4 -0.02583-0.0015v0.01993l0.18556 0.4698c0.0063 0.0158 0.0012 0.03386-0.01229 0.04401-0.0068 0.0051-0.01479 0.0076-0.02269 0.0076-0.0082 0-0.01618-0.0027-0.02295-0.0079l-0.92305-0.70964c-0.0093-0.0072-0.01467-0.01818-0.01467-0.02984 0-0.01178 0.0054-0.02282 0.01467-0.02996l0.92305-0.70963c0.01342-0.01041 0.03209-0.01041 0.04564-2.51e-4 0.01342 0.01028 0.01843 0.02821 0.01229 0.04388l-0.17403 0.44071c0.0047-2.51e-4 0.0094-7.57e-4 0.01429-7.57e-4h1.062v-0.77685c0-0.12801 0.10381-0.2317 0.2317-0.2317 0.12801 0 0.2317 0.10369 0.2317 0.2317v1.0087zm3.513-5.5091h-3.5263c-0.22518 0-0.40774 0.18255-0.40774 0.40774v2.8346h-3.0919c-0.22518 0-0.40774 0.18268-0.40774 0.40786v3.4518c0 0.22518 0.18255 0.40774 0.40774 0.40774h3.5262c0.0078 0 0.01492-0.0019 0.02257-0.0023h3.4767c0.22518 0 0.40786-0.18268 0.40786-0.40786v-3.2362c0-0.00138 3.76e-4 -0.00265 3.76e-4 -0.00389v-3.4518c0-0.22518-0.18268-0.40774-0.40774-0.40774zm-0.06005 6.5584c0 0.206-0.16751 0.37351-0.37338 0.37351h-2.4344c-0.0016 8.84e-4 -0.0085 0.0016-0.0158 0.0016h-3.3782c-0.20587 0-0.37338-0.16751-0.37338-0.37338v-2.417c0-0.206 0.16751-0.37338 0.37338-0.37338h2.9862v-2.922c0-0.20587 0.16751-0.37338 0.37338-0.37338h2.4691c0.206 0 0.37338 0.16751 0.37338 0.37338z" fill="#e6e6e6" stroke-width=".12538"/>
</svg>
