<?xml version="1.0" encoding="UTF-8"?>
<svg width="64" height="64" version="1.1" viewBox="0 0 16.933 16.933" xmlns="http://www.w3.org/2000/svg" xmlns:cc="http://creativecommons.org/ns#" xmlns:dc="http://purl.org/dc/elements/1.1/" xmlns:rdf="http://www.w3.org/1999/02/22-rdf-syntax-ns#">
 <metadata>
  <rdf:RDF>
   <cc:Work rdf:about="">
    <dc:format>image/svg+xml</dc:format>
    <dc:type rdf:resource="http://purl.org/dc/dcmitype/StillImage"/>
    <dc:title/>
   </cc:Work>
  </rdf:RDF>
 </metadata>
 <defs>
  <filter id="filter11290" x="-.024" y="-.024" width="1.048" height="1.048" color-interpolation-filters="sRGB">
   <feGaussianBlur stdDeviation="0.15875313"/>
  </filter>
  <linearGradient id="linearGradient1005" x1=".8714" x2="16.246" y1="16.164" y2=".78937" gradientTransform="translate(-.0353 .0065)" gradientUnits="userSpaceOnUse">
   <stop stop-color="#00c8ff" offset="0"/>
   <stop stop-color="#14a0ff" offset="1"/>
  </linearGradient>
  <style type="text/css"/>
 </defs>
 <circle cx="8.4665" cy="8.4665" r="7.9377" filter="url(#filter11290)" opacity=".25" stroke-width=".14032"/>
 <path d="m16.404 8.4664c0 0.95154-0.16749 1.8639-0.47464 2.7094-0.21351 0.58768-0.49439 1.1433-0.83393 1.6572-0.14222 0.21608-0.29514 0.42475-0.45746 0.62529-0.51966 0.64179-1.1372 1.2007-1.8305 1.6543-0.2553 0.16718-0.52065 0.3201-0.79536 0.45712-1.0668 0.53389-2.2711 0.83421-3.5456 0.83421s-2.4788-0.30032-3.5456-0.83424c-0.27474-0.13705-0.5404-0.28997-0.7957-0.45712-0.70207-0.45973-1.327-1.0274-1.8509-1.6798-0.16263-0.20216-0.31524-0.41275-0.45746-0.63078-0.33046-0.5054-0.60421-1.0507-0.8135-1.627-0.30711-0.84529-0.4743-1.7573-0.4743-2.7085 0-4.3838 3.5537-7.9375 7.9375-7.9375 2.2005 0 4.1917 0.89548 5.6295 2.3417 0.41436 0.41662 0.78274 0.87929 1.0963 1.3795 0.29645 0.47107 0.54428 0.97582 0.73704 1.5068 0.30718 0.84559 0.47467 1.7579 0.47467 2.7094z" fill="url(#linearGradient1005)" stroke-width=".031006"/>
 <g transform="translate(24.153,-9.1775)" fill="#5e4aa6" stroke-width=".26458">
  <circle cx="-330.35" cy="-328.38" r="0"/>
  <circle cx="-312.11" cy="-326.25" r="0"/>
  <circle cx="-306.02" cy="-333.07" r="0"/>
  <circle cx="-308.84" cy="-326.01" r="0"/>
 </g>
 <path d="m7.3159 5.9355a1.2673 1.2673 0 0 0-1.2652 1.2663v2.8754a0.46037 0.46037 0 0 0 0.92073 0v-2.1928c0-0.06244 0.05292-0.11536 0.11482-0.11536 0.06192 0 0.11482 0.05292 0.11482 0.11536v5.255c0 0.35983 0.19314 0.61858 0.5535 0.61858 0.34078 0 0.59689-0.26458 0.59689-0.61858v-2.9548c0-0.0635 0.05132-0.11482 0.11482-0.11482s0.11536 0.05132 0.11536 0.11482v3.0199c5.2e-4 0.0016 0.0058-0.0022 0.0068 0 0.03176 0.31802 0.27199 0.5535 0.58948 0.5535 0.35983 0 0.55403-0.25929 0.55403-0.61858v-5.2122c0-0.06192 0.05292-0.11536 0.11482-0.11536 0.06192 0 0.11482 0.05292 0.11482 0.11536v2.1494a0.46037 0.46037 0 0 0 0.92073 0v-2.8749a1.2673 1.2673 0 0 0-1.2657-1.2657h-2.3008zm1.1504-2.7606a1.2673 1.2673 0 0 0-1.2652 1.2652 1.2673 1.2673 0 0 0 1.2652 1.2657 1.2673 1.2673 0 0 0 1.2657-1.2663 1.2673 1.2673 0 0 0-1.2657-1.2647z" fill="#fff" stroke-width=".010335" p-id="4077"/>
</svg>
