<?xml version="1.0" encoding="UTF-8"?>
<!-- Created with Inkscape (http://www.inkscape.org/) -->
<svg width="64" height="64" version="1.1" viewBox="0 0 16.933 16.933" xmlns="http://www.w3.org/2000/svg" xmlns:cc="http://creativecommons.org/ns#" xmlns:dc="http://purl.org/dc/elements/1.1/" xmlns:rdf="http://www.w3.org/1999/02/22-rdf-syntax-ns#">
 <defs>
  <filter id="filter11290" x="-.024" y="-.024" width="1.048" height="1.048" color-interpolation-filters="sRGB">
   <feGaussianBlur stdDeviation="0.15875313"/>
  </filter>
  <linearGradient id="linearGradient1005" x1=".73911" x2="16.137" y1="16.296" y2=".89803" gradientTransform="translate(-.0078552 -5.0139e-5)" gradientUnits="userSpaceOnUse">
   <stop stop-color="#ff963c" offset="0"/>
   <stop stop-color="#ffdc55" offset="1"/>
  </linearGradient>
  <filter id="filter1223" x="-.085107" y="-.082922" width="1.1702" height="1.1658" color-interpolation-filters="sRGB">
   <feGaussianBlur stdDeviation="0.33551144"/>
  </filter>
 </defs>
 <metadata>
  <rdf:RDF>
   <cc:Work rdf:about="">
    <dc:format>image/svg+xml</dc:format>
    <dc:type rdf:resource="http://purl.org/dc/dcmitype/StillImage"/>
    <dc:title/>
   </cc:Work>
  </rdf:RDF>
 </metadata>
 <circle cx="8.4937" cy="8.46" r="7.9377" filter="url(#filter11290)" opacity=".25" stroke-width=".14032"/>
 <path d="m16.431 8.4599c0 0.95154-0.16749 1.8639-0.47464 2.7094-0.21351 0.58768-0.49439 1.1433-0.83393 1.6572-0.14222 0.21608-0.29514 0.42475-0.45746 0.62529-0.51966 0.64179-1.1372 1.2007-1.8305 1.6543-0.2553 0.16718-0.52065 0.3201-0.79536 0.45712-1.0668 0.53389-2.2711 0.83421-3.5456 0.83421s-2.4788-0.30032-3.5456-0.83424c-0.27474-0.13705-0.5404-0.28997-0.7957-0.45712-0.70207-0.45973-1.327-1.0274-1.8509-1.6798-0.16263-0.20216-0.31524-0.41275-0.45746-0.63078-0.33046-0.5054-0.60421-1.0507-0.8135-1.627-0.30711-0.84529-0.4743-1.7573-0.4743-2.7085 0-4.3838 3.5537-7.9375 7.9375-7.9375 2.2005 0 4.1917 0.89548 5.6295 2.3417 0.41436 0.41662 0.78274 0.87929 1.0963 1.3795 0.29645 0.47107 0.54428 0.97582 0.73704 1.5068 0.30718 0.84559 0.47467 1.7579 0.47467 2.7094z" fill="url(#linearGradient1005)" stroke-width=".031006"/>
 <g fill="#5e4aa6" stroke-width=".26458">
  <circle cx="-330.35" cy="-328.38" r="0"/>
  <circle cx="-312.11" cy="-326.25" r="0"/>
  <circle cx="-306.02" cy="-333.07" r="0"/>
  <circle cx="-308.84" cy="-326.01" r="0"/>
 </g>
 <g transform="translate(-.11637)">
  <g transform="matrix(.86018 0 0 .86018 .99982 1.8989)" fill="#ffa63e" filter="url(#filter1223)">
   <rect x="4.1165" y="3.6974" width="9.4614" height="7.3039" ry=".9155" opacity=".5"/>
   <path d="m12.658 3.6974h-7.742s-0.79822 0.05381-0.79822 0.79822v8.619s-0.03973 0.37275 0.3134 0.27813l9.0134-9.2591s-0.23365-0.43619-0.78657-0.43619z"/>
  </g>
  <g transform="matrix(.86018 0 0 .86018 .99982 1.8989)">
   <rect x="4.1165" y="3.6974" width="9.4614" height="7.3039" ry=".9155" fill="#fafafa" opacity=".5"/>
   <path d="m12.658 3.6974h-7.742s-0.79822 0.05381-0.79822 0.79822v8.619s-0.03973 0.37275 0.3134 0.27813l9.0134-9.2591s-0.23365-0.43619-0.78657-0.43619z" fill="#fff"/>
  </g>
 </g>
</svg>
