<?xml version="1.0" encoding="UTF-8"?>
<!-- Created with Inkscape (http://www.inkscape.org/) -->
<svg width="64" height="64" version="1.1" viewBox="0 0 16.933 16.933" xmlns="http://www.w3.org/2000/svg" xmlns:cc="http://creativecommons.org/ns#" xmlns:dc="http://purl.org/dc/elements/1.1/" xmlns:rdf="http://www.w3.org/1999/02/22-rdf-syntax-ns#">
 <defs>
  <filter id="filter11290" x="-.024" y="-.024" width="1.048" height="1.048" color-interpolation-filters="sRGB">
   <feGaussianBlur stdDeviation="0.15875313"/>
  </filter>
  <linearGradient id="linearGradient1005" x1=".8714" x2="16.246" y1="16.164" y2=".78937" gradientTransform="translate(-.0080452 -5.0139e-5)" gradientUnits="userSpaceOnUse">
   <stop stop-color="#00c8ff" offset="0"/>
   <stop stop-color="#14a0ff" offset="1"/>
  </linearGradient>
  <filter id="filter951" x="-.10129" y="-.07175" width="1.2026" height="1.1435" color-interpolation-filters="sRGB">
   <feGaussianBlur stdDeviation="15.306655"/>
  </filter>
 </defs>
 <metadata>
  <rdf:RDF>
   <cc:Work rdf:about="">
    <dc:format>image/svg+xml</dc:format>
    <dc:type rdf:resource="http://purl.org/dc/dcmitype/StillImage"/>
    <dc:title/>
   </cc:Work>
  </rdf:RDF>
 </metadata>
 <circle cx="8.4937" cy="8.46" r="7.9377" filter="url(#filter11290)" opacity=".25" stroke-width=".14032"/>
 <path d="m16.431 8.4599c0 0.95154-0.16749 1.8639-0.47464 2.7094-0.21351 0.58768-0.49439 1.1433-0.83393 1.6572-0.14222 0.21608-0.29514 0.42475-0.45746 0.62529-0.51966 0.64179-1.1372 1.2007-1.8305 1.6543-0.2553 0.16718-0.52065 0.3201-0.79536 0.45712-1.0668 0.53389-2.2711 0.83421-3.5456 0.83421s-2.4788-0.30032-3.5456-0.83424c-0.27474-0.13705-0.5404-0.28997-0.7957-0.45712-0.70207-0.45973-1.327-1.0274-1.8509-1.6798-0.16263-0.20216-0.31524-0.41275-0.45746-0.63078-0.33046-0.5054-0.60421-1.0507-0.8135-1.627-0.30711-0.84529-0.4743-1.7573-0.4743-2.7085 0-4.3838 3.5537-7.9375 7.9375-7.9375 2.2005 0 4.1917 0.89548 5.6295 2.3417 0.41436 0.41662 0.78274 0.87929 1.0963 1.3795 0.29645 0.47107 0.54428 0.97582 0.73704 1.5068 0.30718 0.84559 0.47467 1.7579 0.47467 2.7094z" fill="url(#linearGradient1005)" stroke-width=".031006"/>
 <g fill="#5e4aa6" stroke-width=".26458">
  <circle cx="-330.35" cy="-328.38" r="0"/>
  <circle cx="-312.11" cy="-326.25" r="0"/>
  <circle cx="-306.02" cy="-333.07" r="0"/>
  <circle cx="-308.84" cy="-326.01" r="0"/>
 </g>
 <g transform="translate(-.61867 .21127)">
  <g transform="matrix(.017976 0 0 .017976 4.5103 3.6469)" fill="#0f9bff" filter="url(#filter951)">
   <path d="m256 0c-76.544 0.094-138.57 62.122-138.67 138.67v85.333c0 5.891 4.776 10.667 10.667 10.667h42.667c5.891 0 10.667-4.776 10.667-10.667v-85.333c-1e-3 -41.238 33.429-74.667 74.666-74.667s74.667 33.429 74.667 74.667v85.333c0 5.891 4.776 10.667 10.667 10.667h42.666c5.891 0 10.667-4.776 10.667-10.667v-85.333c-0.094-76.545-62.123-138.57-138.67-138.67z"/>
   <path d="m128 213.33h256c29.455 0 53.333 23.878 53.333 53.333v192c0 29.456-23.878 53.334-53.333 53.334h-256c-29.455 0-53.333-23.878-53.333-53.333v-192c0-29.456 23.878-53.334 53.333-53.334z"/>
   <path d="m309.33 330.67c0.124-29.455-23.653-53.434-53.108-53.558s-53.434 23.653-53.558 53.108c-0.086 20.36 11.427 38.992 29.674 48.023l-8.235 57.6c-0.825 5.833 3.235 11.23 9.068 12.055 0.494 0.07 0.993 0.105 1.492 0.105h42.667c5.891 0.06 10.715-4.667 10.774-10.558 5e-3 -0.543-0.03-1.086-0.108-1.623l-8.235-57.6c18.024-9.02 29.452-27.399 29.569-47.552z"/>
  </g>
  <g transform="matrix(.017976 0 0 .017976 4.5103 3.6469)">
   <path d="m256 0c-76.544 0.094-138.57 62.122-138.67 138.67v85.333c0 5.891 4.776 10.667 10.667 10.667h42.667c5.891 0 10.667-4.776 10.667-10.667v-85.333c-1e-3 -41.238 33.429-74.667 74.666-74.667s74.667 33.429 74.667 74.667v85.333c0 5.891 4.776 10.667 10.667 10.667h42.666c5.891 0 10.667-4.776 10.667-10.667v-85.333c-0.094-76.545-62.123-138.57-138.67-138.67z" fill="#b4e1ff"/>
   <path d="m128 213.33h256c29.455 0 53.333 23.878 53.333 53.333v192c0 29.456-23.878 53.334-53.333 53.334h-256c-29.455 0-53.333-23.878-53.333-53.333v-192c0-29.456 23.878-53.334 53.333-53.334z" fill="#fff"/>
   <path d="m309.33 330.67c0.124-29.455-23.653-53.434-53.108-53.558s-53.434 23.653-53.558 53.108c-0.086 20.36 11.427 38.992 29.674 48.023l-8.235 57.6c-0.825 5.833 3.235 11.23 9.068 12.055 0.494 0.07 0.993 0.105 1.492 0.105h42.667c5.891 0.06 10.715-4.667 10.774-10.558 5e-3 -0.543-0.03-1.086-0.108-1.623l-8.235-57.6c18.024-9.02 29.452-27.399 29.569-47.552z" fill="#0fa0ff"/>
  </g>
 </g>
</svg>
