<?xml version="1.0" encoding="UTF-8"?>
<!-- Created with Inkscape (http://www.inkscape.org/) -->
<svg width="64" height="64" version="1.1" viewBox="0 0 16.933 16.933" xmlns="http://www.w3.org/2000/svg" xmlns:cc="http://creativecommons.org/ns#" xmlns:dc="http://purl.org/dc/elements/1.1/" xmlns:rdf="http://www.w3.org/1999/02/22-rdf-syntax-ns#" xmlns:xlink="http://www.w3.org/1999/xlink">
 <defs>
  <filter id="filter11290-3" x="-.024" y="-.024" width="1.048" height="1.048" color-interpolation-filters="sRGB">
   <feGaussianBlur stdDeviation="0.15875313"/>
  </filter>
 </defs>
 <metadata>
  <rdf:RDF>
   <cc:Work rdf:about="">
    <dc:format>image/svg+xml</dc:format>
    <dc:type rdf:resource="http://purl.org/dc/dcmitype/StillImage"/>
    <dc:title/>
   </cc:Work>
  </rdf:RDF>
 </metadata>
 <circle cx="8.4665" cy="8.4665" r="7.9377" filter="url(#filter11290-3)" opacity=".25" stroke-width=".14032"/>
 <path d="m16.404 8.4664c0 0.95154-0.16749 1.8639-0.47464 2.7094-0.21351 0.58768-0.49439 1.1433-0.83393 1.6572-0.14222 0.21608-0.29514 0.42475-0.45746 0.62529-0.51966 0.64179-1.1372 1.2007-1.8305 1.6543-0.2553 0.16718-0.52065 0.3201-0.79536 0.45712-1.0668 0.53389-2.2711 0.83421-3.5456 0.83421s-2.4788-0.30032-3.5456-0.83424c-0.27474-0.13705-0.5404-0.28997-0.7957-0.45712-0.70207-0.45973-1.327-1.0274-1.8509-1.6798-0.16263-0.20216-0.31524-0.41275-0.45746-0.63078-0.33046-0.5054-0.60421-1.0507-0.8135-1.627-0.30711-0.84529-0.4743-1.7573-0.4743-2.7085 0-4.3838 3.5537-7.9375 7.9375-7.9375 2.2005 0 4.1917 0.89548 5.6295 2.3417 0.41436 0.41662 0.78274 0.87929 1.0963 1.3795 0.29645 0.47107 0.54428 0.97582 0.73704 1.5068 0.30718 0.84559 0.47467 1.7579 0.47467 2.7094z" fill="#fafafa" stroke-width=".031006"/>
 <g fill="#5e4aa6" stroke-width=".26458">
  <circle cx="-330.35" cy="-328.38" r="0"/>
  <circle cx="-312.11" cy="-326.25" r="0"/>
  <circle cx="-306.02" cy="-333.07" r="0"/>
  <circle cx="-308.84" cy="-326.01" r="0"/>
  <circle cx="-298.82" cy="-353.17" r="0"/>
  <g transform="translate(10.272 -16.531)">
   <circle cx="-330.35" cy="-328.38" r="0"/>
   <circle cx="-39.434" cy="6.44" r="0" fill-rule="evenodd"/>
   <circle cx="-306.9" cy="-332.28" r="0"/>
  </g>
  <circle cx="-298.03" cy="-351.89" r="0"/>
 </g>
 <g transform="matrix(.8845 0 0 .8845 -.36626 18.22)">
  <g transform="translate(1.0211,-19.766)">
   <g stroke-width=".56724">
    <rect x="2.6458" y="2.9104" width="7.4082" height="6.879" ry=".86684" color="#000000" fill="#fff" overflow="visible" style="isolation:auto;mix-blend-mode:normal"/>
   </g>
   <g fill="#666" aria-label="文">
    <path d="m4.3432 4.9846h1.8876q-0.16493-0.27489-0.34819-0.53145l0.31154-0.21991q0.27489 0.32986 0.47647 0.75136h1.7776v0.34819h-0.7147q-0.14661 0.69638-0.47647 1.2095-0.31154 0.51312-0.53145 0.6414 0.65973 0.4948 1.7409 0.87964l-0.21991 0.40317q-1.0262-0.34819-1.8509-1.0079-0.76968 0.5681-1.9059 0.98959l-0.25656-0.34819q1.0995-0.38484 1.8509-0.91629-0.75136-0.73303-1.0629-1.8509h-0.67805zm1.0812 0.34819q0.31154 0.98959 0.98959 1.5943 0.67805-0.58642 0.91629-1.5943z" fill="#666" stroke-width=".11728"/>
   </g>
   <rect x="7.9373" y="7.6728" width="7.4082" height="6.879" ry=".86684" color="#000000" fill="#3279f1" overflow="visible" stroke-width=".56724" style="isolation:auto;mix-blend-mode:normal"/>
   <path d="m12.658 13.114-0.28901-0.94873h-1.4538l-0.28901 0.94873h-0.9109l1.4072-4.0031h1.0335l1.4123 4.0031h-0.9109zm-0.49086-1.6578q-0.40098-1.2898-0.45273-1.459-0.04903-0.16917-0.07081-0.26722-0.09018 0.34892-0.51537 1.7262z" fill="#fff" font-size="64" font-weight="700" letter-spacing="0" stroke-width=".30262" word-spacing="0"/>
  </g>
  <g transform="translate(1.5503,-19.501)" stroke-width=".54472">
   <path d="m4.4861 9.5315v1.8454l1.0701 1.0698h1.8042v-1.0698h-1.8042v-1.8454z" color="#000000" fill="#337cf1" overflow="visible" style="isolation:auto;mix-blend-mode:normal"/>
   <path d="m5.0129 8.2281 1.4102 1.4102h-2.8205z" color="#000000" fill="#337cf1" overflow="visible" style="isolation:auto;mix-blend-mode:normal"/>
   <path d="m8.4162 11.959-1.0828 1.0828v-2.1659z" color="#000000" fill="#a1c4ff" overflow="visible" style="isolation:auto;mix-blend-mode:normal"/>
   <path d="m4.4861 11.377 1.0701 1.0698h1.8042v-1.0698h-1.8042z" color="#000000" fill="#a1c4ff" overflow="visible" style="isolation:auto;mix-blend-mode:normal"/>
  </g>
 </g>
 <g fill="#5e4aa6" stroke-width=".26458">
  <g transform="translate(-25.785 -10.756)">
   <circle cx="-330.35" cy="-328.38" r="0"/>
   <circle cx="-312.11" cy="-326.25" r="0"/>
   <circle cx="-306.02" cy="-333.07" r="0"/>
   <circle cx="-308.84" cy="-326.01" r="0"/>
  </g>
  <g transform="translate(-76.197 -37.956)" image-rendering="optimizeSpeed">
   <circle cx="-347.64" cy="-328.38" r="0"/>
   <circle cx="-56.726" cy="6.44" r="0" fill-rule="evenodd"/>
   <g transform="translate(-.0272 .0065001)">
    <circle cx="-330.35" cy="-328.38" r="0"/>
    <circle cx="-312.11" cy="-326.25" r="0"/>
    <circle cx="-306.02" cy="-333.07" r="0"/>
    <circle cx="-308.84" cy="-326.01" r="0"/>
   </g>
  </g>
  <g transform="translate(-73.787 -36.156)" image-rendering="optimizeSpeed">
   <circle cx="-330.35" cy="-328.38" r="0"/>
   <circle cx="-312.11" cy="-326.25" r="0"/>
   <circle cx="-306.02" cy="-333.07" r="0"/>
   <circle cx="-308.84" cy="-326.01" r="0"/>
  </g>
 </g>
</svg>
