<?xml version="1.0" encoding="UTF-8"?>
<svg width="64" height="64" version="1.1" viewBox="0 0 16.933 16.933" xmlns="http://www.w3.org/2000/svg" xmlns:cc="http://creativecommons.org/ns#" xmlns:dc="http://purl.org/dc/elements/1.1/" xmlns:rdf="http://www.w3.org/1999/02/22-rdf-syntax-ns#">
 <metadata>
  <rdf:RDF>
   <cc:Work rdf:about="">
    <dc:format>image/svg+xml</dc:format>
    <dc:type rdf:resource="http://purl.org/dc/dcmitype/StillImage"/>
    <dc:title/>
   </cc:Work>
  </rdf:RDF>
 </metadata>
 <defs>
  <style type="text/css"/>
  <filter id="filter11290-3" x="-.024" y="-.024" width="1.048" height="1.048" color-interpolation-filters="sRGB">
   <feGaussianBlur stdDeviation="0.15875313"/>
  </filter>
  <linearGradient id="linearGradient1005-6" x1=".73911" x2="16.388" y1="16.296" y2=".64687" gradientTransform="translate(-.03491 .0064999)" gradientUnits="userSpaceOnUse">
   <stop stop-color="#00c8ff" offset="0"/>
   <stop stop-color="#14a0ff" offset="1"/>
  </linearGradient>
 </defs>
 <circle cx="-330.35" cy="-328.38" r="0" fill="#5e4aa6" stroke-width=".26458"/>
 <circle cx="8.4665" cy="8.4665" r="7.9377" filter="url(#filter11290-3)" opacity=".25" stroke-width=".14032"/>
 <path d="m16.404 8.4664c0 0.95154-0.16749 1.8639-0.47464 2.7094-0.21351 0.58768-0.49439 1.1433-0.83393 1.6572-0.14222 0.21608-0.29514 0.42475-0.45746 0.62529-0.51966 0.64179-1.1372 1.2007-1.8305 1.6543-0.2553 0.16718-0.52065 0.3201-0.79536 0.45712-1.0668 0.53389-2.2711 0.83421-3.5456 0.83421s-2.4788-0.30032-3.5456-0.83424c-0.27474-0.13705-0.5404-0.28997-0.7957-0.45712-0.70207-0.45973-1.327-1.0274-1.8509-1.6798-0.16263-0.20216-0.31524-0.41275-0.45746-0.63078-0.33046-0.5054-0.60421-1.0507-0.8135-1.627-0.30711-0.84529-0.4743-1.7573-0.4743-2.7085 0-4.3838 3.5537-7.9375 7.9375-7.9375 2.2005 0 4.1917 0.89548 5.6295 2.3417 0.41436 0.41662 0.78274 0.87929 1.0963 1.3795 0.29645 0.47107 0.54428 0.97582 0.73704 1.5068 0.30718 0.84559 0.47467 1.7579 0.47467 2.7094z" fill="url(#linearGradient1005-6)" stroke-width=".031006"/>
 <g fill="#5e4aa6" stroke-width=".26458">
  <circle cx="-330.35" cy="-328.38" r="0"/>
  <circle cx="-330.35" cy="-328.37" r="0"/>
  <circle cx="-330.35" cy="-328.37" r="0"/>
  <circle cx="-352.63" cy="-336.83" r="0"/>
 </g>
 <path d="m8.3841 4.6139a3.1526 3.1526 0 0 0-3.1526 3.1526 3.1526 3.1526 0 0 0 3.1526 3.1526 3.1526 3.1526 0 0 0 1.885-0.6307l2.4365 2.4365 0.63671-0.63671-2.4365-2.4365a3.1526 3.1526 0 0 0 0.63069-1.885 3.1526 3.1526 0 0 0-3.1526-3.1526m0 0.90074a2.2518 2.2518 0 0 1 2.2518 2.2518 2.2518 2.2518 0 0 1-0.01145 0.22518 2.2518 2.2518 0 0 1-0.36329 1.0151 2.2518 2.2518 0 0 1-0.63684 0.63684 2.2518 2.2518 0 0 1-0.17153 0.10204 2.2518 2.2518 0 0 1-0.021989 0.0132 2.2518 2.2518 0 0 1-0.00451 0.0018 2.2518 2.2518 0 0 1-0.19968 0.09236 2.2518 2.2518 0 0 1-0.19616 0.06861 2.2518 2.2518 0 0 1-0.016725 0.0062 2.2518 2.2518 0 0 1-0.00271 9.01e-4 2.2518 2.2518 0 0 1-0.20495 0.04838 2.2518 2.2518 0 0 1-0.011445 0.0027 2.2518 2.2518 0 0 1-0.00181 0 2.2518 2.2518 0 0 1-0.16537 0.02289 2.2518 2.2518 0 0 1-0.066853 0.0088 2.2518 2.2518 0 0 1-0.17681 7e-3 2.2518 2.2518 0 0 1-2.2518-2.2518 2.2518 2.2518 0 0 1 0.011445-0.22518 2.2518 2.2518 0 0 1 1.0239-1.6695 2.2518 2.2518 0 0 1 0.40023-0.20407 2.2518 2.2518 0 0 1 0.81629-0.15306" fill="#fff" stroke-width=".58579"/>
 <g transform="translate(-22.7,-8.1012)" fill="#5e4aa6" stroke-width=".26458">
  <circle cx="-330.35" cy="-328.38" r="0"/>
  <circle cx="-312.11" cy="-326.25" r="0"/>
  <circle cx="-306.02" cy="-333.07" r="0"/>
  <circle cx="-308.84" cy="-326.01" r="0"/>
 </g>
</svg>
