<?xml version="1.0" encoding="UTF-8"?>
<svg width="64" height="64" version="1.1" viewBox="0 0 64 64" xmlns="http://www.w3.org/2000/svg" xmlns:cc="http://creativecommons.org/ns#" xmlns:dc="http://purl.org/dc/elements/1.1/" xmlns:rdf="http://www.w3.org/1999/02/22-rdf-syntax-ns#">
 <metadata>
  <rdf:RDF>
   <cc:Work rdf:about="">
    <dc:format>image/svg+xml</dc:format>
    <dc:type rdf:resource="http://purl.org/dc/dcmitype/StillImage"/>
    <dc:title/>
   </cc:Work>
  </rdf:RDF>
 </metadata>
 <defs>
  <style type="text/css"/>
  <style type="text/css"/>
  <style type="text/css"/>
  <style type="text/css"/>
  <filter id="filter11290" x="-.024" y="-.024" width="1.048" height="1.048" color-interpolation-filters="sRGB">
   <feGaussianBlur stdDeviation="0.15875313"/>
  </filter>
  <linearGradient id="linearGradient1005" x1=".73911" x2="16.388" y1="16.296" y2=".64687" gradientTransform="matrix(3.7796 0 0 3.7796 -.13309 .024828)" gradientUnits="userSpaceOnUse">
   <stop stop-color="#00dc96" offset="0"/>
   <stop stop-color="#14d29b" offset="1"/>
  </linearGradient>
  <style type="text/css"/>
  <style type="text/css"/>
  <style type="text/css"/>
 </defs>
 <circle transform="matrix(3.7796 0 0 3.7796 1.6204e-5 1.6204e-5)" cx="8.4665" cy="8.4665" r="7.9377" filter="url(#filter11290)" opacity=".25" stroke-width=".14032"/>
 <path d="m62 32c0 3.5964-0.63304 7.0448-1.794 10.24-0.80698 2.2212-1.8686 4.3212-3.1519 6.2636-0.53754 0.8167-1.1155 1.6054-1.729 2.3633-1.9641 2.4257-4.2982 4.5382-6.9186 6.2526-0.96493 0.63187-1.9678 1.2099-3.0061 1.7277-4.0321 2.0179-8.5839 3.153-13.401 3.153s-9.3689-1.1351-13.401-3.1531c-1.0384-0.518-2.0425-1.096-3.0074-1.7277-2.6535-1.7376-5.0155-3.8832-6.9957-6.349-0.61468-0.76408-1.1915-1.56-1.729-2.3841-1.249-1.9102-2.2837-3.9712-3.0747-6.1494-1.1608-3.1949-1.7927-6.6419-1.7927-10.237 0-16.569 13.432-30.001 30.001-30.001 8.317 0 15.843 3.3846 21.277 8.8507 1.5661 1.5747 2.9584 3.3234 4.1436 5.214 1.1205 1.7805 2.0572 3.6882 2.7857 5.6951 1.161 3.196 1.7941 6.6442 1.7941 10.24z" fill="url(#linearGradient1005)" stroke-width=".11719"/>
 <circle cx="-1248.7" cy="-1241.6" r="0" fill="#5e4aa6"/>
 <g fill="#5e4aa6">
  <circle cx="-149.15" cy="23.855" r="0" fill-rule="evenodd"/>
  <circle cx="-1150.9" cy="-1256.6" r="0"/>
  <circle cx="-51.327" cy="8.8744" r="0" fill-rule="evenodd"/>
 </g>
 <g transform="matrix(1.3705 0 0 1.3705 -.89131 -.89269)" fill="#fff">
  <!-- color: #f7d9cc -->
  <g fill="#fff">
   <g fill="#fff">
    <path d="m20.2 17.02h-8.938l-0.262 3.441h0.277c0.199-2.578 0.422-3.03 2.82-3.03h0.855c0.297 0.047 0.297 0.238 0.297 0.594v8.473c0 0.566-0.047 0.734-1.352 0.734h-0.441v0.375h4.554v-0.375h-0.441c-1.285 0-1.332-0.172-1.332-0.734v-8.473c0-0.344 0-0.527 0.281-0.594h0.848c2.367 0 2.605 0.449 2.809 3.03h0.27"/>
    <path d="m27.969 27.07h-0.277c-0.34 2.309-0.543 3.563-3.266 3.563h-2.148c-0.617 0-0.645-0.078-0.645-0.613v-4.352h1.457c1.461 0 1.602 0.539 1.602 1.852h0.25v-4.047h-0.25c0 1.289-0.141 1.82-1.602 1.82h-1.457v-3.859c0-0.523 0.027-0.602 0.645-0.602h2.117c2.395 0 2.676 0.957 2.891 3.01h0.281l-0.371-3.441h-7.84v0.43c1.098 0 1.273 0 1.273 0.699v8.398c0 0.699-0.176 0.699-1.273 0.699v0.375h8.05"/>
    <path d="m32.14 21.719 2.289-3.328c0.23-0.324 0.699-0.996 1.969-1.016v-0.375h-2.847v0.375c0.496 0.047 0.621 0.359 0.621 0.609 0 0.188-0.078 0.313-0.188 0.465l-2.043 2.98-2.289-3.367c-0.109-0.172-0.125-0.219-0.125-0.266 0-0.141 0.168-0.406 0.684-0.422v-0.375h-3.313v0.375c0.852 0 1.129 0.031 1.469 0.516l2.988 4.41-2.695 3.957c-0.664 0.965-1.668 0.984-1.965 0.984v0.375h2.843v-0.375c-0.477-0.047-0.617-0.359-0.617-0.609 0-0.203 0.078-0.313 0.156-0.422l2.477-3.633 2.691 3.977c0.121 0.172 0.121 0.219 0.121 0.266 0 0.125-0.137 0.391-0.68 0.422v0.379h3.313v-0.379c-0.992 0-1.148-0.074-1.453-0.516"/>
   </g>
  </g>
 </g>
 <g fill="#5e4aa6">
  <g transform="matrix(3.7796 0 0 3.7796 -72.539 -25.496)" stroke-width=".26458">
   <g transform="translate(-.0272 .0065001)">
    <circle cx="-330.35" cy="-328.38" r="0"/>
    <circle cx="-312.11" cy="-326.25" r="0"/>
    <circle cx="-306.02" cy="-333.07" r="0"/>
    <circle cx="-308.84" cy="-326.01" r="0"/>
   </g>
   <g transform="translate(-.0272 .0065001)">
    <circle cx="-330.35" cy="-328.38" r="0"/>
    <circle cx="-312.11" cy="-326.25" r="0"/>
    <circle cx="-306.02" cy="-333.07" r="0"/>
    <circle cx="-308.84" cy="-326.01" r="0"/>
   </g>
   <g transform="translate(-.02705 .0064503)">
    <circle cx="-330.35" cy="-328.38" r="0"/>
    <circle cx="-312.11" cy="-326.25" r="0"/>
    <circle cx="-306.02" cy="-333.07" r="0"/>
    <circle cx="-308.84" cy="-326.01" r="0"/>
   </g>
  </g>
  <g transform="translate(-134.71 -68.177)">
   <circle cx="-1248.7" cy="-1241.6" r="0"/>
   <circle cx="-149.15" cy="23.855" r="0" fill-rule="evenodd"/>
   <circle cx="-1150.9" cy="-1256.6" r="0"/>
   <circle cx="-51.327" cy="8.8744" r="0" fill-rule="evenodd"/>
   <g transform="matrix(3.7796 0 0 3.7796 -.10224 .02438)" stroke-width=".26458">
    <circle cx="-330.35" cy="-328.38" r="0"/>
    <circle cx="-312.11" cy="-326.25" r="0"/>
    <circle cx="-306.02" cy="-333.07" r="0"/>
    <circle cx="-308.84" cy="-326.01" r="0"/>
   </g>
  </g>
  <g transform="matrix(3.7796 0 0 3.7796 -134.81 -68.153)" stroke-width=".26458">
   <circle cx="-330.35" cy="-328.38" r="0"/>
   <circle cx="-312.11" cy="-326.25" r="0"/>
   <circle cx="-306.02" cy="-333.07" r="0"/>
   <circle cx="-308.84" cy="-326.01" r="0"/>
  </g>
  <g transform="translate(-252.13 -109.4)">
   <circle cx="-1248.7" cy="-1241.6" r="0"/>
   <circle cx="-149.15" cy="23.855" r="0" fill-rule="evenodd"/>
   <circle cx="-1150.9" cy="-1256.6" r="0"/>
   <circle cx="-51.327" cy="8.8744" r="0" fill-rule="evenodd"/>
   <g transform="matrix(3.7796,0,0,3.7796,167.86,4.61)" stroke-width=".26458">
    <g transform="translate(-.0272 .0065001)">
     <circle cx="-330.35" cy="-328.38" r="0"/>
     <circle cx="-312.11" cy="-326.25" r="0"/>
     <circle cx="-306.02" cy="-333.07" r="0"/>
     <circle cx="-308.84" cy="-326.01" r="0"/>
    </g>
    <g transform="translate(-.0272 .0065001)">
     <circle cx="-330.35" cy="-328.38" r="0"/>
     <circle cx="-312.11" cy="-326.25" r="0"/>
     <circle cx="-306.02" cy="-333.07" r="0"/>
     <circle cx="-308.84" cy="-326.01" r="0"/>
    </g>
    <g transform="translate(-.02705 .0064503)">
     <circle cx="-330.35" cy="-328.38" r="0"/>
     <circle cx="-312.11" cy="-326.25" r="0"/>
     <circle cx="-306.02" cy="-333.07" r="0"/>
     <circle cx="-308.84" cy="-326.01" r="0"/>
    </g>
   </g>
  </g>
 </g>
</svg>
