<?xml version="1.0" encoding="UTF-8"?>
<!-- Created with Inkscape (http://www.inkscape.org/) -->
<svg width="64" height="64" version="1.1" viewBox="0 0 16.933 16.933" xmlns="http://www.w3.org/2000/svg" xmlns:cc="http://creativecommons.org/ns#" xmlns:dc="http://purl.org/dc/elements/1.1/" xmlns:rdf="http://www.w3.org/1999/02/22-rdf-syntax-ns#">
 <defs>
  <filter id="filter11290" x="-.024" y="-.024" width="1.048" height="1.048" color-interpolation-filters="sRGB">
   <feGaussianBlur stdDeviation="0.15875313"/>
  </filter>
  <linearGradient id="linearGradient1005" x1="2.3176" x2="14.487" y1="14.718" y2="2.5484" gradientTransform="translate(-.0078552 -5.0139e-5)" gradientUnits="userSpaceOnUse">
   <stop stop-color="#ff7832" offset="0"/>
   <stop stop-color="#f03c8c" offset=".33083"/>
   <stop stop-color="#32b4ff" offset=".66165"/>
   <stop stop-color="#b950fa" offset="1"/>
  </linearGradient>
 </defs>
 <metadata>
  <rdf:RDF>
   <cc:Work rdf:about="">
    <dc:format>image/svg+xml</dc:format>
    <dc:type rdf:resource="http://purl.org/dc/dcmitype/StillImage"/>
    <dc:title/>
   </cc:Work>
  </rdf:RDF>
 </metadata>
 <circle cx="8.4937" cy="8.46" r="7.9377" filter="url(#filter11290)" opacity=".25" stroke-width=".14032"/>
 <path d="m16.431 8.4599c0 0.95154-0.16749 1.8639-0.47464 2.7094-0.21351 0.58768-0.49439 1.1433-0.83393 1.6572-0.14222 0.21608-0.29514 0.42475-0.45746 0.62529-0.51966 0.64179-1.1372 1.2007-1.8305 1.6543-0.2553 0.16718-0.52065 0.3201-0.79536 0.45712-1.0668 0.53389-2.2711 0.83421-3.5456 0.83421s-2.4788-0.30032-3.5456-0.83424c-0.27474-0.13705-0.5404-0.28997-0.7957-0.45712-0.70207-0.45973-1.327-1.0274-1.8509-1.6798-0.16263-0.20216-0.31524-0.41275-0.45746-0.63078-0.33046-0.5054-0.60421-1.0507-0.8135-1.627-0.30711-0.84529-0.4743-1.7573-0.4743-2.7085 0-4.3838 3.5537-7.9375 7.9375-7.9375 2.2005 0 4.1917 0.89548 5.6295 2.3417 0.41436 0.41662 0.78274 0.87929 1.0963 1.3795 0.29645 0.47107 0.54428 0.97582 0.73704 1.5068 0.30718 0.84559 0.47467 1.7579 0.47467 2.7094z" fill="url(#linearGradient1005)" stroke-width=".031006"/>
 <g fill="#5e4aa6" stroke-width=".26458">
  <circle cx="-330.35" cy="-328.38" r="0"/>
  <circle cx="-312.11" cy="-326.25" r="0"/>
  <circle cx="-306.02" cy="-333.07" r="0"/>
  <circle cx="-308.84" cy="-326.01" r="0"/>
 </g>
 <g transform="translate(.9981 .081761)" fill="#fff">
  <path d="m5.4989 10.986 0.88317 0.87733c0.27667 0.27478 0.72292 0.27536 1.0001 0.0011l3.6525-3.6145c0.27721-0.27424 0.27741-0.71619 7.31e-4 -0.99097l-0.90763-0.90183z"/>
  <path d="m5.4989 10.986 4.6289-4.6289-2.5494-2.5319c-0.27668-0.27477-0.72292-0.27536-1.0001-0.0010984l-3.6525 3.6145c-0.27718 0.27426-0.27741 0.71619-7.309e-4 0.99097z" opacity=".8"/>
  <g transform="rotate(-45,12.275,27.771)">
   <path d="m21.695 13.562v2.5507c-8.7e-5 0.02189 6.09e-4 0.04378 0.0021 0.06563 0.0022 0.03083 6e-3 0.06153 0.01137 0.09198 0.0052 0.03029 0.01195 0.0603 0.02015 0.08992 0.0083 0.02976 0.01818 0.05907 0.02945 0.08785 0.01115 0.02886 0.02374 0.05715 0.03772 0.08475 0.01399 0.02745 0.02934 0.05418 0.04599 0.0801 0.01665 0.02603 0.03458 0.05121 0.05374 0.07545 0.01916 0.02408 0.03951 0.04719 0.06098 0.06924 0.02166 0.02232 0.04442 0.04353 0.06821 0.06356 0.02352 0.01981 0.04801 0.03844 0.07338 0.05581 0.02553 0.0175 0.05191 0.03372 0.07906 0.04858 0.02704 0.01481 0.05481 0.02826 0.0832 0.04031 0.0284 0.01195 0.05737 0.02247 0.08681 0.03152 0.02957 0.0091 0.05958 0.01667 0.08992 0.02274 0.03024 0.0062 0.06076 0.01083 0.09146 0.01395 0.03074 0.0031 0.06161 0.0046 0.0925 0.0047 0.02189 8.7e-5 0.04378-6.08e-4 0.06563-0.0021 0.03083-0.0022 0.06153-6e-3 0.09198-0.01137 0.03029-0.0052 0.0603-0.01195 0.08992-0.02015 0.02976-0.0083 0.05907-0.01818 0.08785-0.02945 0.02886-0.01115 0.05715-0.02374 0.08475-0.03772 0.02745-0.01399 0.05418-0.02934 0.0801-0.04599 0.02603-0.01664 0.05121-0.03458 0.07545-0.05374 0.02408-0.01916 0.04719-0.03951 0.06925-0.06098 0.02232-0.02166 0.04353-0.04442 0.06356-0.06821 0.01981-0.02352 0.03844-0.04801 0.05581-0.07338 0.0175-0.02553 0.03371-0.05191 0.04857-0.07906 0.01481-0.02704 0.02826-0.05481 0.04031-0.0832 0.01195-0.0284 0.02247-0.05737 0.03152-0.08681 0.0091-0.02957 0.01667-0.05958 0.02274-0.08992 0.0062-0.03024 0.01083-0.06076 0.01395-0.09147 0.0031-0.03074 0.0046-0.06161 0.0047-0.0925v-2.5507z"/>
   <path d="m21.695 13.599s0-0.54958-0.52916-0.54958l2.9104 0.02046s-0.52916-0.08268-0.52916 0.52916z"/>
  </g>
 </g>
</svg>
