<?xml version="1.0" encoding="UTF-8"?>
<svg width="64" height="64" version="1.1" viewBox="0 0 16.933 16.933" xmlns="http://www.w3.org/2000/svg" xmlns:cc="http://creativecommons.org/ns#" xmlns:dc="http://purl.org/dc/elements/1.1/" xmlns:rdf="http://www.w3.org/1999/02/22-rdf-syntax-ns#">
 <metadata>
  <rdf:RDF>
   <cc:Work rdf:about="">
    <dc:format>image/svg+xml</dc:format>
    <dc:type rdf:resource="http://purl.org/dc/dcmitype/StillImage"/>
    <dc:title/>
   </cc:Work>
  </rdf:RDF>
 </metadata>
 <defs>
  <filter id="filter11290" x="-.024" y="-.024" width="1.048" height="1.048" color-interpolation-filters="sRGB">
   <feGaussianBlur stdDeviation="0.15875313"/>
  </filter>
  <linearGradient id="linearGradient1005" x1=".8714" x2="16.246" y1="16.164" y2=".78937" gradientTransform="translate(-.035245 .00645)" gradientUnits="userSpaceOnUse">
   <stop stop-color="#00c8ff" offset="0"/>
   <stop stop-color="#14a0ff" offset="1"/>
  </linearGradient>
 </defs>
 <circle cx="-330.35" cy="-328.38" r="0" fill="#5e4aa6" stroke-width=".26458"/>
 <circle cx="-39.434" cy="6.44" r="0" fill="#5e4aa6" fill-rule="evenodd" stroke-width=".26458"/>
 <circle cx="8.4665" cy="8.4665" r="7.9377" filter="url(#filter11290)" opacity=".25" stroke-width=".14032"/>
 <path d="m16.404 8.4664c0 0.95154-0.16749 1.8639-0.47464 2.7094-0.21351 0.58768-0.49439 1.1433-0.83393 1.6572-0.14222 0.21608-0.29514 0.42475-0.45746 0.62529-0.51966 0.64179-1.1372 1.2007-1.8305 1.6543-0.2553 0.16718-0.52065 0.3201-0.79536 0.45712-1.0668 0.53389-2.2711 0.83421-3.5456 0.83421s-2.4788-0.30032-3.5456-0.83424c-0.27474-0.13705-0.5404-0.28997-0.7957-0.45712-0.70207-0.45973-1.327-1.0274-1.8509-1.6798-0.16263-0.20216-0.31524-0.41275-0.45746-0.63078-0.33046-0.5054-0.60421-1.0507-0.8135-1.627-0.30711-0.84529-0.4743-1.7573-0.4743-2.7085 0-4.3838 3.5537-7.9375 7.9375-7.9375 2.2005 0 4.1917 0.89548 5.6295 2.3417 0.41436 0.41662 0.78274 0.87929 1.0963 1.3795 0.29645 0.47107 0.54428 0.97582 0.73704 1.5068 0.30718 0.84559 0.47467 1.7579 0.47467 2.7094z" fill="url(#linearGradient1005)" stroke-width=".031006"/>
 <g transform="translate(-.0272 .0065001)" fill="#5e4aa6" stroke-width=".26458">
  <circle cx="-330.35" cy="-328.38" r="0"/>
  <circle cx="-312.11" cy="-326.25" r="0"/>
  <circle cx="-306.02" cy="-333.07" r="0"/>
  <circle cx="-308.84" cy="-326.01" r="0"/>
 </g>
 <g transform="translate(-19.857 -.21669)" fill="#fff">
  <path d="m29.881 6.5604a1.0831 0.82507 0 0 0-0.03514 0.00155v0.43407c0.0059 0.00718 0.02194 0.00618 0.02739 0.013436 0.11073 0.14733 0.15806 0.3158 0.15813 0.4904-6.5e-5 0.1746-0.04739 0.34307-0.15813 0.4904-0.05599 0.074496-0.18403 0.090251-0.27956 0.14262-0.0337 0.12312-0.04251 0.23914-0.10697 0.3669-0.01193 0.023785-0.02597 0.047005-0.04134 0.068728l-0.22427 0.31419 2.2029 1.3771c0.02411 0.01506 0.04682 0.03191 0.06821 0.05064 0.45344 0.39945 0.65113 0.91028 0.60564 1.3487h0.04909c0.31623 0 0.76614-0.49113 0.17156-1.0857l-1.9507-1.2195 0.38963-0.54879c0.05974-0.13443 0.08836-0.26067 0.0987-0.37516h0.10904v-5.17e-4a0.13231 0.17607 0 0 0 0.12299-0.1757 0.13231 0.17607 0 0 0-0.12299-0.1757v-0.71519h-0.0021a1.0831 0.82507 0 0 0-1.082-0.80252zm-1.1777 3.2462-1.2273 0.76686c-0.66533 0.58612-0.15062 1.0857 0.17156 1.0857h3.2705c0.03639-0.02402 0.11516-0.0657 0.13281-0.10645 0.02545-0.05877 0.07161-0.1451-0.25011-0.43562z" style="paint-order:markers fill stroke"/>
  <path d="m27.812 5.1571a1.498 1.1411 0 0 0-1.496 1.1105h-0.0031v0.98855a0.18299 0.24351 0 0 0-0.0041 0 0.18299 0.24351 0 0 0-0.18293 0.24339 0.18299 0.24351 0 0 0 0.18293 0.24339 0.18299 0.24351 0 0 0 0.0041 0h0.15089c0.01534 0.15907 0.05868 0.33401 0.15193 0.51881l0.54879 0.77204-2.6783 1.6743c-0.92021 0.81065-0.20842 1.5012 0.23719 1.5012h6.2229c0.43738 0 1.0595-0.67883 0.23719-1.5012l-2.6985-1.6872 0.5395-0.75911c0.08263-0.18592 0.12212-0.36046 0.13642-0.51881h0.15038v-5.292e-4a0.18299 0.24351 0 0 1 5.29e-4 0 0.18299 0.24351 0 0 0 0.17001-0.24288 0.18299 0.24351 0 0 0-0.17053-0.24288v-0.98905h-0.0026a1.498 1.1411 0 0 0-1.4965-1.1105z" style="paint-order:markers fill stroke"/>
 </g>
</svg>
