<?xml version="1.0" encoding="UTF-8"?>
<!-- Created with Inkscape (http://www.inkscape.org/) -->
<svg width="64" height="64" version="1.1" viewBox="0 0 16.933 16.933" xmlns="http://www.w3.org/2000/svg" xmlns:cc="http://creativecommons.org/ns#" xmlns:dc="http://purl.org/dc/elements/1.1/" xmlns:rdf="http://www.w3.org/1999/02/22-rdf-syntax-ns#">
 <defs>
  <filter id="filter11290" x="-.024" y="-.024" width="1.048" height="1.048" color-interpolation-filters="sRGB">
   <feGaussianBlur stdDeviation="0.15875313"/>
  </filter>
  <linearGradient id="linearGradient1005" x1=".73911" x2="16.388" y1="16.296" y2=".64687" gradientTransform="translate(-.0078552 -5.0139e-5)" gradientUnits="userSpaceOnUse">
   <stop stop-color="#dddfe1" offset="0"/>
   <stop stop-color="#f3f4f6" offset="1"/>
  </linearGradient>
  <linearGradient id="f-8" x1="86" x2="63" y1="19.458" y2="39" gradientTransform="matrix(.26458 0 0 .26458 -12.144 280.07)" gradientUnits="userSpaceOnUse">
   <stop stop-color="#007abb" offset="0"/>
   <stop stop-color="#006caf" offset="1"/>
  </linearGradient>
  <linearGradient id="d-0" x1="87" x2="63" y1="46" y2="24" gradientTransform="matrix(.26458 0 0 .26458 -12.144 280.07)" gradientUnits="userSpaceOnUse">
   <stop stop-color="#0080ce" offset="0"/>
   <stop stop-color="#008fd5" offset="1"/>
  </linearGradient>
 </defs>
 <metadata>
  <rdf:RDF>
   <cc:Work rdf:about="">
    <dc:format>image/svg+xml</dc:format>
    <dc:type rdf:resource="http://purl.org/dc/dcmitype/StillImage"/>
    <dc:title/>
   </cc:Work>
  </rdf:RDF>
 </metadata>
 <circle cx="8.4937" cy="8.46" r="7.9377" filter="url(#filter11290)" opacity=".25" stroke-width=".14032"/>
 <path d="m16.431 8.4599c0 0.95154-0.16749 1.8639-0.47464 2.7094-0.21351 0.58768-0.49439 1.1433-0.83393 1.6572-0.14222 0.21608-0.29514 0.42475-0.45746 0.62529-0.51966 0.64179-1.1372 1.2007-1.8305 1.6543-0.2553 0.16718-0.52065 0.3201-0.79536 0.45712-1.0668 0.53389-2.2711 0.83421-3.5456 0.83421s-2.4788-0.30032-3.5456-0.83424c-0.27474-0.13705-0.5404-0.28997-0.7957-0.45712-0.70207-0.45973-1.327-1.0274-1.8509-1.6798-0.16263-0.20216-0.31524-0.41275-0.45746-0.63078-0.33046-0.5054-0.60421-1.0507-0.8135-1.627-0.30711-0.84529-0.4743-1.7573-0.4743-2.7085 0-4.3838 3.5537-7.9375 7.9375-7.9375 2.2005 0 4.1917 0.89548 5.6295 2.3417 0.41436 0.41662 0.78274 0.87929 1.0963 1.3795 0.29645 0.47107 0.54428 0.97582 0.73704 1.5068 0.30718 0.84559 0.47467 1.7579 0.47467 2.7094z" fill="url(#linearGradient1005)" stroke-width=".031006"/>
 <g fill="#5e4aa6" stroke-width=".26458">
  <circle cx="-330.35" cy="-328.38" r="0"/>
  <circle cx="-312.11" cy="-326.25" r="0"/>
  <circle cx="-306.02" cy="-333.07" r="0"/>
  <circle cx="-308.84" cy="-326.01" r="0"/>
 </g>
 <g transform="translate(.0003728 -280.07)" fill-rule="evenodd" stroke-width=".26458">
  <path d="m10.404 284.31c-0.09052 0.0101-0.17861 0.0411-0.26665 0.0992 0.13773 0.17144-0.1403 1.7855 0.20786 2.004l0.2717 0.17053v3.8923l-0.4268 0.31978c-0.32896 0.24647 0.02978 1.6662-0.05651 1.8488 0.09533 0.0582 0.23775 0.1203 0.36237 0.10514 0.03992-5e-3 0.08033-0.016 0.12041-0.0356l1.7369-0.85164c0.18929-0.0928 0.38034-0.16954 0.38034-0.38034v-5.9044c0-0.21081-0.19104-0.28758-0.38034-0.38034l-1.7369-0.85164c-0.04007-0.0196-0.08048-0.0308-0.12041-0.0357-0.03116-4e-3 -0.06181-3e-3 -0.09199 0z" fill="#0d96dd" style="paint-order:stroke fill markers"/>
  <path d="m4.377 289.72 5.6512-5.2229c0.25657-0.23713 0.58888-0.15304 0.58888 0.33742v1.7579l-5.2245 3.9957c-0.091358 0.0718-0.32943 0.24314-0.53716 0.0456l-0.52856-0.50252c-0.1387-0.13187-0.059883-0.30962 0.050099-0.41127z" fill="url(#f-8)" style="paint-order:stroke fill markers"/>
  <path d="m4.377 287.35 5.6512 5.2229c0.25657 0.23712 0.58888 0.15304 0.58888-0.33742v-1.7579l-5.2245-3.9957c-0.091358-0.0718-0.32943-0.24313-0.53716-0.0456l-0.52856 0.50252c-0.1387 0.13187-0.059883 0.30961 0.050099 0.41127z" fill="url(#d-0)" style="paint-order:stroke fill markers"/>
 </g>
</svg>
