<?xml version="1.0" encoding="UTF-8"?>
<svg width="64" height="64" version="1.1" viewBox="0 0 64 64" xmlns="http://www.w3.org/2000/svg" xmlns:cc="http://creativecommons.org/ns#" xmlns:dc="http://purl.org/dc/elements/1.1/" xmlns:rdf="http://www.w3.org/1999/02/22-rdf-syntax-ns#">
 <metadata>
  <rdf:RDF>
   <cc:Work rdf:about="">
    <dc:format>image/svg+xml</dc:format>
    <dc:type rdf:resource="http://purl.org/dc/dcmitype/StillImage"/>
    <dc:title/>
   </cc:Work>
  </rdf:RDF>
 </metadata>
 <defs>
  <style type="text/css"/>
  <style type="text/css"/>
  <filter id="filter11290" x="-.024" y="-.024" width="1.048" height="1.048" color-interpolation-filters="sRGB">
   <feGaussianBlur stdDeviation="0.15875313"/>
  </filter>
  <linearGradient id="linearGradient1005" x1=".73911" x2="16.388" y1="16.296" y2=".64687" gradientTransform="matrix(3.7796 0 0 3.7796 -.13249 .024378)" gradientUnits="userSpaceOnUse">
   <stop stop-color="#8cd750" offset="0"/>
   <stop stop-color="#7dcd32" offset=".48311"/>
   <stop stop-color="#87d241" offset="1"/>
  </linearGradient>
  <style type="text/css"/>
  <style type="text/css"/>
 </defs>
 <g transform="translate(1.6204e-5 1.6204e-5)">
  <g transform="matrix(3.7796,0,0,3.7796,101.59,7.0752)" fill="#5e4aa6" stroke-width=".26458">
   <circle cx="-330.35" cy="-328.38" r="0"/>
   <circle cx="-312.11" cy="-326.25" r="0"/>
   <circle cx="-306.02" cy="-333.07" r="0"/>
   <circle cx="-308.84" cy="-326.01" r="0"/>
  </g>
  <circle transform="scale(3.7796)" cx="8.4665" cy="8.4665" r="7.9377" filter="url(#filter11290)" opacity=".25" stroke-width=".14032"/>
  <path d="m62.001 32c0 3.5964-0.63304 7.0448-1.794 10.24-0.80698 2.2212-1.8686 4.3212-3.1519 6.2636-0.53754 0.8167-1.1155 1.6054-1.729 2.3633-1.9641 2.4257-4.2982 4.5382-6.9186 6.2526-0.96493 0.63187-1.9678 1.2099-3.0061 1.7277-4.0321 2.0179-8.5839 3.153-13.401 3.153s-9.3689-1.1351-13.401-3.1531c-1.0384-0.518-2.0425-1.096-3.0074-1.7277-2.6535-1.7376-5.0155-3.8832-6.9957-6.349-0.61468-0.76408-1.1915-1.56-1.729-2.3841-1.249-1.9102-2.2837-3.9712-3.0747-6.1494-1.1608-3.1949-1.7927-6.6419-1.7927-10.237 0-16.569 13.432-30.001 30.001-30.001 8.317 0 15.843 3.3846 21.277 8.8507 1.5661 1.5747 2.9584 3.3234 4.1436 5.214 1.1205 1.7805 2.0572 3.6882 2.7857 5.6951 1.161 3.196 1.7941 6.6442 1.7941 10.24z" fill="url(#linearGradient1005)" stroke-width=".11719"/>
  <g transform="matrix(3.7796 0 0 3.7796 -.10281 .024568)" fill="#5e4aa6" stroke-width=".26458">
   <circle cx="-330.35" cy="-328.38" r="0"/>
   <circle cx="-312.11" cy="-326.25" r="0"/>
   <circle cx="-306.02" cy="-333.07" r="0"/>
   <circle cx="-308.84" cy="-326.01" r="0"/>
  </g>
 </g>
 <g transform="matrix(3.7796 0 0 3.7796 101.58 7.0751)" fill="#5e4aa6" stroke-width=".26458">
  <circle cx="-330.35" cy="-328.38" r="0"/>
  <circle cx="-312.11" cy="-326.25" r="0"/>
  <circle cx="-306.02" cy="-333.07" r="0"/>
  <circle cx="-308.84" cy="-326.01" r="0"/>
 </g>
 <g transform="matrix(1.3199 0 0 1.3199 106.51 -20.137)">
  <path d="m-58.153 33.504c-0.181-0.462-0.317-0.479-0.592-0.496-0.095-4e-3 -0.2-8e-3 -0.31-8e-3 -0.358 0-0.724 0.114-0.947 0.356-0.271 0.299-0.947 0.994-0.947 2.426s0.96654 2.8157 1.1028 3.0074c0.13628 0.19693 1.8954 3.174 4.6249 4.3901 2.1332 0.94905 2.7672 0.86734 3.2544 0.75316 0.70558-0.1676 1.5967-0.72802 1.82-1.4079 0.22617-0.67879 0.22617-1.2602 0.15851-1.3827-0.06766-0.11837-0.24937-0.19274-0.5171-0.33939-0.2716-0.14351-1.6006-0.84744-1.85-0.94486-0.24937-0.09847-0.47941-0.06599-0.66788 0.21684-0.26387 0.39282-0.5171 0.79402-0.72878 1.0308-0.16238 0.18855-0.42624 0.21684-0.65725 0.10999-0.29866-0.13513-1.1405-0.45462-2.1747-1.4445-0.80416-0.76888-1.3483-1.7232-1.5068-2.0133-0.15851-0.29016-0.01546-0.46195 0.10922-0.62222 0.13628-0.18017 0.26387-0.31111 0.40015-0.47871 0.13628-0.17179 0.21167-0.26188 0.30253-0.45881 0.09085-0.19274 0.02997-0.39282-0.03769-0.53633-0.06766-0.1477-0.61182-1.5797-0.83413-2.161" fill="#fff" fill-rule="evenodd" stroke-width="1.0062"/>
  <path d="m-55.948 27c-6.6156 0-12.002 5.3844-12 12 5.91e-4 2.1633 0.65532 4.2538 1.7598 6.1055l-2.761 6.894 6.667-2.908c1.9041 1.1954 4.0772 1.9075 6.334 1.9082 6.6156 0.0019 12-5.3844 12-12s-5.3844-12-12-12zm0 2c5.5347 0 10 4.4653 10 10 0 5.534-4.4643 10.001-9.998 10-2.0573-3.59e-4 -4.0639-0.63978-5.7461-1.8242l-0.46094-0.32422-3.1133 1.3613 1.2852-3.248-0.29102-0.43555c-1.0909-1.6386-1.6736-3.5627-1.6758-5.5312 0.0011-5.5338 4.466-9.998 10-9.998z" color="#000000" color-rendering="auto" dominant-baseline="auto" fill="#f9f9f9" image-rendering="auto" shape-rendering="auto" solid-color="#000000" style="font-feature-settings:normal;font-variant-alternates:normal;font-variant-caps:normal;font-variant-ligatures:normal;font-variant-numeric:normal;font-variant-position:normal;isolation:auto;mix-blend-mode:normal;shape-padding:0;text-decoration-color:#000000;text-decoration-line:none;text-decoration-style:solid;text-indent:0;text-orientation:mixed;text-transform:none;white-space:normal"/>
 </g>
</svg>
