<?xml version="1.0" encoding="UTF-8"?>
<svg width="64" height="64" version="1.1" viewBox="0 0 16.933 16.933" xmlns="http://www.w3.org/2000/svg" xmlns:cc="http://creativecommons.org/ns#" xmlns:dc="http://purl.org/dc/elements/1.1/" xmlns:rdf="http://www.w3.org/1999/02/22-rdf-syntax-ns#">
 <metadata>
  <rdf:RDF>
   <cc:Work rdf:about="">
    <dc:format>image/svg+xml</dc:format>
    <dc:type rdf:resource="http://purl.org/dc/dcmitype/StillImage"/>
    <dc:title/>
   </cc:Work>
  </rdf:RDF>
 </metadata>
 <defs>
  <filter id="filter11290" x="-.024" y="-.024" width="1.048" height="1.048" color-interpolation-filters="sRGB">
   <feGaussianBlur stdDeviation="0.15875313"/>
  </filter>
  <linearGradient id="linearGradient1005" x1=".73911" x2="16.388" y1="16.296" y2=".64687" gradientTransform="translate(-.03491 .0064999)" gradientUnits="userSpaceOnUse">
   <stop stop-color="#00dc96" offset="0"/>
   <stop stop-color="#14d29b" offset="1"/>
  </linearGradient>
 </defs>
 <g fill="#5e4aa6">
  <circle cx="-330.35" cy="-328.38" r="0" stroke-width=".26458"/>
  <circle cx="-363.86" cy="-335.91" r="0" stroke-width=".26458"/>
  <circle cx="-72.941" cy="-1.0938" r="0" fill-rule="evenodd" stroke-width=".26458"/>
 </g>
 <circle cx="8.4665" cy="8.4665" r="7.9377" filter="url(#filter11290)" opacity=".25" stroke-width=".14032"/>
 <path d="m16.404 8.4664c0 0.95154-0.16749 1.8639-0.47464 2.7094-0.21351 0.58768-0.49439 1.1433-0.83393 1.6572-0.14222 0.21608-0.29514 0.42475-0.45746 0.62529-0.51966 0.64179-1.1372 1.2007-1.8305 1.6543-0.2553 0.16718-0.52065 0.3201-0.79536 0.45712-1.0668 0.53389-2.2711 0.83421-3.5456 0.83421s-2.4788-0.30032-3.5456-0.83424c-0.27474-0.13705-0.5404-0.28997-0.7957-0.45712-0.70207-0.45973-1.327-1.0274-1.8509-1.6798-0.16263-0.20216-0.31524-0.41275-0.45746-0.63078-0.33046-0.5054-0.60421-1.0507-0.8135-1.627-0.30711-0.84529-0.4743-1.7573-0.4743-2.7085 0-4.3838 3.5537-7.9375 7.9375-7.9375 2.2005 0 4.1917 0.89548 5.6295 2.3417 0.41436 0.41662 0.78274 0.87929 1.0963 1.3795 0.29645 0.47107 0.54428 0.97582 0.73704 1.5068 0.30718 0.84559 0.47467 1.7579 0.47467 2.7094z" fill="url(#linearGradient1005)" stroke-width=".031006"/>
 <g transform="translate(-4.3322 -6.9532)" fill="#5e4aa6" stroke-width=".26458">
  <circle cx="-330.35" cy="-328.38" r="0"/>
  <circle cx="-312.11" cy="-326.25" r="0"/>
  <circle cx="-306.02" cy="-333.07" r="0"/>
  <circle cx="-308.84" cy="-326.01" r="0"/>
 </g>
 <g transform="translate(-.027775 .0051059)" fill="#fff" fill-rule="evenodd">
  <path transform="scale(.26458)" d="m26.77 15.721c-7.7546 1.05e-4 -14.041 5.8011-14.041 12.957 0.0014 3.9709 1.9759 7.7219 5.3574 10.178-0.02173 0.05031-0.95727 2.2153-2.3633 3.8203 0 0 2.6081-0.19962 5.0625-2.2891 1.8707 0.81801 3.9143 1.2442 5.9844 1.248 0.77821-0.0011 1.555-0.06181 2.3223-0.18164-0.62151-1.3526-0.9668-2.8428-0.9668-4.4102 0-6.2486 5.4798-11.258 12.129-11.258h0.18359c-1.4601-5.8828-7.128-10.056-13.668-10.064zm-5.1816 6.4551a2.1595 2.1595 0 0 1 2.1582 2.1602 2.1595 2.1595 0 0 1-2.1582 2.1582 2.1595 2.1595 0 0 1-2.1602-2.1582 2.1595 2.1595 0 0 1 2.1602-2.1602zm10.07 0a2.1595 2.1595 0 0 1 2.1602 2.1602 2.1595 2.1595 0 0 1-2.1602 2.1582 2.1595 2.1595 0 0 1-2.1602-2.1582 2.1595 2.1595 0 0 1 2.1602-2.1602z" stroke-width="2.2481"/>
  <path transform="scale(.26458)" d="m40.252 26.686a11.228 10.361 0 0 0-11.227 10.359 11.228 10.361 0 0 0 11.227 10.361 11.228 10.361 0 0 0 4.7871-0.99805c1.9626 1.6707 4.0469 1.832 4.0469 1.832-1.1244-1.2834-1.8713-3.0163-1.8887-3.0566a11.228 10.361 0 0 0 4.2832-8.1387 11.228 10.361 0 0 0-11.229-10.359zm-4.1426 5.1914a1.7268 1.7268 0 0 1 1.7266 1.7266 1.7268 1.7268 0 0 1-1.7266 1.7266 1.7268 1.7268 0 0 1-1.7266-1.7266 1.7268 1.7268 0 0 1 1.7266-1.7266zm8.0547 0a1.7268 1.7268 0 0 1 1.7266 1.7266 1.7268 1.7268 0 0 1-1.7266 1.7266 1.7268 1.7268 0 0 1-1.7266-1.7266 1.7268 1.7268 0 0 1 1.7266-1.7266z" stroke-width="1.7976"/>
 </g>
</svg>
