<?xml version="1.0" encoding="UTF-8"?>
<!-- Created with Inkscape (http://www.inkscape.org/) -->
<svg width="64" height="64" version="1.1" viewBox="0 0 16.933 16.933" xmlns="http://www.w3.org/2000/svg" xmlns:cc="http://creativecommons.org/ns#" xmlns:dc="http://purl.org/dc/elements/1.1/" xmlns:rdf="http://www.w3.org/1999/02/22-rdf-syntax-ns#" xmlns:xlink="http://www.w3.org/1999/xlink">
 <defs>
  <filter id="filter11290" x="-.024" y="-.024" width="1.048" height="1.048" color-interpolation-filters="sRGB">
   <feGaussianBlur stdDeviation="0.15875313"/>
  </filter>
  <linearGradient id="linearGradient1005" x1=".73911" x2="16.388" y1="16.296" y2=".64687" gradientTransform="translate(-.0078552 -5.0139e-5)" gradientUnits="userSpaceOnUse">
   <stop stop-color="#dddfe1" offset="0"/>
   <stop stop-color="#f3f4f6" offset="1"/>
  </linearGradient>
 </defs>
 <metadata>
  <rdf:RDF>
   <cc:Work rdf:about="">
    <dc:format>image/svg+xml</dc:format>
    <dc:type rdf:resource="http://purl.org/dc/dcmitype/StillImage"/>
    <dc:title/>
   </cc:Work>
  </rdf:RDF>
 </metadata>
 <circle cx="8.4937" cy="8.46" r="7.9377" filter="url(#filter11290)" opacity=".25" stroke-width=".14032"/>
 <path d="m16.431 8.4599c0 0.95154-0.16749 1.8639-0.47464 2.7094-0.21351 0.58768-0.49439 1.1433-0.83393 1.6572-0.14222 0.21608-0.29514 0.42475-0.45746 0.62529-0.51966 0.64179-1.1372 1.2007-1.8305 1.6543-0.2553 0.16718-0.52065 0.3201-0.79536 0.45712-1.0668 0.53389-2.2711 0.83421-3.5456 0.83421s-2.4788-0.30032-3.5456-0.83424c-0.27474-0.13705-0.5404-0.28997-0.7957-0.45712-0.70207-0.45973-1.327-1.0274-1.8509-1.6798-0.16263-0.20216-0.31524-0.41275-0.45746-0.63078-0.33046-0.5054-0.60421-1.0507-0.8135-1.627-0.30711-0.84529-0.4743-1.7573-0.4743-2.7085 0-4.3838 3.5537-7.9375 7.9375-7.9375 2.2005 0 4.1917 0.89548 5.6295 2.3417 0.41436 0.41662 0.78274 0.87929 1.0963 1.3795 0.29645 0.47107 0.54428 0.97582 0.73704 1.5068 0.30718 0.84559 0.47467 1.7579 0.47467 2.7094z" fill="url(#linearGradient1005)" stroke-width=".031006"/>
 <g fill="#5e4aa6">
  <g stroke-width=".26458">
   <circle cx="-330.35" cy="-328.38" r="0"/>
   <circle cx="-312.11" cy="-326.25" r="0"/>
   <circle cx="-306.02" cy="-333.07" r="0"/>
   <circle cx="-308.84" cy="-326.01" r="0"/>
  </g>
  <circle cx="-298.82" cy="-353.17" r="0" stroke-width=".26458"/>
  <g transform="translate(10.272 -16.531)" stroke-width=".26458">
   <circle cx="-330.35" cy="-328.38" r="0"/>
   <circle cx="-39.434" cy="6.44" r="0" fill-rule="evenodd"/>
   <circle cx="-306.9" cy="-332.28" r="0"/>
  </g>
 </g>
 <g transform="translate(.027005 .1369)">
  <g transform="translate(-.287 .14337)" fill="#d2d2d2" stroke-width=".27968">
   <rect x="3.4395" y="2.8656" width=".55937" height=".55937" rx=".41953" ry=".41953"/>
   <rect x="13.508" y="2.8656" width=".55937" height=".55937" rx=".41953" ry=".41953"/>
   <rect x="13.508" y="12.934" width=".55937" height=".55937" rx=".41953" ry=".41953"/>
   <rect x="3.4395" y="12.934" width=".55937" height=".55937" rx=".41953" ry=".41953"/>
  </g>
  <path d="m8.4666 2.6346a5.6885 5.6885 0 0 0-5.6885 5.6885 5.6885 5.6885 0 0 0 5.6885 5.6885 5.6885 5.6885 0 0 0 5.6885-5.6885 5.6885 5.6885 0 0 0-5.6885-5.6885zm0 3.8364a1.8521 1.8521 0 0 1 0.185 0.0093 1.8521 1.8521 0 0 1 0.18293 0.027389 1.8521 1.8521 0 0 1 0.17931 0.045992 1.8521 1.8521 0 0 1 0.17415 0.06356 1.8521 1.8521 0 0 1 0.1664 0.080615 1.8521 1.8521 0 0 1 0.15813 0.096635 1.8521 1.8521 0 0 1 0.14728 0.11214 1.8521 1.8521 0 0 1 0.13539 0.12609 1.8521 1.8521 0 0 1 0.12247 0.13901 1.8521 1.8521 0 0 1 0.10748 0.15038 1.8521 1.8521 0 0 1 0.09198 0.16071 1.8521 1.8521 0 0 1 0.07596 0.16898 1.8521 1.8521 0 0 1 0.05839 0.1757 1.8521 1.8521 0 0 1 0.04031 0.18086 1.8521 1.8521 0 0 1 0.02222 0.18345 1.8521 1.8521 0 0 1 0.0047 0.13126 1.8521 1.8521 0 0 1-0.0093 0.185 1.8521 1.8521 0 0 1-0.02739 0.18293 1.8521 1.8521 0 0 1-0.04599 0.17932 1.8521 1.8521 0 0 1-0.06356 0.17363 1.8521 1.8521 0 0 1-0.08062 0.16691 1.8521 1.8521 0 0 1-0.09663 0.15813 1.8521 1.8521 0 0 1-0.11214 0.14728 1.8521 1.8521 0 0 1-0.12609 0.13539 1.8521 1.8521 0 0 1-0.13901 0.12196 1.8521 1.8521 0 0 1-0.15038 0.108 1.8521 1.8521 0 0 1-0.16071 0.09198 1.8521 1.8521 0 0 1-0.16898 0.07545 1.8521 1.8521 0 0 1-0.1757 0.05839 1.8521 1.8521 0 0 1-0.18086 0.04082 1.8521 1.8521 0 0 1-0.18345 0.02222 1.8521 1.8521 0 0 1-0.13126 0.0047 1.8521 1.8521 0 0 1-0.185-0.0093 1.8521 1.8521 0 0 1-0.18293-0.02791 1.8521 1.8521 0 0 1-0.17932-0.04547 1.8521 1.8521 0 0 1-0.17363-0.06356 1.8521 1.8521 0 0 1-0.16691-0.08061 1.8521 1.8521 0 0 1-0.15761-0.09664 1.8521 1.8521 0 0 1-0.14779-0.11214 1.8521 1.8521 0 0 1-0.13539-0.12609 1.8521 1.8521 0 0 1-0.12196-0.13901 1.8521 1.8521 0 0 1-0.108-0.15089 1.8521 1.8521 0 0 1-0.09198-0.1602 1.8521 1.8521 0 0 1-0.07545-0.16898 1.8521 1.8521 0 0 1-0.05839-0.1757 1.8521 1.8521 0 0 1-0.04082-0.18086 1.8521 1.8521 0 0 1-0.02222-0.18396 1.8521 1.8521 0 0 1-0.0047-0.13074 1.8521 1.8521 0 0 1 0.0093-0.185 1.8521 1.8521 0 0 1 0.0279-0.18293 1.8521 1.8521 0 0 1 0.04547-0.17931 1.8521 1.8521 0 0 1 0.06356-0.17415 1.8521 1.8521 0 0 1 0.08062-0.1664 1.8521 1.8521 0 0 1 0.09663-0.15813 1.8521 1.8521 0 0 1 0.11214-0.14728 1.8521 1.8521 0 0 1 0.12609-0.13539 1.8521 1.8521 0 0 1 0.13901-0.12247 1.8521 1.8521 0 0 1 0.15089-0.10749 1.8521 1.8521 0 0 1 0.16071-0.091984 1.8521 1.8521 0 0 1 0.16898-0.075964 1.8521 1.8521 0 0 1 0.17518-0.058393 1.8521 1.8521 0 0 1 0.18086-0.040306 1.8521 1.8521 0 0 1 0.18396-0.022219 1.8521 1.8521 0 0 1 0.13074-0.00465z" fill="#323232" stroke="#fafafa" stroke-width=".26458"/>
 </g>
</svg>
