<?xml version="1.0" encoding="UTF-8"?>
<!-- Created with Inkscape (http://www.inkscape.org/) -->
<svg width="64" height="64" version="1.1" viewBox="0 0 16.933 16.933" xmlns="http://www.w3.org/2000/svg" xmlns:cc="http://creativecommons.org/ns#" xmlns:dc="http://purl.org/dc/elements/1.1/" xmlns:rdf="http://www.w3.org/1999/02/22-rdf-syntax-ns#">
 <defs>
  <filter id="filter11290" x="-.024" y="-.024" width="1.048" height="1.048" color-interpolation-filters="sRGB">
   <feGaussianBlur stdDeviation="0.15875313"/>
  </filter>
 </defs>
 <metadata>
  <rdf:RDF>
   <cc:Work rdf:about="">
    <dc:format>image/svg+xml</dc:format>
    <dc:type rdf:resource="http://purl.org/dc/dcmitype/StillImage"/>
    <dc:title/>
   </cc:Work>
  </rdf:RDF>
 </metadata>
 <circle cx="8.4937" cy="8.46" r="7.9377" filter="url(#filter11290)" opacity=".25" stroke-width=".14032"/>
 <path d="m16.439 8.46c0 0.95154-0.16749 1.8639-0.47464 2.7094-0.21351 0.58768-0.49439 1.1433-0.83393 1.6572-0.14222 0.21608-0.29514 0.42475-0.45746 0.62529-0.51966 0.64179-1.1372 1.2007-1.8305 1.6543-0.2553 0.16718-0.52065 0.3201-0.79536 0.45712-1.0668 0.53389-2.2711 0.83421-3.5456 0.83421s-2.4788-0.30032-3.5456-0.83424c-0.27474-0.13705-0.5404-0.28997-0.7957-0.45712-0.70207-0.45973-1.327-1.0274-1.8509-1.6798-0.16263-0.20216-0.31524-0.41275-0.45746-0.63078-0.33046-0.5054-0.60421-1.0507-0.8135-1.627-0.30711-0.84529-0.4743-1.7573-0.4743-2.7085 0-4.3838 3.5537-7.9375 7.9375-7.9375 2.2005 0 4.1917 0.89548 5.6295 2.3417 0.41436 0.41662 0.78274 0.87929 1.0963 1.3795 0.29645 0.47107 0.54428 0.97582 0.73704 1.5068 0.30718 0.84559 0.47467 1.7579 0.47467 2.7094z" fill="#e65a0a" stroke-width=".031006"/>
 <g stroke-width=".031006">
  <path d="m7.6223 6.3531c0.26295 0 0.51363-0.076548 0.72603-0.2129 1.095e-4 -7.04e-5 -1.095e-4 -4.498e-4 0-5.292e-4 -0.21241 0.13636-0.46312 0.21342-0.72603 0.21342z" fill="#ffd241"/>
  <path d="m14.552 5.0953-3.1398-3.1403v2.6184h-5.29e-4c0 0.1441 0.05847 0.27448 0.15296 0.36896 0.09449 0.094481 0.22538 0.15296 0.36949 0.15296h2.6179z" fill="#fafafa" opacity=".6"/>
  <path d="m2.9728 1.9528c-0.28821 0-0.52194 0.23427-0.52194 0.52244v9.732c1.2697 2.001 3.5046 3.3295 6.0502 3.3295s4.781-1.3285 6.0507-3.3295v-7.1122h-2.6179c-0.1441 0-0.275-0.05848-0.36949-0.15296-0.09449-0.094482-0.15296-0.22486-0.15296-0.36896h5.29e-4v-2.6184l3.1398 3.1403v-0.00206l-3.1403-3.1403h-8.4388zm0.68005 1.5508h4.3515c-0.00241 0.040132-0.00504 0.072511-0.00775 0.11317h-4.3357c-0.0029-0.037639-0.00565-0.075379-0.00827-0.11317zm0 0.84904h4.3515c-0.00241 0.040134-0.00504 0.072511-0.00775 0.11317h-4.3357c-0.0029-0.037639-0.00565-0.075376-0.00827-0.11317zm0 0.84904h4.3515c-0.00241 0.040134-0.00504 0.072511-0.00775 0.11317h-4.3357c-0.0029-0.037639-0.00565-0.075376-0.00827-0.11317zm0 0.84904h4.3515c-0.00241 0.040134-0.00504 0.072511-0.00775 0.11317h-4.3357c-0.0029-0.037639-0.00565-0.075376-0.00827-0.11317z" fill="#fafafa"/>
  <path d="m15.964 9.4804h-14.926v1.6801c0.20929 0.57631 0.48291 1.1219 0.81337 1.6273 0.14222 0.21803 0.29469 0.42828 0.45733 0.63044 0.52389 0.6524 1.1489 1.2202 1.851 1.68 0.2553 0.16715 0.52106 0.32027 0.7958 0.45733 1.0668 0.53392 2.271 0.83404 3.5454 0.83404 1.2745 0 2.4787-0.30017 3.5454-0.83404 0.27471-0.13702 0.53998-0.29014 0.7953-0.45733 0.69331-0.4536 1.3112-1.0123 1.8309-1.6542 0.16232-0.20054 0.31512-0.4092 0.45733-0.62528 0.33954-0.51389 0.62055-1.0696 0.83404-1.6572z" fill="#ff820a"/>
 </g>
 <path d="m15.964 6.5954v3.3469h-14.926v-0.82618c0-0.75555 0.61224-1.3678 1.3678-1.3678h5.2162c0.52589 0 1.0031-0.30649 1.2221-0.78436l0.35961-0.78469c0.16284-0.35514 0.51764-0.58279 0.9081-0.58279h4.8532c0.55159 0 0.99895 0.44738 0.99895 0.99898z" fill="#ff820a" stroke-width=".031006"/>
 <g fill="#5e4aa6" stroke-width=".26458">
  <circle cx="-330.35" cy="-328.38" r="0"/>
  <circle cx="-312.11" cy="-326.25" r="0"/>
  <circle cx="-306.02" cy="-333.07" r="0"/>
  <circle cx="-308.84" cy="-326.01" r="0"/>
  <circle cx="-328.8" cy="-330.45" r="0"/>
 </g>
 <path d="m8.5015 9.0025c-0.09142 0-0.18339 0.00737-0.27244 0.016622a2.5896 2.5896 0 0 0-0.51211 0.099087 2.6543 2.6543 0 0 0-1.7421 1.7421 2.5896 2.5896 0 0 0-0.09909 0.5121 2.6504 2.6504 0 0 0-0.01665 0.27243c0 0.09142 0.0074 0.18339 0.01665 0.27244a2.5896 2.5896 0 0 0 0.09909 0.5121 2.6543 2.6543 0 0 0 1.7421 1.7421 2.5896 2.5896 0 0 0 0.51211 0.09936c0.08905 9e-3 0.181 0.01638 0.27244 0.01638s0.18338-0.0074 0.27244-0.01662a2.5896 2.5896 0 0 0 0.5121-0.09882 2.6993 2.6993 0 0 0 0.4788-0.20664 2.6376 2.6376 0 0 0 1.2637-1.5358 2.5896 2.5896 0 0 0 0.09882-0.5121c0.0093-0.08905 0.01665-0.18101 0.01665-0.27244 0-0.09115-0.0075-0.18365-0.01665-0.27243a2.5896 2.5896 0 0 0-0.09882-0.51212 2.661 2.661 0 0 0-0.48727-0.89998c-0.05393-0.065261-0.11362-0.12181-0.1736-0.1818-0.23862-0.23861-0.51765-0.43626-0.8339-0.56971a2.7381 2.7381 0 0 0-0.2476-0.090636 2.5896 2.5896 0 0 0-0.5121-0.099087 2.7254 2.7254 0 0 0-0.27244-0.016622zm0 0.26423c0.39979 0 0.77582 0.098039 1.1066 0.27243 0.0087 0.00491 0.01589 0.011873 0.02455 0.016622 0.0066 0.00876 5e-3 0.01826 0.01665 0.024565 0.0085 0.00491 0.01665 0.012364 0.02455 0.016622 0.01399 0.00835 0.02772 0.01957 0.0248 0.032999-0.0034 0.019816-0.03595 0.018506-0.04943 0.033081 0.0016 0.027677-0.0095 0.022436-0.01665 0.041187 0.0042 0.012119 0.01481 0.010563 0.01665 0.024892-0.0025 0.015312-0.02247 0.017114-0.01665 0.032999 0.02588 0.020061 0.04993 0.00328 0.07449 0 0.0536-0.00655 0.09883 8.188e-4 0.13213-0.024811-0.0034-0.020634 0.01581-0.026366 0.02455-0.041187 0.01773 0.012364 0.03254 0.028577 0.04969 0.041187-0.01007 0.00409-0.0322 0.010809-0.04145 0.016622-0.01323 0.00901-0.01747 0.023009-0.03279 0.032999-0.01107 0.00737-0.03803 0.032999-0.04969 0.032999-0.01399 0-0.03962-0.011627-0.04969-0.00852-0.01423 0.00409-0.0085 0.027431-0.02455 0.032999-0.03171 0.011627-0.08799-0.03087-0.09909 0.016622 0.01323 0.027431 0.05842 0.01826 0.08247 0.032999 0.01507 0.0095 0.03754 0.058219 0.04153 0.074268a0.19369 0.19369 0 0 1 0 0.074514c-0.01507 0.03832-0.05493 0.03382-0.09936 0.033-0.0119 0-0.02197 8.19e-4 -0.0328 0-0.07449-0.0049-0.14798-0.02858-0.1818 0.02456 0.0025 0.04094 0.0092 0.06338 0 0.09909-0.0066 0.02587-0.03437 0.04364-0.03304 0.06608 5.42e-4 0.01163 0.02197 0.03382 0.0248 0.0497 0.0016 0.0085-0.0042 0.02538 0 0.033 0.0124 0.02358 0.04386-0.0041 0.06608 0 0.02114 0.0033 0.0412 0.03439 0.0412 0.05756a0.15089 0.15089 0 0 1-0.01665 0.06608c-0.02114 0.03169-0.0605 0.02407-0.09065 0.04143-0.02513 0.01425-0.03462 0.04921-0.04969 0.07427-0.01589 0.02694-0.03088 0.03595-0.02455 0.07427a0.17837 0.17837 0 0 1-0.0909 0.0909 0.26107 0.26107 0 0 0-0.04145 0.02489 0.20929 0.20929 0 0 0-0.03279 0.033c-0.01689 0.0185-0.04045 0.02669-0.04969 0.04119-0.0066 0.01105-8.19e-4 0.03464-0.0083 0.0497-0.01057 0.02006-0.02805 0.0375-0.04145 0.05756-0.0058 0.0097-0.01798 0.02064-0.02455 0.03308-0.01531 0.028-0.03595 0.04995-0.03304 0.07451 0.0025 0.02358 0.03171 0.02882 0.03304 0.04946 0.0016 0.01163-0.0087 0.02063-0.0085 0.033 7.8e-4 0.0185 0.0066 0.02694 0.0085 0.04119 0.0034 0.0357-0.01823 0.04995-0.02488 0.07451-0.0034 0.01138 0.0025 0.02383 0 0.03275-0.0058 0.01801-0.03254 0.02858-0.03304 0.0497-5.42e-4 0.01482 0.02322 0.02858 0.0248 0.0497 8.19e-4 0.01433-0.01107 0.02768-0.0085 0.04119 5e-3 0.02587 0.05418 0.06231 0.07449 0.08247 0.02722 0.02743 0.05393 0.04545 0.06608 0.07451 0.01007 0.02432 0.01423 0.06428 0.03304 0.08247 0.01373 0.01327 0.03987 0.01908 0.05759 0.03308 0.01689 0.01326 0.0402 0.01908 0.05818 0.03308 0.02904 0.02293 0.06866 0.06952 0.11547 0.06608 0.0243-0.0016 0.04677-0.01163 0.07423-0.01662 0.0283-0.0049 0.06208-0.01933 0.0909-0.01638 0.02197 0.0025 0.04277 0.01801 0.06608 0.01662 0.0238-0.0016 0.05526-0.01302 0.08247-0.02481 0.04761-0.02064 0.12076-0.05978 0.18999-0.0497 0.05285 0.0084 0.05393 0.06739 0.0909 0.0909 0.04228 0.0033 0.07374-0.0084 0.10727 0 0.02538 0.0066 0.05551 0.05421 0.05784 0.07427 0.0025 0.02064-0.01373 0.03668-0.01665 0.0497-0.0066 0.02768-0.01165 0.06477-0.01639 0.08247-0.0042 0.014-0.0087 0.02743-0.0085 0.04143 0 0.01236 0.02005 0.04119 0.03329 0.05756 0.01589 0.02031 0.03862 0.0357 0.05759 0.05781 0.03512 0.04045 0.04993 0.09514 0.07449 0.14877 0.0058 0.01327-0.0058 0.0158 0 0.03284-0.01057 0.08082-0.03804 0.1337-0.09089 0.22302-0.02513 0.02907-0.05019 0.06313-0.04969 0.09909-0.0016 0.0864 0.04519 0.13107 0.04153 0.21483-0.0087 0.1123 2.6e-4 0.12974-0.0085 0.18972 0.03803 0.01932 0.01931 0.07582 0.0085 0.11574-0.01639 0.04749-0.03229 0.0592-0.04153 0.0909a0.10569 0.10569 0 0 0 0.05784 0.0084 2.3763 2.3763 0 0 1-1.7176 0.72667 2.3736 2.3736 0 0 1-0.89179-0.17335c-7.91e-4 -5.21e-4 7.99e-4 -0.0084 0-0.0085 0.02513-0.01056 0.07265 0.01851 0.09091-0.01638 9e-3 -0.01687-0.01215-0.04921 0-0.06608 0.0085-0.01163 0.06474-0.02195 0.08247-0.02481 0.02563-0.0041 0.05177 8.19e-4 0.06608-0.0084a0.07531 0.07531 0 0 0 0.03304-0.06608c-0.0016-0.014-0.01373-0.02064-0.02455-0.03308-0.0092-0.01056-0.0025-0.02358-0.0085-0.033-0.01132-0.01687-0.0283-0.02514-0.03304-0.0497 0.03462-0.0066 0.08223 0.03889 0.13213 0.02481 0.0238-0.0066 0.06342-0.052 0.07449-0.07427 0.0034-0.0066-0.0042-0.03308 0-0.04119 0.0042-0.0093 0.01481-0.01187 0.01639-0.01662 0.0034-0.01294-0.0025-0.01662 0-0.02456 0.0087-0.02457 0.03512-0.0402 0.04969-0.05814 0.01082-0.01327 0.02272-0.02718 0.03304-0.04119 0.01132-0.01482 0.01689-0.01982 0.02455-0.03283 0.0075-0.04389-0.02696-0.07738-0.01639-0.11573 0.01132-0.0434 0.07399-0.07132 0.11546-0.09091 0.01457-0.0066 0.0293-0.02031 0.04153-0.02456 0.0288-0.01032 0.06366-0.0066 0.09063-0.01662 0.04519-0.01638 0.06076-0.06608 0.08273-0.10728 0.01057-0.01933 0.02272-0.0357 0.02455-0.0497 0.0025-0.01237-0.0025-0.02669 0-0.04119 0.0025-0.01425 0.0042-0.02538 0.0085-0.04119a0.42014 0.42014 0 0 0 0.0083-0.08272c0-0.01908-0.0083-0.02383-0.0083-0.04119-0.0034-0.06231 0.01823-0.06501 0.0412-0.09909 0.01165-0.01687 0.01665-0.04569 0.02488-0.05781 0.03887-0.05756 0.10385-0.08588 0.09909-0.17334-0.0016-0.02907-0.0119-0.08984-0.03304-0.0991-0.01215-0.0049-0.0402-0.0016-0.05784-0.0084-0.05684-0.02113-0.09777-0.08614-0.15695-0.09089-0.0124-5.2e-4 -0.01906 5.42e-4 -0.03304 0-0.02297-5.2e-4 -0.04835-0.02194-0.07424-0.02481-0.01639-0.0016-0.04811 0.0049-0.05784 0-0.01481-0.0066-0.01265-0.033-0.02455-0.04119-0.0098-0.0066-0.02638-0.01106-0.04145-0.01662a0.19686 0.19686 0 0 0-0.06608-0.01638c-0.0085-5.41e-4 -0.03171 0.0016-0.0412 0-0.01481-0.0025-0.02746-0.01613-0.04119-0.02481-0.01747-0.01056-0.02588-0.01801-0.03304-0.033 0.01581-0.05175-0.03912-0.06051-0.04969-0.09064-5e-3 -0.014 5e-3 -0.03701 0-0.0497-0.0058-0.01777-0.02139-0.02637-0.04119-0.04119-0.03438-0.02694-0.06608-0.05151-0.11574-0.05781-0.02197-0.0025-0.04761 0.0016-0.07399 0a0.12868 0.12868 0 0 1-0.08273-0.04127c-0.02031-0.02383-0.0238-0.04676-0.04145-0.05781-0.01665-0.01056-0.04627-0.01376-0.05759-0.02489-5e-3 -0.0049-0.0034-0.01376-0.0085-0.02456-0.0085-0.01744-0.02696-0.02039-0.01639-0.04143-0.01931-0.0095-0.0124 0.01212-0.03304 0.0085-0.01847-0.02637-0.03196-0.04119-0.07423-0.03324-0.01931 0.0041-0.03545 0.03275-0.05784 0.03324-0.01847 5.42e-4 -0.03329-0.02989-0.05784-0.03324-0.01847-0.0025-0.04494 0.01957-0.05759 0.01662-0.02089-0.0033-0.02272-0.02882-0.04145-0.04119-0.01373-0.0093-0.04178-0.03357-0.04943-0.033-0.02405 5.42e-4 -0.04119 0.05077-0.07449 0.033-0.01615-0.02064 0.02772-0.02219 0.0085-0.04143-0.01457-0.01425-0.02164 7.8e-4 -0.03304 0.0085-0.01349 9e-3 -0.02647 0.01957-0.04153 0.02457-0.03304 0.01261-0.05651 0.01138-0.08247 0.02489-0.0238 0.01261-0.02746 0.03325-0.0412 0.05781-0.01107 0.02006-0.03279 0.04864-0.04969 0.0497-0.02006 0.0016-0.03961-0.02538-0.05759-0.03333-0.05551-0.02383-0.08667 0.01613-0.13212 0.01662-0.04228 5.2e-4 -0.10121-0.06739-0.09909-0.10728 0.0016-0.02456 0.01349-0.06076 0.01639-0.09091 0.0025-0.02383 0.0243-0.04389 0.0248-0.06608 5.33e-4 -0.02907-0.04702-0.05445-0.06608-0.05781-0.04519-0.0084-0.1057 0.02039-0.15696 0-0.0095-0.01638 0.01905-0.02538 0.0248-0.04119 0.0034-0.0093-0.0034-0.01482 0-0.02481 0.0058-0.01531 0.02563-0.02489 0.03304-0.04119 5e-3 -0.01237 0.0025-0.03439 0.0083-0.0497 0.0066-0.01711 0.02322-0.02858 0.02488-0.04119 0.0016-0.01638-0.0119-0.0389-0.02488-0.04946a0.25737 0.25737 0 0 0-0.090886 0.016392c-0.05177 0.02383-0.03828 0.09116-0.09063 0.10755-0.01797 0.0057-0.04603 0.01327-0.06608 0.01638a2.3545 2.3545 0 0 1 0.15676-0.49541c0.01847 0.0033 0.03379 0.01507 0.04969 0.01662 0.04411 0.0033 0.04594-0.03038 0.08247-0.0497 0.03753 0.0049 0.05684-0.0033 0.0909 0 0.02297 0.0025 0.05601 0.03169 0.07424 0.033 0.01531 5.32e-4 0.01847-0.01908 0.03304-0.01662 0.01457 0.0025 0.03887 0.03251 0.04145 0.0497 0.0025 0.02162-0.01457 0.04225-0.0085 0.06608 0.02272 0.02301 0.06683 0.03619 0.09909 0.0497 0.02114-0.01736 0.0034-0.05756 0-0.08273-5.24e-4 -0.01105 0.0016-0.02301 0-0.033-0.0025-0.01711-0.0083-0.03464-0.0083-0.0497 0-0.0687 0.05285-0.09672 0.09909-0.12368 0.01981-0.01163 0.04045-0.03275 0.05784-0.04143 0.0243-0.01187 0.03753-0.01327 0.05759-0.02457 0.0367-0.02064 0.07082-0.0425 0.09909-0.06608 0.01323-0.0312-0.0016-0.06845 0-0.09909 0.01323-0.0084 0.01931 0.0016 0.03304 0 0.02222-0.0049 0.02904-0.03701 0.04145-0.0497 0.0075-0.0074 0.03254-0.0092 0.04119-0.01638 0.02222-0.01736 0.02222-0.04201 0.0412-0.0497 0.0066-0.0025 0.02247-0.0049 0.03304-0.0084 0.01457-0.0041 0.03487-0.01662 0.05784-0.02489 0.01481-0.0049 0.0521-0.0025 0.05784-0.0084 0.0074-0.0074-0.0016-0.03857 0-0.0497 0.01132-0.05421 0.0917-0.05601 0.14031-0.07402 0.03354-0.01327 0.06974-0.04045 0.10728-0.03333-0.0075 0.02588-0.03912 0.01851-0.03304 0.0497 0.0083 0.04364 0.05892-0.01056 0.07449-0.01662 0.02904-0.01236 0.08535-0.01908 0.12367-0.033 0.03379-0.011873 0.08958-0.035455 0.05784-0.074268-0.02647-0.00164-0.03462 0.023582-0.05784 0.032999-0.01581 0.00246-0.01955-0.00737-0.03304-0.00835-0.01299-5.404e-4 -0.02005 0.010563-0.03304 0.00835-0.01299-0.00246-0.03096-0.025875-0.03304-0.041187-5e-3 -0.04045 0.04145-0.052815 0.05784-0.082726-0.01107-0.036438-0.06-0.00246-0.09091-0.016377 0.0034-0.021617 0.01581-0.0452 0.04145-0.049703a0.16331 0.16331 0 0 1 0.08247 0.016622c0.0074 0.00573-0.0025 0.022763 0.0083 0.033081 0.01265 0.011054 0.03329 0.00246 0.04969 0 0.0058-0.027431-0.03778-0.015312-0.03304-0.033081 0.03254-0.021126 0.09223-0.011382 0.13212-0.016622 0.02297-0.00328 0.04544-0.021945 0.06608-0.032999 0.01906-0.011054 0.03754-0.026448 0.05759-0.00835 0.0058 0.019816-0.01373 0.031198-0.02455 0.041187-0.03704 0.032835-0.07033 0.069519-0.09909 0.10755 0.01773 0.017114 0.04436 0.00491 0.07424 0.00835 0.01165 0.00164 0.02904 0.00655 0.0412 0.00852 0.01457 0.00246 0.02988-0.00246 0.04145 0 0.02006 0.00491 0.02114 0.032999 0.0412 0.032999 0.03254 0 0.03512-0.027431 0.01639-0.049703 0.0058-0.022436 0.01665-0.04176 0.0085-0.057564-0.01507-0.029881-0.07132 0.00492-0.07449-0.032993-0.0016-0.024074 0.02455-0.031443 0.03304-0.049703-0.0034-0.046018 0.03778-0.048884 0.03304-0.090636-0.0025-0.017359-0.02114-0.016868-0.03304-0.032999-0.0058-0.00876-0.0092-0.026939-0.01639-0.032999-0.02513-0.021126-0.07132-0.017769-0.07449-0.058219-0.0016-0.023828 0.0034-0.039877 0-0.06608-0.0034-0.024319-0.0283-0.094067-0.04943-0.098825-0.02696-0.00573-0.04228 0.042743-0.07423 0.057564a0.13027 0.13027 0 0 1-0.06608 0.00852c-0.01165-0.00246-0.0317-0.011054-0.03304-0.033081-0.0016-0.01261 0.0025-0.017114 0.0083-0.024811 0.0016-0.00164-0.0016-0.00655 0-0.00835a2.3967 2.3967 0 0 1 0.66061-0.090907zm-0.98276 0.21483c-0.02322 0.075087-0.09116 0.11785-0.18153 0.11547-0.02222 0.021126-0.01299 0.061576-0.02488 0.090898a0.072931 0.072931 0 0 1-0.06608 0.041187c-0.01773-0.00164-0.04969-0.024565-0.04969-0.041187 0-0.013756 0.01323-0.029314 0.01665-0.041433a2.3581 2.3581 0 0 1 0.30547-0.16514zm2.0232 0.082473a0.072403 0.072403 0 0 0-0.0248 0.00835c-0.01847 0.011054-0.01931 0.027677-0.03304 0.032999-0.01981 0.00737-0.04677 0.00737-0.04969 0.024892-0.0025 0.014821 0.01715 0.01957 0.01665 0.032999-0.0075 0.017769-0.02114 0.01957-0.0248 0.041187 0.02455 0.039877 0.08535 5.331e-4 0.11574-0.00835 0.01323-0.00409 0.02563 0.00246 0.03279-0.00835 0.0083-0.013265 0.0016-0.039631 0.0085-0.05781 0.0066-0.020061 0.02722-0.015312 0.02455-0.032999-0.0016-0.017769-0.0362-0.035947-0.06608-0.032999zm-2.6179 0.30546c0.01773 0.021126 0.03254 0.052323 0 0.06608-5e-3 0.00246-0.06258 0.010563-0.07424 0.00852-0.0034-5.24e-4 -5e-3 -0.00573-0.0083-0.00852 0.02514-0.024565 0.05626-0.042497 0.08247-0.06608zm0.06608 0.082726c0.01165 5.331e-4 0.01955 0.023828 0.03304 0.024565 0.01323 0.00164 0.03354-0.010563 0.04153-0.00835 0.02006 0.00491 0.02746 0.042743 0.0083 0.057564-0.01581 0.0016-0.02114-0.01908-0.03279-0.01662-0.03279 0.0057-0.04178 0.06813-0.06608 0.06608-0.02322-0.0025-0.0402-0.04921-0.01665-0.06608 5.24e-4 -0.014248-0.0092-0.018505-0.0083-0.033081 0.0075-0.00901 0.02189-0.026121 0.0412-0.024565zm-0.10727 0.016377c0.0066 0 0.0058-0.00246 0.0083 0-0.0034 0.025629-0.01323 0.029314-0.03304 0.041433a0.13529 0.13529 0 0 0-0.06606 0.09063c-0.0034 0.01327-0.04145 0.05282-0.05759 0.0497-0.03804-0.0083 0.01581-0.07984 0.02455-0.0909 0.0098-0.01212 0.02197-0.01957 0.03304-0.033 0.01107-0.01327 0.01431-0.04176 0.02488-0.049703 0.01165-0.00835 0.04594-0.00901 0.06608-0.00835zm3.2536 0.06608c0.03778-0.0025 0.05684 0.04315 0.07399 0.06608 0.01457 0.01875 0.05917 0.04495 0.08273 0.05781 0.01349 0.0074 0.02646 0.01801 0.04153 0.02489 0.01557 0.0065 0.03911 0.0158 0.05759 0.033 0.01847 0.01687 0.03254 0.04225 0.03304 0.05756 5.42e-4 0.01556-0.01057 0.02694-0.0083 0.04143 0.01665 0.0025 0.02538-0.01425 0.03304-0.03308 0.06234 0.08879 0.11522 0.18366 0.16515 0.28063a0.03118 0.03118 0 0 0-0.01665 0.02489c-5e-3 0.02694 0.01581 0.06133-0.02455 0.06608-0.02563 0.0033-0.05576-0.02538-0.09091-0.033-0.01423-0.0033-0.03803 0.0033-0.04969 0-0.02638-0.0092-0.01847-0.04201-0.0412-0.05781a0.18497 0.18497 0 0 0-0.06608-0.02457c-0.01299-0.0016-0.01955 0.0016-0.03304 0-0.01639-0.0025-0.04436 0-0.05759-0.0085-0.01323-0.0084-0.04627-0.02194-0.04969-0.033-5e-3 -0.01777 0.04045-0.04274 0.0412-0.05756 8.19e-4 -0.01163-0.01398-0.0158-0.01639-0.03333-0.0016-0.01056 0.0025-0.02612 0-0.03275-0.0034-0.01261-0.02164-0.02432-0.04145-0.02481-0.01715 0-0.03438 0.0084-0.04943 0.0084-0.02114 5.25e-4 -0.0645-0.01056-0.0909-0.0084-0.01581 0.0016-0.02638 0.0074-0.0412 0.0084-0.04178 0.0033-0.06633-0.0025-0.0991 0-0.0238 0.0016-0.06866 0.01482-0.0909 0.02481-0.01107 0.0049-0.01847 0.01744-0.03304 0.02457-0.0066 0.0033-0.01581 0.0041-0.02455 0.0085-0.01349 0.0057-0.0367 0.02113-0.04969 0.02457-0.01847 0.0049-0.0402-0.0016-0.07423 0-0.02455 0.0016-0.0655-0.0033-0.06608-0.03275-5.2e-4 -0.04495 0.08165-0.02538 0.12368-0.03333 0.01581-0.0033 0.02222-0.02195 0.04145-0.03275 9e-3 -0.0049 0.01581-0.01081 0.02455-0.01662 0.01457-0.01007 0.03912-0.02989 0.04145-0.04119 0.0016-0.01056-0.0097-0.02538-0.0085-0.033 0.0016-0.01007 0.02005-0.02006 0.03329-0.033 0.02005-0.02039 0.03279-0.04495 0.05759-0.05781 0.01689-0.0092 0.05019-0.0113 0.05784-0.02481 0.0016-0.01531-5.42e-4 -0.01908 0-0.033 0.01057-0.0095 0.0075-0.01458 0.01665-0.01638 0.02588-0.0057 0.0521 0.0097 0.08247 0.0084 0.01323-5.24e-4 0.02746 8.19e-4 0.0412-0.0084 0.01165-0.0084 0.02164-0.01908 0.03304-0.02481 0.01265-0.0066 0.02588-0.02383 0.04145-0.02489zm-3.0309 0.02489c0.0066-8.19e-4 0.01715 7.95e-4 0.02514 0 0.01082-5.33e-4 0.02114 0 0.03304 0s0.02804-0.0049 0.03304 0c-0.0083 0.03169-0.08247 0.01982-0.10755 0.0084 7.91e-4 -0.0057 0.01032-0.0074 0.01665-0.0084zm-0.09063 0.05781c0.0083 0 0.01615-0.0033 0.02488 0-0.02222 0.01851-0.0526 0.02907-0.09091 0.04119-0.01847 0.0057-0.04627 0.01187-0.04969-0.0084-0.0034-0.02514 0.01689-0.02244 0.03304-0.02481 0.02114-0.0025 0.05818-0.0084 0.08273-0.0084zm3.1297 0c-0.01581 0.0049-0.0238 0.03701 0 0.04119 0.01107-0.0066 0.01107-0.02113 0.0083-0.04119-0.0066-0.0065-0.0034-0.0016-0.0083 0zm-0.0085 0.06608c-0.0075 0.0025-0.01639-5.32e-4 -0.02455 0.0084 5.43e-4 0.02694 5e-3 0.04225 0 0.06608 0.01531 0.02989 0.05019 0.01187 0.0576-0.0084 0.0093-0.05019-0.0098-0.07239-0.03279-0.06608zm0.20664 0.13213a0.071082 0.071082 0 0 0-0.04969 0.01638c0.01797 0.02907 0.05102 0.03439 0.0909 0.04143 0.01431-0.01056 0.0098-0.03963 0.01665-0.05814-0.01739 0-0.02854 0.0016-0.04969 0h-0.0083zm-4.1949 1.0154c0.01689 0.02162 0.03512 0.04675 0.05759 0.05822 0.01215 0.0057 0.02614 0.0049 0.04145 0.0084 0.0124 0.0025 0.02114 0.01302 0.03304 0.01662 0.02538 0.0088 0.06234 0.0074 0.08247 0.01662 0.03088 0.01327 0.04785 0.06706 0.07449 0.08247 0.0016 0.01531-5e-3 0.02989 0 0.04119 0.0124 0.01687 0.03753 0.02186 0.05759 0.033 0.02455 0.01351 0.03487 0.04725 0.05784 0.05781 0.0083 0.0033 0.02064-0.0033 0.03304 0 0.03171 0.0095 0.03862 0.05756 0.06608 0.0497 0.01773-0.0049 0.02189-0.03251 0.0248-0.0497 0.0119-0.01327 0.02247-0.033 0.0412-0.033 0.02988-5.2e-4 0.03862 0.03701 0.04969 0.06608 0.0058 0.01638 0.02039 0.03218 0.02455 0.0497a0.43336 0.43336 0 0 1 0 0.13212c-0.0074 0.02194-0.03962 0.03357-0.05759 0.05756-0.0087 0.01163-0.01823 0.02538-0.0248 0.033-0.01165 0.01458-0.0243 0.02006-0.03304 0.033-5e-3 0.0074-0.0042 0.02301-0.0085 0.033-0.01423 0.03095-0.0367 0.05396-0.02455 0.0909 5e-3 0.01482 0.02455 0.03169 0.02455 0.0497 0 0.02112-0.04595 0.02637-0.04943 0.04946-0.0025 0.01687 0.01955 0.05175 0.02488 0.07427 0.0034 0.01687 0.03121 0.03038 0.04119 0.04151 0.01689 0.01851 0.03437 0.04201 0.04969 0.06608 0.03012 0.04651 0.04436 0.10305 0.07399 0.14851 0.01581 0.02383 0.04761 0.04094 0.05818 0.06608 5e-3 0.01237-5e-3 0.03799 0 0.0497 0.01715 0.0389 0.1012 0.07984 0.14004 0.09883 0.01847 0.0093 0.03304 0.01531 0.04969 0.02481 0.02564 0.01457 0.07798 0.04364 0.09091 0.06608 0.01165 0.02031 0.01906 0.06682 0.0248 0.0991 0.0075 0.04225-0.0016 0.0782 0 0.12393 0.0016 0.02481 0.0083 0.04094 0.0083 0.06608 0 0.0087 5.33e-4 0.02432 0 0.033-5.24e-4 0.02989 0.0025 0.06076 0 0.0909a0.34405 0.34405 0 0 0 0 0.04946c0.0016 0.01507 0.01557 0.02006 0.01665 0.033 8.19e-4 0.014-0.01823 0.03038-0.01665 0.04151 0.0034 0.03013 0.03545 0.0547 0.0412 0.08248 5e-3 0.02219 0.01107 0.07263 0.0085 0.09909-0.0025 0.014-0.0066 0.03439-0.0085 0.0497-0.0016 0.01187 0.0016 0.02195 0 0.03275-0.65823-0.4228-1.0981-1.1573-1.0981-1.9983 0-0.10781 0.01082-0.2098 0.0248-0.31392zm0.90817 0.23967c0.02322-0.01056 0.01873 0.03013 0 0.033-0.01773 0.0025-0.01715-0.02489 0-0.033z" color="#000000" fill="#fff" stroke-width=".26424"/>
</svg>
