<?xml version="1.0" encoding="UTF-8"?>
<!-- Created with Inkscape (http://www.inkscape.org/) -->
<svg width="64" height="64" version="1.1" viewBox="0 0 16.933 16.933" xmlns="http://www.w3.org/2000/svg" xmlns:cc="http://creativecommons.org/ns#" xmlns:dc="http://purl.org/dc/elements/1.1/" xmlns:rdf="http://www.w3.org/1999/02/22-rdf-syntax-ns#">
 <defs>
  <filter id="filter11290" x="-.024" y="-.024" width="1.048" height="1.048" color-interpolation-filters="sRGB">
   <feGaussianBlur stdDeviation="0.15875313"/>
  </filter>
 </defs>
 <metadata>
  <rdf:RDF>
   <cc:Work rdf:about="">
    <dc:format>image/svg+xml</dc:format>
    <dc:type rdf:resource="http://purl.org/dc/dcmitype/StillImage"/>
    <dc:title/>
   </cc:Work>
  </rdf:RDF>
 </metadata>
 <circle cx="8.4937" cy="8.46" r="7.9377" filter="url(#filter11290)" opacity=".25" stroke-width=".14032"/>
 <path d="m16.439 8.46c0 0.95154-0.16749 1.8639-0.47464 2.7094-0.21351 0.58768-0.49439 1.1433-0.83393 1.6572-0.14222 0.21608-0.29514 0.42475-0.45746 0.62529-0.51966 0.64179-1.1372 1.2007-1.8305 1.6543-0.2553 0.16718-0.52065 0.3201-0.79536 0.45712-1.0668 0.53389-2.2711 0.83421-3.5456 0.83421s-2.4788-0.30032-3.5456-0.83424c-0.27474-0.13705-0.5404-0.28997-0.7957-0.45712-0.70207-0.45973-1.327-1.0274-1.8509-1.6798-0.16263-0.20216-0.31524-0.41275-0.45746-0.63078-0.33046-0.5054-0.60421-1.0507-0.8135-1.627-0.30711-0.84529-0.4743-1.7573-0.4743-2.7085 0-4.3838 3.5537-7.9375 7.9375-7.9375 2.2005 0 4.1917 0.89548 5.6295 2.3417 0.41436 0.41662 0.78274 0.87929 1.0963 1.3795 0.29645 0.47107 0.54428 0.97582 0.73704 1.5068 0.30718 0.84559 0.47467 1.7579 0.47467 2.7094z" fill="#f5aa1e" stroke-width=".031006"/>
 <g stroke-width=".11719">
  <path transform="scale(.26458)" d="m28.809 24.012c0.99383 0 1.9413-0.28932 2.7441-0.80469 4.14e-4 -2.66e-4 -4.14e-4 -0.001687 0-0.001953-0.80282 0.51537-1.7504 0.80664-2.7441 0.80664z" fill="#ffd241"/>
  <path transform="scale(.26458)" d="m55 19.258-11.867-11.869v9.8965h-0.001953c0 0.54464 0.221 1.0374 0.57812 1.3945 0.35713 0.3571 0.85184 0.57812 1.3965 0.57812h9.8945z" fill="#fafafa" opacity=".6"/>
  <path transform="scale(.26458)" d="m11.236 7.3809c-1.0893 0-1.9727 0.88544-1.9727 1.9746v36.783c4.799 7.563 13.246 12.584 22.867 12.584 9.6214 0 18.07-5.021 22.869-12.584v-26.881h-9.8945c-0.54464 0-1.0394-0.22103-1.3965-0.57812-0.35712-0.3571-0.57812-0.84989-0.57812-1.3945h0.001953v-9.8965l11.867 11.869v-0.007812l-11.869-11.869h-31.895zm2.5703 5.8613h16.447c-0.009146 0.15168-0.019054 0.27406-0.029297 0.42773h-16.387c-0.010961-0.14226-0.021348-0.2849-0.03125-0.42773zm0 3.209h16.447c-0.009146 0.15169-0.019054 0.27406-0.029297 0.42773h-16.387c-0.010961-0.14226-0.021348-0.28489-0.03125-0.42773zm0 3.209h16.447c-0.009146 0.15169-0.019054 0.27406-0.029297 0.42774h-16.387c-0.010961-0.14226-0.021348-0.28489-0.03125-0.42774zm0 3.209h16.447c-0.009146 0.15169-0.019054 0.27406-0.029297 0.42773h-16.387c-0.010961-0.14226-0.021348-0.28489-0.03125-0.42773z" fill="#fafafa"/>
  <path transform="scale(.26458)" d="m60.338 35.832h-56.414v6.3499c0.79103 2.1782 1.8252 4.2402 3.0742 6.1504 0.53754 0.82407 1.1138 1.6187 1.7285 2.3828 1.9801 2.4658 4.3425 4.612 6.9961 6.3496 0.96493 0.63176 1.9694 1.2105 3.0078 1.7285 4.0321 2.018 8.5833 3.1523 13.4 3.1523 4.8171 0 9.3683-1.1345 13.4-3.1523 1.0383-0.51788 2.0409-1.0966 3.0059-1.7285 2.6204-1.7144 4.9558-3.8262 6.9199-6.252 0.6135-0.75796 1.191-1.5466 1.7285-2.3633 1.2833-1.9423 2.3454-4.0425 3.1523-6.2637z" fill="#ffc841"/>
 </g>
 <path d="m15.964 6.5954v3.3469h-14.926v-0.82618c0-0.75555 0.61224-1.3678 1.3678-1.3678h5.2162c0.52589 0 1.0031-0.30649 1.2221-0.78436l0.35961-0.78469c0.16284-0.35514 0.51764-0.58279 0.9081-0.58279h4.8532c0.55159 0 0.99895 0.44738 0.99895 0.99898z" fill="#ffc841" stroke-width=".031006"/>
 <g fill="#5e4aa6" stroke-width=".26458">
  <circle cx="-330.35" cy="-328.38" r="0"/>
  <circle cx="-312.11" cy="-326.25" r="0"/>
  <circle cx="-306.02" cy="-333.07" r="0"/>
  <circle cx="-308.84" cy="-326.01" r="0"/>
  <circle cx="-328.8" cy="-330.45" r="0"/>
 </g>
 <g transform="matrix(.59327 0 0 .59327 3.4198 6.9424)">
  <path d="m7.2242 8.556v0.39835s0.10755 0.85578-0.50008 1.1723c-0.60764 0.31647-2.6192 1.2658-2.7272 1.4416-0.10802 0.17582-0.26993 0.68298 0.18917 0.81192h8.7592c0.45911-0.12893 0.2972-0.6361 0.18917-0.81192s-2.1196-1.1251-2.7272-1.4416c-0.60764-0.31647-0.50008-1.1723-0.50008-1.1723v-0.39835h-1.3415z" fill="#fff"/>
  <g transform="translate(.10535)">
   <path d="m10.452 6.6018c-0.26458 1.8862-0.88842 2.8929-1.9843 2.8929-1.0959 1e-7 -1.7198-1.0067-1.9843-2.8929-0.2414-1.7209 0-3.1436 1.9843-3.1436s2.2257 1.4227 1.9843 3.1436z" fill="#f0f0f0"/>
   <path d="m10.492 6.1701s0.6201-0.024804 0.45474 0.5953c-0.16536 0.6201-0.47955 1.2816-0.82681 1.356-0.34726 0.074413 0.27285-1.9265 0.37206-1.9513z" fill="#fafafa"/>
   <path d="m6.4284 6.1117s-0.6201-0.024804-0.45474 0.5953c0.16536 0.6201 0.47955 1.2816 0.82681 1.356 0.34726 0.074413-0.27285-1.9265-0.37206-1.9513z" fill="#fafafa"/>
   <path d="m10.452 6.6018c-0.26458 1.8862-0.88842 2.8929-1.9843 2.8929-1.0959 1e-7 -1.7198-1.0067-1.9843-2.8929-0.2414-1.7209 0-3.1436 1.9843-3.1436s2.2257 1.4227 1.9843 3.1436z" fill="#fff"/>
  </g>
 </g>
</svg>
