<?xml version="1.0" encoding="UTF-8"?>
<svg width="32" height="32" version="1.1" xmlns="http://www.w3.org/2000/svg" xmlns:cc="http://creativecommons.org/ns#" xmlns:dc="http://purl.org/dc/elements/1.1/" xmlns:rdf="http://www.w3.org/1999/02/22-rdf-syntax-ns#">
 <defs>
  <filter id="filter11290-7" x="-.024" y="-.024" width="1.048" height="1.048" color-interpolation-filters="sRGB">
   <feGaussianBlur stdDeviation="0.15875313"/>
  </filter>
  <linearGradient id="linearGradient1005-0" x1="2.9667" x2="16.101" y1="14.069" y2=".93425" gradientTransform="matrix(3.7796 0 0 3.7796 -212.81 -89.583)" gradientUnits="userSpaceOnUse">
   <stop stop-color="#ff7d50" offset="0"/>
   <stop stop-color="#fa4b5a" offset=".51596"/>
   <stop stop-color="#ff509b" offset="1"/>
  </linearGradient>
 </defs>
 <metadata>
  <rdf:RDF>
   <cc:Work rdf:about="">
    <dc:format>image/svg+xml</dc:format>
    <dc:type rdf:resource="http://purl.org/dc/dcmitype/StillImage"/>
    <dc:title/>
   </cc:Work>
  </rdf:RDF>
 </metadata>
 <g id="system-shutdown" transform="translate(81 -1.4542e-5)">
  <g transform="matrix(.50888 0 0 .50888 26.942 45.315)">
   <circle transform="matrix(3.7796 0 0 3.7796 -212.78 -89.582)" cx="8.4937" cy="8.46" r="7.9377" filter="url(#filter11290-7)" opacity=".25" stroke-width=".14032"/>
   <path d="m-150.68-57.607c0 3.5964-0.63305 7.0448-1.794 10.24-0.80698 2.2212-1.8686 4.3212-3.1519 6.2636-0.53754 0.8167-1.1155 1.6054-1.729 2.3633-1.9641 2.4257-4.2982 4.5382-6.9186 6.2526-0.96493 0.63187-1.9678 1.2099-3.0062 1.7277-4.0321 2.0179-8.5838 3.153-13.401 3.153-4.8171 0-9.3689-1.1351-13.401-3.1531-1.0384-0.51799-2.0425-1.096-3.0074-1.7277-2.6535-1.7376-5.0155-3.8832-6.9957-6.349-0.61468-0.76408-1.1915-1.56-1.729-2.3841-1.249-1.9102-2.2837-3.9712-3.0747-6.1494-1.1608-3.1949-1.7927-6.6419-1.7927-10.237 0-16.569 13.432-30.001 30.001-30.001 8.317 0 15.843 3.3846 21.277 8.8507 1.5661 1.5747 2.9584 3.3234 4.1436 5.214 1.1205 1.7805 2.0572 3.6882 2.7857 5.6951 1.161 3.196 1.7941 6.6442 1.7941 10.24z" fill="url(#linearGradient1005-0)" stroke-width=".11719"/>
  </g>
  <rect x="-81" y="1.4446e-5" width="32" height="32" rx="0" ry="0" opacity="0" stroke-width="2" style="paint-order:fill markers stroke"/>
  <path d="m-65 1.5c-8 0-14.5 6.5-14.5 14.5 0 8 6.5 14.5 14.5 14.5s14.5-6.5 14.5-14.5c0-8-6.5-14.5-14.5-14.5z" color="#000000" fill="none" opacity=".5" overflow="visible"/>
  <g transform="translate(-36 87)">
   <rect x="-29.5" y="-80" width=".99999" height="8.9998" ry=".49999" fill="#fff" fill-rule="evenodd" stroke-width="3.7795" style="paint-order:stroke fill markers"/>
   <path d="m-24.75-78.361a8.5001 8.5001 0 0 1 3.9604 9.5613 8.5001 8.5001 0 0 1-8.2104 6.3001 8.5001 8.5001 0 0 1-8.2104-6.3001 8.5001 8.5001 0 0 1 3.9604-9.5613" fill="none" stroke="#fff5ff" stroke-dashoffset="3" stroke-linecap="round" stroke-width=".99984" style="paint-order:stroke fill markers"/>
  </g>
 </g>
</svg>
