<?xml version="1.0" encoding="UTF-8" standalone="no"?>
<svg
   xmlns:dc="http://purl.org/dc/elements/1.1/"
   xmlns:cc="http://creativecommons.org/ns#"
   xmlns:rdf="http://www.w3.org/1999/02/22-rdf-syntax-ns#"
   xmlns:svg="http://www.w3.org/2000/svg"
   xmlns="http://www.w3.org/2000/svg"
   xmlns:sodipodi="http://sodipodi.sourceforge.net/DTD/sodipodi-0.dtd"
   xmlns:inkscape="http://www.inkscape.org/namespaces/inkscape"
   width="32"
   height="32"
   version="1.1"
   id="svg17"
   sodipodi:docname="system-shutdown.svg"
   inkscape:version="0.92.4 5da689c313, 2019-01-14">
  <defs
     id="defs21" />
  <sodipodi:namedview
     pagecolor="#c8c8c8"
     bordercolor="#666666"
     borderopacity="1"
     objecttolerance="10"
     gridtolerance="10"
     guidetolerance="10"
     inkscape:pageopacity="0"
     inkscape:pageshadow="2"
     inkscape:window-width="1920"
     inkscape:window-height="1019"
     id="namedview19"
     showgrid="false"
     inkscape:zoom="14.75"
     inkscape:cx="-17.722058"
     inkscape:cy="17.435645"
     inkscape:window-x="0"
     inkscape:window-y="36"
     inkscape:window-maximized="1"
     inkscape:current-layer="svg17" />
  <metadata
     id="metadata2">
    <rdf:RDF>
      <cc:Work
         rdf:about="">
        <dc:format>image/svg+xml</dc:format>
        <dc:type
           rdf:resource="http://purl.org/dc/dcmitype/StillImage" />
        <dc:title />
      </cc:Work>
    </rdf:RDF>
  </metadata>
  <g
     id="system-shutdown-3"
     transform="translate(20.232354,114.83707)">
    <path
       style="color:#000000;overflow:visible;opacity:0.15;fill:#ffffff;fill-opacity:1;stroke-width:0.99999994"
       inkscape:connector-curvature="0"
       d="m -4.2323546,-114.83707 c -8.8285704,0 -16.0000004,7.17143 -16.0000004,16.000002 0,8.828575 7.17143,16.000004 16.0000004,16.000004 8.82857,0 16.0000016,-7.171429 16.0000016,-16.000004 0,-8.828572 -7.1714316,-16.000002 -16.0000016,-16.000002 z"
       overflow="visible"
       id="path957" />
    <rect
       id="rect959"
       style="opacity:0;stroke-width:2;paint-order:fill markers stroke"
       ry="0"
       rx="0"
       height="32"
       width="32"
       y="-114.83707"
       x="-20.232353" />
    <path
       id="path961"
       overflow="visible"
       d="m -4.2323546,-113.33707 c -8.0000004,0 -14.5000004,6.5 -14.5000004,14.500002 0,8.000005 6.5,14.500005 14.5000004,14.500005 8,0 14.5000016,-6.5 14.5000016,-14.500005 0,-8.000002 -6.5000016,-14.500002 -14.5000016,-14.500002 z"
       inkscape:connector-curvature="0"
       style="color:#000000;overflow:visible;opacity:0.5;fill:none" />
    <g
       transform="translate(24.767646,-27.837067)"
       id="g1242">
      <rect
         x="-29.499994"
         y="-80"
         width="0.99998748"
         height="8.9998112"
         ry="0.49999374"
         style="opacity:1;fill:#ffffff;fill-opacity:1;fill-rule:evenodd;stroke-width:3.77952766;paint-order:stroke fill markers"
         id="rect75" />
      <path
         style="opacity:1;fill:none;fill-opacity:1;fill-rule:evenodd;stroke:#ffffff;stroke-width:0.99983799;stroke-linecap:round;stroke-linejoin:miter;stroke-miterlimit:4;stroke-dasharray:none;stroke-dashoffset:3;stroke-opacity:1;paint-order:stroke fill markers"
         id="path1238"
         sodipodi:type="arc"
         sodipodi:cx="-29"
         sodipodi:cy="-71"
         sodipodi:rx="8.5000811"
         sodipodi:ry="8.5000811"
         sodipodi:start="5.2359878"
         sodipodi:end="4.1887902"
         sodipodi:open="true"
         d="m -24.749959,-78.361286 a 8.5000811,8.5000811 0 0 1 3.960407,9.561269 8.5000811,8.5000811 0 0 1 -8.210448,6.300098 8.5000811,8.5000811 0 0 1 -8.210448,-6.300098 8.5000811,8.5000811 0 0 1 3.960407,-9.561269" />
    </g>
  </g>
</svg>
