<?xml version="1.0" encoding="UTF-8" standalone="no"?>
<svg
   xmlns:dc="http://purl.org/dc/elements/1.1/"
   xmlns:cc="http://creativecommons.org/ns#"
   xmlns:rdf="http://www.w3.org/1999/02/22-rdf-syntax-ns#"
   xmlns:svg="http://www.w3.org/2000/svg"
   xmlns="http://www.w3.org/2000/svg"
   xmlns:sodipodi="http://sodipodi.sourceforge.net/DTD/sodipodi-0.dtd"
   xmlns:inkscape="http://www.inkscape.org/namespaces/inkscape"
   width="32"
   height="32"
   version="1.1"
   id="svg23"
   sodipodi:docname="system-suspend-hibernate.svg"
   inkscape:version="0.92.4 5da689c313, 2019-01-14">
  <defs
     id="defs27" />
  <sodipodi:namedview
     pagecolor="#c8c8c8"
     bordercolor="#666666"
     borderopacity="1"
     objecttolerance="10"
     gridtolerance="10"
     guidetolerance="10"
     inkscape:pageopacity="0"
     inkscape:pageshadow="2"
     inkscape:window-width="1920"
     inkscape:window-height="1019"
     id="namedview25"
     showgrid="false"
     inkscape:zoom="20.85965"
     inkscape:cx="5.8682653"
     inkscape:cy="17.636713"
     inkscape:window-x="0"
     inkscape:window-y="36"
     inkscape:window-maximized="1"
     inkscape:current-layer="svg23" />
  <metadata
     id="metadata2">
    <rdf:RDF>
      <cc:Work
         rdf:about="">
        <dc:format>image/svg+xml</dc:format>
        <dc:type
           rdf:resource="http://purl.org/dc/dcmitype/StillImage" />
        <dc:title />
      </cc:Work>
    </rdf:RDF>
  </metadata>
  <g
     id="system-suspend-hibernate-3"
     transform="translate(-19.767645,114.83707)">
    <path
       id="path994"
       overflow="visible"
       d="m 35.767644,-114.83708 c -8.82857,0 -16,7.17143 -16,16.000005 0,8.82858 7.17143,16.00001 16,16.00001 8.82857,0 16.000002,-7.17143 16.000002,-16.00001 0,-8.828565 -7.171432,-16.000005 -16.000002,-16.000005 z"
       inkscape:connector-curvature="0"
       style="color:#000000;overflow:visible;opacity:0.15;fill:#ffffff;fill-opacity:1;stroke-width:0.99999994" />
    <rect
       x="19.767645"
       y="-114.83707"
       width="32"
       height="32"
       rx="0"
       ry="0"
       style="opacity:0;stroke-width:2;paint-order:fill markers stroke"
       id="rect996" />
    <path
       style="color:#000000;overflow:visible;opacity:0.5;fill:none"
       inkscape:connector-curvature="0"
       d="m 35.767644,-113.33708 c -8,0 -14.5,6.5 -14.5,14.500005 0,8.00001 6.5,14.50001 14.5,14.50001 8,0 14.500002,-6.5 14.500002,-14.50001 0,-8.000005 -6.500002,-14.500005 -14.500002,-14.500005 z"
       overflow="visible"
       id="path998" />
    <g
       transform="translate(91.767828,-44.83689)"
       id="g1195">
      <g
         id="g1186"
         transform="translate(0.49971009,-1.0001389)">
        <path
           id="path49-3"
           style="opacity:1;fill:none;stroke:#ffffff;stroke-width:0.99983621;stroke-linecap:round;stroke-dashoffset:3;paint-order:stroke fill markers;stroke-opacity:1"
           d="m -48.000044,-53.000038 a 8.5001576,8.5001576 0 0 1 -5.247118,7.853103 8.5001576,8.5001576 0 0 1 -9.263244,-1.842596 8.5001576,8.5001576 0 0 1 -1.842596,-9.263244 8.5001576,8.5001576 0 0 1 7.853103,-5.247118"
           inkscape:connector-curvature="0" />
        <path
           id="path53"
           style="opacity:1;fill:none;stroke:#ffffff;stroke-width:0.99972284;stroke-linecap:round;stroke-dashoffset:3;paint-order:stroke fill markers;stroke-opacity:1"
           d="m -55.502406,-50.58114 a 1.0003276,1.0003276 0 0 1 -0.477468,0.930557 1.0003276,1.0003276 0 0 1 -1.045909,-0.0037 1.0003276,1.0003276 0 0 1 -0.470891,-0.933921"
           inkscape:connector-curvature="0" />
      </g>
      <g
         id="g1182"
         transform="translate(-8,-1.0000038)">
        <rect
           id="rect1035"
           style="fill:#ffffff;fill-opacity:1;fill-rule:evenodd;stroke-width:3.08597136;paint-order:stroke fill markers"
           ry="0.49999374"
           height="0.99998748"
           width="4"
           y="-59.000221"
           x="-45" />
        <rect
           id="rect1037"
           style="fill:#ffffff;fill-opacity:1;fill-rule:evenodd;stroke-width:3.19426942;paint-order:stroke fill markers"
           ry="0.49999374"
           height="0.99998748"
           width="5"
           y="-55.999985"
           x="-45" />
        <rect
           transform="rotate(-45.000022)"
           x="7.2880712"
           y="-71.232941"
           width="5.222847"
           height="1.0445564"
           ry="0.52227819"
           style="fill:#ffffff;fill-opacity:1;fill-rule:evenodd;stroke-width:3.33663607;paint-order:stroke fill markers"
           id="rect1039" />
      </g>
    </g>
  </g>
</svg>
