<?xml version="1.0" encoding="UTF-8"?>
<!-- Created with Inkscape (http://www.inkscape.org/) -->
<svg width="64" height="64" version="1.1" viewBox="0 0 16.933 16.933" xmlns="http://www.w3.org/2000/svg" xmlns:cc="http://creativecommons.org/ns#" xmlns:dc="http://purl.org/dc/elements/1.1/" xmlns:rdf="http://www.w3.org/1999/02/22-rdf-syntax-ns#">
 <defs>
  <filter id="filter6714" x="-.027997" y="-.021002" width="1.056" height="1.042" color-interpolation-filters="sRGB">
   <feGaussianBlur stdDeviation="0.11258535"/>
  </filter>
 </defs>
 <metadata>
  <rdf:RDF>
   <cc:Work rdf:about="">
    <dc:format>image/svg+xml</dc:format>
    <dc:type rdf:resource="http://purl.org/dc/dcmitype/StillImage"/>
    <dc:title/>
   </cc:Work>
  </rdf:RDF>
 </metadata>
 <g transform="matrix(1.2365 0 0 1.2365 -23.08 -2.5397)" filter="url(#filter6714)" opacity=".25">
  <g stroke-width=".025521">
   <path d="m29.485 13.439c0 1.0453-1.759 1.8897-3.9401 1.8897-2.1711 0-3.9401-0.84431-3.9401-1.8897l-0.784-8.4632h9.4483z"/>
   <path d="m30.048 4.3024c0.392 0.392 0.31159 0.84431 0.31159 0.86442 0 1.3368-2.161 2.4224-4.8246 2.4224s-4.8146-1.0856-4.8146-2.4224c0-0.010055-0.07036-0.48247 0.30153-0.86442 0.28144-0.31159 8.7547-0.31159 9.0261 0z"/>
   <path d="m25.545 2.463c2.6134 0 4.7241 1.0353 4.7241 2.3118s-2.1108 2.3118-4.7241 2.3118c-2.6134 0-4.7241-1.0353-4.7241-2.3118s2.1108-2.3118 4.7241-2.3118z"/>
   <path d="m22.831 5.9609-0.46236 0.52267c0.84431 0.36184 1.95 0.59303 3.1762 0.59303s2.3319-0.22114 3.1762-0.59303l-0.46236-0.52267c-0.77395 0.2915-1.7087 0.47242-2.7139 0.47242-1.0152 0-1.95-0.18092-2.7139-0.47242z"/>
   <path d="m25.545 3.2671c2.1208 0 3.9401 0.63323 4.7241 1.5278v-0.02011c0-1.2765-2.1108-2.3118-4.7241-2.3118-2.6134 0-4.7241 1.0353-4.7241 2.3118v0.020111c0.784-0.89459 2.6033-1.5278 4.7241-1.5278z"/>
   <path d="m25.545 7.0866c1.2263 0 2.342-0.23117 3.1762-0.60309l-1.4273-1.6384-1.96 2.2415z"/>
   <path d="m23.163 6.7549 0.03017 0.030166c0.69353 0.19097 1.4976 0.30153 2.352 0.30153 0.6835 0 1.3368-0.070362 1.9298-0.20103l0.13067-0.13067-2.2213-2.543s-2.2213 2.543-2.2213 2.543z"/>
   <path d="m25.545 7.0866h0.21108l-1.96-2.2415-1.4273 1.6384c0.83426 0.38197 1.95 0.60309 3.1762 0.60309z"/>
   <path d="m25.344 7.0666h0.19097c1.2162 0 2.3319-0.22114 3.1762-0.59303l-0.45231-0.51262c-0.67345 0.26134-1.4775 0.4322-2.352 0.47242z"/>
   <path d="m27.183 6.2725c-0.51262 0.11056-1.0655 0.17086-1.6384 0.17086-0.67345 0-1.3167-0.080417-1.8997-0.23117l-0.47242 0.54278 0.01006 0.010055c0.69353 0.19097 1.5077 0.30153 2.3721 0.30153 0.69353 0 1.3569-0.070361 1.95-0.20103l0.12061-0.12061c0-2.55e-5 -0.44225-0.47242-0.44225-0.47242z"/>
   <path d="m25.736 7.0666-0.56287-0.64328c-0.87448-0.040196-1.6786-0.21108-2.352-0.47242l-0.45231 0.53273c0.84431 0.36184 1.95 0.59303 3.1762 0.59303 0.06031-0.010055 0.13067-0.010055 0.19097-0.010055z"/>
  </g>
  <path d="m23.446 12.809c-0.06562 0.1179-0.1179 0.29527-0.1179 0.40676 0 0.02589 0 0.05895 0.0064 0.10483l-0.81968-1.41a0.36575 0.36575 0 0 1-0.04588-0.1707c0-0.05921 0.01948-0.13123 0.04588-0.17685l0.39344-0.68896-0.43932-0.24862 1.4297-0.0264 0.69511 1.2523-0.44598-0.25554zm0.6295-4.1276c0.12457-0.21658 0.32808-0.33474 0.57695-0.33474 0.26912 0 0.4793 0.12482 0.62975 0.38036l0.22299 0.3737-0.77406 1.4917-1.2523-0.88171zm0.09176 5.262a0.68563 0.68563 0 0 1-0.68178-0.68178c0-0.10509 0.04588-0.2822 0.1115-0.39369l0.20966-0.3737h1.5543v1.4492zm1.2462-5.3015c-0.09817-0.17045-0.2294-0.28886-0.38703-0.35448h1.6132c0.1443 0 0.2558 0.05921 0.32167 0.17096l0.39984 0.68178 0.43265-0.2558-0.69511 1.2462-1.4228-0.01999 0.43932-0.24913zm2.4857 3.8654c0.19659 0 0.36063-0.05229 0.49827-0.15712l-0.81327 1.4164a0.35422 0.35422 0 0 1-0.32116 0.17685h-0.76765v0.50493l-0.73433-1.2262 0.73433-1.2264v0.5116zm0.62924-1.1803c0.05895 0.10509 0.09202 0.21633 0.09202 0.33448 0 0.2358-0.15122 0.48519-0.36063 0.6031a0.73228 0.73228 0 0 1-0.3737 0.08561h-0.43316l-0.77354-1.3379 1.2523-0.7151z" stroke-width=".25631"/>
 </g>
 <path d="m13.378 14.078c0 1.2925-2.175 2.3366-4.8719 2.3366-2.6846 0-4.8719-1.044-4.8719-2.3366l-0.96942-10.465h11.683z" fill="#f05050"/>
 <g stroke-width=".031557">
  <path d="m14.074 2.7802c0.48471 0.48471 0.38528 1.044 0.38528 1.0689 0 1.653-2.6721 2.9953-5.9656 2.9953s-5.9533-1.3423-5.9533-2.9953c0-0.012433-0.087-0.59657 0.37284-1.0689 0.348-0.38528 5.6771-3.1477 11.161 0z" fill="#f05050"/>
  <path d="m8.5064 0.5058c3.2315 0 5.8413 1.2801 5.8413 2.8585s-2.61 2.8585-5.8413 2.8585c-3.2315 0-5.8413-1.2801-5.8413-2.8585s2.61-2.8585 5.8413-2.8585z" opacity=".3"/>
  <path d="m5.1505 4.831-0.57171 0.64628c1.044 0.44742 2.4112 0.73328 3.9274 0.73328s2.8834-0.27344 3.9274-0.73328l-0.57171-0.64628c-0.95699 0.36044-2.1128 0.58415-3.3557 0.58415-1.2553 0-2.4112-0.22371-3.3557-0.58415z" fill="#cdcfcf"/>
  <path d="m8.5064 1.5001c2.6224 0 4.8719 0.78299 5.8413 1.8891v-0.024866c0-1.5784-2.61-2.8585-5.8413-2.8585-3.2315 0-5.8413 1.2801-5.8413 2.8585v0.024867c0.96942-1.1062 3.219-1.8891 5.8413-1.8891z" fill="#f04650"/>
  <path d="m8.5064 6.2229c1.5163 0 2.8959-0.28584 3.9274-0.74572l-1.7649-2.0259-2.4235 2.7716z" fill="#ccd0d2"/>
  <path d="m5.561 5.8127 0.037305 0.0373c0.85755 0.23613 1.8518 0.37284 2.9082 0.37284 0.84515 0 1.653-0.087003 2.3862-0.24857l0.16157-0.16157-2.7466-3.1444-2.7466 3.1444z" fill="#dcdedf"/>
  <path d="m8.5064 6.2229h0.261l-2.4235-2.7716-1.7649 2.0259c1.0316 0.47231 2.4112 0.74572 3.9274 0.74572z" fill="#e4e7e7"/>
  <path d="m8.2579 6.1982h0.23613c1.5038 0 2.8834-0.27344 3.9274-0.73328l-0.55928-0.63385c-0.83272 0.32315-1.8269 0.53442-2.9082 0.58415z" fill="#b7bbbd"/>
  <path d="m10.532 5.2162c-0.63385 0.13671-1.3175 0.21127-2.0259 0.21127-0.83272 0-1.6281-0.099436-2.349-0.28584l-0.58415 0.67115 0.012439 0.012433c0.85755 0.23613 1.8643 0.37284 2.9331 0.37284 0.85755 0 1.6778-0.087001 2.4112-0.24857l0.14914-0.14913c0-3.15e-5 -0.54684-0.58415-0.54684-0.58415z" fill="#c6c7c8"/>
  <path d="m8.7426 6.1982-0.69599-0.79542c-1.0813-0.049702-2.0756-0.261-2.9082-0.58415l-0.55928 0.65872c1.044 0.44742 2.4112 0.73328 3.9274 0.73328 0.074573-0.012433 0.16157-0.012433 0.23613-0.012433z" fill="#cdcfcf"/>
 </g>
 <path d="m6.638 12.799c-0.058412 0.10494-0.10494 0.26282-0.10494 0.36206 0 0.02305 0 0.05248 0.00569 0.09331l-0.7296-1.2551a0.32556 0.32556 0 0 1-0.040842-0.15194c0-0.0527 0.017336-0.11681 0.040842-0.15742l0.3502-0.61324-0.39104-0.2213 1.2726-0.02349 0.61872 1.1147-0.39697-0.22745zm0.56032-3.674c0.11088-0.19278 0.29202-0.29795 0.51354-0.29795 0.23955 0 0.42663 0.1111 0.56054 0.33855l0.19848 0.33263-0.68899 1.3278-1.1147-0.78481zm0.081671 4.6837a0.61027 0.61027 0 0 1-0.60685-0.60685c0-0.09354 0.040842-0.25118 0.099242-0.35042l0.18661-0.33263h1.3835v1.2899zm1.1093-4.7189c-0.087382-0.15172-0.2042-0.25712-0.3445-0.31552h1.4359c0.12845 0 0.22769 0.052703 0.28632 0.15218l0.3559 0.60685 0.38511-0.22769-0.61872 1.1092-1.2664-0.017794 0.39104-0.22175zm2.2125 3.4406c0.17499 0 0.321-0.04654 0.44351-0.13985l-0.7239 1.2607a0.3153 0.3153 0 0 1-0.28587 0.15742h-0.68329v0.44944l-0.65363-1.0914 0.65363-1.0916v0.45538zm0.56008-1.0506c0.05248 0.09354 0.08191 0.19256 0.08191 0.29772 0 0.20988-0.13461 0.43187-0.321 0.53681a0.65181 0.65181 0 0 1-0.33263 0.07621h-0.38556l-0.68853-1.1909 1.1147-0.63651z" fill="#fff" stroke-width=".22815"/>
 <circle cx="-330.35" cy="-328.38" r="0" fill="#5e4aa6" stroke-width=".26458"/>
</svg>
