<?xml version="1.0" encoding="UTF-8" standalone="no"?>
<svg
   xmlns:dc="http://purl.org/dc/elements/1.1/"
   xmlns:cc="http://creativecommons.org/ns#"
   xmlns:rdf="http://www.w3.org/1999/02/22-rdf-syntax-ns#"
   xmlns:svg="http://www.w3.org/2000/svg"
   xmlns="http://www.w3.org/2000/svg"
   xmlns:sodipodi="http://sodipodi.sourceforge.net/DTD/sodipodi-0.dtd"
   xmlns:inkscape="http://www.inkscape.org/namespaces/inkscape"
   width="32"
   height="32"
   version="1.1"
   id="svg18"
   sodipodi:docname="system-lock-screen.svg"
   inkscape:version="0.92.4 5da689c313, 2019-01-14">
  <defs
     id="defs22" />
  <sodipodi:namedview
     pagecolor="#c8c8c8"
     bordercolor="#666666"
     borderopacity="1"
     objecttolerance="10"
     gridtolerance="10"
     guidetolerance="10"
     inkscape:pageopacity="0"
     inkscape:pageshadow="2"
     inkscape:window-width="1920"
     inkscape:window-height="1023"
     id="namedview20"
     showgrid="false"
     inkscape:zoom="7.375"
     inkscape:cx="-3.7288136"
     inkscape:cy="16"
     inkscape:window-x="0"
     inkscape:window-y="32"
     inkscape:window-maximized="1"
     inkscape:current-layer="svg18" />
  <metadata
     id="metadata2">
    <rdf:RDF>
      <cc:Work
         rdf:about="">
        <dc:format>image/svg+xml</dc:format>
        <dc:type
           rdf:resource="http://purl.org/dc/dcmitype/StillImage" />
        <dc:title />
      </cc:Work>
    </rdf:RDF>
  </metadata>
  <g
     id="system-lock-screen"
     transform="translate(-99.767638,114.83707)">
    <g
       id="g1346">
      <path
         style="color:#000000;overflow:visible;opacity:1;fill:#ffffff;fill-opacity:1;stroke-width:0.99999994"
         inkscape:connector-curvature="0"
         d="m 115.76764,-114.83706 c -8.82857,0 -16.000004,7.17142 -16.000004,15.999993 0,8.828571 7.171434,16 16.000004,16 8.82857,0 16,-7.171429 16,-16 0,-8.828563 -7.17143,-15.999993 -16,-15.999993 z"
         overflow="visible"
         id="path985" />
      <rect
         id="rect987"
         style="opacity:0;stroke-width:2;paint-order:fill markers stroke"
         ry="0"
         rx="0"
         height="32"
         width="32"
         y="-114.83707"
         x="99.767639" />
      <path
         id="path989"
         overflow="visible"
         d="m 115.76764,-113.33706 c -8,0 -14.5,6.5 -14.5,14.499993 0,8 6.5,14.5 14.5,14.5 8,0 14.5,-6.5 14.5,-14.5 0,-7.999993 -6.5,-14.499993 -14.5,-14.499993 z"
         inkscape:connector-curvature="0"
         style="color:#000000;overflow:visible;opacity:0.5;fill:none" />
      <g
         style="fill:#323232;fill-opacity:1;fill-rule:evenodd"
         transform="matrix(0.9999874,0,0,0.9999874,-69.230033,-71.837406)"
         id="g89">
        <path
           inkscape:connector-curvature="0"
           d="m 185,-36 c -2.77,0 -5,2.23 -5,5 v 3 h -2 c -1.108,0 -2,0.892 -2,2 v 6 c 0,1.108 0.892,2 2,2 h 14 c 1.108,0 2,-0.892 2,-2 v -6 c 0,-1.108 -0.892,-2 -2,-2 h -2 v -3 c 0,-2.77 -2.23,-5 -5,-5 z m 0,1 c 2.216,0 4,1.784 4,4 v 3 h -8 v -3 c 0,-2.216 1.784,-4 4,-4 z m -7,8 h 14 c 0.554,0 1,0.446 1,1 v 6 c 0,0.554 -0.446,1 -1,1 h -14 c -0.554,0 -1,-0.446 -1,-1 v -6 c 0,-0.554 0.446,-1 1,-1 z"
           style="opacity:1;fill:#323232;fill-opacity:1;paint-order:stroke fill markers"
           id="path85" />
        <rect
           x="184.5"
           y="-25"
           width="1"
           height="3"
           ry="0.5"
           style="opacity:1;fill:#323232;fill-opacity:1;paint-order:stroke fill markers"
           id="rect87" />
      </g>
    </g>
  </g>
</svg>
