<?xml version="1.0" encoding="UTF-8"?>
<svg width="32" height="32" version="1.1" xmlns="http://www.w3.org/2000/svg" xmlns:cc="http://creativecommons.org/ns#" xmlns:dc="http://purl.org/dc/elements/1.1/" xmlns:rdf="http://www.w3.org/1999/02/22-rdf-syntax-ns#">
 <metadata>
  <rdf:RDF>
   <cc:Work rdf:about="">
    <dc:format>image/svg+xml</dc:format>
    <dc:type rdf:resource="http://purl.org/dc/dcmitype/StillImage"/>
    <dc:title/>
   </cc:Work>
  </rdf:RDF>
 </metadata>
 <g transform="translate(-38.593 -4.5254)">
  <path d="m54.593 5.5254c-8.2768 0-15 6.7232-15 15s6.7232 15 15 15 15-6.7232 15-15-6.7232-15-15-15z" color="#000000" fill="#fff" opacity=".85" overflow="visible" stroke-width=".9375"/>
  <rect x="39.593" y="5.5254" width="30" height="30" rx="0" ry="0" opacity="0" stroke-width="1.875" style="paint-order:fill markers stroke"/>
  <path d="m54.593 6.9317c-7.5 0-13.594 6.0937-13.594 13.594s6.0938 13.594 13.594 13.594 13.594-6.0938 13.594-13.594-6.0938-13.594-13.594-13.594z" color="#000000" fill="none" opacity=".5" overflow="visible" stroke-width=".9375"/>
  <path d="m51.537 13.266c-0.21832-0.21832-0.5458-0.21832-0.76414 0-0.21831 0.21832-0.21831 0.5458 0 0.76413l6.4951 6.4951-6.4951 6.4951c-0.21831 0.21832-0.21831 0.5458 0 0.76413 0.10917 0.10916 0.27292 0.16374 0.38207 0.16374 0.10917 0 0.27291-0.05457 0.38207-0.16374l6.8771-6.8771c0.21832-0.21832 0.21832-0.5458 0-0.76413z" fill="#505050" stroke-width=".017811" p-id="10172"/>
 </g>
</svg>
