<?xml version="1.0" encoding="UTF-8" standalone="no"?>
<svg
   xmlns:dc="http://purl.org/dc/elements/1.1/"
   xmlns:cc="http://creativecommons.org/ns#"
   xmlns:rdf="http://www.w3.org/1999/02/22-rdf-syntax-ns#"
   xmlns:svg="http://www.w3.org/2000/svg"
   xmlns="http://www.w3.org/2000/svg"
   xmlns:sodipodi="http://sodipodi.sourceforge.net/DTD/sodipodi-0.dtd"
   xmlns:inkscape="http://www.inkscape.org/namespaces/inkscape"
   width="32"
   height="32"
   version="1.1"
   id="svg14"
   sodipodi:docname="system-log-out.svg"
   inkscape:version="0.92.4 5da689c313, 2019-01-14">
  <defs
     id="defs18" />
  <sodipodi:namedview
     pagecolor="#c8c8c8"
     bordercolor="#666666"
     borderopacity="1"
     objecttolerance="10"
     gridtolerance="10"
     guidetolerance="10"
     inkscape:pageopacity="0"
     inkscape:pageshadow="2"
     inkscape:window-width="1920"
     inkscape:window-height="1023"
     id="namedview16"
     showgrid="false"
     inkscape:zoom="7.375"
     inkscape:cx="-3.7288136"
     inkscape:cy="16"
     inkscape:window-x="0"
     inkscape:window-y="32"
     inkscape:window-maximized="1"
     inkscape:current-layer="svg14" />
  <metadata
     id="metadata2">
    <rdf:RDF>
      <cc:Work
         rdf:about="">
        <dc:format>image/svg+xml</dc:format>
        <dc:type
           rdf:resource="http://purl.org/dc/dcmitype/StillImage" />
        <dc:title />
      </cc:Work>
    </rdf:RDF>
  </metadata>
  <g
     id="system-log-out"
     transform="translate(-57.767643,114.83707)">
    <path
       id="path867"
       overflow="visible"
       d="m 73.767643,-114.83708 c -8.82857,0 -16,7.17143 -16,16.000004 0,8.828571 7.17143,16 16,16 8.82857,0 16,-7.171429 16,-16 0,-8.828574 -7.17143,-16.000004 -16,-16.000004 z"
       inkscape:connector-curvature="0"
       style="color:#000000;overflow:visible;opacity:1;fill:#ffffff;fill-opacity:1;stroke-width:0.99999994" />
    <rect
       x="57.767643"
       y="-114.83707"
       width="32"
       height="32"
       rx="0"
       ry="0"
       style="opacity:0;stroke-width:2;paint-order:fill markers stroke"
       id="rect8" />
    <path
       style="color:#000000;overflow:visible;opacity:0.5;fill:none"
       inkscape:connector-curvature="0"
       d="m 73.767643,-113.33708 c -8,0 -14.5,6.5 -14.5,14.500005 0,8 6.5,14.5 14.5,14.5 8,0 14.5,-6.5 14.5,-14.5 0,-8.000005 -6.5,-14.500005 -14.5,-14.500005 z"
       overflow="visible"
       id="path14-3" />
    <g
       transform="translate(15.163683,-33.837077)"
       id="g1290">
      <rect
         transform="rotate(45)"
         x="-13.264277"
         y="-90.651978"
         width="12"
         height="0.99998748"
         ry="0.49999374"
         style="fill:#323232;fill-opacity:1;fill-rule:evenodd;stroke-width:3.77952766;paint-order:stroke fill markers"
         id="rect135" />
      <rect
         transform="matrix(0.70710678,-0.70710678,-0.70710678,-0.70710678,0,0)"
         x="78.650414"
         y="1.2810915"
         width="12.000054"
         height="0.99999201"
         ry="0.49999601"
         style="fill:#323232;fill-opacity:1;fill-rule:evenodd;stroke-width:3.77954483;paint-order:stroke fill markers"
         id="rect137" />
    </g>
  </g>
</svg>
