<?xml version="1.0" encoding="UTF-8"?>
<svg width="32" height="32" version="1.1" xmlns="http://www.w3.org/2000/svg" xmlns:cc="http://creativecommons.org/ns#" xmlns:dc="http://purl.org/dc/elements/1.1/" xmlns:rdf="http://www.w3.org/1999/02/22-rdf-syntax-ns#">
 <metadata>
  <rdf:RDF>
   <cc:Work rdf:about="">
    <dc:format>image/svg+xml</dc:format>
    <dc:type rdf:resource="http://purl.org/dc/dcmitype/StillImage"/>
    <dc:title/>
   </cc:Work>
  </rdf:RDF>
 </metadata>
 <g id="system-shutdown" transform="matrix(.9375 0 0 .9375 -41.648 113.59)">
  <path d="m61.491-120.09c-8.8286 0-16 7.1714-16 16 0 8.8286 7.1714 16 16 16s16-7.1714 16-16c0-8.8286-7.1714-16-16-16z" color="#000000" fill="#fff" opacity=".85" overflow="visible"/>
  <rect x="45.491" y="-120.09" width="32" height="32" rx="0" ry="0" opacity="0" stroke-width="2" style="paint-order:fill markers stroke"/>
  <path d="m61.491-118.59c-8 0-14.5 6.5-14.5 14.5 0 8 6.5 14.5 14.5 14.5s14.5-6.5 14.5-14.5c0-8-6.5-14.5-14.5-14.5z" color="#000000" fill="none" opacity=".5" overflow="visible"/>
  <g transform="matrix(.016667 0 0 .016667 52.956 -112.63)" fill="#505050">
   <path d="m700.64 70.56a32.007 32.007 0 1 0-25.12 58.88 416 416 0 1 1-326.88 0 32.007 32.007 0 1 0-25.12-58.88 480 480 0 1 0 377.12 0z" p-id="17490"/>
   <path d="m512 544a32 32 0 0 0 32-32v-448a32 32 0 0 0-64 0v448a32 32 0 0 0 32 32z" p-id="17491"/>
  </g>
 </g>
</svg>
