<?xml version="1.0" encoding="UTF-8"?>
<svg width="64" height="64" version="1.1" viewBox="0 0 64 64" xmlns="http://www.w3.org/2000/svg" xmlns:cc="http://creativecommons.org/ns#" xmlns:dc="http://purl.org/dc/elements/1.1/" xmlns:rdf="http://www.w3.org/1999/02/22-rdf-syntax-ns#" xmlns:xlink="http://www.w3.org/1999/xlink">
 <metadata>
  <rdf:RDF>
   <cc:Work rdf:about="">
    <dc:format>image/svg+xml</dc:format>
    <dc:type rdf:resource="http://purl.org/dc/dcmitype/StillImage"/>
    <dc:title/>
   </cc:Work>
  </rdf:RDF>
 </metadata>
 <defs>
  <linearGradient id="a">
   <stop stop-color="#4d4d4d" offset="0"/>
   <stop stop-color="#1a1a1a" offset="1"/>
  </linearGradient>
  <linearGradient id="c" x1="58.177" x2="60.816" y1="192.12" y2="192.12" gradientTransform="matrix(16.148 0 0 3.8777 -1128.3 -1389.3)" gradientUnits="userSpaceOnUse" xlink:href="#a"/>
  <linearGradient id="b" x1="32" x2="32" y1="14" y2="50" gradientTransform="matrix(1.019 0 0 1 -.60956 0)" gradientUnits="userSpaceOnUse" xlink:href="#a"/>
  <filter id="e" x="-.079091" y="-.048333" width="1.1582" height="1.0967" color-interpolation-filters="sRGB">
   <feGaussianBlur stdDeviation="0.72499973"/>
  </filter>
  <style type="text/css"/>
  <style type="text/css"/>
  <filter id="filter11290" x="-.024" y="-.024" width="1.048" height="1.048" color-interpolation-filters="sRGB">
   <feGaussianBlur stdDeviation="0.15875313"/>
  </filter>
  <linearGradient id="linearGradient1005" x1=".73911" x2="16.388" y1="16.296" y2=".64687" gradientTransform="matrix(3.7796 0 0 3.7796 -.13154 .025034)" gradientUnits="userSpaceOnUse">
   <stop stop-color="#dddfe1" offset="0"/>
   <stop stop-color="#f3f4f6" offset="1"/>
  </linearGradient>
 </defs>
 <circle transform="matrix(3.7796 0 0 3.7796 -.10279 .024585)" cx="8.4937" cy="8.46" r="7.9377" filter="url(#filter11290)" opacity=".25" stroke-width=".14032"/>
 <path d="m62 32c0 3.5964-0.63305 7.0448-1.794 10.24-0.80698 2.2212-1.8686 4.3212-3.1519 6.2636-0.53754 0.8167-1.1155 1.6054-1.729 2.3633-1.9641 2.4257-4.2982 4.5382-6.9186 6.2526-0.96493 0.63187-1.9678 1.2099-3.0061 1.7277-4.0321 2.0179-8.5839 3.153-13.401 3.153s-9.3689-1.1351-13.401-3.1531c-1.0384-0.51799-2.0425-1.096-3.0074-1.7277-2.6535-1.7376-5.0155-3.8832-6.9957-6.349-0.61468-0.76408-1.1915-1.56-1.729-2.3841-1.249-1.9102-2.2837-3.9712-3.0747-6.1494-1.1608-3.1949-1.7927-6.6419-1.7927-10.237 0-16.569 13.432-30.001 30.001-30.001 8.317 0 15.843 3.3846 21.277 8.8507 1.5661 1.5747 2.9584 3.3234 4.1436 5.214 1.1205 1.7805 2.0572 3.6882 2.7857 5.6951 1.161 3.196 1.7941 6.6442 1.7941 10.24z" fill="url(#linearGradient1005)" stroke-width=".11719"/>
 <circle cx="-167.52" cy="-644.29" r="0" fill="url(#c)"/>
 <path d="m32.004 14c-3.4881 0-6.298 2.7554-6.298 6.1783v13.179c0 3.4229 2.81 6.1783 6.298 6.1783 3.4881 0 6.296-2.7554 6.296-6.1783v-13.179c0-3.4229-2.8079-6.1783-6.296-6.1783zm9.8491 14.791a1.1352 1.1139 0 0 0-1.1246 1.1352v3.8426c0 2.9039-1.0633 4.8597-2.6502 6.1664s-3.7643 1.9486-5.9796 1.8907c-2.2153-0.05791-4.4369-0.81829-6.0703-2.1755-1.6334-1.3572-2.7172-3.2745-2.757-5.8975v-3.8268a1.1352 1.1139 0 0 0-1.1508-1.1293 1.1352 1.1139 0 0 0-1.1205 1.1293v3.8566c0.04906 3.2307 1.4829 5.8346 3.5652 7.5647 1.7795 1.4786 4.0081 2.3447 6.3 2.6106v3.6152h-4.4761c-0.68512 0-1.2374 0.54199-1.2374 1.2143s0.55231 1.2123 1.2374 1.2123h11.228c0.68512 0 1.2374-0.54001 1.2374-1.2123 0-0.67231-0.55231-1.2143-1.2374-1.2143h-4.4822v-3.548c2.3249-0.1362 4.6055-0.90373 6.4068-2.3871 2.0843-1.7164 3.4584-4.406 3.4584-7.8692v-3.8426a1.1352 1.1139 0 0 0-1.1467-1.1352z" filter="url(#e)" opacity=".25" style="paint-order:fill markers stroke"/>
 <path d="m32.004 14c-3.4881 0-6.298 2.7554-6.298 6.1783v13.179c0 3.4229 2.81 6.1783 6.298 6.1783 3.4881 0 6.296-2.7554 6.296-6.1783v-13.179c0-3.4229-2.8079-6.1783-6.296-6.1783zm9.8491 14.791a1.1352 1.1139 0 0 0-1.1246 1.1352v3.8426c0 2.9039-1.0633 4.8597-2.6502 6.1664s-3.7643 1.9486-5.9796 1.8907c-2.2153-0.05791-4.4369-0.81829-6.0703-2.1755-1.6334-1.3572-2.7172-3.2745-2.757-5.8975v-3.8268a1.1352 1.1139 0 0 0-1.1508-1.1293 1.1352 1.1139 0 0 0-1.1205 1.1293v3.8566c0.04906 3.2307 1.4829 5.8346 3.5652 7.5647 1.7795 1.4786 4.0081 2.3447 6.3 2.6106v3.6152h-4.4761c-0.68512 0-1.2374 0.54199-1.2374 1.2143s0.55231 1.2123 1.2374 1.2123h11.228c0.68512 0 1.2374-0.54001 1.2374-1.2123 0-0.67231-0.55231-1.2143-1.2374-1.2143h-4.4822v-3.548c2.3249-0.1362 4.6055-0.90373 6.4068-2.3871 2.0843-1.7164 3.4584-4.406 3.4584-7.8692v-3.8426a1.1352 1.1139 0 0 0-1.1467-1.1352z" fill="url(#b)" style="paint-order:fill markers stroke"/>
 <g transform="translate(108.25 -22.878)" fill="#5e4aa6">
  <circle cx="-1248.7" cy="-1241.6" r="0"/>
  <circle cx="-149.15" cy="23.855" r="0" fill-rule="evenodd"/>
  <g transform="matrix(3.7796,0,0,3.7796,-102.92,-38.72)" stroke-width=".26458">
   <circle cx="-330.35" cy="-328.38" r="0"/>
   <circle cx="-312.11" cy="-326.25" r="0"/>
   <circle cx="-306.02" cy="-333.07" r="0"/>
   <circle cx="-308.84" cy="-326.01" r="0"/>
  </g>
 </g>
</svg>
