<?xml version="1.0" encoding="UTF-8"?>
<svg width="64" height="64" version="1.1" xmlns="http://www.w3.org/2000/svg" xmlns:cc="http://creativecommons.org/ns#" xmlns:dc="http://purl.org/dc/elements/1.1/" xmlns:rdf="http://www.w3.org/1999/02/22-rdf-syntax-ns#" xmlns:xlink="http://www.w3.org/1999/xlink">
 <metadata>
  <rdf:RDF>
   <cc:Work rdf:about="">
    <dc:format>image/svg+xml</dc:format>
    <dc:type rdf:resource="http://purl.org/dc/dcmitype/StillImage"/>
    <dc:title/>
   </cc:Work>
  </rdf:RDF>
 </metadata>
 <defs>
  <linearGradient id="a" x1="506.61" x2="516.39" y1="-2.3094" y2="518.6" gradientUnits="userSpaceOnUse">
   <stop stop-color="#0012ff" offset="0"/>
   <stop stop-color="#00bcff" offset="1"/>
  </linearGradient>
  <filter id="e" x="-.051381" y="-.072094" width="1.1028" height="1.1442" color-interpolation-filters="sRGB">
   <feGaussianBlur stdDeviation="13.101814"/>
  </filter>
  <filter id="filter11290" x="-.024" y="-.024" width="1.048" height="1.048" color-interpolation-filters="sRGB">
   <feGaussianBlur stdDeviation="0.15875313"/>
  </filter>
  <linearGradient id="linearGradient1005" x1=".73911" x2="16.388" y1="16.296" y2=".64687" gradientTransform="matrix(3.7796 0 0 3.7796 -.13154 .025034)" gradientUnits="userSpaceOnUse">
   <stop stop-color="#dddfe1" offset="0"/>
   <stop stop-color="#f3f4f6" offset="1"/>
  </linearGradient>
  <linearGradient id="linearGradient916" x1="506.61" x2="516.39" y1="-2.3094" y2="518.6" gradientUnits="userSpaceOnUse" xlink:href="#a"/>
 </defs>
 <circle transform="matrix(3.7796 0 0 3.7796 -.10279 .024585)" cx="8.4937" cy="8.46" r="7.9377" filter="url(#filter11290)" opacity=".25" stroke-width=".14032"/>
 <path d="m62 32c0 3.5964-0.63305 7.0448-1.794 10.24-0.80698 2.2212-1.8686 4.3212-3.1519 6.2636-0.53754 0.8167-1.1155 1.6054-1.729 2.3633-1.9641 2.4257-4.2982 4.5382-6.9186 6.2526-0.96493 0.63187-1.9678 1.2099-3.0061 1.7277-4.0321 2.0179-8.5839 3.153-13.401 3.153-4.8171 0-9.3689-1.1351-13.401-3.1531-1.0384-0.51799-2.0425-1.096-3.0074-1.7277-2.6535-1.7376-5.0155-3.8832-6.9957-6.349-0.61468-0.76408-1.1915-1.56-1.729-2.3841-1.249-1.9102-2.2837-3.9712-3.0747-6.1494-1.1608-3.1949-1.7927-6.6419-1.7927-10.237 0-16.569 13.432-30.001 30.001-30.001 8.317 0 15.843 3.3846 21.277 8.8507 1.5661 1.5747 2.9584 3.3234 4.1436 5.214 1.1205 1.7805 2.0572 3.6882 2.7857 5.6951 1.161 3.196 1.7941 6.6442 1.7941 10.24z" fill="url(#linearGradient1005)" stroke-width=".11719"/>
 <g transform="matrix(.066677 0 0 .066677 -2.4321 11.962)" filter="url(#e)" opacity=".25" stroke-width=".41667">
  <g stroke-width=".41667">
   <g stroke-width=".41667">
    <g transform="translate(973.09,-210.4)" stroke-width=".41667">
     <path d="m-456.7 534.13c-49.553 0-96.331 21.852-128.34 59.948-9.93 11.811-8.402 29.434 3.428 39.363 5.234 4.396 11.605 6.557 17.958 6.557 7.973 0 15.891-3.39 21.405-9.966 21.368-25.429 52.552-40.016 85.544-40.016s64.177 14.587 85.544 40.016c5.533 6.595 13.45 9.966 21.405 9.966 6.353 0 12.724-2.142 17.958-6.557 11.83-9.93 13.357-27.553 3.428-39.363-32.005-38.096-78.783-59.948-128.34-59.948z"/>
     <path d="m-456.71 411.21c-82.545 0-160.49 36.419-213.88 99.926-9.929 11.811-8.402 29.434 3.428 39.363 5.234 4.396 11.605 6.558 17.958 6.558 7.973 0 15.891-3.391 21.405-9.967 42.716-50.838 105.09-79.993 171.09-79.993s128.37 29.155 171.11 79.993c5.533 6.595 13.45 9.967 21.404 9.967 6.353 0 12.724-2.143 17.959-6.558 11.829-9.929 13.356-27.57 3.428-39.363-53.41-63.506-131.35-99.926-213.9-99.926z"/>
     <path d="m-157.26 432.77c-74.739-88.935-183.89-139.92-299.44-139.92s-224.69 50.988-299.44 139.92c-9.93 11.811-8.402 29.434 3.428 39.363 5.234 4.396 11.587 6.558 17.939 6.558 7.973 0 15.891-3.391 21.423-9.967 64.084-76.248 157.64-119.99 256.65-119.99s192.57 43.741 256.65 119.97c5.533 6.576 13.45 9.967 21.424 9.967 6.353 0 12.724-2.143 17.958-6.558 11.811-9.912 13.34-27.553 3.41-39.345z"/>
     <path d="m-502.73 682.98c0 25.406 20.62 46.025 46.025 46.025s46.025-20.619 46.025-46.025c-7.7755-65.326-90.569-48.667-92.049 0z"/>
    </g>
   </g>
  </g>
 </g>
 <g transform="matrix(.066677 0 0 .066677 -2.4313 11.962)" fill="url(#linearGradient916)" stroke-width=".41667">
  <g fill="url(#linearGradient916)" stroke-width=".41667">
   <g fill="url(#linearGradient916)" stroke-width=".41667">
    <g transform="translate(973.09,-210.4)" fill="url(#linearGradient916)" stroke-width=".41667">
     <path d="m-456.7 534.13c-49.553 0-96.331 21.852-128.34 59.948-9.93 11.811-8.402 29.434 3.428 39.363 5.234 4.396 11.605 6.557 17.958 6.557 7.973 0 15.891-3.39 21.405-9.966 21.368-25.429 52.552-40.016 85.544-40.016s64.177 14.587 85.544 40.016c5.533 6.595 13.45 9.966 21.405 9.966 6.353 0 12.724-2.142 17.958-6.557 11.83-9.93 13.357-27.553 3.428-39.363-32.005-38.096-78.783-59.948-128.34-59.948z"/>
     <path d="m-456.71 411.21c-82.545 0-160.49 36.419-213.88 99.926-9.929 11.811-8.402 29.434 3.428 39.363 5.234 4.396 11.605 6.558 17.958 6.558 7.973 0 15.891-3.391 21.405-9.967 42.716-50.838 105.09-79.993 171.09-79.993s128.37 29.155 171.11 79.993c5.533 6.595 13.45 9.967 21.404 9.967 6.353 0 12.724-2.143 17.959-6.558 11.829-9.929 13.356-27.57 3.428-39.363-53.41-63.506-131.35-99.926-213.9-99.926z"/>
     <path d="m-157.26 432.77c-74.739-88.935-183.89-139.92-299.44-139.92s-224.69 50.988-299.44 139.92c-9.93 11.811-8.402 29.434 3.428 39.363 5.234 4.396 11.587 6.558 17.939 6.558 7.973 0 15.891-3.391 21.423-9.967 64.084-76.248 157.64-119.99 256.65-119.99s192.57 43.741 256.65 119.97c5.533 6.576 13.45 9.967 21.424 9.967 6.353 0 12.724-2.143 17.958-6.558 11.811-9.912 13.34-27.553 3.41-39.345z"/>
     <path d="m-502.73 682.98c0 25.406 20.62 46.025 46.025 46.025s46.025-20.619 46.025-46.025c-7.7755-65.326-90.569-48.667-92.049 0z"/>
    </g>
   </g>
  </g>
 </g>
</svg>
