<?xml version="1.0" encoding="UTF-8"?>
<svg width="64px" height="64px" version="1.1" viewBox="0 0 64 64" xmlns="http://www.w3.org/2000/svg" xmlns:cc="http://creativecommons.org/ns#" xmlns:dc="http://purl.org/dc/elements/1.1/" xmlns:rdf="http://www.w3.org/1999/02/22-rdf-syntax-ns#" xmlns:xlink="http://www.w3.org/1999/xlink">
 <metadata>
  <rdf:RDF>
   <cc:Work rdf:about="">
    <dc:format>image/svg+xml</dc:format>
    <dc:type rdf:resource="http://purl.org/dc/dcmitype/StillImage"/>
    <dc:title/>
   </cc:Work>
  </rdf:RDF>
 </metadata>
 <defs>
  <style type="text/css"/>
  <style type="text/css"/>
  <style type="text/css"/>
  <style type="text/css"/>
  <filter id="filter11290" x="-.024" y="-.024" width="1.048" height="1.048" color-interpolation-filters="sRGB">
   <feGaussianBlur stdDeviation="0.15875313"/>
  </filter>
  <linearGradient id="linearGradient1005" x1=".73911" x2="16.388" y1="16.296" y2=".64687" gradientTransform="matrix(3.7796 0 0 3.7796 -.13194 .024584)" gradientUnits="userSpaceOnUse">
   <stop stop-color="#dddfe1" offset="0"/>
   <stop stop-color="#f3f4f6" offset="1"/>
  </linearGradient>
 </defs>
 <circle cx="-1248.7" cy="-1241.6" r="0" fill="#5e4aa6"/>
 <circle cx="-149.15" cy="23.855" r="0" fill="#5e4aa6" fill-rule="evenodd"/>
 <circle transform="matrix(3.7796 0 0 3.7796 -.10279 .024585)" cx="8.4937" cy="8.46" r="7.9377" filter="url(#filter11290)" opacity=".25" stroke-width=".14032"/>
 <path d="m62 32c0 3.5964-0.63305 7.0448-1.794 10.24-0.80698 2.2212-1.8686 4.3212-3.1519 6.2636-0.53754 0.8167-1.1155 1.6054-1.729 2.3633-1.9641 2.4257-4.2982 4.5382-6.9186 6.2526-0.96493 0.63187-1.9678 1.2099-3.0061 1.7277-4.0321 2.0179-8.5839 3.153-13.401 3.153s-9.3689-1.1351-13.401-3.1531c-1.0384-0.51799-2.0425-1.096-3.0074-1.7277-2.6535-1.7376-5.0155-3.8832-6.9957-6.349-0.61468-0.76408-1.1915-1.56-1.729-2.3841-1.249-1.9102-2.2837-3.9712-3.0747-6.1494-1.1608-3.1949-1.7927-6.6419-1.7927-10.237 0-16.569 13.432-30.001 30.001-30.001 8.317 0 15.843 3.3846 21.277 8.8507 1.5661 1.5747 2.9584 3.3234 4.1436 5.214 1.1205 1.7805 2.0572 3.6882 2.7857 5.6951 1.161 3.196 1.7941 6.6442 1.7941 10.24z" fill="url(#linearGradient1005)" stroke-width=".11719"/>
 <g fill="#5e4aa6">
  <circle cx="-1248.7" cy="-1241.6" r="0"/>
  <circle cx="-149.15" cy="23.855" r="0" fill-rule="evenodd"/>
  <g transform="matrix(3.7796 0 0 3.7796 -102.92 -38.72)" stroke-width=".26458">
   <circle cx="-330.35" cy="-328.38" r="0"/>
   <circle cx="-312.11" cy="-326.25" r="0"/>
   <circle cx="-306.02" cy="-333.07" r="0"/>
   <circle cx="-308.84" cy="-326.01" r="0"/>
  </g>
 </g>
 <g transform="matrix(.82458 0 0 .82458 5.82 11.82)">
  <path d="m11.906 2.6445c-1.4648 0-2.6445 1.1797-2.6445 2.6484v39.688l22.488 15.875 22.488-15.875v-39.688c0-1.4688-1.1797-2.6484-2.6445-2.6484z" fill="#3f3f3f"/>
  <g fill="#eee">
   <path d="m31.75 55.562-9.2617-5.293h18.523z"/>
   <path d="m13.891 10.582v22.492h7.9375v-3.3086h-3.9688v-6.6133h3.9688v-3.3086h-3.9688v-5.9531h3.9688v-3.3086zm9.2617 0v22.492h3.9688v-7.9375h2.6445c1.832 0 3.3086-1.4766 3.3086-3.3086v-7.9375c0-1.832-1.4766-3.3086-3.3086-3.3086zm11.242 0v22.492h3.9688v-22.492zm8.6016 0c-1.832 0-3.3086 1.4766-3.3086 3.3086v15.875c0 1.832 1.4766 3.3086 3.3086 3.3086h3.3047c1.832 0 3.3086-1.4766 3.3086-3.3086v-5.9531h-3.3086v4.6289c0 0.73438-0.58984 1.3242-1.3203 1.3242h-0.66406c-0.73047 0-1.3203-0.58984-1.3203-1.3242v-13.227c0-0.73438 0.58984-1.3242 1.3203-1.3242h0.66406c0.73047 0 1.3203 0.58984 1.3203 1.3242v3.9688h3.3086v-5.293c0-1.832-1.4766-3.3086-3.3086-3.3086zm-15.875 3.3086h0.66016c0.73438 0 1.3242 0.58984 1.3242 1.3242v5.2891c0 0.73438-0.58984 1.3242-1.3242 1.3242h-0.66016z"/>
   <path d="m16.418 41.949c-0.29688 0-0.55859-0.01172-0.78516-0.03906-0.23047-0.02734-0.45312-0.07031-0.67578-0.13672-0.23828-0.0625-0.43359-0.14844-0.58594-0.25391-0.15625-0.10938-0.28125-0.25391-0.375-0.42578-0.09375-0.1875-0.14062-0.39844-0.14062-0.63672v-2.1445c0-0.25781 0.05078-0.49219 0.15625-0.69531 0.10547-0.21484 0.25-0.37891 0.42969-0.5 0.16797-0.11328 0.37109-0.20703 0.60156-0.28906 0.23828-0.07813 0.47266-0.12891 0.69922-0.15625 0.19141-0.02344 0.42187-0.03125 0.69141-0.03125 0.73047 0 1.4297 0.05469 2.0938 0.16406v0.9375c-0.61328-0.14844-1.3125-0.22266-2.0938-0.22266-0.89453 0-1.3398 0.26172-1.3398 0.77734v2.0742c0 0.25391 0.11719 0.43359 0.35547 0.53906 0.24219 0.10547 0.60938 0.16016 1.0938 0.16016 0.26172 0 0.53906-0.04297 0.83594-0.12109v-1.1992h-0.84375v-0.80859h2.0234v2.6758c-0.26172 0.09375-0.60156 0.17187-1.0156 0.23828-0.40625 0.0625-0.78125 0.09375-1.125 0.09375z"/>
   <path d="m22.824 36.719h1.5078l1.8555 5.1523h-1.2539l-0.46094-1.3594h-1.8789l-0.45312 1.3594h-1.2227zm1.3789 2.9688-0.64844-1.9375h-0.03516l-0.64844 1.9375z"/>
   <path d="m28.719 36.719h1.7617l1.2695 3.6836 1.2539-3.6836h1.6602v5.1523h-1.1211v-3.8125h-0.02344l-1.3008 3.8125h-0.99219l-1.3438-3.8125h-0.03125v3.8125h-1.1328z"/>
   <path d="m38.004 36.719h3.9297v0.88281h-2.6914v1.1797h2.4297v0.88281h-2.4297v1.3242h2.7695v0.88281h-4.0078z"/>
   <path d="m46.914 41.949c-0.49219 0-1.0977-0.04687-1.8242-0.14062v-0.94531c0.89844 0.13672 1.5156 0.20703 1.8438 0.20703 0.6875 0 1.0312-0.17969 1.0312-0.53516v-0.33203c0-0.16797-0.05078-0.29688-0.15234-0.38672-0.09375-0.09375-0.26953-0.13672-0.52344-0.13672h-0.60156c-1.1328 0-1.6992-0.44922-1.6992-1.3477v-0.38281c0-0.44922 0.1875-0.78125 0.5625-0.99219s0.97266-0.31641 1.7852-0.31641c0.42578 0 0.96094 0.03516 1.6133 0.10156v0.92187c-0.80078-0.09766-1.3516-0.14453-1.6523-0.14453-0.41797 0-0.69922 0.03516-0.83984 0.10547-0.15625 0.07422-0.23047 0.1875-0.23047 0.34766v0.36719c0 0.26953 0.22656 0.40234 0.67969 0.40234h0.62109c0.58594 0 1.0117 0.10937 1.2773 0.32812 0.26562 0.21484 0.39844 0.54688 0.39844 0.99219v0.33984c0 0.61328-0.22266 1.0273-0.66016 1.2461-0.21094 0.10937-0.44531 0.1875-0.70703 0.23047-0.25391 0.04687-0.55859 0.07031-0.92188 0.07031z"/>
  </g>
 </g>
</svg>
