<?xml version="1.0" encoding="UTF-8" standalone="no"?>
<svg
   xmlns:dc="http://purl.org/dc/elements/1.1/"
   xmlns:cc="http://creativecommons.org/ns#"
   xmlns:rdf="http://www.w3.org/1999/02/22-rdf-syntax-ns#"
   xmlns:svg="http://www.w3.org/2000/svg"
   xmlns="http://www.w3.org/2000/svg"
   xmlns:xlink="http://www.w3.org/1999/xlink"
   xmlns:sodipodi="http://sodipodi.sourceforge.net/DTD/sodipodi-0.dtd"
   xmlns:inkscape="http://www.inkscape.org/namespaces/inkscape"
   width="64"
   height="64"
   viewBox="0 0 16.933333 16.933334"
   version="1.1"
   id="svg8"
   inkscape:version="1.0.2 (e86c870879, 2021-01-15)"
   sodipodi:docname="2048.svg">
  <defs
     id="defs2">
    <linearGradient
       inkscape:collect="always"
       id="linearGradient989">
      <stop
         style="stop-color:#dee1e6;stop-opacity:1"
         offset="0"
         id="stop985" />
      <stop
         style="stop-color:#f2f5fa;stop-opacity:1"
         offset="1"
         id="stop987" />
    </linearGradient>
    <style
       type="text/css"
       id="style835" />
    <style
       type="text/css"
       id="style837" />
    <style
       type="text/css"
       id="style839" />
    <style
       type="text/css"
       id="style841" />
    <style
       type="text/css"
       id="style843" />
    <style
       type="text/css"
       id="style845" />
    <style
       type="text/css"
       id="style847" />
    <style
       type="text/css"
       id="style849" />
    <style
       type="text/css"
       id="style851" />
    <filter
       id="filter11290"
       x="-.024"
       y="-.024"
       width="1.048"
       height="1.048"
       color-interpolation-filters="sRGB">
      <feGaussianBlur
         stdDeviation="0.15875313"
         id="feGaussianBlur853" />
    </filter>
    <linearGradient
       id="linearGradient1005"
       x1=".8714"
       x2="16.246"
       y1="16.164"
       y2=".78937"
       gradientTransform="matrix(1.0000192,0,0,1.0000192,17.174696,0.10409129)"
       gradientUnits="userSpaceOnUse">
      <stop
         stop-color="#00c8ff"
         offset="0"
         id="stop856" />
      <stop
         stop-color="#14a0ff"
         offset="1"
         id="stop858" />
    </linearGradient>
    <linearGradient
       inkscape:collect="always"
       xlink:href="#linearGradient989"
       id="linearGradient991"
       x1="0.75633472"
       y1="16.150034"
       x2="16.384806"
       y2="0.73200572"
       gradientUnits="userSpaceOnUse" />
    <linearGradient
       id="linearGradient1548"
       x1="0.73910999"
       x2="16.388"
       y1="16.296"
       y2="0.64687002"
       gradientTransform="matrix(0.66667062,0,0,0.66667062,2.7987356,2.8268616)"
       gradientUnits="userSpaceOnUse">
      <stop
         stop-color="#e1e1e1"
         offset="0"
         id="stop161" />
      <stop
         stop-color="#ebebeb"
         offset="1"
         id="stop163" />
    </linearGradient>
    <linearGradient
       id="linearGradient4147"
       x1="5.0250001"
       x2="31"
       y1="31"
       y2="5.0251999"
       gradientTransform="matrix(3.7796,0,0,3.7796,-0.13195,0.024566)"
       gradientUnits="userSpaceOnUse">
      <stop
         stop-color="#ff8228"
         offset="0"
         id="stop10" />
      <stop
         stop-color="#ff5a1e"
         offset=".48355"
         id="stop12" />
      <stop
         stop-color="#ff8c55"
         offset="1"
         id="stop14" />
    </linearGradient>
    <linearGradient
       id="linearGradient4255"
       x1="33"
       x2="58.974998"
       y1="58.974998"
       y2="33"
       gradientTransform="translate(-0.0080452,-5.0139e-5)"
       gradientUnits="userSpaceOnUse">
      <stop
         stop-color="#00c8ff"
         offset="0"
         id="stop30" />
      <stop
         stop-color="#14a0ff"
         offset="1"
         id="stop32" />
    </linearGradient>
    <linearGradient
       id="linearGradient4155"
       x1="5.2965999"
       x2="31"
       y1="59.004002"
       y2="33"
       gradientTransform="matrix(3.7796,0,0,3.7796,-0.13249,0.024378)"
       gradientUnits="userSpaceOnUse">
      <stop
         stop-color="#00dc96"
         offset="0"
         id="stop17" />
      <stop
         stop-color="#14d29b"
         offset="1"
         id="stop19" />
    </linearGradient>
  </defs>
  <sodipodi:namedview
     id="base"
     pagecolor="#ffffff"
     bordercolor="#666666"
     borderopacity="1.0"
     inkscape:pageopacity="0.0"
     inkscape:pageshadow="2"
     inkscape:zoom="5.6"
     inkscape:cx="10.595225"
     inkscape:cy="39.854877"
     inkscape:document-units="mm"
     inkscape:current-layer="layer1"
     inkscape:document-rotation="0"
     showgrid="false"
     units="px"
     inkscape:window-width="1920"
     inkscape:window-height="992"
     inkscape:window-x="0"
     inkscape:window-y="0"
     inkscape:window-maximized="1" />
  <metadata
     id="metadata5">
    <rdf:RDF>
      <cc:Work
         rdf:about="">
        <dc:format>image/svg+xml</dc:format>
        <dc:type
           rdf:resource="http://purl.org/dc/dcmitype/StillImage" />
        <dc:title></dc:title>
      </cc:Work>
    </rdf:RDF>
  </metadata>
  <g
     inkscape:label="图层 1"
     inkscape:groupmode="layer"
     id="layer1">
    <circle
       transform="matrix(1.0000192,0,0,1.0000192,-0.02719652,0.00650478)"
       cx="8.4937"
       cy="8.46"
       r="7.9376998"
       filter="url(#filter11290)"
       opacity="0.25"
       stroke-width="0.14032"
       id="circle863" />
    <circle
       cx="-297.60333"
       cy="-338.48148"
       r="0"
       fill="#5e4aa6"
       id="circle867"
       style="stroke-width:0.264583" />
    <g
       transform="matrix(1.0000192,0,0,1.0000192,32.763354,-10.10285)"
       fill="#5e4aa6"
       stroke-width="0.26458"
       id="g877">
      <circle
         cx="-299.01999"
         cy="-338.76999"
         r="0"
         id="circle869" />
      <circle
         cx="-8.1062002"
         cy="-3.9487"
         r="0"
         fill-rule="evenodd"
         id="circle871" />
      <circle
         cx="-278.25"
         cy="-357.69"
         r="0"
         id="circle873" />
      <circle
         cx="12.663"
         cy="-22.858999"
         r="0"
         fill-rule="evenodd"
         id="circle875" />
    </g>
    <g
       fill="#5e4aa6"
       id="g911"
       transform="scale(0.26458333)">
      <circle
         cx="-1050.3"
         cy="-1279.3"
         r="0"
         id="circle889" />
      <g
         transform="matrix(3.7796,0,0,3.7796,198.32,-38.184)"
         stroke-width="0.26458"
         id="g899">
        <circle
           cx="-299.01999"
           cy="-338.76999"
           r="0"
           id="circle891" />
        <circle
           cx="-8.1062002"
           cy="-3.9487"
           r="0"
           fill-rule="evenodd"
           id="circle893" />
        <circle
           cx="-278.25"
           cy="-357.69"
           r="0"
           id="circle895" />
        <circle
           cx="12.663"
           cy="-22.858999"
           r="0"
           fill-rule="evenodd"
           id="circle897" />
      </g>
      <g
         transform="matrix(3.7796,0,0,3.7796,74.386,0.024585)"
         stroke-width="0.26458"
         id="g909">
        <circle
           cx="-330.35001"
           cy="-328.38"
           r="0"
           id="circle901" />
        <circle
           cx="-312.10999"
           cy="-326.25"
           r="0"
           id="circle903" />
        <circle
           cx="-306.01999"
           cy="-333.07001"
           r="0"
           id="circle905" />
        <circle
           cx="-308.84"
           cy="-326.01001"
           r="0"
           id="circle907" />
      </g>
    </g>
    <circle
       style="fill:url(#linearGradient991);stroke-width:0.337072;stroke-linecap:round;stroke-linejoin:round;paint-order:stroke fill markers;fill-opacity:1"
       id="path983"
       cx="8.4666662"
       cy="8.4666662"
       r="7.9375" />
    <g
       transform="matrix(0.26458333,0,0,0.26458333,-0.80039092,0.26468927)"
       id="g73">
      <g
         transform="translate(3.0251,-1.0005)"
         stroke-width="0.53072"
         id="g63">
        <path
           d="M 31,5.0252 C 16.842,5.53633 5.537,16.8412 5.025,31.0002 H 31 Z"
           enable-background="new"
           fill="url(#linearGradient4147)"
           id="path57"
           style="fill:url(#linearGradient4147)" />
        <path
           d="M 33,33 V 58.975 C 47.158,58.46388 58.463,47.159 58.975,33 Z"
           enable-background="new"
           fill="url(#linearGradient4255)"
           id="path59"
           style="fill:url(#linearGradient4255)" />
        <path
           d="m 5.0254,33 c 0.51113,14.158 11.816,25.463 25.975,25.975 V 33 Z"
           enable-background="new"
           fill="url(#linearGradient4155)"
           id="path61"
           style="fill:url(#linearGradient4155)" />
      </g>
      <g
         transform="translate(3.0251,-1.0005)"
         fill="#ffffff"
         id="g71">
        <path
           d="m 21.69,23.869 c 1.9319,-1.3779 3.0398,-2.9688 3.0398,-4.7016 0,-1.9887 -1.4205,-3.1677 -3.8068,-3.1677 -1.2074,0 -2.3722,0.2983 -3.395,0.85229 l 0.55398,1.8608 c 0.93751,-0.42614 1.6478,-0.61082 2.3296,-0.61082 1.1222,0 1.7614,0.49718 1.7614,1.3921 0,1.1364 -0.99435,2.4006 -4.2755,4.9573 v 1.5483 h 7.1023 v -2.1307 z"
           enable-background="new"
           stroke-width="0.38045px"
           style="font-variant-ligatures:normal;font-variant-caps:normal;font-variant-numeric:normal;font-feature-settings:normal"
           id="path65" />
        <path
           d="m 44.938,42.608 c 0.9804,-0.50419 1.5126,-1.2605 1.5126,-2.1568 0,-1.4706 -1.4146,-2.451 -3.5014,-2.451 -2.2129,0 -3.6835,1.1905 -3.6835,2.9692 0,1.0784 0.54621,1.7227 1.2885,2.1709 -0.9944,0.42017 -1.5546,1.1765 -1.5546,2.1289 0,1.6387 1.5406,2.7311 3.8517,2.7311 2.353,0 3.9215,-1.2045 3.9215,-3.0252 0,-1.2745 -0.84034,-1.9328 -1.8347,-2.3669 z m -2.0728,-2.535 c 0.65825,0 1.0925,0.32213 1.0925,0.82634 0,0.50419 -0.36414,0.91037 -0.92436,1.0504 -0.72829,-0.2661 -1.2745,-0.54621 -1.2745,-1.0644 0,-0.4902 0.43416,-0.81231 1.1064,-0.81231 z m 0.11204,5.8544 c -0.89634,0 -1.4846,-0.43416 -1.4846,-1.0784 0,-0.46218 0.29412,-0.82634 0.79832,-0.9944 1.0504,0.33613 1.9888,0.58822 1.9888,1.2465 0,0.4902 -0.53221,0.82634 -1.3025,0.82634 z"
           enable-background="new"
           stroke-width="0.37512px"
           style="font-variant-ligatures:normal;font-variant-caps:normal;font-variant-numeric:normal;font-feature-settings:normal"
           id="path67" />
        <path
           d="m 25,43.908 h -1.3448 v -5.9084 h -2.3748 l -4.621,5.9084 v 2.1459 h 4.5064 v 1.9456 h 2.4893 v -1.9456 h 1.3448 z m -6.0801,-0.02862 2.2461,-2.9328 v 2.9471 z"
           enable-background="new"
           stroke-width="0.38317px"
           style="font-variant-ligatures:normal;font-variant-caps:normal;font-variant-numeric:normal;font-feature-settings:normal"
           id="path69" />
      </g>
    </g>
  </g>
</svg>
