<?xml version="1.0" encoding="UTF-8"?>
<svg width="64" height="64" version="1.1" viewBox="0 0 16.933 16.933" xmlns="http://www.w3.org/2000/svg" xmlns:cc="http://creativecommons.org/ns#" xmlns:dc="http://purl.org/dc/elements/1.1/" xmlns:rdf="http://www.w3.org/1999/02/22-rdf-syntax-ns#" xmlns:xlink="http://www.w3.org/1999/xlink">
 <defs>
  <style type="text/css"/>
  <style type="text/css"/>
  <style type="text/css"/>
  <style type="text/css"/>
  <style type="text/css"/>
  <style type="text/css"/>
  <style type="text/css"/>
  <style type="text/css"/>
  <style type="text/css"/>
  <filter id="filter11290" x="-.024" y="-.024" width="1.048" height="1.048" color-interpolation-filters="sRGB">
   <feGaussianBlur stdDeviation="0.15875313"/>
  </filter>
  <linearGradient id="linearGradient991" x1=".75633" x2="13.369" y1="16.15" y2="3.5371" gradientUnits="userSpaceOnUse">
   <stop stop-color="#ff7d1e" offset="0"/>
   <stop stop-color="#ffa53c" offset="1"/>
  </linearGradient>
  <linearGradient id="linearGradient16301" x1="9.807" x2="9.807" y1="9.0494" y2="15.409" gradientUnits="userSpaceOnUse">
   <stop stop-color="#ffc99d" offset="0"/>
   <stop stop-color="#feb370" offset="1"/>
  </linearGradient>
  <linearGradient id="linearGradient32544" x1="4.353" x2="4.353" y1="9.1275" y2="15.52" gradientUnits="userSpaceOnUse">
   <stop stop-color="#ffd6b7" offset="0"/>
   <stop stop-color="#fec99e" offset="1"/>
  </linearGradient>
  <linearGradient id="linearGradient40207" x1="6.6526" x2="6.6526" y1="2.0489" y2="7.8696" gradientUnits="userSpaceOnUse">
   <stop stop-color="#fffdfb" offset="0"/>
   <stop stop-color="#ffebdc" offset="1"/>
  </linearGradient>
  <linearGradient id="linearGradient51522" x1="10.25" x2="10.25" y1="1.6336" y2="7.726" gradientUnits="userSpaceOnUse">
   <stop stop-color="#ffeadb" offset="0"/>
   <stop stop-color="#ffe2cb" offset="1"/>
  </linearGradient>
 </defs>
 <metadata>
  <rdf:RDF>
   <cc:Work rdf:about="">
    <dc:format>image/svg+xml</dc:format>
    <dc:type rdf:resource="http://purl.org/dc/dcmitype/StillImage"/>
   </cc:Work>
  </rdf:RDF>
 </metadata>
 <circle transform="matrix(1 0 0 1 -.027196 .0065042)" cx="8.4937" cy="8.46" r="7.9377" filter="url(#filter11290)" opacity=".25" stroke-width=".14032"/>
 <g fill="#5e4aa6">
  <circle cx="-297.6" cy="-338.48" r="0" stroke-width=".26458"/>
  <g transform="matrix(1 0 0 1 32.763 -10.103)" stroke-width=".26458">
   <circle cx="-299.02" cy="-338.77" r="0"/>
   <circle cx="-8.1062" cy="-3.9487" r="0" fill-rule="evenodd"/>
   <circle cx="-278.25" cy="-357.69" r="0"/>
   <circle cx="12.663" cy="-22.859" r="0" fill-rule="evenodd"/>
  </g>
  <g transform="scale(.26458)">
   <circle cx="-1050.3" cy="-1279.3" r="0"/>
   <g transform="matrix(3.7796,0,0,3.7796,198.32,-38.184)" stroke-width=".26458">
    <circle cx="-299.02" cy="-338.77" r="0"/>
    <circle cx="-8.1062" cy="-3.9487" r="0" fill-rule="evenodd"/>
    <circle cx="-278.25" cy="-357.69" r="0"/>
    <circle cx="12.663" cy="-22.859" r="0" fill-rule="evenodd"/>
   </g>
   <g transform="matrix(3.7796 0 0 3.7796 74.386 .024585)" stroke-width=".26458">
    <circle cx="-330.35" cy="-328.38" r="0"/>
    <circle cx="-312.11" cy="-326.25" r="0"/>
    <circle cx="-306.02" cy="-333.07" r="0"/>
    <circle cx="-308.84" cy="-326.01" r="0"/>
   </g>
  </g>
 </g>
 <g>
  <circle cx="8.4667" cy="8.4667" r="7.9375" fill="url(#linearGradient991)" stroke-linecap="round" stroke-linejoin="round" stroke-width=".33707" style="paint-order:stroke fill markers"/>
  <g stroke-width=".14042">
   <path d="m8.2021 1.3296c-3.746 0.13524-6.7371 3.1263-6.8726 6.8726h6.8726z" enable-background="new" fill="url(#linearGradient40207)"/>
   <path d="m8.7312 8.7312v6.8726c3.746-0.13523 6.7371-3.1263 6.8726-6.8726z" enable-background="new" fill="url(#linearGradient16301)"/>
   <path d="m1.3296 8.7312c0.13524 3.746 3.1263 6.7371 6.8726 6.8726v-6.8726z" enable-background="new" fill="url(#linearGradient32544)"/>
   <path d="m8.7311 8.2021v-6.8726c3.746 0.13523 6.7371 3.1263 6.8726 6.8726z" enable-background="new" fill="url(#linearGradient51522)"/>
  </g>
 </g>
 <g transform="translate(.062436 .080041)">
  <text x="4.5522866" y="6.7749414" fill="#fa863f" font-family="sans-serif" font-size="3.9099px" stroke-width=".097745" style="line-height:1.25" xml:space="preserve"><tspan x="4.5522866" y="6.7749414" fill="#fa863f" stroke-width=".097745">2</tspan></text>
  <path d="m5.5755 3.9495c-0.29527 0-0.56548 0.10694-0.80985 0.32076l0.033106 0.037939c0.23573-0.19538 0.49446-0.29593 0.77672-0.29593 0.24436 0 0.43759 0.066303 0.58014 0.19866 0.13359 0.12405 0.202 0.29005 0.21039 0.4946 1.996e-4 -0.0076 0.00345-0.015159 0.00345-0.022763 0-0.224-0.071289-0.40224-0.21384-0.53461-0.14256-0.13237-0.33578-0.19867-0.58014-0.19867zm0.43872 0.78293c-0.0054213 0.13007-0.03737 0.25653-0.10278 0.37801-0.061087 0.13237-0.22934 0.34625-0.50424 0.64152l-0.67186 0.71738v0.063463l0.67186-0.71809c0.27491-0.29527 0.44317-0.50915 0.50424-0.64152 0.071277-0.13237 0.10692-0.26996 0.10692-0.41252 0-0.010534-0.0037-0.018086-0.00419-0.028283zm-0.80639 1.7218-0.044836 0.047595v0.015176h1.3134v-0.062772z" fill="#b26434" stroke-width=".35318"/>
  <g transform="matrix(1.3349 0 0 1.3349 26.135 3.9419)">
   <text x="-11.901725" y="2.1166246" fill="#fa863f" font-family="sans-serif" font-size="2.929px" stroke-width=".073224" style="line-height:1.25" xml:space="preserve"><tspan x="-11.901725" y="2.1166246" fill="#fa863f" stroke-width=".073224">0</tspan></text>
   <path transform="scale(.26458)" d="m-41.957-0.042969c-0.83604 0-1.4699 0.34522-1.9023 1.0371-0.4036 0.66306-0.60547 1.6724-0.60547 3.0273 0 0.048498 0.0053 0.089071 0.0059 0.13672 0.01398-1.2823 0.21051-2.2514 0.59961-2.8906 0.43243-0.69189 1.0663-1.0391 1.9023-1.0391 0.86486 1e-8 1.4987 0.34717 1.9023 1.0391 0.41689 0.63923 0.6276 1.6083 0.64258 2.8906 5.54e-4 -0.047645 0.0059-0.088225 0.0059-0.13672 0-1.355-0.216-2.3643-0.64844-3.0273-0.4036-0.69189-1.0375-1.0371-1.9023-1.0371zm-1.5098 4.2031c-4.02e-4 0.047568-0.0039 0.085945-0.0039 0.13477 0 1.2685 0.12921 2.1325 0.38867 2.5938 0.28829 0.43243 0.66374 0.64844 1.125 0.64844 0.49009 0 0.86554-0.23015 1.125-0.69141 0.28829-0.46126 0.43164-1.3111 0.43164-2.5508 0-0.048681-0.0034-0.087297-0.0039-0.13477-0.01118 1.1593-0.1511 1.9695-0.42773 2.4121-0.25946 0.46126-0.63491 0.69336-1.125 0.69336-0.46126 0-0.83671-0.21601-1.125-0.64844-0.24918-0.44299-0.37489-1.2695-0.38477-2.457z" fill="#b26434"/>
  </g>
  <g transform="matrix(1.3349 0 0 1.3349 26.789 -10.14)">
   <text x="-16.664131" y="17.197578" fill="#fa863f" font-family="sans-serif" font-size="2.929px" stroke-width=".073224" style="line-height:1.25" xml:space="preserve"><tspan x="-16.664131" y="17.197578" fill="#fa863f" stroke-width=".073224">4</tspan></text>
   <path transform="scale(.26458)" d="m-59.266 57.043-3.5879 5.3184v0.1875l3.5879-5.3184h0.99609v-0.1875zm0.125 1.2246c-0.04886 0.8281-0.08008 1.5646-0.08008 2.1484v0.1875c0-0.63423 0.02828-1.4134 0.08594-2.3359zm-2.6328 4.0508-0.12891 0.1875h2.6816v-0.1875zm3.5039 0v0.1875h1.166v-0.1875z" fill="#c96c33"/>
  </g>
  <g transform="matrix(1.3349 0 0 1.3349 26.135 -10.141)">
   <text x="-11.901725" y="17.197578" fill="#fa863f" font-family="sans-serif" font-size="2.929px" stroke-width=".073224" style="line-height:1.25" xml:space="preserve"><tspan x="-11.901725" y="17.197578" fill="#fa863f" stroke-width=".073224">8</tspan></text>
   <path transform="scale(.26458)" d="m-41.914 56.957c-0.69189 0-1.239 0.18773-1.6426 0.5625-0.4036 0.34595-0.60547 0.7921-0.60547 1.3398 0 0.032 0.01036 0.06025 0.01172 0.0918 0.03123-0.48583 0.22426-0.89033 0.59375-1.207 0.4036-0.37478 0.95069-0.5625 1.6426-0.5625 0.66306 0 1.196 0.18772 1.5996 0.5625 0.36845 0.31581 0.5597 0.71914 0.5918 1.2031 0.0013-0.03055 0.01367-0.05682 0.01367-0.08789 0-0.54775-0.20187-0.9939-0.60547-1.3398-0.4036-0.37477-0.93655-0.5625-1.5996-0.5625zm-1.2363 2.0527c-0.0029 0.04218-0.01758 0.07208-0.01758 0.11719 0 0.63423 0.41787 1.1389 1.2539 1.5137 0.83604-0.37478 1.2539-0.87944 1.2539-1.5137 0-0.04289-0.01651-0.07108-0.01953-0.11133-0.04918 0.57916-0.45081 1.0491-1.2344 1.4004-0.78635-0.3525-1.1896-0.82421-1.2363-1.4062zm2.1953 1.9102c-0.06358 0.03516-0.11117 0.07616-0.17969 0.10938 1.0689 0.57554 1.6231 1.244 1.6758 2.002 0.0016-0.03661 0.0098-0.07001 0.0098-0.10742 0-0.75813-0.5141-1.4238-1.5059-2.0039zm-2.0781 0.0293c-0.91406 0.4849-1.3887 1.1518-1.3887 2.0176 0 0.03648 0.0085 0.06791 0.0098 0.10352 0.04467-0.86232 0.55582-1.5281 1.5469-1.9961-0.06431-0.03859-0.10844-0.08482-0.16797-0.125zm2.6211 2.1738c-0.02884 0.35492-0.15054 0.63859-0.37695 0.83984-0.25946 0.23063-0.64905 0.3457-1.168 0.3457-0.49009 0-0.86554-0.10093-1.125-0.30274-0.2078-0.2078-0.30755-0.50924-0.32812-0.88086-0.0024 0.03826-0.01758 0.0722-0.01758 0.11133 0 0.43243 0.11507 0.76351 0.3457 0.99414 0.25946 0.2018 0.63491 0.30273 1.125 0.30273 0.51892 0 0.90851-0.11507 1.168-0.3457 0.25946-0.23063 0.38867-0.56366 0.38867-0.99609 0-0.02445-0.01052-0.04443-0.01172-0.06836z" fill="#c3662e"/>
  </g>
 </g>
</svg>
