<?xml version="1.0" encoding="UTF-8"?>
<svg width="64px" height="64px" version="1.1" viewBox="0 0 64 64" xmlns="http://www.w3.org/2000/svg" xmlns:cc="http://creativecommons.org/ns#" xmlns:dc="http://purl.org/dc/elements/1.1/" xmlns:rdf="http://www.w3.org/1999/02/22-rdf-syntax-ns#">
 <metadata>
  <rdf:RDF>
   <cc:Work rdf:about="">
    <dc:format>image/svg+xml</dc:format>
    <dc:type rdf:resource="http://purl.org/dc/dcmitype/StillImage"/>
    <dc:title/>
   </cc:Work>
  </rdf:RDF>
 </metadata>
 <defs>
  <style type="text/css"/>
  <style type="text/css"/>
  <style type="text/css"/>
  <style type="text/css"/>
  <style type="text/css"/>
  <style type="text/css"/>
  <style type="text/css"/>
  <style type="text/css"/>
  <style type="text/css"/>
  <style type="text/css"/>
  <filter id="filter11290" x="-.024" y="-.024" width="1.048" height="1.048" color-interpolation-filters="sRGB">
   <feGaussianBlur stdDeviation="0.15875313"/>
  </filter>
  <linearGradient id="linearGradient1005" x1=".73911" x2="16.388" y1="16.296" y2=".64687" gradientTransform="matrix(3.7796 0 0 3.7796 -.13309 .024828)" gradientUnits="userSpaceOnUse">
   <stop stop-color="#eb3f78" offset="0"/>
   <stop stop-color="#ec497e" offset="1"/>
  </linearGradient>
  <style type="text/css"/>
  <style type="text/css"/>
  <style type="text/css"/>
 </defs>
 <g fill="#5e4aa6">
  <circle cx="-1248.7" cy="-1241.6" r="0"/>
  <circle cx="-149.15" cy="23.855" r="0" fill-rule="evenodd"/>
  <circle cx="-1248.7" cy="-1241.6" r="0"/>
  <circle cx="-149.15" cy="23.855" r="0" fill-rule="evenodd"/>
  <circle cx="-1150.9" cy="-1256.6" r="0"/>
  <circle cx="-51.327" cy="8.8744" r="0" fill-rule="evenodd"/>
  <g transform="matrix(3.7796,0,0,3.7796,167.86,4.61)" stroke-width=".26458">
   <g transform="translate(-.0272 .0065001)">
    <circle cx="-330.35" cy="-328.38" r="0"/>
    <circle cx="-312.11" cy="-326.25" r="0"/>
    <circle cx="-306.02" cy="-333.07" r="0"/>
    <circle cx="-308.84" cy="-326.01" r="0"/>
    <circle cx="-330.35" cy="-328.38" r="0"/>
    <circle cx="-312.11" cy="-326.25" r="0"/>
    <circle cx="-306.02" cy="-333.07" r="0"/>
    <circle cx="-308.84" cy="-326.01" r="0"/>
   </g>
   <g transform="translate(-.02705 .0064503)">
    <circle cx="-330.35" cy="-328.38" r="0"/>
    <circle cx="-312.11" cy="-326.25" r="0"/>
    <circle cx="-306.02" cy="-333.07" r="0"/>
    <circle cx="-308.84" cy="-326.01" r="0"/>
   </g>
  </g>
  <circle cx="-1248.7" cy="-1241.6" r="0"/>
  <circle cx="-149.15" cy="23.855" r="0" fill-rule="evenodd"/>
  <circle cx="-1248.7" cy="-1241.6" r="0"/>
  <circle cx="-149.15" cy="23.855" r="0" fill-rule="evenodd"/>
  <circle cx="-1150.9" cy="-1256.6" r="0"/>
  <circle cx="-51.327" cy="8.8744" r="0" fill-rule="evenodd"/>
  <g transform="matrix(3.7796,0,0,3.7796,167.86,4.61)" stroke-width=".26458">
   <g transform="translate(-.0272 .0065001)">
    <circle cx="-330.35" cy="-328.38" r="0"/>
    <circle cx="-312.11" cy="-326.25" r="0"/>
    <circle cx="-306.02" cy="-333.07" r="0"/>
    <circle cx="-308.84" cy="-326.01" r="0"/>
    <circle cx="-330.35" cy="-328.38" r="0"/>
    <circle cx="-312.11" cy="-326.25" r="0"/>
    <circle cx="-306.02" cy="-333.07" r="0"/>
    <circle cx="-308.84" cy="-326.01" r="0"/>
   </g>
   <g transform="translate(-.02705 .0064503)">
    <circle cx="-330.35" cy="-328.38" r="0"/>
    <circle cx="-312.11" cy="-326.25" r="0"/>
    <circle cx="-306.02" cy="-333.07" r="0"/>
    <circle cx="-308.84" cy="-326.01" r="0"/>
   </g>
  </g>
 </g>
 <g transform="translate(-168.12,-62.045)" fill="#5e4aa6">
  <circle cx="-1248.7" cy="-1241.6" r="0"/>
  <circle cx="-149.15" cy="23.855" r="0" fill-rule="evenodd"/>
  <circle cx="-1150.9" cy="-1256.6" r="0"/>
  <circle cx="-51.327" cy="8.8744" r="0" fill-rule="evenodd"/>
  <g transform="matrix(3.7796 0 0 3.7796 -.10224 .02438)" stroke-width=".26458">
   <circle cx="-330.35" cy="-328.38" r="0"/>
   <circle cx="-312.11" cy="-326.25" r="0"/>
   <circle cx="-306.02" cy="-333.07" r="0"/>
   <circle cx="-308.84" cy="-326.01" r="0"/>
  </g>
 </g>
 <circle transform="matrix(3.7796,0,0,3.7796,1.6204e-5,1.6204e-5)" cx="8.4665" cy="8.4665" r="7.9377" filter="url(#filter11290)" opacity=".25" stroke-width=".14032"/>
 <path d="m62 32c0 3.5964-0.63304 7.0448-1.794 10.24-0.80698 2.2212-1.8686 4.3212-3.1519 6.2636-0.53754 0.8167-1.1155 1.6054-1.729 2.3633-1.9641 2.4257-4.2982 4.5382-6.9186 6.2526-0.96493 0.63187-1.9678 1.2099-3.0061 1.7277-4.0321 2.0179-8.5839 3.153-13.401 3.153s-9.3689-1.1351-13.401-3.1531c-1.0384-0.518-2.0425-1.096-3.0074-1.7277-2.6535-1.7376-5.0155-3.8832-6.9957-6.349-0.61468-0.76408-1.1915-1.56-1.729-2.3841-1.249-1.9102-2.2837-3.9712-3.0747-6.1494-1.1608-3.1949-1.7927-6.6419-1.7927-10.237 0-16.569 13.432-30.001 30.001-30.001 8.317 0 15.843 3.3846 21.277 8.8507 1.5661 1.5747 2.9584 3.3234 4.1436 5.214 1.1205 1.7805 2.0572 3.6882 2.7857 5.6951 1.161 3.196 1.7941 6.6442 1.7941 10.24z" fill="url(#linearGradient1005)" stroke-width=".11719"/>
 <g transform="matrix(3.7796,0,0,3.7796,-168.23,-62.021)" fill="#5e4aa6" stroke-width=".26458">
  <circle cx="-330.35" cy="-328.38" r="0"/>
  <circle cx="-312.11" cy="-326.25" r="0"/>
  <circle cx="-306.02" cy="-333.07" r="0"/>
  <circle cx="-308.84" cy="-326.01" r="0"/>
 </g>
 <g transform="translate(-285.54,-103.27)" fill="#5e4aa6">
  <circle cx="-1248.7" cy="-1241.6" r="0"/>
  <circle cx="-149.15" cy="23.855" r="0" fill-rule="evenodd"/>
  <circle cx="-1150.9" cy="-1256.6" r="0"/>
  <circle cx="-51.327" cy="8.8744" r="0" fill-rule="evenodd"/>
  <g transform="matrix(3.7796,0,0,3.7796,167.86,4.61)" stroke-width=".26458">
   <g transform="translate(-.0272 .0065001)">
    <circle cx="-330.35" cy="-328.38" r="0"/>
    <circle cx="-312.11" cy="-326.25" r="0"/>
    <circle cx="-306.02" cy="-333.07" r="0"/>
    <circle cx="-308.84" cy="-326.01" r="0"/>
    <circle cx="-330.35" cy="-328.38" r="0"/>
    <circle cx="-312.11" cy="-326.25" r="0"/>
    <circle cx="-306.02" cy="-333.07" r="0"/>
    <circle cx="-308.84" cy="-326.01" r="0"/>
   </g>
   <g transform="translate(-.02705 .0064503)">
    <circle cx="-330.35" cy="-328.38" r="0"/>
    <circle cx="-312.11" cy="-326.25" r="0"/>
    <circle cx="-306.02" cy="-333.07" r="0"/>
    <circle cx="-308.84" cy="-326.01" r="0"/>
   </g>
  </g>
 </g>
 <path d="m31.922 2c-4.2353 0.010865-8.2617 0.90421-11.912 2.498l-6.3457 25.656h29.633l5.6641-22.9c-4.8057-3.3002-10.62-5.2386-16.887-5.2539h-0.15234zm20.568 8.0938-4.9629 20.061h14.41c-0.17815-2.9308-0.76974-5.7518-1.7305-8.3965-0.7285-2.0069-1.6666-3.9129-2.7871-5.6934-1.1852-1.8906-2.5765-3.6401-4.1426-5.2148-0.2565-0.25802-0.52142-0.50726-0.78711-0.75586zm-39.875 24.297-4.043 16.35c0.0078239 0.009751 0.015601 0.019556 0.023438 0.029297 1.9802 2.4658 4.3426 4.612 6.9961 6.3496 0.9649 0.6317 1.9675 1.2105 3.0059 1.7285 4.0321 2.018 8.5852 3.1523 13.402 3.1523 1.175 0 2.333-0.069769 3.4727-0.20117l6.7754-27.408h-29.633zm33.869 0-6.5664 26.541c1.9087-0.5214 3.7462-1.2151 5.4824-2.084 1.0383-0.5178 2.0409-1.0966 3.0059-1.7285 2.6204-1.7144 4.9539-3.8263 6.918-6.252 0.6135-0.7579 1.1929-1.5466 1.7305-2.3633 1.2833-1.9424 2.3434-4.0425 3.1504-6.2637 0.90106-2.4799 1.4794-5.1138 1.6953-7.8496h-15.416z" fill="#f06191" stroke-width="1.0909"/>
 <path d="m4.3496 20.344c-0.184 0.43594-0.35779 0.87805-0.52148 1.3242h56.344c-0.16391-0.447-0.33912-0.88744-0.52344-1.3242h-55.299z" fill="#ab1157"/>
 <g transform="translate(-61.425 .8872)">
  <path d="m80.502 26.957c-9.4609 0-17.078 7.6172-17.078 17.078 0 9.4609 7.6172 17.078 17.078 17.078s17.078-7.6172 17.078-17.078c0-9.4609-7.6172-17.078-17.078-17.078zm0 12.422c2.582 0 4.6562 2.0781 4.6562 4.6562 0 2.582-2.0742 4.6602-4.6562 4.6602s-4.6562-2.0781-4.6562-4.6602c0-2.5781 2.0742-4.6562 4.6562-4.6562z" fill="#dedede"/>
  <path d="m80.502 28.281c-8.7266 0-15.754 7.0273-15.754 15.754 0 8.7305 7.0274 15.754 15.754 15.754s15.754-7.0234 15.754-15.754c0-8.7266-7.0273-15.754-15.754-15.754zm0 11.254c2.4922 0 4.5 2.0078 4.5 4.5 0 2.4961-2.0078 4.5039-4.5 4.5039s-4.5-2.0078-4.5-4.5039c0-2.4922 2.0078-4.5 4.5-4.5z" fill="#f5f5f5"/>
  <path d="m80.502 36.219c-4.332 0-7.8164 3.4883-7.8164 7.8164 0 4.332 3.4844 7.8164 7.8164 7.8164s7.8164-3.4844 7.8164-7.8164c0-4.3281-3.4844-7.8164-7.8164-7.8164zm0 5.4727c1.3008 0 2.3438 1.0469 2.3438 2.3438 0 1.3008-1.043 2.3477-2.3438 2.3477s-2.3438-1.0469-2.3438-2.3477c0-1.2969 1.043-2.3438 2.3438-2.3438z" fill="#bdbdbd"/>
 </g>
</svg>
