<?xml version="1.0" encoding="UTF-8" standalone="no"?>
<svg
   xmlns:dc="http://purl.org/dc/elements/1.1/"
   xmlns:cc="http://creativecommons.org/ns#"
   xmlns:rdf="http://www.w3.org/1999/02/22-rdf-syntax-ns#"
   xmlns:svg="http://www.w3.org/2000/svg"
   xmlns="http://www.w3.org/2000/svg"
   xmlns:xlink="http://www.w3.org/1999/xlink"
   xmlns:sodipodi="http://sodipodi.sourceforge.net/DTD/sodipodi-0.dtd"
   xmlns:inkscape="http://www.inkscape.org/namespaces/inkscape"
   width="64"
   height="64"
   viewBox="0 0 16.933333 16.933334"
   version="1.1"
   id="svg8"
   inkscape:version="1.0.2 (e86c870879, 2021-01-15)"
   sodipodi:docname="7BD8_halo.0.svg">
  <defs
     id="defs2">
    <linearGradient
       inkscape:collect="always"
       id="linearGradient989">
      <stop
         style="stop-color:#32373c;stop-opacity:1"
         offset="0"
         id="stop985" />
      <stop
         style="stop-color:#46505a;stop-opacity:1"
         offset="1"
         id="stop987" />
    </linearGradient>
    <style
       type="text/css"
       id="style835" />
    <style
       type="text/css"
       id="style837" />
    <style
       type="text/css"
       id="style839" />
    <style
       type="text/css"
       id="style841" />
    <style
       type="text/css"
       id="style843" />
    <style
       type="text/css"
       id="style845" />
    <style
       type="text/css"
       id="style847" />
    <style
       type="text/css"
       id="style849" />
    <style
       type="text/css"
       id="style851" />
    <filter
       id="filter11290"
       x="-.024"
       y="-.024"
       width="1.048"
       height="1.048"
       color-interpolation-filters="sRGB">
      <feGaussianBlur
         stdDeviation="0.15875313"
         id="feGaussianBlur853" />
    </filter>
    <linearGradient
       id="linearGradient1005"
       x1=".8714"
       x2="16.246"
       y1="16.164"
       y2=".78937"
       gradientTransform="matrix(1.0000192,0,0,1.0000192,17.174696,0.10409129)"
       gradientUnits="userSpaceOnUse">
      <stop
         stop-color="#00c8ff"
         offset="0"
         id="stop856" />
      <stop
         stop-color="#14a0ff"
         offset="1"
         id="stop858" />
    </linearGradient>
    <linearGradient
       inkscape:collect="always"
       xlink:href="#linearGradient989"
       id="linearGradient991"
       x1="0.75633472"
       y1="16.150034"
       x2="16.384806"
       y2="0.73200572"
       gradientUnits="userSpaceOnUse" />
  </defs>
  <sodipodi:namedview
     id="base"
     pagecolor="#ffffff"
     bordercolor="#666666"
     borderopacity="1.0"
     inkscape:pageopacity="0.0"
     inkscape:pageshadow="2"
     inkscape:zoom="3.959798"
     inkscape:cx="-4.2633579"
     inkscape:cy="40.567995"
     inkscape:document-units="mm"
     inkscape:current-layer="layer1"
     inkscape:document-rotation="0"
     showgrid="false"
     units="px"
     inkscape:window-width="1920"
     inkscape:window-height="992"
     inkscape:window-x="0"
     inkscape:window-y="0"
     inkscape:window-maximized="1" />
  <metadata
     id="metadata5">
    <rdf:RDF>
      <cc:Work
         rdf:about="">
        <dc:format>image/svg+xml</dc:format>
        <dc:type
           rdf:resource="http://purl.org/dc/dcmitype/StillImage" />
        <dc:title></dc:title>
      </cc:Work>
    </rdf:RDF>
  </metadata>
  <g
     inkscape:label="图层 1"
     inkscape:groupmode="layer"
     id="layer1">
    <circle
       transform="matrix(1.0000192,0,0,1.0000192,-0.02719652,0.00650478)"
       cx="8.4937"
       cy="8.46"
       r="7.9376998"
       filter="url(#filter11290)"
       opacity="0.25"
       stroke-width="0.14032"
       id="circle863" />
    <circle
       cx="-297.60333"
       cy="-338.48148"
       r="0"
       fill="#5e4aa6"
       id="circle867"
       style="stroke-width:0.264583" />
    <g
       transform="matrix(1.0000192,0,0,1.0000192,32.763354,-10.10285)"
       fill="#5e4aa6"
       stroke-width="0.26458"
       id="g877">
      <circle
         cx="-299.01999"
         cy="-338.76999"
         r="0"
         id="circle869" />
      <circle
         cx="-8.1062002"
         cy="-3.9487"
         r="0"
         fill-rule="evenodd"
         id="circle871" />
      <circle
         cx="-278.25"
         cy="-357.69"
         r="0"
         id="circle873" />
      <circle
         cx="12.663"
         cy="-22.858999"
         r="0"
         fill-rule="evenodd"
         id="circle875" />
    </g>
    <g
       fill="#5e4aa6"
       id="g911"
       transform="scale(0.26458333)">
      <circle
         cx="-1050.3"
         cy="-1279.3"
         r="0"
         id="circle889" />
      <g
         transform="matrix(3.7796,0,0,3.7796,198.32,-38.184)"
         stroke-width="0.26458"
         id="g899">
        <circle
           cx="-299.01999"
           cy="-338.76999"
           r="0"
           id="circle891" />
        <circle
           cx="-8.1062002"
           cy="-3.9487"
           r="0"
           fill-rule="evenodd"
           id="circle893" />
        <circle
           cx="-278.25"
           cy="-357.69"
           r="0"
           id="circle895" />
        <circle
           cx="12.663"
           cy="-22.858999"
           r="0"
           fill-rule="evenodd"
           id="circle897" />
      </g>
      <g
         transform="matrix(3.7796,0,0,3.7796,74.386,0.024585)"
         stroke-width="0.26458"
         id="g909">
        <circle
           cx="-330.35001"
           cy="-328.38"
           r="0"
           id="circle901" />
        <circle
           cx="-312.10999"
           cy="-326.25"
           r="0"
           id="circle903" />
        <circle
           cx="-306.01999"
           cy="-333.07001"
           r="0"
           id="circle905" />
        <circle
           cx="-308.84"
           cy="-326.01001"
           r="0"
           id="circle907" />
      </g>
    </g>
    <circle
       style="fill:url(#linearGradient991);stroke-width:0.337072;stroke-linecap:round;stroke-linejoin:round;paint-order:stroke fill markers;fill-opacity:1"
       id="path983"
       cx="8.4666662"
       cy="8.4666662"
       r="7.9375" />
    <g
       transform="matrix(0.26458333,0,0,0.26458333,0.18321083,0.18018135)"
       id="g493">
      <path
         d="m 20.923,32.692 c 2.2691,-4.1538 1.3846,-8.1604 1.3846,-12.462 l 14.066,-2.1636 2.5498,3.5482 -2.7692,2.7692 H 33.385 c -1.3846,0 -2.7692,0 -2.7692,2.7692 0,4.3858 -2.7692,8.3077 -4.1538,12.729 l -5.5385,-4.4218 z"
         fill="#20242d"
         fill-opacity="0.99608"
         fill-rule="evenodd"
         stroke-width="1.3846"
         id="path465" />
      <circle
         cx="34.077"
         cy="22.308001"
         r="0.69230998"
         fill="#a11919"
         stroke-width="1.3846"
         style="paint-order:normal"
         id="circle467" />
      <g
         transform="matrix(1.3846,0,0,1.3846,-1.2308,-3.3078)"
         fill="#333333"
         fill-rule="evenodd"
         id="g473">
        <path
           d="m 21,23 -2,6 v 3 l 3,-9 v -6 h -1 z"
           id="path469" />
        <path
           d="m 18,23 -1,3 v 3 l 2,-6 v -6 h -1 z"
           id="path471" />
      </g>
      <g
         fill-rule="evenodd"
         stroke-width="1.3846"
         id="g491">
        <path
           d="m 36.935,18.849 c -2.1421,0.0018 -4.1266,0.01839 -5.963,0.04868 l -8.6646,1.3332 c 0,1.3138 0.07714,2.5985 0.12711,3.8699 2.5244,-1.0957 7.5322,-1.1007 9.5652,-1.1007 l 1.3846,-1.3846 c 3.0974,0 4.4338,0.01865 5.0354,0.503 l 0.503,-0.503 -1.9876,-2.7665 z"
           opacity="0.1"
           id="path475" />
        <path
           d="m 19.538,27.154 -5.5385,1.3846 c 2.0251,10.184 14.641,16.59 21.55,16.615 l 3.3726,-2.7692 -1.3846,-5.5385 c -6.9231,0 -16.068,-1.3846 -18,-9.6923 z"
           fill="#fafafa"
           id="path477" />
        <path
           d="m 23.677,36.869 c -1.3846,0 -2.4238,1.4023 -2.9964,2.0985 4.7058,3.9355 10.771,6.1941 14.856,6.2092 l 0.08384,-0.07031 c -0.42937,-3.371 -1.2035,-1.4833 -6.4038,-4.0835 -2.7692,-1.3846 -2.7692,-4.1538 -5.5385,-4.1538 z"
           fill="#20242d"
           fill-opacity="0.99608"
           id="path479" />
        <path
           d="m 41.692,24.384 c 1.7711,7.8535 1.4221,7.5921 -1.3846,11.077 l 4.1538,2.7692 c 4.9262,-4.0958 4.1302,-7.4987 2.7692,-12.462 -1.4784,-2.1474 -3.4538,-2.0166 -5.5385,-1.3846 z"
           fill="#20242d"
           fill-opacity="0.99608"
           id="path481" />
        <path
           d="m 43.971,23.979 c -0.73058,0.0024 -1.498,0.16866 -2.2798,0.40565 0.04118,0.18262 0.06659,0.30737 0.10547,0.48138 0.50857,0.24876 0.85244,0.56454 1.2791,0.90324 l 4.4486,1.1115 c -0.0963,-0.36699 -0.18928,-0.7268 -0.29477,-1.1115 -0.92395,-1.3421 -2.0411,-1.7942 -3.2587,-1.7903 z"
           opacity="0.1"
           id="path483" />
        <path
           d="m 47.231,25.769 1.3846,-1.3846 c -0.68335,-2.9719 -6.5138,-5.5385 -11.077,-6.9231 -15.231,0 -23.538,0 -23.538,5.5385 l 5.5385,1.3846 c 0,-2.7692 8.3077,-2.7692 11.077,-2.7692 l 1.3846,-1.3846 c 5.5385,0 5.5385,0 5.5385,2.7692 2.7692,0 3.2361,0.6562 4.1538,1.3846"
           fill="#fafafa"
           id="path485" />
        <path
           d="m 15.385,23.346 v 0.69231 l 2.7692,0.69231 v -0.69231 z"
           fill="#4ae355"
           id="path487" />
        <path
           d="m 18.154,26.808 -2.7692,0.69231 v 0.69231 l 2.7692,-0.69231 z"
           fill="#4ae355"
           id="path489" />
      </g>
    </g>
  </g>
</svg>
