<?xml version="1.0" encoding="UTF-8"?>
<svg width="64" height="64" version="1.1" viewBox="0 0 16.933 16.933" xmlns="http://www.w3.org/2000/svg" xmlns:cc="http://creativecommons.org/ns#" xmlns:dc="http://purl.org/dc/elements/1.1/" xmlns:rdf="http://www.w3.org/1999/02/22-rdf-syntax-ns#">
 <metadata>
  <rdf:RDF>
   <cc:Work rdf:about="">
    <dc:format>image/svg+xml</dc:format>
    <dc:type rdf:resource="http://purl.org/dc/dcmitype/StillImage"/>
   </cc:Work>
  </rdf:RDF>
 </metadata>
 <defs>
  <filter id="filter11290" x="-.024" y="-.024" width="1.048" height="1.048" color-interpolation-filters="sRGB">
   <feGaussianBlur stdDeviation="0.15875313"/>
  </filter>
 </defs>
 <circle cx="8.4665" cy="8.4665" r="7.9377" filter="url(#filter11290)" opacity=".25" stroke-width=".14032"/>
 <path d="m16.412 8.4665c0 0.95154-0.16749 1.8639-0.47464 2.7094-0.21351 0.58768-0.49439 1.1433-0.83393 1.6572-0.14222 0.21608-0.29514 0.42475-0.45746 0.62529-0.51966 0.64179-1.1372 1.2007-1.8305 1.6543-0.2553 0.16718-0.52065 0.3201-0.79536 0.45712-1.0668 0.53389-2.2711 0.83421-3.5456 0.83421s-2.4788-0.30032-3.5456-0.83424c-0.27474-0.13705-0.5404-0.28997-0.7957-0.45712-0.70207-0.45973-1.327-1.0274-1.8509-1.6798-0.16263-0.20216-0.31524-0.41275-0.45746-0.63078-0.33046-0.5054-0.60421-1.0507-0.8135-1.627-0.30711-0.84529-0.4743-1.7573-0.4743-2.7085 0-4.3838 3.5537-7.9375 7.9375-7.9375 2.2005 0 4.1917 0.89548 5.6295 2.3417 0.41436 0.41662 0.78274 0.87929 1.0963 1.3795 0.29645 0.47107 0.54428 0.97582 0.73704 1.5068 0.30718 0.84559 0.47467 1.7579 0.47467 2.7094z" fill="#212121" stroke-width=".031006"/>
 <path d="m7.5951 6.3596c0.26295 0 0.51363-0.076548 0.72603-0.2129 1.09e-4 -7.04e-5 -1.1e-4 -4.498e-4 0-5.292e-4 -0.21241 0.13636-0.46312 0.21342-0.72603 0.21342z" fill="#ffd241" stroke-width=".031006"/>
 <path transform="scale(.26458)" d="m11.133 10.658c-0.076259 0-0.1506 0.005227-0.22461 0.013672-0.9575 0.10926-1.7057 0.90566-1.7441 1.8828 0.20765-0.24361 0.41368-0.48978 0.62891-0.72656 0.32282-0.35518 0.65483-0.70171 0.99414-1.041-0.33931 0.33931-0.67132 0.68585-0.99414 1.041-0.21521 0.23679-0.42125 0.48296-0.62891 0.72656-0.0010313 0.026187-0.0039063 0.051688-0.0039063 0.078124v35.92c0.076388 0.089924 0.14914 0.18248 0.22656 0.27148 0.25927 0.29805 0.52424 0.59138 0.79492 0.87891 0.27068 0.28753 0.5464 0.56904 0.82812 0.8457 0.28173 0.27666 0.5689 0.549 0.86133 0.81445 0.29243 0.26546 0.58981 0.52539 0.89258 0.7793s0.61106 0.50213 0.92383 0.74414c0.31276 0.24201 0.63072 0.47725 0.95312 0.70703s0.64878 0.45272 0.98047 0.66992c0.48247 0.31588 0.97512 0.61804 1.4766 0.90625 0.50144 0.28821 1.012 0.56327 1.5312 0.82227 0.50401 0.25225 1.0174 0.49068 1.5371 0.71484 0.51975 0.22417 1.0456 0.43381 1.5801 0.62891 0.5345 0.1951 1.0767 0.37597 1.625 0.54102 0.54826 0.16504 1.103 0.31326 1.6641 0.44727s1.1284 0.25349 1.7012 0.35547c0.57279 0.10198 1.1508 0.18689 1.7344 0.25586 0.58357 0.068973 1.1723 0.12127 1.7656 0.15625 0.59335 0.034979 1.1928 0.052734 1.7949 0.052734s1.1996-0.017755 1.793-0.052734c0.59335-0.034979 1.1821-0.087278 1.7656-0.15625 0.58357-0.068972 1.1616-0.15388 1.7344-0.25586 0.57279-0.10198 1.1401-0.22147 1.7012-0.35547 0.56102-0.134 1.1158-0.28223 1.6641-0.44727s1.0905-0.34593 1.625-0.54102c0.5345-0.19509 1.0603-0.40475 1.5801-0.62891 0.51975-0.22416 1.0331-0.46261 1.5371-0.71484 0.51915-0.25894 1.0282-0.53405 1.5293-0.82227 0.50113-0.28821 0.9941-0.59031 1.4766-0.90625 0.32755-0.2143 0.65031-0.43358 0.96875-0.66016 0.31844-0.22658 0.63241-0.4607 0.94141-0.69922s0.61287-0.48229 0.91211-0.73242c0.29924-0.25013 0.59367-0.50617 0.88281-0.76758s0.57284-0.52842 0.85156-0.80078c0.27873-0.27236 0.55233-0.54906 0.82031-0.83203 0.26798-0.28297 0.5302-0.57198 0.78711-0.86523 0.10045-0.11466 0.1962-0.23341 0.29492-0.34961v-26.021h-9.8945c-0.54464 0-1.0394-0.22103-1.3965-0.57812-0.35714-0.3571-0.57812-0.84995-0.57812-1.3945h0.001953v-9.8965l11.867 11.869v-0.007812l-11.869-11.869h-31.895z" fill="#fbfbfb"/>
 <g transform="translate(.030313 .66768)" fill="#464646">
  <path d="m4.1205 6.8701c-0.0057 0.03965-0.0092 0.081002-0.01462 0.12163h8.7214c-0.0051-0.040626-0.0089-0.082013-0.0152-0.12163z" opacity=".6" stroke-width=".68982" style="paint-order:normal"/>
  <path d="m4.2637 4.2277c0.0051 0.040626 0.0099 0.081178 0.01548 0.12163h8.3762c0.0052-0.043706 0.0097-0.078494 0.01437-0.12163z" opacity=".6" stroke-width=".67719" style="paint-order:normal"/>
  <path d="m4.1205 9.5125c-0.0057 0.03965-0.0092 0.081-0.01462 0.12163h8.7214c-0.0051-0.04063-0.0089-0.08201-0.0152-0.12163z" opacity=".6" stroke-width=".68982" style="paint-order:normal"/>
  <path d="m4.1205 12.155c-0.0057 0.03965-0.0092 0.081-0.01462 0.12163h8.7214c-0.0051-0.04063-0.0089-0.08201-0.0152-0.12163z" opacity=".6" stroke-width=".68982" style="paint-order:normal"/>
 </g>
 <path d="m14.525 5.9625-3.1398-3.1403v2.6184h-5.29e-4c0 0.1441 0.05847 0.27448 0.15296 0.36896 0.09449 0.094481 0.22538 0.15296 0.36949 0.15296h2.6179z" fill="#aaa" stroke-width=".031006"/>
 <path d="m10.077 3.5941c-0.39047 0-0.74511 0.22776-0.90793 0.5829l-0.35967 0.78443c-0.219 0.47788-0.69624 0.78443-1.2221 0.78443h-5.2162c-0.75556 0-1.3679 0.61229-1.3679 1.3679v4.0534c0.20929 0.57631 0.48291 1.1219 0.81337 1.6273 0.14222 0.21803 0.29469 0.42828 0.45733 0.63044 0.5239 0.6524 1.1489 1.2202 1.851 1.68 0.2553 0.16715 0.52106 0.32028 0.7958 0.45733 1.0668 0.53392 2.2711 0.83404 3.5454 0.83404 1.2745 0 2.4788-0.30017 3.5454-0.83404 0.27471-0.13702 0.53998-0.29014 0.7953-0.45733 0.6933-0.4536 1.3112-1.0122 1.8309-1.6542 0.16232-0.20054 0.31512-0.4092 0.45733-0.62528 0.33954-0.51389 0.62055-1.0696 0.83404-1.6572v-6.5751c0-0.5516-0.4473-0.9989-0.9989-0.9989h-4.8535z" fill="#464646" stroke-width=".26458"/>
 <circle cx="8.4748" cy="8.4665" r="1.2979" fill="#fff"/>
 <circle cx="8.4748" cy="8.4665" r=".71327" fill="#c8c8c8"/>
 <circle cx="8.4748" cy="8.4665" r=".29477" fill="#969696"/>
</svg>
