<?xml version="1.0" encoding="UTF-8" standalone="no"?>
<svg
   xmlns:dc="http://purl.org/dc/elements/1.1/"
   xmlns:cc="http://creativecommons.org/ns#"
   xmlns:rdf="http://www.w3.org/1999/02/22-rdf-syntax-ns#"
   xmlns:svg="http://www.w3.org/2000/svg"
   xmlns="http://www.w3.org/2000/svg"
   xmlns:xlink="http://www.w3.org/1999/xlink"
   xmlns:sodipodi="http://sodipodi.sourceforge.net/DTD/sodipodi-0.dtd"
   xmlns:inkscape="http://www.inkscape.org/namespaces/inkscape"
   width="64"
   height="64"
   viewBox="0 0 16.933333 16.933334"
   version="1.1"
   id="svg8"
   inkscape:version="1.0.2 (e86c870879, 2021-01-15)"
   sodipodi:docname="8-ball-pool.svg">
  <defs
     id="defs2">
    <linearGradient
       inkscape:collect="always"
       id="linearGradient989">
      <stop
         style="stop-color:#32373c;stop-opacity:1"
         offset="0"
         id="stop985" />
      <stop
         style="stop-color:#46505a;stop-opacity:1"
         offset="1"
         id="stop987" />
    </linearGradient>
    <style
       type="text/css"
       id="style835" />
    <style
       type="text/css"
       id="style837" />
    <style
       type="text/css"
       id="style839" />
    <style
       type="text/css"
       id="style841" />
    <style
       type="text/css"
       id="style843" />
    <style
       type="text/css"
       id="style845" />
    <style
       type="text/css"
       id="style847" />
    <style
       type="text/css"
       id="style849" />
    <style
       type="text/css"
       id="style851" />
    <filter
       id="filter11290"
       x="-.024"
       y="-.024"
       width="1.048"
       height="1.048"
       color-interpolation-filters="sRGB">
      <feGaussianBlur
         stdDeviation="0.15875313"
         id="feGaussianBlur853" />
    </filter>
    <linearGradient
       id="linearGradient1005"
       x1=".8714"
       x2="16.246"
       y1="16.164"
       y2=".78937"
       gradientTransform="matrix(1.0000192,0,0,1.0000192,17.174696,0.10409129)"
       gradientUnits="userSpaceOnUse">
      <stop
         stop-color="#00c8ff"
         offset="0"
         id="stop856" />
      <stop
         stop-color="#14a0ff"
         offset="1"
         id="stop858" />
    </linearGradient>
    <linearGradient
       inkscape:collect="always"
       xlink:href="#linearGradient989"
       id="linearGradient991"
       x1="0.75633472"
       y1="16.150034"
       x2="16.384806"
       y2="0.73200572"
       gradientUnits="userSpaceOnUse" />
    <linearGradient
       id="linearGradient1548"
       x1="0.73910999"
       x2="16.388"
       y1="16.296"
       y2="0.64687002"
       gradientTransform="matrix(0.66667062,0,0,0.66667062,2.7987356,2.8268616)"
       gradientUnits="userSpaceOnUse">
      <stop
         stop-color="#e1e1e1"
         offset="0"
         id="stop161" />
      <stop
         stop-color="#ebebeb"
         offset="1"
         id="stop163" />
    </linearGradient>
  </defs>
  <sodipodi:namedview
     id="base"
     pagecolor="#ffffff"
     bordercolor="#666666"
     borderopacity="1.0"
     inkscape:pageopacity="0.0"
     inkscape:pageshadow="2"
     inkscape:zoom="3.959798"
     inkscape:cx="-4.2633579"
     inkscape:cy="40.567995"
     inkscape:document-units="mm"
     inkscape:current-layer="layer1"
     inkscape:document-rotation="0"
     showgrid="false"
     units="px"
     inkscape:window-width="1920"
     inkscape:window-height="992"
     inkscape:window-x="0"
     inkscape:window-y="0"
     inkscape:window-maximized="1" />
  <metadata
     id="metadata5">
    <rdf:RDF>
      <cc:Work
         rdf:about="">
        <dc:format>image/svg+xml</dc:format>
        <dc:type
           rdf:resource="http://purl.org/dc/dcmitype/StillImage" />
        <dc:title></dc:title>
      </cc:Work>
    </rdf:RDF>
  </metadata>
  <g
     inkscape:label="图层 1"
     inkscape:groupmode="layer"
     id="layer1">
    <circle
       transform="matrix(1.0000192,0,0,1.0000192,-0.02719652,0.00650478)"
       cx="8.4937"
       cy="8.46"
       r="7.9376998"
       filter="url(#filter11290)"
       opacity="0.25"
       stroke-width="0.14032"
       id="circle863" />
    <circle
       cx="-297.60333"
       cy="-338.48148"
       r="0"
       fill="#5e4aa6"
       id="circle867"
       style="stroke-width:0.264583" />
    <g
       transform="matrix(1.0000192,0,0,1.0000192,32.763354,-10.10285)"
       fill="#5e4aa6"
       stroke-width="0.26458"
       id="g877">
      <circle
         cx="-299.01999"
         cy="-338.76999"
         r="0"
         id="circle869" />
      <circle
         cx="-8.1062002"
         cy="-3.9487"
         r="0"
         fill-rule="evenodd"
         id="circle871" />
      <circle
         cx="-278.25"
         cy="-357.69"
         r="0"
         id="circle873" />
      <circle
         cx="12.663"
         cy="-22.858999"
         r="0"
         fill-rule="evenodd"
         id="circle875" />
    </g>
    <g
       fill="#5e4aa6"
       id="g911"
       transform="scale(0.26458333)">
      <circle
         cx="-1050.3"
         cy="-1279.3"
         r="0"
         id="circle889" />
      <g
         transform="matrix(3.7796,0,0,3.7796,198.32,-38.184)"
         stroke-width="0.26458"
         id="g899">
        <circle
           cx="-299.01999"
           cy="-338.76999"
           r="0"
           id="circle891" />
        <circle
           cx="-8.1062002"
           cy="-3.9487"
           r="0"
           fill-rule="evenodd"
           id="circle893" />
        <circle
           cx="-278.25"
           cy="-357.69"
           r="0"
           id="circle895" />
        <circle
           cx="12.663"
           cy="-22.858999"
           r="0"
           fill-rule="evenodd"
           id="circle897" />
      </g>
      <g
         transform="matrix(3.7796,0,0,3.7796,74.386,0.024585)"
         stroke-width="0.26458"
         id="g909">
        <circle
           cx="-330.35001"
           cy="-328.38"
           r="0"
           id="circle901" />
        <circle
           cx="-312.10999"
           cy="-326.25"
           r="0"
           id="circle903" />
        <circle
           cx="-306.01999"
           cy="-333.07001"
           r="0"
           id="circle905" />
        <circle
           cx="-308.84"
           cy="-326.01001"
           r="0"
           id="circle907" />
      </g>
    </g>
    <circle
       style="fill:url(#linearGradient991);stroke-width:0.337072;stroke-linecap:round;stroke-linejoin:round;paint-order:stroke fill markers;fill-opacity:1"
       id="path983"
       cx="8.4666662"
       cy="8.4666662"
       r="7.9375" />
    <path
       d="m 13.758307,8.4667196 c 0,0.634339 -0.11166,1.242589 -0.316442,1.8061784 -0.142338,0.391795 -0.329591,0.762186 -0.555942,1.104795 -0.09481,0.144052 -0.196758,0.283157 -0.304959,0.416851 -0.346446,0.427857 -0.758137,0.80047 -1.220338,1.102862 -0.170198,0.111453 -0.34708,0.213408 -0.530225,0.304747 -0.7112,0.355918 -1.5140779,0.556154 -2.3637344,0.556154 -0.8496564,0 -1.6525345,-0.200215 -2.3637345,-0.556154 C 5.9197743,13.110783 5.7426754,13.008836 5.5724689,12.897406 5.104421,12.590913 4.6878081,12.212479 4.3385316,11.777531 4.2301106,11.64276 4.1283706,11.502364 4.0335726,11.357002 3.8132676,11.020082 3.6307716,10.656544 3.4912296,10.272343 3.2864826,9.7088066 3.1750266,9.1008206 3.1750266,8.4666936 c 0,-2.922588 2.3692113,-5.2916668 5.2916665,-5.2916668 1.4669822,0 2.7945289,0.5969794 3.7528499,1.5611208 0.276225,0.27776 0.521811,0.586185 0.730859,0.919665 0.197638,0.314061 0.362849,0.650531 0.491357,1.004517 0.204782,0.563722 0.316442,1.171946 0.316442,1.806179 z"
       fill="url(#linearGradient1548)"
       stroke-width="0.0206706"
       id="path632"
       style="fill:url(#linearGradient1548)" />
    <path
       d="M 9.9299951,11.118413 Q 9.3357938,11.64168 8.466664,11.64168 q -0.8691297,0 -1.463331,-0.523267 -0.5942012,-0.523266 -0.5942012,-1.2948443 0,-0.505513 0.2749285,-0.886883 0.2749285,-0.390234 0.7183702,-0.611929 v -0.03548 Q 7.0565407,8.0675587 6.8348199,7.7305557 6.6131017,7.3846667 6.6131017,7.0121857 q 0,-0.736097 0.5232665,-1.223883 0.5232664,-0.496649 1.3302985,-0.496649 0.8070321,0 1.3302985,0.496649 0.5232668,0.487786 0.5232668,1.223883 0,0.372481 -0.221719,0.71837 -0.2217177,0.337 -0.5676101,0.558721 v 0.03548 q 0.4434416,0.221719 0.7183701,0.611929 0.274929,0.381344 0.274929,0.886883 0,0.7715783 -0.5942017,1.2948443 z M 7.7305668,7.6862377 q 0.2926556,0.257194 0.7360972,0.257194 0.4434417,0 0.7272338,-0.257194 0.2926556,-0.266065 0.2926556,-0.691753 0,-0.425688 -0.2926556,-0.674026 -0.2837921,-0.248324 -0.7272338,-0.248324 -0.4434416,0 -0.7360972,0.248324 -0.2837921,0.248325 -0.2837921,0.674026 0,0.425688 0.2837921,0.691753 z M 7.5975369,10.559613 q 0.3547533,0.301546 0.8691298,0.301546 0.5143764,0 0.8691298,-0.301546 0.3547533,-0.301545 0.3547533,-0.7804413 0,-0.470032 -0.3547533,-0.771578 -0.3547534,-0.301546 -0.8691298,-0.301546 -0.5143765,0 -0.8691298,0.301546 -0.3547533,0.301546 -0.3547533,0.771578 0,0.4789223 0.3547533,0.7804413 z"
       fill="#444d60"
       fill-opacity="0.99608"
       stroke-width="0.080944"
       id="path634"
       style="fill:#404951;fill-opacity:1" />
  </g>
</svg>
