<?xml version="1.0" encoding="UTF-8"?>
<svg width="64" height="64" version="1.1" viewBox="0 0 64 64" xmlns="http://www.w3.org/2000/svg">
 <defs>
  <filter id="filter11290" x="-.024" y="-.024" width="1.048" height="1.048" color-interpolation-filters="sRGB">
   <feGaussianBlur stdDeviation="0.15875313"/>
  </filter>
  <linearGradient id="linearGradient1005" x1=".73911" x2="13.303" y1="16.296" y2="3.7322" gradientTransform="matrix(3.7796 0 0 3.7796 -.13195 .024566)" gradientUnits="userSpaceOnUse">
   <stop stop-color="#ff7d1e" offset="0"/>
   <stop stop-color="#ffa53c" offset="1"/>
  </linearGradient>
 </defs>
 <circle transform="matrix(3.7796 0 0 3.7796 -.10281 .024567)" cx="8.4937" cy="8.46" r="7.9377" filter="url(#filter11290)" opacity=".25" stroke-width=".14032"/>
 <path d="m62 32c0 3.5964-0.63305 7.0448-1.794 10.24-0.80699 2.2212-1.8686 4.3212-3.1519 6.2636-0.53753 0.8167-1.1155 1.6054-1.729 2.3633-1.9641 2.4257-4.2982 4.5382-6.9186 6.2526-0.96493 0.63188-1.9678 1.2099-3.0061 1.7277-4.0321 2.0179-8.5838 3.153-13.401 3.153-4.8171 0-9.3689-1.1351-13.401-3.1531-1.0384-0.518-2.0425-1.096-3.0074-1.7277-2.6535-1.7376-5.0155-3.8832-6.9957-6.349-0.61468-0.76408-1.1915-1.56-1.729-2.3841-1.249-1.9102-2.2837-3.9712-3.0747-6.1494-1.1608-3.1949-1.7927-6.6419-1.7927-10.237 0-16.569 13.432-30.001 30.001-30.001 8.317 0 15.843 3.3846 21.277 8.8507 1.5661 1.5747 2.9584 3.3234 4.1436 5.214 1.1205 1.7805 2.0572 3.6882 2.7857 5.6951 1.161 3.196 1.7941 6.6442 1.7941 10.24z" fill="url(#linearGradient1005)" stroke-width=".11719"/>
 <path d="m31.774 14.503c-0.22766-0.01858-0.49503 0.0375-0.78611 0.19456-7.9019 4.2636-12.519 11.962-12.449 17.095 0.1011 7.4658 5.8304 13.577 14.374 13.369-0.39275 1.9908-1.5727 2.6497-1.3988 3.5967 0.06881 0.37451 0.61682 1.0171 1.3593 0.6126 7.5838-4.1314 12.434-11.509 12.583-16.821 0.20424-7.2587-5.3183-14.144-14.41-13.682 0.21548-1.0046 0.72014-1.8956 1.3514-2.9367 0.39372-0.64941 0.05985-1.3718-0.62311-1.4276zm0.22611 12.112a5.3845 5.3845 0 0 1 5.3845 5.3845 5.3845 5.3845 0 0 1-5.3845 5.3845 5.3845 5.3845 0 0 1-5.3845-5.3845 5.3845 5.3845 0 0 1 5.3845-5.3845z" fill="#fff0e1" fill-rule="evenodd" stroke-width="1.3461"/>
</svg>
