<?xml version="1.0" encoding="UTF-8"?>
<svg width="64" height="64" version="1.1" viewBox="0 0 16.933 16.933" xmlns="http://www.w3.org/2000/svg" xmlns:cc="http://creativecommons.org/ns#" xmlns:dc="http://purl.org/dc/elements/1.1/" xmlns:rdf="http://www.w3.org/1999/02/22-rdf-syntax-ns#">
 <metadata>
  <rdf:RDF>
   <cc:Work rdf:about="">
    <dc:format>image/svg+xml</dc:format>
    <dc:type rdf:resource="http://purl.org/dc/dcmitype/StillImage"/>
    <dc:title/>
   </cc:Work>
  </rdf:RDF>
 </metadata>
 <defs>
  <filter id="filter11290" x="-.024" y="-.024" width="1.048" height="1.048" color-interpolation-filters="sRGB">
   <feGaussianBlur stdDeviation="0.15875313"/>
  </filter>
  <linearGradient id="linearGradient1005" x1=".8714" x2="16.246" y1="16.164" y2=".78937" gradientTransform="translate(-.035245 .00645)" gradientUnits="userSpaceOnUse">
   <stop stop-color="#00c8ff" offset="0"/>
   <stop stop-color="#14a0ff" offset="1"/>
  </linearGradient>
 </defs>
 <circle cx="8.4665" cy="8.4665" r="7.9377" filter="url(#filter11290)" opacity=".25" stroke-width=".14032"/>
 <path d="m16.404 8.4664c0 0.95154-0.16749 1.8639-0.47464 2.7094-0.21351 0.58768-0.49439 1.1433-0.83393 1.6572-0.14222 0.21608-0.29514 0.42475-0.45746 0.62529-0.51966 0.64179-1.1372 1.2007-1.8305 1.6543-0.2553 0.16718-0.52065 0.3201-0.79536 0.45712-1.0668 0.53389-2.2711 0.83421-3.5456 0.83421s-2.4788-0.30032-3.5456-0.83424c-0.27474-0.13705-0.5404-0.28997-0.7957-0.45712-0.70207-0.45973-1.327-1.0274-1.8509-1.6798-0.16263-0.20216-0.31524-0.41275-0.45746-0.63078-0.33046-0.5054-0.60421-1.0507-0.8135-1.627-0.30711-0.84529-0.4743-1.7573-0.4743-2.7085 0-4.3838 3.5537-7.9375 7.9375-7.9375 2.2005 0 4.1917 0.89548 5.6295 2.3417 0.41436 0.41662 0.78274 0.87929 1.0963 1.3795 0.29645 0.47107 0.54428 0.97582 0.73704 1.5068 0.30718 0.84559 0.47467 1.7579 0.47467 2.7094z" fill="url(#linearGradient1005)" stroke-width=".031006"/>
 <g transform="translate(-.0272 .0065001)" fill="#5e4aa6" stroke-width=".26458">
  <circle cx="-330.35" cy="-328.38" r="0"/>
  <circle cx="-312.11" cy="-326.25" r="0"/>
  <circle cx="-306.02" cy="-333.07" r="0"/>
  <circle cx="-308.84" cy="-326.01" r="0"/>
 </g>
 <g transform="matrix(1.0974 0 0 1.0974 -.82458 -308.16)" fill="#fff" fill-opacity=".993" stroke-width="1.317">
  <path d="m11.302 285.35c-0.56-0.323-1.333-0.337-2.016-0.035-0.631 0.279-1.087 0.894-1.356 1.356a0.27 0.27 0 0 0-0.24 0.466 2.69 2.69 0 0 0-0.045 0.105l-1.308 2.872a0.27 0.27 0 0 0-0.232 0.487l9e-3 4e-3 -0.294 0.647h-0.731a0.27 0.27 0 0 0 0 0.54h1.35a0.27 0.27 0 0 0 0-0.54h-0.026l0.187-0.412a0.27 0.27 0 0 0 0.075 0.012 0.269 0.269 0 0 0 0.146-0.496l1.354-2.975a0.26924 0.26924 0 0 0 0.246-0.479c0.23-0.389 0.6-0.88 1.084-1.093 0.52-0.23 1.12-0.227 1.527 9e-3 0.3 0.173 0.473 0.448 0.513 0.819 0.075 0.693 0.011 1.158-0.19 1.382a0.496 0.496 0 0 1-0.059 0.055v0.604c0.166-0.056 0.326-0.148 0.461-0.299 0.312-0.347 0.418-0.936 0.325-1.8-0.058-0.536-0.335-0.972-0.78-1.229z"/>
  <path d="m10.534 289.9c0.176 0 0.342 0.04 0.492 0.11v-2.134c0-0.149 0.014-0.135-0.135-0.135h-0.528c-0.15 0-1.653 0.124-2.05 2.088l-0.256 1.623c0 0.15 0.121 0.337 0.27 0.337h1.281a1.165 1.165 0 0 1-0.247-0.716c0-0.647 0.526-1.173 1.173-1.173z"/>
  <path d="m11.161 290.42a0.915 0.915 0 0 0-0.627-0.255 0.9 0.9 0 1 0-0.295 1.754 0.896 0.896 0 0 0 1.042-0.347 0.898 0.898 0 0 0-0.12-1.152z"/>
 </g>
</svg>
