<?xml version="1.0" encoding="UTF-8"?>
<svg width="64px" height="64px" version="1.1" viewBox="0 0 64 64" xmlns="http://www.w3.org/2000/svg" xmlns:cc="http://creativecommons.org/ns#" xmlns:dc="http://purl.org/dc/elements/1.1/" xmlns:rdf="http://www.w3.org/1999/02/22-rdf-syntax-ns#">
 <metadata>
  <rdf:RDF>
   <cc:Work rdf:about="">
    <dc:format>image/svg+xml</dc:format>
    <dc:type rdf:resource="http://purl.org/dc/dcmitype/StillImage"/>
    <dc:title/>
   </cc:Work>
  </rdf:RDF>
 </metadata>
 <defs>
  <style type="text/css"/>
  <style type="text/css"/>
  <style type="text/css"/>
  <style type="text/css"/>
  <style type="text/css"/>
  <style type="text/css"/>
  <style type="text/css"/>
  <style type="text/css"/>
  <style type="text/css"/>
  <filter id="filter11290" x="-.024" y="-.024" width="1.048" height="1.048" color-interpolation-filters="sRGB">
   <feGaussianBlur stdDeviation="0.15875313"/>
  </filter>
  <linearGradient id="linearGradient1005" x1=".8714" x2="16.246" y1="16.164" y2=".78937" gradientTransform="matrix(3.7796 0 0 3.7796 -.13281 .024828)" gradientUnits="userSpaceOnUse">
   <stop stop-color="#00c8ff" offset="0"/>
   <stop stop-color="#14a0ff" offset="1"/>
  </linearGradient>
 </defs>
 <circle transform="matrix(3.7796 0 0 3.7796 -.10279 .024585)" cx="8.4937" cy="8.46" r="7.9377" filter="url(#filter11290)" opacity=".25" stroke-width=".14032"/>
 <path d="m62 32c0 3.5964-0.63305 7.0448-1.794 10.24-0.80698 2.2212-1.8686 4.3212-3.1519 6.2636-0.53754 0.8167-1.1155 1.6054-1.729 2.3633-1.9641 2.4257-4.2982 4.5382-6.9186 6.2526-0.96493 0.63187-1.9678 1.2098-3.0061 1.7277-4.0321 2.0179-8.5839 3.153-13.401 3.153s-9.3689-1.1351-13.401-3.1531c-1.0384-0.518-2.0425-1.096-3.0074-1.7277-2.6535-1.7376-5.0155-3.8832-6.9957-6.349-0.61468-0.76408-1.1915-1.56-1.729-2.3841-1.249-1.9102-2.2837-3.9712-3.0747-6.1494-1.1608-3.1949-1.7927-6.6419-1.7927-10.237 0-16.569 13.432-30.001 30.001-30.001 8.317 0 15.843 3.3846 21.277 8.8507 1.5661 1.5747 2.9584 3.3234 4.1436 5.214 1.1205 1.7805 2.0572 3.6882 2.7857 5.6951 1.161 3.196 1.7941 6.6442 1.7941 10.24z" fill="url(#linearGradient1005)" stroke-width=".11719"/>
 <circle cx="-1124.8" cy="-1279.3" r="0" fill="#5e4aa6"/>
 <g transform="matrix(3.7796,0,0,3.7796,123.83,-38.184)" fill="#5e4aa6" stroke-width=".26458">
  <circle cx="-299.02" cy="-338.77" r="0"/>
  <circle cx="-8.1062" cy="-3.9487" r="0" fill-rule="evenodd"/>
  <circle cx="-278.25" cy="-357.69" r="0"/>
  <circle cx="12.663" cy="-22.859" r="0" fill-rule="evenodd"/>
 </g>
 <path d="m16.092 28.818h31.815c0.87841 0 1.5924 0.714 1.5924 1.5924v3.1801c0 0.87841-0.714 1.5924-1.5924 1.5924h-31.815c-0.87841 0-1.5924-0.714-1.5924-1.5924v-3.1801c0-0.87841 0.714-1.5924 1.5924-1.5924z" fill="#98d8ff"/>
 <path d="m17.682 19.273c0.87841 0 1.5901 0.714 1.5901 1.5924v22.27c0 0.87841-0.71165 1.5924-1.5901 1.5924s-1.5901-0.714-1.5901-1.5924v-22.27c0-0.87841 0.71165-1.5924 1.5901-1.5924z" fill="#fff"/>
 <path d="m22.173 14.5h0.56368c1.6018 0 2.9006 1.4256 2.9006 3.1825v28.635c0 1.7568-1.2988 3.1825-2.9006 3.1825h-0.56368c-1.6018 0-2.9006-1.4256-2.9006-3.1825v-28.635c0-1.7568 1.2988-3.1825 2.9006-3.1825z" fill="#bae4ff"/>
 <path d="m41.263 14.5h0.56368c1.6018 0 2.9006 1.4256 2.9006 3.1825v28.635c0 1.7568-1.2988 3.1825-2.9006 3.1825h-0.56368c-1.6018 0-2.9006-1.4256-2.9006-3.1825v-28.635c0-1.7568 1.2988-3.1825 2.9006-3.1825z" fill="#bae4ff"/>
 <path d="m46.318 19.273c0.87841 0 1.5901 0.714 1.5901 1.5924v22.27c0 0.87841-0.71165 1.5924-1.5901 1.5924s-1.5901-0.714-1.5901-1.5924v-22.27c0-0.87841 0.71165-1.5924 1.5901-1.5924z" fill="#fff"/>
 <g fill="#5e4aa6">
  <circle cx="-1050.3" cy="-1279.3" r="0"/>
  <g transform="matrix(3.7796 0 0 3.7796 198.32 -38.184)" stroke-width=".26458">
   <circle cx="-299.02" cy="-338.77" r="0"/>
   <circle cx="-8.1062" cy="-3.9487" r="0" fill-rule="evenodd"/>
   <circle cx="-278.25" cy="-357.69" r="0"/>
   <circle cx="12.663" cy="-22.859" r="0" fill-rule="evenodd"/>
  </g>
  <g transform="matrix(3.7796 0 0 3.7796 74.386 .024585)" stroke-width=".26458">
   <circle cx="-330.35" cy="-328.38" r="0"/>
   <circle cx="-312.11" cy="-326.25" r="0"/>
   <circle cx="-306.02" cy="-333.07" r="0"/>
   <circle cx="-308.84" cy="-326.01" r="0"/>
  </g>
 </g>
</svg>
