<?xml version="1.0" encoding="UTF-8" standalone="no"?>
<svg
   xmlns:dc="http://purl.org/dc/elements/1.1/"
   xmlns:cc="http://creativecommons.org/ns#"
   xmlns:rdf="http://www.w3.org/1999/02/22-rdf-syntax-ns#"
   xmlns:svg="http://www.w3.org/2000/svg"
   xmlns="http://www.w3.org/2000/svg"
   xmlns:sodipodi="http://sodipodi.sourceforge.net/DTD/sodipodi-0.dtd"
   xmlns:inkscape="http://www.inkscape.org/namespaces/inkscape"
   width="64"
   height="64"
   version="1.1"
   id="svg22"
   sodipodi:docname="acreloaded.svg"
   inkscape:version="1.0.2 (e86c870879, 2021-01-15)">
  <metadata
     id="metadata28">
    <rdf:RDF>
      <cc:Work
         rdf:about="">
        <dc:format>image/svg+xml</dc:format>
        <dc:type
           rdf:resource="http://purl.org/dc/dcmitype/StillImage" />
        <dc:title></dc:title>
      </cc:Work>
    </rdf:RDF>
  </metadata>
  <defs
     id="defs26">
    <linearGradient
       id="b-3"
       x1="399.57"
       x2="399.57"
       y1="545.8"
       y2="517.8"
       gradientTransform="matrix(2.1429,0,0,2.1429,-963.59,-1143.3)"
       gradientUnits="userSpaceOnUse">
      <stop
         stop-color="#3889e9"
         offset="0"
         id="stop855" />
      <stop
         stop-color="#5ea5fb"
         offset="1"
         id="stop857" />
    </linearGradient>
    <style
       type="text/css"
       id="style860" />
    <linearGradient
       id="linearGradient927"
       x1="39.034"
       x2="-7.7455"
       y1="24.542"
       y2="71.322"
       gradientTransform="matrix(2.0044,0,0,2.0044,123.77,261.85)"
       gradientUnits="userSpaceOnUse">
      <stop
         stop-color="#ffbe14"
         offset="0"
         id="stop862" />
      <stop
         stop-color="#ff8214"
         offset="1"
         id="stop864" />
    </linearGradient>
    <style
       type="text/css"
       id="style867" />
    <style
       type="text/css"
       id="style869" />
    <filter
       id="filter1057"
       x="-.027"
       y="-.027"
       width="1.054"
       height="1.054"
       color-interpolation-filters="sRGB">
      <feGaussianBlur
         stdDeviation="0.61875"
         id="feGaussianBlur871" />
    </filter>
    <linearGradient
       id="linearGradient1053"
       x1="-127"
       x2="-72"
       y1="60"
       y2="5"
       gradientTransform="translate(128.68113,-7.677248)"
       gradientUnits="userSpaceOnUse">
      <stop
         stop-color="#df2a2a"
         offset="0"
         id="stop874" />
      <stop
         stop-color="#f83f3f"
         offset="1"
         id="stop876" />
    </linearGradient>
    <filter
       id="filter943"
       x="-.062502"
       y="-.057691"
       width="1.125"
       height="1.1154"
       color-interpolation-filters="sRGB">
      <feGaussianBlur
         stdDeviation="0.3307375"
         id="feGaussianBlur1023" />
    </filter>
    <style
       type="text/css"
       id="style1026" />
    <filter
       id="filter1057-3"
       x="-.027"
       y="-.027"
       width="1.054"
       height="1.054"
       color-interpolation-filters="sRGB">
      <feGaussianBlur
         stdDeviation="0.61875"
         id="feGaussianBlur1028" />
    </filter>
    <linearGradient
       id="linearGradient1053-6"
       x1="-127"
       x2="-72"
       y1="60"
       y2="5"
       gradientTransform="matrix(.26458 0 0 .26458 34.792 -.13493)"
       gradientUnits="userSpaceOnUse">
      <stop
         stop-color="#32d7ff"
         offset="0"
         id="stop1031" />
      <stop
         stop-color="#329bff"
         offset="1"
         id="stop1033" />
    </linearGradient>
    <style
       type="text/css"
       id="style1036" />
    <style
       type="text/css"
       id="style1038" />
    <style
       type="text/css"
       id="style1040" />
    <style
       type="text/css"
       id="style1042" />
    <style
       type="text/css"
       id="style1044" />
    <style
       type="text/css"
       id="style1046" />
    <style
       type="text/css"
       id="style1048" />
    <linearGradient
       id="a"
       x1="407.37"
       x2="407.42"
       y1="506.45"
       y2="541.52"
       gradientUnits="userSpaceOnUse">
      <stop
         stop-color="#e64a4a"
         offset="0"
         id="stop900" />
      <stop
         stop-color="#f02828"
         offset="1"
         id="stop902" />
    </linearGradient>
    <filter
       id="filter11290"
       x="-.024"
       y="-.024"
       width="1.048"
       height="1.048"
       color-interpolation-filters="sRGB">
      <feGaussianBlur
         stdDeviation="0.15875313"
         id="feGaussianBlur956" />
    </filter>
    <linearGradient
       id="linearGradient1005"
       x1=".73911"
       x2="16.388"
       y1="16.296"
       y2=".64687"
       gradientTransform="matrix(3.7796,0,0,3.7796,-0.1323,0.0250161)"
       gradientUnits="userSpaceOnUse">
      <stop
         stop-color="#dc2828"
         offset="0"
         id="stop959" />
      <stop
         stop-color="#ff4141"
         offset="1"
         id="stop961" />
    </linearGradient>
  </defs>
  <sodipodi:namedview
     pagecolor="#ffffff"
     bordercolor="#666666"
     borderopacity="1"
     objecttolerance="10"
     gridtolerance="10"
     guidetolerance="10"
     inkscape:pageopacity="0"
     inkscape:pageshadow="2"
     inkscape:window-width="1920"
     inkscape:window-height="935"
     id="namedview24"
     showgrid="false"
     inkscape:zoom="6.0546875"
     inkscape:cx="-9.208814"
     inkscape:cy="44.283993"
     inkscape:window-x="0"
     inkscape:window-y="38"
     inkscape:window-maximized="1"
     inkscape:current-layer="svg22"
     inkscape:document-rotation="0" />
  <circle
     transform="matrix(3.7796,0,0,3.7796,1.6203648e-5,1.6203648e-5)"
     cx="8.4665003"
     cy="8.4665003"
     r="7.9376998"
     filter="url(#filter11290)"
     opacity="0.25"
     stroke-width="0.14032"
     id="circle966" />
  <path
     d="m 62.0004,32.00045 c 0,3.5964 -0.63304,7.0448 -1.794,10.24 -0.80698,2.2212 -1.8686,4.3212 -3.1519,6.2636 -0.53754,0.8167 -1.1155,1.6054 -1.729,2.3633 -1.9641,2.4257 -4.2982,4.5382 -6.9186,6.2526 -0.96493,0.63187 -1.9678,1.2099 -3.0061,1.7277 -4.0321,2.0179 -8.5839,3.153 -13.401,3.153 -4.8171,0 -9.3689,-1.1351 -13.401,-3.1531 -1.0384,-0.518 -2.0425,-1.096 -3.0074,-1.7277 -2.6535,-1.7376 -5.0155,-3.8832 -6.9957,-6.349 -0.61468,-0.76408 -1.1915,-1.56 -1.729,-2.3841 -1.249,-1.9102 -2.2837,-3.9712 -3.0747,-6.1494 -1.1608,-3.1949 -1.7927,-6.6419 -1.7927,-10.237 0,-16.569 13.432,-30.0009999 30.001,-30.0009999 8.317,0 15.843,3.3846 21.277,8.8506999 1.5661,1.5747 2.9584,3.3234 4.1436,5.214 1.1205,1.7805 2.0572,3.6882 2.7857,5.6951 1.161,3.196 1.7941,6.6442 1.7941,10.24 z"
     fill="url(#linearGradient1005)"
     stroke-width="0.11719"
     id="path968"
     style="fill:url(#linearGradient1005)" />
  <g
     transform="translate(-137.22,-35.254)"
     fill="#5e4aa6"
     id="g915">
    <g
       image-rendering="optimizeSpeed"
       id="g897">
      <circle
         cx="-1248.6"
         cy="-1241.1"
         r="0"
         id="circle885" />
      <g
         transform="matrix(3.7796,0,0,3.7796,-6.9956e-4,6.044e-4)"
         stroke-width="0.26458"
         id="g893">
        <circle
           cx="-330.35001"
           cy="-328.38"
           r="0"
           id="circle887" />
        <circle
           cx="-330.35001"
           cy="-328.38"
           r="0"
           id="circle889" />
        <circle
           cx="-352.63"
           cy="-336.84"
           r="0"
           id="circle891" />
      </g>
      <circle
         cx="-1248.6"
         cy="-1241.1"
         r="0"
         id="circle895" />
    </g>
    <g
       transform="translate(92.643,0.35997)"
       image-rendering="optimizeSpeed"
       id="g911">
      <circle
         cx="-1248.6"
         cy="-1241.1"
         r="0"
         id="circle899" />
      <g
         transform="matrix(3.7796,0,0,3.7796,-6.9956e-4,6.044e-4)"
         stroke-width="0.26458"
         id="g907">
        <circle
           cx="-330.35001"
           cy="-328.38"
           r="0"
           id="circle901" />
        <circle
           cx="-330.35001"
           cy="-328.38"
           r="0"
           id="circle903" />
        <circle
           cx="-352.63"
           cy="-336.84"
           r="0"
           id="circle905" />
      </g>
      <circle
         cx="-1248.6"
         cy="-1241.1"
         r="0"
         id="circle909" />
    </g>
    <circle
       cx="-1152.9"
       cy="-1242.3"
       r="0"
       id="circle913" />
  </g>
  <circle
     cx="-105.21"
     cy="-3.7102001"
     r="0"
     fill="url(#b-3)"
     stroke-width="1.5715"
     id="circle917"
     style="fill:url(#b-3)" />
  <circle
     cx="-1179.3"
     cy="-1268.3"
     r="0"
     fill="#5e4aa6"
     id="circle919" />
  <circle
     cx="-1173.6"
     cy="-1229.2"
     r="0"
     fill="#5e4aa6"
     image-rendering="optimizeSpeed"
     id="circle921" />
  <g
     transform="translate(171.85,7.9683)"
     id="g927">
    <g
       transform="translate(1,1)"
       id="g925">
      <g
         opacity="0.1"
         id="g923">
        <!-- color: #e57e29 -->
      </g>
    </g>
  </g>
  <g
     fill="#5e4aa6"
     id="g959">
    <circle
       cx="-1080"
       cy="-1247.9"
       r="0"
       id="circle935" />
    <circle
       cx="19.546"
       cy="17.545"
       r="0"
       fill-rule="evenodd"
       id="circle937" />
    <g
       transform="translate(-66.881,-15.741)"
       id="g957">
      <circle
         cx="-1158.1"
         cy="-1246"
         r="0"
         id="circle939" />
      <circle
         cx="-1157.3"
         cy="-1267.7"
         r="0"
         id="circle941" />
      <circle
         cx="-57.756001"
         cy="-2.1829"
         r="0"
         fill-rule="evenodd"
         id="circle943" />
      <g
         transform="translate(-72.958)"
         id="g951">
        <circle
           cx="-1248.7"
           cy="-1241.6"
           r="0"
           id="circle945" />
        <circle
           cx="-1140.3"
           cy="-1301.8"
           r="0"
           id="circle947" />
        <circle
           cx="-1158.1"
           cy="-1246"
           r="0"
           id="circle949" />
      </g>
      <circle
         cx="-1230.3"
         cy="-1267.7"
         r="0"
         id="circle953" />
      <circle
         cx="-130.71001"
         cy="-2.1829"
         r="0"
         fill-rule="evenodd"
         id="circle955" />
    </g>
  </g>
  <g
     id="g1186"
     transform="translate(2.000001,2.2222232)">
    <path
       style="fill:#ffffff;fill-opacity:1;stroke-width:0.666667"
       d="M 30.090213,9.7788467 A 3.8819529,3.8465893 0 0 0 28.05846,10.292676 l -14.117677,8.077029 a 3.8819529,3.8465893 0 0 0 -1.940782,3.330874 v 16.154058 a 3.8819529,3.8465893 0 0 0 1.940782,3.330874 l 14.117677,8.077031 a 3.8819529,3.8465893 0 0 0 3.881567,0 l 14.119185,-8.077031 a 3.8819529,3.8465893 0 0 0 1.940786,-3.330874 V 21.700579 A 3.8819529,3.8465893 0 0 0 46.059212,18.369705 L 31.940027,10.292676 A 3.8819529,3.8465893 0 0 0 30.090213,9.7788467 Z"
       id="path4" />
    <path
       style="opacity:0.3;fill:#dcdcdc;fill-opacity:1;stroke-width:0.666667"
       d="m 30.090666,9.7796367 a 3.8819529,3.8465893 0 0 0 -2.03166,0.5133933 l -14.11801,8.076635 a 3.8819529,3.8465893 0 0 0 -1.644943,1.871281 l 17.703946,8.584449 17.705793,-8.586309 A 3.8819529,3.8465893 0 0 0 46.059005,18.369665 L 31.939146,10.29303 a 3.8819529,3.8465893 0 0 0 -1.84848,-0.5133933 z"
       id="path6" />
    <path
       style="opacity:0.3;fill:#c8c8c8;fill-opacity:1;stroke-width:0.666667"
       d="m 46.059005,18.369665 a 3.8819529,3.8465893 0 0 1 0.181327,0.111608 3.8819529,3.8465893 0 0 0 -0.181327,-0.111608 z m 0.23314,0.148811 a 3.8819529,3.8465893 0 0 1 0.257194,0.186012 3.8819529,3.8465893 0 0 0 -0.257194,-0.186012 z m 0.360814,0.275298 a 3.8819529,3.8465893 0 0 1 0.18688,0.16741 3.8819529,3.8465893 0 0 0 -0.18688,-0.16741 z m 0.246093,0.228794 a 3.8819529,3.8465893 0 0 1 0.21094,0.230655 3.8819529,3.8465893 0 0 0 -0.21094,-0.230655 z m 0.21094,0.230655 a 3.8819529,3.8465893 0 0 1 0.429273,0.6343 3.8819529,3.8465893 0 0 0 -0.429273,-0.6343 z m 0.444074,0.665924 a 3.8819529,3.8465893 0 0 1 0.151726,0.319939 3.8819529,3.8465893 0 0 0 -0.151726,-0.319939 z m 0.151726,0.319939 -17.705793,8.586309 v 20.948661 a 3.8819529,3.8465893 0 0 0 1.939147,-0.511533 l 14.119859,-8.076636 a 3.8819529,3.8465893 0 0 0 1.940993,-3.331474 V 21.701139 a 3.8819529,3.8465893 0 0 0 -0.294206,-1.462053 z"
       id="path8" />
    <path
       style="opacity:0.2;fill:#ffffff;stroke-width:0.666667"
       d="M 30.089846,9.7790804 A 3.8819529,3.8465893 0 0 0 28.058593,10.292102 L 13.941407,18.370226 A 3.8819529,3.8465893 0 0 0 12,21.700955 v 0.666667 a 3.8819529,3.8465893 0 0 1 1.941407,-3.33073 l 14.117186,-8.078124 a 3.8819529,3.8465893 0 0 1 2.031253,-0.513021 3.8819529,3.8465893 0 0 1 1.850261,0.513021 l 14.118485,8.078124 a 3.8819529,3.8465893 0 0 1 1.941406,3.33073 V 21.700955 A 3.8819529,3.8465893 0 0 0 46.058592,18.370226 L 31.940107,10.292102 A 3.8819529,3.8465893 0 0 0 30.089846,9.7790804 Z"
       id="path18" />
  </g>
  <g
     fill="#5e4aa6"
     id="g980"
     transform="translate(-68.748313,1.6203648e-5)">
    <circle
       cx="-1248.7"
       cy="-1241.6"
       r="0"
       id="circle970" />
    <circle
       cx="-1140.3"
       cy="-1301.8"
       r="0"
       id="circle972" />
    <circle
       cx="-1158.1"
       cy="-1246"
       r="0"
       id="circle974" />
    <circle
       cx="-1157.3"
       cy="-1267.7"
       r="0"
       id="circle976" />
    <circle
       cx="-57.756001"
       cy="-2.1829"
       r="0"
       fill-rule="evenodd"
       id="circle978" />
  </g>
  <g
     fill="#5e4aa6"
     id="g1020"
     transform="translate(-68.748313,1.6203648e-5)">
    <circle
       cx="-1318.4"
       cy="-1241.6"
       r="0"
       id="circle990" />
    <circle
       cx="-218.82001"
       cy="23.855"
       r="0"
       fill-rule="evenodd"
       id="circle992" />
    <g
       transform="translate(-69.666)"
       id="g1000">
      <circle
         cx="-1248.7"
         cy="-1241.6"
         r="0"
         id="circle994" />
      <circle
         cx="-1140.3"
         cy="-1301.8"
         r="0"
         id="circle996" />
      <circle
         cx="-1158.1"
         cy="-1246"
         r="0"
         id="circle998" />
    </g>
    <circle
       cx="-1227"
       cy="-1267.7"
       r="0"
       id="circle1002" />
    <circle
       cx="-127.42"
       cy="-2.1829"
       r="0"
       fill-rule="evenodd"
       id="circle1004" />
    <g
       transform="matrix(3.7796,0,0,3.7796,-176.46,-35.653)"
       stroke-width="0.26458"
       id="g1018">
      <circle
         cx="-330.35001"
         cy="-328.38"
         r="0"
         id="circle1006" />
      <circle
         cx="-312.10999"
         cy="-326.25"
         r="0"
         id="circle1008" />
      <circle
         cx="-306.01999"
         cy="-333.07001"
         r="0"
         id="circle1010" />
      <circle
         cx="-308.84"
         cy="-326.01001"
         r="0"
         id="circle1012" />
      <circle
         cx="-279"
         cy="-327.64999"
         r="0"
         id="circle1014" />
      <circle
         cx="11.912"
         cy="7.1715002"
         r="0"
         fill-rule="evenodd"
         id="circle1016" />
    </g>
  </g>
</svg>
