<?xml version="1.0" encoding="UTF-8"?>
<svg width="64" height="64" version="1.1" viewBox="0 0 16.933 16.933" xmlns="http://www.w3.org/2000/svg" xmlns:cc="http://creativecommons.org/ns#" xmlns:dc="http://purl.org/dc/elements/1.1/" xmlns:rdf="http://www.w3.org/1999/02/22-rdf-syntax-ns#">
 <defs>
  <filter id="filter11290" x="-.024" y="-.024" width="1.048" height="1.048" color-interpolation-filters="sRGB">
   <feGaussianBlur stdDeviation="0.15875313"/>
  </filter>
  <linearGradient id="linearGradient1005" x1=".73911" x2="16.388" y1="16.296" y2=".64687" gradientTransform="matrix(1 0 0 1 11.059 3.9187)" gradientUnits="userSpaceOnUse">
   <stop stop-color="#dc2828" offset="0"/>
   <stop stop-color="#ff4141" offset="1"/>
  </linearGradient>
 </defs>
 <metadata>
  <rdf:RDF>
   <cc:Work rdf:about="">
    <dc:format>image/svg+xml</dc:format>
    <dc:type rdf:resource="http://purl.org/dc/dcmitype/StillImage"/>
    <dc:title/>
   </cc:Work>
  </rdf:RDF>
 </metadata>
 <g transform="translate(-11.094 -3.9121)">
  <circle transform="matrix(1 0 0 1 11.094 3.9121)" cx="8.4665" cy="8.4665" r="7.9377" filter="url(#filter11290)" opacity=".25" stroke-width=".14032"/>
  <path d="m27.498 12.379c0 0.95155-0.16749 1.8639-0.47466 2.7093-0.21351 0.58769-0.4944 1.1433-0.83394 1.6572-0.14222 0.21608-0.29514 0.42476-0.45746 0.62529-0.51967 0.6418-1.1372 1.2007-1.8305 1.6543-0.2553 0.16718-0.52065 0.32012-0.79536 0.45712-1.0668 0.5339-2.2712 0.83423-3.5457 0.83423-1.2745 0-2.4789-0.30033-3.5457-0.83426-0.27474-0.13705-0.54041-0.28998-0.79571-0.45712-0.70207-0.45974-1.327-1.0274-1.8509-1.6798-0.16263-0.20216-0.31525-0.41275-0.45746-0.63079-0.33046-0.50541-0.60423-1.0507-0.81351-1.627-0.30713-0.84532-0.47432-1.7573-0.47432-2.7085 0-4.3839 3.5539-7.9378 7.9378-7.9378 2.2005 0 4.1918 0.89551 5.6295 2.3417 0.41436 0.41664 0.78274 0.87932 1.0963 1.3795 0.29647 0.47109 0.5443 0.97584 0.73705 1.5068 0.30718 0.84561 0.47469 1.7579 0.47469 2.7093z" fill="url(#linearGradient1005)" stroke-width=".031006"/>
  <g stroke-width=".17639">
   <path d="m19.584 7.0873a1.0271 1.0177 0 0 0-0.53757 0.13595l-3.7353 2.137a1.0271 1.0177 0 0 0-0.5135 0.88129v4.2741a1.0271 1.0177 0 0 0 0.5135 0.88129l3.7353 2.137a1.0271 1.0177 0 0 0 1.027 0l3.7357-2.137a1.0271 1.0177 0 0 0 0.5135-0.88129v-4.2741a1.0271 1.0177 0 0 0-0.5135-0.88129l-3.7357-2.137a1.0271 1.0177 0 0 0-0.48943-0.13595z" fill="#fff"/>
   <path d="m19.584 7.0875a1.0271 1.0177 0 0 0-0.53754 0.13584l-3.7354 2.1369a1.0271 1.0177 0 0 0-0.43522 0.49511l4.6842 2.2713 4.6847-2.2718a1.0271 1.0177 0 0 0-0.43571-0.49462l-3.7359-2.1369a1.0271 1.0177 0 0 0-0.48908-0.13584z" fill="#dcdcdc" opacity=".3"/>
   <path d="m23.809 9.3603a1.0271 1.0177 0 0 1 0.04798 0.02953 1.0271 1.0177 0 0 0-0.04798-0.02953zm0.06169 0.039373a1.0271 1.0177 0 0 1 0.06805 0.049216 1.0271 1.0177 0 0 0-0.06805-0.049216zm0.09547 0.072839a1.0271 1.0177 0 0 1 0.04945 0.044294 1.0271 1.0177 0 0 0-0.04945-0.044294zm0.06511 0.060535a1.0271 1.0177 0 0 1 0.05581 0.061027 1.0271 1.0177 0 0 0-0.05581-0.061027zm0.05581 0.061027a1.0271 1.0177 0 0 1 0.11358 0.16783 1.0271 1.0177 0 0 0-0.11358-0.16783zm0.1175 0.17619a1.0271 1.0177 0 0 1 0.04014 0.084651 1.0271 1.0177 0 0 0-0.04014-0.084651zm0.04014 0.084651-4.6847 2.2718v5.5427a1.0271 1.0177 0 0 0 0.51307-0.13534l3.7359-2.1369a1.0271 1.0177 0 0 0 0.51355-0.88145v-4.2739a1.0271 1.0177 0 0 0-0.07784-0.38683z" fill="#c8c8c8" opacity=".3"/>
  </g>
  <path d="m19.584 7.0874a1.0271 1.0177 0 0 0-0.53744 0.13574l-3.7352 2.1373a1.0271 1.0177 0 0 0-0.51366 0.88126v0.17639a1.0271 1.0177 0 0 1 0.51366-0.88126l3.7352-2.1373a1.0271 1.0177 0 0 1 0.53744-0.13574 1.0271 1.0177 0 0 1 0.48955 0.13574l3.7355 2.1373a1.0271 1.0177 0 0 1 0.51366 0.88126v-0.17639a1.0271 1.0177 0 0 0-0.51366-0.88126l-3.7355-2.1373a1.0271 1.0177 0 0 0-0.48955-0.13574z" fill="#fff" opacity=".2" stroke-width=".17639"/>
 </g>
</svg>
