<?xml version="1.0" encoding="UTF-8"?>
<svg width="64" height="64" version="1.1" viewBox="0 0 16.933 16.933" xmlns="http://www.w3.org/2000/svg" xmlns:cc="http://creativecommons.org/ns#" xmlns:dc="http://purl.org/dc/elements/1.1/" xmlns:rdf="http://www.w3.org/1999/02/22-rdf-syntax-ns#" xmlns:xlink="http://www.w3.org/1999/xlink">
 <defs>
  <filter id="filter11290-6" x="-.024" y="-.024" width="1.048" height="1.048" color-interpolation-filters="sRGB">
   <feGaussianBlur stdDeviation="0.15875313"/>
  </filter>
  <linearGradient id="linearGradient1005-9" x1=".73911" x2="16.388" y1="16.296" y2=".64687" gradientTransform="matrix(1 0 0 1 1.9871 3.1153)" gradientUnits="userSpaceOnUse">
   <stop stop-color="#323741" offset="0"/>
   <stop stop-color="#465064" offset="1"/>
  </linearGradient>
 </defs>
 <metadata>
  <rdf:RDF>
   <cc:Work rdf:about="">
    <dc:format>image/svg+xml</dc:format>
    <dc:type rdf:resource="http://purl.org/dc/dcmitype/StillImage"/>
    <dc:title/>
   </cc:Work>
  </rdf:RDF>
 </metadata>
 <g transform="translate(-2.0222 -3.1089)">
  <circle transform="matrix(1 0 0 1 1.995 3.1154)" cx="8.4937" cy="8.46" r="7.9377" filter="url(#filter11290-6)" opacity=".25" stroke-width=".14032"/>
  <path d="m18.426 11.576c0 0.95155-0.16749 1.8639-0.47466 2.7093-0.21351 0.58769-0.4944 1.1433-0.83394 1.6572-0.14222 0.21608-0.29514 0.42476-0.45746 0.62529-0.51967 0.6418-1.1372 1.2007-1.8305 1.6543-0.2553 0.16718-0.52065 0.32009-0.79536 0.45712-1.0668 0.5339-2.2712 0.83423-3.5457 0.83423-1.2745 0-2.4789-0.30033-3.5457-0.83426-0.27474-0.13705-0.54041-0.28998-0.79571-0.45712-0.70207-0.45974-1.327-1.0274-1.8509-1.6798-0.16263-0.20216-0.31525-0.41275-0.45746-0.63079-0.33046-0.50541-0.60423-1.0507-0.81351-1.627-0.30713-0.84532-0.47432-1.7573-0.47432-2.7085 0-4.3839 3.5539-7.9378 7.9378-7.9378 2.2005 0 4.1918 0.89551 5.6295 2.3417 0.41436 0.41664 0.78274 0.87932 1.0963 1.3795 0.29647 0.47109 0.5443 0.97584 0.73705 1.5068 0.30718 0.84561 0.47469 1.7579 0.47469 2.7093z" fill="url(#linearGradient1005-9)" stroke-width=".031006"/>
  <path d="m12.684 9.4604c0.12144 0.00741 0.25215 0 0.39529 0.099219 1.2782 0.55007 0.42095 2.059-1.2084 3.2067-0.0098-0.21643-0.09975-0.68765-0.09763-0.89509 1.3901-0.95303 2.2032-1.8807 1.3174-2.2484-0.93398-0.38761-1.224 0.67072-1.2404 2.2072-0.08705 0.09022-0.68977 0.49054-0.78132 0.55377 0.03387-1.401 0.77867-2.831 1.4944-2.9131 0.03836-0.00741 0.08017-0.00741 0.12065-0.00741m-1.3012 2.4376 0.29078-0.11324 0.24104 0.16245 0.04868 0.51118-0.30454 0.23363-0.12647 0.1696c-0.93768 0.62204-1.7365 1.1012-2.7877 1.497l-0.65537 0.09737h-0.43127c-0.39767-0.23442-0.1606-0.32465-1.6052-0.50483l1.628 0.12621c1.2557-0.48683 2.5374-1.1861 3.7031-1.9489m-2.8654 2.0394c-0.18838 0-1.6574-0.12753-2.2418-0.1815-0.57838-0.09022-1.2888-0.11721-1.1544 0.55906-0.15293-0.36063 0.19579-0.97287 0.69162-1.0808 0.76676-0.17145 1.9833 0.29845 2.4207 0.44265m-0.70485 0.18732c0.22807 0.09022 0.74904 0.15531 0.9951 0.23654-0.34872 0.18045-2.1003 0.82709-2.8234 0.69162-0.11562 0-0.60378-0.3511-0.61569-0.60378 0.037571 0.45985 2.1786 0.11721 2.444-0.33364m-0.47625 0.0082c0.18759-0.09022 1.0663-0.08573 1.2599-0.15769 1.1001 0.38497 2.5802 1.2885 3.6393 1.8979l0.30692 0.09022c0.05927 0.42095 0.31856 0.56594 0.5551 0.83846l-0.35851 0.36063-0.28046-0.45984c-1.2401-0.74824-3.6915-1.9574-5.1213-2.5379m5.1213 2.5379c0.15161 0.09022 0.29633 0.18044 0.43365 0.2704 0.31803 0.90249 0.68871 1.5102 1.0427 1.484-0.54689 0.26141-1.7248-1.0268-2.122-2.2386m2.122 2.2386c0.83423-0.49583-0.9316-1.3996-1.3282-1.6618-0.08916-0.25241 0.15478-0.67072 0.07514-0.96838 1.2454 0.77549 1.9815 1.8971 1.5637 2.4291-0.10054 0.12621-0.20717 0.18944-0.31274 0.19844m-1.2118-1.8891c-0.05794-0.2323-0.82709-0.76094-0.96599-0.84217-0.186-1.465-0.195-1.6097-0.35295-2.7485 0.09446-0.09022 0.67628-0.54372 0.76623-0.60669 0.11166 1.2171 0.32173 2.8665 0.61886 3.9682" fill="#d52337" stroke-width=".26458"/>
  <path d="m8.8976 3.7977c-0.78613 0.15994-1.531 0.43206-2.2196 0.79658v5.6216l1.1103-1.1103 1.1092 1.1092z" fill="#23aafa" stroke-width=".032515"/>
 </g>
</svg>
