<?xml version="1.0" encoding="UTF-8"?>
<svg width="64" height="64" version="1.1" viewBox="0 0 16.933 16.933" xmlns="http://www.w3.org/2000/svg" xmlns:cc="http://creativecommons.org/ns#" xmlns:dc="http://purl.org/dc/elements/1.1/" xmlns:rdf="http://www.w3.org/1999/02/22-rdf-syntax-ns#" xmlns:xlink="http://www.w3.org/1999/xlink">
 <defs>
  <filter id="filter11290-62" x="-.024" y="-.024" width="1.048" height="1.048" color-interpolation-filters="sRGB">
   <feGaussianBlur stdDeviation="0.15875313"/>
  </filter>
  <linearGradient id="linearGradient1005-61" x1="2.9667" x2="16.101" y1="14.069" y2=".93425" gradientTransform="matrix(1 0 0 1 -.044588 1.509)" gradientUnits="userSpaceOnUse">
   <stop stop-color="#ff7d50" offset="0"/>
   <stop stop-color="#fa4b5a" offset=".51596"/>
   <stop stop-color="#ff509b" offset="1"/>
  </linearGradient>
 </defs>
 <metadata>
  <rdf:RDF>
   <cc:Work rdf:about="">
    <dc:format>image/svg+xml</dc:format>
    <dc:type rdf:resource="http://purl.org/dc/dcmitype/StillImage"/>
    <dc:title/>
   </cc:Work>
  </rdf:RDF>
 </metadata>
 <g transform="translate(.009449 -1.5025)">
  <circle transform="matrix(1 0 0 1 -.036645 1.509)" cx="8.4937" cy="8.46" r="7.9377" filter="url(#filter11290-62)" opacity=".25" stroke-width=".14032"/>
  <path d="m16.395 9.9691c0 0.95155-0.1675 1.8639-0.47466 2.7093-0.21351 0.58769-0.4944 1.1433-0.83394 1.6572-0.14222 0.21609-0.29514 0.42476-0.45746 0.62529-0.51967 0.6418-1.1372 1.2007-1.8305 1.6543-0.2553 0.16718-0.52065 0.32009-0.79536 0.45712-1.0668 0.5339-2.2712 0.83423-3.5457 0.83423-1.2745 0-2.4789-0.30033-3.5457-0.83426-0.27474-0.13705-0.54041-0.28998-0.79571-0.45712-0.70207-0.45974-1.327-1.0274-1.8509-1.6798-0.16263-0.20216-0.31525-0.41275-0.45746-0.63079-0.33046-0.50541-0.60423-1.0507-0.81351-1.627-0.30713-0.84532-0.47432-1.7573-0.47432-2.7085 0-4.3839 3.5539-7.9378 7.9378-7.9378 2.2005 0 4.1918 0.89551 5.6295 2.3417 0.41436 0.41664 0.78274 0.87932 1.0963 1.3795 0.29647 0.47109 0.5443 0.97584 0.73705 1.5068 0.30718 0.84561 0.47469 1.7579 0.47469 2.7093z" fill="url(#linearGradient1005-61)" stroke-width=".031006"/>
  <path d="m4.6927 9.7022c0.27331 0.27548 0.71771 0.27641 0.9925 0.00209l2.7771-3.0559 2.7641 3.0676c0.27363 0.27548 0.71768 0.27641 0.9925 0.00209 0.27482-0.27432 0.27575-0.71956 0.0021-0.99502l-3.2155-3.5687c-0.14804-0.14885-0.34547-0.21476-0.53978-0.20293-0.19391-0.012668-0.39195 0.05248-0.54062 0.20064l-3.2306 3.5552c-0.27448 0.27432-0.2754 0.71956-0.00209 0.99504zm3.7611 2.9707c-0.63865-0.0013-1.1575 0.51591-1.1588 1.1553-0.00135 0.63942 0.51528 1.1589 1.1539 1.1602 0.63865 0.0013 1.1575-0.51591 1.1588-1.1553 0.00135-0.63942-0.51528-1.1589-1.1539-1.1602zm0.00702-3.3078c-0.63865-0.00135-1.1575 0.51591-1.1588 1.1553-0.00135 0.63942 0.51528 1.1589 1.1539 1.1602 0.63865 0.0014 1.1575-0.51588 1.1588-1.1553 0.0013494-0.63942-0.51528-1.1589-1.1539-1.1602z" fill="#fff" stroke-width=".68194"/>
 </g>
</svg>
