<?xml version="1.0" encoding="UTF-8"?>
<svg width="64" height="64" version="1.1" viewBox="0 0 16.933 16.933" xmlns="http://www.w3.org/2000/svg" xmlns:cc="http://creativecommons.org/ns#" xmlns:dc="http://purl.org/dc/elements/1.1/" xmlns:rdf="http://www.w3.org/1999/02/22-rdf-syntax-ns#" xmlns:xlink="http://www.w3.org/1999/xlink">
 <defs>
  <filter id="filter11290-9" x="-.024" y="-.024" width="1.048" height="1.048" color-interpolation-filters="sRGB">
   <feGaussianBlur stdDeviation="0.15875313"/>
  </filter>
  <linearGradient id="linearGradient1005-3" x1="2.9667" x2="16.101" y1="14.069" y2=".93425" gradientTransform="matrix(1 0 0 1 .75861 2.1705)" gradientUnits="userSpaceOnUse">
   <stop stop-color="#ff7d50" offset="0"/>
   <stop stop-color="#fa4b5a" offset=".51596"/>
   <stop stop-color="#ff509b" offset="1"/>
  </linearGradient>
 </defs>
 <metadata>
  <rdf:RDF>
   <cc:Work rdf:about="">
    <dc:format>image/svg+xml</dc:format>
    <dc:type rdf:resource="http://purl.org/dc/dcmitype/StillImage"/>
    <dc:title/>
   </cc:Work>
  </rdf:RDF>
 </metadata>
 <g transform="translate(-.79375 -2.1639)">
  <circle transform="matrix(1 0 0 1 .76655 2.1704)" cx="8.4937" cy="8.46" r="7.9377" filter="url(#filter11290-9)" opacity=".25" stroke-width=".14032"/>
  <path d="m17.198 10.631c0 0.95155-0.16749 1.8639-0.47466 2.7093-0.21351 0.58769-0.4944 1.1433-0.83394 1.6572-0.14222 0.21608-0.29514 0.42476-0.45746 0.62529-0.51967 0.6418-1.1372 1.2007-1.8305 1.6543-0.2553 0.16718-0.52065 0.32009-0.79536 0.45712-1.0668 0.5339-2.2712 0.83423-3.5457 0.83423-1.2745 0-2.4789-0.30033-3.5457-0.83426-0.27474-0.13705-0.54041-0.28998-0.79571-0.45712-0.70207-0.45974-1.327-1.0274-1.8509-1.6798-0.16263-0.20216-0.31525-0.41275-0.45746-0.63079-0.33046-0.50541-0.60423-1.0507-0.81351-1.627-0.30713-0.84532-0.47432-1.7573-0.47432-2.7085 0-4.3839 3.5539-7.9378 7.9378-7.9378 2.2005 0 4.1918 0.89551 5.6295 2.3417 0.41436 0.41664 0.78274 0.87932 1.0963 1.3795 0.29646 0.47109 0.5443 0.97584 0.73705 1.5068 0.30718 0.84561 0.47469 1.7579 0.47469 2.7093z" fill="url(#linearGradient1005-3)" stroke-width=".031006"/>
  <path d="m10.386 6.0073c-0.76777 0.058401-1.323 0.55092-1.6388 1.4747-0.45903 1.3326-1.2339 2.1256-2.5929 2.6431-0.8041 0.30448-1.0865 0.50924-1.3369 0.99036-0.20156 0.38674-0.24358 0.95438-0.11254 1.428 0.087604 0.31589 0.54237 0.83759 0.89847 1.0224 0.33509 0.17663 0.96684 0.19906 1.8974 0.05698 0.5452-0.08333 0.67733-0.0876 1.1798 0.01103 0.70511 0.13924 1.3718 0.47577 1.9419 0.96827 0.52705 0.45619 0.73716 0.56481 1.1449 0.63032 0.39492 0.06125 0.69977 0.02243 1.1004-0.146 0.3561-0.15028 0.74962-0.55234 0.90988-0.92377 0.05983-0.13639 0.11146-0.43945 0.11253-0.68588 0.0014-0.53131-0.16132-0.89456-0.58439-1.3842-0.41309-0.4772-0.70652-0.95295-0.8764-1.4173-0.20049-0.55092-0.24358-1.6581-0.089027-2.3511 0.17236-0.77634 0.027791-1.3144-0.48255-1.7984-0.36039-0.34081-0.65098-0.47863-1.1353-0.51745-0.11823-0.00961-0.22685-0.00819-0.33652 0m-0.74144 3.5094c0.39351-0.00961 0.80126 0.13782 1.1239 0.44942 0.79841 0.77491 0.60931 2.0213-0.38246 2.5206-0.31303 0.15705-0.8237 0.19195-1.1784 0.07799-0.33509-0.10719-0.73716-0.44513-0.92091-0.78737-0.079415-0.14458-0.11147-0.38105-0.11254-0.69834-0.0013759-0.39778 0.02921-0.5121 0.19052-0.78737 0.28951-0.49392 0.77348-0.76385 1.2799-0.77491" fill="#fff" fill-opacity=".84677" stroke-width=".34568"/>
 </g>
</svg>
