<?xml version="1.0" encoding="UTF-8"?>
<svg width="64" height="64" version="1.1" viewBox="0 0 16.933 16.933" xmlns="http://www.w3.org/2000/svg" xmlns:cc="http://creativecommons.org/ns#" xmlns:dc="http://purl.org/dc/elements/1.1/" xmlns:rdf="http://www.w3.org/1999/02/22-rdf-syntax-ns#" xmlns:xlink="http://www.w3.org/1999/xlink">
 <defs>
  <filter id="filter11290-8" x="-.024" y="-.024" width="1.048" height="1.048" color-interpolation-filters="sRGB">
   <feGaussianBlur stdDeviation="0.15875313"/>
  </filter>
  <linearGradient id="linearGradient1005-79" x1=".73911" x2="16.388" y1="16.296" y2=".64687" gradientTransform="matrix(1 0 0 1 2.2233 1.32)" gradientUnits="userSpaceOnUse">
   <stop stop-color="#dc2828" offset="0"/>
   <stop stop-color="#ff4141" offset="1"/>
  </linearGradient>
 </defs>
 <metadata>
  <rdf:RDF>
   <cc:Work rdf:about="">
    <dc:format>image/svg+xml</dc:format>
    <dc:type rdf:resource="http://purl.org/dc/dcmitype/StillImage"/>
    <dc:title/>
   </cc:Work>
  </rdf:RDF>
 </metadata>
 <g transform="translate(-2.2584 -1.3135)">
  <circle transform="matrix(1 0 0 1 2.2584 1.3135)" cx="8.4665" cy="8.4665" r="7.9377" filter="url(#filter11290-8)" opacity=".25" stroke-width=".14032"/>
  <g fill="#fff">
   <path d="m8.3328 5.051 2.3923 4.1436 2.3923-4.1436z" opacity=".5"/>
   <path d="m8.3328 14.509 2.3923-4.1436 2.3923 4.1436z" opacity=".5"/>
   <path d="m13.624 5.3438-2.3923 4.1436 4.7846 5e-7z" opacity=".5"/>
   <path d="m5.4334 10.073 4.7846 4e-6 -2.3923 4.1436z" opacity=".5"/>
   <path d="m16.017 10.073-4.7846 5e-6 2.3923 4.1436z" opacity=".5"/>
   <path d="m7.8257 5.3438 2.3923 4.1436-4.7846 6e-7z" opacity=".5"/>
  </g>
  <path d="m18.663 9.7801c0 0.95156-0.16749 1.8639-0.47465 2.7095-0.21351 0.58769-0.4944 1.1433-0.83395 1.6572-0.14222 0.21608-0.29514 0.42476-0.45747 0.6253-0.51967 0.6418-1.1372 1.2007-1.8305 1.6543-0.2553 0.16718-0.52066 0.32011-0.79538 0.45713-1.0668 0.5339-2.2711 0.83423-3.5457 0.83423-1.2745 0-2.4788-0.30033-3.5457-0.83426-0.27475-0.13705-0.54041-0.28998-0.79572-0.45713-0.70208-0.45974-1.327-1.0274-1.8509-1.6798-0.16263-0.20216-0.31525-0.41276-0.45747-0.63079-0.33047-0.50541-0.60422-1.0507-0.81352-1.627-0.30712-0.84531-0.47431-1.7573-0.47431-2.7086 0-4.3839 3.5538-7.9377 7.9377-7.9377 2.2005 0 4.1918 0.8955 5.6296 2.3417 0.41437 0.41663 0.78276 0.87931 1.0963 1.3795 0.29646 0.47108 0.54429 0.97584 0.73706 1.5068 0.30719 0.84561 0.47468 1.7579 0.47468 2.7095z" fill="url(#linearGradient1005-79)" stroke-width=".031006"/>
  <g fill="#fff">
   <path d="m11.62 7.6454c-0.2893-0.070309-0.58354-0.13126-0.89452-0.13126s-0.60522 0.06095-0.89452 0.13126l0.38912 0.67386c0.16043-0.055576 0.32608-0.10232 0.5054-0.10232 0.17932 0 0.34503 0.046786 0.5054 0.10232z" opacity=".5"/>
   <path d="m8.333 5.0512 1.4976 2.5942c0.2893-0.070309 0.58354-0.13126 0.89452-0.13126s0.60522 0.06095 0.89452 0.13126l1.4976-2.5942z" opacity=".5"/>
   <path d="m9.8306 11.915-1.4976 2.5942h4.7842l-1.4976-2.5942c-0.2893 0.07031-0.58354 0.13126-0.89452 0.13126s-0.60522-0.06095-0.89452-0.13126z" opacity=".5"/>
   <path d="m9.8306 11.915c0.2893 0.07031 0.58354 0.13126 0.89452 0.13126s0.60522-0.06095 0.89452-0.13126l-0.38861-0.67334c-0.16057 0.05573-0.32642 0.10232-0.50591 0.10232-0.1795 0-0.34541-0.04668-0.50591-0.10232z" opacity=".5"/>
   <path d="m10.5 10.755a1.0008 1.0008 0 0 0 0.01033 0.0026 1.0008 1.0008 0 0 0 0.04237 0.0083 1.0008 1.0008 0 0 0 0.04237 0.0067 1.0008 1.0008 0 0 0 0.04341 0.0047 1.0008 1.0008 0 0 0 0.04289 0.0026 1.0008 1.0008 0 0 0 0.04341 1e-3 1.0008 1.0008 0 0 0 0.01447 0 1.0008 1.0008 0 0 0 0.04289-0.0016 1.0008 1.0008 0 0 0 0.04341-0.0036 1.0008 1.0008 0 0 0 0.04289-0.0052 1.0008 1.0008 0 0 0 0.04289-0.0072 1.0008 1.0008 0 0 0 0.03824-0.0083l-0.22479-0.38913z" opacity=".5"/>
   <path d="m14.03 9.4871c-0.12908-0.23163-0.2577-0.46435-0.43046-0.66301-0.2327-0.26756-0.50217-0.50253-0.80047-0.6966-0.18888-0.12289-0.40645-0.19801-0.6165-0.28629l-0.44493 0.77101c0.02846 0.024646 0.06693 0.036435 0.09353 0.063045 0.14143 0.14147 0.25579 0.30958 0.33486 0.49661 0.04095 0.096856 0.04274 0.20957 0.06356 0.31523z" opacity=".5"/>
   <path d="m13.625 5.3437-1.4423 2.4975c0.21005 0.088282 0.42762 0.1634 0.6165 0.28629 0.29829 0.19407 0.56777 0.42903 0.80047 0.6966 0.17277 0.19866 0.30138 0.43138 0.43046 0.66301h1.987z" opacity=".5"/>
   <path d="m7.4204 10.073h-1.987l2.3921 4.1434 1.4423-2.4975c-0.21005-0.088282-0.42762-0.1634-0.6165-0.28629-0.29829-0.19407-0.56777-0.42904-0.80047-0.6966-0.17277-0.19866-0.30138-0.43138-0.43046-0.66301z" opacity=".5"/>
   <path d="m7.4204 10.073c0.12908 0.23163 0.2577 0.46435 0.43046 0.66301 0.2327 0.26756 0.50217 0.50253 0.80047 0.6966 0.18888 0.12289 0.40645 0.198 0.6165 0.28629l0.44442-0.76998c-0.028356-0.024572-0.066504-0.036523-0.093018-0.063045-0.14143-0.14148-0.25579-0.3101-0.33486-0.49713-0.041048-0.097088-0.04274-0.20982-0.063562-0.31574z" opacity=".5"/>
   <path d="m12.182 11.719 1.4423 2.4975 2.3921-4.1434h-1.987c-0.12908 0.23163-0.2577 0.46435-0.43046 0.66301-0.2327 0.26756-0.50217 0.50253-0.80047 0.6966-0.18888 0.12289-0.40645 0.198-0.6165 0.28629z" opacity=".5"/>
   <path d="m12.182 11.719c0.21005-0.08828 0.42762-0.1634 0.6165-0.28629 0.29829-0.19407 0.56777-0.42903 0.80047-0.6966 0.17277-0.19866 0.30138-0.43138 0.43046-0.66301h-1.8004c-0.02084 0.10594-0.02299 0.21864-0.06408 0.31574-0.07913 0.18703-0.19339 0.35565-0.33486 0.49713-0.02645 0.02645-0.06473 0.03801-0.09302 0.06253z" opacity=".5"/>
   <path d="m9.2678 7.8412c-0.21005 0.088282-0.42762 0.1634-0.6165 0.28629-0.29829 0.19407-0.56777 0.42903-0.80047 0.6966-0.17277 0.19866-0.30138 0.43138-0.43046 0.66301h1.8009c0.020844-0.10569 0.02259-0.21837 0.063562-0.31523 0.079131-0.18706 0.19339-0.3557 0.33486-0.49713 0.026453-0.026445 0.064732-0.038026 0.093017-0.062529z" opacity=".5"/>
   <path d="m7.8255 5.3437-2.3921 4.1434h1.987c0.12908-0.23163 0.2577-0.46435 0.43046-0.66301 0.2327-0.26756 0.50217-0.50253 0.80047-0.6966 0.18888-0.12289 0.40645-0.19801 0.6165-0.28629z" opacity=".5"/>
   <path d="m10.711 8.7792a1.0008 1.0008 0 0 0-0.9865 1.0005 1.0008 1.0008 0 0 0 1.001 1.001 1.0008 1.0008 0 0 0 1.001-1.001 1.0008 1.0008 0 0 0-1.001-1.0005 1.0008 1.0008 0 0 0-0.01447 0z"/>
   <path d="m10.725 7.5141c-1.5299 0-2.8484 0.90153-3.4541 2.203-0.018603 0.039438-0.018603 0.085909 0 0.12609 0.6057 1.3014 1.9242 2.203 3.4541 2.203 1.5299 0 2.8484-0.90153 3.4541-2.203 0.0186-0.039438 0.0186-0.085909 0-0.12609-0.6057-1.3014-1.9242-2.203-3.4541-2.203zm0 0.7028c0.86391 0 1.5632 0.70057 1.5632 1.5637 0 0.86316-0.70005 1.5632-1.5632 1.5632-0.86391 0-1.5632-0.70005-1.5632-1.5632 0-0.86391 0.70005-1.5637 1.5632-1.5637z"/>
  </g>
 </g>
</svg>
