<?xml version="1.0" encoding="UTF-8"?>
<svg width="64" height="64" version="1.1" viewBox="0 0 16.933 16.933" xmlns="http://www.w3.org/2000/svg" xmlns:cc="http://creativecommons.org/ns#" xmlns:dc="http://purl.org/dc/elements/1.1/" xmlns:rdf="http://www.w3.org/1999/02/22-rdf-syntax-ns#" xmlns:xlink="http://www.w3.org/1999/xlink">
 <defs>
  <filter id="e" x="-.34809" y="-.144" width="1.6962" height="1.288" color-interpolation-filters="sRGB">
   <feGaussianBlur stdDeviation="0.59999875"/>
  </filter>
  <linearGradient id="c" x1="31.458" x2="31.458" y1="51.726" y2="62.898" gradientTransform="matrix(.32565 0 0 .32565 -1.7776 -7.7826)" gradientUnits="userSpaceOnUse">
   <stop stop-color="#1776ff" offset="0"/>
   <stop stop-color="#2fceff" offset="1"/>
  </linearGradient>
  <linearGradient id="linearGradient941" x1="31.458" x2="31.458" y1="36.898" y2="59.898" gradientTransform="matrix(.32565 0 0 .32565 -1.7776 -7.7826)" gradientUnits="userSpaceOnUse">
   <stop stop-color="#ff5514" offset="0"/>
   <stop stop-color="#ff9014" offset="1"/>
  </linearGradient>
  <linearGradient id="a" x1="31.458" x2="31.458" y1="46.898" y2="56.898" gradientTransform="matrix(.32565 0 0 .32565 -1.7776 -7.7826)" gradientUnits="userSpaceOnUse">
   <stop stop-color="#c0e5fb" offset="0"/>
   <stop stop-color="#c3faff" offset="1"/>
  </linearGradient>
  <filter id="filter11290" x="-.024" y="-.024" width="1.048" height="1.048" color-interpolation-filters="sRGB">
   <feGaussianBlur stdDeviation="0.15875313"/>
  </filter>
  <linearGradient id="linearGradient1005" x1=".73911" x2="16.388" y1="16.296" y2=".64687" gradientTransform="translate(-.034805 .0066193)" gradientUnits="userSpaceOnUse">
   <stop stop-color="#dddfe1" offset="0"/>
   <stop stop-color="#f3f4f6" offset="1"/>
  </linearGradient>
 </defs>
 <metadata>
  <rdf:RDF>
   <cc:Work rdf:about="">
    <dc:format>image/svg+xml</dc:format>
    <dc:type rdf:resource="http://purl.org/dc/dcmitype/StillImage"/>
   </cc:Work>
  </rdf:RDF>
 </metadata>
 <circle cx="8.4665" cy="8.4665" r="7.9377" filter="url(#filter11290)" opacity=".25" stroke-width=".14032"/>
 <path d="m16.404 8.4666c0 0.95153-0.16749 1.8639-0.47465 2.7093-0.21351 0.58768-0.49439 1.1433-0.83392 1.6572-0.14222 0.21608-0.29514 0.42475-0.45746 0.62528-0.51966 0.64179-1.1372 1.2007-1.8305 1.6543-0.2553 0.16718-0.52064 0.32011-0.79535 0.45711-1.0668 0.53389-2.2711 0.83421-3.5456 0.83421s-2.4788-0.30032-3.5456-0.83424c-0.27474-0.13705-0.5404-0.28998-0.79569-0.45711-0.70206-0.45973-1.327-1.0274-1.8509-1.6798-0.16263-0.20216-0.31524-0.41274-0.45746-0.63078-0.33046-0.5054-0.60422-1.0507-0.8135-1.627-0.30712-0.8453-0.47431-1.7573-0.47431-2.7085 0-4.3838 3.5538-7.9376 7.9376-7.9376 2.2005 0 4.1917 0.89549 5.6294 2.3417 0.41436 0.41663 0.78273 0.8793 1.0963 1.3795 0.29646 0.47108 0.54429 0.97582 0.73704 1.5068 0.30718 0.84559 0.47468 1.7579 0.47468 2.7093z" fill="url(#linearGradient1005)" stroke-width=".031006"/>
 <g clip-rule="evenodd" fill-rule="evenodd">
  <path transform="matrix(.32565 0 0 .32565 -1.7776 -7.7829)" d="m29.39 51.726-0.93164 2.1719 3 9 3-9-0.93164-2.1719z" enable-background="new" filter="url(#e)" opacity=".35" style="paint-order:normal"/>
  <path transform="matrix(.32565 0 0 .32565 -1.7776 -7.7829)" d="m29.458 36.898-9 23h4l7-17 7 17h4l-9-23z" enable-background="new" filter="url(#e)" opacity=".35" style="paint-order:normal"/>
  <path transform="matrix(.32565 0 0 .32565 -1.7776 -7.7829)" d="m31.458 46.898-2.0684 4.8281 2.0684 5.1719 2.0684-5.1719z" enable-background="new" filter="url(#e)" opacity=".35" style="paint-order:normal"/>
  <g stroke-width=".32565">
   <path d="m7.7932 9.0619-0.30339 0.70728 0.97695 2.9308 0.97695-2.9308-0.30339-0.70728z" enable-background="new" fill="url(#c)" style="paint-order:normal"/>
   <path d="m7.8153 4.2332-2.9308 7.4899h1.3026l2.2795-5.536 2.2795 5.536h1.3026l-2.9308-7.4899z" enable-background="new" fill="url(#linearGradient941)" style="paint-order:normal"/>
   <path d="m8.467 7.4897-0.67357 1.5723 0.67357 1.6842 0.67357-1.6842z" enable-background="new" fill="url(#a)" style="paint-order:normal"/>
  </g>
 </g>
</svg>
