<?xml version="1.0" encoding="UTF-8" standalone="no"?>
<svg
   xmlns:dc="http://purl.org/dc/elements/1.1/"
   xmlns:cc="http://creativecommons.org/ns#"
   xmlns:rdf="http://www.w3.org/1999/02/22-rdf-syntax-ns#"
   xmlns:svg="http://www.w3.org/2000/svg"
   xmlns="http://www.w3.org/2000/svg"
   xmlns:sodipodi="http://sodipodi.sourceforge.net/DTD/sodipodi-0.dtd"
   xmlns:inkscape="http://www.inkscape.org/namespaces/inkscape"
   height="64"
   width="64"
   version="1.1"
   id="svg11"
   sodipodi:docname="alchemy.svg"
   inkscape:version="1.0.1 (3bc2e813f5, 2020-09-07)">
  <metadata
     id="metadata17">
    <rdf:RDF>
      <cc:Work
         rdf:about="">
        <dc:format>image/svg+xml</dc:format>
        <dc:type
           rdf:resource="http://purl.org/dc/dcmitype/StillImage" />
        <dc:title></dc:title>
      </cc:Work>
    </rdf:RDF>
  </metadata>
  <defs
     id="defs15">
    <linearGradient
       id="a-3"
       x1="-6.1472"
       x2="-6.1472"
       y1="-137.82"
       y2="-100.78"
       gradientTransform="matrix(2.0043985,0,0,2.0043985,-77.598601,255.17054)"
       gradientUnits="userSpaceOnUse">
      <stop
         stop-color="#14dc78"
         offset="0"
         id="stop844" />
      <stop
         stop-color="#14a03c"
         offset="1"
         id="stop846" />
    </linearGradient>
    <style
       type="text/css"
       id="style849" />
    <style
       type="text/css"
       id="style851" />
    <style
       type="text/css"
       id="style849-3" />
    <style
       type="text/css"
       id="style851-6" />
    <style
       type="text/css"
       id="style853" />
    <style
       type="text/css"
       id="style855" />
    <filter
       id="filter11290"
       x="-.024"
       y="-.024"
       width="1.048"
       height="1.048"
       color-interpolation-filters="sRGB">
      <feGaussianBlur
         stdDeviation="0.15875313"
         id="feGaussianBlur857" />
    </filter>
    <linearGradient
       id="linearGradient1005"
       x1=".73911"
       x2="16.388"
       y1="16.296"
       y2=".64687"
       gradientTransform="matrix(3.7796,0,0,3.7796,-0.13269,0.025278)"
       gradientUnits="userSpaceOnUse">
      <stop
         stop-color="#00dc96"
         offset="0"
         id="stop860" />
      <stop
         stop-color="#14d29b"
         offset="1"
         id="stop862" />
    </linearGradient>
    <style
       type="text/css"
       id="style865" />
    <style
       type="text/css"
       id="style867" />
    <style
       type="text/css"
       id="style869" />
  </defs>
  <sodipodi:namedview
     pagecolor="#ffffff"
     bordercolor="#666666"
     borderopacity="1"
     objecttolerance="10"
     gridtolerance="10"
     guidetolerance="10"
     inkscape:pageopacity="0"
     inkscape:pageshadow="2"
     inkscape:window-width="1920"
     inkscape:window-height="932"
     id="namedview13"
     showgrid="false"
     inkscape:zoom="2.8173786"
     inkscape:cx="-10.565981"
     inkscape:cy="-2.8335234"
     inkscape:window-x="0"
     inkscape:window-y="36"
     inkscape:window-maximized="1"
     inkscape:current-layer="svg11"
     inkscape:document-rotation="0" />
  <linearGradient
     id="a"
     gradientTransform="matrix(1.0454546,0,0,1.3529412,-413.1928,-716.94935)"
     gradientUnits="userSpaceOnUse"
     x1="409.57144"
     x2="409.57144"
     y1="542.79797"
     y2="507.798">
    <stop
       offset="0"
       stop-color="#0bac83"
       id="stop2" />
    <stop
       offset="1"
       stop-color="#10da96"
       id="stop4" />
  </linearGradient>
  <circle
     transform="matrix(3.7796,0,0,3.7796,1.6203648e-5,1.6203648e-5)"
     cx="8.4665003"
     cy="8.4665003"
     r="7.9376998"
     filter="url(#filter11290)"
     opacity="0.25"
     stroke-width="0.14032"
     id="circle939" />
  <path
     d="m 62.0004,32.00045 c 0,3.5964 -0.63304,7.0448 -1.794,10.24 -0.80698,2.2212 -1.8686,4.3212 -3.1519,6.2636 -0.53754,0.8167 -1.1155,1.6054 -1.729,2.3633 -1.9641,2.4257 -4.2982,4.5382 -6.9186,6.2526 -0.96493,0.63187 -1.9678,1.2099 -3.0061,1.7277 -4.0321,2.0179 -8.5839,3.153 -13.401,3.153 -4.8171,0 -9.3689,-1.1351 -13.401,-3.1531 -1.0384,-0.518 -2.0425,-1.096 -3.0074,-1.7277 -2.6535,-1.7376 -5.0155,-3.8832 -6.9957,-6.349 -0.61468,-0.76408 -1.1915,-1.56 -1.729,-2.3841 -1.249,-1.9102 -2.2837,-3.9712 -3.0747,-6.1494 -1.1608,-3.1949 -1.7927,-6.6419 -1.7927,-10.237 0,-16.569 13.432,-30.001 30.001,-30.001 8.317,0 15.843,3.3846 21.277,8.8507 1.5661,1.5747 2.9584,3.3234 4.1436,5.214 1.1205,1.7805 2.0572,3.6882 2.7857,5.6951 1.161,3.196 1.7941,6.6442 1.7941,10.24 z"
     fill="url(#linearGradient1005)"
     stroke-width="0.11719"
     id="path941"
     style="fill:url(#linearGradient1005)" />
  <circle
     cx="-1369.803"
     cy="-1258.0385"
     r="0"
     fill="#5e4aa6"
     stroke-width="1.00001"
     id="circle855" />
  <path
     d="M 47.615359,43.319921 38.433049,26.331796 V 16.211619 c 0,-0.952433 -0.79677,-1.711619 -1.74843,-1.711619 h -9.3725 c -0.95243,0 -1.73616,0.759186 -1.73616,1.711619 v 10.120177 l -9.18998,16.988125 c -0.7009,1.295217 -0.66563,2.868036 0.0882,4.134111 0.75382,1.264544 2.12112,2.045968 3.59348,2.045968 h 23.86067 c 1.47236,0 2.84273,-0.781424 3.59655,-2.045968 0.75305,-1.266075 0.79139,-2.838895 0.0905,-4.134111 z m -14.09938,-7.107206 c 0.82283,0 1.48923,0.666395 1.48923,1.48923 0,0.822068 -0.66793,1.489232 -1.48923,1.489232 -0.82207,0 -1.48924,-0.667164 -1.48924,-1.489232 0,-0.820533 0.6664,-1.48923 1.48924,-1.48923 z m -4.1878,-8.954559 c 0.82284,0 1.48924,0.667164 1.48924,1.489998 0,0.822068 -0.6664,1.489232 -1.48924,1.489232 -0.82283,0 -1.48923,-0.667164 -1.48923,-1.489232 7.7e-4,-0.822834 0.6664,-1.489998 1.48923,-1.489998 z m 0,5.199272 c 1.3328,0 2.41406,1.081265 2.41406,2.413292 0,1.332792 -1.08126,2.41329 -2.41406,2.41329 -1.33356,0 -2.41405,-1.080498 -2.41405,-2.41329 0,-1.332794 1.08049,-2.413292 2.41405,-2.413292 z m 13.8632,12.380864 c -0.30981,0.527597 -0.87652,0.838939 -1.48617,0.838939 h -19.41445 c -0.61041,0 -1.17635,-0.311342 -1.48616,-0.838939 -0.30981,-0.527595 -0.31825,-1.171753 -0.0215,-1.707018 l 2.33354,-4.194693 c 0.33281,-0.59968 0.98924,-0.94323 1.67174,-0.878048 3.09886,0.295239 6.58191,2.946254 9.69457,2.828158 1.66714,-0.06365 3.21465,-0.670997 4.68855,-1.483095 0.83204,-0.460113 1.87879,-0.158739 2.34044,0.67253 l 1.70165,3.053615 c 0.29524,0.536031 0.28757,1.181722 -0.0222,1.708551 z"
     fill="#ffffff"
     fill-opacity="0.850806"
     id="path879"
     style="fill:#ffffff;fill-opacity:1;stroke-width:0.766854" />
  <g
     fill="#5e4aa6"
     id="g917"
     transform="translate(-77.267095,-30.441819)">
    <circle
       cx="-1248.7"
       cy="-1241.6"
       r="0"
       id="circle873" />
    <circle
       cx="-149.14999"
       cy="23.855"
       r="0"
       fill-rule="evenodd"
       id="circle875" />
    <circle
       cx="-1248.7"
       cy="-1241.6"
       r="0"
       id="circle877" />
    <circle
       cx="-149.14999"
       cy="23.855"
       r="0"
       fill-rule="evenodd"
       id="circle879" />
    <circle
       cx="-1150.9"
       cy="-1256.6"
       r="0"
       id="circle881" />
    <circle
       cx="-51.327"
       cy="8.8744001"
       r="0"
       fill-rule="evenodd"
       id="circle883" />
    <g
       transform="matrix(3.7796,0,0,3.7796,167.86,4.61)"
       stroke-width="0.26458"
       id="g915">
      <g
         transform="translate(-0.0272,0.0065001)"
         id="g893">
        <circle
           cx="-330.35001"
           cy="-328.38"
           r="0"
           id="circle885" />
        <circle
           cx="-312.10999"
           cy="-326.25"
           r="0"
           id="circle887" />
        <circle
           cx="-306.01999"
           cy="-333.07001"
           r="0"
           id="circle889" />
        <circle
           cx="-308.84"
           cy="-326.01001"
           r="0"
           id="circle891" />
      </g>
      <g
         transform="translate(-0.0272,0.0065001)"
         id="g903">
        <circle
           cx="-330.35001"
           cy="-328.38"
           r="0"
           id="circle895" />
        <circle
           cx="-312.10999"
           cy="-326.25"
           r="0"
           id="circle897" />
        <circle
           cx="-306.01999"
           cy="-333.07001"
           r="0"
           id="circle899" />
        <circle
           cx="-308.84"
           cy="-326.01001"
           r="0"
           id="circle901" />
      </g>
      <g
         transform="translate(-0.02705,0.0064503)"
         id="g913">
        <circle
           cx="-330.35001"
           cy="-328.38"
           r="0"
           id="circle905" />
        <circle
           cx="-312.10999"
           cy="-326.25"
           r="0"
           id="circle907" />
        <circle
           cx="-306.01999"
           cy="-333.07001"
           r="0"
           id="circle909" />
        <circle
           cx="-308.84"
           cy="-326.01001"
           r="0"
           id="circle911" />
      </g>
    </g>
  </g>
  <g
     transform="translate(-245.38709,-92.486819)"
     fill="#5e4aa6"
     id="g937">
    <circle
       cx="-1248.7"
       cy="-1241.6"
       r="0"
       id="circle919" />
    <circle
       cx="-149.14999"
       cy="23.855"
       r="0"
       fill-rule="evenodd"
       id="circle921" />
    <circle
       cx="-1150.9"
       cy="-1256.6"
       r="0"
       id="circle923" />
    <circle
       cx="-51.327"
       cy="8.8744001"
       r="0"
       fill-rule="evenodd"
       id="circle925" />
    <g
       transform="matrix(3.7796,0,0,3.7796,-0.10224,0.02438)"
       stroke-width="0.26458"
       id="g935">
      <circle
         cx="-330.35001"
         cy="-328.38"
         r="0"
         id="circle927" />
      <circle
         cx="-312.10999"
         cy="-326.25"
         r="0"
         id="circle929" />
      <circle
         cx="-306.01999"
         cy="-333.07001"
         r="0"
         id="circle931" />
      <circle
         cx="-308.84"
         cy="-326.01001"
         r="0"
         id="circle933" />
    </g>
  </g>
  <g
     transform="matrix(3.7796,0,0,3.7796,-245.49709,-92.462819)"
     fill="#5e4aa6"
     stroke-width="0.26458"
     id="g951">
    <circle
       cx="-330.35001"
       cy="-328.38"
       r="0"
       id="circle943" />
    <circle
       cx="-312.10999"
       cy="-326.25"
       r="0"
       id="circle945" />
    <circle
       cx="-306.01999"
       cy="-333.07001"
       r="0"
       id="circle947" />
    <circle
       cx="-308.84"
       cy="-326.01001"
       r="0"
       id="circle949" />
  </g>
  <g
     transform="translate(-362.80709,-133.71182)"
     fill="#5e4aa6"
     id="g993">
    <circle
       cx="-1248.7"
       cy="-1241.6"
       r="0"
       id="circle953" />
    <circle
       cx="-149.14999"
       cy="23.855"
       r="0"
       fill-rule="evenodd"
       id="circle955" />
    <circle
       cx="-1150.9"
       cy="-1256.6"
       r="0"
       id="circle957" />
    <circle
       cx="-51.327"
       cy="8.8744001"
       r="0"
       fill-rule="evenodd"
       id="circle959" />
    <g
       transform="matrix(3.7796,0,0,3.7796,167.86,4.61)"
       stroke-width="0.26458"
       id="g991">
      <g
         transform="translate(-0.0272,0.0065001)"
         id="g969">
        <circle
           cx="-330.35001"
           cy="-328.38"
           r="0"
           id="circle961" />
        <circle
           cx="-312.10999"
           cy="-326.25"
           r="0"
           id="circle963" />
        <circle
           cx="-306.01999"
           cy="-333.07001"
           r="0"
           id="circle965" />
        <circle
           cx="-308.84"
           cy="-326.01001"
           r="0"
           id="circle967" />
      </g>
      <g
         transform="translate(-0.0272,0.0065001)"
         id="g979">
        <circle
           cx="-330.35001"
           cy="-328.38"
           r="0"
           id="circle971" />
        <circle
           cx="-312.10999"
           cy="-326.25"
           r="0"
           id="circle973" />
        <circle
           cx="-306.01999"
           cy="-333.07001"
           r="0"
           id="circle975" />
        <circle
           cx="-308.84"
           cy="-326.01001"
           r="0"
           id="circle977" />
      </g>
      <g
         transform="translate(-0.02705,0.0064503)"
         id="g989">
        <circle
           cx="-330.35001"
           cy="-328.38"
           r="0"
           id="circle981" />
        <circle
           cx="-312.10999"
           cy="-326.25"
           r="0"
           id="circle983" />
        <circle
           cx="-306.01999"
           cy="-333.07001"
           r="0"
           id="circle985" />
        <circle
           cx="-308.84"
           cy="-326.01001"
           r="0"
           id="circle987" />
      </g>
    </g>
  </g>
</svg>
