<?xml version="1.0" encoding="UTF-8"?>
<svg width="64" height="64" version="1.1" viewBox="0 0 16.933 16.933" xmlns="http://www.w3.org/2000/svg" xmlns:cc="http://creativecommons.org/ns#" xmlns:dc="http://purl.org/dc/elements/1.1/" xmlns:rdf="http://www.w3.org/1999/02/22-rdf-syntax-ns#">
 <defs>
  <filter id="filter11290" x="-.024" y="-.024" width="1.048" height="1.048" color-interpolation-filters="sRGB">
   <feGaussianBlur stdDeviation="0.15875313"/>
  </filter>
  <linearGradient id="linearGradient1005" x1=".73911" x2="16.388" y1="16.296" y2=".64687" gradientTransform="matrix(1 0 0 1 14.319 3.777)" gradientUnits="userSpaceOnUse">
   <stop stop-color="#00dc96" offset="0"/>
   <stop stop-color="#14d29b" offset="1"/>
  </linearGradient>
 </defs>
 <metadata>
  <rdf:RDF>
   <cc:Work rdf:about="">
    <dc:format>image/svg+xml</dc:format>
    <dc:type rdf:resource="http://purl.org/dc/dcmitype/StillImage"/>
    <dc:title/>
   </cc:Work>
  </rdf:RDF>
 </metadata>
 <g transform="translate(-14.354 -3.7703)">
  <circle transform="matrix(1 0 0 1 14.354 3.7703)" cx="8.4665" cy="8.4665" r="7.9377" filter="url(#filter11290)" opacity=".25" stroke-width=".14032"/>
  <path d="m30.758 12.237c0 0.95155-0.16749 1.8639-0.47466 2.7093-0.21351 0.58769-0.4944 1.1433-0.83394 1.6572-0.14222 0.21608-0.29514 0.42476-0.45746 0.62529-0.51967 0.6418-1.1372 1.2007-1.8305 1.6543-0.2553 0.16718-0.52065 0.32012-0.79536 0.45712-1.0668 0.5339-2.2712 0.83423-3.5457 0.83423-1.2745 0-2.4789-0.30033-3.5457-0.83426-0.27474-0.13705-0.54041-0.28998-0.79571-0.45712-0.70207-0.45974-1.327-1.0274-1.8509-1.6798-0.16263-0.20216-0.31525-0.41275-0.45746-0.63079-0.33046-0.50541-0.60423-1.0507-0.81351-1.627-0.30713-0.84532-0.47432-1.7573-0.47432-2.7085 0-4.3839 3.5539-7.9378 7.9378-7.9378 2.2005 0 4.1918 0.89551 5.6295 2.3417 0.41436 0.41664 0.78274 0.87932 1.0963 1.3795 0.29647 0.47109 0.5443 0.97584 0.73705 1.5068 0.30718 0.84561 0.47469 1.7579 0.47469 2.7093z" fill="url(#linearGradient1005)" stroke-width=".031006"/>
  <path d="m26.952 15.232-2.4295-4.4948v-2.6776c0-0.252-0.21081-0.45287-0.4626-0.45287h-2.4798c-0.252 0-0.45936 0.20087-0.45936 0.45287v2.6776l-2.4315 4.4948c-0.18545 0.34269-0.17612 0.75883 0.02334 1.0938 0.19945 0.33458 0.56121 0.54133 0.95078 0.54133h6.3131c0.38956 0 0.75214-0.20675 0.95159-0.54133 0.19924-0.33498 0.20939-0.75112 0.02395-1.0938zm-3.7305-1.8804c0.21771 0 0.39403 0.17632 0.39403 0.39403 0 0.2175-0.17672 0.39403-0.39403 0.39403-0.21751 0-0.39403-0.17652-0.39403-0.39403 0-0.2171 0.17632-0.39403 0.39403-0.39403zm-1.108-2.3692c0.21771 0 0.39403 0.17652 0.39403 0.39423 0 0.2175-0.17632 0.39403-0.39403 0.39403-0.21771 0-0.39402-0.17652-0.39402-0.39403 2.04e-4 -0.21771 0.17632-0.39423 0.39402-0.39423zm0 1.3756c0.35264 0 0.63872 0.28608 0.63872 0.63852 0 0.35263-0.28608 0.63852-0.63872 0.63852-0.35284 0-0.63872-0.28588-0.63872-0.63852 0-0.35264 0.28588-0.63852 0.63872-0.63852zm3.668 3.2758c-0.08197 0.13959-0.23191 0.22197-0.39322 0.22197h-5.1367c-0.1615 0-0.31124-0.08238-0.39321-0.22197-0.08197-0.13959-0.0842-0.31003-0.0057-0.45165l0.61742-1.1098c0.08806-0.15866 0.26174-0.24956 0.44232-0.23232 0.81991 0.07812 1.7415 0.77953 2.565 0.74828 0.4411-0.01684 0.85054-0.17753 1.2405-0.3924 0.22014-0.12174 0.4971-0.042 0.61924 0.17794l0.45023 0.80794c0.07812 0.14182 0.07609 0.31266-0.0059 0.45205z" fill="#fff" stroke-width=".2029"/>
 </g>
</svg>
