<?xml version="1.0" encoding="UTF-8"?>
<svg width="64" height="64" version="1.1" viewBox="0 0 16.933 16.933" xmlns="http://www.w3.org/2000/svg" xmlns:cc="http://creativecommons.org/ns#" xmlns:dc="http://purl.org/dc/elements/1.1/" xmlns:rdf="http://www.w3.org/1999/02/22-rdf-syntax-ns#">
 <defs>
  <filter id="filter11290-3" x="-.024" y="-.024" width="1.048" height="1.048" color-interpolation-filters="sRGB">
   <feGaussianBlur stdDeviation="0.15875313"/>
  </filter>
  <linearGradient id="linearGradient1005-6" x1=".73911" x2="16.388" y1="16.296" y2=".64687" gradientTransform="matrix(1 0 0 1 -2.3597 -2.9795)" gradientUnits="userSpaceOnUse">
   <stop stop-color="#a0b9cd" offset="0"/>
   <stop stop-color="#96b4c8" offset=".48743"/>
   <stop stop-color="#a0b9cd" offset="1"/>
  </linearGradient>
 </defs>
 <metadata>
  <rdf:RDF>
   <cc:Work rdf:about="">
    <dc:format>image/svg+xml</dc:format>
    <dc:type rdf:resource="http://purl.org/dc/dcmitype/StillImage"/>
    <dc:title/>
   </cc:Work>
  </rdf:RDF>
 </metadata>
 <g transform="translate(2.3246 2.986)">
  <circle transform="matrix(1 0 0 1 -2.3246 -2.986)" cx="8.4665" cy="8.4665" r="7.9377" filter="url(#filter11290-3)" opacity=".25" stroke-width=".14032"/>
  <path d="m14.08 5.4806c0 0.95156-0.16749 1.8639-0.47465 2.7095-0.21351 0.58769-0.4944 1.1433-0.83395 1.6572-0.14222 0.21608-0.29514 0.42476-0.45747 0.6253-0.51967 0.6418-1.1372 1.2007-1.8305 1.6543-0.2553 0.16718-0.52066 0.32011-0.79538 0.45713-1.0668 0.5339-2.2711 0.83423-3.5457 0.83423-1.2745 0-2.4788-0.30033-3.5457-0.83426-0.27475-0.13705-0.54041-0.28998-0.79572-0.45713-0.70208-0.45974-1.327-1.0274-1.8509-1.6798-0.16263-0.20216-0.31525-0.41276-0.45747-0.63079-0.33047-0.50541-0.60422-1.0507-0.81352-1.627-0.30712-0.84531-0.47431-1.7573-0.47431-2.7086 0-4.3839 3.5538-7.9377 7.9377-7.9377 2.2005 0 4.1918 0.8955 5.6296 2.3417 0.41437 0.41663 0.78276 0.87931 1.0963 1.3795 0.29646 0.47108 0.54429 0.97584 0.73706 1.5068 0.30719 0.84561 0.47468 1.7579 0.47468 2.7095z" fill="url(#linearGradient1005-6)" stroke-width=".031006"/>
  <rect x="2.7795" y="4.3383" width="6.6173" height="4.3836" rx=".87341" ry=".87341" fill-opacity=".99992" opacity=".2" stroke-linecap="round" stroke-width="1.2298"/>
  <path d="m4.1577 1.5119-0.49609 0.49609 1.5056 1.505c-0.93732 0.032882-1.832 0.11267-2.6617 0.23195-0.21341 0.83503-0.33212 1.7579-0.33212 2.7279 0 0.97002 0.11876 1.8923 0.33212 2.7273 1.1134 0.16008 2.3433 0.24924 3.6366 0.24924 1.2934 0 2.5238-0.089155 3.6372-0.24924 0.21343-0.83502 0.33152-1.7573 0.33152-2.7273 0-0.97002-0.11809-1.8929-0.33152-2.7279-0.68836-0.098971-1.4215-0.17074-2.1865-0.21108l1.2778-1.2778-0.49609-0.49609-1.7405 1.7405c-0.16283-0.0027464-0.32692-0.0041751-0.49192-0.0041751zm1.9844 2.9766c0.96999 0 1.8929 0.059055 2.7279 0.16576 0.16012 0.55668 0.24864 1.1719 0.24864 1.8186 0 0.64669-0.088559 1.2613-0.24864 1.818-0.83506 0.10671-1.7579 0.16636-2.7279 0.16636-0.97003 0-1.8923-0.059651-2.7273-0.16636-0.16005-0.55668-0.24924-1.1713-0.24924-1.818 0-0.6467 0.089175-1.2619 0.24924-1.8186 0.83504-0.10671 1.7573-0.16576 2.7273-0.16576z" fill="#fff" stroke-linecap="round" stroke-width="1.419"/>
 </g>
</svg>
