<?xml version="1.0" encoding="UTF-8" standalone="no"?>
<svg
   xmlns:dc="http://purl.org/dc/elements/1.1/"
   xmlns:cc="http://creativecommons.org/ns#"
   xmlns:rdf="http://www.w3.org/1999/02/22-rdf-syntax-ns#"
   xmlns:svg="http://www.w3.org/2000/svg"
   xmlns="http://www.w3.org/2000/svg"
   xmlns:sodipodi="http://sodipodi.sourceforge.net/DTD/sodipodi-0.dtd"
   xmlns:inkscape="http://www.inkscape.org/namespaces/inkscape"
   width="64"
   height="64"
   version="1.1"
   id="svg73"
   sodipodi:docname="alevt.svg"
   inkscape:version="1.0.1 (3bc2e813f5, 2020-09-07)">
  <sodipodi:namedview
     pagecolor="#ffffff"
     bordercolor="#666666"
     borderopacity="1"
     objecttolerance="10"
     gridtolerance="10"
     guidetolerance="10"
     inkscape:pageopacity="0"
     inkscape:pageshadow="2"
     inkscape:window-width="1920"
     inkscape:window-height="932"
     id="namedview75"
     showgrid="false"
     inkscape:zoom="4.2260679"
     inkscape:cx="-16.183637"
     inkscape:cy="29.89893"
     inkscape:window-x="0"
     inkscape:window-y="36"
     inkscape:window-maximized="1"
     inkscape:current-layer="svg73"
     inkscape:document-rotation="0" />
  <metadata
     id="metadata2">
    <rdf:RDF>
      <cc:Work
         rdf:about="">
        <dc:format>image/svg+xml</dc:format>
        <dc:type
           rdf:resource="http://purl.org/dc/dcmitype/StillImage" />
        <dc:title></dc:title>
      </cc:Work>
    </rdf:RDF>
  </metadata>
  <defs
     id="defs29">
    <filter
       id="e"
       x="-.051381"
       y="-.072094"
       width="1.1028"
       height="1.1442"
       color-interpolation-filters="sRGB">
      <feGaussianBlur
         stdDeviation="13.101814"
         id="feGaussianBlur4" />
    </filter>
    <linearGradient
       id="linearGradient5953"
       x1="31.955"
       x2="31.955"
       y1="61.868"
       y2="2.2585"
       gradientUnits="userSpaceOnUse">
      <stop
         stop-color="#0073ff"
         offset="0"
         id="stop7" />
      <stop
         stop-color="#2ab7ff"
         offset="1"
         id="stop9" />
    </linearGradient>
    <linearGradient
       id="linearGradient5957"
       x1="31.955"
       x2="31.955"
       y1="61.868"
       y2="2.2585"
       gradientTransform="matrix(.91667 0 0 .91667 2.6667 2.6667)"
       gradientUnits="userSpaceOnUse">
      <stop
         stop-color="#e8e8e8"
         offset="0"
         id="stop12" />
      <stop
         stop-color="#fff"
         offset="1"
         id="stop14" />
    </linearGradient>
    <style
       type="text/css"
       id="style17" />
    <style
       type="text/css"
       id="style19" />
    <linearGradient
       id="linearGradient6094"
       x1="511.98"
       x2="511.98"
       y1="872.5"
       y2="154.58"
       gradientUnits="userSpaceOnUse">
      <stop
         stop-color="#0074ff"
         offset="0"
         id="stop21" />
      <stop
         stop-color="#2ab6ff"
         offset="1"
         id="stop23" />
    </linearGradient>
    <filter
       id="filter6116"
       x="-.04097"
       y="-.057942"
       width="1.0819"
       height="1.1159"
       color-interpolation-filters="sRGB">
      <feGaussianBlur
         stdDeviation="17.479526"
         id="feGaussianBlur26" />
    </filter>
    <linearGradient
       id="linearGradient5953-3"
       x1="31.955"
       x2="31.955"
       y1="61.868"
       y2="2.2585001"
       gradientUnits="userSpaceOnUse"
       gradientTransform="translate(-4.7900391e-6)">
      <stop
         stop-color="#0073ff"
         offset="0"
         id="stop893" />
      <stop
         stop-color="#2ab7ff"
         offset="1"
         id="stop895" />
    </linearGradient>
    <linearGradient
       id="linearGradient5957-6"
       x1="31.955"
       x2="31.955"
       y1="61.868"
       y2="2.2585001"
       gradientTransform="matrix(0.91667,0,0,0.91667,2.6666952,2.6666983)"
       gradientUnits="userSpaceOnUse">
      <stop
         stop-color="#e8e8e8"
         offset="0"
         id="stop898" />
      <stop
         stop-color="#fff"
         offset="1"
         id="stop900" />
    </linearGradient>
    <linearGradient
       id="e-3"
       x1="8.4207001"
       x2="8.4207001"
       y1="281.10001"
       y2="300.26999"
       gradientTransform="matrix(3.7796,0,0,3.7796,-0.10411,-1059)"
       gradientUnits="userSpaceOnUse">
      <stop
         stop-color="#c896ff"
         offset="0"
         id="stop898-3" />
      <stop
         stop-color="#32afff"
         offset="1"
         id="stop900-6" />
    </linearGradient>
    <linearGradient
       id="bg"
       x1="1"
       x2="47"
       gradientTransform="rotate(-90,23.999999,24.000001)"
       gradientUnits="userSpaceOnUse">
      <stop
         style="stop-color:#e4e4e4"
         offset="0"
         id="stop865" />
      <stop
         style="stop-color:#eee"
         offset="1"
         id="stop867" />
    </linearGradient>
    <linearGradient
       id="linearGradient3764"
       x1="1"
       x2="47"
       gradientUnits="userSpaceOnUse"
       gradientTransform="rotate(-90,23.999998,24)">
      <stop
         style="stop-color:#e4e4e4;stop-opacity:1"
         id="stop913" />
      <stop
         offset="1"
         style="stop-color:#eee;stop-opacity:1"
         id="stop915" />
    </linearGradient>
    <style
       id="style4"
       type="text/css" />
    <style
       id="style6"
       type="text/css" />
    <style
       id="style8"
       type="text/css" />
    <filter
       color-interpolation-filters="sRGB"
       height="1.048"
       width="1.048"
       y="-.024"
       x="-.024"
       id="filter2761-3">
      <feGaussianBlur
         id="feGaussianBlur10"
         stdDeviation="0.14552168" />
    </filter>
    <linearGradient
       gradientUnits="userSpaceOnUse"
       gradientTransform="matrix(3.7796 0 0 3.7796 -.003213 .53084)"
       y2="1.17"
       y1="15.576"
       x2="15.65"
       x1="1.3315"
       id="linearGradient1024">
      <stop
         id="stop13"
         offset="0"
         stop-color="#96aab4" />
      <stop
         id="stop15"
         offset="1"
         stop-color="#a0b4c3" />
    </linearGradient>
    <filter
       color-interpolation-filters="sRGB"
       height="1.048"
       width="1.048"
       y="-.024"
       x="-.024"
       id="filter2761">
      <feGaussianBlur
         id="feGaussianBlur4-6"
         stdDeviation="0.14552168" />
    </filter>
    <linearGradient
       gradientUnits="userSpaceOnUse"
       gradientTransform="translate(16.851507,0.14045)"
       y2="1.1082"
       y1="15.429"
       x2="15.644"
       x1="1.2573"
       id="linearGradient4673">
      <stop
         id="stop7-7"
         offset="0"
         stop-color="#a0b9cd" />
      <stop
         id="stop9-5"
         offset=".47728"
         stop-color="#96b4c8" />
      <stop
         id="stop11"
         offset="1"
         stop-color="#a0b9cd" />
    </linearGradient>
    <filter
       color-interpolation-filters="sRGB"
       height="1.168"
       width="1.168"
       y="-.084006"
       x="-.083994"
       id="filter917">
      <feGaussianBlur
         id="feGaussianBlur14"
         stdDeviation="0.22223482" />
    </filter>
    <linearGradient
       gradientUnits="userSpaceOnUse"
       gradientTransform="matrix(0.32664815,0,0,0.32664815,0.63054332,0.95372475)"
       y2="4"
       y1="44"
       x2="0"
       id="linearGradient890">
      <stop
         id="stop4"
         offset="0"
         stop-color="#FFB900" />
      <stop
         id="stop6"
         offset="1"
         stop-color="#ff0" />
    </linearGradient>
    <filter
       color-interpolation-filters="sRGB"
       height="1.048"
       width="1.048"
       y="-.024"
       x="-.024"
       id="filter2761-67">
      <feGaussianBlur
         id="feGaussianBlur9"
         stdDeviation="0.14552168" />
    </filter>
    <linearGradient
       gradientUnits="userSpaceOnUse"
       gradientTransform="matrix(3.7796,0,0,3.7796,66.443573,0.53068)"
       y2="1.1082"
       y1="15.601"
       x2="15.644"
       x1="1.4377"
       id="linearGradient4673-5">
      <stop
         id="stop12-3"
         offset="0"
         stop-color="#dc2828" />
      <stop
         id="stop14-5"
         offset="1"
         stop-color="#fa4141" />
    </linearGradient>
    <linearGradient
       gradientTransform="scale(0.26457812)"
       gradientUnits="userSpaceOnUse"
       y2="9.67"
       y1="54.592"
       x2="34.134"
       x1="34.134"
       id="linearGradient915">
      <stop
         id="stop17"
         offset="0"
         stop-color="#ffb900" />
      <stop
         id="stop19"
         offset="1"
         stop-color="#ff0" />
    </linearGradient>
    <linearGradient
       id="linearGradient890-3"
       x2="0"
       y1="44"
       y2="4"
       gradientTransform="matrix(1.2346,0,0,1.2346,3.1419,3.6047)"
       gradientUnits="userSpaceOnUse">
      <stop
         stop-color="#FFB900"
         offset="0"
         id="stop861" />
      <stop
         stop-color="#ff0"
         offset="1"
         id="stop863" />
    </linearGradient>
    <filter
       id="filter2761-6"
       x="-.024"
       y="-.024"
       width="1.048"
       height="1.048"
       color-interpolation-filters="sRGB">
      <feGaussianBlur
         stdDeviation="0.14552168"
         id="feGaussianBlur866" />
    </filter>
    <filter
       id="filter11290"
       x="-.024"
       y="-.024"
       width="1.048"
       height="1.048"
       color-interpolation-filters="sRGB">
      <feGaussianBlur
         stdDeviation="0.15875313"
         id="feGaussianBlur934" />
    </filter>
    <linearGradient
       id="linearGradient1005"
       x1=".73911"
       x2="16.388"
       y1="16.296"
       y2=".64687"
       gradientTransform="matrix(3.779602,0,0,3.779602,-0.132702,0.0245672)"
       gradientUnits="userSpaceOnUse">
      <stop
         stop-color="#a0b9cd"
         offset="0"
         id="stop937" />
      <stop
         stop-color="#96b4c8"
         offset=".48743"
         id="stop939" />
      <stop
         stop-color="#a0b9cd"
         offset="1"
         id="stop941" />
    </linearGradient>
    <filter
       id="filter917-3"
       x="-.083994"
       y="-.084006"
       width="1.168"
       height="1.168"
       color-interpolation-filters="sRGB">
      <feGaussianBlur
         stdDeviation="0.22223482"
         id="feGaussianBlur944" />
    </filter>
  </defs>
  <circle
     cx="8.4665003"
     cy="8.4665003"
     r="7.9376998"
     filter="url(#filter11290)"
     opacity="0.25"
     stroke-width="0.14032"
     id="circle949"
     transform="scale(3.779602)" />
  <path
     d="m 62.000383,31.999811 c 0,3.596442 -0.633045,7.0448 -1.79395,10.240454 -0.806983,2.221196 -1.868598,4.321218 -3.151924,6.263556 -0.537535,0.816696 -1.115511,1.605386 -1.729016,2.363347 -1.964108,2.425711 -4.298164,4.538168 -6.918562,6.252596 -0.964932,0.631874 -1.96785,1.20985 -3.006144,1.727732 -4.032079,2.017891 -8.583854,3.152981 -13.400957,3.152981 -4.817103,0 -9.368877,-1.13509 -13.400957,-3.153095 C 17.560465,58.329388 16.556376,57.751411 15.591444,57.119651 12.937899,55.382054 10.575912,53.236487 8.595779,50.770675 7.981102,50.006591 7.404297,49.210644 6.866762,48.386578 5.617755,46.476367 4.583089,44.41535 3.792056,42.237165 2.631302,39.042305 1.99939,35.595271 1.99939,32.000113 c 0,-16.569019 13.431572,-30.0005903 30.000591,-30.0005903 8.317015,0 15.842958,3.3845576 21.27727,8.8506933 1.566116,1.574658 2.958445,3.323367 4.143577,5.213961 1.120463,1.780457 2.057162,3.688212 2.785718,5.695105 1.161018,3.195993 1.794064,6.644162 1.794064,10.240453 z"
     fill="url(#linearGradient1005)"
     stroke-width="0.11719"
     id="path951"
     style="fill:url(#linearGradient1005)" />
  <g
     id="g70"
     fill="#5e4aa6">
    <g
       id="g32"
       image-rendering="optimizeSpeed"
       transform="translate(-80.134,-57.985)">
      <circle
         id="circle24"
         r="0"
         cy="-1241.6"
         cx="-1248.7" />
      <circle
         id="circle26"
         fill-rule="evenodd"
         r="0"
         cy="23.855"
         cx="-149.14999" />
      <circle
         id="circle28"
         r="0"
         cy="-1241.6"
         cx="-1248.7" />
      <circle
         id="circle30"
         fill-rule="evenodd"
         r="0"
         cy="23.855"
         cx="-149.14999" />
    </g>
    <circle
       id="circle34"
       r="0"
       cy="-1241.6"
       cx="-1248.7" />
    <circle
       id="circle36"
       fill-rule="evenodd"
       r="0"
       cy="23.855"
       cx="-149.14999" />
    <g
       id="g68"
       stroke-width="0.26458"
       transform="matrix(3.7796,0,0,3.7796,5.8415e-4,-1.7177e-4)">
      <g
         id="g46"
         transform="translate(-0.0272,0.0065001)">
        <circle
           id="circle38"
           r="0"
           cy="-328.38"
           cx="-330.35001" />
        <circle
           id="circle40"
           r="0"
           cy="-326.25"
           cx="-312.10999" />
        <circle
           id="circle42"
           r="0"
           cy="-333.07001"
           cx="-306.01999" />
        <circle
           id="circle44"
           r="0"
           cy="-326.01001"
           cx="-308.84" />
      </g>
      <g
         id="g56"
         transform="translate(-0.0272,0.0065001)">
        <circle
           id="circle48"
           r="0"
           cy="-328.38"
           cx="-330.35001" />
        <circle
           id="circle50"
           r="0"
           cy="-326.25"
           cx="-312.10999" />
        <circle
           id="circle52"
           r="0"
           cy="-333.07001"
           cx="-306.01999" />
        <circle
           id="circle54"
           r="0"
           cy="-326.01001"
           cx="-308.84" />
      </g>
      <g
         id="g66"
         transform="translate(-0.02705,0.0064503)">
        <circle
           id="circle58"
           r="0"
           cy="-328.38"
           cx="-330.35001" />
        <circle
           id="circle60"
           r="0"
           cy="-326.25"
           cx="-312.10999" />
        <circle
           id="circle62"
           r="0"
           cy="-333.07001"
           cx="-306.01999" />
        <circle
           id="circle64"
           r="0"
           cy="-326.01001"
           cx="-308.84" />
      </g>
    </g>
  </g>
  <g
     id="g30"
     fill="#5e4aa6"
     transform="translate(-79.198861,-30.995432)">
    <circle
       id="circle24-6"
       r="0"
       cy="-1241.6"
       cx="-1248.7" />
    <circle
       id="circle26-7"
       r="0"
       cy="-1301.8"
       cx="-1140.3" />
    <circle
       id="circle28-5"
       r="0"
       cy="-1246"
       cx="-1158.1" />
  </g>
  <circle
     id="circle36-3"
     fill="#5e4aa6"
     r="0"
     cy="-1298.6954"
     cx="-1236.4989"
     style="stroke-width:1" />
  <circle
     id="circle38-5"
     fill-rule="evenodd"
     fill="#5e4aa6"
     r="0"
     cy="-33.178333"
     cx="-136.95486"
     style="stroke-width:1" />
  <rect
     style="fill:#000000;fill-opacity:0.99992067;stroke-width:4.648;stroke-linecap:round;opacity:0.2"
     id="rect1193"
     width="25.010157"
     height="16.568058"
     x="19.291039"
     y="27.682325"
     rx="3.30108"
     ry="3.30108" />
  <path
     id="path1189"
     style="fill:#ffffff;fill-opacity:1;stroke-width:5.36308;stroke-linecap:round"
     d="m 24.5,17 -1.875,1.875 5.69036,5.688102 c -3.54264,0.12428 -6.92392,0.425832 -10.0601,0.876651 C 17.44867,28.595788 17,32.083781 17,35.75 c 0,3.666208 0.44884,7.152016 1.25526,10.307993 C 22.46352,46.663035 27.11164,47 32,47 36.88835,47 41.53885,46.663035 45.747,46.057993 46.55366,42.902016 47,39.416208 47,35.75 47,32.083781 46.55366,28.595788 45.747,25.439753 43.14532,25.065688 40.37451,24.794435 37.48303,24.641977 l 4.82947,-4.829477 -1.875,-1.875 -6.57827,6.578275 C 33.24381,24.505395 32.62361,24.499995 32,24.499995 Z M 32,28.25 c 3.6661,0 7.15422,0.223199 10.31025,0.626503 0.60516,2.10398 0.93975,4.429259 0.93975,6.873497 0,2.444181 -0.33471,4.767263 -0.93975,6.871244 C 39.1541,43.024548 35.66621,43.25 32,43.25 28.33373,43.25 24.84805,43.024548 21.69201,42.621244 21.0871,40.517263 20.75,38.194181 20.75,35.75 c 0,-2.444238 0.33704,-4.769517 0.94201,-6.873497 C 24.84805,28.473199 28.33373,28.25 32,28.25 Z" />
  <g
     transform="matrix(3.779602,0,0,3.779602,-83.972087,7.8467893)"
     fill="#5e4aa6"
     stroke-width="0.26458"
     id="g961">
    <circle
       cx="-330.35001"
       cy="-328.38"
       r="0"
       id="circle953" />
    <circle
       cx="-312.10999"
       cy="-326.25"
       r="0"
       id="circle955" />
    <circle
       cx="-306.01999"
       cy="-333.07001"
       r="0"
       id="circle957" />
    <circle
       cx="-308.84"
       cy="-326.01001"
       r="0"
       id="circle959" />
  </g>
</svg>
