<?xml version="1.0" encoding="UTF-8"?>
<svg width="64" height="64" version="1.1" xmlns="http://www.w3.org/2000/svg" xmlns:cc="http://creativecommons.org/ns#" xmlns:dc="http://purl.org/dc/elements/1.1/" xmlns:rdf="http://www.w3.org/1999/02/22-rdf-syntax-ns#">
 <metadata>
  <rdf:RDF>
   <cc:Work rdf:about="">
    <dc:format>image/svg+xml</dc:format>
    <dc:type rdf:resource="http://purl.org/dc/dcmitype/StillImage"/>
    <dc:title/>
   </cc:Work>
  </rdf:RDF>
 </metadata>
 <defs>
  <style type="text/css"/>
  <style type="text/css"/>
  <style type="text/css"/>
  <style type="text/css"/>
  <style type="text/css"/>
  <style type="text/css"/>
  <style type="text/css"/>
  <style type="text/css"/>
  <style type="text/css"/>
  <style type="text/css"/>
  <style type="text/css"/>
  <filter id="filter11290" x="-.024" y="-.024" width="1.048" height="1.048" color-interpolation-filters="sRGB">
   <feGaussianBlur stdDeviation="0.15875313"/>
  </filter>
  <linearGradient id="linearGradient1005" x1=".73911" x2="16.388" y1="16.296" y2=".64687" gradientTransform="matrix(3.7796 0 0 3.7796 -.13269 .025278)" gradientUnits="userSpaceOnUse">
   <stop stop-color="#00dc96" offset="0"/>
   <stop stop-color="#14d29b" offset="1"/>
  </linearGradient>
  <style type="text/css"/>
  <style type="text/css"/>
  <style type="text/css"/>
 </defs>
 <circle transform="matrix(3.7796 0 0 3.7796 1.6204e-5 1.6204e-5)" cx="8.4665" cy="8.4665" r="7.9377" filter="url(#filter11290)" opacity=".25" stroke-width=".14032"/>
 <path d="m62 32c0 3.5964-0.63304 7.0448-1.794 10.24-0.80698 2.2212-1.8686 4.3212-3.1519 6.2636-0.53754 0.8167-1.1155 1.6054-1.729 2.3633-1.9641 2.4257-4.2982 4.5382-6.9186 6.2526-0.96493 0.63187-1.9678 1.2099-3.0061 1.7277-4.0321 2.0179-8.5839 3.153-13.401 3.153s-9.3689-1.1351-13.401-3.1531c-1.0384-0.518-2.0425-1.096-3.0074-1.7277-2.6535-1.7376-5.0155-3.8832-6.9957-6.349-0.61468-0.76408-1.1915-1.56-1.729-2.3841-1.249-1.9102-2.2837-3.9712-3.0747-6.1494-1.1608-3.1949-1.7927-6.6419-1.7927-10.237 0-16.569 13.432-30.001 30.001-30.001 8.317 0 15.843 3.3846 21.277 8.8507 1.5661 1.5747 2.9584 3.3234 4.1436 5.214 1.1205 1.7805 2.0572 3.6882 2.7857 5.6951 1.161 3.196 1.7941 6.6442 1.7941 10.24z" fill="url(#linearGradient1005)" stroke-width=".11719"/>
 <path d="m46.606 42.388c-0.45375-0.59625-3.0075-0.28375-4.15-0.14125-0.35125 0.04375-0.405-0.26875-0.0875-0.49375 2.0312-1.465 5.3713-1.045 5.7563-0.55125 0.39125 0.49375-0.0975 3.9213-2.0113 5.5563-0.2925 0.25375-0.57125 0.1175-0.44-0.215 0.425-1.0987 1.3912-3.56 0.9325-4.155m-1.48 1.735c-3.56 2.685-8.7163 4.1213-13.159 4.1213-6.225 0-11.831-2.3588-16.074-6.2875-0.3325-0.3075-0.03376-0.7275 0.36625-0.48875 4.575 2.73 10.239 4.37 16.084 4.37 3.94 0 8.2812-0.835 12.266-2.5738 0.605-0.25875 1.1088 0.405 0.5175 0.855m-10.801-14.406c0 1.7088 0.04375 3.13-0.78125 4.6438-0.66375 1.23-1.7188 1.9875-2.895 1.9875-1.6062 0-2.5387-1.2788-2.5387-3.1688 0-3.73 3.1937-4.4088 6.2162-4.4088v0.9475m4.2188 10.664c-0.27375 0.25875-0.67375 0.27875-0.98625 0.1075-1.3862-1.2062-1.6362-1.7675-2.4025-2.92-2.295 2.4513-3.9163 3.1838-6.895 3.1838-3.52 0-6.2625-2.27-6.2625-6.8162 0-3.55 1.8412-5.9713 4.4575-7.1538 2.2663-1.045 5.44-1.23 7.8663-1.5187v-0.56625c0-1.04 0.07875-2.27-0.5025-3.1688-0.5125-0.80625-1.4888-1.1375-2.3487-1.1375-1.5962 0-3.0175 0.855-3.3638 2.6275-0.07375 0.395-0.34625 0.78125-0.7275 0.80125l-4.0575-0.45375c-0.34125-0.0825-0.7175-0.37125-0.625-0.9175 0.9375-5.1363 5.3812-6.69 9.355-6.69 2.0362 0 4.6975 0.56625 6.3 2.1775 2.0363 1.9875 1.8412 4.6387 1.8412 7.525v6.8162c0 2.0513 0.81 2.9488 1.5775 4.0575 0.26875 0.39125 0.3275 0.86875-0.01 1.1625-0.855 0.7525-2.3725 2.1288-3.2075 2.905l-0.01501-0.01501" fill="#fff" fill-rule="evenodd" stroke-width=".33891"/>
 <g fill="#5e4aa6">
  <circle cx="-1330.8" cy="-1261.2" r="0"/>
  <g transform="translate(-87.726 -31.29)">
   <circle cx="-1248.7" cy="-1241.6" r="0"/>
   <circle cx="-149.15" cy="23.855" r="0" fill-rule="evenodd"/>
   <circle cx="-1248.7" cy="-1241.6" r="0"/>
   <circle cx="-149.15" cy="23.855" r="0" fill-rule="evenodd"/>
   <circle cx="-1150.9" cy="-1256.6" r="0"/>
   <circle cx="-51.327" cy="8.8744" r="0" fill-rule="evenodd"/>
   <g transform="matrix(3.7796,0,0,3.7796,167.86,4.61)" stroke-width=".26458">
    <g transform="translate(-.0272 .0065001)">
     <circle cx="-330.35" cy="-328.38" r="0"/>
     <circle cx="-312.11" cy="-326.25" r="0"/>
     <circle cx="-306.02" cy="-333.07" r="0"/>
     <circle cx="-308.84" cy="-326.01" r="0"/>
     <circle cx="-330.35" cy="-328.38" r="0"/>
     <circle cx="-312.11" cy="-326.25" r="0"/>
     <circle cx="-306.02" cy="-333.07" r="0"/>
     <circle cx="-308.84" cy="-326.01" r="0"/>
    </g>
    <g transform="translate(-.02705 .0064503)">
     <circle cx="-330.35" cy="-328.38" r="0"/>
     <circle cx="-312.11" cy="-326.25" r="0"/>
     <circle cx="-306.02" cy="-333.07" r="0"/>
     <circle cx="-308.84" cy="-326.01" r="0"/>
    </g>
   </g>
  </g>
  <g transform="translate(-71.365 -40.44)">
   <circle cx="-1248.7" cy="-1241.6" r="0"/>
   <circle cx="-149.15" cy="23.855" r="0" fill-rule="evenodd"/>
   <circle cx="-1248.7" cy="-1241.6" r="0"/>
   <circle cx="-149.15" cy="23.855" r="0" fill-rule="evenodd"/>
   <circle cx="-1150.9" cy="-1256.6" r="0"/>
   <circle cx="-51.327" cy="8.8744" r="0" fill-rule="evenodd"/>
   <g transform="matrix(3.7796,0,0,3.7796,167.86,4.61)" stroke-width=".26458">
    <g transform="translate(-.0272 .0065001)">
     <circle cx="-330.35" cy="-328.38" r="0"/>
     <circle cx="-312.11" cy="-326.25" r="0"/>
     <circle cx="-306.02" cy="-333.07" r="0"/>
     <circle cx="-308.84" cy="-326.01" r="0"/>
     <circle cx="-330.35" cy="-328.38" r="0"/>
     <circle cx="-312.11" cy="-326.25" r="0"/>
     <circle cx="-306.02" cy="-333.07" r="0"/>
     <circle cx="-308.84" cy="-326.01" r="0"/>
    </g>
    <g transform="translate(-.02705 .0064503)">
     <circle cx="-330.35" cy="-328.38" r="0"/>
     <circle cx="-312.11" cy="-326.25" r="0"/>
     <circle cx="-306.02" cy="-333.07" r="0"/>
     <circle cx="-308.84" cy="-326.01" r="0"/>
    </g>
   </g>
  </g>
  <g transform="translate(-239.48 -102.48)">
   <circle cx="-1248.7" cy="-1241.6" r="0"/>
   <circle cx="-149.15" cy="23.855" r="0" fill-rule="evenodd"/>
   <circle cx="-1150.9" cy="-1256.6" r="0"/>
   <circle cx="-51.327" cy="8.8744" r="0" fill-rule="evenodd"/>
   <g transform="matrix(3.7796 0 0 3.7796 -.10224 .02438)" stroke-width=".26458">
    <circle cx="-330.35" cy="-328.38" r="0"/>
    <circle cx="-312.11" cy="-326.25" r="0"/>
    <circle cx="-306.02" cy="-333.07" r="0"/>
    <circle cx="-308.84" cy="-326.01" r="0"/>
   </g>
  </g>
  <g transform="matrix(3.7796 0 0 3.7796 -239.59 -102.46)" stroke-width=".26458">
   <circle cx="-330.35" cy="-328.38" r="0"/>
   <circle cx="-312.11" cy="-326.25" r="0"/>
   <circle cx="-306.02" cy="-333.07" r="0"/>
   <circle cx="-308.84" cy="-326.01" r="0"/>
  </g>
  <g transform="translate(-356.9 -143.71)">
   <circle cx="-1248.7" cy="-1241.6" r="0"/>
   <circle cx="-149.15" cy="23.855" r="0" fill-rule="evenodd"/>
   <circle cx="-1150.9" cy="-1256.6" r="0"/>
   <circle cx="-51.327" cy="8.8744" r="0" fill-rule="evenodd"/>
   <g transform="matrix(3.7796,0,0,3.7796,167.86,4.61)" stroke-width=".26458">
    <g transform="translate(-.0272 .0065001)">
     <circle cx="-330.35" cy="-328.38" r="0"/>
     <circle cx="-312.11" cy="-326.25" r="0"/>
     <circle cx="-306.02" cy="-333.07" r="0"/>
     <circle cx="-308.84" cy="-326.01" r="0"/>
     <circle cx="-330.35" cy="-328.38" r="0"/>
     <circle cx="-312.11" cy="-326.25" r="0"/>
     <circle cx="-306.02" cy="-333.07" r="0"/>
     <circle cx="-308.84" cy="-326.01" r="0"/>
    </g>
    <g transform="translate(-.02705 .0064503)">
     <circle cx="-330.35" cy="-328.38" r="0"/>
     <circle cx="-312.11" cy="-326.25" r="0"/>
     <circle cx="-306.02" cy="-333.07" r="0"/>
     <circle cx="-308.84" cy="-326.01" r="0"/>
    </g>
   </g>
  </g>
 </g>
</svg>
