<?xml version="1.0" encoding="UTF-8"?>
<!-- Created with Inkscape (http://www.inkscape.org/) -->
<svg width="64" height="64" version="1.1" viewBox="0 0 16.933 16.933" xmlns="http://www.w3.org/2000/svg" xmlns:cc="http://creativecommons.org/ns#" xmlns:dc="http://purl.org/dc/elements/1.1/" xmlns:rdf="http://www.w3.org/1999/02/22-rdf-syntax-ns#">
 <defs>
  <filter id="filter11290" x="-.024" y="-.024" width="1.048" height="1.048" color-interpolation-filters="sRGB">
   <feGaussianBlur stdDeviation="0.15875313"/>
  </filter>
  <linearGradient id="linearGradient1005" x1=".73911" x2="16.388" y1="16.296" y2=".64687" gradientTransform="translate(-.0078552 -5.0139e-5)" gradientUnits="userSpaceOnUse">
   <stop stop-color="#dddfe1" offset="0"/>
   <stop stop-color="#f3f4f6" offset="1"/>
  </linearGradient>
 </defs>
 <metadata>
  <rdf:RDF>
   <cc:Work rdf:about="">
    <dc:format>image/svg+xml</dc:format>
    <dc:type rdf:resource="http://purl.org/dc/dcmitype/StillImage"/>
    <dc:title/>
   </cc:Work>
  </rdf:RDF>
 </metadata>
 <circle cx="8.4937" cy="8.46" r="7.9377" filter="url(#filter11290)" opacity=".25" stroke-width=".14032"/>
 <path d="m16.431 8.4599c0 0.95154-0.16749 1.8639-0.47464 2.7094-0.21351 0.58768-0.49439 1.1433-0.83393 1.6572-0.14222 0.21608-0.29514 0.42475-0.45746 0.62529-0.51966 0.64179-1.1372 1.2007-1.8305 1.6543-0.2553 0.16718-0.52065 0.3201-0.79536 0.45712-1.0668 0.53389-2.2711 0.83421-3.5456 0.83421s-2.4788-0.30032-3.5456-0.83424c-0.27474-0.13705-0.5404-0.28997-0.7957-0.45712-0.70207-0.45973-1.327-1.0274-1.8509-1.6798-0.16263-0.20216-0.31524-0.41275-0.45746-0.63078-0.33046-0.5054-0.60421-1.0507-0.8135-1.627-0.30711-0.84529-0.4743-1.7573-0.4743-2.7085 0-4.3838 3.5537-7.9375 7.9375-7.9375 2.2005 0 4.1917 0.89548 5.6295 2.3417 0.41436 0.41662 0.78274 0.87929 1.0963 1.3795 0.29645 0.47107 0.54428 0.97582 0.73704 1.5068 0.30718 0.84559 0.47467 1.7579 0.47467 2.7094z" fill="url(#linearGradient1005)" stroke-width=".031006"/>
 <g fill="#5e4aa6" stroke-width=".26458">
  <circle cx="-330.35" cy="-328.38" r="0"/>
  <circle cx="-312.11" cy="-326.25" r="0"/>
  <circle cx="-306.02" cy="-333.07" r="0"/>
  <circle cx="-308.84" cy="-326.01" r="0"/>
 </g>
 <g transform="matrix(1.5985 0 0 1.5985 -5.159 -454.53)" fill-rule="evenodd">
  <g transform="translate(1.2191,1.9303)" fill="#f90">
   <path d="m9.9947 289.59c-0.72465 0.53412-1.775 0.8191-2.6793 0.8191-1.268 0-2.4095-0.46899-3.2732-1.249-0.067851-0.0613-0.00706-0.14493 0.074365-0.0972 0.93201 0.54227 2.0844 0.8685 3.2748 0.8685 0.80282 0 1.686-0.1661 2.498-0.51078 0.12268-0.0521 0.22527 0.0803 0.10531 0.16936"/>
   <path d="m10.296 289.25c-0.09228-0.11833-0.61229-0.0559-0.8457-0.0282-0.071109 9e-3 -0.081964-0.0532-0.017913-0.0977 0.41417-0.29149 1.0938-0.20736 1.173-0.10965 0.07925 0.0983-0.02063 0.77948-0.40982 1.1046-0.05971 0.0499-0.1167 0.0233-0.09011-0.0429 0.08739-0.21821 0.28335-0.70728 0.19053-0.82616"/>
  </g>
  <path d="m8.95 289.29c0 0.28622 0.00723 0.52491-0.13743 0.77912-0.11676 0.20666-0.30276 0.33374-0.50839 0.33374-0.28209 0-0.44742-0.21493-0.44742-0.53214 0-0.62619 0.56109-0.73985 1.0932-0.73985v0.15913m0.74088 1.7907c-0.048566 0.0434-0.11883 0.0465-0.17359 0.0171-0.24386-0.20254-0.28829-0.29656-0.42159-0.4898-0.40299 0.41126-0.68922 0.53423-1.211 0.53423-0.61895 0-1.0994-0.38129-1.0994-1.1449 0-0.59622 0.32239-1.0023 0.78325-1.2007 0.39886-0.1757 0.95581-0.20666 1.3815-0.25523v-0.0949c0-0.17456 0.013439-0.38129-0.089898-0.53216-0.088865-0.13535-0.26039-0.19116-0.41229-0.19116-0.28003 0-0.52905 0.14373-0.59002 0.44122-0.012392 0.066-0.060965 0.13116-0.12813 0.1344l-0.71195-0.0766c-0.059932-0.0133-0.1271-0.062-0.10953-0.154 0.16326-0.86385 0.94444-1.1242 1.643-1.1242 0.35752 0 0.82458 0.095 1.1067 0.36579 0.35752 0.33377 0.32343 0.77911 0.32343 1.2637v1.1449c0 0.34411 0.1426 0.49496 0.27693 0.68096 0.0465 0.066 0.05683 0.14563-0.0031 0.1953-0.14983 0.12506-0.41642 0.35751-0.56315 0.4877l-0.00103-2e-3" fill="#221f1f"/>
 </g>
</svg>
