<?xml version="1.0" encoding="UTF-8"?>
<svg width="64" height="64" version="1.1" xmlns="http://www.w3.org/2000/svg" xmlns:cc="http://creativecommons.org/ns#" xmlns:dc="http://purl.org/dc/elements/1.1/" xmlns:rdf="http://www.w3.org/1999/02/22-rdf-syntax-ns#">
 <metadata>
  <rdf:RDF>
   <cc:Work rdf:about="">
    <dc:format>image/svg+xml</dc:format>
    <dc:type rdf:resource="http://purl.org/dc/dcmitype/StillImage"/>
    <dc:title/>
   </cc:Work>
  </rdf:RDF>
 </metadata>
 <defs>
  <style type="text/css"/>
  <style type="text/css"/>
  <style type="text/css"/>
  <style type="text/css"/>
  <style type="text/css"/>
  <style type="text/css"/>
  <style type="text/css"/>
  <style type="text/css"/>
  <style type="text/css"/>
  <style type="text/css"/>
  <style type="text/css"/>
  <style type="text/css"/>
  <style type="text/css"/>
  <style type="text/css"/>
  <style type="text/css"/>
  <style type="text/css"/>
  <style type="text/css"/>
  <style type="text/css"/>
  <style type="text/css"/>
  <filter id="filter11290" x="-.024" y="-.024" width="1.048" height="1.048" color-interpolation-filters="sRGB">
   <feGaussianBlur stdDeviation="0.15875313"/>
  </filter>
  <linearGradient id="linearGradient1005" x1=".8714" x2="16.246" y1="16.164" y2=".78937" gradientTransform="matrix(3.7796 0 0 3.7796 -.13281 .024828)" gradientUnits="userSpaceOnUse">
   <stop stop-color="#00c8ff" offset="0"/>
   <stop stop-color="#14a0ff" offset="1"/>
  </linearGradient>
 </defs>
 <circle transform="matrix(3.7796 0 0 3.7796 -.10279 .024585)" cx="8.4937" cy="8.46" r="7.9377" filter="url(#filter11290)" opacity=".25" stroke-width=".14032"/>
 <path d="m62 32c0 3.5964-0.63305 7.0448-1.794 10.24-0.80698 2.2212-1.8686 4.3212-3.1519 6.2636-0.53754 0.8167-1.1155 1.6054-1.729 2.3633-1.9641 2.4257-4.2982 4.5382-6.9186 6.2526-0.96493 0.63187-1.9678 1.2098-3.0061 1.7277-4.0321 2.0179-8.5839 3.153-13.401 3.153s-9.3689-1.1351-13.401-3.1531c-1.0384-0.518-2.0425-1.096-3.0074-1.7277-2.6535-1.7376-5.0155-3.8832-6.9957-6.349-0.61468-0.76408-1.1915-1.56-1.729-2.3841-1.249-1.9102-2.2837-3.9712-3.0747-6.1494-1.1608-3.1949-1.7927-6.6419-1.7927-10.237 0-16.569 13.432-30.001 30.001-30.001 8.317 0 15.843 3.3846 21.277 8.8507 1.5661 1.5747 2.9584 3.3234 4.1436 5.214 1.1205 1.7805 2.0572 3.6882 2.7857 5.6951 1.161 3.196 1.7941 6.6442 1.7941 10.24z" fill="url(#linearGradient1005)" stroke-width=".11719"/>
 <g fill="#5e4aa6">
  <circle cx="-1248.7" cy="-1241.6" r="0"/>
  <circle cx="-1351.5" cy="-1275.4" r="0"/>
  <circle cx="-251.96" cy="-9.9197" r="0" fill-rule="evenodd"/>
  <circle cx="-1124.8" cy="-1279.3" r="0"/>
  <g transform="matrix(3.7796,0,0,3.7796,123.83,-38.184)" stroke-width=".26458">
   <circle cx="-299.02" cy="-338.77" r="0"/>
   <circle cx="-8.1062" cy="-3.9487" r="0" fill-rule="evenodd"/>
   <circle cx="-278.25" cy="-357.69" r="0"/>
   <circle cx="12.663" cy="-22.859" r="0" fill-rule="evenodd"/>
  </g>
 </g>
 <path d="m32 14.836c-5.0555 0-9.8137 1.6057-13.396 4.5215-3.6141 2.9412-5.6035 6.8625-5.6035 11.039 0 3.9862 1.8137 7.7382 5.1211 10.629-0.05964 0.13414-0.1065 0.27351-0.13672 0.42188l-1.0859 5.3457c-0.12922 0.6353 0.04463 1.0146 0.21289 1.2207 0.19454 0.238 0.48143 0.36914 0.81055 0.36914 0.2485 0 0.51664-0.07212 0.79492-0.2168l6.3203-3.2852c2.1884 0.70441 4.5413 1.0742 6.9629 1.0742 0.54794 0 1.091-0.0271 1.6309-0.06445-1.8431-1.7489-2.8945-4.0643-2.8945-6.5195 0-2.5656 1.138-4.9849 3.1387-6.7578l0.28516-0.25195h0.13867c1.9325-1.5535 4.3516-2.4609 6.9375-2.4609 2.7583 0 5.3775 0.95491 7.3613 2.7129 0.6669 0.59096 1.2284 1.2585 1.6934 1.9746 0.45737-1.3483 0.70898-2.7527 0.70898-4.1914 0-4.1766-1.9895-8.0979-5.6035-11.039-3.5829-2.9159-8.3411-4.5215-13.396-4.5215zm9.2363 17.064c-2.2971 0-4.4361 0.79204-6.0352 2.209-1.6133 1.4296-2.4648 3.2796-2.4648 5.2617 0 1.982 0.85155 3.8302 2.4648 5.2598 0.37411 0.3315 0.78065 0.6256 1.209 0.88672 3.3699-0.65335 6.4709-2.0369 8.9863-4.084 1.6371-1.3323 2.9207-2.8722 3.8574-4.5391-0.40868-1.0272-1.0685-1.9753-1.9824-2.7852-1.599-1.4169-3.738-2.209-6.0352-2.209z" fill="#fff"/>
 <path d="m41.236 30.9c-2.5277 0-4.9058 0.87345-6.6973 2.4609-1.807 1.6013-2.8027 3.7359-2.8027 6.0098 0 2.2738 0.99575 4.4066 2.8027 6.0078 1.7915 1.5874 4.1695 2.4629 6.6973 2.4629 1.2108 0 2.3882-0.20049 3.4824-0.58398l3.1602 1.7871c0.13914 0.07879 0.27223 0.11914 0.39648 0.11914 0.16455 1e-6 0.30893-0.0716 0.40625-0.20117 0.08424-0.11218 0.17005-0.31818 0.10547-0.66406l-0.54297-2.9102c-0.01504-0.08077-0.03842-0.15935-0.06836-0.23242 1.6537-1.5738 2.5605-3.6149 2.5605-5.7852 0-2.2738-0.9957-4.4085-2.8027-6.0098-1.7914-1.5874-4.1695-2.4609-6.6973-2.4609z" fill="#bae4ff"/>
 <g fill="#5e4aa6">
  <circle cx="-1210.5" cy="-1317.5" r="0"/>
  <g transform="matrix(3.7796 0 0 3.7796 38.116 -76.336)" stroke-width=".26458">
   <circle cx="-299.02" cy="-338.77" r="0"/>
   <circle cx="-8.1062" cy="-3.9487" r="0" fill-rule="evenodd"/>
   <circle cx="-278.25" cy="-357.69" r="0"/>
   <circle cx="12.663" cy="-22.859" r="0" fill-rule="evenodd"/>
  </g>
  <g transform="matrix(3.7796 0 0 3.7796 -85.817 -38.128)" stroke-width=".26458">
   <circle cx="-330.35" cy="-328.38" r="0"/>
   <circle cx="-312.11" cy="-326.25" r="0"/>
   <circle cx="-306.02" cy="-333.07" r="0"/>
   <circle cx="-308.84" cy="-326.01" r="0"/>
  </g>
 </g>
</svg>
