<?xml version="1.0" encoding="UTF-8"?>
<svg width="64" height="64" version="1.1" viewBox="0 0 16.933 16.933" xmlns="http://www.w3.org/2000/svg" xmlns:cc="http://creativecommons.org/ns#" xmlns:dc="http://purl.org/dc/elements/1.1/" xmlns:rdf="http://www.w3.org/1999/02/22-rdf-syntax-ns#">
 <defs>
  <radialGradient id="radialGradient1869" cx="16.468" cy="13.481" r="4.6708" gradientTransform="matrix(1.602 .070709 -.093416 2.1164 -16.95 -24.721)" gradientUnits="userSpaceOnUse">
   <stop stop-color="#fff" offset="0"/>
   <stop stop-color="#fff" offset=".6542"/>
   <stop stop-color="#78c9f4" offset=".79884"/>
   <stop stop-color="#27b2f6" offset=".91774"/>
   <stop stop-color="#30b1eb" offset=".94286"/>
   <stop stop-color="#2ca6ec" offset="1"/>
  </radialGradient>
  <filter id="filter11290" x="-.024" y="-.024" width="1.048" height="1.048" color-interpolation-filters="sRGB">
   <feGaussianBlur stdDeviation="0.15875313"/>
  </filter>
  <linearGradient id="linearGradient1005" x1=".8714" x2="16.246" y1="16.164" y2=".78937" gradientTransform="translate(-.035033 .0066882)" gradientUnits="userSpaceOnUse">
   <stop stop-color="#00c8ff" offset="0"/>
   <stop stop-color="#14a0ff" offset="1"/>
  </linearGradient>
 </defs>
 <metadata>
  <rdf:RDF>
   <cc:Work rdf:about="">
    <dc:format>image/svg+xml</dc:format>
    <dc:type rdf:resource="http://purl.org/dc/dcmitype/StillImage"/>
   </cc:Work>
  </rdf:RDF>
 </metadata>
 <circle cx="8.4665" cy="8.4665" r="7.9377" filter="url(#filter11290)" opacity=".25" stroke-width=".14032"/>
 <path d="m16.404 8.4666c0 0.95153-0.16749 1.8639-0.47465 2.7093-0.21351 0.58768-0.49439 1.1433-0.83392 1.6572-0.14222 0.21608-0.29514 0.42475-0.45746 0.62528-0.51966 0.64179-1.1372 1.2007-1.8305 1.6543-0.2553 0.16718-0.52064 0.32009-0.79535 0.45711-1.0668 0.53389-2.2711 0.83422-3.5456 0.83422s-2.4788-0.30032-3.5456-0.83424c-0.27474-0.13705-0.5404-0.28998-0.79569-0.45711-0.70206-0.45973-1.327-1.0274-1.8509-1.6798-0.16263-0.20216-0.31524-0.41274-0.45746-0.63078-0.33046-0.5054-0.60422-1.0507-0.8135-1.627-0.30712-0.8453-0.47431-1.7573-0.47431-2.7085 0-4.3838 3.5538-7.9376 7.9376-7.9376 2.2005 0 4.1917 0.89549 5.6294 2.3417 0.41436 0.41663 0.78273 0.8793 1.0963 1.3795 0.29646 0.47108 0.54429 0.97582 0.73704 1.5068 0.30718 0.84559 0.47468 1.7579 0.47468 2.7093z" fill="url(#linearGradient1005)" stroke-width=".031006"/>
 <path d="m7.6776 12.845c-0.98333-0.10056-1.668-0.38193-2.174-0.89289-0.20458-0.20652-0.34339-0.39632-0.45873-0.6272-0.24436-0.48842-0.32085-1.0378-0.20132-1.4442 0.11892-0.40406 0.38938-0.84963 0.77008-1.2688 0.21141-0.23242 0.3184-0.38347 0.4162-0.57324 0.1179-0.22875 0.13065-0.38193 0.12075-0.59438-0.0096882-0.20611-0.053847-0.29474-0.16695-0.38877-0.10708-0.088625-0.15134-0.13788-0.4829-0.12187-0.3236 0.015402-0.48229-0.0043949-0.63692-0.078937-0.11983-0.057929-0.16236-0.1234-0.12524-0.19326 0.19275-0.15032 0.26026-0.31473 0.47209-0.39132-0.30993-0.26435-0.61602-0.54091-0.62661-0.93582 0.021823-0.21152 0.21754-0.16063 0.21754-0.16063 0.30687 0.062212 0.62407 0.12473 0.91306 0.13441 0.083117-0.011216 0.17072-0.033348 0.19469-0.049257 0.023966-0.015807 0.089338-0.10953 0.14523-0.20825 0.21784-0.38479 0.44853-0.63335 0.70709-0.76144 0.2978-0.14758 0.7192-0.22661 1.1191-0.20968 0.48086 0.020193 0.88923 0.18653 1.2227 0.49779 0.22927 0.21386 0.38102 0.2674 0.59907 0.21121 0.15339-0.03957 0.15685-0.039366 0.15685 0.00877 0 0.063232-0.05048 0.14512-0.12789 0.20764l-0.07139 0.057622 0.0719 0.042733c0.09913 0.058847 0.0874 0.10617-0.0305 0.1231-0.09821 0.014176-0.17184 0.046708-0.17184 0.076081 0 0.010303 0.014073 0.10005 0.031312 0.19938 0.042323 0.24364 0.027229 0.71573-0.030188 0.94866-0.08903 0.36123-0.22406 0.61567-0.45434 0.8572-0.17919 0.16297-0.68545 0.49716-0.73277 0.52695 0.022233 0 0.21611-0.011319 0.34594 1.05e-4 0.47525 0.042123 0.80622 0.12228 1.2835 0.34461 0.45078 0.21009 0.64229 0.23273 0.89177 0.10545 0.1592-0.08118 0.38703-0.25435 0.55737-0.48392 0.14564-0.19612 0.23243-0.27944 0.36776-0.27944 0.13258 0 0.22773 0.0874 0.32809 0.24048 0.14207 0.21682 0.21948 0.37164 0.27464 0.74928 0.03937 0.26996 0.02835 0.90349-0.0205 1.1727-0.29178 1.6081-1.3181 2.6907-2.8848 3.0434-0.42283 0.09515-0.59326 0.11228-1.1792 0.11841-0.30402 0.0032-0.58764 0.0021-0.63027-0.0022z" fill="none" opacity=".252" stroke="#000" stroke-opacity=".0078431" stroke-width="3.1252"/>
 <path d="m7.644 12.848c-0.98333-0.10056-1.668-0.38194-2.174-0.89289-0.20458-0.20652-0.34339-0.39631-0.45873-0.6272-0.24436-0.48842-0.32085-1.0378-0.20132-1.4442 0.11892-0.40406 0.38938-0.84963 0.77008-1.2688 0.21141-0.23242 0.3184-0.38347 0.4162-0.57324 0.1179-0.22875 0.13064-0.38193 0.12075-0.59438-0.0096882-0.20611-0.053847-0.29474-0.16695-0.38877-0.10708-0.088625-0.15134-0.13788-0.4829-0.12187-0.3236 0.015401-0.48229-0.0043901-0.63692-0.078937-0.11983-0.057929-0.16236-0.1234-0.12524-0.19326 0.19275-0.15032 0.26026-0.31473 0.47209-0.39132-0.30993-0.26435-0.61602-0.54091-0.62661-0.93582 0.021823-0.21152 0.21754-0.16063 0.21754-0.16063 0.30687 0.062212 0.62407 0.12473 0.91306 0.13441 0.083117-0.011216 0.17072-0.033348 0.19469-0.049257 0.023966-0.015807 0.089338-0.10953 0.14523-0.20825 0.21784-0.38479 0.44853-0.63335 0.70709-0.76144 0.2978-0.14758 0.7192-0.22661 1.1191-0.20968 0.48086 0.020193 0.88923 0.18653 1.2227 0.49779 0.22927 0.21386 0.38102 0.2674 0.59907 0.21121 0.15339-0.03957 0.15685-0.039366 0.15685 0.00877 0 0.063232-0.05048 0.14512-0.12789 0.20764l-0.07139 0.057622 0.0719 0.042733c0.09913 0.058847 0.0874 0.10617-0.0305 0.1231-0.098211 0.014176-0.17184 0.046708-0.17184 0.076081 0 0.010303 0.014073 0.10005 0.031312 0.19938 0.042323 0.24364 0.027229 0.71573-0.030188 0.94866-0.089029 0.36123-0.22406 0.61567-0.45434 0.8572-0.17919 0.16297-0.68545 0.49716-0.73277 0.52695 0.022234 0 0.21611-0.011319 0.34594 1.049e-4 0.47525 0.042123 0.80622 0.12228 1.2835 0.34461 0.45078 0.21009 0.64229 0.23273 0.89177 0.10545 0.1592-0.08118 0.38703-0.25435 0.55737-0.48392 0.14564-0.19612 0.23243-0.27944 0.36776-0.27944 0.13258 0 0.22773 0.0874 0.32809 0.24048 0.14207 0.21682 0.21948 0.37164 0.27464 0.74928 0.03937 0.26996 0.02835 0.90349-0.0205 1.1726-0.29178 1.6081-1.3181 2.6907-2.8848 3.0434-0.42283 0.09515-0.59326 0.11228-1.1792 0.11841-0.30402 0.0032-0.58764 0.0021-0.63027-0.0022z" fill="url(#radialGradient1869)" stroke-width=".026108"/>
</svg>
