<?xml version="1.0" encoding="UTF-8" standalone="no"?>
<svg
   xmlns:dc="http://purl.org/dc/elements/1.1/"
   xmlns:cc="http://creativecommons.org/ns#"
   xmlns:rdf="http://www.w3.org/1999/02/22-rdf-syntax-ns#"
   xmlns:svg="http://www.w3.org/2000/svg"
   xmlns="http://www.w3.org/2000/svg"
   xmlns:sodipodi="http://sodipodi.sourceforge.net/DTD/sodipodi-0.dtd"
   xmlns:inkscape="http://www.inkscape.org/namespaces/inkscape"
   width="64"
   height="64"
   version="1.1"
   id="svg58"
   sodipodi:docname="anbox.svg"
   inkscape:version="0.92.4 5da689c313, 2019-01-14">
  <sodipodi:namedview
     pagecolor="#ffffff"
     bordercolor="#666666"
     borderopacity="1"
     objecttolerance="10"
     gridtolerance="10"
     guidetolerance="10"
     inkscape:pageopacity="0"
     inkscape:pageshadow="2"
     inkscape:window-width="1920"
     inkscape:window-height="1005"
     id="namedview60"
     showgrid="false"
     inkscape:zoom="3.6875"
     inkscape:cx="32"
     inkscape:cy="32"
     inkscape:window-x="0"
     inkscape:window-y="45"
     inkscape:window-maximized="1"
     inkscape:current-layer="svg58" />
  <metadata
     id="metadata2">
    <rdf:RDF>
      <cc:Work
         rdf:about="">
        <dc:format>image/svg+xml</dc:format>
        <dc:type
           rdf:resource="http://purl.org/dc/dcmitype/StillImage" />
        <dc:title></dc:title>
      </cc:Work>
    </rdf:RDF>
  </metadata>
  <defs
     id="defs18">
    <style
       type="text/css"
       id="style4" />
    <style
       type="text/css"
       id="style6" />
    <style
       type="text/css"
       id="style8" />
    <filter
       id="filter2761"
       x="-.024"
       y="-.024"
       width="1.048"
       height="1.048"
       color-interpolation-filters="sRGB">
      <feGaussianBlur
         stdDeviation="0.14552168"
         id="feGaussianBlur10" />
    </filter>
    <linearGradient
       id="linearGradient1024-6"
       x1="1.3315"
       x2="15.65"
       y1="15.576"
       y2="1.17"
       gradientTransform="matrix(3.7796,0,0,3.7796,-80.815639,0.53047)"
       gradientUnits="userSpaceOnUse">
      <stop
         stop-color="#00dc96"
         offset="0"
         id="stop13" />
      <stop
         stop-color="#14d29b"
         offset="1"
         id="stop15" />
    </linearGradient>
    <style
       id="style869"
       type="text/css" />
    <filter
       color-interpolation-filters="sRGB"
       height="1.048"
       width="1.048"
       y="-.024"
       x="-.024"
       id="filter11290">
      <feGaussianBlur
         id="feGaussianBlur871"
         stdDeviation="0.15875313" />
    </filter>
    <linearGradient
       gradientUnits="userSpaceOnUse"
       gradientTransform="matrix(3.779602,0,0,3.779602,-0.13249395,0.02437843)"
       y2=".64687"
       y1="16.296"
       x2="16.388"
       x1=".73911"
       id="linearGradient1005">
      <stop
         id="stop874"
         offset="0"
         stop-color="#00dc96" />
      <stop
         id="stop876"
         offset="1"
         stop-color="#14d29b" />
    </linearGradient>
  </defs>
  <g
     transform="matrix(3.7796 0 0 3.7796 86.509 6.5083)"
     fill="#5e4aa6"
     stroke-width=".26458"
     id="g50">
    <g
       transform="translate(-.0272 .0065001)"
       id="g28">
      <circle
         cx="-330.35"
         cy="-328.38"
         r="0"
         id="circle20" />
      <circle
         cx="-312.11"
         cy="-326.25"
         r="0"
         id="circle22" />
      <circle
         cx="-306.02"
         cy="-333.07"
         r="0"
         id="circle24" />
      <circle
         cx="-308.84"
         cy="-326.01"
         r="0"
         id="circle26" />
    </g>
    <g
       transform="translate(-.0272 .0065001)"
       id="g38">
      <circle
         cx="-330.35"
         cy="-328.38"
         r="0"
         id="circle30" />
      <circle
         cx="-312.11"
         cy="-326.25"
         r="0"
         id="circle32" />
      <circle
         cx="-306.02"
         cy="-333.07"
         r="0"
         id="circle34" />
      <circle
         cx="-308.84"
         cy="-326.01"
         r="0"
         id="circle36" />
    </g>
    <g
       transform="translate(-.02705 .0064503)"
       id="g48">
      <circle
         cx="-330.35"
         cy="-328.38"
         r="0"
         id="circle40" />
      <circle
         cx="-312.11"
         cy="-326.25"
         r="0"
         id="circle42" />
      <circle
         cx="-306.02"
         cy="-333.07"
         r="0"
         id="circle44" />
      <circle
         cx="-308.84"
         cy="-326.01"
         r="0"
         id="circle46" />
    </g>
  </g>
  <g
     style="fill:#5e4aa6;stroke-width:0.26458001"
     transform="matrix(3.779602,0,0,3.779602,-0.10223823,0.02437957)"
     id="g889">
    <circle
       cx="-330.35001"
       cy="-328.38"
       r="0"
       id="circle881" />
    <circle
       cx="-312.10999"
       cy="-326.25"
       r="0"
       id="circle883" />
    <circle
       cx="-306.01999"
       cy="-333.07001"
       r="0"
       id="circle885" />
    <circle
       cx="-308.84"
       cy="-326.01001"
       r="0"
       id="circle887" />
  </g>
  <circle
     style="opacity:0.25;stroke-width:0.14032;filter:url(#filter11290)"
     cx="8.4665003"
     cy="8.4665003"
     r="7.9376998"
     id="circle891"
     transform="scale(3.779602)" />
  <path
     style="fill:url(#linearGradient1005);stroke-width:0.11719034"
     inkscape:connector-curvature="0"
     d="m 62.000591,31.999622 c 0,3.596443 -0.633045,7.044801 -1.79395,10.240454 -0.806983,2.221197 -1.868598,4.321219 -3.151924,6.263556 -0.537535,0.816697 -1.115511,1.605386 -1.729016,2.363348 -1.964108,2.425711 -4.298164,4.538168 -6.918562,6.252595 -0.964932,0.631874 -1.96785,1.209851 -3.006144,1.727732 -4.032079,2.017892 -8.583854,3.152982 -13.400957,3.152982 -4.817103,0 -9.368877,-1.13509 -13.400957,-3.153095 C 17.560673,58.329199 16.556584,57.751222 15.591652,57.119462 12.938107,55.381866 10.57612,53.236299 8.5959866,50.770487 7.98131,50.006402 7.4045049,49.210456 6.8669699,48.386389 5.6179626,46.476178 4.5832966,44.415161 3.7922637,42.236977 2.6315101,39.042117 1.9995984,35.595082 1.9995984,31.999925 c 0,-16.56902 13.4315716,-30.0005911 30.0005906,-30.0005911 8.317015,0 15.842958,3.384558 21.27727,8.8506941 1.566116,1.574658 2.958445,3.323366 4.143577,5.213961 1.120463,1.780457 2.057162,3.688211 2.785718,5.695104 1.161018,3.195994 1.794064,6.644162 1.794064,10.240454 z"
     id="path893" />
  <g
     style="fill:#5e4aa6;stroke-width:0.26458001"
     transform="matrix(3.779602,0,0,3.779602,-0.10280517,0.02456779)"
     id="g903">
    <circle
       cx="-330.35001"
       cy="-328.38"
       r="0"
       id="circle895" />
    <circle
       cx="-312.10999"
       cy="-326.25"
       r="0"
       id="circle897" />
    <circle
       cx="-306.01999"
       cy="-333.07001"
       r="0"
       id="circle899" />
    <circle
       cx="-308.84"
       cy="-326.01001"
       r="0"
       id="circle901" />
  </g>
  <path
     d="m 25.996,15.0005 a 0.996,0.996 0 0 0 -0.695,1.709 l 1.77,1.77 a 8.99,8.99 0 0 0 -3.837,5.52 h 17.53 a 8.993,8.993 0 0 0 -4.461,-5.896 l 1.396,-1.394 a 0.996,0.996 0 0 0 -0.695,-1.71 0.996,0.996 0 0 0 -0.713,0.301 l -1.998,1.998 a 8.96,8.96 0 0 0 -5.348,0.238 l -2.236,-2.236 a 0.996,0.996 0 0 0 -0.713,-0.3 z m 3.004,5 a 1,1 0 0 1 1,1 1,1 0 0 1 -1,1 1,1 0 0 1 -1,-1 1,1 0 0 1 1,-1 z m 6,0 a 1,1 0 0 1 1,1 1,1 0 0 1 -1,1 1,1 0 0 1 -1,-1 1,1 0 0 1 1,-1 z m -16,6 c -1.108,0 -2,0.892 -2,2 v 7 c 0,1.108 0.892,2 2,2 1.108,0 2,-0.892 2,-2 v -7 c 0,-1.108 -0.892,-2 -2,-2 z m 4,0 v 14 c 0,1.662 1.338,3 3,3 h 1 v 4 c 0,1.108 0.892,2 2,2 1.108,0 2,-0.892 2,-2 v -4 h 2 v 4 c 0,1.108 0.892,2 2,2 1.108,0 2,-0.892 2,-2 v -4 h 1 c 1.662,0 3,-1.338 3,-3 v -14 z m 22,0 c -1.108,0 -2,0.892 -2,2 v 7 c 0,1.108 0.892,2 2,2 1.108,0 2,-0.892 2,-2 v -7 c 0,-1.108 -0.892,-2 -2,-2 z"
     id="path56"
     inkscape:connector-curvature="0"
     style="fill:#ffffff" />
</svg>
