<?xml version="1.0" encoding="UTF-8"?>
<svg width="64" height="64" version="1.1" viewBox="0 0 16.933 16.933" xmlns="http://www.w3.org/2000/svg" xmlns:cc="http://creativecommons.org/ns#" xmlns:dc="http://purl.org/dc/elements/1.1/" xmlns:rdf="http://www.w3.org/1999/02/22-rdf-syntax-ns#" xmlns:xlink="http://www.w3.org/1999/xlink">
 <g transform="translate(-20.225)">
  <circle cx="28.691" cy="8.4665" r="7.9377" filter="url(#filter11290)" opacity=".25" stroke-width=".14032"/>
  <path d="m36.637 8.4665c0 0.95154-0.16749 1.8639-0.47464 2.7094-0.21351 0.58768-0.49439 1.1433-0.83393 1.6572-0.14222 0.21608-0.29514 0.42475-0.45746 0.62529-0.51966 0.64179-1.1372 1.2007-1.8305 1.6543-0.2553 0.16718-0.52065 0.3201-0.79536 0.45712-1.0668 0.53389-2.2711 0.83421-3.5456 0.83421s-2.4788-0.30032-3.5456-0.83424c-0.27474-0.13705-0.5404-0.28997-0.7957-0.45712-0.70207-0.45973-1.327-1.0274-1.8509-1.6798-0.16263-0.20216-0.31524-0.41275-0.45746-0.63078-0.33046-0.5054-0.60421-1.0507-0.8135-1.627-0.30711-0.84529-0.4743-1.7573-0.4743-2.7085 0-4.3838 3.5537-7.9375 7.9375-7.9375 2.2005 0 4.1917 0.89548 5.6295 2.3417 0.41436 0.41662 0.78274 0.87929 1.0963 1.3795 0.29645 0.47107 0.54428 0.97582 0.73704 1.5068 0.30718 0.84559 0.47467 1.7579 0.47467 2.7094z" fill="#6828ca" stroke-width=".031006"/>
  <g transform="translate(20.198 .0064997)" stroke-width=".11719">
   <path transform="scale(.26458)" d="m28.809 24.012c0.99383 0 1.9413-0.28932 2.7441-0.80469 4.14e-4 -2.66e-4 -4.14e-4 -0.0017 0-2e-3 -0.80282 0.51537-1.7504 0.80664-2.7441 0.80664z" fill="#ffd241"/>
   <path transform="scale(.26458)" d="m55 19.258-11.867-11.869v9.8965h-2e-3c0 0.54464 0.221 1.0374 0.57812 1.3945 0.35713 0.3571 0.85184 0.57812 1.3965 0.57812h9.8945z" fill="#fafafa" opacity=".6"/>
   <path transform="scale(.26458)" d="m11.236 7.3809c-1.0893 0-1.9727 0.88544-1.9727 1.9746v36.783c4.799 7.563 13.246 12.584 22.867 12.584 9.6214 0 18.07-5.021 22.869-12.584v-26.881h-9.8945c-0.54464 0-1.0394-0.22103-1.3965-0.57812-0.35712-0.3571-0.57812-0.84989-0.57812-1.3945h2e-3v-9.8965l11.867 11.869v-0.0078l-11.869-11.869h-31.895zm2.5703 5.8613h16.447c-0.0091 0.15168-0.01905 0.27406-0.0293 0.42773h-16.387c-0.01096-0.14226-0.02135-0.2849-0.03125-0.42773zm0 3.209h16.447c-0.0091 0.15169-0.01905 0.27406-0.0293 0.42773h-16.387c-0.01096-0.14226-0.02135-0.28489-0.03125-0.42773zm0 3.209h16.447c-0.0091 0.15169-0.01905 0.27406-0.0293 0.42774h-16.387c-0.01096-0.14226-0.02135-0.28489-0.03125-0.42774zm0 3.209h16.447c-0.0091 0.15169-0.01905 0.27406-0.0293 0.42773h-16.387c-0.01096-0.14226-0.02135-0.28489-0.03125-0.42773z" fill="#fafafa"/>
   <path transform="matrix(.26458 0 0 .26458 -20.198 -.0064997)" d="m114.56 21.178c-1.4758 0-2.8181 0.85888-3.4336 2.2012l-1.3594 2.9668c-0.82773 1.8062-2.6315 2.9648-4.6191 2.9648h-19.715c-2.8557 0-5.1699 2.3142-5.1699 5.1699v3.1211h2e-3v4.6055c0.79104 2.1782 1.8252 4.2402 3.0742 6.1504 0.53754 0.82408 1.1138 1.6187 1.7285 2.3828 1.9801 2.4658 4.3425 4.612 6.9961 6.3496 0.96494 0.63176 1.9694 1.2105 3.0078 1.7285 4.0321 2.018 8.5837 3.1523 13.4 3.1523 4.8171 0 9.3687-1.1345 13.4-3.1523 1.0383-0.51788 2.0409-1.0966 3.0059-1.7285 2.6204-1.7144 4.9558-3.8261 6.9199-6.252 0.6135-0.75797 1.191-1.5466 1.7285-2.3633 1.2833-1.9423 2.3454-4.0425 3.1523-6.2637v-17.258h-2e-3c0-2.0848-1.6906-3.7754-3.7754-3.7754z" fill="url(#linearGradient5383)" stroke-width=".11719"/>
  </g>
  <rect x="30.739" y="6.7436" width="4.238" height=".52916" rx=".20928" ry=".26458" fill="#6828ca" stroke-width=".91817" style="paint-order:fill markers stroke"/>
 </g>
 <metadata>
  <rdf:RDF>
   <cc:Work rdf:about="">
    <dc:format>image/svg+xml</dc:format>
    <dc:type rdf:resource="http://purl.org/dc/dcmitype/StillImage"/>
   </cc:Work>
  </rdf:RDF>
 </metadata>
 <defs>
  <filter id="filter11290" x="-.024" y="-.024" width="1.048" height="1.048" color-interpolation-filters="sRGB">
   <feGaussianBlur stdDeviation="0.15875313"/>
  </filter>
  <linearGradient id="linearGradient5383" x1="114.56" x2="114.56" y1="21.178" y2="61.426" gradientUnits="userSpaceOnUse">
   <stop stop-color="#f05df3" offset="0"/>
   <stop stop-color="#883df0" offset="1"/>
  </linearGradient>
 </defs>
</svg>
