<?xml version="1.0" encoding="UTF-8"?>
<svg width="64" height="64" version="1.1" viewBox="0 0 64 64" xmlns="http://www.w3.org/2000/svg" xmlns:cc="http://creativecommons.org/ns#" xmlns:dc="http://purl.org/dc/elements/1.1/" xmlns:rdf="http://www.w3.org/1999/02/22-rdf-syntax-ns#">
 <metadata>
  <rdf:RDF>
   <cc:Work rdf:about="">
    <dc:format>image/svg+xml</dc:format>
    <dc:type rdf:resource="http://purl.org/dc/dcmitype/StillImage"/>
    <dc:title/>
   </cc:Work>
  </rdf:RDF>
 </metadata>
 <defs>
  <style type="text/css"/>
  <filter id="filter11290" x="-.024" y="-.024" width="1.048" height="1.048" color-interpolation-filters="sRGB">
   <feGaussianBlur stdDeviation="0.15875313"/>
  </filter>
  <linearGradient id="linearGradient1005" x1=".73911" x2="16.388" y1="16.296" y2=".64687" gradientTransform="matrix(3.7796 0 0 3.7796 -.13249 .024378)" gradientUnits="userSpaceOnUse">
   <stop stop-color="#8cd750" offset="0"/>
   <stop stop-color="#7dcd32" offset=".48311"/>
   <stop stop-color="#87d241" offset="1"/>
  </linearGradient>
  <style type="text/css"/>
  <style type="text/css"/>
 </defs>
 <g transform="matrix(3.7796 0 0 3.7796 101.59 7.0752)" fill="#5e4aa6" stroke-width=".26458">
  <circle cx="-330.35" cy="-328.38" r="0"/>
  <circle cx="-312.11" cy="-326.25" r="0"/>
  <circle cx="-306.02" cy="-333.07" r="0"/>
  <circle cx="-308.84" cy="-326.01" r="0"/>
 </g>
 <circle transform="scale(3.7796)" cx="8.4665" cy="8.4665" r="7.9377" filter="url(#filter11290)" opacity=".25" stroke-width=".14032"/>
 <path d="m62.001 32c0 3.5964-0.63304 7.0448-1.794 10.24-0.80698 2.2212-1.8686 4.3212-3.1519 6.2636-0.53754 0.8167-1.1155 1.6054-1.729 2.3633-1.9641 2.4257-4.2982 4.5382-6.9186 6.2526-0.96493 0.63187-1.9678 1.2099-3.0061 1.7277-4.0321 2.0179-8.5839 3.153-13.401 3.153s-9.3689-1.1351-13.401-3.1531c-1.0384-0.518-2.0425-1.096-3.0074-1.7277-2.6535-1.7376-5.0155-3.8832-6.9957-6.349-0.61468-0.76408-1.1915-1.56-1.729-2.3841-1.249-1.9102-2.2837-3.9712-3.0747-6.1494-1.1608-3.1949-1.7927-6.6419-1.7927-10.237 0-16.569 13.432-30.001 30.001-30.001 8.317 0 15.843 3.3846 21.277 8.8507 1.5661 1.5747 2.9584 3.3234 4.1436 5.214 1.1205 1.7805 2.0572 3.6882 2.7857 5.6951 1.161 3.196 1.7941 6.6442 1.7941 10.24z" fill="url(#linearGradient1005)" stroke-width=".11719"/>
 <g transform="matrix(3.7796 0 0 3.7796 -.10281 .024568)" fill="#5e4aa6" stroke-width=".26458">
  <circle cx="-330.35" cy="-328.38" r="0"/>
  <circle cx="-312.11" cy="-326.25" r="0"/>
  <circle cx="-306.02" cy="-333.07" r="0"/>
  <circle cx="-308.84" cy="-326.01" r="0"/>
 </g>
 <path d="m40.91 34.7a14.275 14.275 0 0 0 5.4541-11.235h4.0854a18.358 18.358 0 0 1-7.4805 14.802l5.164 8.9431a4.0854 4.0854 0 0 1-1.4953 5.5807l-7.2047-12.477a18.323 18.323 0 0 1-7.3681 1.5361 18.323 18.323 0 0 1-7.3681-1.5361l-7.2047 12.477a4.0854 4.0854 0 0 1-1.4953-5.5807l10.342-17.915a8.175 8.175 0 0 1 3.683-13.743v-4.3429h4.0855v4.3429a8.175 8.175 0 0 1 3.683 13.743zm-3.534 2.0468-3.1212-5.4071a8.1791 8.1791 0 0 1-4.3755 0l-3.1213 5.4071a14.279 14.279 0 0 0 5.309 1.0173c1.8753 0 3.6667-0.36156 5.3091-1.0173zm-5.3111-11.239a2.0427 2.0427 0 1 0 0-4.0854 2.0427 2.0427 0 0 0 0 4.0854z" fill="#fff" stroke-width=".047876" p-id="7601"/>
</svg>
