<?xml version="1.0" encoding="UTF-8"?>
<svg width="64" height="64" version="1.1" viewBox="0 0 16.933 16.933" xmlns="http://www.w3.org/2000/svg" xmlns:cc="http://creativecommons.org/ns#" xmlns:dc="http://purl.org/dc/elements/1.1/" xmlns:rdf="http://www.w3.org/1999/02/22-rdf-syntax-ns#">
 <defs>
  <filter id="filter11290-5" x="-.024" y="-.024" width="1.048" height="1.048" color-interpolation-filters="sRGB">
   <feGaussianBlur stdDeviation="0.15875313"/>
  </filter>
  <linearGradient id="linearGradient1005-3" x1=".73911" x2="16.388" y1="16.296" y2=".64687" gradientTransform="matrix(1 0 0 1 .049997 .61122)" gradientUnits="userSpaceOnUse">
   <stop stop-color="#323741" offset="0"/>
   <stop stop-color="#465064" offset="1"/>
  </linearGradient>
 </defs>
 <metadata>
  <rdf:RDF>
   <cc:Work rdf:about="">
    <dc:format>image/svg+xml</dc:format>
    <dc:type rdf:resource="http://purl.org/dc/dcmitype/StillImage"/>
    <dc:title/>
   </cc:Work>
  </rdf:RDF>
 </metadata>
 <g transform="translate(-.085045 -.60476)">
  <circle transform="matrix(1 0 0 1 .085049 .60477)" cx="8.4665" cy="8.4665" r="7.9377" filter="url(#filter11290-5)" opacity=".25" stroke-width=".14032"/>
  <path d="m16.489 9.0714c0 0.95155-0.16749 1.8639-0.47466 2.7093-0.21351 0.58769-0.4944 1.1433-0.83394 1.6572-0.14222 0.21609-0.29514 0.42476-0.45746 0.62529-0.51967 0.6418-1.1372 1.2007-1.8305 1.6543-0.2553 0.16718-0.52065 0.32009-0.79536 0.45712-1.0668 0.5339-2.2712 0.83423-3.5457 0.83423-1.2745 0-2.4789-0.30033-3.5457-0.83426-0.27474-0.13705-0.54041-0.28998-0.79571-0.45712-0.70207-0.45974-1.327-1.0274-1.8509-1.6798-0.16263-0.20216-0.31525-0.41275-0.45746-0.63079-0.33046-0.50541-0.60423-1.0507-0.81351-1.627-0.30713-0.84532-0.47432-1.7573-0.47432-2.7085 0-4.3839 3.5539-7.9378 7.9378-7.9378 2.2005 0 4.1918 0.89551 5.6295 2.3417 0.41436 0.41664 0.78274 0.87932 1.0963 1.3795 0.29646 0.47109 0.5443 0.97584 0.73705 1.5068 0.30718 0.84561 0.47469 1.7579 0.47469 2.7093z" fill="url(#linearGradient1005-3)" stroke-width=".031006"/>
  <path d="m11.043 5.0396c-0.20251 0.055907-0.5423 0.50347-0.71468 0.5364-0.19785 0.037582-0.78736-0.3519-0.92464-0.20748-0.13604 0.14567 0.296 0.71592 0.27177 0.91346-0.025469 0.19661-0.58951 0.64169-0.4926 0.81531 0.097216 0.17238 0.77897-0.059323 0.95974 0.024225 0.18201 0.083861 0.43204 0.74263 0.62833 0.70505 0.19661-0.037582 0.18325-0.74263 0.32022-0.88799 0.13697-0.14443 0.85041-0.17952 0.87463-0.37737 0.02423-0.19661-0.6538-0.39787-0.75226-0.57149-0.09722-0.17362 0.08386-0.86625-0.09815-0.95011-0.02174-0.00963-0.04504-0.00714-0.07392 0" fill="#78cfff" stroke-width=".31059"/>
  <path d="m7.6423 7.5182c-0.39445 0.054664-0.44663 1.4874-0.73393 1.7642-0.28761 0.27674-1.6986 0.26463-1.7688 0.65877-0.070505 0.39321 1.2548 0.88923 1.4294 1.2517 0.17362 0.36029-0.27301 1.707 0.077649 1.8952 0.3519 0.18915 1.2315-0.93178 1.6257-0.98645 0.39445-0.05466 1.5346 0.78984 1.821 0.5131 0.28885-0.27674-0.50223-1.462-0.43204-1.8564 0.070505-0.39539 1.2219-1.2194 1.0483-1.5784-0.17362-0.36029-1.5359 0.030438-1.8865-0.15902-0.3519-0.18915-0.78487-1.5561-1.1806-1.4995" fill="#78cfff" stroke-width=".31059"/>
 </g>
</svg>
