<?xml version="1.0" encoding="UTF-8"?>
<svg width="64" height="64" version="1.1" viewBox="0 0 16.933 16.933" xmlns="http://www.w3.org/2000/svg" xmlns:cc="http://creativecommons.org/ns#" xmlns:dc="http://purl.org/dc/elements/1.1/" xmlns:rdf="http://www.w3.org/1999/02/22-rdf-syntax-ns#">
 <defs>
  <filter id="filter11290-56" x="-.024" y="-.024" width="1.048" height="1.048" color-interpolation-filters="sRGB">
   <feGaussianBlur stdDeviation="0.15875313"/>
  </filter>
  <linearGradient id="linearGradient1005-2" x1=".8714" x2="16.246" y1="16.164" y2=".78937" gradientTransform="matrix(1 0 0 1 1.4202 -.28624)" gradientUnits="userSpaceOnUse">
   <stop stop-color="#00c8ff" offset="0"/>
   <stop stop-color="#14a0ff" offset="1"/>
  </linearGradient>
 </defs>
 <metadata>
  <rdf:RDF>
   <cc:Work rdf:about="">
    <dc:format>image/svg+xml</dc:format>
    <dc:type rdf:resource="http://purl.org/dc/dcmitype/StillImage"/>
    <dc:title/>
   </cc:Work>
  </rdf:RDF>
 </metadata>
 <g transform="translate(-1.4552 .29293)">
  <circle transform="matrix(1 0 0 1 1.428 -.28643)" cx="8.4937" cy="8.46" r="7.9377" filter="url(#filter11290-56)" opacity=".25" stroke-width=".14032"/>
  <path d="m17.859 8.1739c0 0.95155-0.16749 1.8639-0.47466 2.7093-0.21351 0.58769-0.4944 1.1433-0.83394 1.6572-0.14222 0.21608-0.29514 0.42476-0.45746 0.62529-0.51967 0.6418-1.1372 1.2007-1.8305 1.6543-0.2553 0.16718-0.52065 0.32009-0.79536 0.45712-1.0668 0.5339-2.2712 0.83423-3.5457 0.83423-1.2745 0-2.4789-0.30033-3.5457-0.83426-0.27474-0.13705-0.54041-0.28998-0.79571-0.45712-0.70207-0.45974-1.327-1.0274-1.8509-1.6798-0.16263-0.20216-0.31525-0.41275-0.45746-0.63079-0.33046-0.50541-0.60423-1.0507-0.81351-1.627-0.30713-0.84532-0.47432-1.7573-0.47432-2.7085 0-4.3839 3.5539-7.9378 7.9378-7.9378 2.2005 0 4.1918 0.89551 5.6295 2.3417 0.41436 0.41664 0.78274 0.87932 1.0963 1.3795 0.29647 0.47109 0.5443 0.97584 0.73705 1.5068 0.30718 0.84561 0.47469 1.7579 0.47469 2.7093z" fill="url(#linearGradient1005-2)" stroke-width=".031006"/>
  <path d="m14.602 5.7625s-0.12713 1.5301-0.06925 2.3404c0.0578 0.81028-1.1079 1.2981-1.3808 1.4221-0.27291 0.12402-3.7553 0.048059-4.1605 0.048059s-0.82889 0.87747-0.82889 0.87747h3.1337c0.54373 0 0.99994 0.83044 0.99994 0.83044s0.52024 0.92393 1.5493 0.70177c1.029-0.2222 1.1081-0.94908 1.142-1.2346 0.06614-0.30591-0.38551-4.9857-0.38551-4.9857z" fill="#b4e1ff" stroke-width=".52917"/>
  <path d="m12.483 3.8934v5.292e-4h-5.0271s-2.0836-0.00824-2.3068 2.1415c0 0-0.12749 2.1873-0.29662 4.7248 0 0-0.12628 1.0656 1.2557 1.2532 1.4656 0.1989 2.1332-2.282 2.927-2.282h4.2581c0.63286 0 1.311-0.63137 1.311-1.5317 0-0.90037 2.64e-4 -2.2566-5.3e-4 -2.4613 7.94e-4 -0.20685-0.11496-1.789-2.1208-1.8448z" fill="#fff" stroke-width=".52917"/>
  <g fill="#0fa0ff">
   <rect x="7.3459" y="5.422" width=".88444" height="2.5592" ry=".44222"/>
   <rect transform="rotate(-90)" x="-7.1438" y="6.5085" width=".88444" height="2.5592" ry=".44222"/>
   <circle cx="12.219" cy="5.9313" r=".42387"/>
   <circle cx="12.219" cy="7.4719" r=".42387"/>
   <circle transform="rotate(-90)" cx="-6.7015" cy="11.449" r=".42387"/>
   <circle transform="rotate(-90)" cx="-6.7015" cy="12.989" r=".42387"/>
  </g>
 </g>
</svg>
