<?xml version="1.0" encoding="UTF-8"?>
<svg width="64" height="64" version="1.1" xmlns="http://www.w3.org/2000/svg" xmlns:cc="http://creativecommons.org/ns#" xmlns:dc="http://purl.org/dc/elements/1.1/" xmlns:rdf="http://www.w3.org/1999/02/22-rdf-syntax-ns#">
 <metadata>
  <rdf:RDF>
   <cc:Work rdf:about="">
    <dc:format>image/svg+xml</dc:format>
    <dc:type rdf:resource="http://purl.org/dc/dcmitype/StillImage"/>
    <dc:title/>
   </cc:Work>
  </rdf:RDF>
 </metadata>
 <defs>
  <style type="text/css"/>
  <style type="text/css"/>
  <style type="text/css"/>
  <style type="text/css"/>
  <filter id="filter11290" x="-.024" y="-.024" width="1.048" height="1.048" color-interpolation-filters="sRGB">
   <feGaussianBlur stdDeviation="0.15875313"/>
  </filter>
  <linearGradient id="linearGradient1005" x1=".73911" x2="12.872" y1="16.296" y2="4.1627" gradientTransform="matrix(3.7796 0 0 3.7796 -.13321 .024566)" gradientUnits="userSpaceOnUse">
   <stop stop-color="#3caaff" offset="0"/>
   <stop stop-color="#b496ff" offset="1"/>
  </linearGradient>
 </defs>
 <filter id="c" color-interpolation-filters="sRGB">
  <feColorMatrix values="0.21 0.72 0.072 0 0 0.21 0.72 0.072 0 0 0.21 0.72 0.072 0 0 0 0 0 1 0"/>
 </filter>
 <circle transform="matrix(3.7796 0 0 3.7796 -.1028 .024568)" cx="8.4937" cy="8.46" r="7.9377" filter="url(#filter11290)" opacity=".25" stroke-width=".14032"/>
 <path d="m62 32c0 3.5964-0.63304 7.0448-1.794 10.24-0.80698 2.2212-1.8686 4.3212-3.1519 6.2636-0.53754 0.8167-1.1155 1.6054-1.729 2.3633-1.9641 2.4257-4.2982 4.5382-6.9186 6.2526-0.96493 0.63187-1.9678 1.2099-3.0061 1.7277-4.0321 2.0179-8.5839 3.153-13.401 3.153s-9.3689-1.1351-13.401-3.1531c-1.0384-0.51799-2.0425-1.096-3.0074-1.7277-2.6535-1.7376-5.0155-3.8832-6.9957-6.349-0.61468-0.76408-1.1915-1.56-1.729-2.3841-1.249-1.9102-2.2837-3.9712-3.0747-6.1494-1.1608-3.1949-1.7927-6.6419-1.7927-10.237 0-16.569 13.432-30.001 30.001-30.001 8.317 0 15.843 3.3846 21.277 8.8507 1.5661 1.5747 2.9584 3.3234 4.1436 5.214 1.1205 1.7805 2.0572 3.6882 2.7857 5.6951 1.161 3.196 1.7941 6.6442 1.7941 10.24z" fill="url(#linearGradient1005)" stroke-width=".11719"/>
 <circle cx="-1248.7" cy="-1241.6" r="0" fill="#5e4aa6" image-rendering="optimizeSpeed"/>
 <path d="m31.394 46.123c0.12983-0.15577 0.20178-0.70194 0.16953-1.2884l-0.05595-1.018-6.9462-0.066c-4.9679-0.04727-7.0207-0.0044-7.2078 0.15009-0.32558 0.26896-0.35295 1.9146-0.03712 2.2319 0.16922 0.17003 1.9969 0.23368 7.0403 0.24519 5.6487 0.01289 6.8502-0.03064 7.0372-0.25483zm12.345-12.473c1.1773-0.41076 2.863-1.5497 3.1882-2.1542 0.17939-0.33331 0.07059-0.52446-0.80495-1.4151-0.55679-0.56636-1.1015-1.03-1.2104-1.0302-0.1089-3.81e-4 -0.61118 0.29186-1.1161 0.64912-2.173 1.5375-4.8593 1.2809-6.4184-0.61305-0.63298-0.76892-1.1535-2.2185-1.1512-3.2062 0.0026-1.1369 0.57911-2.5852 1.3684-3.4376 1.6329-1.7634 4.164-1.8736 6.3268-0.2755 0.43599 0.32217 0.87183 0.50997 1.0047 0.43292 0.48374-0.28059 2.0138-2.2338 1.9623-2.5049-0.08421-0.44236-1.5526-1.4726-2.7327-1.9172-1.4191-0.53465-3.5606-0.70964-5.0772-0.41486-5.2424 1.019-8.1481 6.7398-5.9072 11.631 1.0362 2.2617 3.3092 4.0847 5.7429 4.6059 1.1949 0.25583 3.5854 0.08254 4.8248-0.34988zm-23.431-0.03645c0.12834-0.08113 0.49578-0.77983 0.81655-1.5527 0.32076-0.77284 0.67919-1.5203 0.79652-1.661 0.16151-0.1937 0.9148-0.25353 3.1015-0.24632 1.5885 0.0052 2.9929 0.07637 3.1209 0.15811 0.12795 0.08171 0.49222 0.78209 0.80945 1.5564 0.31722 0.77429 0.67224 1.5234 0.78892 1.6646 0.29485 0.35693 3.3824 0.36937 3.5196 0.0143 0.05307-0.13746-1.3681-3.7093-3.1582-7.9375l-3.2547-7.6876-3.4439 0.10139-3.2524 7.6017c-1.7888 4.1809-3.2066 7.7217-3.1507 7.8685 0.07513 0.19712 0.48989 0.26694 1.5874 0.26729 0.81712 2.74e-4 1.5907-0.0659 1.719-0.14705zm3.19-6.8149c-0.12433-0.32621 1.3337-3.999 1.5873-3.9985 0.08793 2.13e-4 0.53394 0.89284 0.99109 1.9836 0.66396 1.5843 0.77915 2.0161 0.5726 2.1463-0.14222 0.08967-0.88416 0.1629-1.6488 0.16278-1.077-2.44e-4 -1.4154-0.06649-1.5023-0.29422z" fill="#fff" stroke-width="1.403"/>
 <circle cx="-1230.1" cy="-1262.1" r="0" fill="#5e4aa6" image-rendering="optimizeSpeed"/>
 <g transform="matrix(3.7796 0 0 3.7796 -63.811 -15.175)" fill="#5e4aa6" stroke-width=".26458">
  <circle cx="-330.35" cy="-328.38" r="0"/>
  <circle cx="-312.11" cy="-326.25" r="0"/>
  <circle cx="-306.02" cy="-333.07" r="0"/>
  <circle cx="-308.84" cy="-326.01" r="0"/>
 </g>
</svg>
