<?xml version="1.0" encoding="UTF-8"?>
<svg width="64" height="64" version="1.1" viewBox="0 0 16.933 16.933" xmlns="http://www.w3.org/2000/svg" xmlns:cc="http://creativecommons.org/ns#" xmlns:dc="http://purl.org/dc/elements/1.1/" xmlns:rdf="http://www.w3.org/1999/02/22-rdf-syntax-ns#">
 <defs>
  <filter id="filter11290-0" x="-.024" y="-.024" width="1.048" height="1.048" color-interpolation-filters="sRGB">
   <feGaussianBlur stdDeviation="0.15875313"/>
  </filter>
  <linearGradient id="linearGradient1005-9" x1=".73911" x2="16.388" y1="16.296" y2=".64687" gradientTransform="matrix(1 0 0 1 .90054 .75307)" gradientUnits="userSpaceOnUse">
   <stop stop-color="#dddfe1" offset="0"/>
   <stop stop-color="#f3f4f6" offset="1"/>
  </linearGradient>
  <linearGradient id="linearGradient1250-3-0" x1="4.7624" x2="4.7624" y1="12.435" y2="3.7041" gradientTransform="matrix(0 .86897 -.86897 0 16.786 7.8247)" gradientUnits="userSpaceOnUse">
   <stop stop-color="#db2f2f" offset="0"/>
   <stop stop-color="#e54243" offset="1"/>
  </linearGradient>
  <linearGradient id="linearGradient1242-5-6" x1="4.7624" x2="4.7624" y1="12.435" y2="3.7041" gradientTransform="matrix(.43449 .75255 -.75255 .43449 13.448 3.2967)" gradientUnits="userSpaceOnUse">
   <stop stop-color="#f36d01" offset="0"/>
   <stop stop-color="#f69901" offset="1"/>
  </linearGradient>
  <linearGradient id="linearGradient1234-6-7" x1="4.7624" x2="4.7624" y1="12.171" y2="3.7041" gradientTransform="matrix(.75255 .43449 -.43449 .75255 8.1074 1.1497)" gradientUnits="userSpaceOnUse">
   <stop stop-color="#fcaa00" offset="0"/>
   <stop stop-color="#fdc500" offset="1"/>
  </linearGradient>
  <linearGradient id="linearGradient1226-1-0" x1="4.7624" x2="4.7624" y1="12.725" y2="3.9687" gradientTransform="matrix(.86897 0 0 .86897 2.4782 1.8471)" gradientUnits="userSpaceOnUse">
   <stop stop-color="#4dae33" offset="0"/>
   <stop stop-color="#6fc84a" offset="1"/>
  </linearGradient>
 </defs>
 <metadata>
  <rdf:RDF>
   <cc:Work rdf:about="">
    <dc:format>image/svg+xml</dc:format>
    <dc:type rdf:resource="http://purl.org/dc/dcmitype/StillImage"/>
    <dc:title/>
   </cc:Work>
  </rdf:RDF>
 </metadata>
 <g transform="translate(-.93549 -.7465)">
  <circle transform="matrix(1 0 0 1 .90829 .75301)" cx="8.4937" cy="8.46" r="7.9377" filter="url(#filter11290-0)" opacity=".25" stroke-width=".14032"/>
  <path d="m17.34 9.2133c0 0.95155-0.16749 1.8639-0.47466 2.7093-0.21351 0.58769-0.4944 1.1433-0.83394 1.6572-0.14222 0.21609-0.29514 0.42476-0.45746 0.62529-0.51967 0.6418-1.1372 1.2007-1.8305 1.6543-0.2553 0.16718-0.52065 0.32009-0.79536 0.45712-1.0668 0.5339-2.2712 0.83423-3.5457 0.83423-1.2745 0-2.4789-0.30033-3.5457-0.83426-0.27474-0.13705-0.54041-0.28998-0.79571-0.45712-0.70207-0.45974-1.327-1.0274-1.8509-1.6798-0.16263-0.20216-0.31525-0.41275-0.45746-0.63079-0.33046-0.50541-0.60423-1.0507-0.81352-1.627-0.30713-0.84532-0.47432-1.7573-0.47432-2.7085 0-4.3839 3.5539-7.9378 7.9378-7.9378 2.2005 0 4.1918 0.89551 5.6295 2.3417 0.41436 0.41664 0.78274 0.87932 1.0963 1.3795 0.29646 0.47109 0.5443 0.97584 0.73705 1.5068 0.30718 0.84561 0.47469 1.7579 0.47469 2.7093z" fill="url(#linearGradient1005-9)" stroke-width=".031006"/>
  <g stroke="#7f7f7f" stroke-linecap="round" stroke-linejoin="round" stroke-opacity=".2" stroke-width=".045982">
   <path d="m14.027 11.963c0 1.019-0.82032 1.8393-1.8393 1.8393h-5.5179c-1.019 0-1.8393-0.82032-1.8393-1.8393 0-1.0189 0.82033-1.8393 1.8393-1.8393h5.5179c1.019 0 1.8393 0.82032 1.8393 1.8393z" fill="url(#linearGradient1250-3-0)"/>
   <path d="m13.128 8.2601c0.50948 0.88244 0.20922 2.003-0.67322 2.5125l-4.7786 2.7589c-0.88244 0.50948-2.003 0.20922-2.5125-0.67322-0.50947-0.88243-0.20921-2.003 0.67322-2.5125l4.7786-2.7589c0.88244-0.50948 2.003-0.20922 2.5125 0.67322z" fill="url(#linearGradient1242-5-6)"/>
   <path d="m10.312 5.6082c0.88244 0.50948 1.1827 1.63 0.67322 2.5125l-2.7589 4.7786c-0.50948 0.88244-1.63 1.1827-2.5125 0.67322-0.88243-0.50947-1.1827-1.6301-0.67322-2.5125l2.7589-4.7786c0.50948-0.88244 1.63-1.1827 2.5125-0.67322z" fill="url(#linearGradient1234-6-7)"/>
   <path d="m6.6166 4.606c1.019 0 1.8393 0.82032 1.8393 1.8393v5.5179c0 1.019-0.82032 1.8393-1.8393 1.8393-1.0189 0-1.8393-0.82032-1.8393-1.8393v-5.5179c0-1.019 0.82032-1.8393 1.8393-1.8393z" fill="url(#linearGradient1226-1-0)"/>
  </g>
  <circle cx="6.6166" cy="11.91" r="1.3229" fill="#65c143" stroke-linecap="round" stroke-width="1.2024"/>
  <circle cx="6.6166" cy="11.91" r=".66146" fill="#fff" stroke-linecap="round" stroke-width=".60121"/>
 </g>
</svg>
