<?xml version="1.0" encoding="UTF-8" standalone="no"?>
<svg
   xmlns:dc="http://purl.org/dc/elements/1.1/"
   xmlns:cc="http://creativecommons.org/ns#"
   xmlns:rdf="http://www.w3.org/1999/02/22-rdf-syntax-ns#"
   xmlns:svg="http://www.w3.org/2000/svg"
   xmlns="http://www.w3.org/2000/svg"
   xmlns:sodipodi="http://sodipodi.sourceforge.net/DTD/sodipodi-0.dtd"
   xmlns:inkscape="http://www.inkscape.org/namespaces/inkscape"
   width="64"
   height="64"
   version="1.1"
   viewBox="0 0 16.933 16.933"
   id="svg40"
   sodipodi:docname="appimagekit-balena-etcher-electron.svg"
   inkscape:version="0.92.4 5da689c313, 2019-01-14">
  <sodipodi:namedview
     pagecolor="#ffffff"
     bordercolor="#666666"
     borderopacity="1"
     objecttolerance="10"
     gridtolerance="10"
     guidetolerance="10"
     inkscape:pageopacity="0"
     inkscape:pageshadow="2"
     inkscape:window-width="1920"
     inkscape:window-height="1005"
     id="namedview42"
     showgrid="false"
     inkscape:zoom="3.6875"
     inkscape:cx="32"
     inkscape:cy="32"
     inkscape:window-x="0"
     inkscape:window-y="45"
     inkscape:window-maximized="1"
     inkscape:current-layer="svg40" />
  <metadata
     id="metadata2">
    <rdf:RDF>
      <cc:Work
         rdf:about="">
        <dc:format>image/svg+xml</dc:format>
        <dc:type
           rdf:resource="http://purl.org/dc/dcmitype/StillImage" />
        <dc:title></dc:title>
      </cc:Work>
    </rdf:RDF>
  </metadata>
  <defs
     id="defs16">
    <style
       type="text/css"
       id="style4" />
    <filter
       id="filter2761"
       x="-.024"
       y="-.024"
       width="1.048"
       height="1.048"
       color-interpolation-filters="sRGB">
      <feGaussianBlur
         stdDeviation="0.14552168"
         id="feGaussianBlur6" />
    </filter>
    <linearGradient
       id="linearGradient4673"
       x1="1.2573"
       x2="15.644"
       y1="15.429"
       y2="1.1082"
       gradientTransform="matrix(3.7796,0,0,3.7796,101.69,7.5815)"
       gradientUnits="userSpaceOnUse">
      <stop
         stop-color="#8cd750"
         offset="0"
         id="stop9" />
      <stop
         stop-color="#7dcd32"
         offset=".47728"
         id="stop11" />
      <stop
         stop-color="#87d241"
         offset="1"
         id="stop13" />
    </linearGradient>
    <style
       id="style4-7"
       type="text/css" />
    <filter
       color-interpolation-filters="sRGB"
       height="1.048"
       width="1.048"
       y="-.024"
       x="-.024"
       id="filter2761-5">
      <feGaussianBlur
         id="feGaussianBlur6-3"
         stdDeviation="0.14552168" />
    </filter>
    <filter
       id="filter11290"
       x="-.024"
       y="-.024"
       width="1.048"
       height="1.048"
       color-interpolation-filters="sRGB">
      <feGaussianBlur
         stdDeviation="0.15875313"
         id="feGaussianBlur862" />
    </filter>
    <linearGradient
       id="linearGradient1005"
       x1=".73911"
       x2="16.388"
       y1="16.296"
       y2=".64687"
       gradientTransform="translate(-0.03511,0.0065)"
       gradientUnits="userSpaceOnUse">
      <stop
         stop-color="#8cd750"
         offset="0"
         id="stop865" />
      <stop
         stop-color="#7dcd32"
         offset=".48311"
         id="stop867" />
      <stop
         stop-color="#87d241"
         offset="1"
         id="stop869" />
    </linearGradient>
    <linearGradient
       id="linearGradient1288"
       x1="32.153"
       x2="32.153"
       y1="46.773"
       y2="4.0937"
       gradientTransform="matrix(1.0000071,0,0,1.0000071,0.03378586,-1.9609709)"
       gradientUnits="userSpaceOnUse">
      <stop
         stop-color="#d1ecba"
         offset="0"
         id="stop872" />
      <stop
         stop-color="#d1ecba"
         stop-opacity="0"
         offset="1"
         id="stop874" />
    </linearGradient>
    <style
       type="text/css"
       id="style877" />
    <filter
       id="filter948"
       x="-.035705"
       y="-.0363"
       width="1.0714"
       height="1.0726"
       color-interpolation-filters="sRGB">
      <feGaussianBlur
         stdDeviation="15.43542"
         id="feGaussianBlur879" />
    </filter>
  </defs>
  <circle
     style="opacity:0.25;stroke-width:0.14032;filter:url(#filter11290)"
     cx="8.4665003"
     cy="8.4665003"
     r="7.9376998"
     id="circle884" />
  <path
     style="fill:url(#linearGradient1005);stroke-width:0.031006"
     inkscape:connector-curvature="0"
     d="m 16.403945,8.4664498 c 0,0.9515402 -0.16749,1.8639002 -0.47464,2.7094002 -0.21351,0.58768 -0.49439,1.1433 -0.83393,1.6572 -0.14222,0.21608 -0.29514,0.42475 -0.45746,0.62529 -0.51966,0.64179 -1.1372,1.2007 -1.8305,1.6543 -0.2553,0.16718 -0.52065,0.3201 -0.79536,0.45712 -1.0668,0.53389 -2.2711,0.83421 -3.5456,0.83421 -1.2745,0 -2.4788,-0.30032 -3.5456,-0.83424 -0.27474,-0.13705 -0.5404,-0.28997 -0.7957,-0.45712 -0.70207,-0.45973 -1.327,-1.0274 -1.8509,-1.6798 -0.16263,-0.20216 -0.31524,-0.41275 -0.45746,-0.63078 -0.33046,-0.5054 -0.60421,-1.0507 -0.8135,-1.627 -0.30711,-0.84529 -0.4743,-1.7573001 -0.4743,-2.7085 0,-4.3838002 3.5537,-7.9375 7.9375,-7.9375 2.2005,0 4.1917,0.89548 5.6295,2.3417 0.41436,0.4166201 0.78274,0.8792899 1.0963,1.3795 0.29645,0.47107 0.54428,0.9758199 0.73704,1.5067999 0.30718,0.8455901 0.47467,1.7578999 0.47467,2.7094001 z"
     id="path886" />
  <g
     transform="translate(26.876 1.8719)"
     fill="#5e4aa6"
     stroke-width=".26458"
     id="g32">
    <circle
       cx="-330.35"
       cy="-328.38"
       r="0"
       id="circle24" />
    <circle
       cx="-312.11"
       cy="-326.25"
       r="0"
       id="circle26" />
    <circle
       cx="-306.02"
       cy="-333.07"
       r="0"
       id="circle28" />
    <circle
       cx="-308.84"
       cy="-326.01"
       r="0"
       id="circle30" />
  </g>
  <g
     transform="matrix(.77191 0 0 .77191 19.202 1.9384)"
     stroke-width=".35276"
     id="g38">
    <path
       d="m-13.876 1.3229c-0.30898-0.00137-0.61859 0.065055-0.85473 0.19999l-4.7418 2.7098c-0.18309 0.10463-0.35221 0.26892-0.49196 0.46145l1.6784 0.97873 3.3202 1.9358c0.44934 0.26215 0.82266 0.70759 1.0578 1.2087 0.2351-0.50104 0.60845-0.94656 1.0578-1.2087l4.9934-2.9114c-0.13051-0.17146-0.28376-0.31821-0.44957-0.41497l-2.3585-1.3756-2.359-1.3761c-0.23492-0.13706-0.54316-0.20637-0.85213-0.20774zm6.2832 3.8327-1.6717 0.97461-3.3181 1.9353c-0.55176 0.32189-1.0603 1.208-1.0619 1.849 2e-6 0.0036 1e-3 0.00726 1e-3 0.010852l-5.17e-4 0.17931 0.01654 3.6623 0.0083 1.8164c0.19508-0.02982 0.38041-0.08546 0.53382-0.17311l4.7418-2.7098c0.47228-0.26987 0.85748-0.93042 0.85988-1.4743l0.012402-2.731 0.011885-2.7305c8.739e-4 -0.19541-0.049132-0.406-0.13332-0.60875zm-12.624 0.00413c-0.07108 0.18343-0.11498 0.37107-0.11575 0.54726l-0.0124 2.731-0.01189 2.7305c-0.0024 0.54398 0.3766 1.208 0.84644 1.4821l2.359 1.3756 2.359 1.3761c0.16926 0.09872 0.37695 0.16077 0.5953 0.18913l0.0083-1.8247 0.01654-3.6623-5.16e-4 -0.17931c-1.7e-5 -0.00359 1e-3 -0.00726 1e-3 -0.010852-0.0016-0.64092-0.51019-1.5271-1.0619-1.849l-3.3181-1.9353-1.665-0.97048z"
       fill="#c8f178"
       opacity=".5"
       style="isolation:isolate"
       id="path34" />
    <path
       d="m-13.884 3.175c-0.22888-0.00101-0.45812 0.04836-0.63303 0.14831l-1.7565 1.0036-1.7559 1.0036c-0.12152 0.06945-0.23443 0.17511-0.33125 0.29868l0.07493 0.043926 3.3202 1.9358c0.44934 0.26215 0.82266 0.70759 1.0578 1.2087 0.2351-0.50104 0.60846-0.94656 1.0578-1.2087l3.3202-1.9358 0.069762-0.040825c-0.089046-0.10825-0.18951-0.2017-0.29818-0.26511l-3.4943-2.0381c-0.17401-0.10153-0.40261-0.15298-0.63147-0.15399zm4.6833 2.9181-0.063563 0.037205-3.3181 1.9353c-0.55176 0.32189-1.0603 1.208-1.0619 1.849 2e-6 0.0036 1e-3 0.00726 1e-3 0.010852l-5.17e-4 0.17828 0.01654 3.621c0.11935-0.02409 0.23294-0.06004 0.32866-0.11472l1.7565-1.0036 1.7559-1.0036c0.34983-0.1999 0.63536-0.68955 0.63716-1.0924l0.0093-2.0226 0.00879-2.0226c5.614e-4 -0.11953-0.026113-0.24671-0.069735-0.37205zm-9.4095 0.0031c-0.03523 0.11028-0.05586 0.22142-0.05633 0.3266l-0.0093 2.0226-0.0088 2.0226c-0.0018 0.40293 0.27932 0.89513 0.62734 1.0981l3.4943 2.0381c0.10788 0.06292 0.23774 0.10433 0.37465 0.12867l0.01654-3.6292-5.17e-4 -0.17828c-1.6e-5 -0.00359 1e-3 -0.00726 1e-3 -0.010852-0.0016-0.64092-0.51019-1.5271-1.0619-1.849l-3.3181-1.9353-0.05891-0.034107z"
       fill="#fff"
       style="isolation:isolate"
       id="path36" />
  </g>
  <g
     style="fill:#5e4aa6;stroke-width:0.26458001"
     transform="translate(51.058241,-2.1460569)"
     id="g46">
    <circle
       cx="-330.35001"
       cy="-328.38"
       r="0"
       id="circle38" />
    <circle
       cx="-312.10999"
       cy="-326.25"
       r="0"
       id="circle40" />
    <circle
       cx="-306.01999"
       cy="-333.07001"
       r="0"
       id="circle42" />
    <circle
       cx="-308.84"
       cy="-326.01001"
       r="0"
       id="circle44" />
  </g>
  <g
     style="fill:#5e4aa6;stroke-width:0.26458001"
     transform="translate(24.15255,-4.0114999)"
     id="g896">
    <circle
       cx="-330.35001"
       cy="-328.38"
       r="0"
       id="circle888" />
    <circle
       cx="-312.10999"
       cy="-326.25"
       r="0"
       id="circle890" />
    <circle
       cx="-306.01999"
       cy="-333.07001"
       r="0"
       id="circle892" />
    <circle
       cx="-308.84"
       cy="-326.01001"
       r="0"
       id="circle894" />
  </g>
</svg>
