<?xml version="1.0" encoding="UTF-8"?>
<svg width="64" height="64" version="1.1" xmlns="http://www.w3.org/2000/svg" xmlns:cc="http://creativecommons.org/ns#" xmlns:dc="http://purl.org/dc/elements/1.1/" xmlns:rdf="http://www.w3.org/1999/02/22-rdf-syntax-ns#">
 <metadata>
  <rdf:RDF>
   <cc:Work rdf:about="">
    <dc:format>image/svg+xml</dc:format>
    <dc:type rdf:resource="http://purl.org/dc/dcmitype/StillImage"/>
   </cc:Work>
  </rdf:RDF>
 </metadata>
 <defs>
  <style type="text/css"/>
  <style type="text/css"/>
  <style type="text/css"/>
  <style type="text/css"/>
  <style type="text/css"/>
  <style type="text/css"/>
  <style type="text/css"/>
  <style type="text/css"/>
  <style type="text/css"/>
  <style type="text/css"/>
  <style type="text/css"/>
  <style type="text/css"/>
  <filter id="filter11290" x="-.024" y="-.024" width="1.048" height="1.048" color-interpolation-filters="sRGB">
   <feGaussianBlur stdDeviation="0.15875313"/>
  </filter>
  <linearGradient id="linearGradient1005" x1=".73911" x2="16.388" y1="16.296" y2=".64687" gradientTransform="matrix(3.7796 0 0 3.7796 -.13309 .024828)" gradientUnits="userSpaceOnUse">
   <stop stop-color="#00dc96" offset="0"/>
   <stop stop-color="#14d29b" offset="1"/>
  </linearGradient>
 </defs>
 <circle transform="matrix(3.7796 0 0 3.7796 -1.3999e-6 -1.3999e-6)" cx="8.4665" cy="8.4665" r="7.9377" filter="url(#filter11290)" opacity=".25" stroke-width=".14032"/>
 <path d="m62 32c0 3.5964-0.63304 7.0448-1.794 10.24-0.80698 2.2212-1.8686 4.3212-3.1519 6.2636-0.53754 0.8167-1.1155 1.6054-1.729 2.3633-1.9641 2.4257-4.2982 4.5382-6.9186 6.2526-0.96493 0.63187-1.9678 1.2099-3.0061 1.7277-4.0321 2.0179-8.5839 3.153-13.401 3.153-4.8171 0-9.3689-1.1351-13.401-3.1531-1.0384-0.518-2.0425-1.096-3.0074-1.7277-2.6535-1.7376-5.0155-3.8832-6.9957-6.349-0.61468-0.76408-1.1915-1.56-1.729-2.3841-1.249-1.9102-2.2837-3.9712-3.0747-6.1494-1.1608-3.1949-1.7927-6.6419-1.7927-10.237 0-16.569 13.432-30.001 30.001-30.001 8.317 0 15.843 3.3846 21.277 8.8507 1.5661 1.5747 2.9584 3.3234 4.1436 5.214 1.1205 1.7805 2.0572 3.6882 2.7857 5.6951 1.161 3.196 1.7941 6.6442 1.7941 10.24z" fill="url(#linearGradient1005)" stroke-width=".11719"/>
 <g transform="matrix(3.7796 0 0 3.7796 86.509 6.5083)" fill="#5e4aa6" stroke-width=".26458">
  <g transform="translate(-.0272 .0065001)">
   <circle cx="-330.35" cy="-328.38" r="0"/>
   <circle cx="-312.11" cy="-326.25" r="0"/>
   <circle cx="-306.02" cy="-333.07" r="0"/>
   <circle cx="-308.84" cy="-326.01" r="0"/>
   <circle cx="-330.35" cy="-328.38" r="0"/>
   <circle cx="-312.11" cy="-326.25" r="0"/>
   <circle cx="-306.02" cy="-333.07" r="0"/>
   <circle cx="-308.84" cy="-326.01" r="0"/>
  </g>
  <g transform="translate(-.02705 .0064503)">
   <circle cx="-330.35" cy="-328.38" r="0"/>
   <circle cx="-312.11" cy="-326.25" r="0"/>
   <circle cx="-306.02" cy="-333.07" r="0"/>
   <circle cx="-308.84" cy="-326.01" r="0"/>
  </g>
 </g>
 <g transform="translate(69.123)" fill="#5e4aa6">
  <circle cx="-1248.7" cy="-1241.6" r="0"/>
  <circle cx="-149.15" cy="23.855" r="0" fill-rule="evenodd"/>
  <circle cx="-1150.9" cy="-1256.6" r="0"/>
  <circle cx="-51.327" cy="8.8744" r="0" fill-rule="evenodd"/>
  <g transform="matrix(3.7796,0,0,3.7796,167.86,4.61)" stroke-width=".26458">
   <g transform="translate(-.0272 .0065001)">
    <circle cx="-330.35" cy="-328.38" r="0"/>
    <circle cx="-312.11" cy="-326.25" r="0"/>
    <circle cx="-306.02" cy="-333.07" r="0"/>
    <circle cx="-308.84" cy="-326.01" r="0"/>
    <circle cx="-330.35" cy="-328.38" r="0"/>
    <circle cx="-312.11" cy="-326.25" r="0"/>
    <circle cx="-306.02" cy="-333.07" r="0"/>
    <circle cx="-308.84" cy="-326.01" r="0"/>
   </g>
   <g transform="translate(-.02705 .0064503)">
    <circle cx="-330.35" cy="-328.38" r="0"/>
    <circle cx="-312.11" cy="-326.25" r="0"/>
    <circle cx="-306.02" cy="-333.07" r="0"/>
    <circle cx="-308.84" cy="-326.01" r="0"/>
   </g>
  </g>
  <circle cx="-1248.7" cy="-1241.6" r="0"/>
  <circle cx="-149.15" cy="23.855" r="0" fill-rule="evenodd"/>
  <circle cx="-1248.7" cy="-1241.6" r="0"/>
  <circle cx="-149.15" cy="23.855" r="0" fill-rule="evenodd"/>
  <circle cx="-1150.9" cy="-1256.6" r="0"/>
  <circle cx="-51.327" cy="8.8744" r="0" fill-rule="evenodd"/>
  <g transform="matrix(3.7796,0,0,3.7796,167.86,4.61)" stroke-width=".26458">
   <g transform="translate(-.0272 .0065001)">
    <circle cx="-330.35" cy="-328.38" r="0"/>
    <circle cx="-312.11" cy="-326.25" r="0"/>
    <circle cx="-306.02" cy="-333.07" r="0"/>
    <circle cx="-308.84" cy="-326.01" r="0"/>
    <circle cx="-330.35" cy="-328.38" r="0"/>
    <circle cx="-312.11" cy="-326.25" r="0"/>
    <circle cx="-306.02" cy="-333.07" r="0"/>
    <circle cx="-308.84" cy="-326.01" r="0"/>
   </g>
   <g transform="translate(-.02705 .0064503)">
    <circle cx="-330.35" cy="-328.38" r="0"/>
    <circle cx="-312.11" cy="-326.25" r="0"/>
    <circle cx="-306.02" cy="-333.07" r="0"/>
    <circle cx="-308.84" cy="-326.01" r="0"/>
   </g>
  </g>
 </g>
 <g transform="translate(0 .98776)">
  <path d="m31.943 11.722c-7.0048 0-10.872 5.9426-10.872 11.744h21.743c0-5.8018-4.3632-11.744-10.872-11.744z" fill="none" stroke="#fff" stroke-width="2.341"/>
  <g fill="#fff" stroke-width=".041424">
   <g>
    <path d="m12.768 43.16a0.82847 0.82847 0 0 1-0.09238-1.652 1.7729 1.7729 0 1 0-1.7489-0.90386 0.82847 0.82847 0 0 1-1.4498 0.79989 3.4295 3.4295 0 1 1 3.3868 1.7506 0.90221 0.90221 0 0 1-0.09569 0.0054z"/>
    <rect transform="rotate(27.09)" x="27.038" y="21.273" width="4.3362" height="5.9729" rx="2.0472"/>
    <path d="m16.569 28.842 2.316 1.1847-1.7836 3.4869a1.3007 1.3007 0 0 1-1.7503 0.56568 1.3007 1.3007 0 0 1-0.56568-1.7503z"/>
    <circle cx="18.269" cy="28.58" r="3.1089"/>
    <path d="m51.23 43.16a0.91505 0.91505 0 0 1-0.09445-0.0054 3.4299 3.4299 0 1 1 3.3872-1.7506 0.82847 0.82847 0 1 1-1.4498-0.79989 1.7729 1.7729 0 1 0-1.7493 0.90386 0.82847 0.82847 0 0 1-0.09237 1.652z"/>
    <rect transform="rotate(152.91)" x="-29.937" y="-56.392" width="4.3362" height="5.9729" rx="2.0472"/>
    <path d="m48.646 34.082a1.3007 1.3007 0 0 1-1.7503-0.56568l-1.7836-3.4869 2.316-1.1847 1.7836 3.4869a1.3007 1.3007 0 0 1-0.56568 1.7503z"/>
    <circle cx="45.73" cy="28.58" r="3.1089"/>
    <path d="m19.353 51.473c-1.519 0-2.7754-1.6507-3.1279-4.1072-0.18889-1.3185-0.09362-2.7004 0.26843-3.8938 0.3898-1.2841 1.0567-2.2199 1.8773-2.6395a2.1424 2.1424 0 0 1 0.98133-0.24191h4.2882v10.882z"/>
    <path d="m23.606 51.473c-0.88067 0-1.6093-1.6507-1.8135-4.1072-0.10936-1.3185-0.05426-2.7004 0.15575-3.8938 0.22576-1.2841 0.61224-2.2199 1.0882-2.6395 0.18185-0.16031 0.37281-0.24191 0.56875-0.24191s0.3869 0.08285 0.56958 0.24026l2.0588 1.8156c0.71953 0.63461 0.9689 2.6511 0.838 4.2252-0.10066 1.2129-0.41424 2.1615-0.83634 2.5384l-2.0583 1.8152c-0.18392 0.16528-0.37613 0.24771-0.57082 0.24771z"/>
    <path d="m23.984 41.482 2.0567 1.8139c0.46312 0.4101 0.73651 1.9656 0.61224 3.4759-0.08285 1.0054-0.32435 1.7377-0.61183 1.9937l-2.0567 1.8139c-0.76965 0.67852-1.5654-0.80486-1.7742-3.3168-0.20878-2.5119 0.24854-5.0993 1.0182-5.779 0.25476-0.22452 0.5178-0.20878 0.75557-0.0017z"/>
    <path d="m44.288 51.473c1.5186 0 2.7754-1.6507 3.1279-4.1072 0.18889-1.3185 0.09362-2.7004-0.26843-3.8938-0.3898-1.2841-1.0567-2.2199-1.8773-2.6395a2.1424 2.1424 0 0 0-0.98133-0.24191h-4.2886v10.882z"/>
   </g>
   <path d="m40.036 51.473c0.88067 0 1.6093-1.6507 1.8135-4.1072 0.10936-1.3185 0.05427-2.7004-0.15575-3.8938-0.22576-1.2841-0.61266-2.2199-1.0882-2.6395-0.18226-0.16031-0.37281-0.24191-0.56875-0.24191-0.19594 0-0.3869 0.08285-0.56999 0.24026l-2.0583 1.8156c-0.71994 0.63461-0.9689 2.6511-0.838 4.2252 0.10066 1.2129 0.41424 2.1615 0.83634 2.5384l2.0579 1.8152c0.18434 0.16528 0.37654 0.24771 0.57123 0.24771z" fill-opacity=".9829"/>
   <path d="m39.658 41.482-2.0567 1.8139c-0.46353 0.40844-0.73734 1.9639-0.61183 3.4742 0.08285 1.0054 0.32435 1.7377 0.61183 1.9937l2.0567 1.8139c0.7709 0.67976 1.565-0.80486 1.7738-3.3168 0.20878-2.5119-0.24854-5.0993-1.0182-5.779-0.256-0.22286-0.5178-0.20712-0.75557 0z"/>
  </g>
  <path d="m44.201 31.225a3.4639 3.4639 0 0 1-0.0232-1.8889c0.61059-2.2008 0.2096-4.6303 0.2096-4.6303-7.6663-2.393-12.433-0.01988-12.433-0.01988s-4.755-2.3877-12.427-0.01864c0 0-0.40844 2.4291 0.19552 4.6324a3.4668 3.4668 0 0 1-0.02858 1.8885c-0.21292 0.72782-0.44406 1.8434-0.44613 3.2642-0.01533 10.315 12.676 13.507 12.676 13.507s12.7-3.1544 12.715-13.469c0-1.4208-0.22742-2.5355-0.43826-3.2654z" fill="none" stroke="#fff" stroke-width="2.341"/>
  <path d="m34.323 32.359a2.3802 2.3802 0 1 0-2.9059 2.3164l-1.3376 5.6117 1.8504 0.5323 1.8521-0.5265-1.3189-5.6158a2.3802 2.3802 0 0 0 1.8599-2.3181z" fill="#fff" stroke-width=".041424"/>
 </g>
</svg>
