<?xml version="1.0" encoding="UTF-8" standalone="no"?>
<svg
   xmlns:dc="http://purl.org/dc/elements/1.1/"
   xmlns:cc="http://creativecommons.org/ns#"
   xmlns:rdf="http://www.w3.org/1999/02/22-rdf-syntax-ns#"
   xmlns:svg="http://www.w3.org/2000/svg"
   xmlns="http://www.w3.org/2000/svg"
   xmlns:sodipodi="http://sodipodi.sourceforge.net/DTD/sodipodi-0.dtd"
   xmlns:inkscape="http://www.inkscape.org/namespaces/inkscape"
   width="64"
   height="64"
   version="1.1"
   viewBox="0 0 16.933 16.933"
   id="svg24"
   sodipodi:docname="application-default-icon.svg"
   inkscape:version="0.92.4 5da689c313, 2019-01-14">
  <sodipodi:namedview
     pagecolor="#ffffff"
     bordercolor="#666666"
     borderopacity="1"
     objecttolerance="10"
     gridtolerance="10"
     guidetolerance="10"
     inkscape:pageopacity="0"
     inkscape:pageshadow="2"
     inkscape:window-width="1920"
     inkscape:window-height="1005"
     id="namedview26"
     showgrid="false"
     inkscape:zoom="3.6875"
     inkscape:cx="55.685324"
     inkscape:cy="32"
     inkscape:window-x="0"
     inkscape:window-y="45"
     inkscape:window-maximized="1"
     inkscape:current-layer="svg24" />
  <metadata
     id="metadata2">
    <rdf:RDF>
      <cc:Work
         rdf:about="">
        <dc:format>image/svg+xml</dc:format>
        <dc:type
           rdf:resource="http://purl.org/dc/dcmitype/StillImage" />
        <dc:title></dc:title>
      </cc:Work>
    </rdf:RDF>
  </metadata>
  <defs
     id="defs12">
    <filter
       id="filter2761-3"
       x="-.024"
       y="-.024"
       width="1.048"
       height="1.048"
       color-interpolation-filters="sRGB">
      <feGaussianBlur
         stdDeviation="0.14552168"
         id="feGaussianBlur4" />
    </filter>
    <linearGradient
       id="linearGradient1024-6"
       x1="1.3315"
       x2="15.65"
       y1="15.576"
       y2="1.17"
       gradientTransform="translate(26.188 4.5172)"
       gradientUnits="userSpaceOnUse">
      <stop
         stop-color="#96aab4"
         offset="0"
         id="stop7" />
      <stop
         stop-color="#a0b4c3"
         offset="1"
         id="stop9" />
    </linearGradient>
    <filter
       color-interpolation-filters="sRGB"
       height="1.048"
       width="1.048"
       y="-.024"
       x="-.024"
       id="filter11290">
      <feGaussianBlur
         id="feGaussianBlur835"
         stdDeviation="0.15875313" />
    </filter>
    <linearGradient
       gradientUnits="userSpaceOnUse"
       gradientTransform="translate(-0.03511,0.00649995)"
       y2=".64687"
       y1="16.296"
       x2="16.388"
       x1=".73911"
       id="linearGradient1005">
      <stop
         id="stop838"
         offset="0"
         stop-color="#a0b9cd" />
      <stop
         id="stop840"
         offset=".48743"
         stop-color="#96b4c8" />
      <stop
         id="stop842"
         offset="1"
         stop-color="#a0b9cd" />
    </linearGradient>
    <filter
       color-interpolation-filters="sRGB"
       height="1.168"
       width="1.168"
       y="-.084006"
       x="-.083994"
       id="filter917">
      <feGaussianBlur
         id="feGaussianBlur845"
         stdDeviation="0.22223482" />
    </filter>
  </defs>
  <circle
     style="opacity:0.25;stroke-width:0.14032;filter:url(#filter11290)"
     cx="8.4665003"
     cy="8.4665003"
     r="7.9376998"
     id="circle850" />
  <path
     style="fill:url(#linearGradient1005);stroke-width:0.031006"
     inkscape:connector-curvature="0"
     d="m 16.403945,8.4664499 c 0,0.95154 -0.16749,1.8639001 -0.47464,2.7094001 -0.21351,0.58768 -0.49439,1.1433 -0.83393,1.6572 -0.14222,0.21608 -0.29514,0.42475 -0.45746,0.62529 -0.51966,0.64179 -1.1372,1.2007 -1.8305,1.6543 -0.2553,0.16718 -0.52065,0.3201 -0.79536,0.45712 -1.0668,0.53389 -2.2711,0.83421 -3.5456,0.83421 -1.2745,0 -2.4788,-0.30032 -3.5456,-0.83424 -0.27474,-0.13705 -0.5404,-0.28997 -0.7957,-0.45712 -0.70207,-0.45973 -1.327,-1.0274 -1.8509,-1.6798 -0.16263,-0.20216 -0.31524,-0.41275 -0.45746,-0.63078 -0.33046,-0.5054 -0.60421,-1.0507 -0.8135,-1.627 -0.30711,-0.84529 -0.4743,-1.7573001 -0.4743,-2.7085001 0,-4.3838 3.5537,-7.93749995 7.9375,-7.93749995 2.2005,0 4.1917,0.89548005 5.6295,2.34170005 0.41436,0.4166199 0.78274,0.87929 1.0963,1.3794999 0.29645,0.47107 0.54428,0.97582 0.73704,1.5068 0.30718,0.84559 0.47467,1.7579 0.47467,2.7094 z"
     id="path852" />
  <circle
     cx="8.4665"
     cy="8.4665"
     r="3.6014"
     opacity=".15"
     stroke-width="1.0469"
     style="paint-order:stroke markers fill"
     id="circle20" />
  <path
     d="m8.339 4.2333c-0.23618 0.0087919-0.36599 0.088078-0.4506 0.25838-0.054284 0.10928-0.098651 0.29133-0.098701 0.40462-1.757e-4 0.4156-0.41978 0.79477-0.88004 0.79477-0.22583 0-0.34988-0.062165-0.80717-0.40462-0.20814-0.15587-0.33953-0.11533-0.66248 0.20257-0.3068 0.30207-0.31456 0.44671-0.042891 0.80717 0.11227 0.149 0.22602 0.3476 0.25269 0.44182 0.06597 0.23298-0.042036 0.65946-0.21549 0.84903-0.14217 0.15539-0.49521 0.27646-0.80305 0.27646-0.29273 0-0.3979 0.16665-0.3979 0.62784 0 0.35914 0.013779 0.40816 0.13694 0.48989 0.075262 0.049981 0.29268 0.1132 0.48368 0.14056 0.19101 0.027352 0.4115 0.091983 0.48936 0.14366 0.16439 0.10911 0.35493 0.49963 0.35657 0.73121 0.0013 0.16812-0.1281 0.46537-0.26148 0.60046-0.14537 0.14725-0.25171 0.41523-0.21342 0.53741 0.049058 0.15656 0.38136 0.49132 0.55344 0.55757 0.098566 0.03797 0.17017 0.0269 0.26561-0.04082 0.27974-0.19846 0.75833-0.41393 0.91983-0.41393 0.24346 0 0.64729 0.21486 0.73584 0.39171 0.041695 0.0833 0.093674 0.27746 0.11575 0.43097 0.053524 0.37229 0.13813 0.54749 0.28008 0.57773 0.064533 0.01368 0.16838 0.03689 0.23047 0.05116 0.062096 0.01465 0.2019 0.01465 0.31056 0 0.28344-0.03806 0.43452-0.2494 0.48214-0.67436 0.043528-0.38856 0.079207-0.45108 0.36536-0.63406 0.29056-0.1858 0.51799-0.22208 0.74153-0.11834 0.18535 0.08603 0.26026 0.13061 0.56429 0.33332 0.22276 0.14855 0.36157 0.124 0.61906-0.11162 0.38718-0.3543 0.39499-0.50836 0.04806-0.91311-0.33022-0.3852-0.33398-0.85911-0.0093-1.2231 0.12433-0.1394 0.23581-0.18789 0.60408-0.26148 0.55604-0.1111 0.64639-0.2019 0.648-0.65319 0.00164-0.45074-0.070098-0.52439-0.5922-0.60615-0.4968-0.077791-0.65586-0.19003-0.83043-0.58342-0.14513-0.3271-0.10509-0.51878 0.20464-0.96788 0.15883-0.23028 0.23789-0.39835 0.21962-0.4692-0.040825-0.15812-0.55546-0.62993-0.6873-0.62993-0.06105 0-0.22361 0.087919-0.3612 0.1943-0.37956 0.29352-0.60562 0.35983-0.93015 0.27283-0.38134-0.10215-0.51707-0.26322-0.6134-0.72862-0.11061-0.5345-0.18193-0.6307-0.49661-0.6666-0.10484-0.012049-0.19516-0.016883-0.27389-0.013951v-0.00103zm0.12764 2.6458a1.5875 1.5875 0 0 1 1.5875 1.5875 1.5875 1.5875 0 0 1-1.5875 1.5875 1.5875 1.5875 0 0 1-1.5875-1.5875 1.5875 1.5875 0 0 1 1.5875-1.5875z"
     fill="#fff"
     stroke-width=".26458"
     id="path22" />
  <g
     style="fill:#5e4aa6;stroke-width:0.26458001"
     transform="translate(29.9643,-3.65275)"
     id="g862">
    <circle
       cx="-330.35001"
       cy="-328.38"
       r="0"
       id="circle854" />
    <circle
       cx="-312.10999"
       cy="-326.25"
       r="0"
       id="circle856" />
    <circle
       cx="-306.01999"
       cy="-333.07001"
       r="0"
       id="circle858" />
    <circle
       cx="-308.84"
       cy="-326.01001"
       r="0"
       id="circle860" />
  </g>
</svg>
