<?xml version="1.0" encoding="UTF-8"?>
<svg width="64" height="64" version="1.1" viewBox="0 0 16.933 16.933" xmlns="http://www.w3.org/2000/svg" xmlns:cc="http://creativecommons.org/ns#" xmlns:dc="http://purl.org/dc/elements/1.1/" xmlns:rdf="http://www.w3.org/1999/02/22-rdf-syntax-ns#" xmlns:xlink="http://www.w3.org/1999/xlink">
 <defs>
  <filter id="filter11290-2" x="-.024" y="-.024" width="1.048" height="1.048" color-interpolation-filters="sRGB">
   <feGaussianBlur stdDeviation="0.15875313"/>
  </filter>
  <linearGradient id="linearGradient1005-0" x1=".73911" x2="16.388" y1="16.296" y2=".64687" gradientTransform="matrix(1 0 0 1 -2.0285 .65875)" gradientUnits="userSpaceOnUse">
   <stop stop-color="#1d2123" offset="0"/>
   <stop stop-color="#33393e" offset="1"/>
  </linearGradient>
  <linearGradient id="linearGradient1017" x1="282.37" x2="281.84" y1="644.85" y2="10.592" gradientTransform="matrix(.0089366 -.0092247 .0092247 .0089366 .91551 9.2068)" gradientUnits="userSpaceOnUse" xlink:href="#c-3"/>
  <linearGradient id="c-3" x1="282.37" x2="281.84" y1="644.85" y2="10.592" gradientUnits="userSpaceOnUse">
   <stop stop-color="#e3e3e3" offset="0"/>
   <stop stop-color="#fffcff" offset="1"/>
  </linearGradient>
 </defs>
 <metadata>
  <rdf:RDF>
   <cc:Work rdf:about="">
    <dc:format>image/svg+xml</dc:format>
    <dc:type rdf:resource="http://purl.org/dc/dcmitype/StillImage"/>
    <dc:title/>
   </cc:Work>
  </rdf:RDF>
 </metadata>
 <g transform="translate(1.9938 -.65201)">
  <circle transform="matrix(1 0 0 1 -2.021 .65851)" cx="8.4937" cy="8.46" r="7.9377" filter="url(#filter11290-2)" opacity=".25" stroke-width=".14032"/>
  <path d="m14.41 9.1188c0 0.95155-0.16749 1.8639-0.47466 2.7093-0.21351 0.58769-0.4944 1.1433-0.83394 1.6572-0.14222 0.21608-0.29514 0.42476-0.45746 0.62529-0.51967 0.6418-1.1372 1.2007-1.8305 1.6543-0.2553 0.16718-0.52065 0.32012-0.79536 0.45712-1.0668 0.5339-2.2712 0.83423-3.5457 0.83423-1.2745 0-2.4789-0.30033-3.5457-0.83426-0.27474-0.13705-0.54041-0.28998-0.79571-0.45712-0.70207-0.45974-1.327-1.0274-1.8509-1.6798-0.16263-0.20216-0.31525-0.41275-0.45746-0.63079-0.33046-0.50541-0.60423-1.0507-0.81351-1.627-0.30713-0.84532-0.47432-1.7573-0.47432-2.7085 0-4.3839 3.5539-7.9378 7.9378-7.9378 2.2005 0 4.1918 0.89551 5.6295 2.3417 0.41436 0.41664 0.78274 0.87932 1.0963 1.3795 0.29646 0.47109 0.5443 0.97584 0.73705 1.5068 0.30718 0.84561 0.47469 1.7579 0.47469 2.7093z" fill="url(#linearGradient1005-0)" stroke-width=".031006"/>
  <path d="m5.9382 4.0222c-1.5254 1.5746-3.0508 3.1492-4.5762 4.7238-0.24657 0.25452-0.24012 0.66075 0.014393 0.90732l4.7238 4.5762c0.25452 0.24657 0.66075 0.24012 0.90732-0.01439l4.5762-4.7238c0.24657-0.25452 0.24012-0.66075-0.014393-0.90732-1.5746-1.5254-3.1492-3.0508-4.7238-4.5762-0.25452-0.24657-0.66075-0.24012-0.90732 0.014394zm-4.2306 5.0586c0.061644-0.063632 0.1632-0.065243 0.22683-0.0036 0.063632 0.061644 0.065243 0.1632 0.0036 0.22683-0.061644 0.063632-0.1632 0.065243-0.22683 0.0036-0.063632-0.061644-0.065243-0.1632-0.0036-0.22683zm4.9542 4.7995c-0.061644 0.06363-0.1632 0.06524-0.22683 0.0036-0.063632-0.06164-0.065243-0.1632-0.0036-0.22683 0.061644-0.06363 0.1632-0.06524 0.22683-0.0036 0.063632 0.06164 0.065243 0.1632 0.0036 0.22683zm2.1038-2.5405c-1.2267 1.2663-3.2477 1.2983-4.5139 0.071612-1.2663-1.2267-1.2983-3.2477-0.071612-4.5139 1.2267-1.2663 3.2477-1.2983 4.5139-0.071612 1.2663 1.2267 1.2983 3.2477 0.071612 4.5139zm2.4725-2.1833c-0.06164 0.063632-0.1632 0.065243-0.22683 0.0036-0.06363-0.061644-0.06524-0.1632-0.0036-0.22683 0.06164-0.063632 0.1632-0.065243 0.22683-0.0036 0.06363 0.061644 0.06524 0.1632 0.0036 0.22683zm-4.7238-4.5762c-0.061644 0.063632-0.1632 0.065243-0.22683 0.0036-0.063632-0.061644-0.065243-0.1632-0.0036-0.22683 0.061644-0.063632 0.1632-0.065243 0.22683-0.0036 0.063632 0.061644 0.065243 0.1632 0.0036 0.22683z" fill="url(#linearGradient1017)" stroke-width=".012844"/>
  <path d="m8.0139 6.6959c-0.06655-0.042333-0.12921-0.05688-0.2076-0.048152-0.62663 0.069598-1.0762 0.57247-1.3487 1.5086-0.079546 0.00127-0.15606 0.011914-0.23295 0.032434 0.030563-0.79756 0.24667-1.3422 0.64826-1.634 0.1184-0.086022 0.069218-0.27267-0.076188-0.28916-0.32277-0.036642-0.63025-0.020346-0.94734 0.050171-0.077005 0.017134-0.13157 0.051162-0.18085 0.11275-0.39387 0.49231-0.35619 1.1658 0.11305 2.0205-0.055362 0.057147-0.10194 0.11878-0.14179 0.18765-0.54234-0.58557-0.77467-1.1235-0.697-1.6138 0.022902-0.14455-0.14386-0.24174-0.25835-0.15061-0.25414 0.20233-0.46005 0.43126-0.63439 0.70536-0.042333 0.06655-0.05688 0.12921-0.048152 0.2076 0.069598 0.62663 0.57247 1.0762 1.5086 1.3487 0.00127 0.079546 0.011914 0.15606 0.032434 0.23295-0.79756-0.030563-1.3422-0.24667-1.634-0.64826-0.086022-0.1184-0.27267-0.069218-0.28917 0.076179-0.036643 0.32277-0.020347 0.63025 0.050171 0.94734 0.017134 0.077006 0.051162 0.13157 0.11275 0.18085 0.49231 0.39387 1.1658 0.35619 2.0205-0.11305 0.057147 0.055362 0.11878 0.10194 0.18765 0.14179-0.58557 0.54234-1.1235 0.77468-1.6138 0.697-0.14455-0.0229-0.24174 0.14386-0.15061 0.25836 0.20233 0.25414 0.43126 0.46005 0.70536 0.63439 0.06655 0.04233 0.12921 0.05688 0.2076 0.04815 0.62663-0.0696 1.0762-0.57247 1.3487-1.5086 0.079546-0.0013 0.15606-0.01191 0.23295-0.03243-0.030563 0.79756-0.24667 1.3422-0.64826 1.634-0.1184 0.08602-0.069218 0.27267 0.076188 0.28916 0.32277 0.03664 0.63025 0.02035 0.94734-0.05017 0.077005-0.01713 0.13157-0.05116 0.18085-0.11275 0.39387-0.49231 0.35619-1.1658-0.11305-2.0205 0.055362-0.057147 0.10194-0.11878 0.14178-0.18766 0.54234 0.58557 0.77467 1.1235 0.697 1.6138-0.022902 0.14454 0.14386 0.24174 0.25835 0.15061 0.25414-0.20233 0.46005-0.43126 0.63439-0.70536 0.042333-0.06655 0.05688-0.12921 0.048152-0.2076-0.069598-0.62664-0.57247-1.0762-1.5086-1.3487-0.00127-0.079546-0.011912-0.15606-0.032434-0.23295 0.79756 0.030563 1.3422 0.24667 1.634 0.64826 0.086022 0.1184 0.27267 0.069218 0.28916-0.076188 0.036643-0.32277 0.020346-0.63025-0.050171-0.94734-0.017134-0.077005-0.051162-0.13157-0.11275-0.18085-0.49231-0.39387-1.1658-0.35619-2.0205 0.11305-0.057147-0.055362-0.11878-0.10194-0.18765-0.14179 0.58557-0.54234 1.1235-0.77467 1.6138-0.697 0.14455 0.022902 0.24174-0.14386 0.15061-0.25835-0.20232-0.25414-0.43123-0.46002-0.70534-0.63437zm-0.96501 2.9809c-0.30821 0.31815-0.816 0.32621-1.1342 0.017994-0.31815-0.30821-0.32621-0.816-0.017992-1.1342 0.30821-0.31815 0.816-0.32621 1.1342-0.017992 0.31815 0.30821 0.32621 0.816 0.017994 1.1342z" fill="url(#linearGradient1017)" stroke-width=".012844"/>
 </g>
</svg>
