<?xml version="1.0" encoding="UTF-8"?>
<svg width="64" height="64" version="1.1" viewBox="0 0 16.933 16.933" xmlns="http://www.w3.org/2000/svg" xmlns:cc="http://creativecommons.org/ns#" xmlns:dc="http://purl.org/dc/elements/1.1/" xmlns:rdf="http://www.w3.org/1999/02/22-rdf-syntax-ns#">
 <defs>
  <filter id="filter11290-7" x="-.024" y="-.024" width="1.048" height="1.048" color-interpolation-filters="sRGB">
   <feGaussianBlur stdDeviation="0.15875313"/>
  </filter>
  <linearGradient id="linearGradient1005-5" x1=".73911" x2="16.388" y1="16.296" y2=".64687" gradientTransform="matrix(1 0 0 1 -3.1156 1.7451)" gradientUnits="userSpaceOnUse">
   <stop stop-color="#dc2828" offset="0"/>
   <stop stop-color="#ff4141" offset="1"/>
  </linearGradient>
 </defs>
 <metadata>
  <rdf:RDF>
   <cc:Work rdf:about="">
    <dc:format>image/svg+xml</dc:format>
    <dc:type rdf:resource="http://purl.org/dc/dcmitype/StillImage"/>
    <dc:title/>
   </cc:Work>
  </rdf:RDF>
 </metadata>
 <g transform="translate(3.0805 -1.7387)">
  <circle transform="matrix(1 0 0 1 -3.0805 1.7387)" cx="8.4665" cy="8.4665" r="7.9377" filter="url(#filter11290-7)" opacity=".25" stroke-width=".14032"/>
  <path d="m13.324 10.205c0 0.95156-0.16749 1.8639-0.47465 2.7095-0.21351 0.58769-0.4944 1.1433-0.83395 1.6572-0.14222 0.21608-0.29515 0.42476-0.45747 0.6253-0.51967 0.6418-1.1372 1.2007-1.8305 1.6543-0.2553 0.16718-0.52066 0.32011-0.79538 0.45713-1.0668 0.5339-2.2711 0.83423-3.5457 0.83423-1.2745 0-2.4788-0.30033-3.5457-0.83426-0.27475-0.13705-0.54041-0.28998-0.79572-0.45713-0.70208-0.45974-1.327-1.0274-1.8509-1.6798-0.16263-0.20216-0.31525-0.41276-0.45747-0.63079-0.33047-0.50541-0.60422-1.0507-0.81352-1.627-0.30712-0.84531-0.47431-1.7573-0.47431-2.7086 0-4.3839 3.5538-7.9377 7.9377-7.9377 2.2005 0 4.1918 0.8955 5.6296 2.3417 0.41437 0.41663 0.78276 0.87931 1.0963 1.3795 0.29646 0.47108 0.54429 0.97584 0.73706 1.5068 0.30718 0.84561 0.47468 1.7579 0.47468 2.7095z" fill="url(#linearGradient1005-5)" stroke-width=".031006"/>
  <path d="m5.3862 5.7074a4.2333 4.2333 0 0 0-4.2333 4.2333 4.2333 4.2333 0 0 0 4.2333 4.2333 4.2333 4.2333 0 0 0 4.2333-4.2333 4.2333 4.2333 0 0 0-4.2333-4.2333zm-1.1271 1.7622c0.092117 0.00478 0.17821 0.035203 0.25838 0.09095l2.9667 2.0443c0.093451 0.065828 0.1582 0.15268 0.1943 0.25993 0.036103 0.10726 0.036103 0.2157 0 0.32401-0.036094 0.10725-0.10083 0.19412-0.19534 0.2589l-2.9657 2.0443c-0.10725 0.073269-0.22395 0.10274-0.35243 0.086817-0.12848-0.015928-0.2349-0.072354-0.32091-0.16898-0.086011-0.096634-0.12971-0.20997-0.12971-0.33951v-4.0881c0-0.12955 0.043697-0.24339 0.12971-0.34003 0.086021-0.096631 0.19242-0.15305 0.32091-0.16898 0.032033-0.00407 0.063346-0.00521 0.094051-0.00362z" fill="#fff" stroke-width=".52917"/>
 </g>
</svg>
