<?xml version="1.0" encoding="UTF-8" standalone="no"?>
<svg
   xmlns:dc="http://purl.org/dc/elements/1.1/"
   xmlns:cc="http://creativecommons.org/ns#"
   xmlns:rdf="http://www.w3.org/1999/02/22-rdf-syntax-ns#"
   xmlns:svg="http://www.w3.org/2000/svg"
   xmlns="http://www.w3.org/2000/svg"
   xmlns:xlink="http://www.w3.org/1999/xlink"
   xmlns:sodipodi="http://sodipodi.sourceforge.net/DTD/sodipodi-0.dtd"
   xmlns:inkscape="http://www.inkscape.org/namespaces/inkscape"
   height="64"
   viewBox="0 0 64 64"
   width="64"
   version="1.1"
   id="svg33"
   sodipodi:docname="applications-engineering.svg"
   inkscape:version="1.0.1 (3bc2e813f5, 2020-09-07, custom)">
  <circle
     transform="matrix(3.7796,0,0,3.7796,-0.10278795,0.02458453)"
     cx="8.4937"
     cy="8.46"
     r="7.9376998"
     filter="url(#filter11290)"
     opacity="0.25"
     stroke-width="0.14032"
     id="circle1051"
     style="filter:url(#filter11290-2)" />
  <path
     d="m 62.0004,32.00045 c 0,3.5964 -0.63305,7.0448 -1.794,10.24 -0.80698,2.2212 -1.8686,4.3212 -3.1519,6.2636 -0.53754,0.8167 -1.1155,1.6054 -1.729,2.3633 -1.9641,2.4257 -4.2982,4.5382 -6.9186,6.2526 -0.96493,0.63187 -1.9678,1.2099 -3.0061,1.7277 -4.0321,2.0179 -8.5839,3.153 -13.401,3.153 -4.8171,0 -9.3689,-1.1351 -13.401,-3.1531 -1.0384,-0.51799 -2.0425,-1.096 -3.0074,-1.7277 -2.6535,-1.7376 -5.0155,-3.8832 -6.9957,-6.349 -0.61468,-0.76408 -1.1915,-1.56 -1.729,-2.3841 -1.249,-1.9102 -2.2837,-3.9712 -3.0747,-6.1494 -1.1608,-3.1949 -1.7927,-6.6419 -1.7927,-10.237 0,-16.569 13.432,-30.001 30.001,-30.001 8.317,0 15.843,3.3846 21.277,8.8507 1.5661,1.5747 2.9584,3.3234 4.1436,5.214 1.1205,1.7805 2.0572,3.6882 2.7857,5.6951 1.161,3.196 1.7941,6.6442 1.7941,10.24 z"
     fill="url(#linearGradient1005)"
     stroke-width="0.11719"
     id="path1053"
     style="fill:url(#linearGradient1005)" />
  <g
     fill="#5e4aa6"
     id="g1103"
     transform="translate(-70.773181)">
    <circle
       cx="-1250.1"
       cy="-1241.1"
       r="0"
       id="circle1085" />
    <circle
       cx="-150.58"
       cy="24.311001"
       r="0"
       fill-rule="evenodd"
       id="circle1087" />
    <circle
       cx="-1163.3"
       cy="-1241.6"
       r="0"
       id="circle1089" />
    <circle
       cx="-63.768002"
       cy="23.855"
       r="0"
       fill-rule="evenodd"
       id="circle1091" />
    <g
       transform="matrix(3.7796,0,0,3.7796,-17.538,-38.72)"
       stroke-width="0.26458"
       id="g1101">
      <circle
         cx="-330.35001"
         cy="-328.38"
         r="0"
         id="circle1093" />
      <circle
         cx="-312.10999"
         cy="-326.25"
         r="0"
         id="circle1095" />
      <circle
         cx="-306.01999"
         cy="-333.07001"
         r="0"
         id="circle1097" />
      <circle
         cx="-308.84"
         cy="-326.01001"
         r="0"
         id="circle1099" />
    </g>
  </g>
  <metadata
     id="metadata39">
    <rdf:RDF>
      <cc:Work
         rdf:about="">
        <dc:format>image/svg+xml</dc:format>
        <dc:type
           rdf:resource="http://purl.org/dc/dcmitype/StillImage" />
        <dc:title></dc:title>
      </cc:Work>
    </rdf:RDF>
  </metadata>
  <defs
     id="defs37">
    <linearGradient
       id="linearGradient938"
       x1="99.523003"
       x2="103.24"
       y1="38.493999"
       y2="41.915001"
       gradientTransform="matrix(1.3333,0,0,1.3333,-103.146,-21.795)"
       gradientUnits="userSpaceOnUse">
      <stop
         stop-color="#6eb92e"
         offset="0"
         id="stop866" />
      <stop
         stop-color="#4592d6"
         offset="1"
         id="stop868" />
    </linearGradient>
    <linearGradient
       id="b-3"
       x1="399.57001"
       x2="399.57001"
       y1="545.79999"
       y2="517.79999"
       gradientTransform="matrix(2.1429,0,0,2.1429,-753.926,-1107.5)"
       gradientUnits="userSpaceOnUse">
      <stop
         stop-color="#3889e9"
         offset="0"
         id="stop871" />
      <stop
         stop-color="#5ea5fb"
         offset="1"
         id="stop873" />
    </linearGradient>
    <style
       type="text/css"
       id="style876" />
    <style
       type="text/css"
       id="style878" />
    <filter
       id="filter1057"
       x="-0.027000001"
       y="-0.027000001"
       width="1.054"
       height="1.054"
       color-interpolation-filters="sRGB">
      <feGaussianBlur
         stdDeviation="0.61875"
         id="feGaussianBlur880" />
    </filter>
    <linearGradient
       id="linearGradient1053"
       x1="-127"
       x2="-72"
       y1="60"
       y2="5"
       gradientTransform="translate(203.93,-0.054156)"
       gradientUnits="userSpaceOnUse">
      <stop
         stop-color="#1d2123"
         offset="0"
         id="stop883" />
      <stop
         stop-color="#33393e"
         stop-opacity=".99608"
         offset="1"
         id="stop885" />
    </linearGradient>
    <linearGradient
       inkscape:collect="always"
       xlink:href="#c"
       id="linearGradient1017"
       gradientUnits="userSpaceOnUse"
       x1="282.37482"
       y1="644.84979"
       x2="281.83868"
       y2="10.592493" />
    <linearGradient
       inkscape:collect="always"
       xlink:href="#c"
       id="linearGradient1019"
       gradientUnits="userSpaceOnUse"
       x1="282.37482"
       y1="644.84979"
       x2="281.83868"
       y2="10.592493" />
    <linearGradient
       inkscape:collect="always"
       xlink:href="#c"
       id="linearGradient1021"
       gradientUnits="userSpaceOnUse"
       x1="282.37482"
       y1="644.84979"
       x2="281.83868"
       y2="10.592493" />
    <linearGradient
       gradientUnits="userSpaceOnUse"
       y2="12.461"
       y1="57.955"
       x2="45.628"
       x1="45.628"
       id="b-36">
      <stop
         id="stop2-7"
         offset="0" />
      <stop
         id="stop4-5"
         offset="1"
         stop-opacity="0" />
    </linearGradient>
    <linearGradient
       id="b-3-3"
       x1="399.57"
       x2="399.57"
       y1="545.8"
       y2="517.8"
       gradientTransform="matrix(0.56696445,0,0,0.56696445,-218.63929,-293.15252)"
       gradientUnits="userSpaceOnUse">
      <stop
         stop-color="#3889e9"
         offset="0"
         id="stop850" />
      <stop
         stop-color="#5ea5fb"
         offset="1"
         id="stop852" />
    </linearGradient>
    <linearGradient
       id="linearGradient1001"
       x1="32.431"
       x2="32.431"
       y1="61.873"
       y2="1.6692"
       gradientTransform="matrix(0.26457812,0,0,0.26457812,-31.030853,-6.0244504)"
       gradientUnits="userSpaceOnUse">
      <stop
         stop-color="#1d2123"
         offset="0"
         id="stop855" />
      <stop
         stop-color="#33393e"
         offset="1"
         id="stop857" />
    </linearGradient>
    <linearGradient
       id="linearGradient1057">
      <stop
         stop-color="#fff"
         offset="0"
         id="stop4-3" />
      <stop
         stop-color="#fff"
         stop-opacity="0"
         offset="1"
         id="stop6" />
    </linearGradient>
    <linearGradient
       id="linearGradient982"
       x1="34.999"
       x2="34.999"
       y1="27.545"
       y2="52.847"
       gradientTransform="matrix(1.5625,0,0,1.5625,0.40633,-5.1891)"
       gradientUnits="userSpaceOnUse">
      <stop
         stop-color="#32b4ff"
         offset="0"
         id="stop9-5" />
      <stop
         stop-color="#3287ff"
         offset="1"
         id="stop11" />
    </linearGradient>
    <style
       type="text/css"
       id="style14" />
    <style
       type="text/css"
       id="style16" />
    <linearGradient
       id="linearGradient1047"
       x1="21.314"
       x2="21.314"
       y1="18.052"
       y2="43.681"
       gradientTransform="matrix(1.5625,0,0,1.5625,-9.2253,1.3231)"
       gradientUnits="userSpaceOnUse">
      <stop
         stop-color="#14dc78"
         offset="0"
         id="stop18" />
      <stop
         stop-color="#14a03c"
         offset="1"
         id="stop20" />
    </linearGradient>
    <linearGradient
       id="linearGradient1049"
       x1="41.729"
       x2="41.729"
       y1="12.316"
       y2="37.368"
       gradientTransform="matrix(1.5625,0,0,1.5625,-8.1072,-10.908)"
       gradientUnits="userSpaceOnUse">
      <stop
         stop-color="#ff3c64"
         offset="0"
         id="stop23" />
      <stop
         stop-color="#ff4628"
         offset="1"
         id="stop25" />
    </linearGradient>
    <linearGradient
       id="linearGradient1059"
       x1="34.427"
       x2="34.427"
       y1="32.234"
       y2="39.768"
       gradientTransform="matrix(1,0,0,1.2271,0.20646,-10.975)"
       gradientUnits="userSpaceOnUse"
       xlink:href="#linearGradient1057" />
    <linearGradient
       id="linearGradient1063"
       x1="34.427"
       x2="34.427"
       y1="32.234"
       y2="39.768"
       gradientTransform="matrix(1,0,0,1.2271,-12.55,-19.793)"
       gradientUnits="userSpaceOnUse"
       xlink:href="#linearGradient1057" />
    <linearGradient
       id="linearGradient1067"
       x1="34.427"
       x2="34.427"
       y1="32.234"
       y2="39.768"
       gradientTransform="matrix(1,0,0,1.2271,5.7554,-25.761)"
       gradientUnits="userSpaceOnUse"
       xlink:href="#linearGradient1057" />
    <filter
       id="filter2761"
       x="-.024"
       y="-.024"
       width="1.048"
       height="1.048"
       color-interpolation-filters="sRGB">
      <feGaussianBlur
         stdDeviation="0.14552168"
         id="feGaussianBlur31" />
    </filter>
    <linearGradient
       id="linearGradient1024"
       x1="1.3315"
       x2="15.65"
       y1="15.576"
       y2="1.17"
       gradientTransform="matrix(3.7796,0,0,3.7796,72.4059,0.53085)"
       gradientUnits="userSpaceOnUse">
      <stop
         stop-color="#dddfe1"
         offset="0"
         id="stop34" />
      <stop
         stop-color="#f3f4f6"
         stop-opacity=".99608"
         offset="1"
         id="stop36" />
    </linearGradient>
    <filter
       id="filter2761-3"
       x="-.024"
       y="-.024"
       width="1.048"
       height="1.048"
       color-interpolation-filters="sRGB">
      <feGaussianBlur
         stdDeviation="0.14552168"
         id="feGaussianBlur2" />
    </filter>
    <linearGradient
       id="linearGradient1024-6"
       x1="1.3315"
       x2="15.65"
       y1="15.576"
       y2="1.17"
       gradientTransform="translate(0 -.07421)"
       gradientUnits="userSpaceOnUse">
      <stop
         stop-color="#dddfe1"
         offset="0"
         id="stop5" />
      <stop
         stop-color="#f3f4f6"
         stop-opacity=".99608"
         offset="1"
         id="stop7-6" />
    </linearGradient>
    <filter
       color-interpolation-filters="sRGB"
       height="1.1062"
       width="1.138"
       y="-.053076"
       x="-.069001"
       id="filter911">
      <feGaussianBlur
         id="feGaussianBlur2-3"
         stdDeviation="0.5750183" />
    </filter>
    <linearGradient
       gradientUnits="userSpaceOnUse"
       y2="24.006"
       y1="24.006"
       x2="34.001"
       x1="14"
       id="linearGradient921">
      <stop
         id="stop5-6"
         offset="0"
         stop-color="#fff" />
      <stop
         id="stop7-7"
         offset="1"
         stop-color="#e6e6e6" />
    </linearGradient>
    <linearGradient
       gradientUnits="userSpaceOnUse"
       gradientTransform="matrix(3.7795,0,0,3.7795,-78.322643,0.031541)"
       y2="1.852"
       y1="15.081"
       x2="7.9373"
       x1="7.9373"
       id="linearGradient862-3">
      <stop
         id="stop10"
         offset="0"
         stop-color="#1a1a1a" />
      <stop
         id="stop12-2"
         offset="1"
         stop-color="#4d4d4d" />
    </linearGradient>
    <filter
       id="filter11290"
       x="-0.024"
       y="-0.024"
       width="1.048"
       height="1.048"
       color-interpolation-filters="sRGB">
      <feGaussianBlur
         stdDeviation="0.15875313"
         id="feGaussianBlur861" />
    </filter>
    <linearGradient
       id="linearGradient938-9"
       x1="99.523"
       x2="103.24"
       y1="38.494"
       y2="41.915"
       gradientTransform="matrix(1.3333,0,0,1.3333,-173.92318,-21.795)"
       gradientUnits="userSpaceOnUse">
      <stop
         stop-color="#6eb92e"
         offset="0"
         id="stop1023" />
      <stop
         stop-color="#4592d6"
         offset="1"
         id="stop1025" />
    </linearGradient>
    <linearGradient
       id="b-3-1"
       x1="399.57"
       x2="399.57"
       y1="545.8"
       y2="517.8"
       gradientTransform="matrix(2.1429,0,0,2.1429,-824.70318,-1107.5)"
       gradientUnits="userSpaceOnUse">
      <stop
         stop-color="#3889e9"
         offset="0"
         id="stop1028" />
      <stop
         stop-color="#5ea5fb"
         offset="1"
         id="stop1030" />
    </linearGradient>
    <style
       type="text/css"
       id="style1033" />
    <style
       type="text/css"
       id="style1035" />
    <style
       type="text/css"
       id="style1037" />
    <style
       type="text/css"
       id="style1039" />
    <filter
       id="filter11290-2"
       x="-.024"
       y="-.024"
       width="1.048"
       height="1.048"
       color-interpolation-filters="sRGB">
      <feGaussianBlur
         stdDeviation="0.15875313"
         id="feGaussianBlur1041" />
    </filter>
    <linearGradient
       id="linearGradient1005"
       x1=".73911"
       x2="16.388"
       y1="16.296"
       y2=".64687"
       gradientTransform="matrix(3.7796,0,0,3.7796,-0.13115,0.025467)"
       gradientUnits="userSpaceOnUse">
      <stop
         stop-color="#1d2123"
         offset="0"
         id="stop1044" />
      <stop
         stop-color="#33393e"
         offset="1"
         id="stop1046" />
    </linearGradient>
  </defs>
  <sodipodi:namedview
     pagecolor="#ffffff"
     bordercolor="#666666"
     borderopacity="1"
     objecttolerance="10"
     gridtolerance="10"
     guidetolerance="10"
     inkscape:pageopacity="0"
     inkscape:pageshadow="2"
     inkscape:window-width="1920"
     inkscape:window-height="942"
     id="namedview35"
     showgrid="false"
     inkscape:zoom="6.0546875"
     inkscape:cx="8.8655732"
     inkscape:cy="25.211541"
     inkscape:window-x="0"
     inkscape:window-y="38"
     inkscape:window-maximized="1"
     inkscape:current-layer="svg33"
     inkscape:document-rotation="0" />
  <linearGradient
     id="a"
     gradientUnits="userSpaceOnUse"
     x1="399.57144"
     x2="399.57144"
     y1="545.79797"
     y2="517.79797"
     gradientTransform="matrix(1.9174843,0,0,1.9174843,-657.77463,-987.80154)">
    <stop
       offset="0"
       stop-color="#3889e9"
       id="stop2" />
    <stop
       offset="1"
       stop-color="#5ea5fb"
       id="stop4" />
  </linearGradient>
  <linearGradient
     id="b"
     gradientUnits="userSpaceOnUse"
     x1="400.5119"
     x2="400.69922"
     y1="546.07446"
     y2="517.77289"
     gradientTransform="matrix(2.1428589,0,0,2.1428589,-747.92571,-1107.568)">
    <stop
       offset="0"
       stop-color="#1d2125"
       id="stop7" />
    <stop
       offset="1"
       stop-color="#67747f"
       id="stop9" />
  </linearGradient>
  <linearGradient
     id="c"
     gradientUnits="userSpaceOnUse"
     x1="282.37482"
     x2="281.83868"
     y1="644.84979"
     y2="10.592493">
    <stop
       offset="0"
       stop-color="#e3e3e3"
       id="stop12" />
    <stop
       offset="1"
       stop-color="#fffcff"
       id="stop14" />
  </linearGradient>
  <circle
     cx="110.3147"
     cy="31.912609"
     fill="url(#a)"
     id="ellipse17"
     r="0"
     style="fill:url(#a);stroke-width:1.91748" />
  <g
     transform="matrix(3.7796,0,0,3.7796,72.438998,0.45588)"
     fill="#5e4aa6"
     stroke-width="0.26458"
     id="g924">
    <circle
       cx="-330.35001"
       cy="-328.37"
       r="0"
       image-rendering="optimizeSpeed"
       id="circle902" />
    <circle
       cx="-330.35001"
       cy="-328.38"
       r="0"
       image-rendering="optimizeSpeed"
       id="circle904" />
    <circle
       cx="-330.35001"
       cy="-328.38"
       r="0"
       image-rendering="optimizeSpeed"
       id="circle906" />
    <circle
       cx="-352.63"
       cy="-336.84"
       r="0"
       image-rendering="optimizeSpeed"
       id="circle908" />
    <circle
       cx="-330.35001"
       cy="-328.37"
       r="0"
       image-rendering="optimizeSpeed"
       id="circle910" />
    <circle
       cx="-305.84"
       cy="-328.26999"
       r="0"
       image-rendering="optimizeSpeed"
       id="circle912" />
    <circle
       cx="-305.84"
       cy="-328.28"
       r="0"
       image-rendering="optimizeSpeed"
       id="circle914" />
    <circle
       cx="-305.84"
       cy="-328.28"
       r="0"
       image-rendering="optimizeSpeed"
       id="circle916" />
    <circle
       cx="-328.12"
       cy="-336.73999"
       r="0"
       image-rendering="optimizeSpeed"
       id="circle918" />
    <circle
       cx="-305.84"
       cy="-328.26999"
       r="0"
       image-rendering="optimizeSpeed"
       id="circle920" />
    <circle
       cx="-305.03"
       cy="-328.69"
       r="0"
       id="circle922" />
  </g>
  <circle
     cx="104.444"
     cy="32"
     r="0"
     fill="url(#b-3)"
     stroke-width="1.5715"
     id="circle926"
     style="fill:url(#b-3)" />
  <circle
     cx="-1250.0959"
     cy="-1241.1"
     r="0"
     fill="#5e4aa6"
     id="circle928" />
  <circle
     cx="-150.576"
     cy="24.311001"
     r="0"
     fill="#5e4aa6"
     fill-rule="evenodd"
     id="circle930" />
  <g
     fill="url(#c)"
     transform="matrix(0.03377595,-0.03486492,0.03486492,0.03377595,10.995894,32.333225)"
     id="g1015"
     style="fill:url(#linearGradient1021)">
    <path
       d="M 562.041,0 C 391.347,0 220.653,0 49.959,0 22.368,0 0,22.368 0,49.959 V 562.041 C 0,589.632 22.368,612 49.959,612 H 562.041 C 589.632,612 612,589.632 612,562.041 612,391.347 612,220.654 612,49.959 612,22.368 589.632,0 562.041,0 Z M 49.959,37.469 c 6.898,0 12.49,5.592 12.49,12.49 0,6.898 -5.592,12.49 -12.49,12.49 -6.898,0 -12.49,-5.592 -12.49,-12.49 0,-6.898 5.592,-12.49 12.49,-12.49 z m 0,537.062 c -6.898,0 -12.49,-5.592 -12.49,-12.49 0,-6.898 5.592,-12.49 12.49,-12.49 6.898,0 12.49,5.592 12.49,12.49 0,6.898 -5.592,12.49 -12.49,12.49 z M 306,554.547 C 168.731,554.547 57.453,443.269 57.453,306 57.453,168.731 168.731,57.453 306,57.453 443.269,57.453 554.547,168.731 554.547,306 554.547,443.269 443.269,554.547 306,554.547 Z m 256.041,19.984 c -6.898,0 -12.49,-5.592 -12.49,-12.49 0,-6.898 5.592,-12.49 12.49,-12.49 6.898,0 12.49,5.592 12.49,12.49 0,6.898 -5.592,12.49 -12.49,12.49 z m 0,-512.082 c -6.898,0 -12.49,-5.592 -12.49,-12.49 0,-6.898 5.592,-12.49 12.49,-12.49 6.898,0 12.49,5.592 12.49,12.49 0,6.898 -5.592,12.49 -12.49,12.49 z"
       fill="url(#c)"
       id="path1011"
       style="fill:url(#linearGradient1017)" />
    <path
       d="m 524.976,260.924 c -1.238,-6.015 -3.819,-10.307 -8.554,-14.218 -37.84,-31.272 -90.317,-29.17 -157.433,6.305 -4.38,-4.38 -9.121,-8.082 -14.434,-11.27 46.257,-41.499 88.423,-58.921 126.495,-52.269 11.225,1.961 18.998,-10.901 12.043,-19.926 -15.437,-20.035 -33.006,-36.347 -54.128,-50.259 -5.13,-3.378 -9.989,-4.586 -16.103,-4.005 -48.869,4.645 -84.49,43.238 -106.863,115.78 -6.195,0 -12.165,0.734 -18.175,2.237 3.365,-62.052 20.86,-104.187 52.486,-126.405 9.324,-6.55 5.725,-21.141 -5.574,-22.607 -25.083,-3.251 -49.04,-2.363 -73.813,2.737 -6.015,1.238 -10.307,3.819 -14.218,8.554 -31.272,37.84 -29.17,90.317 6.305,157.433 -4.38,4.38 -8.082,9.121 -11.27,14.434 -41.499,-46.257 -58.921,-88.423 -52.269,-126.495 1.961,-11.225 -10.901,-18.998 -19.926,-12.044 -20.035,15.437 -36.347,33.006 -50.259,54.128 -3.378,5.13 -4.586,9.989 -4.005,16.103 4.645,48.869 43.238,84.49 115.78,106.863 0,6.195 0.734,12.165 2.237,18.175 -62.052,-3.365 -104.187,-20.86 -126.405,-52.486 -6.55,-9.324 -21.141,-5.725 -22.607,5.574 -3.251,25.083 -2.363,49.04 2.737,73.813 1.238,6.015 3.819,10.307 8.554,14.218 37.84,31.272 90.317,29.17 157.433,-6.305 4.38,4.38 9.121,8.082 14.434,11.27 -46.257,41.499 -88.423,58.921 -126.495,52.269 -11.225,-1.961 -18.998,10.901 -12.043,19.926 15.437,20.035 33.006,36.347 54.128,50.259 5.13,3.378 9.989,4.586 16.103,4.005 48.869,-4.645 84.49,-43.238 106.863,-115.78 6.195,0 12.165,-0.734 18.175,-2.238 -3.365,62.052 -20.86,104.187 -52.486,126.405 -9.324,6.55 -5.725,21.141 5.574,22.607 25.083,3.251 49.04,2.363 73.813,-2.737 6.015,-1.238 10.307,-3.819 14.218,-8.554 31.272,-37.84 29.17,-90.317 -6.305,-157.433 4.38,-4.38 8.082,-9.121 11.27,-14.434 41.499,46.257 58.921,88.423 52.269,126.495 -1.961,11.225 10.901,18.998 19.926,12.043 20.035,-15.437 36.347,-33.006 50.259,-54.128 3.378,-5.13 4.586,-9.989 4.005,-16.103 -4.645,-48.869 -43.238,-84.49 -115.78,-106.863 0,-6.195 -0.734,-12.165 -2.237,-18.175 62.052,3.365 104.187,20.86 126.405,52.486 6.55,9.324 21.141,5.725 22.607,-5.574 3.251,-25.082 2.363,-49.037 -2.737,-73.811 z M 306,368.449 c -34.489,0 -62.449,-27.96 -62.449,-62.449 0,-34.489 27.96,-62.449 62.449,-62.449 34.489,0 62.449,27.96 62.449,62.449 0,34.489 -27.96,62.449 -62.449,62.449 z"
       fill="url(#c)"
       id="path1013"
       style="fill:url(#linearGradient1019)" />
  </g>
  <g
     transform="matrix(3.7796,0,0,3.7796,1.661819,0.45588)"
     fill="#5e4aa6"
     stroke-width="0.26458"
     id="g1081">
    <circle
       cx="-330.35001"
       cy="-328.37"
       r="0"
       image-rendering="optimizeSpeed"
       id="circle1059" />
    <circle
       cx="-330.35001"
       cy="-328.38"
       r="0"
       image-rendering="optimizeSpeed"
       id="circle1061" />
    <circle
       cx="-330.35001"
       cy="-328.38"
       r="0"
       image-rendering="optimizeSpeed"
       id="circle1063" />
    <circle
       cx="-352.63"
       cy="-336.84"
       r="0"
       image-rendering="optimizeSpeed"
       id="circle1065" />
    <circle
       cx="-330.35001"
       cy="-328.37"
       r="0"
       image-rendering="optimizeSpeed"
       id="circle1067" />
    <circle
       cx="-305.84"
       cy="-328.26999"
       r="0"
       image-rendering="optimizeSpeed"
       id="circle1069" />
    <circle
       cx="-305.84"
       cy="-328.28"
       r="0"
       image-rendering="optimizeSpeed"
       id="circle1071" />
    <circle
       cx="-305.84"
       cy="-328.28"
       r="0"
       image-rendering="optimizeSpeed"
       id="circle1073" />
    <circle
       cx="-328.12"
       cy="-336.73999"
       r="0"
       image-rendering="optimizeSpeed"
       id="circle1075" />
    <circle
       cx="-305.84"
       cy="-328.26999"
       r="0"
       image-rendering="optimizeSpeed"
       id="circle1077" />
    <circle
       cx="-305.03"
       cy="-328.69"
       r="0"
       id="circle1079" />
  </g>
  <circle
     cx="33.666821"
     cy="32"
     r="0"
     fill="url(#b-3)"
     stroke-width="1.5715"
     id="circle1083"
     style="fill:url(#b-3-1)" />
</svg>
