<?xml version="1.0" encoding="UTF-8" standalone="no"?>
<svg
   xmlns:dc="http://purl.org/dc/elements/1.1/"
   xmlns:cc="http://creativecommons.org/ns#"
   xmlns:rdf="http://www.w3.org/1999/02/22-rdf-syntax-ns#"
   xmlns:svg="http://www.w3.org/2000/svg"
   xmlns="http://www.w3.org/2000/svg"
   xmlns:sodipodi="http://sodipodi.sourceforge.net/DTD/sodipodi-0.dtd"
   xmlns:inkscape="http://www.inkscape.org/namespaces/inkscape"
   height="64"
   viewBox="0 0 64 64"
   width="64"
   version="1.1"
   id="svg23"
   sodipodi:docname="applications-other.svg"
   inkscape:version="1.0.1 (3bc2e813f5, 2020-09-07, custom)">
  <metadata
     id="metadata29">
    <rdf:RDF>
      <cc:Work
         rdf:about="">
        <dc:format>image/svg+xml</dc:format>
        <dc:type
           rdf:resource="http://purl.org/dc/dcmitype/StillImage" />
        <dc:title></dc:title>
      </cc:Work>
    </rdf:RDF>
  </metadata>
  <defs
     id="defs27">
    <style
       id="style4"
       type="text/css" />
    <style
       id="style6"
       type="text/css" />
    <style
       id="style8"
       type="text/css" />
    <filter
       color-interpolation-filters="sRGB"
       height="1.048"
       width="1.048"
       y="-0.024"
       x="-0.024"
       id="filter2761-3">
      <feGaussianBlur
         id="feGaussianBlur10"
         stdDeviation="0.14552168" />
    </filter>
    <linearGradient
       gradientUnits="userSpaceOnUse"
       gradientTransform="matrix(3.7796,0,0,3.7796,-0.003213,0.53084)"
       y2="1.17"
       y1="15.576"
       x2="15.65"
       x1="1.3315001"
       id="linearGradient1024">
      <stop
         id="stop13"
         offset="0"
         stop-color="#96aab4" />
      <stop
         id="stop15"
         offset="1"
         stop-color="#a0b4c3" />
    </linearGradient>
    <filter
       color-interpolation-filters="sRGB"
       height="1.048"
       width="1.048"
       y="-0.024"
       x="-0.024"
       id="filter2761">
      <feGaussianBlur
         id="feGaussianBlur4"
         stdDeviation="0.14552168" />
    </filter>
    <linearGradient
       gradientUnits="userSpaceOnUse"
       gradientTransform="translate(16.851507,0.14045)"
       y2="1.1082"
       y1="15.429"
       x2="15.644"
       x1="1.2573"
       id="linearGradient4673">
      <stop
         id="stop7-3"
         offset="0"
         stop-color="#a0b9cd" />
      <stop
         id="stop9-6"
         offset=".47728"
         stop-color="#96b4c8" />
      <stop
         id="stop11"
         offset="1"
         stop-color="#a0b9cd" />
    </linearGradient>
    <filter
       color-interpolation-filters="sRGB"
       height="1.168"
       width="1.168"
       y="-0.084005997"
       x="-0.083994001"
       id="filter917">
      <feGaussianBlur
         id="feGaussianBlur14"
         stdDeviation="0.22223482" />
    </filter>
    <linearGradient
       gradientUnits="userSpaceOnUse"
       gradientTransform="matrix(0.32664815,0,0,0.32664815,0.63054332,0.95372475)"
       y2="4"
       y1="44"
       x2="0"
       id="linearGradient890">
      <stop
         id="stop4-7"
         offset="0"
         stop-color="#FFB900" />
      <stop
         id="stop6"
         offset="1"
         stop-color="#ff0" />
    </linearGradient>
    <filter
       color-interpolation-filters="sRGB"
       height="1.048"
       width="1.048"
       y="-0.024"
       x="-0.024"
       id="filter2761-67">
      <feGaussianBlur
         id="feGaussianBlur9"
         stdDeviation="0.14552168" />
    </filter>
    <linearGradient
       gradientUnits="userSpaceOnUse"
       gradientTransform="matrix(3.7796,0,0,3.7796,66.443573,0.53068)"
       y2="1.1082"
       y1="15.601"
       x2="15.644"
       x1="1.4377"
       id="linearGradient4673-5">
      <stop
         id="stop12-5"
         offset="0"
         stop-color="#dc2828" />
      <stop
         id="stop14-3"
         offset="1"
         stop-color="#fa4141" />
    </linearGradient>
    <linearGradient
       gradientTransform="scale(0.26457812)"
       gradientUnits="userSpaceOnUse"
       y2="9.6700001"
       y1="54.591999"
       x2="34.133999"
       x1="34.133999"
       id="linearGradient915">
      <stop
         id="stop17"
         offset="0"
         stop-color="#ffb900" />
      <stop
         id="stop19"
         offset="1"
         stop-color="#ff0" />
    </linearGradient>
    <linearGradient
       id="linearGradient890-3"
       x2="0"
       y1="44"
       y2="4"
       gradientTransform="matrix(1.2346,0,0,1.2346,3.1419,3.6047)"
       gradientUnits="userSpaceOnUse">
      <stop
         stop-color="#FFB900"
         offset="0"
         id="stop861" />
      <stop
         stop-color="#ff0"
         offset="1"
         id="stop863" />
    </linearGradient>
    <filter
       id="filter2761-6"
       x="-0.024"
       y="-0.024"
       width="1.048"
       height="1.048"
       color-interpolation-filters="sRGB">
      <feGaussianBlur
         stdDeviation="0.14552168"
         id="feGaussianBlur866" />
    </filter>
    <style
       type="text/css"
       id="style914" />
    <style
       type="text/css"
       id="style916" />
    <style
       type="text/css"
       id="style918" />
    <linearGradient
       id="linearGradient1005"
       x1=".73911"
       x2="16.388"
       y1="16.296"
       y2=".64687"
       gradientTransform="matrix(3.7796,0,0,3.7796,-0.13249,0.024378)"
       gradientUnits="userSpaceOnUse">
      <stop
         stop-color="#96aab4"
         offset="0"
         id="stop920" />
      <stop
         stop-color="#a0b4c3"
         offset="1"
         id="stop922" />
    </linearGradient>
    <filter
       id="filter11290-6"
       x="-.024"
       y="-.024"
       width="1.048"
       height="1.048"
       color-interpolation-filters="sRGB">
      <feGaussianBlur
         stdDeviation="0.15875313"
         id="feGaussianBlur925" />
    </filter>
  </defs>
  <sodipodi:namedview
     pagecolor="#ffffff"
     bordercolor="#666666"
     borderopacity="1"
     objecttolerance="10"
     gridtolerance="10"
     guidetolerance="10"
     inkscape:pageopacity="0"
     inkscape:pageshadow="2"
     inkscape:window-width="1920"
     inkscape:window-height="942"
     id="namedview25"
     showgrid="false"
     inkscape:zoom="3.0273438"
     inkscape:cx="-27.16542"
     inkscape:cy="41.382158"
     inkscape:window-x="0"
     inkscape:window-y="38"
     inkscape:window-maximized="1"
     inkscape:current-layer="svg23"
     inkscape:document-rotation="0" />
  <linearGradient
     id="a"
     gradientUnits="userSpaceOnUse"
     x1="396.66663"
     x2="396.66663"
     y1="518.07947"
     y2="545.1543">
    <stop
       offset="0"
       stop-color="#faf7f7"
       id="stop2" />
    <stop
       offset="1"
       stop-color="#d4d4d4"
       id="stop4" />
  </linearGradient>
  <linearGradient
     id="b"
     gradientUnits="userSpaceOnUse"
     x1="403.43533"
     x2="402.46838"
     y1="545.1543"
     y2="518.07947">
    <stop
       offset="0"
       stop-color="#d3d3d3"
       id="stop7" />
    <stop
       offset="1"
       stop-color="#fcf9f9"
       id="stop9" />
  </linearGradient>
  <linearGradient
     id="c"
     gradientUnits="userSpaceOnUse"
     x1="433.47144"
     x2="433.47144"
     y1="551.99799"
     y2="509.99796">
    <stop
       offset="0"
       stop-color="#2a2c2f"
       id="stop12" />
    <stop
       offset="1"
       stop-color="#424649"
       id="stop14" />
  </linearGradient>
  <g
     id="g1041"
     transform="translate(1.6203648e-5,1.6203648e-5)">
    <g
       fill="#5e4aa6"
       id="g976">
      <g
         transform="translate(-80.134,-57.985)"
         image-rendering="optimizeSpeed"
         id="g938">
        <circle
           cx="-1248.7"
           cy="-1241.6"
           r="0"
           id="circle930" />
        <circle
           cx="-149.14999"
           cy="23.855"
           r="0"
           fill-rule="evenodd"
           id="circle932" />
        <circle
           cx="-1248.7"
           cy="-1241.6"
           r="0"
           id="circle934" />
        <circle
           cx="-149.14999"
           cy="23.855"
           r="0"
           fill-rule="evenodd"
           id="circle936" />
      </g>
      <circle
         cx="-1248.7"
         cy="-1241.6"
         r="0"
         id="circle940" />
      <circle
         cx="-149.14999"
         cy="23.855"
         r="0"
         fill-rule="evenodd"
         id="circle942" />
      <g
         transform="matrix(3.7796,0,0,3.7796,5.8415e-4,-1.7177e-4)"
         stroke-width="0.26458"
         id="g974">
        <g
           transform="translate(-0.0272,0.0065001)"
           id="g952">
          <circle
             cx="-330.35001"
             cy="-328.38"
             r="0"
             id="circle944" />
          <circle
             cx="-312.10999"
             cy="-326.25"
             r="0"
             id="circle946" />
          <circle
             cx="-306.01999"
             cy="-333.07001"
             r="0"
             id="circle948" />
          <circle
             cx="-308.84"
             cy="-326.01001"
             r="0"
             id="circle950" />
        </g>
        <g
           transform="translate(-0.0272,0.0065001)"
           id="g962">
          <circle
             cx="-330.35001"
             cy="-328.38"
             r="0"
             id="circle954" />
          <circle
             cx="-312.10999"
             cy="-326.25"
             r="0"
             id="circle956" />
          <circle
             cx="-306.01999"
             cy="-333.07001"
             r="0"
             id="circle958" />
          <circle
             cx="-308.84"
             cy="-326.01001"
             r="0"
             id="circle960" />
        </g>
        <g
           transform="translate(-0.02705,0.0064503)"
           id="g972">
          <circle
             cx="-330.35001"
             cy="-328.38"
             r="0"
             id="circle964" />
          <circle
             cx="-312.10999"
             cy="-326.25"
             r="0"
             id="circle966" />
          <circle
             cx="-306.01999"
             cy="-333.07001"
             r="0"
             id="circle968" />
          <circle
             cx="-308.84"
             cy="-326.01001"
             r="0"
             id="circle970" />
        </g>
      </g>
    </g>
    <circle
       transform="scale(3.7796)"
       cx="8.4665003"
       cy="8.4665003"
       r="7.9376998"
       filter="url(#filter11290-6)"
       opacity="0.25"
       stroke-width="0.14032"
       id="circle978" />
    <path
       d="m 62.001,32 c 0,3.5964 -0.63304,7.0448 -1.794,10.24 -0.80698,2.2212 -1.8686,4.3212 -3.1519,6.2636 -0.53754,0.8167 -1.1155,1.6054 -1.729,2.3633 -1.9641,2.4257 -4.2982,4.5382 -6.9186,6.2526 -0.96493,0.63187 -1.9678,1.2099 -3.0061,1.7277 -4.0321,2.0179 -8.5839,3.153 -13.401,3.153 -4.8171,0 -9.3689,-1.1351 -13.401,-3.1531 C 17.561,58.3291 16.5569,57.7511 15.592,57.1194 12.9385,55.3818 10.5765,53.2362 8.5963,50.7704 7.98162,50.00632 7.4048,49.2104 6.8673,48.3863 5.6183,46.4761 4.5836,44.4151 3.7926,42.2369 2.6318,39.042 1.9999,35.595 1.9999,31.9999 c 0,-16.569 13.432,-30.001 30.001,-30.001 8.317,0 15.843,3.3846 21.277,8.8507 1.5661,1.5747 2.9584,3.3234 4.1436,5.214 1.1205,1.7805 2.0572,3.6882 2.7857,5.6951 1.161,3.196 1.7941,6.6442 1.7941,10.24 z"
       fill="url(#linearGradient1005)"
       stroke-width="0.11719"
       id="path980"
       style="fill:url(#linearGradient1005)" />
    <g
       transform="matrix(3.7796,0,0,3.7796,-0.10281,0.024568)"
       fill="#5e4aa6"
       stroke-width="0.26458"
       id="g990">
      <circle
         cx="-330.35001"
         cy="-328.38"
         r="0"
         id="circle982" />
      <circle
         cx="-312.10999"
         cy="-326.25"
         r="0"
         id="circle984" />
      <circle
         cx="-306.01999"
         cy="-333.07001"
         r="0"
         id="circle986" />
      <circle
         cx="-308.84"
         cy="-326.01001"
         r="0"
         id="circle988" />
    </g>
    <circle
       cx="32"
       cy="32"
       r="13.612"
       opacity="0.15"
       stroke-width="3.9569"
       style="paint-order:stroke markers fill"
       id="circle992" />
    <path
       d="m 31.518,16 c -0.89267,0.03323 -1.3833,0.3329 -1.7031,0.97657 -0.20517,0.41304 -0.37286,1.1011 -0.37305,1.5293 -6.6e-4,1.5708 -1.5866,3.0039 -3.3262,3.0039 -0.85355,0 -1.3224,-0.23496 -3.0508,-1.5293 -0.78669,-0.58913 -1.2833,-0.4359 -2.5039,0.76563 -1.1596,1.1417 -1.1889,1.6884 -0.16211,3.0508 0.42433,0.56316 0.85426,1.3138 0.95507,1.6699 0.24934,0.88057 -0.15888,2.4925 -0.81447,3.209 -0.53735,0.58731 -1.8717,1.0449 -3.0352,1.0449 -1.1064,0 -1.5039,0.62987 -1.5039,2.373 0,1.3574 0.0521,1.5427 0.51757,1.8516 0.28447,0.18891 1.1062,0.42785 1.8281,0.53126 0.72194,0.10338 1.5553,0.34766 1.8496,0.54298 0.62133,0.41239 1.3415,1.8884 1.3477,2.7637 0.005,0.63543 -0.48417,1.7589 -0.98829,2.2695 -0.54944,0.55655 -0.95136,1.5694 -0.80664,2.0312 0.18542,0.59173 1.4414,1.857 2.0918,2.1074 0.37254,0.14351 0.64318,0.10167 1.0039,-0.15428 1.0573,-0.7501 2.8662,-1.5645 3.4766,-1.5645 0.92018,0 2.4465,0.81208 2.7812,1.4805 0.15759,0.31484 0.35405,1.0487 0.43748,1.6289 0.2023,1.4071 0.52208,2.0693 1.0586,2.1836 0.2439,0.0517 0.6364,0.13943 0.87108,0.19336 0.2347,0.05537 0.7631,0.05537 1.1738,0 1.0713,-0.14385 1.6423,-0.94263 1.8223,-2.5488 0.16452,-1.4686 0.29937,-1.7049 1.3809,-2.3965 1.0982,-0.70225 1.9578,-0.83937 2.8027,-0.44728 0.70055,0.32516 0.98368,0.49365 2.1328,1.2598 0.84194,0.56146 1.3666,0.46867 2.3398,-0.42188 1.4634,-1.3391 1.4929,-1.9214 0.18164,-3.4512 -1.2481,-1.4559 -1.2623,-3.2471 -0.0352,-4.6228 0.46992,-0.52688 0.89127,-0.71015 2.2832,-0.98829 2.1016,-0.41991 2.4431,-0.7631 2.4492,-2.4688 0.006,-1.7036 -0.26495,-1.982 -2.2383,-2.291 -1.8777,-0.29402 -2.4789,-0.71824 -3.1387,-2.2051 -0.54853,-1.2363 -0.3972,-1.9608 0.77346,-3.6582 0.60031,-0.87037 0.89913,-1.5056 0.83008,-1.7734 -0.15429,-0.59763 -2.0994,-2.3809 -2.5977,-2.3809 -0.23075,0 -0.84516,0.3323 -1.3652,0.73438 -1.4346,1.1094 -2.289,1.36 -3.5156,1.0312 -1.4413,-0.38609 -1.9543,-0.99487 -2.3184,-2.7539 -0.41806,-2.0202 -0.68762,-2.3838 -1.877,-2.5195 -0.39625,-0.04554 -0.73763,-0.06381 -1.0352,-0.05273 v -0.0039 z m 0.48243,10 a 6.0001,6.0001 0 0 1 6.0001,6.0001 6.0001,6.0001 0 0 1 -6.0001,6.0001 6.0001,6.0001 0 0 1 -6.0001,-6.0001 A 6.0001,6.0001 0 0 1 32.00043,26 Z"
       fill="#ffffff"
       id="path994" />
  </g>
</svg>
