<?xml version="1.0" encoding="UTF-8" standalone="no"?>
<svg
   xmlns:dc="http://purl.org/dc/elements/1.1/"
   xmlns:cc="http://creativecommons.org/ns#"
   xmlns:rdf="http://www.w3.org/1999/02/22-rdf-syntax-ns#"
   xmlns:svg="http://www.w3.org/2000/svg"
   xmlns="http://www.w3.org/2000/svg"
   xmlns:xlink="http://www.w3.org/1999/xlink"
   xmlns:sodipodi="http://sodipodi.sourceforge.net/DTD/sodipodi-0.dtd"
   xmlns:inkscape="http://www.inkscape.org/namespaces/inkscape"
   height="64"
   viewBox="0 0 64 64"
   width="64"
   version="1.1"
   id="svg29"
   sodipodi:docname="applications-graphics.svg"
   inkscape:version="1.0.1 (3bc2e813f5, 2020-09-07, custom)">
  <metadata
     id="metadata35">
    <rdf:RDF>
      <cc:Work
         rdf:about="">
        <dc:format>image/svg+xml</dc:format>
        <dc:type
           rdf:resource="http://purl.org/dc/dcmitype/StillImage" />
        <dc:title></dc:title>
      </cc:Work>
    </rdf:RDF>
  </metadata>
  <defs
     id="defs33">
    <linearGradient
       gradientUnits="userSpaceOnUse"
       y2="13.123"
       y1="6.7136998"
       x2="13.959"
       x1="6.5813999"
       id="linearGradient1124"
       gradientTransform="matrix(3.779602,0,0,3.779602,-92.48652,0.53084538)">
      <stop
         id="stop1120"
         offset="0"
         stop-color="#fff" />
      <stop
         style="stop-color:#9fd4fb;stop-opacity:1"
         id="stop1122"
         offset="1"
         stop-color="#e6e6ff" />
    </linearGradient>
    <linearGradient
       gradientUnits="userSpaceOnUse"
       y2="14.519"
       y1="8.4996004"
       x2="2.8441999"
       x1="5.7214999"
       id="linearGradient1118"
       gradientTransform="matrix(3.779602,0,0,3.779602,-92.48652,0.53084538)">
      <stop
         style="stop-color:#6cbffa;stop-opacity:1"
         id="stop1114"
         offset="0"
         stop-color="#c3d2ff" />
      <stop
         style="stop-color:#329bf6;stop-opacity:1"
         id="stop1116"
         offset="1"
         stop-color="#82c8ff" />
    </linearGradient>
    <linearGradient
       gradientUnits="userSpaceOnUse"
       gradientTransform="matrix(2.1429,0,0,2.1429,-925.89,-1107.5)"
       y2="517.79999"
       y1="545.79999"
       x2="399.57001"
       x1="399.57001"
       id="b">
      <stop
         id="stop2-36"
         offset="0"
         stop-color="#3889e9" />
      <stop
         id="stop4-75"
         offset="1"
         stop-color="#5ea5fb" />
    </linearGradient>
    <linearGradient
       gradientUnits="userSpaceOnUse"
       gradientTransform="matrix(0.72559,0.0036045,-0.0038878,0.67325,-282.90091,-279.18)"
       y2="463.62"
       y1="507.29001"
       x2="543.25"
       x1="542.64001"
       id="a-3">
      <stop
         id="stop7"
         offset="0"
         stop-color="#132e51" />
      <stop
         id="stop9"
         offset="1"
         stop-color="#2767b9" />
    </linearGradient>
    <linearGradient
       gradientUnits="userSpaceOnUse"
       gradientTransform="matrix(0.57339,0,0,0.57339,-204.77376,-222.84996)"
       y2="431.85001"
       y1="446.70999"
       x2="518.53998"
       x1="516.85999"
       id="d">
      <stop
         id="stop12"
         offset="0"
         stop-color="#eefefe" />
      <stop
         id="stop14"
         offset="1"
         stop-color="#d6fefe" />
    </linearGradient>
    <linearGradient
       xlink:href="#linearGradient863"
       gradientUnits="userSpaceOnUse"
       gradientTransform="matrix(3.7796,0,0,3.7796,78.039091,0)"
       y2="1.0583"
       y1="6.8790002"
       x2="7.9373002"
       x1="7.9373002"
       id="linearGradient865" />
    <linearGradient
       id="linearGradient863">
      <stop
         id="stop18"
         offset="0"
         stop-color="#fff" />
      <stop
         id="stop20"
         offset="1"
         stop-color="#ccf0ff" />
    </linearGradient>
    <linearGradient
       gradientUnits="userSpaceOnUse"
       gradientTransform="matrix(3.7796,0,0,3.7796,78.039091,0)"
       y2="1.852"
       y1="15.081"
       x2="7.9373002"
       x1="7.9373002"
       id="linearGradient855">
      <stop
         id="stop23"
         offset="0"
         stop-color="#82cdfb" />
      <stop
         id="stop25"
         offset="1"
         stop-color="#319af6" />
    </linearGradient>
    <linearGradient
       gradientTransform="translate(78.039091)"
       xlink:href="#linearGradient863"
       gradientUnits="userSpaceOnUse"
       y2="6.9914999"
       y1="19"
       x2="57.007999"
       x1="45"
       id="linearGradient910" />
    <linearGradient
       gradientUnits="userSpaceOnUse"
       gradientTransform="matrix(1.0000066,0,0,1.0000066,19.187825,0)"
       y2="1.0583"
       y1="6.8790002"
       x2="7.9373002"
       x1="7.9373002"
       id="linearGradient865-3">
      <stop
         id="stop2-6"
         offset="0"
         stop-color="#fff" />
      <stop
         id="stop4-7"
         offset="1"
         stop-color="#fcc" />
    </linearGradient>
    <linearGradient
       gradientTransform="translate(19.187825)"
       gradientUnits="userSpaceOnUse"
       y2="3.9326999"
       y1="14.579"
       x2="12.314"
       x1="2.6278"
       id="linearGradient855-5">
      <stop
         id="stop7-3"
         offset="0"
         stop-color="#d462aa" />
      <stop
         id="stop9-5"
         offset=".15178"
         stop-color="#56c7d9" />
      <stop
         id="stop11"
         offset=".33294"
         stop-color="#2da8b8" />
      <stop
         id="stop13"
         offset=".53353"
         stop-color="#72cb6b" />
      <stop
         id="stop15"
         offset=".71019"
         stop-color="#c4dc2b" />
      <stop
         id="stop17"
         offset=".8623"
         stop-color="#f9da3e" />
      <stop
         id="stop19"
         offset="1"
         stop-color="#f69429" />
    </linearGradient>
    <linearGradient
       gradientUnits="userSpaceOnUse"
       gradientTransform="matrix(0.26458,0,0,0.26458,19.187825,0)"
       y2="6.9914999"
       y1="19"
       x2="57.007999"
       x1="45"
       id="linearGradient910-6">
      <stop
         id="stop22"
         offset="0"
         stop-color="#fff" />
      <stop
         id="stop24"
         offset="1"
         stop-color="#ffe3cc" />
    </linearGradient>
    <style
       type="text/css"
       id="style872" />
    <filter
       id="filter2761"
       x="-0.024"
       y="-0.024"
       width="1.048"
       height="1.048"
       color-interpolation-filters="sRGB">
      <feGaussianBlur
         stdDeviation="0.14552168"
         id="feGaussianBlur874" />
    </filter>
    <linearGradient
       id="linearGradient4673"
       x1="1.2573"
       x2="15.644"
       y1="15.429"
       y2="1.1082"
       gradientTransform="matrix(3.7796,0,0,3.7796,-0.0026448,0.53066)"
       gradientUnits="userSpaceOnUse">
      <stop
         stop-color="#32dcff"
         offset="0"
         id="stop877" />
      <stop
         stop-color="#3296ff"
         offset="1"
         id="stop879" />
    </linearGradient>
    <style
       id="style4"
       type="text/css" />
    <style
       id="style6"
       type="text/css" />
    <style
       id="style8"
       type="text/css" />
    <filter
       color-interpolation-filters="sRGB"
       height="1.048"
       width="1.048"
       y="-0.024"
       x="-0.024"
       id="filter2761-36">
      <feGaussianBlur
         id="feGaussianBlur10"
         stdDeviation="0.14552168" />
    </filter>
    <linearGradient
       gradientUnits="userSpaceOnUse"
       gradientTransform="matrix(3.7796,0,0,3.7796,111.78704,0.53107)"
       y2="1.17"
       y1="15.576"
       x2="15.65"
       x1="1.3315001"
       id="linearGradient1024-6">
      <stop
         id="stop13-7"
         offset="0"
         stop-color="#00dc96" />
      <stop
         id="stop15-5"
         offset="1"
         stop-color="#14d29b" />
    </linearGradient>
    <linearGradient
       gradientUnits="userSpaceOnUse"
       gradientTransform="matrix(0.27476,0,0,0.27476,-24.952118,-0.32515)"
       y2="12.461"
       y1="57.955002"
       x2="45.627998"
       x1="45.627998"
       id="b-2">
      <stop
         id="stop2-3"
         offset="0" />
      <stop
         id="stop4-5"
         offset="1"
         stop-opacity="0" />
    </linearGradient>
    <style
       type="text/css"
       id="style872-0" />
    <style
       type="text/css"
       id="style874" />
    <style
       type="text/css"
       id="style876" />
    <filter
       id="filter2761-3"
       x="-0.024"
       y="-0.024"
       width="1.048"
       height="1.048"
       color-interpolation-filters="sRGB">
      <feGaussianBlur
         stdDeviation="0.14552168"
         id="feGaussianBlur878" />
    </filter>
    <linearGradient
       id="linearGradient1024-6-6"
       x1="1.3315001"
       x2="15.65"
       y1="15.576"
       y2="1.17"
       gradientTransform="matrix(3.7796,0,0,3.7796,-0.0020773,0.53047)"
       gradientUnits="userSpaceOnUse">
      <stop
         stop-color="#00dc96"
         offset="0"
         id="stop881" />
      <stop
         stop-color="#14d29b"
         offset="1"
         id="stop883" />
    </linearGradient>
    <filter
       id="filter2761-9"
       x="-0.024"
       y="-0.024"
       width="1.048"
       height="1.048"
       color-interpolation-filters="sRGB">
      <feGaussianBlur
         stdDeviation="0.14552168"
         id="feGaussianBlur998" />
    </filter>
    <linearGradient
       gradientTransform="matrix(3.779602,0,0,3.779602,-92.48652,0.53084538)"
       id="linearGradient1024"
       x1="1.3315001"
       x2="13.449"
       y1="15.576"
       y2="3.4588001"
       gradientUnits="userSpaceOnUse">
      <stop
         stop-color="#3caaff"
         offset="0"
         id="stop1001" />
      <stop
         stop-color="#b496ff"
         offset="1"
         id="stop1003" />
    </linearGradient>
    <linearGradient
       gradientTransform="matrix(3.779602,0,0,3.779602,-92.48652,0.53084538)"
       id="linearGradient1354"
       x1="6.5813999"
       x2="13.959"
       y1="6.7136998"
       y2="13.123"
       gradientUnits="userSpaceOnUse">
      <stop
         stop-color="#fff"
         offset="0"
         id="stop1006" />
      <stop
         stop-color="#e6e6ff"
         offset="1"
         id="stop1008" />
    </linearGradient>
    <linearGradient
       gradientTransform="matrix(3.779602,0,0,3.779602,-92.48652,0.53084538)"
       id="linearGradient1356"
       x1="5.7214999"
       x2="2.8441999"
       y1="8.4996004"
       y2="14.519"
       gradientUnits="userSpaceOnUse">
      <stop
         stop-color="#c3d2ff"
         offset="0"
         id="stop1011" />
      <stop
         stop-color="#82c8ff"
         offset="1"
         id="stop1013" />
    </linearGradient>
    <style
       type="text/css"
       id="style929" />
    <filter
       id="filter11290"
       x="-.024"
       y="-.024"
       width="1.048"
       height="1.048"
       color-interpolation-filters="sRGB">
      <feGaussianBlur
         stdDeviation="0.15875313"
         id="feGaussianBlur931" />
    </filter>
    <linearGradient
       id="linearGradient1005"
       x1=".8714"
       x2="16.246"
       y1="16.164"
       y2=".78937"
       gradientTransform="matrix(3.779602,0,0,3.779602,-0.133462,0.02479173)"
       gradientUnits="userSpaceOnUse">
      <stop
         stop-color="#00c8ff"
         offset="0"
         id="stop934" />
      <stop
         stop-color="#14a0ff"
         offset="1"
         id="stop936" />
    </linearGradient>
    <linearGradient
       id="linearGradient964"
       x1="32"
       x2="32"
       y1="3"
       y2="38"
       gradientTransform="matrix(1.0000071,0,0,1.0000071,-75.423146,-7.2935243e-7)"
       gradientUnits="userSpaceOnUse">
      <stop
         stop-color="#fff"
         offset="0"
         id="stop939" />
      <stop
         stop-color="#d8eaf9"
         offset="1"
         id="stop941" />
    </linearGradient>
    <linearGradient
       gradientUnits="userSpaceOnUse"
       gradientTransform="matrix(0.72559,0.0036045,-0.0038878,0.67325,-283.34764,-279.18)"
       y2="463.62"
       y1="507.29"
       x2="543.25"
       x1="542.64"
       id="a-5">
      <stop
         id="stop7-6"
         offset="0"
         stop-color="#132e51" />
      <stop
         id="stop9-2"
         offset="1"
         stop-color="#2767b9" />
    </linearGradient>
    <linearGradient
       gradientUnits="userSpaceOnUse"
       gradientTransform="matrix(0.57339,0,0,0.57339,-205.21716,-222.90446)"
       y2="431.85"
       y1="446.71"
       x2="518.54"
       x1="516.86"
       id="d-9">
      <stop
         id="stop12-1"
         offset="0"
         stop-color="#eefefe" />
      <stop
         id="stop14-2"
         offset="1"
         stop-color="#d6fefe" />
    </linearGradient>
    <linearGradient
       xlink:href="#linearGradient863"
       gradientUnits="userSpaceOnUse"
       gradientTransform="matrix(3.7796,0,0,3.7796,77.592359,0)"
       y2="1.0583"
       y1="6.879"
       x2="7.9373"
       x1="7.9373"
       id="linearGradient865-7" />
    <linearGradient
       gradientUnits="userSpaceOnUse"
       gradientTransform="matrix(3.7796,0,0,3.7796,77.592359,0)"
       y2="1.852"
       y1="15.081"
       x2="7.9373"
       x1="7.9373"
       id="linearGradient855-3">
      <stop
         id="stop23-60"
         offset="0"
         stop-color="#82cdfb" />
      <stop
         id="stop25-6"
         offset="1"
         stop-color="#319af6" />
    </linearGradient>
    <linearGradient
       gradientTransform="translate(77.592359)"
       xlink:href="#linearGradient863"
       gradientUnits="userSpaceOnUse"
       y2="6.9915"
       y1="19"
       x2="57.008"
       x1="45"
       id="linearGradient910-2" />
    <linearGradient
       id="linearGradient1235"
       inkscape:collect="always">
      <stop
         id="stop1231"
         offset="0"
         style="stop-color:#ffffff;stop-opacity:1" />
      <stop
         id="stop1233"
         offset="1"
         style="stop-color:#9fd4fb;stop-opacity:1" />
    </linearGradient>
    <linearGradient
       id="linearGradient1227"
       inkscape:collect="always">
      <stop
         id="stop1223"
         offset="0"
         style="stop-color:#6cbffa;stop-opacity:1" />
      <stop
         id="stop1225"
         offset="1"
         style="stop-color:#329bf5;stop-opacity:1" />
    </linearGradient>
    <style
       type="text/css"
       id="style872-7" />
    <filter
       id="filter2761-361"
       x="-.024"
       y="-.024"
       width="1.048"
       height="1.048"
       color-interpolation-filters="sRGB">
      <feGaussianBlur
         stdDeviation="0.14552168"
         id="feGaussianBlur874-2" />
    </filter>
    <style
       id="style4-1"
       type="text/css" />
    <style
       id="style6-9"
       type="text/css" />
    <style
       id="style8-4"
       type="text/css" />
    <filter
       color-interpolation-filters="sRGB"
       height="1.048"
       width="1.048"
       y="-.024"
       x="-.024"
       id="filter2761-36-7">
      <feGaussianBlur
         id="feGaussianBlur10-8"
         stdDeviation="0.14552168" />
    </filter>
    <style
       type="text/css"
       id="style872-0-6" />
    <style
       type="text/css"
       id="style874-1" />
    <style
       type="text/css"
       id="style876-0" />
    <filter
       id="filter2761-3-6"
       x="-.024"
       y="-.024"
       width="1.048"
       height="1.048"
       color-interpolation-filters="sRGB">
      <feGaussianBlur
         stdDeviation="0.14552168"
         id="feGaussianBlur878-3" />
    </filter>
    <filter
       id="filter2761-9-6"
       x="-.024"
       y="-.024"
       width="1.048"
       height="1.048"
       color-interpolation-filters="sRGB">
      <feGaussianBlur
         stdDeviation="0.14552168"
         id="feGaussianBlur998-1" />
    </filter>
    <linearGradient
       y2="517.8"
       x2="399.57"
       y1="545.8"
       x1="399.57"
       gradientTransform="matrix(2.1429,0,0,2.1429,-1025.0206,-1107.5)"
       gradientUnits="userSpaceOnUse"
       id="linearGradient1076"
       xlink:href="#b"
       inkscape:collect="always" />
    <style
       type="text/css"
       id="style1080" />
    <filter
       id="filter11290-6"
       x="-.024"
       y="-.024"
       width="1.048"
       height="1.048"
       color-interpolation-filters="sRGB">
      <feGaussianBlur
         stdDeviation="0.15875313"
         id="feGaussianBlur1082" />
    </filter>
    <linearGradient
       id="linearGradient1005-9"
       x1=".8714"
       x2="16.246"
       y1="16.164"
       y2=".78937"
       gradientTransform="matrix(3.7796,0,0,3.7796,-0.13319795,0.02439453)"
       gradientUnits="userSpaceOnUse">
      <stop
         stop-color="#00c8ff"
         offset="0"
         id="stop1085" />
      <stop
         stop-color="#14a0ff"
         offset="1"
         id="stop1087" />
    </linearGradient>
    <linearGradient
       gradientTransform="matrix(1.0819735,0,0,1.0819735,82.848551,-2.1287372)"
       y2="50.718597"
       x2="-26.365437"
       y1="26.627005"
       x1="-53.180744"
       gradientUnits="userSpaceOnUse"
       id="linearGradient1207"
       xlink:href="#linearGradient1235"
       inkscape:collect="always" />
    <linearGradient
       gradientTransform="matrix(1.0819735,0,0,1.0819735,82.848551,-2.1287372)"
       y2="54.144566"
       x2="-68.231903"
       y1="31.860245"
       x1="-55.722927"
       gradientUnits="userSpaceOnUse"
       id="linearGradient1209"
       xlink:href="#linearGradient1227"
       inkscape:collect="always" />
    <linearGradient
       inkscape:collect="always"
       xlink:href="#b"
       id="linearGradient1210"
       gradientUnits="userSpaceOnUse"
       gradientTransform="matrix(2.1429,0,0,2.1429,-925.89,-1107.5)"
       x1="399.57001"
       y1="545.79999"
       x2="399.57001"
       y2="517.79999" />
  </defs>
  <sodipodi:namedview
     pagecolor="#ffffff"
     bordercolor="#666666"
     borderopacity="1"
     objecttolerance="10"
     gridtolerance="10"
     guidetolerance="10"
     inkscape:pageopacity="0"
     inkscape:pageshadow="2"
     inkscape:window-width="1920"
     inkscape:window-height="942"
     id="namedview31"
     showgrid="false"
     inkscape:zoom="4.2813106"
     inkscape:cx="-20.015299"
     inkscape:cy="24.012766"
     inkscape:window-x="0"
     inkscape:window-y="38"
     inkscape:window-maximized="1"
     inkscape:current-layer="svg29"
     inkscape:document-rotation="0" />
  <linearGradient
     id="a"
     gradientUnits="userSpaceOnUse"
     x1="403.66333"
     x2="402.65228"
     y1="545.75287"
     y2="517.44299">
    <stop
       offset="0"
       stop-color="#d3d3d3"
       id="stop2" />
    <stop
       offset="1"
       stop-color="#fcf9f9"
       id="stop4" />
  </linearGradient>
  <circle
     id="circle31"
     stroke-width="1.5715"
     fill="url(#b)"
     r="0"
     cy="32.043999"
     cx="-67.504997"
     style="fill:url(#b)" />
  <circle
     cx="-1200.2324"
     cy="-1279.2819"
     r="0"
     fill="#5e4aa6"
     stroke-width="1.00001"
     id="circle946" />
  <g
     transform="matrix(3.779602,0,0,3.779602,48.408251,-38.18532)"
     fill="#5e4aa6"
     stroke-width="0.26458"
     id="g956">
    <circle
       cx="-299.01999"
       cy="-338.76999"
       r="0"
       id="circle948" />
    <circle
       cx="-8.1062002"
       cy="-3.9487"
       r="0"
       fill-rule="evenodd"
       id="circle950" />
    <circle
       cx="-278.25"
       cy="-357.69"
       r="0"
       id="circle952" />
    <circle
       cx="12.663"
       cy="-22.858999"
       r="0"
       fill-rule="evenodd"
       id="circle954" />
  </g>
  <g
     transform="matrix(3.779602,0,0,3.779602,-75.525635,0.02458445)"
     fill="#5e4aa6"
     stroke-width="0.26458"
     id="g970">
    <circle
       cx="-330.35001"
       cy="-328.38"
       r="0"
       id="circle962" />
    <circle
       cx="-312.10999"
       cy="-326.25"
       r="0"
       id="circle964" />
    <circle
       cx="-306.01999"
       cy="-333.07001"
       r="0"
       id="circle966" />
    <circle
       cx="-308.84"
       cy="-326.01001"
       r="0"
       id="circle968" />
  </g>
  <g
     id="g1208">
    <circle
       id="circle31-3"
       stroke-width="1.5715"
       fill="url(#b)"
       r="0"
       cy="32.043999"
       cx="-67.504997"
       style="fill:url(#linearGradient1210)" />
    <circle
       cx="-166.63559"
       cy="32.043999"
       r="0"
       fill="url(#b)"
       stroke-width="1.5715"
       id="circle31-8"
       style="fill:url(#linearGradient1076)" />
    <circle
       id="circle1092"
       fill="#5e4aa6"
       r="0"
       cy="-1279.3"
       cx="-1124.8" />
    <g
       id="g1102"
       stroke-width="0.26458"
       fill="#5e4aa6"
       transform="matrix(3.7796,0,0,3.7796,123.83001,-38.183983)">
      <circle
         id="circle1094"
         r="0"
         cy="-338.76999"
         cx="-299.01999" />
      <circle
         id="circle1096"
         fill-rule="evenodd"
         r="0"
         cy="-3.9487"
         cx="-8.1062002" />
      <circle
         id="circle1098"
         r="0"
         cy="-357.69"
         cx="-278.25" />
      <circle
         id="circle1100"
         fill-rule="evenodd"
         r="0"
         cy="-22.858999"
         cx="12.663" />
    </g>
    <circle
       id="circle1104"
       stroke-width="0.14032"
       opacity="0.25"
       filter="url(#filter11290)"
       r="7.9376998"
       cy="8.46"
       cx="8.4937"
       transform="matrix(3.7796,0,0,3.7796,-0.10278795,0.02458453)"
       style="filter:url(#filter11290-6)" />
    <path
       id="path1106"
       stroke-width="0.11719"
       fill="url(#linearGradient1005)"
       d="m 62.000012,32.000017 c 0,3.5964 -0.63305,7.0448 -1.794,10.24 -0.80698,2.2212 -1.8686,4.3212 -3.1519,6.2636 -0.53754,0.8167 -1.1155,1.6054 -1.729,2.3633 -1.9641,2.4257 -4.2982,4.5382 -6.9186,6.2526 -0.96493,0.63187 -1.9678,1.2098 -3.0061,1.7277 -4.0321,2.0179 -8.5839,3.153 -13.401,3.153 -4.8171,0 -9.3689,-1.1351 -13.401,-3.1531 -1.0384,-0.518 -2.0425,-1.096 -3.0074,-1.7277 -2.6535,-1.7376 -5.0155,-3.8832 -6.9957,-6.349 -0.61468,-0.76408 -1.1915,-1.56 -1.729,-2.3841 -1.249,-1.9102 -2.2837,-3.9712 -3.0747,-6.1494 -1.1608,-3.1949 -1.7927,-6.6419 -1.7927,-10.237 0,-16.569 13.432,-30.0010005 30.001,-30.0010005 8.317,0 15.843,3.3846 21.277,8.8507005 1.5661,1.5747 2.9584,3.3234 4.1436,5.214 1.1205,1.7805 2.0572,3.6882 2.7857,5.6951 1.161,3.196 1.7941,6.6442 1.7941,10.24 z"
       style="fill:url(#linearGradient1005-9)" />
    <g
       id="g1116"
       stroke-width="0.26458"
       fill="#5e4aa6"
       transform="matrix(3.7796,0,0,3.7796,-0.10278795,0.02458453)">
      <circle
         id="circle1108"
         r="0"
         cy="-328.38"
         cx="-330.35001" />
      <circle
         id="circle1110"
         r="0"
         cy="-326.25"
         cx="-312.10999" />
      <circle
         id="circle1112"
         r="0"
         cy="-333.07001"
         cx="-306.01999" />
      <circle
         id="circle1114"
         r="0"
         cy="-326.01001"
         cx="-308.84" />
    </g>
    <circle
       cx="46.669636"
       cy="15.806862"
       r="4.0880175"
       fill="#ffffff"
       id="circle1193"
       style="stroke-width:3.7796" />
    <path
       d="m 29.025391,26.001953 c -1.431219,1.00923 -2.477373,2.025938 -3.195313,3.041016 -0.0014,0.0021 -0.0065,0.0057 -0.0078,0.0078 -4.34e-4,6.1e-4 4.21e-4,0.0033 0,0.0039 -0.691277,0.979745 -1.044377,1.955922 -1.169922,2.927734 -0.02208,0.245591 -0.08363,0.593387 -0.07422,0.853516 0.0069,0.585524 0.120745,1.168542 0.296875,1.746093 0.177728,0.573829 0.471088,1.224726 0.826172,1.853516 0.219398,0.372519 0.492482,0.783651 0.767578,1.150391 0.359133,0.501854 0.837415,0.972965 1.324219,1.505859 0.560662,0.579065 1.171783,1.108791 1.833984,1.666015 0.297875,0.250684 0.640519,0.53165 0.955078,0.777344 0.625601,0.467544 0.791191,0.610437 1.929688,1.400391 1.165854,0.80893 2.538404,1.727157 3.941406,2.578125 1.427578,0.826884 3.085623,1.682358 4.46875,2.394531 2.655348,1.399444 5.10662,2.92377 7.304687,4.458985 1.081188,0.757859 2.159125,1.586177 3.22461,2.445312 1.404779,-1.1989 2.710261,-2.509251 3.873047,-3.945312 0.6135,-0.757901 1.192929,-1.546582 1.730469,-2.363282 1.283299,-1.9424 2.34341,-4.042472 3.15039,-6.263672 0.193886,-0.533619 0.369254,-1.077747 0.533203,-1.625 -2.370189,-1.11605 -4.884364,-2.285085 -7.230469,-3.607422 -1.944729,-1.09613 -6.726021,-4.034811 -11.691406,-6.605468 -2.482692,-1.285266 -5.011263,-2.479523 -7.253906,-3.304688 -1.933719,-0.617662 -3.586247,-0.922229 -5.537109,-1.095703 z"
       style="opacity:1;fill:url(#linearGradient1207);fill-opacity:1;stroke-width:2.16395;stroke-linecap:round"
       id="path1195" />
    <path
       d="m 28.150391,25.96875 c -2.307469,0.01216 -6.272599,0.702088 -8.492188,1.912109 -1.349756,0.601636 -2.86244,1.368666 -4.554687,2.34375 -1.692329,0.975084 -3.56178,2.156868 -5.6210941,3.589844 -2.0393173,1.419107 -4.2685281,3.088365 -6.6914063,5.039063 0.2698883,1.153962 0.6008554,2.284236 1,3.382812 0.791,2.1782 1.8271719,4.240191 3.0761719,6.150391 0.5375,0.8241 1.1138356,1.618732 1.7285156,2.382812 1.9801999,2.4658 4.3425939,4.61201 6.9960939,6.34961 0.9649,0.6317 1.967459,1.210515 3.005859,1.728515 C 22.629756,60.865656 27.1829,62 32,62 c 4.8171,0 9.368291,-1.134444 13.400391,-3.152344 1.0383,-0.5179 2.040929,-1.096645 3.005859,-1.728515 1.072154,-0.701458 2.082172,-1.48552 3.052734,-2.314453 -1.140999,-0.933327 -2.401854,-1.917627 -3.886718,-2.945313 -1.964236,-1.35949 -4.220872,-2.752582 -6.746094,-4.052734 -2.525222,-1.300111 -5.242601,-2.807162 -7.71875,-4.462891 -1.238074,-0.827823 -2.415101,-1.691087 -3.478516,-2.585938 -1.063415,-0.894848 -2.0125,-1.822215 -2.792968,-2.769531 -0.780426,-0.947275 -1.392059,-1.915247 -1.78125,-2.90039 -0.389207,-0.985143 -0.555605,-1.985688 -0.445313,-2.994141 0.110292,-1.008453 0.496741,-2.023852 1.214844,-3.041016 0.718063,-1.017164 1.769002,-2.037553 3.203125,-3.048828 -0.252139,-0.02644 -0.547313,-0.0369 -0.876953,-0.03516 z"
       style="opacity:1;fill:url(#linearGradient1209);fill-opacity:1;stroke-width:2.16395;stroke-linecap:round"
       id="path1197" />
  </g>
</svg>
