<?xml version="1.0" encoding="UTF-8"?>
<svg width="64" height="64" version="1.1" viewBox="0 0 16.933 16.933" xmlns="http://www.w3.org/2000/svg" xmlns:cc="http://creativecommons.org/ns#" xmlns:dc="http://purl.org/dc/elements/1.1/" xmlns:rdf="http://www.w3.org/1999/02/22-rdf-syntax-ns#">
 <metadata>
  <rdf:RDF>
   <cc:Work rdf:about="">
    <dc:format>image/svg+xml</dc:format>
    <dc:type rdf:resource="http://purl.org/dc/dcmitype/StillImage"/>
    <dc:title/>
   </cc:Work>
  </rdf:RDF>
 </metadata>
 <defs>
  <filter id="filter11290" x="-.024" y="-.024" width="1.048" height="1.048" color-interpolation-filters="sRGB">
   <feGaussianBlur stdDeviation="0.15875313"/>
  </filter>
  <linearGradient id="linearGradient1005" x1=".73911" x2="16.388" y1="16.296" y2=".64687" gradientTransform="translate(-.035055 .00645)" gradientUnits="userSpaceOnUse">
   <stop stop-color="#00dc96" offset="0"/>
   <stop stop-color="#14d29b" offset="1"/>
  </linearGradient>
  <style type="text/css"/>
 </defs>
 <circle cx="8.4665" cy="8.4665" r="7.9377" filter="url(#filter11290)" opacity=".25" stroke-width=".14032"/>
 <path d="m16.404 8.4664c0 0.95154-0.16749 1.8639-0.47464 2.7094-0.21351 0.58768-0.49439 1.1433-0.83393 1.6572-0.14222 0.21608-0.29514 0.42475-0.45746 0.62529-0.51966 0.64179-1.1372 1.2007-1.8305 1.6543-0.2553 0.16718-0.52065 0.3201-0.79536 0.45712-1.0668 0.53389-2.2711 0.83421-3.5456 0.83421s-2.4788-0.30032-3.5456-0.83424c-0.27474-0.13705-0.5404-0.28997-0.7957-0.45712-0.70207-0.45973-1.327-1.0274-1.8509-1.6798-0.16263-0.20216-0.31524-0.41275-0.45746-0.63078-0.33046-0.5054-0.60421-1.0507-0.8135-1.627-0.30711-0.84529-0.4743-1.7573-0.4743-2.7085 0-4.3838 3.5537-7.9375 7.9375-7.9375 2.2005 0 4.1917 0.89548 5.6295 2.3417 0.41436 0.41662 0.78274 0.87929 1.0963 1.3795 0.29645 0.47107 0.54428 0.97582 0.73704 1.5068 0.30718 0.84559 0.47467 1.7579 0.47467 2.7094z" fill="url(#linearGradient1005)" stroke-width=".031006"/>
 <g transform="translate(-.0272 .0065001)" fill="#5e4aa6" stroke-width=".26458">
  <circle cx="-330.35" cy="-328.38" r="0"/>
  <circle cx="-312.11" cy="-326.25" r="0"/>
  <circle cx="-306.02" cy="-333.07" r="0"/>
  <circle cx="-308.84" cy="-326.01" r="0"/>
 </g>
 <g stroke-width=".013791">
  <path d="m4.8884 6.8012h7.1534v3.1002h-7.1534z" fill="#c8ffe6" p-id="849"/>
  <path d="m4.8884 9.9014c0 0.79022 1.6011 1.4301 3.5774 1.4301 1.9762 0 3.5774-0.6399 3.5774-1.4301 0-0.79022-1.6011-1.4301-3.5774-1.4301-1.9762 0-3.5774 0.6399-3.5774 1.4301z" fill="#c8ffe6" p-id="850"/>
  <path d="m8.2507 3.9865-5.3647 2.361c-0.19032 0.095158-0.19032 0.35719 0 0.45372l5.3661 2.361c0.14343 0.048268 0.28547 0.048268 0.4289 0l5.3661-2.361c0.19032-0.095158 0.19032-0.35719 0-0.45372l-5.3661-2.361c-0.14343-0.071713-0.28685-0.071713-0.43028 0z" fill="#fff" p-id="851"/>
  <g fill="#28aa78">
   <path d="m13.044 6.8964-4.7689-0.81091c-0.1186-0.023445-0.26203 0.071713-0.28547 0.19032-0.023445 0.1186 0.071713 0.26203 0.19032 0.28547l4.5786 0.76264v3.5291c0 0.14343 0.09516 0.23858 0.23858 0.23858 0.14343 0 0.23858-0.09516 0.23858-0.23858v-3.718c-0.0014-0.11998-0.09654-0.21514-0.1917-0.23858z" p-id="852"/>
   <path d="m12.52 10.854c0 0.26341 0.21376 0.47717 0.47717 0.47717s0.47717-0.21376 0.47717-0.47717v-0.0014c0-0.26341-0.21376-0.47717-0.47717-0.47717-0.26341 0.0014-0.47717 0.21514-0.47717 0.47855z" p-id="853"/>
   <path d="m13.712 11.57c0 0.40545-0.71575 1.4301-0.71575 1.4301s-0.71575-1.026-0.71575-1.4301 0.3103-0.71575 0.71575-0.71575 0.71575 0.3103 0.71575 0.71575z" p-id="854"/>
  </g>
 </g>
</svg>
