<?xml version="1.0" encoding="UTF-8"?>
<svg width="64" height="64" version="1.1" viewBox="0 0 16.933 16.933" xmlns="http://www.w3.org/2000/svg" xmlns:cc="http://creativecommons.org/ns#" xmlns:dc="http://purl.org/dc/elements/1.1/" xmlns:rdf="http://www.w3.org/1999/02/22-rdf-syntax-ns#">
 <metadata>
  <rdf:RDF>
   <cc:Work rdf:about="">
    <dc:format>image/svg+xml</dc:format>
    <dc:type rdf:resource="http://purl.org/dc/dcmitype/StillImage"/>
    <dc:title/>
   </cc:Work>
  </rdf:RDF>
 </metadata>
 <defs>
  <filter id="filter11290" x="-.024" y="-.024" width="1.048" height="1.048" color-interpolation-filters="sRGB">
   <feGaussianBlur stdDeviation="0.15875313"/>
  </filter>
  <linearGradient id="linearGradient1005" x1=".73911" x2="16.388" y1="16.296" y2=".64687" gradientTransform="translate(-.035055 .00645)" gradientUnits="userSpaceOnUse">
   <stop stop-color="#8cd750" offset="0"/>
   <stop stop-color="#7dcd32" offset=".48311"/>
   <stop stop-color="#87d241" offset="1"/>
  </linearGradient>
  <linearGradient id="linearGradient1288" x1="32.153" x2="32.153" y1="46.773" y2="4.0937" gradientTransform="matrix(.26458 0 0 .26458 .008939 -.51883)" gradientUnits="userSpaceOnUse">
   <stop stop-color="#d1ecba" offset="0"/>
   <stop stop-color="#d1ecba" stop-opacity="0" offset="1"/>
  </linearGradient>
  <style type="text/css"/>
  <filter id="filter948" x="-.035705" y="-.0363" width="1.0714" height="1.0726" color-interpolation-filters="sRGB">
   <feGaussianBlur stdDeviation="15.43542"/>
  </filter>
 </defs>
 <circle cx="8.4665" cy="8.4665" r="7.9377" filter="url(#filter11290)" opacity=".25" stroke-width=".14032"/>
 <path d="m16.404 8.4664c0 0.95154-0.16749 1.8639-0.47464 2.7094-0.21351 0.58768-0.49439 1.1433-0.83393 1.6572-0.14222 0.21608-0.29514 0.42475-0.45746 0.62529-0.51966 0.64179-1.1372 1.2007-1.8305 1.6543-0.2553 0.16718-0.52065 0.3201-0.79536 0.45712-1.0668 0.53389-2.2711 0.83421-3.5456 0.83421s-2.4788-0.30032-3.5456-0.83424c-0.27474-0.13705-0.5404-0.28997-0.7957-0.45712-0.70207-0.45973-1.327-1.0274-1.8509-1.6798-0.16263-0.20216-0.31524-0.41275-0.45746-0.63078-0.33046-0.5054-0.60421-1.0507-0.8135-1.627-0.30711-0.84529-0.4743-1.7573-0.4743-2.7085 0-4.3838 3.5537-7.9375 7.9375-7.9375 2.2005 0 4.1917 0.89548 5.6295 2.3417 0.41436 0.41662 0.78274 0.87929 1.0963 1.3795 0.29645 0.47107 0.54428 0.97582 0.73704 1.5068 0.30718 0.84559 0.47467 1.7579 0.47467 2.7094z" fill="url(#linearGradient1005)" stroke-width=".031006"/>
 <g transform="translate(-.0272 .0065001)" fill="#5e4aa6" stroke-width=".26458">
  <circle cx="-330.35" cy="-328.38" r="0"/>
  <circle cx="-312.11" cy="-326.25" r="0"/>
  <circle cx="-306.02" cy="-333.07" r="0"/>
  <circle cx="-308.84" cy="-326.01" r="0"/>
 </g>
 <path d="m8.467 0.52894c-3.1883 0-5.936 1.8807-7.1984 4.5924l7.4092 6.6873 6.9866-6.6863c-0.14012-0.30106-0.29623-0.5933-0.4718-0.87228-0.31356-0.50021-0.68219-0.9626-1.0966-1.3792-1.4378-1.4462-3.4285-2.3419-5.629-2.3419z" fill="url(#linearGradient1288)" opacity=".7" stroke-width=".26458"/>
 <g transform="matrix(.010991 0 0 .010991 2.7645 2.8518)" fill="#80d03a" filter="url(#filter948)">
  <path d="m852.37 347.35a360.73 360.73 0 0 0-37.236-76.8 30.255 30.255 0 0 1 0-32l28.509-44.218a29.673 29.673 0 0 0-4.0727-37.236l-29.673-29.091a30.255 30.255 0 0 0-37.236-4.6546l-44.218 27.927a29.091 29.091 0 0 1-32 0 383.42 383.42 0 0 0-128-53.527 30.836 30.836 0 0 1-23.273-22.691l-11.055-51.2a30.255 30.255 0 0 0-29.673-23.273h-43.636a29.091 29.091 0 0 0-29.091 23.273l-11.636 50.618a28.509 28.509 0 0 1-23.273 22.109 402.04 402.04 0 0 0-128.58 52.364 29.091 29.091 0 0 1-32 0l-44.218-27.927a29.673 29.673 0 0 0-37.236 4.0727l-29.091 29.091a29.673 29.673 0 0 0-4.0727 37.236l27.345 43.636a30.255 30.255 0 0 1 0 32.582 390.4 390.4 0 0 0-51.782 128 30.255 30.255 0 0 1-22.691 22.691l-51.2 11.636a29.091 29.091 0 0 0-23.273 29.091v41.309a29.673 29.673 0 0 0 23.273 29.673l50.618 11.055a29.091 29.091 0 0 1 22.109 23.273 380.51 380.51 0 0 0 52.945 128.58 30.255 30.255 0 0 1 0 32l-27.927 44.8a29.673 29.673 0 0 0 4.0727 37.236l29.091 29.091a29.673 29.673 0 0 0 37.236 4.0727l43.636-27.927a31.418 31.418 0 0 1 32.582 0 376.44 376.44 0 0 0 85.527 41.891 119.27 119.27 0 0 1 31.418-90.764 122.76 122.76 0 0 1 90.182-40.145h12.218l69.236 6.9818 32.582-32 154.76-153.02-4.0727-69.236a120.44 120.44 0 0 1 32.582-90.764 122.76 122.76 0 0 1 80.291-37.818zm-384 264.73a130.33 130.33 0 1 1 130.33-130.33 130.33 130.33 0 0 1-130.33 130.33z" p-id="20929"/>
  <path d="m1037.4 562.04a77.964 77.964 0 0 1-20.946 58.182 79.709 79.709 0 0 1-58.182 26.182h-8.1454l-89.6-8.7273-34.327 33.745-10.473 9.8909-148.95 146.62-20.364 20.364 6.4 89.6a79.127 79.127 0 0 1-21.527 58.182 80.873 80.873 0 0 1-58.182 25.018h-5.8182l-43.055-4.0727h-12.218a12.218 12.218 0 0 1-4.6546-3.4909 22.691 22.691 0 0 1-6.9818-18.036 23.855 23.855 0 0 1 7.5636-16.873l43.055-42.473a5.8182 5.8182 0 0 0 0-7.5636l-15.127-15.127-42.473-43.055h-7.5636l-43.636 43.055a27.927 27.927 0 0 1-16.873 7.5636 22.109 22.109 0 0 1-16.873-6.9818 35.491 35.491 0 0 1-5.2364-7.5636 20.945 20.945 0 0 1 0-11.636l-2.9091-27.927v-14.545a77.964 77.964 0 0 1 20.945-58.182 76.8 76.8 0 0 1 58.182-26.182h8.1454l89.6 8.7273 36.655-36.073 10.473-10.473 169.31-166.4-6.4-89.6a80.291 80.291 0 0 1 79.127-83.782h1.7454l43.055 4.0727h12.218a29.091 29.091 0 0 1 4.6546 4.0727 23.273 23.273 0 0 1 2.9091 29.673 13.964 13.964 0 0 1-3.4909 5.2364l-43.055 42.473s-2.9091 5.2364 0 6.9818l48.291 49.455 9.3091 9.3091h2.9091a6.4 6.4 0 0 0 4.0727 0l44.218-43.055a23.273 23.273 0 0 1 18.036-7.5636 22.109 22.109 0 0 1 16.873 6.9818 35.491 35.491 0 0 1 5.2363 7.5636 19.782 19.782 0 0 1 0 11.636z" p-id="20930"/>
 </g>
 <g transform="matrix(.010991 0 0 .010991 2.7645 2.8518)" fill="#fafafa">
  <path d="m852.37 347.35a360.73 360.73 0 0 0-37.236-76.8 30.255 30.255 0 0 1 0-32l28.509-44.218a29.673 29.673 0 0 0-4.0727-37.236l-29.673-29.091a30.255 30.255 0 0 0-37.236-4.6546l-44.218 27.927a29.091 29.091 0 0 1-32 0 383.42 383.42 0 0 0-128-53.527 30.836 30.836 0 0 1-23.273-22.691l-11.055-51.2a30.255 30.255 0 0 0-29.673-23.273h-43.636a29.091 29.091 0 0 0-29.091 23.273l-11.636 50.618a28.509 28.509 0 0 1-23.273 22.109 402.04 402.04 0 0 0-128.58 52.364 29.091 29.091 0 0 1-32 0l-44.218-27.927a29.673 29.673 0 0 0-37.236 4.0727l-29.091 29.091a29.673 29.673 0 0 0-4.0727 37.236l27.345 43.636a30.255 30.255 0 0 1 0 32.582 390.4 390.4 0 0 0-51.782 128 30.255 30.255 0 0 1-22.691 22.691l-51.2 11.636a29.091 29.091 0 0 0-23.273 29.091v41.309a29.673 29.673 0 0 0 23.273 29.673l50.618 11.055a29.091 29.091 0 0 1 22.109 23.273 380.51 380.51 0 0 0 52.945 128.58 30.255 30.255 0 0 1 0 32l-27.927 44.8a29.673 29.673 0 0 0 4.0727 37.236l29.091 29.091a29.673 29.673 0 0 0 37.236 4.0727l43.636-27.927a31.418 31.418 0 0 1 32.582 0 376.44 376.44 0 0 0 85.527 41.891 119.27 119.27 0 0 1 31.418-90.764 122.76 122.76 0 0 1 90.182-40.145h12.218l69.236 6.9818 32.582-32 154.76-153.02-4.0727-69.236a120.44 120.44 0 0 1 32.582-90.764 122.76 122.76 0 0 1 80.291-37.818zm-384 264.73a130.33 130.33 0 1 1 130.33-130.33 130.33 130.33 0 0 1-130.33 130.33z" p-id="20929"/>
  <path d="m1037.4 562.04a77.964 77.964 0 0 1-20.946 58.182 79.709 79.709 0 0 1-58.182 26.182h-8.1454l-89.6-8.7273-34.327 33.745-10.473 9.8909-148.95 146.62-20.364 20.364 6.4 89.6a79.127 79.127 0 0 1-21.527 58.182 80.873 80.873 0 0 1-58.182 25.018h-5.8182l-43.055-4.0727h-12.218a12.218 12.218 0 0 1-4.6546-3.4909 22.691 22.691 0 0 1-6.9818-18.036 23.855 23.855 0 0 1 7.5636-16.873l43.055-42.473a5.8182 5.8182 0 0 0 0-7.5636l-15.127-15.127-42.473-43.055h-7.5636l-43.636 43.055a27.927 27.927 0 0 1-16.873 7.5636 22.109 22.109 0 0 1-16.873-6.9818 35.491 35.491 0 0 1-5.2364-7.5636 20.945 20.945 0 0 1 0-11.636l-2.9091-27.927v-14.545a77.964 77.964 0 0 1 20.945-58.182 76.8 76.8 0 0 1 58.182-26.182h8.1454l89.6 8.7273 36.655-36.073 10.473-10.473 169.31-166.4-6.4-89.6a80.291 80.291 0 0 1 79.127-83.782h1.7454l43.055 4.0727h12.218a29.091 29.091 0 0 1 4.6546 4.0727 23.273 23.273 0 0 1 2.9091 29.673 13.964 13.964 0 0 1-3.4909 5.2364l-43.055 42.473s-2.9091 5.2364 0 6.9818l48.291 49.455 9.3091 9.3091h2.9091a6.4 6.4 0 0 0 4.0727 0l44.218-43.055a23.273 23.273 0 0 1 18.036-7.5636 22.109 22.109 0 0 1 16.873 6.9818 35.491 35.491 0 0 1 5.2363 7.5636 19.782 19.782 0 0 1 0 11.636z" p-id="20930"/>
 </g>
</svg>
