<?xml version="1.0" encoding="UTF-8"?>
<svg width="64" height="64" version="1.1" viewBox="0 0 16.933 16.933" xmlns="http://www.w3.org/2000/svg" xmlns:cc="http://creativecommons.org/ns#" xmlns:dc="http://purl.org/dc/elements/1.1/" xmlns:rdf="http://www.w3.org/1999/02/22-rdf-syntax-ns#" xmlns:xlink="http://www.w3.org/1999/xlink">
 <defs>
  <filter id="filter11290-94" x="-.024" y="-.024" width="1.048" height="1.048" color-interpolation-filters="sRGB">
   <feGaussianBlur stdDeviation="0.15875313"/>
  </filter>
  <linearGradient id="linearGradient1005-78" x1=".73911" x2="16.388" y1="16.296" y2=".64687" gradientTransform="matrix(1 0 0 1 -2.3124 .091733)" gradientUnits="userSpaceOnUse">
   <stop stop-color="#00dc96" offset="0"/>
   <stop stop-color="#14d29b" offset="1"/>
  </linearGradient>
  <linearGradient id="linearGradient943" x1="24.444" x2="25.086" y1="54.574" y2="-.000164" gradientTransform="matrix(.19908 0 0 .19908 1.2123 3.4486)" gradientUnits="userSpaceOnUse" xlink:href="#c"/>
  <linearGradient id="c">
   <stop stop-color="#e3e3e3" offset="0"/>
   <stop stop-color="#fffcff" offset="1"/>
  </linearGradient>
 </defs>
 <metadata>
  <rdf:RDF>
   <cc:Work rdf:about="">
    <dc:format>image/svg+xml</dc:format>
    <dc:type rdf:resource="http://purl.org/dc/dcmitype/StillImage"/>
    <dc:title/>
   </cc:Work>
  </rdf:RDF>
 </metadata>
 <g transform="translate(2.2773 -.085045)">
  <circle transform="matrix(1 0 0 1 -2.2773 .085049)" cx="8.4665" cy="8.4665" r="7.9377" filter="url(#filter11290-94)" opacity=".25" stroke-width=".14032"/>
  <path d="m14.127 8.5518c0 0.95155-0.16749 1.8639-0.47466 2.7093-0.21351 0.58769-0.4944 1.1433-0.83394 1.6572-0.14222 0.21608-0.29514 0.42476-0.45746 0.62529-0.51967 0.6418-1.1372 1.2007-1.8305 1.6543-0.2553 0.16718-0.52065 0.32012-0.79536 0.45712-1.0668 0.5339-2.2712 0.83423-3.5457 0.83423-1.2745 0-2.4789-0.30033-3.5457-0.83426-0.27474-0.13706-0.54041-0.28998-0.79571-0.45712-0.70207-0.45974-1.327-1.0274-1.8509-1.6798-0.16263-0.20216-0.31525-0.41275-0.45746-0.63079-0.33046-0.50541-0.60423-1.0507-0.81351-1.627-0.30713-0.84532-0.47432-1.7573-0.47432-2.7085 0-4.3839 3.5539-7.9378 7.9378-7.9378 2.2005 0 4.1918 0.89551 5.6295 2.3417 0.41436 0.41664 0.78274 0.87932 1.0963 1.3795 0.29646 0.47109 0.5443 0.97584 0.73705 1.5068 0.30718 0.84561 0.47469 1.7579 0.47469 2.7093z" fill="url(#linearGradient1005-78)" stroke-width=".031006"/>
  <path d="m6.4121 6.3328c0.17499-0.29224 0.4519-0.7105 0.80168-1.1118h3.969e-4c0.29622-0.34062 0.87633-0.77779 0.87633-0.77779 0.087195-0.065894 0.077839-0.15767-0.021302-0.20385l-0.70114-0.32768c-0.09914-0.046385-0.23391-0.012541-0.29961 0.074852 0 0-0.51859 0.74395-1.129 2.3276-1.8872-0.85364-3.6811 0.34201-3.6811 2.4212 0 2.1717 1.6708 5.4706 3.9304 4.4748 2.3798 1.0298 3.9315-2.3029 3.9315-4.4748 0-2.0971-1.6125-3.3266-3.7082-2.4024z" fill="url(#linearGradient943)" opacity=".9" stroke-width=".19908"/>
  <path d="m5.9895 5.6295c0.10909-0.00916 0.20545-0.10571 0.21421-0.2146 0 0 0.070075-0.84926-0.52178-1.4417-0.59364-0.59265-1.4413-0.52198-1.4413-0.52198-0.10909 0.0091572-0.20545 0.10571-0.2144 0.2146 0 0-0.071269 0.84965 0.52138 1.4423 0.59225 0.59205 1.4419 0.52138 1.4419 0.52138z" fill="url(#linearGradient943)" opacity=".9" stroke-width=".19908"/>
 </g>
</svg>
