<?xml version="1.0" encoding="UTF-8" standalone="no"?>
<svg
   xmlns:dc="http://purl.org/dc/elements/1.1/"
   xmlns:cc="http://creativecommons.org/ns#"
   xmlns:rdf="http://www.w3.org/1999/02/22-rdf-syntax-ns#"
   xmlns:svg="http://www.w3.org/2000/svg"
   xmlns="http://www.w3.org/2000/svg"
   xmlns:xlink="http://www.w3.org/1999/xlink"
   xmlns:sodipodi="http://sodipodi.sourceforge.net/DTD/sodipodi-0.dtd"
   xmlns:inkscape="http://www.inkscape.org/namespaces/inkscape"
   height="64"
   width="64"
   version="1.1"
   id="svg17"
   sodipodi:docname="applications-education-preschool.svg"
   inkscape:version="1.0.1 (3bc2e813f5, 2020-09-07, custom)">
  <metadata
     id="metadata23">
    <rdf:RDF>
      <cc:Work
         rdf:about="">
        <dc:format>image/svg+xml</dc:format>
        <dc:type
           rdf:resource="http://purl.org/dc/dcmitype/StillImage" />
        <dc:title></dc:title>
      </cc:Work>
    </rdf:RDF>
  </metadata>
  <defs
     id="defs21">
    <linearGradient
       id="a-3"
       x1="8.4667997"
       x2="8.4667997"
       y1="284.29999"
       y2="292.76999"
       gradientTransform="matrix(3.7796268,0,0,3.7796268,-2.2668177e-4,-1059.6078)"
       gradientUnits="userSpaceOnUse">
      <stop
         stop-color="#f5ff8e"
         offset="0"
         id="stop848" />
      <stop
         stop-color="#f9f9f9"
         offset="1"
         id="stop850" />
    </linearGradient>
    <linearGradient
       id="linearGradient862"
       x1="7.9373002"
       x2="7.9373002"
       y1="15.081"
       y2="1.852"
       gradientUnits="userSpaceOnUse"
       gradientTransform="matrix(3.779602,0,0,3.779602,8.0852008,-26.009762)">
      <stop
         stop-color="#fe9a16"
         offset="0"
         id="stop853" />
      <stop
         stop-color="#f1e123"
         offset="1"
         id="stop855" />
    </linearGradient>
    <linearGradient
       id="linearGradient1046"
       x1="467.8"
       x2="467.8"
       y1="122.8"
       y2="-61.12"
       gradientTransform="matrix(0.1911,0,0,0.1911,-58.641,26.695)"
       gradientUnits="userSpaceOnUse">
      <stop
         stop-color="#03bc6f"
         offset="0"
         id="stop888" />
      <stop
         stop-color="#00dcb4"
         offset="1"
         id="stop890" />
    </linearGradient>
    <style
       type="text/css"
       id="style893" />
    <style
       type="text/css"
       id="style895" />
    <filter
       id="filter1057"
       x="-.027"
       y="-.027"
       width="1.054"
       height="1.054"
       color-interpolation-filters="sRGB">
      <feGaussianBlur
         stdDeviation="0.61875"
         id="feGaussianBlur897" />
    </filter>
    <linearGradient
       id="linearGradient1053"
       x1="-127"
       x2="-72"
       y1="60"
       y2="5"
       gradientTransform="translate(131.5,-0.51)"
       gradientUnits="userSpaceOnUse">
      <stop
         stop-color="#ebb300"
         offset="0"
         id="stop900" />
      <stop
         stop-color="#ffe433"
         offset="1"
         id="stop902" />
    </linearGradient>
    <style
       type="text/css"
       id="style905" />
    <style
       type="text/css"
       id="style907" />
    <style
       type="text/css"
       id="style909" />
    <style
       type="text/css"
       id="style911" />
    <style
       type="text/css"
       id="style913" />
    <style
       type="text/css"
       id="style915" />
    <style
       type="text/css"
       id="style917" />
    <style
       id="style4"
       type="text/css" />
    <linearGradient
       gradientUnits="userSpaceOnUse"
       gradientTransform="translate(14.056,0.42995)"
       y2="283.98"
       y1="280.31"
       x2="-82.91"
       x1="-82.91"
       id="linearGradient2727">
      <stop
         id="stop6"
         offset="0"
         stop-color="#faf0c8" />
      <stop
         id="stop8"
         offset="1"
         stop-color="#ffc85a" />
    </linearGradient>
    <linearGradient
       gradientUnits="userSpaceOnUse"
       gradientTransform="translate(14.056,0.42995)"
       y2="285.69"
       y1="278.35"
       x2="-83.608"
       x1="-76.928"
       id="linearGradient2735">
      <stop
         id="stop11"
         offset="0"
         stop-color="#fafadc" />
      <stop
         id="stop13"
         offset="1"
         stop-color="#faf0a0" />
    </linearGradient>
    <filter
       color-interpolation-filters="sRGB"
       height="1.1146"
       width="1.1259"
       y="-.05732"
       x="-.062943"
       id="filter2747">
      <feGaussianBlur
         id="feGaussianBlur16"
         stdDeviation="0.16528108" />
    </filter>
    <filter
       color-interpolation-filters="sRGB"
       height="1.048"
       width="1.048"
       y="-.024"
       x="-.024"
       id="filter2761-3">
      <feGaussianBlur
         id="feGaussianBlur19"
         stdDeviation="0.14552168" />
    </filter>
    <linearGradient
       gradientUnits="userSpaceOnUse"
       gradientTransform="matrix(3.7796 0 0 3.7796 -.49932 -1058)"
       y2="295.6"
       y1="281.24"
       x2="1.3927"
       x1="15.752"
       id="linearGradient1025">
      <stop
         id="stop22"
         offset="0"
         stop-color="#ffdc32" />
      <stop
         id="stop24"
         offset="1"
         stop-color="#ff7832" />
    </linearGradient>
    <filter
       id="filter11290"
       x="-.024"
       y="-.024"
       width="1.048"
       height="1.048"
       color-interpolation-filters="sRGB">
      <feGaussianBlur
         stdDeviation="0.15875313"
         id="feGaussianBlur880" />
    </filter>
    <linearGradient
       id="linearGradient1307"
       x1="16.393"
       x2=".60977"
       y1=".69761"
       y2="16.375"
       gradientUnits="userSpaceOnUse">
      <stop
         stop-color="#ffdc32"
         offset="0"
         id="stop883" />
      <stop
         stop-color="#ff7832"
         offset="1"
         id="stop885" />
    </linearGradient>
    <filter
       id="filter2747-3"
       x="-.062943"
       y="-.05732"
       width="1.1259"
       height="1.1146"
       color-interpolation-filters="sRGB">
      <feGaussianBlur
         stdDeviation="0.16528108"
         id="feGaussianBlur898" />
    </filter>
    <filter
       id="filter11290-3"
       x="-.024"
       y="-.024"
       width="1.048"
       height="1.048"
       color-interpolation-filters="sRGB">
      <feGaussianBlur
         stdDeviation="0.15875313"
         id="feGaussianBlur936" />
    </filter>
    <filter
       id="filter905"
       x="-.055661"
       y="-.065073"
       width="1.1113"
       height="1.1301"
       color-interpolation-filters="sRGB">
      <feGaussianBlur
         stdDeviation="0.21113719"
         id="feGaussianBlur944" />
    </filter>
    <linearGradient
       id="linearGradient892"
       x1="4.2408"
       x2="13.345"
       y1="8.4207"
       y2="8.4207"
       gradientTransform="translate(45.568,-3.2409)"
       gradientUnits="userSpaceOnUse">
      <stop
         stop-color="#fafadc"
         offset="0"
         id="stop947" />
      <stop
         stop-color="#faf0a0"
         offset="1"
         id="stop949" />
    </linearGradient>
    <linearGradient
       inkscape:collect="always"
       xlink:href="#linearGradient1307"
       id="linearGradient987"
       gradientUnits="userSpaceOnUse"
       x1="16.393"
       y1=".69761"
       x2=".60977"
       y2="16.375"
       gradientTransform="matrix(3.779602,0,0,3.779602,-0.132497,0.02437811)" />
  </defs>
  <sodipodi:namedview
     pagecolor="#ffffff"
     bordercolor="#666666"
     borderopacity="1"
     objecttolerance="10"
     gridtolerance="10"
     guidetolerance="10"
     inkscape:pageopacity="0"
     inkscape:pageshadow="2"
     inkscape:window-width="1920"
     inkscape:window-height="942"
     id="namedview19"
     showgrid="false"
     inkscape:zoom="4.2813106"
     inkscape:cx="28.332719"
     inkscape:cy="37.246129"
     inkscape:window-x="0"
     inkscape:window-y="38"
     inkscape:window-maximized="1"
     inkscape:current-layer="svg17"
     inkscape:document-rotation="0" />
  <linearGradient
     id="a"
     gradientUnits="userSpaceOnUse"
     x1="400.60785"
     x2="400.60785"
     y1="547.29376"
     y2="516.19379"
     gradientTransform="matrix(1.9292604,0,0,1.9292604,-657.21934,-994.12349)">
    <stop
       offset="0"
       stop-color="#f7a744"
       id="stop2" />
    <stop
       offset="1"
       stop-color="#ffe66f"
       id="stop4" />
  </linearGradient>
  <circle
     cx="8.4937"
     cy="8.46"
     r="7.9376998"
     filter="url(#filter11290)"
     opacity="0.25"
     stroke-width="0.14032"
     id="circle956"
     style="filter:url(#filter11290-3)"
     transform="matrix(3.779602,0,0,3.779602,-0.10280494,0.02456761)" />
  <path
     d="m 62.000382,31.999811 c 0,3.596443 -0.63305,7.044801 -1.79395,10.240454 -0.80698,2.221197 -1.8686,4.321219 -3.15193,6.263556 -0.53753,0.816696 -1.11551,1.605387 -1.72901,2.363347 -1.96411,2.425711 -4.29817,4.538168 -6.91856,6.252596 -0.96494,0.631873 -1.96785,1.20985 -3.00615,1.727731 -4.03208,2.017892 -8.58385,3.152982 -13.40095,3.152982 -4.817108,0 -9.368882,-1.13509 -13.400962,-3.153095 -1.038408,-0.517994 -2.042497,-1.09597 -3.007429,-1.727731 C 12.937896,55.382055 10.575909,53.236488 8.595776,50.770676 7.981099,50.006591 7.404294,49.210644 6.866759,48.386578 5.617752,46.476368 4.583086,44.415351 3.792053,42.237166 2.631299,39.042306 1.999388,35.595271 1.999388,32.000114 c 0,-16.569019 13.431571,-30.0005915 30.000594,-30.0005915 8.31701,0 15.84295,3.384558 21.27727,8.8506945 1.56611,1.574658 2.95844,3.323366 4.14357,5.213961 1.12047,1.780457 2.05717,3.688211 2.78572,5.695104 1.16102,3.195994 1.79407,6.644163 1.79407,10.240454 z"
     fill="url(#linearGradient1307)"
     stroke-width="0.11719"
     id="path958"
     style="fill:url(#linearGradient987)" />
  <g
     fill="#ffffd9"
     transform="matrix(0.13414536,0,0,0.13414536,12,12.000054)"
     id="g1018">
    <path
       d="m 298.184,149.092 c 0,-14.357 -33.491,-23.242 -37.697,-36.197 -4.36,-13.428 17.358,-40.274 9.225,-51.451 C 261.497,50.156 229.198,62.561 217.91,54.346 206.734,46.212 208.599,11.622 195.173,7.262 182.217,3.056 163.449,32 149.092,32 134.735,32 115.967,3.056 103.011,7.263 89.585,11.623 91.45,46.212 80.274,54.347 68.986,62.562 36.688,50.157 28.473,61.445 20.339,72.621 42.057,99.468 37.698,112.895 33.491,125.85 0,134.735 0,149.092 c 0,14.357 33.491,23.242 37.698,36.197 4.359,13.427 -17.358,40.274 -9.225,51.45 8.215,11.287 40.513,-1.117 51.801,7.098 11.176,8.135 9.311,42.725 22.737,47.084 12.955,4.207 31.723,-24.737 46.08,-24.737 14.357,0 33.125,28.944 46.081,24.737 13.426,-4.359 11.561,-38.95 22.736,-47.084 11.288,-8.215 43.586,4.19 51.801,-7.098 8.134,-11.176 -13.584,-38.022 -9.225,-51.45 4.208,-12.955 37.7,-21.839 37.7,-36.197 z m -149.092,98.739 c -54.444,0 -98.738,-44.294 -98.738,-98.738 0,-54.444 44.294,-98.738 98.738,-98.738 54.445,0 98.739,44.294 98.739,98.738 0,54.444 -44.294,98.738 -98.739,98.738 z"
       fill="#ffffd9"
       id="path1014" />
    <path
       d="m 149.092,66.354 c -45.622,0 -82.738,37.116 -82.738,82.738 0,45.622 37.116,82.738 82.738,82.738 45.623,0 82.739,-37.116 82.739,-82.738 0,-45.622 -37.116,-82.738 -82.739,-82.738 z m 25.333,49.907 c 4.418,0 8,3.582 8,8 0,4.419 -3.582,8 -8,8 -4.418,0 -8,-3.581 -8,-8 0,-4.418 3.582,-8 8,-8 z m -50,0 c 4.418,0 8,3.582 8,8 0,4.419 -3.582,8 -8,8 -4.418,0 -8,-3.581 -8,-8 0,-4.418 3.582,-8 8,-8 z m 71.267,50.562 c -6.173,17.727 -22.193,30.591 -40.815,32.77 -1.898,0.223 -3.794,0.332 -5.679,0.332 -16.852,0 -32.883,-8.708 -41.942,-23.174 -1.953,-3.118 -3.556,-6.458 -4.765,-9.928 -1.454,-4.172 0.75,-8.732 4.923,-10.187 4.173,-1.456 8.732,0.749 10.186,4.923 0.815,2.34 1.898,4.594 3.216,6.699 6.81,10.874 19.449,16.927 32.199,15.443 12.575,-1.473 23.396,-10.163 27.567,-22.142 1.452,-4.172 6.008,-6.378 10.186,-4.924 4.173,1.454 6.377,6.015 4.924,10.188 z"
       fill="#ffffd9"
       id="path1016" />
  </g>
  <circle
     cx="-1177.9941"
     cy="-1241.1212"
     r="0"
     fill="#5e4aa6"
     stroke-width="1.00001"
     id="circle960" />
</svg>
