<?xml version="1.0" encoding="UTF-8"?>
<svg width="64" height="64" version="1.1" viewBox="0 0 16.933 16.933" xmlns="http://www.w3.org/2000/svg" xmlns:cc="http://creativecommons.org/ns#" xmlns:dc="http://purl.org/dc/elements/1.1/" xmlns:rdf="http://www.w3.org/1999/02/22-rdf-syntax-ns#">
 <defs>
  <filter id="filter11290-1" x="-.024" y="-.024" width="1.048" height="1.048" color-interpolation-filters="sRGB">
   <feGaussianBlur stdDeviation="0.15875313"/>
  </filter>
  <linearGradient id="linearGradient1005-29" x1=".73911" x2="16.388" y1="16.296" y2=".64687" gradientTransform="matrix(1 0 0 1 1.8456 1.7453)" gradientUnits="userSpaceOnUse">
   <stop stop-color="#dddfe1" offset="0"/>
   <stop stop-color="#f3f4f6" offset="1"/>
  </linearGradient>
  <linearGradient id="b" x1="12.613" x2="11.598" y1="24.015" y2="-.69987" gradientTransform="matrix(.39222 0 0 .39222 5.4937 5.3521)" gradientUnits="userSpaceOnUse">
   <stop stop-color="#00cafe" offset="0"/>
   <stop stop-color="#1460f3" offset="1"/>
  </linearGradient>
 </defs>
 <metadata>
  <rdf:RDF>
   <cc:Work rdf:about="">
    <dc:format>image/svg+xml</dc:format>
    <dc:type rdf:resource="http://purl.org/dc/dcmitype/StillImage"/>
    <dc:title/>
   </cc:Work>
  </rdf:RDF>
 </metadata>
 <g transform="translate(-1.8804 -1.7387)">
  <circle transform="matrix(1 0 0 1 1.8532 1.7452)" cx="8.4937" cy="8.46" r="7.9377" filter="url(#filter11290-1)" opacity=".25" stroke-width=".14032"/>
  <path d="m18.285 10.205c0 0.95155-0.16749 1.8639-0.47466 2.7093-0.21351 0.58769-0.4944 1.1433-0.83394 1.6572-0.14222 0.21608-0.29514 0.42476-0.45746 0.62529-0.51967 0.6418-1.1372 1.2007-1.8305 1.6543-0.2553 0.16718-0.52065 0.32012-0.79536 0.45712-1.0668 0.5339-2.2712 0.83423-3.5457 0.83423-1.2745 0-2.4789-0.30033-3.5457-0.83426-0.27474-0.13705-0.54041-0.28998-0.79571-0.45712-0.70207-0.45974-1.327-1.0274-1.8509-1.6798-0.16263-0.20216-0.31525-0.41275-0.45746-0.63079-0.33046-0.50541-0.60423-1.0507-0.81351-1.627-0.30713-0.84532-0.47432-1.7573-0.47432-2.7085 0-4.3839 3.5539-7.9378 7.9378-7.9378 2.2005 0 4.1918 0.89551 5.6295 2.3417 0.41436 0.41664 0.78274 0.87932 1.0963 1.3795 0.29646 0.47109 0.5443 0.97584 0.73705 1.5068 0.30718 0.84561 0.47469 1.7579 0.47469 2.7093z" fill="url(#linearGradient1005-29)" stroke-width=".031006"/>
  <path d="m14.55 12.632c-0.14512 0.25259-0.40869 0.39222-0.68011 0.39222-0.13296 0-0.26788-0.03373-0.39143-0.10512l-2.3462-1.3551v2.7102c0 0.43301-0.35143 0.78444-0.78444 0.78444-0.43301 0-0.78444-0.35143-0.78444-0.78444v-2.7106l-2.3474 1.3555c-0.12355 0.07138-0.25847 0.10512-0.39143 0.10512-0.27102 0-0.53499-0.13963-0.68011-0.39222-0.2165-0.37535-0.088249-0.85504 0.2871-1.0708l2.3466-1.3555-2.3474-1.3555c-0.37535-0.2169-0.50361-0.69579-0.2871-1.0711 0.2165-0.37535 0.69658-0.504 1.0715-0.2871l2.347 1.3551v-2.7106c0-0.43301 0.35143-0.78444 0.78444-0.78444 0.43301 0 0.78444 0.35143 0.78444 0.78444v2.7102l2.3462-1.3551c0.37496-0.2169 0.85621-0.088249 1.0715 0.2871 0.2165 0.37535 0.08825 0.85504-0.2871 1.0711l-2.3459 1.3555 2.3462 1.3551c0.37535 0.2165 0.50439 0.69619 0.28789 1.0715z" fill="url(#b)" stroke-width=".39222"/>
 </g>
</svg>
