<?xml version="1.0" encoding="UTF-8"?>
<svg width="64" height="64" version="1.1" viewBox="0 0 16.933 16.933" xmlns="http://www.w3.org/2000/svg" xmlns:cc="http://creativecommons.org/ns#" xmlns:dc="http://purl.org/dc/elements/1.1/" xmlns:rdf="http://www.w3.org/1999/02/22-rdf-syntax-ns#">
 <defs>
  <filter id="filter11290-5-4" x="-.024" y="-.024" width="1.048" height="1.048" color-interpolation-filters="sRGB">
   <feGaussianBlur stdDeviation="0.15875313"/>
  </filter>
  <linearGradient id="linearGradient1005-3-5" x1=".9215" x2="16.137" y1="16.113" y2=".89807" gradientTransform="matrix(1 0 0 1 -.94255 2.0287)" gradientUnits="userSpaceOnUse">
   <stop stop-color="#a53cff" offset="0"/>
   <stop stop-color="#b496ff" offset="1"/>
  </linearGradient>
 </defs>
 <metadata>
  <rdf:RDF>
   <cc:Work rdf:about="">
    <dc:format>image/svg+xml</dc:format>
    <dc:type rdf:resource="http://purl.org/dc/dcmitype/StillImage"/>
    <dc:title/>
   </cc:Work>
  </rdf:RDF>
 </metadata>
 <g transform="translate(.90714 -2.0222)">
  <circle transform="matrix(1 0 0 1 -.90714 2.0222)" cx="8.4665" cy="8.4665" r="7.9377" filter="url(#filter11290-5-4)" image-rendering="optimizeSpeed" opacity=".25" stroke-width=".14032"/>
  <path d="m15.497 10.489c0 0.95155-0.16749 1.8639-0.47466 2.7093-0.21351 0.58769-0.4944 1.1433-0.83394 1.6572-0.14222 0.21608-0.29514 0.42476-0.45746 0.62529-0.51967 0.6418-1.1372 1.2007-1.8305 1.6543-0.2553 0.16718-0.52065 0.32012-0.79536 0.45712-1.0668 0.5339-2.2712 0.83423-3.5457 0.83423-1.2745 0-2.4789-0.30033-3.5457-0.83426-0.27474-0.13705-0.54041-0.28998-0.79571-0.45712-0.70207-0.45974-1.327-1.0274-1.8509-1.6798-0.16263-0.20216-0.31525-0.41275-0.45746-0.63079-0.33046-0.50541-0.60423-1.0507-0.81351-1.627-0.30713-0.84532-0.47432-1.7573-0.47432-2.7085 0-4.3839 3.5539-7.9378 7.9378-7.9378 2.2005 0 4.1918 0.89551 5.6295 2.3417 0.41436 0.41664 0.78274 0.87932 1.0963 1.3795 0.29647 0.47109 0.5443 0.97584 0.73705 1.5068 0.30718 0.84561 0.47469 1.7579 0.47469 2.7093z" fill="url(#linearGradient1005-3-5)" image-rendering="optimizeSpeed" stroke-width=".031006"/>
  <path d="m9.5687 5.5067c-0.046065 0.00251-0.092672 0.00954-0.13901 0.021704-0.27842 0.073318-0.47272 0.30541-0.5116 0.57309-0.52334 0.22217-2.3097 1.211-2.0433 4.2922-1.9565 0.05689-2.9855 0.57497-3.4535 0.91312-0.12041-0.03792-0.25229-0.04375-0.38344-0.0093-0.37102 0.0986-0.5924 0.47739-0.49506 0.84904 0.097969 0.37133 0.47803 0.59366 0.84904 0.49506 0.30592-0.08027 0.51001-0.35336 0.51728-0.65422l2.0454 2.1472c-0.048036 0.02971-0.095253 0.05711-0.14108 0.08113-0.16307-0.11883-0.37605-0.16598-0.58653-0.11162-0.37102 0.097969-0.59271 0.47823-0.49506 0.84956 0.097969 0.37133 0.47771 0.59334 0.84904 0.49506 0.28948-0.07585 0.487-0.32427 0.51418-0.60616 0.95694-0.47531 1.7492-1.6428 1.5425-3.7719 0.61404-0.0028 1.1798-0.07199 1.6883-0.20567 0.76037-0.20005 1.3924-0.54246 1.8712-1.0206 0.60393-0.60393 0.94891-1.395 1.0077-2.3043 0.29454-0.14158 0.45815-0.47585 0.37155-0.80357-0.09797-0.37102-0.47751-0.5922-0.84853-0.49454-0.37165 0.097653-0.59323 0.47719-0.49558 0.84853 0.04614 0.17413 0.15392 0.31464 0.29456 0.40566-0.03382 0.51007-0.18551 1.1316-0.63459 1.6748-1.2657-1.4439-1.8005-2.0331-2.0479-2.2717 0.1321-0.083748 0.24366-0.13597 0.31729-0.16536 0.16718 0.13905 0.39642 0.19874 0.6227 0.13901 0.3707-0.097653 0.59251-0.47782 0.49454-0.84853-0.086-0.32492-0.38758-0.53547-0.71003-0.5178zm-0.99684 1.5927c0.26768 0.26452 1.3062 1.4339 2.0862 2.3213-0.16908 0.15865-0.36296 0.29909-0.57723 0.42013-1.1112-1.2676-1.6778-1.8999-1.9802-2.2143 0.15138-0.22217 0.31517-0.39532 0.47129-0.5271zm-0.65061 0.83096c0.42632 0.46045 1.2182 1.3541 1.8448 2.0671-0.24903 0.10871-0.52094 0.19526-0.8139 0.25942l-1.3126-1.5394c0.070158-0.30434 0.16755-0.56455 0.28164-0.78703zm-0.35708 1.2227 1.0005 1.1731c-0.31476 0.04551-0.65144 0.06752-1.0067 0.06563-0.04456-0.46772-0.03741-0.87873 0.0062-1.2387zm-0.60927 1.9193c0.023069 0.21048 0.03508 0.40693 0.038241 0.59118l-0.5917-0.56431c0.17445-0.01359 0.35878-0.02245 0.55345-0.02687zm-0.99891 0.07338 1.0247 0.97772c-0.030023 0.39851-0.10813 0.72836-0.21652 1.0005l-1.7911-1.7849c0.27526-0.07711 0.60112-0.14555 0.98289-0.19327zm-1.3477 0.31006 1.9994 1.9921c-0.1144 0.19689-0.2456 0.35318-0.38086 0.47801l-2.1342-2.2397c0.13684-0.07427 0.30652-0.154 0.51573-0.23048z" fill="#fff" stroke-linecap="round" stroke-linejoin="round" stroke-width=".52917" style="paint-order:stroke fill markers"/>
 </g>
</svg>
