<?xml version="1.0" encoding="UTF-8"?>
<!-- Created with Inkscape (http://www.inkscape.org/) -->
<svg width="64" height="64" version="1.1" viewBox="0 0 16.933 16.933" xmlns="http://www.w3.org/2000/svg" xmlns:cc="http://creativecommons.org/ns#" xmlns:dc="http://purl.org/dc/elements/1.1/" xmlns:rdf="http://www.w3.org/1999/02/22-rdf-syntax-ns#">
 <defs>
  <filter id="filter11290" x="-.024" y="-.024" width="1.048" height="1.048" color-interpolation-filters="sRGB">
   <feGaussianBlur stdDeviation="0.15875313"/>
  </filter>
  <linearGradient id="linearGradient1005" x1=".73911" x2="16.388" y1="16.296" y2=".64687" gradientTransform="translate(-.0078552 -5.0139e-5)" gradientUnits="userSpaceOnUse">
   <stop stop-color="#dddfe1" offset="0"/>
   <stop stop-color="#f3f4f6" offset="1"/>
  </linearGradient>
 </defs>
 <metadata>
  <rdf:RDF>
   <cc:Work rdf:about="">
    <dc:format>image/svg+xml</dc:format>
    <dc:type rdf:resource="http://purl.org/dc/dcmitype/StillImage"/>
    <dc:title/>
   </cc:Work>
  </rdf:RDF>
 </metadata>
 <circle cx="8.4937" cy="8.46" r="7.9377" filter="url(#filter11290)" opacity=".25" stroke-width=".14032"/>
 <path d="m16.431 8.4599c0 0.95154-0.16749 1.8639-0.47464 2.7094-0.21351 0.58768-0.49439 1.1433-0.83393 1.6572-0.14222 0.21608-0.29514 0.42475-0.45746 0.62529-0.51966 0.64179-1.1372 1.2007-1.8305 1.6543-0.2553 0.16718-0.52065 0.3201-0.79536 0.45712-1.0668 0.53389-2.2711 0.83421-3.5456 0.83421s-2.4788-0.30032-3.5456-0.83424c-0.27474-0.13705-0.5404-0.28997-0.7957-0.45712-0.70207-0.45973-1.327-1.0274-1.8509-1.6798-0.16263-0.20216-0.31524-0.41275-0.45746-0.63078-0.33046-0.5054-0.60421-1.0507-0.8135-1.627-0.30711-0.84529-0.4743-1.7573-0.4743-2.7085 0-4.3838 3.5537-7.9375 7.9375-7.9375 2.2005 0 4.1917 0.89548 5.6295 2.3417 0.41436 0.41662 0.78274 0.87929 1.0963 1.3795 0.29645 0.47107 0.54428 0.97582 0.73704 1.5068 0.30718 0.84559 0.47467 1.7579 0.47467 2.7094z" fill="url(#linearGradient1005)" stroke-width=".031006"/>
 <g fill="#5e4aa6" stroke-width=".26458">
  <circle cx="-330.35" cy="-328.38" r="0"/>
  <circle cx="-312.11" cy="-326.25" r="0"/>
  <circle cx="-306.02" cy="-333.07" r="0"/>
  <circle cx="-308.84" cy="-326.01" r="0"/>
 </g>
 <g transform="translate(.50437 -.63228)">
  <path d="m6.23 11.584s0.42392-0.87757 0.82906-0.87757 3.8874 0.07559 4.1603-0.04843c0.27285-0.12402 1.4386-0.61184 1.3808-1.4221-0.05788-0.81027 0.06924-2.3399 0.06924-2.3399s0.45164 4.6797 0.3855 4.9856c-0.03399 0.28546-0.11315 1.0119-1.1421 1.2341-1.029 0.22216-1.5493-0.70157-1.5493-0.70157s-0.45602-0.83019-0.99974-0.83019h-3.1337z" fill="#ff7d37"/>
  <path d="m10.55 5.027s-1.05 0.024804 0 0h-5.027s-2.0836-0.00827-2.3068 2.1414c0.05788 0 0 0 0 0s-0.12718 2.1876-0.29631 4.725c0 0-0.12659 1.0653 1.2554 1.2528 1.4656 0.1989 2.1332-2.282 2.9269-2.282h4.2581c0.63285 0 1.3111-0.631 1.3111-1.5313 0-0.90035 3.91e-4 -2.2569-3.99e-4 -2.4616 7.96e-4 -0.20685-0.1152-1.7886-2.121-1.8444z" fill="#ffbe37"/>
  <g transform="translate(.011111)" fill="#fff">
   <rect x="5.4021" y="6.5553" width=".88442" height="2.5591" ry=".44221"/>
   <rect transform="rotate(-90)" x="-8.277" y="4.5648" width=".88442" height="2.5591" ry=".44221"/>
   <g transform="translate(0 -.037725)">
    <circle cx="10.275" cy="7.1023" r=".42386"/>
    <circle cx="10.275" cy="8.6428" r=".42386"/>
    <circle transform="rotate(-90)" cx="-7.8725" cy="9.5048" r=".42386"/>
    <circle transform="rotate(-90)" cx="-7.8725" cy="11.045" r=".42386"/>
   </g>
  </g>
 </g>
</svg>
