<?xml version="1.0" encoding="UTF-8"?>
<svg width="64" height="64" version="1.1" viewBox="0 0 16.933 16.933" xmlns="http://www.w3.org/2000/svg" xmlns:cc="http://creativecommons.org/ns#" xmlns:dc="http://purl.org/dc/elements/1.1/" xmlns:rdf="http://www.w3.org/1999/02/22-rdf-syntax-ns#" xmlns:xlink="http://www.w3.org/1999/xlink">
 <metadata>
  <rdf:RDF>
   <cc:Work rdf:about="">
    <dc:format>image/svg+xml</dc:format>
    <dc:type rdf:resource="http://purl.org/dc/dcmitype/StillImage"/>
    <dc:title/>
   </cc:Work>
  </rdf:RDF>
 </metadata>
 <defs>
  <filter id="filter11290" x="-.024" y="-.024" width="1.048" height="1.048" color-interpolation-filters="sRGB">
   <feGaussianBlur stdDeviation="0.15875313"/>
  </filter>
  <linearGradient id="linearGradient1005" x1=".73911" x2="16.388" y1="16.296" y2=".64687" gradientTransform="translate(-.035055 .00645)" gradientUnits="userSpaceOnUse">
   <stop stop-color="#00dc96" offset="0"/>
   <stop stop-color="#14d29b" offset="1"/>
  </linearGradient>
  <style type="text/css"/>
  <style type="text/css"/>
  <linearGradient id="linearGradient1142" x1="512" x2="512" y1="-1.4466" y2="1014.7" gradientUnits="userSpaceOnUse">
   <stop stop-color="#fff" offset="0"/>
   <stop stop-color="#c8ffe6" offset="1"/>
  </linearGradient>
 </defs>
 <circle cx="8.4665" cy="8.4665" r="7.9377" filter="url(#filter11290)" opacity=".25" stroke-width=".14032"/>
 <path d="m16.404 8.4664c0 0.95154-0.16749 1.8639-0.47464 2.7094-0.21351 0.58768-0.49439 1.1433-0.83393 1.6572-0.14222 0.21608-0.29514 0.42475-0.45746 0.62529-0.51966 0.64179-1.1372 1.2007-1.8305 1.6543-0.2553 0.16718-0.52065 0.3201-0.79536 0.45712-1.0668 0.53389-2.2711 0.83421-3.5456 0.83421s-2.4788-0.30032-3.5456-0.83424c-0.27474-0.13705-0.5404-0.28997-0.7957-0.45712-0.70207-0.45973-1.327-1.0274-1.8509-1.6798-0.16263-0.20216-0.31524-0.41275-0.45746-0.63078-0.33046-0.5054-0.60421-1.0507-0.8135-1.627-0.30711-0.84529-0.4743-1.7573-0.4743-2.7085 0-4.3838 3.5537-7.9375 7.9375-7.9375 2.2005 0 4.1917 0.89548 5.6295 2.3417 0.41436 0.41662 0.78274 0.87929 1.0963 1.3795 0.29645 0.47107 0.54428 0.97582 0.73704 1.5068 0.30718 0.84559 0.47467 1.7579 0.47467 2.7094z" fill="url(#linearGradient1005)" stroke-width=".031006"/>
 <g transform="translate(-.0272 .0065001)" fill="#5e4aa6" stroke-width=".26458">
  <circle cx="-330.35" cy="-328.38" r="0"/>
  <circle cx="-312.11" cy="-326.25" r="0"/>
  <circle cx="-306.02" cy="-333.07" r="0"/>
  <circle cx="-308.84" cy="-326.01" r="0"/>
 </g>
 <g transform="translate(-.0272 .0065001)" fill="#5e4aa6" stroke-width=".26458">
  <circle cx="-330.35" cy="-328.38" r="0"/>
  <circle cx="-312.11" cy="-326.25" r="0"/>
  <circle cx="-306.02" cy="-333.07" r="0"/>
  <circle cx="-308.84" cy="-326.01" r="0"/>
 </g>
 <g transform="matrix(.010869 0 0 .010869 2.9014 2.9014)" fill="url(#linearGradient1142)">
  <path d="m512 6.98e-4a442.18 442.18 0 0 0-116.36 869 289.75 289.75 0 0 1 116.36 155 289.75 289.75 0 0 1 116.36-155 442.18 442.18 0 0 0-116.36-869zm300.68 592.52v28.625a23.273 23.273 0 0 1-23.273 23.273h-304.17a23.273 23.273 0 0 1-23.273-23.273v-28.625a23.273 23.273 0 0 1 23.273-23.273h304.17a23.273 23.273 0 0 1 23.273 23.273zm-299.05-492.68 12.8-21.644a6.5164 6.5164 0 0 1 8.8436-2.3273l95.418 54.225a6.0509 6.0509 0 0 1 2.0945 8.3782l-12.8 21.876a49.338 49.338 0 0 1-66.793 17.687l-21.411-12.102a48.175 48.175 0 0 1-18.153-66.094zm-43.055 73.774a30.953 30.953 0 0 1 41.425-10.705l53.062 30.255a29.789 29.789 0 0 1 14.895 25.367h71.68a20.945 20.945 0 0 1 16.756 8.6109 1009.8 1009.8 0 0 1 80.989 154.3c36.538 80.291 43.287 122.18 42.589 143.36a20.48 20.48 0 0 1-20.945 19.549h-88.902a20.48 20.48 0 0 1-20.713-18.851 488.73 488.73 0 0 0-36.538-144.06 1160.1 1160.1 0 0 0-62.604-122.18l-48.873 83.549-106.36-60.509zm-88.669 152.2 9.7745-16.756 106.36 60.509-10.007 16.756a30.953 30.953 0 0 1-41.891 10.938l-53.062-30.255a29.789 29.789 0 0 1-11.171-41.193zm-95.418 349.09a46.545 46.545 0 0 1-46.545 46.545h-7.2145a46.545 46.545 0 0 1-46.545-46.545v-205.96h100.31zm0-229h-100.31v-137.31a13.033 13.033 0 0 1 13.033-13.033h74.007a13.033 13.033 0 0 1 13.265 13.033zm528.06 273.69h-479.88a23.273 23.273 0 0 1-23.273-23.273v-3.4909a23.273 23.273 0 0 1 23.273-23.273h479.88a23.273 23.273 0 0 1 23.273 23.273v3.4909a23.273 23.273 0 0 1-23.273 23.273z" p-id="11731"/>
  <path d="m552.73 260.19a29.789 29.789 0 0 0-11.404-41.193 30.953 30.953 0 0 0-41.891 10.938 30.255 30.255 0 0 0 12.567 41.425 30.72 30.72 0 0 0 40.727-11.171zm187.58 240.41a11.636 11.636 0 0 0 11.404 10.473h1.3964a11.636 11.636 0 0 0 10.24-12.8c-13.731-125.91-102.4-237.85-106.12-242.27a12.102 12.102 0 0 0-16.524-1.6291 11.636 11.636 0 0 0-1.6291 16.291c0.93091 0.93091 88.204 110.08 101.24 229.93z" p-id="11732"/>
 </g>
</svg>
