<?xml version="1.0" encoding="UTF-8"?>
<svg width="64" height="64" version="1.1" viewBox="0 0 16.933 16.933" xmlns="http://www.w3.org/2000/svg" xmlns:cc="http://creativecommons.org/ns#" xmlns:dc="http://purl.org/dc/elements/1.1/" xmlns:rdf="http://www.w3.org/1999/02/22-rdf-syntax-ns#">
 <defs>
  <filter id="filter11290-36" x="-.024" y="-.024" width="1.048" height="1.048" color-interpolation-filters="sRGB">
   <feGaussianBlur stdDeviation="0.15875313"/>
  </filter>
  <linearGradient id="linearGradient1005-31" x1=".8714" x2="16.246" y1="16.164" y2=".78937" gradientTransform="matrix(1 0 0 1 -3.0212 .94206)" gradientUnits="userSpaceOnUse">
   <stop stop-color="#ffc841" offset="0"/>
   <stop stop-color="#ffc841" offset="1"/>
  </linearGradient>
 </defs>
 <metadata>
  <rdf:RDF>
   <cc:Work rdf:about="">
    <dc:format>image/svg+xml</dc:format>
    <dc:type rdf:resource="http://purl.org/dc/dcmitype/StillImage"/>
    <dc:title/>
   </cc:Work>
  </rdf:RDF>
 </metadata>
 <g transform="translate(2.986 -.93549)">
  <circle transform="matrix(1 0 0 1 -3.0132 .942)" cx="8.4937" cy="8.46" r="7.9377" filter="url(#filter11290-36)" opacity=".25" stroke-width=".14032"/>
  <path d="m13.418 9.4023c0 0.95155-0.16749 1.8639-0.47466 2.7093-0.21351 0.58769-0.4944 1.1433-0.83394 1.6572-0.14222 0.21608-0.29514 0.42476-0.45746 0.62529-0.51967 0.6418-1.1372 1.2007-1.8305 1.6543-0.2553 0.16718-0.52065 0.32009-0.79536 0.45712-1.0668 0.5339-2.2712 0.83423-3.5457 0.83423-1.2745 0-2.4789-0.30033-3.5457-0.83426-0.27474-0.13705-0.54041-0.28998-0.79571-0.45712-0.70207-0.45974-1.327-1.0274-1.8509-1.6798-0.16263-0.20216-0.31525-0.41275-0.45746-0.63079-0.33046-0.50541-0.60423-1.0507-0.81351-1.627-0.30713-0.84532-0.47432-1.7573-0.47432-2.7085 0-4.3839 3.5539-7.9378 7.9378-7.9378 2.2005 0 4.1918 0.89551 5.6295 2.3417 0.41436 0.41664 0.78274 0.87932 1.0963 1.3795 0.29647 0.47109 0.5443 0.97584 0.73705 1.5068 0.30718 0.84561 0.47469 1.7579 0.47469 2.7093z" fill="url(#linearGradient1005-31)" stroke-width=".031006"/>
  <path d="m10.772 9.4022c0-0.50957-1.1887-0.82492-1.338-1.2847-0.15475-0.47659 0.61608-1.4294 0.32742-1.8261-0.29157-0.40064-1.4379 0.039646-1.8386-0.25193-0.39667-0.2887-0.33047-1.5164-0.807-1.6711-0.45984-0.14928-1.126 0.87802-1.6355 0.87802-0.50957 0-1.1757-1.0273-1.6355-0.87798-0.47652 0.15475-0.41033 1.3824-0.807 1.6711-0.40064 0.29157-1.547-0.14871-1.8386 0.25193-0.2887 0.39667 0.48213 1.3495 0.32742 1.8261-0.14932 0.45981-1.338 0.77516-1.338 1.2847 0 0.50957 1.1887 0.82492 1.338 1.2847 0.15471 0.47656-0.61608 1.4294-0.32742 1.8261 0.29157 0.40061 1.4379-0.03965 1.8386 0.25193 0.39667 0.28873 0.33047 1.5164 0.807 1.6711 0.45981 0.14932 1.1259-0.87798 1.6355-0.87798 0.50957 0 1.1757 1.0273 1.6355 0.87798 0.47652-0.15471 0.41033-1.3824 0.80696-1.6711 0.40064-0.29157 1.547 0.14871 1.8386-0.25193 0.2887-0.39666-0.48213-1.3495-0.32742-1.8261 0.14935-0.45981 1.3381-0.77512 1.3381-1.2847zm-5.2917 3.5045c-1.9324 0-3.5045-1.5721-3.5045-3.5045s1.5721-3.5045 3.5045-3.5045c1.9324 0 3.5045 1.5721 3.5045 3.5045s-1.5721 3.5045-3.5045 3.5045z" fill="#fffffe" stroke-width=".035492"/>
  <path d="m5.4807 6.4656c-1.6192 0-2.9366 1.3173-2.9366 2.9366 0 1.6192 1.3173 2.9366 2.9366 2.9366 1.6193 0 2.9366-1.3173 2.9366-2.9366 0-1.6192-1.3173-2.9366-2.9366-2.9366zm0.89913 1.7713c0.15681 0 0.28394 0.12713 0.28394 0.28394 0 0.15684-0.12713 0.28394-0.28394 0.28394-0.15681 0-0.28394-0.1271-0.28394-0.28394 0-0.15681 0.12713-0.28394 0.28394-0.28394zm-1.7746 0c0.15681 0 0.28394 0.12713 0.28394 0.28394 0 0.15684-0.12713 0.28394-0.28394 0.28394-0.15681 0-0.28394-0.1271-0.28394-0.28394 0-0.15681 0.12713-0.28394 0.28394-0.28394zm2.5295 1.7946c-0.2191 0.62918-0.78769 1.0858-1.4486 1.1631-0.067365 0.0079-0.13466 0.01178-0.20156 0.01178-0.59812 0-1.1671-0.30907-1.4886-0.82251-0.069317-0.11067-0.12621-0.22921-0.16912-0.35237-0.051606-0.14808 0.026619-0.30992 0.17473-0.36156 0.14811-0.051677 0.30992 0.026584 0.36153 0.17473 0.028927 0.083053 0.067365 0.16305 0.11414 0.23777 0.2417 0.38595 0.6903 0.60078 1.1428 0.54811 0.44632-0.05228 0.83039-0.36071 0.97843-0.78588 0.051535-0.14808 0.21324-0.22637 0.36153-0.17477 0.14811 0.051606 0.22634 0.21349 0.17477 0.3616z" fill="#fffffe" stroke-width=".035492"/>
 </g>
</svg>
