<?xml version="1.0" encoding="UTF-8"?>
<svg width="64" height="64" version="1.1" viewBox="0 0 16.933 16.933" xmlns="http://www.w3.org/2000/svg" xmlns:cc="http://creativecommons.org/ns#" xmlns:dc="http://purl.org/dc/elements/1.1/" xmlns:rdf="http://www.w3.org/1999/02/22-rdf-syntax-ns#">
 <defs>
  <filter id="filter11290-06" x="-.024" y="-.024" width="1.048" height="1.048" color-interpolation-filters="sRGB">
   <feGaussianBlur stdDeviation="0.15875313"/>
  </filter>
  <linearGradient id="linearGradient1005-32" x1="1.0653" x2="13.339" y1="15.97" y2="3.6966" gradientTransform="matrix(1 0 0 1 2.5066 .8947)" gradientUnits="userSpaceOnUse">
   <stop stop-color="#ff7d1e" offset="0"/>
   <stop stop-color="#ffa53c" offset="1"/>
  </linearGradient>
 </defs>
 <metadata>
  <rdf:RDF>
   <cc:Work rdf:about="">
    <dc:format>image/svg+xml</dc:format>
    <dc:type rdf:resource="http://purl.org/dc/dcmitype/StillImage"/>
    <dc:title/>
   </cc:Work>
  </rdf:RDF>
 </metadata>
 <g transform="translate(-2.5419 -.88824)">
  <circle transform="matrix(1 0 0 1 2.5147 .89475)" cx="8.4937" cy="8.46" r="7.9377" filter="url(#filter11290-06)" opacity=".25" stroke-width=".14032"/>
  <path d="m18.946 9.3549c0 0.95155-0.1675 1.8639-0.47466 2.7093-0.21351 0.58769-0.4944 1.1433-0.83394 1.6572-0.14222 0.21608-0.29514 0.42476-0.45746 0.62529-0.51967 0.6418-1.1372 1.2007-1.8305 1.6543-0.2553 0.16718-0.52065 0.32009-0.79536 0.45712-1.0668 0.5339-2.2712 0.83423-3.5457 0.83423-1.2745 0-2.4789-0.30033-3.5457-0.83426-0.27474-0.13705-0.54041-0.28998-0.79571-0.45712-0.70207-0.45974-1.327-1.0274-1.8509-1.6798-0.16263-0.20216-0.31525-0.41275-0.45746-0.63079-0.33046-0.50541-0.60423-1.0507-0.81351-1.627-0.30713-0.84532-0.47432-1.7573-0.47432-2.7085 0-4.3839 3.5539-7.9378 7.9378-7.9378 2.2005 0 4.1918 0.89551 5.6295 2.3417 0.41436 0.41664 0.78274 0.87932 1.0963 1.3795 0.29647 0.47109 0.5443 0.97584 0.73705 1.5068 0.30718 0.84561 0.47469 1.7579 0.47469 2.7093z" fill="url(#linearGradient1005-32)" stroke-width=".031006"/>
  <path d="m10.881 5.1216c-0.23618 0.00879-0.366 0.08808-0.45061 0.25838-0.05429 0.10928-0.09865 0.29133-0.0987 0.40463-1.76e-4 0.41561-0.41979 0.79478-0.88006 0.79478-0.22583 0-0.34988-0.062167-0.80719-0.40463-0.20815-0.15588-0.33954-0.11534-0.66249 0.20257-0.30681 0.30207-0.31456 0.44672-0.042892 0.80719 0.11227 0.14901 0.22603 0.34761 0.2527 0.44183 0.065971 0.23299-0.042037 0.65947-0.21549 0.84905-0.14217 0.15539-0.49522 0.27646-0.80306 0.27646-0.29274 0-0.39791 0.16665-0.39791 0.62786 0 0.35915 0.01378 0.40817 0.13694 0.4899 0.075263 0.049982 0.29268 0.11321 0.48368 0.14056 0.19102 0.02735 0.41151 0.09199 0.48937 0.14366 0.16439 0.10912 0.35494 0.49964 0.35658 0.73123 0.0013 0.16812-0.1281 0.46538-0.26148 0.60047-0.14537 0.14725-0.25172 0.41524-0.21342 0.53742 0.049059 0.15656 0.38137 0.49133 0.55346 0.55758 0.098568 0.03797 0.17017 0.02691 0.26562-0.04082 0.27974-0.19847 0.75835-0.41394 0.91985-0.41394 0.24346 0 0.6473 0.21486 0.73586 0.39172 0.0417 0.0833 0.09368 0.27747 0.11576 0.43098 0.05353 0.3723 0.13813 0.5475 0.28009 0.57774 0.06453 0.01368 0.16838 0.0369 0.23048 0.05116 0.0621 0.01465 0.2019 0.01465 0.31057 0 0.28345-0.03806 0.43452-0.2494 0.48215-0.67437 0.04353-0.38857 0.07921-0.45109 0.36536-0.63407 0.29056-0.1858 0.518-0.22208 0.74155-0.11834 0.18535 0.08603 0.26027 0.13061 0.5643 0.33332 0.22276 0.14855 0.36158 0.124 0.61907-0.11162 0.38719-0.3543 0.395-0.50837 0.04806-0.91313-0.33023-0.38521-0.33398-0.85913-0.0093-1.2232 0.12434-0.1394 0.23582-0.18789 0.6041-0.26148 0.55605-0.1111 0.6464-0.20191 0.64802-0.6532 0.0016-0.45074-0.0701-0.5244-0.59222-0.60616-0.49681-0.077799-0.65588-0.19004-0.83045-0.58344-0.14514-0.3271-0.10509-0.5188 0.20464-0.9679 0.15883-0.23028 0.23789-0.39836 0.21963-0.46921-0.040826-0.15813-0.55547-0.62995-0.68731-0.62995-0.06105 0-0.22361 0.087921-0.36121 0.1943-0.37957 0.29353-0.60563 0.35983-0.93017 0.27284-0.38134-0.10215-0.51708-0.26322-0.61341-0.72864-0.11061-0.53451-0.18194-0.63071-0.49662-0.66662-0.10485-0.012049-0.19516-0.016883-0.2739-0.013951v-0.00103zm0.12764 2.6458a1.5875 1.5875 0 0 1 1.5875 1.5875 1.5875 1.5875 0 0 1-1.5875 1.5875 1.5875 1.5875 0 0 1-1.5875-1.5875 1.5875 1.5875 0 0 1 1.5875-1.5875z" fill="#fff" stroke-width=".26458"/>
 </g>
</svg>
