<?xml version="1.0" encoding="UTF-8"?>
<svg width="64" height="64" version="1.1" viewBox="0 0 16.933 16.933" xmlns="http://www.w3.org/2000/svg" xmlns:cc="http://creativecommons.org/ns#" xmlns:dc="http://purl.org/dc/elements/1.1/" xmlns:rdf="http://www.w3.org/1999/02/22-rdf-syntax-ns#">
 <defs>
  <filter id="filter11290-15" x="-.024" y="-.024" width="1.048" height="1.048" color-interpolation-filters="sRGB">
   <feGaussianBlur stdDeviation="0.15875313"/>
  </filter>
  <linearGradient id="linearGradient1005-4" x1="2.9667" x2="16.101" y1="14.069" y2=".93425" gradientTransform="matrix(1 0 0 1 -2.3598 1.6507)" gradientUnits="userSpaceOnUse">
   <stop stop-color="#ff7d50" offset="0"/>
   <stop stop-color="#fa4b5a" offset=".51596"/>
   <stop stop-color="#ff509b" offset="1"/>
  </linearGradient>
 </defs>
 <metadata>
  <rdf:RDF>
   <cc:Work rdf:about="">
    <dc:format>image/svg+xml</dc:format>
    <dc:type rdf:resource="http://purl.org/dc/dcmitype/StillImage"/>
    <dc:title/>
   </cc:Work>
  </rdf:RDF>
 </metadata>
 <g transform="translate(2.3246 -1.6442)">
  <circle transform="matrix(1 0 0 1 -2.3517 1.6507)" cx="8.4937" cy="8.46" r="7.9377" filter="url(#filter11290-15)" opacity=".25" stroke-width=".14032"/>
  <path d="m14.08 10.111c0 0.95155-0.16749 1.8639-0.47466 2.7093-0.21351 0.58769-0.4944 1.1433-0.83394 1.6572-0.14222 0.21608-0.29514 0.42476-0.45746 0.62529-0.51967 0.6418-1.1372 1.2007-1.8305 1.6543-0.2553 0.16718-0.52065 0.32009-0.79536 0.45712-1.0668 0.5339-2.2712 0.83423-3.5457 0.83423-1.2745 0-2.4789-0.30033-3.5457-0.83426-0.27474-0.13706-0.54041-0.28998-0.79571-0.45712-0.70207-0.45974-1.327-1.0274-1.8509-1.6798-0.16263-0.20216-0.31525-0.41275-0.45746-0.63079-0.33046-0.50541-0.60423-1.0507-0.81351-1.627-0.30713-0.84532-0.47432-1.7573-0.47432-2.7085 0-4.3839 3.5539-7.9378 7.9378-7.9378 2.2005 0 4.1918 0.89551 5.6295 2.3417 0.41436 0.41664 0.78274 0.87932 1.0963 1.3795 0.29646 0.47109 0.5443 0.97584 0.73705 1.5068 0.30718 0.84561 0.47469 1.7579 0.47469 2.7093z" fill="url(#linearGradient1005-4)" stroke-width=".031006"/>
  <path d="m1.9408 13.55 4.1098-7.5426 4.4072 8.1579s0.02542 0.06297-0.08931 0.03046c-0.10786-0.03069-0.20014-0.12114-0.31189-0.11152-0.094117 8e-3 -0.15022 0.14427-0.24342 0.12938-0.13327-0.0213-0.20151-0.27525-0.33639-0.27136-0.11885 0.0034-0.089537 0.23128-0.26701 0.24548-0.15732 0.01328-0.13167-0.41837-0.29014-0.43165-0.1074-0.0089-0.13144 0.44471-0.26472 0.44448-0.14106 0 0.00573-0.65263-0.19762-0.6634-0.15915-0.0085-0.071675 0.57272-0.21457 0.5734-0.19716 9.27e-4 -0.029769-0.95193-0.27296-0.94781-0.17289 0.0027 0.013052 0.88186-0.21205 0.87911-0.20724-0.0025-0.00756-1.3605-0.24022-1.344-0.1919 0.01351 0.023588 1.2146-0.18755 1.2196-0.25579 6e-3 -0.00114-1.673-0.2551-1.6751-0.22464-0.0021-0.023357 1.4853-0.22899 1.4853-0.25052 0 6.88e-4 -1.919-0.23747-1.9316-0.25922-0.01374 0.063431 1.9277-0.21915 1.9256-0.27273-0.0021 0.077858-2.4363-0.23815-2.4596-0.25876-0.01901 0.070759 2.2787-0.19487 2.2888-0.27892 0.01053 0.08427-2.6765-0.24571-2.6772-0.24159-6.88e-4 0.016947 2.5744-0.23335 2.6105-0.23128-0.05106 0.046257-2.8425-0.22396-2.8434-0.27892-9.26e-4 0.047173 2.7754-0.24159 2.7818-0.24205 0.0032 0.10282-2.7859-0.21503-2.7754-0.2922 0.0087 0.011221 2.764-0.22899 2.7594-0.25922-3e-3 0.066409-2.5487-0.22419-2.5327-0.22144 0.1145-0.00847 1.9691-0.22098 2.5581-0.23289-0.23128 0.016716-1.8233-0.24228-2.1035-0.21251 0.30594-0.046257 2.1422-0.21915 2.1491-0.21228 0.0103-0.010306-1.4406-0.23793-1.4543-0.13625-0.0082-0.20861 1.6435-0.37555 1.6499-0.19396 0.01947-0.17266-0.92903-0.30685-0.92605-0.15549 0.01992-0.11473 1.0378-0.31876 1.0403-0.11725 0.02794-0.14564-0.4012-0.25052-0.39112-0.094117 0.0089-0.11175 0.45135-0.26724 0.53104-0.14221 0.01924-0.073049-0.13556 0.037555-0.37715" color="#000000" fill="#fff" stroke-width=".1796"/>
 </g>
</svg>
