<?xml version="1.0" encoding="UTF-8"?>
<svg width="64" height="64" version="1.1" viewBox="0 0 64 64" xmlns="http://www.w3.org/2000/svg">
 <defs>
  <linearGradient id="linearGradient1033" x1="-52.866" x2="-26.859" y1="24.001" y2="24.001" gradientUnits="userSpaceOnUse">
   <stop stop-color="#427efd" offset="0"/>
   <stop stop-color="#fd417c" offset="1"/>
  </linearGradient>
  <filter id="filter11290" x="-.024" y="-.024" width="1.048" height="1.048" color-interpolation-filters="sRGB">
   <feGaussianBlur stdDeviation="0.15875313"/>
  </filter>
  <linearGradient id="linearGradient1005" x1=".73911" x2="16.388" y1="16.296" y2=".64687" gradientTransform="matrix(3.7796 0 0 3.7796 -.13181 .025075)" gradientUnits="userSpaceOnUse">
   <stop stop-color="#dddfe1" offset="0"/>
   <stop stop-color="#f3f4f6" offset="1"/>
  </linearGradient>
 </defs>
 <circle transform="matrix(3.7796 0 0 3.7796 -1.3999e-6 -1.3999e-6)" cx="8.4665" cy="8.4665" r="7.9377" filter="url(#filter11290)" opacity=".25" stroke-width=".14032"/>
 <path d="m62 32c0 3.5964-0.63304 7.0448-1.794 10.24-0.80698 2.2212-1.8686 4.3212-3.1519 6.2636-0.53754 0.8167-1.1155 1.6054-1.729 2.3633-1.9641 2.4257-4.2982 4.5382-6.9186 6.2526-0.96493 0.63187-1.9678 1.2099-3.0061 1.7277-4.0321 2.0179-8.5839 3.153-13.401 3.153s-9.3689-1.1351-13.401-3.1531c-1.0384-0.518-2.0425-1.096-3.0074-1.7277-2.6535-1.7376-5.0155-3.8832-6.9957-6.349-0.61468-0.76408-1.1915-1.56-1.729-2.3841-1.249-1.9102-2.2837-3.9712-3.0747-6.1494-1.1608-3.1949-1.7927-6.6419-1.7927-10.237 0-16.569 13.432-30.001 30.001-30.001 8.317 0 15.843 3.3846 21.277 8.8507 1.5661 1.5747 2.9584 3.3234 4.1436 5.214 1.1205 1.7805 2.0572 3.6882 2.7857 5.6951 1.161 3.196 1.7941 6.6442 1.7941 10.24z" fill="url(#linearGradient1005)" stroke-width=".11719"/>
 <g transform="matrix(1.3458 0 0 1.3458 85.647 -.30034)" fill="url(#linearGradient1033)">
  <path d="m-29.305 19.613c-1.828-4.02-5.922-6.613-10.531-6.613-4.715 0-9.03 2.832-10.73 7.04l3.578 1.324c1.133-2.809 4.01-4.688 7.152-4.688 3.035 0 5.719 1.68 6.961 4.301l-2.609 1 6.672 3.688 1.953-6.977"/>
  <path d="m-39.834 31.33c-3.01 0-5.75-1.727-6.977-4.344l2.563-0.945-6.598-3.602-2.02 6.793 2.461-0.91c1.793 4.01 5.98 6.68 10.562 6.68 4.734 0 8.922-2.719 10.688-6.926l-3.566-1.355c-1.168 2.809-3.965 4.621-7.121 4.621"/>
 </g>
</svg>
