<?xml version="1.0" encoding="UTF-8"?>
<svg width="64" height="64" version="1.1" xmlns="http://www.w3.org/2000/svg" xmlns:cc="http://creativecommons.org/ns#" xmlns:dc="http://purl.org/dc/elements/1.1/" xmlns:rdf="http://www.w3.org/1999/02/22-rdf-syntax-ns#" xmlns:xlink="http://www.w3.org/1999/xlink">
 <metadata>
  <rdf:RDF>
   <cc:Work rdf:about="">
    <dc:format>image/svg+xml</dc:format>
    <dc:type rdf:resource="http://purl.org/dc/dcmitype/StillImage"/>
    <dc:title/>
   </cc:Work>
  </rdf:RDF>
 </metadata>
 <defs>
  <filter id="filter985" x="-.059096" y="-.060921" width="1.1182" height="1.1218" color-interpolation-filters="sRGB">
   <feGaussianBlur stdDeviation="0.21619832"/>
  </filter>
  <filter id="filter1015" x="-.084" y="-.084" width="1.168" height="1.168" color-interpolation-filters="sRGB">
   <feGaussianBlur stdDeviation="0.3089756"/>
  </filter>
  <linearGradient id="linearGradient1025" x1="7.9876" x2="12.91" y1="7.7203" y2="12.495" gradientUnits="userSpaceOnUse">
   <stop stop-color="#fafaff" offset="0"/>
   <stop stop-color="#a1d8ff" offset="1"/>
  </linearGradient>
  <linearGradient id="linearGradient942" x1="7.9876" x2="12.91" y1="7.7203" y2="12.495" gradientUnits="userSpaceOnUse" xlink:href="#linearGradient1025"/>
  <linearGradient id="linearGradient868" x1="80.51" x2="76.003" y1="10.784" y2="36.576" gradientTransform="matrix(1.1238 0 0 1.1238 -38.794 6.6035)" gradientUnits="userSpaceOnUse" xlink:href="#linearGradient1025"/>
  <filter id="filter878" x="-.20005" y="-.053161" width="1.4001" height="1.1063" color-interpolation-filters="sRGB">
   <feGaussianBlur stdDeviation="0.57393035"/>
  </filter>
  <filter id="filter11290" x="-.024" y="-.024" width="1.048" height="1.048" color-interpolation-filters="sRGB">
   <feGaussianBlur stdDeviation="0.15875313"/>
  </filter>
  <linearGradient id="linearGradient1005" x1=".8714" x2="16.246" y1="16.164" y2=".78937" gradientTransform="matrix(3.7796 0 0 3.7796 -.13342 .024566)" gradientUnits="userSpaceOnUse">
   <stop stop-color="#00c8ff" offset="0"/>
   <stop stop-color="#14a0ff" offset="1"/>
  </linearGradient>
 </defs>
 <circle transform="scale(3.7796)" cx="8.4665" cy="8.4665" r="7.9377" filter="url(#filter11290)" opacity=".25" stroke-width=".14032"/>
 <path d="m62 32c0 3.5964-0.63304 7.0448-1.794 10.24-0.80698 2.2212-1.8686 4.3212-3.1519 6.2636-0.53754 0.8167-1.1155 1.6054-1.729 2.3633-1.9641 2.4257-4.2982 4.5382-6.9186 6.2526-0.96493 0.63187-1.9678 1.2099-3.0062 1.7277-4.0321 2.0179-8.5838 3.153-13.401 3.153s-9.3689-1.1351-13.401-3.1531c-1.0384-0.518-2.0425-1.096-3.0074-1.7277-2.6535-1.7376-5.0155-3.8832-6.9957-6.349-0.61468-0.76408-1.1915-1.56-1.729-2.3841-1.249-1.9102-2.2837-3.9712-3.0747-6.1494-1.1608-3.1949-1.7927-6.6419-1.7927-10.237 0-16.569 13.432-30.001 30.001-30.001 8.317 0 15.843 3.3846 21.277 8.8507 1.5661 1.5747 2.9584 3.3234 4.1436 5.214 1.1205 1.7805 2.0572 3.6882 2.7857 5.6951 1.161 3.196 1.7941 6.6442 1.7941 10.24z" fill="url(#linearGradient1005)" stroke-width=".11719"/>
 <circle transform="matrix(3.2799 0 0 3.2799 .084028 6.251)" cx="8.4674" cy="8.326" r="4.4139" fill="#1496ff" filter="url(#filter1015)"/>
 <g transform="matrix(3.2799 0 0 3.2799 -.70455 5.292)">
  <path d="m13.048 7.8742a2.6848 5.7985 52.956 0 1-0.18913 0.32349 2.6848 5.7985 52.956 0 1-0.27698 0.40824 2.6848 5.7985 52.956 0 1-0.31625 0.40927 2.6848 5.7985 52.956 0 1-0.35191 0.4072 2.6848 5.7985 52.956 0 1-0.38395 0.39997 2.6848 5.7985 52.956 0 1-0.41289 0.38912 2.6848 5.7985 52.956 0 1-0.43666 0.37465 2.6848 5.7985 52.956 0 1-0.32194 0.25424 2.6848 5.7985 52.956 0 1-0.46818 0.34106 2.6848 5.7985 52.956 0 1-0.48058 0.31677 2.6848 5.7985 52.956 0 1-0.48782 0.28887 2.6848 5.7985 52.956 0 1-0.48988 0.25838 2.6848 5.7985 52.956 0 1-0.4873 0.22582 2.6848 5.7985 52.956 0 1-0.48058 0.19068 2.6848 5.7985 52.956 0 1-0.3979 0.13022 4.4139 4.4139 0 0 0 1.6159 0.31057 4.4139 4.4139 0 0 0 4.4136-4.4141 4.4139 4.4139 0 0 0-0.04754-0.61442z" fill="#fff" opacity=".55"/>
  <path transform="matrix(.93108 0 0 .94458 .98435 .77737)" d="m8.6817 4.075a4.4139 4.4139 0 0 0-4.4141 4.4136 4.4139 4.4139 0 0 0 0.11989 0.99889 4.4139 4.4139 0 0 0 2.6783 3.1047 2.6848 5.7985 52.956 0 0 0.3979-0.13022 2.6848 5.7985 52.956 0 0 0.48058-0.19068 2.6848 5.7985 52.956 0 0 0.4873-0.22582 2.6848 5.7985 52.956 0 0 0.48988-0.25838 2.6848 5.7985 52.956 0 0 0.48782-0.28887 2.6848 5.7985 52.956 0 0 0.48058-0.31677 2.6848 5.7985 52.956 0 0 0.46818-0.34106 2.6848 5.7985 52.956 0 0 0.32194-0.25424 2.6848 5.7985 52.956 0 0 0.43666-0.37465 2.6848 5.7985 52.956 0 0 0.41289-0.38912 2.6848 5.7985 52.956 0 0 0.38395-0.39997 2.6848 5.7985 52.956 0 0 0.35191-0.4072 2.6848 5.7985 52.956 0 0 0.31625-0.40927 2.6848 5.7985 52.956 0 0 0.27698-0.40824 2.6848 5.7985 52.956 0 0 0.18913-0.32349 4.4139 4.4139 0 0 0-2.0665-3.147 4.4139 4.4139 0 0 0-2.2996-0.65214z" fill="#0096ff" filter="url(#filter985)" opacity=".25"/>
  <path d="m8.6817 4.075a4.4139 4.4139 0 0 0-4.4141 4.4136 4.4139 4.4139 0 0 0 0.11989 0.99889 4.4139 4.4139 0 0 0 2.6783 3.1047 2.6848 5.7985 52.956 0 0 0.3979-0.13022 2.6848 5.7985 52.956 0 0 0.48058-0.19068 2.6848 5.7985 52.956 0 0 0.4873-0.22582 2.6848 5.7985 52.956 0 0 0.48988-0.25838 2.6848 5.7985 52.956 0 0 0.48782-0.28887 2.6848 5.7985 52.956 0 0 0.48058-0.31677 2.6848 5.7985 52.956 0 0 0.46818-0.34106 2.6848 5.7985 52.956 0 0 0.32194-0.25424 2.6848 5.7985 52.956 0 0 0.43666-0.37465 2.6848 5.7985 52.956 0 0 0.41289-0.38912 2.6848 5.7985 52.956 0 0 0.38395-0.39997 2.6848 5.7985 52.956 0 0 0.35191-0.4072 2.6848 5.7985 52.956 0 0 0.31625-0.40927 2.6848 5.7985 52.956 0 0 0.27698-0.40824 2.6848 5.7985 52.956 0 0 0.18913-0.32349 4.4139 4.4139 0 0 0-2.0665-3.147 4.4139 4.4139 0 0 0-2.2996-0.65214z" fill="url(#linearGradient942)"/>
  <path d="m13.039 7.8737a2.6848 5.7985 52.956 0 0 0.2408-2.6515 2.6848 5.7985 52.956 0 0-2.3083-0.49505 4.4139 4.4139 0 0 1 0.19327 0.11885 4.4139 4.4139 0 0 1 0.35139 0.26665 4.4139 4.4139 0 0 1 0.32297 0.30075 4.4139 4.4139 0 0 1 0.29093 0.33176 4.4139 4.4139 0 0 1 0.25683 0.35863 4.4139 4.4139 0 0 1 0.21962 0.38292 4.4139 4.4139 0 0 1 0.18035 0.40255 4.4139 4.4139 0 0 1 0.13901 0.41857 4.4139 4.4139 0 0 1 0.09663 0.43046 4.4139 4.4139 0 0 1 0.01654 0.13539z" fill="#fff" opacity=".55"/>
  <path d="m4.4055 9.4875a2.6848 5.7985 52.956 0 0-0.31315 2.7755 2.6848 5.7985 52.956 0 0 2.9915 0.32917 4.4139 4.4139 0 0 1-0.10335-0.03772 4.4139 4.4139 0 0 1-0.39739-0.19223 4.4139 4.4139 0 0 1-0.37568-0.23047 4.4139 4.4139 0 0 1-0.35139-0.26716 4.4139 4.4139 0 0 1-0.32297-0.30075 4.4139 4.4139 0 0 1-0.29093-0.33124 4.4139 4.4139 0 0 1-0.25683-0.35914 4.4139 4.4139 0 0 1-0.21962-0.3824 4.4139 4.4139 0 0 1-0.18035-0.40307 4.4139 4.4139 0 0 1-0.13901-0.41857 4.4139 4.4139 0 0 1-0.04082-0.1819z" fill="#fff" opacity=".55"/>
 </g>
 <g transform="matrix(1.1238 0 0 1.1238 -5.5009 -6.0026)" fill="#1496ff" filter="url(#filter878)" style="font-feature-settings:normal;font-variant-caps:normal;font-variant-ligatures:normal;font-variant-numeric:normal" aria-label="!">
  <path d="m51.938 23.583-2.8657 17.274q-0.199 1.1144-1.6716 1.2736-0.99502 0-1.1542-1.5124l2.9055-17.353q0.0796-1.2736 1.592-1.2736 1.194 0 1.194 1.592zm-3.3831 22.488q0 0.87562-0.43781 1.3532-0.55721 0.47761-1.3134 0.47761t-1.2736-0.55721q-0.47761-0.51741-0.47761-1.2736 0-1.8706 1.7512-1.8706 0.71642 0 1.2338 0.47761 0.51741 0.47761 0.51741 1.393z" fill="#1496ff"/>
 </g>
 <g fill="url(#linearGradient868)" style="font-feature-settings:normal;font-variant-caps:normal;font-variant-ligatures:normal;font-variant-numeric:normal" aria-label="!">
  <path d="m52.864 20.498-3.2203 19.411q-0.22363 1.2523-1.8785 1.4313-1.1182 0-1.2971-1.6996l3.265-19.501q0.08945-1.4313 1.7891-1.4313 1.3418 0 1.3418 1.7891zm-3.8018 25.271q0 0.98399-0.49199 1.5207-0.62617 0.53672-1.476 0.53672t-1.4313-0.62617q-0.53672-0.58145-0.53672-1.4313 0-2.1022 1.968-2.1022 0.80508 0 1.3865 0.53672 0.58145 0.53672 0.58145 1.5654z" fill="url(#linearGradient868)" stroke-width="1.1238"/>
 </g>
 <g transform="matrix(3.7796 0 0 3.7796 112.71 -15.433)" fill="#5e4aa6" stroke-width=".26458">
  <circle cx="-330.35" cy="-328.38" r="0"/>
  <circle cx="-312.11" cy="-326.25" r="0"/>
  <circle cx="-306.02" cy="-333.07" r="0"/>
  <circle cx="-308.84" cy="-326.01" r="0"/>
 </g>
</svg>
