<?xml version="1.0" encoding="UTF-8"?>
<svg width="64" height="64" version="1.1" viewBox="0 0 16.933 16.933" xmlns="http://www.w3.org/2000/svg" xmlns:cc="http://creativecommons.org/ns#" xmlns:dc="http://purl.org/dc/elements/1.1/" xmlns:rdf="http://www.w3.org/1999/02/22-rdf-syntax-ns#" xmlns:xlink="http://www.w3.org/1999/xlink">
 <defs>
  <filter id="filter11290-62" x="-.024" y="-.024" width="1.048" height="1.048" color-interpolation-filters="sRGB">
   <feGaussianBlur stdDeviation="0.15875313"/>
  </filter>
  <linearGradient id="linearGradient1005-61" x1=".73911" x2="16.388" y1="16.296" y2=".64687" gradientTransform="matrix(1 0 0 1 1.5619 -.38097)" gradientUnits="userSpaceOnUse">
   <stop stop-color="#dc2828" offset="0"/>
   <stop stop-color="#ff4141" offset="1"/>
  </linearGradient>
  <linearGradient id="c" x1="11" x2="11.326" y1="1030.9" y2="1056.2" gradientTransform="matrix(.49979 0 0 -.49979 4.5659 528.62)" gradientUnits="userSpaceOnUse">
   <stop stop-color="#c52828" offset="0"/>
   <stop stop-color="#ff5454" offset="1"/>
  </linearGradient>
 </defs>
 <metadata>
  <rdf:RDF>
   <cc:Work rdf:about="">
    <dc:format>image/svg+xml</dc:format>
    <dc:type rdf:resource="http://purl.org/dc/dcmitype/StillImage"/>
    <dc:title/>
   </cc:Work>
  </rdf:RDF>
 </metadata>
 <g transform="translate(-1.5969 .38743)">
  <circle transform="matrix(1 0 0 1 1.597 -.38742)" cx="8.4665" cy="8.4665" r="7.9377" filter="url(#filter11290-62)" opacity=".25" stroke-width=".14032"/>
  <path d="m18.001 8.0791c0 0.95156-0.16749 1.8639-0.47465 2.7095-0.21351 0.58769-0.4944 1.1433-0.83395 1.6572-0.14222 0.21608-0.29515 0.42476-0.45747 0.6253-0.51967 0.6418-1.1372 1.2007-1.8305 1.6543-0.2553 0.16718-0.52066 0.32011-0.79538 0.45713-1.0668 0.5339-2.2711 0.83423-3.5457 0.83423-1.2745 0-2.4788-0.30033-3.5457-0.83426-0.27475-0.13705-0.54041-0.28998-0.79572-0.45713-0.70208-0.45974-1.327-1.0274-1.8509-1.6798-0.16263-0.20216-0.31525-0.41276-0.45747-0.63079-0.33047-0.50541-0.60422-1.0507-0.81352-1.627-0.30712-0.84531-0.47431-1.7573-0.47431-2.7086 0-4.3839 3.5538-7.9377 7.9377-7.9377 2.2005 0 4.1918 0.8955 5.6296 2.3417 0.41437 0.41663 0.78276 0.87931 1.0963 1.3795 0.29646 0.47108 0.54429 0.97584 0.73705 1.5068 0.30719 0.84561 0.47468 1.7579 0.47468 2.7095z" fill="url(#linearGradient1005-61)" stroke-width=".031006"/>
  <g fill="#fff" fill-opacity=".84677" stroke-width=".49979">
   <path d="m12.181 7.5016-1.9148 1.2813-5.03e-4 1.9441c-3.7e-4 1.0693 0.0045 1.9442 0.01079 1.9442 0.0063 0 0.8708-0.57471 1.9211-1.2772l1.9096-1.2772v-1.9498c0-1.0724-0.0025-1.9491-0.0057-1.9482-3e-3 0-0.86733 0.57811-1.9204 1.2828z" opacity=".98693"/>
   <path d="m6.0089 8.114v1.9786l1.9174 1.2737c1.0546 0.70051 1.9226 1.2737 1.9289 1.2737 0.00635 0 0.011496-0.88933 0.011496-1.9763v-1.9762l-1.9161-1.276c-1.0539-0.70181-1.9219-1.276-1.9289-1.276-0.00705 0-0.012795 0.89033-0.012795 1.9786z" opacity=".98693"/>
   <path d="m8.1784 4.5372c-1.0275 0.68696-1.8771 1.2577-1.8881 1.2683-0.02214 0.021492 3.7609 2.5736 3.8182 2.576 0.04213 0 3.7614-2.487 3.7539-2.5119-0.0035-0.011496-3.4831-2.3657-3.803-2.573-0.0071-5e-3 -0.85357 0.55372-1.881 1.2407z" opacity=".98693"/>
  </g>
  <path d="m9.6732 13.127-4.1077-2.7332v-4.6075c0.57417-0.37569 0.111-0.07212 0.37484-0.2499l3.6703-2.4521c0.44749-0.29798 4e-3 0 0.45294-0.29678 4.01 2.661 3.0256 2.0061 4.1858 2.7801 0.31567 0.2307 0.05857 0.04748 0.31237 0.2343v4.5917c-1.1614 0.77303-0.16988 0.11325-0.28113 0.18742l-3.8265 2.5458-0.20304 0.12495c-0.14132 0.09096 0.61143-0.39524-0.18742 0.1191-0.3706-0.2352-0.0033 0-0.39046-0.24405zm0.14057-0.51538v-3.8734l-0.031237-0.04698-0.10933-0.062474-3.6079-2.4051v3.889zm0.49979 0 3.7484-2.499v-3.8109l-3.7484 2.499zm-0.18742-4.2951 3.6547-2.4365-3.7172-2.4833-3.6703 2.4365 3.561 2.374z" fill="url(#c)" opacity=".98693" stroke-width=".49979"/>
 </g>
</svg>
