<?xml version="1.0" encoding="UTF-8" standalone="no"?>
<svg
   xmlns:dc="http://purl.org/dc/elements/1.1/"
   xmlns:cc="http://creativecommons.org/ns#"
   xmlns:rdf="http://www.w3.org/1999/02/22-rdf-syntax-ns#"
   xmlns:svg="http://www.w3.org/2000/svg"
   xmlns="http://www.w3.org/2000/svg"
   xmlns:sodipodi="http://sodipodi.sourceforge.net/DTD/sodipodi-0.dtd"
   xmlns:inkscape="http://www.inkscape.org/namespaces/inkscape"
   width="64"
   height="64"
   version="1.1"
   viewBox="0 0 64 64"
   id="svg22"
   sodipodi:docname="assistant-qt4.svg"
   inkscape:version="1.0.1 (3bc2e813f5, 2020-09-07)">
  <metadata
     id="metadata26">
    <rdf:RDF>
      <cc:Work
         rdf:about="">
        <dc:format>image/svg+xml</dc:format>
        <dc:type
           rdf:resource="http://purl.org/dc/dcmitype/StillImage" />
        <dc:title></dc:title>
      </cc:Work>
    </rdf:RDF>
  </metadata>
  <sodipodi:namedview
     pagecolor="#ffffff"
     bordercolor="#666666"
     borderopacity="1"
     objecttolerance="10"
     gridtolerance="10"
     guidetolerance="10"
     inkscape:pageopacity="0"
     inkscape:pageshadow="2"
     inkscape:window-width="1920"
     inkscape:window-height="998"
     id="namedview24"
     showgrid="false"
     inkscape:zoom="4.5906698"
     inkscape:cx="13.405998"
     inkscape:cy="34.816988"
     inkscape:window-x="0"
     inkscape:window-y="0"
     inkscape:window-maximized="1"
     inkscape:current-layer="svg22"
     inkscape:document-rotation="0" />
  <defs
     id="defs12">
    <linearGradient
       id="c"
       x1="32"
       x2="32"
       y1="16.002"
       y2="47.998"
       gradientUnits="userSpaceOnUse">
      <stop
         stop-color="#fff"
         offset="0"
         id="stop2" />
      <stop
         stop-color="#daffd8"
         offset="1"
         id="stop4" />
    </linearGradient>
    <linearGradient
       id="linearGradient862-3"
       x1="7.9373"
       x2="7.9373"
       y1="15.081"
       y2="1.852"
       gradientTransform="scale(3.7796)"
       gradientUnits="userSpaceOnUse">
      <stop
         stop-color="#4ab203"
         offset="0"
         id="stop7" />
      <stop
         stop-color="#89d754"
         offset="1"
         id="stop9" />
    </linearGradient>
    <style
       type="text/css"
       id="style4" />
    <style
       type="text/css"
       id="style6" />
    <style
       type="text/css"
       id="style8" />
    <style
       type="text/css"
       id="style10" />
    <style
       type="text/css"
       id="style12" />
    <style
       type="text/css"
       id="style14" />
    <style
       type="text/css"
       id="style16" />
    <filter
       id="filter2761"
       x="-.024"
       y="-.024"
       width="1.048"
       height="1.048"
       color-interpolation-filters="sRGB">
      <feGaussianBlur
         stdDeviation="0.14552168"
         id="feGaussianBlur18" />
    </filter>
    <linearGradient
       id="linearGradient1024-6"
       x1="1.3315"
       x2="15.65"
       y1="15.576"
       y2="1.17"
       gradientTransform="matrix(3.7796 0 0 3.7796 -.0014947 .53032)"
       gradientUnits="userSpaceOnUse">
      <stop
         stop-color="#00dc96"
         offset="0"
         id="stop21" />
      <stop
         stop-color="#14d29b"
         offset="1"
         id="stop23" />
    </linearGradient>
    <style
       id="style4-6"
       type="text/css" />
    <style
       id="style6-7"
       type="text/css" />
    <style
       id="style8-5"
       type="text/css" />
    <filter
       color-interpolation-filters="sRGB"
       height="1.048"
       width="1.048"
       y="-.024"
       x="-.024"
       id="filter2761-35">
      <feGaussianBlur
         id="feGaussianBlur10"
         stdDeviation="0.14552168" />
    </filter>
    <linearGradient
       gradientUnits="userSpaceOnUse"
       gradientTransform="matrix(3.7796,0,0,3.7796,111.78704,0.53107)"
       y2="1.17"
       y1="15.576"
       x2="15.65"
       x1="1.3315"
       id="linearGradient1024-6-62">
      <stop
         id="stop13"
         offset="0"
         stop-color="#00dc96" />
      <stop
         id="stop15"
         offset="1"
         stop-color="#14d29b" />
    </linearGradient>
    <linearGradient
       gradientUnits="userSpaceOnUse"
       gradientTransform="matrix(0.27476,0,0,0.27476,-24.952118,-0.32515)"
       y2="12.461"
       y1="57.955"
       x2="45.628"
       x1="45.628"
       id="b">
      <stop
         id="stop2-3"
         offset="0" />
      <stop
         id="stop4-6"
         offset="1"
         stop-opacity="0" />
    </linearGradient>
    <style
       type="text/css"
       id="style872" />
    <style
       type="text/css"
       id="style874" />
    <style
       type="text/css"
       id="style876" />
    <filter
       id="filter2761-3"
       x="-.024"
       y="-.024"
       width="1.048"
       height="1.048"
       color-interpolation-filters="sRGB">
      <feGaussianBlur
         stdDeviation="0.14552168"
         id="feGaussianBlur878" />
    </filter>
    <linearGradient
       id="linearGradient1024-6-6"
       x1="1.3315"
       x2="15.65"
       y1="15.576"
       y2="1.17"
       gradientTransform="matrix(3.7796,0,0,3.7796,-0.0020773,0.53047)"
       gradientUnits="userSpaceOnUse">
      <stop
         stop-color="#00dc96"
         offset="0"
         id="stop881" />
      <stop
         stop-color="#14d29b"
         offset="1"
         id="stop883" />
    </linearGradient>
    <style
       type="text/css"
       id="style924" />
    <style
       type="text/css"
       id="style926" />
    <style
       type="text/css"
       id="style928" />
    <style
       type="text/css"
       id="style930" />
    <style
       type="text/css"
       id="style932" />
    <style
       type="text/css"
       id="style934" />
    <style
       type="text/css"
       id="style936" />
    <style
       type="text/css"
       id="style938" />
    <style
       type="text/css"
       id="style940" />
    <style
       type="text/css"
       id="style942" />
    <style
       type="text/css"
       id="style944" />
    <filter
       id="filter11290"
       x="-.024"
       y="-.024"
       width="1.048"
       height="1.048"
       color-interpolation-filters="sRGB">
      <feGaussianBlur
         stdDeviation="0.15875313"
         id="feGaussianBlur946" />
    </filter>
    <linearGradient
       id="linearGradient1005"
       x1=".73911"
       x2="16.388"
       y1="16.296"
       y2=".64687"
       gradientTransform="matrix(3.7796,0,0,3.7796,-0.13249,0.024378)"
       gradientUnits="userSpaceOnUse">
      <stop
         stop-color="#00dc96"
         offset="0"
         id="stop949" />
      <stop
         stop-color="#14d29b"
         offset="1"
         id="stop951" />
    </linearGradient>
  </defs>
  <g
     id="g1132"
     transform="translate(1.6203648e-5,1.6203648e-5)">
    <g
       transform="matrix(3.7796,0,0,3.7796,86.509,6.5083)"
       fill="#5e4aa6"
       stroke-width="0.26458"
       id="g986">
      <g
         transform="translate(-0.0272,0.0065001)"
         id="g964">
        <circle
           cx="-330.35001"
           cy="-328.38"
           r="0"
           id="circle956" />
        <circle
           cx="-312.10999"
           cy="-326.25"
           r="0"
           id="circle958" />
        <circle
           cx="-306.01999"
           cy="-333.07001"
           r="0"
           id="circle960" />
        <circle
           cx="-308.84"
           cy="-326.01001"
           r="0"
           id="circle962" />
      </g>
      <g
         transform="translate(-0.0272,0.0065001)"
         id="g974">
        <circle
           cx="-330.35001"
           cy="-328.38"
           r="0"
           id="circle966" />
        <circle
           cx="-312.10999"
           cy="-326.25"
           r="0"
           id="circle968" />
        <circle
           cx="-306.01999"
           cy="-333.07001"
           r="0"
           id="circle970" />
        <circle
           cx="-308.84"
           cy="-326.01001"
           r="0"
           id="circle972" />
      </g>
      <g
         transform="translate(-0.02705,0.0064503)"
         id="g984">
        <circle
           cx="-330.35001"
           cy="-328.38"
           r="0"
           id="circle976" />
        <circle
           cx="-312.10999"
           cy="-326.25"
           r="0"
           id="circle978" />
        <circle
           cx="-306.01999"
           cy="-333.07001"
           r="0"
           id="circle980" />
        <circle
           cx="-308.84"
           cy="-326.01001"
           r="0"
           id="circle982" />
      </g>
    </g>
    <g
       transform="matrix(3.7796,0,0,3.7796,-0.10224,0.02438)"
       fill="#5e4aa6"
       stroke-width="0.26458"
       id="g996">
      <circle
         cx="-330.35001"
         cy="-328.38"
         r="0"
         id="circle988" />
      <circle
         cx="-312.10999"
         cy="-326.25"
         r="0"
         id="circle990" />
      <circle
         cx="-306.01999"
         cy="-333.07001"
         r="0"
         id="circle992" />
      <circle
         cx="-308.84"
         cy="-326.01001"
         r="0"
         id="circle994" />
    </g>
    <circle
       transform="scale(3.7796)"
       cx="8.4665003"
       cy="8.4665003"
       r="7.9376998"
       filter="url(#filter11290)"
       opacity="0.25"
       stroke-width="0.14032"
       id="circle998" />
    <path
       d="m 62.001,32 c 0,3.5964 -0.63304,7.0448 -1.794,10.24 -0.80698,2.2212 -1.8686,4.3212 -3.1519,6.2636 -0.53754,0.8167 -1.1155,1.6054 -1.729,2.3633 -1.9641,2.4257 -4.2982,4.5382 -6.9186,6.2526 -0.96493,0.63187 -1.9678,1.2099 -3.0061,1.7277 -4.0321,2.0179 -8.5839,3.153 -13.401,3.153 -4.8171,0 -9.3689,-1.1351 -13.401,-3.1531 C 17.561,58.3291 16.5569,57.7511 15.592,57.1194 12.9385,55.3818 10.5765,53.2362 8.5963,50.7704 7.98162,50.00632 7.4048,49.2104 6.8673,48.3863 5.6183,46.4761 4.5836,44.4151 3.7926,42.2369 2.6318,39.042 1.9999,35.595 1.9999,31.9999 c 0,-16.569 13.432,-30.001 30.001,-30.001 8.317,0 15.843,3.3846 21.277,8.8507 1.5661,1.5747 2.9584,3.3234 4.1436,5.214 1.1205,1.7805 2.0572,3.6882 2.7857,5.6951 1.161,3.196 1.7941,6.6442 1.7941,10.24 z"
       fill="url(#linearGradient1005)"
       stroke-width="0.11719"
       id="path1000"
       style="fill:url(#linearGradient1005)" />
    <g
       transform="matrix(3.7796,0,0,3.7796,-0.10281,0.024568)"
       fill="#5e4aa6"
       stroke-width="0.26458"
       id="g1010">
      <circle
         cx="-330.35001"
         cy="-328.38"
         r="0"
         id="circle1002" />
      <circle
         cx="-312.10999"
         cy="-326.25"
         r="0"
         id="circle1004" />
      <circle
         cx="-306.01999"
         cy="-333.07001"
         r="0"
         id="circle1006" />
      <circle
         cx="-308.84"
         cy="-326.01001"
         r="0"
         id="circle1008" />
    </g>
    <g
       fill="#5e4aa6"
       id="g1048">
      <circle
         cx="-1248.7"
         cy="-1241.6"
         r="0"
         id="circle1012" />
      <circle
         cx="-149.14999"
         cy="23.855"
         r="0"
         fill-rule="evenodd"
         id="circle1014" />
      <g
         transform="matrix(3.7796,0,0,3.7796,86.508,6.5083)"
         stroke-width="0.26458"
         id="g1046">
        <g
           transform="translate(-0.0272,0.0065001)"
           id="g1024">
          <circle
             cx="-330.35001"
             cy="-328.38"
             r="0"
             id="circle1016" />
          <circle
             cx="-312.10999"
             cy="-326.25"
             r="0"
             id="circle1018" />
          <circle
             cx="-306.01999"
             cy="-333.07001"
             r="0"
             id="circle1020" />
          <circle
             cx="-308.84"
             cy="-326.01001"
             r="0"
             id="circle1022" />
        </g>
        <g
           transform="translate(-0.0272,0.0065001)"
           id="g1034">
          <circle
             cx="-330.35001"
             cy="-328.38"
             r="0"
             id="circle1026" />
          <circle
             cx="-312.10999"
             cy="-326.25"
             r="0"
             id="circle1028" />
          <circle
             cx="-306.01999"
             cy="-333.07001"
             r="0"
             id="circle1030" />
          <circle
             cx="-308.84"
             cy="-326.01001"
             r="0"
             id="circle1032" />
        </g>
        <g
           transform="translate(-0.02705,0.0064503)"
           id="g1044">
          <circle
             cx="-330.35001"
             cy="-328.38"
             r="0"
             id="circle1036" />
          <circle
             cx="-312.10999"
             cy="-326.25"
             r="0"
             id="circle1038" />
          <circle
             cx="-306.01999"
             cy="-333.07001"
             r="0"
             id="circle1040" />
          <circle
             cx="-308.84"
             cy="-326.01001"
             r="0"
             id="circle1042" />
        </g>
      </g>
    </g>
    <path
       d="m 31.997,14.501 c -3.0937,0 -5.9821,1.0849 -8.0173,3.1131 -2.0351,2.0345 -3.119,4.9233 -3.119,8.0162 h 6.3677 c 0,-1.6795 0.50563,-2.7676 1.2546,-3.5179 0.74895,-0.74869 1.8375,-1.2546 3.5172,-1.2546 1.6797,0 2.7682,0.50588 3.5172,1.2546 0.74895,0.74871 1.2546,1.8383 1.2546,3.5179 0,1.4585 -0.28758,2.0795 -0.67153,2.629 -0.38396,0.54946 -1.0128,1.0693 -1.9483,1.7247 -0.93539,0.6553 -2.1789,1.4102 -3.3276,2.7504 -1.1487,1.3402 -2.0066,3.3699 -2.0066,5.6238 v 1.5908 h 6.3677 v -1.5908 c 0,-0.9277 0.13268,-1.0849 0.47559,-1.4849 0.34288,-0.40004 1.0918,-0.9386 2.1441,-1.6748 1.0523,-0.73625 2.4128,-1.7091 3.5204,-3.2967 1.1076,-1.5877 1.814,-3.7513 1.814,-6.2729 0,-3.0929 -1.0855,-5.9819 -3.119,-8.0162 -2.0351,-2.0345 -4.9235,-3.1131 -8.0173,-3.1131 m -3.176,28.637 v 6.3632 h 6.3677 v -6.3632 z"
       opacity="0.3"
       stroke-linejoin="round"
       stroke-width="3.1365"
       id="path1050" />
    <g
       transform="matrix(1.25,0,0,1.25,-147.72,18.165)"
       fill="#f9f9f9"
       id="g1058">
      <path
         d="m 138.77,19.059 3,-1 3.6,5.5 -2.6,1.5 z"
         style="paint-order:normal"
         id="path1052" />
      <path
         d="m 138.77,3.0593 c -6,0 -7,3.8136 -7,9 0,5.1864 1,9 7,9 6,0 7,-4 7,-9 0,-5 -1,-9 -7,-9 z m 0,3 c 3,0 4,2 4,6 0,4 -1,6 -4,6 -3,0 -4,-2.2545 -4,-6 0,-3.7455 1,-6 4,-6 z"
         style="paint-order:normal"
         id="path1054" />
      <path
         d="m 149.77,4.0593 h 3 v 4 h 3 v 2 h -3 v 7 c 0,2 1,2 1.5,2 h 1.5 v 2 h -2.5 c -2,0 -3.5,-2 -3.5,-4 v -7 h -2 v -2 h 2 z"
         stroke-width="0.32579"
         id="path1056" />
    </g>
  </g>
</svg>
