<?xml version="1.0" encoding="UTF-8"?>
<svg width="64" height="64" version="1.1" viewBox="0 0 16.933 16.933" xmlns="http://www.w3.org/2000/svg" xmlns:cc="http://creativecommons.org/ns#" xmlns:dc="http://purl.org/dc/elements/1.1/" xmlns:rdf="http://www.w3.org/1999/02/22-rdf-syntax-ns#">
 <defs>
  <linearGradient id="linearGradient3174" x1="15.138" x2="16.822" y1="10.386" y2="22.126" gradientTransform="matrix(.54298 0 0 .54298 .6208 -.8231)" gradientUnits="userSpaceOnUse">
   <stop stop-color="#be1ad6" offset="0"/>
   <stop stop-color="#f44eb8" offset="1"/>
  </linearGradient>
  <filter id="filter11290" x="-.024" y="-.024" width="1.048" height="1.048" color-interpolation-filters="sRGB">
   <feGaussianBlur stdDeviation="0.15875313"/>
  </filter>
  <linearGradient id="linearGradient1005" x1=".73911" x2="16.388" y1="16.296" y2=".64687" gradientTransform="translate(-.034768 .0067537)" gradientUnits="userSpaceOnUse">
   <stop stop-color="#dddfe1" offset="0"/>
   <stop stop-color="#f3f4f6" offset="1"/>
  </linearGradient>
 </defs>
 <metadata>
  <rdf:RDF>
   <cc:Work rdf:about="">
    <dc:format>image/svg+xml</dc:format>
    <dc:type rdf:resource="http://purl.org/dc/dcmitype/StillImage"/>
   </cc:Work>
  </rdf:RDF>
 </metadata>
 <circle cx="8.4665" cy="8.4665" r="7.9377" filter="url(#filter11290)" opacity=".25" stroke-width=".14032"/>
 <path d="m16.404 8.4666c0 0.95153-0.16749 1.8639-0.47465 2.7093-0.21351 0.58768-0.49439 1.1433-0.83392 1.6572-0.14222 0.21608-0.29514 0.42475-0.45746 0.62528-0.51966 0.64179-1.1372 1.2007-1.8305 1.6543-0.2553 0.16718-0.52064 0.32011-0.79535 0.45711-1.0668 0.53389-2.2711 0.83421-3.5456 0.83421-1.2745 0-2.4788-0.30032-3.5456-0.83424-0.27474-0.13705-0.5404-0.28998-0.79569-0.45711-0.70206-0.45973-1.327-1.0274-1.8509-1.6798-0.16263-0.20216-0.31524-0.41274-0.45746-0.63078-0.33046-0.5054-0.60422-1.0507-0.8135-1.627-0.30712-0.8453-0.47431-1.7573-0.47431-2.7085 0-4.3838 3.5538-7.9376 7.9376-7.9376 2.2005 0 4.1917 0.89549 5.6294 2.3417 0.41436 0.41663 0.78273 0.8793 1.0963 1.3795 0.29646 0.47108 0.54429 0.97582 0.73704 1.5068 0.30718 0.84559 0.47468 1.7579 0.47468 2.7093z" fill="url(#linearGradient1005)" stroke-width=".031006"/>
 <path d="m12.355 3.8364a0.80477 0.80477 0 0 0-0.80477 0.80477 0.80477 0.80477 0 0 0 0.146 0.45967l-2.0266 2.7021a1.7509 1.7509 0 0 0-1.0716-0.36885 1.7509 1.7509 0 0 0-0.19002 0.01187l-0.71535-1.7884a0.69412 0.69412 0 0 0 0.28223-0.55817 0.69412 0.69412 0 0 0-0.69369-0.69369 0.69412 0.69412 0 0 0-0.69439 0.69369 0.69412 0.69412 0 0 0 0.69439 0.69439 0.69412 0.69412 0 0 0 0.07894-0.0056l0.69369 1.7346a1.7509 1.7509 0 0 0-1.2065 1.6619 1.7509 1.7509 0 0 0 0.03213 0.32833l-1.6466 0.70557a0.78896 0.78896 0 0 0-0.67064-0.37584 0.78896 0.78896 0 0 0-0.7894 0.7894 0.78896 0.78896 0 0 0 0.7894 0.7887 0.78896 0.78896 0 0 0 0.7887-0.7887 0.78896 0.78896 0 0 0-0.00418-0.07405l1.6361-0.70138a1.7509 1.7509 0 0 0 1.6151 1.0786 1.7509 1.7509 0 0 0 0.97871-0.30039l1.1324 1.4153a0.78896 0.78896 0 0 0-0.04401 0.25708 0.78896 0.78896 0 0 0 0.7887 0.7894 0.78896 0.78896 0 0 0 0.7894-0.7894 0.78896 0.78896 0 0 0-0.7894-0.7887 0.78896 0.78896 0 0 0-0.54 0.21446l-1.0625-1.328a1.7509 1.7509 0 0 0 0.49739-1.2204 1.7509 1.7509 0 0 0-0.41775-1.1324l2.0315-2.7091a0.80477 0.80477 0 0 0 0.3926 0.10269 0.80477 0.80477 0 0 0 0.80477-0.80477 0.80477 0.80477 0 0 0-0.80477-0.80477z" fill="url(#linearGradient3174)" stroke-width=".35768"/>
</svg>
