<?xml version="1.0" encoding="UTF-8"?>
<svg width="64" height="64" version="1.1" viewBox="0 0 16.933 16.933" xmlns="http://www.w3.org/2000/svg" xmlns:cc="http://creativecommons.org/ns#" xmlns:dc="http://purl.org/dc/elements/1.1/" xmlns:rdf="http://www.w3.org/1999/02/22-rdf-syntax-ns#" xmlns:xlink="http://www.w3.org/1999/xlink">
 <defs>
  <filter id="filter11290-23" x="-.024" y="-.024" width="1.048" height="1.048" color-interpolation-filters="sRGB">
   <feGaussianBlur stdDeviation="0.15875313"/>
  </filter>
  <linearGradient id="linearGradient1005-59" x1=".73911" x2="16.388" y1="16.296" y2=".64687" gradientTransform="matrix(1 0 0 1 .23898 -.8062)" gradientUnits="userSpaceOnUse">
   <stop stop-color="#ff8228" offset="0"/>
   <stop stop-color="#ff5a1e" offset=".48355"/>
   <stop stop-color="#ff8c55" offset="1"/>
  </linearGradient>
 </defs>
 <metadata>
  <rdf:RDF>
   <cc:Work rdf:about="">
    <dc:format>image/svg+xml</dc:format>
    <dc:type rdf:resource="http://purl.org/dc/dcmitype/StillImage"/>
    <dc:title/>
   </cc:Work>
  </rdf:RDF>
 </metadata>
 <g transform="translate(-.27403 .81265)">
  <circle transform="matrix(1 0 0 1 .24683 -.80615)" cx="8.4937" cy="8.46" r="7.9377" filter="url(#filter11290-23)" opacity=".25" stroke-width=".14032"/>
  <path d="m16.678 7.6539c0 0.95156-0.16749 1.8639-0.47465 2.7095-0.21352 0.58769-0.4944 1.1433-0.83395 1.6572-0.14222 0.21608-0.29515 0.42476-0.45747 0.6253-0.51967 0.6418-1.1372 1.2007-1.8305 1.6543-0.2553 0.16718-0.52066 0.32011-0.79538 0.45713-1.0668 0.5339-2.2711 0.83423-3.5457 0.83423-1.2745 0-2.4788-0.30033-3.5457-0.83426-0.27475-0.13705-0.54041-0.28998-0.79572-0.45713-0.70208-0.45974-1.327-1.0274-1.8509-1.6798-0.16263-0.20216-0.31525-0.41276-0.45747-0.63079-0.33047-0.50541-0.60422-1.0507-0.81352-1.627-0.30712-0.84531-0.47431-1.7573-0.47431-2.7086 0-4.3839 3.5538-7.9377 7.9377-7.9377 2.2005 0 4.1918 0.8955 5.6296 2.3417 0.41437 0.41663 0.78276 0.87931 1.0963 1.3795 0.29646 0.47108 0.54429 0.97584 0.73706 1.5068 0.30719 0.84561 0.47468 1.7579 0.47468 2.7095z" fill="url(#linearGradient1005-59)" stroke-width=".031007"/>
  <path d="m8.741 3.2445c-2.273 0-4.1157 1.8426-4.1157 4.1157v2.6459c0 1.0495 0.74729 1.3349 1.1759 1.4131v-4.059c0-1.6286 1.3111-2.9398 2.9398-2.9398 1.6286 0 2.9398 1.3111 2.9398 2.9398v4.0605c0.42862-0.07878 1.1759-0.36512 1.1759-1.4146v-2.6459c0-2.273-1.8426-4.1157-4.1157-4.1157z" fill="#fff" stroke-width=".26458"/>
  <rect x="5.8009" y="7.9476" width="1.4699" height="4.1157" ry=".28701" fill="#fafafa" opacity=".75"/>
  <rect x="10.21" y="7.9476" width="1.4699" height="4.1157" ry=".28701" fill="#fafafa" opacity=".75"/>
  <g fill="none" stroke="#fff" stroke-opacity=".937" stroke-width=".14485">
   <path d="m0.68174 6.4704c0.82715 0.17571 1.5998 0.70699 2.2808 2.2398 0.77538 1.746 1.8671 2.5206 3.189 2.5817 1.7026 0.079157 3.0751-1.3864 3.9793-2.697 1.843-2.671 5.1985-2.4151 6.6914-1.4145" opacity=".35"/>
   <path d="m0.69014 6.9114c1.0283-0.39565 2.3961-0.47921 3.3044 0.93488 0.83061 1.2925 1.8131 3.2421 4.6581 3.0634 1.7003-0.10743 3.4006-0.80288 4.2773-2.4313 0.60872-1.055 1.4496-2.1162 2.6378-2.3788 0.43968-0.092275 0.7538-0.079497 1.1229 0.064004" opacity=".35"/>
   <path d="m1.0147 9.3088c1.0896-0.50222 3.1587-1.0781 4.8286-0.59919 1.4921 0.42858 3.3788 2.0886 6.967 1.7008 0.94795-0.10177 1.7509-0.63665 2.5114-1.6555 0.55048-0.73786 0.86302-1.1531 1.502-1.3196" opacity=".35"/>
  </g>
 </g>
</svg>
