<?xml version="1.0" encoding="UTF-8"?>
<svg width="64" height="64" version="1.1" viewBox="0 0 16.933 16.933" xmlns="http://www.w3.org/2000/svg" xmlns:cc="http://creativecommons.org/ns#" xmlns:dc="http://purl.org/dc/elements/1.1/" xmlns:rdf="http://www.w3.org/1999/02/22-rdf-syntax-ns#" xmlns:xlink="http://www.w3.org/1999/xlink">
 <defs>
  <filter id="filter11290-2" x="-.024" y="-.024" width="1.048" height="1.048" color-interpolation-filters="sRGB">
   <feGaussianBlur stdDeviation="0.15875313"/>
  </filter>
  <linearGradient id="linearGradient1005-0" x1=".73911" x2="16.388" y1="16.296" y2=".64687" gradientTransform="matrix(1 0 0 1 .14442 2.1705)" gradientUnits="userSpaceOnUse">
   <stop stop-color="#323741" offset="0"/>
   <stop stop-color="#465064" offset="1"/>
  </linearGradient>
 </defs>
 <metadata>
  <rdf:RDF>
   <cc:Work rdf:about="">
    <dc:format>image/svg+xml</dc:format>
    <dc:type rdf:resource="http://purl.org/dc/dcmitype/StillImage"/>
    <dc:title/>
   </cc:Work>
  </rdf:RDF>
 </metadata>
 <g transform="translate(-.17954 -2.1639)">
  <circle transform="matrix(1 0 0 1 .17954 2.1639)" cx="8.4665" cy="8.4665" r="7.9377" filter="url(#filter11290-2)" opacity=".25" stroke-width=".14032"/>
  <path d="m16.584 10.631c0 0.95155-0.16749 1.8639-0.47466 2.7094-0.21351 0.58769-0.4944 1.1433-0.83394 1.6572-0.14222 0.21608-0.29515 0.42476-0.45747 0.62529-0.51967 0.6418-1.1372 1.2007-1.8305 1.6543-0.2553 0.16718-0.52065 0.3201-0.79537 0.45712-1.0668 0.5339-2.2711 0.83424-3.5457 0.83424s-2.4788-0.30033-3.5457-0.83426c-0.27475-0.13705-0.54041-0.28998-0.79571-0.45712-0.70207-0.45974-1.327-1.0274-1.8509-1.6798-0.16263-0.20216-0.31525-0.41275-0.45747-0.63079-0.33047-0.50541-0.60423-1.0507-0.81352-1.627-0.30713-0.84532-0.47432-1.7573-0.47432-2.7086 0-4.3839 3.5539-7.9378 7.9378-7.9378 2.2005 0 4.1918 0.89551 5.6295 2.3417 0.41437 0.41664 0.78275 0.87932 1.0963 1.3795 0.29647 0.47109 0.5443 0.97584 0.73705 1.5068 0.30719 0.84561 0.47469 1.7579 0.47469 2.7094z" fill="url(#linearGradient1005-0)" stroke-width=".031007"/>
  <path d="m12.614 6.8585h-1.016v1.332c-0.7558-1.0433-1.6628-1.5104-2.9662-1.5104-2.2525 0-3.955 1.7037-3.955 3.955 0 2.2513 1.716 3.9128 4.0367 3.9128 1.2762 0 2.0729-0.41136 2.8832-1.4967v1.3183h1.016zm-3.955 0.7558c1.6603 0 2.9377 1.2911 2.9377 2.9662 0 1.716-1.2638 3.0344-2.8832 3.0344-1.7024 0-3.0071-1.332-3.0071-3.048a2.9476 2.9476 0 0 1 2.9526-2.9526z" fill="#fff" font-size="11.082px" font-weight="400" letter-spacing="0" stroke-width=".3305" word-spacing="0" aria-label="a"/>
  <g fill="none" stroke="#fff" stroke-opacity=".937" stroke-width=".14485">
   <path d="m0.61435 9.5004c0.82715 0.17571 1.5998 0.70699 2.2808 2.2398 0.77538 1.746 1.8671 2.5206 3.189 2.5817 1.7026 0.07916 3.0751-1.3864 3.9793-2.697 1.843-2.671 5.1985-2.4151 6.6914-1.4145" opacity=".35"/>
   <path d="m0.62275 9.9415c1.0283-0.39565 2.3961-0.47921 3.3044 0.93488 0.83061 1.2925 1.8131 3.2421 4.6581 3.0634 1.7003-0.10743 3.4006-0.80288 4.2773-2.4313 0.60872-1.055 1.4496-2.1162 2.6378-2.3788 0.43968-0.092275 0.7538-0.079497 1.1229 0.064004" opacity=".35"/>
   <path d="m0.94728 12.339c1.0896-0.50222 3.1587-1.0781 4.8286-0.59919 1.4921 0.42858 3.3788 2.0886 6.967 1.7008 0.94795-0.10177 1.7509-0.63665 2.5114-1.6555 0.55048-0.73786 0.86302-1.1531 1.502-1.3196" opacity=".35"/>
  </g>
 </g>
</svg>
