<?xml version="1.0" encoding="UTF-8"?>
<svg width="64" height="64" version="1.1" viewBox="0 0 16.933 16.933" xmlns="http://www.w3.org/2000/svg" xmlns:cc="http://creativecommons.org/ns#" xmlns:dc="http://purl.org/dc/elements/1.1/" xmlns:rdf="http://www.w3.org/1999/02/22-rdf-syntax-ns#" xmlns:xlink="http://www.w3.org/1999/xlink">
 <defs>
  <filter id="filter11290-9" x="-.024" y="-.024" width="1.048" height="1.048" color-interpolation-filters="sRGB">
   <feGaussianBlur stdDeviation="0.15875313"/>
  </filter>
  <linearGradient id="linearGradient1005-7" x1=".8714" x2="16.246" y1="16.164" y2=".78937" gradientTransform="matrix(1 0 0 1 .9003 1.0839)" gradientUnits="userSpaceOnUse">
   <stop stop-color="#00c8ff" offset="0"/>
   <stop stop-color="#14a0ff" offset="1"/>
  </linearGradient>
  <linearGradient id="c-3" x1="32" x2="32" y1="11" y2="53" gradientTransform="matrix(.25008 0 0 .25008 1.3995 1.541)" gradientUnits="userSpaceOnUse" xlink:href="#b-3">
   <stop stop-color="#f7bd39" offset="0"/>
   <stop stop-color="#f9e657" offset="1"/>
  </linearGradient>
  <linearGradient id="b-3" x1="-42" x2="-6" y1="-24" y2="-24" gradientTransform="matrix(.22229 0 0 .22229 -3.1291 -3.1314)" gradientUnits="userSpaceOnUse">
   <stop stop-color="#f0f0f0" offset="0"/>
   <stop stop-color="#fff" offset="1"/>
  </linearGradient>
  <filter id="m" x="-.06" y="-.06" width="1.12" height="1.12" color-interpolation-filters="sRGB">
   <feGaussianBlur stdDeviation="0.21980767"/>
  </filter>
  <linearGradient id="linearGradient3363" x1="-42" x2="-6" y1="-24" y2="-24" gradientTransform="matrix(.22229 0 0 .22229 -4.2064 -4.067)" gradientUnits="userSpaceOnUse" xlink:href="#b-3"/>
 </defs>
 <metadata>
  <rdf:RDF>
   <cc:Work rdf:about="">
    <dc:format>image/svg+xml</dc:format>
    <dc:type rdf:resource="http://purl.org/dc/dcmitype/StillImage"/>
    <dc:title/>
   </cc:Work>
  </rdf:RDF>
 </metadata>
 <g transform="translate(-.93549 -1.0772)">
  <circle transform="matrix(1 0 0 1 .93549 1.0772)" cx="8.4665" cy="8.4665" r="7.9377" filter="url(#filter11290-9)" image-rendering="optimizeSpeed" opacity=".25" stroke-width=".14032"/>
  <path d="m17.34 9.544c0 0.95155-0.16749 1.8639-0.47466 2.7094-0.21352 0.58769-0.4944 1.1433-0.83394 1.6572-0.14222 0.21608-0.29515 0.42476-0.45747 0.62529-0.51967 0.6418-1.1372 1.2007-1.8305 1.6543-0.2553 0.16718-0.52065 0.32012-0.79537 0.45712-1.0668 0.5339-2.2711 0.83424-3.5457 0.83424-1.2745 0-2.4788-0.30033-3.5457-0.83426-0.27475-0.13705-0.54041-0.28999-0.79571-0.45712-0.70207-0.45974-1.327-1.0274-1.8509-1.6798-0.16263-0.20216-0.31525-0.41275-0.45747-0.63079-0.33047-0.50541-0.60423-1.0507-0.81352-1.627-0.30713-0.84532-0.47432-1.7573-0.47432-2.7086 0-4.3839 3.5539-7.9378 7.9378-7.9378 2.2005 0 4.1918 0.89551 5.6295 2.3417 0.41437 0.41664 0.78274 0.87932 1.0963 1.3795 0.29647 0.47109 0.5443 0.97584 0.73706 1.5068 0.30719 0.84561 0.47469 1.7579 0.47469 2.7094z" fill="url(#linearGradient1005-7)" image-rendering="optimizeSpeed" stroke-width=".031007"/>
  <path d="m6.1512 4.292v2.0006h-2.0006v0.50018h2.0006v0.50018h-2.0006v0.50018h2.0006v0.50018h-2.0006v0.50018h2.0006v0.50018h-2.0006v0.50018h2.0006v0.50018h-2.0006v0.50018h2.0006v0.50018h-2.0006v0.50018h2.0006v0.50018h-2.0006v0.50018h2.0006v2.0006h0.50018v-2.0006h0.50018v2.0006h0.50018v-2.0006h0.50018v2.0006h0.50018v-2.0006h0.50018v2.0006h0.50018v-2.0006h0.50018v2.0006h0.50018v-2.0006h0.50018v2.0006h0.50018v-2.0006h0.50018v2.0006h0.50018v-2.0006h2.0006v-0.50018h-2.0006v-0.50018h2.0006v-0.50018h-2.0006v-0.50018h2.0006v-0.50018h-2.0006v-0.50018h2.0006v-0.50018h-2.0006v-0.50018h2.0006v-0.50018h-2.0006v-0.50018h2.0006v-0.50018h-2.0006v-0.50018h2.0006v-0.50018h-2.0006v-2.0006h-0.50018v2.0006h-0.50018v-2.0006h-0.50018v2.0006h-0.50018v-2.0006h-0.50018v2.0006h-0.50018v-2.0006h-0.50018v2.0006h-0.50018v-2.0006h-0.50018v2.0006h-0.50018v-2.0006h-0.50018v2.0006h-0.50018v-2.0006zm0.50018 2.5008h0.50018v0.50018h-0.50018zm1.0003 0h0.50018v0.50018h-0.50018zm1.0003 0h0.50018v0.50018h-0.50018zm1.0003 0h0.50018v0.50018h-0.50018zm1.0003 0h0.50018v0.50018h-0.50018zm1.0003 0h0.50018v0.50018h-0.50018zm-5.0018 1.0003h0.50018v0.50018h-0.50018zm1.0003 0h0.50018v0.50018h-0.50018zm1.0003 0h0.50018v0.50018h-0.50018zm1.0003 0h0.50018v0.50018h-0.50018zm1.0003 0h0.50018v0.50018h-0.50018zm1.0003 0h0.50018v0.50018h-0.50018zm-5.0018 1.0003h0.50018v0.50018h-0.50018zm1.0003 0h0.50018v0.50018h-0.50018zm1.0003 0h0.50018v0.50018h-0.50018zm1.0003 0h0.50018v0.50018h-0.50018zm1.0003 0h0.50018v0.50018h-0.50018zm1.0003 0h0.50018v0.50018h-0.50018zm-5.0018 1.0003h0.50018v0.50018h-0.50018zm1.0003 0h0.50018v0.50018h-0.50018zm1.0003 0h0.50018v0.50018h-0.50018zm1.0003 0h0.50018v0.50018h-0.50018zm1.0003 0h0.50018v0.50018h-0.50018zm1.0003 0h0.50018v0.50018h-0.50018zm-5.0018 1.0003h0.50018v0.50018h-0.50018zm1.0003 0h0.50018v0.50018h-0.50018zm1.0003 0h0.50018v0.50018h-0.50018zm1.0003 0h0.50018v0.50018h-0.50018zm1.0003 0h0.50018v0.50018h-0.50018zm1.0003 0h0.50018v0.50018h-0.50018zm-5.0018 1.0003h0.50018v0.50018h-0.50018zm1.0003 0h0.50018v0.50018h-0.50018zm1.0003 0h0.50018v0.50018h-0.50018zm1.0003 0h0.50018v0.50018h-0.50018zm1.0003 0h0.50018v0.50018h-0.50018zm1.0003 0h0.50018v0.50018h-0.50018z" fill="url(#c-3)" stroke-width=".77518"/>
  <rect transform="matrix(0 -.91022 -.9102 0 1.6368 -253.08)" x="-292.93" y="-12.927" width="8.7923" height="8.7923" rx=".43962" ry=".54952" filter="url(#m)" opacity=".25" stroke-width=".5239"/>
  <rect transform="matrix(0,-1,-1,0,0,0)" x="-13.545" y="-13.404" width="8.003" height="8.0028" rx=".40016" ry=".50018" fill="url(#linearGradient3363)" stroke-width=".47686"/>
  <g fill="#10a8ff">
   <path d="m11.827 8.8738c-0.23028-1.0798-2.4024-1.1482-3.8025-0.32552v0.090865c1.3982-0.69432 3.3823-0.6899 3.563 0.30482 0.06083 0.32954-0.13077 0.67224-0.47435 0.86944v0.25806c0.41359-0.14598 0.83634-0.61846 0.71387-1.1976m-2.5461 1.8906c-0.96621 0.08601-1.9729-0.049371-2.1139-0.77864-0.070003-0.35905 0.10038-0.74015 0.32523-0.97671v-0.1266c-0.40531 0.34319-0.62545 0.77728-0.49834 1.2898 0.1621 0.65773 1.0261 1.03 2.3452 0.90606 0.52228-0.04851 1.2057-0.21084 1.68-0.46268v-0.3578c-0.43108 0.24834-1.144 0.45351-1.7381 0.50641z" stroke-width=".306"/>
   <g stroke-width=".34503">
    <path d="m11.255 8.6641h-0.2776v1.1669c0 0.13705 0.06967 0.25624 0.2776 0.27515"/>
    <path d="m7.9482 9.0905h-0.27764v0.76216c0 0.1371 0.069673 0.25626 0.27764 0.27515"/>
    <rect x="7.6705" y="8.6996" width=".27764" height=".24823"/>
    <path d="m9.6119 10.116c-0.22511 0-0.32-0.14753-0.32-0.29314v-1.0122h0.2746v0.28036h0.20794v0.20992h-0.20794v0.50637c0 0.059551 0.030283 0.09221 0.095881 0.09221h0.11207v0.21653h-0.16254"/>
    <path d="m10.342 9.2877c-0.09387 0-0.16653 0.045849-0.19683 0.10779-0.01817 0.037336-0.02424 0.065714-0.02723 0.1116h0.42502c-0.0061-0.11207-0.05961-0.21939-0.20095-0.21939m-0.22407 0.39621c0 0.13286 0.08879 0.23069 0.24427 0.23069 0.12218 0 0.18275-0.032149 0.25342-0.09781l0.16961 0.15365c-0.10904 0.10115-0.22312 0.16263-0.42502 0.16263-0.26348 0-0.51589-0.13569-0.51589-0.53097 0-0.33803 0.22008-0.52902 0.50983-0.52902 0.29378 0 0.46234 0.22362 0.46234 0.51724v0.093619h-0.69856"/>
    <path d="m8.6963 9.3004c0.080747 0 0.11407 0.037361 0.11407 0.098347v0.71816h0.27561v-0.71911c0-0.1461-0.082791-0.30733-0.32407-0.30733h-0.56837v1.0264h0.2746v-0.81651"/>
   </g>
  </g>
 </g>
</svg>
