<?xml version="1.0" encoding="UTF-8"?>
<svg width="64" height="64" version="1.1" viewBox="0 0 16.933 16.933" xmlns="http://www.w3.org/2000/svg" xmlns:cc="http://creativecommons.org/ns#" xmlns:dc="http://purl.org/dc/elements/1.1/" xmlns:rdf="http://www.w3.org/1999/02/22-rdf-syntax-ns#">
 <defs>
  <filter id="filter11290" x="-.024" y="-.024" width="1.048" height="1.048" color-interpolation-filters="sRGB">
   <feGaussianBlur stdDeviation="0.15875313"/>
  </filter>
  <linearGradient id="linearGradient1005" x1=".73911" x2="12.872" y1="16.296" y2="4.1627" gradientTransform="translate(-.035245 .0064997)" gradientUnits="userSpaceOnUse">
   <stop stop-color="#3caaff" offset="0"/>
   <stop stop-color="#b496ff" offset="1"/>
  </linearGradient>
 </defs>
 <metadata>
  <rdf:RDF>
   <cc:Work rdf:about="">
    <dc:format>image/svg+xml</dc:format>
    <dc:type rdf:resource="http://purl.org/dc/dcmitype/StillImage"/>
   </cc:Work>
  </rdf:RDF>
 </metadata>
 <circle cx="8.4665" cy="8.4665" r="7.9377" filter="url(#filter11290)" opacity=".25" stroke-width=".14032"/>
 <path d="m16.404 8.4664c0 0.95154-0.16749 1.8639-0.47464 2.7094-0.21351 0.58768-0.49439 1.1433-0.83393 1.6572-0.14222 0.21608-0.29514 0.42475-0.45746 0.62529-0.51966 0.64179-1.1372 1.2007-1.8305 1.6543-0.2553 0.16718-0.52065 0.3201-0.79536 0.45712-1.0668 0.53389-2.2711 0.83421-3.5456 0.83421s-2.4788-0.30032-3.5456-0.83424c-0.27474-0.13705-0.5404-0.28997-0.7957-0.45712-0.70207-0.45973-1.327-1.0274-1.8509-1.6798-0.16263-0.20216-0.31524-0.41275-0.45746-0.63078-0.33046-0.5054-0.60421-1.0507-0.8135-1.627-0.30711-0.84529-0.4743-1.7573-0.4743-2.7085 0-4.3838 3.5537-7.9375 7.9375-7.9375 2.2005 0 4.1917 0.89548 5.6295 2.3417 0.41436 0.41662 0.78274 0.87929 1.0963 1.3795 0.29645 0.47107 0.54428 0.97582 0.73704 1.5068 0.30718 0.84559 0.47467 1.7579 0.47467 2.7094z" fill="url(#linearGradient1005)" stroke-width=".031006"/>
 <path d="m10.446 4.6176c-0.157-1.22e-5 -0.31405 0.059971-0.43373 0.1797-0.23945 0.23945-0.23945 0.62758 0 0.86697l1.6566 1.6561c0.7228 0.723 0.72717 1.8957 0.01457 2.6253-0.7292 0.71239-1.9018 0.70765-2.6248-0.01506l-1.6561-1.6566c-0.23946-0.23936-0.62797-0.23936-0.86745 0-0.23946 0.23966-0.23946 0.62807 0 0.86745l1.6561 1.6566c1.1854 1.1854 3.1013 1.2044 4.3115 0.05974 0.0111-0.0095 0.02253-0.01844 0.03302-0.02914 0.0051-0.0053 0.0094-0.01044 0.01457-0.01554 0.0051-0.0052 0.01083-0.01005 0.01603-0.01506 0.01041-0.0106 0.01964-0.02144 0.02914-0.03254 1.145-1.2103 1.1256-3.1262-0.05974-4.3115l-1.6561-1.6566c-0.11973-0.11978-0.27672-0.17968-0.43373-0.1797zm-3.8516 0.61391c-0.77843-0.0099-1.5598 0.27178-2.1651 0.84414-0.0111 0.0094-0.02263 0.01873-0.03302 0.029142-0.0051 0.0052-0.0097 0.01071-0.01457 0.01603-0.0052 5e-3 -0.01054 0.0097-0.01554 0.01457-0.0106 0.0106-0.02022 0.02154-0.02963 0.032542-1.1448 1.2108-1.1251 3.1266 0.06023 4.312l1.6561 1.6561c0.23946 0.23946 0.62748 0.23946 0.86697 0 0.23946-0.23966 0.23994-0.62768 4.86e-4 -0.86697l-1.6566-1.6566c-0.7227-0.72269-0.72786-1.8953-0.01506-2.6248 0.72911-0.71249 1.9022-0.70774 2.6253 0.01506l1.6561 1.6566c0.23945 0.23936 0.62748 0.23888 0.86697-4.86e-4 0.23956-0.23966 0.23994-0.62758 4.85e-4 -0.86697l-1.6566-1.6566c-0.59267-0.59271-1.3678-0.89396-2.1461-0.90388z" enable-background="new" fill="#fff" stroke-width=".10002"/>
</svg>
