<?xml version="1.0" encoding="UTF-8"?>
<svg width="64" height="64" version="1.1" viewBox="0 0 16.933 16.933" xmlns="http://www.w3.org/2000/svg" xmlns:cc="http://creativecommons.org/ns#" xmlns:dc="http://purl.org/dc/elements/1.1/" xmlns:rdf="http://www.w3.org/1999/02/22-rdf-syntax-ns#" xmlns:xlink="http://www.w3.org/1999/xlink">
 <defs>
  <filter id="filter11290-61" x="-.024" y="-.024" width="1.048" height="1.048" color-interpolation-filters="sRGB">
   <feGaussianBlur stdDeviation="0.15875313"/>
  </filter>
  <linearGradient id="linearGradient1005-2" x1=".73911" x2="16.388" y1="16.296" y2=".64687" gradientTransform="matrix(1 0 0 1 .66435 .8475)" gradientUnits="userSpaceOnUse">
   <stop stop-color="#00c8ff" offset="0"/>
   <stop stop-color="#14a0ff" offset="1"/>
  </linearGradient>
 </defs>
 <metadata>
  <rdf:RDF>
   <cc:Work rdf:about="">
    <dc:format>image/svg+xml</dc:format>
    <dc:type rdf:resource="http://purl.org/dc/dcmitype/StillImage"/>
    <dc:title/>
   </cc:Work>
  </rdf:RDF>
 </metadata>
 <g transform="translate(-.69926 -.841)">
  <circle transform="matrix(1 0 0 1 .67206 .8475)" cx="8.4937" cy="8.46" r="7.9377" filter="url(#filter11290-61)" opacity=".25" stroke-width=".14032"/>
  <path d="m17.104 9.3076c0 0.95156-0.16749 1.8639-0.47465 2.7095-0.21351 0.58769-0.4944 1.1433-0.83395 1.6572-0.14222 0.21608-0.29514 0.42476-0.45747 0.6253-0.51967 0.6418-1.1372 1.2007-1.8305 1.6543-0.2553 0.16718-0.52066 0.32011-0.79538 0.45713-1.0668 0.5339-2.2711 0.83423-3.5457 0.83423-1.2745 0-2.4788-0.30033-3.5457-0.83426-0.27474-0.13705-0.54041-0.28998-0.79571-0.45713-0.70208-0.45974-1.327-1.0274-1.8509-1.6798-0.16263-0.20216-0.31525-0.41276-0.45747-0.63079-0.33047-0.50541-0.60422-1.0507-0.81352-1.627-0.30712-0.84531-0.47431-1.7573-0.47431-2.7086 0-4.3839 3.5538-7.9377 7.9377-7.9377 2.2005 0 4.1918 0.8955 5.6296 2.3417 0.41437 0.41663 0.78276 0.87931 1.0963 1.3795 0.29646 0.47108 0.54429 0.97584 0.73706 1.5068 0.30719 0.84561 0.47468 1.7579 0.47468 2.7095z" fill="url(#linearGradient1005-2)" stroke-width=".031006"/>
  <path d="m9.1861 4.2806c-0.18872-5.291e-4 -0.37754 0.0095912-0.56586 0.030489-0.14574 0.016087-0.25398 0.14183-0.24908 0.28784 0.016386 0.46615-0.25981 0.89676-0.68833 1.0723-0.41094 0.16785-0.94532 0.045711-1.2444-0.28319-0.098834-0.10834-0.26416-0.12178-0.37931-0.03204-0.30129 0.23639-0.57543 0.50713-0.81339 0.80409-0.092811 0.11544-0.079187 0.28257 0.029972 0.38189 0.34988 0.31685 0.46289 0.82129 0.28112 1.2547-0.17354 0.41322-0.60278 0.67955-1.094 0.67955-0.1594-0.005125-0.27299 0.10157-0.29042 0.2465-0.044217 0.37768-0.044638 0.76285-0.00206 1.1436 0.015785 0.14193 0.18563 0.24701 0.3297 0.24701 0.43776-0.01119 0.85826 0.25981 1.0346 0.68885 0.17575 0.42848 0.062742 0.92761-0.28112 1.2428-0.10755 0.0988-0.12113 0.26442-0.030489 0.3793 0.23358 0.29751 0.50164 0.56774 0.7953 0.80408 0.11518 0.09281 0.28256 0.08005 0.38241-0.02997 0.30077-0.33268 0.83889-0.45603 1.2532-0.28215 0.4339 0.18151 0.70677 0.62036 0.68006 1.0914-0.00872 0.14795 0.10018 0.27661 0.24701 0.29352 0.19209 0.02241 0.385 0.03359 0.57877 0.03359 0.18394 0 0.36797-0.01002 0.5519-0.03049 0.14578-0.01609 0.25398-0.14157 0.24908-0.28784-0.01687-0.46589 0.25986-0.89706 0.68781-1.0723 0.4137-0.16898 0.9458-0.04537 1.2449 0.28319 0.0994 0.10811 0.26352 0.12148 0.3793 0.03204 0.30073-0.23582 0.57431-0.50631 0.81339-0.80408 0.09277-0.11518 0.07975-0.28312-0.02997-0.3824-0.34988-0.31685-0.46341-0.82055-0.28164-1.2537 0.17088-0.40772 0.58398-0.68161 1.0284-0.68161l0.06201 0.0016c0.14414 0.01171 0.27709-0.09937 0.29456-0.2465 0.04429-0.37802 0.04466-0.76234 0.0021-1.1431-0.0159-0.14133-0.181-0.24753-0.32349-0.24753-0.46069 0-0.86932-0.2705-1.0408-0.68885-0.17515-0.42848-0.06222-0.92839 0.28112-1.2433 0.10808-0.098796 0.12112-0.26391 0.03049-0.37879-0.23583-0.29946-0.50376-0.57024-0.79638-0.80464-0.11458-0.091951-0.28253-0.079014-0.38189 0.031006-0.29964 0.33185-0.83776 0.45518-1.2537 0.28164-0.43283-0.18207-0.70574-0.62062-0.67903-1.0914 0.0087891-0.14788-0.099585-0.27635-0.24701-0.29352-0.18775-0.021727-0.3761-0.033059-0.56482-0.0336zm1.1555 2.3115c0.12897 0 0.22066 0.014827 0.34003 0.045992 0.17408 0.045666 0.3167 0.18849 0.31678 0.3545 7.5e-5 0.2007-0.14608 0.34623-0.3638 0.34623-0.10372 0-0.14114-0.019637-0.29301-0.019637-0.44821 0-0.8116 0.3631-0.81235 0.81132v0.70228c0 0.063432 0.051343 0.11472 0.11472 0.11472h0.53382c0.19882 0 0.35951 0.1593 0.35967 0.35863 0 0.19943-0.16093 0.35812-0.35967 0.35812h-0.64854v0.81959c0 0.85004-0.6889 1.5394-1.5389 1.5394-0.12899 0-0.22066-0.01481-0.34003-0.04599-0.17408-0.04563-0.3167-0.18854-0.31678-0.3545 0-0.20063 0.14599-0.34623 0.3638-0.34623 0.10362 0 0.14122 0.01964 0.29301 0.01964 0.44821 0 0.81165-0.36275 0.81235-0.8108v-0.70642c0-0.063288-0.051345-0.1142-0.11472-0.1142h-0.53382c-0.19887 0-0.35967-0.15864-0.35967-0.35812-5.35e-5 -0.20059 0.1623-0.35863 0.36329-0.35863h0.64492v-0.81649c0-0.85014 0.68877-1.5394 1.5389-1.5394z" fill="#fff" stroke-width=".26458"/>
 </g>
</svg>
