<?xml version="1.0" encoding="UTF-8"?>
<svg width="64" height="64" version="1.1" viewBox="0 0 16.933 16.933" xmlns="http://www.w3.org/2000/svg" xmlns:cc="http://creativecommons.org/ns#" xmlns:dc="http://purl.org/dc/elements/1.1/" xmlns:rdf="http://www.w3.org/1999/02/22-rdf-syntax-ns#">
 <metadata>
  <rdf:RDF>
   <cc:Work rdf:about="">
    <dc:format>image/svg+xml</dc:format>
    <dc:type rdf:resource="http://purl.org/dc/dcmitype/StillImage"/>
    <dc:title/>
   </cc:Work>
  </rdf:RDF>
 </metadata>
 <defs>
  <filter id="filter943" x="-.062502" y="-.057691" width="1.125" height="1.1154" color-interpolation-filters="sRGB">
   <feGaussianBlur stdDeviation="0.3307375"/>
  </filter>
  <filter id="filter11290" x="-.024" y="-.024" width="1.048" height="1.048" color-interpolation-filters="sRGB">
   <feGaussianBlur stdDeviation="0.15875313"/>
  </filter>
  <linearGradient id="linearGradient1005" x1=".8714" x2="16.246" y1="16.164" y2=".78937" gradientTransform="translate(-.0353 .0065)" gradientUnits="userSpaceOnUse">
   <stop stop-color="#00c8ff" offset="0"/>
   <stop stop-color="#14a0ff" offset="1"/>
  </linearGradient>
 </defs>
 <circle cx="8.4665" cy="8.4665" r="7.9377" filter="url(#filter11290)" opacity=".25" stroke-width=".14032"/>
 <path d="m16.404 8.4664c0 0.95154-0.16749 1.8639-0.47464 2.7094-0.21351 0.58768-0.49439 1.1433-0.83393 1.6572-0.14222 0.21608-0.29514 0.42475-0.45746 0.62529-0.51966 0.64179-1.1372 1.2007-1.8305 1.6543-0.2553 0.16718-0.52065 0.3201-0.79536 0.45712-1.0668 0.53389-2.2711 0.83421-3.5456 0.83421s-2.4788-0.30032-3.5456-0.83424c-0.27474-0.13705-0.5404-0.28997-0.7957-0.45712-0.70207-0.45973-1.327-1.0274-1.8509-1.6798-0.16263-0.20216-0.31524-0.41275-0.45746-0.63078-0.33046-0.5054-0.60421-1.0507-0.8135-1.627-0.30711-0.84529-0.4743-1.7573-0.4743-2.7085 0-4.3838 3.5537-7.9375 7.9375-7.9375 2.2005 0 4.1917 0.89548 5.6295 2.3417 0.41436 0.41662 0.78274 0.87929 1.0963 1.3795 0.29645 0.47107 0.54428 0.97582 0.73704 1.5068 0.30718 0.84559 0.47467 1.7579 0.47467 2.7094z" fill="url(#linearGradient1005)" stroke-width=".031006"/>
 <g transform="matrix(.68362 0 0 .68362 2.679 2.6786)" fill="#14a5ff" filter="url(#filter943)">
  <path d="m6.735 5.963 2.309-0.363-1.155-1.72-4.039 2.243m2.886-0.159m-2.31 4.796h2.309l3.463 0.573-2.886 0.573-2.886-0.573" opacity=".8"/>
  <path d="m3.848 5.968h2.887v4.792h-2.887"/>
  <path d="m10.776 1.587-8.66 2.294v9.172l8.66 2.293m-2.887-9.849v5.825l-3.463-0.565-0.018-4.803"/>
  <path d="m10.776 1.587 4.04 1.72v10.319l-4.04 1.72"/>
 </g>
 <g transform="matrix(.68362 0 0 .68362 2.679 2.6786)">
  <path d="m6.735 5.963 2.309-0.363-1.155-1.72-4.039 2.243m2.886-0.159m-2.31 4.796h2.309l3.463 0.573-2.886 0.573-2.886-0.573" fill="#bae4ff" opacity=".8"/>
  <path d="m3.848 5.968h2.887v4.792h-2.887" fill="#fff"/>
  <path d="m10.776 1.587-8.66 2.294v9.172l8.66 2.293m-2.887-9.849v5.825l-3.463-0.565-0.018-4.803" fill="#bae4ff"/>
  <path d="m10.776 1.587 4.04 1.72v10.319l-4.04 1.72" fill="#fff"/>
 </g>
 <g transform="translate(24.153 -9.1775)" fill="#5e4aa6" stroke-width=".26458">
  <circle cx="-330.35" cy="-328.38" r="0"/>
  <circle cx="-312.11" cy="-326.25" r="0"/>
  <circle cx="-306.02" cy="-333.07" r="0"/>
  <circle cx="-308.84" cy="-326.01" r="0"/>
 </g>
</svg>
