<?xml version="1.0" encoding="UTF-8"?>
<svg width="64" height="64" version="1.1" viewBox="0 0 16.933 16.933" xmlns="http://www.w3.org/2000/svg" xmlns:cc="http://creativecommons.org/ns#" xmlns:dc="http://purl.org/dc/elements/1.1/" xmlns:rdf="http://www.w3.org/1999/02/22-rdf-syntax-ns#" xmlns:xlink="http://www.w3.org/1999/xlink">
 <defs>
  <filter id="filter11290-1" x="-.024" y="-.024" width="1.048" height="1.048" color-interpolation-filters="sRGB">
   <feGaussianBlur stdDeviation="0.15875313"/>
  </filter>
  <linearGradient id="linearGradient1005-9" x1=".73911" x2="16.388" y1="16.296" y2=".64687" gradientTransform="matrix(1 0 0 1 -1.1307 1.9818)" gradientUnits="userSpaceOnUse">
   <stop stop-color="#1d2123" offset="0"/>
   <stop stop-color="#33393e" offset="1"/>
  </linearGradient>
 </defs>
 <metadata>
  <rdf:RDF>
   <cc:Work rdf:about="">
    <dc:format>image/svg+xml</dc:format>
    <dc:type rdf:resource="http://purl.org/dc/dcmitype/StillImage"/>
    <dc:title/>
   </cc:Work>
  </rdf:RDF>
 </metadata>
 <g transform="translate(1.0961 -1.9749)">
  <circle transform="matrix(1 0 0 1 -1.1233 1.9814)" cx="8.4937" cy="8.46" r="7.9377" filter="url(#filter11290-1)" opacity=".25" stroke-width=".14032"/>
  <path d="m15.308 10.442c0 0.95155-0.16749 1.8639-0.47466 2.7093-0.21351 0.58769-0.4944 1.1433-0.83394 1.6572-0.14222 0.21608-0.29514 0.42476-0.45746 0.62529-0.51967 0.6418-1.1372 1.2007-1.8305 1.6543-0.2553 0.16718-0.52065 0.32012-0.79536 0.45712-1.0668 0.5339-2.2712 0.83423-3.5457 0.83423-1.2745 0-2.4789-0.30033-3.5457-0.83426-0.27474-0.13705-0.54041-0.28998-0.79571-0.45712-0.70207-0.45974-1.327-1.0274-1.8509-1.6798-0.16263-0.20216-0.31525-0.41275-0.45746-0.63079-0.33046-0.50541-0.60423-1.0507-0.81351-1.627-0.30713-0.84532-0.47432-1.7573-0.47432-2.7085 0-4.3839 3.5539-7.9378 7.9378-7.9378 2.2005 0 4.1918 0.89551 5.6295 2.3417 0.41436 0.41664 0.78274 0.87932 1.0963 1.3795 0.29646 0.47109 0.5443 0.97584 0.73705 1.5068 0.30718 0.84561 0.47469 1.7579 0.47469 2.7093z" fill="url(#linearGradient1005-9)" stroke-width=".031006"/>
  <path d="m3.5841 6.6481c-0.32926 0.33584-0.32926 1.9432-0.32926 2.961 0 3.6945 2.1402 5.2055 4.1157 5.2055 1.9755 0 4.1157-1.5114 4.1157-5.2055 0-1.0077 0-2.6251-0.32926-2.961-0.32926-0.33584-2.5106 0.70655-3.1691 1.3782h-1.2347c-0.65852-0.67169-2.8398-1.7141-3.1691-1.3782z" fill="none" stroke="#fff" stroke-width=".26458"/>
  <g fill="#fff" stroke-width=".147">
   <path d="m8.2525 12.807c0 0.4592-0.39482 0.83138-0.88194 0.83138-0.48713 0-0.88194-0.37218-0.88194-0.83138 0-0.45929 1.7639-0.45929 1.7639 0z"/>
   <path d="m5.6067 8.641a1.4699 1.7639 0 0 0-1.4699 1.7639 1.4699 1.7639 0 0 0 1.4699 1.7639 1.4699 1.7639 0 0 0 1.4699-1.7639 1.4699 1.7639 0 0 0-1.4699-1.7639zm0 0.58796a0.88194 1.1759 0 0 1 0.88194 1.1759 0.88194 1.1759 0 0 1-0.88194 1.1759 0.88194 1.1759 0 0 1-0.88194-1.1759 0.88194 1.1759 0 0 1 0.88194-1.1759z" fill-rule="evenodd"/>
   <path d="m9.1344 8.641a1.4699 1.7639 0 0 0-1.4699 1.7639 1.4699 1.7639 0 0 0 1.4699 1.7639 1.4699 1.7639 0 0 0 1.4699-1.7639 1.4699 1.7639 0 0 0-1.4699-1.7639zm0 0.58796a0.88194 1.1759 0 0 1 0.88194 1.1759 0.88194 1.1759 0 0 1-0.88194 1.1759 0.88194 1.1759 0 0 1-0.88194-1.1759 0.88194 1.1759 0 0 1 0.88194-1.1759z" fill-rule="evenodd"/>
  </g>
 </g>
</svg>
