<?xml version="1.0" encoding="UTF-8" standalone="no"?>
<svg
   xmlns:dc="http://purl.org/dc/elements/1.1/"
   xmlns:cc="http://creativecommons.org/ns#"
   xmlns:rdf="http://www.w3.org/1999/02/22-rdf-syntax-ns#"
   xmlns:svg="http://www.w3.org/2000/svg"
   xmlns="http://www.w3.org/2000/svg"
   xmlns:xlink="http://www.w3.org/1999/xlink"
   xmlns:sodipodi="http://sodipodi.sourceforge.net/DTD/sodipodi-0.dtd"
   xmlns:inkscape="http://www.inkscape.org/namespaces/inkscape"
   height="64"
   width="64"
   version="1.1"
   id="svg13"
   sodipodi:docname="baka-mplayer.svg"
   inkscape:version="1.0.1 (3bc2e813f5, 2020-09-07)">
  <metadata
     id="metadata19">
    <rdf:RDF>
      <cc:Work
         rdf:about="">
        <dc:format>image/svg+xml</dc:format>
        <dc:type
           rdf:resource="http://purl.org/dc/dcmitype/StillImage" />
        <dc:title></dc:title>
      </cc:Work>
    </rdf:RDF>
  </metadata>
  <defs
     id="defs17">
    <linearGradient
       id="linearGradient3764"
       x1="1"
       x2="47"
       gradientUnits="userSpaceOnUse"
       gradientTransform="rotate(-90,23.999998,24)">
      <stop
         style="stop-color:#333;stop-opacity:1"
         id="stop887" />
      <stop
         offset="1"
         style="stop-color:#3d3d3d;stop-opacity:1"
         id="stop889" />
    </linearGradient>
    <linearGradient
       id="linearGradient891"
       x1="26.678"
       x2="26.678"
       y1="35.381"
       y2="17.782"
       gradientUnits="userSpaceOnUse"
       gradientTransform="translate(87.781413)">
      <stop
         stop-color="#e14664"
         offset="0"
         id="stop949" />
      <stop
         stop-color="#ff5c7b"
         offset="1"
         id="stop951" />
    </linearGradient>
    <linearGradient
       id="linearGradient899"
       x1="37.2"
       x2="37.2"
       y1="36.124"
       y2="18.096"
       gradientUnits="userSpaceOnUse"
       gradientTransform="translate(87.781413)">
      <stop
         stop-color="#aad22d"
         offset="0"
         id="stop954" />
      <stop
         stop-color="#dbf97c"
         offset="1"
         id="stop956" />
    </linearGradient>
    <linearGradient
       id="linearGradient907"
       x1="23.688"
       x2="23.688"
       y1="45.978"
       y2="31.186"
       gradientUnits="userSpaceOnUse"
       gradientTransform="translate(87.781413)">
      <stop
         stop-color="#0077c2"
         offset="0"
         id="stop959" />
      <stop
         stop-color="#1ba7ff"
         offset="1"
         id="stop961" />
    </linearGradient>
    <linearGradient
       id="linearGradient915"
       x1="34.38"
       x2="34.38"
       y1="46.935"
       y2="30.814"
       gradientUnits="userSpaceOnUse"
       gradientTransform="translate(87.781413)">
      <stop
         stop-color="#1abda2"
         offset="0"
         id="stop964" />
      <stop
         stop-color="#27f1d1"
         stop-opacity=".99608"
         offset="1"
         id="stop966" />
    </linearGradient>
    <linearGradient
       id="b-3"
       x1="399.57"
       x2="399.57"
       y1="545.8"
       y2="517.8"
       gradientTransform="matrix(2.1429,0,0,2.1429,-680.66,-1107.5)"
       gradientUnits="userSpaceOnUse">
      <stop
         stop-color="#3889e9"
         offset="0"
         id="stop969" />
      <stop
         stop-color="#5ea5fb"
         offset="1"
         id="stop971" />
    </linearGradient>
    <style
       type="text/css"
       id="style974" />
    <style
       type="text/css"
       id="style976" />
    <filter
       id="filter1057"
       x="-.027"
       y="-.027"
       width="1.054"
       height="1.054"
       color-interpolation-filters="sRGB">
      <feGaussianBlur
         stdDeviation="0.61875"
         id="feGaussianBlur978" />
    </filter>
    <linearGradient
       id="linearGradient1053"
       x1="-127"
       x2="-72"
       y1="60"
       y2="5"
       gradientTransform="translate(203.93,-0.054156)"
       gradientUnits="userSpaceOnUse">
      <stop
         stop-color="#1d2123"
         offset="0"
         id="stop981" />
      <stop
         stop-color="#33393e"
         stop-opacity=".99608"
         offset="1"
         id="stop983" />
    </linearGradient>
    <style
       type="text/css"
       id="style910" />
    <style
       type="text/css"
       id="style912" />
    <linearGradient
       id="b-3-3"
       x1="399.57"
       x2="399.57"
       y1="545.8"
       y2="517.8"
       gradientTransform="matrix(2.1429,0,0,2.1429,-590.11859,-1107.5)"
       gradientUnits="userSpaceOnUse">
      <stop
         stop-color="#3889e9"
         offset="0"
         id="stop914" />
      <stop
         stop-color="#5ea5fb"
         offset="1"
         id="stop916" />
    </linearGradient>
    <style
       type="text/css"
       id="style919" />
    <style
       type="text/css"
       id="style921" />
    <style
       type="text/css"
       id="style923" />
    <style
       type="text/css"
       id="style925" />
    <filter
       id="filter11290"
       x="-.024"
       y="-.024"
       width="1.048"
       height="1.048"
       color-interpolation-filters="sRGB">
      <feGaussianBlur
         stdDeviation="0.15875313"
         id="feGaussianBlur927" />
    </filter>
    <linearGradient
       id="linearGradient1005"
       x1=".73911"
       x2="16.388"
       y1="16.296"
       y2=".64687"
       gradientTransform="matrix(3.7796,0,0,3.7796,-0.1307485,0.025917)"
       gradientUnits="userSpaceOnUse">
      <stop
         stop-color="#1d2123"
         offset="0"
         id="stop930" />
      <stop
         stop-color="#33393e"
         offset="1"
         id="stop932" />
    </linearGradient>
    <linearGradient
       inkscape:collect="always"
       xlink:href="#b-3"
       id="linearGradient1095"
       gradientUnits="userSpaceOnUse"
       gradientTransform="matrix(2.1429,0,0,2.1429,-592.87859,-1107.5)"
       x1="399.57"
       y1="545.8"
       x2="399.57"
       y2="517.8" />
  </defs>
  <sodipodi:namedview
     pagecolor="#ffffff"
     bordercolor="#666666"
     borderopacity="1"
     objecttolerance="10"
     gridtolerance="10"
     guidetolerance="10"
     inkscape:pageopacity="0"
     inkscape:pageshadow="2"
     inkscape:window-width="1920"
     inkscape:window-height="935"
     id="namedview15"
     showgrid="false"
     inkscape:zoom="4.0364584"
     inkscape:cx="33.81167"
     inkscape:cy="47.584277"
     inkscape:window-x="0"
     inkscape:window-y="38"
     inkscape:window-maximized="1"
     inkscape:current-layer="svg13"
     inkscape:document-rotation="0" />
  <linearGradient
     id="a"
     gradientUnits="userSpaceOnUse"
     x1="24.061005"
     x2="24.061005"
     y1="46.96283"
     y2="1.015124">
    <stop
       offset="0"
       stop-color="#729fcf"
       id="stop2" />
    <stop
       offset="1"
       stop-color="#00f89a"
       stop-opacity=".988235"
       id="stop4" />
  </linearGradient>
  <circle
     transform="matrix(3.7796,0,0,3.7796,-0.10278795,0.02458453)"
     cx="8.4937"
     cy="8.46"
     r="7.9376998"
     filter="url(#filter11290)"
     opacity="0.25"
     stroke-width="0.14032"
     id="circle937" />
  <path
     d="m 62.000399,32.00045 c 0,3.5964 -0.63305,7.0448 -1.794,10.24 -0.80698,2.2212 -1.8686,4.3212 -3.1519,6.2636 -0.537541,0.8167 -1.1155,1.6054 -1.729001,2.3633 -1.9641,2.4257 -4.2982,4.5382 -6.9186,6.2526 -0.96493,0.63187 -1.9678,1.2099 -3.0061,1.7277 -4.032099,2.0179 -8.5839,3.153 -13.401,3.153 -4.8171,0 -9.3689,-1.1351 -13.401,-3.1531 -1.038399,-0.51799 -2.0425,-1.096 -3.0074,-1.7277 -2.653499,-1.7376 -5.015496,-3.8832 -6.9956965,-6.349 -0.61468,-0.76408 -1.1915,-1.56 -1.729,-2.3841 -1.249,-1.9102 -2.2837,-3.9712 -3.0747,-6.1494 -1.1608,-3.1949 -1.7927,-6.6419 -1.7927,-10.237 0,-16.569 13.4319975,-30.001 30.0009975,-30.001 8.317,0 15.843,3.3846 21.277,8.8507 1.5661,1.5747 2.9584,3.3234 4.1436,5.214 1.120499,1.7805 2.0572,3.6882 2.785699,5.6951 1.161,3.196 1.7941,6.6442 1.7941,10.24 z"
     fill="url(#linearGradient1005)"
     stroke-width="0.11719"
     id="path939"
     style="fill:url(#linearGradient1005)" />
  <g
     style="opacity:0.2"
     transform="matrix(1.9999929,0,0,1.9999929,-57.805277,-66.572002)"
     id="g854" />
  <g
     transform="matrix(3.7796,0,0,3.7796,145.7,0.45588)"
     fill="#5e4aa6"
     stroke-width="0.26458"
     id="g1028">
    <circle
       cx="-330.35001"
       cy="-328.37"
       r="0"
       image-rendering="optimizeSpeed"
       id="circle1006" />
    <circle
       cx="-330.35001"
       cy="-328.38"
       r="0"
       image-rendering="optimizeSpeed"
       id="circle1008" />
    <circle
       cx="-330.35001"
       cy="-328.38"
       r="0"
       image-rendering="optimizeSpeed"
       id="circle1010" />
    <circle
       cx="-352.63"
       cy="-336.84"
       r="0"
       image-rendering="optimizeSpeed"
       id="circle1012" />
    <circle
       cx="-330.35001"
       cy="-328.37"
       r="0"
       image-rendering="optimizeSpeed"
       id="circle1014" />
    <circle
       cx="-305.84"
       cy="-328.26999"
       r="0"
       image-rendering="optimizeSpeed"
       id="circle1016" />
    <circle
       cx="-305.84"
       cy="-328.28"
       r="0"
       image-rendering="optimizeSpeed"
       id="circle1018" />
    <circle
       cx="-305.84"
       cy="-328.28"
       r="0"
       image-rendering="optimizeSpeed"
       id="circle1020" />
    <circle
       cx="-328.12"
       cy="-336.73999"
       r="0"
       image-rendering="optimizeSpeed"
       id="circle1022" />
    <circle
       cx="-305.84"
       cy="-328.26999"
       r="0"
       image-rendering="optimizeSpeed"
       id="circle1024" />
    <circle
       cx="-305.03"
       cy="-328.69"
       r="0"
       id="circle1026" />
  </g>
  <circle
     cx="177.71001"
     cy="32"
     r="0"
     fill="url(#b-3)"
     stroke-width="1.5715"
     id="circle1030"
     style="fill:url(#b-3)" />
  <circle
     cx="-1176.8"
     cy="-1241.1"
     r="0"
     fill="#5e4aa6"
     id="circle1032" />
  <circle
     cx="-77.313004"
     cy="24.311001"
     r="0"
     fill="#5e4aa6"
     fill-rule="evenodd"
     id="circle1034" />
  <g
     id="g1129"
     transform="matrix(0.5555553,0,0,0.5555553,46.336322,52.734524)"
     style="stroke-width:1.00006;stroke-miterlimit:4;stroke-dasharray:none">
    <path
       style="fill:none;fill-rule:evenodd;stroke:#ffffff;stroke-width:1.80000083;stroke-miterlimit:4;stroke-dasharray:none;stroke-opacity:1"
       d="m -51.5653,-63.129983 c -2.239992,2.284792 -2.239992,13.219953 -2.239992,20.143929 0,25.133911 14.559949,35.413874 27.999901,35.413874 13.439952,0 27.999901,-10.281963 27.999901,-35.413874 0,-6.855376 0,-17.859137 -2.239992,-20.143929 -2.239992,-2.284792 -17.07994,4.806783 -21.559924,9.376367 h -8.39997 C -34.48536,-58.3232 -49.325307,-65.414775 -51.5653,-63.129983 Z"
       id="path846" />
    <g
       style="fill:#ffffff;stroke-width:0.500032;stroke-miterlimit:4;stroke-dasharray:none"
       transform="matrix(1.9999929,0,0,1.9999929,-57.805277,-67.571967)"
       id="g862">
      <path
         d="M 19,23.172 C 19,24.734 17.657,26 16,26 c -1.657,0 -3,-1.266 -3,-2.828 0,-1.5623 6,-1.5623 6,0 z"
         id="path856"
         style="stroke-width:0.500032;stroke-miterlimit:4;stroke-dasharray:none" />
      <path
         style="fill-rule:evenodd;stroke-width:0.500032;stroke-miterlimit:4;stroke-dasharray:none"
         d="m 10,9 a 5,6 0 0 0 -5,6 5,6 0 0 0 5,6 5,6 0 0 0 5,-6 5,6 0 0 0 -5,-6 z m 0,2 a 3,4 0 0 1 3,4 3,4 0 0 1 -3,4 3,4 0 0 1 -3,-4 3,4 0 0 1 3,-4 z"
         id="path858" />
      <path
         style="fill-rule:evenodd;stroke-width:0.500032;stroke-miterlimit:4;stroke-dasharray:none"
         d="m 22,9 a 5,6 0 0 0 -5,6 5,6 0 0 0 5,6 5,6 0 0 0 5,-6 5,6 0 0 0 -5,-6 z m 0,2 a 3,4 0 0 1 3,4 3,4 0 0 1 -3,4 3,4 0 0 1 -3,-4 3,4 0 0 1 3,-4 z"
         id="path860" />
    </g>
  </g>
  <g
     transform="matrix(3.7796,0,0,3.7796,233.48141,0.45588)"
     fill="#5e4aa6"
     stroke-width="0.26458"
     id="g973">
    <circle
       cx="-330.35001"
       cy="-328.37"
       r="0"
       image-rendering="optimizeSpeed"
       id="circle951" />
    <circle
       cx="-330.35001"
       cy="-328.38"
       r="0"
       image-rendering="optimizeSpeed"
       id="circle953" />
    <circle
       cx="-330.35001"
       cy="-328.38"
       r="0"
       image-rendering="optimizeSpeed"
       id="circle955" />
    <circle
       cx="-352.63"
       cy="-336.84"
       r="0"
       image-rendering="optimizeSpeed"
       id="circle957" />
    <circle
       cx="-330.35001"
       cy="-328.37"
       r="0"
       image-rendering="optimizeSpeed"
       id="circle959" />
    <circle
       cx="-305.84"
       cy="-328.26999"
       r="0"
       image-rendering="optimizeSpeed"
       id="circle961" />
    <circle
       cx="-305.84"
       cy="-328.28"
       r="0"
       image-rendering="optimizeSpeed"
       id="circle963" />
    <circle
       cx="-305.84"
       cy="-328.28"
       r="0"
       image-rendering="optimizeSpeed"
       id="circle965" />
    <circle
       cx="-328.12"
       cy="-336.73999"
       r="0"
       image-rendering="optimizeSpeed"
       id="circle967" />
    <circle
       cx="-305.84"
       cy="-328.26999"
       r="0"
       image-rendering="optimizeSpeed"
       id="circle969" />
    <circle
       cx="-305.03"
       cy="-328.69"
       r="0"
       id="circle971" />
  </g>
  <circle
     cx="265.49142"
     cy="32"
     r="0"
     fill="url(#b-3)"
     stroke-width="1.5715"
     id="circle975"
     style="fill:url(#linearGradient1095)" />
  <g
     fill="#5e4aa6"
     id="g1005"
     transform="translate(87.781413)">
    <circle
       cx="-1176.8"
       cy="-1241.1"
       r="0"
       id="circle977" />
    <circle
       cx="-77.313004"
       cy="24.311001"
       r="0"
       fill-rule="evenodd"
       id="circle979" />
    <g
       transform="matrix(3.7796,0,0,3.7796,148.46,0.45588)"
       stroke-width="0.26458"
       id="g1003">
      <circle
         cx="-330.35001"
         cy="-328.37"
         r="0"
         image-rendering="optimizeSpeed"
         id="circle981" />
      <circle
         cx="-330.35001"
         cy="-328.38"
         r="0"
         image-rendering="optimizeSpeed"
         id="circle983" />
      <circle
         cx="-330.35001"
         cy="-328.38"
         r="0"
         image-rendering="optimizeSpeed"
         id="circle985" />
      <circle
         cx="-352.63"
         cy="-336.84"
         r="0"
         image-rendering="optimizeSpeed"
         id="circle987" />
      <circle
         cx="-330.35001"
         cy="-328.37"
         r="0"
         image-rendering="optimizeSpeed"
         id="circle989" />
      <circle
         cx="-305.84"
         cy="-328.26999"
         r="0"
         image-rendering="optimizeSpeed"
         id="circle991" />
      <circle
         cx="-305.84"
         cy="-328.28"
         r="0"
         image-rendering="optimizeSpeed"
         id="circle993" />
      <circle
         cx="-305.84"
         cy="-328.28"
         r="0"
         image-rendering="optimizeSpeed"
         id="circle995" />
      <circle
         cx="-328.12"
         cy="-336.73999"
         r="0"
         image-rendering="optimizeSpeed"
         id="circle997" />
      <circle
         cx="-305.84"
         cy="-328.26999"
         r="0"
         image-rendering="optimizeSpeed"
         id="circle999" />
      <circle
         cx="-305.03"
         cy="-328.69"
         r="0"
         id="circle1001" />
    </g>
  </g>
  <circle
     cx="268.2514"
     cy="32"
     r="0"
     fill="url(#b-3-3)"
     stroke-width="1.5715"
     id="circle1007"
     style="fill:url(#b-3-3)" />
  <g
     transform="translate(163.80941)"
     fill="#5e4aa6"
     id="g1027">
    <circle
       cx="-1250.1"
       cy="-1241.1"
       r="0"
       id="circle1009" />
    <circle
       cx="-150.58"
       cy="24.311001"
       r="0"
       fill-rule="evenodd"
       id="circle1011" />
    <circle
       cx="-1163.3"
       cy="-1241.6"
       r="0"
       id="circle1013" />
    <circle
       cx="-63.768002"
       cy="23.855"
       r="0"
       fill-rule="evenodd"
       id="circle1015" />
    <g
       transform="matrix(3.7796,0,0,3.7796,-17.538,-38.72)"
       stroke-width="0.26458"
       id="g1025">
      <circle
         cx="-330.35001"
         cy="-328.38"
         r="0"
         id="circle1017" />
      <circle
         cx="-312.10999"
         cy="-326.25"
         r="0"
         id="circle1019" />
      <circle
         cx="-306.01999"
         cy="-333.07001"
         r="0"
         id="circle1021" />
      <circle
         cx="-308.84"
         cy="-326.01001"
         r="0"
         id="circle1023" />
    </g>
  </g>
</svg>
