<?xml version="1.0" encoding="UTF-8"?>
<svg width="64" height="64" version="1.1" viewBox="0 0 16.933 16.933" xmlns="http://www.w3.org/2000/svg" xmlns:cc="http://creativecommons.org/ns#" xmlns:dc="http://purl.org/dc/elements/1.1/" xmlns:rdf="http://www.w3.org/1999/02/22-rdf-syntax-ns#">
 <metadata>
  <rdf:RDF>
   <cc:Work rdf:about="">
    <dc:format>image/svg+xml</dc:format>
    <dc:type rdf:resource="http://purl.org/dc/dcmitype/StillImage"/>
    <dc:title/>
   </cc:Work>
  </rdf:RDF>
 </metadata>
 <defs>
  <filter id="a" color-interpolation-filters="sRGB">
   <feColorMatrix result="result7" values="1 0 0 0 0 0 1 0 0 0 0 0 1 0 0 0 0 0 1 0"/>
   <feGaussianBlur result="result6" stdDeviation="5"/>
   <feComposite in="result6" in2="result7" operator="atop" result="result91"/>
   <feComposite in2="result91" operator="in"/>
  </filter>
  <style type="text/css"/>
  <style type="text/css"/>
  <style type="text/css"/>
  <style type="text/css"/>
  <style type="text/css"/>
  <style type="text/css"/>
  <style type="text/css"/>
  <filter id="filter11290" x="-.024" y="-.024" width="1.048" height="1.048" color-interpolation-filters="sRGB">
   <feGaussianBlur stdDeviation="0.15875313"/>
  </filter>
  <linearGradient id="linearGradient1005" x1=".8714" x2="16.246" y1="16.164" y2=".78937" gradientTransform="matrix(3.7796 0 0 3.7796 -.13267 .024566)" gradientUnits="userSpaceOnUse">
   <stop stop-color="#00c8ff" offset="0"/>
   <stop stop-color="#14a0ff" offset="1"/>
  </linearGradient>
 </defs>
 <g transform="matrix(.26458 0 0 .26458 3.3473e-6 4.5325e-6)">
  <circle transform="matrix(3.7796 0 0 3.7796 -.1028 .024568)" cx="8.4937" cy="8.46" r="7.9377" filter="url(#filter11290)" opacity=".25" stroke-width=".14032"/>
  <path d="m62 32c0 3.5964-0.63305 7.0448-1.794 10.24-0.80698 2.2212-1.8686 4.3212-3.1519 6.2636-0.53754 0.8167-1.1155 1.6054-1.729 2.3633-1.9641 2.4257-4.2982 4.5382-6.9186 6.2526-0.96493 0.63187-1.9678 1.2099-3.0062 1.7277-4.0321 2.0179-8.5838 3.153-13.401 3.153-4.8171 0-9.3689-1.1351-13.401-3.1531-1.0384-0.518-2.0425-1.096-3.0074-1.7277-2.6535-1.7376-5.0155-3.8832-6.9957-6.349-0.61468-0.76408-1.1915-1.56-1.729-2.3841-1.249-1.9102-2.2837-3.9712-3.0747-6.1494-1.1608-3.1949-1.7927-6.6419-1.7927-10.237 0-16.569 13.432-30.001 30.001-30.001 8.317 0 15.843 3.3846 21.277 8.8507 1.5661 1.5747 2.9584 3.3234 4.1436 5.214 1.1205 1.7805 2.0572 3.6882 2.7857 5.6951 1.161 3.196 1.7941 6.6442 1.7941 10.24z" fill="url(#linearGradient1005)" stroke-width=".11719"/>
  <g fill="#5e4aa6">
   <circle cx="-1401.7" cy="-1262.9" r="0"/>
   <circle cx="-302.14" cy="2.5994" r="0" fill-rule="evenodd"/>
   <circle cx="-1124.8" cy="-1279.3" r="0"/>
   <g transform="matrix(3.7796,0,0,3.7796,123.83,-38.184)" stroke-width=".26458">
    <circle cx="-299.02" cy="-338.77" r="0"/>
    <circle cx="-8.1062" cy="-3.9487" r="0" fill-rule="evenodd"/>
    <circle cx="-278.25" cy="-357.69" r="0"/>
    <circle cx="12.663" cy="-22.859" r="0" fill-rule="evenodd"/>
   </g>
   <g transform="matrix(3.7796,0,0,3.7796,100.78,-21.399)" stroke-width=".26458">
    <circle cx="-330.35" cy="-328.38" r="0"/>
    <circle cx="-312.11" cy="-326.25" r="0"/>
    <circle cx="-306.02" cy="-333.07" r="0"/>
    <circle cx="-308.84" cy="-326.01" r="0"/>
   </g>
  </g>
 </g>
 <circle cx="-297.6" cy="-338.47" r="0" fill="#5e4aa6" stroke-width=".26458"/>
 <g transform="translate(32.763 -10.103)" fill="#5e4aa6" stroke-width=".26458">
  <circle cx="-299.02" cy="-338.77" r="0"/>
  <circle cx="-8.1062" cy="-3.9487" r="0" fill-rule="evenodd"/>
  <circle cx="-278.25" cy="-357.69" r="0"/>
  <circle cx="12.663" cy="-22.859" r="0" fill-rule="evenodd"/>
 </g>
 <g transform="translate(26.79 .48651)">
  <g transform="translate(-26.834 -280.07)" fill="#fff">
   <circle cx="11.906" cy="287.58" r="1.389" opacity=".25" style="paint-order:stroke markers fill"/>
   <circle cx="11.906" cy="287.58" r="1.389" opacity=".25" style="paint-order:stroke markers fill"/>
   <circle cx="8.819" cy="287.74" r="3.087" style="paint-order:stroke markers fill"/>
   <circle cx="8.731" cy="288.27" r="2.646" style="paint-order:stroke markers fill"/>
   <circle cx="5.424" cy="288.97" r="2.469" style="paint-order:stroke markers fill"/>
   <circle cx="5.821" cy="289.33" r="2.117" style="paint-order:stroke markers fill"/>
   <circle cx="12.215" cy="289.59" r="1.852" style="paint-order:stroke markers fill"/>
   <circle cx="11.642" cy="289.86" r="1.587" style="paint-order:stroke markers fill"/>
   <path d="m5.424 288.05h6.791v3.395h-6.791z" style="paint-order:stroke markers fill"/>
   <path d="m5.821 288.53h5.821v2.91h-5.821z" style="paint-order:stroke markers fill"/>
  </g>
  <path d="m-18.36 6.404a1.426 1.426 0 1 0 0 2.852 1.426 1.426 0 0 0 0-2.852zm6e-3 0.626a0.805 0.805 0 0 1 0.805 0.805 0.805 0.805 0 0 1-0.805 0.805 0.805 0.805 0 0 1-0.805-0.805 0.805 0.805 0 0 1 0.805-0.805z" fill="#32abff"/>
  <path d="m-16.746 7.934c-0.374 0-0.708 0.148-0.962 0.382l0.408 0.472a0.851 0.851 0 0 1 0.108-0.09 0.716 0.716 0 0 1 0.356-0.127c0.044-4e-3 0.09-2e-3 0.14 0a0.751 0.751 0 0 1 0.663 0.433 0.829 0.829 0 0 1 0.085 0.402v2e-3a0.313 0.313 0 0 0 0.625 0v-0.051c0-0.024-2e-3 -0.049-4e-3 -0.073l-1e-3 -0.01-1e-3 -0.025h-1e-3a1.421 1.421 0 0 0-1.417-1.315m-3.254-4e-3a1.426 1.426 0 1 0 0 2.852 1.426 1.426 0 0 0 0-2.852zm6e-3 0.626a0.805 0.805 0 0 1 0.804 0.805 0.805 0.805 0 0 1-0.804 0.805 0.805 0.805 0 0 1-0.805-0.805 0.805 0.805 0 0 1 0.805-0.805z" fill="#32abff"/>
  <path transform="matrix(.20374 0 0 .20374 -21.428 6.4)" d="m6.973 7.471c-0.365 0-0.744 0.04-1.094 0.094a2.842 2.842 0 0 1 1.719 2.594c0 0.16-0.036 0.316-0.063 0.469a3.839 3.839 0 0 1 2.938 2.063c0.791 1.577 0.522 3.357-0.719 4.594 0.962-0.959 2.934-2.702 4.156-3.844-0.512-3.375-3.409-5.969-6.938-5.969z" fill="#f44" filter="url(#a)"/>
  <path d="m-19.382 10.46-0.652 0.026 2.295-2.13 0.41 0.46-1.78 1.653z" fill="#32abff"/>
  <circle cx="-15.622" cy="10.24" r=".306" fill="#32abff"/>
 </g>
 <g transform="matrix(.26458 0 0 .26458 27.05 -8.1795)" fill="#5e4aa6">
  <circle cx="-1401.7" cy="-1262.9" r="0"/>
  <circle cx="-302.14" cy="2.5994" r="0" fill-rule="evenodd"/>
  <circle cx="-1124.8" cy="-1279.3" r="0"/>
 </g>
 <g transform="translate(59.812 -18.282)" fill="#5e4aa6" stroke-width=".26458">
  <circle cx="-299.02" cy="-338.77" r="0"/>
  <circle cx="-8.1062" cy="-3.9487" r="0" fill-rule="evenodd"/>
  <circle cx="-278.25" cy="-357.69" r="0"/>
  <circle cx="12.663" cy="-22.859" r="0" fill-rule="evenodd"/>
 </g>
</svg>
