<?xml version="1.0" encoding="UTF-8"?>
<svg width="64" height="64" version="1.1" viewBox="0 0 16.933 16.933" xmlns="http://www.w3.org/2000/svg" xmlns:cc="http://creativecommons.org/ns#" xmlns:dc="http://purl.org/dc/elements/1.1/" xmlns:rdf="http://www.w3.org/1999/02/22-rdf-syntax-ns#">
 <defs>
  <linearGradient id="linearGradient885" x1="75.814" x2="75.814" y1="21.025" y2="105.67" gradientTransform="matrix(.47642 0 0 .47642 .64854 -.03511)" gradientUnits="userSpaceOnUse">
   <stop stop-color="#fff" offset="0"/>
   <stop stop-color="#ffefda" offset="1"/>
  </linearGradient>
  <filter id="filter11290" x="-.024" y="-.024" width="1.048" height="1.048" color-interpolation-filters="sRGB">
   <feGaussianBlur stdDeviation="0.15875313"/>
  </filter>
  <linearGradient id="linearGradient1005" x1=".8714" x2="16.246" y1="16.164" y2=".78937" gradientTransform="translate(-.035099 .0064999)" gradientUnits="userSpaceOnUse">
   <stop stop-color="#ffc841" offset="0"/>
   <stop stop-color="#ffc841" offset="1"/>
  </linearGradient>
 </defs>
 <metadata>
  <rdf:RDF>
   <cc:Work rdf:about="">
    <dc:format>image/svg+xml</dc:format>
    <dc:type rdf:resource="http://purl.org/dc/dcmitype/StillImage"/>
   </cc:Work>
  </rdf:RDF>
 </metadata>
 <circle cx="8.4665" cy="8.4665" r="7.9377" filter="url(#filter11290)" opacity=".25" stroke-width=".14032"/>
 <path d="m16.404 8.4665c0 0.95153-0.16749 1.8639-0.47465 2.7093-0.21351 0.58768-0.49439 1.1433-0.83392 1.6572-0.14222 0.21608-0.29514 0.42475-0.45746 0.62528-0.51966 0.64179-1.1372 1.2007-1.8305 1.6543-0.2553 0.16718-0.52064 0.32011-0.79535 0.45711-1.0668 0.53389-2.2711 0.83422-3.5456 0.83422-1.2745 0-2.4788-0.30032-3.5456-0.83424-0.27474-0.13705-0.5404-0.28998-0.79569-0.45711-0.70206-0.45973-1.327-1.0274-1.8509-1.6798-0.16263-0.20216-0.31524-0.41274-0.45746-0.63078-0.33046-0.5054-0.60422-1.0507-0.8135-1.627-0.30712-0.8453-0.47431-1.7573-0.47431-2.7085 0-4.3838 3.5538-7.9376 7.9376-7.9376 2.2005 0 4.1917 0.89549 5.6294 2.3417 0.41436 0.41663 0.78273 0.8793 1.0963 1.3795 0.29646 0.47108 0.54429 0.97582 0.73704 1.5068 0.30718 0.84559 0.47468 1.7579 0.47468 2.7093z" fill="url(#linearGradient1005)" stroke-width=".031006"/>
 <path transform="scale(.26458)" d="m23.072 3.3496c-0.23287 0.072483-0.46492 0.1486-0.69531 0.22656-0.23234 0.078625-0.46166 0.16002-0.69141 0.24414s-0.45847 0.17022-0.68555 0.25977c-0.22708 0.089543-0.4534 0.18246-0.67773 0.27734s-0.44647 0.19087-0.66797 0.29102-0.44156 0.20326-0.66016 0.30859c-0.2186 0.10533-0.43673 0.21378-0.65234 0.32422s-0.43003 0.22243-0.64258 0.33789c-0.19538 0.10614-0.3893 0.21585-0.58203 0.32617v14.244c0 13.497 0.027921 15.837 0.20312 16.842 0.46463 2.6644 1.9575 5.1616 4.0391 6.7539 0.82955 0.6346 7.1382 4.3322 8.1738 4.791 0.7817 0.34614 1.9092 0.68854 2.8086 0.85352 0.34046 0.06259 1.2741 0.087734 2.0762 0.058593 1.6696-0.060587 2.9409-0.36949 4.2852-1.0469 1.2909-0.65054 7.0111-4.0061 7.7383-4.5391 1.7525-1.2845 3.295-3.5214 3.9688-5.7539 0.28234-0.93538 0.30263-1.2626 0.34961-6 0.041273-4.1564 0.01421-5.1777-0.15625-6.0039-0.42891-2.0738-1.3297-3.8019-2.7773-5.3262-1.1423-1.2029-1.5625-1.4901-5.4355-3.7383-4.2944-2.4929-5.2986-2.9111-7.541-3.1348l-0.89453-0.089843v6.8926l1.0059 0.083984c7.4564 0.63029 12.034 8.5308 8.9355 15.418-1.3236 2.9415-3.9817 5.1592-7.2246 6.0273-1.4115 0.37785-3.8316 0.40709-5.1699 0.0625-3.9697-1.0223-6.9149-3.9542-8.0605-8.0195-0.28065-0.99608-0.28552-1.1594-0.32812-15.49l-0.041015-15.48zm8.2539 10.939c-0.059665 0-0.41711 0.092881-0.79492 0.20508l-0.6875 0.20312v3.4434c0 1.893 0.041404 3.4414 0.089844 3.4414 0.048269 0 0.4057-0.099955 0.79492-0.22266l0.70703-0.22461v-3.4219c0-1.8825-0.04971-3.4238-0.10938-3.4238zm-4.2168 1.9883c-0.045797 0-0.4032 0.1841-0.79492 0.4082l-0.71289 0.4082v7.5781l1.5625-1.4336 0.013672-3.4785c0.008089-1.9141-0.022497-3.4824-0.068359-3.4824z" fill="url(#linearGradient885)"/>
</svg>
