<?xml version="1.0" encoding="UTF-8"?>
<svg width="64" height="64" version="1.1" viewBox="0 0 64 64" xmlns="http://www.w3.org/2000/svg" xmlns:cc="http://creativecommons.org/ns#" xmlns:dc="http://purl.org/dc/elements/1.1/" xmlns:rdf="http://www.w3.org/1999/02/22-rdf-syntax-ns#">
 <metadata>
  <rdf:RDF>
   <cc:Work rdf:about="">
    <dc:format>image/svg+xml</dc:format>
    <dc:type rdf:resource="http://purl.org/dc/dcmitype/StillImage"/>
    <dc:title/>
   </cc:Work>
  </rdf:RDF>
 </metadata>
 <defs>
  <filter id="filter11290" x="-.024" y="-.024" width="1.048" height="1.048" color-interpolation-filters="sRGB">
   <feGaussianBlur stdDeviation="0.15875313"/>
  </filter>
  <linearGradient id="linearGradient1005" x1=".8714" x2="16.246" y1="16.164" y2=".78937" gradientTransform="matrix(3.7796 0 0 3.7796 99.392 -22.484)" gradientUnits="userSpaceOnUse">
   <stop stop-color="#ffc841" offset="0"/>
   <stop stop-color="#ffc841" offset="1"/>
  </linearGradient>
 </defs>
 <g transform="translate(-99.525 22.508)">
  <circle transform="matrix(3.7796 0 0 3.7796 99.423 -22.484)" cx="8.4937" cy="8.46" r="7.9377" filter="url(#filter11290)" opacity=".25" stroke-width=".14032"/>
  <path d="m161.53 9.4911c0 3.5964-0.63304 7.0448-1.794 10.24-0.80698 2.2212-1.8686 4.3212-3.1519 6.2636-0.53753 0.8167-1.1155 1.6054-1.729 2.3633-1.9641 2.4257-4.2982 4.5382-6.9186 6.2526-0.96493 0.63187-1.9678 1.2099-3.0061 1.7277-4.0321 2.0179-8.5839 3.153-13.401 3.153s-9.3689-1.1351-13.401-3.1531c-1.0384-0.51799-2.0425-1.096-3.0074-1.7277-2.6536-1.7376-5.0155-3.8832-6.9957-6.349-0.61468-0.76408-1.1915-1.56-1.729-2.3841-1.249-1.9102-2.2837-3.9712-3.0747-6.1494-1.1608-3.1949-1.7927-6.6419-1.7927-10.237 0-16.569 13.432-30.001 30.001-30.001 8.317 0 15.843 3.3846 21.277 8.8507 1.5661 1.5747 2.9584 3.3234 4.1436 5.214 1.1205 1.7805 2.0572 3.6882 2.7857 5.6951 1.161 3.196 1.7941 6.6442 1.7941 10.24z" fill="url(#linearGradient1005)" stroke-width=".11719"/>
 </g>
 <circle cx="-1168.4" cy="-1251.4" r="0" fill="#5e4aa6"/>
 <circle cx="-68.876" cy="14.092" r="0" fill="#5e4aa6" fill-rule="evenodd"/>
 <path d="m27.196 15.529v5.4904c-0.67489 0.02745-1.9137 0-2.5602 0h-4.3028v2.7452s2.3592-0.04117 2.3216 0c1.2631-0.01922 1.6654 0.8978 1.7962 1.5093v13.589c-0.04842 0.38646-0.0073 1.3451-0.89005 1.3726 0.04076 0.03569-3.2278 0-3.2278 0v2.7452h4.4663c0.7552-0.02745 1.6672 0 2.3967 0v5.4904l2.7452-0.05094v-5.4395h2.7024l0.08579 5.4904h2.7452l-0.08578-5.4904c8.2784 0 8.2784-4.1178 8.2784-6.1794 0-2.0562-0.87054-4.7987-4.1178-4.8014 1.8747 0.0026 2.7452-3.0973 2.7452-5.4904 0-3.0974-2.7452-5.4904-6.863-5.4904v-5.4904h-2.7452v5.4904c-0.81978 0-1.913-0.0302-2.7452 0v-5.4904zm2.7452 8.2356c2.7452 0 6.8634 5.2e-5 6.863 3.4315 4.76e-4 3.4318-4.1178 3.4315-6.863 3.4315zm0 9.6082c5.4904 1.72e-4 8.2361 5.2e-5 8.2356 3.4315 5.71e-4 3.4318-2.7452 3.4315-8.2356 3.4315z" fill="#fff" stroke-width="1.0167"/>
 <g transform="matrix(3.7796 0 0 3.7796 99.423 -22.484)" fill="#5e4aa6" stroke-width=".26458">
  <circle cx="-330.35" cy="-328.38" r="0"/>
  <circle cx="-312.11" cy="-326.25" r="0"/>
  <circle cx="-306.02" cy="-333.07" r="0"/>
  <circle cx="-308.84" cy="-326.01" r="0"/>
 </g>
</svg>
