<?xml version="1.0" encoding="UTF-8"?>
<svg width="64" height="64" version="1.1" xmlns="http://www.w3.org/2000/svg" xmlns:cc="http://creativecommons.org/ns#" xmlns:dc="http://purl.org/dc/elements/1.1/" xmlns:rdf="http://www.w3.org/1999/02/22-rdf-syntax-ns#">
 <metadata>
  <rdf:RDF>
   <cc:Work rdf:about="">
    <dc:format>image/svg+xml</dc:format>
    <dc:type rdf:resource="http://purl.org/dc/dcmitype/StillImage"/>
    <dc:title/>
   </cc:Work>
  </rdf:RDF>
 </metadata>
 <defs>
  <filter id="filter11290" x="-.024" y="-.024" width="1.048" height="1.048" color-interpolation-filters="sRGB">
   <feGaussianBlur stdDeviation="0.15875313"/>
  </filter>
  <linearGradient id="linearGradient1005" x1=".73911" x2="16.388" y1="16.296" y2=".64687" gradientTransform="matrix(3.7796 0 0 3.7796 -.1327 .024566)" gradientUnits="userSpaceOnUse">
   <stop stop-color="#dc2828" offset="0"/>
   <stop stop-color="#ff4141" offset="1"/>
  </linearGradient>
 </defs>
 <circle transform="scale(3.7796)" cx="8.4665" cy="8.4665" r="7.9377" filter="url(#filter11290)" opacity=".25" stroke-width=".14032"/>
 <path d="m62 32c0 3.5964-0.63304 7.0448-1.794 10.24-0.80698 2.2212-1.8686 4.3212-3.1519 6.2636-0.53754 0.8167-1.1155 1.6054-1.729 2.3633-1.9641 2.4257-4.2982 4.5382-6.9186 6.2526-0.96493 0.63187-1.9678 1.2099-3.0061 1.7277-4.0321 2.0179-8.5839 3.153-13.401 3.153s-9.3689-1.1351-13.401-3.1531c-1.0384-0.518-2.0425-1.096-3.0074-1.7277-2.6535-1.7376-5.0155-3.8832-6.9957-6.349-0.61468-0.76408-1.1915-1.56-1.729-2.3841-1.249-1.9102-2.2837-3.9712-3.0747-6.1494-1.1608-3.1949-1.7927-6.6419-1.7927-10.237 0-16.569 13.432-30.001 30.001-30.001 8.317 0 15.843 3.3846 21.277 8.8507 1.5661 1.5747 2.9584 3.3234 4.1436 5.214 1.1205 1.7805 2.0572 3.6882 2.7857 5.6951 1.161 3.196 1.7941 6.6442 1.7941 10.24z" fill="url(#linearGradient1005)" stroke-width=".11719"/>
 <g fill="#5e4aa6">
  <circle cx="-1248.7" cy="-1241.6" r="0"/>
  <circle cx="-1140.3" cy="-1301.8" r="0"/>
  <circle cx="-1158.1" cy="-1246" r="0"/>
  <circle cx="-1157.3" cy="-1267.7" r="0"/>
  <circle cx="-57.756" cy="-2.1829" r="0" fill-rule="evenodd"/>
 </g>
 <g transform="matrix(1.2767,0,0,1.2767,1.4,1.3585)" fill="#fffffe">
  <g fill="#fffffe">
   <!-- color: #eeeeee -->
   <g fill="#fffffe">
    <path d="m23.656 9-6.656 16.563 21.375 2.688c0.016-0.051 0.016-0.105 0.031-0.156l-16.406-7.594 1.719-11.5h-0.063m5.063 1.125c-0.109 0.02-0.211 0.137-0.25 0.125l-4.563 8.938 13.512 7.242c0.352-0.016 0.34-0.227 0.207-0.43l-9.219-8.406 0.563-7.03c-0.027-0.367-0.141-0.457-0.25-0.438m-10.813 0.188c-5.246 2.336-8.906 7.574-8.906 13.688 0 8.285 6.715 15 15 15 6.152 0 11.438-3.699 13.75-9h-23.438m17.188-18.16-1.656 5.094 7.449 7.227c0.215 0.313 1.395 0.5 1.645-0.414 0-4.898-2.277-8.984-5.906-11.719-0.848-0.438-1.395-0.543-1.531-0.188" fill="#fffffe"/>
   </g>
  </g>
 </g>
 <g fill="#5e4aa6">
  <circle cx="-1318.4" cy="-1241.6" r="0"/>
  <circle cx="-218.82" cy="23.855" r="0" fill-rule="evenodd"/>
  <g transform="translate(-69.666)">
   <circle cx="-1248.7" cy="-1241.6" r="0"/>
   <circle cx="-1140.3" cy="-1301.8" r="0"/>
   <circle cx="-1158.1" cy="-1246" r="0"/>
  </g>
  <circle cx="-1227" cy="-1267.7" r="0"/>
  <circle cx="-127.42" cy="-2.1829" r="0" fill-rule="evenodd"/>
  <g transform="matrix(3.7796 0 0 3.7796 -176.46 -35.653)" stroke-width=".26458">
   <circle cx="-330.35" cy="-328.38" r="0"/>
   <circle cx="-312.11" cy="-326.25" r="0"/>
   <circle cx="-306.02" cy="-333.07" r="0"/>
   <circle cx="-308.84" cy="-326.01" r="0"/>
   <circle cx="-279" cy="-327.65" r="0"/>
   <circle cx="11.912" cy="7.1715" r="0" fill-rule="evenodd"/>
  </g>
 </g>
</svg>
