<?xml version="1.0" encoding="UTF-8"?>
<svg width="64" height="64" version="1.1" viewBox="0 0 64 64" xmlns="http://www.w3.org/2000/svg" xmlns:cc="http://creativecommons.org/ns#" xmlns:dc="http://purl.org/dc/elements/1.1/" xmlns:rdf="http://www.w3.org/1999/02/22-rdf-syntax-ns#">
 <metadata>
  <rdf:RDF>
   <cc:Work rdf:about="">
    <dc:format>image/svg+xml</dc:format>
    <dc:type rdf:resource="http://purl.org/dc/dcmitype/StillImage"/>
   </cc:Work>
  </rdf:RDF>
 </metadata>
 <defs>
  <style type="text/css"/>
  <style type="text/css"/>
  <style type="text/css"/>
  <style type="text/css"/>
  <style type="text/css"/>
  <style type="text/css"/>
  <style type="text/css"/>
  <style type="text/css"/>
  <filter id="filter11290" x="-.024" y="-.024" width="1.048" height="1.048" color-interpolation-filters="sRGB">
   <feGaussianBlur stdDeviation="0.15875313"/>
  </filter>
  <linearGradient id="linearGradient1005-3" x1=".8714" x2="11.672" y1="16.164" y2="5.3637" gradientTransform="matrix(-3.7796 0 0 3.7796 64.133 .024567)" gradientUnits="userSpaceOnUse">
   <stop stop-color="#dd3744" offset="0"/>
   <stop stop-color="#fd7e14" offset="1"/>
  </linearGradient>
 </defs>
 <circle transform="matrix(3.7796 0 0 3.7796 -1.3999e-6 -1.3999e-6)" cx="8.4665" cy="8.4665" r="7.9377" filter="url(#filter11290)" opacity=".25" stroke-width=".14032"/>
 <path d="m1.9992 32c0 3.5964 0.63305 7.0448 1.794 10.24 0.80698 2.2212 1.8686 4.3212 3.1519 6.2636 0.53753 0.8167 1.1155 1.6054 1.729 2.3633 1.9641 2.4257 4.2982 4.5382 6.9186 6.2526 0.96493 0.63187 1.9678 1.2099 3.0061 1.7277 4.0321 2.0179 8.5839 3.153 13.401 3.153s9.3689-1.1351 13.401-3.1531c1.0384-0.51799 2.0425-1.096 3.0074-1.7277 2.6535-1.7376 5.0155-3.8832 6.9957-6.349 0.61468-0.76408 1.1915-1.56 1.729-2.3841 1.249-1.9102 2.2837-3.9712 3.0747-6.1494 1.1608-3.1949 1.7927-6.6419 1.7927-10.237 0-16.569-13.432-30.001-30.001-30.001-8.317 0-15.843 3.3846-21.277 8.8507-1.5661 1.5747-2.9584 3.3234-4.1436 5.214-1.1205 1.7805-2.0572 3.6882-2.7857 5.6951-1.161 3.196-1.7941 6.6442-1.7941 10.24z" fill="url(#linearGradient1005-3)" stroke-width=".11719"/>
 <g fill="#5e4aa6">
  <g transform="matrix(3.7796 0 0 3.7796 3.9134 -70.548)" stroke-width=".26458">
   <circle cx="-330.35" cy="-328.38" r="0"/>
   <circle cx="-312.11" cy="-326.25" r="0"/>
   <circle cx="-306.02" cy="-333.07" r="0"/>
   <circle cx="-308.84" cy="-326.01" r="0"/>
  </g>
  <circle cx="-968.95" cy="-1279.3" r="0"/>
  <circle cx="-850.49" cy="-1318.6" r="0"/>
  <circle cx="249.05" cy="-53.109" r="0" fill-rule="evenodd"/>
  <circle cx="-771.99" cy="-1390.1" r="0"/>
  <circle cx="327.55" cy="-124.58" r="0" fill-rule="evenodd"/>
 </g>
 <g transform="matrix(1.1429 0 0 1.1429 9.7134 17.142)">
  <g transform="translate(0,-10)" fill="#fdffff">
   <circle cx="12" cy="18" r="2"/>
   <circle cx="17" cy="18" r="2"/>
   <circle cx="22" cy="18" r="2"/>
   <circle cx="27" cy="18" r="2"/>
  </g>
  <g transform="translate(0,-5)" fill="#fdf4ff">
   <circle cx="12" cy="18" r="2"/>
   <circle cx="17" cy="18" r="2"/>
   <circle cx="22" cy="18" r="2"/>
   <circle cx="27" cy="18" r="2"/>
  </g>
  <g fill="#fff">
   <circle transform="translate(5,-5)" cx="27" cy="18" r="2"/>
   <circle transform="translate(-20,-5)" cx="27" cy="18" r="2"/>
   <circle transform="translate(-20)" cx="27" cy="18" r="2"/>
   <circle transform="translate(-15)" cx="27" cy="18" r="2"/>
   <circle transform="translate(5)" cx="27" cy="18" r="2"/>
   <circle cx="27" cy="18" r="2"/>
  </g>
 </g>
</svg>
