<?xml version="1.0" encoding="UTF-8"?>
<svg width="64" height="64" version="1.1" xmlns="http://www.w3.org/2000/svg" xmlns:cc="http://creativecommons.org/ns#" xmlns:dc="http://purl.org/dc/elements/1.1/" xmlns:rdf="http://www.w3.org/1999/02/22-rdf-syntax-ns#">
 <metadata>
  <rdf:RDF>
   <cc:Work rdf:about="">
    <dc:format>image/svg+xml</dc:format>
    <dc:type rdf:resource="http://purl.org/dc/dcmitype/StillImage"/>
    <dc:title/>
   </cc:Work>
  </rdf:RDF>
 </metadata>
 <defs>
  <style type="text/css"/>
  <filter id="filter11290" x="-.024" y="-.024" width="1.048" height="1.048" color-interpolation-filters="sRGB">
   <feGaussianBlur stdDeviation="0.15875313"/>
  </filter>
  <linearGradient id="linearGradient1005" x1=".8714" x2="16.246" y1="16.164" y2=".78937" gradientTransform="matrix(3.7796 0 0 3.7796 -.13241 .025278)" gradientUnits="userSpaceOnUse">
   <stop stop-color="#00c8ff" offset="0"/>
   <stop stop-color="#14a0ff" offset="1"/>
  </linearGradient>
 </defs>
 <g transform="matrix(3.7796 0 0 3.7796 .00058415 -.00017177)" fill="#5e4aa6" stroke-width=".26458">
  <circle cx="-347.64" cy="-328.38" r="0"/>
  <circle cx="-56.726" cy="6.44" r="0" fill-rule="evenodd"/>
  <g transform="translate(-.0272 .0065001)">
   <circle cx="-330.35" cy="-328.38" r="0"/>
   <circle cx="-312.11" cy="-326.25" r="0"/>
   <circle cx="-306.02" cy="-333.07" r="0"/>
   <circle cx="-308.84" cy="-326.01" r="0"/>
  </g>
 </g>
 <circle transform="matrix(3.7796 0 0 3.7796 -.10279 .024585)" cx="8.4937" cy="8.46" r="7.9377" filter="url(#filter11290)" opacity=".25" stroke-width=".14032"/>
 <path d="m62 32c0 3.5964-0.63305 7.0448-1.794 10.24-0.80698 2.2212-1.8686 4.3212-3.1519 6.2636-0.53754 0.8167-1.1155 1.6054-1.729 2.3633-1.9641 2.4257-4.2982 4.5382-6.9186 6.2526-0.96493 0.63187-1.9678 1.2098-3.0061 1.7277-4.0321 2.0179-8.5839 3.153-13.401 3.153s-9.3689-1.1351-13.401-3.1531c-1.0384-0.518-2.0425-1.096-3.0074-1.7277-2.6535-1.7376-5.0155-3.8832-6.9957-6.349-0.61468-0.76408-1.1915-1.56-1.729-2.3841-1.249-1.9102-2.2837-3.9712-3.0747-6.1494-1.1608-3.1949-1.7927-6.6419-1.7927-10.237 0-16.569 13.432-30.001 30.001-30.001 8.317 0 15.843 3.3846 21.277 8.8507 1.5661 1.5747 2.9584 3.3234 4.1436 5.214 1.1205 1.7805 2.0572 3.6882 2.7857 5.6951 1.161 3.196 1.7941 6.6442 1.7941 10.24z" fill="url(#linearGradient1005)" stroke-width=".11719"/>
 <g transform="matrix(3.7796 0 0 3.7796 -338.15 -5.1847)" fill="#5e4aa6" stroke-width=".26458">
  <circle cx="-347.64" cy="-328.38" r="0"/>
  <circle cx="-56.726" cy="6.44" r="0" fill-rule="evenodd"/>
  <g transform="translate(-.0272 .0065001)">
   <circle cx="-330.35" cy="-328.38" r="0"/>
   <circle cx="-312.11" cy="-326.25" r="0"/>
   <circle cx="-306.02" cy="-333.07" r="0"/>
   <circle cx="-308.84" cy="-326.01" r="0"/>
  </g>
 </g>
 <g transform="translate(-338.15 -5.1845)" fill="#5e4aa6">
  <circle cx="-1380.5" cy="-1288.2" r="0"/>
  <g transform="matrix(3.7796,0,0,3.7796,-131.88,-47.113)" stroke-width=".26458">
   <circle cx="-299.02" cy="-338.77" r="0"/>
   <circle cx="-8.1062" cy="-3.9487" r="0" fill-rule="evenodd"/>
   <circle cx="-278.25" cy="-357.69" r="0"/>
   <circle cx="12.663" cy="-22.859" r="0" fill-rule="evenodd"/>
  </g>
  <g transform="matrix(3.7796,0,0,3.7796,-255.81,-8.9046)" stroke-width=".26458">
   <circle cx="-330.35" cy="-328.38" r="0"/>
   <circle cx="-312.11" cy="-326.25" r="0"/>
   <circle cx="-306.02" cy="-333.07" r="0"/>
   <circle cx="-308.84" cy="-326.01" r="0"/>
  </g>
 </g>
 <g transform="translate(-376.57 -491.8)" fill="#fff">
  <path d="m428.57 503.8c0-0.0562-0.6399 0.38104-1.4225 0.97118-7.3615 5.5516-16.563 10.407-21.715 11.458l-0.97136 0.19856-0.36828 0.96714c-1.2831 3.3731-4.9305 5.7652-10.649 6.9833-0.90345 0.19249-1.8727 0.46695-2.1536 0.60977-0.86789 0.44125-1.8763 1.4508-2.3322 2.3354-0.36832 0.71434-0.4253 1.0224-0.36966 1.9908 0.0468 0.81502 0.15926 1.2467 0.38952 1.4968 0.30965 0.33644 1.0815 0.51291 0.88648 0.20258-0.15336-0.24405 0.5733-1.022 1.2918-1.3824 1.1633-0.58348 2.9706-0.85926 4.8616-0.83384 0.33764 6e-3 0.74383 0.0207 1.024 0.0424 1.4161 0.1002 2.8238 0.36707 3.9923 0.80359 0.6283 0.23474 1.1604 0.51628 1.5922 0.8332 1.6123 0.82581 2.9686 1.9003 4.1079 3.141 9.7e-4 -0.0412 5e-3 -0.0804 5e-3 -0.12243 7e-3 -0.81564 0.0356-1.483 0.0615-1.4834 0.026-3.2e-4 0.12875 0.20861 0.22794 0.46506 0.24052 0.62104 0.36584 1.2748 0.3895 1.9322 2.1626 2.6856 3.4414 5.9942 4.1922 9.1881 1.0007-1.7048 1.9488-3.9594 1.953-4.8801 6e-3 -1.3629 0.9667 1.3124 1.2698 3.5374l0.20949 1.5406 0.37992-0.93281c0.63507-1.5598 0.93332-3.1907 0.9351-5.1116 9.6e-4 -0.99294-0.0494-1.9657-0.11297-2.1618-0.0632-0.1961-0.0461-0.3567 0.0386-0.3567 0.20796 0 1.862 1.6571 2.2857 2.2896 0.39983 0.59683 0.43017 0.33618 0.10195-0.87561-0.86789-3.2047-3.3572-6.224-6.9091-8.3805l-1.3725-0.83319 0.68317-0.02c0.37544-0.0109 0.91544-0.0718 1.2-0.13525l0.51748-0.11512-0.69-0.23085-0.69-0.23153 1.1055-0.22208c0.60819-0.12215 1.6565-0.47825 2.3288-0.79148l1.2219-0.56939-1.5519 0.0605-1.5525 0.0605 1.2075-0.40048c1.68-0.55746 4.9031-2.2213 4.6967-2.4242-0.0291-0.029-0.63253 0.0958-1.3403 0.27662-2.0809 0.53127-2.3006 0.4149-0.67427-0.35737 1.5832-0.7518 3.8113-2.1663 4.9061-3.1148l0.69003-0.59764-1.2931 0.57341c-1.0985 0.48707-3.6058 1.2875-4.0334 1.2875-0.0721 0 0.36979-0.25649 0.98163-0.57003 1.7518-0.89773 3.3349-2.0866 5.2929-3.9735l1.8113-1.7458-1.4656 0.76119c-1.3862 0.71948-4.312 2.0118-4.312 1.9047 0-0.0272 0.36884-0.30606 0.81941-0.61919 1.7484-1.215 4.8436-4.4253 6.6756-6.9234l0.66542-0.90659-1.6313 1.2532c-1.7416 1.3385-5.2987 3.6071-5.4394 3.4688-0.0463-0.0456 0.12677-0.21943 0.38473-0.38566 0.7616-0.49062 4.114-4.2137 5.9569-6.6151 0.94006-1.225 1.7093-2.2732 1.7093-2.3294z" fill="#fff"/>
 </g>
</svg>
