<?xml version="1.0" encoding="UTF-8"?>
<svg width="64" height="64" version="1.1" xmlns="http://www.w3.org/2000/svg" xmlns:cc="http://creativecommons.org/ns#" xmlns:dc="http://purl.org/dc/elements/1.1/" xmlns:rdf="http://www.w3.org/1999/02/22-rdf-syntax-ns#">
 <metadata>
  <rdf:RDF>
   <cc:Work rdf:about="">
    <dc:format>image/svg+xml</dc:format>
    <dc:type rdf:resource="http://purl.org/dc/dcmitype/StillImage"/>
    <dc:title/>
   </cc:Work>
  </rdf:RDF>
 </metadata>
 <defs>
  <style type="text/css"/>
  <style type="text/css"/>
  <linearGradient id="b-3" x1="399.57" x2="399.57" y1="545.8" y2="517.8" gradientTransform="matrix(2.1429 0 0 2.1429 -753.93 -1107.5)" gradientUnits="userSpaceOnUse">
   <stop stop-color="#3889e9" offset="0"/>
   <stop stop-color="#5ea5fb" offset="1"/>
  </linearGradient>
  <style type="text/css"/>
  <style type="text/css"/>
  <style type="text/css"/>
  <style type="text/css"/>
  <linearGradient id="b-3-36" x1="399.57" x2="399.57" y1="545.8" y2="517.8" gradientTransform="matrix(2.1429 0 0 2.1429 -815.03 -1107.5)" gradientUnits="userSpaceOnUse">
   <stop stop-color="#3889e9" offset="0"/>
   <stop stop-color="#5ea5fb" offset="1"/>
  </linearGradient>
  <style type="text/css"/>
  <style type="text/css"/>
  <linearGradient id="b-3-3" x1="399.57" x2="399.57" y1="545.8" y2="517.8" gradientTransform="matrix(2.1429 0 0 2.1429 -812.27 -1107.5)" gradientUnits="userSpaceOnUse">
   <stop stop-color="#3889e9" offset="0"/>
   <stop stop-color="#5ea5fb" offset="1"/>
  </linearGradient>
  <style type="text/css"/>
  <style type="text/css"/>
  <style type="text/css"/>
  <style type="text/css"/>
  <filter id="filter11290" x="-.024" y="-.024" width="1.048" height="1.048" color-interpolation-filters="sRGB">
   <feGaussianBlur stdDeviation="0.15875313"/>
  </filter>
  <linearGradient id="linearGradient1005" x1=".73911" x2="16.388" y1="16.296" y2=".64687" gradientTransform="matrix(3.7796 0 0 3.7796 -.13035 .026367)" gradientUnits="userSpaceOnUse">
   <stop stop-color="#1d2123" offset="0"/>
   <stop stop-color="#33393e" offset="1"/>
  </linearGradient>
 </defs>
 <circle transform="matrix(3.7796 0 0 3.7796 -.10279 .024585)" cx="8.4937" cy="8.46" r="7.9377" filter="url(#filter11290)" opacity=".25" stroke-width=".14032"/>
 <path d="m62 32c0 3.5964-0.63305 7.0448-1.794 10.24-0.80698 2.2212-1.8686 4.3212-3.1519 6.2636-0.53754 0.8167-1.1155 1.6054-1.729 2.3633-1.9641 2.4257-4.2982 4.5382-6.9186 6.2526-0.96493 0.63187-1.9678 1.2099-3.0061 1.7277-4.0321 2.0179-8.5839 3.153-13.401 3.153s-9.3689-1.1351-13.401-3.1531c-1.0384-0.51799-2.0425-1.096-3.0074-1.7277-2.6535-1.7376-5.0155-3.8832-6.9957-6.349-0.61468-0.76408-1.1915-1.56-1.729-2.3841-1.249-1.9102-2.2837-3.9712-3.0747-6.1494-1.1608-3.1949-1.7927-6.6419-1.7927-10.237 0-16.569 13.432-30.001 30.001-30.001 8.317 0 15.843 3.3846 21.277 8.8507 1.5661 1.5747 2.9584 3.3234 4.1436 5.214 1.1205 1.7805 2.0572 3.6882 2.7857 5.6951 1.161 3.196 1.7941 6.6442 1.7941 10.24z" fill="url(#linearGradient1005)" stroke-width=".11719"/>
 <g transform="matrix(3.7796 0 0 3.7796 72.439 .45588)" fill="#5e4aa6" stroke-width=".26458">
  <circle cx="-330.35" cy="-328.37" r="0" image-rendering="optimizeSpeed"/>
  <circle cx="-330.35" cy="-328.38" r="0" image-rendering="optimizeSpeed"/>
  <circle cx="-330.35" cy="-328.38" r="0" image-rendering="optimizeSpeed"/>
  <circle cx="-352.63" cy="-336.84" r="0" image-rendering="optimizeSpeed"/>
  <circle cx="-330.35" cy="-328.37" r="0" image-rendering="optimizeSpeed"/>
  <circle cx="-305.84" cy="-328.27" r="0" image-rendering="optimizeSpeed"/>
  <circle cx="-305.84" cy="-328.28" r="0" image-rendering="optimizeSpeed"/>
  <circle cx="-305.84" cy="-328.28" r="0" image-rendering="optimizeSpeed"/>
  <circle cx="-328.12" cy="-336.74" r="0" image-rendering="optimizeSpeed"/>
  <circle cx="-305.84" cy="-328.27" r="0" image-rendering="optimizeSpeed"/>
  <circle cx="-305.03" cy="-328.69" r="0"/>
 </g>
 <circle cx="104.44" cy="32" r="0" fill="url(#b-3)" stroke-width="1.5715"/>
 <circle cx="-1250.1" cy="-1241.1" r="0" fill="#5e4aa6"/>
 <circle cx="-150.58" cy="24.311" r="0" fill="#5e4aa6" fill-rule="evenodd"/>
 <g transform="matrix(1.3193 0 0 1.3193 12.169 12.17)" fill="#fff">
  <path d="m16.963 7.376c-0.282-2.796-2.735-5.198-5.341-5.198-2.662 0-5.109 0.921-7.057 2.451-0.517-0.016-1.108 0.041-1.725 0.189-1.737 0.415-3.001 1.357-2.823 2.104 0.118 0.495 0.844 0.774 1.819 0.79-1.05 1.73-1.666 3.751-1.666 5.918 0 4.196 2.277 7.855 5.652 9.846-0.336 0.364-0.645 0.874-0.861 1.484-0.48 1.355-0.318 2.646 0.359 2.885 0.677 0.24 1.613-0.664 2.093-2.018 0.102-0.292 0.17-0.579 0.215-0.855 0.266 0.088 0.551 0.162 0.857 0.206 1.422 0.205 2.657-0.205 2.76-0.916 0.102-0.71-0.966-1.454-2.389-1.659-0.609-0.088-1.179-0.058-1.645 0.056-0.021-0.074-0.858-1.596-0.931-2.777-0.094-1.537 0.364-3.055 1.361-4.227 0.39-0.456 0.859-0.823 1.359-1.135-0.09 1.204 0.189 2.143 0.757 2.285 0.745 0.187 1.701-1.068 2.135-2.799 0.037-0.149 0.064-0.295 0.091-0.441l0.396-0.069c2.811-0.597 4.881-3.182 4.584-6.12z"/>
  <path d="m13.1 22.686c0.282 2.796 2.735 5.198 5.341 5.198 2.662 0 5.109-0.921 7.057-2.451 0.518 0.016 1.108-0.041 1.726-0.188 1.737-0.415 3.001-1.358 2.823-2.105-0.118-0.495-0.844-0.774-1.819-0.79 1.05-1.73 1.666-3.75 1.666-5.917 0-4.196-2.277-7.855-5.652-9.846 0.336-0.364 0.646-0.874 0.861-1.484 0.479-1.355 0.318-2.646-0.359-2.885-0.677-0.24-1.613 0.664-2.093 2.018-0.102 0.292-0.17 0.579-0.215 0.854-0.266-0.088-0.551-0.162-0.857-0.206-1.422-0.205-2.657 0.205-2.76 0.916-0.102 0.71 0.966 1.454 2.389 1.659 0.609 0.088 1.179 0.058 1.646-0.056 0.021 0.074 0.858 1.596 0.931 2.777 0.094 1.537-0.364 3.055-1.361 4.227-0.39 0.457-0.858 0.825-1.358 1.137 0.09-1.204-0.188-2.143-0.757-2.285-0.745-0.186-1.701 1.068-2.135 2.799-0.037 0.149-0.064 0.295-0.091 0.441l-0.396 0.069c-2.815 0.595-4.884 3.181-4.587 6.118z"/>
 </g>
 <g transform="matrix(3.7796 0 0 3.7796 11.33 .45588)" fill="#5e4aa6" stroke-width=".26458">
  <circle cx="-330.35" cy="-328.37" r="0" image-rendering="optimizeSpeed"/>
  <circle cx="-330.35" cy="-328.38" r="0" image-rendering="optimizeSpeed"/>
  <circle cx="-330.35" cy="-328.38" r="0" image-rendering="optimizeSpeed"/>
  <circle cx="-352.63" cy="-336.84" r="0" image-rendering="optimizeSpeed"/>
  <circle cx="-330.35" cy="-328.37" r="0" image-rendering="optimizeSpeed"/>
  <circle cx="-305.84" cy="-328.27" r="0" image-rendering="optimizeSpeed"/>
  <circle cx="-305.84" cy="-328.28" r="0" image-rendering="optimizeSpeed"/>
  <circle cx="-305.84" cy="-328.28" r="0" image-rendering="optimizeSpeed"/>
  <circle cx="-328.12" cy="-336.74" r="0" image-rendering="optimizeSpeed"/>
  <circle cx="-305.84" cy="-328.27" r="0" image-rendering="optimizeSpeed"/>
  <circle cx="-305.03" cy="-328.69" r="0"/>
 </g>
 <circle cx="43.336" cy="32" r="0" fill="url(#b-3-36)" stroke-width="1.5715"/>
 <g transform="translate(-134.37)" fill="#5e4aa6">
  <circle cx="-1176.8" cy="-1241.1" r="0"/>
  <circle cx="-77.313" cy="24.311" r="0" fill-rule="evenodd"/>
  <g transform="matrix(3.7796 0 0 3.7796 148.46 .45588)" stroke-width=".26458">
   <circle cx="-330.35" cy="-328.37" r="0" image-rendering="optimizeSpeed"/>
   <circle cx="-330.35" cy="-328.38" r="0" image-rendering="optimizeSpeed"/>
   <circle cx="-330.35" cy="-328.38" r="0" image-rendering="optimizeSpeed"/>
   <circle cx="-352.63" cy="-336.84" r="0" image-rendering="optimizeSpeed"/>
   <circle cx="-330.35" cy="-328.37" r="0" image-rendering="optimizeSpeed"/>
   <circle cx="-305.84" cy="-328.27" r="0" image-rendering="optimizeSpeed"/>
   <circle cx="-305.84" cy="-328.28" r="0" image-rendering="optimizeSpeed"/>
   <circle cx="-305.84" cy="-328.28" r="0" image-rendering="optimizeSpeed"/>
   <circle cx="-328.12" cy="-336.74" r="0" image-rendering="optimizeSpeed"/>
   <circle cx="-305.84" cy="-328.27" r="0" image-rendering="optimizeSpeed"/>
   <circle cx="-305.03" cy="-328.69" r="0"/>
  </g>
 </g>
 <circle cx="46.096" cy="32" r="0" fill="url(#b-3-3)" stroke-width="1.5715"/>
 <g transform="translate(-58.342)" fill="#5e4aa6">
  <circle cx="-1250.1" cy="-1241.1" r="0"/>
  <circle cx="-150.58" cy="24.311" r="0" fill-rule="evenodd"/>
  <circle cx="-1163.3" cy="-1241.6" r="0"/>
  <circle cx="-63.768" cy="23.855" r="0" fill-rule="evenodd"/>
  <g transform="matrix(3.7796,0,0,3.7796,-17.538,-38.72)" stroke-width=".26458">
   <circle cx="-330.35" cy="-328.38" r="0"/>
   <circle cx="-312.11" cy="-326.25" r="0"/>
   <circle cx="-306.02" cy="-333.07" r="0"/>
   <circle cx="-308.84" cy="-326.01" r="0"/>
  </g>
 </g>
</svg>
