<?xml version="1.0" encoding="UTF-8" standalone="no"?>
<svg
   xmlns:dc="http://purl.org/dc/elements/1.1/"
   xmlns:cc="http://creativecommons.org/ns#"
   xmlns:rdf="http://www.w3.org/1999/02/22-rdf-syntax-ns#"
   xmlns:svg="http://www.w3.org/2000/svg"
   xmlns="http://www.w3.org/2000/svg"
   xmlns:xlink="http://www.w3.org/1999/xlink"
   xmlns:sodipodi="http://sodipodi.sourceforge.net/DTD/sodipodi-0.dtd"
   xmlns:inkscape="http://www.inkscape.org/namespaces/inkscape"
   viewBox="0 0 64 64"
   version="1.1"
   id="svg29"
   sodipodi:docname="caffeine.svg"
   width="64"
   height="64"
   inkscape:version="1.0.2 (e86c870879, 2021-01-15)">
  <metadata
     id="metadata35">
    <rdf:RDF>
      <cc:Work
         rdf:about="">
        <dc:format>image/svg+xml</dc:format>
        <dc:type
           rdf:resource="http://purl.org/dc/dcmitype/StillImage" />
        <dc:title></dc:title>
      </cc:Work>
    </rdf:RDF>
  </metadata>
  <defs
     id="defs33">
    <linearGradient
       id="linearGradient891"
       x1="26.678"
       x2="26.678"
       y1="35.381"
       y2="17.782"
       gradientUnits="userSpaceOnUse"
       gradientTransform="translate(73.868975)">
      <stop
         stop-color="#e14664"
         offset="0"
         id="stop862" />
      <stop
         stop-color="#ff5c7b"
         offset="1"
         id="stop864" />
    </linearGradient>
    <linearGradient
       id="linearGradient899"
       x1="37.2"
       x2="37.2"
       y1="36.124"
       y2="18.096"
       gradientUnits="userSpaceOnUse"
       gradientTransform="translate(73.868975)">
      <stop
         stop-color="#aad22d"
         offset="0"
         id="stop867" />
      <stop
         stop-color="#dbf97c"
         offset="1"
         id="stop869" />
    </linearGradient>
    <linearGradient
       id="linearGradient907"
       x1="23.688"
       x2="23.688"
       y1="45.978"
       y2="31.186"
       gradientUnits="userSpaceOnUse"
       gradientTransform="translate(73.868975)">
      <stop
         stop-color="#0077c2"
         offset="0"
         id="stop872" />
      <stop
         stop-color="#1ba7ff"
         offset="1"
         id="stop874" />
    </linearGradient>
    <linearGradient
       id="linearGradient915"
       x1="34.38"
       x2="34.38"
       y1="46.935"
       y2="30.814"
       gradientUnits="userSpaceOnUse"
       gradientTransform="translate(73.868975)">
      <stop
         stop-color="#1abda2"
         offset="0"
         id="stop877" />
      <stop
         stop-color="#27f1d1"
         stop-opacity=".99608"
         offset="1"
         id="stop879" />
    </linearGradient>
    <linearGradient
       id="b-3"
       x1="399.57"
       x2="399.57"
       y1="545.8"
       y2="517.8"
       gradientTransform="matrix(2.1429,0,0,2.1429,-680.66,-1107.5)"
       gradientUnits="userSpaceOnUse">
      <stop
         stop-color="#3889e9"
         offset="0"
         id="stop882" />
      <stop
         stop-color="#5ea5fb"
         offset="1"
         id="stop884" />
    </linearGradient>
    <style
       type="text/css"
       id="style887" />
    <style
       type="text/css"
       id="style889" />
    <filter
       id="filter1057"
       x="-.027"
       y="-.027"
       width="1.054"
       height="1.054"
       color-interpolation-filters="sRGB">
      <feGaussianBlur
         stdDeviation="0.61875"
         id="feGaussianBlur891" />
    </filter>
    <linearGradient
       id="linearGradient1053"
       x1="-127"
       x2="-72"
       y1="60"
       y2="5"
       gradientTransform="translate(203.93,-0.054156)"
       gradientUnits="userSpaceOnUse">
      <stop
         stop-color="#1d2123"
         offset="0"
         id="stop894" />
      <stop
         stop-color="#33393e"
         stop-opacity=".99608"
         offset="1"
         id="stop896" />
    </linearGradient>
    <linearGradient
       inkscape:collect="always"
       xlink:href="#a"
       id="linearGradient1011"
       gradientUnits="userSpaceOnUse"
       x1="290.41052"
       y1="648.83472"
       x2="290.05167"
       y2="625.01868" />
    <linearGradient
       inkscape:collect="always"
       xlink:href="#a"
       id="linearGradient1013"
       gradientUnits="userSpaceOnUse"
       x1="290.41052"
       y1="648.83472"
       x2="290.05167"
       y2="625.01868" />
    <linearGradient
       inkscape:collect="always"
       xlink:href="#a"
       id="linearGradient1015"
       gradientUnits="userSpaceOnUse"
       x1="290.41052"
       y1="648.83472"
       x2="290.05167"
       y2="625.01868" />
    <linearGradient
       inkscape:collect="always"
       xlink:href="#a"
       id="linearGradient1017"
       gradientUnits="userSpaceOnUse"
       x1="290.41052"
       y1="648.83472"
       x2="290.05167"
       y2="625.01868" />
    <linearGradient
       inkscape:collect="always"
       xlink:href="#a"
       id="linearGradient1019"
       gradientUnits="userSpaceOnUse"
       x1="290.41052"
       y1="648.83472"
       x2="290.05167"
       y2="625.01868" />
    <style
       type="text/css"
       id="style916" />
    <style
       type="text/css"
       id="style918" />
    <linearGradient
       id="b-3-3"
       x1="399.57"
       x2="399.57"
       y1="545.8"
       y2="517.8"
       gradientTransform="matrix(2.1429,0,0,2.1429,-604.03102,-1107.5)"
       gradientUnits="userSpaceOnUse">
      <stop
         stop-color="#3889e9"
         offset="0"
         id="stop920" />
      <stop
         stop-color="#5ea5fb"
         offset="1"
         id="stop922" />
    </linearGradient>
    <style
       type="text/css"
       id="style925" />
    <style
       type="text/css"
       id="style927" />
    <style
       type="text/css"
       id="style929" />
    <style
       type="text/css"
       id="style931" />
    <filter
       id="filter11290"
       x="-.024"
       y="-.024"
       width="1.048"
       height="1.048"
       color-interpolation-filters="sRGB">
      <feGaussianBlur
         stdDeviation="0.15875313"
         id="feGaussianBlur933" />
    </filter>
    <linearGradient
       id="linearGradient1005"
       x1=".73911"
       x2="16.388"
       y1="16.296"
       y2=".64687"
       gradientTransform="matrix(3.7796,0,0,3.7796,-0.13075225,0.025917)"
       gradientUnits="userSpaceOnUse">
      <stop
         stop-color="#1d2123"
         offset="0"
         id="stop936" />
      <stop
         stop-color="#33393e"
         offset="1"
         id="stop938" />
    </linearGradient>
    <linearGradient
       inkscape:collect="always"
       xlink:href="#b-3"
       id="linearGradient1101"
       gradientUnits="userSpaceOnUse"
       gradientTransform="matrix(2.1429,0,0,2.1429,-606.79102,-1107.5)"
       x1="399.57"
       y1="545.8"
       x2="399.57"
       y2="517.8" />
  </defs>
  <sodipodi:namedview
     pagecolor="#ffffff"
     bordercolor="#666666"
     borderopacity="1"
     objecttolerance="10"
     gridtolerance="10"
     guidetolerance="10"
     inkscape:pageopacity="0"
     inkscape:pageshadow="2"
     inkscape:window-width="1920"
     inkscape:window-height="935"
     id="namedview31"
     showgrid="false"
     inkscape:zoom="4.0364583"
     inkscape:cx="30.355204"
     inkscape:cy="28.396629"
     inkscape:window-x="0"
     inkscape:window-y="38"
     inkscape:window-maximized="1"
     inkscape:current-layer="svg29"
     inkscape:document-rotation="0" />
  <linearGradient
     id="a"
     gradientTransform="rotate(-90,23.999998,24)"
     gradientUnits="userSpaceOnUse"
     x1="1"
     x2="47">
    <stop
       offset="0"
       stop-color="#e4e4e4"
       id="stop2" />
    <stop
       offset="1"
       stop-color="#eee"
       id="stop4" />
  </linearGradient>
  <linearGradient
     id="b"
     gradientUnits="userSpaceOnUse"
     x1="23.999928"
     x2="23.999928"
     y1="47.000107"
     y2="1.0000616"
     gradientTransform="matrix(1.3043478,0,0,1.3043478,74.867593,-0.30434935)">
    <stop
       offset="0"
       stop-color="#2a2c2f"
       id="stop7" />
    <stop
       offset="1"
       stop-color="#424649"
       id="stop9" />
  </linearGradient>
  <linearGradient
     gradientUnits="userSpaceOnUse"
     x1="285.00021"
     x2="297.00021"
     xlink:href="#a"
     y1="636.74103"
     y2="636.74103"
     id="linearGradient12" />
  <linearGradient
     id="c"
     gradientUnits="userSpaceOnUse"
     x1="290.41052"
     x2="290.05167"
     xlink:href="#a"
     y1="648.83472"
     y2="625.01868" />
  <circle
     transform="matrix(3.7796,0,0,3.7796,-0.10278795,0.02458453)"
     cx="8.4937"
     cy="8.46"
     r="7.9376998"
     filter="url(#filter11290)"
     opacity="0.25"
     stroke-width="0.14032"
     id="circle943-6" />
  <path
     d="m 62.000393,32.00045 c 0,3.5964 -0.63305,7.0448 -1.794,10.24 -0.80697,2.2212 -1.8686,4.3212 -3.1519,6.2636 -0.53754,0.8167 -1.11549,1.6054 -1.729001,2.3633 -1.96409,2.4257 -4.29819,4.5382 -6.91859,6.2526 -0.964929,0.63187 -1.967799,1.2099 -3.0061,1.7277 -4.0321,2.0179 -8.5839,3.153 -13.401,3.153 -4.817099,0 -9.368904,-1.1351 -13.401004,-3.1531 -1.0384,-0.51799 -2.042501,-1.096 -3.007401,-1.7277 -2.653499,-1.7376 -5.0155,-3.8832 -6.9956993,-6.349 -0.61468,-0.76408 -1.1915,-1.56 -1.729,-2.3841 -1.249,-1.9102 -2.2837,-3.9712 -3.0747,-6.1494 -1.1608,-3.1949 -1.7927,-6.6419 -1.7927,-10.237 0,-16.569 13.4320003,-30.001 30.0010053,-30.001 8.317,0 15.843,3.3846 21.277,8.8507 1.566089,1.5747 2.958389,3.3234 4.14359,5.214 1.120499,1.7805 2.0572,3.6882 2.785699,5.6951 1.161,3.196 1.79411,6.6442 1.79411,10.24 z"
     fill="url(#linearGradient1005)"
     stroke-width="0.11719"
     id="path945"
     style="fill:url(#linearGradient1005)" />
  <g
     transform="matrix(3.7796,0,0,3.7796,145.7,0.45588)"
     fill="#5e4aa6"
     stroke-width="0.26458"
     id="g941">
    <circle
       cx="-330.35001"
       cy="-328.37"
       r="0"
       image-rendering="optimizeSpeed"
       id="circle919" />
    <circle
       cx="-330.35001"
       cy="-328.38"
       r="0"
       image-rendering="optimizeSpeed"
       id="circle921" />
    <circle
       cx="-330.35001"
       cy="-328.38"
       r="0"
       image-rendering="optimizeSpeed"
       id="circle923" />
    <circle
       cx="-352.63"
       cy="-336.84"
       r="0"
       image-rendering="optimizeSpeed"
       id="circle925" />
    <circle
       cx="-330.35001"
       cy="-328.37"
       r="0"
       image-rendering="optimizeSpeed"
       id="circle927" />
    <circle
       cx="-305.84"
       cy="-328.26999"
       r="0"
       image-rendering="optimizeSpeed"
       id="circle929" />
    <circle
       cx="-305.84"
       cy="-328.28"
       r="0"
       image-rendering="optimizeSpeed"
       id="circle931" />
    <circle
       cx="-305.84"
       cy="-328.28"
       r="0"
       image-rendering="optimizeSpeed"
       id="circle933" />
    <circle
       cx="-328.12"
       cy="-336.73999"
       r="0"
       image-rendering="optimizeSpeed"
       id="circle935" />
    <circle
       cx="-305.84"
       cy="-328.26999"
       r="0"
       image-rendering="optimizeSpeed"
       id="circle937" />
    <circle
       cx="-305.03"
       cy="-328.69"
       r="0"
       id="circle939" />
  </g>
  <circle
     cx="177.71001"
     cy="32"
     r="0"
     fill="url(#b-3)"
     stroke-width="1.5715"
     id="circle943"
     style="fill:url(#b-3)" />
  <circle
     cx="-1176.8"
     cy="-1241.1"
     r="0"
     fill="#5e4aa6"
     id="circle945" />
  <circle
     cx="-77.313004"
     cy="24.311001"
     r="0"
     fill="#5e4aa6"
     fill-rule="evenodd"
     id="circle947" />
  <g
     fill="url(#c)"
     transform="matrix(2.5007468,0,0,2.5007468,-692.73434,-1560.328)"
     id="g27"
     style="fill:url(#c)">
    <path
       d="m 295.66688,637 h -1.33334 v -2 h 1.33334 z m 0,-3.33333 h -10.66667 v 6.66666 c 0,1.47276 1.19391,2.66667 2.66667,2.66667 h 4 c 1.47274,0 2.66666,-1.19391 2.66666,-2.66667 v -2 h 1.33334 c 0.73637,0 1.33333,-0.59696 1.33333,-1.33333 v -2 c 0,-0.74 -0.6,-1.33333 -1.33333,-1.33333 z"
       id="path17"
       style="fill:url(#linearGradient1011)" />
    <path
       d="m 286.60282,630.482 c 0,0 -0.1458,0.10908 -0.2912,0.27273 -0.14524,0.16348 -0.31893,0.38933 -0.32139,0.69986 -0.002,0.30445 0.15695,0.51985 0.26266,0.6772 0.1057,0.15735 0.16404,0.25422 0.15944,0.38182 -0.009,0.24106 -0.36504,0.47832 -0.36504,0.47832 l 0.26769,0.49007 c 0,0 0.63208,-0.30182 0.65539,-0.94825 0.0114,-0.31566 -0.1435,-0.54965 -0.25343,-0.71329 -0.10993,-0.16364 -0.16942,-0.26 -0.16867,-0.36168 3.3e-4,-0.0661 0.0767,-0.21546 0.18126,-0.33314 0.10456,-0.11769 0.20811,-0.19637 0.20811,-0.19637 z"
       id="path19"
       style="fill:url(#linearGradient1013)" />
    <path
       d="m 288.60282,630.482 c 0,0 -0.1458,0.10908 -0.2912,0.27273 -0.14524,0.16348 -0.31893,0.38933 -0.32139,0.69986 -0.002,0.30445 0.15695,0.51985 0.26266,0.6772 0.1057,0.15735 0.16404,0.25422 0.15944,0.38182 -0.009,0.24106 -0.36504,0.47832 -0.36504,0.47832 l 0.26769,0.49007 c 0,0 0.63208,-0.30182 0.65539,-0.94825 0.0114,-0.31566 -0.1435,-0.54965 -0.25343,-0.71329 -0.10993,-0.16364 -0.16942,-0.26 -0.16867,-0.36168 3.3e-4,-0.0661 0.0767,-0.21546 0.18126,-0.33314 0.10456,-0.11769 0.20811,-0.19637 0.20811,-0.19637 z"
       id="path21"
       style="fill:url(#linearGradient1015)" />
    <path
       d="m 290.60282,630.482 c 0,0 -0.1458,0.10908 -0.2912,0.27273 -0.14524,0.16348 -0.31893,0.38933 -0.32139,0.69986 -0.002,0.30445 0.15695,0.51985 0.26266,0.6772 0.1057,0.15735 0.16404,0.25422 0.15944,0.38182 -0.009,0.24106 -0.36504,0.47832 -0.36504,0.47832 l 0.26769,0.49007 c 0,0 0.63208,-0.30182 0.65539,-0.94825 0.0114,-0.31566 -0.1435,-0.54965 -0.25343,-0.71329 -0.10993,-0.16364 -0.16942,-0.26 -0.16867,-0.36168 3.3e-4,-0.0661 0.0767,-0.21546 0.18126,-0.33314 0.10456,-0.11769 0.20811,-0.19637 0.20811,-0.19637 z"
       id="path23"
       style="fill:url(#linearGradient1017)" />
    <path
       d="m 292.60282,630.482 c 0,0 -0.1458,0.10908 -0.2912,0.27273 -0.14524,0.16348 -0.31893,0.38933 -0.32139,0.69986 -0.002,0.30445 0.15695,0.51985 0.26266,0.6772 0.1057,0.15735 0.16404,0.25422 0.15944,0.38182 -0.009,0.24106 -0.36504,0.47832 -0.36504,0.47832 l 0.26769,0.49007 c 0,0 0.63208,-0.30182 0.65539,-0.94825 0.0114,-0.31566 -0.1435,-0.54965 -0.25343,-0.71329 -0.10993,-0.16364 -0.16942,-0.26 -0.16867,-0.36168 3.3e-4,-0.0661 0.0767,-0.21546 0.18126,-0.33314 0.10456,-0.11769 0.20811,-0.19637 0.20811,-0.19637 z"
       id="path25"
       style="fill:url(#linearGradient1019)" />
  </g>
  <g
     transform="matrix(3.7796,0,0,3.7796,219.56897,0.45588)"
     fill="#5e4aa6"
     stroke-width="0.26458"
     id="g979">
    <circle
       cx="-330.35001"
       cy="-328.37"
       r="0"
       image-rendering="optimizeSpeed"
       id="circle957" />
    <circle
       cx="-330.35001"
       cy="-328.38"
       r="0"
       image-rendering="optimizeSpeed"
       id="circle959" />
    <circle
       cx="-330.35001"
       cy="-328.38"
       r="0"
       image-rendering="optimizeSpeed"
       id="circle961" />
    <circle
       cx="-352.63"
       cy="-336.84"
       r="0"
       image-rendering="optimizeSpeed"
       id="circle963" />
    <circle
       cx="-330.35001"
       cy="-328.37"
       r="0"
       image-rendering="optimizeSpeed"
       id="circle965" />
    <circle
       cx="-305.84"
       cy="-328.26999"
       r="0"
       image-rendering="optimizeSpeed"
       id="circle967" />
    <circle
       cx="-305.84"
       cy="-328.28"
       r="0"
       image-rendering="optimizeSpeed"
       id="circle969" />
    <circle
       cx="-305.84"
       cy="-328.28"
       r="0"
       image-rendering="optimizeSpeed"
       id="circle971" />
    <circle
       cx="-328.12"
       cy="-336.73999"
       r="0"
       image-rendering="optimizeSpeed"
       id="circle973" />
    <circle
       cx="-305.84"
       cy="-328.26999"
       r="0"
       image-rendering="optimizeSpeed"
       id="circle975" />
    <circle
       cx="-305.03"
       cy="-328.69"
       r="0"
       id="circle977" />
  </g>
  <circle
     cx="251.57898"
     cy="32"
     r="0"
     fill="url(#b-3)"
     stroke-width="1.5715"
     id="circle981"
     style="fill:url(#linearGradient1101)" />
  <g
     fill="#5e4aa6"
     id="g1011"
     transform="translate(73.868975)">
    <circle
       cx="-1176.8"
       cy="-1241.1"
       r="0"
       id="circle983" />
    <circle
       cx="-77.313004"
       cy="24.311001"
       r="0"
       fill-rule="evenodd"
       id="circle985" />
    <g
       transform="matrix(3.7796,0,0,3.7796,148.46,0.45588)"
       stroke-width="0.26458"
       id="g1009">
      <circle
         cx="-330.35001"
         cy="-328.37"
         r="0"
         image-rendering="optimizeSpeed"
         id="circle987" />
      <circle
         cx="-330.35001"
         cy="-328.38"
         r="0"
         image-rendering="optimizeSpeed"
         id="circle989" />
      <circle
         cx="-330.35001"
         cy="-328.38"
         r="0"
         image-rendering="optimizeSpeed"
         id="circle991" />
      <circle
         cx="-352.63"
         cy="-336.84"
         r="0"
         image-rendering="optimizeSpeed"
         id="circle993" />
      <circle
         cx="-330.35001"
         cy="-328.37"
         r="0"
         image-rendering="optimizeSpeed"
         id="circle995" />
      <circle
         cx="-305.84"
         cy="-328.26999"
         r="0"
         image-rendering="optimizeSpeed"
         id="circle997" />
      <circle
         cx="-305.84"
         cy="-328.28"
         r="0"
         image-rendering="optimizeSpeed"
         id="circle999" />
      <circle
         cx="-305.84"
         cy="-328.28"
         r="0"
         image-rendering="optimizeSpeed"
         id="circle1001" />
      <circle
         cx="-328.12"
         cy="-336.73999"
         r="0"
         image-rendering="optimizeSpeed"
         id="circle1003" />
      <circle
         cx="-305.84"
         cy="-328.26999"
         r="0"
         image-rendering="optimizeSpeed"
         id="circle1005" />
      <circle
         cx="-305.03"
         cy="-328.69"
         r="0"
         id="circle1007" />
    </g>
  </g>
  <circle
     cx="254.33897"
     cy="32"
     r="0"
     fill="url(#b-3-3)"
     stroke-width="1.5715"
     id="circle1013"
     style="fill:url(#b-3-3)" />
  <g
     transform="translate(149.89697)"
     fill="#5e4aa6"
     id="g1033">
    <circle
       cx="-1250.1"
       cy="-1241.1"
       r="0"
       id="circle1015" />
    <circle
       cx="-150.58"
       cy="24.311001"
       r="0"
       fill-rule="evenodd"
       id="circle1017" />
    <circle
       cx="-1163.3"
       cy="-1241.6"
       r="0"
       id="circle1019" />
    <circle
       cx="-63.768002"
       cy="23.855"
       r="0"
       fill-rule="evenodd"
       id="circle1021" />
    <g
       transform="matrix(3.7796,0,0,3.7796,-17.538,-38.72)"
       stroke-width="0.26458"
       id="g1031">
      <circle
         cx="-330.35001"
         cy="-328.38"
         r="0"
         id="circle1023" />
      <circle
         cx="-312.10999"
         cy="-326.25"
         r="0"
         id="circle1025" />
      <circle
         cx="-306.01999"
         cy="-333.07001"
         r="0"
         id="circle1027" />
      <circle
         cx="-308.84"
         cy="-326.01001"
         r="0"
         id="circle1029" />
    </g>
  </g>
</svg>
