<?xml version="1.0" encoding="UTF-8" standalone="no"?>
<svg
   xmlns:dc="http://purl.org/dc/elements/1.1/"
   xmlns:cc="http://creativecommons.org/ns#"
   xmlns:rdf="http://www.w3.org/1999/02/22-rdf-syntax-ns#"
   xmlns:svg="http://www.w3.org/2000/svg"
   xmlns="http://www.w3.org/2000/svg"
   xmlns:xlink="http://www.w3.org/1999/xlink"
   xmlns:sodipodi="http://sodipodi.sourceforge.net/DTD/sodipodi-0.dtd"
   xmlns:inkscape="http://www.inkscape.org/namespaces/inkscape"
   height="64"
   width="64"
   version="1.1"
   id="svg43"
   sodipodi:docname="calligraauthor.svg"
   inkscape:version="1.0.2 (e86c870879, 2021-01-15)">
  <metadata
     id="metadata49">
    <rdf:RDF>
      <cc:Work
         rdf:about="">
        <dc:format>image/svg+xml</dc:format>
        <dc:type
           rdf:resource="http://purl.org/dc/dcmitype/StillImage" />
        <dc:title></dc:title>
      </cc:Work>
    </rdf:RDF>
  </metadata>
  <defs
     id="defs47">
    <linearGradient
       id="linearGradient1063"
       x1="8.5858002"
       x2="16.465"
       y1="-5.5948"
       y2="-13.703"
       gradientTransform="matrix(3.7796,0,0,3.7796,-16.898,66.534)"
       gradientUnits="userSpaceOnUse">
      <stop
         stop-color="#f5f5f5"
         offset="0"
         id="stop4-3" />
      <stop
         stop-color="#fff"
         offset="1"
         id="stop6" />
    </linearGradient>
    <linearGradient
       id="linearGradient1071"
       x1="8.9222002"
       x2="15.926"
       y1="-5.3551998"
       y2="-11.992"
       gradientTransform="matrix(3.7796,0,0,3.7796,-16.898,66.534)"
       gradientUnits="userSpaceOnUse">
      <stop
         stop-color="#ee4740"
         offset="0"
         id="stop9" />
      <stop
         stop-color="#fff"
         offset="1"
         id="stop11" />
    </linearGradient>
    <filter
       id="filter1091"
       x="-0.084016003"
       y="-0.084016003"
       width="1.168"
       height="1.168"
       color-interpolation-filters="sRGB">
      <feGaussianBlur
         stdDeviation="0.30215974"
         id="feGaussianBlur14" />
    </filter>
    <filter
       id="filter2761-3"
       x="-0.024"
       y="-0.024"
       width="1.048"
       height="1.048"
       color-interpolation-filters="sRGB">
      <feGaussianBlur
         stdDeviation="0.14552168"
         id="feGaussianBlur17" />
    </filter>
    <linearGradient
       id="linearGradient1024-3"
       x1="1.3315001"
       x2="15.65"
       y1="15.576"
       y2="1.17"
       gradientTransform="matrix(3.7796,0,0,3.7796,78.015035,0.53068)"
       gradientUnits="userSpaceOnUse">
      <stop
         stop-color="#dddfe1"
         offset="0"
         id="stop20" />
      <stop
         stop-color="#f3f4f6"
         stop-opacity=".99608"
         offset="1"
         id="stop22" />
    </linearGradient>
    <linearGradient
       inkscape:collect="always"
       id="linearGradient1127">
      <stop
         style="stop-color:#e2e4e6;stop-opacity:1"
         offset="0"
         id="stop1123" />
      <stop
         style="stop-color:#ffffff;stop-opacity:0.99704713"
         offset="1"
         id="stop1125" />
    </linearGradient>
    <linearGradient
       id="linearGradient1071-3"
       x1="8.9222002"
       x2="15.926"
       y1="-5.3551998"
       y2="-11.992"
       gradientUnits="userSpaceOnUse"
       gradientTransform="matrix(3.7796,0,0,3.7796,16.224815,66.534)">
      <stop
         stop-color="#ffdc96"
         offset="0"
         id="stop9-5"
         style="stop-color:#e2e4e6;stop-opacity:1" />
      <stop
         stop-color="#fff"
         offset="1"
         id="stop11-6" />
    </linearGradient>
    <filter
       id="filter1091-2"
       x="-0.084016003"
       y="-0.084016003"
       width="1.168"
       height="1.168"
       color-interpolation-filters="sRGB">
      <feGaussianBlur
         stdDeviation="0.30215974"
         id="feGaussianBlur14-9" />
    </filter>
    <filter
       id="filter2761-3-1"
       x="-0.024"
       y="-0.024"
       width="1.048"
       height="1.048"
       color-interpolation-filters="sRGB">
      <feGaussianBlur
         stdDeviation="0.14552168"
         id="feGaussianBlur17-2" />
    </filter>
    <linearGradient
       id="linearGradient1024-3-7"
       x1="1.3315001"
       x2="15.65"
       y1="15.576"
       y2="1.17"
       gradientTransform="matrix(3.7796,0,0,3.7796,7.4298223,-16.574053)"
       gradientUnits="userSpaceOnUse">
      <stop
         stop-color="#dddfe1"
         offset="0"
         id="stop20-0" />
      <stop
         stop-color="#f3f4f6"
         stop-opacity=".99608"
         offset="1"
         id="stop22-9" />
    </linearGradient>
    <filter
       id="filter2761-3-6"
       x="-0.024"
       y="-0.024"
       width="1.048"
       height="1.048"
       color-interpolation-filters="sRGB">
      <feGaussianBlur
         stdDeviation="0.14552168"
         id="feGaussianBlur4" />
    </filter>
    <linearGradient
       id="linearGradient1024"
       x1="1.3315001"
       x2="15.65"
       y1="15.576"
       y2="1.17"
       gradientTransform="translate(-8.4984e-4,0.14045)"
       gradientUnits="userSpaceOnUse">
      <stop
         stop-color="#dddfe1"
         offset="0"
         id="stop7" />
      <stop
         stop-color="#f3f4f6"
         stop-opacity=".99608"
         offset="1"
         id="stop9-7" />
    </linearGradient>
    <filter
       color-interpolation-filters="sRGB"
       height="1.048"
       width="1.048"
       y="-0.024"
       x="-0.024"
       id="filter2761-3-3">
      <feGaussianBlur
         id="feGaussianBlur2"
         stdDeviation="0.14552168" />
    </filter>
    <linearGradient
       gradientUnits="userSpaceOnUse"
       gradientTransform="matrix(3.7796,0,0,3.7796,-0.0026448,0.53066)"
       y2="1.17"
       y1="15.576"
       x2="15.65"
       x1="1.3315001"
       id="linearGradient1024-6">
      <stop
         id="stop5"
         offset="0"
         stop-color="#dddfe1" />
      <stop
         id="stop7-7"
         offset="1"
         stop-opacity=".99608"
         stop-color="#f3f4f6" />
    </linearGradient>
    <linearGradient
       inkscape:collect="always"
       xlink:href="#linearGradient1127"
       id="linearGradient1129"
       x1="31.99684"
       y1="46.315933"
       x2="55.194225"
       y2="23.118547"
       gradientUnits="userSpaceOnUse"
       gradientTransform="translate(-14.912692,8.86e-4)" />
    <linearGradient
       inkscape:collect="always"
       xlink:href="#linearGradient1063"
       id="linearGradient1019"
       gradientUnits="userSpaceOnUse"
       gradientTransform="matrix(3.7796,0,0,3.7796,-16.898,66.534)"
       x1="8.5858002"
       y1="-5.5948"
       x2="16.465"
       y2="-13.703" />
    <linearGradient
       id="linearGradient1063-3"
       x1="8.5858"
       x2="16.465"
       y1="-5.5948"
       y2="-13.703"
       gradientUnits="userSpaceOnUse">
      <stop
         stop-color="#f5f5f5"
         offset="0"
         id="stop927" />
      <stop
         stop-color="#fff"
         offset="1"
         id="stop929" />
    </linearGradient>
    <linearGradient
       id="linearGradient1071-6"
       x1="8.9222"
       x2="15.926"
       y1="-5.3552"
       y2="-11.992"
       gradientUnits="userSpaceOnUse">
      <stop
         stop-color="#ffdc96"
         offset="0"
         id="stop932" />
      <stop
         stop-color="#fff"
         offset="1"
         id="stop934" />
    </linearGradient>
    <filter
       id="filter1091-7"
       x="-.084016"
       y="-.084016"
       width="1.168"
       height="1.168"
       color-interpolation-filters="sRGB">
      <feGaussianBlur
         stdDeviation="0.30215974"
         id="feGaussianBlur937" />
    </filter>
    <filter
       id="filter11290"
       x="-.024"
       y="-.024"
       width="1.048"
       height="1.048"
       color-interpolation-filters="sRGB">
      <feGaussianBlur
         stdDeviation="0.15875313"
         id="feGaussianBlur940" />
    </filter>
    <linearGradient
       id="linearGradient1005"
       x1=".73911"
       x2="16.388"
       y1="16.296"
       y2=".64687"
       gradientTransform="matrix(3.7796,0,0,3.7796,-0.131691,0.02527805)"
       gradientUnits="userSpaceOnUse">
      <stop
         stop-color="#dddfe1"
         offset="0"
         id="stop943" />
      <stop
         stop-color="#f3f4f6"
         offset="1"
         id="stop945" />
    </linearGradient>
  </defs>
  <sodipodi:namedview
     pagecolor="#ffffff"
     bordercolor="#666666"
     borderopacity="1"
     objecttolerance="10"
     gridtolerance="10"
     guidetolerance="10"
     inkscape:pageopacity="0"
     inkscape:pageshadow="2"
     inkscape:window-width="1920"
     inkscape:window-height="935"
     id="namedview45"
     showgrid="false"
     inkscape:zoom="4.0364583"
     inkscape:cx="32.933106"
     inkscape:cy="20.457359"
     inkscape:window-x="0"
     inkscape:window-y="38"
     inkscape:window-maximized="1"
     inkscape:current-layer="svg43"
     inkscape:document-rotation="0" />
  <linearGradient
     id="a"
     gradientTransform="matrix(1.0309825,0,0,1,-0.512598,0)"
     gradientUnits="userSpaceOnUse"
     x1="17"
     x2="17"
     y1="1036.3622"
     y2="1012.3622">
    <stop
       offset="0"
       stop-color="#374c63"
       id="stop2" />
    <stop
       offset="1"
       stop-color="#6a94be"
       id="stop4" />
  </linearGradient>
  <linearGradient
     id="b"
     gradientTransform="matrix(0.68964436,0,0,1,10.82717,0)"
     gradientUnits="userSpaceOnUse"
     x1="33.461716"
     x2="34.116894"
     xlink:href="#d"
     y1="1013.622"
     y2="1037.2084" />
  <linearGradient
     id="c"
     gradientUnits="userSpaceOnUse"
     x1="27.800341"
     x2="27.800341"
     y1="1037.3622"
     y2="1011.3622">
    <stop
       offset="0"
       stop-color="#394f67"
       id="stop8" />
    <stop
       offset="1"
       stop-color="#507090"
       id="stop10" />
  </linearGradient>
  <linearGradient
     id="d">
    <stop
       offset="0"
       stop-color="#f6fbff"
       id="stop13" />
    <stop
       offset="1"
       stop-color="#eaeff2"
       id="stop15" />
  </linearGradient>
  <linearGradient
     id="e"
     gradientUnits="userSpaceOnUse"
     x1="13.762"
     x2="314.96957"
     xlink:href="#d"
     y1="165.66499"
     y2="165.66499" />
  <circle
     transform="matrix(3.7796,0,0,3.7796,-0.10278795,0.02458453)"
     cx="8.4937"
     cy="8.46"
     r="7.9376998"
     filter="url(#filter11290)"
     opacity="0.25"
     stroke-width="0.14032"
     id="circle950" />
  <path
     d="m 62.000401,32.00045 c 0,3.5964 -0.63305,7.0448 -1.794,10.24 -0.80698,2.2212 -1.8686,4.3212 -3.1519,6.2636 -0.53754,0.8167 -1.1155,1.6054 -1.729,2.3633 -1.9641,2.4257 -4.2982,4.5382 -6.9186,6.2526 -0.96493,0.63187 -1.9678,1.2098 -3.0061,1.7277 -4.0321,2.0179 -8.5839,3.153 -13.401,3.153 -4.8171,0 -9.3689,-1.1351 -13.401002,-3.1531 -1.0384,-0.518 -2.0425,-1.096 -3.0074,-1.7277 -2.6535,-1.7376 -5.0155,-3.8832 -6.9957,-6.349 -0.61468,-0.76408 -1.1915,-1.56 -1.729,-2.3841 -1.249,-1.9102 -2.2837,-3.9712 -3.0747,-6.1494 -1.1608,-3.1949 -1.7927,-6.6419 -1.7927,-10.237 0,-16.569 13.432,-30.0009999 30.001002,-30.0009999 8.317,0 15.843,3.3845999 21.277,8.8506999 1.5661,1.5747 2.9584,3.3234 4.1436,5.214 1.1205,1.7805 2.0572,3.6882 2.7857,5.6951 1.161,3.196 1.7941,6.6442 1.7941,10.24 z"
     fill="url(#linearGradient1005)"
     stroke-width="0.11719"
     id="path952"
     style="fill:url(#linearGradient1005)" />
  <g
     transform="matrix(4.9158,0,0,5.0647,-9.6224178,-8.3587457)"
     fill="#c8c8c8"
     id="g978">
    <path
       d="M 3.9856,6.9374 C 3.97975,6.966989 3.97613,6.997848 3.970519,7.02817 h 8.9931 c -0.0053,-0.030317 -0.0092,-0.061202 -0.01567,-0.09077 z"
       stroke-width="0.60512"
       style="paint-order:normal"
       id="path970" />
    <path
       d="m 4.1332,4.9655 c 0.00521,0.030317 0.010173,0.060579 0.015962,0.09077 h 8.6371 c 0.0054,-0.032616 0.01,-0.058576 0.01482,-0.09077 z"
       stroke-width="0.59404"
       style="paint-order:normal"
       id="path972" />
    <path
       d="M 3.9856,8.9093 C 3.97975,8.938889 3.97613,8.969748 3.970519,9.00007 h 8.9931 c -0.0053,-0.030317 -0.0092,-0.061202 -0.01567,-0.09077 z"
       stroke-width="0.60512"
       style="paint-order:normal"
       id="path974" />
    <path
       d="m 3.9856,10.881 c -0.00585,0.02959 -0.00947,0.06045 -0.015081,0.09077 h 8.9931 c -0.0053,-0.03032 -0.0092,-0.0612 -0.01567,-0.09077 z"
       stroke-width="0.60512"
       style="paint-order:normal"
       id="path976" />
  </g>
  <circle
     cx="-1248.6"
     cy="-1241.1"
     r="0"
     id="circle27"
     style="fill:#5e4aa6" />
  <circle
     cx="-1162.5"
     cy="-1256.9"
     r="0"
     id="circle29"
     style="fill:#5e4aa6" />
  <circle
     cx="-1248.6"
     cy="-1241.1"
     r="0"
     id="circle31"
     style="fill:#5e4aa6" />
  <circle
     cx="-1325.3"
     cy="-1259.1"
     r="0"
     id="circle33"
     style="fill:#5e4aa6" />
  <circle
     cx="-1239.1"
     cy="-1274.8"
     r="0"
     id="circle35"
     style="fill:#5e4aa6" />
  <circle
     cx="-1325.3"
     cy="-1259.1"
     r="0"
     id="circle37"
     style="fill:#5e4aa6" />
  <circle
     cx="-1325.4"
     cy="-1259.5"
     r="0"
     id="circle39"
     style="fill:#5e4aa6" />
  <circle
     cx="-1239.2"
     cy="-1275.3"
     r="0"
     id="circle41"
     style="fill:#5e4aa6" />
  <circle
     cx="-1248.7"
     cy="-1241.6"
     r="0"
     id="circle43"
     style="fill:#5e4aa6" />
  <circle
     cx="-149.14999"
     cy="23.855"
     r="0"
     fill="#5e4aa6"
     fill-rule="evenodd"
     id="circle47" />
  <circle
     cx="-1325.3"
     cy="-1259.1"
     r="0"
     id="circle55"
     style="fill:#5e4aa6" />
  <circle
     cx="-1239.1"
     cy="-1274.8"
     r="0"
     id="circle57"
     style="fill:#5e4aa6" />
  <circle
     cx="-1325.3"
     cy="-1259.1"
     r="0"
     id="circle59"
     style="fill:#5e4aa6" />
  <circle
     cx="-1325.4"
     cy="-1259.5"
     r="0"
     id="circle61"
     style="fill:#5e4aa6" />
  <circle
     cx="-1239.2"
     cy="-1275.3"
     r="0"
     id="circle63"
     style="fill:#5e4aa6" />
  <circle
     cx="-1248.7"
     cy="-1241.6"
     r="0"
     id="circle65"
     style="fill:#5e4aa6" />
  <circle
     cx="-149.14999"
     cy="23.855"
     r="0"
     fill="#5e4aa6"
     fill-rule="evenodd"
     id="circle69" />
  <g
     fill="#5e4aa6"
     id="g43">
    <circle
       cx="-1325.3"
       cy="-1259.1"
       r="0"
       id="circle31-3" />
    <circle
       cx="-1239.1"
       cy="-1274.8"
       r="0"
       id="circle33-6" />
    <circle
       cx="-1325.3"
       cy="-1259.1"
       r="0"
       id="circle35-0" />
    <circle
       cx="-1325.4"
       cy="-1259.5"
       r="0"
       id="circle37-6" />
    <circle
       cx="-1239.2"
       cy="-1275.3"
       r="0"
       id="circle39-2" />
    <circle
       cx="-1248.7"
       cy="-1241.6"
       r="0"
       id="circle41-6" />
  </g>
  <circle
     cx="-149.14999"
     cy="23.855"
     r="0"
     fill="#5e4aa6"
     fill-rule="evenodd"
     id="circle45" />
  <g
     transform="matrix(3.7363,0,0,3.5947,-16.067,65.631)"
     fill="#f08705"
     filter="url(#filter1091)"
     opacity="0.5"
     id="g61"
     style="fill:#6a737c;fill-opacity:1;filter:url(#filter1091-2)">
    <path
       d="m 8.8145,-5.537 c 0,0 -0.19283,-0.13005 -0.19283,-0.19731 0,-0.067264 0.5286,-1.9107 0.58567,-2.0122 0.057077,-0.10147 6.1025,-6.1025 6.1025,-6.1025 0,0 0.27603,-0.21726 0.44643,-0.08272 0.17041,0.13453 0.74406,0.74406 0.74406,0.74406 z"
       id="path57"
       style="fill:#6a737c;fill-opacity:1" />
    <path
       d="m 8.8145,-5.537 c 0,0 0.13005,0.19283 0.19731,0.19283 0.067264,0 1.9107,-0.5286 2.0122,-0.58567 0.10147,-0.057077 6.1025,-6.1025 6.1025,-6.1025 0,0 0.21725,-0.27603 0.08272,-0.44643 -0.13453,-0.17041 -0.74406,-0.74406 -0.74406,-0.74406 z"
       id="path59"
       style="fill:#6a737c;fill-opacity:1" />
  </g>
  <path
     d="m 16.417284,45.606355 c 0,0 -0.72882,-0.491537 -0.72882,-0.745753 0,-0.254231 1.997896,-7.221682 2.213598,-7.605311 0.215728,-0.383516 23.065009,-23.065009 23.065009,-23.065009 0,0 1.043283,-0.821156 1.687327,-0.312649 0.644082,0.50847 2.812249,2.812249 2.812249,2.812249 z"
     fill="url(#linearGradient1063)"
     id="path63"
     style="fill:url(#linearGradient1019);stroke-width:3.7796" />
  <path
     id="rect1119"
     style="fill:url(#linearGradient1129);fill-opacity:1;stroke-width:2"
     d="M 45.333298,16.557527 16.417284,45.606355 c 0,0 0.489925,0.730468 0.744141,0.730469 0.254231,0 7.22184,-1.999142 7.605469,-2.214844 0.383516,-0.215728 23.066404,-23.064453 23.066404,-23.064453 0,0 0.82097,-1.043456 0.3125,-1.6875 -0.50847,-0.644082 -2.8125,-2.8125 -2.8125,-2.8125 z" />
  <g
     fill="#5e4aa6"
     id="g966"
     transform="translate(80.734888,-1.0397429)">
    <circle
       cx="-1325.3"
       cy="-1259.1"
       r="0"
       id="circle954" />
    <circle
       cx="-1239.1"
       cy="-1274.8"
       r="0"
       id="circle956" />
    <circle
       cx="-1325.3"
       cy="-1259.1"
       r="0"
       id="circle958" />
    <circle
       cx="-1325.4"
       cy="-1259.5"
       r="0"
       id="circle960" />
    <circle
       cx="-1239.2"
       cy="-1275.3"
       r="0"
       id="circle962" />
    <circle
       cx="-1248.7"
       cy="-1241.6"
       r="0"
       id="circle964" />
  </g>
  <circle
     cx="-68.415108"
     cy="22.815256"
     r="0"
     fill="#5e4aa6"
     fill-rule="evenodd"
     id="circle968" />
  <g
     transform="matrix(3.7796,0,0,3.7796,-4.264112,-14.640743)"
     fill="#5e4aa6"
     stroke-width="0.26458"
     id="g1000">
    <circle
       cx="-330.35001"
       cy="-328.38"
       r="0"
       id="circle992" />
    <circle
       cx="-312.10999"
       cy="-326.25"
       r="0"
       id="circle994" />
    <circle
       cx="-306.01999"
       cy="-333.07001"
       r="0"
       id="circle996" />
    <circle
       cx="-308.84"
       cy="-326.01001"
       r="0"
       id="circle998" />
  </g>
</svg>
