<?xml version="1.0" encoding="UTF-8"?>
<svg width="64" height="64" version="1.1" viewBox="0 0 16.933 16.933" xmlns="http://www.w3.org/2000/svg" xmlns:cc="http://creativecommons.org/ns#" xmlns:dc="http://purl.org/dc/elements/1.1/" xmlns:rdf="http://www.w3.org/1999/02/22-rdf-syntax-ns#" xmlns:xlink="http://www.w3.org/1999/xlink">
 <metadata>
  <rdf:RDF>
   <cc:Work rdf:about="">
    <dc:format>image/svg+xml</dc:format>
    <dc:type rdf:resource="http://purl.org/dc/dcmitype/StillImage"/>
   </cc:Work>
  </rdf:RDF>
 </metadata>
 <defs>
  <filter id="filter11290-6" x="-.024" y="-.024" width="1.048" height="1.048" color-interpolation-filters="sRGB">
   <feGaussianBlur stdDeviation="0.15875313"/>
  </filter>
  <linearGradient id="linearGradient1005-2" x1=".73911" x2="16.388" y1="16.296" y2=".64687" gradientTransform="translate(15.048 9.6483)" gradientUnits="userSpaceOnUse">
   <stop stop-color="#8cd750" offset="0"/>
   <stop stop-color="#7dcd32" offset=".48311"/>
   <stop stop-color="#87d241" offset="1"/>
  </linearGradient>
  <linearGradient id="linearGradient1284" x1="17.483" x2="37.758" y1="4.7157" y2="39.833" gradientTransform="matrix(-.17678 -.00075271 .00075271 .17591 27.787 14.255)" gradientUnits="userSpaceOnUse" xlink:href="#g"/>
  <linearGradient id="g">
   <stop stop-color="#f6fbff" offset="0"/>
   <stop stop-color="#eaeff2" offset="1"/>
  </linearGradient>
  <linearGradient id="linearGradient1286" x1="17.483" x2="37.758" y1="4.7157" y2="39.833" gradientTransform="matrix(-.17678 -.00075271 .00075271 .17591 27.787 19.414)" gradientUnits="userSpaceOnUse" xlink:href="#g"/>
  <linearGradient id="linearGradient1288" x1="17.483" x2="37.758" y1="4.7157" y2="39.833" gradientTransform="matrix(-.17678 -.00075271 .00075271 .17591 27.787 16.746)" gradientUnits="userSpaceOnUse" xlink:href="#g"/>
 </defs>
 <g transform="translate(-15.083 -9.6418)">
  <circle cx="23.549" cy="18.108" r="7.9377" filter="url(#filter11290-6)" opacity=".25" stroke-width=".14032"/>
  <path d="m31.487 18.108c0 0.95154-0.16749 1.8639-0.47464 2.7094-0.21351 0.58768-0.49439 1.1433-0.83393 1.6572-0.14222 0.21608-0.29514 0.42475-0.45746 0.62529-0.51966 0.64179-1.1372 1.2007-1.8305 1.6543-0.2553 0.16718-0.52065 0.3201-0.79536 0.45712-1.0668 0.53389-2.2711 0.83421-3.5456 0.83421-1.2745 0-2.4788-0.30032-3.5456-0.83424-0.27474-0.13705-0.5404-0.28997-0.7957-0.45712-0.70207-0.45973-1.327-1.0274-1.8509-1.6798-0.16263-0.20216-0.31524-0.41275-0.45746-0.63078-0.33046-0.5054-0.60421-1.0507-0.8135-1.627-0.30711-0.84529-0.4743-1.7573-0.4743-2.7085 0-4.3838 3.5537-7.9375 7.9375-7.9375 2.2005 0 4.1917 0.89548 5.6295 2.3417 0.41436 0.41662 0.78274 0.87929 1.0963 1.3795 0.29645 0.47107 0.54428 0.97582 0.73704 1.5068 0.30718 0.84559 0.47467 1.7579 0.47467 2.7094z" fill="url(#linearGradient1005-2)" stroke-width=".031006"/>
  <path d="m26.751 17.041h-6.4039l-0.35577-0.35577h7.1155z" color="#000000" color-rendering="auto" dominant-baseline="auto" fill="#5c9724" fill-opacity=".99608" image-rendering="auto" shape-rendering="auto" solid-color="#000000" stop-color="#000000" style="font-feature-settings:normal;font-variant-alternates:normal;font-variant-caps:normal;font-variant-east-asian:normal;font-variant-ligatures:normal;font-variant-numeric:normal;font-variant-position:normal;font-variation-settings:normal;inline-size:0;isolation:auto;mix-blend-mode:normal;shape-margin:0;shape-padding:0;text-decoration-color:#000000;text-decoration-line:none;text-decoration-style:solid;text-indent:0;text-orientation:mixed;text-transform:none;white-space:normal"/>
  <path d="m20.348 19.176h6.4039l0.35577 0.35578h-7.1155z" color="#000000" color-rendering="auto" dominant-baseline="auto" fill="#5c9724" fill-opacity=".99608" image-rendering="auto" shape-rendering="auto" solid-color="#000000" stop-color="#000000" style="font-feature-settings:normal;font-variant-alternates:normal;font-variant-caps:normal;font-variant-east-asian:normal;font-variant-ligatures:normal;font-variant-numeric:normal;font-variant-position:normal;font-variation-settings:normal;inline-size:0;isolation:auto;mix-blend-mode:normal;shape-margin:0;shape-padding:0;text-decoration-color:#000000;text-decoration-line:none;text-decoration-style:solid;text-indent:0;text-orientation:mixed;text-transform:none;white-space:normal"/>
  <g stroke-width=".17789">
   <path d="m19.992 14.551h7.1155v2.1346h-7.1155z" fill="url(#linearGradient1284)"/>
   <path d="m19.992 19.531h7.1155v2.1346h-7.1155z" fill="url(#linearGradient1286)"/>
   <path d="m19.992 17.041h7.1155v2.1346h-7.1155z" fill="url(#linearGradient1288)"/>
  </g>
 </g>
</svg>
