<?xml version="1.0" encoding="UTF-8"?>
<svg width="64" height="64" version="1.1" viewBox="0 0 16.933 16.933" xmlns="http://www.w3.org/2000/svg" xmlns:cc="http://creativecommons.org/ns#" xmlns:dc="http://purl.org/dc/elements/1.1/" xmlns:rdf="http://www.w3.org/1999/02/22-rdf-syntax-ns#" xmlns:xlink="http://www.w3.org/1999/xlink">
 <metadata>
  <rdf:RDF>
   <cc:Work rdf:about="">
    <dc:format>image/svg+xml</dc:format>
    <dc:type rdf:resource="http://purl.org/dc/dcmitype/StillImage"/>
   </cc:Work>
  </rdf:RDF>
 </metadata>
 <defs>
  <filter id="filter11290-3-9" x="-.024" y="-.024" width="1.048" height="1.048" color-interpolation-filters="sRGB">
   <feGaussianBlur stdDeviation="0.15875313"/>
  </filter>
  <linearGradient id="f-7" x2="0" y1="42.827" y2="4.113" gradientTransform="matrix(.39687 0 0 .39687 14.939 10.063)" gradientUnits="userSpaceOnUse">
   <stop stop-color="#c6cdd1" offset="0"/>
   <stop stop-color="#e0e5e7" offset="1"/>
  </linearGradient>
  <linearGradient id="a-3-0" x2="0" y1="45" y2="13" gradientTransform="matrix(.39687 0 0 .39687 14.939 10.063)" gradientUnits="userSpaceOnUse">
   <stop stop-color="#663579" offset="0"/>
   <stop stop-color="#16a085" offset="1"/>
  </linearGradient>
  <linearGradient id="g-5" x1="8.213" x2="40.551" gradientTransform="matrix(.39687 0 0 .39687 14.939 10.063)" gradientUnits="userSpaceOnUse">
   <stop stop-color="#1d1e1e" offset="0"/>
   <stop stop-color="#2c2f32" offset="1"/>
  </linearGradient>
  <linearGradient id="l" x2="0" y1="14.849" y2="26.16" gradientUnits="userSpaceOnUse" xlink:href="#b-6"/>
  <linearGradient id="b-6" x2="0" y1="14.849" y2="26.16" gradientUnits="userSpaceOnUse">
   <stop offset="0"/>
   <stop stop-opacity="0" offset="1"/>
  </linearGradient>
  <filter id="o" x="-.44703" y="-.11921" width="1.8941" height="1.2384" color-interpolation-filters="sRGB">
   <feGaussianBlur stdDeviation="0.74505189"/>
  </filter>
  <linearGradient id="e" x1="7" x2="11" gradientTransform="matrix(.39687 0 0 .39687 -18.398 13.748)" gradientUnits="userSpaceOnUse" xlink:href="#h-3"/>
  <linearGradient id="h-3" x1="7" x2="11" gradientTransform="translate(-21,-3)" gradientUnits="userSpaceOnUse">
   <stop stop-color="#1d1e1e" offset="0"/>
   <stop stop-color="#44484c" offset="1"/>
  </linearGradient>
  <linearGradient id="d" x2="0" y1="36.77" y2="48.08" gradientUnits="userSpaceOnUse" xlink:href="#b-6"/>
  <filter id="m" x="-.29802" y="-.14901" width="1.596" height="1.298" color-interpolation-filters="sRGB">
   <feGaussianBlur stdDeviation="0.74505189"/>
  </filter>
  <linearGradient id="j-6" x1="19" x2="25" gradientTransform="matrix(.39687 0 0 .39687 -30.701 11.764)" gradientUnits="userSpaceOnUse" xlink:href="#h-3"/>
  <linearGradient id="c" x2="0" y1="31.885" y2="44.48" gradientUnits="userSpaceOnUse" xlink:href="#b-6"/>
  <filter id="n" x="-.35762" y="-.12772" width="1.7152" height="1.2554" color-interpolation-filters="sRGB">
   <feGaussianBlur stdDeviation="0.74505189"/>
  </filter>
  <linearGradient id="i-5" x1="23" x2="28" gradientTransform="matrix(.39687 0 0 .39687 -27.923 17.32)" gradientUnits="userSpaceOnUse" xlink:href="#h-3"/>
  <linearGradient id="k-2" x1="34" x2="42" gradientTransform="matrix(.39687 0 0 .39687 -39.035 16.129)" gradientUnits="userSpaceOnUse" xlink:href="#h-3"/>
 </defs>
 <g transform="translate(-15.997 -11.122)">
  <circle cx="24.464" cy="19.588" r="7.9377" filter="url(#filter11290-3-9)" opacity=".25" stroke-width=".14032"/>
  <circle cx="24.464" cy="19.588" r="7.9373" fill="url(#f-7)" stroke-linecap="round" stroke-linejoin="bevel" stroke-width=".52914"/>
  <path d="m18.207 14.719v5.29e-4c-1.0858 1.391-1.6773 3.1044-1.6805 4.8688 0 0.13271 0.0034 0.26472 0.0098 0.39583a7.9373 7.9373 0 0 0 5.16e-4 0.0078 7.9373 7.9373 0 0 0 0.0016 0.02377c0.0063 0.11808 0.01499 0.23526 0.02635 0.35191a7.9373 7.9373 0 0 0 0.0088 0.08216c0.01037 0.09615 0.02292 0.19172 0.03669 0.2868a7.9373 7.9373 0 0 0 0.0155 0.10335c9.31e-4 0.0059 0.0022 0.01168 0.0031 0.01757 0.01199 0.07461 0.02522 0.14882 0.03927 0.22272a7.9373 7.9373 0 0 0 0.0026 0.01344 7.9373 7.9373 0 0 0 0.03876 0.18965c0.01122 0.05159 0.02344 0.10278 0.03566 0.15399a7.9373 7.9373 0 0 0 0.0036 0.01395 7.9373 7.9373 0 0 0 0.05684 0.2222c0.0046 0.01692 0.0092 0.03376 0.01395 0.05064 0.0094 0.03369 0.01912 0.06726 0.02894 0.10077a7.9373 7.9373 0 0 0 0.09405 0.2992 7.9373 7.9373 0 0 0 0.0083 0.02429 7.9373 7.9373 0 0 0 0.12247 0.33486 7.9373 7.9373 0 0 0 0.14107 0.33692 7.9373 7.9373 0 0 0 0.15658 0.3302c0.0067 0.0133 0.01339 0.02654 0.02015 0.03979a7.9373 7.9373 0 0 0 0.04031 0.07803 7.9373 7.9373 0 0 0 0.10852 0.2005 7.9373 7.9373 0 0 0 0.0026 0.0047c0.02729 0.04853 0.05492 0.0968 0.0832 0.14469a7.9373 7.9373 0 0 0 0.09043 0.14986c0.03996 0.06439 0.08073 0.12805 0.12247 0.1912a7.9373 7.9373 0 0 0 0.08423 0.12557 7.9373 7.9373 0 0 0 0.0062 0.0088c0.04022 0.05823 0.08127 0.11602 0.12299 0.17311a7.9373 7.9373 0 0 0 0.09146 0.12299c0.0013 0.0017 0.0028 0.0034 0.0041 0.0052 0.04792 0.06289 0.09651 0.12516 0.14624 0.18655a7.9373 7.9373 0 0 0 0.0067 0.0078 7.9373 7.9373 0 0 0 0.06821 0.08371 7.9373 7.9373 0 0 0 0.0026 0.0031c0.064 0.07657 0.12957 0.15175 0.19637 0.22582a7.9373 7.9373 0 0 0 0.03617 0.04082 7.9373 7.9373 0 0 0 0.0078 0.0083c0.07345 0.08012 0.14866 0.1586 0.2253 0.23564a7.9373 7.9373 0 0 0 0.02636 0.02635 7.9373 7.9373 0 0 0 0.0016 0.0016c0.07832 0.07795 0.15827 0.15428 0.23977 0.22892a7.9373 7.9373 0 0 0 0.04857 0.04392c0.07441 0.06703 0.15046 0.13267 0.22737 0.19688a7.9373 7.9373 0 0 0 0.06614 0.05478c0.08044 0.0657 0.16192 0.12968 0.24494 0.19223a7.9373 7.9373 0 0 0 0.0016 1e-3 7.9373 7.9373 0 0 0 0.05633 0.04186c0.07272 0.05377 0.14658 0.10629 0.22117 0.15761a7.9373 7.9373 0 0 0 0.01964 0.01343 7.9373 7.9373 0 0 0 0.10128 0.0677c0.0052 0.0034 0.01032 0.0069 0.0155 0.01033 0.05449 0.03585 0.10942 0.07088 0.16484 0.10542a7.9373 7.9373 0 0 0 0.0248 0.0155 7.9373 7.9373 0 0 0 0.14624 0.08785c0.0476 0.02802 0.09543 0.05563 0.14366 0.08268a7.9373 7.9373 0 0 0 0.02584 0.01447 7.9373 7.9373 0 0 0 0.20567 0.10955 7.9373 7.9373 0 0 0 0.03101 0.01602 7.9373 7.9373 0 0 0 0.2899 0.14159 7.9373 7.9373 0 0 0 0.12816 0.05736 7.9373 7.9373 0 0 0 0.22427 0.09457 7.9373 7.9373 0 0 0 0.11369 0.04496 7.9373 7.9373 0 0 0 0.30127 0.10955 7.9373 7.9373 0 0 0 0.06098 0.02067 7.9373 7.9373 0 0 0 0.33072 0.10128 7.9373 7.9373 0 0 0 0.30488 0.0801c0.05581 0.01341 0.11168 0.02653 0.16794 0.03876a7.9373 7.9373 0 0 0 0.0098 0.0021 7.9373 7.9373 0 0 0 0.17518 0.03566c0.07263 0.01397 0.14578 0.02678 0.2191 0.03876a7.9373 7.9373 0 0 0 0.13694 0.0217c0.09721 0.01413 0.19468 0.02663 0.293 0.03721a7.9373 7.9373 0 0 0 0.0072 1e-3 7.9373 7.9373 0 0 0 0.08113 0.0083c0.11514 0.01109 0.23125 0.02024 0.34778 0.02635a7.9373 7.9373 0 0 0 0.02429 1e-3c0.13205 0.0065 0.26469 0.01033 0.39839 0.01033 0.16396-2.4e-5 0.32745-0.0055 0.48988-0.0155a7.9373 7.9373 0 0 0 0.0016 0c5.02e-4 -3.2e-5 1e-3 3.2e-5 0.0016 0 0.16017-0.01 0.31918-0.02493 0.47748-0.04444a7.9373 7.9373 0 0 0 0.0067-5.29e-4c0.0017-2.14e-4 0.0034-2.91e-4 0.0052-5.29e-4 0.15701-0.01959 0.31286-0.04407 0.46766-0.07286a7.9373 7.9373 0 0 0 0.0067-1e-3c0.0021-3.97e-4 0.0041-0.0012 0.0062-0.0016 0.15655-0.02939 0.31222-0.06321 0.46611-0.1018 0.15596-0.03911 0.31018-0.0829 0.46301-0.13126 0.15283-0.04835 0.3044-0.10126 0.45371-0.15864 0.29863-0.11477 0.58959-0.24722 0.87176-0.39687 0.14109-0.07482 0.28013-0.15397 0.4165-0.23719 0.13638-0.08323 0.27025-0.17058 0.40152-0.26199 0.78762-0.5485 1.4796-1.2429 2.0334-2.0598-0.89335-0.01072-6.6302-0.14297-7.3803-2.019-0.81159-2.0288 2.0291-2.4344 1.6231-4.4632-0.50799-2.5399-5.4213-2.8208-7.0687-2.8406z" fill="url(#a-3-0)" fill-rule="evenodd" stroke-width=".26458"/>
  <path d="m18.207 14.72c-0.0028 4e-3 -0.0056 0.0079-0.0083 0.01151 1.9042 0.05715 6.2046 0.45124 6.6801 2.8285 0.4056 2.0288-2.4522 2.4169-1.6406 4.4457 0.75048 1.8756 6.6824 2.7316 7.5762 2.742l0.21867-0.70523c-0.89335-0.01072-6.6297-0.14327-7.3801-2.0193-0.81159-2.0288 2.0288-2.4344 1.6232-4.4632-0.50799-2.54-5.4212-2.8205-7.0686-2.84" fill="url(#g-5)" fill-rule="evenodd" stroke-width=".26458"/>
  <g stroke-linecap="round" stroke-linejoin="bevel">
   <rect transform="matrix(.28063 -.28063 .28063 .28063 14.939 10.063)" x="-4.12" y="14.85" width="4" height="15" fill="url(#l)" filter="url(#o)" opacity=".2" stroke-width="1.3333"/>
   <circle transform="rotate(-90)" cx="-14.826" cy="18.511" r=".79373" fill="url(#e)" stroke-width=".52914"/>
   <circle cx="18.511" cy="14.826" r=".39687" fill="#fff" stroke-width=".52914"/>
   <rect transform="matrix(.28063 -.28063 .28063 .28063 14.939 10.063)" x="-8.66" y="36.77" width="6" height="12" fill="url(#d)" filter="url(#m)" opacity=".2" stroke-width="1.3333"/>
   <circle transform="rotate(-90)" cx="-21.97" cy="23.67" r="1.1906" fill="url(#j-6)" stroke-width=".52914"/>
  </g>
  <path transform="matrix(.28063 -.28063 .28063 .28063 14.939 10.063)" d="m1.743 31.82h5v14h-5z" fill="url(#c)" filter="url(#n)" opacity=".2" stroke-linejoin="bevel" stroke-width="1.3333"/>
  <g stroke-linecap="round" stroke-linejoin="bevel" stroke-width=".52914">
   <circle transform="rotate(-90)" cx="-17.802" cy="25.059" r=".99217" fill="url(#i-5)"/>
   <circle cx="25.059" cy="17.802" r=".5953" fill="#fff"/>
   <circle cx="23.67" cy="21.97" r=".79373" fill="#fff"/>
   <circle transform="rotate(-90)" cx="-23.954" cy="30.02" r="1.5875" fill="url(#k-2)"/>
   <circle cx="30.02" cy="23.954" r="1.1906" fill="#fff"/>
  </g>
 </g>
</svg>
