<?xml version="1.0" encoding="UTF-8" standalone="no"?>
<svg
   xmlns:dc="http://purl.org/dc/elements/1.1/"
   xmlns:cc="http://creativecommons.org/ns#"
   xmlns:rdf="http://www.w3.org/1999/02/22-rdf-syntax-ns#"
   xmlns:svg="http://www.w3.org/2000/svg"
   xmlns="http://www.w3.org/2000/svg"
   xmlns:xlink="http://www.w3.org/1999/xlink"
   xmlns:sodipodi="http://sodipodi.sourceforge.net/DTD/sodipodi-0.dtd"
   xmlns:inkscape="http://www.inkscape.org/namespaces/inkscape"
   height="64"
   width="64"
   version="1.1"
   id="svg27"
   sodipodi:docname="calligrakarbon.svg"
   inkscape:version="1.0.2 (e86c870879, 2021-01-15)">
  <metadata
     id="metadata33">
    <rdf:RDF>
      <cc:Work
         rdf:about="">
        <dc:format>image/svg+xml</dc:format>
        <dc:type
           rdf:resource="http://purl.org/dc/dcmitype/StillImage" />
        <dc:title></dc:title>
      </cc:Work>
    </rdf:RDF>
  </metadata>
  <defs
     id="defs31">
    <linearGradient
       id="f"
       x1="32.25"
       x2="32.25"
       y1="42.853001"
       y2="7.1643"
       gradientTransform="matrix(1.5,0,0,1.5,-79.26179,-5.0001789)"
       gradientUnits="userSpaceOnUse">
      <stop
         stop-color="#a9b2bc"
         offset="0"
         id="stop858" />
      <stop
         stop-color="#f4f6f6"
         offset="1"
         id="stop860" />
    </linearGradient>
    <linearGradient
       id="b"
       x2="0"
       y1="45"
       y2="13"
       gradientTransform="matrix(1.5,0,0,1.5,-79.26179,-5.0000789)"
       gradientUnits="userSpaceOnUse">
      <stop
         stop-color="#663579"
         offset="0"
         id="stop863" />
      <stop
         stop-color="#16a085"
         offset="1"
         id="stop865" />
    </linearGradient>
    <linearGradient
       id="g"
       x1="8.2130003"
       x2="40.550999"
       gradientTransform="matrix(1.5,0,0,1.5,-79.26129,-5.0001789)"
       gradientUnits="userSpaceOnUse">
      <stop
         stop-color="#1d1e1e"
         offset="0"
         id="stop868" />
      <stop
         stop-color="#2c2f32"
         offset="1"
         id="stop870" />
    </linearGradient>
    <linearGradient
       id="h"
       x1="7"
       x2="11"
       gradientTransform="translate(-21,-3)"
       gradientUnits="userSpaceOnUse">
      <stop
         stop-color="#1d1e1e"
         offset="0"
         id="stop873" />
      <stop
         stop-color="#44484c"
         offset="1"
         id="stop875" />
    </linearGradient>
    <linearGradient
       id="j"
       x1="19"
       x2="25"
       gradientTransform="matrix(1.5,0,0,1.5,-74,-16)"
       gradientUnits="userSpaceOnUse"
       xlink:href="#h" />
    <linearGradient
       id="i"
       x1="23"
       x2="28"
       gradientTransform="matrix(1.5,0,0,1.5,-63.5,5)"
       gradientUnits="userSpaceOnUse"
       xlink:href="#h" />
    <linearGradient
       id="k"
       x1="34"
       x2="42"
       gradientTransform="matrix(1.5,0,0,1.5,-105.5,0.5)"
       gradientUnits="userSpaceOnUse"
       xlink:href="#h" />
    <linearGradient
       id="a-3"
       x1="7"
       x2="11"
       gradientTransform="matrix(1.5,0,0,1.5,-27.5,-8.5)"
       gradientUnits="userSpaceOnUse"
       xlink:href="#h" />
    <filter
       id="filter2761"
       x="-.024"
       y="-.024"
       width="1.048"
       height="1.048"
       color-interpolation-filters="sRGB">
      <feGaussianBlur
         stdDeviation="0.14552168"
         id="feGaussianBlur2" />
    </filter>
    <linearGradient
       id="linearGradient1024"
       x1="1.3315"
       x2="15.65"
       y1="15.576"
       y2="1.17"
       gradientUnits="userSpaceOnUse">
      <stop
         stop-color="#dddfe1"
         offset="0"
         id="stop5" />
      <stop
         stop-color="#f3f4f6"
         stop-opacity=".99608"
         offset="1"
         id="stop7" />
    </linearGradient>
    <filter
       id="filter2761-5"
       x="-.024"
       y="-.024"
       width="1.048"
       height="1.048"
       color-interpolation-filters="sRGB">
      <feGaussianBlur
         stdDeviation="0.14552168"
         id="feGaussianBlur2-35" />
    </filter>
    <filter
       id="filter2761-3"
       x="-.024"
       y="-.024"
       width="1.048"
       height="1.048"
       color-interpolation-filters="sRGB">
      <feGaussianBlur
         stdDeviation="0.14552168"
         id="feGaussianBlur4" />
    </filter>
    <linearGradient
       id="linearGradient1024-9"
       x1="1.3315"
       x2="15.65"
       y1="15.576"
       y2="1.17"
       gradientTransform="translate(-.00084984 .14045)"
       gradientUnits="userSpaceOnUse">
      <stop
         stop-color="#dddfe1"
         offset="0"
         id="stop7-3" />
      <stop
         stop-color="#f3f4f6"
         stop-opacity=".99608"
         offset="1"
         id="stop9" />
    </linearGradient>
    <filter
       color-interpolation-filters="sRGB"
       height="1.048"
       width="1.048"
       y="-.024"
       x="-.024"
       id="filter2761-3-3">
      <feGaussianBlur
         id="feGaussianBlur2-6"
         stdDeviation="0.14552168" />
    </filter>
    <linearGradient
       gradientUnits="userSpaceOnUse"
       gradientTransform="matrix(3.7796 0 0 3.7796 -.0026448 .53066)"
       y2="1.17"
       y1="15.576"
       x2="15.65"
       x1="1.3315"
       id="linearGradient1024-6-7">
      <stop
         id="stop5-5"
         offset="0"
         stop-color="#dddfe1" />
      <stop
         id="stop7-7"
         offset="1"
         stop-opacity=".99608"
         stop-color="#f3f4f6" />
    </linearGradient>
    <filter
       id="filter2761-36"
       x="-.024"
       y="-.024"
       width="1.048"
       height="1.048"
       color-interpolation-filters="sRGB">
      <feGaussianBlur
         stdDeviation="0.14552168"
         id="feGaussianBlur2-7" />
    </filter>
    <linearGradient
       id="a-9"
       x1="23.487"
       x2="23.487"
       y1="15.18"
       y2="32.913"
       gradientTransform="matrix(.12676 0 0 .12676 -27.515 6.7925)"
       gradientUnits="userSpaceOnUse">
      <stop
         stop-color="#141414"
         offset="0"
         id="stop5-53" />
      <stop
         stop-color="#30277f"
         offset="1"
         id="stop7-56" />
    </linearGradient>
    <radialGradient
       id="c-7"
       cx="24.047"
       cy="23.949"
       r="2.9867"
       gradientTransform="matrix(0.2056,-3.7539e-8,2.8431e-8,0.15571,-39.607,5.456)"
       gradientUnits="userSpaceOnUse">
      <stop
         stop-color="#2839e6"
         offset="0"
         id="stop10" />
      <stop
         stop-opacity="0"
         offset="1"
         id="stop12" />
    </radialGradient>
    <linearGradient
       id="d-6"
       x1="361.36"
       x2="361.36"
       y1="616.07"
       y2="722.79"
       gradientTransform="matrix(.0040372 0 0 .0040372 -25.925 7.1257)"
       gradientUnits="userSpaceOnUse">
      <stop
         stop-color="#fff"
         offset="0"
         id="stop15" />
      <stop
         stop-color="#fff"
         stop-opacity="0"
         offset="1"
         id="stop17" />
    </linearGradient>
    <radialGradient
       id="radialGradient123131"
       cx="-24.473"
       cy="9.8348"
       r="1.1409"
       gradientTransform="matrix(1.4202,0,0,1.0512,0.054505,-1.1471)"
       gradientUnits="userSpaceOnUse"
       xlink:href="#a-9" />
    <linearGradient
       id="linearGradient123141"
       x1="-24.485"
       x2="-24.485"
       y1="8.6962"
       y2="9.7506"
       gradientTransform="translate(-10.196,-0.6431)"
       gradientUnits="userSpaceOnUse"
       xlink:href="#d-6" />
    <linearGradient
       id="linearGradient123149"
       x1="-24.478"
       x2="-24.478"
       y1="11.104"
       y2="8.4912"
       gradientTransform="translate(-10.229,-0.6431)"
       gradientUnits="userSpaceOnUse">
      <stop
         stop-color="#2d1edc"
         offset="0"
         id="stop22" />
      <stop
         stop-color="#141414"
         offset="1"
         id="stop24" />
    </linearGradient>
    <radialGradient
       id="radialGradient123155"
       cx="-24.473"
       cy="9.8348"
       r="1.1409"
       gradientTransform="matrix(1.1403,0,0,0.84405,-6.7958,0.89063)"
       gradientUnits="userSpaceOnUse"
       xlink:href="#a-9" />
    <linearGradient
       id="linearGradient123157"
       x1="-24.478"
       x2="-24.478"
       y1="11.104"
       y2="8.4912"
       gradientTransform="matrix(0.8029,0,0,0.8029,-15.053,1.2953)"
       gradientUnits="userSpaceOnUse"
       xlink:href="#a-9" />
    <radialGradient
       id="radialGradient123159"
       cx="-24.473"
       cy="9.8348"
       r="1.5211"
       gradientTransform="matrix(0.93082,0,0,0.93082,-11.889,0.037279)"
       gradientUnits="userSpaceOnUse">
      <stop
         stop-color="#291dc0"
         offset="0"
         id="stop29" />
      <stop
         stop-color="#1b1b23"
         offset="1"
         id="stop31" />
    </radialGradient>
    <linearGradient
       id="linearGradient123161"
       x1="361.36"
       x2="361.36"
       y1="616.07"
       y2="722.79"
       gradientTransform="matrix(0.0040372,0,0,0.0040372,-36.122,6.4826)"
       gradientUnits="userSpaceOnUse"
       xlink:href="#d-6" />
    <linearGradient
       id="linearGradient123197"
       x1="-36.117"
       x2="-33.22"
       y1="10.638"
       y2="7.7404"
       gradientUnits="userSpaceOnUse">
      <stop
         offset="0"
         id="stop35" />
      <stop
         stop-opacity="0"
         offset="1"
         id="stop37" />
    </linearGradient>
    <linearGradient
       id="linearGradient952"
       x1="-20.384"
       x2="-23.272"
       y1="6.1331"
       y2="15.312"
       gradientUnits="userSpaceOnUse">
      <stop
         stop-color="#232323"
         offset="0"
         id="stop40" />
      <stop
         stop-color="#323296"
         offset=".95004"
         id="stop42" />
      <stop
         stop-color="#232323"
         offset="1"
         id="stop44" />
    </linearGradient>
    <linearGradient
       id="linearGradient1000"
       x1="-25.122"
       x2="-15.582"
       y1="9.3424"
       y2="9.3424"
       gradientUnits="userSpaceOnUse">
      <stop
         stop-color="#407fff"
         offset="0"
         id="stop47" />
      <stop
         stop-color="#ff407a"
         offset="1"
         id="stop49" />
    </linearGradient>
    <filter
       color-interpolation-filters="sRGB"
       height="1.048"
       width="1.048"
       y="-.024"
       x="-.024"
       id="filter2761-3-9">
      <feGaussianBlur
         id="feGaussianBlur2-3"
         stdDeviation="0.14552168" />
    </filter>
    <linearGradient
       gradientUnits="userSpaceOnUse"
       gradientTransform="matrix(1.5,0,0,1.5,-127.34259,-4)"
       y2="7.1643"
       y1="42.853"
       x2="32.25"
       x1="32.25"
       id="f-3">
      <stop
         id="stop2-6"
         offset="0"
         stop-color="#a9b2bc" />
      <stop
         id="stop4-7"
         offset="1"
         stop-color="#f4f6f6" />
    </linearGradient>
    <linearGradient
       gradientUnits="userSpaceOnUse"
       gradientTransform="matrix(1.5,0,0,1.5,-127.34259,-3.9999)"
       y2="13"
       y1="45"
       x2="0"
       id="b-5">
      <stop
         id="stop7-35"
         offset="0"
         stop-color="#663579" />
      <stop
         id="stop9-6"
         offset="1"
         stop-color="#16a085" />
    </linearGradient>
    <linearGradient
       gradientUnits="userSpaceOnUse"
       gradientTransform="matrix(1.5,0,0,1.5,-127.34209,-4)"
       x2="40.551"
       x1="8.213"
       id="g-2">
      <stop
         id="stop12-9"
         offset="0"
         stop-color="#1d1e1e" />
      <stop
         id="stop14"
         offset="1"
         stop-color="#2c2f32" />
    </linearGradient>
    <linearGradient
       gradientUnits="userSpaceOnUse"
       gradientTransform="translate(-21,-3)"
       x2="11"
       x1="7"
       id="h-1">
      <stop
         id="stop17-2"
         offset="0"
         stop-color="#1d1e1e" />
      <stop
         id="stop19"
         offset="1"
         stop-color="#44484c" />
    </linearGradient>
    <linearGradient
       xlink:href="#h-1"
       gradientUnits="userSpaceOnUse"
       gradientTransform="matrix(1.5,0,0,1.5,-74,-16)"
       x2="25"
       x1="19"
       id="j-7" />
    <linearGradient
       xlink:href="#h-1"
       gradientUnits="userSpaceOnUse"
       gradientTransform="matrix(1.5,0,0,1.5,-63.5,5)"
       x2="28"
       x1="23"
       id="i-0" />
    <linearGradient
       xlink:href="#h-1"
       gradientUnits="userSpaceOnUse"
       gradientTransform="matrix(1.5,0,0,1.5,-105.5,0.5)"
       x2="42"
       x1="34"
       id="k-9" />
    <linearGradient
       xlink:href="#h-1"
       gradientUnits="userSpaceOnUse"
       gradientTransform="matrix(1.5,0,0,1.5,-27.5,-8.5)"
       x2="11"
       x1="7"
       id="a-36" />
    <linearGradient
       gradientTransform="matrix(1.5,0,0,1.5,-4.000002,-4.0000008)"
       id="a-3-0"
       x2="0"
       y1="45"
       y2="13"
       gradientUnits="userSpaceOnUse">
      <stop
         stop-color="#663579"
         offset="0"
         id="stop897" />
      <stop
         stop-color="#16a085"
         offset="1"
         id="stop899" />
    </linearGradient>
    <linearGradient
       id="b-6"
       x2="0"
       y1="14.849"
       y2="26.16"
       gradientUnits="userSpaceOnUse">
      <stop
         offset="0"
         id="stop902" />
      <stop
         stop-opacity="0"
         offset="1"
         id="stop904" />
    </linearGradient>
    <linearGradient
       id="c"
       x2="0"
       y1="31.885"
       y2="44.48"
       gradientUnits="userSpaceOnUse"
       xlink:href="#b-6" />
    <linearGradient
       id="d"
       x2="0"
       y1="36.77"
       y2="48.08"
       gradientUnits="userSpaceOnUse"
       xlink:href="#b-6" />
    <linearGradient
       gradientTransform="matrix(1.5,0,0,1.5,-4.000002,-4.0000008)"
       id="f-7"
       x2="0"
       y1="42.827"
       y2="4.113"
       gradientUnits="userSpaceOnUse">
      <stop
         stop-color="#c6cdd1"
         offset="0"
         id="stop909" />
      <stop
         stop-color="#e0e5e7"
         offset="1"
         id="stop911" />
    </linearGradient>
    <linearGradient
       id="g-5"
       x1="8.213"
       x2="40.551"
       gradientUnits="userSpaceOnUse">
      <stop
         stop-color="#1d1e1e"
         offset="0"
         id="stop914" />
      <stop
         stop-color="#2c2f32"
         offset="1"
         id="stop916" />
    </linearGradient>
    <linearGradient
       id="h-3"
       x1="7"
       x2="11"
       gradientTransform="translate(-21,-3)"
       gradientUnits="userSpaceOnUse">
      <stop
         stop-color="#1d1e1e"
         offset="0"
         id="stop919" />
      <stop
         stop-color="#44484c"
         offset="1"
         id="stop921" />
    </linearGradient>
    <linearGradient
       id="i-5"
       x1="23"
       x2="28"
       gradientTransform="translate(-45,6)"
       gradientUnits="userSpaceOnUse"
       xlink:href="#h-3" />
    <linearGradient
       id="j-6"
       x1="19"
       x2="25"
       gradientTransform="translate(-52,-8)"
       gradientUnits="userSpaceOnUse"
       xlink:href="#h-3" />
    <linearGradient
       id="k-2"
       x1="34"
       x2="42"
       gradientTransform="translate(-73,3)"
       gradientUnits="userSpaceOnUse"
       xlink:href="#h-3" />
    <filter
       id="o"
       x="-.13309"
       y="-.13309"
       width="1.2662"
       height="1.2662"
       color-interpolation-filters="sRGB">
      <feGaussianBlur
         stdDeviation="0.74505189"
         id="feGaussianBlur927" />
    </filter>
    <filter
       id="n"
       x="-.13309"
       y="-.13309"
       width="1.2662"
       height="1.2662"
       color-interpolation-filters="sRGB">
      <feGaussianBlur
         stdDeviation="0.74505189"
         id="feGaussianBlur930" />
    </filter>
    <filter
       id="m"
       x="-.14049"
       y="-.14049"
       width="1.281"
       height="1.281"
       color-interpolation-filters="sRGB">
      <feGaussianBlur
         stdDeviation="0.74505189"
         id="feGaussianBlur933" />
    </filter>
    <linearGradient
       id="l"
       x2="0"
       y1="14.849"
       y2="26.16"
       gradientUnits="userSpaceOnUse"
       xlink:href="#b-6" />
    <linearGradient
       id="e"
       x1="7"
       x2="11"
       gradientTransform="translate(-21,-3)"
       gradientUnits="userSpaceOnUse"
       xlink:href="#h-3" />
    <filter
       id="p"
       x="-.036"
       y="-.036"
       width="1.072"
       height="1.072"
       color-interpolation-filters="sRGB">
      <feGaussianBlur
         stdDeviation="0.6"
         id="feGaussianBlur938" />
    </filter>
    <filter
       color-interpolation-filters="sRGB"
       height="1.1224"
       width="1.1177"
       y="-.061197"
       x="-.058849"
       id="filter909">
      <feGaussianBlur
         id="feGaussianBlur2-62"
         stdDeviation="0.90087503" />
    </filter>
    <filter
       color-interpolation-filters="sRGB"
       height="1.1272"
       width="1.1135"
       y="-.063623"
       x="-.056768"
       id="filter935">
      <feGaussianBlur
         id="feGaussianBlur5"
         stdDeviation="1.060375" />
    </filter>
    <linearGradient
       gradientTransform="translate(86.949358)"
       gradientUnits="userSpaceOnUse"
       y2="10.968"
       y1="56.798"
       x2="31.073"
       x1="30.242"
       id="linearGradient949">
      <stop
         id="stop8"
         offset="0"
         stop-color="#ff8a34" />
      <stop
         id="stop10-6"
         offset="1"
         stop-color="#ffdc34" />
    </linearGradient>
    <linearGradient
       gradientUnits="userSpaceOnUse"
       gradientTransform="matrix(1.5,0,0,1.5,-669.28064,-752.85)"
       y2="508.15"
       y1="540.16"
       x2="525.29"
       x1="525.29"
       id="linearGradient879">
      <stop
         id="stop13"
         offset="0"
         stop-color="#18222a" />
      <stop
         id="stop15-1"
         offset="1"
         stop-color="#566069" />
    </linearGradient>
    <linearGradient
       id="linearGradient910"
       x1="45"
       x2="60.076"
       y1="19"
       y2="3.9236"
       gradientTransform="matrix(0.89283,0,0,-0.89283,114.05436,60.491)"
       gradientUnits="userSpaceOnUse">
      <stop
         stop-color="#fff"
         offset="0"
         id="stop2-9" />
      <stop
         stop-color="#ffefcc"
         offset="1"
         id="stop4-1" />
    </linearGradient>
    <radialGradient
       id="radialGradient1089"
       cx="-10.016"
       cy="4.9291"
       r="1.6997"
       gradientTransform="matrix(6.8413,0.088798,-0.13161,10.14,218.5036,-115.08867)"
       gradientUnits="userSpaceOnUse">
      <stop
         offset="0"
         id="stop7-2" />
      <stop
         stop-opacity=".33"
         offset=".47598"
         id="stop9-7" />
      <stop
         stop-opacity=".01"
         offset=".86209"
         id="stop11" />
      <stop
         stop-opacity="0"
         offset="1"
         id="stop13-3" />
    </radialGradient>
    <linearGradient
       id="linearGradient940"
       x1="30"
       x2="30"
       y1="54"
       y2="9"
       gradientTransform="matrix(1,0,0,-1,110.62576,63.947)"
       gradientUnits="userSpaceOnUse">
      <stop
         stop-color="#fff"
         offset="0"
         id="stop16" />
      <stop
         stop-color="#f5f5f5"
         offset="1"
         id="stop18" />
    </linearGradient>
    <linearGradient
       id="b-3"
       x1="399.57"
       x2="399.57"
       y1="545.8"
       y2="517.8"
       gradientTransform="matrix(2.1429,0,0,2.1429,-826.36,-1107.5)"
       gradientUnits="userSpaceOnUse">
      <stop
         stop-color="#3889e9"
         offset="0"
         id="stop21" />
      <stop
         stop-color="#5ea5fb"
         offset="1"
         id="stop23" />
    </linearGradient>
    <linearGradient
       id="linearGradient862"
       x1="7.9373"
       x2="7.9373"
       y1="15.081"
       y2="1.852"
       gradientTransform="matrix(3.7796,0,0,3.7796,110.62576,0)"
       gradientUnits="userSpaceOnUse">
      <stop
         stop-color="#424242"
         offset="0"
         id="stop26" />
      <stop
         stop-color="#272727"
         offset="1"
         id="stop28" />
    </linearGradient>
    <filter
       id="filter1154"
       x="-.10142"
       y="-.11549"
       width="1.2028"
       height="1.231"
       color-interpolation-filters="sRGB">
      <feGaussianBlur
         stdDeviation="1.1577746"
         id="feGaussianBlur31" />
    </filter>
    <style
       id="style921"
       type="text/css" />
    <style
       id="style923"
       type="text/css" />
    <style
       id="style925"
       type="text/css" />
    <style
       id="style927"
       type="text/css" />
    <filter
       color-interpolation-filters="sRGB"
       height="1.048"
       width="1.048"
       y="-.024"
       x="-.024"
       id="filter11290">
      <feGaussianBlur
         id="feGaussianBlur929"
         stdDeviation="0.15875313" />
    </filter>
    <linearGradient
       gradientUnits="userSpaceOnUse"
       gradientTransform="matrix(3.7796,0,0,3.7796,-0.13309,0.024828)"
       y2=".64687"
       y1="16.296"
       x2="16.388"
       x1=".73911"
       id="linearGradient1005">
      <stop
         id="stop932"
         offset="0"
         stop-color="#00dc96" />
      <stop
         id="stop934"
         offset="1"
         stop-color="#14d29b" />
    </linearGradient>
    <style
       id="style937"
       type="text/css" />
    <style
       id="style939"
       type="text/css" />
    <style
       id="style941"
       type="text/css" />
    <linearGradient
       id="linearGradient1057">
      <stop
         id="stop1229"
         offset="0"
         stop-color="#fff" />
      <stop
         id="stop1231"
         offset="1"
         stop-opacity="0"
         stop-color="#fff" />
    </linearGradient>
    <linearGradient
       gradientUnits="userSpaceOnUse"
       gradientTransform="matrix(1.5625,0,0,1.5625,0.40633,-5.1891)"
       y2="52.847"
       y1="27.545"
       x2="34.999"
       x1="34.999"
       id="linearGradient982">
      <stop
         id="stop1234"
         offset="0"
         stop-color="#32b4ff" />
      <stop
         id="stop1236"
         offset="1"
         stop-color="#3287ff" />
    </linearGradient>
    <style
       id="style1239"
       type="text/css" />
    <style
       id="style1241"
       type="text/css" />
    <linearGradient
       gradientUnits="userSpaceOnUse"
       gradientTransform="matrix(1.5625,0,0,1.5625,-9.2253,1.3231)"
       y2="43.681"
       y1="18.052"
       x2="21.314"
       x1="21.314"
       id="linearGradient1047">
      <stop
         id="stop1243"
         offset="0"
         stop-color="#14dc78" />
      <stop
         id="stop1245"
         offset="1"
         stop-color="#14a03c" />
    </linearGradient>
    <linearGradient
       gradientUnits="userSpaceOnUse"
       gradientTransform="matrix(1.5625,0,0,1.5625,-8.1072,-10.908)"
       y2="37.368"
       y1="12.316"
       x2="41.729"
       x1="41.729"
       id="linearGradient1049">
      <stop
         id="stop1248"
         offset="0"
         stop-color="#ff3c64" />
      <stop
         id="stop1250"
         offset="1"
         stop-color="#ff4628" />
    </linearGradient>
    <linearGradient
       xlink:href="#linearGradient1057"
       gradientUnits="userSpaceOnUse"
       gradientTransform="matrix(1,0,0,1.2271,0.20646,-10.975)"
       y2="39.768"
       y1="32.234"
       x2="34.427"
       x1="34.427"
       id="linearGradient1059" />
    <linearGradient
       xlink:href="#linearGradient1057"
       gradientUnits="userSpaceOnUse"
       gradientTransform="matrix(1,0,0,1.2271,-12.55,-19.793)"
       y2="39.768"
       y1="32.234"
       x2="34.427"
       x1="34.427"
       id="linearGradient1063" />
    <linearGradient
       xlink:href="#linearGradient1057"
       gradientUnits="userSpaceOnUse"
       gradientTransform="matrix(1,0,0,1.2271,5.7554,-25.761)"
       y2="39.768"
       y1="32.234"
       x2="34.427"
       x1="34.427"
       id="linearGradient1067" />
    <filter
       color-interpolation-filters="sRGB"
       height="1.048"
       width="1.048"
       y="-.024"
       x="-.024"
       id="filter11290-3">
      <feGaussianBlur
         id="feGaussianBlur1256"
         stdDeviation="0.15875313" />
    </filter>
    <linearGradient
       gradientUnits="userSpaceOnUse"
       gradientTransform="matrix(3.7796,0,0,3.7796,-0.13155,0.0250173)"
       y2=".64687"
       y1="16.296"
       x2="16.388"
       x1=".73911"
       id="linearGradient1005-6">
      <stop
         id="stop1259"
         offset="0"
         stop-color="#dddfe1" />
      <stop
         id="stop1261"
         offset="1"
         stop-color="#f3f4f6" />
    </linearGradient>
  </defs>
  <sodipodi:namedview
     pagecolor="#ffffff"
     bordercolor="#666666"
     borderopacity="1"
     objecttolerance="10"
     gridtolerance="10"
     guidetolerance="10"
     inkscape:pageopacity="0"
     inkscape:pageshadow="2"
     inkscape:window-width="1920"
     inkscape:window-height="935"
     id="namedview29"
     showgrid="false"
     inkscape:zoom="4.0364583"
     inkscape:cx="24.228691"
     inkscape:cy="40.2662"
     inkscape:window-x="0"
     inkscape:window-y="38"
     inkscape:window-maximized="1"
     inkscape:current-layer="svg27"
     inkscape:document-rotation="0" />
  <linearGradient
     id="a"
     gradientTransform="matrix(0.93656781,0,0,0.94442665,143.00429,52.34307)"
     gradientUnits="userSpaceOnUse"
     x1="41.749325"
     x2="41.357147"
     y1="226.20387"
     y2="102.25676">
    <stop
       offset="0"
       stop-color="#197cf1"
       id="stop2" />
    <stop
       offset="1"
       stop-color="#20bcfa"
       id="stop4" />
  </linearGradient>
  <g
     id="g1320">
    <circle
       transform="matrix(3.7796,0,0,3.7796,-0.10278795,0.02458453)"
       cx="8.4937"
       cy="8.46"
       r="7.9376998"
       filter="url(#filter11290)"
       opacity="0.25"
       stroke-width="0.14032"
       id="circle1266"
       style="filter:url(#filter11290-3)" />
    <circle
       style="fill:url(#b-3)"
       cx="32.02"
       cy="32.043999"
       r="0"
       fill="url(#b-3)"
       stroke-width="1.5715"
       id="circle52-0" />
    <g
       fill="#5e4aa6"
       id="g989">
      <circle
         cx="-1248.7"
         cy="-1241.6"
         r="0"
         id="circle945-9" />
      <circle
         cx="-149.14999"
         cy="23.855"
         r="0"
         fill-rule="evenodd"
         id="circle947" />
      <circle
         cx="-1248.7"
         cy="-1241.6"
         r="0"
         id="circle949" />
      <circle
         cx="-149.14999"
         cy="23.855"
         r="0"
         fill-rule="evenodd"
         id="circle951" />
      <circle
         cx="-1150.9"
         cy="-1256.6"
         r="0"
         id="circle953" />
      <circle
         cx="-51.327"
         cy="8.8744001"
         r="0"
         fill-rule="evenodd"
         id="circle955-3" />
      <g
         transform="matrix(3.7796,0,0,3.7796,167.86,4.61)"
         stroke-width="0.26458"
         id="g987">
        <g
           transform="translate(-0.0272,0.0065001)"
           id="g965">
          <circle
             cx="-330.35001"
             cy="-328.38"
             r="0"
             id="circle957-6" />
          <circle
             cx="-312.10999"
             cy="-326.25"
             r="0"
             id="circle959" />
          <circle
             cx="-306.01999"
             cy="-333.07001"
             r="0"
             id="circle961-0" />
          <circle
             cx="-308.84"
             cy="-326.01001"
             r="0"
             id="circle963" />
        </g>
        <g
           transform="translate(-0.0272,0.0065001)"
           id="g975">
          <circle
             cx="-330.35001"
             cy="-328.38"
             r="0"
             id="circle967-6" />
          <circle
             cx="-312.10999"
             cy="-326.25"
             r="0"
             id="circle969-2" />
          <circle
             cx="-306.01999"
             cy="-333.07001"
             r="0"
             id="circle971-6" />
          <circle
             cx="-308.84"
             cy="-326.01001"
             r="0"
             id="circle973" />
        </g>
        <g
           transform="translate(-0.02705,0.0064503)"
           id="g985">
          <circle
             cx="-330.35001"
             cy="-328.38"
             r="0"
             id="circle977-1" />
          <circle
             cx="-312.10999"
             cy="-326.25"
             r="0"
             id="circle979" />
          <circle
             cx="-306.01999"
             cy="-333.07001"
             r="0"
             id="circle981" />
          <circle
             cx="-308.84"
             cy="-326.01001"
             r="0"
             id="circle983" />
        </g>
      </g>
    </g>
    <g
       transform="translate(-168.12,-62.045)"
       fill="#5e4aa6"
       id="g1009">
      <circle
         cx="-1248.7"
         cy="-1241.6"
         r="0"
         id="circle991" />
      <circle
         cx="-149.14999"
         cy="23.855"
         r="0"
         fill-rule="evenodd"
         id="circle993" />
      <circle
         cx="-1150.9"
         cy="-1256.6"
         r="0"
         id="circle995" />
      <circle
         cx="-51.327"
         cy="8.8744001"
         r="0"
         fill-rule="evenodd"
         id="circle997" />
      <g
         transform="matrix(3.7796,0,0,3.7796,-0.10224,0.02438)"
         stroke-width="0.26458"
         id="g1007">
        <circle
           cx="-330.35001"
           cy="-328.38"
           r="0"
           id="circle999" />
        <circle
           cx="-312.10999"
           cy="-326.25"
           r="0"
           id="circle1001" />
        <circle
           cx="-306.01999"
           cy="-333.07001"
           r="0"
           id="circle1003" />
        <circle
           cx="-308.84"
           cy="-326.01001"
           r="0"
           id="circle1005" />
      </g>
    </g>
    <g
       transform="matrix(3.7796,0,0,3.7796,-168.23,-62.021)"
       fill="#5e4aa6"
       stroke-width="0.26458"
       id="g1023">
      <circle
         cx="-330.35001"
         cy="-328.38"
         r="0"
         id="circle1015" />
      <circle
         cx="-312.10999"
         cy="-326.25"
         r="0"
         id="circle1017" />
      <circle
         cx="-306.01999"
         cy="-333.07001"
         r="0"
         id="circle1019" />
      <circle
         cx="-308.84"
         cy="-326.01001"
         r="0"
         id="circle1021" />
    </g>
    <g
       transform="translate(-285.54,-103.27)"
       fill="#5e4aa6"
       id="g1065">
      <circle
         cx="-1248.7"
         cy="-1241.6"
         r="0"
         id="circle1025" />
      <circle
         cx="-149.14999"
         cy="23.855"
         r="0"
         fill-rule="evenodd"
         id="circle1027" />
      <circle
         cx="-1150.9"
         cy="-1256.6"
         r="0"
         id="circle1029" />
      <circle
         cx="-51.327"
         cy="8.8744001"
         r="0"
         fill-rule="evenodd"
         id="circle1031" />
      <g
         transform="matrix(3.7796,0,0,3.7796,167.86,4.61)"
         stroke-width="0.26458"
         id="g1063">
        <g
           transform="translate(-0.0272,0.0065001)"
           id="g1041">
          <circle
             cx="-330.35001"
             cy="-328.38"
             r="0"
             id="circle1033" />
          <circle
             cx="-312.10999"
             cy="-326.25"
             r="0"
             id="circle1035" />
          <circle
             cx="-306.01999"
             cy="-333.07001"
             r="0"
             id="circle1037" />
          <circle
             cx="-308.84"
             cy="-326.01001"
             r="0"
             id="circle1039" />
        </g>
        <g
           transform="translate(-0.0272,0.0065001)"
           id="g1051">
          <circle
             cx="-330.35001"
             cy="-328.38"
             r="0"
             id="circle1043" />
          <circle
             cx="-312.10999"
             cy="-326.25"
             r="0"
             id="circle1045" />
          <circle
             cx="-306.01999"
             cy="-333.07001"
             r="0"
             id="circle1047" />
          <circle
             cx="-308.84"
             cy="-326.01001"
             r="0"
             id="circle1049" />
        </g>
        <g
           transform="translate(-0.02705,0.0064503)"
           id="g1061">
          <circle
             cx="-330.35001"
             cy="-328.38"
             r="0"
             id="circle1053" />
          <circle
             cx="-312.10999"
             cy="-326.25"
             r="0"
             id="circle1055" />
          <circle
             cx="-306.01999"
             cy="-333.07001"
             r="0"
             id="circle1057" />
          <circle
             cx="-308.84"
             cy="-326.01001"
             r="0"
             id="circle1059" />
        </g>
      </g>
    </g>
    <circle
       cx="-1323.2103"
       cy="-1271.9016"
       r="0"
       fill="#5e4aa6"
       id="circle1270" />
    <circle
       cx="-223.66037"
       cy="-6.4465895"
       r="0"
       fill="#5e4aa6"
       fill-rule="evenodd"
       id="circle1272" />
    <g
       transform="matrix(3.7796,0,0,3.7796,-177.43037,-69.021589)"
       fill="#5e4aa6"
       stroke-width="0.26458"
       id="g1296">
      <circle
         cx="-330.35001"
         cy="-328.38"
         r="0"
         id="circle1288" />
      <circle
         cx="-312.10999"
         cy="-326.25"
         r="0"
         id="circle1290" />
      <circle
         cx="-306.01999"
         cy="-333.07001"
         r="0"
         id="circle1292" />
      <circle
         cx="-308.84"
         cy="-326.01001"
         r="0"
         id="circle1294" />
    </g>
    <circle
       style="fill:url(#f-7)"
       id="circle945"
       stroke-width="1.99995"
       stroke-linejoin="bevel"
       stroke-linecap="round"
       fill="url(#f)"
       r="30"
       cy="32"
       cx="32.000004" />
    <g
       transform="matrix(1.5,0,0,1.5,-4.000002,-4.0000008)"
       id="g951"
       stroke-width="0.66667"
       fill-rule="evenodd">
      <path
         transform="matrix(0.66666667,0,0,0.66666667,2.666668,2.6666672)"
         d="m 8.3515625,13.595703 v 0.002 C 4.2475625,18.855156 2.012,25.331 2,32 c 0,0.501592 0.012795,1.000556 0.037109,1.496094 a 30,30 0 0 0 0.00195,0.0293 30,30 0 0 0 0.00586,0.08984 c 0.023659,0.446283 0.056666,0.889194 0.099609,1.330078 a 30,30 0 0 0 0.033203,0.310547 c 0.039206,0.363393 0.086614,0.724609 0.1386718,1.083985 A 30,30 0 0 0 2.375,36.730469 c 0.00352,0.02226 0.00814,0.04416 0.011719,0.06641 0.045302,0.281989 0.095337,0.5625 0.1484374,0.841797 a 30,30 0 0 0 0.00977,0.05078 30,30 0 0 0 0.1464843,0.716797 c 0.042404,0.195002 0.088591,0.388468 0.1347657,0.582031 a 30,30 0 0 0 0.013672,0.05273 30,30 0 0 0 0.2148437,0.839843 c 0.017366,0.06396 0.034957,0.127615 0.052734,0.191407 0.035483,0.127322 0.072262,0.254227 0.109375,0.380859 a 30,30 0 0 0 0.3554687,1.130859 30,30 0 0 0 0.03125,0.0918 30,30 0 0 0 0.4628906,1.265625 30,30 0 0 0 0.5332032,1.273438 30,30 0 0 0 0.5917968,1.248047 c 0.025279,0.05025 0.05062,0.1003 0.076172,0.15039 a 30,30 0 0 0 0.1523438,0.294922 30,30 0 0 0 0.4101562,0.757813 30,30 0 0 0 0.00977,0.01758 c 0.1031546,0.183422 0.2075789,0.365869 0.3144531,0.546875 a 30,30 0 0 0 0.3417969,0.566406 c 0.1510459,0.243381 0.3051381,0.483987 0.4628906,0.722656 a 30,30 0 0 0 0.3183594,0.47461 30,30 0 0 0 0.023437,0.0332 c 0.1520103,0.220098 0.3071557,0.438518 0.4648438,0.654297 a 30,30 0 0 0 0.3457031,0.464843 c 0.00505,0.0066 0.010568,0.0129 0.015625,0.01953 0.1811239,0.237681 0.3647487,0.473047 0.5527344,0.705078 a 30,30 0 0 0 0.025391,0.0293 30,30 0 0 0 0.2578125,0.316406 30,30 0 0 0 0.00977,0.01172 c 0.2419043,0.289392 0.4897274,0.573539 0.7421876,0.853515 a 30,30 0 0 0 0.1367187,0.154297 30,30 0 0 0 0.029297,0.03125 c 0.2776185,0.302813 0.5618645,0.599452 0.8515625,0.890625 a 30,30 0 0 0 0.09961,0.09961 30,30 0 0 0 0.0059,0.0059 c 0.296034,0.294615 0.598186,0.583114 0.90625,0.865234 a 30,30 0 0 0 0.183593,0.166016 c 0.281225,0.253332 0.568667,0.501456 0.859375,0.74414 a 30,30 0 0 0 0.25,0.207032 c 0.304044,0.248309 0.611983,0.49012 0.925782,0.726562 a 30,30 0 0 0 0.0059,0.0039 30,30 0 0 0 0.212891,0.158204 c 0.274864,0.203233 0.553995,0.40175 0.835937,0.595703 a 30,30 0 0 0 0.07422,0.05078 30,30 0 0 0 0.382812,0.255859 c 0.01958,0.01295 0.03899,0.02616 0.05859,0.03906 0.205971,0.135507 0.413579,0.267911 0.623047,0.398437 a 30,30 0 0 0 0.09375,0.05859 30,30 0 0 0 0.552734,0.332031 c 0.179893,0.1059 0.360698,0.210271 0.542969,0.3125 a 30,30 0 0 0 0.09766,0.05469 30,30 0 0 0 0.777344,0.414062 30,30 0 0 0 0.117188,0.06055 30,30 0 0 0 1.095703,0.535157 30,30 0 0 0 0.484375,0.216796 30,30 0 0 0 0.847656,0.357422 30,30 0 0 0 0.429687,0.169922 30,30 0 0 0 1.138672,0.414063 30,30 0 0 0 0.230469,0.07813 30,30 0 0 0 1.25,0.382812 30,30 0 0 0 1.152344,0.302734 c 0.21096,0.05068 0.422096,0.100292 0.634765,0.146485 a 30,30 0 0 0 0.03711,0.0078 30,30 0 0 0 0.662109,0.134766 c 0.274526,0.05279 0.550991,0.101232 0.828125,0.146484 a 30,30 0 0 0 0.517578,0.08203 c 0.367421,0.05341 0.73581,0.100655 1.107422,0.140625 a 30,30 0 0 0 0.02734,0.0039 30,30 0 0 0 0.306641,0.03125 c 0.435191,0.0419 0.874026,0.07649 1.314453,0.09961 a 30,30 0 0 0 0.0918,0.0039 C 30.993347,61.985621 31.494664,62 32,62 c 0.619697,-9.3e-5 1.237627,-0.02062 1.851562,-0.05859 a 30,30 0 0 0 0.0059,0 c 0.0019,-1.21e-4 0.0039,1.22e-4 0.0059,0 0.605382,-0.03768 1.206354,-0.09421 1.804688,-0.167968 a 30,30 0 0 0 0.02539,-0.002 c 0.0065,-8.07e-4 0.01303,-0.0011 0.01953,-0.002 0.593444,-0.07406 1.182502,-0.166578 1.767578,-0.27539 a 30,30 0 0 0 0.02539,-0.0039 c 0.0079,-0.0015 0.01551,-0.0044 0.02344,-0.0059 0.591704,-0.111063 1.180055,-0.23891 1.761719,-0.384766 0.589453,-0.147808 1.172347,-0.313345 1.75,-0.496093 0.577652,-0.182749 1.150492,-0.382716 1.714843,-0.59961 1.128704,-0.433787 2.228422,-0.934406 3.294922,-1.5 0.53325,-0.282797 1.05877,-0.581929 1.574219,-0.896484 0.515449,-0.314556 1.02143,-0.644716 1.517578,-0.990234 2.976891,-2.073112 5.592484,-4.697594 7.685547,-7.785157 -3.3765,-0.0405 -25.059531,-0.540359 -27.894531,-7.630859 -3.0675,-7.668 7.669265,-9.201141 6.134765,-16.869141 -1.92,-9.6 -20.490297,-10.661328 -26.7167965,-10.736328 z"
         style="fill:url(#a-3-0);stroke-width:1.00001"
         id="path947" />
      <path
         style="fill:url(#g-5)"
         id="path949"
         fill="url(#g)"
         d="m 8.234,11.732 c -0.007,0.01 -0.014,0.02 -0.021,0.029 4.798,0.144 15.634,1.137 16.832,7.127 1.022,5.112 -6.179,6.09 -4.134,11.202 1.891,4.726 16.838,6.883 19.09,6.909 l 0.551,-1.777 C 38.301,35.195 23.847,34.861 21.956,30.134 19.911,25.022 27.068,24 26.046,18.888 24.766,12.488 12.386,11.781 8.235,11.732" />
    </g>
    <g
       transform="matrix(1.5,0,0,1.5,-4.000002,-4.0000008)"
       id="g981"
       stroke-width="1.3333"
       stroke-linejoin="bevel">
      <g
         id="g963"
         stroke-linecap="round">
        <rect
           id="rect953"
           opacity="0.2"
           filter="url(#o)"
           fill="url(#l)"
           height="15"
           width="4"
           y="14.85"
           x="-4.1199999"
           transform="rotate(-45)"
           style="fill:url(#l)" />
        <circle
           id="circle955"
           fill="url(#e)"
           r="2"
           cy="9"
           cx="-12"
           transform="rotate(-90)"
           style="fill:url(#e)" />
        <circle
           id="circle957"
           fill="#ffffff"
           r="1"
           cy="12"
           cx="9" />
        <rect
           id="rect959"
           opacity="0.2"
           filter="url(#m)"
           fill="url(#d)"
           height="12"
           width="6"
           y="36.77"
           x="-8.6599998"
           transform="rotate(-45)"
           style="fill:url(#d)" />
        <circle
           style="fill:url(#j-6)"
           id="circle961"
           fill="url(#j)"
           r="3"
           cy="22"
           cx="-30"
           transform="rotate(-90)" />
      </g>
      <path
         id="path965"
         opacity="0.2"
         filter="url(#n)"
         fill="url(#c)"
         d="m 1.743,31.82 h 5 v 14 h -5 z"
         transform="rotate(-45)"
         style="fill:url(#c)" />
      <g
         id="g979"
         stroke-linecap="round">
        <circle
           style="fill:url(#i-5)"
           id="circle967"
           fill="url(#i)"
           r="2.5"
           cy="25.5"
           cx="-19.5"
           transform="rotate(-90)" />
        <g
           id="g973"
           fill="#ffffff">
          <circle
             id="circle969"
             r="1.5"
             cy="19.5"
             cx="25.5" />
          <circle
             id="circle971"
             r="2"
             cy="30"
             cx="22" />
        </g>
        <circle
           style="fill:url(#k-2)"
           id="circle975"
           fill="url(#k)"
           r="4"
           cy="38"
           cx="-35"
           transform="rotate(-90)" />
        <circle
           id="circle977"
           fill="#ffffff"
           r="3"
           cy="35"
           cx="38" />
      </g>
    </g>
  </g>
</svg>
