<?xml version="1.0" encoding="UTF-8"?>
<svg width="64" height="64" version="1.1" viewBox="0 0 16.933 16.933" xmlns="http://www.w3.org/2000/svg" xmlns:cc="http://creativecommons.org/ns#" xmlns:dc="http://purl.org/dc/elements/1.1/" xmlns:rdf="http://www.w3.org/1999/02/22-rdf-syntax-ns#">
 <metadata>
  <rdf:RDF>
   <cc:Work rdf:about="">
    <dc:format>image/svg+xml</dc:format>
    <dc:type rdf:resource="http://purl.org/dc/dcmitype/StillImage"/>
   </cc:Work>
  </rdf:RDF>
 </metadata>
 <defs>
  <filter id="filter11290-7" x="-.024" y="-.024" width="1.048" height="1.048" color-interpolation-filters="sRGB">
   <feGaussianBlur stdDeviation="0.15875313"/>
  </filter>
  <linearGradient id="linearGradient1005-5" x1=".8714" x2="16.246" y1="16.164" y2=".78937" gradientTransform="translate(17.094 4.2506)" gradientUnits="userSpaceOnUse">
   <stop stop-color="#ffc841" offset="0"/>
   <stop stop-color="#ffc841" offset="1"/>
  </linearGradient>
  <filter id="filter1091" x="-.092044" y="-.092044" width="1.1841" height="1.1841" color-interpolation-filters="sRGB">
   <feGaussianBlur stdDeviation="0.30215974"/>
  </filter>
  <linearGradient id="linearGradient2456" x1="8.5858" x2="16.465" y1="-5.5948" y2="-13.703" gradientTransform="translate(12.981 22.137)" gradientUnits="userSpaceOnUse">
   <stop stop-color="#f5f5f5" offset="0"/>
   <stop stop-color="#fff" offset="1"/>
  </linearGradient>
  <linearGradient id="linearGradient2458" x1="8.9222" x2="15.926" y1="-5.3552" y2="-11.992" gradientTransform="translate(12.981 22.137)" gradientUnits="userSpaceOnUse">
   <stop stop-color="#ffdc96" offset="0"/>
   <stop stop-color="#fff" offset="1"/>
  </linearGradient>
 </defs>
 <g transform="translate(-17.129 -4.2441)">
  <circle cx="25.595" cy="12.711" r="7.9377" filter="url(#filter11290-7)" opacity=".25" stroke-width=".14032"/>
  <path d="m33.533 12.711c0 0.95153-0.16749 1.8639-0.47465 2.7093-0.21351 0.58768-0.49439 1.1433-0.83392 1.6572-0.14222 0.21608-0.29514 0.42475-0.45746 0.62528-0.51966 0.64179-1.1372 1.2007-1.8305 1.6543-0.2553 0.16718-0.52064 0.32009-0.79535 0.45711-1.0668 0.53389-2.2711 0.83422-3.5456 0.83422s-2.4788-0.30032-3.5456-0.83424c-0.27474-0.13705-0.5404-0.28998-0.79569-0.45711-0.70206-0.45973-1.327-1.0274-1.8509-1.6798-0.16263-0.20216-0.31524-0.41274-0.45746-0.63078-0.33046-0.5054-0.60422-1.0507-0.8135-1.627-0.30712-0.8453-0.47431-1.7573-0.47431-2.7085 0-4.3838 3.5538-7.9376 7.9376-7.9376 2.2005 0 4.1917 0.89549 5.6294 2.3417 0.41436 0.41663 0.78273 0.8793 1.0963 1.3795 0.29646 0.47108 0.54429 0.97582 0.73704 1.5068 0.30718 0.84559 0.47468 1.7579 0.47468 2.7093z" fill="url(#linearGradient1005-5)" stroke-width=".031006"/>
  <circle cx="25.595" cy="12.711" r="6.6145" fill="#f5f5f5" stroke-width="1.1308"/>
  <g fill="#f08705">
   <path transform="matrix(.98854 0 0 .95108 13.2 21.898)" d="m8.8145-5.537s-0.19283-0.13005-0.19283-0.19731c0-0.067264 0.5286-1.9107 0.58567-2.0122 0.057077-0.10147 6.1025-6.1025 6.1025-6.1025s0.27603-0.21726 0.44643-0.08272c0.17041 0.13453 0.74406 0.74406 0.74406 0.74406z" filter="url(#filter1091)" opacity=".5"/>
   <path transform="matrix(.98854 0 0 .95108 13.2 21.898)" d="m8.8145-5.537s0.13005 0.19283 0.19731 0.19283c0.067264 0 1.9107-0.5286 2.0122-0.58567 0.10147-0.057077 6.1025-6.1025 6.1025-6.1025s0.21725-0.27603 0.08272-0.44643c-0.13453-0.17041-0.74406-0.74406-0.74406-0.74406z" filter="url(#filter1091)" opacity=".5"/>
   <path d="m21.011 12.873c-0.0061 0.03965-0.0099 0.081-0.01572 0.12163h9.3736c-0.0055-0.04063-0.0096-0.08201-0.01633-0.12163z" opacity=".6" stroke-width=".71514" style="paint-order:normal"/>
   <path d="m21.011 14.797c-0.0061 0.03965-0.0099 0.081-0.01572 0.12163h9.3736c-0.0055-0.04063-0.0096-0.08201-0.01633-0.12163z" opacity=".6" stroke-width=".71514" style="paint-order:normal"/>
   <path d="m21.005 16.721c-0.0039 0.03965-0.0062 0.081-0.01 0.12163h5.9429c-0.0035-0.04063-0.0061-0.08201-0.01036-0.12163z" opacity=".6" stroke-width=".56943" style="paint-order:normal"/>
  </g>
  <rect x="21.556" y="8.1255" width="8.0797" height="3.9377" ry=".29532" fill="#ffc039" stroke-width=".55905"/>
  <path d="m23.611 8.6393c-0.29315 0-0.52916 0.236-0.52916 0.52916v1.852c0 0.29315 0.236 0.52916 0.52916 0.52916h3.9687c0.29315 0 0.52916-0.236 0.52916-0.52916v-1.852c0-0.29315-0.236-0.52916-0.52916-0.52916zm0 0.26458h3.9687c0.14658 0 0.26458 0.118 0.26458 0.26458v1.852c0 0.14658-0.118 0.26458-0.26458 0.26458h-3.9687c-0.14658 0-0.26458-0.118-0.26458-0.26458v-1.852c0-0.14658 0.118-0.26458 0.26458-0.26458zm0 0.26458v1.852h0.52916v-1.1038l0.52916 0.52916 0.52916-0.52916v1.1038h0.52916v-1.852h-0.52916l-0.52916 0.52916-0.52916-0.52916zm2.9104 0v1.0583h-0.52916l0.79373 0.79374 0.79374-0.79374h-0.52916v-1.0583z" fill="#fff" stroke-width=".26458"/>
  <path d="m21.795 16.6s-0.19283-0.13005-0.19283-0.19731 0.5286-1.9107 0.58567-2.0122c0.05708-0.10147 6.1025-6.1025 6.1025-6.1025s0.27603-0.21726 0.44643-0.08272c0.17041 0.13453 0.74406 0.74406 0.74406 0.74406z" fill="url(#linearGradient2456)"/>
  <path d="m21.795 16.6s0.13005 0.19283 0.19731 0.19283 1.9107-0.5286 2.0122-0.58567c0.10147-0.05708 6.1025-6.1025 6.1025-6.1025s0.21725-0.27603 0.08272-0.44643c-0.13453-0.17041-0.74406-0.74406-0.74406-0.74406z" fill="url(#linearGradient2458)"/>
 </g>
</svg>
