<?xml version="1.0" encoding="UTF-8"?>
<svg id="App-Store" width="64" height="64" enable-background="new 0 0 1024 1024" image-rendering="optimizeSpeed" version="1.1" viewBox="0 0 64 64" xmlns="http://www.w3.org/2000/svg" xmlns:cc="http://creativecommons.org/ns#" xmlns:dc="http://purl.org/dc/elements/1.1/" xmlns:rdf="http://www.w3.org/1999/02/22-rdf-syntax-ns#" xmlns:xlink="http://www.w3.org/1999/xlink">
 <metadata>
  <rdf:RDF>
   <cc:Work rdf:about="">
    <dc:format>image/svg+xml</dc:format>
    <dc:type rdf:resource="http://purl.org/dc/dcmitype/StillImage"/>
    <dc:title/>
   </cc:Work>
  </rdf:RDF>
 </metadata>
 <defs>
  <linearGradient id="e" x1="32" x2="32" y1="28.161" y2="47.489" gradientTransform="translate(-79.086 -3.5061)" gradientUnits="userSpaceOnUse">
   <stop stop-color="#389cf4" offset="0"/>
   <stop stop-color="#389cf4" offset="1"/>
  </linearGradient>
  <filter id="f" x="-.068441" y="-.053412" width="1.1369" height="1.1068" color-interpolation-filters="sRGB">
   <feGaussianBlur stdDeviation="0.43016144"/>
  </filter>
  <filter id="filter855-1" x="-.059067" y="-.060963" width="1.1181" height="1.1219" color-interpolation-filters="sRGB">
   <feGaussianBlur stdDeviation="0.2154143"/>
  </filter>
  <filter id="filter11290-3" x="-.024" y="-.024" width="1.048" height="1.048" color-interpolation-filters="sRGB">
   <feGaussianBlur stdDeviation="0.15875313"/>
  </filter>
 </defs>
 <circle transform="scale(3.7796)" cx="8.4665" cy="8.4665" r="7.9377" filter="url(#filter11290-3)" opacity=".25" stroke-width=".14032"/>
 <path d="m62.001 32c0 3.5964-0.63304 7.0448-1.794 10.24-0.80698 2.2212-1.8686 4.3212-3.1519 6.2636-0.53754 0.8167-1.1155 1.6054-1.729 2.3633-1.9641 2.4257-4.2982 4.5382-6.9186 6.2526-0.96493 0.63187-1.9678 1.2099-3.0061 1.7277-4.0321 2.0179-8.5839 3.153-13.401 3.153s-9.3689-1.1351-13.401-3.1531c-1.0384-0.518-2.0425-1.096-3.0074-1.7277-2.6535-1.7376-5.0155-3.8832-6.9957-6.349-0.61468-0.76408-1.1915-1.56-1.729-2.3841-1.249-1.9102-2.2837-3.9712-3.0747-6.1494-1.1608-3.1949-1.7927-6.6419-1.7927-10.237 0-16.569 13.432-30.001 30.001-30.001 8.317 0 15.843 3.3846 21.277 8.8507 1.5661 1.5747 2.9584 3.3234 4.1436 5.214 1.1205 1.7805 2.0572 3.6882 2.7857 5.6951 1.161 3.196 1.7941 6.6442 1.7941 10.24z" fill="#fafafa" stroke-width=".11719"/>
 <g transform="matrix(3.7796 0 0 3.7796 -.10281 .024568)" fill="#5e4aa6" stroke-width=".26458">
  <circle cx="-330.35" cy="-328.38" r="0"/>
  <circle cx="-312.11" cy="-326.25" r="0"/>
  <circle cx="-306.02" cy="-333.07" r="0"/>
  <circle cx="-308.84" cy="-326.01" r="0"/>
 </g>
 <g transform="matrix(5.3617 0 0 5.3617 -30.075 -1595.5)" filter="url(#filter855-1)">
  <g stroke-width=".57432">
   <path d="m11.15 307.77c2.6769-0.34724 5.3572-3.7582 4.7049-5.4512-0.37742-1.607-5.0847-4.1763-6.9323-2.4509-2.5258 2.2658-0.64776 8.1044 2.2273 7.9022z" fill="#389cf4"/>
   <path d="m7.5629 305.39c1.6391 2.1446 5.9332 2.7604 7.0734 1.349 1.2029-1.1303 1.0744-6.4916-1.3436-7.229-3.2251-1.0545-7.3425 3.4912-5.7298 5.88z" fill="#dc28eb" opacity=".8"/>
  </g>
  <path d="m10.303 303.89c0 0.76057 0.01435 1.026-0.47356 1.026s-0.87538 0.15785-0.87538 0.60271c0 0.44485 0.45921 0.66011 0.74621 0.66011 0.28701 0 0.85385-0.2009 0.85385-0.80362v-2.7265l2.4395-0.56683v2.088s0.0287 0.25114-0.29418 0.25114c-0.32287 0-1.0332-0.0933-1.0332 0.58838 0 0.68162 0.68882 0.63858 0.79644 0.63858 0.10763 0 0.80362-0.11479 0.80362-0.92559v-3.8316l-2.9776 0.57402z" fill="#fff" stroke-width=".16674"/>
 </g>
 <g transform="matrix(5.3617 0 0 5.3617 -30.075 -1595.5)" stroke-width=".57432">
  <path d="m11.15 307.77c2.6769-0.34724 5.3572-3.7582 4.7049-5.4512-0.37742-1.607-5.0847-4.1763-6.9323-2.4509-2.5258 2.2658-0.64776 8.1044 2.2273 7.9022z" fill="#389cf4"/>
  <path d="m7.5629 305.39c1.6391 2.1446 5.9332 2.7604 7.0734 1.349 1.2029-1.1303 1.0744-6.4916-1.3436-7.229-3.2251-1.0545-7.3425 3.4912-5.7298 5.88z" fill="#dc28eb" opacity=".8"/>
 </g>
 <circle cx="32.004" cy="31.97" r="19.671" fill="#fff" stroke-width="3.7796"/>
 <g transform="matrix(3.7796 0 0 3.7796 -190.64 -102.78)" fill="#5e4aa6" image-rendering="optimizeSpeed" stroke-width=".26458">
  <circle cx="-347.64" cy="-328.38" r="0"/>
  <circle cx="-56.726" cy="6.44" r="0" fill-rule="evenodd"/>
  <g transform="translate(-.0272 .0065001)">
   <circle cx="-330.35" cy="-328.38" r="0"/>
   <circle cx="-312.11" cy="-326.25" r="0"/>
   <circle cx="-306.02" cy="-333.07" r="0"/>
   <circle cx="-308.84" cy="-326.01" r="0"/>
  </g>
 </g>
 <g transform="matrix(3.7796 0 0 3.7796 -181.53 -95.975)" fill="#5e4aa6" image-rendering="optimizeSpeed" stroke-width=".26458">
  <circle cx="-330.35" cy="-328.38" r="0"/>
  <circle cx="-312.11" cy="-326.25" r="0"/>
  <circle cx="-306.02" cy="-333.07" r="0"/>
  <circle cx="-308.84" cy="-326.01" r="0"/>
 </g>
 <g transform="translate(79.086 -2.3182)" stroke-width="1.2589">
  <path d="m-51.594 25q-0.60602-0.4214-1.3324-0.3291c-0.48562 0.0602-0.88693 0.27291-1.2121 0.63813-0.32508 0.36522-0.48963 0.79466-0.48963 1.2843v15.451c0 0.48963 0.16454 0.91906 0.48963 1.2843 0.32508 0.36522 0.72644 0.57793 1.2121 0.63813 0.48562 0.0602 0.9271-0.05217 1.3324-0.3291l11.209-7.7254c0.35719-0.24481 0.602-0.57391 0.73843-0.97926 0.13645-0.40936 0.13645-0.8187 0-1.2241-0.13646-0.40535-0.38127-0.73447-0.73447-0.98327z" filter="url(#f)" opacity=".15"/>
  <path d="m-51.594 25q-0.60602-0.4214-1.3324-0.3291c-0.48562 0.0602-0.88693 0.27291-1.2121 0.63813-0.32508 0.36522-0.48963 0.79466-0.48963 1.2843v15.451c0 0.48963 0.16454 0.91906 0.48963 1.2843 0.32508 0.36522 0.72644 0.57793 1.2121 0.63813 0.48562 0.0602 0.9271-0.05217 1.3324-0.3291l11.209-7.7254c0.35719-0.24481 0.602-0.57391 0.73843-0.97926 0.13645-0.40936 0.13645-0.8187 0-1.2241-0.13646-0.40535-0.38127-0.73447-0.73447-0.98327z" fill="url(#e)"/>
 </g>
</svg>
