<?xml version="1.0" encoding="UTF-8"?>
<svg width="64" height="64" version="1.1" xmlns="http://www.w3.org/2000/svg" xmlns:cc="http://creativecommons.org/ns#" xmlns:dc="http://purl.org/dc/elements/1.1/" xmlns:rdf="http://www.w3.org/1999/02/22-rdf-syntax-ns#" xmlns:xlink="http://www.w3.org/1999/xlink">
 <metadata>
  <rdf:RDF>
   <cc:Work rdf:about="">
    <dc:format>image/svg+xml</dc:format>
    <dc:type rdf:resource="http://purl.org/dc/dcmitype/StillImage"/>
    <dc:title/>
   </cc:Work>
  </rdf:RDF>
 </metadata>
 <defs>
  <linearGradient id="a" x1="-50.258" x2="-52.706" y1="-167.99" y2="-309.35" gradientTransform="matrix(.1805 0 0 .1838 -17.495 79.329)" gradientUnits="userSpaceOnUse">
   <stop stop-color="#017bf5" offset="0"/>
   <stop stop-color="#52cdfb" offset="1"/>
  </linearGradient>
  <linearGradient id="d" x1="-98.577" x2="-101.03" y1="-166.03" y2="-348.97" gradientTransform="matrix(.1805 0 0 .1838 -17.495 79.329)" gradientUnits="userSpaceOnUse">
   <stop stop-color="#01bb22" offset="0"/>
   <stop stop-color="#51e784" offset="1"/>
  </linearGradient>
  <linearGradient id="e" x1="-145.4" x2="-145.58" y1="-167.26" y2="-280.65" gradientTransform="matrix(.1805 0 0 .1838 -17.495 79.329)" gradientUnits="userSpaceOnUse">
   <stop stop-color="#f06712" offset="0"/>
   <stop stop-color="#ffb436" offset="1"/>
  </linearGradient>
  <linearGradient id="f" x1="-194.48" x2="-194.66" y1="-239.97" y2="-166.64" gradientTransform="matrix(.1805 0 0 .1838 -17.495 79.329)" gradientUnits="userSpaceOnUse">
   <stop stop-color="#f35966" offset="0"/>
   <stop stop-color="#e0283f" offset="1"/>
  </linearGradient>
  <filter id="j" x="-.16921" y="-.083014" width="1.3384" height="1.166" color-interpolation-filters="sRGB">
   <feGaussianBlur stdDeviation="0.5268415"/>
  </filter>
  <filter id="i" x="-.16921" y="-.053865" width="1.3384" height="1.1077" color-interpolation-filters="sRGB">
   <feGaussianBlur stdDeviation="0.5268415"/>
  </filter>
  <filter id="h" x="-.16921" y="-.034174" width="1.3384" height="1.0683" color-interpolation-filters="sRGB">
   <feGaussianBlur stdDeviation="0.5268415"/>
  </filter>
  <filter id="g" x="-.16921" y="-.043363" width="1.3384" height="1.0867" color-interpolation-filters="sRGB">
   <feGaussianBlur stdDeviation="0.5268415"/>
  </filter>
  <style type="text/css"/>
  <style type="text/css"/>
  <filter id="filter11290" x="-.024" y="-.024" width="1.048" height="1.048" color-interpolation-filters="sRGB">
   <feGaussianBlur stdDeviation="0.15875313"/>
  </filter>
  <linearGradient id="linearGradient1005" x1=".73911" x2="16.388" y1="16.296" y2=".64687" gradientTransform="matrix(3.7796 0 0 3.7796 -.13194 .024584)" gradientUnits="userSpaceOnUse">
   <stop stop-color="#dddfe1" offset="0"/>
   <stop stop-color="#f3f4f6" offset="1"/>
  </linearGradient>
 </defs>
 <circle transform="matrix(3.7796 0 0 3.7796 -.10279 .024585)" cx="8.4937" cy="8.46" r="7.9377" filter="url(#filter11290)" opacity=".25" stroke-width=".14032"/>
 <path d="m62 32c0 3.5964-0.63305 7.0448-1.794 10.24-0.80698 2.2212-1.8686 4.3212-3.1519 6.2636-0.53754 0.8167-1.1155 1.6054-1.729 2.3633-1.9641 2.4257-4.2982 4.5382-6.9186 6.2526-0.96493 0.63187-1.9678 1.2099-3.0061 1.7277-4.0321 2.0179-8.5839 3.153-13.401 3.153s-9.3689-1.1351-13.401-3.1531c-1.0384-0.51799-2.0425-1.096-3.0074-1.7277-2.6535-1.7376-5.0155-3.8832-6.9957-6.349-0.61468-0.76408-1.1915-1.56-1.729-2.3841-1.249-1.9102-2.2837-3.9712-3.0747-6.1494-1.1608-3.1949-1.7927-6.6419-1.7927-10.237 0-16.569 13.432-30.001 30.001-30.001 8.317 0 15.843 3.3846 21.277 8.8507 1.5661 1.5747 2.9584 3.3234 4.1436 5.214 1.1205 1.7805 2.0572 3.6882 2.7857 5.6951 1.161 3.196 1.7941 6.6442 1.7941 10.24z" fill="url(#linearGradient1005)" stroke-width=".11719"/>
 <g fill="#5e4aa6">
  <circle cx="-1248.7" cy="-1241.6" r="0"/>
  <circle cx="-149.15" cy="23.855" r="0" fill-rule="evenodd"/>
  <g transform="matrix(3.7796 0 0 3.7796 -102.92 -38.72)" stroke-width=".26458">
   <circle cx="-330.35" cy="-328.38" r="0"/>
   <circle cx="-312.11" cy="-326.25" r="0"/>
   <circle cx="-306.02" cy="-333.07" r="0"/>
   <circle cx="-308.84" cy="-326.01" r="0"/>
  </g>
 </g>
 <g transform="translate(73.029 .91608)">
  <g transform="translate(-73.661)" opacity=".15">
   <rect x="17.377" y="33.782" width="7.4723" height="15.231" ry=".94005" filter="url(#j)" opacity="1"/>
   <rect x="25.964" y="25.539" width="7.4723" height="23.474" ry=".94309" filter="url(#i)" opacity="1"/>
   <rect transform="matrix(1 0 0 .97143 0 1.4)" x="34.551" y="12" width="7.4723" height="37" ry="1.1211" filter="url(#h)" opacity="1"/>
   <rect x="43.137" y="19.841" width="7.4723" height="29.159" ry=".8835" filter="url(#g)" opacity="1"/>
  </g>
  <rect x="-56.284" y="34.217" width="7.4723" height="14.796" ry=".9132" fill="url(#f)"/>
  <path d="m-55.668 32.723h6.2411c0.33954 0 0.49856 0.27886 0.51736 0.62406l0.09552 1.7533c0.0188 0.3452-0.27334 0.62406-0.61288 0.62406h-6.2411c-0.33954 0-0.63169-0.27886-0.61288-0.62406l0.09552-1.7533c0.0188-0.3452 0.17783-0.62406 0.51736-0.62406z" fill="#fe8f8a"/>
  <rect x="-47.697" y="26.21" width="7.4723" height="22.803" ry=".91615" fill="url(#e)"/>
  <path d="m-47.081 24.716h6.2411c0.33954 0 0.49856 0.22981 0.51736 0.51426l0.09552 1.4449c0.0188 0.28447-0.27334 0.51426-0.61288 0.51426h-6.2411c-0.33954 0-0.63169-0.22979-0.61288-0.51426l0.09552-1.4449c0.0188-0.28445 0.17783-0.51426 0.51737-0.51426z" fill="#ffc966"/>
  <rect x="-39.11" y="13.057" width="7.4723" height="35.943" ry="1.089" fill="url(#d)"/>
  <path d="m-38.494 12.337h6.2411c0.33954 0 0.49856 0.19672 0.51736 0.44022l0.09552 1.2368c0.0188 0.2435-0.27334 0.44022-0.61288 0.44022h-6.2411c-0.33954 0-0.63169-0.19672-0.61288-0.44022l0.09552-1.2368c0.0188-0.2435 0.17783-0.44022 0.51737-0.44022z" fill="#87ffa3"/>
  <rect x="-30.524" y="20.674" width="7.4723" height="28.326" ry=".85826" fill="url(#a)"/>
  <path d="m-29.909 19.423h6.2411c0.33954 0 0.49856 0.22898 0.51736 0.51244l0.09552 1.4397c0.01881 0.28346-0.27334 0.51244-0.61288 0.51244h-6.2411c-0.33954 0-0.63169-0.22898-0.61288-0.51244l0.09552-1.4397c0.0188-0.28346 0.17783-0.51244 0.51736-0.51244z" fill="#79d7ff"/>
  <g transform="matrix(1.9981 .069608 -.030795 .88398 -53.105 -339.61)" fill="#808080" stroke-width=".75197" aria-label="1 2 3 4 5">
   <path d="m3.4407 426.18v-0.21875h0.47774v1.5262h-0.25899v-1.3075z"/>
   <path d="m4.2303 430.6v0.21875h-1.0259l0.38722-0.49031q0.27659-0.34196 0.32436-0.42745 0.050289-0.088 0.050289-0.14332 0.00251-0.0151 0.00251-0.0302 0-0.10058-0.06789-0.17852-0.065375-0.0779-0.1735-0.0779-0.10812 0-0.17098 0.088-0.060346 0.088-0.060346 0.21372h-0.27155q0-0.2263 0.13326-0.37213 0.13578-0.14836 0.36711-0.14836 0.2087 0 0.35202 0.14081t0.14332 0.35202q0 0.19864-0.30425 0.55318l-0.25899 0.30173z"/>
   <path d="m3.2647 433.02q0.020115-0.20367 0.14332-0.32185 0.12321-0.11818 0.32185-0.11818 0.20115 0 0.32185 0.11567 0.12069 0.11566 0.12069 0.3143 0 0.22127-0.14584 0.31933 0.19613 0.0855 0.19613 0.37214 0 0.22127-0.14332 0.35453-0.14081 0.13076-0.36459 0.13076-0.2087 0-0.35705-0.1383-0.14835-0.13829-0.14835-0.34196h0.25899q0 0.11063 0.072918 0.18607 0.072919 0.0754 0.18355 0.0754 0.11315 0 0.17852-0.083 0.06789-0.083 0.06789-0.20115 0-0.0981-0.072919-0.18104-0.070404-0.0855-0.16092-0.0855-0.010058 0-0.020115 3e-3l-0.055318 5e-3v-0.17349h0.032688q0.095548 0 0.16344-0.0654 0.070404-0.0679 0.070404-0.16595 0-0.23384-0.21121-0.23384-0.2087 0-0.2087 0.23384z"/>
   <path d="m4.2655 436.98v0.19864h-0.18104v0.28916h-0.23887v-0.28916h-0.69398v-0.11314l0.68141-1.1516h0.25144v1.0661zm-0.41991-0.70404-0.39225 0.70404h0.39225z"/>
   <path d="m3.6696 439.49-0.060346 0.27407 0.11818-5e-3q0.21876 0 0.35453 0.1559 0.13829 0.15338 0.13829 0.37465 0 0.24641-0.15338 0.39728-0.15338 0.15086-0.40231 0.15086-0.27659 0-0.4526-0.20115l0.075433-0.22127q0.14584 0.20367 0.35705 0.20367 0.13075 0 0.22127-0.0905 0.093034-0.093 0.093034-0.24893 0-0.15841-0.095548-0.24641t-0.24139-0.088q-0.14584 0-0.23887 0.10058h-0.047774l0.15841-0.77445h0.66381v0.21876z"/>
  </g>
 </g>
</svg>
