<?xml version="1.0" encoding="UTF-8"?>
<svg width="64" height="64" version="1.1" viewBox="0 0 16.933 16.933" xmlns="http://www.w3.org/2000/svg" xmlns:cc="http://creativecommons.org/ns#" xmlns:dc="http://purl.org/dc/elements/1.1/" xmlns:rdf="http://www.w3.org/1999/02/22-rdf-syntax-ns#">
 <metadata>
  <rdf:RDF>
   <cc:Work rdf:about="">
    <dc:format>image/svg+xml</dc:format>
    <dc:type rdf:resource="http://purl.org/dc/dcmitype/StillImage"/>
   </cc:Work>
  </rdf:RDF>
 </metadata>
 <defs>
  <filter id="filter11290-3" x="-.024" y="-.024" width="1.048" height="1.048" color-interpolation-filters="sRGB">
   <feGaussianBlur stdDeviation="0.15875313"/>
  </filter>
  <linearGradient id="linearGradient1005-6" x1="2.9667" x2="16.101" y1="14.069" y2=".93425" gradientTransform="translate(2.3807 1.9435)" gradientUnits="userSpaceOnUse">
   <stop stop-color="#87e1aa" offset="0"/>
   <stop stop-color="#c3fa46" offset="1"/>
  </linearGradient>
  <filter id="filter2174-5" x="-.15989" y="-.094877" width="1.3198" height="1.1898" color-interpolation-filters="sRGB">
   <feGaussianBlur stdDeviation="0.25608494"/>
  </filter>
 </defs>
 <g transform="translate(-2.4159 -1.9371)">
  <circle cx="10.882" cy="10.404" r="7.9377" filter="url(#filter11290-3)" opacity=".25" stroke-width=".14032"/>
  <path d="m18.82 10.403c0 0.95154-0.16749 1.8639-0.47464 2.7094-0.21351 0.58768-0.49439 1.1433-0.83393 1.6572-0.14222 0.21608-0.29514 0.42475-0.45746 0.62529-0.51966 0.64179-1.1372 1.2007-1.8305 1.6543-0.2553 0.16718-0.52065 0.3201-0.79536 0.45712-1.0668 0.53389-2.2711 0.83421-3.5456 0.83421-1.2745 0-2.4788-0.30032-3.5456-0.83424-0.27474-0.13705-0.5404-0.28997-0.7957-0.45712-0.70207-0.45973-1.327-1.0274-1.8509-1.6798-0.16263-0.20216-0.31524-0.41275-0.45746-0.63078-0.33046-0.5054-0.60421-1.0507-0.8135-1.627-0.30711-0.84529-0.4743-1.7573-0.4743-2.7085 0-4.3838 3.5537-7.9375 7.9375-7.9375 2.2005 0 4.1917 0.89548 5.6295 2.3417 0.41436 0.41662 0.78274 0.87929 1.0963 1.3795 0.29645 0.47107 0.54428 0.97582 0.73704 1.5068 0.30718 0.84559 0.47467 1.7579 0.47467 2.7094z" fill="url(#linearGradient1005-6)" stroke-width=".031006"/>
  <circle cx="9.5514" cy="12.548" r="2.0073" fill="none" stroke="#fff" stroke-dashoffset=".42096" stroke-width="1.4287"/>
  <path transform="matrix(.92513 0 0 .92027 2.1348 3.1739)" d="m9.3776 3.1823v6.4778h1.4265v-4.1276s0.45602 0.22216 0.54956 0.24555c0.09354 0.023386 1.9176 0.72495 0.99389 2.7595l0.04099 0.023665s1.4708-1.8189 0.50345-3.208c-0.96736-1.389-1.7125-1.1671-3.5144-2.171z" fill="#c3fa46" filter="url(#filter2174-5)"/>
  <path d="m10.846 6.1363v6.4778h1.4265v-4.1276s0.45602 0.22216 0.54956 0.24555c0.09354 0.023386 1.9176 0.72495 0.99389 2.7595l0.04099 0.02367s1.4708-1.8189 0.50345-3.208c-0.96736-1.389-1.7125-1.1671-3.5144-2.171z" fill="#fff"/>
 </g>
</svg>
