<?xml version="1.0" encoding="UTF-8"?>
<svg width="64" height="64" version="1.1" viewBox="0 0 16.933 16.933" xmlns="http://www.w3.org/2000/svg">
 <defs>
  <filter id="filter11290" x="-.024" y="-.024" width="1.048" height="1.048" color-interpolation-filters="sRGB">
   <feGaussianBlur stdDeviation="0.15875313"/>
  </filter>
  <linearGradient id="linearGradient1005" x1=".8714" x2="16.246" y1="16.164" y2=".78937" gradientTransform="translate(-.03497 .0066194)" gradientUnits="userSpaceOnUse">
   <stop stop-color="#00c8ff" offset="0"/>
   <stop stop-color="#14a0ff" offset="1"/>
  </linearGradient>
 </defs>
 <circle cx="8.4665" cy="8.4665" r="7.9377" filter="url(#filter11290)" opacity=".25" stroke-width=".14032"/>
 <path d="m16.404 8.4666c0 0.95153-0.16749 1.8639-0.47465 2.7093-0.21351 0.58768-0.49439 1.1433-0.83392 1.6572-0.14222 0.21608-0.29514 0.42475-0.45746 0.62528-0.51966 0.64179-1.1372 1.2007-1.8305 1.6543-0.2553 0.16718-0.52064 0.32011-0.79538 0.45711-1.0668 0.53389-2.2711 0.83421-3.5456 0.83421-1.2745 0-2.4788-0.30032-3.5456-0.83424-0.27474-0.13705-0.5404-0.28998-0.79569-0.45711-0.70206-0.45973-1.327-1.0274-1.8509-1.6798-0.16263-0.20216-0.31524-0.41274-0.45746-0.63078-0.33046-0.5054-0.60422-1.0507-0.8135-1.627-0.30712-0.8453-0.47431-1.7573-0.47431-2.7085 0-4.3838 3.5538-7.9376 7.9376-7.9376 2.2005 0 4.1917 0.89549 5.6294 2.3417 0.41436 0.41663 0.78273 0.8793 1.0963 1.3795 0.29646 0.47108 0.54429 0.97582 0.73704 1.5068 0.30718 0.84559 0.47468 1.7579 0.47468 2.7093z" fill="url(#linearGradient1005)" stroke-width=".031006"/>
 <path d="m8.4664 3.1749a0.52916 0.52916 0 0 0-0.05064 0.0031c-2.8927 0.027659-5.2409 2.3894-5.2409 5.2885 0 2.9162 2.3754 5.2916 5.2916 5.2916 2.8984 0 5.2597-2.3471 5.2885-5.2389a0.52916 0.52916 0 0 0 0.0031-0.05271 0.52916 0.52916 0 0 0-0.52916-0.52916 0.52916 0.52916 0 0 0-0.52916 0.52916c0 2.3442-1.889 4.2333-4.2333 4.2333-2.3442 0-4.2332-1.889-4.2332-4.2333 0-2.3442 1.889-4.2332 4.2332-4.2332a0.52916 0.52916 0 0 0 0.52916-0.52915 0.52916 0.52916 0 0 0-0.52916-0.52916zm0 2.1166a0.52916 0.52916 0 0 0-0.05064 0.00206c-1.7238 0.027549-3.1243 1.4428-3.1243 3.1729 0 1.7472 1.4277 3.1749 3.1749 3.1749 1.7294 0 3.1432-1.3994 3.1718-3.1222a0.52916 0.52916 0 0 0 0.0031-0.05271 0.52916 0.52916 0 0 0-0.52916-0.52916 0.52916 0.52916 0 0 0-0.52916 0.52916c0 1.1752-0.94138 2.1166-2.1166 2.1166-1.1752 0-2.1166-0.94138-2.1166-2.1166 0-1.1752 0.94138-2.1166 2.1166-2.1166a0.52916 0.52916 0 0 0 0.52916-0.52915 0.52916 0.52916 0 0 0-0.52916-0.52916zm0 2.1166a1.0583 1.0583 0 0 0-1.0583 1.0583 1.0583 1.0583 0 0 0 1.0583 1.0583 1.0583 1.0583 0 0 0 1.0583-1.0583 1.0583 1.0583 0 0 0-1.0583-1.0583z" fill="#fff" stroke-width=".26458"/>
</svg>
