<?xml version="1.0" encoding="UTF-8"?>
<svg width="64" height="64" version="1.1" viewBox="0 0 64 64" xmlns="http://www.w3.org/2000/svg" xmlns:cc="http://creativecommons.org/ns#" xmlns:dc="http://purl.org/dc/elements/1.1/" xmlns:rdf="http://www.w3.org/1999/02/22-rdf-syntax-ns#">
 <metadata>
  <rdf:RDF>
   <cc:Work rdf:about="">
    <dc:format>image/svg+xml</dc:format>
    <dc:type rdf:resource="http://purl.org/dc/dcmitype/StillImage"/>
   </cc:Work>
  </rdf:RDF>
 </metadata>
 <defs>
  <style type="text/css"/>
  <style type="text/css"/>
  <style type="text/css"/>
  <style type="text/css"/>
  <style type="text/css"/>
  <style type="text/css"/>
  <style type="text/css"/>
  <style type="text/css"/>
  <filter id="filter11290" x="-.024" y="-.024" width="1.048" height="1.048" color-interpolation-filters="sRGB">
   <feGaussianBlur stdDeviation="0.15875313"/>
  </filter>
  <linearGradient id="linearGradient1005-3" x1=".73911" x2="16.388" y1="16.296" y2=".64687" gradientTransform="matrix(3.7796 0 0 3.7796 -.13155 .025016)" gradientUnits="userSpaceOnUse">
   <stop stop-color="#dddfe1" offset="0"/>
   <stop stop-color="#f3f4f6" offset="1"/>
  </linearGradient>
 </defs>
 <circle transform="matrix(3.7796 0 0 3.7796 -1.3999e-6 -1.3999e-6)" cx="8.4665" cy="8.4665" r="7.9377" filter="url(#filter11290)" opacity=".25" stroke-width=".14032"/>
 <path d="m62 32c0 3.5964-0.63305 7.0448-1.794 10.24-0.80698 2.2212-1.8686 4.3212-3.1519 6.2636-0.53754 0.8167-1.1155 1.6054-1.729 2.3633-1.9641 2.4257-4.2982 4.5382-6.9186 6.2526-0.96493 0.63187-1.9678 1.2099-3.0061 1.7277-4.0321 2.0179-8.5839 3.153-13.401 3.153-4.8171 0-9.3689-1.1351-13.401-3.1531-1.0384-0.51799-2.0425-1.096-3.0074-1.7277-2.6535-1.7376-5.0155-3.8832-6.9957-6.349-0.61468-0.76408-1.1915-1.56-1.729-2.3841-1.249-1.9102-2.2837-3.9712-3.0747-6.1494-1.1608-3.1949-1.7927-6.6419-1.7927-10.237 0-16.569 13.432-30.001 30.001-30.001 8.317 0 15.843 3.3846 21.277 8.8507 1.5661 1.5747 2.9584 3.3234 4.1436 5.214 1.1205 1.7805 2.0572 3.6882 2.7857 5.6951 1.161 3.196 1.7941 6.6442 1.7941 10.24z" fill="url(#linearGradient1005-3)" stroke-width=".11719"/>
 <g fill="#5e4aa6">
  <g transform="matrix(3.7796 0 0 3.7796 3.9134 -70.548)" stroke-width=".26458">
   <circle cx="-330.35" cy="-328.38" r="0"/>
   <circle cx="-312.11" cy="-326.25" r="0"/>
   <circle cx="-306.02" cy="-333.07" r="0"/>
   <circle cx="-308.84" cy="-326.01" r="0"/>
  </g>
  <circle cx="-968.95" cy="-1279.3" r="0"/>
  <g>
   <circle cx="-850.49" cy="-1318.6" r="0"/>
   <circle cx="249.05" cy="-53.109" r="0" fill-rule="evenodd"/>
   <circle cx="-771.99" cy="-1390.1" r="0"/>
   <circle cx="327.55" cy="-124.58" r="0" fill-rule="evenodd"/>
  </g>
 </g>
 <style type="text/css">.st0{clip-path:url(#SVGID_1_);}
	.st1{clip-path:url(#SVGID_2_);}
	.st2{clip-path:url(#SVGID_3_);}
	.st3{clip-path:url(#SVGID_4_);fill:none;stroke:#002C5B;stroke-width:6;stroke-miterlimit:10;}
	.st4{fill-rule:evenodd;clip-rule:evenodd;fill:#192E45;}
	.st5{fill-rule:evenodd;clip-rule:evenodd;fill:#D0933A;}
	.st6{fill-rule:evenodd;clip-rule:evenodd;fill:#FFCC86;}
	.st7{fill-rule:evenodd;clip-rule:evenodd;fill:#FDD321;}
	.st8{fill:#FFFFFF;}
	.st9{fill:#1D2A3A;}
	.st10{fill:#192E45;}</style>
 <g fill="#e6e6e6"></g>
 <g stroke-width="1.5605">
  <path d="m59.409 35.904c-1.7742 0.284-3.5157 0.46658-5.1948 0.5212-0.16229-1.2671-0.41352-2.4921-0.70377-3.6983-0.73186-3.0211-1.8632-5.8112-3.3659-8.311-2.2486 1.9974-4.6455 3.8949-7.1594 5.6957 0.284 1.5105 0.41977 3.1771 0.35891 4.9982-1.7742-0.54928-3.3254-1.2593-4.6533-2.0785-1.0299 0.65071-2.0785 1.2874-3.1428 1.896-1.9709 1.1376-3.9683 2.1815-5.9735 3.149 0.13576 0.15605 0.25748 0.31833 0.39948 0.47438 1.9163 2.1675 4.2335 3.8465 6.8411 5.0793 1.5246 0.71781 3.1428 1.2874 4.8499 1.6931-0.36515 1.3607-0.8052 2.7495-1.2936 4.1727 7.2874-3.1412 13.768-7.8008 19.038-13.592z" fill="#01828e"/>
  <path d="m61.791 35.506c-0.78674 0.15761-1.4702 0.25164-2.3828 0.39844-5.2681 5.7893-11.748 10.449-19.043 13.6-1.5071 4.3695-2.8984 7.7851-5.3633 12.336 3.7055-0.36858 7.2155-1.3992 10.398-2.9922 1.0383-0.5178 2.0409-1.0966 3.0059-1.7285 1.6765-1.0968 3.2361-2.3573 4.6562-3.7578 0.6139-2.9179 1.1136-5.7585 1.2812-7.543 1.2771-0.17154 2.9958-0.47025 4.6875-0.81836 0.43276-0.89797 0.8326-1.8152 1.1758-2.7598 0.77794-2.1411 1.3118-4.3976 1.584-6.7344z" fill="#1e75ba"/>
  <path d="m35.15 2.166c-1.2966 1.341-2.8614 2.9196-3.5156 3.7617-1.8226 2.3641-3.4153 4.6799-4.6543 6.9629-1.9646 0.142-3.9612 0.48857-5.9727 1.0098-4.9762 1.2847-11.884 4.7165-17.443 8.5391-1.0097 3.0039-1.5645 6.2164-1.5645 9.5605 0 3.1351 0.48027 6.1572 1.373 8.998 6.527-7.1054 14.645-12.677 20.385-15.875 0.014041 0.25123 0.055512 0.49485 0.082032 0.73828 3.2364-5.819 10.272-6.571 14.146-11.557-0.46034-0.16229-0.92053-0.32322-1.3887-0.45898 2.6013-2.3157 6.4337-4.3147 11.643-5.7363 0.068779-0.018248 1.1506-0.21921 1.5117-0.28906-4.1754-3.0707-9.171-5.0876-14.602-5.6543z" fill="#4aae52"/>
  <path d="m43.338 17.063c-0.10143-0.0671-0.18258-0.14824-0.284-0.2169-1.5979-1.0705-3.2988-1.9038-5.0668-2.5404-3.8746 4.9779-10.911 5.7363-14.149 11.555 0.23719 2.4047 0.955 4.8156 2.2689 7.253 0.8879 1.6385 2.038 3.291 3.4674 4.9638 2.0052-0.96905 4.0026-2.0052 5.9735-3.1428 1.0627-0.61638 2.1129-1.2531 3.1428-1.9038-1.0221-0.63667-1.9241-1.328-2.6278-2.0863-1.4294-1.5573-2.4452-3.2239-3.0538-4.9311-0.46658-1.328-0.69753-2.6824-0.63667-4.0291 1.6588-0.21066 3.1693-0.08114 4.5378 0.33862 0.74434 0.22315 1.4637 0.51495 2.1066 0.94876 2.0926 1.4013 3.3862 3.7732 3.9683 6.8411 2.5123-1.8023 4.9108-3.6983 7.1594-5.6957-1.7477-2.9056-4.0026-5.4117-6.8067-7.3545z" fill="#209673"/>
 </g>
</svg>
