<?xml version="1.0" encoding="UTF-8" standalone="no"?>
<svg
   xmlns:dc="http://purl.org/dc/elements/1.1/"
   xmlns:cc="http://creativecommons.org/ns#"
   xmlns:rdf="http://www.w3.org/1999/02/22-rdf-syntax-ns#"
   xmlns:svg="http://www.w3.org/2000/svg"
   xmlns="http://www.w3.org/2000/svg"
   xmlns:sodipodi="http://sodipodi.sourceforge.net/DTD/sodipodi-0.dtd"
   xmlns:inkscape="http://www.inkscape.org/namespaces/inkscape"
   height="64"
   width="64"
   version="1.1"
   id="svg40"
   sodipodi:docname="cisco-pt.svg"
   inkscape:version="1.0.2 (e86c870879, 2021-01-15)">
  <metadata
     id="metadata46">
    <rdf:RDF>
      <cc:Work
         rdf:about="">
        <dc:format>image/svg+xml</dc:format>
        <dc:type
           rdf:resource="http://purl.org/dc/dcmitype/StillImage" />
        <dc:title></dc:title>
      </cc:Work>
    </rdf:RDF>
  </metadata>
  <defs
     id="defs44">
    <linearGradient
       id="linearGradient3764"
       x1="1"
       x2="47"
       gradientUnits="userSpaceOnUse"
       gradientTransform="rotate(-90,23.999998,24)">
      <stop
         style="stop-color:#f9c117;stop-opacity:1"
         id="stop871" />
      <stop
         offset="1"
         style="stop-color:#fac82a;stop-opacity:1"
         id="stop873" />
    </linearGradient>
    <linearGradient
       id="f-5"
       x1="-6.1472001"
       x2="-6.1472001"
       y1="-137.82001"
       y2="-100.78"
       gradientTransform="matrix(2.0044,0,0,2.0044,-42.747576,249.6374)"
       gradientUnits="userSpaceOnUse">
      <stop
         stop-color="#14dc78"
         offset="0"
         id="stop840" />
      <stop
         stop-color="#14a03c"
         offset="1"
         id="stop842" />
    </linearGradient>
    <filter
       id="filter2076"
       x="-0.048"
       y="-0.048"
       width="1.096"
       height="1.096"
       color-interpolation-filters="sRGB">
      <feGaussianBlur
         stdDeviation="1.1"
         id="feGaussianBlur161" />
    </filter>
    <linearGradient
       id="linearGradient2070"
       x1="145"
       x2="200"
       y1="59"
       y2="4"
       gradientTransform="translate(-132.62376,-11.61291)"
       gradientUnits="userSpaceOnUse">
      <stop
         stop-color="#ffc841"
         offset="0"
         id="stop154" />
      <stop
         stop-color="#ffbe37"
         offset=".4925"
         id="stop156" />
      <stop
         stop-color="#ffc841"
         offset="1"
         id="stop158" />
    </linearGradient>
    <filter
       id="filter11290"
       x="-.024"
       y="-.024"
       width="1.048"
       height="1.048"
       color-interpolation-filters="sRGB">
      <feGaussianBlur
         stdDeviation="0.15875313"
         id="feGaussianBlur862" />
    </filter>
    <linearGradient
       id="linearGradient1005"
       x1=".8714"
       x2="16.246"
       y1="16.164"
       y2=".78937"
       gradientTransform="matrix(3.779602,0,0,3.779602,-0.1326655,0.02456655)"
       gradientUnits="userSpaceOnUse">
      <stop
         stop-color="#ffc841"
         offset="0"
         id="stop865" />
      <stop
         stop-color="#ffc841"
         offset="1"
         id="stop867" />
    </linearGradient>
    <linearGradient
       id="linearGradient1063"
       x1="8.5858"
       x2="16.465"
       y1="-5.5948"
       y2="-13.703"
       gradientUnits="userSpaceOnUse">
      <stop
         stop-color="#f5f5f5"
         offset="0"
         id="stop870" />
      <stop
         stop-color="#fff"
         offset="1"
         id="stop872" />
    </linearGradient>
    <linearGradient
       id="linearGradient1071"
       x1="8.9222"
       x2="15.926"
       y1="-5.3552"
       y2="-11.992"
       gradientUnits="userSpaceOnUse">
      <stop
         stop-color="#ffdc96"
         offset="0"
         id="stop875" />
      <stop
         stop-color="#fff"
         offset="1"
         id="stop877" />
    </linearGradient>
    <filter
       id="filter1091"
       x="-.084016"
       y="-.084016"
       width="1.168"
       height="1.168"
       color-interpolation-filters="sRGB">
      <feGaussianBlur
         stdDeviation="0.30215974"
         id="feGaussianBlur880" />
    </filter>
  </defs>
  <sodipodi:namedview
     pagecolor="#ffffff"
     bordercolor="#666666"
     borderopacity="1"
     objecttolerance="10"
     gridtolerance="10"
     guidetolerance="10"
     inkscape:pageopacity="0"
     inkscape:pageshadow="2"
     inkscape:window-width="1920"
     inkscape:window-height="936"
     id="namedview42"
     showgrid="false"
     inkscape:zoom="2.8542071"
     inkscape:cx="-15.952816"
     inkscape:cy="62.490678"
     inkscape:window-x="0"
     inkscape:window-y="38"
     inkscape:window-maximized="1"
     inkscape:current-layer="svg40"
     inkscape:document-rotation="0" />
  <linearGradient
     id="a"
     gradientUnits="userSpaceOnUse"
     x1="399.57144"
     x2="399.57144"
     y1="545.79797"
     y2="517.79797">
    <stop
       offset="0"
       stop-color="#3889e9"
       id="stop2" />
    <stop
       offset="1"
       stop-color="#5ea5fb"
       id="stop4" />
  </linearGradient>
  <linearGradient
     id="b"
     gradientUnits="userSpaceOnUse"
     x1="-537.29657"
     x2="-115.26468"
     y1="442.59485"
     y2="454.24359">
    <stop
       offset="0"
       stop-color="#a986d4"
       id="stop7" />
    <stop
       offset=".47001833"
       stop-color="#5abaff"
       id="stop9" />
    <stop
       offset="1"
       stop-color="#2cec85"
       id="stop11" />
  </linearGradient>
  <circle
     cx="8.4937"
     cy="8.46"
     r="7.9376998"
     filter="url(#filter11290)"
     opacity="0.25"
     stroke-width="0.14032"
     id="circle887"
     transform="matrix(3.779602,0,0,3.779602,-0.10280494,0.02456761)" />
  <path
     d="m 62.000382,31.999811 c 0,3.596442 -0.633045,7.0448 -1.79395,10.240453 -0.806983,2.221197 -1.868597,4.321219 -3.151923,6.263557 -0.537535,0.816696 -1.115512,1.605386 -1.729017,2.363347 -1.964108,2.425711 -4.298163,4.538168 -6.918562,6.252596 -0.964932,0.631873 -1.967849,1.20985 -3.006144,1.727731 -4.032079,2.017892 -8.583854,3.152982 -13.400957,3.152982 -4.817102,0 -9.368877,-1.13509 -13.400956,-3.153095 -1.038408,-0.517995 -2.042497,-1.095971 -3.00743,-1.727732 -2.653545,-1.737596 -5.015532,-3.883163 -6.9956645,-6.348975 -0.614677,-0.764085 -1.191482,-1.560031 -1.729017,-2.384098 -1.249007,-1.91021 -2.283673,-3.971227 -3.074706,-6.149412 -1.160754,-3.19486 -1.792665,-6.641895 -1.792665,-10.237052 0,-16.569019 13.4315705,-30.0005905 30.0005905,-30.0005905 8.317014,0 15.842957,3.384558 21.277269,8.8506935 1.566116,1.574658 2.958446,3.323366 4.143578,5.213961 1.120463,1.780457 2.057161,3.688211 2.785718,5.695104 1.161018,3.195994 1.794063,6.644163 1.794063,10.240454 z"
     fill="url(#linearGradient1005)"
     stroke-width="0.11719"
     id="path889"
     style="fill:url(#linearGradient1005)" />
  <circle
     cx="400.57138"
     cy="531.79791"
     fill="url(#a)"
     r="0"
     transform="matrix(1.6374665,0,0,1.6374665,-644.58019,-848.71933)"
     id="circle14" />
  <circle
     cx="12.39871"
     cy="22.095125"
     fill="url(#a)"
     r="0"
     id="circle4299"
     style="fill:url(#a-3);stroke-width:1.50101" />
  <circle
     cx="-1334.9465"
     cy="-1263.5726"
     r="0"
     fill="#5e4aa6"
     id="circle847" />
  <g
     fill="#5e4aa6"
     id="g859"
     transform="translate(-86.246576,-21.972602)">
    <circle
       cx="-149.14999"
       cy="23.855"
       r="0"
       fill-rule="evenodd"
       id="circle853" />
    <circle
       cx="-1150.9"
       cy="-1256.6"
       r="0"
       id="circle855" />
    <circle
       cx="-51.327"
       cy="8.8744001"
       r="0"
       fill-rule="evenodd"
       id="circle857" />
  </g>
  <g
     id="g1034"
     transform="matrix(1.2766501,0,0,1.2766501,1.3597593,2.6370477)">
    <g
       id="g1032">
      <!-- color: #fac82a -->
      <g
         id="g1030">
        <path
           d="M 11.969,20 C 11.399,20.027 11,20.176 11,20.781 v 12.75 C 11,34.34 11.688,35 12.563,35 h 22.844 c 0.879,0 1.594,-0.66 1.594,-1.469 V 20.781 C 37.001,19.972 36.286,20 35.407,20 H 12.563 c -0.219,0 -0.402,-0.012 -0.594,0 m 18.03,2 1.5,1 -10.5,9.5 -5,-3.945 1,-1.555 4,3 m 9,-8"
           style="fill:#3e3e3e;fill-opacity:1;fill-rule:nonzero;stroke:none"
           id="path1026" />
        <path
           d="M 15.05,13.402 11.8,18 h 11.199 v -7 h -5.512 c -0.809,0 -2.438,2.402 -2.438,2.402 M 24.99,11 v 7 h 11.184 l -3.25,-4.598 c 0,0 -1.625,-2.402 -2.441,-2.402 m -5.492,0"
           style="fill:#3e3e3e;fill-opacity:1;fill-rule:nonzero;stroke:none"
           id="path1028" />
      </g>
    </g>
  </g>
  <g
     fill="#5e4aa6"
     stroke-width="0.26458"
     id="g899"
     transform="matrix(3.779602,0,0,3.779602,-76.926615,0.02456761)">
    <circle
       cx="-330.35001"
       cy="-328.38"
       r="0"
       id="circle891" />
    <circle
       cx="-312.10999"
       cy="-326.25"
       r="0"
       id="circle893" />
    <circle
       cx="-306.01999"
       cy="-333.07001"
       r="0"
       id="circle895" />
    <circle
       cx="-308.84"
       cy="-326.01001"
       r="0"
       id="circle897" />
  </g>
</svg>
