<?xml version="1.0" encoding="UTF-8"?>
<svg width="64" height="64" version="1.1" xmlns="http://www.w3.org/2000/svg" xmlns:cc="http://creativecommons.org/ns#" xmlns:dc="http://purl.org/dc/elements/1.1/" xmlns:rdf="http://www.w3.org/1999/02/22-rdf-syntax-ns#">
 <metadata>
  <rdf:RDF>
   <cc:Work rdf:about="">
    <dc:format>image/svg+xml</dc:format>
    <dc:type rdf:resource="http://purl.org/dc/dcmitype/StillImage"/>
    <dc:title/>
   </cc:Work>
  </rdf:RDF>
 </metadata>
 <defs>
  <style type="text/css"/>
  <style type="text/css"/>
  <filter id="filter11290" x="-.024" y="-.024" width="1.048" height="1.048" color-interpolation-filters="sRGB">
   <feGaussianBlur stdDeviation="0.15875313"/>
  </filter>
  <linearGradient id="linearGradient1005" x1=".73911" x2="13.303" y1="16.296" y2="3.7322" gradientTransform="matrix(3.7796 0 0 3.7796 -.13248 .024395)" gradientUnits="userSpaceOnUse">
   <stop stop-color="#ff7d1e" offset="0"/>
   <stop stop-color="#ffa53c" offset="1"/>
  </linearGradient>
 </defs>
 <circle cx="-1248.7" cy="-1241.6" r="0" fill="#5e4aa6" image-rendering="optimizeSpeed"/>
 <g transform="translate(96.721,-4.4322)">
  <g transform="translate(1,1)">
   <g opacity=".1">
    <!-- color: #e57e29 --></g>
  </g>
 </g>
 <circle transform="matrix(3.7796 0 0 3.7796 -.10279 .024585)" cx="8.4937" cy="8.46" r="7.9377" filter="url(#filter11290)" opacity=".25" stroke-width=".14032"/>
 <path d="m62 32c0 3.5964-0.63305 7.0448-1.794 10.24-0.80698 2.2212-1.8686 4.3212-3.1519 6.2636-0.53753 0.8167-1.1155 1.6054-1.729 2.3633-1.9641 2.4257-4.2982 4.5382-6.9186 6.2526-0.96493 0.63187-1.9678 1.2098-3.0061 1.7277-4.0321 2.0179-8.5838 3.153-13.401 3.153-4.8171 0-9.3689-1.1351-13.401-3.1531-1.0384-0.518-2.0425-1.096-3.0074-1.7277-2.6535-1.7376-5.0155-3.8832-6.9957-6.349-0.61468-0.76408-1.1915-1.56-1.729-2.3841-1.249-1.9102-2.2837-3.9712-3.0747-6.1494-1.1608-3.1949-1.7927-6.6419-1.7927-10.237 0-16.569 13.432-30.001 30.001-30.001 8.317 0 15.843 3.3846 21.277 8.8507 1.5661 1.5747 2.9584 3.3234 4.1436 5.214 1.1205 1.7805 2.0572 3.6882 2.7857 5.6951 1.161 3.196 1.7941 6.6442 1.7941 10.24z" fill="url(#linearGradient1005)" stroke-width=".11719"/>
 <g transform="matrix(3.7796 0 0 3.7796 -.10279 .024585)" fill="#5e4aa6" stroke-width=".26458">
  <circle cx="-330.35" cy="-328.38" r="0"/>
  <circle cx="-312.11" cy="-326.25" r="0"/>
  <circle cx="-306.02" cy="-333.07" r="0"/>
  <circle cx="-308.84" cy="-326.01" r="0"/>
 </g>
 <g transform="matrix(1.3043 0 0 1.3043 .67167 .73799)">
  <!-- color: #e57e29 -->
  <path d="m17.438 7.625c-4.723 0-9.102 1.43-12.75 3.844-1.453 2.238-2.488 4.746-3.094 7.438 2.094-2.492 3.926-4.27 5.781-5.5 3.625 9.879 3.813 9.918 1.125-0.656 2.656-1.465 5.406-1.945 8.938-1.969 0.309-4e-3 0.598 0.02 0.906 0.031-0.043 5.508-0.902 16.859-3.969 21-4.434-11.41-3.895-9.379-0.906 0.344-0.211 0.105-0.41 0.262-0.625 0.438l-1.375-1.031 0.688 1.969c-2.93 0.445-5.84-0.289-8.75 0.781 0.387 0.773 0.785 1.5 1.25 2.219 2.758-0.625 4.766-2.961 7.531-1.398 0.043 0.215 0.156 0.406 0.25 0.594l-6.438 2.594c0.152 0.191 0.281 0.379 0.438 0.563 2.176-1.027 4.402-1.434 6.438-2.531 0.203 0.18 0.469 0.309 0.75 0.406l-3.906 5.281c0.223 0.176 0.461 0.363 0.688 0.531 1.406-1.75 2.066-3.746 3.875-5.688 0.238 0.02 0.508 0.059 0.781 0.023-0.348 2.84-0.102 5.773 0.594 8.531 0.902 0.352 1.855 0.641 2.816 0.875-0.711-3.223-2.645-6.207-2.469-9.594 0.887 0.34 1.352 0.781 2.344 1.469-0.445-0.668-0.992-1.102-1.375-1.938 0.086-0.141 0.168-0.281 0.219-0.438 4.555 1.734 8.816 2.223 13.441 5l2.527 1.875c-1.031 1.508-2.352 2.805-4.03 3.75 2.719-0.617 5.246-1.707 7.5-3.188 2.434-3.645 3.875-8.02 3.875-12.688 0-12.594-10.281-22.938-23.06-22.938m3.781 3.531c7.625 1.5 14.277 7.484 15.719 14.5l-0.344 0.438c-0.641 1.109-6.66 3.03-8.844 3.719-4.168 0.891-7.152 3.01-11.156 3.156-0.246-0.324-0.531-0.617-0.875-0.813 2.434-4.328 1.633-15.895 5.5-21m15.13 16.438 0.906 0.875c0 0.699-0.074 1.387-0.191 2.094-0.594 3.742-1.344 7.441-2.902 10.469l-3.316-1.094c-3.777-1.84-9.441-3.035-13.469-5.688 5.773-3.316 12.633-4.652 18.969-6.656m-14.719 16.16c0.457 1.328 1.582 2.215 2.402 3.25 0.375 0 0.758-0.012 1.125-0.031-1.32-1.07-2.43-2-3.527-3.219" fill="#f9f9f9"/>
 </g>
</svg>
