<?xml version="1.0" encoding="UTF-8"?>
<svg width="64" height="64" version="1.1" viewBox="0 0 16.933 16.933" xmlns="http://www.w3.org/2000/svg" xmlns:cc="http://creativecommons.org/ns#" xmlns:dc="http://purl.org/dc/elements/1.1/" xmlns:rdf="http://www.w3.org/1999/02/22-rdf-syntax-ns#" xmlns:xlink="http://www.w3.org/1999/xlink">
 <metadata>
  <rdf:RDF>
   <cc:Work rdf:about="">
    <dc:format>image/svg+xml</dc:format>
    <dc:type rdf:resource="http://purl.org/dc/dcmitype/StillImage"/>
    <dc:title/>
   </cc:Work>
  </rdf:RDF>
 </metadata>
 <defs>
  <style type="text/css"/>
  <style type="text/css"/>
  <filter id="filter11290" x="-.024" y="-.024" width="1.048" height="1.048" color-interpolation-filters="sRGB">
   <feGaussianBlur stdDeviation="0.15875313"/>
  </filter>
  <linearGradient id="linearGradient1005" x1=".8714" x2="16.246" y1="16.164" y2=".78937" gradientTransform="translate(-.035139 .006569)" gradientUnits="userSpaceOnUse">
   <stop stop-color="#0098ff" offset="0"/>
   <stop stop-color="#34e7e8" offset="1"/>
  </linearGradient>
  <linearGradient id="linearGradient1068" x1="4.1053" x2="13.125" y1="12.93" y2="3.9251" gradientTransform="matrix(1.1429 0 0 1.1429 -1.2095 -1.2095)" gradientUnits="userSpaceOnUse">
   <stop stop-color="#414141" offset="0"/>
   <stop stop-color="#323232" offset="1"/>
  </linearGradient>
 </defs>
 <circle cx="8.4665" cy="8.4665" r="7.9377" filter="url(#filter11290)" opacity=".25" stroke-width=".14032"/>
 <path d="m16.404 8.4665c0 0.95153-0.16749 1.8639-0.47465 2.7093-0.21351 0.58768-0.49439 1.1433-0.83392 1.6572-0.14222 0.21608-0.29514 0.42475-0.45746 0.62528-0.51966 0.64179-1.1372 1.2007-1.8305 1.6543-0.2553 0.16718-0.52064 0.32009-0.79535 0.45711-1.0668 0.53389-2.2711 0.83421-3.5456 0.83421s-2.4788-0.30032-3.5456-0.83424c-0.27474-0.13705-0.5404-0.28998-0.79569-0.45711-0.70206-0.45973-1.327-1.0274-1.8509-1.6798-0.16263-0.20216-0.31524-0.41274-0.45746-0.63078-0.33046-0.5054-0.60422-1.0507-0.8135-1.627-0.30712-0.8453-0.47431-1.7573-0.47431-2.7085 0-4.3838 3.5538-7.9376 7.9376-7.9376 2.2005 0 4.1917 0.89549 5.6294 2.3417 0.41436 0.41663 0.78273 0.8793 1.0963 1.3795 0.29646 0.47108 0.54429 0.97582 0.73704 1.5068 0.30718 0.84559 0.47468 1.7579 0.47468 2.7093z" fill="url(#linearGradient1005)" stroke-width=".031006"/>
 <g transform="scale(.26458)" fill="#5e4aa6">
  <circle cx="-1013.4" cy="-1316.6" r="0"/>
  <g transform="matrix(3.7796,0,0,3.7796,235.2,-75.458)" stroke-width=".26458">
   <circle cx="-299.02" cy="-338.77" r="0"/>
   <circle cx="-8.1062" cy="-3.9487" r="0" fill-rule="evenodd"/>
   <circle cx="-278.25" cy="-357.69" r="0"/>
   <circle cx="12.663" cy="-22.859" r="0" fill-rule="evenodd"/>
  </g>
  <circle cx="-1242.4" cy="-1271.5" r="0"/>
  <g transform="matrix(3.7796,0,0,3.7796,6.2636,-30.427)" stroke-width=".26458">
   <circle cx="-299.02" cy="-338.77" r="0"/>
   <circle cx="-8.1062" cy="-3.9487" r="0" fill-rule="evenodd"/>
   <circle cx="-278.25" cy="-357.69" r="0"/>
   <circle cx="12.663" cy="-22.859" r="0" fill-rule="evenodd"/>
  </g>
  <g transform="matrix(3.7796,0,0,3.7796,-117.67,7.7816)" stroke-width=".26458">
   <circle cx="-330.35" cy="-328.38" r="0"/>
   <circle cx="-312.11" cy="-326.25" r="0"/>
   <circle cx="-306.02" cy="-333.07" r="0"/>
   <circle cx="-308.84" cy="-326.01" r="0"/>
  </g>
 </g>
 <path d="m13.758 8.4666c0 0.63434-0.11166 1.2426-0.31643 1.8061-0.14234 0.39178-0.32958 0.76218-0.55594 1.1048-0.09481 0.14405-0.19675 0.28316-0.30496 0.41684-0.34643 0.42785-0.75812 0.80045-1.2203 1.1028-0.1702 0.11145-0.34708 0.21338-0.53022 0.30474-0.71119 0.35592-1.514 0.55613-2.3637 0.55613-0.84965 0-1.6525-0.20021-2.3637-0.55615-0.18315-0.091364-0.36026-0.19332-0.53045-0.30473-0.46803-0.30648-0.88464-0.68492-1.2339-1.1198-0.10842-0.13477-0.21016-0.27515-0.30496-0.42051-0.2203-0.33692-0.4028-0.70045-0.54232-1.0846-0.20474-0.56352-0.3162-1.1715-0.3162-1.8056 0-2.9225 2.3692-5.2916 5.2916-5.2916 1.467 0 2.7944 0.59698 3.7529 1.5611 0.27623 0.27775 0.52181 0.58619 0.73085 0.91965 0.19764 0.31405 0.36285 0.65053 0.49134 1.0045 0.20478 0.56371 0.31644 1.1719 0.31644 1.8061z" fill="url(#linearGradient1068)" stroke-width=".02067"/>
 <g transform="translate(-17.758 .07181)" fill="#f9f9f9" stroke-width=".26458">
  <path d="m25.138 5.2882c-1.0281 0-1.553 0.73671-1.553 1.6901 0 0.95334 0.56223 1.7451 1.553 1.7265 0.63556 0 1.0212-0.24975 1.3576-0.62361l-0.42585-0.43374c-0.2617 0.24301-0.55791 0.43616-0.93178 0.43616-0.57621 0-0.92722-0.53856-0.93117-1.1144 0.0039-0.57541 0.37338-1.0598 0.93117-1.0598 0.33647 0 0.62154 0.12521 0.88325 0.36822l0.40583-0.48651c-0.31778-0.31778-0.65351-0.50289-1.2891-0.50289zm1.8636 6.212e-4v3.4165h2.1741v-0.62118h-1.553v-2.7953z"/>
  <path d="m23.274 10.88h3.1059v0.62118h-3.1059z"/>
 </g>
</svg>
