<?xml version="1.0" encoding="UTF-8"?>
<svg width="64" height="64" version="1.1" xmlns="http://www.w3.org/2000/svg" xmlns:xlink="http://www.w3.org/1999/xlink">
 <defs>
  <filter id="filter4378" x="-.1183" y="-.099353" width="1.2366" height="1.1987" color-interpolation-filters="sRGB">
   <feGaussianBlur stdDeviation="1.6425351"/>
  </filter>
  <filter id="filter11290" x="-.024" y="-.024" width="1.048" height="1.048" color-interpolation-filters="sRGB">
   <feGaussianBlur stdDeviation="0.15875313"/>
  </filter>
  <linearGradient id="linearGradient1073" x1="40.147" x2="40.147" y1="58.146" y2="17.563" gradientTransform="matrix(1.0909 0 0 1.0909 -2.91 -2.876)" gradientUnits="userSpaceOnUse">
   <stop stop-color="#f31333" offset="0"/>
   <stop stop-color="#ff785b" offset="1"/>
  </linearGradient>
  <linearGradient id="linearGradient1075" x1="38.077" x2="38.077" y1="32.347" y2="5.4764" gradientTransform="matrix(1.0909 0 0 1.0909 -2.91 -2.876)" gradientUnits="userSpaceOnUse">
   <stop stop-color="#258dc0" offset="0"/>
   <stop stop-color="#0facfa" offset="1"/>
  </linearGradient>
  <linearGradient id="linearGradient1077" x1="16.613" x2="16.613" y1="54.93" y2="26.717" gradientTransform="matrix(1.0909 0 0 1.0909 -2.91 -2.876)" gradientUnits="userSpaceOnUse">
   <stop stop-color="#5fb72e" offset="0"/>
   <stop stop-color="#5edc16" offset="1"/>
  </linearGradient>
 </defs>
 <circle transform="matrix(3.7796 0 0 3.7796 -1.3999e-6 -1.3999e-6)" cx="8.4665" cy="8.4665" r="7.9377" filter="url(#filter11290)" opacity=".25" stroke-width=".14032"/>
 <g stroke-width="1.0909">
  <path d="m34.008 14.469c-1.7358-0.02007-3.4788 0.13269-5.252 0.45703-9.71e-4 1.77e-4 -0.004759-1.78e-4 -0.005859 0-2.9542 0.5407-5.9843 1.5593-9.1621 3.0566 0.4351 0.71512 0.88842 1.3919 1.3496 2.0352 0.46118 0.64337 0.93324 1.2519 1.4102 1.8398 3.3388 4.1168 6.9316 7.0756 9.0078 11.693v0.001953c1.0373 2.3078 1.6965 5.031 1.752 8.5176v0.001954c0.05542 3.488-0.49139 7.7398-1.8633 13.111-0.46417 1.8179-1.2754 4.379-2.0215 6.6758 0.91588 0.084193 1.8395 0.14062 2.7773 0.14062 4.8171 0 9.3683-1.1344 13.4-3.1523 1.0383-0.5178 2.0409-1.0966 3.0059-1.7285 2.6204-1.7144 4.9558-3.8263 6.9199-6.252 0.6135-0.7579 1.191-1.5466 1.7285-2.3633 1.2833-1.9424 2.3454-4.0425 3.1523-6.2637 1.0758-2.9609 1.6899-6.1411 1.7754-9.4531-3.4203-4.3951-8.561-10.842-12.07-13.414-5.2337-3.8359-10.656-4.8397-15.902-4.9004l-0.001954-0.001953v-0.001953z" fill="url(#linearGradient1073)"/>
  <path d="m11.627 14.818v0.001953c-1.1822-0.004792-2.7809 0.054217-4.4297 0.30078-2.8476 4.1762-4.66 9.1104-5.0898 14.436 4.5803-3.533 10.39-7.7612 14.01-9.7832-0.8932-1.3985-1.755-3.0017-2.5605-4.8848-2.7e-5 -9.9e-5 -0.76166-0.065501-1.9297-0.070313z" fill="#519c26"/>
  <path d="m32 2c-11.5 0-21.482 6.4722-26.518 15.971 2.957-1.2112 6.0692-2.4232 8.0762-3.082 1.3289-0.43675 2.6222-0.82356 3.8828-1.1641 13.672-3.6962 23.463-1.7648 32.471 5.6445 2.9232 2.4047 8.5196 9.0596 12.068 13.518 0.00858-0.295 0.019531-0.58964 0.019531-0.88672 0-3.5958-0.63197-7.0442-1.793-10.24-0.7285-2.0069-1.6647-3.9148-2.7852-5.6953-1.1852-1.8906-2.5784-3.6401-4.1445-5.2148-5.434-5.4661-12.96-8.8496-21.277-8.8496z" fill="url(#linearGradient1075)"/>
  <path d="m16.117 19.773c-3.6587 2.043-9.4262 6.1643-14.002 9.6836-0.070554 0.83943-0.11523 1.6853-0.11523 2.543 0 3.5951 0.63217 7.0434 1.793 10.238 0.791 2.1782 1.8252 4.2382 3.0742 6.1484 0.5375 0.8241 1.1138 1.6207 1.7285 2.3848 1.9802 2.4658 4.3426 4.6101 6.9961 6.3477 0.9649 0.6317 1.9694 1.2105 3.0078 1.7285 3.2638 1.6335 6.8717 2.6748 10.682 3.0176 0.73021-2.2981 1.5011-4.8638 1.9648-6.6797v-0.001953c0.05073-0.81781 0.089599-1.6075 0.11914-2.3711v-0.003906c0.02956-0.7636 0.047591-1.4989 0.056641-2.2109v-0.001953c0.0087-0.71198 0.008947-1.3996-0.001953-2.0625-0.02094-1.3262-0.0794-2.5576-0.17383-3.7031-0.04724-0.57252-0.10361-1.125-0.16797-1.6562-0.12878-1.0627-0.29174-2.0461-0.48438-2.959-0.86703-4.1087-2.3485-6.804-4.1504-9.0195-0.20024-0.24618-0.40357-0.48506-0.61133-0.7207-0.41552-0.47129-0.84631-0.9246-1.2871-1.3691-0.88152-0.88909-1.8081-1.745-2.752-2.6504-0.4721-0.4529-0.94588-0.92034-1.4238-1.4082-0.23858-0.24344-0.47991-0.49206-0.71875-0.74805v-0.001953c-0.71763-0.76919-1.435-1.6006-2.1406-2.5293-0.47008-0.61864-0.93584-1.2792-1.3926-1.9941z" fill="url(#linearGradient1077)"/>
  <path d="m11.764 9.8555c-2.5221 2.306-4.6455 5.0373-6.2637 8.0801 2.8261-1.1913 5.5097-2.2105 8.0566-3.0469-0.63691-1.489-1.2383-3.1551-1.793-5.0332z" fill="#353b3b"/>
  <path d="m16.014 6.6172c-1.5007 0.94719-2.9153 2.0187-4.2207 3.209 0.53513 1.789 1.1288 3.5177 1.7637 5.0625 1.3289-0.43675 2.6222-0.82356 3.8828-1.1641 0.08468-0.0229 0.16563-0.038076 0.25-0.060547-0.45363-1.3289-1.1146-4.2096-1.6758-7.0469z" opacity=".2"/>
 </g>
 <path transform="matrix(1.0909 0 0 1.0909 103.2 -2.909)" d="m-67.823 14.579c-3.3083 0.0555-6.8789 0.6119-10.795 1.6707-1.1556 0.31214-2.3394 0.66605-3.5576 1.0664 0.73837 1.7262 1.5294 3.1942 2.3481 4.4762 0.41895 0.65599 0.84364 1.2618 1.2749 1.8293 0.64683 0.85125 1.3035 1.6137 1.9613 2.3187h0.0028c0.21895 0.23466 0.4378 0.46316 0.6565 0.68633 0.43821 0.4472 0.87478 0.87545 1.3075 1.2906 0.86521 0.83002 1.7144 1.6131 2.5225 2.4281 0.40404 0.40752 0.79589 0.82306 1.1768 1.2551 0.19045 0.21601 0.3776 0.43605 0.56116 0.66172 1.6518 2.0309 3.0107 4.5024 3.8055 8.2687 0.17658 0.83676 0.32597 1.7383 0.44402 2.7125 0.059 0.48696 0.11202 0.99276 0.15527 1.5176 0.0866 1.0501 0.13882 2.1776 0.158 3.3934v0.0028c0.01 0.60774 0.0112 1.2368 3e-3 1.8895-8e-3 0.65271-0.0274 1.3289-0.0545 2.0289v0.0028c-0.0271 0.70003-0.0625 1.4242-0.10897 2.1738 0.33954-1.3292 0.61387-2.5707 0.84718-3.757 0.071-0.36123 0.11538-0.6876 0.17706-1.0363 0.14352-0.81122 0.2783-1.6102 0.3732-2.357 0.0465-0.36616 0.0737-0.70944 0.10897-1.0609 0.0665-0.66139 0.12117-1.3073 0.14982-1.9195 0.0301-0.64462 0.0611-1.2898 0.0518-1.884-1e-5 -8.83e-4 1e-5 -0.0018 0-0.0028v-0.0028c-0.0117-0.73743-0.06-1.4278-0.12804-2.0945-9e-3 -0.08861-0.0173-0.18054-0.0272-0.26797-0.0655-0.57422-0.15719-1.1166-0.26151-1.6434-0.0969-0.48914-0.21568-0.95011-0.34323-1.4027-0.0546-0.19392-0.0981-0.40012-0.158-0.58789-0.19068-0.59754-0.4086-1.1667-0.64833-1.709-0.0143-0.03224-0.0237-0.06912-0.0381-0.10118v-0.0028c-0.25597-0.56927-0.54201-1.1064-0.84446-1.627-0.11398-0.19621-0.23978-0.38097-0.35958-0.57148-0.20092-0.31948-0.40266-0.63734-0.61836-0.94336-0.13435-0.19065-0.2746-0.37686-0.41406-0.56328-0.22912-0.30623-0.45891-0.61299-0.70008-0.91054-0.10801-0.13328-0.2195-0.26445-0.32961-0.39648-0.66714-0.79993-1.3726-1.5826-2.0921-2.3762-0.23277-0.25677-0.4539-0.51576-0.68919-0.77656-0.7365-0.81628-1.4802-1.649-2.2119-2.5512-4.5e-4 -5.49e-4 4.4e-4 -0.0022 0-0.0028-0.43717-0.53902-0.87116-1.0973-1.2939-1.6871-0.42276-0.58975-0.83515-1.2093-1.234-1.8648 0.67409-0.31764 1.3392-0.60433 1.9995-0.875 0.17172-0.07039 0.34126-0.13513 0.51212-0.20234 0.4878-0.19189 0.9734-0.37268 1.4546-0.53867 0.2084-0.07189 0.41655-0.14077 0.62381-0.20781 0.45002-0.14554 0.89786-0.27657 1.343-0.39922 0.20168-0.05558 0.40399-0.11592 0.60474-0.1668 0.59814-0.15159 1.1934-0.2866 1.7843-0.39648 0.0252-0.0046 0.0511-0.01176 0.0763-0.01641h3e-3c0.71194-0.13023 1.4155-0.21746 2.1193-0.28711 0.19985-0.01981 0.39997-0.03704 0.59929-0.05195 0.70103-0.05236 1.4014-0.08734 2.0975-0.0793 4.809 0.05559 9.7789 0.97624 14.576 4.4926-5.6764-4.6695-11.692-6.9662-18.97-6.8441z" filter="url(#filter4378)" opacity=".2"/>
 <path d="m29.216 11.903c-3.609 0.06054-7.5041 0.66752-11.776 1.8226-1.2606 0.34051-2.552 0.72659-3.881 1.1633 0.80548 1.8831 1.6684 3.4845 2.5615 4.883 0.45703 0.71561 0.92032 1.3765 1.3908 1.9956 0.70562 0.92862 1.422 1.7604 2.1396 2.5294h0.0031c0.23885 0.25599 0.47759 0.50526 0.71617 0.74871 0.47804 0.48785 0.95429 0.95502 1.4263 1.4079 0.94385 0.90546 1.8702 1.7597 2.7518 2.6488 0.44076 0.44456 0.86823 0.89787 1.2838 1.3692 0.20776 0.23564 0.41192 0.47568 0.61216 0.72186 1.8019 2.2155 3.2843 4.9116 4.1514 9.0203 0.19263 0.91282 0.3556 1.8963 0.48438 2.959 0.06436 0.53122 0.1222 1.083 0.16938 1.6555 0.09447 1.1455 0.15144 2.3755 0.17236 3.7018v0.0031c0.01091 0.66298 0.01222 1.3492 0.0033 2.0612-0.0087 0.71204-0.02989 1.4497-0.05945 2.2133v0.0031c-0.02956 0.76366-0.06818 1.5536-0.11887 2.3714 0.3704-1.45 0.66966-2.8044 0.92418-4.0985 0.07745-0.39406 0.12587-0.7501 0.19315-1.1305 0.15656-0.88495 0.3036-1.7566 0.40712-2.5712 0.05073-0.39944 0.0804-0.77392 0.11887-1.1573 0.07254-0.7215 0.13218-1.4261 0.16344-2.094 0.03284-0.70321 0.06665-1.407 0.05651-2.0552-1e-5 -9.63e-4 1.1e-5 -2e-3 0-0.0031v-0.0031c-0.01276-0.80446-0.06545-1.5576-0.13968-2.2849-0.0098-0.09666-0.01887-0.19695-0.02967-0.29233-0.07145-0.62641-0.17148-1.2181-0.28528-1.7928-0.10571-0.5336-0.23528-1.0365-0.37443-1.5302-0.05956-0.21155-0.10702-0.43649-0.17236-0.64132-0.20801-0.65185-0.44574-1.2727-0.70726-1.8643-0.0156-0.03517-0.02585-0.0754-0.04156-0.11038v-0.0031c-0.27932-0.62096-0.59136-1.2069-0.9213-1.7748-0.12434-0.21404-0.26157-0.4156-0.39226-0.62342-0.21918-0.34852-0.43926-0.69527-0.67456-1.0291-0.14656-0.20798-0.29956-0.41111-0.4517-0.61448-0.24994-0.33406-0.50062-0.6687-0.76371-0.9933-0.11783-0.14539-0.23945-0.28849-0.35957-0.43252-0.72778-0.87264-1.4974-1.7264-2.2823-2.5922-0.25393-0.28011-0.49516-0.56264-0.75183-0.84714-0.80344-0.89047-1.6147-1.7989-2.4129-2.7831-4.91e-4 -5.99e-4 4.8e-4 -0.0024 0-0.0031-0.4769-0.58801-0.95034-1.197-1.4115-1.8404-0.46118-0.64335-0.91106-1.3192-1.3462-2.0343 0.73536-0.34651 1.4609-0.65926 2.1812-0.95453 0.18733-0.07679 0.37228-0.14741 0.55867-0.22073 0.53214-0.20933 1.0619-0.40655 1.5868-0.58763 0.22734-0.07842 0.45441-0.15356 0.68051-0.2267 0.49092-0.15877 0.97947-0.30171 1.4651-0.43551 0.22001-0.06063 0.44071-0.12646 0.6597-0.18196 0.65251-0.16537 1.3019-0.31265 1.9465-0.43252 0.02749-5e-3 0.05575-0.01283 0.08324-0.0179h0.0033c0.77665-0.14207 1.5442-0.23722 2.3119-0.3132 0.21801-0.02161 0.43632-0.04041 0.65376-0.05667 0.76475-0.05712 1.5288-0.09528 2.2881-0.08651 5.2461 0.06064 10.668 1.065 15.901 4.9009-6.1923-5.0939-12.755-7.5994-20.694-7.4662z" fill="#fff" stroke-width="1.0909"/>
</svg>
