<?xml version="1.0" encoding="UTF-8"?>
<svg width="64" height="64" version="1.1" xmlns="http://www.w3.org/2000/svg" xmlns:cc="http://creativecommons.org/ns#" xmlns:dc="http://purl.org/dc/elements/1.1/" xmlns:rdf="http://www.w3.org/1999/02/22-rdf-syntax-ns#">
 <metadata>
  <rdf:RDF>
   <cc:Work rdf:about="">
    <dc:format>image/svg+xml</dc:format>
    <dc:type rdf:resource="http://purl.org/dc/dcmitype/StillImage"/>
   </cc:Work>
  </rdf:RDF>
 </metadata>
 <defs>
  <linearGradient id="linearGradient905" x1="21.902" x2="21.902" y1="17.238" y2="29.031" gradientUnits="userSpaceOnUse">
   <stop stop-color="#ff5c63" offset="0"/>
   <stop stop-color="#eb1439" offset="1"/>
  </linearGradient>
  <linearGradient id="linearGradient913" x1="40.752" x2="40.752" y1="28.508" y2="17.206" gradientUnits="userSpaceOnUse">
   <stop stop-color="#0ab816" offset="0"/>
   <stop stop-color="#0cf36c" offset="1"/>
  </linearGradient>
  <linearGradient id="linearGradient921" x1="23.723" x2="23.723" y1="46.261" y2="34.988" gradientUnits="userSpaceOnUse">
   <stop stop-color="#ffa70a" offset="0"/>
   <stop stop-color="#fff520" offset="1"/>
  </linearGradient>
  <linearGradient id="linearGradient929" x1="40.333" x2="40.333" y1="46.834" y2="35.465" gradientUnits="userSpaceOnUse">
   <stop stop-color="#3164d8" offset="0"/>
   <stop stop-color="#19c3e5" offset="1"/>
  </linearGradient>
  <filter id="filter11290" x="-.024" y="-.024" width="1.048" height="1.048" color-interpolation-filters="sRGB">
   <feGaussianBlur stdDeviation="0.15875313"/>
  </filter>
  <linearGradient id="linearGradient1005" x1=".73911" x2="16.388" y1="16.296" y2=".64687" gradientTransform="matrix(3.7796 0 0 3.7796 -57.58 2.1045)" gradientUnits="userSpaceOnUse">
   <stop stop-color="#dddfe1" offset="0"/>
   <stop stop-color="#f3f4f6" offset="1"/>
  </linearGradient>
 </defs>
 <g transform="translate(57.449 -2.0794)">
  <circle transform="matrix(3.7796 0 0 3.7796 -57.449 2.0794)" cx="8.4665" cy="8.4665" r="7.9377" filter="url(#filter11290)" opacity=".25" stroke-width=".14032"/>
  <path d="m4.5515 34.08c0 3.5964-0.63305 7.0448-1.794 10.24-0.80698 2.2212-1.8686 4.3212-3.1519 6.2636-0.53754 0.8167-1.1155 1.6054-1.729 2.3633-1.9641 2.4257-4.2982 4.5382-6.9186 6.2526-0.96493 0.63187-1.9678 1.2099-3.0061 1.7277-4.0321 2.0179-8.5839 3.153-13.401 3.153-4.8171 0-9.3689-1.1351-13.401-3.1531-1.0384-0.51799-2.0425-1.096-3.0074-1.7277-2.6535-1.7376-5.0155-3.8832-6.9957-6.349-0.61468-0.76408-1.1915-1.56-1.729-2.3841-1.249-1.9102-2.2837-3.9712-3.0747-6.1494-1.1608-3.1949-1.7927-6.6419-1.7927-10.237 0-16.569 13.432-30.001 30.001-30.001 8.317 0 15.843 3.3846 21.277 8.8507 1.5661 1.5747 2.9584 3.3234 4.1436 5.214 1.1205 1.7805 2.0572 3.6882 2.7857 5.6951 1.161 3.196 1.7941 6.6442 1.7941 10.24z" fill="url(#linearGradient1005)" stroke-width=".11719"/>
 </g>
 <g transform="translate(6e-4 -1e-4)">
  <path d="m17.546 16h10.911c0.85226 0 1.5422 0.7826 1.5422 1.7444v10.517c0 0.9632-0.68852 1.7388-1.5422 1.7388h-10.911c-0.84666 0-1.5464-0.777-1.5464-1.7388v-10.517c0-0.9632 0.69412-1.7444 1.5464-1.7444" fill="url(#linearGradient905)"/>
  <path d="m35.546 16h10.911c0.85226 0 1.5422 0.7826 1.5422 1.7444v10.517c0 0.9632-0.68852 1.7388-1.5422 1.7388h-10.911c-0.84666 0-1.5464-0.777-1.5464-1.7388v-10.517c0-0.9632 0.69412-1.7444 1.5464-1.7444" fill="url(#linearGradient913)"/>
  <path d="m17.546 34h10.911c0.85226 0 1.5422 0.7826 1.5422 1.7444v10.517c0 0.9576-0.68852 1.7388-1.5422 1.7388h-10.911c-0.84666 0-1.5464-0.7826-1.5464-1.7388v-10.517c0-0.9632 0.69412-1.7444 1.5464-1.7444" fill="url(#linearGradient921)"/>
  <path d="m35.546 34h10.911c0.85226 0 1.5422 0.7826 1.5422 1.7444v10.517c0 0.9576-0.68852 1.7388-1.5422 1.7388h-10.911c-0.84666 0-1.5464-0.7826-1.5464-1.7388v-10.517c0-0.9632 0.69412-1.7444 1.5464-1.7444" fill="url(#linearGradient929)"/>
 </g>
</svg>
