<?xml version="1.0" encoding="UTF-8"?>
<svg width="64" height="64" version="1.1" viewBox="0 0 16.933 16.933" xmlns="http://www.w3.org/2000/svg" xmlns:cc="http://creativecommons.org/ns#" xmlns:dc="http://purl.org/dc/elements/1.1/" xmlns:rdf="http://www.w3.org/1999/02/22-rdf-syntax-ns#">
 <metadata>
  <rdf:RDF>
   <cc:Work rdf:about="">
    <dc:format>image/svg+xml</dc:format>
    <dc:type rdf:resource="http://purl.org/dc/dcmitype/StillImage"/>
    <dc:title/>
   </cc:Work>
  </rdf:RDF>
 </metadata>
 <defs>
  <filter id="filter11290" x="-.024" y="-.024" width="1.048" height="1.048" color-interpolation-filters="sRGB">
   <feGaussianBlur stdDeviation="0.15875313"/>
  </filter>
  <linearGradient id="linearGradient1005" x1="2.3176" x2="14.487" y1="14.718" y2="2.5484" gradientTransform="translate(-.03491 .0064999)" gradientUnits="userSpaceOnUse">
   <stop stop-color="#ff7832" offset="0"/>
   <stop stop-color="#f03c8c" offset=".33083"/>
   <stop stop-color="#32b4ff" offset=".66165"/>
   <stop stop-color="#b950fa" offset="1"/>
  </linearGradient>
 </defs>
 <circle cx="8.4665" cy="8.4665" r="7.9377" filter="url(#filter11290)" opacity=".25" stroke-width=".14032"/>
 <path d="m16.404 8.4664c0 0.95154-0.16749 1.8639-0.47464 2.7094-0.21351 0.58768-0.49439 1.1433-0.83393 1.6572-0.14222 0.21608-0.29514 0.42475-0.45746 0.62529-0.51966 0.64179-1.1372 1.2007-1.8305 1.6543-0.2553 0.16718-0.52065 0.3201-0.79536 0.45712-1.0668 0.53389-2.2711 0.83421-3.5456 0.83421s-2.4788-0.30032-3.5456-0.83424c-0.27474-0.13705-0.5404-0.28997-0.7957-0.45712-0.70207-0.45973-1.327-1.0274-1.8509-1.6798-0.16263-0.20216-0.31524-0.41275-0.45746-0.63078-0.33046-0.5054-0.60421-1.0507-0.8135-1.627-0.30711-0.84529-0.4743-1.7573-0.4743-2.7085 0-4.3838 3.5537-7.9375 7.9375-7.9375 2.2005 0 4.1917 0.89548 5.6295 2.3417 0.41436 0.41662 0.78274 0.87929 1.0963 1.3795 0.29645 0.47107 0.54428 0.97582 0.73704 1.5068 0.30718 0.84559 0.47467 1.7579 0.47467 2.7094z" fill="url(#linearGradient1005)" stroke-width=".031006"/>
 <g transform="matrix(.87798 0 0 .87798 -.95933 -.96029)" color="#000000" fill="#fff" style="paint-order:fill markers stroke">
  <path transform="matrix(.30135 0 0 .30135 1.0939 1.0938)" d="m31.996 17.365 0.0039 0.0039a14.634 14.634 0 0 0-0.47852 0.01758c-0.02655-0.0033-0.05021-0.01758-0.08008-0.01758h-13.479a0.58404 0.58404 0 0 0-0.58398 0.58008v13.705a14.634 14.634 0 0 0-0.01758 0.3457 14.634 14.634 0 0 0 14.635 14.635 14.634 14.634 0 0 0 14.635-14.635 14.634 14.634 0 0 0-14.635-14.635zm0.0039 7.1113a7.5228 7.5228 0 0 1 7.5234 7.5234 7.5228 7.5228 0 0 1-7.5273 7.5254 7.5228 7.5228 0 0 1-7.5234-7.5254 7.5228 7.5228 0 0 1 7.5273-7.5234z" stroke-width="3.3184" style="isolation:auto;mix-blend-mode:normal"/>
  <path d="m10.648 9.855v0.794h-0.794v0.265h0.794l0.017 0.793h0.248v-0.793h0.793l0.017-0.265h-0.81v-0.794z" overflow="visible" style="isolation:auto;mix-blend-mode:normal"/>
 </g>
 <g transform="translate(25.803 -7.7425)" fill="#5e4aa6" stroke-width=".26458">
  <circle cx="-330.35" cy="-328.38" r="0"/>
  <circle cx="-312.11" cy="-326.25" r="0"/>
  <circle cx="-306.02" cy="-333.07" r="0"/>
  <circle cx="-308.84" cy="-326.01" r="0"/>
 </g>
</svg>
