<?xml version="1.0" encoding="UTF-8" standalone="no"?>
<svg
   xmlns:dc="http://purl.org/dc/elements/1.1/"
   xmlns:cc="http://creativecommons.org/ns#"
   xmlns:rdf="http://www.w3.org/1999/02/22-rdf-syntax-ns#"
   xmlns:svg="http://www.w3.org/2000/svg"
   xmlns="http://www.w3.org/2000/svg"
   xmlns:sodipodi="http://sodipodi.sourceforge.net/DTD/sodipodi-0.dtd"
   xmlns:inkscape="http://www.inkscape.org/namespaces/inkscape"
   width="64"
   height="64"
   version="1.1"
   viewBox="0 0 64 64"
   id="svg43"
   sodipodi:docname="com.jgraph.drawio.desktop.svg"
   inkscape:version="0.92.5 (6c0c36ef5a, 2020-05-15, custom)">
  <sodipodi:namedview
     pagecolor="#ffffff"
     bordercolor="#666666"
     borderopacity="1"
     objecttolerance="10"
     gridtolerance="10"
     guidetolerance="10"
     inkscape:pageopacity="0"
     inkscape:pageshadow="2"
     inkscape:window-width="1920"
     inkscape:window-height="949"
     id="namedview45"
     showgrid="false"
     inkscape:zoom="3.6875"
     inkscape:cx="-2.9830509"
     inkscape:cy="38.508475"
     inkscape:window-x="0"
     inkscape:window-y="36"
     inkscape:window-maximized="1"
     inkscape:current-layer="svg43" />
  <metadata
     id="metadata2">
    <rdf:RDF>
      <cc:Work
         rdf:about="">
        <dc:format>image/svg+xml</dc:format>
        <dc:type
           rdf:resource="http://purl.org/dc/dcmitype/StillImage" />
        <dc:title></dc:title>
      </cc:Work>
    </rdf:RDF>
  </metadata>
  <defs
     id="defs9">
    <linearGradient
       id="a-3"
       x1="-6.1472"
       x2="-6.1472"
       y1="-137.82"
       y2="-100.78"
       gradientTransform="matrix(2.0044,0,0,2.0044,123.77,261.85)"
       gradientUnits="userSpaceOnUse">
      <stop
         stop-color="#ffbe14"
         offset="0"
         id="stop4" />
      <stop
         stop-color="#ff8214"
         offset="1"
         id="stop6" />
    </linearGradient>
    <filter
       color-interpolation-filters="sRGB"
       height="1.048"
       width="1.048"
       y="-.024"
       x="-.024"
       id="filter2761">
      <feGaussianBlur
         id="feGaussianBlur854"
         stdDeviation="0.14552168" />
    </filter>
    <linearGradient
       gradientUnits="userSpaceOnUse"
       gradientTransform="matrix(3.7796,0,0,3.7796,-2.172687,-19.817425)"
       y2="1.17"
       y1="15.576"
       x2="15.65"
       x1="1.3315"
       id="linearGradient1024">
      <stop
         id="stop857"
         offset="0"
         stop-color="#ffc841" />
      <stop
         id="stop859"
         offset=".5167"
         stop-color="#ffbe37" />
      <stop
         id="stop861"
         offset="1"
         stop-color="#ffc841" />
    </linearGradient>
    <style
       id="style832"
       type="text/css" />
    <filter
       color-interpolation-filters="sRGB"
       height="1.048"
       width="1.048"
       y="-.024"
       x="-.024"
       id="filter11290">
      <feGaussianBlur
         id="feGaussianBlur834"
         stdDeviation="0.15875313" />
    </filter>
    <linearGradient
       gradientUnits="userSpaceOnUse"
       gradientTransform="matrix(3.7796,0,0,3.7796,99.392,-22.484)"
       y2=".78937"
       y1="16.164"
       x2="16.246"
       x1=".8714"
       id="linearGradient1005">
      <stop
         id="stop837"
         offset="0"
         stop-color="#ffc841" />
      <stop
         id="stop839"
         offset="1"
         stop-color="#ffc841" />
    </linearGradient>
  </defs>
  <style
     type="text/css"
     id="style11">.st0{fill:#F08705;}
	.st1{fill:#DF6C0C;}
	.st2{fill:#FFFFFF;}
	.st3{fill:#333333;}</style>
  <g
     transform="translate(-7.8795323e-4,5.845264e-4)"
     id="g866">
    <g
       transform="translate(-99.525,22.508)"
       id="g848">
      <circle
         style="opacity:0.25;stroke-width:0.14032;filter:url(#filter11290)"
         transform="matrix(3.7796,0,0,3.7796,99.423,-22.484)"
         cx="8.4937"
         cy="8.46"
         r="7.9376998"
         id="circle844" />
      <path
         style="fill:url(#linearGradient1005);stroke-width:0.11719"
         inkscape:connector-curvature="0"
         d="m 161.53,9.4911 c 0,3.5964 -0.63304,7.0448 -1.794,10.24 -0.80698,2.2212 -1.8686,4.3212 -3.1519,6.2636 -0.53753,0.8167 -1.1155,1.6054 -1.729,2.3633 -1.9641,2.4257 -4.2982,4.5382 -6.9186,6.2526 -0.96493,0.63187 -1.9678,1.2099 -3.0061,1.7277 -4.0321,2.0179 -8.5839,3.153 -13.401,3.153 -4.8171,0 -9.3689,-1.1351 -13.401,-3.1531 -1.0384,-0.51799 -2.0425,-1.096 -3.0074,-1.7277 -2.6536,-1.7376 -5.0155,-3.8832 -6.9957,-6.349 -0.61468,-0.76408 -1.1915,-1.56 -1.729,-2.3841 -1.249,-1.9102 -2.2837,-3.9712 -3.0747,-6.1494 -1.1608,-3.1949 -1.7927,-6.6419 -1.7927,-10.237 0,-16.569 13.432,-30.001 30.001,-30.001 8.317,0 15.843,3.3846 21.277,8.8507 1.5661,1.5747 2.9584,3.3234 4.1436,5.214 1.1205,1.7805 2.0572,3.6882 2.7857,5.6951 1.161,3.196 1.7941,6.6442 1.7941,10.24 z"
         id="path846" />
    </g>
    <g
       style="fill:#5e4aa6"
       id="g864">
      <circle
         cx="-1168.4"
         cy="-1251.4"
         r="0"
         id="circle850" />
      <circle
         style="fill-rule:evenodd"
         cx="-68.875999"
         cy="14.092"
         r="0"
         id="circle852" />
      <g
         style="stroke-width:0.26458001"
         transform="matrix(3.7796,0,0,3.7796,99.423,-22.484)"
         id="g862">
        <circle
           cx="-330.35001"
           cy="-328.38"
           r="0"
           id="circle854" />
        <circle
           cx="-312.10999"
           cy="-326.25"
           r="0"
           id="circle856" />
        <circle
           cx="-306.01999"
           cy="-333.07001"
           r="0"
           id="circle858" />
        <circle
           cx="-308.84"
           cy="-326.01001"
           r="0"
           id="circle860" />
      </g>
    </g>
  </g>
  <circle
     cx="-1168.4"
     cy="-1251.4"
     r="0"
     fill="#5e4aa6"
     id="circle13" />
  <circle
     cx="-68.875"
     cy="14.092"
     r="0"
     fill="#5e4aa6"
     fill-rule="evenodd"
     id="circle15" />
  <g
     id="g41"
     style="fill:#ffffff">
    <path
       d="m 26.357,27 -5.8633,10 h 3.375 l 5.8262,-9.9512 h 4.6445 L 40.1988,37 h 3.3613 L 37.6773,27 Z"
       id="path33"
       inkscape:connector-curvature="0"
       style="stroke-width:0.33418" />
    <path
       d="m 26,13 c -1.108,0 -2,0.892 -2,2 v 10 c 0,1.108 0.892,2 2,2 h 12 c 1.108,0 2,-0.892 2,-2 V 15 c 0,-1.108 -0.892,-2 -2,-2 z m 0,2 H 38 V 25 H 26 Z"
       style="paint-order:stroke fill markers"
       id="path35"
       inkscape:connector-curvature="0" />
    <path
       d="m 14,37 c -1.108,0 -2,0.892 -2,2 v 10 c 0,1.108 0.892,2 2,2 h 12 c 1.108,0 2,-0.892 2,-2 V 39 c 0,-1.108 -0.892,-2 -2,-2 z m 0,2 H 26 V 49 H 14 Z"
       style="paint-order:stroke fill markers"
       id="path37"
       inkscape:connector-curvature="0" />
    <path
       d="m 38,37 c -1.108,0 -2,0.892 -2,2 v 10 c 0,1.108 0.892,2 2,2 h 12 c 1.108,0 2,-0.892 2,-2 V 39 c 0,-1.108 -0.892,-2 -2,-2 z m 0,2 H 50 V 49 H 38 Z"
       style="paint-order:stroke fill markers"
       id="path39"
       inkscape:connector-curvature="0" />
  </g>
  <circle
     style="fill:#5e4aa6"
     cx="-1382.3678"
     cy="-1290.8949"
     r="0"
     id="circle868" />
  <circle
     style="fill:#5e4aa6;fill-rule:evenodd"
     cx="-282.84781"
     cy="-25.365114"
     r="0"
     id="circle870" />
</svg>
