<?xml version="1.0" encoding="UTF-8"?>
<svg width="64" height="64" version="1.1" viewBox="0 0 16.933 16.933" xmlns="http://www.w3.org/2000/svg" xmlns:cc="http://creativecommons.org/ns#" xmlns:dc="http://purl.org/dc/elements/1.1/" xmlns:rdf="http://www.w3.org/1999/02/22-rdf-syntax-ns#">
 <defs>
  <radialGradient id="radialGradient1028" cx="17.056" cy="16.999" r="7.1673" gradientTransform="matrix(.59888 0 0 .59888 -1.748 -1.0691)" gradientUnits="userSpaceOnUse">
   <stop stop-opacity="0" offset="0"/>
   <stop stop-opacity="0" offset=".63229"/>
   <stop stop-opacity=".0078431" offset=".64048"/>
   <stop stop-opacity=".019608" offset=".6508"/>
   <stop stop-opacity=".031373" offset=".6625"/>
   <stop stop-opacity=".047059" offset=".67694"/>
   <stop stop-opacity=".070588" offset=".69414"/>
   <stop stop-opacity=".086275" offset=".70859"/>
   <stop stop-opacity=".9" offset="1"/>
  </radialGradient>
  <linearGradient id="linearGradient1026" x1="18.527" x2="18.527" y1="9.2111" y2="26.183" gradientTransform="matrix(.5 0 0 .5 .047 -.0513)" gradientUnits="userSpaceOnUse">
   <stop stop-color="#fff" offset="0"/>
   <stop stop-color="#e1b2fb" offset="1"/>
  </linearGradient>
  <filter id="filter11290" x="-.024" y="-.024" width="1.048" height="1.048" color-interpolation-filters="sRGB">
   <feGaussianBlur stdDeviation="0.15875313"/>
  </filter>
  <linearGradient id="linearGradient1005" x1=".73911" x2="16.388" y1="16.296" y2=".64687" gradientTransform="translate(-.034805 .0066186)" gradientUnits="userSpaceOnUse">
   <stop stop-color="#a53cff" offset="0"/>
   <stop stop-color="#b496ff" offset="1"/>
  </linearGradient>
 </defs>
 <metadata>
  <rdf:RDF>
   <cc:Work rdf:about="">
    <dc:format>image/svg+xml</dc:format>
    <dc:type rdf:resource="http://purl.org/dc/dcmitype/StillImage"/>
   </cc:Work>
  </rdf:RDF>
 </metadata>
 <circle cx="8.4665" cy="8.4665" r="7.9377" filter="url(#filter11290)" opacity=".25" stroke-width=".14032"/>
 <path d="m16.404 8.4666c0 0.95153-0.16749 1.8639-0.47465 2.7093-0.21351 0.58768-0.49439 1.1433-0.83392 1.6572-0.14222 0.21608-0.29514 0.42475-0.45746 0.62528-0.51966 0.64179-1.1372 1.2007-1.8305 1.6543-0.2553 0.16718-0.52064 0.32011-0.79535 0.45711-1.0668 0.53389-2.2711 0.83422-3.5456 0.83422s-2.4788-0.30032-3.5456-0.83424c-0.27474-0.13705-0.5404-0.28998-0.79569-0.45711-0.70206-0.45973-1.327-1.0274-1.8509-1.6798-0.16263-0.20216-0.31524-0.41274-0.45746-0.63078-0.33046-0.5054-0.60422-1.0507-0.8135-1.627-0.30712-0.8453-0.47431-1.7573-0.47431-2.7085 0-4.3838 3.5538-7.9376 7.9376-7.9376 2.2005 0 4.1917 0.89549 5.6294 2.3417 0.41436 0.41663 0.78273 0.8793 1.0963 1.3795 0.29646 0.47108 0.54429 0.97582 0.73704 1.5068 0.30718 0.84559 0.47468 1.7579 0.47468 2.7093z" fill="url(#linearGradient1005)" stroke-width=".031006"/>
 <circle cx="8.4663" cy="9.1115" r="3.933" fill="url(#radialGradient1028)" opacity=".358" stroke="#000" stroke-linecap="round" stroke-linejoin="round" stroke-opacity=".0078431" stroke-width=".71866"/>
 <path d="m8.4663 3.7432a4.8869 4.8869 0 0 0-4.8869 4.8869 4.8869 4.8869 0 0 0 4.8869 4.8869 4.8869 4.8869 0 0 0 4.8869-4.8869 4.8869 4.8869 0 0 0-0.75828-2.6046c-0.0033-0.02242-0.0054-0.026125-9e-3 -0.050904-0.02212-0.14897-0.02698-0.27959-0.02334-0.60344 0.0026-0.22748 0.0054-0.48465 0.0064-0.57109 0.0015-0.13974-0.0024-0.16625-0.04137-0.24074-0.02589-0.049555-0.06416-0.098117-0.10924-0.14105-0.05109-0.059864-0.1118-0.088513-0.17287-0.10446-0.19672-0.052437-0.41218-0.00914-0.58965 0.00852-0.27752 0.026315-0.56596 0.04967-0.78267 0.061516a4.8869 4.8869 0 0 0-2.4069-0.64056zm0 1.629a3.2579 3.2579 0 0 1 3.2579 3.2579 3.2579 3.2579 0 0 1-3.2579 3.2579 3.2579 3.2579 0 0 1-3.2579-3.2579 3.2579 3.2579 0 0 1 3.2579-3.2579z" fill="url(#linearGradient1026)" stroke-width=".2715"/>
</svg>
