<?xml version="1.0" encoding="UTF-8"?>
<!-- Created with Inkscape (http://www.inkscape.org/) -->
<svg width="64" height="64" version="1.1" viewBox="0 0 16.933 16.933" xmlns="http://www.w3.org/2000/svg" xmlns:cc="http://creativecommons.org/ns#" xmlns:dc="http://purl.org/dc/elements/1.1/" xmlns:rdf="http://www.w3.org/1999/02/22-rdf-syntax-ns#">
 <defs>
  <filter id="filter11290" x="-.024" y="-.024" width="1.048" height="1.048" color-interpolation-filters="sRGB">
   <feGaussianBlur stdDeviation="0.15875313"/>
  </filter>
  <linearGradient id="linearGradient1005" x1=".73911" x2="16.388" y1="16.296" y2=".64687" gradientTransform="translate(-18.675 -2.989)" gradientUnits="userSpaceOnUse">
   <stop stop-color="#dddfe1" offset="0"/>
   <stop stop-color="#f3f4f6" offset="1"/>
  </linearGradient>
 </defs>
 <metadata>
  <rdf:RDF>
   <cc:Work rdf:about="">
    <dc:format>image/svg+xml</dc:format>
    <dc:type rdf:resource="http://purl.org/dc/dcmitype/StillImage"/>
   </cc:Work>
  </rdf:RDF>
 </metadata>
 <g transform="translate(18.64 2.9955)">
  <circle cx="-10.173" cy="5.471" r="7.9377" filter="url(#filter11290)" opacity=".25" stroke-width=".14032"/>
  <path d="m-2.236 5.471c0 0.95153-0.16749 1.8639-0.47465 2.7093-0.21351 0.58768-0.49439 1.1433-0.83392 1.6572-0.14222 0.21608-0.29514 0.42475-0.45746 0.62528-0.51966 0.64179-1.1372 1.2007-1.8305 1.6543-0.2553 0.16718-0.52064 0.32011-0.79535 0.45711-1.0668 0.53389-2.2711 0.83422-3.5456 0.83422-1.2745 0-2.4788-0.30032-3.5456-0.83424-0.27474-0.13705-0.5404-0.28998-0.79569-0.45711-0.70206-0.45973-1.327-1.0274-1.8509-1.6798-0.16263-0.20216-0.31524-0.41274-0.45746-0.63078-0.33046-0.5054-0.60422-1.0507-0.8135-1.627-0.30712-0.8453-0.47431-1.7573-0.47431-2.7085 0-4.3838 3.5538-7.9376 7.9376-7.9376 2.2005 0 4.1917 0.89549 5.6294 2.3417 0.41436 0.41663 0.78273 0.8793 1.0963 1.3795 0.29646 0.47108 0.54429 0.97582 0.73704 1.5068 0.30718 0.84559 0.47468 1.7579 0.47468 2.7093z" fill="url(#linearGradient1005)" stroke-width=".031006"/>
 </g>
 <g transform="matrix(.175 0 0 .175 9.7422 6.8527)" stroke-width=".051675">
  <path d="m-2.3617 26.684c-3.9687 1.5875-8.2019 1.852-12.435 1.5875-1.852-0.26458-3.7041-0.52916-5.5561-1.0583-0.26458 0-0.52916 0-0.79374 0.26458-2.3812 1.0583-4.7624 2.3812-6.879 3.4395-0.79374 0.52916-1.5875 0.52916-2.3812 0-0.79373-0.52916-0.79373-1.3229-0.79373-2.3812 0.52916-1.852 0.52916-3.7041 0.79373-5.5561 0-0.26458-0.26458-0.52916-0.26458-0.79374-2.6458-2.6458-4.7624-5.2916-6.3499-8.7311-2.6458-6.3499-2.1166-12.7 1.5875-18.52 3.7041-6.3499 9.5248-9.7894 16.404-11.377 6.879-1.5875 13.493-0.79373 19.843 2.3812 5.8207 2.9104 10.054 7.4082 11.906 13.758 0.79373 2.3812 1.0583 4.7624 0.79373 7.1436-1.3229-1.3229-2.9104-1.5875-4.4978-0.79373 0-1.5875 0-3.1749-0.52916-4.7624-1.0583-3.7041-3.1749-6.6145-5.8207-8.9957-4.4978-3.7041-10.054-5.2916-15.875-5.2916-6.0853 0.52916-11.377 2.6458-15.61 6.879-3.4395 3.4395-5.2916 7.6728-5.027 12.7 0.26458 4.2333 2.1166 7.6728 4.7624 10.583l2.1166 2.1166c1.0583 0.79373 1.3229 1.5875 0.79374 2.6458-0.26458 1.0583-0.52916 2.3812-0.79374 3.4395 0 0.26458-0.26458 0.52916 0 0.52916 0.26458 0.26458 0.52916 0 0.52916 0 1.3229-0.79374 2.9104-1.5875 4.2333-2.6458 0.79373-0.52916 1.5875-0.52916 2.6458-0.26458 4.4978 1.3229 9.2602 1.3229 13.758 0 0.26458 0 0.52916-0.26458 0.52916 0.26458 0.52916 1.5875 1.3229 2.6458 2.9104 3.4395z" fill="#0082ef" p-id="2712"/>
  <path d="m24.096 21.392c0 1.852-1.3229 3.1749-2.9104 3.4395-2.6458 0.52916-4.7624 1.5875-6.6145 3.4395-0.52916 0.52916-0.79374 0.52916-1.3229 0.26458-0.26458-0.26458-0.26458-0.79373 0-1.3229 1.852-1.852 2.9104-4.2332 3.4395-6.6145 0.26458-1.852 2.1166-2.9104 3.9687-2.9104 2.1166 0.26458 3.4395 1.852 3.4395 3.7041z" fill="#0081ee" p-id="2713"/>
  <path d="m10.603 35.679c-1.852 0-3.4395-1.3229-3.7041-2.9104-0.26458-2.6458-1.5875-4.7624-3.4395-6.3499-0.26458-0.26458-0.52916-0.52916-0.26458-1.0583 0.26458-0.79373 0.79373-0.79373 1.3229-0.52916s0.79373 0.79373 1.0583 1.0583c1.5875 1.3229 3.4395 2.1166 5.2916 2.3812 1.852 0.26458 3.1749 2.1166 2.9104 3.9687 0.26458 1.852-1.3229 3.4395-3.1749 3.4395z" fill="#fa6202" p-id="2714"/>
  <path d="m-3.42 21.921c0-1.852 1.0583-3.1749 2.9104-3.7041 2.6458-0.52916 4.7624-1.5875 6.6145-3.4395 0.52916-0.52916 1.0583-0.52916 1.3229 0 0.26458 0.26458 0.26458 0.79374-0.26458 1.3229-1.5875 1.5875-2.6458 3.4395-3.1749 5.8207 0 0.26458 0 0.79374-0.26458 1.0583-0.52916 1.852-2.1166 2.9104-3.9687 2.6458-1.852-0.26458-3.1749-1.852-3.1749-3.7041z" fill="#fecd00" p-id="2715"/>
  <path d="m14.836 12.661c0.79373 1.5875 1.5875 2.9104 2.6458 3.9687 0.52916 0.52916 0.52916 1.0583 0.26458 1.3229-0.26458 0.52916-0.79374 0.52916-1.3229 0-1.3229-1.5875-3.1749-2.6458-5.027-3.1749-0.52916-0.26458-1.0583-0.26458-1.5875-0.26458-1.0583-0.26458-2.1166-0.79373-2.3812-2.1166-0.52916-1.3229-0.52916-2.6458 0.52916-3.7041 1.0583-1.3229 2.3812-1.5875 3.7041-1.3229 1.3229 0.52916 2.3812 1.3229 2.6458 2.9104 0 0.79373 0.26458 1.5875 0.52916 2.3812z" fill="#2cbd00" p-id="2716"/>
 </g>
</svg>
