<?xml version="1.0" encoding="UTF-8"?>
<svg width="64" height="64" version="1.1" viewBox="0 0 16.933 16.933" xmlns="http://www.w3.org/2000/svg" xmlns:cc="http://creativecommons.org/ns#" xmlns:dc="http://purl.org/dc/elements/1.1/" xmlns:rdf="http://www.w3.org/1999/02/22-rdf-syntax-ns#">
 <metadata>
  <rdf:RDF>
   <cc:Work rdf:about="">
    <dc:format>image/svg+xml</dc:format>
    <dc:type rdf:resource="http://purl.org/dc/dcmitype/StillImage"/>
   </cc:Work>
  </rdf:RDF>
 </metadata>
 <defs>
  <linearGradient id="linearGradient927" x1="19.325" x2="19.325" y1="20.77" y2="10.748" gradientTransform="matrix(.4375 0 0 .4375 1.1001 1.0166)" gradientUnits="userSpaceOnUse">
   <stop stop-color="#2c2e30" offset="0"/>
   <stop stop-color="#4a4e51" offset="1"/>
  </linearGradient>
  <filter id="filter11290" x="-.024" y="-.024" width="1.048" height="1.048" color-interpolation-filters="sRGB">
   <feGaussianBlur stdDeviation="0.15875313"/>
  </filter>
  <linearGradient id="linearGradient1005" x1=".73911" x2="16.388" y1="16.296" y2=".64687" gradientTransform="matrix(3.7796,0,0,3.7796,-72.503,-3.4958)" gradientUnits="userSpaceOnUse">
   <stop stop-color="#dddfe1" offset="0"/>
   <stop stop-color="#f3f4f6" offset="1"/>
  </linearGradient>
 </defs>
 <g transform="matrix(.26458 0 0 .26458 19.148 .93153)">
  <circle transform="matrix(3.7796,0,0,3.7796,-72.372,-3.5208)" cx="8.4665" cy="8.4665" r="7.9377" filter="url(#filter11290)" opacity=".25" stroke-width=".14032"/>
  <path d="m-10.371 28.48c0 3.5964-0.63305 7.0448-1.794 10.24-0.80698 2.2212-1.8686 4.3212-3.1519 6.2636-0.53754 0.8167-1.1155 1.6054-1.729 2.3633-1.9641 2.4257-4.2982 4.5382-6.9186 6.2526-0.96493 0.63187-1.9678 1.2099-3.0061 1.7277-4.0321 2.0179-8.5839 3.153-13.401 3.153s-9.3689-1.1351-13.401-3.1531c-1.0384-0.51799-2.0425-1.096-3.0074-1.7277-2.6535-1.7376-5.0155-3.8832-6.9957-6.349-0.61468-0.76408-1.1915-1.56-1.729-2.3841-1.249-1.9102-2.2837-3.9712-3.0747-6.1494-1.1608-3.1949-1.7927-6.6419-1.7927-10.237 0-16.569 13.432-30.001 30.001-30.001 8.317 0 15.843 3.3846 21.277 8.8507 1.5661 1.5747 2.9584 3.3234 4.1436 5.214 1.1205 1.7805 2.0572 3.6882 2.7857 5.6951 1.161 3.196 1.7941 6.6442 1.7941 10.24z" fill="url(#linearGradient1005)" stroke-width=".11719"/>
 </g>
 <path d="m8.7848 5.0669a0.32185 0.32185 0 0 0-0.29659 0.19576l-1.3272 3.0024-1.2728-1.901 0.00127 0.64361-2.5745 0.00515 0.00515 2.5745 2.5745-0.00515 0.00127 0.64361 1.1922-1.7962-0.081655 0.18495 1.9309-0.00385-0.93139 2.1069-0.29442-0.13015 0.13864 1.2788 1.0387-0.75823-0.2941-0.13015 1.1773-2.6633 1.2728 1.901-0.0013-0.64361 2.5745-0.00515-0.0051-2.5745-2.5745 0.00515-0.0013-0.64361-1.1922 1.7962 0.081655-0.18495-1.9309 0.00385 1.0812-2.4459a0.32185 0.32185 0 0 0-0.29224-0.45605z" fill="url(#linearGradient927)" fill-rule="evenodd" stroke-width=".4375"/>
</svg>
