<?xml version="1.0" encoding="UTF-8"?>
<svg width="64" height="64" version="1.1" viewBox="0 0 16.933 16.933" xmlns="http://www.w3.org/2000/svg" xmlns:cc="http://creativecommons.org/ns#" xmlns:dc="http://purl.org/dc/elements/1.1/" xmlns:rdf="http://www.w3.org/1999/02/22-rdf-syntax-ns#">
 <metadata>
  <rdf:RDF>
   <cc:Work rdf:about="">
    <dc:format>image/svg+xml</dc:format>
    <dc:type rdf:resource="http://purl.org/dc/dcmitype/StillImage"/>
   </cc:Work>
  </rdf:RDF>
 </metadata>
 <defs>
  <linearGradient id="linearGradient1079" x1="39.195" x2="62.47" y1="83.048" y2="83.048" gradientTransform="matrix(.19599 0 0 .19599 -1.682 -7.6392)" gradientUnits="userSpaceOnUse">
   <stop stop-color="#fff" offset="0"/>
   <stop stop-color="#dadada" stop-opacity=".76364" offset="1"/>
  </linearGradient>
  <linearGradient id="linearGradient1081" x1="72.717" x2="67.271" y1="101.4" y2="79.566" gradientTransform="matrix(.19599 0 0 .19599 -1.682 -7.6392)" gradientUnits="userSpaceOnUse">
   <stop stop-color="#fdc7ce" offset="0"/>
   <stop stop-color="#fdcdd2" stop-opacity="0" offset="1"/>
  </linearGradient>
  <linearGradient id="linearGradient1083" x1="39.995" x2="49.179" y1="103.58" y2="87.677" gradientTransform="matrix(.19599 0 0 .19599 -1.682 -7.6392)" gradientUnits="userSpaceOnUse">
   <stop stop-color="#fdc7ce" offset="0"/>
   <stop stop-color="#fdcad0" stop-opacity="0" offset="1"/>
  </linearGradient>
  <filter id="filter11290-15" x="-.024" y="-.024" width="1.048" height="1.048" color-interpolation-filters="sRGB">
   <feGaussianBlur stdDeviation="0.15875313"/>
  </filter>
  <linearGradient id="linearGradient1005-4" x1="2.9667" x2="16.101" y1="14.069" y2=".93425" gradientTransform="translate(17.268 4.3377)" gradientUnits="userSpaceOnUse">
   <stop stop-color="#ff7d50" offset="0"/>
   <stop stop-color="#fa4b5a" offset=".51596"/>
   <stop stop-color="#ff509b" offset="1"/>
  </linearGradient>
 </defs>
 <style><![CDATA[.B{clip-path:url(#C)}.C{fill:#3e2723}.D{fill-opacity:.15}.E{fill-opacity:.2}]]></style>
 <style><![CDATA[.B{clip-path:url(#C)}.C{fill:#3e2723}.D{fill-opacity:.15}.E{fill-opacity:.2}]]></style>
 <g transform="translate(-17.303 -4.3312)">
  <circle cx="25.77" cy="12.798" r="7.9377" filter="url(#filter11290-15)" opacity=".25" stroke-width=".14032"/>
  <path d="m33.708 12.798c0 0.95155-0.16749 1.8639-0.47466 2.7093-0.21351 0.58769-0.4944 1.1433-0.83394 1.6572-0.14222 0.21608-0.29514 0.42476-0.45746 0.62529-0.51967 0.6418-1.1372 1.2007-1.8305 1.6543-0.2553 0.16718-0.52065 0.32009-0.79536 0.45712-1.0668 0.5339-2.2712 0.83423-3.5457 0.83423s-2.4789-0.30033-3.5457-0.83426c-0.27474-0.13706-0.54041-0.28998-0.79571-0.45712-0.70207-0.45974-1.327-1.0274-1.8509-1.6798-0.16263-0.20216-0.31525-0.41275-0.45746-0.63079-0.33046-0.50541-0.60423-1.0507-0.81351-1.627-0.30713-0.84532-0.47432-1.7573-0.47432-2.7085 0-4.3839 3.5539-7.9378 7.9378-7.9378 2.2005 0 4.1918 0.89551 5.6295 2.3417 0.41436 0.41664 0.78274 0.87932 1.0963 1.3795 0.29646 0.47109 0.5443 0.97584 0.73705 1.5068 0.30718 0.84561 0.47469 1.7579 0.47469 2.7093z" fill="url(#linearGradient1005-4)" stroke-width=".031006"/>
 </g>
 <g transform="matrix(1.14 0 0 1.14 -1.8621 -1.3796)" stroke-width="1.469">
  <path d="m6.1475 5.8457a0.5556 0.5556 0 0 0-0.56881 0.55541v4.4705a0.5556 0.5556 0 0 0 0.83331 0.48192l3.8714-2.2355a0.5556 0.5556 0 0 0 0-0.96193l-3.8714-2.235a0.5556 0.5556 0 0 0-0.2645-0.075408z" fill="url(#linearGradient1079)"/>
  <path d="m8.1277 5.8457a0.5556 0.5556 0 0 0-0.56881 0.55541v4.4705a0.5556 0.5556 0 0 0 0.83331 0.48192l3.8714-2.2355a0.5556 0.5556 0 0 0 0-0.96193l-3.8714-2.235a0.5556 0.5556 0 0 0-0.2645-0.075408z" fill="#fff"/>
  <path d="m6.1475 5.8457a0.5556 0.5556 0 0 0-0.56881 0.55541v4.4705a0.5556 0.5556 0 0 0 0.83331 0.48192l1.1464-0.66183v0.1799a0.5556 0.5556 0 0 0 0.83331 0.48192l3.8714-2.2355a0.5556 0.5556 0 0 0 0-0.96193l-3.8714-2.235a0.5556 0.5556 0 0 0-0.2645-0.075408 0.5556 0.5556 0 0 0-0.56881 0.55541v0.18183l-1.1464-0.66183a0.5556 0.5556 0 0 0-0.2645-0.075408z" fill="url(#linearGradient1081)"/>
  <path d="m6.1475 5.8457a0.5556 0.5556 0 0 0-0.56881 0.55541v4.4705a0.5556 0.5556 0 0 0 0.83331 0.48192l1.1464-0.66183v0.1799a0.5556 0.5556 0 0 0 0.83331 0.48192l3.8714-2.2355a0.5556 0.5556 0 0 0 0-0.96193l-3.8714-2.235a0.5556 0.5556 0 0 0-0.2645-0.075408 0.5556 0.5556 0 0 0-0.56881 0.55541v0.18183l-1.1464-0.66183a0.5556 0.5556 0 0 0-0.2645-0.075408z" fill="url(#linearGradient1083)"/>
 </g>
</svg>
