<?xml version="1.0" encoding="UTF-8"?>
<svg width="64" height="64" version="1.1" viewBox="0 0 16.933 16.933" xmlns="http://www.w3.org/2000/svg" xmlns:cc="http://creativecommons.org/ns#" xmlns:dc="http://purl.org/dc/elements/1.1/" xmlns:rdf="http://www.w3.org/1999/02/22-rdf-syntax-ns#">
 <metadata>
  <rdf:RDF>
   <cc:Work rdf:about="">
    <dc:format>image/svg+xml</dc:format>
    <dc:type rdf:resource="http://purl.org/dc/dcmitype/StillImage"/>
   </cc:Work>
  </rdf:RDF>
 </metadata>
 <defs>
  <filter id="filter11290" x="-.024" y="-.024" width="1.048" height="1.048" color-interpolation-filters="sRGB">
   <feGaussianBlur stdDeviation="0.15875313"/>
  </filter>
  <linearGradient id="linearGradient1005" x1=".73911" x2="13.303" y1="16.296" y2="3.7322" gradientTransform="translate(-24.31 -.087252)" gradientUnits="userSpaceOnUse">
   <stop stop-color="#ff7d1e" offset="0"/>
   <stop stop-color="#ffa53c" offset="1"/>
  </linearGradient>
 </defs>
 <g transform="translate(24.275 .093875)">
  <circle cx="-15.808" cy="8.3726" r="7.9377" filter="url(#filter11290)" opacity=".25" stroke-width=".14032"/>
  <path d="m-7.871 8.3727c0 0.95153-0.16749 1.8639-0.47465 2.7093-0.21351 0.58768-0.49439 1.1433-0.83392 1.6572-0.14222 0.21608-0.29514 0.42475-0.45746 0.62528-0.51966 0.64179-1.1372 1.2007-1.8305 1.6543-0.2553 0.16718-0.52064 0.32009-0.79535 0.45711-1.0668 0.53389-2.2711 0.83421-3.5456 0.83421-1.2745 0-2.4788-0.30032-3.5456-0.83424-0.27474-0.13705-0.5404-0.28998-0.79569-0.45711-0.70206-0.45973-1.327-1.0274-1.8509-1.6798-0.16263-0.20216-0.31524-0.41274-0.45746-0.63078-0.33046-0.5054-0.60422-1.0507-0.8135-1.627-0.30712-0.8453-0.47431-1.7573-0.47431-2.7085 0-4.3838 3.5538-7.9376 7.9376-7.9376 2.2005 0 4.1917 0.89549 5.6294 2.3417 0.41436 0.41663 0.78273 0.8793 1.0963 1.3795 0.29646 0.47108 0.54429 0.97582 0.73704 1.5068 0.30718 0.84559 0.47468 1.7579 0.47468 2.7093z" fill="url(#linearGradient1005)" stroke-width=".031006"/>
 </g>
 <path d="m8.0096 4.7917-1.7653 0.88935 1.7653 0.88909 0.88677-0.45475v-0.44261c0-0.00812 1.06e-4 -0.012215 0.0041-0.01628 0 0-1.32e-4 -0.00385 0.0039-0.00385 0-0.00405 0.0041-0.00809 0.0041-0.012145 0-0.00405 0.0039-0.00415 0.0039-0.00415l0.0083-0.00827 0.0039-0.00385 0.0042-0.00415h8e-3l0.35864-0.17854zm2.8476 0.026615-1.2805 0.64286-0.07622 0.040565-0.07622 0.03643-0.3253 0.16562 0.3253 0.16175 0.07622 0.040565 0.07622 0.03643 0.25683 0.12945 0.06847 0.03643 0.06821 0.0323 0.88702 0.44881 1.7585-0.88573zm-4.77 0.93586-0.06847 0.032295-1.7007 0.8568 1.6805 0.84879 0.02016 0.00801 0.06847 0.032555 0.06847-0.032555 1.6968-0.8568-0.83819-0.4222-0.31859-0.15839zm2.9275 0.054777v1.2901l0.81881 0.41264 0.06847 0.03643 0.03204 0.01602h8e-3c4e-3 0 0.0039 0.00415 0.0039 0.00415 4e-3 0 0.0041 0.00415 0.0041 0.00415l8e-3 0.00801 0.0041 0.00415c4e-3 0.00405 0.0039 0.0081 0.0039 0.012145 0 0 1.3e-4 0.00385 0.0042 0.00385 0 0.00405 0.0039 0.01206 0.0039 0.020155l-0.0039 0.0447v0.40437l0.81881 0.41238v-1.7712l-0.81872-0.41264-0.06821-0.03643-0.06847-0.03643-0.40928-0.20619-0.07648-0.040305-0.07622-0.040565zm3.6853 0.00415-1.7743 0.89788v1.7712l0.25683-0.12945 0.07622-0.04031 0.07622-0.03643 1.365-0.68756zm-3.8036 0.4607-0.73742 0.36949 0.73742 0.37362zm-0.90537 0.46948-0.06821 0.03643-1.6901 0.8493 0.80279 0.40437 0.88728 0.44881 0.06821 0.0323 0.06821-0.0323 1.2123-0.61056 0.07622-0.040565 0.07648-0.03643 0.32504-0.16562-0.73458-0.36819-0.06821-0.036175-0.06821-0.032555-0.81907-0.41238zm-3.7577 0.013695v1.7787l8e-3 0.00415 0.07674 0.03643 1.7007 0.8568v-1.7784l-8e-3 -0.00415-0.08062-0.040565zm1.9149 0.98521v1.7715l8e-3 0.0039 0.07648 0.03643 0.80279 0.40437 0.88728 0.44907v-1.7715l-8e-3 -0.00415-0.07648-0.040305-0.83483-0.42065zm3.6853 0-0.25683 0.12945-0.07622 0.03643-0.07622 0.040305-1.2808 0.64311-0.07622 0.04031-8e-3 0.00415v1.7715l1.6901-0.85344 0.07622-0.03643 8e-3 -0.0039zm0.16304 0.46044v1.2263l1.6968-0.8568-0.32634-0.1664-0.44752 0.22738c-4e-3 0-0.0039 6.85e-5 -8e-3 0.00415h-0.0041c-0.01209 0.00813-0.02002 0.00801-0.02403 0.00801-4e-3 0-0.01224-7.05e-5 -0.01628-0.00415h-0.0039c-4e-3 0-0.0039 1.85e-4 -8e-3 -0.0039zm-5.7632 0.48729v1.7784l1.7854 0.89762v-1.7787zm7.5406 0-1.7813 0.89736v1.7787l1.7813-0.89762zm-5.6183 0.96635v1.7787l8e-3 0.0042 0.07674 0.04056 1.6968 0.85266v-1.7784l-0.0083-0.0042-0.07648-0.04056zm3.6998 0-1.6965 0.85292-0.07674 0.04057-8e-3 0.0041v1.7784l1.6968-0.85266 0.07648-0.04057 8e-3 -0.0041z" fill="#fff" stroke-width=".13229"/>
</svg>
