<?xml version="1.0" encoding="UTF-8"?>
<svg width="64" height="64" version="1.1" viewBox="0 0 16.933 16.933" xmlns="http://www.w3.org/2000/svg" xmlns:cc="http://creativecommons.org/ns#" xmlns:dc="http://purl.org/dc/elements/1.1/" xmlns:rdf="http://www.w3.org/1999/02/22-rdf-syntax-ns#">
 <metadata>
  <rdf:RDF>
   <cc:Work rdf:about="">
    <dc:format>image/svg+xml</dc:format>
    <dc:type rdf:resource="http://purl.org/dc/dcmitype/StillImage"/>
   </cc:Work>
  </rdf:RDF>
 </metadata>
 <defs>
  <filter id="filter11290" x="-.024" y="-.024" width="1.048" height="1.048" color-interpolation-filters="sRGB">
   <feGaussianBlur stdDeviation="0.15875313"/>
  </filter>
  <linearGradient id="linearGradient1005" x1=".73911" x2="16.388" y1="16.296" y2=".64687" gradientTransform="translate(21.36 -5.8046)" gradientUnits="userSpaceOnUse">
   <stop stop-color="#dc2828" offset="0"/>
   <stop stop-color="#ff4141" offset="1"/>
  </linearGradient>
 </defs>
 <g transform="translate(-21.395 5.8112)">
  <circle cx="29.861" cy="2.6553" r="7.9377" filter="url(#filter11290)" image-rendering="optimizeSpeed" opacity=".25" stroke-width=".14032"/>
  <path d="m37.799 2.6553c0 0.95154-0.16749 1.8639-0.47464 2.7094-0.21351 0.58768-0.49439 1.1433-0.83393 1.6572-0.14222 0.21608-0.29514 0.42475-0.45746 0.62529-0.51966 0.64179-1.1372 1.2007-1.8305 1.6543-0.2553 0.16718-0.52065 0.3201-0.79536 0.45712-1.0668 0.53389-2.2711 0.83421-3.5456 0.83421s-2.4788-0.30032-3.5456-0.83424c-0.27474-0.13705-0.5404-0.28997-0.7957-0.45712-0.70207-0.45973-1.327-1.0274-1.8509-1.6798-0.16263-0.20216-0.31524-0.41275-0.45746-0.63078-0.33046-0.5054-0.60421-1.0507-0.8135-1.627-0.30711-0.84529-0.4743-1.7573-0.4743-2.7085 0-4.3838 3.5537-7.9375 7.9375-7.9375 2.2005 0 4.1917 0.89548 5.6295 2.3417 0.41436 0.41662 0.78274 0.87929 1.0963 1.3795 0.29645 0.47107 0.54428 0.97582 0.73704 1.5068 0.30718 0.84559 0.47467 1.7579 0.47467 2.7094z" fill="url(#linearGradient1005)" image-rendering="optimizeSpeed" stroke-width=".031006"/>
 </g>
 <path d="m9.569 4.6954c-0.83386-0.020355-1.7056 0.40351-2.3262 1.371-0.22299-0.13842-0.44784-0.29094-0.68652-0.29094-0.33535 0-0.65461 0.11782-0.92475 0.29791-0.45263 0.30175-0.721 0.80805-0.70022 1.3299-0.50574 0.063612-0.92999 0.28598-1.1857 0.64363-0.29574 0.41361-0.40779 0.94334-0.35424 1.4668 0.1071 1.047 0.93253 2.1081 2.3779 2.1035 0.3196-1e-3 0.72364-0.0021 1.2539-0.0021a0.26461 0.26461 0 1 0 0-0.52813c-0.53029 0-0.9339-4.3e-5 -1.255 0.0011-1.1952 0.0038-1.7663-0.80487-1.8505-1.6281-0.0421-0.4116 0.05152-0.81713 0.25761-1.1054 0.20609-0.28823 0.5106-0.47361 0.97953-0.47361h0.36716l-0.11601-0.34882c-0.10264-0.30792 0.12506-0.7562 0.51857-1.0185 0.19676-0.13117 0.42239-0.20903 0.63174-0.20903 0.20936 0 0.40424 0.06628 0.59092 0.25296l0.24805 0.24805 0.16976-0.30644c0.72603-1.3069 1.8018-1.4752 2.6699-1.1397 0.8681 0.33544 1.472 1.1887 1.2072 2.0771l-0.09663 0.32324 0.3377 0.016535c0.46822 0.02243 0.79226 0.22688 1.0178 0.53511 0.22551 0.30823 0.33965 0.72933 0.3222 1.1485-0.01745 0.41918-0.16504 0.8301-0.43356 1.1289s-0.65259 0.49816-1.209 0.49816a0.26465 0.26465 0 1 0 0 0.52917c0.68867 0 1.2386-0.26903 1.6025-0.67386 0.36385-0.40483 0.54725-0.93326 0.56922-1.4609 0.02197-0.52763-0.11645-1.0609-0.42478-1.4823-0.25969-0.35495-0.67163-0.58592-1.1581-0.6798 0.16686-1.0815-0.54802-2.0686-1.5431-2.4531-0.26958-0.10417-0.56009-0.16354-0.85731-0.17079zm-1.301 1.7226c-0.31444 0-0.57593 0.26072-0.57593 0.57516v4.669c0 0.31444 0.26149 0.57619 0.57593 0.57619h1.8673c0.31444 0 0.57619-0.26175 0.57619-0.57619v-4.669c0-0.31444-0.26175-0.57516-0.57619-0.57516zm0 0.52917h1.8673c0.03043 0 0.04677 0.01555 0.04677 0.04599v4.669c0 0.03044-0.01633 0.04677-0.04677 0.04677h-1.8673c-0.03044 0-0.04677-0.01633-0.04677-0.04677v-4.669c0-0.03044 0.01633-0.04599 0.04677-0.04599zm0 1.4475v0.31032h0.93379v-0.31032zm0 0.62193v0.31161h1.5557v-0.31161zm0 0.62296v0.31058h1.5557v-0.31058zm0 0.62218v0.31161h1.5557v-0.31161z" color="#000000" color-rendering="auto" dominant-baseline="auto" fill="#f9f9f9" image-rendering="auto" shape-rendering="auto" solid-color="#000000" style="font-feature-settings:normal;font-variant-alternates:normal;font-variant-caps:normal;font-variant-ligatures:normal;font-variant-numeric:normal;font-variant-position:normal;isolation:auto;mix-blend-mode:normal;shape-padding:0;text-decoration-color:#000000;text-decoration-line:none;text-decoration-style:solid;text-indent:0;text-orientation:mixed;text-transform:none;white-space:normal"/>
</svg>
