<?xml version="1.0" encoding="UTF-8"?>
<svg width="64" height="64" version="1.1" viewBox="0 0 16.933 16.933" xmlns="http://www.w3.org/2000/svg" xmlns:cc="http://creativecommons.org/ns#" xmlns:dc="http://purl.org/dc/elements/1.1/" xmlns:rdf="http://www.w3.org/1999/02/22-rdf-syntax-ns#">
 <metadata>
  <rdf:RDF>
   <cc:Work rdf:about="">
    <dc:format>image/svg+xml</dc:format>
    <dc:type rdf:resource="http://purl.org/dc/dcmitype/StillImage"/>
   </cc:Work>
  </rdf:RDF>
 </metadata>
 <defs>
  <filter id="filter11290" x="-.024" y="-.024" width="1.048" height="1.048" color-interpolation-filters="sRGB">
   <feGaussianBlur stdDeviation="0.15875313"/>
  </filter>
  <linearGradient id="linearGradient1005" x1=".73911" x2="16.388" y1="16.296" y2=".64687" gradientTransform="translate(8.6926 -.14585)" gradientUnits="userSpaceOnUse">
   <stop stop-color="#dc2828" offset="0"/>
   <stop stop-color="#ff4141" offset="1"/>
  </linearGradient>
 </defs>
 <g transform="translate(-8.7277 .15235)">
  <circle cx="17.194" cy="8.3141" r="7.9377" filter="url(#filter11290)" image-rendering="optimizeSpeed" opacity=".25" stroke-width=".14032"/>
  <path d="m25.132 8.3141c0 0.95154-0.16749 1.8639-0.47464 2.7094-0.21351 0.58768-0.49439 1.1433-0.83393 1.6572-0.14222 0.21608-0.29514 0.42475-0.45746 0.62529-0.51966 0.64179-1.1372 1.2007-1.8305 1.6543-0.2553 0.16718-0.52065 0.3201-0.79536 0.45712-1.0668 0.53389-2.2711 0.83421-3.5456 0.83421s-2.4788-0.30032-3.5456-0.83424c-0.27474-0.13705-0.5404-0.28997-0.7957-0.45712-0.70207-0.45973-1.327-1.0274-1.8509-1.6798-0.16263-0.20216-0.31524-0.41275-0.45746-0.63078-0.33046-0.5054-0.60421-1.0507-0.8135-1.627-0.30711-0.84529-0.4743-1.7573-0.4743-2.7085 0-4.3838 3.5537-7.9375 7.9375-7.9375 2.2005 0 4.1917 0.89548 5.6295 2.3417 0.41436 0.41662 0.78274 0.87929 1.0963 1.3795 0.29645 0.47107 0.54428 0.97582 0.73704 1.5068 0.30718 0.84559 0.47467 1.7579 0.47467 2.7094z" fill="url(#linearGradient1005)" image-rendering="optimizeSpeed" stroke-width=".031006"/>
 </g>
 <path d="m8.4666 3.5594a4.9072 4.9072 0 0 0-4.9073 4.907 4.9072 4.9072 0 0 0 4.9073 4.9073 4.9072 4.9072 0 0 0 4.907-4.9073 4.9072 4.9072 0 0 0-4.907-4.907zm-7e-3 0.86416a0.46165 0.46165 0 0 1 0.46882 0.46755v3.0836a0.46166 0.46166 0 0 1-0.92332 0v-3.0836a0.46165 0.46165 0 0 1 0.4545-0.46755zm-2.117 1.5591a0.46165 0.46165 0 0 1 0.33555 0.79323c-0.45808 0.45808-0.74044 1.0868-0.74044 1.7878 0 1.4019 1.1273 2.5279 2.5292 2.5279s2.5279-1.126 2.5279-2.5279c0-0.70095-0.28235-1.3297-0.74044-1.7878a0.46198 0.46198 0 0 1 0.65265-0.65393c0.62411 0.62411 1.0111 1.4913 1.0111 2.4417 0 1.9008-1.5504 3.4512-3.4512 3.4512s-3.4525-1.5504-3.4525-3.4512c0-0.95042 0.38699-1.8176 1.0111-2.4417a0.46165 0.46165 0 0 1 0.3171-0.13931z" fill="#f9f9f9" stroke-width=".17531"/>
</svg>
