<?xml version="1.0" encoding="UTF-8"?>
<svg id="Apps-Visual-Studio-Code" width="64" height="64" enable-background="new 0 0 1024 1024" image-rendering="optimizeSpeed" version="1.1" viewBox="0 0 64 64" xmlns="http://www.w3.org/2000/svg" xmlns:cc="http://creativecommons.org/ns#" xmlns:dc="http://purl.org/dc/elements/1.1/" xmlns:rdf="http://www.w3.org/1999/02/22-rdf-syntax-ns#">
 <metadata>
  <rdf:RDF>
   <cc:Work rdf:about="">
    <dc:format>image/svg+xml</dc:format>
    <dc:type rdf:resource="http://purl.org/dc/dcmitype/StillImage"/>
   </cc:Work>
  </rdf:RDF>
 </metadata>
 <defs>
  <style type="text/css"/>
  <style type="text/css"/>
  <radialGradient id="radialGradient1015" cx="65.029" cy="109.39" r="28.579" gradientTransform="matrix(.48895 0 0 .36863 18.388 3.4472)" gradientUnits="userSpaceOnUse">
   <stop stop-color="#FAFAFA" offset="0"/>
   <stop stop-color="#D4D4D4" offset="1"/>
  </radialGradient>
  <radialGradient id="radialGradient1017" cx="64.311" cy="105.08" r="25.112" gradientTransform="matrix(.47887 0 0 .27834 19.035 12.352)" gradientUnits="userSpaceOnUse">
   <stop stop-color="#7E8087" offset="0"/>
   <stop stop-color="#FAFAFA" offset="1"/>
  </radialGradient>
  <filter id="filter11290" x="-.024" y="-.024" width="1.048" height="1.048" color-interpolation-filters="sRGB">
   <feGaussianBlur stdDeviation="0.15875313"/>
  </filter>
  <linearGradient id="linearGradient1005" x1=".73911" x2="16.388" y1="16.296" y2=".64687" gradientTransform="matrix(3.7796 0 0 3.7796 -.13181 .025036)" gradientUnits="userSpaceOnUse">
   <stop stop-color="#dddfe1" offset="0"/>
   <stop stop-color="#f3f4f6" offset="1"/>
  </linearGradient>
 </defs>
 <circle transform="matrix(3.7796 0 0 3.7796 -1.3999e-6 -1.3999e-6)" cx="8.4665" cy="8.4665" r="7.9377" filter="url(#filter11290)" opacity=".25" stroke-width=".14032"/>
 <path d="m62 32c0 3.5964-0.63304 7.0448-1.794 10.24-0.80698 2.2212-1.8686 4.3212-3.1519 6.2636-0.53754 0.8167-1.1155 1.6054-1.729 2.3633-1.9641 2.4257-4.2982 4.5382-6.9186 6.2526-0.96493 0.63187-1.9678 1.2099-3.0061 1.7277-4.0321 2.0179-8.5839 3.153-13.401 3.153s-9.3689-1.1351-13.401-3.1531c-1.0384-0.51799-2.0425-1.096-3.0074-1.7277-2.6535-1.7376-5.0155-3.8832-6.9957-6.349-0.61468-0.76408-1.1915-1.56-1.729-2.3841-1.249-1.9102-2.2837-3.9712-3.0747-6.1494-1.1608-3.1949-1.7927-6.6419-1.7927-10.237 0-16.569 13.432-30.001 30.001-30.001 8.317 0 15.843 3.3846 21.277 8.8507 1.5661 1.5747 2.9584 3.3234 4.1436 5.214 1.1205 1.7805 2.0572 3.6882 2.7857 5.6951 1.161 3.196 1.7941 6.6442 1.7941 10.24z" fill="url(#linearGradient1005)" stroke-width=".11719"/>
 <g transform="translate(60.898,-10.635)" fill="#969696" stroke-linecap="round" stroke-width="4.9059">
  <circle cx="-31.718" cy="29.255" r="1.75"/>
  <circle cx="-26.079" cy="29.255" r="1.75"/>
  <circle cx="-34.367" cy="33.946" r="1.75"/>
  <circle cx="-28.954" cy="33.946" r="1.75"/>
  <circle cx="-23.431" cy="33.946" r="1.75"/>
  <circle cx="-31.718" cy="38.694" r="1.75"/>
  <circle cx="-26.079" cy="38.694" r="1.75"/>
  <circle cx="-37.852" cy="27.486" r="1.75"/>
  <circle cx="-19.822" cy="27.486" r="1.75"/>
  <circle cx="-39.967" cy="33.946" r="1.75"/>
  <circle cx="-17.83" cy="33.946" r="1.75"/>
  <circle cx="-37.852" cy="40.552" r="1.75"/>
  <circle cx="-19.822" cy="40.552" r="1.75"/>
  <circle cx="-32.305" cy="23.649" r="1.75"/>
  <circle cx="-25.493" cy="23.649" r="1.75"/>
  <circle cx="-32.305" cy="44.099" r="1.75"/>
  <circle cx="-25.493" cy="44.099" r="1.75"/>
 </g>
 <circle cx="50.643" cy="14.264" r="3" fill="#ff5656" stroke-linecap="round" stroke-width="3.7068"/>
 <g transform="translate(-17.761 9.3367)">
  <circle class="st10" cx="49.761" cy="38.581" r="8.5217" fill="url(#radialGradient1015)" stroke-width=".48696"/>
  <circle class="st11" cx="49.761" cy="38.581" r="6.8174" fill="#bf8256" stroke="#de3e80" stroke-linecap="round" stroke-linejoin="round" stroke-width=".44484"/>
  <circle class="st12" cx="49.761" cy="38.581" r="5.8435" fill="url(#radialGradient1017)" stroke="#abacae" stroke-linecap="round" stroke-linejoin="round" stroke-width=".31935"/>
  <path class="st13" d="m49.761 35.805c-0.14609 0-0.24348-0.09739-0.24348-0.24348v-2.2887c0-0.14609 0.0974-0.24348 0.24348-0.24348 0.14609 0 0.24348 0.09739 0.24348 0.24348v2.2887c0 0.14609-0.0974 0.24348-0.24348 0.24348z" fill="#dea47a" stroke="#ababad" stroke-width=".12987"/>
 </g>
</svg>
