<?xml version="1.0" encoding="UTF-8"?>
<svg width="64" height="64" version="1.1" viewBox="0 0 16.933 16.933" xmlns="http://www.w3.org/2000/svg" xmlns:cc="http://creativecommons.org/ns#" xmlns:dc="http://purl.org/dc/elements/1.1/" xmlns:rdf="http://www.w3.org/1999/02/22-rdf-syntax-ns#">
 <metadata>
  <rdf:RDF>
   <cc:Work rdf:about="">
    <dc:format>image/svg+xml</dc:format>
    <dc:type rdf:resource="http://purl.org/dc/dcmitype/StillImage"/>
   </cc:Work>
  </rdf:RDF>
 </metadata>
 <defs>
  <filter id="filter11290" x="-.024" y="-.024" width="1.048" height="1.048" color-interpolation-filters="sRGB">
   <feGaussianBlur stdDeviation="0.15875313"/>
  </filter>
  <linearGradient id="linearGradient1005" x1=".73911" x2="16.388" y1="16.296" y2=".64687" gradientTransform="translate(-18.728 1.9316)" gradientUnits="userSpaceOnUse">
   <stop stop-color="#dc2828" offset="0"/>
   <stop stop-color="#ff4141" offset="1"/>
  </linearGradient>
 </defs>
 <path d="m63.366-13.641-7.5223-7.6006" color="#000000" fill="none" stroke-width=".6"/>
 <path d="m41.242-29.284 8.8556 8.8325c1.7498 1.5783 2.9157 1.6977 4.709 0.10074l11.969-11.168" color="#000000" fill="none" stroke-width=".7"/>
 <style type="text/css">.st0{fill:url(#SVGID_1_);}
	.st1{fill:url(#SVGID_2_);}
	.st2{fill:url(#SVGID_3_);}
	.st3{fill:url(#SVGID_4_);}
	.st4{fill:url(#SVGID_5_);}
	.st5{fill:url(#SVGID_6_);}
	.st6{opacity:0.29;}
	.st7{fill:url(#SVGID_7_);}</style>
 <g transform="translate(18.693 -1.9252)">
  <circle cx="-10.226" cy="10.392" r="7.9377" filter="url(#filter11290)" opacity=".25" stroke-width=".14032"/>
  <path d="m-2.2887 10.392c0 0.95153-0.16749 1.8639-0.47465 2.7093-0.21351 0.58768-0.49439 1.1433-0.83392 1.6572-0.14222 0.21608-0.29514 0.42475-0.45746 0.62528-0.51966 0.64179-1.1372 1.2007-1.8305 1.6543-0.2553 0.16718-0.52064 0.32011-0.79535 0.45711-1.0668 0.53389-2.2711 0.83421-3.5456 0.83421-1.2745 0-2.4788-0.30032-3.5456-0.83424-0.27474-0.13705-0.5404-0.28998-0.79569-0.45711-0.70206-0.45973-1.327-1.0274-1.8509-1.6798-0.16263-0.20216-0.31524-0.41274-0.45746-0.63078-0.33046-0.5054-0.60422-1.0507-0.8135-1.627-0.30712-0.8453-0.47431-1.7573-0.47431-2.7085 0-4.3838 3.5538-7.9376 7.9376-7.9376 2.2005 0 4.1917 0.89549 5.6294 2.3417 0.41436 0.41663 0.78273 0.8793 1.0963 1.3795 0.29646 0.47108 0.54429 0.97582 0.73704 1.5068 0.30718 0.84559 0.47468 1.7579 0.47468 2.7093z" fill="url(#linearGradient1005)" stroke-width=".031006"/>
 </g>
 <path class="st7" d="m12.407 7.2977v0.062337c-0.18398 0.71687-0.3373 1.4961-0.52128 2.3065-0.03067 0.12467-0.12265 0.21818-0.21464 0.21818-1.0426 0.12467-2.1158 0.18701-3.189 0.18701s-2.1465-0.06234-3.189-0.18701c-0.12266 0-0.21465-0.093506-0.24531-0.21818-0.18398-0.81038-0.3373-1.5896-0.52128-2.3065v-0.062337c-0.21465-0.031168-0.36796-0.21818-0.36796-0.43636 0-0.28052 0.21465-0.56103 0.49062-0.62337 0.27597-0.062337 0.49062 0.15584 0.49062 0.46753 0 0.18701-0.06133 0.34285-0.18398 0.46753 0.21465 0.21818 0.42929 0.46753 0.64394 0.71687 0.15332 0.18701 0.39863 0.31168 0.64394 0.31168 0.27597 0 0.55195-0.15584 0.73593-0.43636 0.36796-0.5922 0.73593-1.2156 1.1039-1.8389-0.09199-0.12467-0.15332-0.28052-0.15332-0.43636 0-0.34285 0.21465-0.65454 0.52128-0.65454 0.27597 0 0.52128 0.31168 0.52128 0.65454 0 0.15584-0.06133 0.31168-0.15332 0.43636 0.36796 0.62337 0.73593 1.2467 1.1039 1.8389 0.18398 0.28052 0.42929 0.46753 0.73593 0.46753 0.24531 0 0.45996-0.093505 0.64394-0.28052 0.21465-0.24935 0.42929-0.49869 0.6746-0.71687-0.12265-0.12467-0.18398-0.28052-0.18398-0.46753 0-0.31168 0.21464-0.52986 0.49062-0.46753 0.27597 0.062337 0.49062 0.34285 0.49062 0.62337-0.03067 0.15584-0.15332 0.31168-0.36796 0.37402zm-0.58261 3.4285c0-0.15584-0.09199-0.24935-0.24531-0.21818-2.0545 0.31168-4.2009 0.31168-6.2554 0-0.12266-0.03117-0.24531 0.09351-0.24531 0.21818v0.65454c0 0.15584 0.09199 0.31168 0.24531 0.34285 2.0545 0.4987 4.2009 0.4987 6.2554 0 0.12266-0.03117 0.24531-0.18701 0.24531-0.34285z" fill="#fff" stroke-width=".14558"/>
</svg>
