<?xml version="1.0" encoding="UTF-8"?>
<svg width="64" height="64" version="1.1" viewBox="0 0 16.933 16.933" xmlns="http://www.w3.org/2000/svg" xmlns:cc="http://creativecommons.org/ns#" xmlns:dc="http://purl.org/dc/elements/1.1/" xmlns:rdf="http://www.w3.org/1999/02/22-rdf-syntax-ns#">
 <metadata>
  <rdf:RDF>
   <cc:Work rdf:about="">
    <dc:format>image/svg+xml</dc:format>
    <dc:type rdf:resource="http://purl.org/dc/dcmitype/StillImage"/>
   </cc:Work>
  </rdf:RDF>
 </metadata>
 <defs>
  <filter id="filter11290" x="-.024" y="-.024" width="1.048" height="1.048" color-interpolation-filters="sRGB">
   <feGaussianBlur stdDeviation="0.15875313"/>
  </filter>
  <linearGradient id="linearGradient1005" x1=".73911" x2="16.388" y1="16.296" y2=".64687" gradientTransform="translate(-.03491 .0065004)" gradientUnits="userSpaceOnUse">
   <stop stop-color="#8cd750" offset="0"/>
   <stop stop-color="#7dcd32" offset=".48311"/>
   <stop stop-color="#87d241" offset="1"/>
  </linearGradient>
 </defs>
 <circle cx="8.4665" cy="8.4665" r="7.9377" filter="url(#filter11290)" opacity=".25" stroke-width=".14032"/>
 <path d="m16.404 8.4665c0 0.95154-0.16749 1.8639-0.47464 2.7094-0.21351 0.58768-0.49439 1.1433-0.83393 1.6572-0.14222 0.21608-0.29514 0.42475-0.45746 0.62529-0.51966 0.64179-1.1372 1.2007-1.8305 1.6543-0.2553 0.16718-0.52065 0.3201-0.79536 0.45712-1.0668 0.53389-2.2711 0.83421-3.5456 0.83421-1.2745 0-2.4788-0.30032-3.5456-0.83424-0.27474-0.13705-0.5404-0.28997-0.7957-0.45712-0.70207-0.45973-1.327-1.0274-1.8509-1.6798-0.16263-0.20216-0.31524-0.41275-0.45746-0.63078-0.33046-0.5054-0.60421-1.0507-0.8135-1.627-0.30711-0.84529-0.4743-1.7573-0.4743-2.7085 0-4.3838 3.5537-7.9375 7.9375-7.9375 2.2005 0 4.1917 0.89548 5.6295 2.3417 0.41436 0.41662 0.78274 0.87929 1.0963 1.3795 0.29645 0.47107 0.54428 0.97582 0.73704 1.5068 0.30718 0.84559 0.47467 1.7579 0.47467 2.7094z" fill="url(#linearGradient1005)" stroke-width=".031006"/>
 <path d="m5.0713 10.821v-0.377h-1.885v-1.522l-0.12295-0.08136c-0.38436-0.25432-0.31051-0.85632 0.1227-1.0002 0.15219-0.05055 0.30653-0.0389 0.45835 0.03459 0.37308 0.1806 0.39312 0.74968 0.03426 0.97276l-0.11535 0.07171v1.1475h1.508v-0.754h1.3195v-1.7105l-0.12295-0.08135c-0.38436-0.25432-0.31051-0.85632 0.1227-1.0002 0.15219-0.05055 0.30653-0.0389 0.45835 0.03459 0.37308 0.1806 0.39312 0.74968 0.03426 0.97276l-0.11535 0.07171v1.713h1.508l-5.93e-4 -1.2429-5.92e-4 -1.2429-0.09408-0.04339c-0.05175-0.02386-0.12164-0.07951-0.15531-0.12366-0.31118-0.40798-0.0028-0.97353 0.50235-0.92139 0.37009 0.0382 0.58759 0.39371 0.46356 0.75771-0.04314 0.12661-0.18695 0.28605-0.27879 0.3091l-0.05951 0.01494v2.4925h1.508v-1.7105l-0.12297-0.08135c-0.38436-0.25432-0.31051-0.85632 0.1227-1.0002 0.15219-0.05055 0.30653-0.0389 0.45834 0.03459 0.37308 0.1806 0.39312 0.74968 0.03426 0.97276l-0.11535 0.07171v1.713h1.3195v0.754h1.508v-1.173l-0.0595-0.01494c-0.15158-0.03804-0.3175-0.3038-0.3175-0.50855 0-0.30543 0.26007-0.5655 0.5655-0.5655s0.5655 0.26007 0.5655 0.5655c0 0.20475-0.16592 0.47051-0.3175 0.50855l-0.05951 0.01494v1.55h-1.885v0.754h-6.786zm6.409-0.5655v-0.5655h-6.032v1.131h6.032zm-5.5972 0.13066c-0.11688-0.11687-0.03406-0.31916 0.13066-0.31916 0.04591 0 0.09421 0.02138 0.13066 0.05784 0.03646 0.03646 0.05784 0.08476 0.05784 0.13066 0 0.04591-0.02138 0.09421-0.05784 0.13066-0.03646 0.03646-0.08476 0.05784-0.13066 0.05784-0.04591 0-0.09421-0.02138-0.13066-0.05784zm0.754 0c-0.11687-0.11687-0.03406-0.31916 0.13066-0.31916 0.04591 0 0.09421 0.02138 0.13066 0.05784s0.05783 0.08476 0.05783 0.13066c0 0.04591-0.02138 0.09421-0.05783 0.13066-0.03646 0.03646-0.08476 0.05784-0.13066 0.05784-0.04591 0-0.09421-0.02138-0.13066-0.05784zm0.754 0c-0.11688-0.11687-0.03406-0.31916 0.13066-0.31916 0.04591 0 0.09421 0.02138 0.13066 0.05784s0.05784 0.08476 0.05784 0.13066c0 0.04591-0.02138 0.09421-0.05784 0.13066-0.03646 0.03646-0.08476 0.05784-0.13066 0.05784-0.04591 0-0.09421-0.02138-0.13066-0.05784zm-3.8857-1.885c0.11687-0.11688 0.03406-0.31916-0.13066-0.31916-0.09687 0-0.1885 0.09163-0.1885 0.1885s0.09163 0.1885 0.1885 0.1885c0.04591 0 0.09421-0.02138 0.13066-0.05784zm10.179 0c0.11688-0.11688 0.03406-0.31916-0.13066-0.31916-0.09687 0-0.1885 0.09163-0.1885 0.1885s0.09163 0.1885 0.1885 0.1885c0.04591 0 0.09421-0.02138 0.13066-0.05784zm-6.9745-1.3195c0.11687-0.11688 0.03406-0.31916-0.13066-0.31916-0.04591 0-0.09421 0.02138-0.13066 0.05784s-0.05783 0.08476-0.05783 0.13066c0 0.04591 0.02138 0.09421 0.05783 0.13066 0.03646 0.03646 0.08476 0.05784 0.13066 0.05784 0.04591 0 0.09421-0.02138 0.13066-0.05784zm3.77 0c0.11688-0.11688 0.03406-0.31916-0.13066-0.31916-0.09687 0-0.1885 0.09163-0.1885 0.1885s0.09163 0.1885 0.1885 0.1885c0.04591 0 0.09421-0.02138 0.13066-0.05784zm-1.885-0.754c0.11688-0.11688 0.03406-0.31916-0.13066-0.31916-0.04591 0-0.09421 0.02138-0.13066 0.05783-0.11688 0.11688-0.03406 0.31916 0.13066 0.31916 0.04591 0 0.09421-0.02138 0.13066-0.05783z" fill="#fff" stroke-width=".13072"/>
</svg>
