<?xml version="1.0" encoding="UTF-8"?>
<svg width="64" height="64" version="1.1" xmlns="http://www.w3.org/2000/svg" xmlns:xlink="http://www.w3.org/1999/xlink">
 <defs>
  <filter id="filter11290" x="-.024" y="-.024" width="1.048" height="1.048" color-interpolation-filters="sRGB">
   <feGaussianBlur stdDeviation="0.15875313"/>
  </filter>
  <linearGradient id="linearGradient1005" x1=".73911" x2="16.388" y1="16.296" y2=".64687" gradientTransform="matrix(3.7796 0 0 3.7796 -.13155 .025016)" gradientUnits="userSpaceOnUse">
   <stop stop-color="#1ca8a8" offset="0"/>
   <stop stop-color="#0cc" offset="1"/>
  </linearGradient>
  <linearGradient id="linearGradient9858" x1="59.092" x2="46.289" y1="216.78" y2="169" gradientTransform="matrix(.4447 0 0 .5416 71.119 -91.511)" gradientUnits="userSpaceOnUse">
   <stop stop-color="#0cc" offset="0"/>
   <stop stop-color="#32e5d2" offset="1"/>
  </linearGradient>
 </defs>
 <circle transform="matrix(3.7796 0 0 3.7796 -1e-6 -1.4e-6)" cx="8.4665" cy="8.4665" r="7.9377" filter="url(#filter11290)" opacity=".25" stroke-width=".14032"/>
 <path d="m62.001 32c0 3.5964-0.63304 7.0448-1.794 10.24-0.80698 2.2212-1.8686 4.3212-3.1519 6.2636-0.53754 0.8167-1.1155 1.6054-1.729 2.3633-1.9641 2.4257-4.2982 4.5382-6.9186 6.2526-0.96493 0.63187-1.9678 1.2099-3.0061 1.7277-4.0321 2.0179-8.5839 3.153-13.401 3.153s-9.3689-1.1351-13.401-3.1531c-1.0384-0.518-2.0425-1.096-3.0074-1.7277-2.6535-1.7376-5.0155-3.8832-6.9957-6.349-0.61468-0.76408-1.1915-1.56-1.729-2.3841-1.249-1.9102-2.2837-3.9712-3.0747-6.1494-1.1608-3.1949-1.7927-6.6419-1.7927-10.237 0-16.569 13.432-30.001 30.001-30.001 8.317 0 15.843 3.3846 21.277 8.8507 1.5661 1.5747 2.9584 3.3234 4.1436 5.214 1.1205 1.7805 2.0572 3.6882 2.7857 5.6951 1.161 3.196 1.7941 6.6442 1.7941 10.24z" fill="url(#linearGradient1005)" stroke-width=".11719"/>
 <path d="m59.5 32c0 3.2966-0.58028 6.4576-1.6445 9.3865-0.73972 2.0361-1.7128 3.961-2.8892 5.7415-0.49273 0.74862-1.0225 1.4716-1.5849 2.1663-1.8004 2.2235-3.9399 4.1599-6.3419 5.7314-0.8845 0.5792-1.8038 1.109-2.7555 1.5837-3.696 1.8497-7.8684 2.8902-12.284 2.8902s-8.588-1.0405-12.284-2.8903c-0.95185-0.47482-1.8722-1.0047-2.7567-1.5837-2.4323-1.5928-4.5975-3.5595-6.4126-5.8198-0.56344-0.7004-1.0922-1.43-1.5849-2.1854-1.1449-1.751-2.0934-3.6402-2.8184-5.6368-1.064-2.9286-1.6433-6.0883-1.6433-9.3838 0-15.188 12.312-27.5 27.5-27.5 7.6238 0 14.522 3.1025 19.503 8.113 1.4356 1.4434 2.7118 3.0464 3.7982 4.7794 1.0271 1.6321 1.8857 3.3808 2.5535 5.2204 1.0642 2.9296 1.6446 6.0904 1.6446 9.3865z" fill="#f6f5f4" stroke-width=".10742"/>
 <g transform="matrix(1.0579 0 0 1.0579 -79.136 -.00046294)">
  <rect x="85.058" y="19.503" width="15" height="2.267" rx="0" ry="0" opacity=".1"/>
  <rect x="85.058" y="24.037" width="15" height="2.267" rx="0" ry="0" opacity=".1"/>
  <rect x="85.058" y="28.57" width="15" height="2.267" rx="0" ry="0" opacity=".1"/>
  <rect x="85.058" y="33.103" width="15" height="2.267" rx="0" ry="0" opacity=".1"/>
  <rect x="85.058" y="37.637" width="15" height="2.267" rx="0" ry="0" opacity=".1"/>
  <rect x="85.058" y="42.17" width="8.001" height="2.267" rx="0" ry="0" opacity=".1"/>
  <rect x="110.06" y="17.236" width="12" height="3.4" rx="0" ry="0" fill="#0cc"/>
  <rect x="110.06" y="24.037" width="15" height="2.267" rx="0" ry="0" opacity=".1"/>
  <rect x="110.06" y="28.57" width="15" height="2.267" rx="0" ry="0" opacity=".1"/>
  <rect x="110.06" y="33.104" width="15" height="2.267" rx="0" ry="0" opacity=".1"/>
  <rect x="110.06" y="37.637" width="11" height="2.267" rx="0" ry="0" opacity=".1"/>
  <path d="m91.707 8e-3s-3.66 11.068-3.65 16.89c8e-3 4.333 0.49 9.222 2.763 12.557 1.745 2.56 7.395 4.313 7.395 4.313l1.718-0.56s4.17-4.96 4.632-8.238c0.6-4.272-0.99-8.8-2.762-12.556-2.381-5.05-10.096-12.406-10.096-12.406z" fill="url(#linearGradient9858)"/>
  <g transform="translate(73.057)" fill="#1ca8a8">
   <path d="m27.002 42.155c-4.79-21.774-4.664-24.205-7.007-36.188 2.904 11.755 3.934 13.853 8.725 35.627z"/>
   <path d="m22.055 16.291c1.609-3.39 2.185-4.07 2.755-5.198-0.516 1.166-0.728 2.101-2.336 5.492zm1.115 5.264c2.232-4.71 3.033-5.653 3.824-7.22-0.714 1.62-1.01 2.919-3.244 7.628zm1.228 5.647c2.363-4.983 3.209-5.981 4.046-7.638-0.757 1.714-1.07 3.087-3.43 8.07z"/>
   <path d="m22.387 16.184c-2.786-1.957-3.563-2.194-4.52-2.825 0.924 0.696 1.492 1.377 4.277 3.334zm1.195 5.238c-3.867-2.72-4.947-3.051-6.276-3.925 1.285 0.967 2.072 1.913 5.94 4.631zm1.254 5.636c-4.09-2.878-5.234-3.227-6.64-4.151 1.36 1.024 2.195 2.022 6.286 4.9z"/>
  </g>
 </g>
</svg>
