<?xml version="1.0" encoding="UTF-8"?>
<svg id="Apps-Visual-Studio-Code" width="64" height="64" enable-background="new 0 0 1024 1024" image-rendering="optimizeSpeed" version="1.1" viewBox="0 0 64 64" xmlns="http://www.w3.org/2000/svg" xmlns:cc="http://creativecommons.org/ns#" xmlns:dc="http://purl.org/dc/elements/1.1/" xmlns:rdf="http://www.w3.org/1999/02/22-rdf-syntax-ns#">
 <metadata>
  <rdf:RDF>
   <cc:Work rdf:about="">
    <dc:format>image/svg+xml</dc:format>
    <dc:type rdf:resource="http://purl.org/dc/dcmitype/StillImage"/>
   </cc:Work>
  </rdf:RDF>
 </metadata>
 <defs>
  <style type="text/css"/>
  <style type="text/css"/>
  <filter id="filter11290" x="-.024" y="-.024" width="1.048" height="1.048" color-interpolation-filters="sRGB">
   <feGaussianBlur stdDeviation="0.15875313"/>
  </filter>
  <linearGradient id="linearGradient1005" x1=".73911" x2="16.388" y1="16.296" y2=".64687" gradientTransform="matrix(3.7796 0 0 3.7796 -72.503 -3.4958)" gradientUnits="userSpaceOnUse">
   <stop stop-color="#dddfe1" offset="0"/>
   <stop stop-color="#f3f4f6" offset="1"/>
  </linearGradient>
 </defs>
 <g transform="translate(72.372 3.5208)">
  <circle transform="matrix(3.7796 0 0 3.7796 -72.372 -3.5208)" cx="8.4665" cy="8.4665" r="7.9377" filter="url(#filter11290)" opacity=".25" stroke-width=".14032"/>
  <path d="m-10.371 28.48c0 3.5964-0.63305 7.0448-1.794 10.24-0.80698 2.2212-1.8686 4.3212-3.1519 6.2636-0.53754 0.8167-1.1155 1.6054-1.729 2.3633-1.9641 2.4257-4.2982 4.5382-6.9186 6.2526-0.96493 0.63187-1.9678 1.2099-3.0061 1.7277-4.0321 2.0179-8.5839 3.153-13.401 3.153-4.8171 0-9.3689-1.1351-13.401-3.1531-1.0384-0.51799-2.0425-1.096-3.0074-1.7277-2.6535-1.7376-5.0155-3.8832-6.9957-6.349-0.61468-0.76408-1.1915-1.56-1.729-2.3841-1.249-1.9102-2.2837-3.9712-3.0747-6.1494-1.1608-3.1949-1.7927-6.6419-1.7927-10.237 0-16.569 13.432-30.001 30.001-30.001 8.317 0 15.843 3.3846 21.277 8.8507 1.5661 1.5747 2.9584 3.3234 4.1436 5.214 1.1205 1.7805 2.0572 3.6882 2.7857 5.6951 1.161 3.196 1.7941 6.6442 1.7941 10.24z" fill="url(#linearGradient1005)" stroke-width=".11719"/>
 </g>
 <path d="m37.853 20.084-2.8717 0.02506 0.02506 2.7392 2.8699-0.02506zm-7.181 1.3839-1.7545 0.01611-1.3481 6.5132-5.7882 0.04834 1.3481-6.5114-1.7563 0.01433-1.3624 6.5132-4.3702 0.0376 0.01433 1.7205 4.0211-0.03402-1.1942 5.8902-3.5896 0.03223 0.01612 1.7205 3.2047-0.02864-1.2837 6.515 1.7563-0.01611 1.2819-6.5132 5.7899-0.05013-1.3159 6.515 1.7545-0.01611 1.3481-6.515 4.5134-0.0376-0.01433-1.7205-4.1464 0.03581 1.1924-5.892 3.7167-0.03223-0.01611-1.7205-3.3658 0.02865zm14.779 1.1011-1.9139 0.01611-0.81102 3.8635-2.1054 0.0179 0.0179 2.0875 1.9926-0.0179 0.10026 11.506c0.02246 2.6027 1.182 3.8941 3.4786 3.8743 0.98888-0.0085 1.9544-0.14507 2.8986-0.4082l-0.0179-2.1198c-0.72172 0.15476-1.2751 0.2348-1.6578 0.23811-0.66985 0.0057-1.1425-0.15282-1.4215-0.4816-0.26873-0.33792-0.40642-0.92229-0.41357-1.7509l-0.09489-10.882 3.1904-0.02865-0.0179-2.0857-3.1904 0.02686zm-7.5427 3.9208-2.8699 0.02506 0.1486 17.243 2.8699-0.02506zm-10.69 3.2298-1.1924 5.892-5.7756 0.05013 1.2282-5.892z" fill="#323232" stroke-linecap="round" stroke-width="3.4649"/>
</svg>
