<?xml version="1.0" encoding="UTF-8"?>
<svg width="64" height="64" version="1.1" xmlns="http://www.w3.org/2000/svg">
 <defs>
  <linearGradient id="linearGradient984" x1="15.951" x2="32.074" y1="24" y2="24" gradientUnits="userSpaceOnUse">
   <stop stop-color="#fff" offset="0"/>
   <stop stop-color="#c8ffe6" offset="1"/>
  </linearGradient>
  <filter id="filter11290" x="-.024" y="-.024" width="1.048" height="1.048" color-interpolation-filters="sRGB">
   <feGaussianBlur stdDeviation="0.15875313"/>
  </filter>
  <linearGradient id="linearGradient1005" x1=".73911" x2="16.388" y1="16.296" y2=".64687" gradientTransform="matrix(3.7796 0 0 3.7796 56.711 1.094)" gradientUnits="userSpaceOnUse">
   <stop stop-color="#00dc96" offset="0"/>
   <stop stop-color="#14d29b" offset="1"/>
  </linearGradient>
 </defs>
 <g transform="translate(-56.843 -1.0694)">
  <circle transform="matrix(3.7796 0 0 3.7796 56.74 1.094)" cx="8.4937" cy="8.46" r="7.9377" filter="url(#filter11290)" opacity=".25" stroke-width=".14032"/>
  <path d="m118.84 33.069c0 3.5964-0.63305 7.0448-1.794 10.24-0.80698 2.2212-1.8686 4.3212-3.1519 6.2636-0.53754 0.8167-1.1155 1.6054-1.729 2.3633-1.9641 2.4257-4.2982 4.5382-6.9186 6.2526-0.96493 0.63187-1.9678 1.2099-3.0062 1.7277-4.0321 2.0179-8.5838 3.153-13.401 3.153-4.8171 0-9.3689-1.1351-13.401-3.1531-1.0384-0.518-2.0425-1.096-3.0074-1.7277-2.6535-1.7376-5.0155-3.8832-6.9957-6.349-0.61468-0.76408-1.1915-1.56-1.729-2.3841-1.249-1.9102-2.2837-3.9712-3.0747-6.1494-1.1608-3.1949-1.7927-6.6419-1.7927-10.237 0-16.569 13.432-30.001 30.001-30.001 8.317 0 15.843 3.3846 21.277 8.8507 1.5661 1.5747 2.9584 3.3234 4.1436 5.214 1.1205 1.7805 2.0572 3.6882 2.7857 5.6951 1.161 3.196 1.7941 6.6442 1.7941 10.24z" fill="url(#linearGradient1005)" stroke-width=".11719"/>
 </g>
 <g transform="matrix(1.3861 0 0 1.3861 -1.2837 -1.2671)" fill="url(#linearGradient984)">
  <path d="m32.074 32.423c-0.89715 0.4655-1.8324 0.81673-2.8057 1.0537-0.97332 0.23698-1.9889 0.35547-3.0469 0.35547-3.1569-1e-6 -5.6579-0.88021-7.5029-2.6406-1.8451-1.7689-2.7676-4.1641-2.7676-7.1855-1e-6 -3.0299 0.92252-5.4251 2.7676-7.1855 1.845-1.7689 4.346-2.6533 7.5029-2.6533 1.0579 2e-5 2.0736 0.11851 3.0469 0.35547 0.97329 0.237 1.9085 0.58824 2.8057 1.0537v3.9229c-0.90562-0.61782-1.7985-1.0706-2.6787-1.3584-0.88022-0.28774-1.807-0.43162-2.7803-0.43164-1.7435 1.5e-5 -3.1146 0.55861-4.1133 1.6758-0.9987 1.1172-1.4981 2.6576-1.498 4.6211-6e-6 1.9551 0.49934 3.4912 1.498 4.6084 0.99869 1.1172 2.3698 1.6758 4.1133 1.6758 0.9733 4e-6 1.9001-0.14388 2.7803-0.43164 0.88019-0.28776 1.7731-0.74056 2.6787-1.3584v3.9229" fill="url(#linearGradient984)" stroke-width=".72143"/>
 </g>
</svg>
