<?xml version="1.0" encoding="UTF-8"?>
<svg width="64" height="64" version="1.1" viewBox="0 0 16.933 16.933" xmlns="http://www.w3.org/2000/svg" xmlns:cc="http://creativecommons.org/ns#" xmlns:dc="http://purl.org/dc/elements/1.1/" xmlns:rdf="http://www.w3.org/1999/02/22-rdf-syntax-ns#">
 <metadata>
  <rdf:RDF>
   <cc:Work rdf:about="">
    <dc:format>image/svg+xml</dc:format>
    <dc:type rdf:resource="http://purl.org/dc/dcmitype/StillImage"/>
    <dc:title/>
   </cc:Work>
  </rdf:RDF>
 </metadata>
 <defs>
  <filter id="b" x="-.050625" y="-.073636" width="1.1012" height="1.1473" color-interpolation-filters="sRGB">
   <feGaussianBlur stdDeviation="0.17859023"/>
  </filter>
  <filter id="filter11290" x="-.024" y="-.024" width="1.048" height="1.048" color-interpolation-filters="sRGB">
   <feGaussianBlur stdDeviation="0.15875313"/>
  </filter>
  <linearGradient id="linearGradient1005" x1=".8714" x2="16.246" y1="16.164" y2=".78937" gradientTransform="translate(-.0353 .0065)" gradientUnits="userSpaceOnUse">
   <stop stop-color="#00c8ff" offset="0"/>
   <stop stop-color="#14a0ff" offset="1"/>
  </linearGradient>
 </defs>
 <circle cx="8.4665" cy="8.4665" r="7.9377" filter="url(#filter11290)" opacity=".25" stroke-width=".14032"/>
 <path d="m16.404 8.4664c0 0.95154-0.16749 1.8639-0.47464 2.7094-0.21351 0.58768-0.49439 1.1433-0.83393 1.6572-0.14222 0.21608-0.29514 0.42475-0.45746 0.62529-0.51966 0.64179-1.1372 1.2007-1.8305 1.6543-0.2553 0.16718-0.52065 0.3201-0.79536 0.45712-1.0668 0.53389-2.2711 0.83421-3.5456 0.83421s-2.4788-0.30032-3.5456-0.83424c-0.27474-0.13705-0.5404-0.28997-0.7957-0.45712-0.70207-0.45973-1.327-1.0274-1.8509-1.6798-0.16263-0.20216-0.31524-0.41275-0.45746-0.63078-0.33046-0.5054-0.60421-1.0507-0.8135-1.627-0.30711-0.84529-0.4743-1.7573-0.4743-2.7085 0-4.3838 3.5537-7.9375 7.9375-7.9375 2.2005 0 4.1917 0.89548 5.6295 2.3417 0.41436 0.41662 0.78274 0.87929 1.0963 1.3795 0.29645 0.47107 0.54428 0.97582 0.73704 1.5068 0.30718 0.84559 0.47467 1.7579 0.47467 2.7094z" fill="url(#linearGradient1005)" stroke-width=".031006"/>
 <g fill="#5e4aa6" stroke-width=".26458">
  <circle cx="-330.35" cy="-328.38" r="0"/>
  <circle cx="-39.434" cy="6.44" r="0" fill-rule="evenodd"/>
  <g transform="translate(.00030032 -9.9674e-5)">
   <circle cx="-347.64" cy="-328.38" r="0"/>
   <circle cx="-56.726" cy="6.44" r="0" fill-rule="evenodd"/>
   <g transform="translate(-.0272 .0065001)">
    <circle cx="-330.35" cy="-328.38" r="0"/>
    <circle cx="-312.11" cy="-326.25" r="0"/>
    <circle cx="-306.02" cy="-333.07" r="0"/>
    <circle cx="-308.84" cy="-326.01" r="0"/>
   </g>
  </g>
 </g>
 <g transform="translate(22.983 -.25226)">
  <path d="m-17.857 6.4822a1.5875 1.5875 0 0 0-1.5875 1.5875 1.5875 1.5875 0 0 0 0.0646 0.44492 1.1906 1.1906 0 0 0-0.85832 1.1426 1.1906 1.1906 0 0 0 1.1906 1.1906h4.1671a0.99218 0.99218 0 0 0 0.99218-0.99218 0.99218 0.99218 0 0 0-0.86661-0.98286 1.1906 1.1906 0 0 0 0.07286-0.40618 1.1906 1.1906 0 0 0-1.1906-1.1906 1.1906 1.1906 0 0 0-0.5431 0.13229 1.5875 1.5875 0 0 0-1.4412-0.92603z" color="#bebebe" fill="#fff" opacity=".5" stroke-width=".39687"/>
  <path d="m-12.398 5.8083a2.1166 2.1166 0 0 0-1.9218 1.2345 1.5875 1.5875 0 0 0-0.72397-0.17621 1.5875 1.5875 0 0 0-1.5875 1.5875 1.5875 1.5875 0 0 0 0.09663 0.54156 1.3229 1.3229 0 0 0-1.1549 1.3105 1.3229 1.3229 0 0 0 1.3229 1.3229h5.5561a1.5875 1.5875 0 0 0 1.5875-1.5875 1.5875 1.5875 0 0 0-1.1446-1.5234 2.1166 2.1166 0 0 0 0.0863-0.59323 2.1166 2.1166 0 0 0-2.1166-2.1166z" color="#bebebe" fill="#1496ff" filter="url(#b)" stroke-width=".52916"/>
  <path d="m-12.301 5.5562a2.1166 2.1166 0 0 0-1.9218 1.2345 1.5875 1.5875 0 0 0-0.72397-0.17622 1.5875 1.5875 0 0 0-1.5875 1.5875 1.5875 1.5875 0 0 0 0.09663 0.54157 1.3229 1.3229 0 0 0-1.1549 1.3105 1.3229 1.3229 0 0 0 1.3229 1.3229h5.5562a1.5875 1.5875 0 0 0 1.5875-1.5875 1.5875 1.5875 0 0 0-1.1446-1.5234 2.1166 2.1166 0 0 0 0.0863-0.59324 2.1166 2.1166 0 0 0-2.1166-2.1166z" color="#bebebe" fill="#fff" stroke-width=".52916"/>
 </g>
 <g transform="translate(22.072 -7.4555)" fill="#5e4aa6" stroke-width=".26458">
  <circle cx="-330.35" cy="-328.38" r="0"/>
  <circle cx="-312.11" cy="-326.25" r="0"/>
  <circle cx="-306.02" cy="-333.07" r="0"/>
  <circle cx="-308.84" cy="-326.01" r="0"/>
 </g>
</svg>
