<?xml version="1.0" encoding="UTF-8"?>
<svg width="64" height="64" version="1.1" xmlns="http://www.w3.org/2000/svg" xmlns:cc="http://creativecommons.org/ns#" xmlns:dc="http://purl.org/dc/elements/1.1/" xmlns:rdf="http://www.w3.org/1999/02/22-rdf-syntax-ns#" xmlns:xlink="http://www.w3.org/1999/xlink">
 <metadata>
  <rdf:RDF>
   <cc:Work rdf:about="">
    <dc:format>image/svg+xml</dc:format>
    <dc:type rdf:resource="http://purl.org/dc/dcmitype/StillImage"/>
    <dc:title/>
   </cc:Work>
  </rdf:RDF>
 </metadata>
 <defs>
  <filter id="filter881" x="-.11969" y="-.09839" width="1.2394" height="1.1968" color-interpolation-filters="sRGB">
   <feGaussianBlur stdDeviation="1.3524075"/>
  </filter>
  <linearGradient id="linearGradient891" x1="32.069" x2="32.069" y1="49.493" y2="22.285" gradientUnits="userSpaceOnUse">
   <stop stop-color="#ffd611" offset="0"/>
   <stop stop-color="#ff7811" offset="1"/>
  </linearGradient>
  <linearGradient id="linearGradient899" x1="33.569" x2="33.569" y1="55.274" y2="28.058" gradientUnits="userSpaceOnUse">
   <stop stop-color="#00d9dd" offset="0"/>
   <stop stop-color="#0072dd" offset="1"/>
  </linearGradient>
  <style type="text/css"/>
  <style type="text/css"/>
  <filter id="filter11290" x="-.024" y="-.024" width="1.048" height="1.048" color-interpolation-filters="sRGB">
   <feGaussianBlur stdDeviation="0.15875313"/>
  </filter>
  <linearGradient id="linearGradient1005" x1=".73911" x2="16.388" y1="16.296" y2=".64687" gradientTransform="matrix(3.7796 0 0 3.7796 -.13194 .024584)" gradientUnits="userSpaceOnUse">
   <stop stop-color="#dddfe1" offset="0"/>
   <stop stop-color="#f3f4f6" offset="1"/>
  </linearGradient>
 </defs>
 <circle transform="matrix(3.7796 0 0 3.7796 -.10279 .024585)" cx="8.4937" cy="8.46" r="7.9377" filter="url(#filter11290)" opacity=".25" stroke-width=".14032"/>
 <path d="m62 32c0 3.5964-0.63305 7.0448-1.794 10.24-0.80698 2.2212-1.8686 4.3212-3.1519 6.2636-0.53754 0.8167-1.1155 1.6054-1.729 2.3633-1.9641 2.4257-4.2982 4.5382-6.9186 6.2526-0.96493 0.63187-1.9678 1.2099-3.0061 1.7277-4.0321 2.0179-8.5839 3.153-13.401 3.153s-9.3689-1.1351-13.401-3.1531c-1.0384-0.51799-2.0425-1.096-3.0074-1.7277-2.6535-1.7376-5.0155-3.8832-6.9957-6.349-0.61468-0.76408-1.1915-1.56-1.729-2.3841-1.249-1.9102-2.2837-3.9712-3.0747-6.1494-1.1608-3.1949-1.7927-6.6419-1.7927-10.237 0-16.569 13.432-30.001 30.001-30.001 8.317 0 15.843 3.3846 21.277 8.8507 1.5661 1.5747 2.9584 3.3234 4.1436 5.214 1.1205 1.7805 2.0572 3.6882 2.7857 5.6951 1.161 3.196 1.7941 6.6442 1.7941 10.24z" fill="url(#linearGradient1005)" stroke-width=".11719"/>
 <g fill="#5e4aa6">
  <circle cx="-1248.7" cy="-1241.6" r="0"/>
  <circle cx="-149.15" cy="23.855" r="0" fill-rule="evenodd"/>
  <g transform="matrix(3.7796 0 0 3.7796 -102.92 -38.72)" stroke-width=".26458">
   <circle cx="-330.35" cy="-328.38" r="0"/>
   <circle cx="-312.11" cy="-326.25" r="0"/>
   <circle cx="-306.02" cy="-333.07" r="0"/>
   <circle cx="-308.84" cy="-326.01" r="0"/>
  </g>
 </g>
 <g transform="translate(82.409 -1.4215)">
  <g transform="matrix(1.2732 0 0 1.2732 -92.188 -15.953)" filter="url(#filter881)" opacity=".15">
   <path d="m34.255 22.285c18.09 21.992 13.09 30.652-15 25.98 18.859-0.66 23.859-9.32 15-25.98"/>
   <path d="m33.007 28.058c-13.352 0.223-15.766 6.75-7.313 19.563 0.797-0.141 1.559-0.289 2.273-0.469-3.227-11.359 2.902-17.332 18.406-17.859-5.27-0.875-9.727-1.277-13.375-1.219m-6.219 21.17c1.32 1.883 2.836 3.895 4.59 6.03-1.105-2.082-2.01-4.04-2.684-5.875-0.617-0.035-1.254-0.098-1.906-0.156"/>
  </g>
  <g transform="matrix(1.2732 0 0 1.2732 -92.188 -17.372)">
   <path d="m34.255 22.285c18.09 21.992 13.09 30.652-15 25.98 18.859-0.66 23.859-9.32 15-25.98" fill="url(#linearGradient891)"/>
   <path d="m33.007 28.058c-13.352 0.223-15.766 6.75-7.313 19.563 0.797-0.141 1.559-0.289 2.273-0.469-3.227-11.359 2.902-17.332 18.406-17.859-5.27-0.875-9.727-1.277-13.375-1.219m-6.219 21.17c1.32 1.883 2.836 3.895 4.59 6.03-1.105-2.082-2.01-4.04-2.684-5.875-0.617-0.035-1.254-0.098-1.906-0.156" fill="url(#linearGradient899)"/>
  </g>
 </g>
</svg>
