<?xml version="1.0" encoding="UTF-8" standalone="no"?>
<svg
   xmlns:dc="http://purl.org/dc/elements/1.1/"
   xmlns:cc="http://creativecommons.org/ns#"
   xmlns:rdf="http://www.w3.org/1999/02/22-rdf-syntax-ns#"
   xmlns:svg="http://www.w3.org/2000/svg"
   xmlns="http://www.w3.org/2000/svg"
   xmlns:sodipodi="http://sodipodi.sourceforge.net/DTD/sodipodi-0.dtd"
   xmlns:inkscape="http://www.inkscape.org/namespaces/inkscape"
   width="64"
   height="64"
   version="1.1"
   viewBox="0 0 16.933 16.933"
   id="svg12"
   sodipodi:docname="crystal.svg"
   inkscape:version="0.92.5 (6c0c36ef5a, 2020-05-15, custom)">
  <metadata
     id="metadata18">
    <rdf:RDF>
      <cc:Work
         rdf:about="">
        <dc:format>image/svg+xml</dc:format>
        <dc:type
           rdf:resource="http://purl.org/dc/dcmitype/StillImage" />
        <dc:title></dc:title>
      </cc:Work>
    </rdf:RDF>
  </metadata>
  <defs
     id="defs16">
    <style
       id="style830"
       type="text/css" />
    <filter
       color-interpolation-filters="sRGB"
       height="1.048"
       width="1.048"
       y="-.024"
       x="-.024"
       id="filter2761">
      <feGaussianBlur
         id="feGaussianBlur832"
         stdDeviation="0.14552168" />
    </filter>
    <linearGradient
       gradientUnits="userSpaceOnUse"
       gradientTransform="translate(-0.57469512,-5.0973443)"
       y2="1.1082"
       y1="15.429"
       x2="15.644"
       x1="1.2573"
       id="linearGradient4673">
      <stop
         id="stop835"
         offset="0"
         stop-color="#32dcff" />
      <stop
         id="stop837"
         offset="1"
         stop-color="#3296ff" />
    </linearGradient>
    <style
       id="style831"
       type="text/css" />
    <filter
       color-interpolation-filters="sRGB"
       height="1.048"
       width="1.048"
       y="-.024"
       x="-.024"
       id="filter11290-3">
      <feGaussianBlur
         id="feGaussianBlur833"
         stdDeviation="0.15875313" />
    </filter>
    <linearGradient
       gradientUnits="userSpaceOnUse"
       gradientTransform="translate(-0.034965,0.0065499)"
       y2=".64687"
       y1="16.296"
       x2="16.388"
       x1=".73911"
       id="linearGradient1005-6">
      <stop
         id="stop836"
         offset="0"
         stop-color="#00c8ff" />
      <stop
         id="stop838"
         offset="1"
         stop-color="#14a0ff" />
    </linearGradient>
  </defs>
  <sodipodi:namedview
     pagecolor="#ffffff"
     bordercolor="#666666"
     borderopacity="1"
     objecttolerance="10"
     gridtolerance="10"
     guidetolerance="10"
     inkscape:pageopacity="0"
     inkscape:pageshadow="2"
     inkscape:window-width="1920"
     inkscape:window-height="1000"
     id="namedview14"
     showgrid="false"
     inkscape:zoom="3.6875"
     inkscape:cx="64.597926"
     inkscape:cy="28.096556"
     inkscape:window-x="0"
     inkscape:window-y="0"
     inkscape:window-maximized="1"
     inkscape:current-layer="svg12" />
  <circle
     style="opacity:0.25;stroke-width:0.14032;filter:url(#filter11290-3)"
     cx="8.4665003"
     cy="8.4665003"
     r="7.9376998"
     id="circle845" />
  <path
     style="fill:url(#linearGradient1005-6);stroke-width:0.031006"
     inkscape:connector-curvature="0"
     d="m 16.403945,8.46645 c 0,0.95154 -0.16749,1.8639 -0.47464,2.7094 -0.21351,0.58768 -0.49439,1.1433 -0.83393,1.6572 -0.14222,0.21608 -0.29514,0.42475 -0.45746,0.62529 -0.51966,0.64179 -1.1372,1.2007 -1.8305,1.6543 -0.2553,0.16718 -0.52065,0.3201 -0.79536,0.45712 -1.0668,0.53389 -2.2711,0.83421 -3.5456,0.83421 -1.2745,0 -2.4788,-0.30032 -3.5456,-0.83424 -0.27474,-0.13705 -0.5404,-0.28997 -0.7957,-0.45712 -0.70207,-0.45973 -1.327,-1.0274 -1.8509,-1.6798 -0.16263,-0.20216 -0.31524,-0.41275 -0.45746,-0.63078 -0.33046,-0.5054 -0.60421,-1.0507 -0.8135,-1.627 -0.30711,-0.84529 -0.4743,-1.7573 -0.4743,-2.7085 0,-4.3838 3.5537,-7.9375 7.9375,-7.9375 2.2005,0 4.1917,0.89548 5.6295,2.3417 0.41436,0.41662 0.78274,0.87929 1.0963,1.3795 0.29645,0.47107 0.54428,0.97582 0.73704,1.5068 0.30718,0.84559 0.47467,1.7579 0.47467,2.7094 z"
     id="path847" />
  <circle
     style="fill:#5e4aa6;stroke-width:0.26457813"
     cx="-297.59747"
     cy="-338.47479"
     r="0"
     id="circle842" />
  <g
     style="fill:#5e4aa6;stroke-width:0.26458001"
     transform="translate(32.762713,-10.102646)"
     id="g852">
    <circle
       cx="-299.01999"
       cy="-338.76999"
       r="0"
       id="circle844" />
    <circle
       style="fill-rule:evenodd"
       cx="-8.1062002"
       cy="-3.9487"
       r="0"
       id="circle846" />
    <circle
       cx="-278.25"
       cy="-357.69"
       r="0"
       id="circle848" />
    <circle
       style="fill-rule:evenodd"
       cx="12.663"
       cy="-22.858999"
       r="0"
       id="circle850" />
  </g>
  <g
     id="g10"
     transform="translate(-3.3168119e-4,-5.20618e-5)"
     style="fill-rule:evenodd">
    <path
       d="M 12.695,9.574 11.579,5.39 c 0,-0.012313 -0.01224,-0.024627 -0.03679,-0.036947 l -4.1817,-1.1199 c -0.012239,0 -0.036713,0 -0.049029,0.012315 l -3.0656,3.0642 C 4.233566,7.321981 4.233566,7.334295 4.233566,7.358928 l 1.116,4.184 c 0,0.01231 0.012238,0.02463 0.036791,0.03695 l 4.1817,1.1199 c 0.01224,0 0.036713,0 0.049027,-0.01231 l 3.0656,-3.0643 c 0.01231,-0.02463 0.02463,-0.03695 0.01231,-0.04926 z M 8.5992,6.2882 7.4955,10.3984 c 0,0.01231 -0.012239,0.01231 -0.024477,0 l -2.9922,-3.0027 c -0.012238,-0.012313 0,-0.012313 0,-0.024633 l 4.1081,-1.1075 c 0,0.012313 0.012314,0.012313 0.012314,0.024633 z"
       style="isolation:isolate;fill:#ffffff;stroke-width:0.26458001;fill-opacity:1"
       id="path4"
       inkscape:connector-curvature="0" />
    <path
       d="m 46.113,29.186 -16.236,4.3516 -1.5488,5.7656 c 0,0.04653 -0.04554,0.04653 -0.0918,0 l -4.1895,-4.2051 -5.6973,1.5273 1.8691,7.002 c 0,0.04653 0.04587,0.09406 0.13867,0.14062 l 15.805,4.2324 c 0.04626,0 0.139,-3.48e-4 0.18555,-0.04687 l 11.586,-11.582 c 0.04653,-0.09309 0.09344,-0.13902 0.04687,-0.18555 l -1.8672,-7 z"
       style="opacity:0.25;paint-order:stroke fill markers;fill:#ffffff;fill-opacity:1"
       id="path6"
       inkscape:connector-curvature="0"
       transform="scale(0.26458)" />
    <path
       d="m 27.818,16 c -0.01379,0 -0.03513,0.0027 -0.05469,0.0039 l 2.2324,8.332 2.457,-0.66211 c 0,0.04654 0.04687,0.04718 0.04687,0.09375 l -1.3301,4.9492 5.1582,19.246 c 0.0059,-0.004 0.01457,-0.0048 0.01953,-0.0098 l 11.586,-11.582 c 0.04653,-0.09309 0.09344,-0.13902 0.04687,-0.18555 l -4.2168,-15.812 c 0,-0.04654 -0.04784,-0.09406 -0.14062,-0.14062 l -15.805,-4.2324 z"
       style="opacity:0.3;paint-order:stroke fill markers;fill:#32a0ff;fill-opacity:1"
       id="path8"
       inkscape:connector-curvature="0"
       transform="scale(0.26458)" />
  </g>
  <circle
     style="fill:#5e4aa6;stroke-width:0.26458001"
     cx="-303.44376"
     cy="-337.85101"
     r="0"
     id="circle843" />
  <g
     style="fill:#5e4aa6;stroke-width:0.26458001"
     id="g857"
     transform="translate(26.90625,-9.471)">
    <circle
       cx="-330.35001"
       cy="-328.38"
       r="0"
       id="circle849" />
    <circle
       cx="-330.35001"
       cy="-328.37"
       r="0"
       id="circle851" />
    <circle
       cx="-330.35001"
       cy="-328.37"
       r="0"
       id="circle853" />
    <circle
       cx="-352.63"
       cy="-336.82999"
       r="0"
       id="circle855" />
  </g>
  <g
     style="fill:#5e4aa6;stroke-width:0.26458001"
     transform="translate(4.20625,-17.5722)"
     id="g869">
    <circle
       cx="-330.35001"
       cy="-328.38"
       r="0"
       id="circle861" />
    <circle
       cx="-312.10999"
       cy="-326.25"
       r="0"
       id="circle863" />
    <circle
       cx="-306.01999"
       cy="-333.07001"
       r="0"
       id="circle865" />
    <circle
       cx="-308.84"
       cy="-326.01001"
       r="0"
       id="circle867" />
  </g>
</svg>
