<?xml version="1.0" encoding="UTF-8" standalone="no"?>
<svg
   xmlns:dc="http://purl.org/dc/elements/1.1/"
   xmlns:cc="http://creativecommons.org/ns#"
   xmlns:rdf="http://www.w3.org/1999/02/22-rdf-syntax-ns#"
   xmlns:svg="http://www.w3.org/2000/svg"
   xmlns="http://www.w3.org/2000/svg"
   xmlns:xlink="http://www.w3.org/1999/xlink"
   xmlns:sodipodi="http://sodipodi.sourceforge.net/DTD/sodipodi-0.dtd"
   xmlns:inkscape="http://www.inkscape.org/namespaces/inkscape"
   width="64"
   height="64"
   version="1.1"
   viewBox="0 0 16.933 16.933"
   id="svg40"
   sodipodi:docname="crystal-picnic.svg"
   inkscape:version="0.92.5 (6c0c36ef5a, 2020-05-15, custom)">
  <sodipodi:namedview
     pagecolor="#ffffff"
     bordercolor="#666666"
     borderopacity="1"
     objecttolerance="10"
     gridtolerance="10"
     guidetolerance="10"
     inkscape:pageopacity="0"
     inkscape:pageshadow="2"
     inkscape:window-width="1920"
     inkscape:window-height="949"
     id="namedview42"
     showgrid="false"
     inkscape:zoom="3.6875"
     inkscape:cx="63.728814"
     inkscape:cy="27.118644"
     inkscape:window-x="0"
     inkscape:window-y="36"
     inkscape:window-maximized="1"
     inkscape:current-layer="svg40" />
  <metadata
     id="metadata2">
    <rdf:RDF>
      <cc:Work
         rdf:about="">
        <dc:format>image/svg+xml</dc:format>
        <dc:type
           rdf:resource="http://purl.org/dc/dcmitype/StillImage" />
        <dc:title></dc:title>
      </cc:Work>
    </rdf:RDF>
  </metadata>
  <defs
     id="defs8">
    <style
       type="text/css"
       id="style4" />
    <style
       type="text/css"
       id="style6" />
    <filter
       color-interpolation-filters="sRGB"
       height="1.048"
       width="1.048"
       y="-.024"
       x="-.024"
       id="filter2761">
      <feGaussianBlur
         id="feGaussianBlur849"
         stdDeviation="0.14552168" />
    </filter>
    <linearGradient
       gradientUnits="userSpaceOnUse"
       y2="1.17"
       y1="15.576"
       x2="15.65"
       x1="1.3315"
       id="linearGradient1024-6"
       gradientTransform="translate(0.50140016,-3.5187998)">
      <stop
         id="stop852"
         offset="0"
         stop-color="#dddfe1" />
      <stop
         id="stop854"
         offset="1"
         stop-opacity=".99608"
         stop-color="#f3f4f6" />
    </linearGradient>
    <linearGradient
       id="linearGradient1057">
      <stop
         id="stop835"
         offset="0"
         stop-color="#fff" />
      <stop
         id="stop837"
         offset="1"
         stop-opacity="0"
         stop-color="#fff" />
    </linearGradient>
    <linearGradient
       gradientUnits="userSpaceOnUse"
       gradientTransform="matrix(1.5625,0,0,1.5625,0.40633,-5.1891)"
       y2="52.847"
       y1="27.545"
       x2="34.999"
       x1="34.999"
       id="linearGradient982">
      <stop
         id="stop840"
         offset="0"
         stop-color="#32b4ff" />
      <stop
         id="stop842"
         offset="1"
         stop-color="#3287ff" />
    </linearGradient>
    <style
       id="style845"
       type="text/css" />
    <style
       id="style847"
       type="text/css" />
    <linearGradient
       gradientUnits="userSpaceOnUse"
       gradientTransform="matrix(1.5625,0,0,1.5625,-9.2253,1.3231)"
       y2="43.681"
       y1="18.052"
       x2="21.314"
       x1="21.314"
       id="linearGradient1047">
      <stop
         id="stop849"
         offset="0"
         stop-color="#14dc78" />
      <stop
         id="stop851"
         offset="1"
         stop-color="#14a03c" />
    </linearGradient>
    <linearGradient
       gradientUnits="userSpaceOnUse"
       gradientTransform="matrix(1.5625,0,0,1.5625,-8.1072,-10.908)"
       y2="37.368"
       y1="12.316"
       x2="41.729"
       x1="41.729"
       id="linearGradient1049">
      <stop
         id="stop854-3"
         offset="0"
         stop-color="#ff3c64" />
      <stop
         id="stop856"
         offset="1"
         stop-color="#ff4628" />
    </linearGradient>
    <linearGradient
       xlink:href="#linearGradient1057"
       gradientUnits="userSpaceOnUse"
       gradientTransform="matrix(1,0,0,1.2271,0.20646,-10.975)"
       y2="39.768"
       y1="32.234"
       x2="34.427"
       x1="34.427"
       id="linearGradient1059" />
    <linearGradient
       xlink:href="#linearGradient1057"
       gradientUnits="userSpaceOnUse"
       gradientTransform="matrix(1,0,0,1.2271,-12.55,-19.793)"
       y2="39.768"
       y1="32.234"
       x2="34.427"
       x1="34.427"
       id="linearGradient1063" />
    <linearGradient
       xlink:href="#linearGradient1057"
       gradientUnits="userSpaceOnUse"
       gradientTransform="matrix(1,0,0,1.2271,5.7554,-25.761)"
       y2="39.768"
       y1="32.234"
       x2="34.427"
       x1="34.427"
       id="linearGradient1067" />
    <filter
       color-interpolation-filters="sRGB"
       height="1.048"
       width="1.048"
       y="-.024"
       x="-.024"
       id="filter11290">
      <feGaussianBlur
         id="feGaussianBlur862"
         stdDeviation="0.15875313" />
    </filter>
    <linearGradient
       gradientUnits="userSpaceOnUse"
       gradientTransform="translate(-0.0348049,0.00661905)"
       y2=".64687"
       y1="16.296"
       x2="16.388"
       x1=".73911"
       id="linearGradient1005">
      <stop
         id="stop865"
         offset="0"
         stop-color="#dddfe1" />
      <stop
         id="stop867"
         offset="1"
         stop-color="#f3f4f6" />
    </linearGradient>
  </defs>
  <circle
     style="opacity:0.25;stroke-width:0.14032;filter:url(#filter11290)"
     cx="8.4665003"
     cy="8.4665003"
     r="7.9376998"
     id="circle872" />
  <path
     style="fill:url(#linearGradient1005);stroke-width:0.03100591"
     inkscape:connector-curvature="0"
     d="m 16.40395,8.4666189 c 0,0.9515288 -0.167492,1.8639001 -0.474654,2.7092801 -0.213509,0.587681 -0.49439,1.143295 -0.833923,1.657211 -0.142222,0.216081 -0.295137,0.424754 -0.457456,0.625278 -0.519658,0.641787 -1.13721,1.200709 -1.83051,1.654301 -0.2553,0.167179 -0.520637,0.320113 -0.795349,0.457112 -1.066805,0.533892 -2.2711119,0.834215 -3.5456109,0.834215 -1.274499,0 -2.478806,-0.300323 -3.545611,-0.834241 -0.274738,-0.137049 -0.540401,-0.289978 -0.795693,-0.457112 -0.702058,-0.459731 -1.326991,-1.02741 -1.850909,-1.679807 -0.162631,-0.202159 -0.315245,-0.412742 -0.457455,-0.630781 -0.330458,-0.505397 -0.604217,-1.050692 -0.813499,-1.626996 -0.307122,-0.845301 -0.474309,-1.7573017 -0.474309,-2.7084865 0,-4.3837948 3.553814,-7.93760815 7.937608,-7.93760815 2.2004969,0 4.1917119,0.89549105 5.6294289,2.34170155 0.414356,0.4166311 0.782728,0.8792989 1.096306,1.3795103 0.29646,0.4710814 0.54429,0.9758171 0.737035,1.5067988 0.307175,0.8455917 0.47468,1.75791 0.47468,2.70928 z"
     id="path874" />
  <circle
     cx="-330.38"
     cy="-328.5"
     r="0"
     fill="#5e4aa6"
     stroke-width=".26458"
     id="circle10" />
  <circle
     cx="-39.462"
     cy="6.3115"
     r="0"
     fill="#5e4aa6"
     fill-rule="evenodd"
     stroke-width=".26458"
     id="circle16" />
  <g
     transform="matrix(0.33072,0,0,0.33072,0.1985,0.52922)"
     id="g38"
     style="stroke-width:0.80000001">
    <rect
       x="21"
       y="20"
       width="5"
       height="8"
       id="rect18"
       style="fill:#e9e9f8" />
    <path
       d="m 17,16 v 2 h 2 v -2 z m 0,2 h -2 v 2 h 2 z m -2,2 h -2 v 8 h 2 z m 0,8 v 2 h 2 v -2 z m 2,2 v 2 h 2 v -2 z m 0,2 h -2 v 2 h 2 z m -2,2 h -2 v 2 h 2 z M 28,16 v 2 h 2 v -2 z m 2,2 v 2 h 2 v -2 z m 2,2 v 6 h -9 v 2 h 12 v -2 h -1 v -6 z m 3,8 v 4 h 2 v -4 z m 0,4 H 23 v 2 h 4 v 2 h 4 v -2 h 4 z m -12,0 v -4 h -2 v 4 z"
       id="path20"
       inkscape:connector-curvature="0"
       style="fill:#351135" />
    <path
       d="m 19,12 v 2 h -2 v 2 h 2 v 2 h 9 v -4 h -2 v -2 z"
       id="path22"
       inkscape:connector-curvature="0"
       style="fill:#684fc9" />
    <rect
       x="20"
       y="14"
       width="6"
       height="2"
       id="rect24"
       style="fill:#e9e9f8" />
    <path
       d="m 17,18 v 2 h 2 v -2 z m 0,2 h -2 v 8 h 2 v 2 h 2 v 2 h -2 v 2 h 5 v 2 h 5 v -2 h -4 v -2 h -2 v -5 h -2 v -2 h -2 z m 6,12 h 12 v -2 h -9 v -2 h -3 v 2 z m -6,2 h -2 v 2 h 2 z M 28,18 v 2 h 2 v -2 z"
       id="path26"
       inkscape:connector-curvature="0"
       style="fill:#996000" />
    <path
       d="m 19,18 v 2 h -2 v 5 h 2 v 2 h 2 v -7 h 5 v 6 h 2 v -8 h -2 z m -2,16 v 2 h 5 v -2 z"
       id="path28"
       inkscape:connector-curvature="0"
       style="fill:#f8c123" />
    <rect
       x="26"
       y="28"
       width="9"
       height="2"
       id="rect30"
       style="fill:#f88107" />
    <rect
       x="24"
       y="21"
       width="2"
       height="4"
       id="rect32"
       style="fill:#684fc9" />
    <rect
       x="28"
       y="20"
       width="4"
       height="6"
       id="rect34"
       style="fill:#e9e9f8" />
    <rect
       x="28"
       y="21"
       width="2"
       height="4"
       id="rect36"
       style="fill:#684fc9" />
  </g>
  <circle
     style="fill:#5e4aa6;stroke-width:0.26457813"
     cx="-352.97992"
     cy="-332.94867"
     r="0"
     id="circle876" />
  <circle
     style="fill:#5e4aa6;fill-rule:evenodd;stroke-width:0.26457813"
     cx="-62.063072"
     cy="1.8630154"
     r="0"
     id="circle878" />
  <g
     style="fill:#5e4aa6;stroke-width:0.26458001"
     transform="translate(-49.831627,-14.69296)"
     id="g902">
    <circle
       cx="-330.35001"
       cy="-328.38"
       r="0"
       id="circle894" />
    <circle
       cx="-312.10999"
       cy="-326.25"
       r="0"
       id="circle896" />
    <circle
       cx="-306.01999"
       cy="-333.07001"
       r="0"
       id="circle898" />
    <circle
       cx="-308.84"
       cy="-326.01001"
       r="0"
       id="circle900" />
  </g>
</svg>
