<?xml version="1.0" encoding="UTF-8"?>
<svg id="Apps-Visual-Studio-Code" width="64" height="64" enable-background="new 0 0 1024 1024" image-rendering="optimizeSpeed" version="1.1" viewBox="0 0 64 64" xmlns="http://www.w3.org/2000/svg" xmlns:cc="http://creativecommons.org/ns#" xmlns:dc="http://purl.org/dc/elements/1.1/" xmlns:rdf="http://www.w3.org/1999/02/22-rdf-syntax-ns#" xmlns:xlink="http://www.w3.org/1999/xlink">
 <metadata>
  <rdf:RDF>
   <cc:Work rdf:about="">
    <dc:format>image/svg+xml</dc:format>
    <dc:type rdf:resource="http://purl.org/dc/dcmitype/StillImage"/>
    <dc:title/>
   </cc:Work>
  </rdf:RDF>
 </metadata>
 <defs>
  <linearGradient id="c-3" x1="32" x2="32" y1="11" y2="53" gradientUnits="userSpaceOnUse">
   <stop stop-color="#f7bd39" offset="0"/>
   <stop stop-color="#f9e657" offset="1"/>
  </linearGradient>
  <filter id="f" x="-.06" y="-.06" width="1.12" height="1.12" color-interpolation-filters="sRGB">
   <feGaussianBlur stdDeviation="0.18520833"/>
  </filter>
  <linearGradient id="b-5" x1="8.4666" x2="8.4666" y1="284.83" y2="292.24" gradientUnits="userSpaceOnUse">
   <stop stop-color="#e0e0e0" offset="0"/>
   <stop stop-color="#fff" offset="1"/>
  </linearGradient>
  <style type="text/css"/>
  <style type="text/css"/>
  <filter id="filter11290" x="-.024" y="-.024" width="1.048" height="1.048" color-interpolation-filters="sRGB">
   <feGaussianBlur stdDeviation="0.15875313"/>
  </filter>
  <linearGradient id="linearGradient1005" x1=".73911" x2="16.388" y1="16.296" y2=".64687" gradientTransform="matrix(3.7796 0 0 3.7796 -.13194 .024584)" gradientUnits="userSpaceOnUse">
   <stop stop-color="#414343" offset="0"/>
   <stop stop-color="#a5b3b6" offset="1"/>
  </linearGradient>
  <linearGradient id="linearGradient1003" x1="30" x2="30" y1="10" y2="70" gradientTransform="matrix(1.0751 0 0 1.0751 -2.3727 -2.3868)" gradientUnits="userSpaceOnUse">
   <stop offset="0"/>
   <stop stop-opacity=".35" offset="1"/>
  </linearGradient>
 </defs>
 <circle transform="matrix(3.7796 0 0 3.7796 -.10279 .024585)" cx="8.4937" cy="8.46" r="7.9377" filter="url(#filter11290)" opacity=".25" stroke-width=".14032"/>
 <path d="m62 32c0 3.5964-0.63305 7.0448-1.794 10.24-0.80698 2.2212-1.8686 4.3212-3.1519 6.2636-0.53754 0.8167-1.1155 1.6054-1.729 2.3633-1.9641 2.4257-4.2982 4.5382-6.9186 6.2526-0.96493 0.63187-1.9678 1.2099-3.0061 1.7277-4.0321 2.0179-8.5839 3.153-13.401 3.153s-9.3689-1.1351-13.401-3.1531c-1.0384-0.51799-2.0425-1.096-3.0074-1.7277-2.6535-1.7376-5.0155-3.8832-6.9957-6.349-0.61468-0.76408-1.1915-1.56-1.729-2.3841-1.249-1.9102-2.2837-3.9712-3.0747-6.1494-1.1608-3.1949-1.7927-6.6419-1.7927-10.237 0-16.569 13.432-30.001 30.001-30.001 8.317 0 15.843 3.3846 21.277 8.8507 1.5661 1.5747 2.9584 3.3234 4.1436 5.214 1.1205 1.7805 2.0572 3.6882 2.7857 5.6951 1.161 3.196 1.7941 6.6442 1.7941 10.24z" fill="url(#linearGradient1005)" stroke-width=".11719"/>
 <g fill="#5e4aa6">
  <circle cx="-1248.7" cy="-1241.6" r="0"/>
  <circle cx="-149.15" cy="23.855" r="0" fill-rule="evenodd"/>
  <g transform="matrix(3.7796,0,0,3.7796,-102.92,-38.72)" stroke-width=".26458">
   <circle cx="-330.35" cy="-328.38" r="0"/>
   <circle cx="-312.11" cy="-326.25" r="0"/>
   <circle cx="-306.02" cy="-333.07" r="0"/>
   <circle cx="-308.84" cy="-326.01" r="0"/>
  </g>
 </g>
 <path d="m30.955 2.0254c-1.0904 0.037424-2.1667 0.13045-3.2246 0.28125v14.844l3.4102-3.4102h-0.18555v-11.715zm2.1504 0.0019532v9.7461l3.2246-3.2246v-6.2344c-1.0577-0.15298-2.1342-0.24751-3.2246-0.28711zm-7.5254 0.66797c-1.1 0.23988-2.1753 0.54152-3.2266 0.89844v11.406l3.7637 3.7617 0.72266-0.72266h-1.2598v-15.344zm12.9 0.013672v6.7305l-10.844 10.844 1.168 1.166 12.9-12.9v-4.9355c-1.0498-0.35886-2.126-0.66224-3.2246-0.9043zm-18.275 1.7012c-1.5018 0.64288-2.937 1.4083-4.3008 2.2773v1.8613l4.3008 4.3008v-8.4395zm23.65 0.027344v5.002l-14.443 14.445-0.60742-0.60742-0.60742 0.60742-2.0801-2.082-2.082 2.082-0.60547-0.60742-0.60742 0.60742-12.555-12.555c-0.50769 0.53362-1.0011 1.0806-1.4687 1.6504a1.6126 1.6126 0 0 1 0.6543 1.2969 1.6126 1.6126 0 0 1-0.029297 0.30859l9.3242 9.3242h30.648l7.5234-8.5977c-0.72966-1.0892-1.5236-2.1318-2.3867-3.1133l-6.2949 7.082h-3.4727l7.9609-8.959c-1.0905-1.0429-2.2583-2.0047-3.4961-2.875v1.9922l-14.445 14.445-1.5195-1.5215 13.814-13.814v-2.4805c-1.0376-0.60474-2.1127-1.1519-3.2246-1.6309zm-30.102 3.7539c-0.67314 0.51667-1.3268 1.0582-1.9531 1.6289l11.629 11.629 1.168-1.166-2.2441-2.2441h-2.1484v-2.1484l-6.4512-6.4512v-1.248zm-6.8594 7.3926c-1.334 2.0359-2.4266 4.2425-3.2383 6.582l1.7441 1.7441h10.307l-8.0293-8.0293a1.6126 1.6126 0 0 1-0.7832-0.29688zm28.574 22.219 0.25391 0.25391-13.398 13.4a1.6126 1.6126 0 0 1 0.029297 0.30859 1.6126 1.6126 0 0 1-1.6133 1.6113 1.6126 1.6126 0 0 1-1.6113-1.6113 1.6126 1.6126 0 0 1 1.4512-1.6055l12.355-12.355h-19.43l-8.6641 6.9297c0.45931 0.97801 0.9705 1.9268 1.5293 2.8438l2.502-1.668v2.3145l-1.4531 0.96875c0.37649 0.5379 0.76505 1.0656 1.1758 1.5762 1.4443 1.7985 3.0947 3.422 4.9102 4.8457v-6.2324l6.9453-5.7891h3.4727l-6.9453 5.7891v8.5879c0.53026 0.30725 1.0689 0.60247 1.6191 0.87695 0.86865 0.43475 1.7673 0.81965 2.6816 1.1699v-3.4141l14.443-14.445 0.60742 0.60742 0.60742-0.60742 2.0801 2.082 2.082-2.082 0.60547 0.60742 0.60742-0.60742 10.963 10.963c0.38808-0.39096 0.76269-0.79331 1.1289-1.2051l-8.2363-8.2363 1.5195-1.5215 8.1035 8.1035c0.43946-0.57188 0.86639-1.1542 1.2637-1.7578 0.55189-0.83534 1.0542-1.705 1.5215-2.5957l-4.5488-5.7891h-2.3145l-2.3164-2.3164h-13.928zm0.86133 6.791-12.9 12.9v3.2617c1.052 0.31313 2.1276 0.57224 3.2246 0.76953v-4.9219l6.4512-6.4492v-2.1504h2.1484l2.2441-2.2422-1.168-1.168zm5.375 0-1.168 1.168 9.9004 9.8984c0.43627-0.3404 0.85506-0.70094 1.2715-1.0645l-10.004-10.002zm-2.6875 2.6875-3.7637 3.7617v10.775c1.0949-0.11818 2.1703-0.29847 3.2266-0.53125v-13.285h1.2598l-0.72266-0.7207zm1.6133 1.6133v11.846c1.1026-0.33077 2.1795-0.72355 3.2246-1.1738v-7.2637h0.18555l-3.4102-3.4082zm-7.5254 4.2988-4.3008 4.3008v4.3301c1.0502 0.11121 2.1156 0.17578 3.1953 0.17578 0.37126 0 0.73748-0.019834 1.1055-0.033203v-8.7734zm12.9 1.0762v4.2539c0.82184-0.43439 1.6261-0.89727 2.4004-1.4043 0.08996-0.058857 0.17244-0.12771 0.26172-0.1875l-2.6621-2.6621z" fill="url(#linearGradient1003)" opacity=".25"/>
 <g transform="translate(124.34 .047883)">
  <g transform="matrix(3.7796 0 0 3.7796 -124.34 -1058.6)">
   <g transform="translate(0 -.0088674)">
    <path transform="matrix(.26458 0 0 .26458 0 280.07)" d="m19 15.033v3.9666h-4.0001v2h4.0001v2h-4.0001v2h4.0001v2h-4.0001v2h4.0001v2h-4.0001v2h4.0001v2h-4.0001v2h4.0001v2h-4.0001v2h4.0001v2h-4.0001v2h4.0001v4.0331h2v-4.0331h2v4.0331h2v-4.0331h2v4.0331h2v-4.0331h2v4.0331h2v-4.0331h2v4.0331h2v-4.0331h2v4.0331h2v-4.0331h2v4.0331h2v-4.0331h3.9997v-2h-3.9997v-2h3.9997v-2h-3.9997v-2h3.9997v-2h-3.9997v-2h3.9997v-2h-3.9997v-2h3.9997v-2h-3.9997v-2h3.9997v-2h-3.9997v-2h3.9997v-2h-3.9997v-3.9666h-2v3.9666h-2v-3.9666h-2v3.9666h-2v-3.9666h-2v3.9666h-2v-3.9666h-2v3.9666h-2v-3.9666h-2v3.9666h-2v-3.9666h-2v3.9666h-2v-3.9666zm2 5.9666h2v2h-2zm4 0h2v2h-2zm4 0h2v2h-2zm4 0h2v2h-2zm4 0h2v2h-2zm4 0h2v2h-2zm-20 4h2v2h-2zm4 0h2v2h-2zm4 0h2v2h-2zm4 0h2v2h-2zm4 0h2v2h-2zm4 0h2v2h-2zm-20 4h2v2h-2zm4 0h2v2h-2zm4 0h2v2h-2zm4 0h2v2h-2zm4 0h2v2h-2zm4 0h2v2h-2zm-20 4h2v2h-2zm4 0h2v2h-2zm4 0h2v2h-2zm4 0h2v2h-2zm4 0h2v2h-2zm4 0h2v2h-2zm-20 4h2v2h-2zm4 0h2v2h-2zm4 0h2v2h-2zm4 0h2v2h-2zm4 0h2v2h-2zm4 0h2v2h-2zm-20 4h2v2h-2zm4 0h2v2h-2zm4 0h2v2h-2zm4 0h2v2h-2zm4 0h2v2h-2zm4 0h2v2h-2z" fill="url(#c-3)" stroke-width="3.0996"/>
    <rect x="4.7625" y="284.83" width="7.4083" height="7.4083" rx=".52917" ry=".52915" fill-rule="evenodd" filter="url(#f)" opacity=".5"/>
    <rect x="4.7625" y="284.83" width="7.4083" height="7.4083" rx=".52917" ry=".52915" fill="url(#b-5)" fill-rule="evenodd"/>
   </g>
   <g fill-rule="evenodd">
    <circle cx="5.424" cy="285.49" r=".13229" opacity=".35" style="paint-order:stroke fill markers"/>
    <circle cx="11.509" cy="285.49" r=".13229" opacity=".35" style="paint-order:stroke fill markers"/>
    <circle cx="5.424" cy="291.58" r=".13229" opacity=".35" style="paint-order:stroke fill markers"/>
    <circle cx="11.509" cy="291.58" r=".13229" opacity=".35" style="paint-order:stroke fill markers"/>
   </g>
  </g>
  <path d="m-98.867 36q-1.0057 0-1.7129-0.5912-0.70716-0.5912-1.0219-1.4696-0.31503-0.87843-0.31503-1.9392 0-1.0055 0.32608-1.8949 0.3258-0.88949 1.0386-1.4971 0.71256-0.60793 1.6851-0.60793 0.89488 0 1.4418 0.41993 0.54697 0.41993 0.94478 1.1382l-1.1603 0.66293q-0.51946-0.97228-1.2263-0.97228-0.5858 0-0.97796 0.44744-0.39242 0.44744-0.54696 1.0386-0.15482 0.5912-0.15482 1.2652 0 1.1382 0.43098 1.9446 0.431 0.80669 1.2487 0.80669 0.59659 0 0.91132-0.39782 0.31503-0.39782 0.31503-1.0386v-0.16559h-1.348v-1.2377h2.696v1.0718q0 1.4254-0.71822 2.221-0.71822 0.79563-1.8561 0.79563zm5.4362-0.13271h-1.3148v-7.7346h2.7291q1.3369 0 1.9613 0.69611 0.62436 0.69611 0.62436 1.7016 0 0.95017-0.65187 1.6741-0.65217 0.72361-1.9338 0.72361h-1.4143zm0-6.4972v2.3205h1.4807q0.59657 0 0.88949-0.34252 0.2929-0.34252 0.2929-0.81775 0-0.45311-0.28184-0.80669t-0.90054-0.35358zm8.055 6.6299q-1.1489 0-1.8782-0.73496-0.72928-0.73467-0.72928-2.3481v-4.7843h1.3037v4.7843q0 1.0057 0.34253 1.42 0.34252 0.41426 0.96122 0.41426 1.304 0 1.304-1.8343v-4.7843h1.3148v4.7843q0 1.5913-0.72929 2.337-0.72928 0.74601-1.8896 0.74601z" fill-rule="evenodd" opacity=".25" stroke-width="1.5064" style="isolation:isolate"/>
 </g>
</svg>
