<?xml version="1.0" encoding="UTF-8" standalone="no"?>
<svg
   xmlns:dc="http://purl.org/dc/elements/1.1/"
   xmlns:cc="http://creativecommons.org/ns#"
   xmlns:rdf="http://www.w3.org/1999/02/22-rdf-syntax-ns#"
   xmlns:svg="http://www.w3.org/2000/svg"
   xmlns="http://www.w3.org/2000/svg"
   xmlns:sodipodi="http://sodipodi.sourceforge.net/DTD/sodipodi-0.dtd"
   xmlns:inkscape="http://www.inkscape.org/namespaces/inkscape"
   width="64"
   height="64"
   version="1.1"
   viewBox="0 0 16.933 16.933"
   id="svg14"
   sodipodi:docname="csd-orientation.svg"
   inkscape:version="0.92.5 (6c0c36ef5a, 2020-05-15, custom)">
  <metadata
     id="metadata20">
    <rdf:RDF>
      <cc:Work
         rdf:about="">
        <dc:format>image/svg+xml</dc:format>
        <dc:type
           rdf:resource="http://purl.org/dc/dcmitype/StillImage" />
        <dc:title></dc:title>
      </cc:Work>
    </rdf:RDF>
  </metadata>
  <defs
     id="defs18">
    <filter
       color-interpolation-filters="sRGB"
       height="1.048"
       width="1.048"
       y="-.024"
       x="-.024"
       id="filter2761">
      <feGaussianBlur
         id="feGaussianBlur827"
         stdDeviation="0.14552168" />
    </filter>
    <linearGradient
       gradientUnits="userSpaceOnUse"
       y2="3.4588"
       y1="15.576"
       x2="13.449"
       x1="1.3315"
       id="linearGradient1081">
      <stop
         id="stop830"
         offset="0"
         stop-color="#3caaff" />
      <stop
         id="stop832"
         offset="1"
         stop-color="#b496ff" />
    </linearGradient>
    <filter
       color-interpolation-filters="sRGB"
       height="1.048"
       width="1.048"
       y="-.024"
       x="-.024"
       id="filter11290">
      <feGaussianBlur
         id="feGaussianBlur829"
         stdDeviation="0.15875313" />
    </filter>
    <linearGradient
       gradientUnits="userSpaceOnUse"
       gradientTransform="translate(0.31481,-5.0139e-5)"
       y2="4.1627"
       y1="16.296"
       x2="12.872"
       x1=".73911"
       id="linearGradient1005">
      <stop
         id="stop832-3"
         offset="0"
         stop-color="#3caaff" />
      <stop
         id="stop834"
         offset="1"
         stop-color="#b496ff" />
    </linearGradient>
    <linearGradient
       gradientUnits="userSpaceOnUse"
       gradientTransform="matrix(1.1404,0,0,1.1404,-2.201,-1.2951)"
       y2="14.519"
       y1="8.4996"
       x2="2.8442"
       x1="5.7215"
       id="linearGradient1001">
      <stop
         id="stop837"
         offset="0"
         stop-color="#c3d2ff" />
      <stop
         id="stop839"
         offset="1"
         stop-color="#82c8ff" />
    </linearGradient>
    <linearGradient
       gradientUnits="userSpaceOnUse"
       gradientTransform="matrix(1.1404,0,0,1.1404,-2.201,-1.2951)"
       y2="13.123"
       y1="6.7137"
       x2="13.959"
       x1="6.5814"
       id="linearGradient1003">
      <stop
         id="stop842"
         offset="0"
         stop-color="#fff" />
      <stop
         id="stop844"
         offset="1"
         stop-color="#e6e6ff" />
    </linearGradient>
    <filter
       color-interpolation-filters="sRGB"
       height="1.048"
       width="1.048"
       y="-.024"
       x="-.024"
       id="filter11290-5">
      <feGaussianBlur
         id="feGaussianBlur904"
         stdDeviation="0.15875313" />
    </filter>
    <linearGradient
       gradientUnits="userSpaceOnUse"
       gradientTransform="translate(-0.00805,-5.0139e-5)"
       y2="4.1627"
       y1="16.296"
       x2="12.872"
       x1=".73911"
       id="linearGradient1005-3">
      <stop
         id="stop907"
         offset="0"
         stop-color="#3caaff" />
      <stop
         id="stop909"
         offset="1"
         stop-color="#b496ff" />
    </linearGradient>
  </defs>
  <sodipodi:namedview
     pagecolor="#ffffff"
     bordercolor="#666666"
     borderopacity="1"
     objecttolerance="10"
     gridtolerance="10"
     guidetolerance="10"
     inkscape:pageopacity="0"
     inkscape:pageshadow="2"
     inkscape:window-width="1920"
     inkscape:window-height="1000"
     id="namedview16"
     showgrid="false"
     inkscape:zoom="2.6074563"
     inkscape:cx="41.49223"
     inkscape:cy="84.835865"
     inkscape:window-x="0"
     inkscape:window-y="0"
     inkscape:window-maximized="1"
     inkscape:current-layer="svg14" />
  <g
     id="g973"
     transform="translate(-0.02719985,0.00650014)">
    <circle
       style="opacity:0.25;stroke-width:0.14032;filter:url(#filter11290-5)"
       id="circle916"
       r="7.9376998"
       cy="8.46"
       cx="8.4937" />
    <g
       id="g926"
       style="fill:#5e4aa6;stroke-width:0.26458001">
      <circle
         id="circle918"
         r="0"
         cy="-328.38"
         cx="-330.35001" />
      <circle
         id="circle920"
         r="0"
         cy="-326.25"
         cx="-312.10999" />
      <circle
         id="circle922"
         r="0"
         cy="-333.07001"
         cx="-306.01999" />
      <circle
         id="circle924"
         r="0"
         cy="-326.01001"
         cx="-308.84" />
    </g>
    <path
       style="fill:url(#linearGradient1005-3);stroke-width:0.031006"
       id="path928"
       d="m 16.431,8.4599 c 0,0.95154 -0.16749,1.8639 -0.47464,2.7094 -0.21351,0.58768 -0.49439,1.1433 -0.83393,1.6572 -0.14222,0.21608 -0.29514,0.42475 -0.45746,0.62529 -0.51966,0.64179 -1.1372,1.2007 -1.8305,1.6543 -0.2553,0.16718 -0.52065,0.3201 -0.79536,0.45712 -1.0668,0.53389 -2.2711,0.83421 -3.5456,0.83421 -1.2745,0 -2.4788,-0.30032 -3.5456,-0.83424 -0.27474,-0.13705 -0.5404,-0.28997 -0.7957,-0.45712 -0.70207,-0.45973 -1.327,-1.0274 -1.8509,-1.6798 -0.16263,-0.20216 -0.31524,-0.41275 -0.45746,-0.63078 -0.33046,-0.5054 -0.60421,-1.0507 -0.8135,-1.627 -0.30711,-0.84529 -0.4743,-1.7573 -0.4743,-2.7085 0,-4.3838 3.5537,-7.9375 7.9375,-7.9375 2.2005,0 4.1917,0.89548 5.6295,2.3417 0.41436,0.41662 0.78274,0.87929 1.0963,1.3795 0.29645,0.47107 0.54428,0.97582 0.73704,1.5068 0.30718,0.84559 0.47467,1.7579 0.47467,2.7094 z"
       inkscape:connector-curvature="0" />
    <g
       id="g940"
       style="stroke-width:0.019409">
      <path
         id="path930"
         d="M 12.072,3.5469 4.5588,5.5601 C 4.27276,5.636745 4.10523,5.92691 4.18187,6.21296 l 1.3984,5.2188 c 0.076645,0.28604 0.36681,0.45357 0.65286,0.37693 l 7.5074,-2.0116 C 14.02657,9.720445 14.1941,9.43028 14.11746,9.14423 l -1.3984,-5.2188 C 12.648771,3.63769 12.35225,3.47186 12.07256,3.5468 Z"
         inkscape:connector-curvature="0"
         style="fill:#f1f3f7" />
      <rect
         id="rect932"
         height="4.6001"
         width="7.7782998"
         y="7.8600998"
         x="2.9642"
         transform="rotate(-15)"
         style="fill:#fcfcfd" />
      <circle
         id="circle934"
         r="0.17111"
         cy="7.2414999"
         cx="10.572"
         transform="rotate(-15)"
         style="fill:#f0582f" />
      <circle
         id="circle936"
         r="0.17111"
         cy="7.2414999"
         cx="9.9728003"
         transform="rotate(-15)"
         style="fill:#fbd303" />
      <circle
         id="circle938"
         r="0.17111"
         cy="7.2414999"
         cx="9.3738003"
         transform="rotate(-15)"
         style="fill:#6eb1e1" />
    </g>
    <path
       id="path942"
       d="m 3.8982,12.944 2.1121,-0.56594 0.56593,2.1121 -2.1121,0.56593 z"
       inkscape:connector-curvature="0"
       style="opacity:0.1;fill:#ffffff;stroke-width:1.33210003" />
    <path
       id="path944"
       d="M 3.4952,8.2951 3.16345,10.202 C 3.27112,10.09615 3.39531,10.00727 3.52921,9.93546 l 1.3733,3.5991 -0.61124,-3.8042 C 4.44234,9.72581 4.59273,9.741125 4.73592,9.780611 Z m 5.5334,3.8533 c 0.10585,0.10767 0.19473,0.23186 0.26654,0.36576 l -3.7308,1.4086 3.9361,-0.64573 a 1.5205,1.5205 0 0 1 -0.050465,0.44385 l 1.4855,-1.2407 z"
       inkscape:connector-curvature="0"
       style="fill:#ffffff;stroke-width:1.33210003" />
    <path
       id="path946"
       d="m 3.5778,11.225 3.6686,-0.98301 0.98301,3.6686 -3.6686,0.983 z"
       inkscape:connector-curvature="0"
       style="opacity:0.2;fill:none;stroke:#ffffff;stroke-width:0.43731001;stroke-dasharray:0.70486709, 0.70486709;stroke-dashoffset:1" />
  </g>
</svg>
