<?xml version="1.0" encoding="UTF-8" standalone="no"?>
<svg
   xmlns:dc="http://purl.org/dc/elements/1.1/"
   xmlns:cc="http://creativecommons.org/ns#"
   xmlns:rdf="http://www.w3.org/1999/02/22-rdf-syntax-ns#"
   xmlns:svg="http://www.w3.org/2000/svg"
   xmlns="http://www.w3.org/2000/svg"
   xmlns:sodipodi="http://sodipodi.sourceforge.net/DTD/sodipodi-0.dtd"
   xmlns:inkscape="http://www.inkscape.org/namespaces/inkscape"
   width="64"
   height="64"
   version="1"
   id="svg34"
   sodipodi:docname="dbeaver.svg"
   inkscape:version="0.92.5 (6c0c36ef5a, 2020-05-15, custom)">
  <metadata
     id="metadata40">
    <rdf:RDF>
      <cc:Work
         rdf:about="">
        <dc:format>image/svg+xml</dc:format>
        <dc:type
           rdf:resource="http://purl.org/dc/dcmitype/StillImage" />
        <dc:title></dc:title>
      </cc:Work>
    </rdf:RDF>
  </metadata>
  <defs
     id="defs38">
    <style
       id="style847"
       type="text/css" />
    <filter
       color-interpolation-filters="sRGB"
       height="1.048"
       width="1.048"
       y="-.024"
       x="-.024"
       id="filter2761">
      <feGaussianBlur
         id="feGaussianBlur939"
         stdDeviation="0.14552168" />
    </filter>
    <linearGradient
       gradientUnits="userSpaceOnUse"
       gradientTransform="matrix(3.7796,0,0,3.7796,-0.88709547,-6.1860644)"
       y2="2.6243"
       y1="15.576"
       x2="14.217"
       x1="1.3315"
       id="linearGradient1024">
      <stop
         id="stop942"
         offset="0"
         stop-color="#ff7d1e" />
      <stop
         id="stop944"
         offset="1"
         stop-color="#ffa53c" />
    </linearGradient>
    <filter
       color-interpolation-filters="sRGB"
       height="1.048"
       width="1.048"
       y="-.024"
       x="-.024"
       id="filter11290">
      <feGaussianBlur
         id="feGaussianBlur825"
         stdDeviation="0.15875313" />
    </filter>
    <linearGradient
       gradientUnits="userSpaceOnUse"
       gradientTransform="matrix(3.779602,0,0,3.779602,-0.131946,0.0245665)"
       y2="3.7322"
       y1="16.296"
       x2="13.303"
       x1=".73911"
       id="linearGradient1005">
      <stop
         id="stop828"
         offset="0"
         stop-color="#ff7d1e" />
      <stop
         id="stop830"
         offset="1"
         stop-color="#ffa53c" />
    </linearGradient>
  </defs>
  <sodipodi:namedview
     pagecolor="#ffffff"
     bordercolor="#666666"
     borderopacity="1"
     objecttolerance="10"
     gridtolerance="10"
     guidetolerance="10"
     inkscape:pageopacity="0"
     inkscape:pageshadow="2"
     inkscape:window-width="1920"
     inkscape:window-height="1000"
     id="namedview36"
     showgrid="false"
     inkscape:zoom="4"
     inkscape:cx="30.939751"
     inkscape:cy="64.862834"
     inkscape:window-x="0"
     inkscape:window-y="0"
     inkscape:window-maximized="1"
     inkscape:current-layer="svg34" />
  <circle
     style="opacity:0.25;stroke-width:0.14032;filter:url(#filter11290)"
     cx="8.4937"
     cy="8.46"
     r="7.9376998"
     id="circle837"
     transform="matrix(3.779602,0,0,3.779602,-0.10280494,0.02456761)" />
  <path
     style="fill:url(#linearGradient1005);stroke-width:0.11719034"
     inkscape:connector-curvature="0"
     d="m 62.000388,31.999811 c 0,3.596443 -0.63305,7.044801 -1.79395,10.240454 -0.80699,2.221196 -1.8686,4.321219 -3.15193,6.263556 -0.53753,0.816696 -1.11551,1.605387 -1.72901,2.363347 -1.96411,2.425711 -4.29817,4.538168 -6.91857,6.252595 -0.96493,0.631874 -1.96785,1.209851 -3.00614,1.727732 -4.03208,2.017892 -8.58385,3.152983 -13.40096,3.152983 -4.8171,0 -9.368874,-1.13509 -13.400953,-3.153095 C 17.560467,58.329388 16.556378,57.751412 15.591445,57.11965 12.9379,55.382055 10.575913,53.236488 8.59578,50.770676 7.981103,50.006591 7.404298,49.210644 6.866763,48.386578 5.617756,46.476367 4.58309,44.41535 3.792057,42.237166 2.631303,39.042306 1.999392,35.59527 1.999392,32.000113 c 0,-16.569018 13.431571,-30.0005905 30.000586,-30.0005905 8.31702,0 15.84296,3.384558 21.27727,8.8506945 1.56612,1.574657 2.95845,3.323366 4.14358,5.213961 1.12046,1.780457 2.05716,3.688211 2.78572,5.695104 1.16102,3.195994 1.79406,6.644163 1.79406,10.240454 z"
     id="path839" />
  <circle
     style="fill:#5e4aa6"
     cx="-1261.7625"
     cy="-1287.0905"
     r="0"
     id="circle949" />
  <circle
     style="fill:#5e4aa6;fill-rule:evenodd"
     cx="-162.23747"
     cy="-21.59848"
     r="0"
     id="circle951" />
  <path
     style="fill:#ffffff;fill-opacity:1;stroke:none;stroke-width:0.03875182;stroke-opacity:1"
     d="m 36.129505,16.321731 c -0.07145,0.0093 -0.141151,0.03352 -0.207031,0.07227 L 34.041615,17.4897 c -0.03488,0.01938 -0.0647,0.04319 -0.0957,0.07031 -0.22476,0.205383 -0.240511,0.558443 -0.03125,0.783203 l 1.326171,1.441406 c -1.902713,2.840508 -4.438754,8.152622 -5.326171,13.546875 -0.395262,2.410363 -0.461153,4.840286 -0.0039,7.087891 -1.449318,-1.693451 -3.308191,-3.581122 -5.207031,-4.929685 -1.116052,-0.790537 -2.248964,-1.406627 -3.337891,-1.697266 -1.154804,-0.310014 -2.253891,-0.267011 -3.226562,0.291016 -0.492148,0.282888 -0.946559,0.693989 -1.345703,1.259766 -0.63553,0.891292 -1.014946,1.758631 -1.173828,2.591797 -0.329391,1.724454 0.267721,3.270391 1.503906,4.595703 1.174179,1.259434 2.928637,2.322992 4.990234,3.144531 3.332656,1.329187 7.495197,2.048489 11.28125,2.005859 h 0.01172 l 14.53125,-0.496093 c 0.302264,-0.0078 0.54288,-0.262189 0.53125,-0.564453 -0.0078,-0.02713 -0.01183,-0.05884 -0.01953,-0.08984 -0.05813,-0.306139 -0.15929,-0.607861 -0.294922,-0.90625 -0.422395,-0.926169 -1.193501,-1.744397 -2.185547,-2.263672 -0.542525,-0.282888 -1.153688,-0.477151 -1.808594,-0.550781 0.538651,-0.53865 0.998797,-1.14597 1.335938,-1.8125 0.530904,-1.050174 0.771977,-2.240689 0.589844,-3.515625 -0.186009,-1.317562 -0.918202,-2.382732 -1.921875,-3.103516 -0.430145,-0.310014 -0.91032,-0.554133 -1.417969,-0.728516 1.429942,-0.507649 2.452599,-1.119622 2.386719,-2.154296 -0.05813,-0.930045 -0.937396,-1.055402 -2.142579,-1.144532 h 0.267579 c -0.0039,-1.259434 0.759005,-1.991889 1.638671,-2.685547 l 0.05469,1.613282 c 0.0078,0.205384 0.177397,0.363168 0.378906,0.355468 h 0.0039 l 0.705079,-0.02344 c 0.189884,-0.0039 0.341921,-0.14993 0.357421,-0.335938 l 0.40625,-3.240234 c 0.670407,-0.751786 1.154304,-1.704855 1.158204,-3.138672 0,-0.100755 -0.01191,-0.201979 -0.03516,-0.302734 -0.162758,-0.701408 -1.025168,-1.831582 -2.458984,-2.75 -1.379566,-0.883542 -3.313936,-1.6172 -5.685547,-1.625 -0.720784,0 -1.484853,0.06564 -2.27539,0.21289 L 36.72326,16.685014 c -0.01163,-0.031 -0.02551,-0.06275 -0.04102,-0.09375 -0.116255,-0.197632 -0.338389,-0.297502 -0.552735,-0.269533 z"
     id="path925"
     inkscape:connector-curvature="0" />
  <g
     style="fill:#5e4aa6;stroke-width:0.26458001"
     id="g849"
     transform="matrix(3.779602,0,0,3.779602,76.240336,-4.9846825)">
    <circle
       cx="-330.35001"
       cy="-328.38"
       r="0"
       id="circle841" />
    <circle
       cx="-312.10999"
       cy="-326.25"
       r="0"
       id="circle843" />
    <circle
       cx="-306.01999"
       cy="-333.07001"
       r="0"
       id="circle845" />
    <circle
       cx="-308.84"
       cy="-326.01001"
       r="0"
       id="circle847" />
  </g>
</svg>
