<?xml version="1.0" encoding="UTF-8" standalone="no"?>
<svg
   xmlns:dc="http://purl.org/dc/elements/1.1/"
   xmlns:cc="http://creativecommons.org/ns#"
   xmlns:rdf="http://www.w3.org/1999/02/22-rdf-syntax-ns#"
   xmlns:svg="http://www.w3.org/2000/svg"
   xmlns="http://www.w3.org/2000/svg"
   xmlns:sodipodi="http://sodipodi.sourceforge.net/DTD/sodipodi-0.dtd"
   xmlns:inkscape="http://www.inkscape.org/namespaces/inkscape"
   width="64"
   height="64"
   version="1.1"
   viewBox="0 0 16.933 16.933"
   id="svg19"
   sodipodi:docname="desktop-environment-gnome.svg"
   inkscape:version="0.92.5 (6c0c36ef5a, 2020-05-15, custom)">
  <metadata
     id="metadata23">
    <rdf:RDF>
      <cc:Work
         rdf:about="">
        <dc:format>image/svg+xml</dc:format>
        <dc:type
           rdf:resource="http://purl.org/dc/dcmitype/StillImage" />
        <dc:title></dc:title>
      </cc:Work>
    </rdf:RDF>
  </metadata>
  <sodipodi:namedview
     pagecolor="#ffffff"
     bordercolor="#666666"
     borderopacity="1"
     objecttolerance="10"
     gridtolerance="10"
     guidetolerance="10"
     inkscape:pageopacity="0"
     inkscape:pageshadow="2"
     inkscape:window-width="1920"
     inkscape:window-height="1000"
     id="namedview21"
     showgrid="false"
     inkscape:zoom="3.6875"
     inkscape:cx="42.837635"
     inkscape:cy="46.364262"
     inkscape:window-x="0"
     inkscape:window-y="0"
     inkscape:window-maximized="1"
     inkscape:current-layer="svg19" />
  <defs
     id="defs7">
    <linearGradient
       id="b"
       x1="45.628"
       x2="45.628"
       y1="57.955"
       y2="12.461"
       gradientTransform="matrix(0.26458,0,0,0.26458,0,280.07)"
       gradientUnits="userSpaceOnUse">
      <stop
         offset="0"
         id="stop2" />
      <stop
         stop-opacity="0"
         offset="1"
         id="stop4" />
    </linearGradient>
    <filter
       color-interpolation-filters="sRGB"
       height="1.1898"
       width="1.3198"
       y="-.094877"
       x="-.15989"
       id="filter2174">
      <feGaussianBlur
         id="feGaussianBlur832"
         stdDeviation="0.25608494" />
    </filter>
    <filter
       color-interpolation-filters="sRGB"
       height="1.048"
       width="1.048"
       y="-.024"
       x="-.024"
       id="filter2761-36">
      <feGaussianBlur
         id="feGaussianBlur835"
         stdDeviation="0.14552168" />
    </filter>
    <linearGradient
       gradientUnits="userSpaceOnUse"
       gradientTransform="translate(1.1471546,-4.9513365)"
       y2="1.1082"
       y1="15.429"
       x2="15.644"
       x1="1.2573"
       id="linearGradient4673-7">
      <stop
         id="stop838"
         offset="0"
         stop-color="#32dcff" />
      <stop
         id="stop840"
         offset="1"
         stop-color="#3296ff" />
    </linearGradient>
    <style
       id="style824"
       type="text/css" />
    <filter
       color-interpolation-filters="sRGB"
       height="1.048"
       width="1.048"
       y="-.024"
       x="-.024"
       id="filter11290-3">
      <feGaussianBlur
         id="feGaussianBlur826"
         stdDeviation="0.15875313" />
    </filter>
    <linearGradient
       gradientUnits="userSpaceOnUse"
       gradientTransform="translate(-0.034965,0.00655)"
       y2=".64687"
       y1="16.296"
       x2="16.388"
       x1=".73911"
       id="linearGradient1005-6">
      <stop
         id="stop829"
         offset="0"
         stop-color="#00c8ff" />
      <stop
         id="stop831"
         offset="1"
         stop-color="#14a0ff" />
    </linearGradient>
  </defs>
  <circle
     style="opacity:0.25;stroke-width:0.14032;filter:url(#filter11290-3)"
     cx="8.4665003"
     cy="8.4665003"
     r="7.9376998"
     id="circle838" />
  <path
     style="fill:url(#linearGradient1005-6);stroke-width:0.031006"
     inkscape:connector-curvature="0"
     d="m 16.403945,8.46645 c 0,0.95154 -0.16749,1.8639 -0.47464,2.7094 -0.21351,0.58768 -0.49439,1.1433 -0.83393,1.6572 -0.14222,0.21608 -0.29514,0.42475 -0.45746,0.62529 -0.51966,0.64179 -1.1372,1.2007 -1.8305,1.6543 -0.2553,0.16718 -0.52065,0.3201 -0.79536,0.45712 -1.0668,0.53389 -2.2711,0.83421 -3.5456,0.83421 -1.2745,0 -2.4788,-0.30032 -3.5456,-0.83424 -0.27474,-0.13705 -0.5404,-0.28997 -0.7957,-0.45712 -0.70207,-0.45973 -1.327,-1.0274 -1.8509,-1.6798 -0.16263,-0.20216 -0.31524,-0.41275 -0.45746,-0.63078 -0.33046,-0.5054 -0.60421,-1.0507 -0.8135,-1.627 -0.30711,-0.84529 -0.4743,-1.7573 -0.4743,-2.7085 0,-4.3838 3.5537,-7.9375 7.9375,-7.9375 2.2005,0 4.1917,0.89548 5.6295,2.3417 0.41436,0.41662 0.78274,0.87929 1.0963,1.3795 0.29645,0.47107 0.54428,0.97582 0.73704,1.5068 0.30718,0.84559 0.47467,1.7579 0.47467,2.7094 z"
     id="path840" />
  <path
     style="fill:#ffffff;stroke-width:1.09368539"
     inkscape:connector-curvature="0"
     id="path15"
     d="m 11.416647,3.8363828 c -1.8286419,0 -2.1709654,2.777961 -1.142901,2.777961 1.028064,0 2.971543,-2.777961 1.142901,-2.777961 z M 8.514006,4.1513642 C 7.4684428,4.2990118 7.8359211,6.2687392 8.3937006,6.3059245 8.9492928,6.3420161 9.560663,4.0048104 8.514006,4.1513642 Z M 6.6219303,4.7638281 A 0.64089965,0.64089965 0 0 0 6.4502217,4.8075755 C 5.4713732,5.1794285 6.3014804,6.7127755 6.8505105,6.609969 7.3645427,6.512631 7.4236017,4.6861764 6.6230239,4.7649217 Z M 5.3357562,5.9975052 A 0.51950057,0.51950057 0 0 0 5.0524917,6.0784379 C 4.2475392,6.5530974 5.3237257,7.6992797 5.7961978,7.5221027 6.2117982,7.3657056 5.9471264,6.0150042 5.3357562,5.9964115 Z M 9.0892846,6.9238567 C 7.6489009,6.8976083 5.7480756,7.6544386 5.4243447,9.1724739 5.0732717,10.816283 6.8691032,13.096617 8.74368,13.096617 c 0.9219768,0 1.985039,-0.871667 2.184089,-1.975196 0.152023,-0.841044 -1.9117614,-0.503095 -1.8417655,0.0525 0.056872,0.45497 -0.1815518,0.691206 -0.5096574,0.699956 C 8.1279351,11.819192 7.909198,11.559989 7.8490453,11.16845 7.7692063,10.142573 11.003234,9.4098037 10.747311,7.8184914 10.653254,7.2355571 9.9543897,6.9391683 9.0892846,6.9238567 Z" />
  <g
     style="fill:#5e4aa6;stroke-width:0.26458001"
     id="g850"
     transform="translate(21.525,-12.4845)">
    <circle
       cx="-330.35001"
       cy="-328.38"
       r="0"
       id="circle842" />
    <circle
       cx="-330.35001"
       cy="-328.37"
       r="0"
       id="circle844" />
    <circle
       cx="-330.35001"
       cy="-328.37"
       r="0"
       id="circle846" />
    <circle
       cx="-352.63"
       cy="-336.82999"
       r="0"
       id="circle848" />
  </g>
  <g
     style="fill:#5e4aa6;stroke-width:0.26458001"
     transform="translate(-1.175,-20.5857)"
     id="g862">
    <circle
       cx="-330.35001"
       cy="-328.38"
       r="0"
       id="circle854" />
    <circle
       cx="-312.10999"
       cy="-326.25"
       r="0"
       id="circle856" />
    <circle
       cx="-306.01999"
       cy="-333.07001"
       r="0"
       id="circle858" />
    <circle
       cx="-308.84"
       cy="-326.01001"
       r="0"
       id="circle860" />
  </g>
</svg>
