<?xml version="1.0" encoding="UTF-8" standalone="no"?>
<svg
   xmlns:dc="http://purl.org/dc/elements/1.1/"
   xmlns:cc="http://creativecommons.org/ns#"
   xmlns:rdf="http://www.w3.org/1999/02/22-rdf-syntax-ns#"
   xmlns:svg="http://www.w3.org/2000/svg"
   xmlns="http://www.w3.org/2000/svg"
   xmlns:sodipodi="http://sodipodi.sourceforge.net/DTD/sodipodi-0.dtd"
   xmlns:inkscape="http://www.inkscape.org/namespaces/inkscape"
   version="1.1"
   viewBox="0 0 64 64"
   id="svg25"
   sodipodi:docname="desktop-environment-lxqt.svg"
   width="64"
   height="64"
   inkscape:version="1.0.2 (e86c870879, 2021-01-15)">
  <metadata
     id="metadata29">
    <rdf:RDF>
      <cc:Work
         rdf:about="">
        <dc:format>image/svg+xml</dc:format>
        <dc:type
           rdf:resource="http://purl.org/dc/dcmitype/StillImage" />
        <dc:title></dc:title>
      </cc:Work>
    </rdf:RDF>
  </metadata>
  <sodipodi:namedview
     pagecolor="#ffffff"
     bordercolor="#666666"
     borderopacity="1"
     objecttolerance="10"
     gridtolerance="10"
     guidetolerance="10"
     inkscape:pageopacity="0"
     inkscape:pageshadow="2"
     inkscape:window-width="1920"
     inkscape:window-height="992"
     id="namedview27"
     showgrid="false"
     inkscape:zoom="6.1208931"
     inkscape:cx="8.480104"
     inkscape:cy="29.936196"
     inkscape:window-x="0"
     inkscape:window-y="0"
     inkscape:window-maximized="1"
     inkscape:current-layer="svg25"
     inkscape:document-rotation="0" />
  <defs
     id="defs7">
    <linearGradient
       id="bg"
       x2="0"
       y1="1"
       y2="47"
       gradientUnits="userSpaceOnUse">
      <stop
         style="stop-color:#213a47"
         offset="0"
         id="stop2" />
      <stop
         style="stop-color:#1b2f39"
         offset="1"
         id="stop4" />
    </linearGradient>
    <style
       type="text/css"
       id="style856" />
    <filter
       id="filter1057"
       x="-0.027000001"
       y="-0.027000001"
       width="1.054"
       height="1.054"
       color-interpolation-filters="sRGB">
      <feGaussianBlur
         stdDeviation="0.61875"
         id="feGaussianBlur858" />
    </filter>
    <linearGradient
       id="linearGradient1053"
       x1="-127"
       x2="-72"
       y1="60"
       y2="5"
       gradientTransform="translate(131.3928,-11.718568)"
       gradientUnits="userSpaceOnUse">
      <stop
         stop-color="#32d7ff"
         offset="0"
         id="stop861" />
      <stop
         stop-color="#329bff"
         offset="1"
         id="stop863" />
    </linearGradient>
    <style
       type="text/css"
       id="style866" />
    <style
       type="text/css"
       id="style868" />
    <style
       type="text/css"
       id="style870" />
    <style
       type="text/css"
       id="style872" />
    <style
       type="text/css"
       id="style874" />
    <style
       type="text/css"
       id="style876" />
    <style
       type="text/css"
       id="style878" />
    <style
       type="text/css"
       id="style857" />
    <style
       type="text/css"
       id="style859" />
    <style
       type="text/css"
       id="style861" />
    <style
       type="text/css"
       id="style863" />
    <style
       type="text/css"
       id="style865" />
    <style
       type="text/css"
       id="style867" />
    <style
       type="text/css"
       id="style869" />
    <style
       type="text/css"
       id="style871" />
    <style
       type="text/css"
       id="style873" />
    <filter
       id="filter11290"
       x="-.024"
       y="-.024"
       width="1.048"
       height="1.048"
       color-interpolation-filters="sRGB">
      <feGaussianBlur
         stdDeviation="0.15875313"
         id="feGaussianBlur875" />
    </filter>
    <linearGradient
       id="linearGradient1005"
       x1=".8714"
       x2="16.246"
       y1="16.164"
       y2=".78937"
       gradientTransform="matrix(3.7796,0,0,3.7796,-0.13241,0.025278)"
       gradientUnits="userSpaceOnUse">
      <stop
         stop-color="#00c8ff"
         offset="0"
         id="stop878" />
      <stop
         stop-color="#14a0ff"
         offset="1"
         id="stop880" />
    </linearGradient>
  </defs>
  <circle
     transform="matrix(3.7796,0,0,3.7796,-0.10278795,0.02458453)"
     cx="8.4937"
     cy="8.46"
     r="7.9376998"
     filter="url(#filter11290)"
     opacity="0.25"
     stroke-width="0.14032"
     id="circle885" />
  <path
     d="m 62.0004,32.00045 c 0,3.5964 -0.63305,7.0448 -1.794,10.24 -0.80698,2.2212 -1.8686,4.3212 -3.1519,6.2636 -0.53754,0.8167 -1.1155,1.6054 -1.729,2.3633 -1.9641,2.4257 -4.2982,4.5382 -6.9186,6.2526 -0.96493,0.63187 -1.9678,1.2098 -3.0061,1.7277 -4.0321,2.0179 -8.5839,3.153 -13.401,3.153 -4.8171,0 -9.3689,-1.1351 -13.401,-3.1531 -1.0384,-0.518 -2.0425,-1.096 -3.0074,-1.7277 -2.6535,-1.7376 -5.0155,-3.8832 -6.9957,-6.349 -0.61468,-0.76408 -1.1915,-1.56 -1.729,-2.3841 -1.249,-1.9102 -2.2837,-3.9712 -3.0747,-6.1494 -1.1608,-3.1949 -1.7927,-6.6419 -1.7927,-10.237 0,-16.569 13.432,-30.001 30.001,-30.001 8.317,0 15.843,3.3846 21.277,8.8507 1.5661,1.5747 2.9584,3.3234 4.1436,5.214 1.1205,1.7805 2.0572,3.6882 2.7857,5.6951 1.161,3.196 1.7941,6.6442 1.7941,10.24 z"
     fill="url(#linearGradient1005)"
     stroke-width="0.11719"
     id="path887"
     style="fill:url(#linearGradient1005)" />
  <circle
     cx="-1124.8"
     cy="-1279.3"
     r="0"
     fill="#5e4aa6"
     id="circle882" />
  <circle
     cx="-1006.3459"
     cy="-1318.599"
     r="0"
     id="circle884"
     style="fill:#5e4aa6;stroke-width:1.00001" />
  <circle
     cx="93.191803"
     cy="-53.108505"
     r="0"
     fill-rule="evenodd"
     id="circle886"
     style="fill:#5e4aa6;stroke-width:1.00001" />
  <circle
     cx="-927.84369"
     cy="-1390.1091"
     r="0"
     id="circle888"
     style="fill:#5e4aa6;stroke-width:1.00001" />
  <circle
     cx="171.69107"
     cy="-124.58187"
     r="0"
     fill-rule="evenodd"
     id="circle890"
     style="fill:#5e4aa6;stroke-width:1.00001" />
  <g
     id="g975"
     transform="matrix(1.3461538,0,0,1.3461538,-0.38917567,0.42302191)"
     style="fill:#ffffff;fill-opacity:1">
    <path
       d="m 26.5,12 c -2.4853,0 -4.5,2.0147 -4.5,4.5 0,0.84666 0.30718,1.6877 1,2.5 0,0 0.0012,-0.69342 0,-1 0,-2.4853 1.567,-4 3.5,-4 1.213,0 2.5,0.72858 2.9082,2 H 38 V 15.5 L 30.2188,14.0273 C 29.41926,12.8129 28.0652,12 26.5,12 Z"
       style="fill:#ffffff;fill-opacity:1;paint-order:normal"
       id="path21" />
    <path
       d="m 13,14 c -0.64031,0.91229 -1,2 -1,3 0,3 1,4 2.5,5 H 13 c 0,4 3,6 6,6 h 1 V 27.5 C 16.7344,27 16,25 16,24 l 7,1 v -1 c 0,0 -6.0222,-0.97828 -7,-2 -0.62399,-0.65202 -1,-1.3269 -1,-2 v -3 l 9,6 v -1 z m 15,4 v 3 c 1,1 2,2 2,6 0,2.7614 -2.2386,5 -5,5 h -5 v 6 l 2,-4 h 3 c 3.866,0 7,-3.134 7,-7 0,-4 -2,-5.3545 -3,-6.5 V 19 Z"
       style="fill:#ffffff;fill-opacity:1;paint-order:normal"
       id="path23" />
  </g>
  <circle
     cx="-1191.4542"
     cy="-1279.3"
     r="0"
     fill="#5e4aa6"
     id="circle889" />
  <g
     transform="matrix(3.7796,0,0,3.7796,57.175782,-38.184)"
     fill="#5e4aa6"
     stroke-width="0.26458"
     id="g899">
    <circle
       cx="-299.01999"
       cy="-338.76999"
       r="0"
       id="circle891" />
    <circle
       cx="-8.1062002"
       cy="-3.9487"
       r="0"
       fill-rule="evenodd"
       id="circle893" />
    <circle
       cx="-278.25"
       cy="-357.69"
       r="0"
       id="circle895" />
    <circle
       cx="12.663"
       cy="-22.858999"
       r="0"
       fill-rule="evenodd"
       id="circle897" />
  </g>
  <g
     fill="#5e4aa6"
     id="g933"
     transform="translate(-66.654218)">
    <circle
       cx="-1050.3"
       cy="-1279.3"
       r="0"
       id="circle911" />
    <g
       transform="matrix(3.7796,0,0,3.7796,198.32,-38.184)"
       stroke-width="0.26458"
       id="g921">
      <circle
         cx="-299.01999"
         cy="-338.76999"
         r="0"
         id="circle913" />
      <circle
         cx="-8.1062002"
         cy="-3.9487"
         r="0"
         fill-rule="evenodd"
         id="circle915" />
      <circle
         cx="-278.25"
         cy="-357.69"
         r="0"
         id="circle917" />
      <circle
         cx="12.663"
         cy="-22.858999"
         r="0"
         fill-rule="evenodd"
         id="circle919" />
    </g>
    <g
       transform="matrix(3.7796,0,0,3.7796,74.386,0.024585)"
       stroke-width="0.26458"
       id="g931">
      <circle
         cx="-330.35001"
         cy="-328.38"
         r="0"
         id="circle923" />
      <circle
         cx="-312.10999"
         cy="-326.25"
         r="0"
         id="circle925" />
      <circle
         cx="-306.01999"
         cy="-333.07001"
         r="0"
         id="circle927" />
      <circle
         cx="-308.84"
         cy="-326.01001"
         r="0"
         id="circle929" />
    </g>
  </g>
</svg>
