<?xml version="1.0" encoding="UTF-8" standalone="no"?>
<svg
   xmlns:dc="http://purl.org/dc/elements/1.1/"
   xmlns:cc="http://creativecommons.org/ns#"
   xmlns:rdf="http://www.w3.org/1999/02/22-rdf-syntax-ns#"
   xmlns:svg="http://www.w3.org/2000/svg"
   xmlns="http://www.w3.org/2000/svg"
   xmlns:sodipodi="http://sodipodi.sourceforge.net/DTD/sodipodi-0.dtd"
   xmlns:inkscape="http://www.inkscape.org/namespaces/inkscape"
   viewBox="0 0 64 64"
   version="1.1"
   id="svg45"
   sodipodi:docname="desktop-environment-xfce.svg"
   width="64"
   height="64"
   inkscape:version="1.0.2 (e86c870879, 2021-01-15)">
  <metadata
     id="metadata49">
    <rdf:RDF>
      <cc:Work
         rdf:about="">
        <dc:format>image/svg+xml</dc:format>
        <dc:type
           rdf:resource="http://purl.org/dc/dcmitype/StillImage" />
        <dc:title></dc:title>
      </cc:Work>
    </rdf:RDF>
  </metadata>
  <sodipodi:namedview
     pagecolor="#ffffff"
     bordercolor="#666666"
     borderopacity="1"
     objecttolerance="10"
     gridtolerance="10"
     guidetolerance="10"
     inkscape:pageopacity="0"
     inkscape:pageshadow="2"
     inkscape:window-width="1920"
     inkscape:window-height="992"
     id="namedview47"
     showgrid="false"
     inkscape:zoom="4.328125"
     inkscape:cx="28.248487"
     inkscape:cy="31.855924"
     inkscape:window-x="0"
     inkscape:window-y="0"
     inkscape:window-maximized="1"
     inkscape:current-layer="svg45"
     inkscape:document-rotation="0" />
  <defs
     id="defs7">
    <linearGradient
       id="linearGradient3764"
       x1="1"
       x2="47"
       gradientUnits="userSpaceOnUse"
       gradientTransform="rotate(-90,23.999998,24)">
      <stop
         style="stop-color:#285da4;stop-opacity:1"
         id="stop2" />
      <stop
         offset="1"
         style="stop-color:#2c65b5;stop-opacity:1"
         id="stop4" />
    </linearGradient>
    <linearGradient
       id="linearGradient3764-3"
       x1="1"
       x2="47"
       gradientUnits="userSpaceOnUse"
       gradientTransform="rotate(-90,23.999998,24)">
      <stop
         style="stop-color:#642448;stop-opacity:1"
         id="stop2-5" />
      <stop
         offset="1"
         style="stop-color:#722953;stop-opacity:1"
         id="stop4-6" />
    </linearGradient>
    <linearGradient
       id="bg"
       x2="0"
       y1="1"
       y2="47"
       gradientUnits="userSpaceOnUse">
      <stop
         style="stop-color:#213a47"
         offset="0"
         id="stop2-6" />
      <stop
         style="stop-color:#1b2f39"
         offset="1"
         id="stop4-7" />
    </linearGradient>
    <style
       type="text/css"
       id="style856" />
    <filter
       id="filter1057"
       x="-0.027000001"
       y="-0.027000001"
       width="1.054"
       height="1.054"
       color-interpolation-filters="sRGB">
      <feGaussianBlur
         stdDeviation="0.61875"
         id="feGaussianBlur858" />
    </filter>
    <linearGradient
       id="linearGradient1053"
       x1="-127"
       x2="-72"
       y1="60"
       y2="5"
       gradientTransform="translate(132.13136,-17.929005)"
       gradientUnits="userSpaceOnUse">
      <stop
         stop-color="#32d7ff"
         offset="0"
         id="stop861" />
      <stop
         stop-color="#329bff"
         offset="1"
         id="stop863" />
    </linearGradient>
    <style
       type="text/css"
       id="style866" />
    <style
       type="text/css"
       id="style868" />
    <style
       type="text/css"
       id="style870" />
    <style
       type="text/css"
       id="style872" />
    <style
       type="text/css"
       id="style874" />
    <style
       type="text/css"
       id="style876" />
    <style
       type="text/css"
       id="style878" />
    <style
       type="text/css"
       id="style864" />
    <style
       type="text/css"
       id="style866-3" />
    <style
       type="text/css"
       id="style868-6" />
    <style
       type="text/css"
       id="style870-7" />
    <style
       type="text/css"
       id="style872-5" />
    <style
       type="text/css"
       id="style874-3" />
    <style
       type="text/css"
       id="style876-5" />
    <style
       type="text/css"
       id="style878-6" />
    <style
       type="text/css"
       id="style880" />
    <filter
       id="filter11290"
       x="-.024"
       y="-.024"
       width="1.048"
       height="1.048"
       color-interpolation-filters="sRGB">
      <feGaussianBlur
         stdDeviation="0.15875313"
         id="feGaussianBlur882" />
    </filter>
    <linearGradient
       id="linearGradient1005"
       x1=".8714"
       x2="16.246"
       y1="16.164"
       y2=".78937"
       gradientTransform="matrix(3.7796,0,0,3.7796,-0.13241,0.025278)"
       gradientUnits="userSpaceOnUse">
      <stop
         stop-color="#00c8ff"
         offset="0"
         id="stop885" />
      <stop
         stop-color="#14a0ff"
         offset="1"
         id="stop887" />
    </linearGradient>
  </defs>
  <circle
     transform="matrix(3.7796,0,0,3.7796,-0.10278795,0.02458453)"
     cx="8.4937"
     cy="8.46"
     r="7.9376998"
     filter="url(#filter11290)"
     opacity="0.25"
     stroke-width="0.14032"
     id="circle892" />
  <path
     d="m 62.0004,32.00045 c 0,3.5964 -0.63305,7.0448 -1.794,10.24 -0.80698,2.2212 -1.8686,4.3212 -3.1519,6.2636 -0.53754,0.8167 -1.1155,1.6054 -1.729,2.3633 -1.9641,2.4257 -4.2982,4.5382 -6.9186,6.2526 -0.96493,0.63187 -1.9678,1.2098 -3.0061,1.7277 -4.0321,2.0179 -8.5839,3.153 -13.401,3.153 -4.8171,0 -9.3689,-1.1351 -13.401,-3.1531 -1.0384,-0.518 -2.0425,-1.096 -3.0074,-1.7277 -2.6535,-1.7376 -5.0155,-3.8832 -6.9957,-6.349 -0.61468,-0.76408 -1.1915,-1.56 -1.729,-2.3841 -1.249,-1.9102 -2.2837,-3.9712 -3.0747,-6.1494 -1.1608,-3.1949 -1.7927,-6.6419 -1.7927,-10.237 0,-16.569 13.432,-30.001 30.001,-30.001 8.317,0 15.843,3.3846 21.277,8.8507 1.5661,1.5747 2.9584,3.3234 4.1436,5.214 1.1205,1.7805 2.0572,3.6882 2.7857,5.6951 1.161,3.196 1.7941,6.6442 1.7941,10.24 z"
     fill="url(#linearGradient1005)"
     stroke-width="0.11719"
     id="path894"
     style="fill:url(#linearGradient1005)" />
  <circle
     cx="-1124.8"
     cy="-1279.3"
     r="0"
     fill="#5e4aa6"
     id="circle882" />
  <circle
     cx="-1006.3459"
     cy="-1318.599"
     r="0"
     id="circle884"
     style="fill:#5e4aa6;stroke-width:1.00001" />
  <circle
     cx="93.191803"
     cy="-53.108505"
     r="0"
     fill-rule="evenodd"
     id="circle886"
     style="fill:#5e4aa6;stroke-width:1.00001" />
  <circle
     cx="-927.84369"
     cy="-1390.1091"
     r="0"
     id="circle888"
     style="fill:#5e4aa6;stroke-width:1.00001" />
  <circle
     cx="171.69107"
     cy="-124.58187"
     r="0"
     fill-rule="evenodd"
     id="circle890"
     style="fill:#5e4aa6;stroke-width:1.00001" />
  <g
     id="g39"
     transform="matrix(1.2766501,0,0,1.2766501,2.6033707,1.0433951)">
    <g
       id="g37">
      <!-- color: #2c65b5 -->
      <g
         id="g35">
        <path
           d="m 6.281,14.5 c -0.074,0.145 -0.148,0.289 -0.219,0.434 1.125,0.625 4.367,2.254 5.906,3.219 1.945,1.191 4.574,3.621 4.781,4.03 -2.023,3.523 -1.105,6.641 -1.344,6.973 -0.172,0.277 -1.762,2.023 -1.25,2.281 0.508,0.254 1.316,-0.145 1.438,-0.223 0.254,-0.156 0.516,-0.383 0.406,0.066 -0.215,0.918 -1.191,3.125 0.156,2.656 0.164,-0.094 2.332,-2.484 2.594,-2.566 4.313,1.125 9.137,0.609 10.03,0.191 0.465,0.031 1.781,0.859 2.531,1.254 0.75,0.391 2.793,1.371 2.188,-0.41 -0.188,-0.563 -1.531,-2 -1.313,-2.094 0.48,-0.191 1.668,0.496 2.125,0.625 1.367,0.383 1.551,-0.148 0.688,-1.316 -0.852,-1.168 -0.98,-0.988 -1.25,-1.527 -0.211,-0.434 0,-0.914 0.156,-1.031 0.277,-0.211 4.359,-2.477 5.316,-3.344 1.418,-1.289 0,-2.898 -0.348,-3.125 -2.941,-2.117 -5.961,-1.664 -6,-2 -0.02,-0.383 -0.012,-1.488 -0.063,-1.871 -0.293,-2.594 -1.492,-1.941 -1.656,-1.941 -1.199,0.188 -0.758,2.023 -0.25,3.75 0.039,0.441 -0.418,0.246 -0.688,-0.219 -0.922,-2.473 -1.309,-2.43 -1.563,-2.504 -0.246,-0.055 -1.113,0.473 -1.098,1.473 0.004,0.285 0.344,1.645 0.344,2.063 -0.566,0.496 -0.594,1.621 -1.188,2.031 -1.73,0.359 -5.887,-0.855 -6.406,-0.91 -1.797,-0.336 -2.582,1.012 -2.871,0.688 -2.332,-2.672 -5.895,-4.656 -7.438,-5 C 9.397,16.024 7.378,15.133 6.651,14.684 6.534,14.614 6.401,14.563 6.272,14.496 m 32.07,2.344 c -0.563,0.605 -0.465,2.867 -0.348,2.848 0.574,-0.117 0.52,-3.03 0.348,-2.848 m 1.629,0.344 c -0.066,-0.184 -1.547,1.895 -1.285,2.66 0.117,0.332 1.484,-2.078 1.285,-2.66 m -7.691,3.535 c 0.02,-0.02 0.043,0.008 0.066,0.031 0.172,0.57 0.363,1.113 1.496,1.25 0.133,0.016 -0.629,0.461 -1.152,0.188 -0.477,-0.289 -0.52,-1.34 -0.41,-1.469 m 2.938,2.871 c 0.105,-0.016 0.18,-0.012 0.254,0 0.277,0.07 -2.01,1.262 -2.188,1.098 -0.109,-0.105 1.219,-0.965 1.938,-1.098 m 0.594,0.754 c 0.238,0.02 -1.324,1.637 -1.5,1.469 -0.129,-0.117 1.012,-1.508 1.5,-1.469 m 0,0"
           style="fill:#f9f9f9;fill-opacity:1;fill-rule:nonzero;stroke:none"
           id="path33" />
      </g>
    </g>
  </g>
  <circle
     cx="-1217.3344"
     cy="-1279.3"
     r="0"
     fill="#5e4aa6"
     id="circle896" />
  <g
     transform="matrix(3.7796,0,0,3.7796,31.295706,-38.184)"
     fill="#5e4aa6"
     stroke-width="0.26458"
     id="g906">
    <circle
       cx="-299.01999"
       cy="-338.76999"
       r="0"
       id="circle898" />
    <circle
       cx="-8.1062002"
       cy="-3.9487"
       r="0"
       fill-rule="evenodd"
       id="circle900" />
    <circle
       cx="-278.25"
       cy="-357.69"
       r="0"
       id="circle902" />
    <circle
       cx="12.663"
       cy="-22.858999"
       r="0"
       fill-rule="evenodd"
       id="circle904" />
  </g>
  <g
     fill="#5e4aa6"
     id="g940"
     transform="translate(-92.534294)">
    <circle
       cx="-1050.3"
       cy="-1279.3"
       r="0"
       id="circle918" />
    <g
       transform="matrix(3.7796,0,0,3.7796,198.32,-38.184)"
       stroke-width="0.26458"
       id="g928">
      <circle
         cx="-299.01999"
         cy="-338.76999"
         r="0"
         id="circle920" />
      <circle
         cx="-8.1062002"
         cy="-3.9487"
         r="0"
         fill-rule="evenodd"
         id="circle922" />
      <circle
         cx="-278.25"
         cy="-357.69"
         r="0"
         id="circle924" />
      <circle
         cx="12.663"
         cy="-22.858999"
         r="0"
         fill-rule="evenodd"
         id="circle926" />
    </g>
    <g
       transform="matrix(3.7796,0,0,3.7796,74.386,0.024585)"
       stroke-width="0.26458"
       id="g938">
      <circle
         cx="-330.35001"
         cy="-328.38"
         r="0"
         id="circle930" />
      <circle
         cx="-312.10999"
         cy="-326.25"
         r="0"
         id="circle932" />
      <circle
         cx="-306.01999"
         cy="-333.07001"
         r="0"
         id="circle934" />
      <circle
         cx="-308.84"
         cy="-326.01001"
         r="0"
         id="circle936" />
    </g>
  </g>
</svg>
