<?xml version="1.0" encoding="UTF-8"?>
<svg width="64" height="64" version="1.1" xmlns="http://www.w3.org/2000/svg" xmlns:cc="http://creativecommons.org/ns#" xmlns:dc="http://purl.org/dc/elements/1.1/" xmlns:rdf="http://www.w3.org/1999/02/22-rdf-syntax-ns#">
 <metadata>
  <rdf:RDF>
   <cc:Work rdf:about="">
    <dc:format>image/svg+xml</dc:format>
    <dc:type rdf:resource="http://purl.org/dc/dcmitype/StillImage"/>
   </cc:Work>
  </rdf:RDF>
 </metadata>
 <defs>
  <filter id="filter11290-3" x="-.024" y="-.024" width="1.048" height="1.048" color-interpolation-filters="sRGB">
   <feGaussianBlur stdDeviation="0.15875313"/>
  </filter>
  <linearGradient id="linearGradient1307" x1="16.393" x2=".60977" y1=".69761" y2="16.375" gradientTransform="matrix(3.7796 0 0 3.7796 81.255 1.5875)" gradientUnits="userSpaceOnUse">
   <stop stop-color="#ffdc32" offset="0"/>
   <stop stop-color="#ff7832" offset="1"/>
  </linearGradient>
 </defs>
 <g transform="translate(-81.357 -1.563)">
  <circle transform="matrix(3.7796 0 0 3.7796 81.255 1.5875)" cx="8.4937" cy="8.46" r="7.9377" filter="url(#filter11290-3)" opacity=".25" stroke-width=".14032"/>
  <path d="m143.39 33.563c0 3.5964-0.63305 7.0448-1.794 10.24-0.80699 2.2212-1.8686 4.3212-3.1519 6.2636-0.53754 0.8167-1.1155 1.6054-1.729 2.3633-1.9641 2.4257-4.2982 4.5382-6.9186 6.2526-0.96494 0.63187-1.9678 1.2098-3.0062 1.7277-4.0321 2.0179-8.5838 3.153-13.401 3.153-4.8171 0-9.3689-1.1351-13.401-3.1531-1.0384-0.518-2.0425-1.096-3.0074-1.7277-2.6535-1.7376-5.0155-3.8832-6.9957-6.349-0.61468-0.76408-1.1915-1.56-1.729-2.3841-1.249-1.9102-2.2837-3.9712-3.0747-6.1494-1.1608-3.1949-1.7927-6.6419-1.7927-10.237 0-16.569 13.432-30.001 30.001-30.001 8.317 0 15.843 3.3846 21.277 8.8507 1.5661 1.5747 2.9584 3.3234 4.1436 5.214 1.1205 1.7805 2.0572 3.6882 2.7857 5.6951 1.161 3.196 1.7941 6.6442 1.7941 10.24z" fill="url(#linearGradient1307)" stroke-width=".11719"/>
 </g>
 <g transform="matrix(.22999 0 0 .22999 -152.97 -123.8)" fill="#fff" fill-opacity=".85">
  <path d="m878.6 605.07c8.066 8.064-14.297 43.508-18.077 47.29-3.78 3.774-13.383 0.302-21.448-7.764-8.066-8.063-11.541-17.669-7.761-21.448 3.781-3.783 39.22-26.143 47.286-18.078z"/>
  <path d="m765.47 613.6c-12.314-6.987-29.839-14.761-35.414-9.187-5.648 5.647 2.41 23.566 9.47 35.904 6.283-10.924 15.225-20.122 25.944-26.717z"/>
  <path d="m866.3 649.58c1.135 3.848 0.928 7.025-0.908 8.86-4.299 4.298-15.901-0.276-26.362-10.233-0.729-0.653-1.454-1.333-2.167-2.046-3.78-3.784-6.725-7.813-8.607-11.522-3.663-6.572-4.58-12.377-1.81-15.146 1.508-1.508 3.923-1.919 6.868-1.389 1.92-1.214 4.186-2.568 6.674-3.953-10.111-5.273-21.603-8.252-33.799-8.252-40.441 0-73.228 32.781-73.228 73.226 0 40.44 32.786 73.225 73.228 73.225s73.229-32.784 73.229-73.225c0-13.06-3.427-25.308-9.416-35.926-1.295 2.362-2.553 4.526-3.702 6.381z"/>
 </g>
</svg>
