<?xml version="1.0" encoding="UTF-8" standalone="no"?>
<svg
   xmlns:dc="http://purl.org/dc/elements/1.1/"
   xmlns:cc="http://creativecommons.org/ns#"
   xmlns:rdf="http://www.w3.org/1999/02/22-rdf-syntax-ns#"
   xmlns:svg="http://www.w3.org/2000/svg"
   xmlns="http://www.w3.org/2000/svg"
   xmlns:sodipodi="http://sodipodi.sourceforge.net/DTD/sodipodi-0.dtd"
   xmlns:inkscape="http://www.inkscape.org/namespaces/inkscape"
   width="64"
   height="64"
   version="1.1"
   viewBox="0 0 16.933 16.933"
   id="svg8"
   sodipodi:docname="distributor-logo-ubuntu-gnome.svg"
   inkscape:version="1.0.2 (e86c870879, 2021-01-15)">
  <metadata
     id="metadata14">
    <rdf:RDF>
      <cc:Work
         rdf:about="">
        <dc:format>image/svg+xml</dc:format>
        <dc:type
           rdf:resource="http://purl.org/dc/dcmitype/StillImage" />
        <dc:title></dc:title>
      </cc:Work>
    </rdf:RDF>
  </metadata>
  <defs
     id="defs12">
    <style
       type="text/css"
       id="style841" />
    <style
       type="text/css"
       id="style843" />
    <style
       type="text/css"
       id="style845" />
    <filter
       id="filter951"
       x="-.10129"
       y="-.07175"
       width="1.2026"
       height="1.1435"
       color-interpolation-filters="sRGB">
      <feGaussianBlur
         stdDeviation="15.306655"
         id="feGaussianBlur847" />
    </filter>
    <style
       type="text/css"
       id="style850" />
    <filter
       id="filter1057"
       x="-.027"
       y="-.027"
       width="1.054"
       height="1.054"
       color-interpolation-filters="sRGB">
      <feGaussianBlur
         stdDeviation="0.61875"
         id="feGaussianBlur852" />
    </filter>
    <linearGradient
       id="linearGradient1053"
       x1="-127"
       x2="-72"
       y1="60"
       y2="5"
       gradientTransform="matrix(0.26457812,0,0,0.26457812,35.514936,-3.9620525)"
       gradientUnits="userSpaceOnUse">
      <stop
         stop-color="#32d7ff"
         offset="0"
         id="stop855" />
      <stop
         stop-color="#329bff"
         offset="1"
         id="stop857" />
    </linearGradient>
    <style
       type="text/css"
       id="style860" />
    <style
       type="text/css"
       id="style862" />
    <style
       type="text/css"
       id="style864" />
    <style
       type="text/css"
       id="style866" />
    <style
       type="text/css"
       id="style868" />
    <style
       type="text/css"
       id="style870" />
    <style
       type="text/css"
       id="style872" />
    <filter
       id="filter11290"
       x="-.024"
       y="-.024"
       width="1.048"
       height="1.048"
       color-interpolation-filters="sRGB">
      <feGaussianBlur
         stdDeviation="0.15875313"
         id="feGaussianBlur889" />
    </filter>
    <linearGradient
       id="linearGradient1005"
       x1=".8714"
       x2="16.246"
       y1="16.164"
       y2=".78937"
       gradientTransform="translate(-0.0353,0.0065)"
       gradientUnits="userSpaceOnUse">
      <stop
         stop-color="#00c8ff"
         offset="0"
         id="stop892" />
      <stop
         stop-color="#14a0ff"
         offset="1"
         id="stop894" />
    </linearGradient>
  </defs>
  <sodipodi:namedview
     pagecolor="#ffffff"
     bordercolor="#666666"
     borderopacity="1"
     objecttolerance="10"
     gridtolerance="10"
     guidetolerance="10"
     inkscape:pageopacity="0"
     inkscape:pageshadow="2"
     inkscape:window-width="1920"
     inkscape:window-height="942"
     id="namedview10"
     showgrid="false"
     inkscape:zoom="4.2813106"
     inkscape:cx="-18.49627"
     inkscape:cy="25.437774"
     inkscape:window-x="0"
     inkscape:window-y="38"
     inkscape:window-maximized="1"
     inkscape:current-layer="svg8"
     inkscape:document-rotation="0" />
  <circle
     cx="8.4665003"
     cy="8.4665003"
     r="7.9376998"
     filter="url(#filter11290)"
     opacity="0.25"
     stroke-width="0.14032"
     id="circle899" />
  <path
     d="m 16.403945,8.46645 c 0,0.95154 -0.16749,1.8639 -0.47464,2.7094 -0.21351,0.58768 -0.49439,1.1433 -0.83393,1.6572 -0.14222,0.21608 -0.29514,0.42475 -0.45746,0.62529 -0.51966,0.64179 -1.1372,1.2007 -1.8305,1.6543 -0.2553,0.16718 -0.52065,0.3201 -0.79536,0.45712 -1.0668,0.53389 -2.2711,0.83421 -3.5456,0.83421 -1.2745,0 -2.4788,-0.30032 -3.5456,-0.83424 -0.27474,-0.13705 -0.5404,-0.28997 -0.7957,-0.45712 -0.70207,-0.45973 -1.327,-1.0274 -1.8509,-1.6798 -0.16263,-0.20216 -0.31524,-0.41275 -0.45746,-0.63078 -0.33046,-0.5054 -0.60421,-1.0507 -0.8135,-1.627 -0.30711,-0.84529 -0.4743,-1.7573 -0.4743,-2.7085 0,-4.3838 3.5537,-7.9375 7.9375,-7.9375 2.2005,0 4.1917,0.89548 5.6295,2.3417 0.41436,0.41662 0.78274,0.87929 1.0963,1.3795 0.29645,0.47107 0.54428,0.97582 0.73704,1.5068 0.30718,0.84559 0.47467,1.7579 0.47467,2.7094 z"
     fill="url(#linearGradient1005)"
     stroke-width="0.031006"
     id="path901"
     style="fill:url(#linearGradient1005)" />
  <path
     d="M7.648 4.154a12.69 12.69 0 0 0-.776.517c-.31.218-.639.502-.989.852-.304.304-.517.603-.639.897-.116.3-.157.594-.121.883.035.289.134.57.296.844a4.3 4.3 0 0 0 .654.821l2.221 2.22.708-.706-2.07-2.07c-.48-.48-.75-.902-.805-1.262-.056-.36.096-.72.456-1.08.076-.076.157-.152.243-.228l.244-.213a5.34 5.34 0 0 0 .213-.167.988.988 0 0 1 .16-.099l4.55 4.55.707-.707zM7.428 6.4l-.708.708 3.34 3.338a.985.985 0 0 1-.1.16 5.38 5.38 0 0 0-.167.213l-.213.243a5.362 5.362 0 0 1-.228.244c-.36.36-.72.512-1.08.456-.36-.056-.781-.324-1.263-.806L4.941 8.888l-.708.708 2.221 2.22a4.3 4.3 0 0 0 .822.654c.273.163.555.262.844.297.289.036.583-.005.882-.122.294-.121.593-.334.897-.638.35-.35.634-.68.852-.99.223-.314.396-.572.517-.775z"
     fill="#fff"
     id="path6" />
  <g
     fill="#5e4aa6"
     id="g900"
     transform="matrix(0.26457812,0,0,0.26457812,-24.947812,2.4475832e-8)">
    <circle
       cx="-1202"
       cy="-1306.3"
       r="0"
       id="circle876" />
    <g
       transform="matrix(3.7796,0,0,3.7796,46.634,-65.215)"
       stroke-width="0.26458"
       id="g886">
      <circle
         cx="-299.01999"
         cy="-338.76999"
         r="0"
         id="circle878" />
      <circle
         cx="-8.1062002"
         cy="-3.9487"
         r="0"
         fill-rule="evenodd"
         id="circle880" />
      <circle
         cx="-278.25"
         cy="-357.69"
         r="0"
         id="circle882" />
      <circle
         cx="12.663"
         cy="-22.858999"
         r="0"
         fill-rule="evenodd"
         id="circle884" />
    </g>
    <circle
       cx="-1124.8"
       cy="-1279.3"
       r="0"
       id="circle888" />
    <g
       id="g898">
      <circle
         cx="-1006.3"
         cy="-1318.6"
         r="0"
         id="circle890" />
      <circle
         cx="93.192001"
         cy="-53.109001"
         r="0"
         fill-rule="evenodd"
         id="circle892" />
      <circle
         cx="-927.84003"
         cy="-1390.1"
         r="0"
         id="circle894" />
      <circle
         cx="171.69"
         cy="-124.58"
         r="0"
         fill-rule="evenodd"
         id="circle896" />
    </g>
  </g>
  <text
     x="-26.250616"
     y="4.3444581"
     id="text908"
     style="font-size:3.17494px;stroke-width:0.264578"><tspan
       x="-26.250616"
       y="4.3444581"
       id="tspan906"
       style="stroke-width:0.264578" /></text>
  <g
     fill="#5e4aa6"
     id="g952"
     transform="matrix(0.26457812,0,0,0.26457812,-24.947812,2.4475832e-8)">
    <g
       transform="matrix(3.7796,0,0,3.7796,0.019246,-0.0012424)"
       stroke-width="0.26458"
       id="g918">
      <circle
         cx="-330.35001"
         cy="-328.38"
         r="0"
         id="circle910" />
      <circle
         cx="-39.433998"
         cy="6.4400001"
         r="0"
         fill-rule="evenodd"
         id="circle912" />
      <circle
         cx="-330.38"
         cy="-328.5"
         r="0"
         id="circle914" />
      <circle
         cx="-301.70001"
         cy="-344.42999"
         r="0"
         id="circle916" />
    </g>
    <circle
       cx="-1274.8"
       cy="-1318.1"
       r="0"
       id="circle920" />
    <g
       transform="matrix(3.7796,0,0,3.7796,-112.84,-73.605)"
       image-rendering="optimizeSpeed"
       stroke-width="0.26458"
       id="g930">
      <circle
         cx="-330.35001"
         cy="-328.38"
         r="0"
         id="circle922" />
      <circle
         cx="-312.10999"
         cy="-326.25"
         r="0"
         id="circle924" />
      <circle
         cx="-306.01999"
         cy="-333.07001"
         r="0"
         id="circle926" />
      <circle
         cx="-308.84"
         cy="-326.01001"
         r="0"
         id="circle928" />
    </g>
    <g
       image-rendering="optimizeSpeed"
       id="g938">
      <circle
         cx="-1160"
         cy="-1257.6"
         r="0"
         id="circle932" />
      <circle
         cx="-1160"
         cy="-1257.6"
         r="0"
         id="circle934" />
      <circle
         cx="-1244.2"
         cy="-1289.6"
         r="0"
         id="circle936" />
    </g>
    <circle
       cx="-1124.8"
       cy="-1279.3"
       r="0"
       image-rendering="optimizeSpeed"
       id="circle940" />
    <g
       transform="matrix(3.7796,0,0,3.7796,123.83,-38.184)"
       image-rendering="optimizeSpeed"
       stroke-width="0.26458"
       id="g950">
      <circle
         cx="-299.01999"
         cy="-338.76999"
         r="0"
         id="circle942" />
      <circle
         cx="-8.1062002"
         cy="-3.9487"
         r="0"
         fill-rule="evenodd"
         id="circle944" />
      <circle
         cx="-278.25"
         cy="-357.69"
         r="0"
         id="circle946" />
      <circle
         cx="12.663"
         cy="-22.858999"
         r="0"
         fill-rule="evenodd"
         id="circle948" />
    </g>
  </g>
  <g
     transform="translate(-17.146517,0.0065001)"
     fill="#5e4aa6"
     stroke-width="0.26458"
     id="g911">
    <circle
       cx="-330.35001"
       cy="-328.38"
       r="0"
       id="circle903" />
    <circle
       cx="-312.10999"
       cy="-326.25"
       r="0"
       id="circle905" />
    <circle
       cx="-306.01999"
       cy="-333.07001"
       r="0"
       id="circle907" />
    <circle
       cx="-308.84"
       cy="-326.01001"
       r="0"
       id="circle909" />
  </g>
</svg>
