<?xml version="1.0" encoding="UTF-8" standalone="no"?>
<svg
   xmlns:dc="http://purl.org/dc/elements/1.1/"
   xmlns:cc="http://creativecommons.org/ns#"
   xmlns:rdf="http://www.w3.org/1999/02/22-rdf-syntax-ns#"
   xmlns:svg="http://www.w3.org/2000/svg"
   xmlns="http://www.w3.org/2000/svg"
   xmlns:xlink="http://www.w3.org/1999/xlink"
   xmlns:sodipodi="http://sodipodi.sourceforge.net/DTD/sodipodi-0.dtd"
   xmlns:inkscape="http://www.inkscape.org/namespaces/inkscape"
   width="64"
   height="64"
   version="1.1"
   viewBox="0 0 16.933 16.933"
   id="svg8"
   sodipodi:docname="distributor-logo-ubuntu-mate.svg"
   inkscape:version="1.0.2 (e86c870879, 2021-01-15)">
  <metadata
     id="metadata14">
    <rdf:RDF>
      <cc:Work
         rdf:about="">
        <dc:format>image/svg+xml</dc:format>
        <dc:type
           rdf:resource="http://purl.org/dc/dcmitype/StillImage" />
        <dc:title></dc:title>
      </cc:Work>
    </rdf:RDF>
  </metadata>
  <defs
     id="defs12">
    <style
       id="style4"
       type="text/css" />
    <filter
       color-interpolation-filters="sRGB"
       height="1.048"
       width="1.048"
       y="-.024"
       x="-.024"
       id="filter2761">
      <feGaussianBlur
         id="feGaussianBlur6"
         stdDeviation="0.14552168" />
    </filter>
    <linearGradient
       gradientUnits="userSpaceOnUse"
       gradientTransform="matrix(3.7796,0,0,3.7796,101.69,7.5815)"
       y2="1.1082"
       y1="15.429"
       x2="15.644"
       x1="1.2573"
       id="linearGradient4673">
      <stop
         id="stop9"
         offset="0"
         stop-color="#8cd750" />
      <stop
         id="stop11"
         offset=".47728"
         stop-color="#7dcd32" />
      <stop
         id="stop13"
         offset="1"
         stop-color="#87d241" />
    </linearGradient>
    <linearGradient
       id="linearGradient1057">
      <stop
         id="stop4"
         offset="0"
         stop-color="#fff" />
      <stop
         id="stop6"
         offset="1"
         stop-opacity="0"
         stop-color="#fff" />
    </linearGradient>
    <linearGradient
       gradientUnits="userSpaceOnUse"
       gradientTransform="matrix(1.5625,0,0,1.5625,0.40633,-5.1891)"
       y2="52.847"
       y1="27.545"
       x2="34.999"
       x1="34.999"
       id="linearGradient982">
      <stop
         id="stop9-6"
         offset="0"
         stop-color="#32b4ff" />
      <stop
         id="stop11-7"
         offset="1"
         stop-color="#3287ff" />
    </linearGradient>
    <style
       id="style14"
       type="text/css" />
    <style
       id="style16"
       type="text/css" />
    <linearGradient
       gradientUnits="userSpaceOnUse"
       gradientTransform="matrix(1.5625,0,0,1.5625,-9.2253,1.3231)"
       y2="43.681"
       y1="18.052"
       x2="21.314"
       x1="21.314"
       id="linearGradient1047">
      <stop
         id="stop18"
         offset="0"
         stop-color="#14dc78" />
      <stop
         id="stop20"
         offset="1"
         stop-color="#14a03c" />
    </linearGradient>
    <linearGradient
       gradientUnits="userSpaceOnUse"
       gradientTransform="matrix(1.5625,0,0,1.5625,-8.1072,-10.908)"
       y2="37.368"
       y1="12.316"
       x2="41.729"
       x1="41.729"
       id="linearGradient1049">
      <stop
         id="stop23"
         offset="0"
         stop-color="#ff3c64" />
      <stop
         id="stop25"
         offset="1"
         stop-color="#ff4628" />
    </linearGradient>
    <linearGradient
       xlink:href="#linearGradient1057"
       gradientUnits="userSpaceOnUse"
       gradientTransform="matrix(1,0,0,1.2271,0.20646,-10.975)"
       y2="39.768"
       y1="32.234"
       x2="34.427"
       x1="34.427"
       id="linearGradient1059" />
    <linearGradient
       xlink:href="#linearGradient1057"
       gradientUnits="userSpaceOnUse"
       gradientTransform="matrix(1,0,0,1.2271,-12.55,-19.793)"
       y2="39.768"
       y1="32.234"
       x2="34.427"
       x1="34.427"
       id="linearGradient1063" />
    <linearGradient
       xlink:href="#linearGradient1057"
       gradientUnits="userSpaceOnUse"
       gradientTransform="matrix(1,0,0,1.2271,5.7554,-25.761)"
       y2="39.768"
       y1="32.234"
       x2="34.427"
       x1="34.427"
       id="linearGradient1067" />
    <filter
       color-interpolation-filters="sRGB"
       height="1.048"
       width="1.048"
       y="-.024"
       x="-.024"
       id="filter2761-5">
      <feGaussianBlur
         id="feGaussianBlur31"
         stdDeviation="0.14552168" />
    </filter>
    <linearGradient
       gradientUnits="userSpaceOnUse"
       gradientTransform="matrix(3.7796,0,0,3.7796,72.4059,0.53085)"
       y2="1.17"
       y1="15.576"
       x2="15.65"
       x1="1.3315"
       id="linearGradient1024">
      <stop
         id="stop34"
         offset="0"
         stop-color="#dddfe1" />
      <stop
         id="stop36"
         offset="1"
         stop-opacity=".99608"
         stop-color="#f3f4f6" />
    </linearGradient>
    <filter
       color-interpolation-filters="sRGB"
       height="1.048"
       width="1.048"
       y="-.024"
       x="-.024"
       id="filter2761-3">
      <feGaussianBlur
         id="feGaussianBlur2"
         stdDeviation="0.14552168" />
    </filter>
    <linearGradient
       gradientUnits="userSpaceOnUse"
       gradientTransform="translate(0 -.07421)"
       y2="1.17"
       y1="15.576"
       x2="15.65"
       x1="1.3315"
       id="linearGradient1024-6">
      <stop
         id="stop5"
         offset="0"
         stop-color="#dddfe1" />
      <stop
         id="stop7"
         offset="1"
         stop-opacity=".99608"
         stop-color="#f3f4f6" />
    </linearGradient>
    <style
       type="text/css"
       id="style882" />
    <filter
       id="filter11290"
       x="-.024"
       y="-.024"
       width="1.048"
       height="1.048"
       color-interpolation-filters="sRGB">
      <feGaussianBlur
         stdDeviation="0.15875313"
         id="feGaussianBlur884" />
    </filter>
    <linearGradient
       id="linearGradient1005"
       x1=".73911"
       x2="16.388"
       y1="16.296"
       y2=".64687"
       gradientTransform="translate(-0.0352127,0.006569)"
       gradientUnits="userSpaceOnUse">
      <stop
         stop-color="#8cd750"
         offset="0"
         id="stop887" />
      <stop
         stop-color="#7dcd32"
         offset=".48311"
         id="stop889" />
      <stop
         stop-color="#87d241"
         offset="1"
         id="stop891" />
    </linearGradient>
    <style
       type="text/css"
       id="style894" />
    <style
       type="text/css"
       id="style896" />
  </defs>
  <sodipodi:namedview
     pagecolor="#ffffff"
     bordercolor="#666666"
     borderopacity="1"
     objecttolerance="10"
     gridtolerance="10"
     guidetolerance="10"
     inkscape:pageopacity="0"
     inkscape:pageshadow="2"
     inkscape:window-width="1920"
     inkscape:window-height="942"
     id="namedview10"
     showgrid="false"
     inkscape:zoom="6.0546875"
     inkscape:cx="-2.7362105"
     inkscape:cy="39.753246"
     inkscape:window-x="0"
     inkscape:window-y="38"
     inkscape:window-maximized="1"
     inkscape:current-layer="svg8"
     inkscape:document-rotation="0" />
  <circle
     cx="8.4665003"
     cy="8.4665003"
     r="7.9376998"
     filter="url(#filter11290)"
     opacity="0.25"
     stroke-width="0.14032"
     id="circle910" />
  <path
     d="m 16.403949,8.466619 c 0,0.9515287 -0.167488,1.8639 -0.474653,2.70928 -0.213509,0.587681 -0.494391,1.143295 -0.833924,1.657212 -0.142221,0.216081 -0.295137,0.424753 -0.457455,0.625277 -0.519658,0.641787 -1.13721,1.200709 -1.83051,1.654301 -0.2553,0.167179 -0.520637,0.320113 -0.795349,0.457112 -1.066805,0.533892 -2.2711117,0.834215 -3.5456107,0.834215 -1.2745,0 -2.478806,-0.300323 -3.545612,-0.834241 -0.274738,-0.137052 -0.540401,-0.289978 -0.795692,-0.457112 -0.702058,-0.459731 -1.326992,-1.02741 -1.850909,-1.679807 -0.162631,-0.202158 -0.315245,-0.412741 -0.457456,-0.63078 -0.330458,-0.505397 -0.604217,-1.050693 -0.813498,-1.626997 -0.307122,-0.845301 -0.474309,-1.7573017 -0.474309,-2.7084865 0,-4.3837948 3.553813,-7.93760818 7.937608,-7.93760818 2.2004957,0 4.1917107,0.89549118 5.6294287,2.34170158 0.414356,0.4166312 0.782728,0.8792989 1.096306,1.3795103 0.29646,0.4710814 0.54429,0.9758171 0.737035,1.5067989 0.307175,0.8455917 0.47468,1.7579099 0.47468,2.7092799 z"
     fill="url(#linearGradient1005)"
     stroke-width="0.0310059"
     id="path912"
     style="fill:url(#linearGradient1005)" />
  <path
     d="M9.525 4.233v2.54l2.117-1.27zm-.847.424A3.81 3.81 0 0 0 5.12 7.108l.372.223A3.387 3.387 0 0 1 8.678 5.08a3.387 3.387 0 0 1 .424.03v-.425a3.81 3.81 0 0 0-.424-.028zm0 1.27a2.54 2.54 0 0 0-2.444 1.85l.38.227A2.117 2.117 0 0 1 8.679 6.35a2.117 2.117 0 0 1 .424.043v-.43a2.54 2.54 0 0 0-.424-.036zm2.921.095l-.37.223a3.387 3.387 0 0 1 .836 2.222 3.387 3.387 0 0 1-.834 2.223l.366.22a3.81 3.81 0 0 0 .891-2.443 3.81 3.81 0 0 0-.889-2.445zm-1.11.666l-.376.226a2.117 2.117 0 0 1 .682 1.553 2.117 2.117 0 0 1-.681 1.552l.376.227a2.54 2.54 0 0 0 .728-1.78 2.54 2.54 0 0 0-.729-1.778zm-6.044.509v2.54l2.117-1.27zm2.17 1.731l-.38.227a2.54 2.54 0 0 0 2.443 1.852 2.54 2.54 0 0 0 .424-.038v-.43a2.117 2.117 0 0 1-.424.044 2.117 2.117 0 0 1-2.063-1.655zm-1.124.675l-.368.22a3.81 3.81 0 0 0 3.555 2.454 3.81 3.81 0 0 0 .424-.026v-.428a3.387 3.387 0 0 1-.424.03 3.387 3.387 0 0 1-3.187-2.25zm4.034.557v2.54l2.117-1.27z"
     fill="#fff"
     id="path6" />
  <g
     id="g46"
     stroke-width="0.26458"
     fill="#5e4aa6"
     transform="translate(11.057108,1.8719433)">
    <circle
       id="circle38"
       r="0"
       cy="-328.38"
       cx="-330.35001" />
    <circle
       id="circle40"
       r="0"
       cy="-326.25"
       cx="-312.10999" />
    <circle
       id="circle42"
       r="0"
       cy="-333.07001"
       cx="-306.01999" />
    <circle
       id="circle44"
       r="0"
       cy="-326.01001"
       cx="-308.84" />
  </g>
  <circle
     cx="-327.5"
     cy="-328.50018"
     r="0"
     fill="#5e4aa6"
     id="circle41"
     style="stroke-width:0.264578" />
  <circle
     cx="-36.583149"
     cy="6.311511"
     r="0"
     fill="#5e4aa6"
     fill-rule="evenodd"
     id="circle43"
     style="stroke-width:0.264578" />
  <g
     transform="translate(5.9536892,1.8719476)"
     fill="#5e4aa6"
     stroke-width="0.26458"
     id="g908">
    <circle
       cx="-330.35001"
       cy="-328.38"
       r="0"
       id="circle900" />
    <circle
       cx="-312.10999"
       cy="-326.25"
       r="0"
       id="circle902" />
    <circle
       cx="-306.01999"
       cy="-333.07001"
       r="0"
       id="circle904" />
    <circle
       cx="-308.84"
       cy="-326.01001"
       r="0"
       id="circle906" />
  </g>
  <g
     transform="translate(-20.952003,0.0065046)"
     fill="#5e4aa6"
     stroke-width="0.26458"
     id="g922">
    <circle
       cx="-330.35001"
       cy="-328.38"
       r="0"
       id="circle914" />
    <circle
       cx="-312.10999"
       cy="-326.25"
       r="0"
       id="circle916" />
    <circle
       cx="-306.01999"
       cy="-333.07001"
       r="0"
       id="circle918" />
    <circle
       cx="-308.84"
       cy="-326.01001"
       r="0"
       id="circle920" />
  </g>
</svg>
