<?xml version="1.0" encoding="UTF-8" standalone="no"?>
<svg
   xmlns:dc="http://purl.org/dc/elements/1.1/"
   xmlns:cc="http://creativecommons.org/ns#"
   xmlns:rdf="http://www.w3.org/1999/02/22-rdf-syntax-ns#"
   xmlns:svg="http://www.w3.org/2000/svg"
   xmlns="http://www.w3.org/2000/svg"
   xmlns:sodipodi="http://sodipodi.sourceforge.net/DTD/sodipodi-0.dtd"
   xmlns:inkscape="http://www.inkscape.org/namespaces/inkscape"
   inkscape:version="1.0 (4035a4fb49, 2020-05-01)"
   sodipodi:docname="distributor-logo-linux-mint.svg"
   id="svg17"
   viewBox="0 0 16.933 16.933"
   version="1.1"
   height="64"
   width="64">
  <metadata
     id="metadata21">
    <rdf:RDF>
      <cc:Work
         rdf:about="">
        <dc:format>image/svg+xml</dc:format>
        <dc:type
           rdf:resource="http://purl.org/dc/dcmitype/StillImage" />
        <dc:title></dc:title>
      </cc:Work>
    </rdf:RDF>
  </metadata>
  <sodipodi:namedview
     inkscape:current-layer="svg17"
     inkscape:window-maximized="1"
     inkscape:window-y="36"
     inkscape:window-x="0"
     inkscape:cy="7.3328061"
     inkscape:cx="-28.886683"
     inkscape:zoom="3.1054687"
     showgrid="false"
     id="namedview19"
     inkscape:window-height="964"
     inkscape:window-width="1920"
     inkscape:pageshadow="2"
     inkscape:pageopacity="0"
     guidetolerance="10"
     gridtolerance="10"
     objecttolerance="10"
     borderopacity="1"
     bordercolor="#666666"
     pagecolor="#ffffff"
     inkscape:document-rotation="0" />
  <defs
     id="defs7">
    <linearGradient
       gradientUnits="userSpaceOnUse"
       gradientTransform="matrix(0.26458,0,0,0.26458,0,280.07)"
       y2="12.461"
       y1="57.955"
       x2="45.628"
       x1="45.628"
       id="b">
      <stop
         id="stop2"
         offset="0" />
      <stop
         id="stop4"
         offset="1"
         stop-opacity="0" />
    </linearGradient>
    <linearGradient
       id="f-5"
       x1="-6.1472"
       x2="-6.1472"
       y1="-137.82"
       y2="-100.78"
       gradientTransform="matrix(0.53032038,0,0,0.53032038,12.404992,66.502693)"
       gradientUnits="userSpaceOnUse">
      <stop
         stop-color="#14dc78"
         offset="0"
         id="stop848" />
      <stop
         stop-color="#14a03c"
         offset="1"
         id="stop850" />
    </linearGradient>
    <style
       type="text/css"
       id="style4" />
    <style
       type="text/css"
       id="style6" />
    <style
       type="text/css"
       id="style8" />
    <filter
       id="filter2761"
       x="-.024"
       y="-.024"
       width="1.048"
       height="1.048"
       color-interpolation-filters="sRGB">
      <feGaussianBlur
         stdDeviation="0.14552168"
         id="feGaussianBlur10" />
    </filter>
    <linearGradient
       id="linearGradient1024-6"
       x1="1.3315"
       x2="15.65"
       y1="15.576"
       y2="1.17"
       gradientTransform="matrix(3.7796,0,0,3.7796,111.78704,0.53107)"
       gradientUnits="userSpaceOnUse">
      <stop
         stop-color="#00dc96"
         offset="0"
         id="stop13" />
      <stop
         stop-color="#14d29b"
         offset="1"
         id="stop15" />
    </linearGradient>
    <linearGradient
       id="b-3"
       x1="45.628"
       x2="45.628"
       y1="57.955"
       y2="12.461"
       gradientTransform="matrix(0.27476,0,0,0.27476,-24.952118,-0.32515)"
       gradientUnits="userSpaceOnUse">
      <stop
         offset="0"
         id="stop2-6" />
      <stop
         stop-opacity="0"
         offset="1"
         id="stop4-7" />
    </linearGradient>
    <style
       id="style872"
       type="text/css" />
    <style
       id="style874"
       type="text/css" />
    <style
       id="style876"
       type="text/css" />
    <filter
       color-interpolation-filters="sRGB"
       height="1.048"
       width="1.048"
       y="-.024"
       x="-.024"
       id="filter2761-3">
      <feGaussianBlur
         id="feGaussianBlur878"
         stdDeviation="0.14552168" />
    </filter>
    <linearGradient
       gradientUnits="userSpaceOnUse"
       gradientTransform="matrix(3.7796,0,0,3.7796,-0.0020773,0.53047)"
       y2="1.17"
       y1="15.576"
       x2="15.65"
       x1="1.3315"
       id="linearGradient1024-6-6">
      <stop
         id="stop881"
         offset="0"
         stop-color="#00dc96" />
      <stop
         id="stop883"
         offset="1"
         stop-color="#14d29b" />
    </linearGradient>
    <style
       type="text/css"
       id="style893" />
    <filter
       id="filter11290"
       x="-.024"
       y="-.024"
       width="1.048"
       height="1.048"
       color-interpolation-filters="sRGB">
      <feGaussianBlur
         stdDeviation="0.15875313"
         id="feGaussianBlur895" />
    </filter>
    <linearGradient
       id="linearGradient1005"
       x1=".73911"
       x2="16.388"
       y1="16.296"
       y2=".64687"
       gradientTransform="translate(-0.0352127,0.0065693)"
       gradientUnits="userSpaceOnUse">
      <stop
         stop-color="#00dc96"
         offset="0"
         id="stop898" />
      <stop
         stop-color="#14d29b"
         offset="1"
         id="stop900" />
    </linearGradient>
    <style
       type="text/css"
       id="style903" />
    <style
       type="text/css"
       id="style905" />
    <style
       type="text/css"
       id="style907" />
  </defs>
  <circle
     id="circle931"
     stroke-width="0.14032"
     opacity="0.25"
     filter="url(#filter11290)"
     r="7.9376998"
     cy="8.4665003"
     cx="8.4665003" />
  <path
     id="path933"
     stroke-width="0.0310059"
     fill="url(#linearGradient1005)"
     d="m 16.403949,8.4666191 c 0,0.9515288 -0.167488,1.8638999 -0.474653,2.7092799 -0.213509,0.587681 -0.494391,1.143295 -0.833924,1.657212 -0.142221,0.216081 -0.295137,0.424753 -0.457455,0.625277 -0.519658,0.641787 -1.13721,1.200708 -1.830511,1.654301 -0.255299,0.167179 -0.520636,0.320113 -0.795348,0.457112 -1.066805,0.533892 -2.2711117,0.834215 -3.5456107,0.834215 -1.2745,0 -2.478806,-0.300323 -3.545612,-0.834242 -0.274738,-0.137051 -0.540401,-0.289977 -0.795692,-0.457111 -0.702058,-0.459731 -1.326992,-1.02741 -1.850909,-1.679807 -0.162631,-0.202159 -0.315245,-0.412742 -0.457456,-0.63078 -0.330458,-0.505398 -0.604217,-1.050693 -0.813498,-1.626997 -0.307122,-0.845301 -0.474309,-1.7573015 -0.474309,-2.7084863 0,-4.3837949 3.553813,-7.9376084 7.937608,-7.9376084 2.2004957,0 4.1917107,0.8954913 5.6294287,2.3417018 0.414356,0.4166311 0.782728,0.8792989 1.096306,1.3795103 0.29646,0.4710813 0.54429,0.975817 0.737035,1.5067988 0.307175,0.8455917 0.47468,1.75791 0.47468,2.70928 z"
     style="fill:url(#linearGradient1005)" />
  <circle
     style="stroke-width:0.264578"
     id="circle855"
     fill="#5e4aa6"
     r="0"
     cy="-328.50018"
     cx="-330.37869" />
  <g
     transform="scale(0.26457812)"
     id="g867"
     fill="#5e4aa6">
    <circle
       id="circle861"
       fill-rule="evenodd"
       r="0"
       cy="23.855"
       cx="-149.14999" />
    <circle
       id="circle863"
       r="0"
       cy="-1256.6"
       cx="-1150.9" />
    <circle
       id="circle865"
       fill-rule="evenodd"
       r="0"
       cy="8.8744001"
       cx="-51.327" />
  </g>
  <path
     d="m 4.233,4.6715 v 2.426 h 0.999 v 0.487 l 10e-4,1.91 c 0,1.573 1.366,2.767 2.94,2.767 H 12.7 v -4.802 c 0,-1.575 -1.365,-2.767 -2.94,-2.767 L 8.443,4.6895 Z m 0.643,0.645 3.565,0.016 v 0.003 H 9.76 c 1.27,0 2.3,0.951 2.3,2.125 v 3.513 c 0,0.39 -0.352,0.645 -0.753,0.645 H 8.174 c -1.269,0 -2.298,-0.951 -2.298,-2.125 L 5.873,7.0855 A 0.635,0.635 0 0 0 5.276,6.4565 h -0.4 z m 1.615,0.714 v 3.49 c 0,0.37 0.135,0.695 0.399,0.957 0.225,0.223 0.496,0.367 0.8,0.4 h 0.861 v -0.685 l -0.74,-0.003 c -0.358,0 -0.666,-0.35 -0.666,-0.799 v -3.36 z m 2.468,0.574 c -0.298,0 -0.562,0.11 -0.775,0.325 a 1.087,1.087 0 0 0 -0.323,0.784 v 1.526 h 0.692 v -1.526 c 0,-0.116 0.038,-0.207 0.12,-0.29 a 0.375,0.375 0 0 1 0.286,-0.122 c 0.116,0 0.203,0.038 0.286,0.122 0.083,0.083 0.12,0.174 0.12,0.29 v 1.526 h 0.693 v -1.526 c 0,-0.116 0.038,-0.207 0.12,-0.29 a 0.374,0.374 0 0 1 0.286,-0.122 c 0.114,0 0.202,0.038 0.285,0.122 0.083,0.083 0.12,0.174 0.12,0.29 l 0.005,1.518 h 0.69 l -0.002,-1.518 c 0,-0.302 -0.11,-0.57 -0.323,-0.784 a 1.062,1.062 0 0 0 -0.775,-0.325 c -0.292,0 -0.547,0.108 -0.753,0.307 A 1.057,1.057 0 0 0 8.959,6.6045 Z"
     fill="#ffffff"
     fill-rule="evenodd"
     overflow="visible"
     id="path896" />
  <g
     id="g64"
     fill="#5e4aa6"
     transform="matrix(0.26457812,0,0,0.26457812,-17.633134,2.4475833e-8)">
    <circle
       id="circle20"
       r="0"
       cy="-1241.6"
       cx="-1248.7" />
    <circle
       id="circle22"
       fill-rule="evenodd"
       r="0"
       cy="23.855"
       cx="-149.14999" />
    <circle
       id="circle24"
       r="0"
       cy="-1241.6"
       cx="-1248.7" />
    <circle
       id="circle26"
       fill-rule="evenodd"
       r="0"
       cy="23.855"
       cx="-149.14999" />
    <circle
       id="circle28"
       r="0"
       cy="-1256.6"
       cx="-1150.9" />
    <circle
       id="circle30"
       fill-rule="evenodd"
       r="0"
       cy="8.8744001"
       cx="-51.327" />
    <g
       id="g62"
       stroke-width="0.26458"
       transform="matrix(3.7796,0,0,3.7796,167.86,4.61)">
      <g
         id="g40"
         transform="translate(-0.0272,0.0065001)">
        <circle
           id="circle32"
           r="0"
           cy="-328.38"
           cx="-330.35001" />
        <circle
           id="circle34"
           r="0"
           cy="-326.25"
           cx="-312.10999" />
        <circle
           id="circle36"
           r="0"
           cy="-333.07001"
           cx="-306.01999" />
        <circle
           id="circle38"
           r="0"
           cy="-326.01001"
           cx="-308.84" />
      </g>
      <g
         id="g50"
         transform="translate(-0.0272,0.0065001)">
        <circle
           id="circle42"
           r="0"
           cy="-328.38"
           cx="-330.35001" />
        <circle
           id="circle44"
           r="0"
           cy="-326.25"
           cx="-312.10999" />
        <circle
           id="circle46"
           r="0"
           cy="-333.07001"
           cx="-306.01999" />
        <circle
           id="circle48"
           r="0"
           cy="-326.01001"
           cx="-308.84" />
      </g>
      <g
         id="g60"
         transform="translate(-0.02705,0.0064503)">
        <circle
           id="circle52"
           r="0"
           cy="-328.38"
           cx="-330.35001" />
        <circle
           id="circle54"
           r="0"
           cy="-326.25"
           cx="-312.10999" />
        <circle
           id="circle56"
           r="0"
           cy="-333.07001"
           cx="-306.01999" />
        <circle
           id="circle58"
           r="0"
           cy="-326.01001"
           cx="-308.84" />
      </g>
    </g>
  </g>
  <g
     transform="matrix(0.26457812,0,0,0.26457812,-23.975105,-10.625202)"
     id="g929"
     fill="#5e4aa6">
    <circle
       id="circle911"
       r="0"
       cy="-1241.6"
       cx="-1248.7" />
    <circle
       id="circle913"
       fill-rule="evenodd"
       r="0"
       cy="23.855"
       cx="-149.14999" />
    <circle
       id="circle915"
       r="0"
       cy="-1256.6"
       cx="-1150.9" />
    <circle
       id="circle917"
       fill-rule="evenodd"
       r="0"
       cy="8.8744001"
       cx="-51.327" />
    <g
       id="g927"
       stroke-width="0.26458"
       transform="matrix(3.7796,0,0,3.7796,-0.10224,0.02438)">
      <circle
         id="circle919"
         r="0"
         cy="-328.38"
         cx="-330.35001" />
      <circle
         id="circle921"
         r="0"
         cy="-326.25"
         cx="-312.10999" />
      <circle
         id="circle923"
         r="0"
         cy="-333.07001"
         cx="-306.01999" />
      <circle
         id="circle925"
         r="0"
         cy="-326.01001"
         cx="-308.84" />
    </g>
  </g>
  <g
     id="g943"
     stroke-width="0.26458"
     fill="#5e4aa6"
     transform="translate(-24.002306,-10.618702)">
    <circle
       id="circle935"
       r="0"
       cy="-328.38"
       cx="-330.35001" />
    <circle
       id="circle937"
       r="0"
       cy="-326.25"
       cx="-312.10999" />
    <circle
       id="circle939"
       r="0"
       cy="-333.07001"
       cx="-306.01999" />
    <circle
       id="circle941"
       r="0"
       cy="-326.01001"
       cx="-308.84" />
  </g>
  <g
     id="g985"
     fill="#5e4aa6"
     transform="matrix(0.26457812,0,0,0.26457812,-55.041868,-21.531112)">
    <circle
       id="circle945"
       r="0"
       cy="-1241.6"
       cx="-1248.7" />
    <circle
       id="circle947"
       fill-rule="evenodd"
       r="0"
       cy="23.855"
       cx="-149.14999" />
    <circle
       id="circle949"
       r="0"
       cy="-1256.6"
       cx="-1150.9" />
    <circle
       id="circle951"
       fill-rule="evenodd"
       r="0"
       cy="8.8744001"
       cx="-51.327" />
    <g
       id="g983"
       stroke-width="0.26458"
       transform="matrix(3.7796,0,0,3.7796,167.86,4.61)">
      <g
         id="g961"
         transform="translate(-0.0272,0.0065001)">
        <circle
           id="circle953"
           r="0"
           cy="-328.38"
           cx="-330.35001" />
        <circle
           id="circle955"
           r="0"
           cy="-326.25"
           cx="-312.10999" />
        <circle
           id="circle957"
           r="0"
           cy="-333.07001"
           cx="-306.01999" />
        <circle
           id="circle959"
           r="0"
           cy="-326.01001"
           cx="-308.84" />
      </g>
      <g
         id="g971"
         transform="translate(-0.0272,0.0065001)">
        <circle
           id="circle963"
           r="0"
           cy="-328.38"
           cx="-330.35001" />
        <circle
           id="circle965"
           r="0"
           cy="-326.25"
           cx="-312.10999" />
        <circle
           id="circle967"
           r="0"
           cy="-333.07001"
           cx="-306.01999" />
        <circle
           id="circle969"
           r="0"
           cy="-326.01001"
           cx="-308.84" />
      </g>
      <g
         id="g981"
         transform="translate(-0.02705,0.0064503)">
        <circle
           id="circle973"
           r="0"
           cy="-328.38"
           cx="-330.35001" />
        <circle
           id="circle975"
           r="0"
           cy="-326.25"
           cx="-312.10999" />
        <circle
           id="circle977"
           r="0"
           cy="-333.07001"
           cx="-306.01999" />
        <circle
           id="circle979"
           r="0"
           cy="-326.01001"
           cx="-308.84" />
      </g>
    </g>
  </g>
</svg>
