<?xml version="1.0" encoding="UTF-8" standalone="no"?>
<svg
   xmlns:dc="http://purl.org/dc/elements/1.1/"
   xmlns:cc="http://creativecommons.org/ns#"
   xmlns:rdf="http://www.w3.org/1999/02/22-rdf-syntax-ns#"
   xmlns:svg="http://www.w3.org/2000/svg"
   xmlns="http://www.w3.org/2000/svg"
   xmlns:xlink="http://www.w3.org/1999/xlink"
   xmlns:sodipodi="http://sodipodi.sourceforge.net/DTD/sodipodi-0.dtd"
   xmlns:inkscape="http://www.inkscape.org/namespaces/inkscape"
   inkscape:version="1.0 (4035a4fb49, 2020-05-01)"
   sodipodi:docname="distributor-logo-kubuntu.svg"
   id="svg17"
   viewBox="0 0 16.933 16.933"
   version="1.1"
   height="64"
   width="64">
  <metadata
     id="metadata21">
    <rdf:RDF>
      <cc:Work
         rdf:about="">
        <dc:format>image/svg+xml</dc:format>
        <dc:type
           rdf:resource="http://purl.org/dc/dcmitype/StillImage" />
        <dc:title></dc:title>
      </cc:Work>
    </rdf:RDF>
  </metadata>
  <sodipodi:namedview
     inkscape:current-layer="svg17"
     inkscape:window-maximized="1"
     inkscape:window-y="36"
     inkscape:window-x="0"
     inkscape:cy="15.49868"
     inkscape:cx="-19.054758"
     inkscape:zoom="3.1054688"
     showgrid="false"
     id="namedview19"
     inkscape:window-height="964"
     inkscape:window-width="1920"
     inkscape:pageshadow="2"
     inkscape:pageopacity="0"
     guidetolerance="10"
     gridtolerance="10"
     objecttolerance="10"
     borderopacity="1"
     bordercolor="#666666"
     pagecolor="#ffffff"
     inkscape:document-rotation="0" />
  <defs
     id="defs7">
    <linearGradient
       gradientUnits="userSpaceOnUse"
       gradientTransform="matrix(0.26458,0,0,0.26458,0,280.07)"
       y2="12.461"
       y1="57.955"
       x2="45.628"
       x1="45.628"
       id="b">
      <stop
         id="stop2"
         offset="0" />
      <stop
         id="stop4"
         offset="1"
         stop-opacity="0" />
    </linearGradient>
    <linearGradient
       id="a">
      <stop
         id="stop2-3"
         offset="0" />
      <stop
         id="stop4-6"
         stop-opacity="0"
         offset="1" />
    </linearGradient>
    <linearGradient
       gradientUnits="userSpaceOnUse"
       y2="27.346"
       x2="46.168"
       y1="57"
       x1="46.168"
       id="b-7"
       xlink:href="#a"
       gradientTransform="matrix(0.26458,0,0,0.26458,0,280.067)" />
    <linearGradient
       id="a-3"
       x1="-6.1472"
       x2="-6.1472"
       y1="-137.82"
       y2="-100.78"
       gradientTransform="matrix(0.53033,0,0,0.53033,12.26109,68.235227)"
       gradientUnits="userSpaceOnUse">
      <stop
         stop-color="#32b4ff"
         offset="0"
         id="stop849" />
      <stop
         stop-color="#3287ff"
         offset="1"
         id="stop851" />
    </linearGradient>
    <linearGradient
       gradientTransform="matrix(0.37979758,0,0,0.37979758,-5.2443619,-5.1122136)"
       gradientUnits="userSpaceOnUse"
       y2="27.346"
       x2="46.168"
       y1="57"
       x1="46.168"
       id="b-5"
       xlink:href="#a" />
    <linearGradient
       id="d"
       x1="399.57"
       x2="399.57"
       y1="545.8"
       y2="517.8"
       gradientTransform="matrix(0.56696,0,0,0.56696,-218.64,-293.03)"
       gradientUnits="userSpaceOnUse">
      <stop
         stop-color="#3889e9"
         offset="0"
         id="stop851-3" />
      <stop
         stop-color="#5ea5fb"
         offset="1"
         id="stop853" />
    </linearGradient>
    <linearGradient
       id="a-3-5"
       x1="-6.1472"
       x2="-6.1472"
       y1="-137.82"
       y2="-100.78"
       gradientTransform="matrix(0.53033,0,0,0.53033,11.509,71.86385)"
       gradientUnits="userSpaceOnUse">
      <stop
         stop-color="#14dc78"
         offset="0"
         id="stop856" />
      <stop
         stop-color="#14a03c"
         offset="1"
         id="stop858" />
    </linearGradient>
    <linearGradient
       y2="517.8"
       x2="399.57"
       y1="545.8"
       x1="399.57"
       gradientTransform="matrix(0.56696,0,0,0.56696,-218.64,-293.16215)"
       gradientUnits="userSpaceOnUse"
       id="linearGradient956"
       xlink:href="#d"
       inkscape:collect="always" />
    <linearGradient
       y2="517.8"
       x2="399.57"
       y1="545.8"
       x1="399.57"
       gradientTransform="matrix(0.56696,0,0,0.56696,-218.64,-293.16215)"
       gradientUnits="userSpaceOnUse"
       id="linearGradient910"
       xlink:href="#d"
       inkscape:collect="always" />
    <linearGradient
       id="a-3-9"
       x1="-6.1472"
       x2="-6.1472"
       y1="-137.82"
       y2="-100.78"
       gradientTransform="matrix(0.53033,0,0,0.53033,9.7971589,65.996156)"
       gradientUnits="userSpaceOnUse">
      <stop
         stop-color="#32b4ff"
         offset="0"
         id="stop848" />
      <stop
         stop-color="#3287ff"
         offset="1"
         id="stop850" />
    </linearGradient>
    <style
       type="text/css"
       id="style4" />
    <filter
       id="filter2761"
       x="-.024"
       y="-.024"
       width="1.048"
       height="1.048"
       color-interpolation-filters="sRGB">
      <feGaussianBlur
         stdDeviation="0.14552168"
         id="feGaussianBlur6" />
    </filter>
    <linearGradient
       id="linearGradient4673"
       x1="1.2573"
       x2="15.644"
       y1="15.429"
       y2="1.1082"
       gradientTransform="matrix(3.7796,0,0,3.7796,110.07575,0.53066)"
       gradientUnits="userSpaceOnUse">
      <stop
         stop-color="#32dcff"
         offset="0"
         id="stop9" />
      <stop
         stop-color="#3296ff"
         offset="1"
         id="stop11" />
    </linearGradient>
    <linearGradient
       id="linearGradient865"
       x1="7.9373"
       x2="7.9373"
       y1="6.879"
       y2="1.0583"
       gradientTransform="matrix(1.0000066,0,0,1.0000066,19.187825,0)"
       gradientUnits="userSpaceOnUse">
      <stop
         stop-color="#fff"
         offset="0"
         id="stop2-36" />
      <stop
         stop-color="#fcc"
         offset="1"
         id="stop4-7" />
    </linearGradient>
    <linearGradient
       id="linearGradient855"
       x1="2.6278"
       x2="12.314"
       y1="14.579"
       y2="3.9327"
       gradientUnits="userSpaceOnUse"
       gradientTransform="translate(19.187825)">
      <stop
         stop-color="#d462aa"
         offset="0"
         id="stop7" />
      <stop
         stop-color="#56c7d9"
         offset=".15178"
         id="stop9-3" />
      <stop
         stop-color="#2da8b8"
         offset=".33294"
         id="stop11-6" />
      <stop
         stop-color="#72cb6b"
         offset=".53353"
         id="stop13" />
      <stop
         stop-color="#c4dc2b"
         offset=".71019"
         id="stop15" />
      <stop
         stop-color="#f9da3e"
         offset=".8623"
         id="stop17" />
      <stop
         stop-color="#f69429"
         offset="1"
         id="stop19" />
    </linearGradient>
    <linearGradient
       id="linearGradient910-1"
       x1="45"
       x2="57.008"
       y1="19"
       y2="6.9915"
       gradientTransform="matrix(0.26458,0,0,0.26458,19.187825,0)"
       gradientUnits="userSpaceOnUse">
      <stop
         stop-color="#fff"
         offset="0"
         id="stop22" />
      <stop
         stop-color="#ffe3cc"
         offset="1"
         id="stop24" />
    </linearGradient>
    <style
       id="style872"
       type="text/css" />
    <filter
       color-interpolation-filters="sRGB"
       height="1.048"
       width="1.048"
       y="-.024"
       x="-.024"
       id="filter2761-7">
      <feGaussianBlur
         id="feGaussianBlur874"
         stdDeviation="0.14552168" />
    </filter>
    <style
       type="text/css"
       id="style4-5" />
    <style
       type="text/css"
       id="style6" />
    <style
       type="text/css"
       id="style8" />
    <filter
       id="filter2761-36"
       x="-.024"
       y="-.024"
       width="1.048"
       height="1.048"
       color-interpolation-filters="sRGB">
      <feGaussianBlur
         stdDeviation="0.14552168"
         id="feGaussianBlur10" />
    </filter>
    <linearGradient
       id="linearGradient1024-6"
       x1="1.3315"
       x2="15.65"
       y1="15.576"
       y2="1.17"
       gradientTransform="matrix(3.7796,0,0,3.7796,111.78704,0.53107)"
       gradientUnits="userSpaceOnUse">
      <stop
         stop-color="#00dc96"
         offset="0"
         id="stop13-7" />
      <stop
         stop-color="#14d29b"
         offset="1"
         id="stop15-5" />
    </linearGradient>
    <linearGradient
       id="b-2"
       x1="45.628"
       x2="45.628"
       y1="57.955"
       y2="12.461"
       gradientTransform="matrix(0.27476,0,0,0.27476,-24.952118,-0.32515)"
       gradientUnits="userSpaceOnUse">
      <stop
         offset="0"
         id="stop2-3-7" />
      <stop
         stop-opacity="0"
         offset="1"
         id="stop4-5" />
    </linearGradient>
    <style
       id="style872-0"
       type="text/css" />
    <style
       id="style874"
       type="text/css" />
    <style
       id="style876"
       type="text/css" />
    <filter
       color-interpolation-filters="sRGB"
       height="1.048"
       width="1.048"
       y="-.024"
       x="-.024"
       id="filter2761-3">
      <feGaussianBlur
         id="feGaussianBlur878"
         stdDeviation="0.14552168" />
    </filter>
    <linearGradient
       gradientUnits="userSpaceOnUse"
       gradientTransform="matrix(3.7796,0,0,3.7796,-0.0020773,0.53047)"
       y2="1.17"
       y1="15.576"
       x2="15.65"
       x1="1.3315"
       id="linearGradient1024-6-6">
      <stop
         id="stop881"
         offset="0"
         stop-color="#00dc96" />
      <stop
         id="stop883"
         offset="1"
         stop-color="#14d29b" />
    </linearGradient>
    <style
       type="text/css"
       id="style917" />
    <filter
       id="filter11290"
       x="-.024"
       y="-.024"
       width="1.048"
       height="1.048"
       color-interpolation-filters="sRGB">
      <feGaussianBlur
         stdDeviation="0.15875313"
         id="feGaussianBlur919" />
    </filter>
    <linearGradient
       id="linearGradient1005"
       x1=".8714"
       x2="16.246"
       y1="16.164"
       y2=".78937"
       gradientTransform="translate(-0.0351379,0.0065693)"
       gradientUnits="userSpaceOnUse">
      <stop
         stop-color="#00c8ff"
         offset="0"
         id="stop922" />
      <stop
         stop-color="#14a0ff"
         offset="1"
         id="stop924" />
    </linearGradient>
  </defs>
  <circle
     id="circle941"
     stroke-width="0.14032"
     opacity="0.25"
     filter="url(#filter11290)"
     r="7.9376998"
     cy="8.4665003"
     cx="8.4665003" />
  <path
     id="path943"
     stroke-width="0.0310059"
     fill="url(#linearGradient1005)"
     d="m 16.40395,8.4666191 c 0,0.9515288 -0.167492,1.8638999 -0.474654,2.7092799 -0.213509,0.587681 -0.49439,1.143295 -0.833923,1.657212 -0.142222,0.216081 -0.295137,0.424753 -0.457456,0.625277 -0.519658,0.641787 -1.13721,1.200708 -1.83051,1.654301 -0.255299,0.167179 -0.520637,0.320087 -0.795348,0.457112 -1.066806,0.533892 -2.2711129,0.834215 -3.5456119,0.834215 -1.274499,0 -2.478806,-0.300323 -3.545611,-0.834242 -0.274738,-0.137051 -0.540401,-0.289977 -0.795693,-0.457111 -0.702058,-0.459731 -1.326991,-1.02741 -1.850909,-1.679807 -0.162631,-0.202159 -0.315245,-0.412742 -0.457455,-0.63078 -0.330458,-0.505398 -0.604217,-1.050693 -0.813499,-1.626997 -0.307122,-0.845301 -0.474309,-1.7573015 -0.474309,-2.7084863 0,-4.3837949 3.553814,-7.9376084 7.937608,-7.9376084 2.2004969,0 4.1917119,0.895491 5.6294289,2.3417018 0.414356,0.4166311 0.782728,0.8792989 1.096306,1.3795103 0.29646,0.4710813 0.54429,0.975817 0.737035,1.5067988 0.307175,0.8455917 0.47468,1.75791 0.47468,2.70928 z"
     style="fill:url(#linearGradient1005)" />
  <circle
     id="circle870"
     stroke-width="0.26458"
     fill="#5e4aa6"
     r="0"
     cy="-318.95218"
     cx="-308.78006" />
  <circle
     id="circle872"
     stroke-width="0.26458"
     fill-rule="evenodd"
     fill="#5e4aa6"
     r="0"
     cy="15.865837"
     cx="-17.864065" />
  <circle
     cx="8.4665003"
     cy="8.3343506"
     r="7.9376001"
     fill-opacity="0"
     stroke-width="0.41578"
     id="circle873" />
  <circle
     style="fill:url(#linearGradient910)"
     cx="8.4665003"
     cy="8.3343506"
     r="0"
     fill="url(#d)"
     stroke-width="0.41578"
     id="circle875" />
  <circle
     id="circle910"
     stroke-width="0.41578"
     fill="url(#d)"
     r="0"
     cy="8.3343506"
     cx="8.4665003"
     style="fill:url(#linearGradient956)" />
  <path
     d="m 8.4665,4.233 a 4.2335,4.2335 0 1 0 0,8.467 4.2335,4.2335 0 0 0 0,-8.467 z m -0.257,0.85 c 0.02,0.002 0.037,0.014 0.046,0.032 l 0.418,0.879 C 8.8765,6 9.0815,6.035 9.2805,6.099 l 0.671,-0.671 a 0.056,0.056 0 0 1 0.07,-0.008 l 0.534,0.325 a 0.057,0.057 0 0 1 0.024,0.068 l -0.324,0.914 c 0.122,0.136 0.226,0.285 0.31,0.444 h 0.997 c 0.027,0 0.05,0.019 0.056,0.044 l 0.148,0.608 a 0.057,0.057 0 0 1 -0.03,0.065 l -1.25,0.273 A 2.044,2.044 0 0 0 7.8165,6.53 L 7.8065,6.524 7.5385,5.288 c 0,-0.026 0.019,-0.049 0.044,-0.055 l 0.607,-0.148 c 0.007,-0.002 0.013,-0.002 0.02,-0.002 z m -1.98,0.894 a 0.056,0.056 0 0 1 0.037,0.01 l 0.95,0.865 a 2.038,2.038 0 0 0 -0.137,3.113 v 0.014 l -0.854,0.943 a 0.058,0.058 0 0 1 -0.07,-0.008 L 5.7135,10.473 A 0.057,0.057 0 0 1 5.7065,10.401 L 6.2405,9.587 A 2.21,2.21 0 0 1 6.0135,9.014 L 5.0915,8.788 A 0.057,0.057 0 0 1 5.0485,8.733 V 8.108 c 0,-0.027 0.019,-0.05 0.045,-0.056 l 0.95,-0.198 C 6.0965,7.679 6.1705,7.512 6.2615,7.358 L 5.7445,6.506 a 0.057,0.057 0 0 1 0.008,-0.07 l 0.442,-0.442 a 0.055,0.055 0 0 1 0.035,-0.017 z m 4.232,2.93 1.24,0.278 c 0.022,0.012 0.034,0.04 0.027,0.065 l -0.162,0.603 a 0.057,0.057 0 0 1 -0.059,0.043 l -0.972,-0.057 a 2.21,2.21 0 0 1 -0.383,0.483 l 0.265,0.911 a 0.057,0.057 0 0 1 -0.026,0.065 l -0.542,0.312 a 0.057,0.057 0 0 1 -0.071,-0.011 l -0.646,-0.725 c -0.178,0.042 -0.359,0.062 -0.538,0.06 l -0.48,0.873 a 0.057,0.057 0 0 1 -0.065,0.028 l -0.604,-0.163 a 0.057,0.057 0 0 1 -0.042,-0.058 l 0.326,-1.235 0.006,-0.003 a 2.044,2.044 0 0 0 2.726,-1.468 z"
     fill="#ffffff"
     id="path924" />
  <circle
     cx="-330.9368"
     cy="-318.95218"
     r="0"
     fill="#5e4aa6"
     stroke-width="0.26458"
     id="circle869" />
  <circle
     cx="-40.020809"
     cy="15.865837"
     r="0"
     fill="#5e4aa6"
     fill-rule="evenodd"
     stroke-width="0.26458"
     id="circle871" />
  <circle
     style="stroke-width:0.264578"
     cx="-341.35718"
     cy="-341.42719"
     r="0"
     fill="#5e4aa6"
     id="circle16" />
  <g
     transform="translate(-10.996993,-13.055043)"
     fill="#5e4aa6"
     stroke-width="0.26458"
     id="g26">
    <circle
       cx="-299.01999"
       cy="-338.76999"
       r="0"
       id="circle18" />
    <circle
       cx="-8.1062002"
       cy="-3.9487"
       r="0"
       fill-rule="evenodd"
       id="circle20" />
    <circle
       cx="-278.25"
       cy="-357.69"
       r="0"
       id="circle22" />
    <circle
       cx="12.663"
       cy="-22.858999"
       r="0"
       fill-rule="evenodd"
       id="circle24" />
  </g>
  <circle
     style="stroke-width:0.264578"
     id="circle929"
     fill="#5e4aa6"
     r="0"
     cy="-350.79272"
     cx="-319.49576" />
  <g
     id="g939"
     stroke-width="0.26458"
     fill="#5e4aa6"
     transform="translate(10.864442,-22.42056)">
    <circle
       id="circle931"
       r="0"
       cy="-338.76999"
       cx="-299.01999" />
    <circle
       id="circle933"
       fill-rule="evenodd"
       r="0"
       cy="-3.9487"
       cx="-8.1062002" />
    <circle
       id="circle935"
       r="0"
       cy="-357.69"
       cx="-278.25" />
    <circle
       id="circle937"
       fill-rule="evenodd"
       r="0"
       cy="-22.858999"
       cx="12.663" />
  </g>
  <g
     id="g953"
     stroke-width="0.26458"
     fill="#5e4aa6"
     transform="translate(-21.925466,-12.311409)">
    <circle
       id="circle945"
       r="0"
       cy="-328.38"
       cx="-330.35001" />
    <circle
       id="circle947"
       r="0"
       cy="-326.25"
       cx="-312.10999" />
    <circle
       id="circle949"
       r="0"
       cy="-333.07001"
       cx="-306.01999" />
    <circle
       id="circle951"
       r="0"
       cy="-326.01001"
       cx="-308.84" />
  </g>
</svg>
