<?xml version="1.0" encoding="UTF-8" standalone="no"?>
<svg
   xmlns:dc="http://purl.org/dc/elements/1.1/"
   xmlns:cc="http://creativecommons.org/ns#"
   xmlns:rdf="http://www.w3.org/1999/02/22-rdf-syntax-ns#"
   xmlns:svg="http://www.w3.org/2000/svg"
   xmlns="http://www.w3.org/2000/svg"
   xmlns:sodipodi="http://sodipodi.sourceforge.net/DTD/sodipodi-0.dtd"
   xmlns:inkscape="http://www.inkscape.org/namespaces/inkscape"
   width="64"
   height="64"
   version="1.1"
   id="svg12"
   sodipodi:docname="distributor-logo-void.svg"
   inkscape:version="1.0.2 (e86c870879, 2021-01-15)">
  <metadata
     id="metadata18">
    <rdf:RDF>
      <cc:Work
         rdf:about="">
        <dc:format>image/svg+xml</dc:format>
        <dc:type
           rdf:resource="http://purl.org/dc/dcmitype/StillImage" />
        <dc:title></dc:title>
      </cc:Work>
    </rdf:RDF>
  </metadata>
  <defs
     id="defs16">
    <style
       type="text/css"
       id="style845" />
    <style
       type="text/css"
       id="style847" />
    <filter
       id="filter1057-9"
       x="-.027"
       y="-.027"
       width="1.054"
       height="1.054"
       color-interpolation-filters="sRGB">
      <feGaussianBlur
         stdDeviation="0.61875"
         id="feGaussianBlur849" />
    </filter>
    <linearGradient
       id="linearGradient1053-6"
       x1="-127"
       x2="-72"
       y1="60"
       y2="5"
       gradientTransform="translate(131.5,-0.51)"
       gradientUnits="userSpaceOnUse">
      <stop
         stop-color="#dee0e2"
         offset="0"
         id="stop852" />
      <stop
         stop-color="#f1f3f5"
         stop-opacity=".99608"
         offset="1"
         id="stop854" />
    </linearGradient>
    <filter
       id="filter11290"
       x="-.024"
       y="-.024"
       width="1.048"
       height="1.048"
       color-interpolation-filters="sRGB">
      <feGaussianBlur
         stdDeviation="0.15875313"
         id="feGaussianBlur844" />
    </filter>
    <filter
       id="filter11290-3"
       x="-.024"
       y="-.024"
       width="1.048"
       height="1.048"
       color-interpolation-filters="sRGB">
      <feGaussianBlur
         stdDeviation="0.15875313"
         id="feGaussianBlur908" />
    </filter>
    <linearGradient
       id="linearGradient1005"
       x1=".73911"
       x2="16.388"
       y1="16.296"
       y2=".64687"
       gradientTransform="matrix(3.779602,0,0,3.779602,-0.1319476,0.02456655)"
       gradientUnits="userSpaceOnUse">
      <stop
         stop-color="#dddfe1"
         offset="0"
         id="stop911" />
      <stop
         stop-color="#f3f4f6"
         offset="1"
         id="stop913" />
    </linearGradient>
    <linearGradient
       id="SVGID_1_"
       x1="24.838"
       x2="46.732"
       y1="33.654"
       y2="55.548"
       gradientUnits="userSpaceOnUse">
      <stop
         stop-color="#EF6B2E"
         offset=".3569"
         id="stop916" />
      <stop
         stop-color="#F19F00"
         offset=".6328"
         id="stop918" />
    </linearGradient>
    <linearGradient
       id="SVGID_2_"
       x1="24.859"
       x2="46.753"
       y1="30.388"
       y2="8.4933"
       gradientTransform="matrix(2.0044,0,0,2.0044,105.19,228.49)"
       gradientUnits="userSpaceOnUse">
      <stop
         stop-color="#16B8C3"
         offset=".3707"
         id="stop921" />
      <stop
         stop-color="#02AEF0"
         offset=".7422"
         id="stop923" />
    </linearGradient>
  </defs>
  <sodipodi:namedview
     pagecolor="#ffffff"
     bordercolor="#666666"
     borderopacity="1"
     objecttolerance="10"
     gridtolerance="10"
     guidetolerance="10"
     inkscape:pageopacity="0"
     inkscape:pageshadow="2"
     inkscape:window-width="1920"
     inkscape:window-height="942"
     id="namedview14"
     showgrid="false"
     inkscape:zoom="6.0546875"
     inkscape:cx="-23.34903"
     inkscape:cy="29.938973"
     inkscape:window-x="0"
     inkscape:window-y="38"
     inkscape:window-maximized="1"
     inkscape:current-layer="svg12"
     inkscape:document-rotation="0" />
  <circle
     cx="8.4937"
     cy="8.46"
     r="7.9376998"
     filter="url(#filter11290)"
     opacity="0.25"
     stroke-width="0.14032"
     id="circle930"
     style="filter:url(#filter11290-3)"
     transform="matrix(3.779602,0,0,3.779602,-0.10280494,0.02456761)" />
  <path
     d="m 62.000383,31.999811 c 0,3.596442 -0.633046,7.0448 -1.79395,10.240453 -0.806983,2.221197 -1.868598,4.321219 -3.151924,6.263557 -0.537535,0.816696 -1.115512,1.605386 -1.729017,2.363347 -1.964108,2.425711 -4.298163,4.538168 -6.918562,6.252596 -0.964932,0.631873 -1.967849,1.20985 -3.006144,1.727731 -4.032079,2.017892 -8.583854,3.152982 -13.400957,3.152982 -4.817102,0 -9.368877,-1.13509 -13.400956,-3.153095 -1.038408,-0.517995 -2.042497,-1.095971 -3.00743,-1.727732 -2.653545,-1.737596 -5.015532,-3.883163 -6.9956646,-6.348975 -0.614677,-0.764085 -1.191482,-1.560031 -1.729017,-2.384098 -1.249007,-1.91021 -2.283673,-3.971227 -3.074706,-6.149412 -1.160754,-3.19486 -1.792665,-6.641895 -1.792665,-10.237052 0,-16.569019 13.4315706,-30.0005905 30.0005906,-30.0005905 8.317014,0 15.842957,3.384558 21.277269,8.8506935 1.566116,1.574658 2.958446,3.323366 4.143578,5.213961 1.120463,1.780457 2.057162,3.688211 2.785718,5.695104 1.161018,3.195994 1.794064,6.644163 1.794064,10.240454 z"
     fill="url(#linearGradient1005)"
     stroke-width="0.11719"
     id="path932"
     style="fill:url(#linearGradient1005)" />
  <g
     transform="matrix(.81818 0 0 .81818 5.8182 5.8182)"
     id="g10">
    <path
       d="m32 10a22 22 0 0 0-12.92 4.219l4.9414 4.9414a15.125 15.125 0 0 1 7.9788-2.2854 15.125 15.125 0 0 1 15.125 15.125 15.125 15.125 0 0 1-2.2935 7.9707l4.9441 4.9441a22 22 0 0 0 4.2244-12.915 22 22 0 0 0-22-22z"
       fill="#91cd91"
       id="path4" />
    <path
       d="m14.224 19.085a22 22 0 0 0-4.2244 12.915 22 22 0 0 0 22 22 22 22 0 0 0 12.92-4.219l-4.9414-4.9414a15.125 15.125 0 0 1-7.9788 2.2854 15.125 15.125 0 0 1-15.125-15.125 15.125 15.125 0 0 1 2.2935-7.9707z"
       fill="#33855a"
       id="path6" />
    <circle
       cx="32"
       cy="32"
       r="8"
       fill="#91cd91"
       id="circle8" />
  </g>
  <g
     fill="#5e4aa6"
     stroke-width="0.26458"
     id="g942"
     transform="matrix(3.779602,0,0,3.779602,-68.574177,0.02456761)">
    <circle
       cx="-330.35001"
       cy="-328.38"
       r="0"
       id="circle934" />
    <circle
       cx="-312.10999"
       cy="-326.25"
       r="0"
       id="circle936" />
    <circle
       cx="-306.01999"
       cy="-333.07001"
       r="0"
       id="circle938" />
    <circle
       cx="-308.84"
       cy="-326.01001"
       r="0"
       id="circle940" />
  </g>
</svg>
