<?xml version="1.0" encoding="UTF-8" standalone="no"?>
<svg
   xmlns:dc="http://purl.org/dc/elements/1.1/"
   xmlns:cc="http://creativecommons.org/ns#"
   xmlns:rdf="http://www.w3.org/1999/02/22-rdf-syntax-ns#"
   xmlns:svg="http://www.w3.org/2000/svg"
   xmlns="http://www.w3.org/2000/svg"
   xmlns:sodipodi="http://sodipodi.sourceforge.net/DTD/sodipodi-0.dtd"
   xmlns:inkscape="http://www.inkscape.org/namespaces/inkscape"
   inkscape:version="1.0 (4035a4fb49, 2020-05-01)"
   sodipodi:docname="distributor-logo-kali.svg"
   id="svg17"
   viewBox="0 0 16.933 16.933"
   version="1.1"
   height="64"
   width="64">
  <metadata
     id="metadata21">
    <rdf:RDF>
      <cc:Work
         rdf:about="">
        <dc:format>image/svg+xml</dc:format>
        <dc:type
           rdf:resource="http://purl.org/dc/dcmitype/StillImage" />
        <dc:title></dc:title>
      </cc:Work>
    </rdf:RDF>
  </metadata>
  <sodipodi:namedview
     inkscape:current-layer="svg17"
     inkscape:window-maximized="1"
     inkscape:window-y="36"
     inkscape:window-x="0"
     inkscape:cy="5.4968157"
     inkscape:cx="-36.4383"
     inkscape:zoom="4.391796"
     showgrid="false"
     id="namedview19"
     inkscape:window-height="964"
     inkscape:window-width="1920"
     inkscape:pageshadow="2"
     inkscape:pageopacity="0"
     guidetolerance="10"
     gridtolerance="10"
     objecttolerance="10"
     borderopacity="1"
     bordercolor="#666666"
     pagecolor="#ffffff"
     inkscape:document-rotation="0" />
  <defs
     id="defs7">
    <linearGradient
       gradientUnits="userSpaceOnUse"
       gradientTransform="matrix(0.26458,0,0,0.26458,0,280.07)"
       y2="12.461"
       y1="57.955"
       x2="45.628"
       x1="45.628"
       id="a">
      <stop
         id="stop2"
         offset="0" />
      <stop
         id="stop4"
         offset="1"
         stop-opacity="0" />
    </linearGradient>
    <linearGradient
       id="a-3"
       x1="-6.1472"
       x2="-6.1472"
       y1="-137.82"
       y2="-100.78"
       gradientTransform="matrix(0.53033,0,0,0.53033,9.7971589,65.996156)"
       gradientUnits="userSpaceOnUse">
      <stop
         stop-color="#32b4ff"
         offset="0"
         id="stop848" />
      <stop
         stop-color="#3287ff"
         offset="1"
         id="stop850" />
    </linearGradient>
    <style
       type="text/css"
       id="style4" />
    <filter
       id="filter2761"
       x="-.024"
       y="-.024"
       width="1.048"
       height="1.048"
       color-interpolation-filters="sRGB">
      <feGaussianBlur
         stdDeviation="0.14552168"
         id="feGaussianBlur6" />
    </filter>
    <linearGradient
       id="linearGradient4673"
       x1="1.2573"
       x2="15.644"
       y1="15.429"
       y2="1.1082"
       gradientTransform="matrix(3.7796,0,0,3.7796,110.07575,0.53066)"
       gradientUnits="userSpaceOnUse">
      <stop
         stop-color="#32dcff"
         offset="0"
         id="stop9" />
      <stop
         stop-color="#3296ff"
         offset="1"
         id="stop11" />
    </linearGradient>
    <linearGradient
       id="linearGradient865"
       x1="7.9373"
       x2="7.9373"
       y1="6.879"
       y2="1.0583"
       gradientTransform="matrix(1.0000066,0,0,1.0000066,19.187825,0)"
       gradientUnits="userSpaceOnUse">
      <stop
         stop-color="#fff"
         offset="0"
         id="stop2-36" />
      <stop
         stop-color="#fcc"
         offset="1"
         id="stop4-7" />
    </linearGradient>
    <linearGradient
       id="linearGradient855"
       x1="2.6278"
       x2="12.314"
       y1="14.579"
       y2="3.9327"
       gradientUnits="userSpaceOnUse"
       gradientTransform="translate(19.187825)">
      <stop
         stop-color="#d462aa"
         offset="0"
         id="stop7" />
      <stop
         stop-color="#56c7d9"
         offset=".15178"
         id="stop9-3" />
      <stop
         stop-color="#2da8b8"
         offset=".33294"
         id="stop11-6" />
      <stop
         stop-color="#72cb6b"
         offset=".53353"
         id="stop13" />
      <stop
         stop-color="#c4dc2b"
         offset=".71019"
         id="stop15" />
      <stop
         stop-color="#f9da3e"
         offset=".8623"
         id="stop17" />
      <stop
         stop-color="#f69429"
         offset="1"
         id="stop19" />
    </linearGradient>
    <linearGradient
       id="linearGradient910"
       x1="45"
       x2="57.008"
       y1="19"
       y2="6.9915"
       gradientTransform="matrix(0.26458,0,0,0.26458,19.187825,0)"
       gradientUnits="userSpaceOnUse">
      <stop
         stop-color="#fff"
         offset="0"
         id="stop22" />
      <stop
         stop-color="#ffe3cc"
         offset="1"
         id="stop24" />
    </linearGradient>
    <style
       id="style872"
       type="text/css" />
    <filter
       color-interpolation-filters="sRGB"
       height="1.048"
       width="1.048"
       y="-.024"
       x="-.024"
       id="filter2761-7">
      <feGaussianBlur
         id="feGaussianBlur874"
         stdDeviation="0.14552168" />
    </filter>
    <style
       type="text/css"
       id="style4-5" />
    <style
       type="text/css"
       id="style6" />
    <style
       type="text/css"
       id="style8" />
    <filter
       id="filter2761-36"
       x="-.024"
       y="-.024"
       width="1.048"
       height="1.048"
       color-interpolation-filters="sRGB">
      <feGaussianBlur
         stdDeviation="0.14552168"
         id="feGaussianBlur10" />
    </filter>
    <linearGradient
       id="linearGradient1024-6"
       x1="1.3315"
       x2="15.65"
       y1="15.576"
       y2="1.17"
       gradientTransform="matrix(3.7796,0,0,3.7796,111.78704,0.53107)"
       gradientUnits="userSpaceOnUse">
      <stop
         stop-color="#00dc96"
         offset="0"
         id="stop13-7" />
      <stop
         stop-color="#14d29b"
         offset="1"
         id="stop15-5" />
    </linearGradient>
    <linearGradient
       id="b"
       x1="45.628"
       x2="45.628"
       y1="57.955"
       y2="12.461"
       gradientTransform="matrix(0.27476,0,0,0.27476,-24.952118,-0.32515)"
       gradientUnits="userSpaceOnUse">
      <stop
         offset="0"
         id="stop2-3" />
      <stop
         stop-opacity="0"
         offset="1"
         id="stop4-5" />
    </linearGradient>
    <style
       id="style872-0"
       type="text/css" />
    <style
       id="style874"
       type="text/css" />
    <style
       id="style876"
       type="text/css" />
    <filter
       color-interpolation-filters="sRGB"
       height="1.048"
       width="1.048"
       y="-.024"
       x="-.024"
       id="filter2761-3">
      <feGaussianBlur
         id="feGaussianBlur878"
         stdDeviation="0.14552168" />
    </filter>
    <linearGradient
       gradientUnits="userSpaceOnUse"
       gradientTransform="matrix(3.7796,0,0,3.7796,-0.0020773,0.53047)"
       y2="1.17"
       y1="15.576"
       x2="15.65"
       x1="1.3315"
       id="linearGradient1024-6-6">
      <stop
         id="stop881"
         offset="0"
         stop-color="#00dc96" />
      <stop
         id="stop883"
         offset="1"
         stop-color="#14d29b" />
    </linearGradient>
    <style
       type="text/css"
       id="style896" />
    <filter
       id="filter11290"
       x="-.024"
       y="-.024"
       width="1.048"
       height="1.048"
       color-interpolation-filters="sRGB">
      <feGaussianBlur
         stdDeviation="0.15875313"
         id="feGaussianBlur898" />
    </filter>
    <linearGradient
       id="linearGradient1005"
       x1=".8714"
       x2="16.246"
       y1="16.164"
       y2=".78937"
       gradientTransform="translate(-0.0351379,0.0065693)"
       gradientUnits="userSpaceOnUse">
      <stop
         stop-color="#00c8ff"
         offset="0"
         id="stop901" />
      <stop
         stop-color="#14a0ff"
         offset="1"
         id="stop903" />
    </linearGradient>
  </defs>
  <circle
     id="circle920"
     stroke-width="0.14032"
     opacity="0.25"
     filter="url(#filter11290)"
     r="7.9376998"
     cy="8.4665003"
     cx="8.4665003" />
  <path
     id="path922"
     stroke-width="0.0310059"
     fill="url(#linearGradient1005)"
     d="m 16.403949,8.4666191 c 0,0.9515288 -0.167491,1.8638999 -0.474653,2.7092799 -0.213509,0.587681 -0.49439,1.143295 -0.833923,1.657212 -0.142222,0.216081 -0.295137,0.424753 -0.457456,0.625277 -0.519658,0.641787 -1.13721,1.200708 -1.83051,1.654301 -0.2553,0.167179 -0.520637,0.320087 -0.795349,0.457112 -1.066805,0.533892 -2.2711119,0.834215 -3.5456109,0.834215 -1.274499,0 -2.478806,-0.300323 -3.545611,-0.834242 -0.274738,-0.137051 -0.540401,-0.289977 -0.795693,-0.457111 -0.702058,-0.459731 -1.326991,-1.02741 -1.850909,-1.679807 -0.162631,-0.202159 -0.315245,-0.412742 -0.457455,-0.63078 -0.330458,-0.505398 -0.604217,-1.050693 -0.813499,-1.626997 -0.307122,-0.845301 -0.474309,-1.7573015 -0.474309,-2.7084863 0,-4.3837949 3.553814,-7.9376084 7.937608,-7.9376084 2.2004969,0 4.1917119,0.8954913 5.6294289,2.3417018 0.414356,0.4166311 0.782728,0.8792989 1.096306,1.3795103 0.29646,0.4710813 0.54429,0.975817 0.737035,1.5067988 0.307175,0.8455917 0.47468,1.75791 0.47468,2.70928 z"
     style="fill:url(#linearGradient1005)" />
  <circle
     id="circle869"
     stroke-width="0.26458"
     fill="#5e4aa6"
     r="0"
     cy="-318.95218"
     cx="-308.78006" />
  <circle
     id="circle871"
     stroke-width="0.26458"
     fill-rule="evenodd"
     fill="#5e4aa6"
     r="0"
     cy="15.865837"
     cx="-17.864065" />
  <path
     d="m 7.818,3.7669999 c 0.224,0.599 0.49,1.281 0.887,1.8 -0.437,-0.216 -0.923,-0.36 -1.303,-0.668 0.047,0.12 0.03,0.249 0.026,0.35 a 5.317,5.317 0 0 1 -0.952,-0.377 c 0.08,0.15 0.093,0.31 0.073,0.45 -0.326,0.03 -0.679,-0.072 -0.98,-0.126 0.138,0.125 0.203,0.29 0.259,0.456 -0.322,0.056 -0.654,0.115 -0.98,0.146 0.138,0.093 0.24,0.228 0.319,0.357 -0.253,0.212 -0.573,0.403 -0.834,0.563 a 0.638,0.638 0 0 1 0.463,0.125 9.444,9.444 0 0 1 -0.563,0.88 c 0.164,-0.039 0.312,-0.073 0.49,-0.073 -0.062,0.352 -0.106,0.7200001 -0.238,1.052 0.147,-0.107 0.306,-0.1609999 0.47,-0.218 0.157,0.267 0.173,0.703 0.231,0.9380001 A 0.498,0.498 0 0 1 5.444,9.1319999 C 7.224,10.88 10.154,10.574 10.411,13.166 10.491,12.156 10.013,11.442 9.459,10.951 8.999,10.543 6.904,9.573 6.806,9.509 5.005,8.315 5.248,6.7019999 6.516,6.2939999 a 2.727,2.727 0 0 1 3.015,0.946 c 0.176,0.223 0.427,0.631 0.662,0.8070001 0.445,0.334 2.036,1.1089999 1.409,2.03 C 12.147,9.937 12.563,9.5470001 12.7,9 12.273,8.817 11.63,8.4299999 11.681,7.8879999 11.743,7.862 11.811,7.868 11.88,7.868 10.444,5.368 10.061,6.238 8.619,3.913 8.799,4.557 9.191,5.3509999 9.663,5.7919999 8.88,5.322 8.372,4.479 7.818,3.7669999 Z m 2.95,3.155 c 0.163,0.227 0.3,0.48 0.496,0.675 -0.19,-0.066 -0.945,-0.563 -0.496,-0.675 z"
     fill="#ffffff"
     id="path900" />
  <circle
     id="circle16"
     fill="#5e4aa6"
     r="0"
     cy="-341.42719"
     cx="-319.20044"
     style="stroke-width:0.264578" />
  <g
     id="g26"
     stroke-width="0.26458"
     fill="#5e4aa6"
     transform="translate(11.15975,-13.055043)">
    <circle
       id="circle18"
       r="0"
       cy="-338.76999"
       cx="-299.01999" />
    <circle
       id="circle20"
       fill-rule="evenodd"
       r="0"
       cy="-3.9487"
       cx="-8.1062002" />
    <circle
       id="circle22"
       r="0"
       cy="-357.69"
       cx="-278.25" />
    <circle
       id="circle24"
       fill-rule="evenodd"
       r="0"
       cy="-22.858999"
       cx="12.663" />
  </g>
  <circle
     style="stroke-width:0.264578"
     id="circle908"
     fill="#5e4aa6"
     r="0"
     cy="-349.26157"
     cx="-320.54486" />
  <g
     id="g918"
     stroke-width="0.26458"
     fill="#5e4aa6"
     transform="translate(9.8153236,-20.889428)">
    <circle
       id="circle910"
       r="0"
       cy="-338.76999"
       cx="-299.01999" />
    <circle
       id="circle912"
       fill-rule="evenodd"
       r="0"
       cy="-3.9487"
       cx="-8.1062002" />
    <circle
       id="circle914"
       r="0"
       cy="-357.69"
       cx="-278.25" />
    <circle
       id="circle916"
       fill-rule="evenodd"
       r="0"
       cy="-22.858999"
       cx="12.663" />
  </g>
  <g
     id="g932"
     stroke-width="0.26458"
     fill="#5e4aa6"
     transform="translate(-22.974584,-10.780277)">
    <circle
       id="circle924"
       r="0"
       cy="-328.38"
       cx="-330.35001" />
    <circle
       id="circle926"
       r="0"
       cy="-326.25"
       cx="-312.10999" />
    <circle
       id="circle928"
       r="0"
       cy="-333.07001"
       cx="-306.01999" />
    <circle
       id="circle930"
       r="0"
       cy="-326.01001"
       cx="-308.84" />
  </g>
</svg>
