<?xml version="1.0" encoding="UTF-8"?>
<svg width="64" height="64" version="1.1" xmlns="http://www.w3.org/2000/svg" xmlns:cc="http://creativecommons.org/ns#" xmlns:dc="http://purl.org/dc/elements/1.1/" xmlns:rdf="http://www.w3.org/1999/02/22-rdf-syntax-ns#">
 <metadata>
  <rdf:RDF>
   <cc:Work rdf:about="">
    <dc:format>image/svg+xml</dc:format>
    <dc:type rdf:resource="http://purl.org/dc/dcmitype/StillImage"/>
   </cc:Work>
  </rdf:RDF>
 </metadata>
 <defs>
  <style type="text/css"/>
  <style type="text/css"/>
  <style type="text/css"/>
  <filter id="filter11290-3" x="-.024" y="-.024" width="1.048" height="1.048" color-interpolation-filters="sRGB">
   <feGaussianBlur stdDeviation="0.15875313"/>
  </filter>
  <linearGradient id="linearGradient1005-6" x1=".73911" x2="16.388" y1="16.296" y2=".64687" gradientTransform="matrix(3.7796 0 0 3.7796 -.13251 .025206)" gradientUnits="userSpaceOnUse">
   <stop stop-color="#a0b9cd" offset="0"/>
   <stop stop-color="#96b4c8" offset=".48743"/>
   <stop stop-color="#a0b9cd" offset="1"/>
  </linearGradient>
 </defs>
 <circle transform="matrix(3.7796 0 0 3.7796 1.5533e-5 1.5533e-5)" cx="8.4665" cy="8.4665" r="7.9377" filter="url(#filter11290-3)" opacity=".25" stroke-width=".14032"/>
 <path d="m62 32c0 3.5964-0.63304 7.0448-1.794 10.24-0.80698 2.2212-1.8686 4.3212-3.1519 6.2636-0.53754 0.8167-1.1155 1.6054-1.729 2.3633-1.9641 2.4257-4.2982 4.5382-6.9186 6.2526-0.96493 0.63187-1.9678 1.2098-3.0061 1.7277-4.0321 2.0179-8.5839 3.153-13.401 3.153s-9.3689-1.1351-13.401-3.1531c-1.0384-0.518-2.0425-1.096-3.0074-1.7277-2.6535-1.7376-5.0155-3.8832-6.9957-6.349-0.61468-0.76408-1.1915-1.56-1.729-2.3841-1.249-1.9102-2.2837-3.9712-3.0747-6.1494-1.1608-3.1949-1.7927-6.6419-1.7927-10.237 0-16.569 13.432-30.001 30.001-30.001 8.317 0 15.843 3.3846 21.277 8.8507 1.5661 1.5747 2.9584 3.3234 4.1436 5.214 1.1205 1.7805 2.0572 3.6882 2.7857 5.6951 1.161 3.196 1.7941 6.6442 1.7941 10.24z" fill="url(#linearGradient1005-6)" stroke-width=".11719"/>
 <g fill="#5e4aa6">
  <g transform="translate(-80.134 -57.985)" image-rendering="optimizeSpeed">
   <circle cx="-1248.7" cy="-1241.6" r="0"/>
   <circle cx="-149.15" cy="23.855" r="0" fill-rule="evenodd"/>
   <circle cx="-1248.7" cy="-1241.6" r="0"/>
   <circle cx="-149.15" cy="23.855" r="0" fill-rule="evenodd"/>
  </g>
  <circle cx="-1248.7" cy="-1241.6" r="0"/>
  <circle cx="-149.15" cy="23.855" r="0" fill-rule="evenodd"/>
  <g transform="matrix(3.7796 0 0 3.7796 .00058415 -.00017177)" stroke-width=".26458">
   <g transform="translate(-.0272 .0065001)">
    <circle cx="-330.35" cy="-328.38" r="0"/>
    <circle cx="-312.11" cy="-326.25" r="0"/>
    <circle cx="-306.02" cy="-333.07" r="0"/>
    <circle cx="-308.84" cy="-326.01" r="0"/>
    <circle cx="-330.35" cy="-328.38" r="0"/>
    <circle cx="-312.11" cy="-326.25" r="0"/>
    <circle cx="-306.02" cy="-333.07" r="0"/>
    <circle cx="-308.84" cy="-326.01" r="0"/>
   </g>
   <g transform="translate(-.02705 .0064503)">
    <circle cx="-330.35" cy="-328.38" r="0"/>
    <circle cx="-312.11" cy="-326.25" r="0"/>
    <circle cx="-306.02" cy="-333.07" r="0"/>
    <circle cx="-308.84" cy="-326.01" r="0"/>
   </g>
  </g>
  <g transform="translate(-79.199 -30.995)">
   <circle cx="-1248.7" cy="-1241.6" r="0"/>
   <circle cx="-1140.3" cy="-1301.8" r="0"/>
   <circle cx="-1158.1" cy="-1246" r="0"/>
  </g>
  <circle cx="-1236.5" cy="-1298.7" r="0"/>
  <circle cx="-136.95" cy="-33.178" r="0" fill-rule="evenodd"/>
 </g>
 <path d="m43.142 42.195h0.88544c-2.5e-5 2.5907-0.42225 4.4764-1.2667 5.657-0.84447 1.1806-1.898 1.7709-3.1605 1.7709-1.033 0-2.025-0.38943-2.976-1.1683-0.95104-0.77885-1.8037-2.8654-2.5579-6.2595l-2.1152-9.543-7.3294 16.627h-4.6485l10.527-22.677c-0.5575-2.935-1.2298-5.1076-2.0168-6.5178-0.78706-1.4101-1.7627-2.1152-2.9269-2.1152-0.93463 3.4e-5 -1.7504 0.35666-2.4472 1.0699-0.69687 0.7133-1.0863 1.816-1.1683 3.3081h-0.88544c0.04919-2.4103 0.5329-4.3411 1.4511-5.7922 0.91822-1.4511 2.066-2.1767 3.4434-2.1767 0.88543 3.4e-5 1.7258 0.36486 2.521 1.0945 0.79524 0.7297 1.4839 1.9759 2.066 3.7385 0.58208 1.7627 1.488 5.4151 2.7178 10.957l1.7463 7.7968c0.70505 3.2302 1.447 5.3905 2.2259 6.4809 0.77884 1.0904 1.7094 1.6356 2.7916 1.6356 1.8364 0 2.8776-1.2954 3.1236-3.8861z" fill="#fff"/>
</svg>
