<?xml version="1.0" encoding="UTF-8" standalone="no"?>
<svg
   xmlns:dc="http://purl.org/dc/elements/1.1/"
   xmlns:cc="http://creativecommons.org/ns#"
   xmlns:rdf="http://www.w3.org/1999/02/22-rdf-syntax-ns#"
   xmlns:svg="http://www.w3.org/2000/svg"
   xmlns="http://www.w3.org/2000/svg"
   xmlns:sodipodi="http://sodipodi.sourceforge.net/DTD/sodipodi-0.dtd"
   xmlns:inkscape="http://www.inkscape.org/namespaces/inkscape"
   width="64"
   height="64"
   version="1.1"
   viewBox="0 0 16.933 16.933"
   id="svg16"
   sodipodi:docname="emacs.svg"
   inkscape:version="1.0.1 (3bc2e813f5, 2020-09-07)">
  <metadata
     id="metadata20">
    <rdf:RDF>
      <cc:Work
         rdf:about="">
        <dc:format>image/svg+xml</dc:format>
        <dc:type
           rdf:resource="http://purl.org/dc/dcmitype/StillImage" />
        <dc:title></dc:title>
      </cc:Work>
    </rdf:RDF>
  </metadata>
  <sodipodi:namedview
     pagecolor="#ffffff"
     bordercolor="#666666"
     borderopacity="1"
     objecttolerance="10"
     gridtolerance="10"
     guidetolerance="10"
     inkscape:pageopacity="0"
     inkscape:pageshadow="2"
     inkscape:window-width="1920"
     inkscape:window-height="1004"
     id="namedview18"
     showgrid="false"
     inkscape:zoom="3.2460937"
     inkscape:cx="-8.0860823"
     inkscape:cy="-6.2784561"
     inkscape:window-x="0"
     inkscape:window-y="0"
     inkscape:window-maximized="1"
     inkscape:current-layer="svg16"
     inkscape:document-rotation="0" />
  <defs
     id="defs7">
    <linearGradient
       id="linearGradient904"
       x1="8.0618"
       x2="8.0618"
       y1="15.142"
       y2="1.4674"
       gradientUnits="userSpaceOnUse"
       gradientTransform="translate(0.71000061,-3.4026029)">
      <stop
         stop-color="#2858e4"
         offset="0"
         id="stop2" />
      <stop
         stop-color="#5ab9f4"
         offset="1"
         id="stop4" />
    </linearGradient>
    <linearGradient
       id="e"
       x1="105.41"
       x2="105.41"
       y1="-101.99"
       y2="308.4"
       gradientUnits="userSpaceOnUse">
      <stop
         stop-color="#fff"
         offset="0"
         id="stop845" />
      <stop
         stop-color="#d7d7d7"
         offset="1"
         id="stop847" />
    </linearGradient>
    <linearGradient
       id="linearGradient862-3"
       x1="7.9373"
       x2="7.9373"
       y1="15.081"
       y2="1.852"
       gradientTransform="scale(3.7796)"
       gradientUnits="userSpaceOnUse">
      <stop
         stop-color="#427fff"
         offset="0"
         id="stop850" />
      <stop
         stop-color="#59e3ff"
         offset="1"
         id="stop852" />
    </linearGradient>
    <linearGradient
       id="b"
       x1="399.57"
       x2="399.57"
       y1="545.8"
       y2="517.8"
       gradientTransform="matrix(2.1429,0,0,2.1429,-826.36,-1107.5)"
       gradientUnits="userSpaceOnUse">
      <stop
         stop-color="#3889e9"
         offset="0"
         id="stop2-36" />
      <stop
         stop-color="#5ea5fb"
         offset="1"
         id="stop4-7" />
    </linearGradient>
    <linearGradient
       id="a"
       x1="399.99"
       x2="399.99"
       y1="545.14"
       y2="518.14"
       gradientTransform="matrix(2.1429,0,0,2.1429,-826.36,-1107.5)"
       gradientUnits="userSpaceOnUse">
      <stop
         stop-color="#197ff1"
         offset="0"
         id="stop7" />
      <stop
         stop-color="#21c6fb"
         offset="1"
         id="stop9" />
    </linearGradient>
    <filter
       id="c"
       x="-.036"
       y="-.036"
       width="1.072"
       height="1.072"
       color-interpolation-filters="sRGB">
      <feGaussianBlur
         stdDeviation="0.41999874"
         id="feGaussianBlur12" />
    </filter>
    <filter
       id="d"
       x="-.038118"
       y="-.034105"
       width="1.0762"
       height="1.0682"
       color-interpolation-filters="sRGB">
      <feGaussianBlur
         stdDeviation="0.22736867"
         id="feGaussianBlur15" />
    </filter>
    <linearGradient
       gradientUnits="userSpaceOnUse"
       gradientTransform="matrix(.91667 0 0 .91667 .70544 -16.228)"
       y2="0.56832188"
       y1="13.415262"
       x2="3.9686999"
       x1="3.9686999"
       id="linearGradient1448">
      <stop
         style="stop-color:#1eaff0;stop-opacity:1"
         id="stop2-3"
         offset="0"
         stop-color="#144bb4" />
      <stop
         style="stop-color:#1464c8;stop-opacity:1"
         id="stop4-6"
         offset="1"
         stop-color="#00c8ff" />
    </linearGradient>
    <filter
       color-interpolation-filters="sRGB"
       height="1.054"
       width="1.054"
       y="-.027"
       x="-.027"
       id="filter861">
      <feGaussianBlur
         id="feGaussianBlur7"
         stdDeviation="0.16371" />
    </filter>
    <style
       id="style4"
       type="text/css" />
    <filter
       color-interpolation-filters="sRGB"
       height="1.048"
       width="1.048"
       y="-.024"
       x="-.024"
       id="filter2761">
      <feGaussianBlur
         id="feGaussianBlur6"
         stdDeviation="0.14552168" />
    </filter>
    <linearGradient
       gradientUnits="userSpaceOnUse"
       gradientTransform="matrix(3.7796,0,0,3.7796,110.07575,0.53066)"
       y2="1.1082"
       y1="15.429"
       x2="15.644"
       x1="1.2573"
       id="linearGradient4673">
      <stop
         id="stop9-36"
         offset="0"
         stop-color="#32dcff" />
      <stop
         id="stop11"
         offset="1"
         stop-color="#3296ff" />
    </linearGradient>
    <linearGradient
       gradientUnits="userSpaceOnUse"
       gradientTransform="matrix(1.0000066,0,0,1.0000066,19.187825,0)"
       y2="1.0583"
       y1="6.879"
       x2="7.9373"
       x1="7.9373"
       id="linearGradient865">
      <stop
         id="stop2-7"
         offset="0"
         stop-color="#fff" />
      <stop
         id="stop4-53"
         offset="1"
         stop-color="#fcc" />
    </linearGradient>
    <linearGradient
       gradientTransform="translate(19.187825)"
       gradientUnits="userSpaceOnUse"
       y2="3.9327"
       y1="14.579"
       x2="12.314"
       x1="2.6278"
       id="linearGradient855">
      <stop
         id="stop7-5"
         offset="0"
         stop-color="#d462aa" />
      <stop
         id="stop9-3"
         offset=".15178"
         stop-color="#56c7d9" />
      <stop
         id="stop11-6"
         offset=".33294"
         stop-color="#2da8b8" />
      <stop
         id="stop13"
         offset=".53353"
         stop-color="#72cb6b" />
      <stop
         id="stop15"
         offset=".71019"
         stop-color="#c4dc2b" />
      <stop
         id="stop17"
         offset=".8623"
         stop-color="#f9da3e" />
      <stop
         id="stop19"
         offset="1"
         stop-color="#f69429" />
    </linearGradient>
    <linearGradient
       gradientUnits="userSpaceOnUse"
       gradientTransform="matrix(0.26458,0,0,0.26458,19.187825,0)"
       y2="6.9915"
       y1="19"
       x2="57.008"
       x1="45"
       id="linearGradient910">
      <stop
         id="stop22"
         offset="0"
         stop-color="#fff" />
      <stop
         id="stop24"
         offset="1"
         stop-color="#ffe3cc" />
    </linearGradient>
    <style
       type="text/css"
       id="style872" />
    <filter
       id="filter2761-7"
       x="-.024"
       y="-.024"
       width="1.048"
       height="1.048"
       color-interpolation-filters="sRGB">
      <feGaussianBlur
         stdDeviation="0.14552168"
         id="feGaussianBlur874" />
    </filter>
    <style
       id="style4-5"
       type="text/css" />
    <style
       id="style6"
       type="text/css" />
    <style
       id="style8"
       type="text/css" />
    <filter
       color-interpolation-filters="sRGB"
       height="1.048"
       width="1.048"
       y="-.024"
       x="-.024"
       id="filter2761-36">
      <feGaussianBlur
         id="feGaussianBlur10"
         stdDeviation="0.14552168" />
    </filter>
    <linearGradient
       gradientUnits="userSpaceOnUse"
       gradientTransform="matrix(3.7796,0,0,3.7796,111.78704,0.53107)"
       y2="1.17"
       y1="15.576"
       x2="15.65"
       x1="1.3315"
       id="linearGradient1024-6">
      <stop
         id="stop13-7"
         offset="0"
         stop-color="#00dc96" />
      <stop
         id="stop15-5"
         offset="1"
         stop-color="#14d29b" />
    </linearGradient>
    <linearGradient
       gradientUnits="userSpaceOnUse"
       gradientTransform="matrix(0.27476,0,0,0.27476,-24.952118,-0.32515)"
       y2="12.461"
       y1="57.955"
       x2="45.628"
       x1="45.628"
       id="b-6">
      <stop
         id="stop2-3-2"
         offset="0" />
      <stop
         id="stop4-5"
         offset="1"
         stop-opacity="0" />
    </linearGradient>
    <style
       type="text/css"
       id="style872-0" />
    <style
       type="text/css"
       id="style874" />
    <style
       type="text/css"
       id="style876" />
    <filter
       id="filter2761-3"
       x="-.024"
       y="-.024"
       width="1.048"
       height="1.048"
       color-interpolation-filters="sRGB">
      <feGaussianBlur
         stdDeviation="0.14552168"
         id="feGaussianBlur878" />
    </filter>
    <linearGradient
       id="linearGradient1024-6-6"
       x1="1.3315"
       x2="15.65"
       y1="15.576"
       y2="1.17"
       gradientTransform="matrix(3.7796,0,0,3.7796,-0.0020773,0.53047)"
       gradientUnits="userSpaceOnUse">
      <stop
         stop-color="#00dc96"
         offset="0"
         id="stop881" />
      <stop
         stop-color="#14d29b"
         offset="1"
         id="stop883" />
    </linearGradient>
    <style
       type="text/css"
       id="style912" />
    <filter
       id="filter11290"
       x="-.024"
       y="-.024"
       width="1.048"
       height="1.048"
       color-interpolation-filters="sRGB">
      <feGaussianBlur
         stdDeviation="0.15875313"
         id="feGaussianBlur914" />
    </filter>
    <linearGradient
       id="linearGradient1005"
       x1=".8714"
       x2="16.246"
       y1="16.164"
       y2=".78937"
       gradientTransform="translate(-0.035138,0.0065693)"
       gradientUnits="userSpaceOnUse">
      <stop
         stop-color="#00c8ff"
         offset="0"
         id="stop917" />
      <stop
         stop-color="#14a0ff"
         offset="1"
         id="stop919" />
    </linearGradient>
  </defs>
  <circle
     cx="8.4665003"
     cy="8.4665003"
     r="7.9376998"
     filter="url(#filter11290)"
     opacity="0.25"
     stroke-width="0.14032"
     id="circle936" />
  <path
     d="m 16.403949,8.4666191 c 0,0.9515288 -0.167491,1.8638999 -0.474653,2.7092799 -0.213509,0.587681 -0.49439,1.143295 -0.833923,1.657212 -0.142222,0.216081 -0.295137,0.424753 -0.457456,0.625277 -0.519658,0.641787 -1.13721,1.200708 -1.83051,1.654301 -0.2553,0.167179 -0.520637,0.320087 -0.795349,0.457112 -1.066805,0.533892 -2.271112,0.834215 -3.545611,0.834215 -1.274499,0 -2.478806,-0.300323 -3.545611,-0.834242 C 4.646098,15.432723 4.380435,15.279797 4.125143,15.112663 3.423085,14.652932 2.798152,14.085253 2.274234,13.432856 2.111603,13.230697 1.958989,13.020114 1.816779,12.802076 1.486321,12.296678 1.212562,11.751383 1.00328,11.175079 0.696158,10.329778 0.528971,9.4177775 0.528971,8.4665927 c 0,-4.3837944 3.553814,-7.9376084 7.937608,-7.9376084 2.200497,0 4.191712,0.895491 5.629429,2.341702 0.414356,0.416631 0.782728,0.879299 1.096306,1.37951 0.29646,0.471081 0.54429,0.9758171 0.737035,1.5067989 0.307175,0.8455917 0.47468,1.75791 0.47468,2.70928 z"
     fill="url(#linearGradient1005)"
     stroke-width="0.0310059"
     id="path938"
     style="fill:url(#linearGradient1005)" />
  <path
     id="path44_12_"
     d="m6.9348 12.7s0.46925 0.0075 1.0663-0.08095c0.24164-0.03674 1.1583-0.1834 1.8379-0.37845 0 0 0.82888-0.23507 1.2665-0.43221 0.4585-0.2058 0.70432-0.37307 0.80379-0.5947 0.03584-0.07438 0.07856-0.31034-0.2506-0.4119-0.52152-0.15323-1.1658-0.08184-2.4436 0.04481-1.4179 0.030764-1.9057-0.18668-2.1703-0.36859-0.25479-0.18609-0.17354-0.74494 0.82111-1.2901 0.50001-0.28884 2.4989-0.88354 2.4989-0.88354-0.7097-0.31004-2.0308-0.85068-2.3026-0.96837-0.23866-0.10275-0.61949-0.25688-0.71448-0.46387-0.10514-0.19833 0.18668-0.39099 0.35246-0.45103 0.53586-0.19385 1.3014-0.33962 2.0042-0.39159 0.35336-0.025389 0.40921-0.052869 0.40921-0.052869 0.48179-0.11141 0.7781-0.47433 0.60516-1.012-0.1607-0.5496-0.81723-0.84082-1.4119-0.69267-0.55886 0.13919-1.8964 0.62696-1.8964 0.62696 1.6885-0.11201 1.9729-0.098868 2.1124 0.075868 0.08244 0.10305-0.015234 0.25718-0.46029 0.35873-0.48508 0.11111-1.4971 0.26882-1.4971 0.26882-0.97404 0.11589-1.6625 0.1598-1.837 0.62308-0.11321 0.30258 0.184 0.54721 0.31841 0.70343 0.55916 0.56304 1.3286 0.84023 1.8262 1.0478 0.18728 0.078258 0.72941 0.21536 0.72941 0.21536-1.5649 8.961e-4 -2.6536 0.55886-3.2722 1.1652-0.69476 0.7551-0.30347 1.5843 1.2617 2.0192 0.88981 0.21297 1.4018 0.27241 2.7202 0.17414 0.78975-0.0896 0.91669-0.0702 0.92924-0.0036 0.01822 0.09379-0.85695 0.37964-1.0953 0.46626-0.60605 0.21954-2.2032 0.68461-2.2112 0.6867z"
     fill="#fff"
     stroke-width=".29869" />
  <circle
     id="circle16"
     fill="#5e4aa6"
     r="0"
     cy="-348.55322"
     cx="-316.51096"
     style="stroke-width:0.264578" />
  <g
     id="g26"
     stroke-width="0.26458"
     fill="#5e4aa6"
     transform="translate(13.84925,-20.181067)">
    <circle
       id="circle18"
       r="0"
       cy="-338.76999"
       cx="-299.01999" />
    <circle
       id="circle20"
       fill-rule="evenodd"
       r="0"
       cy="-3.9487"
       cx="-8.1062002" />
    <circle
       id="circle22"
       r="0"
       cy="-357.69"
       cx="-278.25" />
    <circle
       id="circle24"
       fill-rule="evenodd"
       r="0"
       cy="-22.858999"
       cx="12.663" />
  </g>
  <circle
     cx="-326.27762"
     cy="-353.29883"
     r="0"
     fill="#5e4aa6"
     id="circle924"
     style="stroke-width:0.264578" />
  <g
     transform="translate(4.0825706,-24.926663)"
     fill="#5e4aa6"
     stroke-width="0.26458"
     id="g934">
    <circle
       cx="-299.01999"
       cy="-338.76999"
       r="0"
       id="circle926" />
    <circle
       cx="-8.1062002"
       cy="-3.9487"
       r="0"
       fill-rule="evenodd"
       id="circle928" />
    <circle
       cx="-278.25"
       cy="-357.69"
       r="0"
       id="circle930" />
    <circle
       cx="12.663"
       cy="-22.858999"
       r="0"
       fill-rule="evenodd"
       id="circle932" />
  </g>
  <g
     transform="translate(-28.707337,-14.817512)"
     fill="#5e4aa6"
     stroke-width="0.26458"
     id="g948">
    <circle
       cx="-330.35001"
       cy="-328.38"
       r="0"
       id="circle940" />
    <circle
       cx="-312.10999"
       cy="-326.25"
       r="0"
       id="circle942" />
    <circle
       cx="-306.01999"
       cy="-333.07001"
       r="0"
       id="circle944" />
    <circle
       cx="-308.84"
       cy="-326.01001"
       r="0"
       id="circle946" />
  </g>
</svg>
