<?xml version="1.0" encoding="UTF-8"?>
<svg width="64" height="64" version="1.1" viewBox="0 0 16.933 16.933" xmlns="http://www.w3.org/2000/svg" xmlns:cc="http://creativecommons.org/ns#" xmlns:dc="http://purl.org/dc/elements/1.1/" xmlns:rdf="http://www.w3.org/1999/02/22-rdf-syntax-ns#" xmlns:xlink="http://www.w3.org/1999/xlink">
 <defs>
  <filter id="filter11290-2-6" x="-.024" y="-.024" width="1.048" height="1.048" color-interpolation-filters="sRGB">
   <feGaussianBlur stdDeviation="0.15875313"/>
  </filter>
  <linearGradient id="linearGradient1005-56" x1=".8714" x2="16.246" y1="16.164" y2=".78937" gradientTransform="matrix(1 0 0 1 -.035242 .0064543)" gradientUnits="userSpaceOnUse">
   <stop stop-color="#00c8ff" offset="0"/>
   <stop stop-color="#14a0ff" offset="1"/>
  </linearGradient>
  <linearGradient id="linearGradient2703" x1=".73911" x2="16.388" y1="16.296" y2=".64687" gradientTransform="matrix(.5 0 0 .5 8.185 8.2055)" gradientUnits="userSpaceOnUse">
   <stop stop-color="#dddfe1" offset="0"/>
   <stop stop-color="#f3f4f6" offset="1"/>
  </linearGradient>
  <linearGradient id="linearGradient2705" x1="-25.122" x2="-15.582" y1="9.3424" y2="9.3424" gradientTransform="matrix(.83183 0 0 .83183 29.343 4.6254)" gradientUnits="userSpaceOnUse">
   <stop stop-color="#407fff" offset="0"/>
   <stop stop-color="#ff407a" offset="1"/>
  </linearGradient>
  <linearGradient id="linearGradient2707" x1="-20.384" x2="-23.272" y1="6.1331" y2="15.312" gradientTransform="matrix(.83183 0 0 .83183 30.543 4.774)" gradientUnits="userSpaceOnUse">
   <stop stop-color="#232323" offset="0"/>
   <stop stop-color="#323296" offset=".95004"/>
   <stop stop-color="#232323" offset="1"/>
  </linearGradient>
  <radialGradient id="radialGradient2709" cx="-24.473" cy="9.8348" r="1.5211" gradientTransform="matrix(1.0874 0 0 1.0874 39.041 1.6712)" gradientUnits="userSpaceOnUse">
   <stop stop-color="#291dc0" offset="0"/>
   <stop stop-color="#1b1b23" offset="1"/>
  </radialGradient>
  <linearGradient id="linearGradient2711" x1="-36.117" x2="-33.22" y1="10.638" y2="7.7404" gradientTransform="matrix(1.1682 0 0 1.1682 52.93 1.6276)" gradientUnits="userSpaceOnUse">
   <stop offset="0"/>
   <stop stop-opacity="0" offset="1"/>
  </linearGradient>
  <radialGradient id="radialGradient123131" cx="-24.473" cy="9.8348" r="1.1409" gradientTransform="matrix(1.6591 0 0 1.228 52.994 .28755)" gradientUnits="userSpaceOnUse" xlink:href="#a-9"/>
  <linearGradient id="a-9" x1="23.487" x2="23.487" y1="15.18" y2="32.913" gradientTransform="matrix(.12676 0 0 .12676 -27.515 6.7925)" gradientUnits="userSpaceOnUse">
   <stop stop-color="#141414" offset="0"/>
   <stop stop-color="#30277f" offset="1"/>
  </linearGradient>
  <linearGradient id="linearGradient2713" x1="-24.478" x2="-24.478" y1="11.104" y2="8.4912" gradientTransform="matrix(1.1682 0 0 1.1682 40.98 .87634)" gradientUnits="userSpaceOnUse">
   <stop stop-color="#2d1edc" offset="0"/>
   <stop stop-color="#141414" offset="1"/>
  </linearGradient>
  <radialGradient id="radialGradient123155" cx="-24.473" cy="9.8348" r="1.1409" gradientTransform="matrix(1.3321 0 0 .98604 44.991 2.6681)" gradientUnits="userSpaceOnUse" xlink:href="#a-9"/>
  <linearGradient id="linearGradient123157" x1="-24.478" x2="-24.478" y1="11.104" y2="8.4912" gradientTransform="matrix(.93797 0 0 .93797 35.345 3.1408)" gradientUnits="userSpaceOnUse" xlink:href="#a-9"/>
  <radialGradient id="radialGradient2715" cx="24.047" cy="23.949" r="2.9867" gradientTransform="matrix(.24019 -4.3854e-8 3.3214e-8 .1819 6.66 8.0015)" gradientUnits="userSpaceOnUse">
   <stop stop-color="#2839e6" offset="0"/>
   <stop stop-opacity="0" offset="1"/>
  </radialGradient>
  <linearGradient id="linearGradient123141" x1="-24.485" x2="-24.485" y1="8.6962" y2="9.7506" gradientTransform="matrix(1.1682 0 0 1.1682 41.019 .87634)" gradientUnits="userSpaceOnUse" xlink:href="#d-6"/>
  <linearGradient id="d-6" x1="361.36" x2="361.36" y1="616.07" y2="722.79" gradientTransform="matrix(.0040372 0 0 .0040372 -25.925 7.1257)" gradientUnits="userSpaceOnUse">
   <stop stop-color="#fff" offset="0"/>
   <stop stop-color="#fff" stop-opacity="0" offset="1"/>
  </linearGradient>
  <linearGradient id="linearGradient123161" x1="361.36" x2="361.36" y1="616.07" y2="722.79" gradientTransform="matrix(.0047164 0 0 .0047164 10.731 9.2008)" gradientUnits="userSpaceOnUse" xlink:href="#d-6"/>
 </defs>
 <metadata>
  <rdf:RDF>
   <cc:Work rdf:about="">
    <dc:format>image/svg+xml</dc:format>
    <dc:type rdf:resource="http://purl.org/dc/dcmitype/StillImage"/>
    <dc:title/>
   </cc:Work>
  </rdf:RDF>
 </metadata>
 <circle transform="scale(1)" cx="8.4665" cy="8.4665" r="7.9377" filter="url(#filter11290-2-6)" opacity=".25" stroke-width=".14032"/>
 <path d="m16.404 8.4667c0 0.95155-0.16749 1.8639-0.47466 2.7094-0.21351 0.58769-0.4944 1.1433-0.83394 1.6572-0.14222 0.21608-0.29515 0.42476-0.45747 0.62529-0.51967 0.6418-1.1372 1.2007-1.8305 1.6543-0.2553 0.16718-0.52065 0.3201-0.79537 0.45712-1.0668 0.5339-2.2711 0.83424-3.5457 0.83424-1.2745 0-2.4788-0.30033-3.5457-0.83426-0.27475-0.13705-0.54041-0.28999-0.79571-0.45712-0.70207-0.45974-1.327-1.0274-1.8509-1.6798-0.16263-0.20216-0.31525-0.41275-0.45747-0.63079-0.33047-0.50541-0.60423-1.0507-0.81352-1.627-0.30713-0.84532-0.47432-1.7573-0.47432-2.7086 0-4.3839 3.5539-7.9378 7.9378-7.9378 2.2005 0 4.1918 0.89551 5.6295 2.3417 0.41437 0.41664 0.78275 0.87932 1.0963 1.3795 0.29647 0.47109 0.5443 0.97584 0.73705 1.5068 0.30719 0.84561 0.47469 1.7579 0.47469 2.7094z" fill="url(#linearGradient1005-56)" stroke-width=".031007"/>
 <g fill="#fff">
  <path d="m7.3951 6.3867c-0.64352 0.0033901-1.7488 0.19636-2.3678 0.53382-0.37643 0.16778-0.79878 0.38127-1.2707 0.6532-0.47197 0.27194-0.99356 0.60187-1.5678 1.0015-0.47794 0.33258-1.0018 0.72622-1.5549 1.1622 0.079842 0.49583 0.20419 0.977 0.37156 1.4376 0.20929 0.57631 0.48292 1.1213 0.81339 1.6267 0.14222 0.21803 0.29523 0.42881 0.45786 0.63098 0.5239 0.65241 1.1484 1.2202 1.8505 1.68 0.2553 0.16715 0.52107 0.31978 0.79582 0.45683 1.0668 0.53393 2.2715 0.83458 3.546 0.83458 1.2745 1e-6 2.4787-0.30068 3.5457-0.83458 0.27472-0.13702 0.53999-0.28964 0.79529-0.45683 0.34962-0.22874 0.67979-0.48435 0.98806-0.76378-0.2947-0.23736-0.61425-0.48427-0.986-0.74154-0.54779-0.37915-1.1768-0.76758-1.881-1.1301-0.70424-0.36259-1.4623-0.78314-2.1528-1.2449-0.34529-0.23086-0.67392-0.47186-0.97049-0.72141s-0.5611-0.50787-0.77878-0.77206c-0.21764-0.26418-0.3886-0.53451-0.49713-0.80926-0.10854-0.27475-0.15426-0.55385-0.1235-0.83508 0.030761-0.28122 0.13873-0.56433 0.33899-0.84802 0.20025-0.28366 0.4925-0.56753 0.89244-0.84955-0.070321-0.0073801-0.1525-0.010819-0.24442-0.010334z" enable-background="new" stroke-width="1.1404"/>
  <path d="m7.6392 6.3964c-0.39915 0.28147-0.69119 0.56491-0.89141 0.84802-3.97e-4 5.821e-4 -0.0012 9.79e-4 -0.0016 0.00156-1.21e-4 1.699e-4 1.18e-4 8.732e-4 0 0.00103-0.19279 0.27324-0.2916 0.54546-0.32661 0.81648-0.0062 0.0685-0.02329 0.16568-0.02067 0.23822 0.0019 0.16329 0.033561 0.32573 0.082682 0.48678 0.049561 0.16003 0.13145 0.34142 0.23047 0.51676 0.061191 0.10388 0.13773 0.21863 0.21445 0.32092 0.10015 0.13996 0.23269 0.27152 0.36846 0.42013 0.15635 0.16149 0.32745 0.30867 0.5121 0.46405 0.083072 0.06991 0.17892 0.14904 0.26664 0.21755 0.17447 0.13039 0.21992 0.17037 0.53742 0.39069 0.32515 0.22559 0.70789 0.48149 1.0991 0.71882 0.39812 0.2306 0.86072 0.46905 1.2464 0.66765 0.74054 0.39029 1.4246 0.81521 2.0376 1.2433 0.26835 0.18809 0.53557 0.39201 0.80098 0.60256 0.30396-0.2753 0.58661-0.57396 0.8449-0.89297 0.16232-0.20054 0.31563-0.40921 0.45786-0.62529 0.33954-0.5139 0.62002-1.0696 0.83355-1.6572 0.09994-0.27512 0.1838-0.55763 0.25322-0.84596-0.57273-0.26998-1.1606-0.55057-1.7177-0.86455-0.54234-0.3057-1.876-1.1248-3.2608-1.8417-0.69239-0.35843-1.3972-0.69125-2.0226-0.92139-0.5393-0.17223-1.0005-0.25702-1.5446-0.30541z" enable-background="new" opacity=".6" stroke-width="1.1404"/>
  <circle cx="10.866" cy="3.5628" r="1.1245" stroke-width=".26458"/>
 </g>
 <path d="m16.404 12.436c0 0.47577-0.08375 0.93194-0.23732 1.3547-0.10676 0.29384-0.2472 0.57165-0.41697 0.82864-0.07111 0.10804-0.14757 0.21237-0.22873 0.31264-0.25983 0.3209-0.5686 0.60035-0.91527 0.82714-0.12765 0.08359-0.26033 0.16005-0.39768 0.22856-0.5334 0.26694-1.1356 0.41711-1.7728 0.41711s-1.2394-0.15016-1.7728-0.41712c-0.13737-0.06852-0.2702-0.14498-0.39785-0.22856-0.35104-0.22986-0.6635-0.5137-0.92547-0.83987-0.08132-0.10108-0.15762-0.20637-0.22873-0.31539-0.16523-0.2527-0.3021-0.52535-0.40675-0.81352-0.15356-0.42264-0.23715-0.87865-0.23715-1.3543 0-2.1919 1.7769-3.9688 3.9688-3.9688 1.1002 0 2.0959 0.44774 2.8147 1.1709 0.20718 0.20831 0.39137 0.43964 0.54815 0.68975 0.14823 0.23554 0.27214 0.48791 0.36852 0.75338 0.15359 0.4228 0.23734 0.87895 0.23734 1.3547z" fill="url(#linearGradient2703)" stroke-width=".015503"/>
 <circle cx="12.436" cy="12.436" r="3.7947" fill="none" stroke="url(#linearGradient2705)" stroke-dashoffset=".42096" stroke-width=".34796"/>
 <circle cx="12.436" cy="12.436" r="3.0949" fill="url(#linearGradient2707)" stroke="#131313" stroke-dashoffset=".42096" stroke-linecap="round" stroke-width=".088033"/>
 <g fill="none" stroke="#131313" stroke-linecap="round" stroke-width=".088033">
  <path d="m12.599 13.969s-1.6515 0.75599-3.1344-0.70347"/>
  <path d="m13.968 11.822s1.1577 1.3996 0.13174 3.2096"/>
  <path d="m11.431 11.107s1.0523-1.4805 3.0662-0.95794"/>
 </g>
 <circle cx="12.429" cy="12.366" r="1.6541" fill="url(#radialGradient2709)" stroke="url(#linearGradient2711)" stroke-width=".098362"/>
 <circle cx="12.39" cy="12.366" r="1.3328" fill="url(#radialGradient123131)" stroke="url(#linearGradient2713)" stroke-width=".092726"/>
 <circle cx="12.39" cy="12.366" r="1.0701" fill="url(#radialGradient123155)" stroke="url(#linearGradient123157)" stroke-width=".07445"/>
 <circle cx="12.436" cy="12.358" r=".53366" fill-opacity=".58824" stroke-width="1.8986"/>
 <circle cx="12.436" cy="12.358" r=".44229" fill="url(#radialGradient2715)" stroke-width="2.3602"/>
 <ellipse cx="12.414" cy="11.702" rx=".83805" ry=".62107" fill="#fafafa" opacity=".3" stroke="url(#linearGradient123141)" stroke-width=".092726"/>
 <circle cx="12.436" cy="12.358" r=".25167" fill="url(#linearGradient123161)" opacity=".15" stroke-width="1.6044"/>
</svg>
