<?xml version="1.0" encoding="UTF-8"?>
<svg width="64" height="64" version="1.1" viewBox="0 0 64 64" xmlns="http://www.w3.org/2000/svg" xmlns:cc="http://creativecommons.org/ns#" xmlns:dc="http://purl.org/dc/elements/1.1/" xmlns:rdf="http://www.w3.org/1999/02/22-rdf-syntax-ns#">
 <metadata>
  <rdf:RDF>
   <cc:Work rdf:about="">
    <dc:format>image/svg+xml</dc:format>
    <dc:type rdf:resource="http://purl.org/dc/dcmitype/StillImage"/>
   </cc:Work>
  </rdf:RDF>
 </metadata>
 <defs>
  <filter id="filter11290-3" x="-.024" y="-.024" width="1.048" height="1.048" color-interpolation-filters="sRGB">
   <feGaussianBlur stdDeviation="0.15875313"/>
  </filter>
  <linearGradient id="linearGradient1005-6" x1=".73911" x2="16.388" y1="16.296" y2=".64687" gradientTransform="matrix(3.7796 0 0 3.7796 34.829 23.798)" gradientUnits="userSpaceOnUse">
   <stop stop-color="#323741" offset="0"/>
   <stop stop-color="#465064" offset="1"/>
  </linearGradient>
 </defs>
 <linearGradient id="a" x1="471.24" x2="471.24" y1="470.25" y2="427.7" gradientTransform="matrix(1.3664 0 0 1.3664 -727.5 -583.3)" gradientUnits="userSpaceOnUse">
  <stop stop-color="#3889e9" offset="0"/>
  <stop stop-color="#5ea5fb" offset="1"/>
 </linearGradient>
 <circle cx="-81.515" cy="30.183" r="0" fill="url(#a)" stroke-width="1.3664"/>
 <g transform="translate(-34.961 -23.774)">
  <circle transform="matrix(3.7796 0 0 3.7796 34.858 23.798)" cx="8.4937" cy="8.46" r="7.9377" filter="url(#filter11290-3)" opacity=".25" stroke-width=".14032"/>
  <path d="m96.959 55.773c0 3.5964-0.63305 7.0449-1.794 10.24-0.80698 2.2212-1.8686 4.3212-3.1519 6.2636-0.53754 0.8167-1.1155 1.6054-1.729 2.3633-1.9641 2.4257-4.2982 4.5382-6.9186 6.2526-0.96495 0.63187-1.9678 1.2099-3.0062 1.7277-4.0321 2.0179-8.5839 3.153-13.401 3.153-4.8171 0-9.369-1.1351-13.401-3.1531-1.0384-0.518-2.0425-1.096-3.0074-1.7277-2.6535-1.7376-5.0155-3.8832-6.9957-6.349-0.61468-0.76408-1.1915-1.56-1.729-2.3841-1.249-1.9102-2.2837-3.9712-3.0747-6.1494-1.1608-3.1949-1.7927-6.6419-1.7927-10.237 0-16.569 13.432-30.001 30.001-30.001 8.3171 0 15.843 3.3846 21.277 8.8508 1.5661 1.5747 2.9584 3.3234 4.1436 5.214 1.1205 1.7805 2.0572 3.6882 2.7857 5.6951 1.161 3.196 1.7941 6.6442 1.7941 10.24z" fill="url(#linearGradient1005-6)" stroke-width=".11719"/>
  <g stroke-width=".97722">
   <path d="m60.469 62.346a6.596 6.596 0 0 0-6.596 6.596 6.596 6.596 0 0 0 6.596 6.596 6.596 6.596 0 0 0 6.596-6.596v-6.596z" fill="#09c37b"/>
   <path d="m60.469 49.153h6.596v13.192h-6.596c-3.6542 0-6.596-2.9419-6.596-6.596 0-3.6542 2.9418-6.596 6.596-6.596z" fill="#9154dd"/>
   <circle cx="73.661" cy="55.747" r="6.596" fill="#01b1f8"/>
   <path d="m60.469 35.96c-3.6542 0-6.596 2.9418-6.596 6.596 0 3.6542 2.9418 6.596 6.596 6.596h6.596v-13.192z" fill="#f24e1e"/>
   <path d="m67.065 35.96h6.596c3.6542 0 6.596 2.9418 6.596 6.596 0 3.6542-2.9418 6.596-6.596 6.596h-6.596z" fill="#ff7262"/>
  </g>
 </g>
</svg>
