<?xml version="1.0" encoding="UTF-8"?>
<!-- Created with Inkscape (http://www.inkscape.org/) -->
<svg width="64" height="64" version="1.1" viewBox="0 0 16.933 16.933" xmlns="http://www.w3.org/2000/svg" xmlns:cc="http://creativecommons.org/ns#" xmlns:dc="http://purl.org/dc/elements/1.1/" xmlns:rdf="http://www.w3.org/1999/02/22-rdf-syntax-ns#">
 <defs>
  <filter id="filter11290" x="-.024" y="-.024" width="1.048" height="1.048" color-interpolation-filters="sRGB">
   <feGaussianBlur stdDeviation="0.15875313"/>
  </filter>
 </defs>
 <metadata>
  <rdf:RDF>
   <cc:Work rdf:about="">
    <dc:format>image/svg+xml</dc:format>
    <dc:type rdf:resource="http://purl.org/dc/dcmitype/StillImage"/>
    <dc:title/>
   </cc:Work>
  </rdf:RDF>
 </metadata>
 <circle cx="8.4937" cy="8.46" r="7.9377" filter="url(#filter11290)" opacity=".25" stroke-width=".14032"/>
 <path d="m16.439 8.46c0 0.95154-0.16749 1.8639-0.47464 2.7094-0.21351 0.58768-0.49439 1.1433-0.83393 1.6572-0.14222 0.21608-0.29514 0.42475-0.45746 0.62529-0.51966 0.64179-1.1372 1.2007-1.8305 1.6543-0.2553 0.16718-0.52065 0.3201-0.79536 0.45712-1.0668 0.53389-2.2711 0.83421-3.5456 0.83421s-2.4788-0.30032-3.5456-0.83424c-0.27474-0.13705-0.5404-0.28997-0.7957-0.45712-0.70207-0.45973-1.327-1.0274-1.8509-1.6798-0.16263-0.20216-0.31524-0.41275-0.45746-0.63078-0.33046-0.5054-0.60421-1.0507-0.8135-1.627-0.30711-0.84529-0.4743-1.7573-0.4743-2.7085 0-4.3838 3.5537-7.9375 7.9375-7.9375 2.2005 0 4.1917 0.89548 5.6295 2.3417 0.41436 0.41662 0.78274 0.87929 1.0963 1.3795 0.29645 0.47107 0.54428 0.97582 0.73704 1.5068 0.30718 0.84559 0.47467 1.7579 0.47467 2.7094z" fill="#f5aa1e" stroke-width=".031006"/>
 <path d="m7.6223 6.3531c0.26295 0 0.51363-0.076548 0.72603-0.2129 1.095e-4 -7.04e-5 -1.095e-4 -4.498e-4 0-5.292e-4 -0.21241 0.13636-0.46312 0.21342-0.72603 0.21342z" fill="#ffd241" stroke-width=".031006"/>
 <g transform="translate(0 .86072)" fill="#fafafa" stroke-width=".031006">
  <path d="m14.552 5.0953-3.1398-3.1403v2.6184h-5.29e-4c0 0.1441 0.05847 0.27448 0.15296 0.36896 0.09449 0.094481 0.22538 0.15296 0.36949 0.15296h2.6179z" opacity=".6"/>
  <path d="m2.9728 1.9528c-0.28821 0-0.52194 0.23427-0.52194 0.52244v9.732c1.2697 2.001 3.5046 3.3295 6.0502 3.3295 2.5456 0 4.781-1.3285 6.0507-3.3295v-7.1122h-2.6179c-0.1441 0-0.275-0.05848-0.36949-0.15296-0.09449-0.094482-0.15296-0.22486-0.15296-0.36896h5.29e-4v-2.6184l3.1398 3.1403v-0.00206l-3.1403-3.1403h-8.4388zm0.68005 1.5508h4.3515c-0.00241 0.040132-0.00504 0.072511-0.00775 0.11317h-4.3357c-0.0029-0.037639-0.00565-0.075379-0.00827-0.11317zm0 0.84904h4.3515c-0.00241 0.040134-0.00504 0.072511-0.00775 0.11317h-4.3357c-0.0029-0.037639-0.00565-0.075376-0.00827-0.11317zm0 0.84904h4.3515c-0.00241 0.040134-0.00504 0.072511-0.00775 0.11317h-4.3357c-0.0029-0.037639-0.00565-0.075376-0.00827-0.11317zm0 0.84904h4.3515c-0.00241 0.040134-0.00504 0.072511-0.00775 0.11317h-4.3357c-0.0029-0.037639-0.00565-0.075376-0.00827-0.11317z"/>
 </g>
 <path d="m15.964 7.451h-14.926v3.7095c0.20929 0.57631 0.48291 1.1219 0.81337 1.6273 0.14222 0.21803 0.29469 0.42828 0.45733 0.63044 0.52389 0.6524 1.1489 1.2202 1.851 1.68 0.2553 0.16715 0.52106 0.32027 0.7958 0.45733 1.0668 0.53392 2.271 0.83404 3.5454 0.83404 1.2745 0 2.4787-0.30017 3.5454-0.83404 0.27471-0.13702 0.53998-0.29014 0.7953-0.45733 0.69331-0.4536 1.3112-1.0123 1.8309-1.6542 0.16232-0.20054 0.31512-0.4092 0.45733-0.62528 0.33954-0.51389 0.62055-1.0696 0.83404-1.6572z" fill="#ffc841" stroke-width=".031006"/>
 <path d="m15.964 4.5864v3.3469h-14.926v-0.82618c0-0.75555 0.61224-1.3678 1.3678-1.3678h5.2162c0.52589 0 1.0031-0.30649 1.2221-0.78436l0.35961-0.78469c0.16284-0.35514 0.51764-0.58279 0.9081-0.58279h4.8532c0.55159 0 0.99895 0.44738 0.99895 0.99898z" fill="#ffc841" stroke-width=".031006"/>
 <g fill="#5e4aa6" stroke-width=".26458">
  <circle cx="-330.35" cy="-328.38" r="0"/>
  <circle cx="-312.11" cy="-326.25" r="0"/>
  <circle cx="-306.02" cy="-333.07" r="0"/>
  <circle cx="-308.84" cy="-326.01" r="0"/>
  <circle cx="-328.8" cy="-330.45" r="0"/>
 </g>
 <g transform="translate(88.296 -22.829)">
  <circle cx="-79.794" cy="31.289" r="1.2979" fill="#fff"/>
  <circle cx="-79.794" cy="31.289" r=".71327" fill="#f8e597"/>
  <circle cx="-79.794" cy="31.289" r=".29477" fill="#da9d39"/>
 </g>
</svg>
