<?xml version="1.0" encoding="UTF-8" standalone="no"?>
<svg
   xmlns:dc="http://purl.org/dc/elements/1.1/"
   xmlns:cc="http://creativecommons.org/ns#"
   xmlns:rdf="http://www.w3.org/1999/02/22-rdf-syntax-ns#"
   xmlns:svg="http://www.w3.org/2000/svg"
   xmlns="http://www.w3.org/2000/svg"
   xmlns:sodipodi="http://sodipodi.sourceforge.net/DTD/sodipodi-0.dtd"
   xmlns:inkscape="http://www.inkscape.org/namespaces/inkscape"
   inkscape:version="1.0 (4035a4fb49, 2020-05-01)"
   sodipodi:docname="firefox.svg"
   id="svg214"
   viewBox="0 0 16.933 16.933"
   version="1.1"
   height="64"
   width="64">
  <sodipodi:namedview
     inkscape:current-layer="svg214"
     inkscape:window-maximized="1"
     inkscape:window-y="0"
     inkscape:window-x="0"
     inkscape:cy="57.587914"
     inkscape:cx="11.076367"
     inkscape:zoom="4.5906698"
     showgrid="false"
     id="namedview216"
     inkscape:window-height="1000"
     inkscape:window-width="1920"
     inkscape:pageshadow="2"
     inkscape:pageopacity="0"
     guidetolerance="10"
     gridtolerance="10"
     objecttolerance="10"
     borderopacity="1"
     bordercolor="#666666"
     pagecolor="#ffffff" />
  <defs
     id="defs146">
    <filter
       color-interpolation-filters="sRGB"
       height="1.048"
       width="1.048"
       y="-.024"
       x="-.024"
       id="filter11290">
      <feGaussianBlur
         id="feGaussianBlur2"
         stdDeviation="0.15875313" />
    </filter>
    <linearGradient
       gradientUnits="userSpaceOnUse"
       gradientTransform="translate(-.0078552 -5.0139e-5)"
       y2="3.6403"
       y1="16.296"
       x2="13.395"
       x1=".73911"
       id="linearGradient1005">
      <stop
         id="stop5"
         offset="0"
         stop-color="#ff7d1e" />
      <stop
         id="stop7"
         offset="1"
         stop-color="#ff6937" />
    </linearGradient>
    <linearGradient
       gradientUnits="userSpaceOnUse"
       gradientTransform="matrix(0.20505,0,0,0.20505,0.30193,0.47639)"
       y2="74.468"
       y1="12.393"
       x2="6.447"
       x1="70.786"
       id="a-3">
      <stop
         id="stop10"
         offset=".048"
         stop-color="#fff44f" />
      <stop
         id="stop12"
         offset=".111"
         stop-color="#ffe847" />
      <stop
         id="stop14"
         offset=".225"
         stop-color="#ffc830" />
      <stop
         id="stop16"
         offset=".368"
         stop-color="#ff980e" />
      <stop
         id="stop18"
         offset=".401"
         stop-color="#ff8b16" />
      <stop
         id="stop20"
         offset=".462"
         stop-color="#ff672a" />
      <stop
         id="stop22"
         offset=".534"
         stop-color="#ff3647" />
      <stop
         id="stop24"
         offset=".705"
         stop-color="#e31587" />
    </linearGradient>
    <radialGradient
       gradientUnits="userSpaceOnUse"
       gradientTransform="matrix(0.20505,0,0,0.20505,1635.6,1748.4)"
       r="80.797"
       cy="-8515.1"
       cx="-7907.2"
       id="b-1">
      <stop
         id="stop27"
         offset=".129"
         stop-color="#ffbd4f" />
      <stop
         id="stop29"
         offset=".186"
         stop-color="#ffac31" />
      <stop
         id="stop31"
         offset=".247"
         stop-color="#ff9d17" />
      <stop
         id="stop33"
         offset=".283"
         stop-color="#ff980e" />
      <stop
         id="stop35"
         offset=".403"
         stop-color="#ff563b" />
      <stop
         id="stop37"
         offset=".467"
         stop-color="#ff3750" />
      <stop
         id="stop39"
         offset=".71"
         stop-color="#f5156c" />
      <stop
         id="stop41"
         offset=".782"
         stop-color="#eb0878" />
      <stop
         id="stop43"
         offset=".86"
         stop-color="#e50080" />
    </radialGradient>
    <radialGradient
       gradientUnits="userSpaceOnUse"
       gradientTransform="matrix(0.20505,0,0,0.20505,1635.6,1748.4)"
       r="80.797"
       cy="-8482.1"
       cx="-7936.7"
       id="c-6">
      <stop
         id="stop46"
         offset=".3"
         stop-color="#960e18" />
      <stop
         id="stop48"
         offset=".351"
         stop-opacity=".74"
         stop-color="#b11927" />
      <stop
         id="stop50"
         offset=".435"
         stop-opacity=".343"
         stop-color="#db293d" />
      <stop
         id="stop52"
         offset=".497"
         stop-opacity=".094"
         stop-color="#f5334b" />
      <stop
         id="stop54"
         offset=".53"
         stop-opacity="0"
         stop-color="#ff3750" />
    </radialGradient>
    <radialGradient
       gradientUnits="userSpaceOnUse"
       gradientTransform="matrix(0.20505,0,0,0.20505,1635.6,1748.4)"
       r="58.534"
       cy="-8533.5"
       cx="-7927"
       id="d-0">
      <stop
         id="stop57"
         offset=".132"
         stop-color="#fff44f" />
      <stop
         id="stop59"
         offset=".252"
         stop-color="#ffdc3e" />
      <stop
         id="stop61"
         offset=".506"
         stop-color="#ff9d12" />
      <stop
         id="stop63"
         offset=".526"
         stop-color="#ff980e" />
    </radialGradient>
    <radialGradient
       gradientUnits="userSpaceOnUse"
       gradientTransform="matrix(0.20505,0,0,0.20505,1635.6,1748.4)"
       r="27.676"
       cy="-8518.4"
       cx="-7937.7"
       id="g-9">
      <stop
         id="stop66"
         offset="0"
         stop-color="#ffe226" />
      <stop
         id="stop68"
         offset=".121"
         stop-color="#ffdb27" />
      <stop
         id="stop70"
         offset=".295"
         stop-color="#ffc82a" />
      <stop
         id="stop72"
         offset=".502"
         stop-color="#ffa930" />
      <stop
         id="stop74"
         offset=".732"
         stop-color="#ff7e37" />
      <stop
         id="stop76"
         offset=".792"
         stop-color="#ff7139" />
    </radialGradient>
    <radialGradient
       gradientUnits="userSpaceOnUse"
       gradientTransform="matrix(0.20505,0,0,0.20505,1635.6,1748.4)"
       r="118.08"
       cy="-8536"
       cx="-7916"
       id="h-97">
      <stop
         id="stop79"
         offset=".113"
         stop-color="#fff44f" />
      <stop
         id="stop81"
         offset=".456"
         stop-color="#ff980e" />
      <stop
         id="stop83"
         offset=".622"
         stop-color="#ff5634" />
      <stop
         id="stop85"
         offset=".716"
         stop-color="#ff3647" />
      <stop
         id="stop87"
         offset=".904"
         stop-color="#e31587" />
    </radialGradient>
    <radialGradient
       gradientUnits="userSpaceOnUse"
       gradientTransform="matrix(0.021531,0.20403,-0.1339,0.014149,-960.17,1737.4)"
       r="86.499"
       cy="-8522.9"
       cx="-7927.2"
       id="i-2">
      <stop
         id="stop90"
         offset="0"
         stop-color="#fff44f" />
      <stop
         id="stop92"
         offset=".06"
         stop-color="#ffe847" />
      <stop
         id="stop94"
         offset=".168"
         stop-color="#ffc830" />
      <stop
         id="stop96"
         offset=".304"
         stop-color="#ff980e" />
      <stop
         id="stop98"
         offset=".356"
         stop-color="#ff8b16" />
      <stop
         id="stop100"
         offset=".455"
         stop-color="#ff672a" />
      <stop
         id="stop102"
         offset=".57"
         stop-color="#ff3647" />
      <stop
         id="stop104"
         offset=".737"
         stop-color="#e31587" />
    </radialGradient>
    <radialGradient
       gradientUnits="userSpaceOnUse"
       gradientTransform="matrix(0.20505,0,0,0.20505,1635.6,1748.4)"
       r="73.72"
       cy="-8508.2"
       cx="-7938.4"
       id="j-9">
      <stop
         id="stop107"
         offset=".137"
         stop-color="#fff44f" />
      <stop
         id="stop109"
         offset=".48"
         stop-color="#ff980e" />
      <stop
         id="stop111"
         offset=".592"
         stop-color="#ff5634" />
      <stop
         id="stop113"
         offset=".655"
         stop-color="#ff3647" />
      <stop
         id="stop115"
         offset=".904"
         stop-color="#e31587" />
    </radialGradient>
    <radialGradient
       gradientUnits="userSpaceOnUse"
       gradientTransform="matrix(0.20505,0,0,0.20505,1635.6,1748.4)"
       r="80.686"
       cy="-8503.9"
       cx="-7918.9"
       id="k-3-4">
      <stop
         id="stop118"
         offset=".094"
         stop-color="#fff44f" />
      <stop
         id="stop120"
         offset=".231"
         stop-color="#ffe141" />
      <stop
         id="stop122"
         offset=".509"
         stop-color="#ffaf1e" />
      <stop
         id="stop124"
         offset=".626"
         stop-color="#ff980e" />
    </radialGradient>
    <linearGradient
       gradientUnits="userSpaceOnUse"
       gradientTransform="translate(-7.05e-5)"
       y2="4.0901"
       y1="13.003"
       x2="12.104"
       x1="6.8421"
       id="linearGradient3634">
      <stop
         id="stop127"
         offset="0"
         stop-color="#0014f0" />
      <stop
         id="stop129"
         offset=".55304"
         stop-color="#a032ff" />
      <stop
         id="stop131"
         offset="1"
         stop-color="#b432ff" />
    </linearGradient>
    <linearGradient
       gradientUnits="userSpaceOnUse"
       gradientTransform="matrix(0.20505,0,0,0.20505,0.30193,0.47639)"
       y2="66.806"
       y1="12.061"
       x2="15.267"
       x1="70.013"
       id="l-5-6">
      <stop
         id="stop134"
         offset=".167"
         stop-opacity=".8"
         stop-color="#fff44f" />
      <stop
         id="stop136"
         offset=".266"
         stop-opacity=".634"
         stop-color="#fff44f" />
      <stop
         id="stop138"
         offset=".489"
         stop-opacity=".217"
         stop-color="#fff44f" />
      <stop
         id="stop140"
         offset=".6"
         stop-opacity="0"
         stop-color="#fff44f" />
    </linearGradient>
    <filter
       color-interpolation-filters="sRGB"
       height="1.1653"
       width="1.1708"
       y="-.082659"
       x="-.085385"
       id="filter1071">
      <feGaussianBlur
         id="feGaussianBlur143"
         stdDeviation="0.56476187" />
    </filter>
  </defs>
  <metadata
     id="metadata148">
    <rdf:RDF>
      <cc:Work
         rdf:about="">
        <dc:format>image/svg+xml</dc:format>
        <dc:type
           rdf:resource="http://purl.org/dc/dcmitype/StillImage" />
        <dc:title></dc:title>
      </cc:Work>
    </rdf:RDF>
  </metadata>
  <g
     id="g162"
     stroke-width=".26458"
     fill="#5e4aa6">
    <circle
       id="circle154"
       r="0"
       cy="-328.38"
       cx="-330.35" />
    <circle
       id="circle156"
       r="0"
       cy="-326.25"
       cx="-312.11" />
    <circle
       id="circle158"
       r="0"
       cy="-333.07"
       cx="-306.02" />
    <circle
       id="circle160"
       r="0"
       cy="-326.01"
       cx="-308.84" />
  </g>
  <g
     id="g212"
     stroke-width="0.20505"
     transform="matrix(1.1980455,0,0,1.1980455,-2.5961863,-1.3044835)">
    <g
       id="g186"
       filter="url(#filter1071)"
       fill="#ff3c46"
       transform="matrix(0.69344,0,0,0.69344,3.3355,2.1433)">
      <path
         id="path164"
         d="M 15.869,5.9767 C 15.52369,5.14582 14.8233,4.2488 14.2747,3.9651 a 8.2567,8.2567 0 0 1 0.80483,2.4123 l 0.0015,0.013363 c -0.8986,-2.2402 -2.4224,-3.1435 -3.6668,-5.1103 -0.06295,-0.099451 -0.12591,-0.1991 -0.18721,-0.3043 -0.03506,-0.060038 -0.06316,-0.11422 -0.08756,-0.16404 a 1.4462,1.4462 0 0 1 -0.11852,-0.31476 0.020505,0.020505 0 0 0 -0.01804,-0.020529 0.028297,0.028297 0 0 0 -0.01497,0 c -0.0011,0 -0.0027,0.001937 -0.0039,0.001937 -0.0013,4.0671e-4 -0.0039,0.001937 -0.0057,0.002905 l 0.0031,-0.00581 c -1.9962,1.1688 -2.6735,3.3325 -2.7358,4.4148 a 3.9754,3.9754 0 0 0 -2.1871,0.84298 2.376,2.376 0 0 0 -0.20505,-0.15543 3.6844,3.6844 0 0 1 -0.022351,-1.9425 5.8861,5.8861 0 0 0 -1.913,1.4785 H 3.91444 c -0.31506,-0.3983 -0.29291,-1.7148 -0.27487,-1.9897 a 1.4206,1.4206 0 0 0 -0.26534,0.14087 5.7877,5.7877 0 0 0 -0.77674,0.66541 6.94,6.94 0 0 0 -0.74291,0.89137 v 9.684e-4 -9.684e-4 a 6.712,6.712 0 0 0 -1.0663,2.4079 L 0.777617,7.282551 c -0.014969,0.069916 -0.068898,0.42015 -0.078125,0.49623 0,0.00581 -0.001231,0.011524 -0.001846,0.01743 a 7.5741,7.5741 0 0 0 -0.12898,1.0956 v 0.040962 a 7.9477,7.9477 0 0 0 15.779,1.3439 c 0.01332,-0.10253 0.0242,-0.20403 0.03609,-0.30758 a 8.1729,8.1729 0 0 0 -0.5155,-3.9922 z m -9.1598,6.2209 c 0.037114,0.01782 0.071974,0.03709 0.11011,0.05413 l 0.00554,0.0039 Q 6.767024,12.22794 6.7092,12.19801 Z M 8.5297,7.4042 M 15.0816,6.3925 V 6.38475 l 0.0015,0.00872 z" />
      <path
         id="path166"
         d="M 15.869,5.9767 C 15.52369,5.14582 14.8233,4.2488 14.2747,3.9651 a 8.2567,8.2567 0 0 1 0.80483,2.4123 v 0.00775 l 0.0015,0.00872 a 7.1974,7.1974 0 0 1 -0.2473,5.3638 c -0.91085,1.9543 -3.1156,3.9575 -6.5666,3.8602 -3.7289,-0.10561 -7.0129,-2.8726 -7.6268,-6.4967 -0.11176,-0.57149 0,-0.86123 0.056185,-1.3257 a 5.9211,5.9211 0 0 0 -0.12779,1.0967 v 0.040962 a 7.9477,7.9477 0 0 0 15.779,1.3439 c 0.01333,-0.10253 0.0242,-0.20403 0.03609,-0.30758 a 8.1729,8.1729 0 0 0 -0.5155,-3.9922 z" />
      <path
         id="path168"
         d="M 15.869,5.9767 C 15.52369,5.14582 14.8233,4.2488 14.2747,3.9651 a 8.2567,8.2567 0 0 1 0.80483,2.4123 v 0.00775 l 0.0015,0.00872 a 7.1974,7.1974 0 0 1 -0.2473,5.3638 c -0.91085,1.9543 -3.1156,3.9575 -6.5666,3.8602 -3.7289,-0.10561 -7.0129,-2.8726 -7.6268,-6.4967 -0.11176,-0.57149 0,-0.86123 0.056185,-1.3257 a 5.9211,5.9211 0 0 0 -0.12779,1.0967 v 0.040962 a 7.9477,7.9477 0 0 0 15.779,1.3439 c 0.01333,-0.10253 0.0242,-0.20403 0.03609,-0.30758 a 8.1729,8.1729 0 0 0 -0.5155,-3.9922 z" />
      <path
         id="path170"
         d="m 12.007,6.9063 c 0.01723,0.012105 0.03321,0.024209 0.04942,0.036314 a 4.3266,4.3266 0 0 0 -0.7382,-0.96272 c -2.4701,-2.4705 -0.64736,-5.3567 -0.33998,-5.5033 l 0.0031,-0.004842 c -1.9962,1.1688 -2.6735,3.3325 -2.7358,4.4149 0.092685,-0.00678 0.18455,-0.014138 0.27928,-0.014138 a 4.0109,4.0109 0 0 1 3.4822,2.0336 z" />
      <path
         id="path172"
         d="m 5.6877,5.4634 c 0.064387,0.040962 0.1175,0.076694 0.16404,0.10888 a 3.6844,3.6844 0 0 1 -0.022351,-1.9425 5.8861,5.8861 0 0 0 -1.913,1.4785 c 0.038756,-9.684e-4 1.1916,-0.021691 1.7712,0.35516 z" />
      <path
         id="path174"
         d="m 0.64109,9.1142 c 0.61332,3.6241 3.8978,6.3912 7.6268,6.4967 3.451,0.0976 5.6558,-1.9057 6.5666,-3.8602 a 7.1974,7.1974 0 0 0 0.2473,-5.3638 V 6.37915 c 0,-0.00581 -0.0013,-0.00968 0,-0.00775 l 0.0015,0.013363 c 0.28195,1.8408 -0.65433,3.6241 -2.118,4.8301 l -0.0046,0.01026 c -2.8519,2.3226 -5.5811,1.4013 -6.1336,1.0253 q -0.057826,-0.02769 -0.11565,-0.05762 c -1.6628,-0.79478 -2.3497,-2.3097 -2.2025,-3.609 a 2.0409,2.0409 0 0 1 -1.8826,-1.1842 2.9975,2.9975 0 0 1 2.9218,-0.1173 3.9576,3.9576 0 0 0 2.9839,0.1173 C 8.52896,7.335013 7.14584,6.784443 6.60654,6.253403 6.31844,5.969403 6.18167,5.832633 6.06048,5.729893 A 2.376,2.376 0 0 0 5.85543,5.574463 C 5.808267,5.542313 5.75516,5.507453 5.69139,5.465583 5.1117,5.088693 3.95889,5.109413 3.92079,5.110433 H 3.9171 C 3.60216,4.711473 3.62431,3.395033 3.64235,3.120033 a 1.4206,1.4206 0 0 0 -0.26534,0.14087 5.7877,5.7877 0 0 0 -0.77674,0.6654 6.94,6.94 0 0 0 -0.74599,0.88932 v 9.684e-4 -9.684e-4 a 6.712,6.712 0 0 0 -1.0663,2.4079 c -0.003896,0.016172 -0.28626,1.2506 -0.14703,1.8908 z" />
      <path
         id="path176"
         d="m 11.318,5.9864 a 4.3266,4.3266 0 0 1 0.7382,0.96375 c 0.04367,0.033021 0.08448,0.065848 0.11914,0.097601 1.8018,1.6609 0.85774,4.0088 0.78741,4.176 1.4637,-1.2059 2.3991,-2.9893 2.118,-4.8301 -0.89896,-2.2413 -2.4227,-3.1445 -3.6672,-5.1114 C 11.3506,1.1828 11.28764,1.083151 11.22634,0.977951 11.19128,0.917913 11.16318,0.863731 11.13878,0.813911 a 1.4462,1.4462 0 0 1 -0.11852,-0.31476 0.020505,0.020505 0 0 0 -0.01804,-0.020529 0.028297,0.028297 0 0 0 -0.01497,0 c -0.0011,0 -0.0027,0.001937 -0.0039,0.001937 -0.0013,4.0671e-4 -0.0039,0.001937 -0.0057,0.002905 -0.30736,0.14579 -2.1301,3.0319 0.3404,5.5024 z" />
      <path
         id="path178"
         d="M 12.174,7.0419 C 12.13934,7.010138 12.09855,6.97731 12.05486,6.944289 12.03866,6.932184 12.02266,6.92008 12.00545,6.907975 a 2.7437,2.7437 0 0 0 -1.9162,-0.46527 c 2.8585,1.4292 2.0916,6.3509 -1.8699,6.1652 a 3.5341,3.5341 0 0 1 -1.0341,-0.1995 q -0.11668,-0.04367 -0.23336,-0.09558 c -0.044907,-0.02053 -0.089813,-0.04096 -0.13411,-0.06401 l 0.00554,0.0039 c 0.55242,0.37709 3.2809,1.2984 6.1336,-1.0253 l 0.0046,-0.01026 c 0.07116,-0.16609 1.0152,-2.5145 -0.78741,-4.1749 z" />
      <path
         id="path180"
         d="m 4.9472,9.6468 c 0,0 0.36684,-1.3671 2.6268,-1.3671 0.24422,0 0.94325,-0.6818 0.95576,-0.87947 a 3.9576,3.9576 0 0 1 -2.9839,-0.11729 2.9975,2.9975 0 0 0 -2.9218,0.11729 2.0409,2.0409 0 0 0 1.8826,1.1842 c -0.14723,1.2994 0.53971,2.8143 2.2025,3.609 0.037114,0.01782 0.071974,0.03709 0.11011,0.05413 -0.97049,-0.50135 -1.7719,-1.4495 -1.8719,-2.6007 z" />
      <path
         id="path182"
         d="m 8.5247,4.8735 c -0.09433,0 -0.18688,0.00756 -0.27956,0.013952 a 3.9754,3.9754 0 0 0 -2.1869,0.84283 c 0.12119,0.10252 0.2576,0.23947 0.54569,0.52347 0.53929,0.53129 1.9228,1.0821 1.9259,1.1467 -0.01393,0.19813 -0.71192,0.879 -0.956,0.879 -2.2599,0 -2.6267,1.3673 -2.6267,1.3673 0.10007,1.1512 0.90199,2.0992 1.8717,2.6008 0.04429,0.02295 0.08945,0.04374 0.13436,0.06408 0.07778,0.03447 0.15527,0.06635 0.23306,0.0956 a 3.5341,3.5341 0 0 0 1.0345,0.19947 c 3.9611,0.18578 4.728,-4.7364 1.8696,-6.1649 a 2.7437,2.7437 0 0 1 1.9161,0.46508 4.0109,4.0109 0 0 0 -3.4819,-2.0334 z" />
      <path
         id="path184"
         d="M 15.869,5.9767 C 15.52369,5.14582 14.8233,4.2488 14.2747,3.9651 a 8.2567,8.2567 0 0 1 0.80483,2.4123 l 0.0015,0.013363 c -0.8986,-2.2402 -2.4224,-3.1435 -3.6668,-5.1103 -0.06295,-0.099451 -0.12591,-0.1991 -0.18721,-0.3043 -0.03506,-0.060038 -0.06316,-0.11422 -0.08756,-0.16404 a 1.4462,1.4462 0 0 1 -0.11852,-0.31476 0.020505,0.020505 0 0 0 -0.01804,-0.020529 0.028297,0.028297 0 0 0 -0.01497,0 c -0.0011,0 -0.0027,0.001937 -0.0039,0.001937 -0.0013,4.0671e-4 -0.0039,0.001937 -0.0057,0.002905 l 0.0031,-0.00581 c -1.9962,1.1688 -2.6735,3.3325 -2.7358,4.4148 0.092685,-0.00678 0.18455,-0.014138 0.27928,-0.014138 a 4.0109,4.0109 0 0 1 3.4822,2.0336 2.7437,2.7437 0 0 0 -1.9162,-0.46527 c 2.8585,1.4292 2.0916,6.3509 -1.8699,6.1652 a 3.5341,3.5341 0 0 1 -1.0342,-0.19859 q -0.11668,-0.04367 -0.23336,-0.09558 c -0.044907,-0.02053 -0.089813,-0.04096 -0.13411,-0.06401 l 0.00554,0.0039 q -0.057826,-0.02769 -0.11565,-0.05762 c 0.037114,0.01782 0.071974,0.03709 0.11011,0.05413 -0.97049,-0.50158 -1.7719,-1.4498 -1.8719,-2.6009 0,0 0.36684,-1.3671 2.6268,-1.3671 0.24422,0 0.94325,-0.6818 0.95576,-0.87947 C 8.52692,7.340228 7.1438,6.789658 6.6045,6.258618 6.3164,5.974618 6.17963,5.837848 6.05844,5.735108 a 2.376,2.376 0 0 0 -0.20505,-0.15543 3.6844,3.6844 0 0 1 -0.022351,-1.9425 5.8861,5.8861 0 0 0 -1.913,1.4785 H 3.91435 C 3.59938,4.716108 3.62153,3.399678 3.63958,3.124778 A 1.4206,1.4206 0 0 0 3.37424,3.265648 5.7877,5.7877 0 0 0 2.5975,3.931058 6.94,6.94 0 0 0 1.85459,4.822428 v 9.683e-4 -9.683e-4 a 6.712,6.712 0 0 0 -1.0663,2.4079 L 0.777627,7.282813 C 0.762658,7.352729 0.695605,7.707883 0.685968,7.784173 a 9.2467,9.2467 0 0 0 -0.11729,1.1079 v 0.040962 a 7.9477,7.9477 0 0 0 15.779,1.3439 c 0.01333,-0.10253 0.0242,-0.20403 0.03609,-0.30758 a 8.1729,8.1729 0 0 0 -0.5155,-3.9922 z m -0.78844,0.40826 0.0015,0.00872 z" />
    </g>
    <g
       id="g210"
       transform="matrix(0.69344,0,0,0.69344,3.3355,2.1433)">
      <path
         style="fill:url(#a-3)"
         id="path188"
         fill="url(#a-3)"
         d="M 15.869,5.9767 C 15.52369,5.14582 14.8233,4.2488 14.2747,3.9651 a 8.2567,8.2567 0 0 1 0.80483,2.4123 l 0.0015,0.013363 c -0.8986,-2.2402 -2.4224,-3.1435 -3.6668,-5.1103 -0.06295,-0.099451 -0.12591,-0.1991 -0.18721,-0.3043 -0.03506,-0.060038 -0.06316,-0.11422 -0.08756,-0.16404 a 1.4462,1.4462 0 0 1 -0.11852,-0.31476 0.020505,0.020505 0 0 0 -0.01804,-0.020529 0.028297,0.028297 0 0 0 -0.01497,0 c -0.0011,0 -0.0027,0.001937 -0.0039,0.001937 -0.0013,4.0671e-4 -0.0039,0.001937 -0.0057,0.002905 l 0.0031,-0.00581 c -1.9962,1.1688 -2.6735,3.3325 -2.7358,4.4148 a 3.9754,3.9754 0 0 0 -2.1871,0.84298 2.376,2.376 0 0 0 -0.20505,-0.15543 3.6844,3.6844 0 0 1 -0.022351,-1.9425 5.8861,5.8861 0 0 0 -1.913,1.4785 H 3.91444 c -0.31506,-0.3983 -0.29291,-1.7148 -0.27487,-1.9897 a 1.4206,1.4206 0 0 0 -0.26534,0.14087 5.7877,5.7877 0 0 0 -0.77674,0.66541 6.94,6.94 0 0 0 -0.74291,0.89137 v 9.684e-4 -9.684e-4 a 6.712,6.712 0 0 0 -1.0663,2.4079 L 0.777617,7.282551 c -0.014969,0.069916 -0.068898,0.42015 -0.078125,0.49623 0,0.00581 -0.001231,0.011524 -0.001846,0.01743 a 7.5741,7.5741 0 0 0 -0.12898,1.0956 v 0.040962 a 7.9477,7.9477 0 0 0 15.779,1.3439 c 0.01332,-0.10253 0.0242,-0.20403 0.03609,-0.30758 a 8.1729,8.1729 0 0 0 -0.5155,-3.9922 z m -9.1598,6.2209 c 0.037114,0.01782 0.071974,0.03709 0.11011,0.05413 l 0.00554,0.0039 Q 6.767024,12.22794 6.7092,12.19801 Z M 8.5297,7.4042 M 15.0816,6.3925 V 6.38475 l 0.0015,0.00872 z" />
      <path
         style="fill:url(#b-1)"
         id="path190"
         fill="url(#b-1)"
         d="M 15.869,5.9767 C 15.52369,5.14582 14.8233,4.2488 14.2747,3.9651 a 8.2567,8.2567 0 0 1 0.80483,2.4123 v 0.00775 l 0.0015,0.00872 a 7.1974,7.1974 0 0 1 -0.2473,5.3638 c -0.91085,1.9543 -3.1156,3.9575 -6.5666,3.8602 -3.7289,-0.10561 -7.0129,-2.8726 -7.6268,-6.4967 -0.11176,-0.57149 0,-0.86123 0.056185,-1.3257 a 5.9211,5.9211 0 0 0 -0.12779,1.0967 v 0.040962 a 7.9477,7.9477 0 0 0 15.779,1.3439 c 0.01333,-0.10253 0.0242,-0.20403 0.03609,-0.30758 a 8.1729,8.1729 0 0 0 -0.5155,-3.9922 z" />
      <path
         style="fill:url(#c-6)"
         id="path192"
         fill="url(#c-6)"
         d="M 15.869,5.9767 C 15.52369,5.14582 14.8233,4.2488 14.2747,3.9651 a 8.2567,8.2567 0 0 1 0.80483,2.4123 v 0.00775 l 0.0015,0.00872 a 7.1974,7.1974 0 0 1 -0.2473,5.3638 c -0.91085,1.9543 -3.1156,3.9575 -6.5666,3.8602 -3.7289,-0.10561 -7.0129,-2.8726 -7.6268,-6.4967 -0.11176,-0.57149 0,-0.86123 0.056185,-1.3257 a 5.9211,5.9211 0 0 0 -0.12779,1.0967 v 0.040962 a 7.9477,7.9477 0 0 0 15.779,1.3439 c 0.01333,-0.10253 0.0242,-0.20403 0.03609,-0.30758 a 8.1729,8.1729 0 0 0 -0.5155,-3.9922 z" />
      <path
         style="fill:url(#d-0)"
         id="path194"
         fill="url(#d-0)"
         d="m 12.007,6.9063 c 0.01723,0.012105 0.03321,0.024209 0.04942,0.036314 a 4.3266,4.3266 0 0 0 -0.7382,-0.96272 c -2.4701,-2.4705 -0.64736,-5.3567 -0.33998,-5.5033 l 0.0031,-0.004842 c -1.9962,1.1688 -2.6735,3.3325 -2.7358,4.4149 0.092685,-0.00678 0.18455,-0.014138 0.27928,-0.014138 a 4.0109,4.0109 0 0 1 3.4822,2.0336 z" />
      <path
         style="fill:url(#g-9)"
         id="path196"
         fill="url(#g-9)"
         d="m 5.6877,5.4634 c 0.064387,0.040962 0.1175,0.076694 0.16404,0.10888 a 3.6844,3.6844 0 0 1 -0.022351,-1.9425 5.8861,5.8861 0 0 0 -1.913,1.4785 c 0.038756,-9.684e-4 1.1916,-0.021691 1.7712,0.35516 z" />
      <path
         style="fill:url(#h-97)"
         id="path198"
         fill="url(#h-97)"
         d="m 0.64109,9.1142 c 0.61332,3.6241 3.8978,6.3912 7.6268,6.4967 3.451,0.0976 5.6558,-1.9057 6.5666,-3.8602 a 7.1974,7.1974 0 0 0 0.2473,-5.3638 V 6.37915 c 0,-0.00581 -0.0013,-0.00968 0,-0.00775 l 0.0015,0.013363 c 0.28195,1.8408 -0.65433,3.6241 -2.118,4.8301 l -0.0046,0.01026 c -2.8519,2.3226 -5.5811,1.4013 -6.1336,1.0253 q -0.057826,-0.02769 -0.11565,-0.05762 c -1.6628,-0.79478 -2.3497,-2.3097 -2.2025,-3.609 a 2.0409,2.0409 0 0 1 -1.8826,-1.1842 2.9975,2.9975 0 0 1 2.9218,-0.1173 3.9576,3.9576 0 0 0 2.9839,0.1173 C 8.52896,7.335013 7.14584,6.784443 6.60654,6.253403 6.31844,5.969403 6.18167,5.832633 6.06048,5.729893 A 2.376,2.376 0 0 0 5.85543,5.574463 C 5.808267,5.542313 5.75516,5.507453 5.69139,5.465583 5.1117,5.088693 3.95889,5.109413 3.92079,5.110433 H 3.9171 C 3.60216,4.711473 3.62431,3.395033 3.64235,3.120033 a 1.4206,1.4206 0 0 0 -0.26534,0.14087 5.7877,5.7877 0 0 0 -0.77674,0.6654 6.94,6.94 0 0 0 -0.74599,0.88932 v 9.684e-4 -9.684e-4 a 6.712,6.712 0 0 0 -1.0663,2.4079 c -0.003896,0.016172 -0.28626,1.2506 -0.14703,1.8908 z" />
      <path
         style="fill:url(#i-2)"
         id="path200"
         fill="url(#i-2)"
         d="m 11.318,5.9864 a 4.3266,4.3266 0 0 1 0.7382,0.96375 c 0.04367,0.033021 0.08448,0.065848 0.11914,0.097601 1.8018,1.6609 0.85774,4.0088 0.78741,4.176 1.4637,-1.2059 2.3991,-2.9893 2.118,-4.8301 -0.89896,-2.2413 -2.4227,-3.1445 -3.6672,-5.1114 C 11.3506,1.1828 11.28764,1.083151 11.22634,0.977951 11.19128,0.917913 11.16318,0.863731 11.13878,0.813911 a 1.4462,1.4462 0 0 1 -0.11852,-0.31476 0.020505,0.020505 0 0 0 -0.01804,-0.020529 0.028297,0.028297 0 0 0 -0.01497,0 c -0.0011,0 -0.0027,0.001937 -0.0039,0.001937 -0.0013,4.0671e-4 -0.0039,0.001937 -0.0057,0.002905 -0.30736,0.14579 -2.1301,3.0319 0.3404,5.5024 z" />
      <path
         style="fill:url(#j-9)"
         id="path202"
         fill="url(#j-9)"
         d="M 12.174,7.0419 C 12.13934,7.010138 12.09855,6.97731 12.05486,6.944289 12.03866,6.932184 12.02266,6.92008 12.00545,6.907975 a 2.7437,2.7437 0 0 0 -1.9162,-0.46527 c 2.8585,1.4292 2.0916,6.3509 -1.8699,6.1652 a 3.5341,3.5341 0 0 1 -1.0341,-0.1995 q -0.11668,-0.04367 -0.23336,-0.09558 c -0.044907,-0.02053 -0.089813,-0.04096 -0.13411,-0.06401 l 0.00554,0.0039 c 0.55242,0.37709 3.2809,1.2984 6.1336,-1.0253 l 0.0046,-0.01026 c 0.07116,-0.16609 1.0152,-2.5145 -0.78741,-4.1749 z" />
      <path
         style="fill:url(#k-3-4)"
         id="path204"
         fill="url(#k-3-4)"
         d="m 4.9472,9.6468 c 0,0 0.36684,-1.3671 2.6268,-1.3671 0.24422,0 0.94325,-0.6818 0.95576,-0.87947 a 3.9576,3.9576 0 0 1 -2.9839,-0.11729 2.9975,2.9975 0 0 0 -2.9218,0.11729 2.0409,2.0409 0 0 0 1.8826,1.1842 c -0.14723,1.2994 0.53971,2.8143 2.2025,3.609 0.037114,0.01782 0.071974,0.03709 0.11011,0.05413 -0.97049,-0.50135 -1.7719,-1.4495 -1.8719,-2.6007 z" />
      <path
         style="fill:url(#linearGradient3634)"
         id="path206"
         fill="url(#linearGradient3634)"
         d="m 8.5247,4.8735 c -0.09433,0 -0.18688,0.00756 -0.27956,0.013952 a 3.9754,3.9754 0 0 0 -2.1869,0.84283 c 0.12119,0.10252 0.2576,0.23947 0.54569,0.52347 0.53929,0.53129 1.9228,1.0821 1.9259,1.1467 -0.01393,0.19813 -0.71192,0.879 -0.956,0.879 -2.2599,0 -2.6267,1.3673 -2.6267,1.3673 0.10007,1.1512 0.90199,2.0992 1.8717,2.6008 0.04429,0.02295 0.08945,0.04374 0.13436,0.06408 0.07778,0.03447 0.15527,0.06635 0.23306,0.0956 a 3.5341,3.5341 0 0 0 1.0345,0.19947 c 3.9611,0.18578 4.728,-4.7364 1.8696,-6.1649 a 2.7437,2.7437 0 0 1 1.9161,0.46508 4.0109,4.0109 0 0 0 -3.4819,-2.0334 z" />
      <path
         style="fill:url(#l-5-6)"
         id="path208"
         fill="url(#l-5-6)"
         d="M 15.869,5.9767 C 15.52369,5.14582 14.8233,4.2488 14.2747,3.9651 a 8.2567,8.2567 0 0 1 0.80483,2.4123 l 0.0015,0.013363 c -0.8986,-2.2402 -2.4224,-3.1435 -3.6668,-5.1103 -0.06295,-0.099451 -0.12591,-0.1991 -0.18721,-0.3043 -0.03506,-0.060038 -0.06316,-0.11422 -0.08756,-0.16404 a 1.4462,1.4462 0 0 1 -0.11852,-0.31476 0.020505,0.020505 0 0 0 -0.01804,-0.020529 0.028297,0.028297 0 0 0 -0.01497,0 c -0.0011,0 -0.0027,0.001937 -0.0039,0.001937 -0.0013,4.0671e-4 -0.0039,0.001937 -0.0057,0.002905 l 0.0031,-0.00581 c -1.9962,1.1688 -2.6735,3.3325 -2.7358,4.4148 0.092685,-0.00678 0.18455,-0.014138 0.27928,-0.014138 a 4.0109,4.0109 0 0 1 3.4822,2.0336 2.7437,2.7437 0 0 0 -1.9162,-0.46527 c 2.8585,1.4292 2.0916,6.3509 -1.8699,6.1652 a 3.5341,3.5341 0 0 1 -1.0342,-0.19859 q -0.11668,-0.04367 -0.23336,-0.09558 c -0.044907,-0.02053 -0.089813,-0.04096 -0.13411,-0.06401 l 0.00554,0.0039 q -0.057826,-0.02769 -0.11565,-0.05762 c 0.037114,0.01782 0.071974,0.03709 0.11011,0.05413 -0.97049,-0.50158 -1.7719,-1.4498 -1.8719,-2.6009 0,0 0.36684,-1.3671 2.6268,-1.3671 0.24422,0 0.94325,-0.6818 0.95576,-0.87947 C 8.52692,7.340228 7.1438,6.789658 6.6045,6.258618 6.3164,5.974618 6.17963,5.837848 6.05844,5.735108 a 2.376,2.376 0 0 0 -0.20505,-0.15543 3.6844,3.6844 0 0 1 -0.022351,-1.9425 5.8861,5.8861 0 0 0 -1.913,1.4785 H 3.91435 C 3.59938,4.716108 3.62153,3.399678 3.63958,3.124778 A 1.4206,1.4206 0 0 0 3.37424,3.265648 5.7877,5.7877 0 0 0 2.5975,3.931058 6.94,6.94 0 0 0 1.85459,4.822428 v 9.683e-4 -9.683e-4 a 6.712,6.712 0 0 0 -1.0663,2.4079 L 0.777627,7.282813 C 0.762658,7.352729 0.695605,7.707883 0.685968,7.784173 a 9.2467,9.2467 0 0 0 -0.11729,1.1079 v 0.040962 a 7.9477,7.9477 0 0 0 15.779,1.3439 c 0.01333,-0.10253 0.0242,-0.20403 0.03609,-0.30758 a 8.1729,8.1729 0 0 0 -0.5155,-3.9922 z m -0.78844,0.40826 0.0015,0.00872 z" />
    </g>
  </g>
</svg>
