<?xml version="1.0" encoding="UTF-8" standalone="no"?>
<svg
   xmlns:dc="http://purl.org/dc/elements/1.1/"
   xmlns:cc="http://creativecommons.org/ns#"
   xmlns:rdf="http://www.w3.org/1999/02/22-rdf-syntax-ns#"
   xmlns:svg="http://www.w3.org/2000/svg"
   xmlns="http://www.w3.org/2000/svg"
   xmlns:xlink="http://www.w3.org/1999/xlink"
   xmlns:sodipodi="http://sodipodi.sourceforge.net/DTD/sodipodi-0.dtd"
   xmlns:inkscape="http://www.inkscape.org/namespaces/inkscape"
   inkscape:version="1.0 (4035a4fb49, 2020-05-01)"
   sodipodi:docname="fragments.svg"
   viewBox="0 0 64 64"
   version="1.1"
   image-rendering="optimizeSpeed"
   enable-background="new 0 0 1024 1024"
   height="64"
   width="64"
   id="SimpleNote">
  <metadata
     id="metadata77">
    <rdf:RDF>
      <cc:Work
         rdf:about="">
        <dc:format>image/svg+xml</dc:format>
        <dc:type
           rdf:resource="http://purl.org/dc/dcmitype/StillImage" />
        <dc:title></dc:title>
      </cc:Work>
    </rdf:RDF>
  </metadata>
  <sodipodi:namedview
     inkscape:current-layer="SimpleNote"
     inkscape:window-maximized="1"
     inkscape:window-y="0"
     inkscape:window-x="0"
     inkscape:cy="8.8740035"
     inkscape:cx="9.4487089"
     inkscape:zoom="4.5078057"
     showgrid="false"
     id="namedview75"
     inkscape:window-height="985"
     inkscape:window-width="1920"
     inkscape:pageshadow="2"
     inkscape:pageopacity="0"
     guidetolerance="10"
     gridtolerance="10"
     objecttolerance="10"
     borderopacity="1"
     bordercolor="#666666"
     pagecolor="#ffffff" />
  <defs
     id="defs30">
    <linearGradient
       id="b">
      <stop
         id="stop2"
         offset="0" />
      <stop
         id="stop4"
         offset="1"
         stop-opacity="0" />
    </linearGradient>
    <filter
       color-interpolation-filters="sRGB"
       height="1.12"
       width="1.12"
       y="-.06"
       x="-.06"
       id="f">
      <feGaussianBlur
         id="feGaussianBlur7"
         stdDeviation="0.79999999" />
    </filter>
    <linearGradient
       gradientUnits="userSpaceOnUse"
       gradientTransform="translate(2e-6)"
       y2="18.279"
       y1="45.992"
       x2="31.967"
       x1="31.989"
       id="q">
      <stop
         id="stop10"
         offset="0"
         stop-color="#b14de5" />
      <stop
         id="stop12"
         offset="1"
         stop-color="#58b1fe" />
    </linearGradient>
    <linearGradient
       xlink:href="#b"
       gradientUnits="userSpaceOnUse"
       y2="39.058"
       y1="39.058"
       x2="25.662"
       x1="22.379"
       id="p" />
    <linearGradient
       xlink:href="#b"
       gradientUnits="userSpaceOnUse"
       y2="35.746"
       y1="35.746"
       x2="43.432"
       x1="37.506"
       id="o" />
    <linearGradient
       xlink:href="#b"
       gradientUnits="userSpaceOnUse"
       y2="27.973"
       y1="27.973"
       x2="41.135"
       x1="31.584"
       id="n" />
    <linearGradient
       xlink:href="#b"
       gradientUnits="userSpaceOnUse"
       y2="34.732"
       y1="34.732"
       x2="48"
       x1="43.43"
       id="m" />
    <linearGradient
       xlink:href="#b"
       gradientUnits="userSpaceOnUse"
       y2="20.433"
       y1="20.433"
       x2="32.521"
       x1="22.865"
       id="l" />
    <linearGradient
       xlink:href="#b"
       gradientUnits="userSpaceOnUse"
       y2="27.005"
       y1="27.005"
       x2="25.662"
       x1="16"
       id="k" />
    <linearGradient
       xlink:href="#b"
       gradientUnits="userSpaceOnUse"
       y2="23.394"
       y1="23.394"
       x2="41.135"
       x1="31.584"
       id="j" />
    <linearGradient
       xlink:href="#b"
       gradientUnits="userSpaceOnUse"
       y2="34.403"
       y1="34.403"
       x2="37.506"
       x1="25.662"
       id="i" />
    <linearGradient
       xlink:href="#b"
       gradientUnits="userSpaceOnUse"
       y2="35.674"
       y1="35.674"
       x2="25.662"
       x1="16"
       id="h" />
    <linearGradient
       xlink:href="#b"
       gradientUnits="userSpaceOnUse"
       y2="26.826"
       y1="26.826"
       x2="31.584"
       x1="25.661"
       id="g" />
    <linearGradient
       gradientUnits="userSpaceOnUse"
       gradientTransform="matrix(3.7795,0,0,3.7795,-109.16594,0.031541)"
       y2="1.852"
       y1="15.081"
       x2="7.9373"
       x1="7.9373"
       id="linearGradient862-3">
      <stop
         id="stop25"
         offset="0"
         stop-color="#f1efeb" />
      <stop
         id="stop27"
         offset="1"
         stop-color="#fdfcfc" />
    </linearGradient>
    <filter
       id="filter11290"
       x="-0.024"
       y="-0.024"
       width="1.048"
       height="1.048"
       color-interpolation-filters="sRGB">
      <feGaussianBlur
         stdDeviation="0.15875313"
         id="feGaussianBlur861" />
    </filter>
    <linearGradient
       id="linearGradient1057">
      <stop
         stop-color="#fff"
         offset="0"
         id="stop924" />
      <stop
         stop-color="#fff"
         stop-opacity="0"
         offset="1"
         id="stop926" />
    </linearGradient>
    <linearGradient
       id="linearGradient982"
       x1="34.999"
       x2="34.999"
       y1="27.545"
       y2="52.847"
       gradientTransform="matrix(1.5625,0,0,1.5625,0.40633,-5.1891)"
       gradientUnits="userSpaceOnUse">
      <stop
         stop-color="#32b4ff"
         offset="0"
         id="stop929" />
      <stop
         stop-color="#3287ff"
         offset="1"
         id="stop931" />
    </linearGradient>
    <style
       type="text/css"
       id="style934" />
    <style
       type="text/css"
       id="style936" />
    <linearGradient
       id="linearGradient1047"
       x1="21.314"
       x2="21.314"
       y1="18.052"
       y2="43.681"
       gradientTransform="matrix(1.5625,0,0,1.5625,-9.2253,1.3231)"
       gradientUnits="userSpaceOnUse">
      <stop
         stop-color="#14dc78"
         offset="0"
         id="stop938" />
      <stop
         stop-color="#14a03c"
         offset="1"
         id="stop940" />
    </linearGradient>
    <linearGradient
       id="linearGradient1049"
       x1="41.729"
       x2="41.729"
       y1="12.316"
       y2="37.368"
       gradientTransform="matrix(1.5625,0,0,1.5625,-8.1072,-10.908)"
       gradientUnits="userSpaceOnUse">
      <stop
         stop-color="#ff3c64"
         offset="0"
         id="stop943" />
      <stop
         stop-color="#ff4628"
         offset="1"
         id="stop945" />
    </linearGradient>
    <linearGradient
       id="linearGradient1059"
       x1="34.427"
       x2="34.427"
       y1="32.234"
       y2="39.768"
       gradientTransform="matrix(1,0,0,1.2271,0.20646,-10.975)"
       gradientUnits="userSpaceOnUse"
       xlink:href="#linearGradient1057" />
    <linearGradient
       id="linearGradient1063"
       x1="34.427"
       x2="34.427"
       y1="32.234"
       y2="39.768"
       gradientTransform="matrix(1,0,0,1.2271,-12.55,-19.793)"
       gradientUnits="userSpaceOnUse"
       xlink:href="#linearGradient1057" />
    <linearGradient
       id="linearGradient1067"
       x1="34.427"
       x2="34.427"
       y1="32.234"
       y2="39.768"
       gradientTransform="matrix(1,0,0,1.2271,5.7554,-25.761)"
       gradientUnits="userSpaceOnUse"
       xlink:href="#linearGradient1057" />
    <filter
       id="filter11290-3"
       x="-.024"
       y="-.024"
       width="1.048"
       height="1.048"
       color-interpolation-filters="sRGB">
      <feGaussianBlur
         stdDeviation="0.15875313"
         id="feGaussianBlur951" />
    </filter>
    <linearGradient
       id="linearGradient1005"
       x1=".73911"
       x2="16.388"
       y1="16.296"
       y2=".64687"
       gradientTransform="matrix(3.7796,0,0,3.7796,-0.13193795,0.02458353)"
       gradientUnits="userSpaceOnUse">
      <stop
         stop-color="#dddfe1"
         offset="0"
         id="stop954" />
      <stop
         stop-color="#f3f4f6"
         offset="1"
         id="stop956" />
    </linearGradient>
  </defs>
  <circle
     style="filter:url(#filter11290-3)"
     id="circle961"
     stroke-width="0.14032"
     opacity="0.25"
     filter="url(#filter11290)"
     r="7.9376998"
     cy="8.46"
     cx="8.4937"
     transform="matrix(3.7796,0,0,3.7796,-0.10278795,0.02458453)" />
  <path
     id="path963"
     stroke-width="0.11719"
     fill="url(#linearGradient1005)"
     d="m 62.000012,32.000017 c 0,3.5964 -0.63305,7.0448 -1.794,10.24 -0.80698,2.2212 -1.8686,4.3212 -3.1519,6.2636 -0.53754,0.8167 -1.1155,1.6054 -1.729,2.3633 -1.9641,2.4257 -4.2982,4.5382 -6.9186,6.2526 -0.96493,0.63187 -1.9678,1.2099 -3.0061,1.7277 -4.0321,2.0179 -8.5839,3.153 -13.401,3.153 -4.8171,0 -9.3689,-1.1351 -13.401,-3.1531 -1.0384,-0.51799 -2.0425,-1.096 -3.0074,-1.7277 -2.6535,-1.7376 -5.0155,-3.8832 -6.9957,-6.349 -0.61468,-0.76408 -1.1915,-1.56 -1.729,-2.3841 -1.249,-1.9102 -2.2837,-3.9712 -3.0747,-6.1494 -1.1608,-3.1949 -1.7927,-6.6419 -1.7927,-10.237 0,-16.569 13.432,-30.0010005 30.001,-30.0010005 8.317,0 15.843,3.3846 21.277,8.8507005 1.5661,1.5747 2.9584,3.3234 4.1436,5.214 1.1205,1.7805 2.0572,3.6882 2.7857,5.6951 1.161,3.196 1.7941,6.6442 1.7941,10.24 z"
     style="fill:url(#linearGradient1005)" />
  <circle
     id="circle965"
     fill="#5e4aa6"
     r="0"
     cy="-1241.6"
     cx="-1248.7" />
  <circle
     id="circle967"
     fill-rule="evenodd"
     fill="#5e4aa6"
     r="0"
     cy="23.855017"
     cx="-149.14998" />
  <g
     id="g991"
     stroke-width="0.26458"
     fill="#5e4aa6"
     transform="matrix(3.7796,0,0,3.7796,-102.91999,-38.719983)">
    <circle
       id="circle983"
       r="0"
       cy="-328.38"
       cx="-330.35001" />
    <circle
       id="circle985"
       r="0"
       cy="-326.25"
       cx="-312.10999" />
    <circle
       id="circle987"
       r="0"
       cy="-333.07001"
       cx="-306.01999" />
    <circle
       id="circle989"
       r="0"
       cy="-326.01001"
       cx="-308.84" />
  </g>
  <path
     id="path48"
     opacity="0.15"
     filter="url(#f)"
     d="M 22.8659,17 V 32.355 H 16 L 31.999,49 48,32.355 H 41.1341 V 17 Z" />
  <g
     transform="translate(-5e-5)"
     id="g72"
     stroke-width="0.37015">
    <path
       style="fill:url(#q)"
       id="path50"
       fill="url(#q)"
       d="m 22.865,17 v 15.355 h -6.8652 l 16,16.645 16,-16.645 H 41.1346 V 17 Z" />
    <path
       style="fill:url(#g)"
       id="path52"
       opacity="0.15"
       fill="url(#g)"
       d="m 25.661,23.865 5.9223,-5.9223 v 11.845 L 25.661,35.71 Z" />
    <path
       style="fill:url(#h)"
       id="path54"
       opacity="0.15"
       fill="url(#h)"
       d="m 16,32.355 6.3789,6.6367 3.2832,-3.2832 -3.2832,-3.3535 z" />
    <path
       style="fill:url(#i)"
       id="path56"
       opacity="0.15"
       fill="url(#i)"
       d="M 37.467,23.775 25.662,35.709 v 6.6973 l 2.5234,2.625 9.3203,-9.3223 z" />
    <path
       style="fill:url(#j)"
       id="path58"
       opacity="0.15"
       fill="url(#j)"
       d="m 32.527,17 -0.94336,0.94336 v 11.844 l 9.5508,-9.5508 v -3.2363 z" />
    <path
       style="fill:url(#k)"
       id="path60"
       opacity="0.15"
       fill="url(#k)"
       d="m 22.865,21.057 v 5.6055 l 2.7969,-2.7969 z m -6.8652,11.299 0.57422,0.59766 0.5957,-0.59766 z" />
    <path
       style="fill:url(#l)"
       id="path62"
       opacity="0.15"
       fill="url(#l)"
       d="m 22.865,17 v 4.0684 l 2.7969,2.7969 6.8594,-6.8652 z" />
    <path
       style="fill:url(#m)"
       id="path64"
       opacity="0.15"
       fill="url(#m)"
       d="m 43.43,32.355 v 4.7539 l 3.2324,-3.3613 0.35352,-0.36914 0.98438,-1.0234 h -2.7305 z" />
    <path
       style="fill:url(#n)"
       id="path66"
       opacity="0.15"
       fill="url(#n)"
       d="m 41.135,20.236 -9.5508,9.5508 5.9219,5.9219 3.6289,-3.6289 z" />
    <path
       style="fill:url(#o)"
       id="path68"
       opacity="0.15"
       fill="url(#o)"
       d="m 41.135,32.08 -3.6289,3.6289 3.7109,3.7031 2.2148,-2.3047 -0.002,-4.752 h -2.2949 z" />
    <path
       style="fill:url(#p)"
       id="path70"
       opacity="0.15"
       fill="url(#p)"
       d="m 25.662,35.709 -3.2832,3.2832 3.2832,3.4141 z" />
  </g>
</svg>
