<?xml version="1.0" encoding="UTF-8" standalone="no"?>
<svg
   xmlns:dc="http://purl.org/dc/elements/1.1/"
   xmlns:cc="http://creativecommons.org/ns#"
   xmlns:rdf="http://www.w3.org/1999/02/22-rdf-syntax-ns#"
   xmlns:svg="http://www.w3.org/2000/svg"
   xmlns="http://www.w3.org/2000/svg"
   xmlns:xlink="http://www.w3.org/1999/xlink"
   xmlns:sodipodi="http://sodipodi.sourceforge.net/DTD/sodipodi-0.dtd"
   xmlns:inkscape="http://www.inkscape.org/namespaces/inkscape"
   inkscape:version="1.0 (4035a4fb49, 2020-05-01)"
   sodipodi:docname="gda-control-center.svg"
   id="svg127"
   version="1.1"
   height="64"
   width="64">
  <metadata
     id="metadata131">
    <rdf:RDF>
      <cc:Work
         rdf:about="">
        <dc:format>image/svg+xml</dc:format>
        <dc:type
           rdf:resource="http://purl.org/dc/dcmitype/StillImage" />
        <dc:title></dc:title>
      </cc:Work>
    </rdf:RDF>
  </metadata>
  <sodipodi:namedview
     inkscape:current-layer="svg127"
     inkscape:window-maximized="1"
     inkscape:window-y="0"
     inkscape:window-x="0"
     inkscape:cy="-5.3618555"
     inkscape:cx="61.349071"
     inkscape:zoom="4.5078057"
     showgrid="false"
     id="namedview129"
     inkscape:window-height="985"
     inkscape:window-width="1920"
     inkscape:pageshadow="2"
     inkscape:pageopacity="0"
     guidetolerance="10"
     gridtolerance="10"
     objecttolerance="10"
     borderopacity="1"
     bordercolor="#666666"
     pagecolor="#ffffff" />
  <defs
     id="defs89">
    <radialGradient
       gradientUnits="userSpaceOnUse"
       gradientTransform="matrix(.95165 0 0 .36555 1.7936 24.507)"
       r="22.627"
       cy="41.636"
       cx="23.335"
       id="e">
      <stop
         id="stop2"
         offset="0" />
      <stop
         id="stop4"
         offset="1"
         stop-opacity="0" />
    </radialGradient>
    <linearGradient
       xlink:href="#b"
       spreadMethod="reflect"
       gradientUnits="userSpaceOnUse"
       gradientTransform="matrix(.73652 0 0 .72048 -52.561 46.853)"
       y2="-7.6657"
       y1="-7.6657"
       x2="89.424"
       x1="103.95"
       id="n" />
    <linearGradient
       id="b">
      <stop
         id="stop8"
         offset="0"
         stop-color="#868688" />
      <stop
         id="stop10"
         offset="1"
         stop-color="#d9d9da" />
    </linearGradient>
    <linearGradient
       xlink:href="#a"
       gradientUnits="userSpaceOnUse"
       gradientTransform="matrix(1.6087 0 0 1.6667 -127.47 -.57685)"
       y2="27.546"
       y1="22.537"
       x2="89.018"
       x1="89.018"
       id="m" />
    <linearGradient
       id="a">
      <stop
         id="stop14"
         offset="0"
         stop-color="#a0a0a0" />
      <stop
         id="stop16"
         offset="1"
         stop-color="#4a4a4a" />
    </linearGradient>
    <linearGradient
       xlink:href="#b"
       spreadMethod="reflect"
       gradientUnits="userSpaceOnUse"
       gradientTransform="matrix(.73652 0 0 .72048 -52.561 37.853)"
       y2="-7.6657"
       y1="-7.6657"
       x2="89.424"
       x1="103.95"
       id="h" />
    <linearGradient
       xlink:href="#a"
       gradientUnits="userSpaceOnUse"
       gradientTransform="matrix(1.6087 0 0 1.6667 -127.47 -9.5769)"
       y2="27.546"
       y1="22.537"
       x2="89.018"
       x1="89.018"
       id="g" />
    <linearGradient
       xlink:href="#b"
       spreadMethod="reflect"
       gradientUnits="userSpaceOnUse"
       gradientTransform="matrix(.73652 0 0 .72048 -52.561 28.853)"
       y2="-7.6657"
       y1="-7.6657"
       x2="89.424"
       x1="103.95"
       id="j" />
    <linearGradient
       xlink:href="#a"
       gradientUnits="userSpaceOnUse"
       gradientTransform="matrix(1.6087 0 0 1.6667 -127.47 -18.577)"
       y2="27.546"
       y1="22.537"
       x2="89.018"
       x1="89.018"
       id="i" />
    <linearGradient
       spreadMethod="reflect"
       gradientUnits="userSpaceOnUse"
       gradientTransform="matrix(.73698 0 0 .73149 -52.606 21.888)"
       y2="-24.582"
       y1="-2.3925"
       x2="102.31"
       x1="102.31"
       id="l">
      <stop
         id="stop23"
         offset="0"
         stop-color="#a5a6a8" />
      <stop
         id="stop25"
         offset="1"
         stop-color="#e8e8e8" />
    </linearGradient>
    <linearGradient
       gradientUnits="userSpaceOnUse"
       gradientTransform="matrix(.73698 0 0 .73149 -52.606 21.888)"
       y2="-2.3758"
       y1="-24.911"
       x2="109.96"
       x1="109.96"
       id="k">
      <stop
         id="stop28"
         offset="0"
         stop-color="#b3b3b3" />
      <stop
         id="stop30"
         offset="1"
         stop-color="#dadada" />
    </linearGradient>
    <linearGradient
       gradientUnits="userSpaceOnUse"
       y2="44.137"
       y1="5.0525"
       x2="21.381"
       x1="21.381"
       id="f">
      <stop
         id="stop33"
         offset="0"
         stop-color="#fff" />
      <stop
         id="stop35"
         offset=".081258"
         stop-opacity=".23529"
         stop-color="#fff" />
      <stop
         id="stop37"
         offset=".87819"
         stop-opacity=".15686"
         stop-color="#fff" />
      <stop
         id="stop39"
         offset="1"
         stop-opacity=".39216"
         stop-color="#fff" />
    </linearGradient>
    <linearGradient
       gradientUnits="userSpaceOnUse"
       gradientTransform="translate(99.797 -35.797)"
       y2="-25.402"
       y1="-109.97"
       x2="150.96"
       x1="67.567"
       id="u">
      <stop
         id="stop42"
         offset="0"
         stop-color="#dfdfdd" />
      <stop
         id="stop44"
         offset=".33425"
         stop-color="#cbcec9" />
      <stop
         id="stop46"
         offset="1"
         stop-opacity="0"
         stop-color="#f4f4f3" />
    </linearGradient>
    <linearGradient
       gradientUnits="userSpaceOnUse"
       gradientTransform="translate(45.324 -95.846)"
       y2="-123.72"
       y1="-123.74"
       x2="104.21"
       x1="-24.214"
       id="t">
      <stop
         id="stop49"
         offset="0"
         stop-color="#e6e6e4" />
      <stop
         id="stop51"
         offset=".17169"
         stop-color="#b8bbb4" />
      <stop
         id="stop53"
         offset="1"
         stop-opacity="0"
         stop-color="#e8e8e6" />
    </linearGradient>
    <filter
       color-interpolation-filters="sRGB"
       height="1.024"
       width="1.024"
       y="-.01202"
       x="-.01198"
       id="w">
      <feGaussianBlur
         id="feGaussianBlur56"
         stdDeviation="0.29280524" />
    </filter>
    <linearGradient
       gradientUnits="userSpaceOnUse"
       gradientTransform="translate(99.797 -35.797)"
       y2="-128.72"
       y1="-121.07"
       x2="76.966"
       x1="22.252"
       id="s">
      <stop
         id="stop59"
         offset="0"
         stop-color="#b7bab4" />
      <stop
         id="stop61"
         offset=".50125"
         stop-color="#e9e9e8" />
      <stop
         id="stop63"
         offset="1"
         stop-color="#f5f5f5" />
    </linearGradient>
    <linearGradient
       gradientUnits="userSpaceOnUse"
       gradientTransform="translate(99.797 -35.797)"
       y2="-30.893"
       y1="-104.26"
       x2="143.39"
       x1="72.916"
       id="r">
      <stop
         id="stop66"
         offset="0"
         stop-color="#717370" />
      <stop
         id="stop68"
         offset="1"
         stop-opacity="0"
         stop-color="#717370" />
    </linearGradient>
    <linearGradient
       gradientUnits="userSpaceOnUse"
       gradientTransform="translate(45.324 -95.846)"
       y2="-123.72"
       y1="-122.47"
       x2="104.21"
       x1="-9.68"
       id="q">
      <stop
         id="stop71"
         offset="0"
         stop-color="#cbcec9" />
      <stop
         id="stop73"
         offset="1"
         stop-opacity="0"
         stop-color="#cbcec9" />
    </linearGradient>
    <linearGradient
       gradientUnits="userSpaceOnUse"
       gradientTransform="matrix(.2623 0 0 .2623 21.626 54.684)"
       y2="-30.893"
       y1="-104.26"
       x2="143.39"
       x1="72.916"
       id="p">
      <stop
         id="stop76"
         offset="0"
         stop-color="#414341" />
      <stop
         id="stop78"
         offset="1"
         stop-opacity="0"
         stop-color="#717370" />
    </linearGradient>
    <filter
       color-interpolation-filters="sRGB"
       height="1.1193"
       width="1.1207"
       y="-.059671"
       x="-.060333"
       id="v">
      <feGaussianBlur
         id="feGaussianBlur81"
         stdDeviation="1.372706" />
    </filter>
    <linearGradient
       gradientUnits="userSpaceOnUse"
       gradientTransform="scale(3.7796)"
       y2="1.852"
       y1="15.081"
       x2="7.9373"
       x1="7.9373"
       id="linearGradient862-3">
      <stop
         id="stop84"
         offset="0"
         stop-color="#f1efeb" />
      <stop
         id="stop86"
         offset="1"
         stop-color="#fdfcfc" />
    </linearGradient>
    <linearGradient
       id="linearGradient1057">
      <stop
         stop-color="#fff"
         offset="0"
         id="stop958" />
      <stop
         stop-color="#fff"
         stop-opacity="0"
         offset="1"
         id="stop960" />
    </linearGradient>
    <linearGradient
       id="linearGradient982"
       x1="34.999"
       x2="34.999"
       y1="27.545"
       y2="52.847"
       gradientTransform="matrix(1.5625,0,0,1.5625,0.40633,-5.1891)"
       gradientUnits="userSpaceOnUse">
      <stop
         stop-color="#32b4ff"
         offset="0"
         id="stop963" />
      <stop
         stop-color="#3287ff"
         offset="1"
         id="stop965" />
    </linearGradient>
    <style
       type="text/css"
       id="style968" />
    <style
       type="text/css"
       id="style970" />
    <linearGradient
       id="linearGradient1047"
       x1="21.314"
       x2="21.314"
       y1="18.052"
       y2="43.681"
       gradientTransform="matrix(1.5625,0,0,1.5625,-9.2253,1.3231)"
       gradientUnits="userSpaceOnUse">
      <stop
         stop-color="#14dc78"
         offset="0"
         id="stop972" />
      <stop
         stop-color="#14a03c"
         offset="1"
         id="stop974" />
    </linearGradient>
    <linearGradient
       id="linearGradient1049"
       x1="41.729"
       x2="41.729"
       y1="12.316"
       y2="37.368"
       gradientTransform="matrix(1.5625,0,0,1.5625,-8.1072,-10.908)"
       gradientUnits="userSpaceOnUse">
      <stop
         stop-color="#ff3c64"
         offset="0"
         id="stop977" />
      <stop
         stop-color="#ff4628"
         offset="1"
         id="stop979" />
    </linearGradient>
    <linearGradient
       id="linearGradient1059"
       x1="34.427"
       x2="34.427"
       y1="32.234"
       y2="39.768"
       gradientTransform="matrix(1,0,0,1.2271,0.20646,-10.975)"
       gradientUnits="userSpaceOnUse"
       xlink:href="#linearGradient1057" />
    <linearGradient
       id="linearGradient1063"
       x1="34.427"
       x2="34.427"
       y1="32.234"
       y2="39.768"
       gradientTransform="matrix(1,0,0,1.2271,-12.55,-19.793)"
       gradientUnits="userSpaceOnUse"
       xlink:href="#linearGradient1057" />
    <linearGradient
       id="linearGradient1067"
       x1="34.427"
       x2="34.427"
       y1="32.234"
       y2="39.768"
       gradientTransform="matrix(1,0,0,1.2271,5.7554,-25.761)"
       gradientUnits="userSpaceOnUse"
       xlink:href="#linearGradient1057" />
    <filter
       id="filter11290"
       x="-.024"
       y="-.024"
       width="1.048"
       height="1.048"
       color-interpolation-filters="sRGB">
      <feGaussianBlur
         stdDeviation="0.15875313"
         id="feGaussianBlur985" />
    </filter>
    <linearGradient
       id="linearGradient1005"
       x1=".73911"
       x2="16.388"
       y1="16.296"
       y2=".64687"
       gradientTransform="matrix(3.7796,0,0,3.7796,-0.13155,0.025017)"
       gradientUnits="userSpaceOnUse">
      <stop
         stop-color="#dddfe1"
         offset="0"
         id="stop988" />
      <stop
         stop-color="#f3f4f6"
         offset="1"
         id="stop990" />
    </linearGradient>
  </defs>
  <circle
     id="circle995"
     stroke-width="0.14032"
     opacity="0.25"
     filter="url(#filter11290)"
     r="7.9376998"
     cy="8.46"
     cx="8.4937"
     transform="matrix(3.7796,0,0,3.7796,-0.10278795,0.02458453)" />
  <path
     id="path997"
     stroke-width="0.11719"
     fill="url(#linearGradient1005)"
     d="m 62.0004,32.00045 c 0,3.5964 -0.63305,7.0448 -1.794,10.24 -0.80698,2.2212 -1.8686,4.3212 -3.1519,6.2636 -0.53754,0.8167 -1.1155,1.6054 -1.729,2.3633 -1.9641,2.4257 -4.2982,4.5382 -6.9186,6.2526 -0.96493,0.63187 -1.9678,1.2099 -3.0061,1.7277 -4.0321,2.0179 -8.5839,3.153 -13.401,3.153 -4.8171,0 -9.3689,-1.1351 -13.401,-3.1531 -1.0384,-0.51799 -2.0425,-1.096 -3.0074,-1.7277 -2.6535,-1.7376 -5.0155,-3.8832 -6.9957,-6.349 -0.61468,-0.76408 -1.1915,-1.56 -1.729,-2.3841 -1.249,-1.9102 -2.2837,-3.9712 -3.0747,-6.1494 -1.1608,-3.1949 -1.7927,-6.6419 -1.7927,-10.237 0,-16.569 13.432,-30.001 30.001,-30.001 8.317,0 15.843,3.3846 21.277,8.8507 1.5661,1.5747 2.9584,3.3234 4.1436,5.214 1.1205,1.7805 2.0572,3.6882 2.7857,5.6951 1.161,3.196 1.7941,6.6442 1.7941,10.24 z"
     style="fill:url(#linearGradient1005)" />
  <g
     id="g111"
     transform="matrix(.83591 0 0 .83591 11.938 10.266)">
    <path
       id="path95"
       opacity=".3"
       fill-rule="evenodd"
       fill="url(#e)"
       d="m45.533 39.727c0.001822 4.5687-9.6396 8.2727-21.533 8.2727s-21.535-3.704-21.533-8.2727c-0.001822-4.5687 9.6396-8.2727 21.533-8.2727s21.535 3.704 21.533 8.2727z" />
    <path
       id="path97"
       stroke="url(#m)"
       fill="url(#n)"
       d="m42.484 37.113c0 4.0777-8.2827 7.3871-18.488 7.3871-10.206 0-18.488-3.3094-18.488-7.3871 0-11.816-2.2598-7.2333 18.488-7.3871 21.223-0.15867 18.488-5.446 18.488 7.3871z" />
    <path
       id="path99"
       stroke="#d8d8d8"
       fill="#868688"
       d="m42.5 30c0 4.1421-8.2827 7.5-18.5 7.5-10.217 0-18.5-3.3579-18.5-7.5s8.2827-7.5 18.5-7.5c10.217 0 18.5 3.3579 18.5 7.5z" />
    <path
       id="path101"
       stroke="url(#g)"
       fill="url(#h)"
       d="m42.484 28.113c0 4.0777-8.2827 7.3871-18.488 7.3871-10.206 0-18.488-3.3094-18.488-7.3871 0-13.071-2.2598-7.2333 18.488-7.3871 21.223-0.15867 18.488-5.6907 18.488 7.3871z" />
    <path
       id="path103"
       stroke="#d8d8d8"
       fill="#868688"
       d="m42.5 21c0 4.1421-8.2827 7.5-18.5 7.5-10.217 0-18.5-3.3579-18.5-7.5s8.2827-7.5 18.5-7.5c10.217 0 18.5 3.3579 18.5 7.5z" />
    <path
       id="path105"
       stroke="url(#i)"
       fill="url(#j)"
       d="m42.484 19.113c0 4.0777-8.2827 7.3871-18.488 7.3871-10.206 0-18.488-3.3094-18.488-7.3871 0-13.951-2.2598-7.2333 18.488-7.3871 21.223-0.15867 18.488-5.541 18.488 7.3871z" />
    <path
       id="path107"
       stroke="url(#k)"
       fill="url(#l)"
       d="m42.5 12c0 4.1421-8.2827 7.5-18.5 7.5-10.217 0-18.5-3.3579-18.5-7.5s8.2827-7.5 18.5-7.5c10.217 0 18.5 3.3579 18.5 7.5z" />
    <rect
       id="rect109"
       stroke="url(#f)"
       opacity=".5"
       fill="none"
       color="#000000"
       ry="7"
       rx="17.5"
       height="38"
       width="35"
       y="5.5"
       x="6.5" />
  </g>
  <path
     id="path113"
     style="paint-order:normal"
     opacity=".35"
     filter="url(#v)"
     fill="url(#p)"
     d="m35.583 13.615 3.5645 6.1816c0.35134 0.60954 0.25424 1.3517-0.18945 1.8477a6.2373 7.6955 60.041 0 1-2.666 2.3164 6.2373 7.6955 60.041 0 1-3.3105 1.1387c-7.87e-4 1.91e-4 -0.0029-2.63e-4 -0.0039 0-0.06126 0.01385-0.12188 0.02289-0.18359 0.0293a6.2373 7.6955 60.041 0 1-0.0039 2e-3h-2e-3c-0.6012 0.06074-1.207-0.22789-1.5293-0.78711l-3.5645-6.1816a7.6955 7.6955 0 0 0 0.37109 6.9355 7.6955 7.6955 0 0 0 7.3477 3.8125c1.4665 0.4975 2.8804 1.2176 4.1445 2.457l17.18 17.154 10.168 10.152 10.166 10.152 4.5762-4.582-20.336-20.305-17.178-17.154c-1.0311-1.0569-1.5653-2.1249-2.0938-3.1484a7.6955 7.6955 0 0 0-0.64063-6.2246 7.6955 7.6955 0 0 0-5.8164-3.7969z" />
  <g
     id="g125"
     transform="matrix(.2623 0 0 .2623 -3.2083 62.251)">
    <path
       id="path115"
       style="paint-order:normal"
       fill="url(#r)"
       d="m175.74-157.7c2.8135 4.8419 4.746 10.295 9.8649 15.542l143.02 142.81-17.443 17.468-143.02-142.81c-4.983-4.8855-10.575-7.6689-16.369-9.5707 7.9824-7.813 15.965-15.626 23.947-23.439z" />
    <path
       id="path117"
       style="paint-order:normal"
       fill="url(#u)"
       d="m177.74-157.7c2.8135 4.8419 4.746 10.295 9.8649 15.542l143.02 142.81-17.443 17.468-143.02-142.81c-4.983-4.8855-10.575-7.6689-16.369-9.5707 7.9824-7.813 15.965-15.626 23.947-23.439z" />
    <rect
       id="rect119"
       style="paint-order:normal"
       stroke-linejoin="round"
       stroke-linecap="round"
       stroke="url(#q)"
       fill="url(#t)"
       ry=".86457"
       height="12.272"
       width="228.19"
       y="-226.57"
       x="13.981"
       transform="rotate(44.959)" />
    <path
       id="path121"
       style="paint-order:normal"
       filter="url(#w)"
       fill="#878785"
       d="m153.01-192.37 13.587 23.572c1.3395 2.3239 0.96714 5.1476-0.72442 7.0386a23.78 29.339 60.041 0 1-10.162 8.8329 23.78 29.339 60.041 0 1-12.622 4.3422c-3e-3 7.3e-4 -6e-3 2e-3 -0.01 3e-3 -0.23353 0.0528-0.46952 0.0865-0.70479 0.11092a23.78 29.339 60.041 0 1-0.0165 3e-3l-1e-3 -2e-3c-2.2921 0.23155-4.6064-0.86177-5.8353-2.9938l-13.586-23.57a29.339 29.339 0 0 0 1.4098 26.44 29.339 29.339 0 0 0 40.07 10.769 29.339 29.339 0 0 0 10.768-40.071 29.339 29.339 0 0 0-22.173-14.474z" />
    <path
       id="path123"
       style="paint-order:normal"
       stroke-linejoin="round"
       stroke-linecap="round"
       stroke="#e6e6e4"
       fill="url(#s)"
       d="m152.94-194.33 13.587 23.572c1.3395 2.3239 0.96714 5.1476-0.72442 7.0386a23.78 29.339 60.041 0 1-10.162 8.8329 23.78 29.339 60.041 0 1-12.622 4.3422c-3e-3 7.3e-4 -6e-3 2e-3 -9e-3 3e-3 -0.23354 0.0528-0.46953 0.0865-0.7048 0.11092a23.78 29.339 60.041 0 1-0.0165 3e-3l-1e-3 -2e-3c-2.2921 0.23155-4.6064-0.86177-5.8353-2.9938l-13.586-23.57a29.339 29.339 0 0 0 1.4098 26.44 29.339 29.339 0 0 0 40.07 10.769 29.339 29.339 0 0 0 10.768-40.071 29.339 29.339 0 0 0-22.173-14.474z" />
  </g>
  <circle
     id="circle999"
     fill="#5e4aa6"
     r="0"
     cy="-1315.5272"
     cx="-1301.5526" />
  <circle
     id="circle1001"
     fill-rule="evenodd"
     fill="#5e4aa6"
     r="0"
     cy="-50.072258"
     cx="-202.0027" />
  <g
     id="g1025"
     stroke-width="0.26458"
     fill="#5e4aa6"
     transform="matrix(3.7796,0,0,3.7796,-155.77271,-112.64726)">
    <circle
       id="circle1017"
       r="0"
       cy="-328.38"
       cx="-330.35001" />
    <circle
       id="circle1019"
       r="0"
       cy="-326.25"
       cx="-312.10999" />
    <circle
       id="circle1021"
       r="0"
       cy="-333.07001"
       cx="-306.01999" />
    <circle
       id="circle1023"
       r="0"
       cy="-326.01001"
       cx="-308.84" />
  </g>
</svg>
