<?xml version="1.0" encoding="UTF-8" standalone="no"?>
<svg
   xmlns:dc="http://purl.org/dc/elements/1.1/"
   xmlns:cc="http://creativecommons.org/ns#"
   xmlns:rdf="http://www.w3.org/1999/02/22-rdf-syntax-ns#"
   xmlns:svg="http://www.w3.org/2000/svg"
   xmlns="http://www.w3.org/2000/svg"
   xmlns:xlink="http://www.w3.org/1999/xlink"
   xmlns:sodipodi="http://sodipodi.sourceforge.net/DTD/sodipodi-0.dtd"
   xmlns:inkscape="http://www.inkscape.org/namespaces/inkscape"
   inkscape:version="1.0 (4035a4fb49, 2020-05-01)"
   sodipodi:docname="gda-browser-5.0.svg"
   id="svg83"
   version="1.1"
   height="64"
   width="64">
  <metadata
     id="metadata87">
    <rdf:RDF>
      <cc:Work
         rdf:about="">
        <dc:format>image/svg+xml</dc:format>
        <dc:type
           rdf:resource="http://purl.org/dc/dcmitype/StillImage" />
        <dc:title></dc:title>
      </cc:Work>
    </rdf:RDF>
  </metadata>
  <sodipodi:namedview
     inkscape:current-layer="svg83"
     inkscape:window-maximized="1"
     inkscape:window-y="0"
     inkscape:window-x="0"
     inkscape:cy="-0.23272884"
     inkscape:cx="13.712201"
     inkscape:zoom="2.2539029"
     showgrid="false"
     id="namedview85"
     inkscape:window-height="985"
     inkscape:window-width="1920"
     inkscape:pageshadow="2"
     inkscape:pageopacity="0"
     guidetolerance="10"
     gridtolerance="10"
     objecttolerance="10"
     borderopacity="1"
     bordercolor="#666666"
     pagecolor="#ffffff" />
  <defs
     id="defs55">
    <radialGradient
       gradientUnits="userSpaceOnUse"
       gradientTransform="matrix(.95165 0 0 .36555 1.7936 24.507)"
       r="22.627"
       cy="41.636"
       cx="23.335"
       id="e">
      <stop
         id="stop2"
         offset="0" />
      <stop
         id="stop4"
         offset="1"
         stop-opacity="0" />
    </radialGradient>
    <linearGradient
       xlink:href="#b"
       spreadMethod="reflect"
       gradientUnits="userSpaceOnUse"
       gradientTransform="matrix(.73652 0 0 .72048 -52.561 46.853)"
       y2="-7.6657"
       y1="-7.6657"
       x2="89.424"
       x1="103.95"
       id="n" />
    <linearGradient
       id="b">
      <stop
         id="stop8"
         offset="0"
         stop-color="#868688" />
      <stop
         id="stop10"
         offset="1"
         stop-color="#d9d9da" />
    </linearGradient>
    <linearGradient
       xlink:href="#a"
       gradientUnits="userSpaceOnUse"
       gradientTransform="matrix(1.6087 0 0 1.6667 -127.47 -.57685)"
       y2="27.546"
       y1="22.537"
       x2="89.018"
       x1="89.018"
       id="m" />
    <linearGradient
       id="a">
      <stop
         id="stop14"
         offset="0"
         stop-color="#a0a0a0" />
      <stop
         id="stop16"
         offset="1"
         stop-color="#4a4a4a" />
    </linearGradient>
    <linearGradient
       xlink:href="#b"
       spreadMethod="reflect"
       gradientUnits="userSpaceOnUse"
       gradientTransform="matrix(.73652 0 0 .72048 -52.561 37.853)"
       y2="-7.6657"
       y1="-7.6657"
       x2="89.424"
       x1="103.95"
       id="h" />
    <linearGradient
       xlink:href="#a"
       gradientUnits="userSpaceOnUse"
       gradientTransform="matrix(1.6087 0 0 1.6667 -127.47 -9.5769)"
       y2="27.546"
       y1="22.537"
       x2="89.018"
       x1="89.018"
       id="g" />
    <linearGradient
       xlink:href="#b"
       spreadMethod="reflect"
       gradientUnits="userSpaceOnUse"
       gradientTransform="matrix(.73652 0 0 .72048 -52.561 28.853)"
       y2="-7.6657"
       y1="-7.6657"
       x2="89.424"
       x1="103.95"
       id="j" />
    <linearGradient
       xlink:href="#a"
       gradientUnits="userSpaceOnUse"
       gradientTransform="matrix(1.6087 0 0 1.6667 -127.47 -18.577)"
       y2="27.546"
       y1="22.537"
       x2="89.018"
       x1="89.018"
       id="i" />
    <linearGradient
       spreadMethod="reflect"
       gradientUnits="userSpaceOnUse"
       gradientTransform="matrix(.73698 0 0 .73149 -52.606 21.888)"
       y2="-24.582"
       y1="-2.3925"
       x2="102.31"
       x1="102.31"
       id="l">
      <stop
         id="stop23"
         offset="0"
         stop-color="#a5a6a8" />
      <stop
         id="stop25"
         offset="1"
         stop-color="#e8e8e8" />
    </linearGradient>
    <linearGradient
       gradientUnits="userSpaceOnUse"
       gradientTransform="matrix(.73698 0 0 .73149 -52.606 21.888)"
       y2="-2.3758"
       y1="-24.911"
       x2="109.96"
       x1="109.96"
       id="k">
      <stop
         id="stop28"
         offset="0"
         stop-color="#b3b3b3" />
      <stop
         id="stop30"
         offset="1"
         stop-color="#dadada" />
    </linearGradient>
    <linearGradient
       gradientUnits="userSpaceOnUse"
       y2="44.137"
       y1="5.0525"
       x2="21.381"
       x1="21.381"
       id="f">
      <stop
         id="stop33"
         offset="0"
         stop-color="#fff" />
      <stop
         id="stop35"
         offset=".081258"
         stop-opacity=".23529"
         stop-color="#fff" />
      <stop
         id="stop37"
         offset=".87819"
         stop-opacity=".15686"
         stop-color="#fff" />
      <stop
         id="stop39"
         offset="1"
         stop-opacity=".39216"
         stop-color="#fff" />
    </linearGradient>
    <linearGradient
       gradientUnits="userSpaceOnUse"
       y2="53"
       y1="31"
       x2="45"
       x1="45"
       id="o">
      <stop
         id="stop42"
         offset="0"
         stop-color="#333" />
      <stop
         id="stop44"
         offset="1"
         stop-color="#717171" />
    </linearGradient>
    <filter
       color-interpolation-filters="sRGB"
       height="1.12"
       width="1.12"
       y="-.06"
       x="-.06"
       id="q">
      <feGaussianBlur
         id="feGaussianBlur47"
         stdDeviation="0.55000135" />
    </filter>
    <linearGradient
       gradientUnits="userSpaceOnUse"
       gradientTransform="scale(3.7796)"
       y2="1.852"
       y1="15.081"
       x2="7.9373"
       x1="7.9373"
       id="linearGradient862-3">
      <stop
         id="stop50"
         offset="0"
         stop-color="#f1efeb" />
      <stop
         id="stop52"
         offset="1"
         stop-color="#fdfcfc" />
    </linearGradient>
    <linearGradient
       id="linearGradient1057">
      <stop
         stop-color="#fff"
         offset="0"
         id="stop914" />
      <stop
         stop-color="#fff"
         stop-opacity="0"
         offset="1"
         id="stop916" />
    </linearGradient>
    <linearGradient
       id="linearGradient982"
       x1="34.999"
       x2="34.999"
       y1="27.545"
       y2="52.847"
       gradientTransform="matrix(1.5625,0,0,1.5625,0.40633,-5.1891)"
       gradientUnits="userSpaceOnUse">
      <stop
         stop-color="#32b4ff"
         offset="0"
         id="stop919" />
      <stop
         stop-color="#3287ff"
         offset="1"
         id="stop921" />
    </linearGradient>
    <style
       type="text/css"
       id="style924" />
    <style
       type="text/css"
       id="style926" />
    <linearGradient
       id="linearGradient1047"
       x1="21.314"
       x2="21.314"
       y1="18.052"
       y2="43.681"
       gradientTransform="matrix(1.5625,0,0,1.5625,-9.2253,1.3231)"
       gradientUnits="userSpaceOnUse">
      <stop
         stop-color="#14dc78"
         offset="0"
         id="stop928" />
      <stop
         stop-color="#14a03c"
         offset="1"
         id="stop930" />
    </linearGradient>
    <linearGradient
       id="linearGradient1049"
       x1="41.729"
       x2="41.729"
       y1="12.316"
       y2="37.368"
       gradientTransform="matrix(1.5625,0,0,1.5625,-8.1072,-10.908)"
       gradientUnits="userSpaceOnUse">
      <stop
         stop-color="#ff3c64"
         offset="0"
         id="stop933" />
      <stop
         stop-color="#ff4628"
         offset="1"
         id="stop935" />
    </linearGradient>
    <linearGradient
       id="linearGradient1059"
       x1="34.427"
       x2="34.427"
       y1="32.234"
       y2="39.768"
       gradientTransform="matrix(1,0,0,1.2271,0.20646,-10.975)"
       gradientUnits="userSpaceOnUse"
       xlink:href="#linearGradient1057" />
    <linearGradient
       id="linearGradient1063"
       x1="34.427"
       x2="34.427"
       y1="32.234"
       y2="39.768"
       gradientTransform="matrix(1,0,0,1.2271,-12.55,-19.793)"
       gradientUnits="userSpaceOnUse"
       xlink:href="#linearGradient1057" />
    <linearGradient
       id="linearGradient1067"
       x1="34.427"
       x2="34.427"
       y1="32.234"
       y2="39.768"
       gradientTransform="matrix(1,0,0,1.2271,5.7554,-25.761)"
       gradientUnits="userSpaceOnUse"
       xlink:href="#linearGradient1057" />
    <filter
       id="filter11290"
       x="-.024"
       y="-.024"
       width="1.048"
       height="1.048"
       color-interpolation-filters="sRGB">
      <feGaussianBlur
         stdDeviation="0.15875313"
         id="feGaussianBlur941" />
    </filter>
    <linearGradient
       id="linearGradient1005"
       x1=".73911"
       x2="16.388"
       y1="16.296"
       y2=".64687"
       gradientTransform="matrix(3.7796,0,0,3.7796,-0.13155,0.025017)"
       gradientUnits="userSpaceOnUse">
      <stop
         stop-color="#dddfe1"
         offset="0"
         id="stop944" />
      <stop
         stop-color="#f3f4f6"
         offset="1"
         id="stop946" />
    </linearGradient>
  </defs>
  <circle
     id="circle951"
     stroke-width="0.14032"
     opacity="0.25"
     filter="url(#filter11290)"
     r="7.9376998"
     cy="8.46"
     cx="8.4937"
     transform="matrix(3.7796,0,0,3.7796,-0.10278795,0.02458453)" />
  <path
     id="path953"
     stroke-width="0.11719"
     fill="url(#linearGradient1005)"
     d="m 62.0004,32.00045 c 0,3.5964 -0.63305,7.0448 -1.794,10.24 -0.80698,2.2212 -1.8686,4.3212 -3.1519,6.2636 -0.53754,0.8167 -1.1155,1.6054 -1.729,2.3633 -1.9641,2.4257 -4.2982,4.5382 -6.9186,6.2526 -0.96493,0.63187 -1.9678,1.2099 -3.0061,1.7277 -4.0321,2.0179 -8.5839,3.153 -13.401,3.153 -4.8171,0 -9.3689,-1.1351 -13.401,-3.1531 -1.0384,-0.51799 -2.0425,-1.096 -3.0074,-1.7277 -2.6535,-1.7376 -5.0155,-3.8832 -6.9957,-6.349 -0.61468,-0.76408 -1.1915,-1.56 -1.729,-2.3841 -1.249,-1.9102 -2.2837,-3.9712 -3.0747,-6.1494 -1.1608,-3.1949 -1.7927,-6.6419 -1.7927,-10.237 0,-16.569 13.432,-30.001 30.001,-30.001 8.317,0 15.843,3.3846 21.277,8.8507 1.5661,1.5747 2.9584,3.3234 4.1436,5.214 1.1205,1.7805 2.0572,3.6882 2.7857,5.6951 1.161,3.196 1.7941,6.6442 1.7941,10.24 z"
     style="fill:url(#linearGradient1005)" />
  <g
     id="g77"
     transform="matrix(.83591 0 0 .83591 11.938 10.266)">
    <path
       id="path61"
       opacity=".3"
       fill-rule="evenodd"
       fill="url(#e)"
       d="m45.533 39.727c0.001822 4.5687-9.6396 8.2727-21.533 8.2727s-21.535-3.704-21.533-8.2727c-0.001822-4.5687 9.6396-8.2727 21.533-8.2727s21.535 3.704 21.533 8.2727z" />
    <path
       id="path63"
       stroke="url(#m)"
       fill="url(#n)"
       d="m42.484 37.113c0 4.0777-8.2827 7.3871-18.488 7.3871-10.206 0-18.488-3.3094-18.488-7.3871 0-11.816-2.2598-7.2333 18.488-7.3871 21.223-0.15867 18.488-5.446 18.488 7.3871z" />
    <path
       id="path65"
       stroke="#d8d8d8"
       fill="#868688"
       d="m42.5 30c0 4.1421-8.2827 7.5-18.5 7.5-10.217 0-18.5-3.3579-18.5-7.5s8.2827-7.5 18.5-7.5c10.217 0 18.5 3.3579 18.5 7.5z" />
    <path
       id="path67"
       stroke="url(#g)"
       fill="url(#h)"
       d="m42.484 28.113c0 4.0777-8.2827 7.3871-18.488 7.3871-10.206 0-18.488-3.3094-18.488-7.3871 0-13.071-2.2598-7.2333 18.488-7.3871 21.223-0.15867 18.488-5.6907 18.488 7.3871z" />
    <path
       id="path69"
       stroke="#d8d8d8"
       fill="#868688"
       d="m42.5 21c0 4.1421-8.2827 7.5-18.5 7.5-10.217 0-18.5-3.3579-18.5-7.5s8.2827-7.5 18.5-7.5c10.217 0 18.5 3.3579 18.5 7.5z" />
    <path
       id="path71"
       stroke="url(#i)"
       fill="url(#j)"
       d="m42.484 19.113c0 4.0777-8.2827 7.3871-18.488 7.3871-10.206 0-18.488-3.3094-18.488-7.3871 0-13.951-2.2598-7.2333 18.488-7.3871 21.223-0.15867 18.488-5.541 18.488 7.3871z" />
    <path
       id="path73"
       stroke="url(#k)"
       fill="url(#l)"
       d="m42.5 12c0 4.1421-8.2827 7.5-18.5 7.5-10.217 0-18.5-3.3579-18.5-7.5s8.2827-7.5 18.5-7.5c10.217 0 18.5 3.3579 18.5 7.5z" />
    <rect
       id="rect75"
       stroke="url(#f)"
       opacity=".5"
       fill="none"
       color="#000000"
       ry="7"
       rx="17.5"
       height="38"
       width="35"
       y="5.5"
       x="6.5" />
  </g>
  <path
     id="path79"
     opacity=".5"
     filter="url(#q)"
     fill-rule="evenodd"
     clip-rule="evenodd"
     d="m55.931 40.779c-0.03479-0.30925-0.39537-0.54164-0.70719-0.54164-1.0081 0-1.9027-0.59192-2.2778-1.5073-0.38326-0.93761-0.13613-2.031 0.61519-2.7201 0.2365-0.21618 0.26522-0.57807 0.06689-0.82946-0.51595-0.6552-1.1024-1.247-1.7427-1.7599-0.25073-0.2012-0.61861-0.17321-0.836 0.06754-0.65566 0.72612-1.8335 0.99602-2.7436 0.61629-0.9471-0.3984-1.5443-1.3581-1.4859-2.3882 0.01924-0.32358-0.21725-0.60494-0.53985-0.64252-0.8217-0.09504-1.6506-0.09798-2.4747-0.0065-0.31892 0.03519-0.55541 0.3099-0.54469 0.62938 0.03586 1.02-0.56859 1.9629-1.5063 2.347-0.89922 0.36729-2.0687 0.09971-2.7231-0.62-0.21627-0.23706-0.57816-0.2662-0.8301-0.06982-0.65931 0.51725-1.2589 1.1096-1.7796 1.7593-0.20309 0.25261-0.17321 0.61872 0.06566 0.83606 0.7656 0.69335 1.0128 1.7962 0.61508 2.7446-0.37974 0.9042-1.3187 1.4869-2.3936 1.4869-0.3488-0.0112-0.59724 0.2229-0.6354 0.54-0.09675 0.82639-0.0979 1.6685-0.0047 2.5016 0.03455 0.31056 0.4061 0.54091 0.72131 0.54091 0.95793-0.02447 1.8776 0.56857 2.2634 1.5074 0.38457 0.93761 0.13736 2.0304-0.61508 2.7201-0.23534 0.21618-0.26522 0.5775-0.06688 0.82888 0.51112 0.65103 1.0976 1.2434 1.7402 1.7606 0.25204 0.20308 0.61878 0.17444 0.83722-0.0663 0.65815-0.72797 1.8358-0.99736 2.7423-0.61687 0.94948 0.39716 1.5467 1.3568 1.4882 2.3875-0.01907 0.32374 0.21856 0.60558 0.53985 0.64258 0.42034 0.04903 0.84324 0.07351 1.2673 0.07351 0.4025 0 0.80509-0.0221 1.2076-0.06688 0.319-0.03519 0.55533-0.3099 0.5446-0.62995-0.03692-1.0194 0.56859-1.9624 1.505-2.3457 0.90525-0.36975 2.0699-0.09913 2.7243 0.61982 0.2175 0.23656 0.57685 0.26513 0.83021 0.06942 0.65803-0.51602 1.2564-1.1078 1.7796-1.7594 0.203-0.25203 0.17436-0.61872-0.06572-0.836-0.7656-0.69335-1.0141-1.7964-0.61629-2.7442 0.37393-0.89216 1.278-1.4912 2.2504-1.4912l0.13605 0.0036c0.3154 0.02563 0.60558-0.21733 0.64379-0.53927 0.09692-0.82714 0.09806-1.6685 0.0048-2.5016zm-10.914 4.9138c-2.0234 0-3.6692-1.6458-3.6692-3.6691s1.6458-3.6692 3.6692-3.6692c2.0233 0 3.6692 1.6459 3.6692 3.6692s-1.6458 3.6691-3.6692 3.6691z" />
  <path
     id="path81"
     fill-rule="evenodd"
     fill="url(#o)"
     clip-rule="evenodd"
     d="m55.931 40.779c-0.03479-0.30925-0.39537-0.54164-0.70719-0.54164-1.0081 0-1.9027-0.59192-2.2778-1.5073-0.38326-0.93761-0.13613-2.031 0.61519-2.7201 0.2365-0.21618 0.26522-0.57807 0.06689-0.82946-0.51595-0.6552-1.1024-1.247-1.7427-1.7599-0.25073-0.2012-0.61861-0.17321-0.836 0.06754-0.65566 0.72612-1.8335 0.99602-2.7436 0.61629-0.9471-0.3984-1.5443-1.3581-1.4859-2.3882 0.01924-0.32358-0.21725-0.60494-0.53985-0.64252-0.8217-0.09504-1.6506-0.09798-2.4747-0.0065-0.31892 0.03519-0.55541 0.3099-0.54469 0.62938 0.03586 1.02-0.56859 1.9629-1.5063 2.347-0.89922 0.36729-2.0687 0.09971-2.7231-0.62-0.21627-0.23706-0.57816-0.2662-0.8301-0.06982-0.65931 0.51725-1.2589 1.1096-1.7796 1.7593-0.20309 0.25261-0.17321 0.61872 0.06566 0.83606 0.7656 0.69335 1.0128 1.7962 0.61508 2.7446-0.37974 0.9042-1.3187 1.4869-2.3936 1.4869-0.3488-0.0112-0.59724 0.2229-0.6354 0.54-0.09675 0.82639-0.0979 1.6685-0.0047 2.5016 0.03455 0.31056 0.4061 0.54091 0.72131 0.54091 0.95793-0.02447 1.8776 0.56857 2.2634 1.5074 0.38457 0.93761 0.13736 2.0304-0.61508 2.7201-0.23534 0.21618-0.26522 0.5775-0.06688 0.82888 0.51112 0.65103 1.0976 1.2434 1.7402 1.7606 0.25204 0.20308 0.61878 0.17444 0.83722-0.0663 0.65815-0.72797 1.8358-0.99736 2.7423-0.61687 0.94948 0.39716 1.5467 1.3568 1.4882 2.3875-0.01907 0.32374 0.21856 0.60558 0.53985 0.64258 0.42034 0.04903 0.84324 0.07351 1.2673 0.07351 0.4025 0 0.80509-0.0221 1.2076-0.06688 0.319-0.03519 0.55533-0.3099 0.5446-0.62995-0.03692-1.0194 0.56859-1.9624 1.505-2.3457 0.90525-0.36975 2.0699-0.09913 2.7243 0.61982 0.2175 0.23656 0.57685 0.26513 0.83021 0.06942 0.65803-0.51602 1.2564-1.1078 1.7796-1.7594 0.203-0.25203 0.17436-0.61872-0.06572-0.836-0.7656-0.69335-1.0141-1.7964-0.61629-2.7442 0.37393-0.89216 1.278-1.4912 2.2504-1.4912l0.13605 0.0036c0.3154 0.02563 0.60558-0.21733 0.64379-0.53927 0.09692-0.82714 0.09806-1.6685 0.0048-2.5016zm-10.914 4.9138c-2.0234 0-3.6692-1.6458-3.6692-3.6691s1.6458-3.6692 3.6692-3.6692c2.0233 0 3.6692 1.6459 3.6692 3.6692s-1.6458 3.6691-3.6692 3.6691z" />
  <circle
     id="circle955"
     fill="#5e4aa6"
     r="0"
     cy="-1309.0509"
     cx="-1353.798" />
  <circle
     id="circle957"
     fill-rule="evenodd"
     fill="#5e4aa6"
     r="0"
     cy="-43.595966"
     cx="-254.24802" />
  <g
     id="g981"
     stroke-width="0.26458"
     fill="#5e4aa6"
     transform="matrix(3.7796,0,0,3.7796,-208.01803,-106.17096)">
    <circle
       id="circle973"
       r="0"
       cy="-328.38"
       cx="-330.35001" />
    <circle
       id="circle975"
       r="0"
       cy="-326.25"
       cx="-312.10999" />
    <circle
       id="circle977"
       r="0"
       cy="-333.07001"
       cx="-306.01999" />
    <circle
       id="circle979"
       r="0"
       cy="-326.01001"
       cx="-308.84" />
  </g>
</svg>
