<?xml version="1.0" encoding="UTF-8" standalone="no"?>
<svg
   xmlns:dc="http://purl.org/dc/elements/1.1/"
   xmlns:cc="http://creativecommons.org/ns#"
   xmlns:rdf="http://www.w3.org/1999/02/22-rdf-syntax-ns#"
   xmlns:svg="http://www.w3.org/2000/svg"
   xmlns="http://www.w3.org/2000/svg"
   xmlns:sodipodi="http://sodipodi.sourceforge.net/DTD/sodipodi-0.dtd"
   xmlns:inkscape="http://www.inkscape.org/namespaces/inkscape"
   inkscape:version="1.0 (4035a4fb49, 2020-05-01)"
   sodipodi:docname="geany.svg"
   id="svg37"
   version="1.1"
   height="64"
   width="64">
  <metadata
     id="metadata41">
    <rdf:RDF>
      <cc:Work
         rdf:about="">
        <dc:format>image/svg+xml</dc:format>
        <dc:type
           rdf:resource="http://purl.org/dc/dcmitype/StillImage" />
        <dc:title></dc:title>
      </cc:Work>
    </rdf:RDF>
  </metadata>
  <sodipodi:namedview
     inkscape:current-layer="svg37"
     inkscape:window-maximized="1"
     inkscape:window-y="0"
     inkscape:window-x="0"
     inkscape:cy="25.596885"
     inkscape:cx="46.702173"
     inkscape:zoom="3.1875"
     showgrid="false"
     id="namedview39"
     inkscape:window-height="985"
     inkscape:window-width="1920"
     inkscape:pageshadow="2"
     inkscape:pageopacity="0"
     guidetolerance="10"
     gridtolerance="10"
     objecttolerance="10"
     borderopacity="1"
     bordercolor="#666666"
     pagecolor="#ffffff" />
  <defs
     id="defs15">
    <linearGradient
       gradientUnits="userSpaceOnUse"
       y2="20.308"
       y1="43.692"
       x2="33.821"
       x1="33.821"
       id="linearGradient4572">
      <stop
         id="stop2"
         offset="0"
         stop-color="#d11628" />
      <stop
         id="stop4"
         offset="1"
         stop-color="#ff2919" />
    </linearGradient>
    <filter
       color-interpolation-filters="sRGB"
       height="1.1575"
       width="1.0969"
       y="-.078752"
       x="-.048461"
       id="filter4592">
      <feGaussianBlur
         id="feGaussianBlur7"
         stdDeviation="0.76729678" />
    </filter>
    <linearGradient
       gradientUnits="userSpaceOnUse"
       gradientTransform="matrix(3.7795 0 0 3.7795 .00014309 .031541)"
       y2="1.852"
       y1="15.081"
       x2="7.9373"
       x1="7.9373"
       id="linearGradient862-3">
      <stop
         id="stop10"
         offset="0"
         stop-color="#e8900d" />
      <stop
         id="stop12"
         offset="1"
         stop-color="#ffdc52" />
    </linearGradient>
    <filter
       id="filter11290"
       x="-0.024"
       y="-0.024"
       width="1.048"
       height="1.048"
       color-interpolation-filters="sRGB">
      <feGaussianBlur
         stdDeviation="0.15875313"
         id="feGaussianBlur861" />
    </filter>
    <filter
       id="filter11290-3"
       x="-.024"
       y="-.024"
       width="1.048"
       height="1.048"
       color-interpolation-filters="sRGB">
      <feGaussianBlur
         stdDeviation="0.15875313"
         id="feGaussianBlur888" />
    </filter>
    <linearGradient
       id="linearGradient1005"
       x1=".73911"
       x2="13.303"
       y1="16.296"
       y2="3.7322"
       gradientTransform="matrix(3.7796,0,0,3.7796,-0.13193,0.024583)"
       gradientUnits="userSpaceOnUse">
      <stop
         stop-color="#ff7d1e"
         offset="0"
         id="stop891" />
      <stop
         stop-color="#ffa53c"
         offset="1"
         id="stop893" />
    </linearGradient>
  </defs>
  <circle
     transform="matrix(3.7796,0,0,3.7796,-0.10278795,0.02458453)"
     style="filter:url(#filter11290-3)"
     id="circle898"
     stroke-width="0.14032"
     opacity="0.25"
     filter="url(#filter11290)"
     r="7.9376998"
     cy="8.46"
     cx="8.4937" />
  <path
     id="path900"
     stroke-width="0.11719"
     fill="url(#linearGradient1005)"
     d="m 62.00037,31.999811 c 0,3.596441 -0.63305,7.044796 -1.79395,10.240448 -0.80698,2.221196 -1.8686,4.321217 -3.15192,6.263553 -0.53754,0.816696 -1.11551,1.605386 -1.72902,2.363346 -1.96411,2.42571 -4.29816,4.538166 -6.91856,6.252593 -0.96493,0.631873 -1.96785,1.20985 -3.00614,1.727731 -4.03208,2.01789 -8.58385,3.15298 -13.40095,3.15298 -4.8171,0 -9.36887,-1.13509 -13.40095,-3.153094 -1.03841,-0.517994 -2.0425,-1.09597 -3.00743,-1.727731 C 12.93791,55.382042 10.57592,53.236476 8.59579,50.770665 7.98111,50.006581 7.40431,49.210635 6.86678,48.386569 5.61777,46.476359 4.5831,44.415343 3.79207,42.23716 2.63132,39.042302 1.99941,35.595269 1.99941,32.000113 c 0,-16.56901 13.43156,-30.000575 30.00057,-30.000575 8.31701,0 15.84295,3.384557 21.27726,8.85069 1.56611,1.574657 2.95844,3.323364 4.14358,5.213958 1.12046,1.780456 2.05716,3.688209 2.78571,5.695101 1.16102,3.195992 1.79406,6.644159 1.79406,10.240448 z"
     style="fill:url(#linearGradient1005)" />
  <path
     id="path33"
     stroke-width="5.178"
     opacity=".15"
     filter="url(#filter4592)"
     d="m25 43.692c0.33139-1.3566 1.4032-2.3404 2.3353-3.1327 0.611-0.39353 0.64207-0.71974 0.15016-0.94757-2.4854-1.1443-4.5307-1.8537-6.5864-2.9773-3.4796-1.9314-5.4731-4.7327-6.0013-8.4297-0.10874-0.88543-0.10874-1.8071 0.0466-2.4544 0.2123-0.46084 0.6576-0.73527 1.1858-0.73527 0.33657 0 0.53333 0.07767 1.4757 0.60065 2.1489 1.1858 4.2511 2.1281 5.3488 2.4026 0.45048 0.10874 0.49709 0.10874 0.75081-0.03107 1.2116-0.66796 2.1489-1.6828 2.5683-1.833h9.631c3.3605 3.5883 8.0673 4.567 12.142 2.387 1.0822-0.63689 1.7294-1.2893 2.0815-2.387h2.6925c0 0.20194-0.55922 1.688-0.95793 2.2214-1.2841 1.7191-3.2828 3.1068-6.3171 4.3806-4.3547 2.1644-7.2854 5.1262-11.045 6.8556-0.73009 0.36764-0.12427 0.57993 0.19158 0.94239 1.0149 0.9165 1.745 1.89 2.0815 3.1327m-14.048-9.631-0.66278-3.2984c-0.05696-0.03625-0.33657-0.14498-0.62654-0.23819-0.57476-0.18641-2.0815-0.81294-2.7391-1.1443-0.48673-0.24336-0.75081-0.26926-0.75081-0.07249 0 0.2589 0.60582 1.4602 1.0511 2.0919 0.49191 0.69385 1.0356 1.2479 1.7812 1.8226 0.68867 0.52298 1.5948 1.0615 1.8019 1.0615 0.15534 0 0.17087-0.03107 0.13981-0.21748zm4.0388-9.3618c0.03107-0.05696 0.35728-0.67832 0.72492-1.2738 1.5327-2.4595 2.2421-3.112 3.3916-3.112 1.0977 0 1.8744 0.69385 3.3294 2.998 0.45566 0.71456 0.8233 1.3618 0.8233 1.3877z" />
  <path
     id="path35"
     stroke-width="5.178"
     fill="url(#linearGradient4572)"
     d="m25 43.692c0.33139-1.3566 1.4032-2.3404 2.3353-3.1327 0.611-0.39353 0.64207-0.71974 0.15016-0.94757-2.4854-1.1443-4.5307-1.8537-6.5864-2.9773-3.4796-1.9314-5.4731-4.7327-6.0013-8.4297-0.10874-0.88543-0.10874-1.8071 0.0466-2.4544 0.2123-0.46084 0.6576-0.73527 1.1858-0.73527 0.33657 0 0.53333 0.07767 1.4757 0.60065 2.1489 1.1858 4.2511 2.1281 5.3488 2.4026 0.45048 0.10874 0.49709 0.10874 0.75081-0.03107 1.2116-0.66796 2.1489-1.6828 2.5683-1.833h9.631c3.3605 3.5883 8.0673 4.567 12.142 2.387 1.0822-0.63689 1.7294-1.2893 2.0815-2.387h2.6925c0 0.20194-0.55922 1.688-0.95793 2.2214-1.2841 1.7191-3.2828 3.1068-6.3171 4.3806-4.3547 2.1644-7.2854 5.1262-11.045 6.8556-0.73009 0.36764-0.12427 0.57993 0.19158 0.94239 1.0149 0.9165 1.745 1.89 2.0815 3.1327m-14.048-9.631-0.66278-3.2984c-0.05696-0.03625-0.33657-0.14498-0.62654-0.23819-0.57476-0.18641-2.0815-0.81294-2.7391-1.1443-0.48673-0.24336-0.75081-0.26926-0.75081-0.07249 0 0.2589 0.60582 1.4602 1.0511 2.0919 0.49191 0.69385 1.0356 1.2479 1.7812 1.8226 0.68867 0.52298 1.5948 1.0615 1.8019 1.0615 0.15534 0 0.17087-0.03107 0.13981-0.21748zm4.0388-9.3618c0.03107-0.05696 0.35728-0.67832 0.72492-1.2738 1.5327-2.4595 2.2421-3.112 3.3916-3.112 1.0977 0 1.8744 0.69385 3.3294 2.998 0.45566 0.71456 0.8233 1.3618 0.8233 1.3877z" />
  <g
     transform="matrix(3.7796,0,0,3.7796,125.77588,25.909608)"
     id="g910"
     stroke-width="0.26458"
     fill="#5e4aa6">
    <circle
       id="circle902"
       r="0"
       cy="-328.38"
       cx="-330.35001" />
    <circle
       id="circle904"
       r="0"
       cy="-326.25"
       cx="-312.10999" />
    <circle
       id="circle906"
       r="0"
       cy="-333.07001"
       cx="-306.01999" />
    <circle
       id="circle908"
       r="0"
       cy="-326.01001"
       cx="-308.84" />
  </g>
</svg>
