<?xml version="1.0" encoding="UTF-8" standalone="no"?>
<svg
   xmlns:dc="http://purl.org/dc/elements/1.1/"
   xmlns:cc="http://creativecommons.org/ns#"
   xmlns:rdf="http://www.w3.org/1999/02/22-rdf-syntax-ns#"
   xmlns:svg="http://www.w3.org/2000/svg"
   xmlns="http://www.w3.org/2000/svg"
   xmlns:sodipodi="http://sodipodi.sourceforge.net/DTD/sodipodi-0.dtd"
   xmlns:inkscape="http://www.inkscape.org/namespaces/inkscape"
   inkscape:version="1.0 (4035a4fb49, 2020-05-01)"
   sodipodi:docname="glade.svg"
   id="svg43"
   version="1.1"
   height="64"
   width="64">
  <metadata
     id="metadata47">
    <rdf:RDF>
      <cc:Work
         rdf:about="">
        <dc:format>image/svg+xml</dc:format>
        <dc:type
           rdf:resource="http://purl.org/dc/dcmitype/StillImage" />
        <dc:title></dc:title>
      </cc:Work>
    </rdf:RDF>
  </metadata>
  <sodipodi:namedview
     inkscape:current-layer="svg43"
     inkscape:window-maximized="1"
     inkscape:window-y="0"
     inkscape:window-x="0"
     inkscape:cy="15.24856"
     inkscape:cx="-20.469812"
     inkscape:zoom="4.5078057"
     showgrid="false"
     id="namedview45"
     inkscape:window-height="985"
     inkscape:window-width="1920"
     inkscape:pageshadow="2"
     inkscape:pageopacity="0"
     guidetolerance="10"
     gridtolerance="10"
     objecttolerance="10"
     borderopacity="1"
     bordercolor="#666666"
     pagecolor="#ffffff" />
  <defs
     id="defs15">
    <linearGradient
       gradientUnits="userSpaceOnUse"
       y2="54"
       y1="22"
       x2="32"
       x1="32"
       id="a">
      <stop
         id="stop2"
         offset="0"
         stop-color="#4cde04" />
      <stop
         id="stop4"
         offset="1"
         stop-color="#7ae317" />
    </linearGradient>
    <filter
       color-interpolation-filters="sRGB"
       height="1.15"
       width="1.1"
       y="-.075"
       x="-.05"
       id="e">
      <feGaussianBlur
         id="feGaussianBlur7"
         stdDeviation="1" />
    </filter>
    <linearGradient
       gradientUnits="userSpaceOnUse"
       gradientTransform="scale(3.7796)"
       y2="1.852"
       y1="15.081"
       x2="7.9373"
       x1="7.9373"
       id="linearGradient862-3">
      <stop
         id="stop10"
         offset="0"
         stop-color="#f1efeb" />
      <stop
         id="stop12"
         offset="1"
         stop-color="#fdfcfc" />
    </linearGradient>
    <filter
       id="filter11290"
       x="-.024"
       y="-.024"
       width="1.048"
       height="1.048"
       color-interpolation-filters="sRGB">
      <feGaussianBlur
         stdDeviation="0.15875313"
         id="feGaussianBlur872" />
    </filter>
    <linearGradient
       id="linearGradient1005"
       x1=".73911"
       x2="16.388"
       y1="16.296"
       y2=".64687"
       gradientTransform="matrix(3.779602,0,0,3.779602,-0.13195,0.0245665)"
       gradientUnits="userSpaceOnUse">
      <stop
         stop-color="#dddfe1"
         offset="0"
         id="stop875" />
      <stop
         stop-color="#f3f4f6"
         offset="1"
         id="stop877" />
    </linearGradient>
  </defs>
  <circle
     transform="matrix(3.779602,0,0,3.779602,-0.10280494,0.02456761)"
     id="circle884"
     stroke-width="0.14032"
     opacity="0.25"
     filter="url(#filter11290)"
     r="7.9376998"
     cy="8.46"
     cx="8.4937" />
  <path
     id="path886"
     stroke-width="0.11719"
     fill="url(#linearGradient1005)"
     d="m 62.00038,31.999811 c 0,3.596443 -0.63305,7.044801 -1.79395,10.240454 -0.80698,2.221196 -1.8686,4.321219 -3.15192,6.263556 -0.53754,0.816696 -1.11552,1.605386 -1.72902,2.363348 -1.96411,2.42571 -4.29816,4.538169 -6.91856,6.252596 -0.96493,0.631873 -1.96785,1.209851 -3.00615,1.727732 -4.03208,2.01789 -8.58385,3.152981 -13.40095,3.152981 -4.81711,0 -9.36888,-1.135091 -13.40096,-3.153096 -1.03841,-0.517994 -2.0425,-1.09597 -3.00743,-1.72773 C 12.9379,55.382054 10.57591,53.236487 8.59578,50.770675 7.9811,50.006591 7.40429,49.210644 6.86676,48.386578 5.61775,46.476367 4.58309,44.415351 3.79205,42.237166 2.6313,39.042307 1.99939,35.595271 1.99939,32.000114 c 0,-16.569019 13.43157,-30.0005915 30.00059,-30.0005915 8.31701,0 15.84296,3.384558 21.27727,8.8506945 1.56611,1.574658 2.95844,3.323367 4.14358,5.213961 1.12046,1.780457 2.05716,3.688211 2.78571,5.695104 1.16102,3.195994 1.79407,6.644163 1.79407,10.240454 z"
     style="fill:url(#linearGradient1005)" />
  <g
     id="g33"
     fill="#b3b3b3"
     transform="translate(0,-4)">
    <rect
       id="rect21"
       opacity=".5"
       height="1"
       width="42"
       y="20"
       x="11" />
    <rect
       id="rect23"
       opacity=".5"
       height="1"
       width="42"
       y="24"
       x="11" />
    <rect
       id="rect25"
       opacity=".5"
       height="1"
       width="42"
       y="47"
       x="11" />
    <rect
       id="rect27"
       opacity=".5"
       height="1"
       width="42"
       y="51"
       x="11" />
    <rect
       id="rect29"
       opacity=".5"
       height="1"
       width="36"
       y="-15"
       x="18"
       transform="rotate(90)" />
    <rect
       id="rect31"
       opacity=".5"
       height="1"
       width="36"
       y="-50"
       x="18"
       transform="rotate(90)" />
  </g>
  <path
     id="path35"
     stroke-width="1.1606"
     opacity=".15"
     filter="url(#e)"
     d="m8 54h48v-32zm41-7h-18l18-12z" />
  <path
     id="path37"
     stroke-width="1.1606"
     fill="url(#a)"
     d="m8 54h48v-32zm41-7h-18l18-12z" />
  <circle
     id="circle39"
     stroke-miterlimit="10"
     stroke="#c9caca"
     fill="none"
     r="2"
     cy="26.5"
     cx="21.5" />
  <circle
     id="circle41"
     stroke-miterlimit="10"
     stroke="#c9caca"
     fill="none"
     r="2"
     cy="36.5"
     cx="21.5" />
  <g
     transform="matrix(3.779602,0,0,3.779602,100.57026,-25.055416)"
     id="g896"
     stroke-width="0.26458"
     fill="#5e4aa6">
    <circle
       id="circle888"
       r="0"
       cy="-328.38"
       cx="-330.35001" />
    <circle
       id="circle890"
       r="0"
       cy="-326.25"
       cx="-312.10999" />
    <circle
       id="circle892"
       r="0"
       cy="-333.07001"
       cx="-306.01999" />
    <circle
       id="circle894"
       r="0"
       cy="-326.01001"
       cx="-308.84" />
  </g>
</svg>
