<?xml version="1.0" encoding="UTF-8" standalone="no"?>
<svg
   xmlns:dc="http://purl.org/dc/elements/1.1/"
   xmlns:cc="http://creativecommons.org/ns#"
   xmlns:rdf="http://www.w3.org/1999/02/22-rdf-syntax-ns#"
   xmlns:svg="http://www.w3.org/2000/svg"
   xmlns="http://www.w3.org/2000/svg"
   xmlns:xlink="http://www.w3.org/1999/xlink"
   xmlns:sodipodi="http://sodipodi.sourceforge.net/DTD/sodipodi-0.dtd"
   xmlns:inkscape="http://www.inkscape.org/namespaces/inkscape"
   inkscape:version="1.0 (4035a4fb49, 2020-05-01)"
   sodipodi:docname="gnome-nibbles.svg"
   id="svg54"
   version="1.1"
   height="64"
   width="64">
  <metadata
     id="metadata58">
    <rdf:RDF>
      <cc:Work
         rdf:about="">
        <dc:format>image/svg+xml</dc:format>
        <dc:type
           rdf:resource="http://purl.org/dc/dcmitype/StillImage" />
        <dc:title></dc:title>
      </cc:Work>
    </rdf:RDF>
  </metadata>
  <sodipodi:namedview
     inkscape:current-layer="svg54"
     inkscape:window-maximized="1"
     inkscape:window-y="0"
     inkscape:window-x="0"
     inkscape:cy="-16.326065"
     inkscape:cx="-65.549363"
     inkscape:zoom="4.5078057"
     showgrid="false"
     id="namedview56"
     inkscape:window-height="985"
     inkscape:window-width="1920"
     inkscape:pageshadow="2"
     inkscape:pageopacity="0"
     guidetolerance="10"
     gridtolerance="10"
     objecttolerance="10"
     borderopacity="1"
     bordercolor="#666666"
     pagecolor="#ffffff" />
  <defs
     id="defs20">
    <linearGradient
       gradientUnits="userSpaceOnUse"
       gradientTransform="translate(-1.0711 -.33699)"
       y2="14.844"
       y1="47.827"
       x2="32.42"
       x1="32.243"
       id="linearGradient867">
      <stop
         id="stop2"
         offset="0"
         stop-color="#ff4c1c" />
      <stop
         id="stop4"
         offset="1"
         stop-color="#ffbf25" />
    </linearGradient>
    <linearGradient
       gradientUnits="userSpaceOnUse"
       gradientTransform="translate(-1.0711 -.33699)"
       y2="29.802"
       y1="29.802"
       x2="48.336"
       x1="12.684"
       id="linearGradient871">
      <stop
         id="stop7"
         offset="0"
         stop-color="#f60" />
      <stop
         id="stop9"
         offset="1"
         stop-opacity="0"
         stop-color="#f60" />
    </linearGradient>
    <filter
       color-interpolation-filters="sRGB"
       height="1.117"
       width="1.1231"
       y="-.05851"
       x="-.061568"
       id="filter908">
      <feGaussianBlur
         id="feGaussianBlur12"
         stdDeviation="0.74084545" />
    </filter>
    <linearGradient
       gradientUnits="userSpaceOnUse"
       gradientTransform="matrix(3.7795 0 0 3.7795 .00014309 .031541)"
       y2="1.852"
       y1="15.081"
       x2="7.9373"
       x1="7.9373"
       id="linearGradient862-3">
      <stop
         id="stop15"
         offset="0"
         stop-color="#f1efeb" />
      <stop
         id="stop17"
         offset="1"
         stop-color="#fdfcfc" />
    </linearGradient>
    <linearGradient
       id="b">
      <stop
         id="stop2-3"
         offset="0" />
      <stop
         id="stop4-6"
         offset="1"
         stop-opacity="0" />
    </linearGradient>
    <filter
       color-interpolation-filters="sRGB"
       height="1.12"
       width="1.12"
       y="-.06"
       x="-.06"
       id="f">
      <feGaussianBlur
         id="feGaussianBlur7"
         stdDeviation="0.79999999" />
    </filter>
    <linearGradient
       gradientUnits="userSpaceOnUse"
       gradientTransform="translate(2e-6)"
       y2="18.279"
       y1="45.992"
       x2="31.967"
       x1="31.989"
       id="q">
      <stop
         id="stop10"
         offset="0"
         stop-color="#b14de5" />
      <stop
         id="stop12"
         offset="1"
         stop-color="#58b1fe" />
    </linearGradient>
    <linearGradient
       xlink:href="#b"
       gradientUnits="userSpaceOnUse"
       y2="39.058"
       y1="39.058"
       x2="25.662"
       x1="22.379"
       id="p" />
    <linearGradient
       xlink:href="#b"
       gradientUnits="userSpaceOnUse"
       y2="35.746"
       y1="35.746"
       x2="43.432"
       x1="37.506"
       id="o" />
    <linearGradient
       xlink:href="#b"
       gradientUnits="userSpaceOnUse"
       y2="27.973"
       y1="27.973"
       x2="41.135"
       x1="31.584"
       id="n" />
    <linearGradient
       xlink:href="#b"
       gradientUnits="userSpaceOnUse"
       y2="34.732"
       y1="34.732"
       x2="48"
       x1="43.43"
       id="m" />
    <linearGradient
       xlink:href="#b"
       gradientUnits="userSpaceOnUse"
       y2="20.433"
       y1="20.433"
       x2="32.521"
       x1="22.865"
       id="l" />
    <linearGradient
       xlink:href="#b"
       gradientUnits="userSpaceOnUse"
       y2="27.005"
       y1="27.005"
       x2="25.662"
       x1="16"
       id="k" />
    <linearGradient
       xlink:href="#b"
       gradientUnits="userSpaceOnUse"
       y2="23.394"
       y1="23.394"
       x2="41.135"
       x1="31.584"
       id="j" />
    <linearGradient
       xlink:href="#b"
       gradientUnits="userSpaceOnUse"
       y2="34.403"
       y1="34.403"
       x2="37.506"
       x1="25.662"
       id="i" />
    <linearGradient
       xlink:href="#b"
       gradientUnits="userSpaceOnUse"
       y2="35.674"
       y1="35.674"
       x2="25.662"
       x1="16"
       id="h" />
    <linearGradient
       xlink:href="#b"
       gradientUnits="userSpaceOnUse"
       y2="26.826"
       y1="26.826"
       x2="31.584"
       x1="25.661"
       id="g" />
    <linearGradient
       gradientUnits="userSpaceOnUse"
       gradientTransform="matrix(3.7795,0,0,3.7795,-109.16594,0.031541)"
       y2="1.852"
       y1="15.081"
       x2="7.9373"
       x1="7.9373"
       id="linearGradient862-3-7">
      <stop
         id="stop25"
         offset="0"
         stop-color="#f1efeb" />
      <stop
         id="stop27"
         offset="1"
         stop-color="#fdfcfc" />
    </linearGradient>
    <filter
       id="filter11290"
       x="-0.024"
       y="-0.024"
       width="1.048"
       height="1.048"
       color-interpolation-filters="sRGB">
      <feGaussianBlur
         stdDeviation="0.15875313"
         id="feGaussianBlur861" />
    </filter>
    <linearGradient
       id="linearGradient1057">
      <stop
         stop-color="#fff"
         offset="0"
         id="stop924" />
      <stop
         stop-color="#fff"
         stop-opacity="0"
         offset="1"
         id="stop926" />
    </linearGradient>
    <linearGradient
       id="linearGradient982"
       x1="34.999"
       x2="34.999"
       y1="27.545"
       y2="52.847"
       gradientTransform="matrix(1.5625,0,0,1.5625,0.40633,-5.1891)"
       gradientUnits="userSpaceOnUse">
      <stop
         stop-color="#32b4ff"
         offset="0"
         id="stop929" />
      <stop
         stop-color="#3287ff"
         offset="1"
         id="stop931" />
    </linearGradient>
    <style
       type="text/css"
       id="style934" />
    <style
       type="text/css"
       id="style936" />
    <linearGradient
       id="linearGradient1047"
       x1="21.314"
       x2="21.314"
       y1="18.052"
       y2="43.681"
       gradientTransform="matrix(1.5625,0,0,1.5625,-9.2253,1.3231)"
       gradientUnits="userSpaceOnUse">
      <stop
         stop-color="#14dc78"
         offset="0"
         id="stop938" />
      <stop
         stop-color="#14a03c"
         offset="1"
         id="stop940" />
    </linearGradient>
    <linearGradient
       id="linearGradient1049"
       x1="41.729"
       x2="41.729"
       y1="12.316"
       y2="37.368"
       gradientTransform="matrix(1.5625,0,0,1.5625,-8.1072,-10.908)"
       gradientUnits="userSpaceOnUse">
      <stop
         stop-color="#ff3c64"
         offset="0"
         id="stop943" />
      <stop
         stop-color="#ff4628"
         offset="1"
         id="stop945" />
    </linearGradient>
    <linearGradient
       id="linearGradient1059"
       x1="34.427"
       x2="34.427"
       y1="32.234"
       y2="39.768"
       gradientTransform="matrix(1,0,0,1.2271,0.20646,-10.975)"
       gradientUnits="userSpaceOnUse"
       xlink:href="#linearGradient1057" />
    <linearGradient
       id="linearGradient1063"
       x1="34.427"
       x2="34.427"
       y1="32.234"
       y2="39.768"
       gradientTransform="matrix(1,0,0,1.2271,-12.55,-19.793)"
       gradientUnits="userSpaceOnUse"
       xlink:href="#linearGradient1057" />
    <linearGradient
       id="linearGradient1067"
       x1="34.427"
       x2="34.427"
       y1="32.234"
       y2="39.768"
       gradientTransform="matrix(1,0,0,1.2271,5.7554,-25.761)"
       gradientUnits="userSpaceOnUse"
       xlink:href="#linearGradient1057" />
    <filter
       id="filter11290-3"
       x="-.024"
       y="-.024"
       width="1.048"
       height="1.048"
       color-interpolation-filters="sRGB">
      <feGaussianBlur
         stdDeviation="0.15875313"
         id="feGaussianBlur951" />
    </filter>
    <linearGradient
       id="linearGradient1005"
       x1=".73911"
       x2="16.388"
       y1="16.296"
       y2=".64687"
       gradientTransform="matrix(3.7796,0,0,3.7796,-0.131551,0.025017)"
       gradientUnits="userSpaceOnUse">
      <stop
         stop-color="#dddfe1"
         offset="0"
         id="stop954" />
      <stop
         stop-color="#f3f4f6"
         offset="1"
         id="stop956" />
    </linearGradient>
  </defs>
  <circle
     transform="matrix(3.7796,0,0,3.7796,-0.10278795,0.02458453)"
     cx="8.4937"
     cy="8.46"
     r="7.9376998"
     filter="url(#filter11290)"
     opacity="0.25"
     stroke-width="0.14032"
     id="circle961"
     style="filter:url(#filter11290-3);image-rendering:optimizeSpeed" />
  <path
     style="fill:url(#linearGradient1005);image-rendering:optimizeSpeed"
     d="m 62.000401,32.00045 c 0,3.5964 -0.63305,7.0448 -1.794,10.24 -0.80698,2.2212 -1.8686,4.3212 -3.1519,6.2636 -0.53754,0.8167 -1.1155,1.6054 -1.729,2.3633 -1.9641,2.4257 -4.2982,4.5382 -6.9186,6.2526 -0.96493,0.63187 -1.9678,1.2099 -3.0061,1.7277 -4.0321,2.0179 -8.5839,3.153 -13.401,3.153 -4.8171,0 -9.368902,-1.1351 -13.401002,-3.1531 -1.0384,-0.51799 -2.0425,-1.096 -3.0074,-1.7277 -2.6535,-1.7376 -5.0155,-3.8832 -6.9957,-6.349 -0.61468,-0.76408 -1.1915,-1.56 -1.729,-2.3841 -1.249,-1.9102 -2.2837,-3.9712 -3.0747,-6.1494 -1.1608,-3.1949 -1.7927,-6.6419 -1.7927,-10.237 0,-16.569 13.432,-30.001 30.001002,-30.001 8.317,0 15.843,3.3846 21.277,8.8507 1.5661,1.5747 2.9584,3.3234 4.1436,5.214 1.1205,1.7805 2.0572,3.6882 2.7857,5.6951 1.161,3.196 1.7941,6.6442 1.7941,10.24 z"
     fill="url(#linearGradient1005)"
     stroke-width="0.11719"
     id="path963" />
  <g
     id="g44"
     stroke-width="3.7796"
     opacity=".15"
     filter="url(#filter908)"
     transform="matrix(1.1081 0 0 1.1081 -4.3729 -2.7843)">
    <path
       id="path38"
       fill-rule="evenodd"
       d="m26.684 16.199a7.2494 7.2494 0 0 0-1.9844 0.23828c-1.7462 0.45355-3.4168 1.511-4.6074 2.9473-1.1868 1.4287-1.8964 3.2465-1.6621 5.1816 0.24567 3.3034 1.7952 8.7379 3.7266 13.387 0.96759 2.3282 2.0296 4.4526 3.0879 6.0098 0.52914 0.78239 1.0548 1.4214 1.584 1.875 0.51781 0.44599 1.0496 0.72254 1.5977 0.71876a3.2353 3.2353 0 0 0 2.5176-0.73048c0.72946-0.57072 1.3536-1.3896 1.9395-2.293 1.1339-1.7537 2.1541-3.9797 3.3145-5.2988 0.11339 0.13229 0.26792 0.55034 0.45312 0.88673 0.36284 0.67656 0.83277 1.6605 1.4375 2.6621 0.60474 1.0054 1.3478 1.9641 2.2852 2.7578 0.93357 0.78616 2.0724 1.2853 3.418 1.2891 0.80885 0.06047 1.6254 0.0046 2.2793-0.32422 0.66143-0.3326 1.1631-0.86538 1.1934-1.6855v-0.0078a1.6101 1.6101 0 0 0-0.8086-1.4023c-0.45733-0.28725-1.0158-0.47901-1.6055-0.78516-1.1755-0.6123-2.5093-1.6067-3.3105-4.498-0.63497-2.2942-1.4749-4.0114-2.3594-5.168-0.88444-1.1528-1.5984-2.1793-2.7285-2.0508-1.9692 0.223-2.8947 3.0462-3.832 4.543-0.5745 0.92223-1.1153 1.8389-1.584 2.5684-0.37796 0.5934-0.66178 0.92363-0.88478 1.1504-0.72569-0.7786-1.1576-1.6172-1.082-2.6074 0.09071-1.1112 0.72666-2.3812 1.3125-3.7305 1.1717-2.6949 2.6636-5.7274 2.3574-8.7247-0.22299-2.1922-1.3704-4.6478-2.9805-5.9102a5.3028 5.3028 0 0 0-2.4199-0.94532 5.7601 5.7601 0 0 0-0.6543-0.05273zm-0.1582 3.7148c1.1377 0.44599 2.0266 1.4217 2.4121 2.1738a8.8179 8.8179 0 0 0-2.4199-1.0215 5.7828 5.7828 0 0 0-2.0059 1.1602 3.7796 3.7796 0 0 1 2.0137-2.3125zm-4.4062 1.7344c0.92182 0.01382 1.8115 0.26681 2.3926 0.56445-1.0092 0.03024-1.9502 0.18729-2.6191 0.41406-0.41954 0.51025-0.77587 1.1355-0.96485 1.9141-0.34772-1.0129-0.26535-1.9737 0.26758-2.8203 0.30426-0.05575 0.61656-0.07687 0.92384-0.07227zm4.2285 0.54102c0.98648-0.09449 1.84 1.1685 1.9043 2.8164 0.03024 0.7068-0.09354 1.2464-0.32031 1.7793a9.8082 9.8082 0 0 0-2.668 0.42773c-0.05291-0.08315-0.1148-0.15929-0.16016-0.25-0.0076 0.10583-0.02602 0.21241-0.04492 0.31445-0.8731 0.29103-1.6316 0.80452-2.2363 1.2656-0.42332-0.46111-0.7533-1.203-0.85157-2.0723-0.17386-1.5043 0.3863-3.042 1.248-3.1289 0.56316-0.05669 1.1099 0.66584 1.4766 1.418 0.10961-1.3833 0.7906-2.4872 1.6523-2.5703zm2.5898 5.2383c-0.02646 2.3736-2.382 5.2164-3.8145 5.2051-2.0145-0.0189-2.7022-1.3871-3.1406-2.332 2.2753-0.54048 5.1673-1.8223 6.9551-2.873z" />
    <path
       id="path40"
       d="m24.323 26.059a0.63308 0.87192 0 0 1-1.2662 0 0.63308 0.87192 0 1 1 1.2662 0zm2.7175-0.65009a0.63308 0.87192 0 0 1-1.2662 0 0.63308 0.87192 0 1 1 1.2662 0z" />
    <path
       id="path42"
       opacity=".5"
       d="m28.719 28.705c-0.41576 0.54804-1.2964 0.9638-2.7591 1.6063 1.6668-0.3515 1.6366-0.01134 1.6895 0.49891a7.0679 7.0679 0 0 0 1.0696-2.1052zm-3.515 1.8974c-1.5496 0.45355-2.23 0.55938-2.8801 0.36662a3.0842 3.0842 0 0 0 1.4665 1.3985c-0.25323-0.51025-0.25323-0.97514 1.4098-1.7651z" />
  </g>
  <g
     id="g52"
     stroke-width="3.7796"
     transform="matrix(1.1081 0 0 1.1081 -4.3729 -2.7843)">
    <path
       id="path46"
       fill-rule="evenodd"
       fill="url(#linearGradient867)"
       d="m26.684 16.199a7.2494 7.2494 0 0 0-1.9844 0.23828c-1.7462 0.45355-3.4168 1.511-4.6074 2.9473-1.1868 1.4287-1.8964 3.2465-1.6621 5.1816 0.24567 3.3034 1.7952 8.7379 3.7266 13.387 0.96759 2.3282 2.0296 4.4526 3.0879 6.0098 0.52914 0.78239 1.0548 1.4214 1.584 1.875 0.51781 0.44599 1.0496 0.72254 1.5977 0.71876a3.2353 3.2353 0 0 0 2.5176-0.73048c0.72946-0.57072 1.3536-1.3896 1.9395-2.293 1.1339-1.7537 2.1541-3.9797 3.3145-5.2988 0.11339 0.13229 0.26792 0.55034 0.45312 0.88673 0.36284 0.67656 0.83277 1.6605 1.4375 2.6621 0.60474 1.0054 1.3478 1.9641 2.2852 2.7578 0.93357 0.78616 2.0724 1.2853 3.418 1.2891 0.80885 0.06047 1.6254 0.0046 2.2793-0.32422 0.66143-0.3326 1.1631-0.86538 1.1934-1.6855v-0.0078a1.6101 1.6101 0 0 0-0.8086-1.4023c-0.45733-0.28725-1.0158-0.47901-1.6055-0.78516-1.1755-0.6123-2.5093-1.6067-3.3105-4.498-0.63497-2.2942-1.4749-4.0114-2.3594-5.168-0.88444-1.1528-1.5984-2.1793-2.7285-2.0508-1.9692 0.223-2.8947 3.0462-3.832 4.543-0.5745 0.92223-1.1153 1.8389-1.584 2.5684-0.37796 0.5934-0.66178 0.92363-0.88478 1.1504-0.72569-0.7786-1.1576-1.6172-1.082-2.6074 0.09071-1.1112 0.72666-2.3812 1.3125-3.7305 1.1717-2.6949 2.6636-5.7274 2.3574-8.7247-0.22299-2.1922-1.3704-4.6478-2.9805-5.9102a5.3028 5.3028 0 0 0-2.4199-0.94532 5.7601 5.7601 0 0 0-0.6543-0.05273zm-0.1582 3.7148c1.1377 0.44599 2.0266 1.4217 2.4121 2.1738a8.8179 8.8179 0 0 0-2.4199-1.0215 5.7828 5.7828 0 0 0-2.0059 1.1602 3.7796 3.7796 0 0 1 2.0137-2.3125zm-4.4062 1.7344c0.92182 0.01382 1.8115 0.26681 2.3926 0.56445-1.0092 0.03024-1.9502 0.18729-2.6191 0.41406-0.41954 0.51025-0.77587 1.1355-0.96485 1.9141-0.34772-1.0129-0.26535-1.9737 0.26758-2.8203 0.30426-0.05575 0.61656-0.07687 0.92384-0.07227zm4.2285 0.54102c0.98648-0.09449 1.84 1.1685 1.9043 2.8164 0.03024 0.7068-0.09354 1.2464-0.32031 1.7793a9.8082 9.8082 0 0 0-2.668 0.42773c-0.05291-0.08315-0.1148-0.15929-0.16016-0.25-0.0076 0.10583-0.02602 0.21241-0.04492 0.31445-0.8731 0.29103-1.6316 0.80452-2.2363 1.2656-0.42332-0.46111-0.7533-1.203-0.85157-2.0723-0.17386-1.5043 0.3863-3.042 1.248-3.1289 0.56316-0.05669 1.1099 0.66584 1.4766 1.418 0.10961-1.3833 0.7906-2.4872 1.6523-2.5703zm2.5898 5.2383c-0.02646 2.3736-2.382 5.2164-3.8145 5.2051-2.0145-0.0189-2.7022-1.3871-3.1406-2.332 2.2753-0.54048 5.1673-1.8223 6.9551-2.873z" />
    <path
       id="path48"
       fill="url(#linearGradient871)"
       d="m24.323 26.059a0.63308 0.87192 0 0 1-1.2662 0 0.63308 0.87192 0 1 1 1.2662 0zm2.7175-0.65009a0.63308 0.87192 0 0 1-1.2662 0 0.63308 0.87192 0 1 1 1.2662 0z" />
    <path
       id="path50"
       opacity=".5"
       fill="url(#linearGradient871)"
       d="m28.719 28.705c-0.41576 0.54804-1.2964 0.9638-2.7591 1.6063 1.6668-0.3515 1.6366-0.01134 1.6895 0.49891a7.0679 7.0679 0 0 0 1.0696-2.1052zm-3.515 1.8974c-1.5496 0.45355-2.23 0.55938-2.8801 0.36662a3.0842 3.0842 0 0 0 1.4665 1.3985c-0.25323-0.51025-0.25323-0.97514 1.4098-1.7651z" />
  </g>
  <circle
     cx="-1372.9844"
     cy="-1272.7126"
     r="0"
     fill="#5e4aa6"
     id="circle965"
     style="image-rendering:optimizeSpeed" />
  <circle
     cx="-273.43436"
     cy="-7.2576332"
     r="0"
     fill="#5e4aa6"
     fill-rule="evenodd"
     id="circle967"
     style="image-rendering:optimizeSpeed" />
  <g
     transform="matrix(3.7796,0,0,3.7796,-227.20436,-69.832633)"
     fill="#5e4aa6"
     stroke-width="0.26458"
     id="g991"
     style="image-rendering:optimizeSpeed">
    <circle
       cx="-330.35001"
       cy="-328.38"
       r="0"
       id="circle983" />
    <circle
       cx="-312.10999"
       cy="-326.25"
       r="0"
       id="circle985" />
    <circle
       cx="-306.01999"
       cy="-333.07001"
       r="0"
       id="circle987" />
    <circle
       cx="-308.84"
       cy="-326.01001"
       r="0"
       id="circle989" />
  </g>
</svg>
