<?xml version="1.0" encoding="UTF-8" standalone="no"?>
<svg
   xmlns:dc="http://purl.org/dc/elements/1.1/"
   xmlns:cc="http://creativecommons.org/ns#"
   xmlns:rdf="http://www.w3.org/1999/02/22-rdf-syntax-ns#"
   xmlns:svg="http://www.w3.org/2000/svg"
   xmlns="http://www.w3.org/2000/svg"
   xmlns:xlink="http://www.w3.org/1999/xlink"
   xmlns:sodipodi="http://sodipodi.sourceforge.net/DTD/sodipodi-0.dtd"
   xmlns:inkscape="http://www.inkscape.org/namespaces/inkscape"
   inkscape:version="1.0 (4035a4fb49, 2020-05-01)"
   sodipodi:docname="gnome-glines.svg"
   id="svg95"
   viewBox="0 0 16.933 16.933"
   version="1.1"
   height="64"
   width="64">
  <metadata
     id="metadata99">
    <rdf:RDF>
      <cc:Work
         rdf:about="">
        <dc:format>image/svg+xml</dc:format>
        <dc:type
           rdf:resource="http://purl.org/dc/dcmitype/StillImage" />
        <dc:title></dc:title>
      </cc:Work>
    </rdf:RDF>
  </metadata>
  <sodipodi:namedview
     inkscape:current-layer="svg95"
     inkscape:window-maximized="1"
     inkscape:window-y="0"
     inkscape:window-x="0"
     inkscape:cy="14.098582"
     inkscape:cx="43.791348"
     inkscape:zoom="3.1875"
     showgrid="false"
     id="namedview97"
     inkscape:window-height="985"
     inkscape:window-width="1920"
     inkscape:pageshadow="2"
     inkscape:pageopacity="0"
     guidetolerance="10"
     gridtolerance="10"
     objecttolerance="10"
     borderopacity="1"
     bordercolor="#666666"
     pagecolor="#ffffff" />
  <defs
     id="defs35">
    <linearGradient
       id="linearGradient951">
      <stop
         id="stop2"
         offset="0"
         stop-color="#ec4520" />
      <stop
         id="stop4"
         offset="1"
         stop-color="#f58517" />
    </linearGradient>
    <linearGradient
       id="linearGradient935">
      <stop
         id="stop7"
         offset="0"
         stop-color="#548fed" />
      <stop
         id="stop9"
         offset="1"
         stop-color="#5ebae3" />
    </linearGradient>
    <linearGradient
       id="linearGradient913">
      <stop
         id="stop12"
         offset="0"
         stop-color="#8ae234" />
      <stop
         id="stop14"
         offset="1"
         stop-color="#47e767" />
    </linearGradient>
    <linearGradient
       xlink:href="#linearGradient913"
       gradientUnits="userSpaceOnUse"
       y2="4.305"
       y1="4.305"
       x2="7.0494"
       x1="4.9328"
       id="linearGradient903" />
    <linearGradient
       xlink:href="#linearGradient913"
       gradientUnits="userSpaceOnUse"
       y2="6.4216"
       y1="6.4216"
       x2="9.1661"
       x1="7.0494"
       id="linearGradient905" />
    <linearGradient
       xlink:href="#linearGradient913"
       gradientUnits="userSpaceOnUse"
       y2="10.655"
       y1="10.655"
       x2="13.399"
       x1="11.283"
       id="linearGradient907" />
    <linearGradient
       xlink:href="#linearGradient935"
       gradientUnits="userSpaceOnUse"
       y2="4.305"
       y1="4.305"
       x2="13.399"
       x1="11.283"
       id="linearGradient921" />
    <linearGradient
       xlink:href="#linearGradient935"
       gradientUnits="userSpaceOnUse"
       y2="10.655"
       y1="10.655"
       x2="7.0494"
       x1="4.9328"
       id="linearGradient923" />
    <linearGradient
       xlink:href="#linearGradient935"
       gradientUnits="userSpaceOnUse"
       y2="8.5382"
       y1="8.5382"
       x2="9.1661"
       x1="7.0494"
       id="linearGradient925" />
    <linearGradient
       xlink:href="#linearGradient935"
       gradientUnits="userSpaceOnUse"
       y2="10.655"
       y1="10.655"
       x2="11.283"
       x1="9.1661"
       id="linearGradient927" />
    <linearGradient
       xlink:href="#linearGradient935"
       gradientUnits="userSpaceOnUse"
       y2="6.4216"
       y1="6.4216"
       x2="11.283"
       x1="9.1661"
       id="linearGradient929" />
    <linearGradient
       xlink:href="#linearGradient951"
       gradientUnits="userSpaceOnUse"
       y2="8.5382"
       y1="8.5382"
       x2="13.399"
       x1="11.283"
       id="linearGradient943" />
    <linearGradient
       xlink:href="#linearGradient951"
       gradientUnits="userSpaceOnUse"
       y2="4.305"
       y1="4.305"
       x2="9.1661"
       x1="7.0494"
       id="linearGradient945" />
    <filter
       color-interpolation-filters="sRGB"
       height="1.12"
       width="1.12"
       y="-.06"
       x="-.06"
       id="filter999">
      <feGaussianBlur
         id="feGaussianBlur27"
         stdDeviation="0.21166249" />
    </filter>
    <linearGradient
       gradientUnits="userSpaceOnUse"
       gradientTransform="matrix(.99997 0 0 .99997 3.7636e-5 .0083364)"
       y2="1.852"
       y1="15.081"
       x2="7.9373"
       x1="7.9373"
       id="linearGradient862-3">
      <stop
         id="stop30"
         offset="0"
         stop-color="#1a1a1a" />
      <stop
         id="stop32"
         offset="1"
         stop-color="#4d4d4d" />
    </linearGradient>
    <filter
       color-interpolation-filters="sRGB"
       height="1.1062"
       width="1.138"
       y="-.053076"
       x="-.069001"
       id="filter911">
      <feGaussianBlur
         id="feGaussianBlur2"
         stdDeviation="0.5750183" />
    </filter>
    <linearGradient
       gradientUnits="userSpaceOnUse"
       y2="24.006"
       y1="24.006"
       x2="34.001"
       x1="14"
       id="linearGradient921-3">
      <stop
         id="stop5"
         offset="0"
         stop-color="#fff" />
      <stop
         id="stop7-6"
         offset="1"
         stop-color="#e6e6e6" />
    </linearGradient>
    <linearGradient
       gradientUnits="userSpaceOnUse"
       gradientTransform="matrix(3.7795,0,0,3.7795,-78.322643,0.031541)"
       y2="1.852"
       y1="15.081"
       x2="7.9373"
       x1="7.9373"
       id="linearGradient862-3-7">
      <stop
         id="stop10"
         offset="0"
         stop-color="#1a1a1a" />
      <stop
         id="stop12-5"
         offset="1"
         stop-color="#4d4d4d" />
    </linearGradient>
    <filter
       id="filter11290"
       x="-0.024"
       y="-0.024"
       width="1.048"
       height="1.048"
       color-interpolation-filters="sRGB">
      <feGaussianBlur
         stdDeviation="0.15875313"
         id="feGaussianBlur861" />
    </filter>
    <linearGradient
       gradientTransform="matrix(0.26457812,0,0,0.26457812,-1.4679565e-6,3.317749e-7)"
       gradientUnits="userSpaceOnUse"
       y2="2.6618319"
       x2="61.642139"
       y1="61.846527"
       x1="2.6369677"
       id="linearGradient1195"
       xlink:href="#linearGradient1193"
       inkscape:collect="always" />
    <linearGradient
       id="linearGradient1193"
       inkscape:collect="always">
      <stop
         id="stop1189"
         offset="0"
         style="stop-color:#1a1a1a;stop-opacity:1" />
      <stop
         id="stop1191"
         offset="1"
         style="stop-color:#4d4d4d;stop-opacity:1" />
    </linearGradient>
  </defs>
  <circle
     cx="8.4665003"
     cy="8.4665003"
     r="7.9376998"
     filter="url(#filter11290)"
     opacity="0.25"
     stroke-width="0.14032"
     id="circle943"
     style="image-rendering:optimizeSpeed" />
  <circle
     style="fill:url(#linearGradient1195);fill-opacity:1;stroke-width:0.51902;stroke-linecap:round;image-rendering:optimizeSpeed"
     id="path1187"
     cx="8.4665003"
     cy="8.4665003"
     r="7.9373436" />
  <g
     id="g71"
     opacity=".35"
     filter="url(#filter999)"
     transform="translate(-.69956 .98656)">
    <path
       id="path51"
       d="m5.9911 9.5966c-0.58419 0-1.0583 0.47412-1.0583 1.0583s0.47412 1.0583 1.0583 1.0583c0.58419 0 1.0583-0.47412 1.0583-1.0583s-0.47412-1.0583-1.0583-1.0583z" />
    <path
       id="path53"
       d="m10.224 9.5966c-0.58419 0-1.0583 0.47412-1.0583 1.0583s0.47412 1.0583 1.0583 1.0583c0.58419 0 1.0583-0.47412 1.0583-1.0583s-0.47412-1.0583-1.0583-1.0583z" />
    <path
       id="path55"
       d="m12.341 9.5966c-0.58419 0-1.0583 0.47412-1.0583 1.0583s0.47412 1.0583 1.0583 1.0583 1.0583-0.47412 1.0583-1.0583-0.47412-1.0583-1.0583-1.0583z" />
    <path
       id="path57"
       d="m8.1078 7.4799c-0.58419 0-1.0583 0.47412-1.0583 1.0583 0 0.58419 0.47412 1.0583 1.0583 1.0583s1.0583-0.47412 1.0583-1.0583c0-0.58419-0.47412-1.0583-1.0583-1.0583z" />
    <path
       id="path59"
       d="m12.341 7.4799c-0.58419 0-1.0583 0.47412-1.0583 1.0583 0 0.58419 0.47412 1.0583 1.0583 1.0583s1.0583-0.47412 1.0583-1.0583c0-0.58419-0.47412-1.0583-1.0583-1.0583z" />
    <path
       id="path61"
       d="m8.1078 5.3633c-0.58419 0-1.0583 0.47412-1.0583 1.0583s0.47412 1.0583 1.0583 1.0583 1.0583-0.47412 1.0583-1.0583-0.47412-1.0583-1.0583-1.0583z" />
    <path
       id="path63"
       d="m10.224 5.3633c-0.58419 0-1.0583 0.47412-1.0583 1.0583s0.47412 1.0583 1.0583 1.0583c0.58419 0 1.0583-0.47412 1.0583-1.0583s-0.47412-1.0583-1.0583-1.0583z" />
    <path
       id="path65"
       d="m5.9911 3.2467c-0.58419 0-1.0583 0.47412-1.0583 1.0583 0 0.58419 0.47412 1.0583 1.0583 1.0583 0.58419 0 1.0583-0.47412 1.0583-1.0583 0-0.58419-0.47412-1.0583-1.0583-1.0583z" />
    <path
       id="path67"
       d="m8.1078 3.2467c-0.58419 0-1.0583 0.47412-1.0583 1.0583 0 0.58419 0.47412 1.0583 1.0583 1.0583s1.0583-0.47412 1.0583-1.0583c0-0.58419-0.47412-1.0583-1.0583-1.0583z" />
    <path
       id="path69"
       d="m12.341 3.2467c-0.58419 0-1.0583 0.47412-1.0583 1.0583 0 0.58419 0.47412 1.0583 1.0583 1.0583s1.0583-0.47412 1.0583-1.0583c0-0.58419-0.47412-1.0583-1.0583-1.0583z" />
  </g>
  <g
     id="g93"
     transform="translate(-.69956 .98656)">
    <path
       id="path73"
       fill="url(#linearGradient923)"
       d="m5.9911 9.5966c-0.58419 0-1.0583 0.47412-1.0583 1.0583s0.47412 1.0583 1.0583 1.0583c0.58419 0 1.0583-0.47412 1.0583-1.0583s-0.47412-1.0583-1.0583-1.0583z" />
    <path
       id="path75"
       fill="url(#linearGradient927)"
       d="m10.224 9.5966c-0.58419 0-1.0583 0.47412-1.0583 1.0583s0.47412 1.0583 1.0583 1.0583c0.58419 0 1.0583-0.47412 1.0583-1.0583s-0.47412-1.0583-1.0583-1.0583z" />
    <path
       id="path77"
       fill="url(#linearGradient907)"
       d="m12.341 9.5966c-0.58419 0-1.0583 0.47412-1.0583 1.0583s0.47412 1.0583 1.0583 1.0583 1.0583-0.47412 1.0583-1.0583-0.47412-1.0583-1.0583-1.0583z" />
    <path
       id="path79"
       fill="url(#linearGradient925)"
       d="m8.1078 7.4799c-0.58419 0-1.0583 0.47412-1.0583 1.0583 0 0.58419 0.47412 1.0583 1.0583 1.0583s1.0583-0.47412 1.0583-1.0583c0-0.58419-0.47412-1.0583-1.0583-1.0583z" />
    <path
       id="path81"
       fill="url(#linearGradient943)"
       d="m12.341 7.4799c-0.58419 0-1.0583 0.47412-1.0583 1.0583 0 0.58419 0.47412 1.0583 1.0583 1.0583s1.0583-0.47412 1.0583-1.0583c0-0.58419-0.47412-1.0583-1.0583-1.0583z" />
    <path
       id="path83"
       fill="url(#linearGradient905)"
       d="m8.1078 5.3633c-0.58419 0-1.0583 0.47412-1.0583 1.0583s0.47412 1.0583 1.0583 1.0583 1.0583-0.47412 1.0583-1.0583-0.47412-1.0583-1.0583-1.0583z" />
    <path
       id="path85"
       fill="url(#linearGradient929)"
       d="m10.224 5.3633c-0.58419 0-1.0583 0.47412-1.0583 1.0583s0.47412 1.0583 1.0583 1.0583c0.58419 0 1.0583-0.47412 1.0583-1.0583s-0.47412-1.0583-1.0583-1.0583z" />
    <path
       id="path87"
       fill="url(#linearGradient903)"
       d="m5.9911 3.2467c-0.58419 0-1.0583 0.47412-1.0583 1.0583 0 0.58419 0.47412 1.0583 1.0583 1.0583 0.58419 0 1.0583-0.47412 1.0583-1.0583 0-0.58419-0.47412-1.0583-1.0583-1.0583z" />
    <path
       id="path89"
       fill="url(#linearGradient945)"
       d="m8.1078 3.2467c-0.58419 0-1.0583 0.47412-1.0583 1.0583 0 0.58419 0.47412 1.0583 1.0583 1.0583s1.0583-0.47412 1.0583-1.0583c0-0.58419-0.47412-1.0583-1.0583-1.0583z" />
    <path
       id="path91"
       fill="url(#linearGradient921)"
       d="m12.341 3.2467c-0.58419 0-1.0583 0.47412-1.0583 1.0583 0 0.58419 0.47412 1.0583 1.0583 1.0583s1.0583-0.47412 1.0583-1.0583c0-0.58419-0.47412-1.0583-1.0583-1.0583z" />
  </g>
</svg>
