<?xml version="1.0" encoding="UTF-8"?>
<svg width="64" height="64" version="1.1" viewBox="0 0 16.933 16.933" xmlns="http://www.w3.org/2000/svg" xmlns:cc="http://creativecommons.org/ns#" xmlns:dc="http://purl.org/dc/elements/1.1/" xmlns:rdf="http://www.w3.org/1999/02/22-rdf-syntax-ns#" xmlns:xlink="http://www.w3.org/1999/xlink">
 <defs>
  <filter id="filter11290-3" x="-.024" y="-.024" width="1.048" height="1.048" color-interpolation-filters="sRGB">
   <feGaussianBlur stdDeviation="0.15875313"/>
  </filter>
  <linearGradient id="linearGradient1005-6" x1="1.0653" x2="13.339" y1="15.97" y2="3.6966" gradientTransform="matrix(1 0 0 1 3.1243 2.7651)" gradientUnits="userSpaceOnUse">
   <stop stop-color="#ff7d1e" offset="0"/>
   <stop stop-color="#ffa53c" offset="1"/>
  </linearGradient>
  <filter id="filter1346" x="-.083571" y="-.084434" width="1.1671" height="1.1689" color-interpolation-filters="sRGB">
   <feGaussianBlur stdDeviation="0.3616237"/>
  </filter>
  <linearGradient id="linearGradient963-6" x1="-6.1472" x2="-6.1472" y1="-137.82" y2="-100.78" gradientTransform="matrix(.074692 0 0 .074692 8.8819 20.792)" gradientUnits="userSpaceOnUse">
   <stop stop-color="#ffbe14" offset="0"/>
   <stop stop-color="#ff8214" offset="1"/>
  </linearGradient>
  <linearGradient id="linearGradient32549-7" x1="-6.1472" x2="-6.1472" y1="-137.82" y2="-100.78" gradientTransform="matrix(.074692 0 0 .074692 12.111 16.966)" gradientUnits="userSpaceOnUse">
   <stop stop-color="#32b4ff" offset="0"/>
   <stop stop-color="#3287ff" offset="1"/>
  </linearGradient>
  <linearGradient id="linearGradient957-3" x1="-6.1472" x2="-6.1472" y1="-137.82" y2="-100.78" gradientTransform="matrix(.049219 0 0 .049219 9.4609 15.225)" gradientUnits="userSpaceOnUse">
   <stop stop-color="#14dc78" offset="0"/>
   <stop stop-color="#14a03c" offset="1"/>
  </linearGradient>
  <linearGradient id="linearGradient961-5" x1="-6.1472" x2="-6.1472" y1="-137.82" y2="-100.78" gradientTransform="matrix(.049219 0 0 .049219 14.622 15.132)" gradientUnits="userSpaceOnUse">
   <stop stop-color="#dc28e6" offset="0"/>
   <stop stop-color="#8c14e6" offset="1"/>
  </linearGradient>
  <linearGradient id="linearGradient1342" x1="-6.1472" x2="-6.1472" y1="-137.82" y2="-100.78" gradientTransform="matrix(.049219 0 0 .049219 9.8667 20.096)" gradientUnits="userSpaceOnUse">
   <stop stop-color="#ff3c69" offset="0"/>
   <stop stop-color="#ff462b" offset="1"/>
  </linearGradient>
 </defs>
 <metadata>
  <rdf:RDF>
   <cc:Work rdf:about="">
    <dc:format>image/svg+xml</dc:format>
    <dc:type rdf:resource="http://purl.org/dc/dcmitype/StillImage"/>
    <dc:title/>
   </cc:Work>
  </rdf:RDF>
 </metadata>
 <g transform="translate(-3.1596 -2.7587)">
  <circle transform="matrix(1 0 0 1 3.1324 2.7652)" cx="8.4937" cy="8.46" r="7.9377" filter="url(#filter11290-3)" opacity=".25" stroke-width=".14032"/>
  <path d="m19.564 11.225c0 0.95156-0.16749 1.8639-0.47465 2.7095-0.21352 0.58769-0.4944 1.1433-0.83395 1.6572-0.14222 0.21608-0.29515 0.42476-0.45747 0.6253-0.51967 0.6418-1.1372 1.2007-1.8305 1.6543-0.2553 0.16718-0.52066 0.32011-0.79538 0.45713-1.0668 0.5339-2.2711 0.83423-3.5457 0.83423s-2.4788-0.30033-3.5457-0.83426c-0.27475-0.13705-0.54041-0.28998-0.79572-0.45713-0.70208-0.45974-1.327-1.0274-1.8509-1.6798-0.16263-0.20216-0.31525-0.41276-0.45747-0.63079-0.33047-0.50541-0.60422-1.0507-0.81352-1.627-0.30712-0.84531-0.47431-1.7573-0.47431-2.7086 0-4.3839 3.5538-7.9377 7.9377-7.9377 2.2005 0 4.1918 0.8955 5.6296 2.3417 0.41437 0.41663 0.78276 0.87931 1.0963 1.3795 0.29646 0.47108 0.54429 0.97584 0.73706 1.5068 0.30719 0.84561 0.47468 1.7579 0.47468 2.7095z" fill="url(#linearGradient1005-6)" stroke-width=".031007"/>
  <path transform="matrix(1 0 0 1 3.1324 2.7652)" d="m8.4404 3.3203c-2.8386 0-5.1395 2.3013-5.1391 5.1399 0 2.8383 2.3009 5.1391 5.1391 5.1391 1.4188 0 1.1526-1.1799 1.5109-1.6289 0.26908-0.33815 0.64033-0.68853 1.0706-0.73386 0.50219-0.05396 0.75976 0.17267 1.1562 0.16188 0.60867-0.01511 1.0432-0.4914 1.2778-1.1281 0.14821-0.40074 0.23065-1.4196 0.23065-1.7743 3.97e-4 -2.8383-2.4078-5.1753-5.2461-5.1757zm3.3563 5.5406c1.0551-8.39e-4 1.0551 1.5805 0 1.5814-1.0534-8.38e-4 -1.0534-1.5822 0-1.5814z" fill="#ff781e" filter="url(#filter1346)" stroke-width=".71947" style="paint-order:stroke markers fill"/>
  <path d="m11.52 6.0855c-2.8387 0-5.1396 2.3013-5.1392 5.14 0 2.8384 2.3009 5.1392 5.1392 5.1392 1.4188 0 1.1526-1.1799 1.5109-1.6289 0.26909-0.33816 0.64033-0.68854 1.0706-0.73387 0.5022-0.05396 0.75978 0.17267 1.1562 0.16188 0.60868-0.01511 1.0432-0.49141 1.2778-1.1281 0.14821-0.40075 0.23066-1.4196 0.23066-1.7743 3.97e-4 -2.8384-2.4078-5.1754-5.2462-5.1758zm3.3564 5.5407c1.0551-8.39e-4 1.0551 1.5805 0 1.5814-1.0534-8.38e-4 -1.0534-1.5822 0-1.5814z" fill="#fff" stroke-width=".71948" style="paint-order:stroke markers fill"/>
  <circle cx="8.4532" cy="11.844" r="1.1179" fill="url(#linearGradient963-6)" stroke-width=".019762"/>
  <circle cx="11.683" cy="8.0184" r="1.1179" fill="url(#linearGradient32549-7)" stroke-width=".88563" style="paint-order:normal"/>
  <g stroke-width=".013023">
   <circle cx="9.1784" cy="9.3295" r=".73666" fill="url(#linearGradient957-3)"/>
   <circle cx="14.34" cy="9.2361" r=".73666" fill="url(#linearGradient961-5)"/>
   <circle cx="9.5842" cy="14.2" r=".73666" fill="url(#linearGradient1342)"/>
  </g>
 </g>
</svg>
