<?xml version="1.0" encoding="UTF-8" standalone="no"?>
<svg
   xmlns:dc="http://purl.org/dc/elements/1.1/"
   xmlns:cc="http://creativecommons.org/ns#"
   xmlns:rdf="http://www.w3.org/1999/02/22-rdf-syntax-ns#"
   xmlns:svg="http://www.w3.org/2000/svg"
   xmlns="http://www.w3.org/2000/svg"
   xmlns:xlink="http://www.w3.org/1999/xlink"
   xmlns:sodipodi="http://sodipodi.sourceforge.net/DTD/sodipodi-0.dtd"
   xmlns:inkscape="http://www.inkscape.org/namespaces/inkscape"
   inkscape:version="1.0 (4035a4fb49, 2020-05-01)"
   sodipodi:docname="gnome-klotski.svg"
   id="svg64"
   viewBox="0 0 16.933 16.933"
   version="1.1"
   height="64"
   width="64">
  <metadata
     id="metadata68">
    <rdf:RDF>
      <cc:Work
         rdf:about="">
        <dc:format>image/svg+xml</dc:format>
        <dc:type
           rdf:resource="http://purl.org/dc/dcmitype/StillImage" />
        <dc:title></dc:title>
      </cc:Work>
    </rdf:RDF>
  </metadata>
  <sodipodi:namedview
     inkscape:current-layer="svg64"
     inkscape:window-maximized="1"
     inkscape:window-y="0"
     inkscape:window-x="0"
     inkscape:cy="7.319399"
     inkscape:cx="-3.9966422"
     inkscape:zoom="4.5078057"
     showgrid="false"
     id="namedview66"
     inkscape:window-height="985"
     inkscape:window-width="1920"
     inkscape:pageshadow="2"
     inkscape:pageopacity="0"
     guidetolerance="10"
     gridtolerance="10"
     objecttolerance="10"
     borderopacity="1"
     bordercolor="#666666"
     pagecolor="#ffffff" />
  <defs
     id="defs24">
    <linearGradient
       id="linearGradient1058">
      <stop
         id="stop2"
         offset="0"
         stop-color="#136de2" />
      <stop
         id="stop4"
         offset="1"
         stop-color="#26bbcf" />
    </linearGradient>
    <linearGradient
       id="linearGradient1042">
      <stop
         id="stop7"
         offset="0"
         stop-color="#ffb636" />
      <stop
         id="stop9"
         offset="1"
         stop-color="#eeed51" />
    </linearGradient>
    <filter
       color-interpolation-filters="sRGB"
       height="1.12"
       width="1.12"
       y="-.06"
       x="-.06"
       id="filter1032">
      <feGaussianBlur
         id="feGaussianBlur12"
         stdDeviation="0.6" />
    </filter>
    <linearGradient
       xlink:href="#linearGradient1042"
       gradientUnits="userSpaceOnUse"
       y2="15.598"
       y1="31.829"
       x2="38.875"
       x1="38.838"
       id="linearGradient1044" />
    <linearGradient
       xlink:href="#linearGradient1042"
       gradientUnits="userSpaceOnUse"
       y2="39.04"
       y1="39.04"
       x2="31.359"
       x1="16"
       id="linearGradient1052" />
    <linearGradient
       xlink:href="#linearGradient1058"
       gradientUnits="userSpaceOnUse"
       y2="25.339"
       y1="34.767"
       x2="29.975"
       x1="29.919"
       id="linearGradient1060" />
    <linearGradient
       xlink:href="#linearGradient1058"
       gradientUnits="userSpaceOnUse"
       y2="13.498"
       y1="22.502"
       x2="17.71"
       x1="17.443"
       id="linearGradient1068" />
    <linearGradient
       gradientUnits="userSpaceOnUse"
       gradientTransform="translate(0.07043127,0.79164)"
       y2="2.8451"
       y1="14.699"
       x2="7.0313"
       x1="7.0313"
       id="linearGradient896">
      <stop
         id="stop19"
         offset="0"
         stop-color="#2e323e" />
      <stop
         id="stop21"
         offset="1"
         stop-color="#505664" />
    </linearGradient>
    <filter
       id="filter11290"
       x="-0.024"
       y="-0.024"
       width="1.048"
       height="1.048"
       color-interpolation-filters="sRGB">
      <feGaussianBlur
         stdDeviation="0.15875313"
         id="feGaussianBlur861" />
    </filter>
    <linearGradient
       gradientTransform="matrix(0.26457812,0,0,0.26457812,1.6376953e-6,-3.5976563e-7)"
       gradientUnits="userSpaceOnUse"
       y2="2.6618319"
       x2="61.642139"
       y1="61.846527"
       x1="2.6369677"
       id="linearGradient1195"
       xlink:href="#linearGradient1193"
       inkscape:collect="always" />
    <linearGradient
       id="linearGradient1193"
       inkscape:collect="always">
      <stop
         id="stop1189"
         offset="0"
         style="stop-color:#2f333f;stop-opacity:1" />
      <stop
         id="stop1191"
         offset="1"
         style="stop-color:#505664;stop-opacity:1" />
    </linearGradient>
  </defs>
  <circle
     id="circle943"
     stroke-width="0.14032"
     opacity="0.25"
     filter="url(#filter11290)"
     r="7.9376955"
     cy="8.4665003"
     cx="8.4665003" />
  <circle
     r="7.9373436"
     cy="8.4665003"
     cx="8.4665003"
     id="path1187"
     style="opacity:1;fill:url(#linearGradient1195);fill-opacity:1;stroke-width:0.51902;stroke-linecap:round" />
  <g
     id="g52"
     opacity=".25"
     filter="url(#filter1032)"
     transform="matrix(.33866 0 0 .33866 .50799 .50799)">
    <path
       id="path40"
       d="m15.332 14h5.336c0.734 0 1.332 0.598 1.332 1.332v5.336c0 0.734-0.598 1.332-1.332 1.332h-5.336c-0.734 0-1.332-0.598-1.332-1.332v-5.336c0-0.734 0.598-1.332 1.332-1.332" />
    <path
       id="path42"
       d="m27.332 26h5.336c0.738 0 1.332 0.598 1.332 1.332v5.336c0 0.738-0.594 1.332-1.332 1.332h-5.336c-0.734 0-1.332-0.594-1.332-1.332v-5.336c0-0.734 0.598-1.332 1.332-1.332" />
    <path
       id="path44"
       d="m14 24c-1.109 0-2 0.891-2 2v8c0 1.109 0.891 2 2 2h8c1.109 0 2-0.891 2-2v-8c0-1.109-0.891-2-2-2m-8 1h8c0.555 0 1 0.445 1 1v8c0 0.555-0.445 1-1 1h-8c-0.555 0-1-0.445-1-1v-8c0-0.555 0.445-1 1-1" />
    <path
       id="path46"
       d="m15 26h6c0.551 0 1 0.449 1 1v6c0 0.551-0.449 1-1 1h-6c-0.551 0-1-0.449-1-1v-6c0-0.551 0.449-1 1-1" />
    <path
       id="path48"
       d="m26 12c-1.109 0-2 0.891-2 2v8c0 1.109 0.891 2 2 2h8c1.109 0 2-0.891 2-2v-8c0-1.109-0.891-2-2-2m-8 1h8c0.555 0 1 0.445 1 1v8c0 0.555-0.445 1-1 1h-8c-0.555 0-1-0.445-1-1v-8c0-0.555 0.445-1 1-1" />
    <path
       id="path50"
       d="m27 14h6c0.551 0 1 0.449 1 1v6c0 0.551-0.449 1-1 1h-6c-0.551 0-1-0.449-1-1v-6c0-0.551 0.449-1 1-1" />
  </g>
  <g
     id="g62"
     transform="matrix(.33866 0 0 .33866 .16933 .16933)">
    <path
       id="path54"
       fill="url(#linearGradient1068)"
       d="m15.332 14h5.336c0.734 0 1.332 0.598 1.332 1.332v5.336c0 0.734-0.598 1.332-1.332 1.332h-5.336c-0.734 0-1.332-0.598-1.332-1.332v-5.336c0-0.734 0.598-1.332 1.332-1.332" />
    <path
       id="path56"
       fill="url(#linearGradient1060)"
       d="m27.332 26h5.336c0.738 0 1.332 0.598 1.332 1.332v5.336c0 0.738-0.594 1.332-1.332 1.332h-5.336c-0.734 0-1.332-0.594-1.332-1.332v-5.336c0-0.734 0.598-1.332 1.332-1.332" />
    <path
       id="path58"
       fill="url(#linearGradient1052)"
       d="m18.561 31.359c-1.4195 0-2.5605 1.141-2.5605 2.5605v10.24c0 1.4195 1.141 2.5605 2.5605 2.5605h10.24c1.4195 0 2.5586-1.141 2.5586-2.5605v-10.24c0-1.4195-1.1391-2.5605-2.5586-2.5605h-10.24zm0 1.2812h10.24c0.7104 0 1.2793 0.5689 1.2793 1.2793v10.24c0 0.7104-0.5689 1.2793-1.2793 1.2793h-10.24c-0.7104 0-1.2812-0.5689-1.2812-1.2793v-10.24c0-0.7104 0.57085-1.2793 1.2812-1.2793zm1.2793 1.2793c-0.70528 0-1.2793 0.57402-1.2793 1.2793v7.6816c0 0.70528 0.57402 1.2793 1.2793 1.2793h7.6797c0.70528 0 1.2812-0.57402 1.2812-1.2793v-7.6816c0-0.70528-0.57597-1.2793-1.2812-1.2793h-7.6797z"
       transform="matrix(.78125 0 0 .78125 -.5 -.5)" />
    <path
       id="path60"
       fill="url(#linearGradient1044)"
       d="m33.92 16c-1.4195 0-2.5605 1.141-2.5605 2.5605v10.24c0 1.4195 1.141 2.5586 2.5605 2.5586h10.24c1.4195 0 2.5605-1.1391 2.5605-2.5586v-10.24c0-1.4195-1.141-2.5605-2.5605-2.5605h-10.24zm0 1.2793h10.24c0.7104 0 1.2793 0.57085 1.2793 1.2812v10.24c0 0.7104-0.5689 1.2793-1.2793 1.2793h-10.24c-0.7104 0-1.2793-0.5689-1.2793-1.2793v-10.24c0-0.7104 0.5689-1.2812 1.2793-1.2812zm1.2793 1.2812c-0.70528 0-1.2793 0.57402-1.2793 1.2793v7.6797c0 0.70528 0.57402 1.2812 1.2793 1.2812h7.6816c0.70528 0 1.2793-0.57597 1.2793-1.2812v-7.6797c0-0.70528-0.57402-1.2793-1.2793-1.2793h-7.6816z"
       transform="matrix(.78125 0 0 .78125 -.5 -.5)" />
  </g>
</svg>
