<?xml version="1.0" encoding="UTF-8" standalone="no"?>
<svg
   xmlns:dc="http://purl.org/dc/elements/1.1/"
   xmlns:cc="http://creativecommons.org/ns#"
   xmlns:rdf="http://www.w3.org/1999/02/22-rdf-syntax-ns#"
   xmlns:svg="http://www.w3.org/2000/svg"
   xmlns="http://www.w3.org/2000/svg"
   xmlns:xlink="http://www.w3.org/1999/xlink"
   xmlns:sodipodi="http://sodipodi.sourceforge.net/DTD/sodipodi-0.dtd"
   xmlns:inkscape="http://www.inkscape.org/namespaces/inkscape"
   inkscape:version="1.0 (4035a4fb49, 2020-05-01)"
   sodipodi:docname="gnome-mahjongg.svg"
   id="svg43"
   version="1.1"
   height="64"
   width="64">
  <metadata
     id="metadata47">
    <rdf:RDF>
      <cc:Work
         rdf:about="">
        <dc:format>image/svg+xml</dc:format>
        <dc:type
           rdf:resource="http://purl.org/dc/dcmitype/StillImage" />
        <dc:title></dc:title>
      </cc:Work>
    </rdf:RDF>
  </metadata>
  <sodipodi:namedview
     inkscape:current-layer="svg43"
     inkscape:window-maximized="1"
     inkscape:window-y="0"
     inkscape:window-x="0"
     inkscape:cy="25.280841"
     inkscape:cx="2.7742359"
     inkscape:zoom="4.5078057"
     showgrid="false"
     id="namedview45"
     inkscape:window-height="985"
     inkscape:window-width="1920"
     inkscape:pageshadow="2"
     inkscape:pageopacity="0"
     guidetolerance="10"
     gridtolerance="10"
     objecttolerance="10"
     borderopacity="1"
     bordercolor="#666666"
     pagecolor="#ffffff" />
  <defs
     id="defs15">
    <linearGradient
       gradientUnits="userSpaceOnUse"
       gradientTransform="matrix(2.1429 0 0 2.1429 -826.36 -1107.5)"
       y2="517.8"
       y1="545.8"
       x2="399.57"
       x1="399.57"
       id="b">
      <stop
         id="stop2"
         offset="0"
         stop-color="#3889e9" />
      <stop
         id="stop4"
         offset="1"
         stop-color="#5ea5fb" />
    </linearGradient>
    <filter
       color-interpolation-filters="sRGB"
       height="1.1033"
       width="1.1431"
       y="-.051667"
       x="-.071538"
       id="filter932">
      <feGaussianBlur
         id="feGaussianBlur7"
         stdDeviation="0.775" />
    </filter>
    <linearGradient
       gradientUnits="userSpaceOnUse"
       gradientTransform="matrix(3.7795 0 0 3.7795 .00014324 .031541)"
       y2="1.852"
       y1="15.081"
       x2="7.9373"
       x1="7.9373"
       id="linearGradient862-3">
      <stop
         id="stop10"
         offset="0"
         stop-color="#1a1a1a" />
      <stop
         id="stop12"
         offset="1"
         stop-color="#4d4d4d" />
    </linearGradient>
    <linearGradient
       id="linearGradient951">
      <stop
         id="stop2-3"
         offset="0"
         stop-color="#ec4520" />
      <stop
         id="stop4-6"
         offset="1"
         stop-color="#f58517" />
    </linearGradient>
    <linearGradient
       id="linearGradient935">
      <stop
         id="stop7"
         offset="0"
         stop-color="#548fed" />
      <stop
         id="stop9"
         offset="1"
         stop-color="#5ebae3" />
    </linearGradient>
    <linearGradient
       id="linearGradient913">
      <stop
         id="stop12-7"
         offset="0"
         stop-color="#8ae234" />
      <stop
         id="stop14"
         offset="1"
         stop-color="#47e767" />
    </linearGradient>
    <linearGradient
       xlink:href="#linearGradient913"
       gradientUnits="userSpaceOnUse"
       y2="4.305"
       y1="4.305"
       x2="7.0494"
       x1="4.9328"
       id="linearGradient903" />
    <linearGradient
       xlink:href="#linearGradient913"
       gradientUnits="userSpaceOnUse"
       y2="6.4216"
       y1="6.4216"
       x2="9.1661"
       x1="7.0494"
       id="linearGradient905" />
    <linearGradient
       xlink:href="#linearGradient913"
       gradientUnits="userSpaceOnUse"
       y2="10.655"
       y1="10.655"
       x2="13.399"
       x1="11.283"
       id="linearGradient907" />
    <linearGradient
       xlink:href="#linearGradient935"
       gradientUnits="userSpaceOnUse"
       y2="4.305"
       y1="4.305"
       x2="13.399"
       x1="11.283"
       id="linearGradient921" />
    <linearGradient
       xlink:href="#linearGradient935"
       gradientUnits="userSpaceOnUse"
       y2="10.655"
       y1="10.655"
       x2="7.0494"
       x1="4.9328"
       id="linearGradient923" />
    <linearGradient
       xlink:href="#linearGradient935"
       gradientUnits="userSpaceOnUse"
       y2="8.5382"
       y1="8.5382"
       x2="9.1661"
       x1="7.0494"
       id="linearGradient925" />
    <linearGradient
       xlink:href="#linearGradient935"
       gradientUnits="userSpaceOnUse"
       y2="10.655"
       y1="10.655"
       x2="11.283"
       x1="9.1661"
       id="linearGradient927" />
    <linearGradient
       xlink:href="#linearGradient935"
       gradientUnits="userSpaceOnUse"
       y2="6.4216"
       y1="6.4216"
       x2="11.283"
       x1="9.1661"
       id="linearGradient929" />
    <linearGradient
       xlink:href="#linearGradient951"
       gradientUnits="userSpaceOnUse"
       y2="8.5382"
       y1="8.5382"
       x2="13.399"
       x1="11.283"
       id="linearGradient943" />
    <linearGradient
       xlink:href="#linearGradient951"
       gradientUnits="userSpaceOnUse"
       y2="4.305"
       y1="4.305"
       x2="9.1661"
       x1="7.0494"
       id="linearGradient945" />
    <filter
       color-interpolation-filters="sRGB"
       height="1.12"
       width="1.12"
       y="-.06"
       x="-.06"
       id="filter999">
      <feGaussianBlur
         id="feGaussianBlur27"
         stdDeviation="0.21166249" />
    </filter>
    <linearGradient
       gradientUnits="userSpaceOnUse"
       gradientTransform="matrix(.99997 0 0 .99997 3.7636e-5 .0083364)"
       y2="1.852"
       y1="15.081"
       x2="7.9373"
       x1="7.9373"
       id="linearGradient862-3-5">
      <stop
         id="stop30"
         offset="0"
         stop-color="#1a1a1a" />
      <stop
         id="stop32"
         offset="1"
         stop-color="#4d4d4d" />
    </linearGradient>
    <filter
       color-interpolation-filters="sRGB"
       height="1.1062"
       width="1.138"
       y="-.053076"
       x="-.069001"
       id="filter911">
      <feGaussianBlur
         id="feGaussianBlur2"
         stdDeviation="0.5750183" />
    </filter>
    <linearGradient
       gradientUnits="userSpaceOnUse"
       y2="24.006"
       y1="24.006"
       x2="34.001"
       x1="14"
       id="linearGradient921-3">
      <stop
         id="stop5"
         offset="0"
         stop-color="#fff" />
      <stop
         id="stop7-6"
         offset="1"
         stop-color="#e6e6e6" />
    </linearGradient>
    <linearGradient
       gradientUnits="userSpaceOnUse"
       gradientTransform="matrix(3.7795,0,0,3.7795,-78.322643,0.031541)"
       y2="1.852"
       y1="15.081"
       x2="7.9373"
       x1="7.9373"
       id="linearGradient862-3-7">
      <stop
         id="stop10-3"
         offset="0"
         stop-color="#1a1a1a" />
      <stop
         id="stop12-5"
         offset="1"
         stop-color="#4d4d4d" />
    </linearGradient>
    <filter
       id="filter11290"
       x="-0.024"
       y="-0.024"
       width="1.048"
       height="1.048"
       color-interpolation-filters="sRGB">
      <feGaussianBlur
         stdDeviation="0.15875313"
         id="feGaussianBlur861" />
    </filter>
    <linearGradient
       gradientTransform="translate(-8.9248047e-6)"
       gradientUnits="userSpaceOnUse"
       y2="2.6618319"
       x2="61.642139"
       y1="61.846527"
       x1="2.6369677"
       id="linearGradient1195"
       xlink:href="#linearGradient1193"
       inkscape:collect="always" />
    <linearGradient
       id="linearGradient1193"
       inkscape:collect="always">
      <stop
         id="stop1189"
         offset="0"
         style="stop-color:#1a1a1a;stop-opacity:1" />
      <stop
         id="stop1191"
         offset="1"
         style="stop-color:#4d4d4d;stop-opacity:1" />
    </linearGradient>
  </defs>
  <circle
     transform="scale(3.779602)"
     style="image-rendering:optimizeSpeed"
     id="circle943"
     stroke-width="0.14032"
     opacity="0.25"
     filter="url(#filter11290)"
     r="7.9376998"
     cy="8.4665003"
     cx="8.4665003" />
  <circle
     r="30"
     cy="32"
     cx="32"
     id="path1187"
     style="fill:url(#linearGradient1195);fill-opacity:1;stroke-width:1.96169;stroke-linecap:round;image-rendering:optimizeSpeed" />
  <g
     id="g35"
     stroke-width="1.5715">
    <circle
       id="circle31"
       fill-opacity="0"
       r="30.001"
       cy="32.044"
       cx="32.02" />
    <circle
       id="circle33"
       fill="url(#b)"
       r="0"
       cy="32.044"
       cx="32.02" />
  </g>
  <rect
     id="rect37"
     opacity=".5"
     filter="url(#filter932)"
     ry="2"
     rx="2"
     height="36"
     width="26"
     y="14"
     x="19" />
  <rect
     id="rect39"
     fill="#f2f2f2"
     ry="2"
     rx="2"
     height="36"
     width="26"
     y="14"
     x="19" />
  <path
     id="path41"
     stroke-width="2.3332"
     fill="#e64c4c"
     d="m29.02 20.525c-0.20882 0.15352-0.26108 0.38357-0.26108 0.65235 0 0.49888 0.20882 1.1128 0.31325 1.3431 0 0 0.15662 2.6862 0.20884 2.9932-0.46988 0.03837-1.3052 0.07676-1.6184 0.1535h-0.41766c-0.88754 0.0385-1.7228 0.07676-2.0884 0.34531l-0.15663 0.11512 0.15663 0.1535c0.26103 0.23024 0.36547 0.88261 0.46988 1.5734 0.26103 1.4198 0.57428 3.185 2.1406 3.8759l0.31325 0.11512v-0.26862s0.0523-0.11512 0.0523-0.26862c0-0.11512-0.0523-0.307-0.10436-0.57562 0.41766 0.03837 1.3052 0.11512 1.6184 0.11512 0.05226 0.30705 1.4097 12.818 1.4097 12.818h0.52216s0.57431-12.356 0.57431-12.74c0.36544 0 1.9839 0.03835 2.4538 0.07676-0.10429 0.23028-0.52193 1.1897-0.52193 1.1897l0.73075-0.49883c0.20882-0.11526 4.7508-3.1467 4.1255-5.1423-0.20998-0.65235-0.94027-1.1129-2.1418-1.343h-0.10466c-0.67872 0-2.7671 0.03837-4.3334 0.11512 0.05234-0.99773 0.05234-1.535 0.05234-1.8037v-0.34538c0-0.19188 0.26103-0.4605 0.46988-0.65238 0.20884-0.23024 0.4699-0.42212 0.4699-0.65238 0-0.07676-0.05231-0.1535-0.10436-0.23024-0.31241-0.34554-2.6096-1.2282-3.6015-1.3049-0.31334 0.03826-0.52216 0.07676-0.62669 0.19178zm0.05232 6.2935h0.26103c0 0.34538 0.15663 2.7629 0.20882 3.1082-0.41764-0.0385-1.4095-0.11526-1.7228-0.11526-0.15679-0.49883-0.20882-1.0362-0.26108-1.5733-0.05226-0.46057-0.10429-0.92114-0.20882-1.3432 0.46988 0 1.7229-0.07676 1.7229-0.07676zm3.1848 1.1894s0.05217-0.921 0.05217-1.228c0.6787 0.07676 1.5662 0.11512 2.4015 0.11512h0.93975c0 0.1535-0.05232 0.34538-0.05232 0.34538-0.10436 0.84423-0.26103 1.8419-0.73094 2.8397-0.31323 0-2.2449-0.07676-2.6626-0.11512 0-0.26862 0.05232-1.9571 0.05232-1.9571z" />
</svg>
