<?xml version="1.0" encoding="UTF-8" standalone="no"?>
<svg
   xmlns:dc="http://purl.org/dc/elements/1.1/"
   xmlns:cc="http://creativecommons.org/ns#"
   xmlns:rdf="http://www.w3.org/1999/02/22-rdf-syntax-ns#"
   xmlns:svg="http://www.w3.org/2000/svg"
   xmlns="http://www.w3.org/2000/svg"
   xmlns:xlink="http://www.w3.org/1999/xlink"
   xmlns:sodipodi="http://sodipodi.sourceforge.net/DTD/sodipodi-0.dtd"
   xmlns:inkscape="http://www.inkscape.org/namespaces/inkscape"
   inkscape:version="1.0 (4035a4fb49, 2020-05-01)"
   sodipodi:docname="gnome-aisleriot.svg"
   viewBox="0 0 64 64"
   version="1.1"
   image-rendering="optimizeSpeed"
   enable-background="new 0 0 1024 1024"
   height="64"
   width="64"
   id="Calculator">
  <metadata
     id="metadata40">
    <rdf:RDF>
      <cc:Work
         rdf:about="">
        <dc:format>image/svg+xml</dc:format>
        <dc:type
           rdf:resource="http://purl.org/dc/dcmitype/StillImage" />
        <dc:title></dc:title>
      </cc:Work>
    </rdf:RDF>
  </metadata>
  <sodipodi:namedview
     inkscape:current-layer="Calculator"
     inkscape:window-maximized="1"
     inkscape:window-y="0"
     inkscape:window-x="0"
     inkscape:cy="29.722776"
     inkscape:cx="-23.258223"
     inkscape:zoom="4.5078057"
     showgrid="false"
     id="namedview38"
     inkscape:window-height="985"
     inkscape:window-width="1920"
     inkscape:pageshadow="2"
     inkscape:pageopacity="0"
     guidetolerance="10"
     gridtolerance="10"
     objecttolerance="10"
     borderopacity="1"
     bordercolor="#666666"
     pagecolor="#ffffff" />
  <defs
     id="defs15">
    <filter
       color-interpolation-filters="sRGB"
       height="1.1062"
       width="1.138"
       y="-.053076"
       x="-.069001"
       id="filter911">
      <feGaussianBlur
         id="feGaussianBlur2"
         stdDeviation="0.5750183" />
    </filter>
    <linearGradient
       gradientUnits="userSpaceOnUse"
       y2="24.006"
       y1="24.006"
       x2="34.001"
       x1="14"
       id="linearGradient921">
      <stop
         id="stop5"
         offset="0"
         stop-color="#fff" />
      <stop
         id="stop7"
         offset="1"
         stop-color="#e6e6e6" />
    </linearGradient>
    <linearGradient
       gradientUnits="userSpaceOnUse"
       gradientTransform="matrix(3.7795,0,0,3.7795,-78.322643,0.031541)"
       y2="1.852"
       y1="15.081"
       x2="7.9373"
       x1="7.9373"
       id="linearGradient862-3">
      <stop
         id="stop10"
         offset="0"
         stop-color="#1a1a1a" />
      <stop
         id="stop12"
         offset="1"
         stop-color="#4d4d4d" />
    </linearGradient>
    <filter
       id="filter11290"
       x="-0.024"
       y="-0.024"
       width="1.048"
       height="1.048"
       color-interpolation-filters="sRGB">
      <feGaussianBlur
         stdDeviation="0.15875313"
         id="feGaussianBlur861" />
    </filter>
    <linearGradient
       gradientTransform="translate(-2.0170898e-6)"
       gradientUnits="userSpaceOnUse"
       y2="2.6618319"
       x2="61.642139"
       y1="61.846527"
       x1="2.6369677"
       id="linearGradient1195"
       xlink:href="#linearGradient1193"
       inkscape:collect="always" />
    <linearGradient
       id="linearGradient1193"
       inkscape:collect="always">
      <stop
         id="stop1189"
         offset="0"
         style="stop-color:#1a1a1a;stop-opacity:1" />
      <stop
         id="stop1191"
         offset="1"
         style="stop-color:#4d4d4d;stop-opacity:1" />
    </linearGradient>
  </defs>
  <circle
     id="circle943"
     stroke-width="0.14032"
     opacity="0.25"
     filter="url(#filter11290)"
     r="7.9376998"
     cy="8.4665003"
     cx="8.4665003"
     transform="matrix(3.7796,0,0,3.7796,1.6203648e-5,1.6203648e-5)" />
  <circle
     r="30"
     cy="32"
     cx="32"
     id="path1187"
     style="opacity:1;fill:url(#linearGradient1195);fill-opacity:1;stroke-width:1.96169;stroke-linecap:round" />
  <g
     id="g35"
     transform="matrix(1.4 0 0 1.4 -1.6001 -1.6071)">
    <path
       id="path31"
       opacity=".5"
       filter="url(#filter911)"
       d="m14.766 14.363c-0.547 0.145-0.879 0.719-0.73 1.262l5.531 20.617c0.145 0.543 0.715 0.875 1.262 0.73l12.406-3.324c0.547-0.145 0.879-0.719 0.73-1.262l-5.527-20.617c-0.148-0.543-0.719-0.875-1.266-0.73m-4.574 7.734s3.992 1.418 5.215 3.01c0.867 1.125 1.813 2.883 1.105 4.109-0.199 0.348-0.551 0.566-0.949 0.699-0.664 0.227-1.48 0.215-2.137 0.125l0.328 1.223 1.027-0.277 0.277 1.031-4.117 1.105-0.273-1.031 1.027-0.273-0.328-1.223c-0.848 0.645-2.164 1.359-3.09 0.824-1.227-0.707-1.289-2.703-1.102-4.109 0.262-1.988 3.01-5.211 3.01-5.211" />
    <path
       id="path33"
       fill="url(#linearGradient921)"
       d="m14.766 14.363c-0.547 0.145-0.879 0.719-0.73 1.262l5.531 20.617c0.145 0.543 0.715 0.875 1.262 0.73l12.406-3.324c0.547-0.145 0.879-0.719 0.73-1.262l-5.527-20.617c-0.148-0.543-0.719-0.875-1.266-0.73m-4.574 7.734s3.992 1.418 5.215 3.01c0.867 1.125 1.813 2.883 1.105 4.109-0.199 0.348-0.551 0.566-0.949 0.699-0.664 0.227-1.48 0.215-2.137 0.125l0.328 1.223 1.027-0.277 0.277 1.031-4.117 1.105-0.273-1.031 1.027-0.273-0.328-1.223c-0.848 0.645-2.164 1.359-3.09 0.824-1.227-0.707-1.289-2.703-1.102-4.109 0.262-1.988 3.01-5.211 3.01-5.211" />
  </g>
</svg>
