<?xml version="1.0" encoding="UTF-8" standalone="no"?>
<svg
   xmlns:dc="http://purl.org/dc/elements/1.1/"
   xmlns:cc="http://creativecommons.org/ns#"
   xmlns:rdf="http://www.w3.org/1999/02/22-rdf-syntax-ns#"
   xmlns:svg="http://www.w3.org/2000/svg"
   xmlns="http://www.w3.org/2000/svg"
   xmlns:xlink="http://www.w3.org/1999/xlink"
   xmlns:sodipodi="http://sodipodi.sourceforge.net/DTD/sodipodi-0.dtd"
   xmlns:inkscape="http://www.inkscape.org/namespaces/inkscape"
   inkscape:version="1.0 (4035a4fb49, 2020-05-01)"
   sodipodi:docname="gnome-robots.svg"
   viewBox="0 0 64 64"
   version="1.1"
   image-rendering="optimizeSpeed"
   enable-background="new 0 0 1024 1024"
   height="64"
   width="64"
   id="Iterm">
  <metadata
     id="metadata125">
    <rdf:RDF>
      <cc:Work
         rdf:about="">
        <dc:format>image/svg+xml</dc:format>
        <dc:type
           rdf:resource="http://purl.org/dc/dcmitype/StillImage" />
        <dc:title></dc:title>
      </cc:Work>
    </rdf:RDF>
  </metadata>
  <sodipodi:namedview
     inkscape:current-layer="Iterm"
     inkscape:window-maximized="1"
     inkscape:window-y="0"
     inkscape:window-x="0"
     inkscape:cy="8.1730504"
     inkscape:cx="-35.303131"
     inkscape:zoom="4.5078057"
     showgrid="false"
     id="namedview123"
     inkscape:window-height="985"
     inkscape:window-width="1920"
     inkscape:pageshadow="2"
     inkscape:pageopacity="0"
     guidetolerance="10"
     gridtolerance="10"
     objecttolerance="10"
     borderopacity="1"
     bordercolor="#666666"
     pagecolor="#ffffff" />
  <defs
     id="defs35">
    <radialGradient
       gradientUnits="userSpaceOnUse"
       r="5.05"
       cy="25.668"
       cx="18.685"
       id="e">
      <stop
         id="stop2"
         offset="0"
         stop-color="#a40000" />
      <stop
         id="stop4"
         offset="1"
         stop-opacity="0"
         stop-color="#a40000" />
    </radialGradient>
    <radialGradient
       gradientUnits="userSpaceOnUse"
       r="5.05"
       cy="25.668"
       cx="18.685"
       id="c">
      <stop
         id="stop7"
         offset="0"
         stop-color="#c00" />
      <stop
         id="stop9"
         offset="1"
         stop-opacity="0"
         stop-color="#c00" />
    </radialGradient>
    <radialGradient
       gradientUnits="userSpaceOnUse"
       r="5.05"
       cy="25.668"
       cx="18.685"
       id="a">
      <stop
         id="stop12"
         offset="0"
         stop-color="#ef2929" />
      <stop
         id="stop14"
         offset="1"
         stop-opacity="0"
         stop-color="#ef2929" />
    </radialGradient>
    <radialGradient
       gradientUnits="userSpaceOnUse"
       gradientTransform="matrix(1.0649 .61482 -.62301 1.0791 14.403 -1.5545)"
       r="21.009"
       cy="12.464"
       cx="13.199"
       id="h">
      <stop
         id="stop17"
         offset="0"
         stop-color="#d3d7cf" />
      <stop
         id="stop19"
         offset="1"
         stop-color="#888a85" />
    </radialGradient>
    <linearGradient
       gradientUnits="userSpaceOnUse"
       gradientTransform="translate(7.4948 7.5462)"
       y2="40.081"
       y1="5.4583"
       x2="40.503"
       x1="5.6934"
       id="f">
      <stop
         id="stop22"
         offset="0"
         stop-color="#eeeeec" />
      <stop
         id="stop24"
         offset="1"
         stop-opacity="0"
         stop-color="#eeeeec" />
    </linearGradient>
    <filter
       color-interpolation-filters="sRGB"
       height="1.2382"
       width="1.2419"
       y="-.11909"
       x="-.12093"
       id="l">
      <feGaussianBlur
         id="feGaussianBlur27"
         stdDeviation="2.035925" />
    </filter>
    <linearGradient
       gradientUnits="userSpaceOnUse"
       gradientTransform="matrix(3.7795 0 0 3.7795 .00014324 .031541)"
       y2="1.852"
       y1="15.081"
       x2="7.9373"
       x1="7.9373"
       id="linearGradient862-3">
      <stop
         id="stop30"
         offset="0"
         stop-color="#1a1a1a" />
      <stop
         id="stop32"
         offset="1"
         stop-color="#4d4d4d" />
    </linearGradient>
    <linearGradient
       gradientUnits="userSpaceOnUse"
       gradientTransform="matrix(2.1429,0,0,2.1429,-826.36,-1107.5)"
       y2="517.8"
       y1="545.8"
       x2="399.57"
       x1="399.57"
       id="b">
      <stop
         id="stop2-36"
         offset="0"
         stop-color="#3889e9" />
      <stop
         id="stop4-7"
         offset="1"
         stop-color="#5ea5fb" />
    </linearGradient>
    <filter
       color-interpolation-filters="sRGB"
       height="1.1033"
       width="1.1431"
       y="-.051667"
       x="-.071538"
       id="filter932">
      <feGaussianBlur
         id="feGaussianBlur7"
         stdDeviation="0.775" />
    </filter>
    <linearGradient
       id="linearGradient951">
      <stop
         id="stop2-3"
         offset="0"
         stop-color="#ec4520" />
      <stop
         id="stop4-6"
         offset="1"
         stop-color="#f58517" />
    </linearGradient>
    <linearGradient
       id="linearGradient935">
      <stop
         id="stop7-5"
         offset="0"
         stop-color="#548fed" />
      <stop
         id="stop9-6"
         offset="1"
         stop-color="#5ebae3" />
    </linearGradient>
    <linearGradient
       id="linearGradient913">
      <stop
         id="stop12-7"
         offset="0"
         stop-color="#8ae234" />
      <stop
         id="stop14-2"
         offset="1"
         stop-color="#47e767" />
    </linearGradient>
    <linearGradient
       xlink:href="#linearGradient913"
       gradientUnits="userSpaceOnUse"
       y2="4.305"
       y1="4.305"
       x2="7.0494"
       x1="4.9328"
       id="linearGradient903" />
    <linearGradient
       xlink:href="#linearGradient913"
       gradientUnits="userSpaceOnUse"
       y2="6.4216"
       y1="6.4216"
       x2="9.1661"
       x1="7.0494"
       id="linearGradient905" />
    <linearGradient
       xlink:href="#linearGradient913"
       gradientUnits="userSpaceOnUse"
       y2="10.655"
       y1="10.655"
       x2="13.399"
       x1="11.283"
       id="linearGradient907" />
    <linearGradient
       xlink:href="#linearGradient935"
       gradientUnits="userSpaceOnUse"
       y2="4.305"
       y1="4.305"
       x2="13.399"
       x1="11.283"
       id="linearGradient921" />
    <linearGradient
       xlink:href="#linearGradient935"
       gradientUnits="userSpaceOnUse"
       y2="10.655"
       y1="10.655"
       x2="7.0494"
       x1="4.9328"
       id="linearGradient923" />
    <linearGradient
       xlink:href="#linearGradient935"
       gradientUnits="userSpaceOnUse"
       y2="8.5382"
       y1="8.5382"
       x2="9.1661"
       x1="7.0494"
       id="linearGradient925" />
    <linearGradient
       xlink:href="#linearGradient935"
       gradientUnits="userSpaceOnUse"
       y2="10.655"
       y1="10.655"
       x2="11.283"
       x1="9.1661"
       id="linearGradient927" />
    <linearGradient
       xlink:href="#linearGradient935"
       gradientUnits="userSpaceOnUse"
       y2="6.4216"
       y1="6.4216"
       x2="11.283"
       x1="9.1661"
       id="linearGradient929" />
    <linearGradient
       xlink:href="#linearGradient951"
       gradientUnits="userSpaceOnUse"
       y2="8.5382"
       y1="8.5382"
       x2="13.399"
       x1="11.283"
       id="linearGradient943" />
    <linearGradient
       xlink:href="#linearGradient951"
       gradientUnits="userSpaceOnUse"
       y2="4.305"
       y1="4.305"
       x2="9.1661"
       x1="7.0494"
       id="linearGradient945" />
    <filter
       color-interpolation-filters="sRGB"
       height="1.12"
       width="1.12"
       y="-.06"
       x="-.06"
       id="filter999">
      <feGaussianBlur
         id="feGaussianBlur27-9"
         stdDeviation="0.21166249" />
    </filter>
    <linearGradient
       gradientUnits="userSpaceOnUse"
       gradientTransform="matrix(.99997 0 0 .99997 3.7636e-5 .0083364)"
       y2="1.852"
       y1="15.081"
       x2="7.9373"
       x1="7.9373"
       id="linearGradient862-3-5">
      <stop
         id="stop30-1"
         offset="0"
         stop-color="#1a1a1a" />
      <stop
         id="stop32-2"
         offset="1"
         stop-color="#4d4d4d" />
    </linearGradient>
    <filter
       color-interpolation-filters="sRGB"
       height="1.1062"
       width="1.138"
       y="-.053076"
       x="-.069001"
       id="filter911">
      <feGaussianBlur
         id="feGaussianBlur2"
         stdDeviation="0.5750183" />
    </filter>
    <linearGradient
       gradientUnits="userSpaceOnUse"
       y2="24.006"
       y1="24.006"
       x2="34.001"
       x1="14"
       id="linearGradient921-3">
      <stop
         id="stop5"
         offset="0"
         stop-color="#fff" />
      <stop
         id="stop7-6"
         offset="1"
         stop-color="#e6e6e6" />
    </linearGradient>
    <linearGradient
       gradientUnits="userSpaceOnUse"
       gradientTransform="matrix(3.7795,0,0,3.7795,-78.322643,0.031541)"
       y2="1.852"
       y1="15.081"
       x2="7.9373"
       x1="7.9373"
       id="linearGradient862-3-7">
      <stop
         id="stop10-3"
         offset="0"
         stop-color="#1a1a1a" />
      <stop
         id="stop12-5"
         offset="1"
         stop-color="#4d4d4d" />
    </linearGradient>
    <filter
       id="filter11290"
       x="-0.024"
       y="-0.024"
       width="1.048"
       height="1.048"
       color-interpolation-filters="sRGB">
      <feGaussianBlur
         stdDeviation="0.15875313"
         id="feGaussianBlur861" />
    </filter>
    <linearGradient
       gradientTransform="translate(-9.7053223e-6)"
       gradientUnits="userSpaceOnUse"
       y2="2.6618319"
       x2="61.642139"
       y1="61.846527"
       x1="2.6369677"
       id="linearGradient1195"
       xlink:href="#linearGradient1193"
       inkscape:collect="always" />
    <linearGradient
       id="linearGradient1193"
       inkscape:collect="always">
      <stop
         id="stop1189"
         offset="0"
         style="stop-color:#1a1a1a;stop-opacity:1" />
      <stop
         id="stop1191"
         offset="1"
         style="stop-color:#4d4d4d;stop-opacity:1" />
    </linearGradient>
  </defs>
  <mask
     id="mask40">
    <g
       id="g">
      <path
         id="path37"
         fill="#fff"
         d="m969.75 392.05c-1.1-4.35-2.35-9-3.65-13.6-1-3.4-2-6.85-3.15-10.5-1.6-5.15-3.4-10.5-5.3-15.85-6.45-18.25-14.15-36.05-23.15-53.65-3.8-7.4-7.95-14.95-12.3-22.4-20.3-34.5-45.8-67.2-76.35-97.75-72.6-72.6-157.15-116.65-253.65-132.05-16.25-2.6-32.8-4.4-50.05-5.35-9.7-0.55-19.85-0.85-30.1-0.85-9.35 0-18.6 0.25-27.9 0.75-118.35 6.1-220.3 51.95-305.85 137.5q-138.25 138.25-138.25 333.75c0 130.35 46.1 241.65 138.25 333.8 56.7 56.65 120.55 95.9 191.1 117.55 36.75 11.25 74.8 17.85 114.75 19.95h0.4c8.5 0.45 16.6 0.7 24.5 0.7h3c10.3 0 20.5-0.3 30.1-0.8 2.5-0.15 4.75-0.3 6.95-0.45 20.2-1.45 39.9-4.05 58.7-7.7 7.95-1.55 15.8-3.3 23.4-5.15 80.8-20.3 152.15-61.6 214.65-124.1 48.6-48.6 84.4-102.5 107.35-161.8 18.45-47.65 28.65-98.8 30.55-153.5 0.2-6.05 0.3-12.25 0.3-18.5v-3c-0.2-40.65-4.95-79.5-14.3-117z" />
    </g>
  </mask>
  <circle
     cx="8.4665003"
     cy="8.4665003"
     r="7.9376998"
     filter="url(#filter11290)"
     opacity="0.25"
     stroke-width="0.14032"
     id="circle943"
     style="image-rendering:optimizeSpeed"
     transform="scale(3.779602)" />
  <circle
     style="fill:url(#linearGradient1195);fill-opacity:1;stroke-width:1.96169;stroke-linecap:round;image-rendering:optimizeSpeed"
     id="path1187"
     cx="32"
     cy="32"
     r="30" />
  <g
     transform="translate(-0.02000046,-0.04399872)"
     stroke-width="1.5715"
     id="g35">
    <circle
       cx="32.02"
       cy="32.043999"
       r="30.000999"
       fill-opacity="0"
       id="circle31" />
    <circle
       cx="32.02"
       cy="32.043999"
       r="0"
       fill="url(#b)"
       id="circle33"
       style="fill:url(#b)" />
  </g>
  <g
     id="g88"
     opacity=".5"
     filter="url(#l)"
     transform="translate(.55173 .40706)">
    <g
       id="g82"
       transform="translate(7.4948 7.5462)">
      <path
         id="path56"
         stroke="#2e3436"
         d="m7.5133 18.454h32.998v11.778h-32.998c3e-4 -3.926 3e-4 -7.852 3e-4 -11.778z" />
      <g
         id="g64"
         opacity=".75"
         transform="matrix(1.1429,0,0,1.1429,-46.202,-12.175)">
        <path
           id="path58"
           d="m23.735 25.668c0 2.789-2.261 5.05-5.05 5.05s-5.05-2.261-5.05-5.05 2.261-5.05 5.05-5.05 5.05 2.261 5.05 5.05z"
           transform="matrix(1.3861,0,0,1.3861,35.527,-3.9257)" />
        <path
           id="path60"
           d="m23.735 25.668c0 2.789-2.261 5.05-5.05 5.05s-5.05-2.261-5.05-5.05 2.261-5.05 5.05-5.05 5.05 2.261 5.05 5.05z"
           transform="matrix(.9901 0 0 .9901 42.927 6.2981)" />
        <path
           id="path62"
           d="m23.735 25.668c0 2.789-2.261 5.05-5.05 5.05s-5.05-2.261-5.05-5.05 2.261-5.05 5.05-5.05 5.05 2.261 5.05 5.05z"
           transform="matrix(.59406 0 0 .59406 50.327 16.464)" />
      </g>
      <g
         id="g72"
         transform="matrix(1.1429,0,0,1.1429,-56.202,-12.175)">
        <path
           id="path66"
           d="m23.735 25.668c0 2.789-2.261 5.05-5.05 5.05s-5.05-2.261-5.05-5.05 2.261-5.05 5.05-5.05 5.05 2.261 5.05 5.05z"
           transform="matrix(1.3861,0,0,1.3861,35.527,-3.9257)" />
        <path
           id="path68"
           d="m23.735 25.668c0 2.789-2.261 5.05-5.05 5.05s-5.05-2.261-5.05-5.05 2.261-5.05 5.05-5.05 5.05 2.261 5.05 5.05z"
           transform="matrix(.9901 0 0 .9901 42.927 6.2981)" />
        <path
           id="path70"
           d="m23.735 25.668c0 2.789-2.261 5.05-5.05 5.05s-5.05-2.261-5.05-5.05 2.261-5.05 5.05-5.05 5.05 2.261 5.05 5.05z"
           transform="matrix(.59406 0 0 .59406 50.327 16.464)" />
      </g>
      <g
         id="g80"
         opacity=".5"
         transform="matrix(1.1429,0,0,1.1429,-36.202,-12.175)">
        <path
           id="path74"
           d="m23.735 25.668c0 2.789-2.261 5.05-5.05 5.05s-5.05-2.261-5.05-5.05 2.261-5.05 5.05-5.05 5.05 2.261 5.05 5.05z"
           transform="matrix(1.3861,0,0,1.3861,35.527,-3.9257)" />
        <path
           id="path76"
           d="m23.735 25.668c0 2.789-2.261 5.05-5.05 5.05s-5.05-2.261-5.05-5.05 2.261-5.05 5.05-5.05 5.05 2.261 5.05 5.05z"
           transform="matrix(.9901 0 0 .9901 42.927 6.2981)" />
        <path
           id="path78"
           d="m23.735 25.668c0 2.789-2.261 5.05-5.05 5.05s-5.05-2.261-5.05-5.05 2.261-5.05 5.05-5.05 5.05 2.261 5.05 5.05z"
           transform="matrix(.59406 0 0 .59406 50.327 16.464)" />
      </g>
    </g>
    <path
       id="path84"
       stroke-width="1px"
       stroke="#2e3436"
       fill-rule="evenodd"
       d="m31.464 11.077c-10.117 0-18.544 7.3288-20.219 16.969h40.406c-1.676-9.639-10.071-16.969-20.187-16.969zm-20.188 24.063c1.6902 9.622 10.083 16.968 20.188 16.968s18.498-7.344 20.187-16.968z" />
    <path
       id="path86"
       stroke-width="1px"
       stroke="url(#f)"
       d="m31.464 12.077c-9.226 0-16.95 6.4498-18.969 15.063h37.938c-2.02-8.613-9.744-15.063-18.969-15.063zm-18.969 23.969c2.0192 8.613 9.743 15.031 18.969 15.031 9.225 0 16.949-6.418 18.969-15.031z" />
  </g>
  <g
     id="g120"
     transform="translate(.55173 .40706)">
    <g
       id="g116"
       transform="translate(7.4948 7.5462)">
      <path
         id="path90"
         stroke="#2e3436"
         fill="#2e3436"
         d="m7.5133 18.454h32.998v11.778h-32.998c3e-4 -3.926 3e-4 -7.852 3e-4 -11.778z" />
      <g
         id="g98"
         opacity=".75"
         transform="matrix(1.1429,0,0,1.1429,-46.202,-12.175)">
        <path
           id="path92"
           fill="url(#e)"
           d="m23.735 25.668c0 2.789-2.261 5.05-5.05 5.05s-5.05-2.261-5.05-5.05 2.261-5.05 5.05-5.05 5.05 2.261 5.05 5.05z"
           transform="matrix(1.3861,0,0,1.3861,35.527,-3.9257)" />
        <path
           id="path94"
           fill="url(#c)"
           d="m23.735 25.668c0 2.789-2.261 5.05-5.05 5.05s-5.05-2.261-5.05-5.05 2.261-5.05 5.05-5.05 5.05 2.261 5.05 5.05z"
           transform="matrix(.9901 0 0 .9901 42.927 6.2981)" />
        <path
           id="path96"
           fill="url(#a)"
           d="m23.735 25.668c0 2.789-2.261 5.05-5.05 5.05s-5.05-2.261-5.05-5.05 2.261-5.05 5.05-5.05 5.05 2.261 5.05 5.05z"
           transform="matrix(.59406 0 0 .59406 50.327 16.464)" />
      </g>
      <g
         id="g106"
         transform="matrix(1.1429,0,0,1.1429,-56.202,-12.175)">
        <path
           id="path100"
           fill="url(#e)"
           d="m23.735 25.668c0 2.789-2.261 5.05-5.05 5.05s-5.05-2.261-5.05-5.05 2.261-5.05 5.05-5.05 5.05 2.261 5.05 5.05z"
           transform="matrix(1.3861,0,0,1.3861,35.527,-3.9257)" />
        <path
           id="path102"
           fill="url(#c)"
           d="m23.735 25.668c0 2.789-2.261 5.05-5.05 5.05s-5.05-2.261-5.05-5.05 2.261-5.05 5.05-5.05 5.05 2.261 5.05 5.05z"
           transform="matrix(.9901 0 0 .9901 42.927 6.2981)" />
        <path
           id="path104"
           fill="url(#a)"
           d="m23.735 25.668c0 2.789-2.261 5.05-5.05 5.05s-5.05-2.261-5.05-5.05 2.261-5.05 5.05-5.05 5.05 2.261 5.05 5.05z"
           transform="matrix(.59406 0 0 .59406 50.327 16.464)" />
      </g>
      <g
         id="g114"
         opacity=".5"
         transform="matrix(1.1429,0,0,1.1429,-36.202,-12.175)">
        <path
           id="path108"
           fill="url(#e)"
           d="m23.735 25.668c0 2.789-2.261 5.05-5.05 5.05s-5.05-2.261-5.05-5.05 2.261-5.05 5.05-5.05 5.05 2.261 5.05 5.05z"
           transform="matrix(1.3861,0,0,1.3861,35.527,-3.9257)" />
        <path
           id="path110"
           fill="url(#c)"
           d="m23.735 25.668c0 2.789-2.261 5.05-5.05 5.05s-5.05-2.261-5.05-5.05 2.261-5.05 5.05-5.05 5.05 2.261 5.05 5.05z"
           transform="matrix(.9901 0 0 .9901 42.927 6.2981)" />
        <path
           id="path112"
           fill="url(#a)"
           d="m23.735 25.668c0 2.789-2.261 5.05-5.05 5.05s-5.05-2.261-5.05-5.05 2.261-5.05 5.05-5.05 5.05 2.261 5.05 5.05z"
           transform="matrix(.59406 0 0 .59406 50.327 16.464)" />
      </g>
    </g>
    <path
       id="path118"
       fill="url(#h)"
       d="m31.464 11.077c-10.117 0-18.544 7.3288-20.219 16.969h40.406c-1.676-9.639-10.071-16.969-20.187-16.969zm-20.188 24.063c1.6902 9.622 10.083 16.968 20.188 16.968s18.498-7.344 20.187-16.968z" />
  </g>
</svg>
