<?xml version="1.0" encoding="UTF-8" standalone="no"?>
<svg
   xmlns:dc="http://purl.org/dc/elements/1.1/"
   xmlns:cc="http://creativecommons.org/ns#"
   xmlns:rdf="http://www.w3.org/1999/02/22-rdf-syntax-ns#"
   xmlns:svg="http://www.w3.org/2000/svg"
   xmlns="http://www.w3.org/2000/svg"
   xmlns:sodipodi="http://sodipodi.sourceforge.net/DTD/sodipodi-0.dtd"
   xmlns:inkscape="http://www.inkscape.org/namespaces/inkscape"
   viewBox="0 0 64 64"
   version="1.1"
   id="svg27"
   sodipodi:docname="goa-panel.svg"
   width="64"
   height="64"
   inkscape:version="1.0.2 (e86c870879, 2021-01-15)">
  <metadata
     id="metadata31">
    <rdf:RDF>
      <cc:Work
         rdf:about="">
        <dc:format>image/svg+xml</dc:format>
        <dc:type
           rdf:resource="http://purl.org/dc/dcmitype/StillImage" />
        <dc:title></dc:title>
      </cc:Work>
    </rdf:RDF>
  </metadata>
  <sodipodi:namedview
     pagecolor="#ffffff"
     bordercolor="#666666"
     borderopacity="1"
     objecttolerance="10"
     gridtolerance="10"
     guidetolerance="10"
     inkscape:pageopacity="0"
     inkscape:pageshadow="2"
     inkscape:window-width="1920"
     inkscape:window-height="992"
     id="namedview29"
     showgrid="false"
     inkscape:zoom="4.328125"
     inkscape:cx="-8.892517"
     inkscape:cy="38.766895"
     inkscape:window-x="0"
     inkscape:window-y="0"
     inkscape:window-maximized="1"
     inkscape:current-layer="svg27"
     inkscape:document-rotation="0" />
  <defs
     id="defs7">
    <linearGradient
       id="linearGradient3092"
       gradientUnits="userSpaceOnUse"
       gradientTransform="rotate(-90,72.706689,-24.706691)"
       x1="1"
       x2="47">
      <stop
         style="stop-color:#26a8de;stop-opacity:1"
         id="stop2" />
      <stop
         offset="1"
         style="stop-color:#38aee1;stop-opacity:1"
         id="stop4" />
    </linearGradient>
    <style
       type="text/css"
       id="style858" />
    <filter
       id="filter1057"
       x="-.027"
       y="-.027"
       width="1.054"
       height="1.054"
       color-interpolation-filters="sRGB">
      <feGaussianBlur
         stdDeviation="0.61875"
         id="feGaussianBlur860" />
    </filter>
    <linearGradient
       id="linearGradient1053"
       x1="-127"
       x2="-72"
       y1="60"
       y2="5"
       gradientTransform="translate(131.5,-0.51)"
       gradientUnits="userSpaceOnUse">
      <stop
         stop-color="#32d7ff"
         offset="0"
         id="stop863" />
      <stop
         stop-color="#329bff"
         offset="1"
         id="stop865" />
    </linearGradient>
    <style
       type="text/css"
       id="style868" />
    <style
       type="text/css"
       id="style870" />
    <style
       type="text/css"
       id="style872" />
    <style
       type="text/css"
       id="style874" />
    <style
       type="text/css"
       id="style876" />
    <style
       type="text/css"
       id="style878" />
    <style
       type="text/css"
       id="style880" />
    <style
       type="text/css"
       id="style856" />
    <style
       type="text/css"
       id="style858-3" />
    <style
       type="text/css"
       id="style860" />
    <style
       type="text/css"
       id="style862" />
    <style
       type="text/css"
       id="style864" />
    <style
       type="text/css"
       id="style866" />
    <style
       type="text/css"
       id="style868-6" />
    <style
       type="text/css"
       id="style870-7" />
    <style
       type="text/css"
       id="style872-5" />
    <filter
       id="filter11290"
       x="-.024"
       y="-.024"
       width="1.048"
       height="1.048"
       color-interpolation-filters="sRGB">
      <feGaussianBlur
         stdDeviation="0.15875313"
         id="feGaussianBlur874" />
    </filter>
    <linearGradient
       id="linearGradient1005"
       x1=".8714"
       x2="16.246"
       y1="16.164"
       y2=".78937"
       gradientTransform="matrix(3.7796,0,0,3.7796,-0.13241,0.025278)"
       gradientUnits="userSpaceOnUse">
      <stop
         stop-color="#00c8ff"
         offset="0"
         id="stop877" />
      <stop
         stop-color="#14a0ff"
         offset="1"
         id="stop879" />
    </linearGradient>
  </defs>
  <circle
     transform="matrix(3.7796,0,0,3.7796,-0.10278795,0.02458453)"
     cx="8.4937"
     cy="8.46"
     r="7.9376998"
     filter="url(#filter11290)"
     opacity="0.25"
     stroke-width="0.14032"
     id="circle884-3" />
  <path
     d="m 62.0004,32.00045 c 0,3.5964 -0.63305,7.0448 -1.794,10.24 -0.80698,2.2212 -1.8686,4.3212 -3.1519,6.2636 -0.53754,0.8167 -1.1155,1.6054 -1.729,2.3633 -1.9641,2.4257 -4.2982,4.5382 -6.9186,6.2526 -0.96493,0.63187 -1.9678,1.2098 -3.0061,1.7277 -4.0321,2.0179 -8.5839,3.153 -13.401,3.153 -4.8171,0 -9.3689,-1.1351 -13.401,-3.1531 -1.0384,-0.518 -2.0425,-1.096 -3.0074,-1.7277 -2.6535,-1.7376 -5.0155,-3.8832 -6.9957,-6.349 -0.61468,-0.76408 -1.1915,-1.56 -1.729,-2.3841 -1.249,-1.9102 -2.2837,-3.9712 -3.0747,-6.1494 -1.1608,-3.1949 -1.7927,-6.6419 -1.7927,-10.237 0,-16.569 13.432,-30.001 30.001,-30.001 8.317,0 15.843,3.3846 21.277,8.8507 1.5661,1.5747 2.9584,3.3234 4.1436,5.214 1.1205,1.7805 2.0572,3.6882 2.7857,5.6951 1.161,3.196 1.7941,6.6442 1.7941,10.24 z"
     fill="url(#linearGradient1005)"
     stroke-width="0.11719"
     id="path886"
     style="fill:url(#linearGradient1005)" />
  <circle
     cx="-1124.8"
     cy="-1279.3"
     r="0"
     fill="#5e4aa6"
     id="circle884" />
  <g
     transform="matrix(3.7796,0,0,3.7796,123.83,-38.184)"
     fill="#5e4aa6"
     stroke-width="0.26458"
     id="g894">
    <circle
       cx="-299.01999"
       cy="-338.76999"
       r="0"
       id="circle886" />
    <circle
       cx="-8.1062002"
       cy="-3.9487"
       r="0"
       fill-rule="evenodd"
       id="circle888" />
    <circle
       cx="-278.25"
       cy="-357.69"
       r="0"
       id="circle890" />
    <circle
       cx="12.663"
       cy="-22.858999"
       r="0"
       fill-rule="evenodd"
       id="circle892" />
  </g>
  <path
     style="color:#000000;font-style:normal;font-variant:normal;font-weight:normal;font-stretch:normal;font-size:medium;line-height:normal;font-family:sans-serif;font-variant-ligatures:normal;font-variant-position:normal;font-variant-caps:normal;font-variant-numeric:normal;font-variant-alternates:normal;font-variant-east-asian:normal;font-feature-settings:normal;font-variation-settings:normal;text-indent:0;text-align:start;text-decoration:none;text-decoration-line:none;text-decoration-style:solid;text-decoration-color:#000000;letter-spacing:normal;word-spacing:normal;text-transform:none;writing-mode:lr-tb;direction:ltr;text-orientation:mixed;dominant-baseline:auto;baseline-shift:baseline;text-anchor:start;white-space:normal;shape-padding:0;shape-margin:0;inline-size:0;clip-rule:nonzero;display:inline;overflow:visible;visibility:visible;isolation:auto;mix-blend-mode:normal;color-interpolation:sRGB;color-interpolation-filters:linearRGB;solid-color:#000000;solid-opacity:1;vector-effect:none;fill:#ffffff;fill-opacity:1;fill-rule:evenodd;stroke-width:3.7796;stroke-linecap:butt;stroke-linejoin:miter;stroke-miterlimit:4;stroke-dasharray:none;stroke-dashoffset:0;stroke-opacity:1;color-rendering:auto;image-rendering:auto;shape-rendering:auto;text-rendering:auto;enable-background:accumulate;stop-color:#000000;stop-opacity:1;stroke:none;opacity:1"
     d="m 34.535097,20.85031 c -3.4259,0.0035 -6.529131,2.078985 -7.9209,5.2975 -1.143433,-0.55063 -2.389963,-0.83809 -3.6526,-0.84232 -4.792725,3e-6 -8.677995,3.994562 -8.677995,8.9221 0,4.927538 3.88527,8.922097 8.677995,8.9221 0,0 0.003,0 0.003,0 h 20.249 c 3.592008,-0.0011 6.50323,-2.99557 6.5028,-6.6888 -0.0012,-3.692019 -2.911969,-6.684622 -6.5028,-6.6857 0,0 0,-0.0029 0,-0.0029 0,0 0,-0.0038 0,-0.0038 -0.003,-4.925353 -3.887399,-8.916501 -8.678,-8.9165 z"
     id="path1029" />
  <circle
     cx="-1209.9408"
     cy="-1279.3"
     r="0"
     fill="#5e4aa6"
     id="circle888-5" />
  <g
     transform="matrix(3.7796,0,0,3.7796,38.689208,-38.184)"
     fill="#5e4aa6"
     stroke-width="0.26458"
     id="g898">
    <circle
       cx="-299.01999"
       cy="-338.76999"
       r="0"
       id="circle890-6" />
    <circle
       cx="-8.1062002"
       cy="-3.9487"
       r="0"
       fill-rule="evenodd"
       id="circle892-2" />
    <circle
       cx="-278.25"
       cy="-357.69"
       r="0"
       id="circle894" />
    <circle
       cx="12.663"
       cy="-22.858999"
       r="0"
       fill-rule="evenodd"
       id="circle896" />
  </g>
  <g
     fill="#5e4aa6"
     id="g932"
     transform="translate(-85.140792)">
    <circle
       cx="-1050.3"
       cy="-1279.3"
       r="0"
       id="circle910" />
    <g
       transform="matrix(3.7796,0,0,3.7796,198.32,-38.184)"
       stroke-width="0.26458"
       id="g920">
      <circle
         cx="-299.01999"
         cy="-338.76999"
         r="0"
         id="circle912" />
      <circle
         cx="-8.1062002"
         cy="-3.9487"
         r="0"
         fill-rule="evenodd"
         id="circle914" />
      <circle
         cx="-278.25"
         cy="-357.69"
         r="0"
         id="circle916" />
      <circle
         cx="12.663"
         cy="-22.858999"
         r="0"
         fill-rule="evenodd"
         id="circle918" />
    </g>
    <g
       transform="matrix(3.7796,0,0,3.7796,74.386,0.024585)"
       stroke-width="0.26458"
       id="g930">
      <circle
         cx="-330.35001"
         cy="-328.38"
         r="0"
         id="circle922" />
      <circle
         cx="-312.10999"
         cy="-326.25"
         r="0"
         id="circle924" />
      <circle
         cx="-306.01999"
         cy="-333.07001"
         r="0"
         id="circle926" />
      <circle
         cx="-308.84"
         cy="-326.01001"
         r="0"
         id="circle928" />
    </g>
  </g>
</svg>
