<?xml version="1.0" encoding="UTF-8" standalone="no"?>
<svg
   xmlns:dc="http://purl.org/dc/elements/1.1/"
   xmlns:cc="http://creativecommons.org/ns#"
   xmlns:rdf="http://www.w3.org/1999/02/22-rdf-syntax-ns#"
   xmlns:svg="http://www.w3.org/2000/svg"
   xmlns="http://www.w3.org/2000/svg"
   xmlns:sodipodi="http://sodipodi.sourceforge.net/DTD/sodipodi-0.dtd"
   xmlns:inkscape="http://www.inkscape.org/namespaces/inkscape"
   inkscape:version="1.0 (4035a4fb49, 2020-05-01)"
   sodipodi:docname="goa-account-flickr.svg"
   id="svg24"
   viewBox="0 0 64 64"
   version="1.0"
   enable-background="new"
   height="64"
   width="64">
  <metadata
     id="metadata28">
    <rdf:RDF>
      <cc:Work
         rdf:about="">
        <dc:format>image/svg+xml</dc:format>
        <dc:type
           rdf:resource="http://purl.org/dc/dcmitype/StillImage" />
        <dc:title>Adwaita Icon Template</dc:title>
      </cc:Work>
    </rdf:RDF>
  </metadata>
  <sodipodi:namedview
     inkscape:current-layer="svg24"
     inkscape:window-maximized="1"
     inkscape:window-y="0"
     inkscape:window-x="0"
     inkscape:cy="14.134445"
     inkscape:cx="6.7633673"
     inkscape:zoom="4.5078057"
     showgrid="false"
     id="namedview26"
     inkscape:window-height="985"
     inkscape:window-width="1920"
     inkscape:pageshadow="2"
     inkscape:pageopacity="0"
     guidetolerance="10"
     gridtolerance="10"
     objecttolerance="10"
     borderopacity="1"
     bordercolor="#666666"
     pagecolor="#ffffff" />
  <title
     id="title2">Adwaita Icon Template</title>
  <defs
     id="defs12">
    <filter
       color-interpolation-filters="sRGB"
       height="1.096"
       width="1.096"
       y="-0.048"
       x="-0.048"
       id="filter975">
      <feGaussianBlur
         id="feGaussianBlur4"
         stdDeviation="0.56" />
    </filter>
    <linearGradient
       gradientTransform="matrix(1.9551617,0,0,1.9551617,95.643466,-1.2377477)"
       gradientUnits="userSpaceOnUse"
       y2="5.4161"
       y1="27.594"
       x2="13.613"
       x1="13.613"
       id="linearGradient869">
      <stop
         id="stop7"
         offset="0"
         stop-color="#e5e5e5" />
      <stop
         id="stop9"
         offset="1"
         stop-color="#fefefe" />
    </linearGradient>
    <filter
       id="filter11290"
       x="-0.024"
       y="-0.024"
       width="1.048"
       height="1.048"
       color-interpolation-filters="sRGB">
      <feGaussianBlur
         stdDeviation="0.15875313"
         id="feGaussianBlur855" />
    </filter>
    <linearGradient
       id="linearGradient1005"
       x1="0.73910999"
       x2="16.388"
       y1="16.296"
       y2="0.64687002"
       gradientTransform="matrix(3.7796,0,0,3.7796,-0.13247795,0.02439453)"
       gradientUnits="userSpaceOnUse">
      <stop
         stop-color="#dddfe1"
         offset="0"
         id="stop858" />
      <stop
         stop-color="#f3f4f6"
         offset="1"
         id="stop860" />
    </linearGradient>
  </defs>
  <circle
     id="circle865"
     stroke-width="0.14032"
     opacity="0.25"
     filter="url(#filter11290)"
     r="7.9376998"
     cy="8.46"
     cx="8.4937"
     transform="matrix(3.7796,0,0,3.7796,-0.10278795,0.02458453)" />
  <path
     id="path867"
     stroke-width="0.11719"
     fill="url(#linearGradient1005)"
     d="m 62.000012,32.000017 c 0,3.5964 -0.63305,7.0448 -1.794,10.24 -0.80698,2.2212 -1.8686,4.3212 -3.1519,6.2636 -0.53754,0.8167 -1.1155,1.6054 -1.729,2.3633 -1.9641,2.4257 -4.2982,4.5382 -6.9186,6.2526 -0.96493,0.63187 -1.9678,1.2098 -3.0061,1.7277 -4.0321,2.0179 -8.5839,3.153 -13.401,3.153 -4.8171,0 -9.3689,-1.1351 -13.401,-3.1531 -1.0384,-0.518 -2.0425,-1.096 -3.0074,-1.7277 -2.6535,-1.7376 -5.0155,-3.8832 -6.9957,-6.349 -0.61468,-0.76408 -1.1915,-1.56 -1.729,-2.3841 -1.249,-1.9102 -2.2837,-3.9712 -3.0747,-6.1494 -1.1608,-3.1949 -1.7927,-6.6419 -1.7927,-10.237 0,-16.569 13.432,-30.0010005 30.001,-30.0010005 8.317,0 15.843,3.3846 21.277,8.8507005 1.5661,1.5747 2.9584,3.3234 4.1436,5.214 1.1205,1.7805 2.0572,3.6882 2.7857,5.6951 1.161,3.196 1.7941,6.6442 1.7941,10.24 z"
     style="fill:url(#linearGradient1005)" />
  <g
     id="g877"
     stroke-width="0.26458"
     fill="#5e4aa6"
     transform="matrix(3.7796,0,0,3.7796,-0.10278795,0.02458453)">
    <circle
       id="circle869"
       r="0"
       cy="-328.38"
       cx="-330.35001" />
    <circle
       id="circle871"
       r="0"
       cy="-326.25"
       cx="-312.10999" />
    <circle
       id="circle873"
       r="0"
       cy="-333.07001"
       cx="-306.01999" />
    <circle
       id="circle875"
       r="0"
       cy="-326.01001"
       cx="-308.84" />
  </g>
  <g
     transform="translate(-94.926056,1.9551601)"
     id="g924">
    <circle
       style="stroke-width:1.95516"
       cx="116.39751"
       cy="30.04484"
       r="8.4222507"
       color="#000000"
       enable-background="accumulate"
       fill="#0063dc"
       id="circle920" />
    <circle
       style="stroke-width:1.95516"
       cx="137.45461"
       cy="30.04484"
       r="8.4222507"
       color="#000000"
       enable-background="accumulate"
       fill="#ff0084"
       id="circle922" />
  </g>
</svg>
