<?xml version="1.0" encoding="UTF-8" standalone="no"?>
<svg
   xmlns:dc="http://purl.org/dc/elements/1.1/"
   xmlns:cc="http://creativecommons.org/ns#"
   xmlns:rdf="http://www.w3.org/1999/02/22-rdf-syntax-ns#"
   xmlns:svg="http://www.w3.org/2000/svg"
   xmlns="http://www.w3.org/2000/svg"
   xmlns:sodipodi="http://sodipodi.sourceforge.net/DTD/sodipodi-0.dtd"
   xmlns:inkscape="http://www.inkscape.org/namespaces/inkscape"
   inkscape:version="1.0 (4035a4fb49, 2020-05-01)"
   sodipodi:docname="goa-account-lastfm.svg"
   id="svg18"
   version="1.1"
   height="64"
   width="64">
  <metadata
     id="metadata22">
    <rdf:RDF>
      <cc:Work
         rdf:about="">
        <dc:format>image/svg+xml</dc:format>
        <dc:type
           rdf:resource="http://purl.org/dc/dcmitype/StillImage" />
        <dc:title></dc:title>
      </cc:Work>
    </rdf:RDF>
  </metadata>
  <sodipodi:namedview
     inkscape:current-layer="svg18"
     inkscape:window-maximized="1"
     inkscape:window-y="0"
     inkscape:window-x="0"
     inkscape:cy="19.329622"
     inkscape:cx="76.78945"
     inkscape:zoom="6.375"
     showgrid="false"
     id="namedview20"
     inkscape:window-height="985"
     inkscape:window-width="1920"
     inkscape:pageshadow="2"
     inkscape:pageopacity="0"
     guidetolerance="10"
     gridtolerance="10"
     objecttolerance="10"
     borderopacity="1"
     bordercolor="#666666"
     pagecolor="#ffffff" />
  <defs
     id="defs10">
    <filter
       color-interpolation-filters="sRGB"
       height="1.096"
       width="1.096"
       y="-0.048"
       x="-0.048"
       id="filter975">
      <feGaussianBlur
         id="feGaussianBlur2"
         stdDeviation="0.56" />
    </filter>
    <linearGradient
       gradientTransform="matrix(1.9551617,0,0,1.9551617,86.2886,-1.2377477)"
       gradientUnits="userSpaceOnUse"
       y2="4.8590002"
       y1="26.716999"
       x2="10.434"
       x1="10.434"
       id="linearGradient867">
      <stop
         id="stop5"
         offset="0"
         stop-color="#b90000" />
      <stop
         id="stop7"
         offset="1"
         stop-color="#f33" />
    </linearGradient>
    <filter
       id="filter11290"
       x="-0.024"
       y="-0.024"
       width="1.048"
       height="1.048"
       color-interpolation-filters="sRGB">
      <feGaussianBlur
         stdDeviation="0.15875313"
         id="feGaussianBlur849" />
    </filter>
    <linearGradient
       id="linearGradient1005"
       x1="0.73910999"
       x2="16.388"
       y1="16.296"
       y2="0.64687002"
       gradientTransform="matrix(3.779602,0,0,3.779602,-0.13249395,0.02437843)"
       gradientUnits="userSpaceOnUse">
      <stop
         stop-color="#dc2828"
         offset="0"
         id="stop852" />
      <stop
         stop-color="#ff4141"
         offset="1"
         id="stop854" />
    </linearGradient>
  </defs>
  <circle
     transform="scale(3.779602)"
     id="circle859"
     stroke-width="0.14032"
     opacity="0.25"
     filter="url(#filter11290)"
     r="7.9376998"
     cy="8.4665003"
     cx="8.4665003" />
  <path
     id="path861"
     stroke-width="0.11719"
     fill="url(#linearGradient1005)"
     d="m 62.000591,31.999622 c 0,3.596443 -0.633045,7.044801 -1.79395,10.240454 -0.806983,2.221197 -1.868598,4.321219 -3.151924,6.263556 -0.537535,0.816697 -1.115511,1.605386 -1.729016,2.363348 -1.964108,2.425711 -4.298164,4.538168 -6.918562,6.252595 -0.964932,0.631874 -1.96785,1.209851 -3.006144,1.727732 -4.032079,2.017892 -8.583854,3.152982 -13.400957,3.152982 -4.817103,0 -9.368877,-1.13509 -13.400957,-3.153095 C 17.560673,58.329199 16.556584,57.751222 15.591652,57.119462 12.938107,55.381866 10.57612,53.236299 8.5959866,50.770487 7.98131,50.006402 7.4045049,49.210456 6.8669699,48.386389 5.6179626,46.476178 4.5832966,44.415161 3.7922637,42.236977 2.6315101,39.042117 1.9995984,35.595082 1.9995984,31.999925 c 0,-16.56902 13.4315716,-30.0005911 30.0005906,-30.0005911 8.317015,0 15.842958,3.384558 21.27727,8.8506941 1.566116,1.574658 2.958445,3.323366 4.143577,5.213961 1.120463,1.780457 2.057162,3.688211 2.785718,5.695104 1.161018,3.195994 1.794064,6.644162 1.794064,10.240454 z"
     style="fill:url(#linearGradient1005)" />
  <g
     id="g875"
     stroke-width="0.26458"
     fill="#5e4aa6"
     transform="matrix(3.779602,0,0,3.779602,-0.10280517,0.02456779)">
    <circle
       id="circle863"
       r="0"
       cy="-328.38"
       cx="-330.35001" />
    <circle
       id="circle865"
       r="0"
       cy="-326.25"
       cx="-312.10999" />
    <circle
       id="circle867"
       r="0"
       cy="-333.07001"
       cx="-306.01999" />
    <circle
       id="circle869"
       r="0"
       cy="-326.01001"
       cx="-308.84" />
    <circle
       id="circle871"
       r="0"
       cy="-327.64999"
       cx="-279" />
    <circle
       id="circle873"
       fill-rule="evenodd"
       r="0"
       cy="7.1715002"
       cx="11.912" />
  </g>
  <path
     d="m 36.735656,39.425274 -0.51218,-1.185962 -4.41064,-10.491007 c -1.45599,-3.713242 -5.08694,-6.221911 -9.17871,-6.221911 -5.5376,0 -10.028217,4.688478 -10.028217,10.476735 0,5.781803 4.490617,10.474192 10.027637,10.474192 3.86574,0 7.21943,-2.282457 8.8954,-5.623436 l 1.78287,4.293144 c -2.52939,3.22152 -6.37676,5.27444 -10.67773,5.27444 -7.62689,0 -13.807152,-6.450862 -13.807152,-14.41834 0,-7.965916 6.180262,-14.424598 13.807152,-14.424598 5.75502,0 10.40205,3.207834 12.76486,8.89755 0.17687,0.44216 2.49616,6.100887 4.51956,10.916255 1.25017,2.979275 2.31725,4.959659 5.78395,5.080684 3.3967,0.121062 5.73664,-2.037084 5.73664,-4.77431 0,-2.670946 -1.78657,-3.31263 -4.79073,-4.356882 -5.39977,-1.85711 -8.19213,-3.724192 -8.19213,-8.198579 0,-4.363335 2.84202,-7.274766 7.46422,-7.274766 3.00567,0 5.18392,1.398097 6.69037,4.186391 l -2.95836,1.577073 c -1.11068,-1.624446 -2.33602,-2.267597 -3.89898,-2.267597 -2.16867,0 -3.71109,1.574961 -3.71109,3.670035 0,2.975756 2.54777,3.423684 6.10655,4.641162 4.79758,1.629706 7.02412,3.494656 7.02412,8.143836 0,4.885948 -4.0116,8.44493 -9.2528,8.436914 -4.82808,-0.02264 -7.40264,-2.486185 -9.18555,-6.830944"
     fill="#ffffff"
     stroke-width="0.526388"
     id="path918" />
</svg>
