<?xml version="1.0" encoding="UTF-8" standalone="no"?>
<svg
   xmlns:dc="http://purl.org/dc/elements/1.1/"
   xmlns:cc="http://creativecommons.org/ns#"
   xmlns:rdf="http://www.w3.org/1999/02/22-rdf-syntax-ns#"
   xmlns:svg="http://www.w3.org/2000/svg"
   xmlns="http://www.w3.org/2000/svg"
   xmlns:sodipodi="http://sodipodi.sourceforge.net/DTD/sodipodi-0.dtd"
   xmlns:inkscape="http://www.inkscape.org/namespaces/inkscape"
   width="64"
   height="64"
   version="1.1"
   viewBox="0 0 16.933 16.933"
   id="svg8"
   sodipodi:docname="goa-account-twitter.svg"
   inkscape:version="1.0.1 (3bc2e813f5, 2020-09-07)">
  <metadata
     id="metadata14">
    <rdf:RDF>
      <cc:Work
         rdf:about="">
        <dc:format>image/svg+xml</dc:format>
        <dc:type
           rdf:resource="http://purl.org/dc/dcmitype/StillImage" />
        <dc:title></dc:title>
      </cc:Work>
    </rdf:RDF>
  </metadata>
  <defs
     id="defs12">
    <style
       type="text/css"
       id="style841" />
    <filter
       id="filter1057"
       x="-.027"
       y="-.027"
       width="1.054"
       height="1.054"
       color-interpolation-filters="sRGB">
      <feGaussianBlur
         stdDeviation="0.61875"
         id="feGaussianBlur843" />
    </filter>
    <linearGradient
       id="linearGradient1053"
       x1="-127"
       x2="-72"
       y1="60"
       y2="5"
       gradientTransform="matrix(0.26457812,0,0,0.26457812,34.66623,-1.8377892)"
       gradientUnits="userSpaceOnUse">
      <stop
         stop-color="#32d7ff"
         offset="0"
         id="stop846" />
      <stop
         stop-color="#329bff"
         offset="1"
         id="stop848" />
    </linearGradient>
    <style
       type="text/css"
       id="style851" />
    <style
       type="text/css"
       id="style853" />
    <style
       type="text/css"
       id="style855" />
    <style
       type="text/css"
       id="style857" />
    <style
       type="text/css"
       id="style859" />
    <style
       type="text/css"
       id="style861" />
    <style
       type="text/css"
       id="style863" />
    <filter
       id="filter11290"
       x="-.024"
       y="-.024"
       width="1.048"
       height="1.048"
       color-interpolation-filters="sRGB">
      <feGaussianBlur
         stdDeviation="0.15875313"
         id="feGaussianBlur850" />
    </filter>
    <linearGradient
       id="linearGradient1005"
       x1=".73911"
       x2="16.388"
       y1="16.296"
       y2=".64687"
       gradientTransform="translate(-0.03491,0.00649993)"
       gradientUnits="userSpaceOnUse">
      <stop
         stop-color="#00c8ff"
         offset="0"
         id="stop853" />
      <stop
         stop-color="#14a0ff"
         offset="1"
         id="stop855" />
    </linearGradient>
    <filter
       id="filter914"
       x="-.085107"
       y="-.082922"
       width="1.1702"
       height="1.1658"
       color-interpolation-filters="sRGB">
      <feGaussianBlur
         stdDeviation="0.33551342"
         id="feGaussianBlur858" />
    </filter>
  </defs>
  <sodipodi:namedview
     pagecolor="#ffffff"
     bordercolor="#666666"
     borderopacity="1"
     objecttolerance="10"
     gridtolerance="10"
     guidetolerance="10"
     inkscape:pageopacity="0"
     inkscape:pageshadow="2"
     inkscape:window-width="1920"
     inkscape:window-height="942"
     id="namedview10"
     showgrid="false"
     inkscape:zoom="4.2813106"
     inkscape:cx="-27.800017"
     inkscape:cy="25.958749"
     inkscape:window-x="0"
     inkscape:window-y="38"
     inkscape:window-maximized="1"
     inkscape:current-layer="svg8"
     inkscape:document-rotation="0" />
  <circle
     cx="8.4665003"
     cy="8.4665003"
     r="7.9376998"
     filter="url(#filter11290)"
     opacity="0.25"
     stroke-width="0.14032"
     id="circle865" />
  <path
     d="m 16.403945,8.46645 c 0,0.95154 -0.16749,1.8639 -0.47464,2.7094 -0.21351,0.58768 -0.49439,1.1433 -0.83393,1.6572 -0.14222,0.21608 -0.29514,0.42475 -0.45746,0.62529 -0.51966,0.64179 -1.1372,1.2007 -1.8305,1.6543 -0.2553,0.16718 -0.52065,0.3201 -0.79536,0.45712 -1.0668,0.53389 -2.2711,0.83421 -3.5456,0.83421 -1.2745,0 -2.4788,-0.30032 -3.5456,-0.83424 -0.27474,-0.13705 -0.5404,-0.28997 -0.7957,-0.45712 -0.70207,-0.45973 -1.327,-1.0274 -1.8509,-1.6798 -0.16263,-0.20216 -0.31524,-0.41275 -0.45746,-0.63078 -0.33046,-0.5054 -0.60421,-1.0507 -0.8135,-1.627 -0.30711,-0.84529 -0.4743,-1.7573 -0.4743,-2.7085 0,-4.3838 3.5537,-7.93749993 7.9375,-7.93749993 2.2005,0 4.1917,0.89547993 5.6295,2.34169993 0.41436,0.41662 0.78274,0.87929 1.0963,1.3795 0.29645,0.47107 0.54428,0.97582 0.73704,1.5068 0.30718,0.84559 0.47467,1.7579 0.47467,2.7094 z"
     fill="url(#linearGradient1005)"
     stroke-width="0.031006"
     id="path867"
     style="fill:url(#linearGradient1005)" />
  <path
     d="M 9.4684362,5.1863704 C 8.7516143,5.454241 8.2994486,6.13999 8.3498083,6.8943138 L 8.3680235,7.1846856 8.0808662,7.1493266 C 7.0383135,7.0132483 6.1264818,6.5514393 5.3517998,5.7746144 L 4.9735664,5.3888806 4.8760615,5.6749665 C 4.6692653,6.3082127 4.8010577,6.9789609 5.2307222,7.4289836 5.4600195,7.6775676 5.4085884,7.7129265 5.0121398,7.5650619 4.87499,7.5179167 4.7539125,7.4825577 4.7421261,7.5007729 c -0.039645,0.041788 0.098577,0.5807437 0.2067962,0.7950402 0.1489361,0.2968007 0.4532372,0.5871725 0.7853968,0.7586097 l 0.2817999,0.1360783 -0.3321596,0.00643 c -0.3214448,0 -0.3321596,0.00643 -0.3000151,0.1307209 0.1146486,0.3857338 0.5678858,0.79504 1.0725541,0.972906 l 0.3557323,0.124291 -0.3096585,0.189652 a 3.1715887,3.1715887 0 0 1 -1.5354347,0.439308 c -0.2582273,0.0054 -0.4693094,0.02893 -0.4693094,0.04607 0,0.05893 0.6986067,0.390019 1.1057701,0.52074 1.2214903,0.385734 2.6722778,0.219654 3.7630472,-0.438236 0.7736106,-0.468238 1.5482926,-1.3982845 1.9093816,-2.2994014 0.19501,-0.4810957 0.39002,-1.3575686 0.39002,-1.7818757 0,-0.2721566 0.01714,-0.308587 0.338589,-0.6343177 0.189652,-0.1896525 0.367518,-0.3964486 0.401806,-0.4564517 0.05786,-0.1135771 0.05143,-0.1135771 -0.241084,-0.010715 -0.487525,0.1778661 -0.557171,0.155365 -0.315016,-0.1125057 0.177866,-0.1896524 0.39002,-0.5325268 0.39002,-0.6332462 0,-0.017144 -0.08572,0.00964 -0.183224,0.064289 -0.102862,0.058932 -0.332159,0.1478647 -0.504668,0.2003673 L 11.24174,5.6192494 10.961011,5.4242395 C 10.806718,5.3170913 10.588136,5.1992282 10.473487,5.1627978 a 1.9233114,1.9233114 0 0 0 -1.0029078,0.023573"
     fill="#ffffff"
     id="path4"
     style="stroke-width:1.07148" />
  <circle
     cx="-317.86929"
     cy="-338.47479"
     r="0"
     fill="#5e4aa6"
     id="circle867"
     style="stroke-width:0.264578" />
  <circle
     cx="-286.52908"
     cy="-348.87265"
     r="0"
     id="circle869"
     style="fill:#5e4aa6;stroke-width:0.26458" />
  <circle
     cx="4.3847127"
     cy="-14.051351"
     r="0"
     fill-rule="evenodd"
     id="circle871"
     style="fill:#5e4aa6;stroke-width:0.26458" />
  <circle
     cx="-265.75909"
     cy="-367.79266"
     r="0"
     id="circle873"
     style="fill:#5e4aa6;stroke-width:0.26458" />
  <circle
     cx="25.153913"
     cy="-32.961651"
     r="0"
     fill-rule="evenodd"
     id="circle875"
     style="fill:#5e4aa6;stroke-width:0.26458" />
  <g
     fill="#5e4aa6"
     stroke-width="0.26458"
     id="g877"
     transform="translate(-18.946449,0.00650014)">
    <circle
       cx="-330.35001"
       cy="-328.38"
       r="0"
       id="circle869-3" />
    <circle
       cx="-312.10999"
       cy="-326.25"
       r="0"
       id="circle871-6" />
    <circle
       cx="-306.01999"
       cy="-333.07001"
       r="0"
       id="circle873-7" />
    <circle
       cx="-308.84"
       cy="-326.01001"
       r="0"
       id="circle875-5" />
  </g>
</svg>
