<?xml version="1.0" encoding="UTF-8" standalone="no"?>
<svg
   xmlns:dc="http://purl.org/dc/elements/1.1/"
   xmlns:cc="http://creativecommons.org/ns#"
   xmlns:rdf="http://www.w3.org/1999/02/22-rdf-syntax-ns#"
   xmlns:svg="http://www.w3.org/2000/svg"
   xmlns="http://www.w3.org/2000/svg"
   xmlns:xlink="http://www.w3.org/1999/xlink"
   xmlns:sodipodi="http://sodipodi.sourceforge.net/DTD/sodipodi-0.dtd"
   xmlns:inkscape="http://www.inkscape.org/namespaces/inkscape"
   inkscape:version="1.0 (4035a4fb49, 2020-05-01)"
   sodipodi:docname="goa-account-owncloud.svg"
   id="svg20"
   viewBox="0 0 64 64"
   version="1.0"
   enable-background="new"
   height="64"
   width="64">
  <metadata
     id="metadata24">
    <rdf:RDF>
      <cc:Work
         rdf:about="">
        <dc:format>image/svg+xml</dc:format>
        <dc:type
           rdf:resource="http://purl.org/dc/dcmitype/StillImage" />
        <dc:title>Adwaita Icon Template</dc:title>
      </cc:Work>
    </rdf:RDF>
  </metadata>
  <sodipodi:namedview
     inkscape:current-layer="svg20"
     inkscape:window-maximized="1"
     inkscape:window-y="0"
     inkscape:window-x="0"
     inkscape:cy="28.359036"
     inkscape:cx="49.869458"
     inkscape:zoom="4.5078057"
     showgrid="false"
     id="namedview22"
     inkscape:window-height="985"
     inkscape:window-width="1920"
     inkscape:pageshadow="2"
     inkscape:pageopacity="0"
     guidetolerance="10"
     gridtolerance="10"
     objecttolerance="10"
     borderopacity="1"
     bordercolor="#666666"
     pagecolor="#ffffff" />
  <title
     id="title2">Adwaita Icon Template</title>
  <defs
     id="defs12">
    <linearGradient
       id="linearGradient968"
       inkscape:collect="always">
      <stop
         id="stop964"
         offset="0"
         style="stop-color:#0076b6;stop-opacity:1" />
      <stop
         id="stop966"
         offset="1"
         style="stop-color:#1dc5ff;stop-opacity:1" />
    </linearGradient>
    <filter
       color-interpolation-filters="sRGB"
       height="1.096"
       width="1.096"
       y="-0.048"
       x="-0.048"
       id="filter975">
      <feGaussianBlur
         id="feGaussianBlur4"
         stdDeviation="0.56" />
    </filter>
    <linearGradient
       gradientTransform="matrix(1.9551617,0,0,1.9551617,83.274371,-1.2377477)"
       gradientUnits="userSpaceOnUse"
       y2="5.0658998"
       y1="26.746"
       x2="12.552"
       x1="12.552"
       id="linearGradient882">
      <stop
         id="stop7"
         offset="0"
         stop-color="#0076b6" />
      <stop
         id="stop9"
         offset="1"
         stop-color="#1dc5ff" />
    </linearGradient>
    <linearGradient
       id="e"
       x1="100.01"
       x2="100.01"
       y1="15.314"
       y2="30.966"
       gradientUnits="userSpaceOnUse">
      <stop
         stop-color="#268bcf"
         offset="0"
         id="stop851" />
      <stop
         stop-color="#18bfe8"
         offset="1"
         id="stop853" />
    </linearGradient>
    <linearGradient
       id="d"
       x1="107.85"
       x2="107.85"
       y1="16.618"
       y2="45.308998"
       gradientUnits="userSpaceOnUse">
      <stop
         stop-color="#40a800"
         offset="0"
         id="stop856" />
      <stop
         stop-color="#7cd000"
         offset="1"
         id="stop858" />
    </linearGradient>
    <linearGradient
       id="c"
       x1="92.191002"
       x2="92.191002"
       y1="16.618"
       y2="45.308998"
       gradientUnits="userSpaceOnUse">
      <stop
         stop-color="#ec1f4b"
         offset="0"
         id="stop861" />
      <stop
         stop-color="#e94545"
         offset="1"
         id="stop863" />
    </linearGradient>
    <linearGradient
       id="a"
       x1="100.01"
       x2="100.01"
       y1="30.971001"
       y2="46.618"
       gradientUnits="userSpaceOnUse">
      <stop
         stop-color="#6534d2"
         offset="0"
         id="stop866" />
      <stop
         stop-color="#a553e5"
         offset="1"
         id="stop868" />
    </linearGradient>
    <filter
       id="f"
       x="-0.059999999"
       y="-0.059999999"
       width="1.12"
       height="1.12"
       color-interpolation-filters="sRGB">
      <feGaussianBlur
         stdDeviation="0.78260866"
         id="feGaussianBlur871" />
    </filter>
    <linearGradient
       id="linearGradient937"
       x1="2.5157001"
       x2="62.707001"
       y1="62.015999"
       y2="2.3713"
       gradientUnits="userSpaceOnUse">
      <stop
         stop-color="#1a1a1a"
         offset="0"
         id="stop874" />
      <stop
         stop-color="#4c4c4c"
         offset="1"
         id="stop876" />
    </linearGradient>
    <filter
       id="filter893"
       x="-0.027000001"
       y="-0.027000001"
       width="1.054"
       height="1.054"
       color-interpolation-filters="sRGB">
      <feGaussianBlur
         stdDeviation="0.675"
         id="feGaussianBlur879" />
    </filter>
    <linearGradient
       gradientTransform="translate(18.114017)"
       gradientUnits="userSpaceOnUse"
       y2="2.3103433"
       x2="43.760212"
       y1="61.351944"
       x1="-15.523008"
       id="linearGradient970"
       xlink:href="#linearGradient968"
       inkscape:collect="always" />
  </defs>
  <circle
     id="circle884"
     stroke-width="2.3495"
     stroke-linecap="round"
     opacity="0.3"
     filter="url(#filter893)"
     r="30"
     cy="32"
     cx="32" />
  <circle
     r="30"
     cy="32"
     cx="32"
     id="path962"
     style="fill:url(#linearGradient970);fill-opacity:1;stroke-width:2.7683;stroke-linecap:round" />
  <path
     d="m 32.031086,22.525091 c -4.33577,0 -7.97784,2.969108 -9.09013,6.964286 -0.97121,-2.136601 -3.10851,-3.650678 -5.592156,-3.650678 -3.380084,5.26e-4 -6.160715,2.780435 -6.160715,6.161301 -5.26e-4,3.381843 2.779458,6.161692 6.160324,6.162279 2.484227,-5.26e-4 4.620247,-1.515798 5.591367,-3.652438 1.11204,3.995178 4.75476,6.965068 9.0919,6.965068 4.31289,5.26e-4 7.93619,-2.936848 9.07156,-6.897615 0.98683,2.097107 3.0915,3.584398 5.5464,3.584789 3.38184,0 6.16267,-2.780435 6.16228,-6.16267 0,-3.381843 -2.78005,-6.161692 -6.16169,-6.16091 -2.4551,5.26e-4 -4.5612,1.488035 -5.54778,3.58518 -1.13563,-3.961157 -4.75788,-6.899179 -9.07038,-6.898397 z m 0,3.616658 a 5.8306832,5.8306832 0 0 1 5.85845,5.85786 c 0,3.257104 -2.60154,5.859229 -5.85845,5.858447 a 5.8306832,5.8306832 0 0 1 -5.85708,-5.858447 c 0,-3.257104 2.60154,-5.857469 5.85747,-5.85786 z m -14.682677,3.313217 c 1.426997,0 2.544247,1.11759 2.544647,2.544252 0,1.426994 -1.11691,2.546012 -2.544256,2.546012 -1.426642,0 -2.544252,-1.118998 -2.543861,-2.546012 0,-1.426642 1.117571,-2.544252 2.544252,-2.544252 z m 29.302007,0 c 1.42698,0 2.54523,1.116886 2.54523,2.544252 0,1.427366 -1.11792,2.546012 -2.54523,2.546012 -1.42699,0 -2.54464,-1.118998 -2.54425,-2.546012 0,-1.426642 1.11759,-2.544252 2.54425,-2.544252 z"
     color="#000000"
     enable-background="new"
     fill="#ffffff"
     stroke-width="0.526388"
     style="text-indent:0;text-decoration:none;text-decoration-line:none;text-decoration-style:solid;text-decoration-color:#000000;text-transform:none;white-space:normal;isolation:auto;mix-blend-mode:normal"
     id="path975" />
</svg>
