<?xml version="1.0" encoding="UTF-8"?>
<svg width="64" height="64" version="1.1" viewBox="0 0 16.933 16.933" xmlns="http://www.w3.org/2000/svg" xmlns:cc="http://creativecommons.org/ns#" xmlns:dc="http://purl.org/dc/elements/1.1/" xmlns:rdf="http://www.w3.org/1999/02/22-rdf-syntax-ns#">
 <defs>
  <style id="current-color-scheme" type="text/css">.ColorScheme-Text {
        color:#31363b;
      }
      .ColorScheme-Background {
        color:#eff0f1;
      }
      .ColorScheme-Highlight {
        color:#3daee9;
      }
      .ColorScheme-ViewText {
        color:#31363b;
      }
      .ColorScheme-ViewBackground {
        color:#fcfcfc;
      }
      .ColorScheme-ViewHover {
        color:#93cee9;
      }
      .ColorScheme-ViewFocus{
        color:#3daee9;
      }
      .ColorScheme-ButtonText {
        color:#31363b;
      }
      .ColorScheme-ButtonBackground {
        color:#eff0f1;
      }
      .ColorScheme-ButtonHover {
        color:#93cee9;
      }
      .ColorScheme-ButtonFocus{
        color:#3daee9;
      }</style>
  <style type="text/css"/>
  <filter id="filter11290-3" x="-.024" y="-.024" width="1.048" height="1.048" color-interpolation-filters="sRGB">
   <feGaussianBlur stdDeviation="0.15875313"/>
  </filter>
  <linearGradient id="linearGradient1005-6" x1=".8714" x2="16.246" y1="16.164" y2=".78937" gradientTransform="translate(-.035241 .0064544)" gradientUnits="userSpaceOnUse">
   <stop stop-color="#00c8ff" offset="0"/>
   <stop stop-color="#14a0ff" offset="1"/>
  </linearGradient>
 </defs>
 <metadata>
  <rdf:RDF>
   <cc:Work rdf:about="">
    <dc:format>image/svg+xml</dc:format>
    <dc:type rdf:resource="http://purl.org/dc/dcmitype/StillImage"/>
    <dc:title/>
   </cc:Work>
  </rdf:RDF>
 </metadata>
 <g fill="#5e4aa6" stroke-width=".26458">
  <circle cx="-330.35" cy="-328.38" r="0"/>
  <circle cx="-312.11" cy="-326.25" r="0"/>
  <circle cx="-306.02" cy="-333.07" r="0"/>
  <circle cx="-308.84" cy="-326.01" r="0"/>
 </g>
 <g stroke-width=".26458">
  <text x="29.471731" y="9.0578918" fill="#000000" font-family="'Noto Serif CJK SC'" font-size="10.583px" letter-spacing="0px" word-spacing="0px" style="line-height:1.25" xml:space="preserve"><tspan x="29.471731" y="19.693933" stroke-width=".26458"/></text>
  <circle cx="-297.6" cy="-338.47" r="0" fill="#5e4aa6"/>
  <g transform="translate(32.763,-10.103)" fill="#5e4aa6">
   <circle cx="-299.02" cy="-338.77" r="0"/>
   <circle cx="-8.1062" cy="-3.9487" r="0" fill-rule="evenodd"/>
   <circle cx="-278.25" cy="-357.69" r="0"/>
   <circle cx="12.663" cy="-22.859" r="0" fill-rule="evenodd"/>
  </g>
 </g>
 <circle cx="8.4665" cy="8.4665" r="7.9377" filter="url(#filter11290-3)" opacity=".25" stroke-width=".14032"/>
 <path d="m16.404 8.4665c0 0.95153-0.16749 1.8639-0.47465 2.7093-0.21351 0.58768-0.49439 1.1433-0.83392 1.6572-0.14222 0.21608-0.29514 0.42475-0.45746 0.62528-0.51966 0.64179-1.1372 1.2007-1.8305 1.6543-0.2553 0.16718-0.52064 0.32009-0.79535 0.45711-1.0668 0.53389-2.2711 0.83422-3.5456 0.83422s-2.4788-0.30032-3.5456-0.83424c-0.27474-0.13705-0.5404-0.28998-0.79569-0.45711-0.70206-0.45973-1.327-1.0274-1.8509-1.6798-0.16263-0.20216-0.31524-0.41274-0.45746-0.63078-0.33046-0.5054-0.60422-1.0507-0.8135-1.627-0.30712-0.8453-0.47431-1.7573-0.47431-2.7085 0-4.3838 3.5538-7.9376 7.9376-7.9376 2.2005 0 4.1917 0.89549 5.6294 2.3417 0.41436 0.41663 0.78273 0.8793 1.0963 1.3795 0.29646 0.47108 0.54429 0.97582 0.73704 1.5068 0.30718 0.84559 0.47468 1.7579 0.47468 2.7093z" fill="url(#linearGradient1005-6)" stroke-width=".031006"/>
 <g transform="translate(-.027195 .0065047)" fill="#5e4aa6" stroke-width=".26458">
  <circle cx="-330.35" cy="-328.38" r="0"/>
  <circle cx="-312.11" cy="-326.25" r="0"/>
  <circle cx="-306.02" cy="-333.07" r="0"/>
  <circle cx="-308.84" cy="-326.01" r="0"/>
 </g>
 <g transform="matrix(.3979 0 0 .3979 -107.65 -208.39)">
  <g transform="matrix(1.4545,0,0,1.4545,-362.73,277.36)" fill="#ebebeb" stroke-width=".6875">
   <g fill="#fff" fill-rule="evenodd" stroke-width=".6875">
    <path d="m446 176c-1.108 0-1.8626 0.90056-2 2l-1 8v4c0 1.108 0.892 2 2 2h10c1.108 0 2-0.892 2-2v-4l-1-8c-0.13743-1.0994-0.892-2-2-2zm0 1h8c0.554 0 0.93128 0.45028 1 1l1 8v4c0 0.554-0.446 1-1 1h-10c-0.554 0-1-0.446-1-1v-4l1-8c0.0687-0.54972 0.446-1 1-1z" style="paint-order:fill markers stroke"/>
    <path d="m444 186-0.1355 1c-0.0744 0.54898 0.45608 1 1.0226 1h10.226c0.56651 0 1.097-0.45102 1.0226-1l-0.13549-1c0 0.554-0.32058 1-0.88709 1h-10.226c-0.56651 0-0.88709-0.446-0.88709-1z" style="paint-order:fill markers stroke"/>
    <rect x="454" y="189" width="1" height="1" style="paint-order:fill markers stroke"/>
   </g>
  </g>
  <path d="m285 534.36h14c1 5 2 10 2 15-6 1-5.1052 0.80592-18 0 0-2 1-14 2-15z" fill="#fff"/>
 </g>
</svg>
