<?xml version="1.0" encoding="UTF-8"?>
<svg width="64" height="64" version="1.1" xmlns="http://www.w3.org/2000/svg" xmlns:cc="http://creativecommons.org/ns#" xmlns:dc="http://purl.org/dc/elements/1.1/" xmlns:rdf="http://www.w3.org/1999/02/22-rdf-syntax-ns#">
 <metadata>
  <rdf:RDF>
   <cc:Work rdf:about="">
    <dc:format>image/svg+xml</dc:format>
    <dc:type rdf:resource="http://purl.org/dc/dcmitype/StillImage"/>
   </cc:Work>
  </rdf:RDF>
 </metadata>
 <defs>
  <linearGradient id="b" x1="399.57" x2="399.57" y1="545.8" y2="517.8" gradientTransform="matrix(2.1429,0,0,2.1429,-826.36,-1107.5)" gradientUnits="userSpaceOnUse">
   <stop stop-color="#3889e9" offset="0"/>
   <stop stop-color="#5ea5fb" offset="1"/>
  </linearGradient>
  <filter id="filter11290" x="-.024" y="-.024" width="1.048" height="1.048" color-interpolation-filters="sRGB">
   <feGaussianBlur stdDeviation="0.15875313"/>
  </filter>
  <linearGradient id="linearGradient1005" x1=".73911" x2="16.388" y1="16.296" y2=".64687" gradientTransform="matrix(3.7796 0 0 3.7796 -.13269 .025279)" gradientUnits="userSpaceOnUse">
   <stop stop-color="#00dc96" offset="0"/>
   <stop stop-color="#14d29b" offset="1"/>
  </linearGradient>
 </defs>
 <circle transform="matrix(3.7796 0 0 3.7796 -1.5818e-5 -1.3999e-6)" cx="8.4665" cy="8.4665" r="7.9377" filter="url(#filter11290)" opacity=".25" stroke-width=".14032"/>
 <path d="m62 32c0 3.5964-0.63304 7.0448-1.794 10.24-0.80698 2.2212-1.8686 4.3212-3.1519 6.2636-0.53754 0.8167-1.1155 1.6054-1.729 2.3633-1.9641 2.4257-4.2982 4.5382-6.9186 6.2526-0.96493 0.63187-1.9678 1.2099-3.0061 1.7277-4.0321 2.0179-8.5839 3.153-13.401 3.153s-9.3689-1.1351-13.401-3.1531c-1.0384-0.518-2.0425-1.096-3.0074-1.7277-2.6535-1.7376-5.0155-3.8832-6.9957-6.349-0.61468-0.76408-1.1915-1.56-1.729-2.3841-1.249-1.9102-2.2837-3.9712-3.0747-6.1494-1.1608-3.1949-1.7927-6.6419-1.7927-10.237 0-16.569 13.432-30.001 30.001-30.001 8.317 0 15.843 3.3846 21.277 8.8507 1.5661 1.5747 2.9584 3.3234 4.1436 5.214 1.1205 1.7805 2.0572 3.6882 2.7857 5.6951 1.161 3.196 1.7941 6.6442 1.7941 10.24z" fill="url(#linearGradient1005)" stroke-width=".11719"/>
 <circle cx="32.02" cy="32.044" r="0" fill="url(#b)" stroke-width="1.5715"/>
 <path d="m44.285 41.489-5.3004-5.3004c1.2774-1.844 1.9164-3.8995 1.9164-6.1659 0-1.4732-0.28603-2.8821-0.8579-4.2265-0.57167-1.3446-1.3444-2.5035-2.318-3.4771-0.97359-0.97359-2.1323-1.7463-3.4767-2.318-1.3448-0.57186-2.7537-0.8577-4.2268-0.8577-1.4732 0-2.8821 0.28584-4.2265 0.8577-1.3446 0.57167-2.5035 1.3444-3.4771 2.318-0.97359 0.97359-1.7463 2.1327-2.318 3.4771-0.57186 1.3446-0.8577 2.7533-0.8577 4.2265s0.28584 2.8817 0.8577 4.2265c0.57167 1.3444 1.3444 2.5031 2.318 3.4767 0.97358 0.97378 2.1327 1.7463 3.4771 2.3182 1.3446 0.57186 2.7533 0.8577 4.2265 0.8577 2.2668 0 4.3221-0.63901 6.1661-1.9165l5.3004 5.2848c0.37082 0.39148 0.83399 0.58723 1.3907 0.58723 0.53563 0 0.99957-0.19574 1.3907-0.58723 0.39148-0.39129 0.58723-0.85504 0.58723-1.3907 1.9e-4 -0.54569-0.19024-1.0094-0.57167-1.3905zm-9.3723-6.5756c-1.3548 1.3548-2.9851 2.0322-4.8911 2.0322-1.9058 0-3.5361-0.67751-4.8909-2.0322-1.3548-1.3548-2.0322-2.9849-2.0322-4.8909 0-1.9058 0.67752-3.5363 2.0322-4.8909 1.3546-1.3548 2.9851-2.0322 4.8909-2.0322s3.5361 0.67751 4.8911 2.0322c1.3548 1.3546 2.0323 2.9851 2.0323 4.8909 0 1.906-0.6777 3.5361-2.0323 4.8909z" fill="#fff" fill-opacity=".84722" stroke-width=".18967"/>
</svg>
