<?xml version="1.0" encoding="UTF-8" standalone="no"?>
<svg
   xmlns:dc="http://purl.org/dc/elements/1.1/"
   xmlns:cc="http://creativecommons.org/ns#"
   xmlns:rdf="http://www.w3.org/1999/02/22-rdf-syntax-ns#"
   xmlns:svg="http://www.w3.org/2000/svg"
   xmlns="http://www.w3.org/2000/svg"
   xmlns:sodipodi="http://sodipodi.sourceforge.net/DTD/sodipodi-0.dtd"
   xmlns:inkscape="http://www.inkscape.org/namespaces/inkscape"
   version="1.1"
   viewBox="0 0 64 64"
   id="svg23"
   sodipodi:docname="gtk-recordmydesktop.svg"
   width="64"
   height="64"
   inkscape:version="1.0.2 (e86c870879, 2021-01-15)">
  <metadata
     id="metadata27">
    <rdf:RDF>
      <cc:Work
         rdf:about="">
        <dc:format>image/svg+xml</dc:format>
        <dc:type
           rdf:resource="http://purl.org/dc/dcmitype/StillImage" />
        <dc:title></dc:title>
      </cc:Work>
    </rdf:RDF>
  </metadata>
  <sodipodi:namedview
     pagecolor="#ffffff"
     bordercolor="#666666"
     borderopacity="1"
     objecttolerance="10"
     gridtolerance="10"
     guidetolerance="10"
     inkscape:pageopacity="0"
     inkscape:pageshadow="2"
     inkscape:window-width="1920"
     inkscape:window-height="992"
     id="namedview25"
     showgrid="false"
     inkscape:zoom="6.1208931"
     inkscape:cx="-11.950897"
     inkscape:cy="25.120162"
     inkscape:window-x="0"
     inkscape:window-y="0"
     inkscape:window-maximized="1"
     inkscape:current-layer="svg23"
     inkscape:document-rotation="0" />
  <defs
     id="defs7">
    <linearGradient
       id="bg"
       x1="1"
       x2="47"
       gradientTransform="matrix(0,-1.2766501,1.2766501,0,72.719299,61.002555)"
       gradientUnits="userSpaceOnUse">
      <stop
         style="stop-color:#6bc810"
         offset="0"
         id="stop2" />
      <stop
         style="stop-color:#74da11"
         offset="1"
         id="stop4" />
    </linearGradient>
    <style
       id="style4"
       type="text/css" />
    <style
       id="style6"
       type="text/css" />
    <style
       id="style8"
       type="text/css" />
    <filter
       color-interpolation-filters="sRGB"
       height="1.048"
       width="1.048"
       y="-0.024"
       x="-0.024"
       id="filter2761">
      <feGaussianBlur
         id="feGaussianBlur10"
         stdDeviation="0.14552168" />
    </filter>
    <linearGradient
       gradientUnits="userSpaceOnUse"
       gradientTransform="matrix(3.7796,0,0,3.7796,111.78704,0.53107)"
       y2="1.17"
       y1="15.576"
       x2="15.65"
       x1="1.3315001"
       id="linearGradient1024-6">
      <stop
         id="stop13"
         offset="0"
         stop-color="#00dc96" />
      <stop
         id="stop15"
         offset="1"
         stop-color="#14d29b" />
    </linearGradient>
    <linearGradient
       gradientUnits="userSpaceOnUse"
       gradientTransform="matrix(0.27476,0,0,0.27476,-24.952118,-0.32515)"
       y2="12.461"
       y1="57.955002"
       x2="45.627998"
       x1="45.627998"
       id="b">
      <stop
         id="stop2-3"
         offset="0" />
      <stop
         id="stop4-6"
         offset="1"
         stop-opacity="0" />
    </linearGradient>
    <style
       type="text/css"
       id="style872" />
    <style
       type="text/css"
       id="style874" />
    <style
       type="text/css"
       id="style876" />
    <filter
       id="filter2761-3"
       x="-0.024"
       y="-0.024"
       width="1.048"
       height="1.048"
       color-interpolation-filters="sRGB">
      <feGaussianBlur
         stdDeviation="0.14552168"
         id="feGaussianBlur878" />
    </filter>
    <linearGradient
       id="linearGradient1024-6-6"
       x1="1.3315001"
       x2="15.65"
       y1="15.576"
       y2="1.17"
       gradientTransform="matrix(3.7796,0,0,3.7796,-0.0020773,0.53047)"
       gradientUnits="userSpaceOnUse">
      <stop
         stop-color="#00dc96"
         offset="0"
         id="stop881" />
      <stop
         stop-color="#14d29b"
         offset="1"
         id="stop883" />
    </linearGradient>
    <style
       type="text/css"
       id="style885" />
    <filter
       id="filter11290"
       x="-.024"
       y="-.024"
       width="1.048"
       height="1.048"
       color-interpolation-filters="sRGB">
      <feGaussianBlur
         stdDeviation="0.15875313"
         id="feGaussianBlur887" />
    </filter>
    <linearGradient
       id="linearGradient1005"
       x1=".73911"
       x2="16.388"
       y1="16.296"
       y2=".64687"
       gradientTransform="matrix(3.7796,0,0,3.7796,-0.13309,0.0248281)"
       gradientUnits="userSpaceOnUse">
      <stop
         stop-color="#00dc96"
         offset="0"
         id="stop890" />
      <stop
         stop-color="#14d29b"
         offset="1"
         id="stop892" />
    </linearGradient>
    <style
       type="text/css"
       id="style895" />
    <style
       type="text/css"
       id="style897" />
    <style
       type="text/css"
       id="style899" />
  </defs>
  <circle
     transform="matrix(3.7796,0,0,3.7796,1.6203648e-5,1.6203648e-5)"
     cx="8.4665003"
     cy="8.4665003"
     r="7.9376998"
     filter="url(#filter11290)"
     opacity="0.25"
     stroke-width="0.14032"
     id="circle923" />
  <path
     d="m 62.0004,32.00045 c 0,3.5964 -0.63304,7.0448 -1.794,10.24 -0.80698,2.2212 -1.8686,4.3212 -3.1519,6.2636 -0.53754,0.8167 -1.1155,1.6054 -1.729,2.3633 -1.9641,2.4257 -4.2982,4.5382 -6.9186,6.2526 -0.96493,0.63187 -1.9678,1.2099 -3.0061,1.7277 -4.0321,2.0179 -8.5839,3.153 -13.401,3.153 -4.8171,0 -9.3689,-1.1351 -13.401,-3.1531 -1.0384,-0.518 -2.0425,-1.096 -3.0074,-1.7277 -2.6535,-1.7376 -5.0155,-3.8832 -6.9957,-6.349 -0.61468,-0.76408 -1.1915,-1.56 -1.729,-2.3841 -1.249,-1.9102 -2.2837,-3.9712 -3.0747,-6.1494 -1.1608,-3.1949 -1.7927,-6.6419 -1.7927,-10.237 0,-16.569 13.432,-30.0009999 30.001,-30.0009999 8.317,0 15.843,3.3846 21.277,8.8506999 1.5661,1.5747 2.9584,3.3234 4.1436,5.214 1.1205,1.7805 2.0572,3.6882 2.7857,5.6951 1.161,3.196 1.7941,6.6442 1.7941,10.24 z"
     fill="url(#linearGradient1005)"
     stroke-width="0.11719"
     id="path925"
     style="fill:url(#linearGradient1005)" />
  <g
     id="g64"
     fill="#5e4aa6">
    <circle
       id="circle20"
       r="0"
       cy="-1241.6"
       cx="-1248.7" />
    <circle
       id="circle22"
       fill-rule="evenodd"
       r="0"
       cy="23.855"
       cx="-149.14999" />
    <circle
       id="circle24"
       r="0"
       cy="-1241.6"
       cx="-1248.7" />
    <circle
       id="circle26"
       fill-rule="evenodd"
       r="0"
       cy="23.855"
       cx="-149.14999" />
    <circle
       id="circle28"
       r="0"
       cy="-1256.6"
       cx="-1150.9" />
    <circle
       id="circle30"
       fill-rule="evenodd"
       r="0"
       cy="8.8744001"
       cx="-51.327" />
    <g
       id="g62"
       stroke-width="0.26458"
       transform="matrix(3.7796,0,0,3.7796,167.86,4.61)">
      <g
         id="g40"
         transform="translate(-0.0272,0.0065001)">
        <circle
           id="circle32"
           r="0"
           cy="-328.38"
           cx="-330.35001" />
        <circle
           id="circle34"
           r="0"
           cy="-326.25"
           cx="-312.10999" />
        <circle
           id="circle36"
           r="0"
           cy="-333.07001"
           cx="-306.01999" />
        <circle
           id="circle38"
           r="0"
           cy="-326.01001"
           cx="-308.84" />
      </g>
      <g
         id="g50"
         transform="translate(-0.0272,0.0065001)">
        <circle
           id="circle42"
           r="0"
           cy="-328.38"
           cx="-330.35001" />
        <circle
           id="circle44"
           r="0"
           cy="-326.25"
           cx="-312.10999" />
        <circle
           id="circle46"
           r="0"
           cy="-333.07001"
           cx="-306.01999" />
        <circle
           id="circle48"
           r="0"
           cy="-326.01001"
           cx="-308.84" />
      </g>
      <g
         id="g60"
         transform="translate(-0.02705,0.0064503)">
        <circle
           id="circle52"
           r="0"
           cy="-328.38"
           cx="-330.35001" />
        <circle
           id="circle54"
           r="0"
           cy="-326.25"
           cx="-312.10999" />
        <circle
           id="circle56"
           r="0"
           cy="-333.07001"
           cx="-306.01999" />
        <circle
           id="circle58"
           r="0"
           cy="-326.01001"
           cx="-308.84" />
      </g>
    </g>
  </g>
  <path
     d="M 32.000434,16.680065 A 20.426401,15.319801 0 0 0 11.608506,31.277282 14.043151,10.213201 0 0 0 11.573597,32.000389 14.043151,10.213201 0 0 0 25.616748,42.21359 14.043151,10.213201 0 0 0 39.659894,32.000389 14.043151,10.213201 0 0 0 25.616748,21.787188 14.043151,10.213201 0 0 0 11.6336,31.130224 17.234776,12.766501 0 0 1 28.808374,19.233888 17.234776,12.766501 0 0 1 46.043144,32.000389 17.234776,12.766501 0 0 1 28.808374,44.76689 17.234776,12.766501 0 0 1 11.61828,32.912939 20.426401,15.319801 0 0 0 31.999994,47.319935 20.426401,15.319801 0 0 0 52.426404,32.000134 20.426401,15.319801 0 0 0 31.999994,16.680333 Z m -8.936547,7.6599 a 10.213201,7.6599004 0 0 1 10.213197,7.659901 10.213201,7.6599004 0 0 1 -10.213197,7.6599 10.213201,7.6599004 0 0 1 -10.2132,-7.6599 10.213201,7.6599004 0 0 1 10.2132,-7.659901 z"
     style="fill:#ffffff;stroke-width:1.27665;paint-order:normal;fill-opacity:1"
     id="path986" />
  <g
     fill="#5e4aa6"
     id="g921"
     transform="translate(-81.757149,1.6203648e-5)">
    <circle
       cx="-1248.7"
       cy="-1241.6"
       r="0"
       id="circle903" />
    <circle
       cx="-149.14999"
       cy="23.855"
       r="0"
       fill-rule="evenodd"
       id="circle905" />
    <circle
       cx="-1150.9"
       cy="-1256.6"
       r="0"
       id="circle907" />
    <circle
       cx="-51.327"
       cy="8.8744001"
       r="0"
       fill-rule="evenodd"
       id="circle909" />
    <g
       transform="matrix(3.7796,0,0,3.7796,-0.10224,0.02438)"
       stroke-width="0.26458"
       id="g919">
      <circle
         cx="-330.35001"
         cy="-328.38"
         r="0"
         id="circle911" />
      <circle
         cx="-312.10999"
         cy="-326.25"
         r="0"
         id="circle913" />
      <circle
         cx="-306.01999"
         cy="-333.07001"
         r="0"
         id="circle915" />
      <circle
         cx="-308.84"
         cy="-326.01001"
         r="0"
         id="circle917" />
    </g>
  </g>
  <g
     transform="matrix(3.7796,0,0,3.7796,-81.859959,0.0245842)"
     fill="#5e4aa6"
     stroke-width="0.26458"
     id="g935">
    <circle
       cx="-330.35001"
       cy="-328.38"
       r="0"
       id="circle927" />
    <circle
       cx="-312.10999"
       cy="-326.25"
       r="0"
       id="circle929" />
    <circle
       cx="-306.01999"
       cy="-333.07001"
       r="0"
       id="circle931" />
    <circle
       cx="-308.84"
       cy="-326.01001"
       r="0"
       id="circle933" />
  </g>
  <g
     transform="translate(-199.17715,-41.219984)"
     fill="#5e4aa6"
     id="g977">
    <circle
       cx="-1248.7"
       cy="-1241.6"
       r="0"
       id="circle937" />
    <circle
       cx="-149.14999"
       cy="23.855"
       r="0"
       fill-rule="evenodd"
       id="circle939" />
    <circle
       cx="-1150.9"
       cy="-1256.6"
       r="0"
       id="circle941" />
    <circle
       cx="-51.327"
       cy="8.8744001"
       r="0"
       fill-rule="evenodd"
       id="circle943" />
    <g
       transform="matrix(3.7796,0,0,3.7796,167.86,4.61)"
       stroke-width="0.26458"
       id="g975">
      <g
         transform="translate(-0.0272,0.0065001)"
         id="g953">
        <circle
           cx="-330.35001"
           cy="-328.38"
           r="0"
           id="circle945" />
        <circle
           cx="-312.10999"
           cy="-326.25"
           r="0"
           id="circle947" />
        <circle
           cx="-306.01999"
           cy="-333.07001"
           r="0"
           id="circle949" />
        <circle
           cx="-308.84"
           cy="-326.01001"
           r="0"
           id="circle951" />
      </g>
      <g
         transform="translate(-0.0272,0.0065001)"
         id="g963">
        <circle
           cx="-330.35001"
           cy="-328.38"
           r="0"
           id="circle955" />
        <circle
           cx="-312.10999"
           cy="-326.25"
           r="0"
           id="circle957" />
        <circle
           cx="-306.01999"
           cy="-333.07001"
           r="0"
           id="circle959" />
        <circle
           cx="-308.84"
           cy="-326.01001"
           r="0"
           id="circle961" />
      </g>
      <g
         transform="translate(-0.02705,0.0064503)"
         id="g973">
        <circle
           cx="-330.35001"
           cy="-328.38"
           r="0"
           id="circle965" />
        <circle
           cx="-312.10999"
           cy="-326.25"
           r="0"
           id="circle967" />
        <circle
           cx="-306.01999"
           cy="-333.07001"
           r="0"
           id="circle969" />
        <circle
           cx="-308.84"
           cy="-326.01001"
           r="0"
           id="circle971" />
      </g>
    </g>
  </g>
</svg>
