<?xml version="1.0" encoding="UTF-8" standalone="no"?>
<svg
   xmlns:dc="http://purl.org/dc/elements/1.1/"
   xmlns:cc="http://creativecommons.org/ns#"
   xmlns:rdf="http://www.w3.org/1999/02/22-rdf-syntax-ns#"
   xmlns:svg="http://www.w3.org/2000/svg"
   xmlns="http://www.w3.org/2000/svg"
   xmlns:sodipodi="http://sodipodi.sourceforge.net/DTD/sodipodi-0.dtd"
   xmlns:inkscape="http://www.inkscape.org/namespaces/inkscape"
   width="64"
   height="64"
   version="1.1"
   id="svg29"
   sodipodi:docname="help.svg"
   inkscape:version="1.0.1 (3bc2e813f5, 2020-09-07)">
  <metadata
     id="metadata33">
    <rdf:RDF>
      <cc:Work
         rdf:about="">
        <dc:format>image/svg+xml</dc:format>
        <dc:type
           rdf:resource="http://purl.org/dc/dcmitype/StillImage" />
        <dc:title></dc:title>
      </cc:Work>
    </rdf:RDF>
  </metadata>
  <sodipodi:namedview
     pagecolor="#ffffff"
     bordercolor="#666666"
     borderopacity="1"
     objecttolerance="10"
     gridtolerance="10"
     guidetolerance="10"
     inkscape:pageopacity="0"
     inkscape:pageshadow="2"
     inkscape:window-width="1920"
     inkscape:window-height="998"
     id="namedview31"
     showgrid="false"
     inkscape:zoom="4.5906698"
     inkscape:cx="-8.5404676"
     inkscape:cy="28.933698"
     inkscape:window-x="0"
     inkscape:window-y="0"
     inkscape:window-maximized="1"
     inkscape:current-layer="svg29" />
  <defs
     id="defs17">
    <linearGradient
       id="a"
       x1="540"
       x2="540"
       y1="212.36"
       y2="872.36"
       gradientTransform="matrix(0.063513,0,0,0.063513,-0.40795,-2.556)"
       gradientUnits="userSpaceOnUse">
      <stop
         stop-color="#fff"
         offset="0"
         id="stop2" />
      <stop
         stop-color="#d7d7d7"
         offset="1"
         id="stop4" />
    </linearGradient>
    <linearGradient
       id="linearGradient898"
       x1="200"
       x2="400"
       y1="952.36"
       y2="952.36"
       gradientTransform="matrix(0.2,0,0,0.2,-28.001231,11.99877)"
       gradientUnits="userSpaceOnUse">
      <stop
         stop-color="#f4fbfc"
         offset="0"
         id="stop7" />
      <stop
         stop-color="#d6d6d6"
         offset="1"
         id="stop9" />
    </linearGradient>
    <linearGradient
       id="linearGradient862-3"
       x1="7.9373"
       x2="7.9373"
       y1="15.081"
       y2="1.852"
       gradientTransform="matrix(3.7796,0,0,3.7796,4.5499258,-27.516411)"
       gradientUnits="userSpaceOnUse">
      <stop
         stop-color="#2ec2b4"
         offset="0"
         id="stop12" />
      <stop
         stop-color="#79eec1"
         offset="1"
         id="stop14" />
    </linearGradient>
    <filter
       id="filter11290"
       x="-.024"
       y="-.024"
       width="1.048"
       height="1.048"
       color-interpolation-filters="sRGB">
      <feGaussianBlur
         stdDeviation="0.15875313"
         id="feGaussianBlur858" />
    </filter>
    <linearGradient
       id="linearGradient1005"
       x1=".73911"
       x2="16.388"
       y1="16.296"
       y2=".64687"
       gradientTransform="matrix(3.779602,0,0,3.779602,-0.1319475,0.0245665)"
       gradientUnits="userSpaceOnUse">
      <stop
         stop-color="#00dc96"
         offset="0"
         id="stop861" />
      <stop
         stop-color="#14d29b"
         offset="1"
         id="stop863" />
    </linearGradient>
  </defs>
  <circle
     cx="8.4937"
     cy="8.46"
     r="7.9376998"
     filter="url(#filter11290)"
     opacity="0.25"
     stroke-width="0.14032"
     id="circle870"
     transform="matrix(3.779602,0,0,3.779602,-0.10280494,0.02456761)" />
  <path
     d="m 62.000382,31.999811 c 0,3.596443 -0.633045,7.044801 -1.79395,10.240454 -0.806983,2.221196 -1.868597,4.32122 -3.151923,6.263556 -0.537535,0.816696 -1.115512,1.605386 -1.729017,2.363348 -1.964108,2.42571 -4.298163,4.538169 -6.918562,6.252596 -0.964932,0.631873 -1.967849,1.209851 -3.006144,1.727732 -4.032079,2.01789 -8.583854,3.152981 -13.400957,3.152981 -4.817102,0 -9.368877,-1.13509 -13.400956,-3.153095 -1.038408,-0.517995 -2.042497,-1.095971 -3.00743,-1.727731 -2.653544,-1.737597 -5.015532,-3.883164 -6.9956645,-6.348976 -0.614677,-0.764085 -1.191482,-1.560032 -1.729017,-2.384098 -1.249007,-1.91021 -2.283673,-3.971227 -3.074706,-6.149412 -1.160754,-3.19486 -1.792665,-6.641895 -1.792665,-10.237052 0,-16.569019 13.4315705,-30.0005915 30.0005905,-30.0005915 8.317014,0 15.842957,3.384558 21.277269,8.8506945 1.566116,1.574658 2.958446,3.323367 4.143578,5.213961 1.120463,1.780458 2.057161,3.688212 2.785718,5.695104 1.161018,3.195994 1.794063,6.644163 1.794063,10.240454 z"
     fill="url(#linearGradient1005)"
     stroke-width="0.11719"
     id="path872"
     style="fill:url(#linearGradient1005)" />
  <g
     fill="#5e4aa6"
     stroke-width="0.26458"
     id="g882"
     transform="matrix(3.779602,0,0,3.779602,-95.100928,-30.398435)">
    <circle
       cx="-330.35001"
       cy="-328.38"
       r="0"
       id="circle874" />
    <circle
       cx="-312.10999"
       cy="-326.25"
       r="0"
       id="circle876" />
    <circle
       cx="-306.01999"
       cy="-333.07001"
       r="0"
       id="circle878" />
    <circle
       cx="-308.84"
       cy="-326.01001"
       r="0"
       id="circle880" />
  </g>
  <path
     id="rect1091"
     style="opacity:1;fill:#ffffff;fill-opacity:1"
     d="M 32 12 A 20 20 0 0 0 11.998047 31.998047 A 20 20 0 0 0 32 52 A 20 20 0 0 0 52.001953 31.998047 A 20 20 0 0 0 32 12 z M 32 14.544922 A 17.456178 17.456178 0 0 1 40.019531 16.511719 L 37.380859 21.021484 A 12.235808 12.235808 0 0 0 32 19.761719 A 12.235808 12.235808 0 0 0 26.693359 20.990234 L 23.949219 16.519531 A 17.456178 17.456178 0 0 1 32 14.544922 z M 31.857422 22.177734 A 9.8217602 9.8217602 0 0 1 32 22.177734 A 9.8217602 9.8217602 0 0 1 41.822266 31.998047 A 9.8217602 9.8217602 0 0 1 32 41.820312 A 9.8217602 9.8217602 0 0 1 22.177734 31.998047 A 9.8217602 9.8217602 0 0 1 31.857422 22.177734 z M 47.46875 23.931641 A 17.456178 17.456178 0 0 1 49.453125 31.998047 A 17.456178 17.456178 0 0 1 47.474609 40.044922 L 42.972656 37.396484 A 12.235808 12.235808 0 0 0 44.236328 31.998047 A 12.235808 12.235808 0 0 0 42.935547 26.544922 L 47.46875 23.931641 z M 16.472656 24.0625 L 21.021484 26.611328 A 12.235808 12.235808 0 0 0 19.763672 31.998047 A 12.235808 12.235808 0 0 0 21.056641 37.443359 L 16.513672 40.039062 A 17.456178 17.456178 0 0 1 14.542969 31.998047 A 17.456178 17.456178 0 0 1 16.472656 24.0625 z M 26.611328 42.976562 A 12.235808 12.235808 0 0 0 32 44.234375 A 12.235808 12.235808 0 0 0 37.294922 43.011719 L 40.082031 47.460938 A 17.456178 17.456178 0 0 1 32 49.455078 A 17.456178 17.456178 0 0 1 23.863281 47.431641 L 26.611328 42.976562 z " />
</svg>
