<?xml version="1.0" encoding="UTF-8" standalone="no"?>
<svg
   xmlns:dc="http://purl.org/dc/elements/1.1/"
   xmlns:cc="http://creativecommons.org/ns#"
   xmlns:rdf="http://www.w3.org/1999/02/22-rdf-syntax-ns#"
   xmlns:svg="http://www.w3.org/2000/svg"
   xmlns="http://www.w3.org/2000/svg"
   xmlns:xlink="http://www.w3.org/1999/xlink"
   xmlns:sodipodi="http://sodipodi.sourceforge.net/DTD/sodipodi-0.dtd"
   xmlns:inkscape="http://www.inkscape.org/namespaces/inkscape"
   inkscape:version="1.0.2 (e86c870879, 2021-01-15)"
   sodipodi:docname="hexchat.svg"
   id="svg42"
   viewBox="0 0 64 64"
   version="1.1"
   height="64"
   width="64">
  <metadata
     id="metadata46">
    <rdf:RDF>
      <cc:Work
         rdf:about="">
        <dc:format>image/svg+xml</dc:format>
        <dc:type
           rdf:resource="http://purl.org/dc/dcmitype/StillImage" />
        <dc:title></dc:title>
      </cc:Work>
    </rdf:RDF>
  </metadata>
  <sodipodi:namedview
     inkscape:current-layer="svg42"
     inkscape:window-maximized="1"
     inkscape:window-y="38"
     inkscape:window-x="0"
     inkscape:cy="34.38693"
     inkscape:cx="-0.15382594"
     inkscape:zoom="5.9609376"
     showgrid="false"
     id="namedview44"
     inkscape:window-height="942"
     inkscape:window-width="1920"
     inkscape:pageshadow="2"
     inkscape:pageopacity="0"
     guidetolerance="10"
     gridtolerance="10"
     objecttolerance="10"
     borderopacity="1"
     bordercolor="#666666"
     pagecolor="#ffffff"
     inkscape:document-rotation="0" />
  <defs
     id="defs18">
    <linearGradient
       inkscape:collect="always"
       id="linearGradient1105">
      <stop
         style="stop-color:#1e2123;stop-opacity:1"
         offset="0"
         id="stop1101" />
      <stop
         style="stop-color:#33393e;stop-opacity:1"
         offset="1"
         id="stop1103" />
    </linearGradient>
    <filter
       color-interpolation-filters="sRGB"
       height="1.1224"
       width="1.1177"
       y="-.061197"
       x="-.058849"
       id="filter909">
      <feGaussianBlur
         id="feGaussianBlur2"
         stdDeviation="0.90087503" />
    </filter>
    <filter
       color-interpolation-filters="sRGB"
       height="1.1272"
       width="1.1135"
       y="-.063623"
       x="-.056768"
       id="filter935">
      <feGaussianBlur
         id="feGaussianBlur5"
         stdDeviation="1.060375" />
    </filter>
    <linearGradient
       gradientTransform="translate(86.949358)"
       gradientUnits="userSpaceOnUse"
       y2="10.968"
       y1="56.798"
       x2="31.073"
       x1="30.242"
       id="linearGradient949">
      <stop
         id="stop8"
         offset="0"
         stop-color="#ff8a34" />
      <stop
         id="stop10"
         offset="1"
         stop-color="#ffdc34" />
    </linearGradient>
    <linearGradient
       gradientUnits="userSpaceOnUse"
       gradientTransform="matrix(1.5,0,0,1.5,-669.28064,-752.85)"
       y2="508.15"
       y1="540.16"
       x2="525.29"
       x1="525.29"
       id="linearGradient879">
      <stop
         id="stop13"
         offset="0"
         stop-color="#18222a" />
      <stop
         id="stop15"
         offset="1"
         stop-color="#566069" />
    </linearGradient>
    <linearGradient
       id="linearGradient910"
       x1="45"
       x2="60.076"
       y1="19"
       y2="3.9236"
       gradientTransform="matrix(0.89283,0,0,-0.89283,114.05436,60.491)"
       gradientUnits="userSpaceOnUse">
      <stop
         stop-color="#fff"
         offset="0"
         id="stop2" />
      <stop
         stop-color="#ffefcc"
         offset="1"
         id="stop4" />
    </linearGradient>
    <radialGradient
       id="radialGradient1089"
       cx="-10.016"
       cy="4.9291"
       r="1.6997"
       gradientTransform="matrix(6.8413,0.088798,-0.13161,10.14,218.5036,-115.08867)"
       gradientUnits="userSpaceOnUse">
      <stop
         offset="0"
         id="stop7" />
      <stop
         stop-opacity=".33"
         offset=".47598"
         id="stop9" />
      <stop
         stop-opacity=".01"
         offset=".86209"
         id="stop11" />
      <stop
         stop-opacity="0"
         offset="1"
         id="stop13-3" />
    </radialGradient>
    <linearGradient
       id="linearGradient940"
       x1="30"
       x2="30"
       y1="54"
       y2="9"
       gradientTransform="matrix(1,0,0,-1,110.62576,63.947)"
       gradientUnits="userSpaceOnUse">
      <stop
         stop-color="#fff"
         offset="0"
         id="stop16" />
      <stop
         stop-color="#f5f5f5"
         offset="1"
         id="stop18" />
    </linearGradient>
    <linearGradient
       id="b-3"
       x1="399.57"
       x2="399.57"
       y1="545.8"
       y2="517.8"
       gradientTransform="matrix(2.1429,0,0,2.1429,-826.36,-1107.5)"
       gradientUnits="userSpaceOnUse">
      <stop
         stop-color="#3889e9"
         offset="0"
         id="stop21" />
      <stop
         stop-color="#5ea5fb"
         offset="1"
         id="stop23" />
    </linearGradient>
    <linearGradient
       id="linearGradient862"
       x1="7.9373"
       x2="7.9373"
       y1="15.081"
       y2="1.852"
       gradientTransform="matrix(3.7796,0,0,3.7796,110.62576,0)"
       gradientUnits="userSpaceOnUse">
      <stop
         stop-color="#424242"
         offset="0"
         id="stop26" />
      <stop
         stop-color="#272727"
         offset="1"
         id="stop28" />
    </linearGradient>
    <filter
       id="filter1154"
       x="-.10142"
       y="-.11549"
       width="1.2028"
       height="1.231"
       color-interpolation-filters="sRGB">
      <feGaussianBlur
         stdDeviation="1.1577746"
         id="feGaussianBlur31" />
    </filter>
    <style
       id="style921"
       type="text/css" />
    <style
       id="style923"
       type="text/css" />
    <style
       id="style925"
       type="text/css" />
    <style
       id="style927"
       type="text/css" />
    <filter
       color-interpolation-filters="sRGB"
       height="1.048"
       width="1.048"
       y="-.024"
       x="-.024"
       id="filter11290">
      <feGaussianBlur
         id="feGaussianBlur929"
         stdDeviation="0.15875313" />
    </filter>
    <linearGradient
       gradientUnits="userSpaceOnUse"
       gradientTransform="matrix(3.7796,0,0,3.7796,-0.13309,0.024828)"
       y2=".64687"
       y1="16.296"
       x2="16.388"
       x1=".73911"
       id="linearGradient1005">
      <stop
         id="stop932"
         offset="0"
         stop-color="#00dc96" />
      <stop
         id="stop934"
         offset="1"
         stop-color="#14d29b" />
    </linearGradient>
    <style
       id="style937"
       type="text/css" />
    <style
       id="style939"
       type="text/css" />
    <style
       id="style941"
       type="text/css" />
    <linearGradient
       id="linearGradient1057">
      <stop
         id="stop1229"
         offset="0"
         stop-color="#fff" />
      <stop
         id="stop1231"
         offset="1"
         stop-opacity="0"
         stop-color="#fff" />
    </linearGradient>
    <linearGradient
       gradientUnits="userSpaceOnUse"
       gradientTransform="matrix(1.5625,0,0,1.5625,0.40633,-5.1891)"
       y2="52.847"
       y1="27.545"
       x2="34.999"
       x1="34.999"
       id="linearGradient982">
      <stop
         id="stop1234"
         offset="0"
         stop-color="#32b4ff" />
      <stop
         id="stop1236"
         offset="1"
         stop-color="#3287ff" />
    </linearGradient>
    <style
       id="style1239"
       type="text/css" />
    <style
       id="style1241"
       type="text/css" />
    <linearGradient
       gradientUnits="userSpaceOnUse"
       gradientTransform="matrix(1.5625,0,0,1.5625,-9.2253,1.3231)"
       y2="43.681"
       y1="18.052"
       x2="21.314"
       x1="21.314"
       id="linearGradient1047">
      <stop
         id="stop1243"
         offset="0"
         stop-color="#14dc78" />
      <stop
         id="stop1245"
         offset="1"
         stop-color="#14a03c" />
    </linearGradient>
    <linearGradient
       gradientUnits="userSpaceOnUse"
       gradientTransform="matrix(1.5625,0,0,1.5625,-8.1072,-10.908)"
       y2="37.368"
       y1="12.316"
       x2="41.729"
       x1="41.729"
       id="linearGradient1049">
      <stop
         id="stop1248"
         offset="0"
         stop-color="#ff3c64" />
      <stop
         id="stop1250"
         offset="1"
         stop-color="#ff4628" />
    </linearGradient>
    <linearGradient
       xlink:href="#linearGradient1057"
       gradientUnits="userSpaceOnUse"
       gradientTransform="matrix(1,0,0,1.2271,0.20646,-10.975)"
       y2="39.768"
       y1="32.234"
       x2="34.427"
       x1="34.427"
       id="linearGradient1059" />
    <linearGradient
       xlink:href="#linearGradient1057"
       gradientUnits="userSpaceOnUse"
       gradientTransform="matrix(1,0,0,1.2271,-12.55,-19.793)"
       y2="39.768"
       y1="32.234"
       x2="34.427"
       x1="34.427"
       id="linearGradient1063" />
    <linearGradient
       xlink:href="#linearGradient1057"
       gradientUnits="userSpaceOnUse"
       gradientTransform="matrix(1,0,0,1.2271,5.7554,-25.761)"
       y2="39.768"
       y1="32.234"
       x2="34.427"
       x1="34.427"
       id="linearGradient1067" />
    <filter
       color-interpolation-filters="sRGB"
       height="1.048"
       width="1.048"
       y="-.024"
       x="-.024"
       id="filter11290-3">
      <feGaussianBlur
         id="feGaussianBlur1256"
         stdDeviation="0.15875313" />
    </filter>
    <linearGradient
       gradientUnits="userSpaceOnUse"
       gradientTransform="matrix(3.7796,0,0,3.7796,-0.13155,0.0250173)"
       y2=".64687"
       y1="16.296"
       x2="16.388"
       x1=".73911"
       id="linearGradient1005-6">
      <stop
         id="stop1259"
         offset="0"
         stop-color="#dddfe1" />
      <stop
         id="stop1261"
         offset="1"
         stop-color="#f3f4f6" />
    </linearGradient>
    <filter
       id="filter909-3"
       x="-.058849"
       y="-.061197"
       width="1.1177"
       height="1.1224"
       color-interpolation-filters="sRGB">
      <feGaussianBlur
         stdDeviation="0.90087503"
         id="feGaussianBlur2-5" />
    </filter>
    <filter
       id="filter935-6"
       x="-.056768"
       y="-.063623"
       width="1.1135"
       height="1.1272"
       color-interpolation-filters="sRGB">
      <feGaussianBlur
         stdDeviation="1.060375"
         id="feGaussianBlur5-2" />
    </filter>
    <linearGradient
       id="linearGradient949-9"
       x1="30.242"
       x2="31.073"
       y1="56.798"
       y2="10.968"
       gradientUnits="userSpaceOnUse"
       gradientTransform="matrix(0.83330557,0,0,0.83330557,5.3342218,5.3342218)">
      <stop
         stop-color="#ff8a34"
         offset="0"
         id="stop8-1" />
      <stop
         stop-color="#ffdc34"
         offset="1"
         id="stop10-2" />
    </linearGradient>
    <linearGradient
       id="linearGradient879-7"
       x1="525.29"
       x2="525.29"
       y1="540.16"
       y2="508.15"
       gradientTransform="matrix(1.5,0,0,1.5,-761.54264,-761.70683)"
       gradientUnits="userSpaceOnUse">
      <stop
         stop-color="#18222a"
         offset="0"
         id="stop13-0" />
      <stop
         stop-color="#566069"
         offset="1"
         id="stop15-9" />
    </linearGradient>
    <linearGradient
       id="b"
       x1="45.628"
       x2="45.628"
       y1="57.955"
       y2="12.461"
       gradientUnits="userSpaceOnUse">
      <stop
         offset="0"
         id="stop2-3" />
      <stop
         stop-opacity="0"
         offset="1"
         id="stop4-6" />
    </linearGradient>
    <linearGradient
       gradientUnits="userSpaceOnUse"
       gradientTransform="matrix(2.1429,0,0,2.1429,-1005.4862,-1107.544)"
       y2="517.8"
       y1="545.8"
       x2="399.57"
       x1="399.57"
       id="b-3-0">
      <stop
         id="stop850"
         offset="0"
         stop-color="#3889e9" />
      <stop
         id="stop852"
         offset="1"
         stop-color="#5ea5fb" />
    </linearGradient>
    <linearGradient
       gradientUnits="userSpaceOnUse"
       gradientTransform="matrix(0.26457812,0,0,0.26457812,-31.030853,-6.0244504)"
       y2="1.6692"
       y1="61.873"
       x2="32.431"
       x1="32.431"
       id="linearGradient1001">
      <stop
         id="stop855"
         offset="0"
         stop-color="#1d2123" />
      <stop
         id="stop857"
         offset="1"
         stop-color="#33393e" />
    </linearGradient>
    <style
       id="style14"
       type="text/css" />
    <style
       id="style16"
       type="text/css" />
    <filter
       color-interpolation-filters="sRGB"
       height="1.048"
       width="1.048"
       y="-.024"
       x="-.024"
       id="filter2761">
      <feGaussianBlur
         id="feGaussianBlur31-8"
         stdDeviation="0.14552168" />
    </filter>
    <linearGradient
       gradientUnits="userSpaceOnUse"
       gradientTransform="matrix(3.7796,0,0,3.7796,72.4059,0.53085)"
       y2="1.17"
       y1="15.576"
       x2="15.65"
       x1="1.3315"
       id="linearGradient1024">
      <stop
         id="stop34"
         offset="0"
         stop-color="#dddfe1" />
      <stop
         id="stop36"
         offset="1"
         stop-opacity=".99608"
         stop-color="#f3f4f6" />
    </linearGradient>
    <filter
       color-interpolation-filters="sRGB"
       height="1.048"
       width="1.048"
       y="-.024"
       x="-.024"
       id="filter2761-3">
      <feGaussianBlur
         id="feGaussianBlur2-3"
         stdDeviation="0.14552168" />
    </filter>
    <linearGradient
       gradientUnits="userSpaceOnUse"
       gradientTransform="translate(0 -.07421)"
       y2="1.17"
       y1="15.576"
       x2="15.65"
       x1="1.3315"
       id="linearGradient1024-6">
      <stop
         id="stop5"
         offset="0"
         stop-color="#dddfe1" />
      <stop
         id="stop7-7"
         offset="1"
         stop-opacity=".99608"
         stop-color="#f3f4f6" />
    </linearGradient>
    <linearGradient
       id="linearGradient938"
       x1="99.523003"
       x2="103.24"
       y1="38.493999"
       y2="41.915001"
       gradientTransform="matrix(1.3333,0,0,1.3333,-103.146,-21.795)"
       gradientUnits="userSpaceOnUse">
      <stop
         stop-color="#6eb92e"
         offset="0"
         id="stop866" />
      <stop
         stop-color="#4592d6"
         offset="1"
         id="stop868" />
    </linearGradient>
    <linearGradient
       id="b-3-2"
       x1="399.57001"
       x2="399.57001"
       y1="545.79999"
       y2="517.79999"
       gradientTransform="matrix(2.1429,0,0,2.1429,-753.926,-1107.5)"
       gradientUnits="userSpaceOnUse">
      <stop
         stop-color="#3889e9"
         offset="0"
         id="stop871" />
      <stop
         stop-color="#5ea5fb"
         offset="1"
         id="stop873" />
    </linearGradient>
    <style
       type="text/css"
       id="style876" />
    <style
       type="text/css"
       id="style878" />
    <filter
       id="filter1057-0"
       x="-0.027000001"
       y="-0.027000001"
       width="1.054"
       height="1.054"
       color-interpolation-filters="sRGB">
      <feGaussianBlur
         stdDeviation="0.61875"
         id="feGaussianBlur880" />
    </filter>
    <linearGradient
       id="linearGradient1053-2"
       x1="-127"
       x2="-72"
       y1="60"
       y2="5"
       gradientTransform="translate(203.93,-0.054156)"
       gradientUnits="userSpaceOnUse">
      <stop
         stop-color="#1d2123"
         offset="0"
         id="stop883" />
      <stop
         stop-color="#33393e"
         stop-opacity=".99608"
         offset="1"
         id="stop885" />
    </linearGradient>
    <linearGradient
       id="b-3-3"
       x1="399.57"
       x2="399.57"
       y1="545.8"
       y2="517.8"
       gradientTransform="matrix(0.56696445,0,0,0.56696445,-218.63929,-293.15252)"
       gradientUnits="userSpaceOnUse">
      <stop
         stop-color="#3889e9"
         offset="0"
         id="stop850-3" />
      <stop
         stop-color="#5ea5fb"
         offset="1"
         id="stop852-7" />
    </linearGradient>
    <style
       type="text/css"
       id="style14-2" />
    <style
       type="text/css"
       id="style16-8" />
    <filter
       id="filter2761-36"
       x="-.024"
       y="-.024"
       width="1.048"
       height="1.048"
       color-interpolation-filters="sRGB">
      <feGaussianBlur
         stdDeviation="0.14552168"
         id="feGaussianBlur31-1" />
    </filter>
    <filter
       id="filter2761-3-3"
       x="-.024"
       y="-.024"
       width="1.048"
       height="1.048"
       color-interpolation-filters="sRGB">
      <feGaussianBlur
         stdDeviation="0.14552168"
         id="feGaussianBlur2-1" />
    </filter>
    <filter
       color-interpolation-filters="sRGB"
       height="1.1062"
       width="1.138"
       y="-.053076"
       x="-.069001"
       id="filter911">
      <feGaussianBlur
         id="feGaussianBlur2-3-4"
         stdDeviation="0.5750183" />
    </filter>
    <linearGradient
       gradientUnits="userSpaceOnUse"
       y2="24.006"
       y1="24.006"
       x2="34.001"
       x1="14"
       id="linearGradient921">
      <stop
         id="stop5-6"
         offset="0"
         stop-color="#fff" />
      <stop
         id="stop7-7-7"
         offset="1"
         stop-color="#e6e6e6" />
    </linearGradient>
    <linearGradient
       gradientUnits="userSpaceOnUse"
       gradientTransform="matrix(3.7795,0,0,3.7795,-78.322643,0.031541)"
       y2="1.852"
       y1="15.081"
       x2="7.9373"
       x1="7.9373"
       id="linearGradient862-3">
      <stop
         id="stop10-8"
         offset="0"
         stop-color="#1a1a1a" />
      <stop
         id="stop12-2"
         offset="1"
         stop-color="#4d4d4d" />
    </linearGradient>
    <filter
       id="filter11290-4"
       x="-0.024"
       y="-0.024"
       width="1.048"
       height="1.048"
       color-interpolation-filters="sRGB">
      <feGaussianBlur
         stdDeviation="0.15875313"
         id="feGaussianBlur861" />
    </filter>
    <linearGradient
       id="linearGradient938-9"
       x1="99.523"
       x2="103.24"
       y1="38.494"
       y2="41.915"
       gradientTransform="matrix(1.3333,0,0,1.3333,-173.92318,-21.795)"
       gradientUnits="userSpaceOnUse">
      <stop
         stop-color="#6eb92e"
         offset="0"
         id="stop1023" />
      <stop
         stop-color="#4592d6"
         offset="1"
         id="stop1025" />
    </linearGradient>
    <linearGradient
       id="b-3-1"
       x1="399.57"
       x2="399.57"
       y1="545.8"
       y2="517.8"
       gradientTransform="matrix(2.1429,0,0,2.1429,-824.70318,-1107.5)"
       gradientUnits="userSpaceOnUse">
      <stop
         stop-color="#3889e9"
         offset="0"
         id="stop1028" />
      <stop
         stop-color="#5ea5fb"
         offset="1"
         id="stop1030" />
    </linearGradient>
    <style
       type="text/css"
       id="style1033" />
    <style
       type="text/css"
       id="style1035" />
    <style
       type="text/css"
       id="style1037" />
    <style
       type="text/css"
       id="style1039" />
    <filter
       id="filter11290-2"
       x="-.024"
       y="-.024"
       width="1.048"
       height="1.048"
       color-interpolation-filters="sRGB">
      <feGaussianBlur
         stdDeviation="0.15875313"
         id="feGaussianBlur1041" />
    </filter>
    <linearGradient
       id="linearGradient1005-5"
       x1=".73911"
       x2="16.388"
       y1="16.296"
       y2=".64687"
       gradientTransform="matrix(3.7796,0,0,3.7796,-0.1311475,0.025467)"
       gradientUnits="userSpaceOnUse">
      <stop
         stop-color="#1d2123"
         offset="0"
         id="stop1044" />
      <stop
         stop-color="#33393e"
         offset="1"
         id="stop1046" />
    </linearGradient>
    <linearGradient
       inkscape:collect="always"
       xlink:href="#linearGradient1105"
       id="linearGradient1107"
       x1="-78.74604"
       y1="61.416798"
       x2="-19.140511"
       y2="2.0140846"
       gradientUnits="userSpaceOnUse"
       gradientTransform="translate(80.948208)" />
  </defs>
  <circle
     id="circle52"
     stroke-width="1.5715"
     fill="url(#b-3)"
     r="0"
     cy="32.043999"
     cx="32.02"
     style="fill:url(#b-3)" />
  <g
     id="g989"
     fill="#5e4aa6">
    <circle
       id="circle945"
       r="0"
       cy="-1241.6"
       cx="-1248.7" />
    <circle
       id="circle947"
       fill-rule="evenodd"
       r="0"
       cy="23.855"
       cx="-149.14999" />
    <circle
       id="circle949"
       r="0"
       cy="-1241.6"
       cx="-1248.7" />
    <circle
       id="circle951"
       fill-rule="evenodd"
       r="0"
       cy="23.855"
       cx="-149.14999" />
    <circle
       id="circle953"
       r="0"
       cy="-1256.6"
       cx="-1150.9" />
    <circle
       id="circle955"
       fill-rule="evenodd"
       r="0"
       cy="8.8744001"
       cx="-51.327" />
    <g
       id="g987"
       stroke-width="0.26458"
       transform="matrix(3.7796,0,0,3.7796,167.86,4.61)">
      <g
         id="g965"
         transform="translate(-0.0272,0.0065001)">
        <circle
           id="circle957"
           r="0"
           cy="-328.38"
           cx="-330.35001" />
        <circle
           id="circle959"
           r="0"
           cy="-326.25"
           cx="-312.10999" />
        <circle
           id="circle961"
           r="0"
           cy="-333.07001"
           cx="-306.01999" />
        <circle
           id="circle963"
           r="0"
           cy="-326.01001"
           cx="-308.84" />
      </g>
      <g
         id="g975"
         transform="translate(-0.0272,0.0065001)">
        <circle
           id="circle967"
           r="0"
           cy="-328.38"
           cx="-330.35001" />
        <circle
           id="circle969"
           r="0"
           cy="-326.25"
           cx="-312.10999" />
        <circle
           id="circle971"
           r="0"
           cy="-333.07001"
           cx="-306.01999" />
        <circle
           id="circle973"
           r="0"
           cy="-326.01001"
           cx="-308.84" />
      </g>
      <g
         id="g985"
         transform="translate(-0.02705,0.0064503)">
        <circle
           id="circle977"
           r="0"
           cy="-328.38"
           cx="-330.35001" />
        <circle
           id="circle979"
           r="0"
           cy="-326.25"
           cx="-312.10999" />
        <circle
           id="circle981"
           r="0"
           cy="-333.07001"
           cx="-306.01999" />
        <circle
           id="circle983"
           r="0"
           cy="-326.01001"
           cx="-308.84" />
      </g>
    </g>
  </g>
  <g
     id="g1009"
     fill="#5e4aa6"
     transform="translate(-168.12,-62.045)">
    <circle
       id="circle991"
       r="0"
       cy="-1241.6"
       cx="-1248.7" />
    <circle
       id="circle993"
       fill-rule="evenodd"
       r="0"
       cy="23.855"
       cx="-149.14999" />
    <circle
       id="circle995"
       r="0"
       cy="-1256.6"
       cx="-1150.9" />
    <circle
       id="circle997"
       fill-rule="evenodd"
       r="0"
       cy="8.8744001"
       cx="-51.327" />
    <g
       id="g1007"
       stroke-width="0.26458"
       transform="matrix(3.7796,0,0,3.7796,-0.10224,0.02438)">
      <circle
         id="circle999"
         r="0"
         cy="-328.38"
         cx="-330.35001" />
      <circle
         id="circle1001"
         r="0"
         cy="-326.25"
         cx="-312.10999" />
      <circle
         id="circle1003"
         r="0"
         cy="-333.07001"
         cx="-306.01999" />
      <circle
         id="circle1005"
         r="0"
         cy="-326.01001"
         cx="-308.84" />
    </g>
  </g>
  <g
     id="g1023"
     stroke-width="0.26458"
     fill="#5e4aa6"
     transform="matrix(3.7796,0,0,3.7796,-168.23,-62.021)">
    <circle
       id="circle1015"
       r="0"
       cy="-328.38"
       cx="-330.35001" />
    <circle
       id="circle1017"
       r="0"
       cy="-326.25"
       cx="-312.10999" />
    <circle
       id="circle1019"
       r="0"
       cy="-333.07001"
       cx="-306.01999" />
    <circle
       id="circle1021"
       r="0"
       cy="-326.01001"
       cx="-308.84" />
  </g>
  <g
     id="g1065"
     fill="#5e4aa6"
     transform="translate(-285.54,-103.27)">
    <circle
       id="circle1025"
       r="0"
       cy="-1241.6"
       cx="-1248.7" />
    <circle
       id="circle1027"
       fill-rule="evenodd"
       r="0"
       cy="23.855"
       cx="-149.14999" />
    <circle
       id="circle1029"
       r="0"
       cy="-1256.6"
       cx="-1150.9" />
    <circle
       id="circle1031"
       fill-rule="evenodd"
       r="0"
       cy="8.8744001"
       cx="-51.327" />
    <g
       id="g1063"
       stroke-width="0.26458"
       transform="matrix(3.7796,0,0,3.7796,167.86,4.61)">
      <g
         id="g1041"
         transform="translate(-0.0272,0.0065001)">
        <circle
           id="circle1033"
           r="0"
           cy="-328.38"
           cx="-330.35001" />
        <circle
           id="circle1035"
           r="0"
           cy="-326.25"
           cx="-312.10999" />
        <circle
           id="circle1037"
           r="0"
           cy="-333.07001"
           cx="-306.01999" />
        <circle
           id="circle1039"
           r="0"
           cy="-326.01001"
           cx="-308.84" />
      </g>
      <g
         id="g1051"
         transform="translate(-0.0272,0.0065001)">
        <circle
           id="circle1043"
           r="0"
           cy="-328.38"
           cx="-330.35001" />
        <circle
           id="circle1045"
           r="0"
           cy="-326.25"
           cx="-312.10999" />
        <circle
           id="circle1047"
           r="0"
           cy="-333.07001"
           cx="-306.01999" />
        <circle
           id="circle1049"
           r="0"
           cy="-326.01001"
           cx="-308.84" />
      </g>
      <g
         id="g1061"
         transform="translate(-0.02705,0.0064503)">
        <circle
           id="circle1053"
           r="0"
           cy="-328.38"
           cx="-330.35001" />
        <circle
           id="circle1055"
           r="0"
           cy="-326.25"
           cx="-312.10999" />
        <circle
           id="circle1057"
           r="0"
           cy="-333.07001"
           cx="-306.01999" />
        <circle
           id="circle1059"
           r="0"
           cy="-326.01001"
           cx="-308.84" />
      </g>
    </g>
  </g>
  <circle
     id="circle1270"
     fill="#5e4aa6"
     r="0"
     cy="-1271.9016"
     cx="-1323.2103" />
  <circle
     id="circle1272"
     fill-rule="evenodd"
     fill="#5e4aa6"
     r="0"
     cy="-6.4465895"
     cx="-223.66037" />
  <g
     id="g1296"
     stroke-width="0.26458"
     fill="#5e4aa6"
     transform="matrix(3.7796,0,0,3.7796,-177.43037,-69.021589)">
    <circle
       id="circle1288"
       r="0"
       cy="-328.38"
       cx="-330.35001" />
    <circle
       id="circle1290"
       r="0"
       cy="-326.25"
       cx="-312.10999" />
    <circle
       id="circle1292"
       r="0"
       cy="-333.07001"
       cx="-306.01999" />
    <circle
       id="circle1294"
       r="0"
       cy="-326.01001"
       cx="-308.84" />
  </g>
  <g
     transform="matrix(3.779602,0,0,3.779602,-179.11619,0.45588476)"
     fill="#5e4aa6"
     stroke-width="0.26458"
     id="g884">
    <circle
       cx="-330.35001"
       cy="-328.37"
       r="0"
       image-rendering="optimizeSpeed"
       id="circle862" />
    <circle
       cx="-330.35001"
       cy="-328.38"
       r="0"
       image-rendering="optimizeSpeed"
       id="circle864" />
    <circle
       cx="-330.35001"
       cy="-328.38"
       r="0"
       image-rendering="optimizeSpeed"
       id="circle866" />
    <circle
       cx="-352.63"
       cy="-336.84"
       r="0"
       image-rendering="optimizeSpeed"
       id="circle868" />
    <circle
       cx="-330.35001"
       cy="-328.37"
       r="0"
       image-rendering="optimizeSpeed"
       id="circle870" />
    <circle
       cx="-305.84"
       cy="-328.26999"
       r="0"
       image-rendering="optimizeSpeed"
       id="circle872" />
    <circle
       cx="-305.84"
       cy="-328.28"
       r="0"
       image-rendering="optimizeSpeed"
       id="circle874" />
    <circle
       cx="-305.84"
       cy="-328.28"
       r="0"
       image-rendering="optimizeSpeed"
       id="circle876" />
    <circle
       cx="-328.12"
       cy="-336.73999"
       r="0"
       image-rendering="optimizeSpeed"
       id="circle878" />
    <circle
       cx="-305.84"
       cy="-328.26999"
       r="0"
       image-rendering="optimizeSpeed"
       id="circle880" />
    <circle
       cx="-305.03"
       cy="-328.69"
       r="0"
       id="circle882" />
  </g>
  <circle
     cx="-147.10719"
     cy="32"
     r="0"
     fill="url(#b)"
     stroke-width="1.5715"
     id="circle892"
     style="fill:url(#b-3-0)" />
  <circle
     style="stroke-width:1"
     cx="-1501.6783"
     cy="-1241.1442"
     r="0"
     fill="#5e4aa6"
     id="circle41" />
  <circle
     style="stroke-width:1"
     cx="-402.1283"
     cy="24.310843"
     r="0"
     fill="#5e4aa6"
     fill-rule="evenodd"
     id="circle43" />
  <circle
     transform="matrix(3.7796,0,0,3.7796,-0.10278795,0.02458453)"
     cx="8.4937"
     cy="8.46"
     r="7.9376998"
     filter="url(#filter11290)"
     opacity="0.25"
     stroke-width="0.14032"
     id="circle1051"
     style="filter:url(#filter11290-2)" />
  <g
     fill="#5e4aa6"
     id="g1103"
     transform="translate(-70.773181)">
    <circle
       cx="-1250.1"
       cy="-1241.1"
       r="0"
       id="circle1085" />
    <circle
       cx="-150.58"
       cy="24.311001"
       r="0"
       fill-rule="evenodd"
       id="circle1087" />
    <circle
       cx="-1163.3"
       cy="-1241.6"
       r="0"
       id="circle1089" />
    <circle
       cx="-63.768002"
       cy="23.855"
       r="0"
       fill-rule="evenodd"
       id="circle1091" />
    <g
       transform="matrix(3.7796,0,0,3.7796,-17.538,-38.72)"
       stroke-width="0.26458"
       id="g1101">
      <circle
         cx="-330.35001"
         cy="-328.38"
         r="0"
         id="circle1093" />
      <circle
         cx="-312.10999"
         cy="-326.25"
         r="0"
         id="circle1095" />
      <circle
         cx="-306.01999"
         cy="-333.07001"
         r="0"
         id="circle1097" />
      <circle
         cx="-308.84"
         cy="-326.01001"
         r="0"
         id="circle1099" />
    </g>
  </g>
  <circle
     cx="110.3147"
     cy="31.912609"
     fill="url(#a)"
     id="ellipse17"
     r="0"
     style="fill:url(#a);stroke-width:1.91748" />
  <g
     transform="matrix(3.7796,0,0,3.7796,72.438998,0.45588)"
     fill="#5e4aa6"
     stroke-width="0.26458"
     id="g924">
    <circle
       cx="-330.35001"
       cy="-328.37"
       r="0"
       image-rendering="optimizeSpeed"
       id="circle902" />
    <circle
       cx="-330.35001"
       cy="-328.38"
       r="0"
       image-rendering="optimizeSpeed"
       id="circle904" />
    <circle
       cx="-330.35001"
       cy="-328.38"
       r="0"
       image-rendering="optimizeSpeed"
       id="circle906" />
    <circle
       cx="-352.63"
       cy="-336.84"
       r="0"
       image-rendering="optimizeSpeed"
       id="circle908" />
    <circle
       cx="-330.35001"
       cy="-328.37"
       r="0"
       image-rendering="optimizeSpeed"
       id="circle910" />
    <circle
       cx="-305.84"
       cy="-328.26999"
       r="0"
       image-rendering="optimizeSpeed"
       id="circle912" />
    <circle
       cx="-305.84"
       cy="-328.28"
       r="0"
       image-rendering="optimizeSpeed"
       id="circle914" />
    <circle
       cx="-305.84"
       cy="-328.28"
       r="0"
       image-rendering="optimizeSpeed"
       id="circle916" />
    <circle
       cx="-328.12"
       cy="-336.73999"
       r="0"
       image-rendering="optimizeSpeed"
       id="circle918" />
    <circle
       cx="-305.84"
       cy="-328.26999"
       r="0"
       image-rendering="optimizeSpeed"
       id="circle920" />
    <circle
       cx="-305.03"
       cy="-328.69"
       r="0"
       id="circle922" />
  </g>
  <circle
     cx="104.444"
     cy="32"
     r="0"
     fill="url(#b-3)"
     stroke-width="1.5715"
     id="circle926"
     style="fill:url(#b-3-2)" />
  <circle
     cx="-1250.0959"
     cy="-1241.1"
     r="0"
     fill="#5e4aa6"
     id="circle928" />
  <circle
     cx="-150.576"
     cy="24.311001"
     r="0"
     fill="#5e4aa6"
     fill-rule="evenodd"
     id="circle930" />
  <g
     transform="matrix(3.7796,0,0,3.7796,1.661819,0.45588)"
     fill="#5e4aa6"
     stroke-width="0.26458"
     id="g1081">
    <circle
       cx="-330.35001"
       cy="-328.37"
       r="0"
       image-rendering="optimizeSpeed"
       id="circle1059-3" />
    <circle
       cx="-330.35001"
       cy="-328.38"
       r="0"
       image-rendering="optimizeSpeed"
       id="circle1061" />
    <circle
       cx="-330.35001"
       cy="-328.38"
       r="0"
       image-rendering="optimizeSpeed"
       id="circle1063" />
    <circle
       cx="-352.63"
       cy="-336.84"
       r="0"
       image-rendering="optimizeSpeed"
       id="circle1065" />
    <circle
       cx="-330.35001"
       cy="-328.37"
       r="0"
       image-rendering="optimizeSpeed"
       id="circle1067" />
    <circle
       cx="-305.84"
       cy="-328.26999"
       r="0"
       image-rendering="optimizeSpeed"
       id="circle1069" />
    <circle
       cx="-305.84"
       cy="-328.28"
       r="0"
       image-rendering="optimizeSpeed"
       id="circle1071" />
    <circle
       cx="-305.84"
       cy="-328.28"
       r="0"
       image-rendering="optimizeSpeed"
       id="circle1073" />
    <circle
       cx="-328.12"
       cy="-336.73999"
       r="0"
       image-rendering="optimizeSpeed"
       id="circle1075" />
    <circle
       cx="-305.84"
       cy="-328.26999"
       r="0"
       image-rendering="optimizeSpeed"
       id="circle1077" />
    <circle
       cx="-305.03"
       cy="-328.69"
       r="0"
       id="circle1079" />
  </g>
  <circle
     cx="33.666821"
     cy="32"
     r="0"
     fill="url(#b-3)"
     stroke-width="1.5715"
     id="circle1083"
     style="fill:url(#b-3-1)" />
  <path
     transform="matrix(0.95830141,0,0,0.95830141,1.5940197,1.5942631)"
     d="m 31.729,15.619 c -1.959,0 -3.914,0.034 -5.475,0.105 -0.78,0.037 -1.457,0.081 -2.018,0.14 -0.279,0.03 -0.527,0.064 -0.772,0.11 -0.244,0.046 -0.428,0.034 -0.918,0.31 -0.49,0.274 -0.574,0.436 -0.738,0.619 a 8.956,8.956 0 0 0 -0.483,0.595 33.005,33.005 0 0 0 -1.133,1.625 117.02,117.02 0 0 0 -2.833,4.55 116.47,116.47 0 0 0 -2.64,4.657 32.763,32.763 0 0 0 -0.886,1.767 c -0.113,0.25 -0.209,0.474 -0.289,0.703 -0.081,0.229 -0.185,0.38 -0.185,0.929 0,0.549 0.104,0.7 0.185,0.929 0.08,0.229 0.176,0.453 0.289,0.703 0.227,0.5 0.527,1.093 0.885,1.767 0.716,1.348 1.662,3.01 2.641,4.656 a 134.03,134.03 0 0 0 1.847,3.008 l -2.552,8.156 6.402,-3.547 c 0.156,0.046 0.275,0.057 0.41,0.083 0.243,0.047 0.492,0.08 0.771,0.11 0.56,0.059 1.237,0.103 2.018,0.139 1.56,0.072 3.515,0.107 5.474,0.107 1.959,0 3.913,-0.035 5.473,-0.106 a 35.044,35.044 0 0 0 2.019,-0.14 c 0.279,-0.03 0.528,-0.064 0.772,-0.11 0.245,-0.046 0.43,-0.034 0.92,-0.31 0.49,-0.274 0.573,-0.436 0.737,-0.619 a 9.26,9.26 0 0 0 0.483,-0.595 c 0.332,-0.44 0.711,-0.987 1.133,-1.625 a 117.02,117.02 0 0 0 2.833,-4.55 116.48,116.48 0 0 0 2.64,-4.657 32.04,32.04 0 0 0 0.884,-1.767 8.807,8.807 0 0 0 0.291,-0.703 c 0.081,-0.229 0.185,-0.38 0.185,-0.929 0,-0.549 -0.104,-0.7 -0.185,-0.929 A 8.805,8.805 0 0 0 49.624,30.097 32.651,32.651 0 0 0 48.74,28.33 116.48,116.48 0 0 0 46.099,23.674 117.04,117.04 0 0 0 43.266,19.124 33.012,33.012 0 0 0 42.133,17.498 8.957,8.957 0 0 0 41.65,16.903 c -0.164,-0.183 -0.247,-0.345 -0.738,-0.62 -0.49,-0.275 -0.674,-0.263 -0.918,-0.31 a 9.436,9.436 0 0 0 -0.773,-0.108 35.04,35.04 0 0 0 -2.018,-0.14 c -1.56,-0.072 -3.515,-0.107 -5.474,-0.107 z m 0,3.664 c 1.912,0 3.828,0.036 5.295,0.103 0.212,0.01 0.326,0.026 0.517,0.037 l -5.845,8.701 -5.917,-8.693 c 0.235,-0.015 0.386,-0.032 0.655,-0.045 1.467,-0.067 3.383,-0.102 5.295,-0.102 z m 9.242,3.2 a 127.72,127.72 0 0 1 1.858,3.024 113.92,113.92 0 0 1 2.557,4.502 c 0.336,0.635 0.61,1.182 0.783,1.564 0.032,0.071 0.04,0.097 0.065,0.156 -0.024,0.059 -0.033,0.084 -0.065,0.156 -0.173,0.382 -0.447,0.93 -0.783,1.564 a 113.92,113.92 0 0 1 -2.557,4.502 123,123 0 0 1 -2.113,3.422 l -6.258,-9.195 z m -18.551,0.105 6.54,9.609 -6.191,9.217 a 122.51,122.51 0 0 1 -2.14,-3.463 113.92,113.92 0 0 1 -2.557,-4.502 30.098,30.098 0 0 1 -0.783,-1.564 c -0.032,-0.071 -0.04,-0.097 -0.065,-0.156 0.024,-0.059 0.033,-0.084 0.065,-0.156 0.173,-0.382 0.447,-0.93 0.783,-1.564 0.674,-1.267 1.6,-2.895 2.557,-4.502 a 129.19,129.19 0 0 1 1.791,-2.919 z m 9.302,13.662 5.323,7.82 -0.02,0.002 c -1.468,0.067 -3.384,0.102 -5.296,0.102 -1.899,0 -3.799,-0.035 -5.263,-0.1 z"
     color="#000000"
     display="block"
     filter="url(#filter909)"
     font-weight="400"
     opacity="0.25"
     overflow="visible"
     stroke-width="0.892"
     style="font-variant-ligatures:normal;font-variant-position:normal;font-variant-caps:normal;font-variant-numeric:normal;font-variant-alternates:normal;font-feature-settings:normal;text-indent:0;text-decoration:none;text-decoration-line:none;text-decoration-style:solid;text-decoration-color:#000000;text-transform:none;text-orientation:mixed;white-space:normal;shape-padding:0;isolation:auto;mix-blend-mode:normal;paint-order:fill markers stroke;filter:url(#filter909-3)"
     id="path1397" />
  <circle
     style="opacity:1;fill:url(#linearGradient1107);fill-opacity:1;stroke-width:2.67988;stroke-linecap:round;stroke-linejoin:round;paint-order:stroke fill markers"
     id="path1099"
     cx="32"
     cy="32"
     r="30" />
  <path
     id="path1399"
     style="fill:#ffffff;fill-opacity:1;stroke-width:1.5;stroke-linecap:round;stroke-linejoin:round;paint-order:stroke fill markers"
     d="m 32,16.560547 v 0.002 c -1.877271,0 -3.750228,0.03157 -5.246094,0.09961 -0.747476,0.03546 -1.396028,0.07822 -1.933594,0.134766 -0.267365,0.02875 -0.505451,0.06139 -0.740234,0.105469 -0.233826,0.04408 -0.411291,0.03238 -0.880859,0.296875 -0.469568,0.262575 -0.549869,0.418381 -0.707031,0.59375 a 8.5822141,8.5822141 0 0 0 -0.462891,0.570312 31.628946,31.628946 0 0 0 -1.085938,1.556641 112.13793,112.13793 0 0 0 -2.714843,4.361328 111.61295,111.61295 0 0 0 -2.529297,4.462891 31.396454,31.396454 0 0 0 -0.84961,1.691406 c -0.108288,0.239576 -0.198726,0.454377 -0.27539,0.673828 -0.07762,0.219451 -0.177735,0.364476 -0.177735,0.890625 0,0.526149 0.10011,0.671132 0.177735,0.890625 0.07666,0.219451 0.167102,0.434252 0.27539,0.673828 0.217535,0.47915 0.506496,1.047547 0.84961,1.693359 0.686144,1.29179 1.591078,2.883574 2.529297,4.460938 A 128.43739,128.43739 0 0 0 20,42.601562 l -2.447266,7.816407 6.136719,-3.398438 c 0.149495,0.04408 0.263207,0.0532 0.392578,0.07813 0.232867,0.04504 0.470916,0.07672 0.738281,0.105469 0.53665,0.05654 1.185202,0.100272 1.933594,0.134766 1.49495,0.069 3.36874,0.101562 5.246094,0.101562 1.877354,0 3.749191,-0.03352 5.244141,-0.101562 a 33.583048,33.583048 0 0 0 1.935547,-0.134766 c 0.267366,-0.02875 0.506408,-0.06139 0.740234,-0.105469 0.234784,-0.04408 0.411291,-0.03238 0.880859,-0.296875 0.469568,-0.262575 0.54987,-0.416428 0.707031,-0.591797 a 8.873871,8.873871 0 0 0 0.462891,-0.570312 c 0.318156,-0.421653 0.681493,-0.947115 1.085938,-1.558594 a 112.14626,112.14626 0 0 0 2.714843,-4.359375 111.62128,111.62128 0 0 0 2.529297,-4.462891 30.703977,30.703977 0 0 0 0.847657,-1.693359 8.4397188,8.4397188 0 0 0 0.279296,-0.673828 c 0.07762,-0.219456 0.175782,-0.364481 0.175782,-0.89063 0,-0.526149 -0.09816,-0.671133 -0.175782,-0.890625 A 8.4380522,8.4380522 0 0 0 49.148438,30.435547 31.289791,31.289791 0 0 0 48.300781,28.744141 111.62128,111.62128 0 0 0 45.771484,24.28125 112.1546,112.1546 0 0 0 43.056641,19.921875 31.635613,31.635613 0 0 0 41.970703,18.363281 8.5838807,8.5838807 0 0 0 41.507812,17.792969 c -0.157161,-0.17537 -0.236505,-0.330217 -0.707031,-0.59375 -0.469568,-0.263533 -0.647033,-0.251834 -0.880859,-0.296875 A 9.0421987,9.0421987 0 0 0 39.179688,16.798828 33.578881,33.578881 0 0 0 37.246094,16.664062 C 35.751144,16.595062 33.877271,16.560547 32,16.560547 Z m 0,3.513672 c 1.832272,0 3.668349,0.03346 5.074219,0.09766 0.20316,0.0096 0.313058,0.02462 0.496093,0.03516 L 31.96875,28.54493 26.298828,20.214852 c 0.225201,-0.01437 0.36917,-0.03051 0.626953,-0.04297 1.405787,-0.06421 3.241946,-0.09766 5.074219,-0.09766 z m 8.855469,3.066406 a 122.39592,122.39592 0 0 1 1.78125,2.896484 109.16303,109.16303 0 0 1 2.451172,4.314453 c 0.321989,0.608523 0.584214,1.133929 0.75,1.5 0.03067,0.06804 0.03854,0.09189 0.0625,0.148438 -0.023,0.05654 -0.03183,0.0814 -0.0625,0.150391 -0.165786,0.366071 -0.428011,0.890483 -0.75,1.498047 a 109.17136,109.17136 0 0 1 -2.451172,4.314453 117.87107,117.87107 0 0 1 -2.025391,3.279297 l -5.996094,-8.810547 z m -17.777344,0.09961 6.267578,9.208985 -5.931641,8.832031 a 117.40442,117.40442 0 0 1 -2.050781,-3.318359 109.17136,109.17136 0 0 1 -2.451172,-4.314453 28.843206,28.843206 0 0 1 -0.75,-1.498047 c -0.03067,-0.06804 -0.03854,-0.09386 -0.0625,-0.150391 0.023,-0.05654 0.03183,-0.07944 0.0625,-0.148438 0.165786,-0.366071 0.428011,-0.892436 0.75,-1.5 0.645895,-1.214126 1.534036,-2.774421 2.451172,-4.314453 a 123.80421,123.80421 0 0 1 1.714844,-2.796875 z m 8.914063,13.091797 5.101562,7.494141 -0.01953,0.002 c -1.406786,0.06421 -3.241947,0.09766 -5.074219,0.09766 -1.819773,0 -3.641968,-0.03341 -5.044922,-0.0957 z" />
</svg>
