<?xml version="1.0" encoding="UTF-8" standalone="no"?>
<svg
   xmlns:dc="http://purl.org/dc/elements/1.1/"
   xmlns:cc="http://creativecommons.org/ns#"
   xmlns:rdf="http://www.w3.org/1999/02/22-rdf-syntax-ns#"
   xmlns:svg="http://www.w3.org/2000/svg"
   xmlns="http://www.w3.org/2000/svg"
   xmlns:xlink="http://www.w3.org/1999/xlink"
   xmlns:sodipodi="http://sodipodi.sourceforge.net/DTD/sodipodi-0.dtd"
   xmlns:inkscape="http://www.inkscape.org/namespaces/inkscape"
   inkscape:version="1.0 (4035a4fb49, 2020-05-01)"
   sodipodi:docname="hexchat.svg"
   id="svg42"
   viewBox="0 0 64 64"
   version="1.1"
   height="64"
   width="64">
  <metadata
     id="metadata46">
    <rdf:RDF>
      <cc:Work
         rdf:about="">
        <dc:format>image/svg+xml</dc:format>
        <dc:type
           rdf:resource="http://purl.org/dc/dcmitype/StillImage" />
        <dc:title></dc:title>
      </cc:Work>
    </rdf:RDF>
  </metadata>
  <sodipodi:namedview
     inkscape:current-layer="svg42"
     inkscape:window-maximized="1"
     inkscape:window-y="36"
     inkscape:window-x="0"
     inkscape:cy="82.66781"
     inkscape:cx="22.728218"
     inkscape:zoom="2.1075097"
     showgrid="false"
     id="namedview44"
     inkscape:window-height="932"
     inkscape:window-width="1920"
     inkscape:pageshadow="2"
     inkscape:pageopacity="0"
     guidetolerance="10"
     gridtolerance="10"
     objecttolerance="10"
     borderopacity="1"
     bordercolor="#666666"
     pagecolor="#ffffff" />
  <defs
     id="defs18">
    <filter
       color-interpolation-filters="sRGB"
       height="1.1224"
       width="1.1177"
       y="-.061197"
       x="-.058849"
       id="filter909">
      <feGaussianBlur
         id="feGaussianBlur2"
         stdDeviation="0.90087503" />
    </filter>
    <filter
       color-interpolation-filters="sRGB"
       height="1.1272"
       width="1.1135"
       y="-.063623"
       x="-.056768"
       id="filter935">
      <feGaussianBlur
         id="feGaussianBlur5"
         stdDeviation="1.060375" />
    </filter>
    <linearGradient
       gradientTransform="translate(86.949358)"
       gradientUnits="userSpaceOnUse"
       y2="10.968"
       y1="56.798"
       x2="31.073"
       x1="30.242"
       id="linearGradient949">
      <stop
         id="stop8"
         offset="0"
         stop-color="#ff8a34" />
      <stop
         id="stop10"
         offset="1"
         stop-color="#ffdc34" />
    </linearGradient>
    <linearGradient
       gradientUnits="userSpaceOnUse"
       gradientTransform="matrix(1.5,0,0,1.5,-669.28064,-752.85)"
       y2="508.15"
       y1="540.16"
       x2="525.29"
       x1="525.29"
       id="linearGradient879">
      <stop
         id="stop13"
         offset="0"
         stop-color="#18222a" />
      <stop
         id="stop15"
         offset="1"
         stop-color="#566069" />
    </linearGradient>
    <linearGradient
       id="linearGradient964"
       inkscape:collect="always">
      <stop
         id="stop960"
         offset="0"
         style="stop-color:#19232d;stop-opacity:1" />
      <stop
         id="stop962"
         offset="1"
         style="stop-color:#555f69;stop-opacity:1" />
    </linearGradient>
    <linearGradient
       id="linearGradient910"
       x1="45"
       x2="60.076"
       y1="19"
       y2="3.9236"
       gradientTransform="matrix(0.89283,0,0,-0.89283,114.05436,60.491)"
       gradientUnits="userSpaceOnUse">
      <stop
         stop-color="#fff"
         offset="0"
         id="stop2" />
      <stop
         stop-color="#ffefcc"
         offset="1"
         id="stop4" />
    </linearGradient>
    <radialGradient
       id="radialGradient1089"
       cx="-10.016"
       cy="4.9291"
       r="1.6997"
       gradientTransform="matrix(6.8413,0.088798,-0.13161,10.14,218.5036,-115.08867)"
       gradientUnits="userSpaceOnUse">
      <stop
         offset="0"
         id="stop7" />
      <stop
         stop-opacity=".33"
         offset=".47598"
         id="stop9" />
      <stop
         stop-opacity=".01"
         offset=".86209"
         id="stop11" />
      <stop
         stop-opacity="0"
         offset="1"
         id="stop13-3" />
    </radialGradient>
    <linearGradient
       id="linearGradient940"
       x1="30"
       x2="30"
       y1="54"
       y2="9"
       gradientTransform="matrix(1,0,0,-1,110.62576,63.947)"
       gradientUnits="userSpaceOnUse">
      <stop
         stop-color="#fff"
         offset="0"
         id="stop16" />
      <stop
         stop-color="#f5f5f5"
         offset="1"
         id="stop18" />
    </linearGradient>
    <linearGradient
       id="b-3"
       x1="399.57"
       x2="399.57"
       y1="545.8"
       y2="517.8"
       gradientTransform="matrix(2.1429,0,0,2.1429,-826.36,-1107.5)"
       gradientUnits="userSpaceOnUse">
      <stop
         stop-color="#3889e9"
         offset="0"
         id="stop21" />
      <stop
         stop-color="#5ea5fb"
         offset="1"
         id="stop23" />
    </linearGradient>
    <linearGradient
       id="linearGradient862"
       x1="7.9373"
       x2="7.9373"
       y1="15.081"
       y2="1.852"
       gradientTransform="matrix(3.7796,0,0,3.7796,110.62576,0)"
       gradientUnits="userSpaceOnUse">
      <stop
         stop-color="#424242"
         offset="0"
         id="stop26" />
      <stop
         stop-color="#272727"
         offset="1"
         id="stop28" />
    </linearGradient>
    <filter
       id="filter1154"
       x="-.10142"
       y="-.11549"
       width="1.2028"
       height="1.231"
       color-interpolation-filters="sRGB">
      <feGaussianBlur
         stdDeviation="1.1577746"
         id="feGaussianBlur31" />
    </filter>
    <style
       id="style921"
       type="text/css" />
    <style
       id="style923"
       type="text/css" />
    <style
       id="style925"
       type="text/css" />
    <style
       id="style927"
       type="text/css" />
    <filter
       color-interpolation-filters="sRGB"
       height="1.048"
       width="1.048"
       y="-.024"
       x="-.024"
       id="filter11290">
      <feGaussianBlur
         id="feGaussianBlur929"
         stdDeviation="0.15875313" />
    </filter>
    <linearGradient
       gradientUnits="userSpaceOnUse"
       gradientTransform="matrix(3.7796,0,0,3.7796,-0.13309,0.024828)"
       y2=".64687"
       y1="16.296"
       x2="16.388"
       x1=".73911"
       id="linearGradient1005">
      <stop
         id="stop932"
         offset="0"
         stop-color="#00dc96" />
      <stop
         id="stop934"
         offset="1"
         stop-color="#14d29b" />
    </linearGradient>
    <style
       id="style937"
       type="text/css" />
    <style
       id="style939"
       type="text/css" />
    <style
       id="style941"
       type="text/css" />
    <linearGradient
       id="linearGradient1057">
      <stop
         id="stop1229"
         offset="0"
         stop-color="#fff" />
      <stop
         id="stop1231"
         offset="1"
         stop-opacity="0"
         stop-color="#fff" />
    </linearGradient>
    <linearGradient
       gradientUnits="userSpaceOnUse"
       gradientTransform="matrix(1.5625,0,0,1.5625,0.40633,-5.1891)"
       y2="52.847"
       y1="27.545"
       x2="34.999"
       x1="34.999"
       id="linearGradient982">
      <stop
         id="stop1234"
         offset="0"
         stop-color="#32b4ff" />
      <stop
         id="stop1236"
         offset="1"
         stop-color="#3287ff" />
    </linearGradient>
    <style
       id="style1239"
       type="text/css" />
    <style
       id="style1241"
       type="text/css" />
    <linearGradient
       gradientUnits="userSpaceOnUse"
       gradientTransform="matrix(1.5625,0,0,1.5625,-9.2253,1.3231)"
       y2="43.681"
       y1="18.052"
       x2="21.314"
       x1="21.314"
       id="linearGradient1047">
      <stop
         id="stop1243"
         offset="0"
         stop-color="#14dc78" />
      <stop
         id="stop1245"
         offset="1"
         stop-color="#14a03c" />
    </linearGradient>
    <linearGradient
       gradientUnits="userSpaceOnUse"
       gradientTransform="matrix(1.5625,0,0,1.5625,-8.1072,-10.908)"
       y2="37.368"
       y1="12.316"
       x2="41.729"
       x1="41.729"
       id="linearGradient1049">
      <stop
         id="stop1248"
         offset="0"
         stop-color="#ff3c64" />
      <stop
         id="stop1250"
         offset="1"
         stop-color="#ff4628" />
    </linearGradient>
    <linearGradient
       xlink:href="#linearGradient1057"
       gradientUnits="userSpaceOnUse"
       gradientTransform="matrix(1,0,0,1.2271,0.20646,-10.975)"
       y2="39.768"
       y1="32.234"
       x2="34.427"
       x1="34.427"
       id="linearGradient1059" />
    <linearGradient
       xlink:href="#linearGradient1057"
       gradientUnits="userSpaceOnUse"
       gradientTransform="matrix(1,0,0,1.2271,-12.55,-19.793)"
       y2="39.768"
       y1="32.234"
       x2="34.427"
       x1="34.427"
       id="linearGradient1063" />
    <linearGradient
       xlink:href="#linearGradient1057"
       gradientUnits="userSpaceOnUse"
       gradientTransform="matrix(1,0,0,1.2271,5.7554,-25.761)"
       y2="39.768"
       y1="32.234"
       x2="34.427"
       x1="34.427"
       id="linearGradient1067" />
    <filter
       color-interpolation-filters="sRGB"
       height="1.048"
       width="1.048"
       y="-.024"
       x="-.024"
       id="filter11290-3">
      <feGaussianBlur
         id="feGaussianBlur1256"
         stdDeviation="0.15875313" />
    </filter>
    <linearGradient
       gradientUnits="userSpaceOnUse"
       gradientTransform="matrix(3.7796,0,0,3.7796,-0.13155,0.0250173)"
       y2=".64687"
       y1="16.296"
       x2="16.388"
       x1=".73911"
       id="linearGradient1005-6">
      <stop
         id="stop1259"
         offset="0"
         stop-color="#dddfe1" />
      <stop
         id="stop1261"
         offset="1"
         stop-color="#f3f4f6" />
    </linearGradient>
    <linearGradient
       gradientTransform="translate(74.651054,0.51509285)"
       gradientUnits="userSpaceOnUse"
       y2="1.8735155"
       x2="-12.677041"
       y1="60.7453"
       x1="-72.471146"
       id="linearGradient966"
       xlink:href="#linearGradient964"
       inkscape:collect="always" />
  </defs>
  <circle
     style="filter:url(#filter11290-3)"
     id="circle1266"
     stroke-width="0.14032"
     opacity="0.25"
     filter="url(#filter11290)"
     r="7.9376998"
     cy="8.46"
     cx="8.4937"
     transform="matrix(3.7796,0,0,3.7796,-0.10278795,0.02458453)" />
  <circle
     id="circle52"
     stroke-width="1.5715"
     fill="url(#b-3)"
     r="0"
     cy="32.043999"
     cx="32.02"
     style="fill:url(#b-3)" />
  <g
     id="g989"
     fill="#5e4aa6">
    <circle
       id="circle945"
       r="0"
       cy="-1241.6"
       cx="-1248.7" />
    <circle
       id="circle947"
       fill-rule="evenodd"
       r="0"
       cy="23.855"
       cx="-149.14999" />
    <circle
       id="circle949"
       r="0"
       cy="-1241.6"
       cx="-1248.7" />
    <circle
       id="circle951"
       fill-rule="evenodd"
       r="0"
       cy="23.855"
       cx="-149.14999" />
    <circle
       id="circle953"
       r="0"
       cy="-1256.6"
       cx="-1150.9" />
    <circle
       id="circle955"
       fill-rule="evenodd"
       r="0"
       cy="8.8744001"
       cx="-51.327" />
    <g
       id="g987"
       stroke-width="0.26458"
       transform="matrix(3.7796,0,0,3.7796,167.86,4.61)">
      <g
         id="g965"
         transform="translate(-0.0272,0.0065001)">
        <circle
           id="circle957"
           r="0"
           cy="-328.38"
           cx="-330.35001" />
        <circle
           id="circle959"
           r="0"
           cy="-326.25"
           cx="-312.10999" />
        <circle
           id="circle961"
           r="0"
           cy="-333.07001"
           cx="-306.01999" />
        <circle
           id="circle963"
           r="0"
           cy="-326.01001"
           cx="-308.84" />
      </g>
      <g
         id="g975"
         transform="translate(-0.0272,0.0065001)">
        <circle
           id="circle967"
           r="0"
           cy="-328.38"
           cx="-330.35001" />
        <circle
           id="circle969"
           r="0"
           cy="-326.25"
           cx="-312.10999" />
        <circle
           id="circle971"
           r="0"
           cy="-333.07001"
           cx="-306.01999" />
        <circle
           id="circle973"
           r="0"
           cy="-326.01001"
           cx="-308.84" />
      </g>
      <g
         id="g985"
         transform="translate(-0.02705,0.0064503)">
        <circle
           id="circle977"
           r="0"
           cy="-328.38"
           cx="-330.35001" />
        <circle
           id="circle979"
           r="0"
           cy="-326.25"
           cx="-312.10999" />
        <circle
           id="circle981"
           r="0"
           cy="-333.07001"
           cx="-306.01999" />
        <circle
           id="circle983"
           r="0"
           cy="-326.01001"
           cx="-308.84" />
      </g>
    </g>
  </g>
  <g
     id="g1009"
     fill="#5e4aa6"
     transform="translate(-168.12,-62.045)">
    <circle
       id="circle991"
       r="0"
       cy="-1241.6"
       cx="-1248.7" />
    <circle
       id="circle993"
       fill-rule="evenodd"
       r="0"
       cy="23.855"
       cx="-149.14999" />
    <circle
       id="circle995"
       r="0"
       cy="-1256.6"
       cx="-1150.9" />
    <circle
       id="circle997"
       fill-rule="evenodd"
       r="0"
       cy="8.8744001"
       cx="-51.327" />
    <g
       id="g1007"
       stroke-width="0.26458"
       transform="matrix(3.7796,0,0,3.7796,-0.10224,0.02438)">
      <circle
         id="circle999"
         r="0"
         cy="-328.38"
         cx="-330.35001" />
      <circle
         id="circle1001"
         r="0"
         cy="-326.25"
         cx="-312.10999" />
      <circle
         id="circle1003"
         r="0"
         cy="-333.07001"
         cx="-306.01999" />
      <circle
         id="circle1005"
         r="0"
         cy="-326.01001"
         cx="-308.84" />
    </g>
  </g>
  <g
     id="g1023"
     stroke-width="0.26458"
     fill="#5e4aa6"
     transform="matrix(3.7796,0,0,3.7796,-168.23,-62.021)">
    <circle
       id="circle1015"
       r="0"
       cy="-328.38"
       cx="-330.35001" />
    <circle
       id="circle1017"
       r="0"
       cy="-326.25"
       cx="-312.10999" />
    <circle
       id="circle1019"
       r="0"
       cy="-333.07001"
       cx="-306.01999" />
    <circle
       id="circle1021"
       r="0"
       cy="-326.01001"
       cx="-308.84" />
  </g>
  <g
     id="g1065"
     fill="#5e4aa6"
     transform="translate(-285.54,-103.27)">
    <circle
       id="circle1025"
       r="0"
       cy="-1241.6"
       cx="-1248.7" />
    <circle
       id="circle1027"
       fill-rule="evenodd"
       r="0"
       cy="23.855"
       cx="-149.14999" />
    <circle
       id="circle1029"
       r="0"
       cy="-1256.6"
       cx="-1150.9" />
    <circle
       id="circle1031"
       fill-rule="evenodd"
       r="0"
       cy="8.8744001"
       cx="-51.327" />
    <g
       id="g1063"
       stroke-width="0.26458"
       transform="matrix(3.7796,0,0,3.7796,167.86,4.61)">
      <g
         id="g1041"
         transform="translate(-0.0272,0.0065001)">
        <circle
           id="circle1033"
           r="0"
           cy="-328.38"
           cx="-330.35001" />
        <circle
           id="circle1035"
           r="0"
           cy="-326.25"
           cx="-312.10999" />
        <circle
           id="circle1037"
           r="0"
           cy="-333.07001"
           cx="-306.01999" />
        <circle
           id="circle1039"
           r="0"
           cy="-326.01001"
           cx="-308.84" />
      </g>
      <g
         id="g1051"
         transform="translate(-0.0272,0.0065001)">
        <circle
           id="circle1043"
           r="0"
           cy="-328.38"
           cx="-330.35001" />
        <circle
           id="circle1045"
           r="0"
           cy="-326.25"
           cx="-312.10999" />
        <circle
           id="circle1047"
           r="0"
           cy="-333.07001"
           cx="-306.01999" />
        <circle
           id="circle1049"
           r="0"
           cy="-326.01001"
           cx="-308.84" />
      </g>
      <g
         id="g1061"
         transform="translate(-0.02705,0.0064503)">
        <circle
           id="circle1053"
           r="0"
           cy="-328.38"
           cx="-330.35001" />
        <circle
           id="circle1055"
           r="0"
           cy="-326.25"
           cx="-312.10999" />
        <circle
           id="circle1057"
           r="0"
           cy="-333.07001"
           cx="-306.01999" />
        <circle
           id="circle1059"
           r="0"
           cy="-326.01001"
           cx="-308.84" />
      </g>
    </g>
  </g>
  <circle
     style="fill:url(#linearGradient966);fill-opacity:1;stroke-width:3.12284;stroke-linecap:round"
     id="path958"
     cx="32"
     cy="32"
     r="30" />
  <circle
     id="circle1270"
     fill="#5e4aa6"
     r="0"
     cy="-1271.9016"
     cx="-1323.2103" />
  <circle
     id="circle1272"
     fill-rule="evenodd"
     fill="#5e4aa6"
     r="0"
     cy="-6.4465895"
     cx="-223.66037" />
  <g
     id="g1296"
     stroke-width="0.26458"
     fill="#5e4aa6"
     transform="matrix(3.7796,0,0,3.7796,-177.43037,-69.021589)">
    <circle
       id="circle1288"
       r="0"
       cy="-328.38"
       cx="-330.35001" />
    <circle
       id="circle1290"
       r="0"
       cy="-326.25"
       cx="-312.10999" />
    <circle
       id="circle1292"
       r="0"
       cy="-333.07001"
       cx="-306.01999" />
    <circle
       id="circle1294"
       r="0"
       cy="-326.01001"
       cx="-308.84" />
  </g>
  <g
     transform="translate(-86.94868,8.0799735e-4)"
     id="g1223">
    <path
       transform="matrix(1.15,0,0,1.15,82.461258,-4.4881)"
       d="m 54.144,31.729 c 0,1.569 -9.848,18.627 -11.207,19.412 -1.36,0.784 -21.057,0.784 -22.415,0 C 19.164,50.357 9.314,33.298 9.314,31.729 c 0,-1.569 9.85,-18.627 11.208,-19.412 1.359,-0.784 21.057,-0.784 22.415,0 1.358,0.784 11.207,17.843 11.207,19.412 z"
       color="#000000"
       display="block"
       fill-opacity="0.099"
       filter="url(#filter935)"
       overflow="visible"
       stroke-width="0.892"
       style="isolation:auto;mix-blend-mode:normal;paint-order:fill markers stroke"
       id="path34" />
    <path
       d="m 144.72636,32 c 0,1.8044 -11.325,21.421 -12.888,22.324 -1.564,0.9016 -24.216,0.9016 -25.777,0 C 104.50036,53.4224 93.172358,33.805 93.172358,32 c 0,-1.805 11.328002,-21.421 12.889002,-22.324 1.5628,-0.9016 24.216,-0.9016 25.777,0 1.561,0.9016 12.888,20.519 12.888,22.324 z"
       color="#000000"
       display="block"
       fill="#ffffff"
       opacity="0.15"
       overflow="visible"
       stroke-width="1.0258"
       style="isolation:auto;mix-blend-mode:normal;paint-order:fill markers stroke"
       id="path36" />
    <path
       transform="matrix(1.15,0,0,1.15,82.461258,-4.4881)"
       d="m 31.729,15.619 c -1.959,0 -3.914,0.034 -5.475,0.105 -0.78,0.037 -1.457,0.081 -2.018,0.14 -0.279,0.03 -0.527,0.064 -0.772,0.11 -0.244,0.046 -0.428,0.034 -0.918,0.31 -0.49,0.274 -0.574,0.436 -0.738,0.619 a 8.956,8.956 0 0 0 -0.483,0.595 33.005,33.005 0 0 0 -1.133,1.625 117.02,117.02 0 0 0 -2.833,4.55 116.47,116.47 0 0 0 -2.64,4.657 32.763,32.763 0 0 0 -0.886,1.767 c -0.113,0.25 -0.209,0.474 -0.289,0.703 -0.081,0.229 -0.185,0.38 -0.185,0.929 0,0.549 0.104,0.7 0.185,0.929 0.08,0.229 0.176,0.453 0.289,0.703 0.227,0.5 0.527,1.093 0.885,1.767 0.716,1.348 1.662,3.01 2.641,4.656 a 134.03,134.03 0 0 0 1.847,3.008 l -2.552,8.156 6.402,-3.547 c 0.156,0.046 0.275,0.057 0.41,0.083 0.243,0.047 0.492,0.08 0.771,0.11 0.56,0.059 1.237,0.103 2.018,0.139 1.56,0.072 3.515,0.107 5.474,0.107 1.959,0 3.913,-0.035 5.473,-0.106 a 35.044,35.044 0 0 0 2.019,-0.14 c 0.279,-0.03 0.528,-0.064 0.772,-0.11 0.245,-0.046 0.43,-0.034 0.92,-0.31 0.49,-0.274 0.573,-0.436 0.737,-0.619 a 9.26,9.26 0 0 0 0.483,-0.595 c 0.332,-0.44 0.711,-0.987 1.133,-1.625 a 117.02,117.02 0 0 0 2.833,-4.55 116.48,116.48 0 0 0 2.64,-4.657 32.04,32.04 0 0 0 0.884,-1.767 8.807,8.807 0 0 0 0.291,-0.703 c 0.081,-0.229 0.185,-0.38 0.185,-0.929 0,-0.549 -0.104,-0.7 -0.185,-0.929 A 8.805,8.805 0 0 0 49.624,30.097 32.651,32.651 0 0 0 48.74,28.33 116.48,116.48 0 0 0 46.099,23.674 117.04,117.04 0 0 0 43.266,19.124 33.012,33.012 0 0 0 42.133,17.498 8.957,8.957 0 0 0 41.65,16.903 c -0.164,-0.183 -0.247,-0.345 -0.738,-0.62 -0.49,-0.275 -0.674,-0.263 -0.918,-0.31 a 9.436,9.436 0 0 0 -0.773,-0.108 35.04,35.04 0 0 0 -2.018,-0.14 c -1.56,-0.072 -3.515,-0.107 -5.474,-0.107 z m 0,3.664 c 1.912,0 3.828,0.036 5.295,0.103 0.212,0.01 0.326,0.026 0.517,0.037 l -5.845,8.701 -5.917,-8.693 c 0.235,-0.015 0.386,-0.032 0.655,-0.045 1.467,-0.067 3.383,-0.102 5.295,-0.102 z m 9.242,3.2 a 127.72,127.72 0 0 1 1.858,3.024 113.92,113.92 0 0 1 2.557,4.502 c 0.336,0.635 0.61,1.182 0.783,1.564 0.032,0.071 0.04,0.097 0.065,0.156 -0.024,0.059 -0.033,0.084 -0.065,0.156 -0.173,0.382 -0.447,0.93 -0.783,1.564 a 113.92,113.92 0 0 1 -2.557,4.502 123,123 0 0 1 -2.113,3.422 l -6.258,-9.195 z m -18.551,0.105 6.54,9.609 -6.191,9.217 a 122.51,122.51 0 0 1 -2.14,-3.463 113.92,113.92 0 0 1 -2.557,-4.502 30.098,30.098 0 0 1 -0.783,-1.564 c -0.032,-0.071 -0.04,-0.097 -0.065,-0.156 0.024,-0.059 0.033,-0.084 0.065,-0.156 0.173,-0.382 0.447,-0.93 0.783,-1.564 0.674,-1.267 1.6,-2.895 2.557,-4.502 a 129.19,129.19 0 0 1 1.791,-2.919 z m 9.302,13.662 5.323,7.82 -0.02,0.002 c -1.468,0.067 -3.384,0.102 -5.296,0.102 -1.899,0 -3.799,-0.035 -5.263,-0.1 z"
       color="#000000"
       display="block"
       filter="url(#filter909)"
       font-weight="400"
       opacity="0.25"
       overflow="visible"
       stroke-width="0.892"
       style="font-variant-ligatures:normal;font-variant-position:normal;font-variant-caps:normal;font-variant-numeric:normal;font-variant-alternates:normal;font-feature-settings:normal;text-indent:0;text-decoration:none;text-decoration-line:none;text-decoration-style:solid;text-decoration-color:#000000;text-transform:none;text-orientation:mixed;white-space:normal;shape-padding:0;isolation:auto;mix-blend-mode:normal;paint-order:fill markers stroke"
       id="path38" />
    <path
       d="m 118.94936,13.474 c -2.2528,0 -4.5011,0.0391 -6.2962,0.12075 -0.897,0.04255 -1.6756,0.09315 -2.3207,0.161 -0.32085,0.0345 -0.60605,0.0736 -0.8878,0.1265 -0.2806,0.0529 -0.4922,0.0391 -1.0557,0.3565 -0.5635,0.3151 -0.6601,0.5014 -0.8487,0.71185 a 10.299,10.299 0 0 0 -0.55545,0.68425 37.956,37.956 0 0 0 -1.303,1.8688 134.57,134.57 0 0 0 -3.258,5.2325 133.94,133.94 0 0 0 -3.036002,5.3556 37.677,37.677 0 0 0 -1.0189,2.032 c -0.12995,0.2875 -0.24035,0.5451 -0.33235,0.80845 -0.09315,0.26335 -0.21275,0.437 -0.21275,1.0684 0,0.6314 0.1196,0.805 0.21275,1.0684 0.092,0.26335 0.2024,0.52095 0.33235,0.80845 0.26105,0.575 0.60605,1.257 1.0178,2.032 0.823402,1.5502 1.911302,3.4615 3.037202,5.3544 a 154.13,154.13 0 0 0 2.124,3.4592 l -2.9348,9.3794 7.3623,-4.079 c 0.1794,0.0529 0.31625,0.06555 0.4715,0.09545 0.27945,0.05405 0.5658,0.092 0.88665,0.1265 0.644,0.06785 1.4226,0.11845 2.3207,0.15985 1.794,0.0828 4.0422,0.12305 6.2951,0.12305 2.2529,0 4.5,-0.04025 6.294,-0.1219 a 40.301,40.301 0 0 0 2.3218,-0.161 c 0.32085,-0.0345 0.6072,-0.0736 0.8878,-0.1265 0.28175,-0.0529 0.4945,-0.0391 1.058,-0.3565 0.5635,-0.3151 0.65895,-0.5014 0.84755,-0.71185 a 10.649,10.649 0 0 0 0.55545,-0.68425 c 0.3818,-0.506 0.81765,-1.135 1.303,-1.8688 a 134.58,134.58 0 0 0 3.258,-5.2325 133.95,133.95 0 0 0 3.036,-5.3556 36.846,36.846 0 0 0 1.0166,-2.032 10.128,10.128 0 0 0 0.33465,-0.80845 c 0.0932,-0.26335 0.21275,-0.437 0.21275,-1.0684 0,-0.6314 -0.1196,-0.805 -0.21275,-1.0684 a 10.126,10.126 0 0 0 -0.3335,-0.80845 37.549,37.549 0 0 0 -1.0166,-2.032 133.95,133.95 0 0 0 -3.0372,-5.3544 134.59,134.59 0 0 0 -3.258,-5.2325 37.964,37.964 0 0 0 -1.303,-1.8699 10.301,10.301 0 0 0 -0.55545,-0.68425 c -0.1886,-0.21045 -0.28405,-0.39675 -0.8487,-0.713 -0.5635,-0.31625 -0.7751,-0.30245 -1.0557,-0.3565 a 10.851,10.851 0 0 0 -0.88895,-0.1242 40.296,40.296 0 0 0 -2.3207,-0.161 c -1.794,-0.0828 -4.0423,-0.12305 -6.2951,-0.12305 z m 0,4.2136 c 2.1988,0 4.4022,0.0414 6.0893,0.11845 0.2438,0.0115 0.3749,0.0299 0.59455,0.04255 l -6.7218,10.006 -6.8046,-9.997 c 0.27025,-0.01725 0.4439,-0.0368 0.75325,-0.05175 1.687,-0.07705 3.8904,-0.1173 6.0892,-0.1173 z m 10.628,3.68 a 146.88,146.88 0 0 1 2.1367,3.4776 131,131 0 0 1 2.9406,5.1773 c 0.3864,0.73025 0.7015,1.3593 0.90045,1.7986 0.0368,0.08165 0.046,0.11155 0.0747,0.1794 -0.0276,0.06785 -0.0379,0.0966 -0.0747,0.1794 -0.19895,0.4393 -0.51405,1.0695 -0.90045,1.7986 a 131.01,131.01 0 0 1 -2.9406,5.1773 141.45,141.45 0 0 1 -2.43,3.9353 l -7.1967,-10.574 z m -21.334,0.12075 7.521,11.05 -7.1196,10.6 a 140.89,140.89 0 0 1 -2.461,-3.9824 131.01,131.01 0 0 1 -2.9406,-5.1773 34.613,34.613 0 0 1 -0.90045,-1.7986 c -0.0368,-0.08165 -0.046,-0.11155 -0.0747,-0.1794 0.0276,-0.06785 0.0379,-0.0966 0.0747,-0.1794 0.19895,-0.4393 0.51405,-1.0695 0.90045,-1.7986 0.7751,-1.457 1.84,-3.3292 2.9406,-5.1773 a 148.57,148.57 0 0 1 2.0596,-3.3568 z m 10.697,15.711 6.1215,8.993 -0.023,0.0023 c -1.6882,0.07705 -3.8916,0.1173 -6.0904,0.1173 -2.1838,0 -4.3688,-0.04025 -6.0524,-0.115 z"
       color="#000000"
       display="block"
       fill="url(#linearGradient949)"
       font-weight="400"
       overflow="visible"
       stroke-width="1.0258"
       style="font-variant-ligatures:normal;font-variant-position:normal;font-variant-caps:normal;font-variant-numeric:normal;font-variant-alternates:normal;font-feature-settings:normal;text-indent:0;text-decoration:none;text-decoration-line:none;text-decoration-style:solid;text-decoration-color:#000000;text-transform:none;text-orientation:mixed;white-space:normal;shape-padding:0;isolation:auto;mix-blend-mode:normal;fill:url(#linearGradient949);paint-order:fill markers stroke"
       id="path40" />
  </g>
</svg>
