<?xml version="1.0" encoding="UTF-8" standalone="no"?>
<svg
   xmlns:dc="http://purl.org/dc/elements/1.1/"
   xmlns:cc="http://creativecommons.org/ns#"
   xmlns:rdf="http://www.w3.org/1999/02/22-rdf-syntax-ns#"
   xmlns:svg="http://www.w3.org/2000/svg"
   xmlns="http://www.w3.org/2000/svg"
   xmlns:xlink="http://www.w3.org/1999/xlink"
   xmlns:sodipodi="http://sodipodi.sourceforge.net/DTD/sodipodi-0.dtd"
   xmlns:inkscape="http://www.inkscape.org/namespaces/inkscape"
   inkscape:version="1.0 (4035a4fb49, 2020-05-01)"
   sodipodi:docname="hwinfo.svg"
   id="svg55"
   version="1.1"
   height="64"
   width="64">
  <metadata
     id="metadata59">
    <rdf:RDF>
      <cc:Work
         rdf:about="">
        <dc:format>image/svg+xml</dc:format>
        <dc:type
           rdf:resource="http://purl.org/dc/dcmitype/StillImage" />
        <dc:title></dc:title>
      </cc:Work>
    </rdf:RDF>
  </metadata>
  <sodipodi:namedview
     inkscape:current-layer="svg55"
     inkscape:window-maximized="1"
     inkscape:window-y="36"
     inkscape:window-x="0"
     inkscape:cy="35.101371"
     inkscape:cx="-49.538649"
     inkscape:zoom="2.9804688"
     showgrid="false"
     id="namedview57"
     inkscape:window-height="932"
     inkscape:window-width="1920"
     inkscape:pageshadow="2"
     inkscape:pageopacity="0"
     guidetolerance="10"
     gridtolerance="10"
     objecttolerance="10"
     borderopacity="1"
     bordercolor="#666666"
     pagecolor="#ffffff" />
  <defs
     id="defs25">
    <linearGradient
       gradientUnits="userSpaceOnUse"
       gradientTransform="translate(-1.0175e-5,-0.033043)"
       y2="53"
       y1="11"
       x2="32"
       x1="32"
       id="c">
      <stop
         id="stop2"
         offset="0"
         stop-color="#dcdede" />
      <stop
         id="stop4"
         offset="1"
         stop-color="#939493" />
    </linearGradient>
    <filter
       color-interpolation-filters="sRGB"
       height="1.12"
       width="1.12"
       y="-.06"
       x="-.06"
       id="f">
      <feGaussianBlur
         id="feGaussianBlur7"
         stdDeviation="0.18520833" />
    </filter>
    <linearGradient
       gradientUnits="userSpaceOnUse"
       y2="292.24"
       y1="284.83"
       x2="8.4666"
       x1="8.4666"
       id="b">
      <stop
         id="stop10"
         offset="0"
         stop-color="#4c5557" />
      <stop
         id="stop12"
         offset="1"
         stop-color="#282929" />
    </linearGradient>
    <linearGradient
       gradientUnits="userSpaceOnUse"
       gradientTransform="matrix(3.7796,0,0,3.7796,-91.830758,0)"
       y2="1.852"
       y1="15.081"
       x2="7.9373"
       x1="7.9373"
       id="linearGradient862-3">
      <stop
         id="stop15"
         offset="0"
         stop-color="#298f38" />
      <stop
         id="stop17"
         offset="1"
         stop-color="#20df5f" />
    </linearGradient>
    <linearGradient
       gradientTransform="translate(-91.830758)"
       gradientUnits="userSpaceOnUse"
       y2="70"
       y1="10"
       x2="30"
       x1="30"
       id="linearGradient964">
      <stop
         id="stop20"
         offset="0" />
      <stop
         id="stop22"
         offset="1"
         stop-opacity=".35" />
    </linearGradient>
    <style
       type="text/css"
       id="style4" />
    <filter
       id="filter2761"
       x="-.024"
       y="-.024"
       width="1.048"
       height="1.048"
       color-interpolation-filters="sRGB">
      <feGaussianBlur
         stdDeviation="0.14552168"
         id="feGaussianBlur6" />
    </filter>
    <linearGradient
       id="linearGradient4673"
       x1="1.2573"
       x2="15.644"
       y1="15.429"
       y2="1.1082"
       gradientTransform="matrix(3.7796,0,0,3.7796,101.69,7.5815)"
       gradientUnits="userSpaceOnUse">
      <stop
         stop-color="#8cd750"
         offset="0"
         id="stop9" />
      <stop
         stop-color="#7dcd32"
         offset=".47728"
         id="stop11" />
      <stop
         stop-color="#87d241"
         offset="1"
         id="stop13" />
    </linearGradient>
    <style
       id="style4-7"
       type="text/css" />
    <filter
       color-interpolation-filters="sRGB"
       height="1.048"
       width="1.048"
       y="-.024"
       x="-.024"
       id="filter2761-5">
      <feGaussianBlur
         id="feGaussianBlur6-3"
         stdDeviation="0.14552168" />
    </filter>
    <filter
       id="filter11290"
       x="-.024"
       y="-.024"
       width="1.048"
       height="1.048"
       color-interpolation-filters="sRGB">
      <feGaussianBlur
         stdDeviation="0.15875313"
         id="feGaussianBlur862" />
    </filter>
    <linearGradient
       id="linearGradient1005"
       x1=".73911"
       x2="16.388"
       y1="16.296"
       y2=".64687"
       gradientTransform="matrix(3.779602,0,0,3.779602,-0.13270183,0.02456741)"
       gradientUnits="userSpaceOnUse">
      <stop
         stop-color="#8cd750"
         offset="0"
         id="stop865" />
      <stop
         stop-color="#7dcd32"
         offset=".48311"
         id="stop867" />
      <stop
         stop-color="#87d241"
         offset="1"
         id="stop869" />
    </linearGradient>
    <linearGradient
       id="linearGradient1288"
       x1="32.153"
       x2="32.153"
       y1="46.773"
       y2="4.0937"
       gradientTransform="matrix(1.0000071,0,0,1.0000071,0.03378586,-1.9609709)"
       gradientUnits="userSpaceOnUse">
      <stop
         stop-color="#d1ecba"
         offset="0"
         id="stop872" />
      <stop
         stop-color="#d1ecba"
         stop-opacity="0"
         offset="1"
         id="stop874" />
    </linearGradient>
    <style
       type="text/css"
       id="style877" />
    <filter
       id="filter948"
       x="-.035705"
       y="-.0363"
       width="1.0714"
       height="1.0726"
       color-interpolation-filters="sRGB">
      <feGaussianBlur
         stdDeviation="15.43542"
         id="feGaussianBlur879" />
    </filter>
    <linearGradient
       y2="53"
       x2="32"
       y1="11"
       x1="32"
       gradientTransform="translate(-1.0175e-5,-0.033043)"
       gradientUnits="userSpaceOnUse"
       id="linearGradient1038"
       xlink:href="#c"
       inkscape:collect="always" />
    <linearGradient
       y2="292.24"
       x2="8.4666"
       y1="284.83"
       x1="8.4666"
       gradientUnits="userSpaceOnUse"
       id="linearGradient1040"
       xlink:href="#b"
       inkscape:collect="always" />
    <linearGradient
       y2="70"
       x2="30"
       y1="10"
       x1="30"
       gradientTransform="matrix(1.0846454,0,0,1.0846454,-2.67826,-2.6925177)"
       gradientUnits="userSpaceOnUse"
       id="linearGradient1057"
       xlink:href="#linearGradient964"
       inkscape:collect="always" />
  </defs>
  <circle
     transform="scale(3.779602)"
     id="circle884"
     r="7.9376998"
     cy="8.4665003"
     cx="8.4665003"
     style="opacity:0.25;stroke-width:0.14032;filter:url(#filter11290)" />
  <path
     id="path886"
     d="m 62.000383,31.999811 c 0,3.596443 -0.633045,7.044801 -1.79395,10.240454 -0.806983,2.221197 -1.868597,4.321219 -3.151923,6.263556 -0.537535,0.816697 -1.115512,1.605386 -1.729017,2.363348 -1.964108,2.425711 -4.298164,4.538168 -6.918562,6.252595 -0.964932,0.631874 -1.967849,1.209851 -3.006144,1.727732 -4.032079,2.017892 -8.583854,3.152982 -13.400957,3.152982 -4.817102,0 -9.368877,-1.13509 -13.400957,-3.153095 C 17.560466,58.329388 16.556376,57.751411 15.591444,57.119651 12.937899,55.382055 10.575912,53.236488 8.5957787,50.770676 7.9811021,50.006591 7.404297,49.210645 6.866762,48.386578 5.6177547,46.476367 4.5830887,44.41535 3.7920558,42.237166 2.6313022,39.042306 1.9993906,35.595271 1.9993906,32.000114 c 0,-16.56902 13.4315714,-30.0005912 30.0005904,-30.0005912 8.317015,0 15.842958,3.384558 21.27727,8.8506942 1.566116,1.574658 2.958446,3.323366 4.143578,5.213961 1.120463,1.780457 2.057161,3.688211 2.785717,5.695104 1.161019,3.195994 1.794064,6.644162 1.794064,10.240454 z"
     inkscape:connector-curvature="0"
     style="fill:url(#linearGradient1005);stroke-width:0.11719" />
  <g
     id="g32"
     stroke-width="0.26458"
     fill="#5e4aa6"
     transform="matrix(3.779602,0,0,3.779602,101.58058,7.075037)">
    <circle
       id="circle24"
       r="0"
       cy="-328.38"
       cx="-330.35001" />
    <circle
       id="circle26"
       r="0"
       cy="-326.25"
       cx="-312.10999" />
    <circle
       id="circle28"
       r="0"
       cy="-333.07001"
       cx="-306.01999" />
    <circle
       id="circle30"
       r="0"
       cy="-326.01001"
       cx="-308.84" />
  </g>
  <g
     id="g46"
     transform="matrix(3.779602,0,0,3.779602,192.97983,-8.111241)"
     style="fill:#5e4aa6;stroke-width:0.26458">
    <circle
       id="circle38"
       r="0"
       cy="-328.38"
       cx="-330.35001" />
    <circle
       id="circle40"
       r="0"
       cy="-326.25"
       cx="-312.10999" />
    <circle
       id="circle42"
       r="0"
       cy="-333.07001"
       cx="-306.01999" />
    <circle
       id="circle44"
       r="0"
       cy="-326.01001"
       cx="-308.84" />
  </g>
  <g
     id="g896"
     transform="matrix(3.779602,0,0,3.779602,91.287026,-15.161873)"
     style="fill:#5e4aa6;stroke-width:0.26458">
    <circle
       id="circle888"
       r="0"
       cy="-328.38"
       cx="-330.35001" />
    <circle
       id="circle890"
       r="0"
       cy="-326.25"
       cx="-312.10999" />
    <circle
       id="circle892"
       r="0"
       cy="-333.07001"
       cx="-306.01999" />
    <circle
       id="circle894"
       r="0"
       cy="-326.01001"
       cx="-308.84" />
  </g>
  <path
     d="M 30.945312 2.0273438 C 29.844862 2.0654623 28.758643 2.1589414 27.691406 2.3125 L 27.691406 17.017578 L 31.132812 13.578125 L 30.945312 13.578125 L 30.945312 2.0273438 z M 33.115234 2.0273438 L 33.115234 11.59375 L 36.369141 8.3398438 L 36.369141 2.3203125 C 35.301596 2.1644791 34.216185 2.0676261 33.115234 2.0273438 z M 25.523438 2.7089844 C 24.413883 2.9532274 23.329265 3.2597107 22.269531 3.6230469 L 22.269531 14.847656 L 26.064453 18.644531 L 26.792969 17.916016 L 25.523438 17.916016 L 25.523438 2.7089844 z M 38.539062 2.7226562 L 38.539062 9.2382812 L 27.597656 20.177734 L 28.775391 21.355469 L 41.792969 8.3398438 L 41.792969 3.6445312 C 40.734061 3.278865 39.647961 2.9693222 38.539062 2.7226562 z M 20.099609 4.4570312 C 18.583115 5.1131606 17.134252 5.8942857 15.759766 6.78125 L 15.759766 8.3398438 L 20.099609 12.679688 L 20.099609 4.4570312 z M 43.960938 4.484375 L 43.960938 9.2382812 L 29.388672 23.8125 L 28.775391 23.199219 L 28.164062 23.8125 L 26.064453 21.712891 L 23.964844 23.8125 L 23.353516 23.199219 L 22.740234 23.8125 L 10.263672 11.333984 C 9.7551103 11.868717 9.2613445 12.417211 8.7929688 12.988281 A 1.6269681 1.6269681 0 0 1 9.2519531 14.119141 A 1.6269681 1.6269681 0 0 1 9.2226562 14.431641 L 18.630859 23.837891 L 49.550781 23.837891 L 56.958984 15.371094 C 56.225135 14.270099 55.424637 13.216057 54.554688 12.224609 L 48.382812 19.167969 L 44.878906 19.167969 L 52.734375 10.328125 C 51.687376 9.3262408 50.567981 8.4016791 49.384766 7.5585938 L 49.384766 9.2382812 L 34.810547 23.8125 L 33.277344 22.277344 L 47.214844 8.3398438 L 47.214844 6.1464844 C 46.16895 5.5296256 45.083211 4.9729643 43.960938 4.484375 z M 13.591797 8.3183594 C 12.979715 8.7948429 12.381446 9.2889771 11.808594 9.8105469 L 23.353516 21.355469 L 24.53125 20.177734 L 22.269531 17.916016 L 20.099609 17.916016 L 20.099609 15.746094 L 13.591797 9.2382812 L 13.591797 8.3183594 z M 6.9003906 15.574219 C 5.539967 17.648756 4.4323601 19.901744 3.6152344 22.291016 L 5.1640625 23.839844 L 15.5625 23.839844 L 7.4628906 15.738281 A 1.6269681 1.6269681 0 0 1 6.9003906 15.574219 z M 13.341797 37.855469 L 4.8164062 44.675781 C 5.281126 45.670885 5.7976798 46.636235 6.3652344 47.568359 L 8.6679688 46.033203 L 8.6679688 48.367188 L 7.4238281 49.197266 C 7.7995055 49.73382 8.1859536 50.262138 8.5957031 50.771484 C 9.9945377 52.513419 11.593668 54.085192 13.341797 55.476562 L 13.341797 49.537109 L 20.349609 43.697266 L 23.853516 43.697266 L 16.845703 49.537109 L 16.845703 57.888672 C 17.419562 58.225268 18.002104 58.549599 18.599609 58.847656 C 19.437658 59.267089 20.302928 59.63763 21.183594 59.978516 L 21.183594 56.822266 L 35.755859 42.25 L 36.369141 42.861328 L 36.980469 42.25 L 39.080078 44.347656 L 41.179688 42.25 L 41.792969 42.861328 L 42.404297 42.25 L 53.277344 53.123047 C 53.66899 52.728528 54.046636 52.321965 54.416016 51.90625 L 46.292969 43.783203 L 47.828125 42.25 L 55.8125 50.234375 C 56.244398 49.671007 56.663693 49.097958 57.054688 48.503906 C 57.628508 47.635419 58.150589 46.73101 58.632812 45.802734 L 54.222656 40.191406 L 51.888672 40.191406 L 49.550781 37.855469 L 35.5 37.855469 L 35.755859 38.111328 L 22.238281 51.628906 A 1.6269681 1.6269681 0 0 1 22.267578 51.941406 A 1.6269681 1.6269681 0 0 1 20.640625 53.568359 A 1.6269681 1.6269681 0 0 1 19.013672 51.941406 A 1.6269681 1.6269681 0 0 1 20.478516 50.322266 L 32.945312 37.855469 L 13.341797 37.855469 z M 36.369141 44.705078 L 23.353516 57.720703 L 23.353516 60.736328 C 24.414271 61.0551 25.500678 61.314747 26.607422 61.515625 L 26.607422 56.822266 L 33.115234 50.314453 L 33.115234 48.146484 L 35.283203 48.146484 L 37.546875 45.882812 L 36.369141 44.705078 z M 41.791016 44.705078 L 40.613281 45.882812 L 50.412109 55.681641 C 50.852173 55.339062 51.275398 54.975442 51.695312 54.609375 L 41.791016 44.705078 z M 39.080078 47.416016 L 35.283203 51.212891 L 35.283203 61.814453 C 36.387505 61.694171 37.472202 61.514173 38.537109 61.277344 L 38.537109 48.144531 L 39.808594 48.144531 L 39.080078 47.416016 z M 40.707031 49.042969 L 40.707031 60.716797 C 41.820561 60.379498 42.906478 59.976797 43.960938 59.517578 L 43.960938 52.484375 L 44.146484 52.484375 L 40.707031 49.042969 z M 33.115234 53.382812 L 28.775391 57.720703 L 28.775391 61.820312 C 29.835634 61.933706 30.909617 62 32 62 C 32.374536 62 32.744026 61.980402 33.115234 61.966797 L 33.115234 53.382812 z M 46.130859 54.466797 L 46.130859 58.457031 C 46.908638 58.04107 47.671382 57.60036 48.40625 57.119141 C 48.481809 57.069705 48.551872 57.012986 48.626953 56.962891 L 46.130859 54.466797 z "
     style="fill:url(#linearGradient1057);opacity:0.2"
     id="path1055" />
  <g
     transform="translate(0,0.04293705)"
     id="g1053">
    <g
       id="g1034"
       transform="matrix(3.7796,0,0,3.7796,-2.2035068e-4,-1058.6)">
      <g
         id="g1022"
         transform="translate(0,-0.0088674)">
        <path
           style="fill:url(#linearGradient1038)"
           id="path1016"
           fill="url(#c)"
           d="m 20,13 -0.5,2 H 19 v 3.9668 H 15 V 19.5 l -2,0.5 2,0.5 v 0.4668 h 4 v 2 H 15 V 23.5 l -2,0.5 2,0.5 v 0.4668 h 4 v 2 H 15 V 27.5 l -2,0.5 2,0.5 v 0.4668 h 4 v 2 H 15 V 31.5 l -2,0.5 2,0.5 v 0.4668 h 4 v 2 H 15 V 35.5 l -2,0.5 2,0.5 v 0.4668 h 4 v 2 H 15 V 39.5 l -2,0.5 2,0.5 v 0.4668 h 4 v 2 H 15 V 43.5 l -2,0.5 2,0.5 v 0.4668 h 4 V 49 h 0.5 l 0.5,2 0.5,-2 H 21 v -4.0332 h 2 V 49 h 0.5 l 0.5,2 0.5,-2 H 25 v -4.0332 h 2 V 49 h 0.5 l 0.5,2 0.5,-2 H 29 v -4.0332 h 2 V 49 h 0.5 l 0.5,2 0.5,-2 H 33 v -4.0332 h 2 V 49 h 0.5 l 0.5,2 0.5,-2 H 37 v -4.0332 h 2 V 49 h 0.5 l 0.5,2 0.5,-2 H 41 v -4.0332 h 2 V 49 h 0.5 l 0.5,2 0.5,-2 H 45 v -4.0332 h 4 V 44.5 L 51,44 49,43.5 v -0.5332 h -4 v -2 h 4 V 40.5 L 51,40 49,39.5 v -0.5332 h -4 v -2 h 4 V 36.5 L 51,36 49,35.5 v -0.5332 h -4 v -2 h 4 V 32.5 L 51,32 49,31.5 v -0.5332 h -4 v -2 h 4 V 28.5 L 51,28 49,27.5 v -0.5332 h -4 v -2 h 4 V 24.5 L 51,24 49,23.5 v -0.5332 h -4 v -2 h 4 V 20.5 L 51,20 49,19.5 V 18.9668 H 45 V 15 H 44.5 L 44,13 43.5,15 H 43 v 3.9668 H 41 V 15 H 40.5 L 40,13 39.5,15 H 39 v 3.9668 H 37 V 15 H 36.5 L 36,13 35.5,15 H 35 v 3.9668 H 33 V 15 H 32.5 L 32,13 31.5,15 H 31 v 3.9668 H 29 V 15 H 28.5 L 28,13 27.5,15 H 27 v 3.9668 H 25 V 15 H 24.5 L 24,13 23.5,15 H 23 v 3.9668 H 21 V 15 h -0.5 z m 1,7.9668 h 2 v 2 h -2 z m 4,0 h 2 v 2 h -2 z m 4,0 h 2 v 2 h -2 z m 4,0 h 2 v 2 h -2 z m 4,0 h 2 v 2 h -2 z m 4,0 h 2 v 2 h -2 z m -20,4 h 2 v 2 h -2 z m 4,0 h 2 v 2 h -2 z m 4,0 h 2 v 2 h -2 z m 4,0 h 2 v 2 h -2 z m 4,0 h 2 v 2 h -2 z m 4,0 h 2 v 2 h -2 z m -20,4 h 2 v 2 h -2 z m 4,0 h 2 v 2 h -2 z m 4,0 h 2 v 2 h -2 z m 4,0 h 2 v 2 h -2 z m 4,0 h 2 v 2 h -2 z m 4,0 h 2 v 2 h -2 z m -20,4 h 2 v 2 h -2 z m 4,0 h 2 v 2 h -2 z m 4,0 h 2 v 2 h -2 z m 4,0 h 2 v 2 h -2 z m 4,0 h 2 v 2 h -2 z m 4,0 h 2 v 2 h -2 z m -20,4 h 2 v 2 h -2 z m 4,0 h 2 v 2 h -2 z m 4,0 h 2 v 2 h -2 z m 4,0 h 2 v 2 h -2 z m 4,0 h 2 v 2 h -2 z m 4,0 h 2 v 2 h -2 z m -20,4 h 2 v 2 h -2 z m 4,0 h 2 v 2 h -2 z m 4,0 h 2 v 2 h -2 z m 4,0 h 2 v 2 h -2 z m 4,0 h 2 v 2 h -2 z m 4,0 h 2 v 2 h -2 z"
           transform="matrix(0.26458,0,0,0.26458,2.692e-6,280.08)" />
        <path
           id="path1018"
           opacity="0.5"
           filter="url(#f)"
           fill-rule="evenodd"
           d="m 5.2917,284.83 h 6.35 c 0.29316,0 0.52917,0.236 0.52917,0.52915 v 6.35 c 0,0.29315 -0.23601,0.52915 -0.52917,0.52915 h -6.35 c -0.29316,0 -0.52917,-0.236 -0.52917,-0.52915 v -6.35 c 0,-0.29315 0.23601,-0.52915 0.52917,-0.52915 z" />
        <path
           style="fill:url(#linearGradient1040)"
           id="path1020"
           fill-rule="evenodd"
           fill="url(#b)"
           d="m 5.2917,284.83 h 6.35 c 0.29316,0 0.52917,0.236 0.52917,0.52915 v 6.35 c 0,0.29315 -0.23601,0.52915 -0.52917,0.52915 h -6.35 c -0.29316,0 -0.52917,-0.236 -0.52917,-0.52915 v -6.35 c 0,-0.29315 0.23601,-0.52915 0.52917,-0.52915 z" />
      </g>
      <g
         id="g1032"
         fill-rule="evenodd">
        <path
           id="path1024"
           style="paint-order:stroke fill markers"
           opacity="0.35"
           d="M 5.5563,285.49 A 0.13229,0.13229 0 0 1 5.42401,285.62229 0.13229,0.13229 0 0 1 5.29172,285.49 0.13229,0.13229 0 0 1 5.42401,285.35771 0.13229,0.13229 0 0 1 5.5563,285.49" />
        <path
           id="path1026"
           style="paint-order:stroke fill markers"
           opacity="0.35"
           d="M 11.641,285.49 A 0.13229,0.13229 0 0 1 11.50871,285.62229 0.13229,0.13229 0 0 1 11.37642,285.49 0.13229,0.13229 0 0 1 11.50871,285.35771 0.13229,0.13229 0 0 1 11.641,285.49" />
        <path
           id="path1028"
           style="paint-order:stroke fill markers"
           opacity="0.35"
           d="M 5.5563,291.58 A 0.13229,0.13229 0 0 1 5.42401,291.71229 0.13229,0.13229 0 0 1 5.29172,291.58 0.13229,0.13229 0 0 1 5.42401,291.44771 0.13229,0.13229 0 0 1 5.5563,291.58" />
        <path
           id="path1030"
           style="paint-order:stroke fill markers"
           opacity="0.35"
           d="M 11.641,291.58 A 0.13229,0.13229 0 0 1 11.50871,291.71229 0.13229,0.13229 0 0 1 11.37642,291.58 0.13229,0.13229 0 0 1 11.50871,291.44771 0.13229,0.13229 0 0 1 11.641,291.58" />
      </g>
    </g>
    <path
       id="path1036"
       opacity="0.5"
       fill="#ffffff"
       d="m 34.699051,25.756 c -2.7223,0.03489 -5.7618,0.79114 -8.211,2.2305 v 0.36523 c 5.5911,-2.7764 13.524,-2.7587 14.246,1.2188 0.20672,1.1197 -0.3197,2.2736 -1.3242,3.0801 v -4.1992 h -1.1094 v 4.666 c 0,0.39152 0.15271,0.73907 0.53711,0.93751 v 0.02344 c 0.0067,-0.0023 0.01287,-0.0074 0.01953,-0.0098 0.14972,0.07304 0.327,0.12791 0.55273,0.14844 v -0.39844 c 1.4432,-0.77326 2.7142,-2.4819 2.2812,-4.5293 -0.51797,-2.4287 -3.492,-3.5781 -6.9922,-3.5332 z m -9.6231,2.8359 v 0.99415 h 1.1094 V 28.5919 Z m 6.4824,0.44336 v 4.0469 c 0,0.58222 0.37915,1.1738 1.2793,1.1738 h 0.65039 v -0.8672 h -0.44726 c -0.26231,0 -0.38477,-0.13101 -0.38477,-0.36914 v -2.0234 h 0.83204 v -0.83985 h -0.83204 v -1.1211 h -1.0977 z m -7.1993,0.28906 c -1.6206,1.3723 -2.5005,3.1087 -1.9922,5.1582 0.64822,2.63 4.1025,4.1187 9.3771,3.623 2.0884,-0.19395 4.8222,-0.84457 6.7188,-1.8516 v -1.4297 c -1.7237,0.99304 -4.5754,1.8139 -6.9512,2.0254 -3.8634,0.34393 -7.8896,-0.19726 -8.4532,-3.1133 -0.27993,-1.4357 0.40174,-2.9605 1.3008,-3.9062 v -0.50586 z m 11.447,0.76173 c -1.1586,0 -2.0391,0.76356 -2.0391,2.1152 0,1.5806 1.0089,2.123 2.0625,2.123 0.80739,0 1.2632,-0.24593 1.6992,-0.6504 l -0.67774,-0.61328 c -0.28259,0.26256 -0.5251,0.39062 -1.0137,0.39062 -0.62172,0 -0.97657,-0.39059 -0.97657,-0.92189 h 2.793 v -0.375 c 0,-1.1741 -0.6729,-2.0684 -1.8477,-2.0684 z m -10.73,0.07031 v 3.0469 c 0,0.54823 0.27778,1.026 1.1094,1.1016 v -4.1484 h -1.1094 z m 2.0898,0 v 4.1035 h 1.0996 v -3.2656 l 0.91212,0.002 c 0.32288,0 0.45508,0.14871 0.45508,0.39258 v 2.8711 h 1.1035 v -2.875 c 0,-0.58421 -0.33206,-1.2285 -1.2969,-1.2285 h -2.2734 z m 8.5919,0.78906 c 0.56522,0 0.77849,0.4288 0.80275,0.87696 h -1.6992 c 0.01198,-0.18348 0.03674,-0.29797 0.10938,-0.44727 0.12116,-0.2477 0.41176,-0.42969 0.78712,-0.42969 z" />
  </g>
</svg>
