<?xml version="1.0" encoding="UTF-8" standalone="no"?>
<svg
   xmlns:dc="http://purl.org/dc/elements/1.1/"
   xmlns:cc="http://creativecommons.org/ns#"
   xmlns:rdf="http://www.w3.org/1999/02/22-rdf-syntax-ns#"
   xmlns:svg="http://www.w3.org/2000/svg"
   xmlns="http://www.w3.org/2000/svg"
   xmlns:sodipodi="http://sodipodi.sourceforge.net/DTD/sodipodi-0.dtd"
   xmlns:inkscape="http://www.inkscape.org/namespaces/inkscape"
   inkscape:version="1.0 (4035a4fb49, 2020-05-01)"
   sodipodi:docname="ibus-pinyin.svg"
   id="svg22"
   version="1.1"
   height="64"
   width="64">
  <metadata
     id="metadata26">
    <rdf:RDF>
      <cc:Work
         rdf:about="">
        <dc:format>image/svg+xml</dc:format>
        <dc:type
           rdf:resource="http://purl.org/dc/dcmitype/StillImage" />
        <dc:title></dc:title>
      </cc:Work>
    </rdf:RDF>
  </metadata>
  <sodipodi:namedview
     inkscape:current-layer="svg22"
     inkscape:window-maximized="1"
     inkscape:window-y="36"
     inkscape:window-x="0"
     inkscape:cy="50.762538"
     inkscape:cx="6.7071527"
     inkscape:zoom="4.2150193"
     showgrid="false"
     id="namedview24"
     inkscape:window-height="932"
     inkscape:window-width="1920"
     inkscape:pageshadow="2"
     inkscape:pageopacity="0"
     guidetolerance="10"
     gridtolerance="10"
     objecttolerance="10"
     borderopacity="1"
     bordercolor="#666666"
     pagecolor="#ffffff" />
  <defs
     id="defs12">
    <linearGradient
       gradientUnits="userSpaceOnUse"
       gradientTransform="matrix(3.7796,0,0,3.7796,67.562871,0)"
       y2="1.852"
       y1="15.081"
       x2="7.9373"
       x1="7.9373"
       id="linearGradient862">
      <stop
         id="stop2"
         offset="0"
         stop-color="#0962ff" />
      <stop
         id="stop4"
         offset="1"
         stop-color="#23f4ff" />
    </linearGradient>
    <linearGradient
       gradientTransform="translate(9.1e-5)"
       gradientUnits="userSpaceOnUse"
       y2="44.61"
       y1="21.424"
       x2="34.085"
       x1="34.085"
       id="linearGradient977">
      <stop
         id="stop7"
         offset="0"
         stop-color="#f9f9f9" />
      <stop
         id="stop9"
         offset="1"
         stop-color="#cdf3ff" />
    </linearGradient>
    <linearGradient
       gradientUnits="userSpaceOnUse"
       gradientTransform="matrix(3.7796,0,0,3.7796,80.433527,0)"
       y2="1.852"
       y1="15.081"
       x2="7.9373"
       x1="7.9373"
       id="linearGradient862-3">
      <stop
         id="stop2-5"
         offset="0"
         stop-color="#0962ff" />
      <stop
         id="stop4-6"
         offset="1"
         stop-color="#23f4ff" />
    </linearGradient>
    <linearGradient
       gradientTransform="translate(-7.15e-5,3.0197882e-5)"
       gradientUnits="userSpaceOnUse"
       y2="45.288"
       y1="20.339"
       x2="32.468"
       x1="32.468"
       id="linearGradient901">
      <stop
         id="stop7-2"
         offset="0"
         stop-color="#fff" />
      <stop
         id="stop9-9"
         offset="1"
         stop-color="#d9f9ff" />
    </linearGradient>
    <style
       id="style851"
       type="text/css" />
    <style
       id="style853"
       type="text/css" />
    <style
       id="style855"
       type="text/css" />
    <filter
       color-interpolation-filters="sRGB"
       height="1.048"
       width="1.048"
       y="-.024"
       x="-.024"
       id="filter2761">
      <feGaussianBlur
         id="feGaussianBlur857"
         stdDeviation="0.14552168" />
    </filter>
    <linearGradient
       gradientUnits="userSpaceOnUse"
       gradientTransform="matrix(3.779602,0,0,3.779602,2.1145996,-13.690874)"
       y2="1.17"
       y1="15.576"
       x2="15.65"
       x1="1.3315"
       id="linearGradient1024">
      <stop
         id="stop860"
         offset="0"
         stop-color="#00c8ff" />
      <stop
         id="stop862"
         offset="1"
         stop-color="#14a0ff" />
    </linearGradient>
    <filter
       id="filter11290"
       x="-.024"
       y="-.024"
       width="1.048"
       height="1.048"
       color-interpolation-filters="sRGB">
      <feGaussianBlur
         stdDeviation="0.15875313"
         id="feGaussianBlur852" />
    </filter>
    <linearGradient
       id="linearGradient1005"
       x1=".8714"
       x2="16.246"
       y1="16.164"
       y2=".78937"
       gradientTransform="matrix(3.779602,0,0,3.779602,-0.13342,0.02456715)"
       gradientUnits="userSpaceOnUse">
      <stop
         stop-color="#00c8ff"
         offset="0"
         id="stop855" />
      <stop
         stop-color="#14a0ff"
         offset="1"
         id="stop857" />
    </linearGradient>
  </defs>
  <circle
     transform="scale(3.779602)"
     id="circle862"
     stroke-width="0.14032"
     opacity="0.25"
     filter="url(#filter11290)"
     r="7.9376998"
     cy="8.4665003"
     cx="8.4665003" />
  <path
     id="path864"
     stroke-width="0.11719"
     fill="url(#linearGradient1005)"
     d="m 62.000383,31.999811 c 0,3.596442 -0.633045,7.0448 -1.79395,10.240453 -0.806983,2.221197 -1.868598,4.321219 -3.151924,6.263557 -0.537535,0.816696 -1.115511,1.605386 -1.729016,2.363347 -1.964108,2.425711 -4.298164,4.538168 -6.918562,6.252596 -0.964932,0.631874 -1.96785,1.20985 -3.006144,1.727731 -4.032079,2.017892 -8.583854,3.152982 -13.400957,3.152982 -4.817103,0 -9.368877,-1.13509 -13.400957,-3.153095 C 17.560465,58.329388 16.556376,57.751411 15.591444,57.11965 12.937899,55.382054 10.575912,53.236487 8.595779,50.770675 7.981102,50.006591 7.404297,49.210644 6.866762,48.386578 5.617755,46.476367 4.583089,44.41535 3.792056,42.237165 2.631302,39.042305 1.99939,35.595271 1.99939,32.000113 c 0,-16.569019 13.431572,-30.0005903 30.000591,-30.0005903 8.317015,0 15.842958,3.3845577 21.27727,8.8506933 1.566116,1.574658 2.958445,3.323367 4.143577,5.213961 1.120463,1.780457 2.057162,3.688211 2.785718,5.695105 1.161018,3.195993 1.794064,6.644162 1.794064,10.240453 z"
     style="fill:url(#linearGradient1005)" />
  <g
     id="g877"
     fill="#5e4aa6">
    <circle
       id="circle871"
       r="0"
       cy="-1262.9"
       cx="-1401.7" />
    <circle
       id="circle873"
       fill-rule="evenodd"
       r="0"
       cy="2.5994"
       cx="-302.14001" />
    <circle
       id="circle875"
       r="0"
       cy="-1279.3"
       cx="-1124.8" />
  </g>
  <g
     id="g887"
     stroke-width="0.26458"
     fill="#5e4aa6"
     transform="matrix(3.779602,0,0,3.779602,123.83,-38.184006)">
    <circle
       id="circle879"
       r="0"
       cy="-338.76999"
       cx="-299.01999" />
    <circle
       id="circle881"
       fill-rule="evenodd"
       r="0"
       cy="-3.9487"
       cx="-8.1062002" />
    <circle
       id="circle883"
       r="0"
       cy="-357.69"
       cx="-278.25" />
    <circle
       id="circle885"
       fill-rule="evenodd"
       r="0"
       cy="-22.858999"
       cx="12.663" />
  </g>
  <g
     id="g874"
     stroke-width="0.26458"
     fill="#5e4aa6"
     transform="matrix(3.779602,0,0,3.779602,-89.906463,5.3116222)">
    <circle
       id="circle866"
       r="0"
       cy="-328.38"
       cx="-330.35001" />
    <circle
       id="circle868"
       r="0"
       cy="-326.25"
       cx="-312.10999" />
    <circle
       id="circle870"
       r="0"
       cy="-333.07001"
       cx="-306.01999" />
    <circle
       id="circle872"
       r="0"
       cy="-326.01001"
       cx="-308.84" />
  </g>
  <path
     style="fill:url(#linearGradient977)"
     id="path20"
     stroke-width="3.7796"
     fill="url(#linearGradient977)"
     d="m 40.842089,17.771 c -0.739469,1.9719 -1.604399,4.0648 -2.585898,5.7903 h -9.0977 v 2.3932 h 3.307399 v 4.2575 c 0,0.73947 -0.04482,1.5999 -0.125478,2.2587 H 28.35181 v 2.4066 h 3.7422 c -0.49298,4.3517 -2.173599,7.3678 -5.0508,9.501 l 1.7254,1.8509 c 3.3702,-2.4649 5.337599,-6.095 5.915699,-11.352 h 5.0105 v 11.352 h 2.4649 v -11.352 h 4.8402 v -2.4066 h -4.8402 v -6.5163 h 4.0335 v -2.3932 h -5.3511 c 0.90529,-1.3983 1.8061,-3.2402 2.7114,-5.0508 z m -18.956997,0.07618 v 4.867 h -4.0783 v 2.4335 h 4.0783 v 6.4222 c -1.559602,0.6588 -3.083401,1.3131 -4.885001,1.9719 l 0.860471,2.5859 c 1.4789,-0.57364 2.7114,-1.1473 4.0245,-1.7254 v 7.7622 c 0,0.98596 -0.20615,1.4789 -0.61846,1.4789 -1.1473,0 -2.0929,-0.16582 -3.1595,-0.49298 l 0.49298,2.5859 c 0.985959,0.24649 1.8912,0.37198 3.038499,0.37198 0.98596,0 1.6851,-0.24649 2.0929,-0.73947 0.412311,-0.49298 0.56468,-1.3579 0.56468,-2.5859 v -9.6086 l 3.787,-1.9719 -0.37198,-2.2184 c -1.0666,0.49298 -2.3484,1.0263 -3.415,1.5999 v -5.4407 h 4.0559 v -2.429 h -4.0559 v -4.867 z m 11.562998,0.29579 -2.460399,0.73947 c 0.90529,1.1473 1.599899,2.4649 2.092899,3.9438 l 2.585901,-0.86495 a 11.921,11.921 0 0 0 -2.213901,-3.8183 z m 1.478901,7.8115 h 4.7684 v 6.5163 h -4.885002 c 0.0762,-0.57365 0.121001,-1.3131 0.121001,-1.8823 z" />
</svg>
