<?xml version="1.0" encoding="UTF-8"?>
<!-- Created with Inkscape (http://www.inkscape.org/) -->
<svg width="64" height="64" version="1.1" viewBox="0 0 16.933 16.933" xmlns="http://www.w3.org/2000/svg" xmlns:cc="http://creativecommons.org/ns#" xmlns:dc="http://purl.org/dc/elements/1.1/" xmlns:rdf="http://www.w3.org/1999/02/22-rdf-syntax-ns#">
 <defs>
  <filter id="filter11290" x="-.024" y="-.024" width="1.048" height="1.048" color-interpolation-filters="sRGB">
   <feGaussianBlur stdDeviation="0.15875313"/>
  </filter>
  <linearGradient id="linearGradient1005" x1=".73911" x2="16.388" y1="16.296" y2=".64687" gradientTransform="translate(-.0078552 -5.0139e-5)" gradientUnits="userSpaceOnUse">
   <stop stop-color="#dddfe1" offset="0"/>
   <stop stop-color="#f3f4f6" offset="1"/>
  </linearGradient>
 </defs>
 <metadata>
  <rdf:RDF>
   <cc:Work rdf:about="">
    <dc:format>image/svg+xml</dc:format>
    <dc:type rdf:resource="http://purl.org/dc/dcmitype/StillImage"/>
    <dc:title/>
   </cc:Work>
  </rdf:RDF>
 </metadata>
 <circle cx="8.4937" cy="8.46" r="7.9377" filter="url(#filter11290)" opacity=".25" stroke-width=".14032"/>
 <path d="m16.431 8.4599c0 0.95154-0.16749 1.8639-0.47464 2.7094-0.21351 0.58768-0.49439 1.1433-0.83393 1.6572-0.14222 0.21608-0.29514 0.42475-0.45746 0.62529-0.51966 0.64179-1.1372 1.2007-1.8305 1.6543-0.2553 0.16718-0.52065 0.3201-0.79536 0.45712-1.0668 0.53389-2.2711 0.83421-3.5456 0.83421s-2.4788-0.30032-3.5456-0.83424c-0.27474-0.13705-0.5404-0.28997-0.7957-0.45712-0.70207-0.45973-1.327-1.0274-1.8509-1.6798-0.16263-0.20216-0.31524-0.41275-0.45746-0.63078-0.33046-0.5054-0.60421-1.0507-0.8135-1.627-0.30711-0.84529-0.4743-1.7573-0.4743-2.7085 0-4.3838 3.5537-7.9375 7.9375-7.9375 2.2005 0 4.1917 0.89548 5.6295 2.3417 0.41436 0.41662 0.78274 0.87929 1.0963 1.3795 0.29645 0.47107 0.54428 0.97582 0.73704 1.5068 0.30718 0.84559 0.47467 1.7579 0.47467 2.7094z" fill="url(#linearGradient1005)" stroke-width=".031006"/>
 <g fill="#5e4aa6" stroke-width=".26458">
  <circle cx="-330.35" cy="-328.38" r="0"/>
  <circle cx="-312.11" cy="-326.25" r="0"/>
  <circle cx="-306.02" cy="-333.07" r="0"/>
  <circle cx="-308.84" cy="-326.01" r="0"/>
 </g>
 <path d="m8.414 3.7835c-0.29307-5.821e-4 -0.58445 0.10597-0.79477 0.32125l-3.4985 3.5803c-1.1823 1.4641 0.80466 1.2941 1.6564 1.7158 0.30554 0.31231-1.1709 0.54162-0.86533 0.85419 0.30554 0.31231 1.8461 0.60131 2.1521 0.91361 0.30554 0.31231-0.62491 0.64404-0.3194 0.95632 0.30554 0.31231 1.0116 0.01623 1.1439 0.73719 0.09429 0.51521 1.2747 0.2214 1.8513-0.20055 0.30553-0.31255-0.58408-0.28191-0.27855-0.59422 0.75976-0.77699 1.467-0.28363 1.727-1.0622 0.12841-0.3847-1.1194-0.59202-0.81334-0.90433 0.87909-0.51339 3.9171-0.84789 2.4753-2.2896l-3.6266-3.7065c-0.22179-0.21293-0.51654-0.32067-0.80964-0.32125zm0.02971 0.33982c0.20926 0.00111 0.41806 0.080003 0.56821 0.23211l1.3853 1.4057c0.13128 0.13414 0.12916 0.39319 0.05571 0.46793l-0.68706-0.54966-0.13556 0.81519-0.57379-0.30268-0.92105 0.57937-0.30453-1.2237-0.49394 0.85419h-0.75392c-0.30789 0-0.34474-0.3906-0.06499-0.67034 0.48865-0.52744 1.049-1.0645 1.3537-1.376 0.15315-0.15654 0.36268-0.23323 0.57194-0.23211zm-1.6619 5.4704c0.09351 0.05808 1.5076 0.34564 1.8532 0.40295 0.11981 0.02527 0.03515 0.14877-0.12998 0.23211-0.37247 0.09898-2.1791-0.63507-1.7233-0.63507zm5.5003 0.98418c-0.28455 0.0098-0.56514 0.15452-0.6425 0.42711 0 0.17764 1.3073 0.29516 1.3073-0.04085-0.09325-0.26984-0.38022-0.39605-0.66478-0.38623zm-6.0017 0.76876c-0.4102-0.0038-0.89049 0.29704-0.53664 0.6035 0.30995 0.26802 0.78866-0.06792 0.93219-0.44195-0.08446-0.11223-0.23502-0.16006-0.39554-0.16155zm5.1937 0.02414c-0.39954 0.3584 0.04441 0.7218 0.43822 0.49024 0.08778-0.08908-2e-3 -0.40115-0.43822-0.49024z" fill="#333" stroke-width=".93192"/>
</svg>
