<?xml version="1.0" encoding="UTF-8"?>
<!-- Created with Inkscape (http://www.inkscape.org/) -->
<svg width="64" height="64" version="1.1" viewBox="0 0 16.933 16.933" xmlns="http://www.w3.org/2000/svg" xmlns:cc="http://creativecommons.org/ns#" xmlns:dc="http://purl.org/dc/elements/1.1/" xmlns:rdf="http://www.w3.org/1999/02/22-rdf-syntax-ns#">
 <defs>
  <filter id="filter11290" x="-.024" y="-.024" width="1.048" height="1.048" color-interpolation-filters="sRGB">
   <feGaussianBlur stdDeviation="0.15875313"/>
  </filter>
  <linearGradient id="linearGradient1005" x1=".73911" x2="16.388" y1="16.296" y2=".64687" gradientTransform="translate(-.0078552 -5.0139e-5)" gradientUnits="userSpaceOnUse">
   <stop stop-color="#00c8ff" offset="0"/>
   <stop stop-color="#14a0ff" offset="1"/>
  </linearGradient>
  <filter id="filter1655-3" x="-.0735" y="-.098" width="1.147" height="1.196" color-interpolation-filters="sRGB">
   <feGaussianBlur stdDeviation="0.32410824"/>
  </filter>
 </defs>
 <metadata>
  <rdf:RDF>
   <cc:Work rdf:about="">
    <dc:format>image/svg+xml</dc:format>
    <dc:type rdf:resource="http://purl.org/dc/dcmitype/StillImage"/>
    <dc:title/>
   </cc:Work>
  </rdf:RDF>
 </metadata>
 <circle cx="8.4937" cy="8.46" r="7.9377" filter="url(#filter11290)" opacity=".25" stroke-width=".14032"/>
 <path d="m16.431 8.4599c0 0.95154-0.16749 1.8639-0.47464 2.7094-0.21351 0.58768-0.49439 1.1433-0.83393 1.6572-0.14222 0.21608-0.29514 0.42475-0.45746 0.62529-0.51966 0.64179-1.1372 1.2007-1.8305 1.6543-0.2553 0.16718-0.52065 0.3201-0.79536 0.45712-1.0668 0.53389-2.2711 0.83421-3.5456 0.83421s-2.4788-0.30032-3.5456-0.83424c-0.27474-0.13705-0.5404-0.28997-0.7957-0.45712-0.70207-0.45973-1.327-1.0274-1.8509-1.6798-0.16263-0.20216-0.31524-0.41275-0.45746-0.63078-0.33046-0.5054-0.60421-1.0507-0.8135-1.627-0.30711-0.84529-0.4743-1.7573-0.4743-2.7085 0-4.3838 3.5537-7.9375 7.9375-7.9375 2.2005 0 4.1917 0.89548 5.6295 2.3417 0.41436 0.41662 0.78274 0.87929 1.0963 1.3795 0.29645 0.47107 0.54428 0.97582 0.73704 1.5068 0.30718 0.84559 0.47467 1.7579 0.47467 2.7094z" fill="url(#linearGradient1005)" stroke-width=".031006"/>
 <g fill="#5e4aa6" stroke-width=".26458">
  <circle cx="-330.35" cy="-328.38" r="0"/>
  <circle cx="-312.11" cy="-326.25" r="0"/>
  <circle cx="-306.02" cy="-333.07" r="0"/>
  <circle cx="-308.84" cy="-326.01" r="0"/>
 </g>
 <g transform="translate(-.33438 -.48423)">
  <g transform="translate(-.12387 -.051516)" fill="#0f9bff" filter="url(#filter1655-3)">
   <rect x="3.6602" y="5.027" width="10.583" height="7.9373" ry="1.1978"/>
   <path d="m4.858 5.027c-0.35542 0-0.67034 0.15618-0.88933 0.40048l4.6358 3.9051a0.4911 0.41369 0 0 0 0.025839 0.020153 0.4911 0.41369 0 0 0 0.038239 0.025321 0.4911 0.41369 0 0 0 0.04134 0.022221 0.4911 0.41369 0 0 0 0.043923 0.018603 0.4911 0.41369 0 0 0 0.046508 0.014469 0.4911 0.41369 0 0 0 0.047026 0.011369 0.4911 0.41369 0 0 0 0.048574 0.0062 0.4911 0.41369 0 0 0 0.048576 0.0031 0.4911 0.41369 0 0 0 0.04909-0.00155 0.4911 0.41369 0 0 0 0.048576-0.00568 0.4911 0.41369 0 0 0 0.048058-0.00982 0.4911 0.41369 0 0 0 0.046507-0.013436 0.4911 0.41369 0 0 0 0.044441-0.01757 0.4911 0.41369 0 0 0 0.041856-0.021187 0.4911 0.41369 0 0 0 0.03979-0.024287 0.4911 0.41369 0 0 0 0.036173-0.027905l4.6358-3.9051c-0.21899-0.24431-0.53391-0.40048-0.88933-0.40048z"/>
   <path d="m13.935 5.4275-8.9471 7.5369h8.0577c0.66358 0 1.1978-0.53426 1.1978-1.1978v-5.5417c0-0.30816-0.11863-0.58553-0.3085-0.79735z"/>
  </g>
  <g transform="translate(-.12387 -.051516)">
   <rect x="3.6602" y="5.027" width="10.583" height="7.9373" ry="1.1978" fill="#8cd2ff"/>
   <path d="m4.858 5.027c-0.35542 0-0.67034 0.15618-0.88933 0.40048l4.6358 3.9051a0.4911 0.41369 0 0 0 0.025839 0.020153 0.4911 0.41369 0 0 0 0.038239 0.025321 0.4911 0.41369 0 0 0 0.04134 0.022221 0.4911 0.41369 0 0 0 0.043923 0.018603 0.4911 0.41369 0 0 0 0.046508 0.014469 0.4911 0.41369 0 0 0 0.047026 0.011369 0.4911 0.41369 0 0 0 0.048574 0.0062 0.4911 0.41369 0 0 0 0.048576 0.0031 0.4911 0.41369 0 0 0 0.04909-0.00155 0.4911 0.41369 0 0 0 0.048576-0.00568 0.4911 0.41369 0 0 0 0.048058-0.00982 0.4911 0.41369 0 0 0 0.046507-0.013436 0.4911 0.41369 0 0 0 0.044441-0.01757 0.4911 0.41369 0 0 0 0.041856-0.021187 0.4911 0.41369 0 0 0 0.03979-0.024287 0.4911 0.41369 0 0 0 0.036173-0.027905l4.6358-3.9051c-0.21899-0.24431-0.53391-0.40048-0.88933-0.40048z" fill="#fff"/>
   <path d="m13.935 5.4275-8.9471 7.5369h8.0577c0.66358 0 1.1978-0.53426 1.1978-1.1978v-5.5417c0-0.30816-0.11863-0.58553-0.3085-0.79735z" fill="#b4e1ff"/>
  </g>
 </g>
</svg>
