<?xml version="1.0" encoding="UTF-8"?>
<svg width="64" height="64" version="1.1" xmlns="http://www.w3.org/2000/svg">
 <defs>
  <filter id="e" x="-.17917" y="-.02001" width="1.3583" height="1.04" color-interpolation-filters="sRGB">
   <feGaussianBlur stdDeviation="0.14989745"/>
  </filter>
  <filter id="c" x="-.035995" y="-.036004" width="1.072" height="1.072" color-interpolation-filters="sRGB">
   <feGaussianBlur stdDeviation="0.24398276"/>
  </filter>
  <filter id="filter25919" x="-.048" y="-.048" width="1.096" height="1.096" color-interpolation-filters="sRGB">
   <feGaussianBlur stdDeviation="0.12"/>
  </filter>
  <filter id="filter11290" x="-.024" y="-.024" width="1.048" height="1.048" color-interpolation-filters="sRGB">
   <feGaussianBlur stdDeviation="0.15875313"/>
  </filter>
  <linearGradient id="linearGradient1005" x1=".73911" x2="16.388" y1="16.296" y2=".64687" gradientTransform="matrix(3.7796 0 0 3.7796 -64.431 -2.4107)" gradientUnits="userSpaceOnUse">
   <stop stop-color="#dddfe1" offset="0"/>
   <stop stop-color="#f3f4f6" offset="1"/>
  </linearGradient>
 </defs>
 <g transform="translate(64.299 2.4352)">
  <circle transform="matrix(3.7796 0 0 3.7796 -64.402 -2.4107)" cx="8.4937" cy="8.46" r="7.9377" filter="url(#filter11290)" opacity=".25" stroke-width=".14032"/>
  <path d="m-2.2991 29.565c0 3.5964-0.63305 7.0448-1.794 10.24-0.80698 2.2212-1.8686 4.3212-3.1519 6.2636-0.53754 0.8167-1.1155 1.6054-1.729 2.3633-1.9641 2.4257-4.2982 4.5382-6.9186 6.2526-0.96493 0.63187-1.9678 1.2099-3.0061 1.7277-4.0321 2.0179-8.5839 3.153-13.401 3.153s-9.3689-1.1351-13.401-3.1531c-1.0384-0.51799-2.0425-1.096-3.0074-1.7277-2.6535-1.7376-5.0155-3.8832-6.9957-6.349-0.61468-0.76408-1.1915-1.56-1.729-2.3841-1.249-1.9102-2.2837-3.9712-3.0747-6.1494-1.1608-3.1949-1.7927-6.6419-1.7927-10.237 0-16.569 13.432-30.001 30.001-30.001 8.317 0 15.843 3.3846 21.277 8.8507 1.5661 1.5747 2.9584 3.3234 4.1436 5.214 1.1205 1.7805 2.0572 3.6882 2.7857 5.6951 1.161 3.196 1.7941 6.6442 1.7941 10.24z" fill="url(#linearGradient1005)" stroke-width=".11719"/>
 </g>
 <path d="m32 7.75a24.25 24.25 0 0 0 0 48.5 24.25 24.25 0 0 0 0-48.5zm0 4.7324a19.517 19.517 0 0 1 0 39.035 19.517 19.517 0 0 1 0-39.035z" fill="#f2c046"/>
 <path d="m36.144 16.546a16 16 0 0 1 11.313 11.314l-15.454 4.1412z" fill="#ee7923" stroke-linecap="square" stroke-width="2.1645"/>
 <path transform="matrix(.4 -.69282 .69282 .4 -2.9438 41.356)" d="m31.998 14.998a1.0016 1.0016 0 0 0-1.002 1.002 1.0016 1.0016 0 0 0 0.0039 0.07031v15.916a1.0016 1.0016 0 0 0 1.002 0.99023 1.0016 1.0016 0 0 0 1.002-1.002 1.0016 1.0016 0 0 0-0.0039-0.07031v-15.904a1.0016 1.0016 0 0 0 0-0.01172 1.0016 1.0016 0 0 0-1.002-0.99023z" filter="url(#e)" opacity=".5" stroke-width="3.7796"/>
 <path transform="matrix(.4 -.69282 .69282 .4 -2.9438 41.356)" d="m32.709 31.991 15.557 15.557-0.71056 0.70678-15.557-15.557z" filter="url(#c)" opacity=".35" stroke-width="3.7796"/>
 <path d="m35 32a3 3 0 0 1-3 3 3 3 0 0 1-3-3 3 3 0 0 1 3-3 3 3 0 0 1 3 3z" filter="url(#filter25919)" opacity=".5"/>
 <g fill="#333">
  <path d="m32.276 31.505 17.002-4.5556 0.20544 0.775-17.002 4.5556z" stroke-width="3.0237"/>
  <path d="m20.219 25.201a0.80128 0.80128 0 0 0 0.29341 1.095 0.80128 0.80128 0 0 0 0.05026 0.02544l11.027 6.3665a0.80128 0.80128 0 0 0 1.0868-0.29812 0.80128 0.80128 0 0 0-0.29341-1.095 0.80128 0.80128 0 0 0-0.05026-0.02544l-11.018-6.3615a0.80128 0.80128 0 0 0-0.0081-0.0047 0.80128 0.80128 0 0 0-1.0868 0.29812z" stroke-width="3.0237"/>
  <circle cx="32" cy="32" r="3" stroke-linecap="square" stroke-width="3.6053"/>
 </g>
 <circle cx="32" cy="32" r="2" fill="#ee7923" stroke-linecap="square" stroke-width="2.4035"/>
</svg>
