<?xml version="1.0" encoding="UTF-8" standalone="no"?>
<svg
   xmlns:dc="http://purl.org/dc/elements/1.1/"
   xmlns:cc="http://creativecommons.org/ns#"
   xmlns:rdf="http://www.w3.org/1999/02/22-rdf-syntax-ns#"
   xmlns:svg="http://www.w3.org/2000/svg"
   xmlns="http://www.w3.org/2000/svg"
   xmlns:sodipodi="http://sodipodi.sourceforge.net/DTD/sodipodi-0.dtd"
   xmlns:inkscape="http://www.inkscape.org/namespaces/inkscape"
   inkscape:version="1.0 (4035a4fb49, 2020-05-01)"
   sodipodi:docname="kate.svg"
   id="svg59"
   version="1.1"
   height="64"
   width="64">
  <metadata
     id="metadata63">
    <rdf:RDF>
      <cc:Work
         rdf:about="">
        <dc:format>image/svg+xml</dc:format>
        <dc:type
           rdf:resource="http://purl.org/dc/dcmitype/StillImage" />
        <dc:title></dc:title>
      </cc:Work>
    </rdf:RDF>
  </metadata>
  <sodipodi:namedview
     inkscape:current-layer="svg59"
     inkscape:window-maximized="1"
     inkscape:window-y="36"
     inkscape:window-x="0"
     inkscape:cy="42.834106"
     inkscape:cx="36.891628"
     inkscape:zoom="5.9609375"
     showgrid="false"
     id="namedview61"
     inkscape:window-height="932"
     inkscape:window-width="1920"
     inkscape:pageshadow="2"
     inkscape:pageopacity="0"
     guidetolerance="10"
     gridtolerance="10"
     objecttolerance="10"
     borderopacity="1"
     bordercolor="#666666"
     pagecolor="#ffffff" />
  <defs
     id="defs37">
    <linearGradient
       gradientUnits="userSpaceOnUse"
       y2="109.04"
       y1="105.11"
       x2="64.928"
       x1="61.163"
       id="c-3">
      <stop
         id="stop2"
         offset="0"
         stop-color="#e6e6e6" />
      <stop
         id="stop4"
         offset="1"
         stop-color="#bfbfbf" />
    </linearGradient>
    <linearGradient
       gradientUnits="userSpaceOnUse"
       y2="120.36"
       y1="106.37"
       x2="68.67"
       x1="77.401"
       id="g">
      <stop
         id="stop7"
         offset="0"
         stop-color="#fff" />
      <stop
         id="stop9"
         offset="1"
         stop-color="#bfbfbf" />
    </linearGradient>
    <linearGradient
       gradientUnits="userSpaceOnUse"
       y2="118.55"
       y1="112.73"
       x2="68.164"
       x1="68.229"
       id="h">
      <stop
         id="stop12"
         offset="0"
         stop-color="#c7c7c7" />
      <stop
         id="stop14"
         offset="1"
         stop-color="#fff" />
    </linearGradient>
    <linearGradient
       gradientUnits="userSpaceOnUse"
       y2="104.89"
       y1="106.86"
       x2="71.136"
       x1="63.367"
       id="i">
      <stop
         id="stop17"
         offset="0"
         stop-color="#fff" />
      <stop
         id="stop19"
         offset="1"
         stop-color="#ccc" />
    </linearGradient>
    <linearGradient
       gradientUnits="userSpaceOnUse"
       y2="109.67"
       y1="104.46"
       x2="66.336"
       x1="66.951"
       id="j">
      <stop
         id="stop22"
         offset="0"
         stop-color="#e5e5e5" />
      <stop
         id="stop24"
         offset="1"
         stop-color="#ccc" />
    </linearGradient>
    <linearGradient
       gradientUnits="userSpaceOnUse"
       y2="107.31"
       y1="115.88"
       x2="77.488"
       x1="62.961"
       id="k">
      <stop
         id="stop27"
         offset="0"
         stop-color="#e6e6e6" />
      <stop
         id="stop29"
         offset="1"
         stop-color="#fff" />
    </linearGradient>
    <linearGradient
       gradientUnits="userSpaceOnUse"
       gradientTransform="matrix(3.7796,0,0,3.7796,103.21195,0)"
       y2="1.852"
       y1="15.081"
       x2="7.9373"
       x1="7.9373"
       id="linearGradient862">
      <stop
         id="stop32"
         offset="0"
         stop-color="#0a72ff" />
      <stop
         id="stop34"
         offset="1"
         stop-color="#28d1ff" />
    </linearGradient>
    <linearGradient
       gradientUnits="userSpaceOnUse"
       gradientTransform="matrix(3.7796,0,0,3.7796,66.487273,0)"
       y2="1.852"
       y1="15.081"
       x2="7.9373"
       x1="7.9373"
       id="linearGradient862-36">
      <stop
         id="stop2-7"
         offset="0"
         stop-color="#0962ff" />
      <stop
         id="stop4-5"
         offset="1"
         stop-color="#23f4ff" />
    </linearGradient>
    <linearGradient
       gradientTransform="translate(-0.5009985,1.003)"
       gradientUnits="userSpaceOnUse"
       y2="46.529"
       y1="16.711"
       x2="31.892"
       x1="31.892"
       id="linearGradient1059">
      <stop
         id="stop7-3"
         offset="0"
         stop-color="#fff" />
      <stop
         id="stop9-5"
         offset="1"
         stop-color="#cdf3ff" />
    </linearGradient>
    <linearGradient
       gradientUnits="userSpaceOnUse"
       gradientTransform="matrix(3.7796,0,0,3.7796,67.562871,0)"
       y2="1.852"
       y1="15.081"
       x2="7.9373"
       x1="7.9373"
       id="linearGradient862-35">
      <stop
         id="stop2-6"
         offset="0"
         stop-color="#0962ff" />
      <stop
         id="stop4-2"
         offset="1"
         stop-color="#23f4ff" />
    </linearGradient>
    <linearGradient
       gradientTransform="translate(9.1e-5)"
       gradientUnits="userSpaceOnUse"
       y2="44.61"
       y1="21.424"
       x2="34.085"
       x1="34.085"
       id="linearGradient977">
      <stop
         id="stop7-9"
         offset="0"
         stop-color="#f9f9f9" />
      <stop
         id="stop9-1"
         offset="1"
         stop-color="#cdf3ff" />
    </linearGradient>
    <linearGradient
       gradientUnits="userSpaceOnUse"
       gradientTransform="matrix(3.7796,0,0,3.7796,80.433527,0)"
       y2="1.852"
       y1="15.081"
       x2="7.9373"
       x1="7.9373"
       id="linearGradient862-3">
      <stop
         id="stop2-5"
         offset="0"
         stop-color="#0962ff" />
      <stop
         id="stop4-6"
         offset="1"
         stop-color="#23f4ff" />
    </linearGradient>
    <linearGradient
       gradientTransform="translate(-7.15e-5,3.0197882e-5)"
       gradientUnits="userSpaceOnUse"
       y2="45.288"
       y1="20.339"
       x2="32.468"
       x1="32.468"
       id="linearGradient901">
      <stop
         id="stop7-2"
         offset="0"
         stop-color="#fff" />
      <stop
         id="stop9-9"
         offset="1"
         stop-color="#d9f9ff" />
    </linearGradient>
    <style
       id="style851"
       type="text/css" />
    <style
       id="style853"
       type="text/css" />
    <style
       id="style855"
       type="text/css" />
    <filter
       color-interpolation-filters="sRGB"
       height="1.048"
       width="1.048"
       y="-.024"
       x="-.024"
       id="filter2761">
      <feGaussianBlur
         id="feGaussianBlur857"
         stdDeviation="0.14552168" />
    </filter>
    <linearGradient
       gradientUnits="userSpaceOnUse"
       gradientTransform="matrix(3.779602,0,0,3.779602,2.1145996,-13.690874)"
       y2="1.17"
       y1="15.576"
       x2="15.65"
       x1="1.3315"
       id="linearGradient1024">
      <stop
         id="stop860"
         offset="0"
         stop-color="#00c8ff" />
      <stop
         id="stop862"
         offset="1"
         stop-color="#14a0ff" />
    </linearGradient>
    <filter
       id="filter11290"
       x="-.024"
       y="-.024"
       width="1.048"
       height="1.048"
       color-interpolation-filters="sRGB">
      <feGaussianBlur
         stdDeviation="0.15875313"
         id="feGaussianBlur852" />
    </filter>
    <linearGradient
       id="linearGradient1005"
       x1=".8714"
       x2="16.246"
       y1="16.164"
       y2=".78937"
       gradientTransform="matrix(3.779602,0,0,3.779602,-0.13342,0.02456715)"
       gradientUnits="userSpaceOnUse">
      <stop
         stop-color="#00c8ff"
         offset="0"
         id="stop855" />
      <stop
         stop-color="#14a0ff"
         offset="1"
         id="stop857" />
    </linearGradient>
  </defs>
  <circle
     transform="scale(3.779602)"
     id="circle862"
     stroke-width="0.14032"
     opacity="0.25"
     filter="url(#filter11290)"
     r="7.9376998"
     cy="8.4665003"
     cx="8.4665003" />
  <path
     id="path864"
     stroke-width="0.11719"
     fill="url(#linearGradient1005)"
     d="m 62.000383,31.999811 c 0,3.596442 -0.633045,7.0448 -1.79395,10.240453 -0.806983,2.221197 -1.868598,4.321219 -3.151924,6.263557 -0.537535,0.816696 -1.115511,1.605386 -1.729016,2.363347 -1.964108,2.425711 -4.298164,4.538168 -6.918562,6.252596 -0.964932,0.631874 -1.96785,1.20985 -3.006144,1.727731 -4.032079,2.017892 -8.583854,3.152982 -13.400957,3.152982 -4.817103,0 -9.368877,-1.13509 -13.400957,-3.153095 C 17.560465,58.329388 16.556376,57.751411 15.591444,57.11965 12.937899,55.382054 10.575912,53.236487 8.595779,50.770675 7.981102,50.006591 7.404297,49.210644 6.866762,48.386578 5.617755,46.476367 4.583089,44.41535 3.792056,42.237165 2.631302,39.042305 1.99939,35.595271 1.99939,32.000113 c 0,-16.569019 13.431572,-30.0005903 30.000591,-30.0005903 8.317015,0 15.842958,3.3845577 21.27727,8.8506933 1.566116,1.574658 2.958445,3.323367 4.143577,5.213961 1.120463,1.780457 2.057162,3.688211 2.785718,5.695105 1.161018,3.195993 1.794064,6.644162 1.794064,10.240453 z"
     style="fill:url(#linearGradient1005)" />
  <g
     id="g877"
     fill="#5e4aa6">
    <circle
       id="circle871"
       r="0"
       cy="-1262.9"
       cx="-1401.7" />
    <circle
       id="circle873"
       fill-rule="evenodd"
       r="0"
       cy="2.5994"
       cx="-302.14001" />
    <circle
       id="circle875"
       r="0"
       cy="-1279.3"
       cx="-1124.8" />
  </g>
  <g
     id="g887"
     stroke-width="0.26458"
     fill="#5e4aa6"
     transform="matrix(3.779602,0,0,3.779602,123.83,-38.184006)">
    <circle
       id="circle879"
       r="0"
       cy="-338.76999"
       cx="-299.01999" />
    <circle
       id="circle881"
       fill-rule="evenodd"
       r="0"
       cy="-3.9487"
       cx="-8.1062002" />
    <circle
       id="circle883"
       r="0"
       cy="-357.69"
       cx="-278.25" />
    <circle
       id="circle885"
       fill-rule="evenodd"
       r="0"
       cy="-22.858999"
       cx="12.663" />
  </g>
  <g
     id="g874"
     stroke-width="0.26458"
     fill="#5e4aa6"
     transform="matrix(3.779602,0,0,3.779602,-89.906463,5.3116222)">
    <circle
       id="circle866"
       r="0"
       cy="-328.38"
       cx="-330.35001" />
    <circle
       id="circle868"
       r="0"
       cy="-326.25"
       cx="-312.10999" />
    <circle
       id="circle870"
       r="0"
       cy="-333.07001"
       cx="-306.01999" />
    <circle
       id="circle872"
       r="0"
       cy="-326.01001"
       cx="-308.84" />
  </g>
  <path
     d="m 29.992294,12.008286 c -1.459214,0.04831 -3.013147,0.301617 -4.601563,0.830079 -0.396331,0.131923 -0.79551,0.27959 -1.195312,0.447265 l -0.002,0.002 c -1.201003,0.503906 -2.413952,1.174166 -3.613281,2.042969 l -0.002,0.002 c -2.490243,1.803895 -3.932845,2.626128 -5.177734,3.261719 -0.414034,0.211389 -0.807157,0.404069 -1.208985,0.603516 1.41778,0.107039 9.758885,-1.07211 11.464844,3.708984 -7.116184,2.358702 -8.799473,6.438619 -6.541015,11.080078 0.0269,0.05919 0.04394,0.11623 0.07227,0.175781 0.07068,0.148587 0.147272,0.278985 0.220703,0.419922 0.0026,0.0046 0.0052,0.009 0.0078,0.01367 0.425902,0.814991 0.895564,1.516377 1.410156,2.115235 0.0015,0.0017 0.0024,0.0041 0.0039,0.0059 2.689043,3.125113 6.541637,3.77466 11.103516,6.826172 4.366965,2.920969 5.436065,4.408191 8.253906,8.457031 -0.585871,-5.594188 -3.291041,-12.803735 -4.556641,-15.980469 0.675985,0.40436 1.300648,0.756377 1.902344,1.080078 0.452819,0.252233 0.914296,0.489322 1.384766,0.707032 0.01741,0.0082 0.03535,0.01722 0.05273,0.02539 0.320355,0.14718 0.645989,0.285832 0.97461,0.417969 1.063252,0.441346 2.129439,0.784594 3.292968,1.060547 0.123661,0.03082 0.244443,0.06637 0.369141,0.0957 0.0089,0.002 0.01845,0.0039 0.02734,0.0059 1.793559,0.420134 3.699297,0.684222 5.71289,0.845703 0.160243,0.01727 0.293739,0.03543 0.458985,0.05273 -0.0079,-0.0056 -0.01168,-0.0081 -0.01953,-0.01367 0.0073,5.23e-4 0.01421,0.0014 0.02148,0.002 -8.838938,-6.292068 -10.516797,-7.521361 -15.576172,-11.833984 -3.39432,0.171097 -3.02176,0.141077 -5.023437,0.255859 0.0025,0.0041 0.0053,0.0076 0.0078,0.01172 -0.0039,2.21e-4 -0.0059,-2.23e-4 -0.0098,0 0.09306,0.131318 0.178687,0.268907 0.267578,0.404297 0.09005,0.14482 0.182285,0.284521 0.273438,0.425781 2.211036,3.653595 2.78672,8.419621 -1.683594,9.349609 -4.509655,0.938198 -8.857351,-2.953755 -7.621094,-7.123047 1.342549,-4.527325 7.137744,-3.658014 13.216797,-4.443359 6.076613,-0.785166 11.629486,-6.742087 14.970703,-11.154297 0.0013,-0.0018 0.0026,-0.0041 0.0039,-0.0059 h -0.002 c -0.247394,0.08443 -0.541566,0.176234 -0.794922,0.261719 -4.674794,1.538921 -10.506986,3.015685 -16.962891,4.886718 -0.21426,-0.436047 -0.430446,-0.906148 -0.603515,-1.419922 v -0.002 c -0.1391,-0.413203 -0.251989,-0.842908 -0.314454,-1.27539 v -0.002 c -0.03111,-0.215914 -0.04905,-0.432883 -0.05273,-0.648438 v -0.002 c -0.0144,-0.864773 0.214397,-1.711266 0.865234,-2.431641 0.325419,-0.360187 0.755662,-0.688176 1.314454,-0.970703 1.117583,-0.565053 2.747072,-0.946987 5.066406,-1.035156 -1.696787,-0.920678 -4.239777,-1.635687 -7.158203,-1.539063 z"
     style="fill:#ffffff;fill-opacity:1;stroke-width:2;stroke-linecap:round"
     id="rect1025" />
</svg>
