<?xml version="1.0" encoding="UTF-8" standalone="no"?>
<svg
   xmlns:dc="http://purl.org/dc/elements/1.1/"
   xmlns:cc="http://creativecommons.org/ns#"
   xmlns:rdf="http://www.w3.org/1999/02/22-rdf-syntax-ns#"
   xmlns:svg="http://www.w3.org/2000/svg"
   xmlns="http://www.w3.org/2000/svg"
   xmlns:sodipodi="http://sodipodi.sourceforge.net/DTD/sodipodi-0.dtd"
   xmlns:inkscape="http://www.inkscape.org/namespaces/inkscape"
   inkscape:version="1.0 (4035a4fb49, 2020-05-01)"
   sodipodi:docname="kodi.svg"
   id="svg30"
   version="1.1"
   height="64"
   width="64">
  <metadata
     id="metadata34">
    <rdf:RDF>
      <cc:Work
         rdf:about="">
        <dc:format>image/svg+xml</dc:format>
        <dc:type
           rdf:resource="http://purl.org/dc/dcmitype/StillImage" />
        <dc:title></dc:title>
      </cc:Work>
    </rdf:RDF>
  </metadata>
  <sodipodi:namedview
     inkscape:current-layer="svg30"
     inkscape:window-maximized="1"
     inkscape:window-y="36"
     inkscape:window-x="0"
     inkscape:cy="32.252416"
     inkscape:cx="14.9702"
     inkscape:zoom="4.2150193"
     showgrid="false"
     id="namedview32"
     inkscape:window-height="932"
     inkscape:window-width="1920"
     inkscape:pageshadow="2"
     inkscape:pageopacity="0"
     guidetolerance="10"
     gridtolerance="10"
     objecttolerance="10"
     borderopacity="1"
     bordercolor="#666666"
     pagecolor="#ffffff" />
  <defs
     id="defs10">
    <filter
       color-interpolation-filters="sRGB"
       height="1.12"
       width="1.12"
       y="-.060001"
       x="-.059999"
       id="filter878">
      <feGaussianBlur
         id="feGaussianBlur2"
         stdDeviation="0.99153842" />
    </filter>
    <linearGradient
       gradientUnits="userSpaceOnUse"
       gradientTransform="matrix(2.1429,0,0,2.1429,-823.4547,-1119.8227)"
       y2="520.64"
       y1="542.92"
       x2="399.12"
       x1="399.12"
       id="linearGradient895">
      <stop
         id="stop5"
         offset="0"
         stop-color="#197ff1" />
      <stop
         id="stop7"
         offset="1"
         stop-color="#21c6fb" />
    </linearGradient>
    <style
       id="current-color-scheme"
       type="text/css">.ColorScheme-Text {
        color:#31363b;
      }
      .ColorScheme-Background {
        color:#eff0f1;
      }
      .ColorScheme-Highlight {
        color:#3daee9;
      }
      .ColorScheme-ViewText {
        color:#31363b;
      }
      .ColorScheme-ViewBackground {
        color:#fcfcfc;
      }
      .ColorScheme-ViewHover {
        color:#93cee9;
      }
      .ColorScheme-ViewFocus{
        color:#3daee9;
      }
      .ColorScheme-ButtonText {
        color:#31363b;
      }
      .ColorScheme-ButtonBackground {
        color:#eff0f1;
      }
      .ColorScheme-ButtonHover {
        color:#93cee9;
      }
      .ColorScheme-ButtonFocus{
        color:#3daee9;
      }</style>
    <style
       type="text/css"
       id="style862" />
    <filter
       id="filter11290"
       x="-.024"
       y="-.024"
       width="1.048"
       height="1.048"
       color-interpolation-filters="sRGB">
      <feGaussianBlur
         stdDeviation="0.15875313"
         id="feGaussianBlur864" />
    </filter>
    <linearGradient
       id="linearGradient1005"
       x1="8.2549"
       x2="8.2549"
       y1="16.379"
       y2=".58755"
       gradientTransform="matrix(3.779602,0,0,3.779602,-0.133462,0.0247915)"
       gradientUnits="userSpaceOnUse">
      <stop
         stop-color="#2858e4"
         offset="0"
         id="stop867" />
      <stop
         stop-color="#5ab9f4"
         offset="1"
         id="stop869" />
    </linearGradient>
  </defs>
  <circle
     transform="scale(3.779602)"
     id="circle892"
     stroke-width="0.14032"
     opacity="0.25"
     filter="url(#filter11290)"
     r="7.9376998"
     cy="8.4665003"
     cx="8.4665003" />
  <path
     id="path894"
     stroke-width="0.11719"
     fill="url(#linearGradient1005)"
     d="m 62.000326,32.000397 c 0,3.596405 -0.633045,7.0448 -1.793988,10.240076 -0.806983,2.221196 -1.868597,4.321219 -3.151886,6.263556 -0.537535,0.816697 -1.115511,1.605385 -1.729016,2.36331 -1.964108,2.425711 -4.298164,4.538168 -6.918562,6.252595 -0.964932,0.631873 -1.967812,1.209812 -3.006106,1.727694 -4.03208,2.017892 -8.583854,3.153019 -13.400957,3.153019 -4.817103,0 -9.368878,-1.135089 -13.400957,-3.153095 C 17.560446,58.329558 16.556357,57.751544 15.591463,57.119859 12.937955,55.382263 10.575931,53.236696 8.595797,50.770884 7.981121,50.006799 7.404315,49.210891 6.86678,48.386786 5.617773,46.476575 4.583069,44.415558 3.792074,42.237374 2.631283,39.042476 1.999371,35.595479 1.999371,32.000322 c 0,-16.56902 13.43195,-30.0009695 30.000969,-30.0009695 8.317014,0 15.842958,3.384596 21.276892,8.8506935 1.566115,1.574696 2.958407,3.323404 4.143577,5.213961 1.120501,1.780495 2.0572,3.688212 2.785718,5.695105 1.161018,3.195993 1.794102,6.644162 1.794102,10.240075 z"
     style="fill:url(#linearGradient1005)" />
  <path
     id="path26"
     stroke-width="1.6154"
     opacity=".25"
     filter="url(#filter878)"
     d="m32 12.17c-0.723 0-1.446 0.27608-2 0.83008l-6.0762 6.0762v16.154l16.152-16.154-6.0762-6.0762c-0.554-0.554-1.277-0.83008-2-0.83008zm12.924 11.754-8.0781 8.0762 8.0781 8.0762 6.0762-6.0762c1.108-1.108 1.108-2.892 0-4l-6.0762-6.0762zm-27.463 1.6152-4.4609 4.4609c-1.108 1.108-1.108 2.892 0 4l4.4609 4.4609v-12.922zm14.539 11.307-8.0762 8.0781 6.0762 6.0762c1.108 1.108 2.892 1.108 4 0l6.0762-6.0762-8.0762-8.0781z" />
  <path
     id="path28"
     stroke-width="1.6154"
     fill="#fff"
     d="m32 12.17c-0.723 0-1.446 0.27608-2 0.83008l-6.0762 6.0762v16.154l16.152-16.154-6.0762-6.0762c-0.554-0.554-1.277-0.83008-2-0.83008zm12.924 11.754-8.0781 8.0762 8.0781 8.0762 6.0762-6.0762c1.108-1.108 1.108-2.892 0-4l-6.0762-6.0762zm-27.463 1.6152-4.4609 4.4609c-1.108 1.108-1.108 2.892 0 4l4.4609 4.4609v-12.922zm14.539 11.307-8.0762 8.0781 6.0762 6.0762c1.108 1.108 2.892 1.108 4 0l6.0762-6.0762-8.0762-8.0781z" />
  <g
     transform="matrix(3.779602,0,0,3.779602,-92.972438,-20.374906)"
     id="g890"
     stroke-width="0.26458">
    <text
       id="text876"
       xml:space="preserve"
       style="line-height:1.25"
       word-spacing="0px"
       letter-spacing="0px"
       font-size="10.583px"
       font-family="'Noto Serif CJK SC'"
       fill="#000000"
       y="9.0578918"
       x="29.471731"><tspan
         id="tspan874"
         stroke-width="0.26458"
         y="19.693933"
         x="29.471731" /></text>
    <circle
       id="circle878"
       fill="#5e4aa6"
       r="0"
       cy="-338.47"
       cx="-297.60001" />
    <g
       id="g888"
       fill="#5e4aa6"
       transform="translate(32.763,-10.103)">
      <circle
         id="circle880"
         r="0"
         cy="-338.76999"
         cx="-299.01999" />
      <circle
         id="circle882"
         fill-rule="evenodd"
         r="0"
         cy="-3.9487"
         cx="-8.1062002" />
      <circle
         id="circle884"
         r="0"
         cy="-357.69"
         cx="-278.25" />
      <circle
         id="circle886"
         fill-rule="evenodd"
         r="0"
         cy="-22.858999"
         cx="12.663" />
    </g>
  </g>
  <g
     id="g904"
     stroke-width="0.26458"
     fill="#5e4aa6"
     transform="matrix(3.779602,0,0,3.779602,-93.075224,-20.350321)">
    <circle
       id="circle896"
       r="0"
       cy="-328.38"
       cx="-330.35001" />
    <circle
       id="circle898"
       r="0"
       cy="-326.25"
       cx="-312.10999" />
    <circle
       id="circle900"
       r="0"
       cy="-333.07001"
       cx="-306.01999" />
    <circle
       id="circle902"
       r="0"
       cy="-326.01001"
       cx="-308.84" />
  </g>
</svg>
