<?xml version="1.0" encoding="UTF-8" standalone="no"?>
<svg
   xmlns:dc="http://purl.org/dc/elements/1.1/"
   xmlns:cc="http://creativecommons.org/ns#"
   xmlns:rdf="http://www.w3.org/1999/02/22-rdf-syntax-ns#"
   xmlns:svg="http://www.w3.org/2000/svg"
   xmlns="http://www.w3.org/2000/svg"
   xmlns:xlink="http://www.w3.org/1999/xlink"
   xmlns:sodipodi="http://sodipodi.sourceforge.net/DTD/sodipodi-0.dtd"
   xmlns:inkscape="http://www.inkscape.org/namespaces/inkscape"
   width="64"
   height="64"
   version="1.1"
   id="svg62"
   sodipodi:docname="kwalletmanager.svg"
   inkscape:version="1.0 (4035a4fb49, 2020-05-01)">
  <metadata
     id="metadata66">
    <rdf:RDF>
      <cc:Work
         rdf:about="">
        <dc:format>image/svg+xml</dc:format>
        <dc:type
           rdf:resource="http://purl.org/dc/dcmitype/StillImage" />
        <dc:title></dc:title>
      </cc:Work>
    </rdf:RDF>
  </metadata>
  <sodipodi:namedview
     inkscape:document-rotation="0"
     pagecolor="#ffffff"
     bordercolor="#666666"
     borderopacity="1"
     objecttolerance="10"
     gridtolerance="10"
     guidetolerance="10"
     inkscape:pageopacity="0"
     inkscape:pageshadow="2"
     inkscape:window-width="1920"
     inkscape:window-height="932"
     id="namedview64"
     showgrid="false"
     inkscape:zoom="5.9609375"
     inkscape:cx="4.2415327"
     inkscape:cy="40.07493"
     inkscape:window-x="0"
     inkscape:window-y="36"
     inkscape:window-maximized="1"
     inkscape:current-layer="svg62" />
  <defs
     id="defs39">
    <linearGradient
       id="linearGradient947"
       inkscape:collect="always">
      <stop
         id="stop943"
         offset="0"
         style="stop-color:#846458;stop-opacity:1;" />
      <stop
         id="stop945"
         offset="1"
         style="stop-color:#ad8578;stop-opacity:1" />
    </linearGradient>
    <linearGradient
       id="g"
       x1="-322.18"
       x2="-320.91"
       y1="509.99"
       y2="594.99"
       gradientTransform="matrix(0.26453,0,0,0.23277,203.17427,-91.006)"
       gradientUnits="userSpaceOnUse">
      <stop
         stop-color="#eff0f1"
         offset="0"
         id="stop2" />
      <stop
         stop-color="#ccd2d7"
         offset="1"
         id="stop4" />
    </linearGradient>
    <linearGradient
       id="e"
       x1="-303.15"
       x2="-301.88"
       y1="591.82"
       y2="515.06"
       gradientTransform="matrix(0.26453,0,0,0.22561,205.17427,-94.346)"
       gradientUnits="userSpaceOnUse">
      <stop
         stop-color="#ffee5e"
         offset="0"
         id="stop7" />
      <stop
         stop-color="#feff9f"
         offset="1"
         id="stop9" />
    </linearGradient>
    <linearGradient
       id="f"
       x1="-322.73"
       x2="-320.91"
       y1="595.62"
       y2="510.62"
       gradientTransform="matrix(0.26757,0,0,0.22024,208.35427,-98.601)"
       gradientUnits="userSpaceOnUse">
      <stop
         stop-color="#ff594d"
         offset="0"
         id="stop12" />
      <stop
         stop-color="#ff7f76"
         offset="1"
         id="stop14" />
    </linearGradient>
    <linearGradient
       id="a"
       x1="32.079"
       x2="31.961"
       y1="62.104"
       y2="3.0577"
       gradientTransform="matrix(1.2321,0,0,1.2321,82.215767,-8.4533)"
       gradientUnits="userSpaceOnUse">
      <stop
         stop-color="#957d75"
         offset="0"
         id="stop17" />
      <stop
         stop-color="#d1b0a4"
         offset="1"
         id="stop19" />
    </linearGradient>
    <filter
       id="j"
       x="-.027881"
       y="-.05079"
       width="1.0558"
       height="1.1016"
       color-interpolation-filters="sRGB">
      <feGaussianBlur
         stdDeviation="0.4249491"
         id="feGaussianBlur22" />
    </filter>
    <filter
       id="i"
       x="-.027577"
       y="-.05183"
       width="1.0552"
       height="1.1037"
       color-interpolation-filters="sRGB">
      <feGaussianBlur
         stdDeviation="0.42031726"
         id="feGaussianBlur25" />
    </filter>
    <filter
       id="h"
       x="-.027243"
       y="-.053053"
       width="1.0545"
       height="1.1061"
       color-interpolation-filters="sRGB">
      <feGaussianBlur
         stdDeviation="0.41999768"
         id="feGaussianBlur28" />
    </filter>
    <filter
       id="k"
       x="-.084"
       y="-.084"
       width="1.168"
       height="1.168"
       color-interpolation-filters="sRGB">
      <feGaussianBlur
         stdDeviation="1.4069033"
         id="feGaussianBlur31" />
    </filter>
    <linearGradient
       id="linearGradient862-3"
       x1="7.9373"
       x2="7.9373"
       y1="15.081"
       y2="1.852"
       gradientTransform="matrix(3.7796,0,0,3.7796,90.664267,0)"
       gradientUnits="userSpaceOnUse">
      <stop
         stop-color="#846458"
         offset="0"
         id="stop34" />
      <stop
         stop-color="#ad8578"
         offset="1"
         id="stop36" />
    </linearGradient>
    <linearGradient
       id="linearGradient944">
      <stop
         id="stop4-3"
         offset="0"
         stop-color="#232323" />
      <stop
         id="stop6"
         offset="1"
         stop-color="#5f5f5f" />
    </linearGradient>
    <linearGradient
       gradientUnits="userSpaceOnUse"
       gradientTransform="matrix(1.3276,0,0,1.3276,-390.14494,-663.52)"
       y2="498.89"
       y1="547.6"
       x2="407.94"
       x1="408.25"
       id="b">
      <stop
         id="stop9-6"
         offset="0"
         stop-color="#fff" />
      <stop
         id="stop11"
         offset="1"
         stop-color="#e6e6e6" />
    </linearGradient>
    <filter
       color-interpolation-filters="sRGB"
       height="1.072"
       width="1.072"
       y="-.036"
       x="-.036"
       id="c">
      <feGaussianBlur
         id="feGaussianBlur14"
         stdDeviation="0.88972449" />
    </filter>
    <linearGradient
       gradientUnits="userSpaceOnUse"
       y2="8"
       y1="30.203"
       x2="27.355"
       x1="27.355"
       id="linearGradient904">
      <stop
         id="stop17-7"
         offset="0"
         stop-color="#78502d" />
      <stop
         id="stop19-5"
         offset="1"
         stop-color="#c2752f" />
    </linearGradient>
    <linearGradient
       gradientUnits="userSpaceOnUse"
       y2="25.535"
       y1="42.679"
       x2="32.928"
       x1="32.928"
       id="linearGradient912">
      <stop
         id="stop22"
         offset="0"
         stop-color="#b76e2c" />
      <stop
         id="stop24"
         offset="1"
         stop-color="#cd7e35" />
    </linearGradient>
    <linearGradient
       gradientUnits="userSpaceOnUse"
       y2="39.883"
       y1="54.202"
       x2="32.952"
       x1="32.952"
       id="linearGradient920">
      <stop
         id="stop27"
         offset="0"
         stop-color="#707070" />
      <stop
         id="stop29"
         offset="1"
         stop-opacity=".87778"
         stop-color="#8e8e8e" />
    </linearGradient>
    <linearGradient
       gradientUnits="userSpaceOnUse"
       y2="39.887"
       y1="54.23"
       x2="32.297"
       x1="32.297"
       id="linearGradient928">
      <stop
         id="stop32"
         offset="0"
         stop-color="#c6c6c6" />
      <stop
         id="stop34-3"
         offset="1"
         stop-opacity=".99444"
         stop-color="#e4e4e4" />
    </linearGradient>
    <linearGradient
       xlink:href="#linearGradient944"
       gradientUnits="userSpaceOnUse"
       y2="37.492"
       y1="35.1"
       x2="34.865"
       x1="34.865"
       id="linearGradient936" />
    <linearGradient
       xlink:href="#linearGradient944"
       gradientUnits="userSpaceOnUse"
       y2="37.492"
       y1="35.1"
       x2="28.489"
       x1="28.489"
       id="linearGradient938" />
    <linearGradient
       gradientUnits="userSpaceOnUse"
       y2="49.448"
       y1="55.823"
       x2="39.304"
       x1="39.304"
       id="linearGradient952">
      <stop
         id="stop39"
         offset="0"
         stop-color="#ff4e4e" />
      <stop
         id="stop41"
         offset="1"
         stop-opacity=".97647"
         stop-color="#d00" />
    </linearGradient>
    <filter
       color-interpolation-filters="sRGB"
       height="1.0961"
       width="1.1596"
       y="-.04807"
       x="-.079807"
       id="filter1010">
      <feGaussianBlur
         id="feGaussianBlur44"
         stdDeviation="0.95786011" />
    </filter>
    <linearGradient
       id="linearGradient1057">
      <stop
         id="stop4-6"
         offset="0"
         stop-color="#fff" />
      <stop
         id="stop6-7"
         offset="1"
         stop-opacity="0"
         stop-color="#fff" />
    </linearGradient>
    <linearGradient
       gradientUnits="userSpaceOnUse"
       gradientTransform="matrix(1.5625,0,0,1.5625,0.40633,-5.1891)"
       y2="52.847"
       y1="27.545"
       x2="34.999"
       x1="34.999"
       id="linearGradient982">
      <stop
         id="stop9-5"
         offset="0"
         stop-color="#32b4ff" />
      <stop
         id="stop11-3"
         offset="1"
         stop-color="#3287ff" />
    </linearGradient>
    <style
       id="style14"
       type="text/css" />
    <style
       id="style16"
       type="text/css" />
    <linearGradient
       gradientUnits="userSpaceOnUse"
       gradientTransform="matrix(1.5625,0,0,1.5625,-9.2253,1.3231)"
       y2="43.681"
       y1="18.052"
       x2="21.314"
       x1="21.314"
       id="linearGradient1047">
      <stop
         id="stop18"
         offset="0"
         stop-color="#14dc78" />
      <stop
         id="stop20"
         offset="1"
         stop-color="#14a03c" />
    </linearGradient>
    <linearGradient
       gradientUnits="userSpaceOnUse"
       gradientTransform="matrix(1.5625,0,0,1.5625,-8.1072,-10.908)"
       y2="37.368"
       y1="12.316"
       x2="41.729"
       x1="41.729"
       id="linearGradient1049">
      <stop
         id="stop23"
         offset="0"
         stop-color="#ff3c64" />
      <stop
         id="stop25"
         offset="1"
         stop-color="#ff4628" />
    </linearGradient>
    <linearGradient
       xlink:href="#linearGradient1057"
       gradientUnits="userSpaceOnUse"
       gradientTransform="matrix(1,0,0,1.2271,0.20646,-10.975)"
       y2="39.768"
       y1="32.234"
       x2="34.427"
       x1="34.427"
       id="linearGradient1059" />
    <linearGradient
       xlink:href="#linearGradient1057"
       gradientUnits="userSpaceOnUse"
       gradientTransform="matrix(1,0,0,1.2271,-12.55,-19.793)"
       y2="39.768"
       y1="32.234"
       x2="34.427"
       x1="34.427"
       id="linearGradient1063" />
    <linearGradient
       xlink:href="#linearGradient1057"
       gradientUnits="userSpaceOnUse"
       gradientTransform="matrix(1,0,0,1.2271,5.7554,-25.761)"
       y2="39.768"
       y1="32.234"
       x2="34.427"
       x1="34.427"
       id="linearGradient1067" />
    <filter
       color-interpolation-filters="sRGB"
       height="1.048"
       width="1.048"
       y="-.024"
       x="-.024"
       id="filter2761">
      <feGaussianBlur
         id="feGaussianBlur31-5"
         stdDeviation="0.14552168" />
    </filter>
    <linearGradient
       gradientUnits="userSpaceOnUse"
       gradientTransform="matrix(3.7796,0,0,3.7796,72.4059,0.53085)"
       y2="1.17"
       y1="15.576"
       x2="15.65"
       x1="1.3315"
       id="linearGradient1024">
      <stop
         id="stop34-5"
         offset="0"
         stop-color="#dddfe1" />
      <stop
         id="stop36-6"
         offset="1"
         stop-opacity=".99608"
         stop-color="#f3f4f6" />
    </linearGradient>
    <filter
       color-interpolation-filters="sRGB"
       height="1.048"
       width="1.048"
       y="-.024"
       x="-.024"
       id="filter2761-3">
      <feGaussianBlur
         id="feGaussianBlur2"
         stdDeviation="0.14552168" />
    </filter>
    <linearGradient
       gradientUnits="userSpaceOnUse"
       gradientTransform="translate(0 -.07421)"
       y2="1.17"
       y1="15.576"
       x2="15.65"
       x1="1.3315"
       id="linearGradient1024-6">
      <stop
         id="stop5"
         offset="0"
         stop-color="#dddfe1" />
      <stop
         id="stop7-2"
         offset="1"
         stop-opacity=".99608"
         stop-color="#f3f4f6" />
    </linearGradient>
    <style
       id="style924"
       type="text/css" />
    <style
       id="style926"
       type="text/css" />
    <filter
       color-interpolation-filters="sRGB"
       height="1.048"
       width="1.048"
       y="-.024"
       x="-.024"
       id="filter11290">
      <feGaussianBlur
         id="feGaussianBlur941"
         stdDeviation="0.15875313" />
    </filter>
    <linearGradient
       gradientUnits="userSpaceOnUse"
       gradientTransform="matrix(3.7796,0,0,3.7796,-0.13155,0.025017)"
       y2=".64687"
       y1="16.296"
       x2="16.388"
       x1=".73911"
       id="linearGradient1005">
      <stop
         id="stop944"
         offset="0"
         stop-color="#dddfe1"
         style="stop-color:#846458;stop-opacity:1" />
      <stop
         id="stop946"
         offset="1"
         stop-color="#f3f4f6"
         style="stop-color:#ad8578;stop-opacity:1" />
    </linearGradient>
    <linearGradient
       inkscape:collect="always"
       xlink:href="#f"
       id="linearGradient1123"
       gradientUnits="userSpaceOnUse"
       gradientTransform="matrix(0.26757,0,0,0.22024,119.09532,-98.601)"
       x1="-322.73"
       y1="595.62"
       x2="-320.91"
       y2="510.62" />
    <linearGradient
       inkscape:collect="always"
       xlink:href="#e"
       id="linearGradient1125"
       gradientUnits="userSpaceOnUse"
       gradientTransform="matrix(0.26453,0,0,0.22561,115.91532,-94.346)"
       x1="-303.15"
       y1="591.82"
       x2="-301.88"
       y2="515.06" />
    <linearGradient
       inkscape:collect="always"
       xlink:href="#g"
       id="linearGradient1127"
       gradientUnits="userSpaceOnUse"
       gradientTransform="matrix(0.26453,0,0,0.23277,113.91532,-91.006)"
       x1="-322.18"
       y1="509.99"
       x2="-320.91"
       y2="594.99" />
    <linearGradient
       inkscape:collect="always"
       xlink:href="#a"
       id="linearGradient1138"
       gradientUnits="userSpaceOnUse"
       gradientTransform="matrix(1.3322753,0,0,1.3322753,-11.632571,-11.855728)"
       x1="32.079"
       y1="62.104"
       x2="31.961"
       y2="3.0577" />
    <linearGradient
       gradientTransform="translate(69.475197)"
       gradientUnits="userSpaceOnUse"
       y2="2.1252406"
       x2="-7.8756104"
       y1="61.160595"
       x1="-67.208374"
       id="linearGradient949"
       xlink:href="#linearGradient947"
       inkscape:collect="always" />
  </defs>
  <circle
     id="circle951"
     stroke-width="0.14032"
     opacity="0.25"
     filter="url(#filter11290)"
     r="7.9376998"
     cy="8.46"
     cx="8.4937"
     transform="matrix(3.7796,0,0,3.7796,-0.10278795,0.02458453)" />
  <circle
     r="30"
     cy="32"
     cx="32"
     id="path937"
     style="fill:url(#linearGradient949);fill-opacity:1;stroke-width:1.34625;stroke-linecap:round" />
  <circle
     id="circle41"
     fill="#5e4aa6"
     r="0"
     cy="-1241.6"
     cx="-1248.7" />
  <circle
     id="circle43"
     fill-rule="evenodd"
     fill="#5e4aa6"
     r="0"
     cy="23.855"
     cx="-149.14999" />
  <circle
     id="circle955"
     fill="#5e4aa6"
     r="0"
     cy="-1293.2278"
     cx="-1311.5676" />
  <circle
     id="circle957"
     fill-rule="evenodd"
     fill="#5e4aa6"
     r="0"
     cy="-27.77277"
     cx="-212.01761" />
  <g
     id="g981"
     stroke-width="0.26458"
     fill="#5e4aa6"
     transform="matrix(3.7796,0,0,3.7796,-165.78762,-90.347769)">
    <circle
       id="circle973"
       r="0"
       cy="-328.38"
       cx="-330.35001" />
    <circle
       id="circle975"
       r="0"
       cy="-326.25"
       cx="-312.10999" />
    <circle
       id="circle977"
       r="0"
       cy="-333.07001"
       cx="-306.01999" />
    <circle
       id="circle979"
       r="0"
       cy="-326.01001"
       cx="-308.84" />
  </g>
  <rect
     id="rect1100"
     opacity="0.25"
     filter="url(#h)"
     ry="2"
     height="19"
     width="37"
     y="14"
     x="15.405313" />
  <rect
     style="fill:url(#linearGradient1123)"
     id="rect1102"
     fill="url(#f)"
     ry="2"
     height="19"
     width="37"
     y="14"
     x="15.405313" />
  <rect
     id="rect1104"
     opacity="0.25"
     filter="url(#i)"
     ry="2"
     height="19.462999"
     width="36.578999"
     y="21"
     x="13.405313" />
  <rect
     style="fill:url(#linearGradient1125)"
     id="rect1106"
     fill="url(#e)"
     ry="2"
     height="19.462999"
     width="36.578999"
     y="21"
     x="13.405313" />
  <rect
     id="rect1108"
     opacity="0.25"
     filter="url(#j)"
     ry="2.0804999"
     height="20.08"
     width="36.578999"
     y="28"
     x="11.405313" />
  <rect
     style="fill:url(#linearGradient1127)"
     id="rect1110"
     fill="url(#g)"
     ry="2.0804999"
     height="20.08"
     width="36.578999"
     y="28"
     x="11.405313" />
  <ellipse
     id="ellipse1145"
     style="paint-order:fill markers stroke"
     opacity="0.2"
     filter="url(#k)"
     fill-rule="evenodd"
     ry="2.033"
     rx="28.351"
     cy="45.731998"
     cx="-0.78937"
     transform="rotate(-45,-1.2207095,2.9470561)" />
  <path
     id="path1136"
     style="fill:url(#linearGradient1138)"
     d="M 52.068359 9.7050781 L 9.7167969 52.060547 C 11.450406 53.984761 13.416738 55.69484 15.591797 57.119141 C 16.556697 57.750841 17.561209 58.329666 18.599609 58.847656 C 22.631709 60.865656 27.1829 62 32 62 C 36.8171 62 41.368291 60.865556 45.400391 58.847656 C 46.438691 58.329856 47.44132 57.751011 48.40625 57.119141 C 51.02665 55.404741 53.362072 53.292887 55.326172 50.867188 C 55.939672 50.109287 56.517148 49.320606 57.054688 48.503906 C 58.337988 46.561506 59.400051 44.461434 60.207031 42.240234 C 61.367981 39.045034 62 35.5964 62 32 C 62 28.4042 61.368031 24.955766 60.207031 21.759766 C 59.478531 19.752866 58.542375 17.844953 57.421875 16.064453 C 56.236675 14.173853 54.843444 12.424309 53.277344 10.849609 C 52.885993 10.455947 52.480925 10.076661 52.068359 9.7050781 z " />
  <path
     id="path1147"
     d="m 43.137583,33.602 -2.7986,0.23705 -0.10727,11.241 2.7701,-0.38297 0.0458,-4.7925 3.6713,5.3511 2.9242,-0.87718 -3.7629,-5.1478 3.8876,-4.7867 -2.9689,-0.69171 -3.7383,4.7881 0.077,-4.938 z m -6.3651,2.6826 c -0.0317,0.0022 -0.066,0.01022 -0.0901,0.03398 l -1.1095,1.0628 c -0.0466,0.04483 -0.0529,0.11389 -0.0208,0.16881 l 1.2647,2.0814 c -0.23164,0.37208 -0.4207,0.77177 -0.55513,1.1961 l -2.3645,0.45666 c -0.0658,0.01287 -0.11442,0.07315 -0.11503,0.13878 l -0.0143,1.5159 c -6.2e-4,0.06401 0.0488,0.11937 0.11238,0.13522 l 2.283,0.56301 c 0.11769,0.49376 0.30224,0.96688 0.54832,1.3985 l -1.3451,1.9586 c -0.0376,0.05484 -0.0308,0.12829 0.0184,0.17506 l 1.0891,1.0828 c 0.046,0.04538 0.11708,0.05169 0.17306,0.02023 l 2.0909,-1.2113 c 0.4056,0.2335 0.84535,0.42151 1.3093,0.54832 l 0.46222,2.2782 c 0.0123,0.0644 0.0693,0.11125 0.13649,0.11187 l 1.5534,0.0141 c 0.0654,5.97e-4 0.12218,-0.04148 0.13853,-0.10374 l 0.59536,-2.2803 c 0.48088,-0.1218 0.9349,-0.3051 1.3555,-0.5416 l 2.0367,1.3305 c 0.0562,0.03637 0.13118,0.03018 0.1794,-0.01716 l 1.1036,-1.0628 c 0.0468,-0.04485 0.059,-0.11412 0.0264,-0.16877 l -0.73536,-1.2078 -0.24554,0.07358 c -0.0356,0.01042 -0.0744,-0.0061 -0.0952,-0.03596 -2e-5,2e-6 -0.46529,-0.6815 -1.0725,-1.5666 -0.74966,1.3992 -2.2603,2.3467 -3.9897,2.331 -2.4574,-0.02233 -4.4324,-1.986 -4.4095,-4.384 0.0164,-1.764 1.1122,-3.2692 2.6666,-3.9349 l 0.0102,-1.1194 c -0.28264,0.09358 -0.5559,0.20735 -0.81588,0.34246 -4.7e-4,-3e-4 5.1e-4,-0.0053 6e-5,-0.0053 l -2.0849,-1.36 c -0.028,-0.019 -0.0576,-0.02199 -0.0895,-0.01962 z"
     fill="#7e6056" />
</svg>
