<?xml version="1.0" encoding="UTF-8"?>
<svg width="64" height="64" version="1.1" xmlns="http://www.w3.org/2000/svg" xmlns:cc="http://creativecommons.org/ns#" xmlns:dc="http://purl.org/dc/elements/1.1/" xmlns:rdf="http://www.w3.org/1999/02/22-rdf-syntax-ns#" xmlns:xlink="http://www.w3.org/1999/xlink">
 <metadata>
  <rdf:RDF>
   <cc:Work rdf:about="">
    <dc:format>image/svg+xml</dc:format>
    <dc:type rdf:resource="http://purl.org/dc/dcmitype/StillImage"/>
    <dc:title/>
   </cc:Work>
  </rdf:RDF>
 </metadata>
 <defs>
  <linearGradient id="linearGradient855" x1="30.644" x2="30.373" y1="48.678" y2="15.051" gradientUnits="userSpaceOnUse">
   <stop stop-color="#2673cf" offset="0"/>
   <stop stop-color="#26bbcf" offset="1"/>
  </linearGradient>
  <linearGradient id="linearGradient863" x1="31.322" x2="31.051" y1="48.136" y2="15.322" gradientUnits="userSpaceOnUse">
   <stop stop-color="#2e2e2e" offset="0"/>
   <stop stop-color="#606060" offset="1"/>
  </linearGradient>
  <filter id="filter883" x="-.06" y="-.06" width="1.12" height="1.12" color-interpolation-filters="sRGB">
   <feGaussianBlur stdDeviation="0.8"/>
  </filter>
  <filter id="filter905" x="-.06" y="-.06" width="1.12" height="1.12" color-interpolation-filters="sRGB">
   <feGaussianBlur stdDeviation="0.8"/>
  </filter>
  <style type="text/css"/>
  <style type="text/css"/>
  <filter id="filter11290" x="-.024" y="-.024" width="1.048" height="1.048" color-interpolation-filters="sRGB">
   <feGaussianBlur stdDeviation="0.15875313"/>
  </filter>
  <linearGradient id="linearGradient1005" x1=".73911" x2="16.388" y1="16.296" y2=".64687" gradientTransform="matrix(3.7796 0 0 3.7796 -.13155 .025017)" gradientUnits="userSpaceOnUse">
   <stop stop-color="#dddfe1" offset="0"/>
   <stop stop-color="#f3f4f6" offset="1"/>
  </linearGradient>
 </defs>
 <circle transform="matrix(3.7796 0 0 3.7796 -.10279 .024585)" cx="8.4937" cy="8.46" r="7.9377" filter="url(#filter11290)" opacity=".25" stroke-width=".14032"/>
 <path d="m62 32c0 3.5964-0.63305 7.0448-1.794 10.24-0.80698 2.2212-1.8686 4.3212-3.1519 6.2636-0.53754 0.8167-1.1155 1.6054-1.729 2.3633-1.9641 2.4257-4.2982 4.5382-6.9186 6.2526-0.96493 0.63187-1.9678 1.2099-3.0061 1.7277-4.0321 2.0179-8.5839 3.153-13.401 3.153s-9.3689-1.1351-13.401-3.1531c-1.0384-0.51799-2.0425-1.096-3.0074-1.7277-2.6535-1.7376-5.0155-3.8832-6.9957-6.349-0.61468-0.76408-1.1915-1.56-1.729-2.3841-1.249-1.9102-2.2837-3.9712-3.0747-6.1494-1.1608-3.1949-1.7927-6.6419-1.7927-10.237 0-16.569 13.432-30.001 30.001-30.001 8.317 0 15.843 3.3846 21.277 8.8507 1.5661 1.5747 2.9584 3.3234 4.1436 5.214 1.1205 1.7805 2.0572 3.6882 2.7857 5.6951 1.161 3.196 1.7941 6.6442 1.7941 10.24z" fill="url(#linearGradient1005)" stroke-width=".11719"/>
 <g stroke-width="1.3333">
  <path d="m18.667 16c-1.4787 0-2.6667 1.188-2.6667 2.6667v10.667c0 1.4733 1.188 2.6667 2.6667 2.6667h10.667c1.4733 0 2.6667-1.1933 2.6667-2.6667v-10.667c0-1.4787-1.1933-2.6667-2.6667-2.6667zm0 1.3333h10.667c0.74 0 1.3333 0.59333 1.3333 1.3333v10.667c0 0.74-0.59333 1.3333-1.3333 1.3333h-10.667c-0.74 0-1.3333-0.59333-1.3333-1.3333v-10.667c0-0.74 0.59333-1.3333 1.3333-1.3333zm1.3333 1.3333c-0.74 0-1.3333 0.59333-1.3333 1.3333v8c0 0.73467 0.59333 1.3333 1.3333 1.3333h8c0.73467 0 1.3333-0.59867 1.3333-1.3333v-8c0-0.74-0.59867-1.3333-1.3333-1.3333zm14.667 13.333c-1.4787 0-2.6667 1.188-2.6667 2.6667v10.667c0 1.4733 1.188 2.6667 2.6667 2.6667h10.667c1.4733 0 2.6667-1.1933 2.6667-2.6667v-10.667c0-1.4787-1.1933-2.6667-2.6667-2.6667zm0 1.3333h10.667c0.74 0 1.3333 0.59333 1.3333 1.3333v10.667c0 0.74-0.59333 1.3333-1.3333 1.3333h-10.667c-0.74 0-1.3333-0.59333-1.3333-1.3333v-10.667c0-0.74 0.59333-1.3333 1.3333-1.3333zm1.3333 1.3333c-0.74 0-1.3333 0.59333-1.3333 1.3333v8c0 0.73467 0.59333 1.3333 1.3333 1.3333h8c0.73467 0 1.3333-0.59867 1.3333-1.3333v-8c0-0.74-0.59867-1.3333-1.3333-1.3333z" filter="url(#filter883)" opacity=".15"/>
  <path d="m18.667 16c-1.4787 0-2.6667 1.188-2.6667 2.6667v10.667c0 1.4733 1.188 2.6667 2.6667 2.6667h10.667c1.4733 0 2.6667-1.1933 2.6667-2.6667v-10.667c0-1.4787-1.1933-2.6667-2.6667-2.6667zm0 1.3333h10.667c0.74 0 1.3333 0.59333 1.3333 1.3333v10.667c0 0.74-0.59333 1.3333-1.3333 1.3333h-10.667c-0.74 0-1.3333-0.59333-1.3333-1.3333v-10.667c0-0.74 0.59333-1.3333 1.3333-1.3333zm1.3333 1.3333c-0.74 0-1.3333 0.59333-1.3333 1.3333v8c0 0.73467 0.59333 1.3333 1.3333 1.3333h8c0.73467 0 1.3333-0.59867 1.3333-1.3333v-8c0-0.74-0.59867-1.3333-1.3333-1.3333zm14.667 13.333c-1.4787 0-2.6667 1.188-2.6667 2.6667v10.667c0 1.4733 1.188 2.6667 2.6667 2.6667h10.667c1.4733 0 2.6667-1.1933 2.6667-2.6667v-10.667c0-1.4787-1.1933-2.6667-2.6667-2.6667zm0 1.3333h10.667c0.74 0 1.3333 0.59333 1.3333 1.3333v10.667c0 0.74-0.59333 1.3333-1.3333 1.3333h-10.667c-0.74 0-1.3333-0.59333-1.3333-1.3333v-10.667c0-0.74 0.59333-1.3333 1.3333-1.3333zm1.3333 1.3333c-0.74 0-1.3333 0.59333-1.3333 1.3333v8c0 0.73467 0.59333 1.3333 1.3333 1.3333h8c0.73467 0 1.3333-0.59867 1.3333-1.3333v-8c0-0.74-0.59867-1.3333-1.3333-1.3333z" fill="url(#linearGradient863)"/>
  <path d="m34.667 16c-1.4787 0-2.6667 1.188-2.6667 2.6667v10.667c0 1.4733 1.188 2.6667 2.6667 2.6667h10.667c1.4733 0 2.6667-1.1933 2.6667-2.6667v-10.667c0-1.4787-1.1933-2.6667-2.6667-2.6667zm0 1.3333h10.667c0.74 0 1.3333 0.59333 1.3333 1.3333v10.667c0 0.74-0.59333 1.3333-1.3333 1.3333h-10.667c-0.74 0-1.3333-0.59333-1.3333-1.3333v-10.667c0-0.74 0.59333-1.3333 1.3333-1.3333zm1.3333 1.3333c-0.74 0-1.3333 0.59333-1.3333 1.3333v8c0 0.73467 0.59333 1.3333 1.3333 1.3333h8c0.73467 0 1.3333-0.59867 1.3333-1.3333v-8c0-0.74-0.59867-1.3333-1.3333-1.3333zm-17.333 13.333c-1.4787 0-2.6667 1.188-2.6667 2.6667v10.667c0 1.4733 1.188 2.6667 2.6667 2.6667h10.667c1.4733 0 2.6667-1.1933 2.6667-2.6667v-10.667c0-1.4787-1.1933-2.6667-2.6667-2.6667zm0 1.3333h10.667c0.74 0 1.3333 0.59333 1.3333 1.3333v10.667c0 0.74-0.59333 1.3333-1.3333 1.3333h-10.667c-0.74 0-1.3333-0.59333-1.3333-1.3333v-10.667c0-0.74 0.59333-1.3333 1.3333-1.3333zm1.3333 1.3333c-0.74 0-1.3333 0.59333-1.3333 1.3333v8c0 0.73467 0.59333 1.3333 1.3333 1.3333h8c0.73467 0 1.3333-0.59867 1.3333-1.3333v-8c0-0.74-0.59867-1.3333-1.3333-1.3333z" filter="url(#filter905)" opacity=".15"/>
  <path d="m34.667 16c-1.4787 0-2.6667 1.188-2.6667 2.6667v10.667c0 1.4733 1.188 2.6667 2.6667 2.6667h10.667c1.4733 0 2.6667-1.1933 2.6667-2.6667v-10.667c0-1.4787-1.1933-2.6667-2.6667-2.6667zm0 1.3333h10.667c0.74 0 1.3333 0.59333 1.3333 1.3333v10.667c0 0.74-0.59333 1.3333-1.3333 1.3333h-10.667c-0.74 0-1.3333-0.59333-1.3333-1.3333v-10.667c0-0.74 0.59333-1.3333 1.3333-1.3333zm1.3333 1.3333c-0.74 0-1.3333 0.59333-1.3333 1.3333v8c0 0.73467 0.59333 1.3333 1.3333 1.3333h8c0.73467 0 1.3333-0.59867 1.3333-1.3333v-8c0-0.74-0.59867-1.3333-1.3333-1.3333zm-17.333 13.333c-1.4787 0-2.6667 1.188-2.6667 2.6667v10.667c0 1.4733 1.188 2.6667 2.6667 2.6667h10.667c1.4733 0 2.6667-1.1933 2.6667-2.6667v-10.667c0-1.4787-1.1933-2.6667-2.6667-2.6667zm0 1.3333h10.667c0.74 0 1.3333 0.59333 1.3333 1.3333v10.667c0 0.74-0.59333 1.3333-1.3333 1.3333h-10.667c-0.74 0-1.3333-0.59333-1.3333-1.3333v-10.667c0-0.74 0.59333-1.3333 1.3333-1.3333zm1.3333 1.3333c-0.74 0-1.3333 0.59333-1.3333 1.3333v8c0 0.73467 0.59333 1.3333 1.3333 1.3333h8c0.73467 0 1.3333-0.59867 1.3333-1.3333v-8c0-0.74-0.59867-1.3333-1.3333-1.3333z" fill="url(#linearGradient855)"/>
 </g>
 <g fill="#5e4aa6">
  <circle cx="-1325.9" cy="-1276.7" r="0"/>
  <circle cx="-226.35" cy="-11.221" r="0" fill-rule="evenodd"/>
  <g transform="matrix(3.7796 0 0 3.7796 -180.12 -73.796)" stroke-width=".26458">
   <circle cx="-330.35" cy="-328.38" r="0"/>
   <circle cx="-312.11" cy="-326.25" r="0"/>
   <circle cx="-306.02" cy="-333.07" r="0"/>
   <circle cx="-308.84" cy="-326.01" r="0"/>
  </g>
 </g>
</svg>
