<?xml version="1.0" encoding="UTF-8"?>
<svg width="64" height="64" version="1.1" xmlns="http://www.w3.org/2000/svg" xmlns:cc="http://creativecommons.org/ns#" xmlns:dc="http://purl.org/dc/elements/1.1/" xmlns:rdf="http://www.w3.org/1999/02/22-rdf-syntax-ns#" xmlns:xlink="http://www.w3.org/1999/xlink">
 <metadata>
  <rdf:RDF>
   <cc:Work rdf:about="">
    <dc:format>image/svg+xml</dc:format>
    <dc:type rdf:resource="http://purl.org/dc/dcmitype/StillImage"/>
    <dc:title/>
   </cc:Work>
  </rdf:RDF>
 </metadata>
 <defs>
  <linearGradient id="b" x1="399.57" x2="399.57" y1="545.8" y2="517.8" gradientTransform="matrix(2.1429 0 0 2.1429 -826.36 -1107.5)" gradientUnits="userSpaceOnUse">
   <stop stop-color="#3889e9" offset="0"/>
   <stop stop-color="#5ea5fb" offset="1"/>
  </linearGradient>
  <style type="text/css"/>
  <style type="text/css"/>
  <style type="text/css"/>
  <style type="text/css"/>
  <style type="text/css"/>
  <style type="text/css"/>
  <style type="text/css"/>
  <style type="text/css"/>
  <linearGradient id="linearGradient1050" x1="399.57" x2="399.57" y1="545.8" y2="517.8" gradientTransform="matrix(2.1429,0,0,2.1429,-826.36,-1107.5)" gradientUnits="userSpaceOnUse" xlink:href="#b"/>
  <style type="text/css"/>
  <style type="text/css"/>
  <style type="text/css"/>
  <style type="text/css"/>
  <style type="text/css"/>
  <style type="text/css"/>
  <style type="text/css"/>
  <style type="text/css"/>
  <style type="text/css"/>
  <filter id="filter11290" x="-.024" y="-.024" width="1.048" height="1.048" color-interpolation-filters="sRGB">
   <feGaussianBlur stdDeviation="0.15875313"/>
  </filter>
  <linearGradient id="linearGradient1005" x1=".8714" x2="16.246" y1="16.164" y2=".78937" gradientTransform="matrix(3.7796 0 0 3.7796 -.13241 .025278)" gradientUnits="userSpaceOnUse">
   <stop stop-color="#00c8ff" offset="0"/>
   <stop stop-color="#14a0ff" offset="1"/>
  </linearGradient>
 </defs>
 <circle transform="matrix(3.7796 0 0 3.7796 -.10279 .024585)" cx="8.4937" cy="8.46" r="7.9377" filter="url(#filter11290)" opacity=".25" stroke-width=".14032"/>
 <path d="m62 32c0 3.5964-0.63305 7.0448-1.794 10.24-0.80698 2.2212-1.8686 4.3212-3.1519 6.2636-0.53754 0.8167-1.1155 1.6054-1.729 2.3633-1.9641 2.4257-4.2982 4.5382-6.9186 6.2526-0.96493 0.63187-1.9678 1.2098-3.0061 1.7277-4.0321 2.0179-8.5839 3.153-13.401 3.153s-9.3689-1.1351-13.401-3.1531c-1.0384-0.518-2.0425-1.096-3.0074-1.7277-2.6535-1.7376-5.0155-3.8832-6.9957-6.349-0.61468-0.76408-1.1915-1.56-1.729-2.3841-1.249-1.9102-2.2837-3.9712-3.0747-6.1494-1.1608-3.1949-1.7927-6.6419-1.7927-10.237 0-16.569 13.432-30.001 30.001-30.001 8.317 0 15.843 3.3846 21.277 8.8507 1.5661 1.5747 2.9584 3.3234 4.1436 5.214 1.1205 1.7805 2.0572 3.6882 2.7857 5.6951 1.161 3.196 1.7941 6.6442 1.7941 10.24z" fill="url(#linearGradient1005)" stroke-width=".11719"/>
 <circle cx="32.02" cy="32.044" r="0" fill="url(#b)" stroke-width="1.5715"/>
 <circle cx="32.02" cy="32.044" r="0" fill="url(#linearGradient1050)" stroke-width="1.5715"/>
 <circle cx="-1124.8" cy="-1279.3" r="0" fill="#5e4aa6" image-rendering="optimizeSpeed"/>
 <g transform="matrix(3.7796,0,0,3.7796,123.83,-38.184)" fill="#5e4aa6" image-rendering="optimizeSpeed" stroke-width=".26458">
  <circle cx="-299.02" cy="-338.77" r="0"/>
  <circle cx="-8.1062" cy="-3.9487" r="0" fill-rule="evenodd"/>
  <circle cx="-278.25" cy="-357.69" r="0"/>
  <circle cx="12.663" cy="-22.859" r="0" fill-rule="evenodd"/>
 </g>
 <g transform="matrix(2.2502 0 0 2.2502 -40.008 -40.009)">
  <path d="m24.502 23.668h14.996c1.3827 0 2.5009 1.1213 2.5009 2.5009v11.664c0 1.3859-1.1182 2.5009-2.5009 2.5009h-14.996a2.4977 2.4977 0 0 1-2.5009-2.5009v-11.664c0-1.3796 1.1213-2.5009 2.5009-2.5009" fill="#fff" fill-opacity=".987" opacity=".3" stroke-width="3.1497"/>
  <g transform="scale(3.7796)" opacity=".1">
   <path d="m7.673 8.864a0.397 0.397 0 1 1-0.794 0 0.397 0.397 0 0 1 0.794 0m1.058 0a0.397 0.397 0 1 1-0.794 0 0.397 0.397 0 0 1 0.794 0m1.059 0a0.397 0.397 0 1 1-0.794 0 0.397 0.397 0 0 1 0.794 0"/>
  </g>
  <g stroke-width="3.7796">
   <path d="m25.002 30.002h14c0.55182 0 0.99782 0.44599 0.99782 0.99782v3.001a1.0016 1.0016 0 0 1-0.99782 0.99782h-14a1.0016 1.0016 0 0 1-1.0016-0.99782v-3.001c0-0.55182 0.44977-0.99782 1.0016-0.99782" fill="#f9f9f9"/>
   <path d="m27.999 32.501a1.5005 1.5005 0 1 1-3.001 0 1.5005 1.5005 0 0 1 3.001 0m4.0026 0a1.5005 1.5005 0 1 1-3.001 0 1.5005 1.5005 0 0 1 3.001 0m3.9988 0a1.5005 1.5005 0 1 1-3.001 0 1.5005 1.5005 0 0 1 3.001 0" fill="#2d2d2d"/>
   <path d="m24.242 27.001h7.5214c0.13229 0 0.24189 0.10583 0.24189 0.23812v0.51781a0.24189 0.24189 0 0 1-0.24189 0.24189h-7.5214a0.24189 0.24189 0 0 1-0.2419-0.24189v-0.51781c0-0.13229 0.10961-0.23812 0.2419-0.23812" fill="#f9f9f9"/>
  </g>
 </g>
 <g fill="#5e4aa6">
  <circle cx="-1227.8" cy="-1313.3" r="0"/>
  <g transform="matrix(3.7796 0 0 3.7796 20.807 -72.192)" stroke-width=".26458">
   <circle cx="-299.02" cy="-338.77" r="0"/>
   <circle cx="-8.1062" cy="-3.9487" r="0" fill-rule="evenodd"/>
   <circle cx="-278.25" cy="-357.69" r="0"/>
   <circle cx="12.663" cy="-22.859" r="0" fill-rule="evenodd"/>
  </g>
  <g transform="translate(-103.02 -34.008)">
   <circle cx="-1050.3" cy="-1279.3" r="0"/>
   <g transform="matrix(3.7796,0,0,3.7796,198.32,-38.184)" stroke-width=".26458">
    <circle cx="-299.02" cy="-338.77" r="0"/>
    <circle cx="-8.1062" cy="-3.9487" r="0" fill-rule="evenodd"/>
    <circle cx="-278.25" cy="-357.69" r="0"/>
    <circle cx="12.663" cy="-22.859" r="0" fill-rule="evenodd"/>
   </g>
   <g transform="matrix(3.7796 0 0 3.7796 74.386 .024585)" stroke-width=".26458">
    <circle cx="-330.35" cy="-328.38" r="0"/>
    <circle cx="-312.11" cy="-326.25" r="0"/>
    <circle cx="-306.02" cy="-333.07" r="0"/>
    <circle cx="-308.84" cy="-326.01" r="0"/>
   </g>
  </g>
 </g>
</svg>
