<?xml version="1.0" encoding="UTF-8" standalone="no"?>
<svg
   xmlns:dc="http://purl.org/dc/elements/1.1/"
   xmlns:cc="http://creativecommons.org/ns#"
   xmlns:rdf="http://www.w3.org/1999/02/22-rdf-syntax-ns#"
   xmlns:svg="http://www.w3.org/2000/svg"
   xmlns="http://www.w3.org/2000/svg"
   xmlns:sodipodi="http://sodipodi.sourceforge.net/DTD/sodipodi-0.dtd"
   xmlns:inkscape="http://www.inkscape.org/namespaces/inkscape"
   inkscape:version="1.0 (4035a4fb49, 2020-05-01)"
   sodipodi:docname="logview.svg"
   id="svg61"
   viewBox="0 0 16.933 16.933"
   version="1.1"
   height="64"
   width="64">
  <sodipodi:namedview
     inkscape:current-layer="svg61"
     inkscape:window-maximized="1"
     inkscape:window-y="36"
     inkscape:window-x="0"
     inkscape:cy="13.509488"
     inkscape:cx="-3.3745874"
     inkscape:zoom="4"
     showgrid="false"
     id="namedview63"
     inkscape:window-height="932"
     inkscape:window-width="1920"
     inkscape:pageshadow="2"
     inkscape:pageopacity="0"
     guidetolerance="10"
     gridtolerance="10"
     objecttolerance="10"
     borderopacity="1"
     bordercolor="#666666"
     pagecolor="#ffffff"
     inkscape:document-rotation="0" />
  <defs
     id="defs7">
    <linearGradient
       gradientUnits="userSpaceOnUse"
       gradientTransform="matrix(0.53034,0,0,0.53034,-8.6275,335.51)"
       y2="-100.78"
       y1="-137.82"
       x2="-6.1472"
       x1="-6.1472"
       id="a-3">
      <stop
         id="stop2"
         offset="0"
         stop-color="#969696" />
      <stop
         id="stop4"
         offset="1"
         stop-color="#555" />
    </linearGradient>
    <filter
       id="filter2761"
       x="-.024"
       y="-.024"
       width="1.048"
       height="1.048"
       color-interpolation-filters="sRGB">
      <feGaussianBlur
         stdDeviation="0.14552168"
         id="feGaussianBlur890" />
    </filter>
    <linearGradient
       id="linearGradient4673"
       x1="1.2573"
       x2="15.644"
       y1="15.429"
       y2="1.1082"
       gradientTransform="translate(-23.214731,0.14040016)"
       gradientUnits="userSpaceOnUse">
      <stop
         stop-color="#a0b9cd"
         offset="0"
         id="stop893" />
      <stop
         stop-color="#96b4c8"
         offset=".47728"
         id="stop895" />
      <stop
         stop-color="#a0b9cd"
         offset="1"
         id="stop897" />
    </linearGradient>
    <filter
       id="filter917"
       x="-.083994"
       y="-.084006"
       width="1.168"
       height="1.168"
       color-interpolation-filters="sRGB">
      <feGaussianBlur
         stdDeviation="0.22223482"
         id="feGaussianBlur900" />
    </filter>
    <filter
       color-interpolation-filters="sRGB"
       height="1.048"
       width="1.048"
       y="-.024"
       x="-.024"
       id="filter11290">
      <feGaussianBlur
         id="feGaussianBlur850"
         stdDeviation="0.15875313" />
    </filter>
    <linearGradient
       gradientUnits="userSpaceOnUse"
       gradientTransform="translate(-0.035055,0.00645)"
       y2=".64687"
       y1="16.296"
       x2="16.388"
       x1=".73911"
       id="linearGradient1005">
      <stop
         id="stop853"
         offset="0"
         stop-color="#a0b9cd" />
      <stop
         id="stop855"
         offset=".48743"
         stop-color="#96b4c8" />
      <stop
         id="stop857"
         offset="1"
         stop-color="#a0b9cd" />
    </linearGradient>
    <filter
       color-interpolation-filters="sRGB"
       height="1.168"
       width="1.168"
       y="-.084006"
       x="-.083994"
       id="filter917-3">
      <feGaussianBlur
         id="feGaussianBlur860"
         stdDeviation="0.22223482" />
    </filter>
  </defs>
  <metadata
     id="metadata9">
    <rdf:RDF>
      <cc:Work
         rdf:about="">
        <dc:format>image/svg+xml</dc:format>
        <dc:type
           rdf:resource="http://purl.org/dc/dcmitype/StillImage" />
        <dc:title></dc:title>
      </cc:Work>
    </rdf:RDF>
  </metadata>
  <circle
     cx="-349.1933"
     cy="-328.50299"
     r="0"
     fill="#5e4aa6"
     stroke-width="0.26458"
     id="circle17" />
  <circle
     cx="-58.266289"
     cy="6.3100023"
     r="0"
     fill="#5e4aa6"
     fill-rule="evenodd"
     stroke-width="0.26458"
     id="circle19" />
  <circle
     cx="-369.32327"
     cy="-328.00299"
     r="0"
     fill="#5e4aa6"
     stroke-width="0.26458"
     id="circle55" />
  <circle
     cx="-78.401291"
     cy="6.8299913"
     r="0"
     fill="#5e4aa6"
     fill-rule="evenodd"
     stroke-width="0.26458"
     id="circle57" />
  <circle
     cx="8.4665003"
     cy="8.4665003"
     r="7.9376998"
     filter="url(#filter11290)"
     opacity="0.25"
     stroke-width="0.14032"
     id="circle865" />
  <path
     style="fill:url(#linearGradient1005)"
     d="m 16.404,8.4664 c 0,0.95154 -0.16749,1.8639 -0.47464,2.7094 -0.21351,0.58768 -0.49439,1.1433 -0.83393,1.6572 -0.14222,0.21608 -0.29514,0.42475 -0.45746,0.62529 -0.51966,0.64179 -1.1372,1.2007 -1.8305,1.6543 -0.2553,0.16718 -0.52065,0.3201 -0.79536,0.45712 -1.0668,0.53389 -2.2711,0.83421 -3.5456,0.83421 -1.2745,0 -2.4788,-0.30032 -3.5456,-0.83424 -0.27474,-0.13705 -0.5404,-0.28997 -0.7957,-0.45712 -0.70207,-0.45973 -1.327,-1.0274 -1.8509,-1.6798 -0.16263,-0.20216 -0.31524,-0.41275 -0.45746,-0.63078 -0.33046,-0.5054 -0.60421,-1.0507 -0.8135,-1.627 -0.30711,-0.84529 -0.4743,-1.7573 -0.4743,-2.7085 0,-4.3838 3.5537,-7.9375 7.9375,-7.9375 2.2005,0 4.1917,0.89548 5.6295,2.3417 0.41436,0.41662 0.78274,0.87929 1.0963,1.3795 0.29645,0.47107 0.54428,0.97582 0.73704,1.5068 0.30718,0.84559 0.47467,1.7579 0.47467,2.7094 z"
     fill="url(#linearGradient1005)"
     stroke-width="0.031006"
     id="path867" />
  <g
     transform="translate(-0.0272,0.0065001)"
     fill="#5e4aa6"
     stroke-width="0.26458"
     id="g877">
    <circle
       cx="-330.35001"
       cy="-328.38"
       r="0"
       id="circle869" />
    <circle
       cx="-312.10999"
       cy="-326.25"
       r="0"
       id="circle871" />
    <circle
       cx="-306.01999"
       cy="-333.07001"
       r="0"
       id="circle873" />
    <circle
       cx="-308.84"
       cy="-326.01001"
       r="0"
       id="circle875" />
  </g>
  <path
     d="m 8.6385369,4.6969337 c -0.2765396,0 -0.5163942,0.019349 -0.7189999,0.057682 V 7.4859064 H 8.359235 V 6.3236658 h 0.275254 c 0.1478493,0 0.2598186,0.038198 0.3364785,0.1148577 0.079399,0.073926 0.1382566,0.2039364 0.1765876,0.3901121 0.076658,0.3559281 0.136828,0.5751344 0.1806353,0.6572708 H 9.7881285 C 9.7634832,7.4393632 9.7323461,7.3436176 9.6940122,7.1985085 9.6693669,7.1108889 9.6293586,6.9518588 9.5746004,6.7218735 9.5034159,6.4261691 9.3734038,6.2425514 9.1844878,6.1713652 v -0.0081 C 9.3295965,6.11125 9.4473132,6.027801 9.5376638,5.9128082 9.6389661,5.7841286 9.6899643,5.6347665 9.6899643,5.4650141 9.6899643,5.2322985 9.6130616,5.0504789 9.4597416,4.9190598 9.2872412,4.7712105 9.0136273,4.6969337 8.6385329,4.6969337 Z m 5.2647431,0.017709 v 2.7682277 h 0.410858 V 6.4314397 c 0,-0.4736462 -0.0096,-0.8650087 -0.02885,-1.1743841 l 0.01215,-0.00405 c 0.123209,0.2820008 0.287493,0.5964531 0.492826,0.9441623 l 0.279302,0.4695514 V 5.8333692 L 14.396107,4.7146429 Z M 6.0787741,4.7176791 5.18774,7.4859067 H 5.647678 L 5.8940909,6.6727925 h 0.89913 L 7.0522835,7.4859056 H 7.5243651 L 6.6292831,4.717678 Z m 4.0944069,0 v 2.7682276 h 0.410856 v -1.051431 c 0,-0.4736546 -0.0097,-0.8650023 -0.02885,-1.1743841 l 0.01265,-0.00455 c 0.12319,0.282002 0.287484,0.5969413 0.492827,0.9446683 l 0.763526,1.2857004 h 0.45589 V 4.7176796 h -0.4149 v 1.0306852 c 10e-7,0.4544725 0.01541,0.8379725 0.04554,1.1500973 l -0.0086,0.00404 C 11.765233,6.5876383 11.608002,6.2823766 11.43004,5.9866816 L 10.666007,4.7176788 Z m 2.695365,0 v 2.7682276 h 0.443242 V 4.7176788 Z M 1.9018933,4.7181849 2.5753556,7.4859064 H 3.0479423 L 3.3925155,6.1389823 C 3.4828718,5.7858095 3.5474706,5.4901945 3.5858016,5.2519958 h 0.00813 c 0.030118,0.2436444 0.08504,0.5392591 0.164444,0.8869865 L 4.0619599,7.4859064 H 4.5304993 L 5.2778338,4.7181849 H 4.8259924 L 4.5138018,6.0200766 4.4976063,6.0899015 C 4.4236804,6.4047636 4.3635134,6.701671 4.3169702,6.9809362 h -0.00861 C 4.2727517,6.7098625 4.2138947,6.3949236 4.1317613,6.036268 L 3.840316,4.7181849 H 3.380378 L 3.0600917,6.0241244 C 2.9560547,6.4457651 2.8862106,6.76726 2.8506154,6.989032 h -0.00813 C 2.7849925,6.6550195 2.723011,6.3348173 2.6573009,6.0281722 L 2.3739513,4.7181849 Z m 6.777629,0.3157326 c 0.3778183,0.00275 0.5666992,0.1617858 0.5666992,0.4766352 0,0.1451059 -0.052307,0.2628226 -0.1563484,0.3531753 C 8.985834,5.9513407 8.8466521,5.9947773 8.6714266,5.9947773 H 8.359235 V 5.0627585 c 0.071184,-0.019163 0.1779144,-0.028841 0.3202873,-0.028841 z m -2.3462385,0.053128 h 0.00861 C 6.4103499,5.360847 6.456907,5.5347871 6.4815484,5.6087133 L 6.7153193,6.3317615 H 5.9720317 L 6.2022534,5.6087131 C 6.2624811,5.3787153 6.3059193,5.2047751 6.3333033,5.0870454 Z M 1.8634389,9.4192631 v 1.0782489 l 0.059709,-0.187214 c 0.060228,-0.229979 0.104177,-0.4039384 0.1315552,-0.5216679 h 0.00813 c 0.06845,0.2737949 0.1150109,0.4477529 0.1396484,0.5216679 l 0.2337633,0.722543 H 1.8634713 v 0.341031 h 0.6511982 l 0.2585564,0.813113 H 3.2458138 L 2.3502254,9.4192633 Z m 1.1667945,0.00304 0.8581454,1.6100339 v 1.157688 H 4.3321247 V 11.019684 L 5.2353023,9.4222995 H 4.7343807 L 4.3852526,10.14889 c -0.1067768,0.224509 -0.1889171,0.412066 -0.246413,0.562652 h -0.00813 C 4.0677432,10.558219 3.9842928,10.370662 3.8802538,10.14889 L 3.5351734,9.4222994 Z m 7.2168206,0.051104 c -0.292955,0 -0.5341334,0.067225 -0.7230485,0.2013808 l 0.1027143,0.3243343 c 0.16426,-0.1122562 0.3408485,-0.1684919 0.5297632,-0.1684919 0.142373,0 0.250917,0.034264 0.32484,0.1027142 0.07393,0.065711 0.11081,0.1517815 0.11081,0.2585575 0,0.13142 -0.06198,0.235529 -0.185189,0.312191 -0.104039,0.06297 -0.225686,0.09461 -0.365319,0.09461 H 9.8361972 v 0.324334 h 0.2094758 c 0.177966,0 0.323397,0.04001 0.43565,0.119411 0.13142,0.08762 0.196826,0.210568 0.196826,0.369367 0.0028,0.125943 -0.03808,0.230054 -0.122953,0.312191 -0.101302,0.101302 -0.245424,0.151795 -0.431602,0.151795 -0.213555,0 -0.4102847,-0.05311 -0.5909866,-0.15989 l -0.1027143,0.33648 c 0.1807118,0.12047 0.4174439,0.180637 0.7103989,0.180637 0.309391,0 0.555799,-0.07902 0.739238,-0.237812 0.172491,-0.147833 0.258557,-0.336714 0.258557,-0.5667 0,-0.177963 -0.05442,-0.327325 -0.163937,-0.447794 -0.109516,-0.120457 -0.247893,-0.196048 -0.414906,-0.226173 v -0.0081 c 0.323085,-0.120472 0.484731,-0.33 0.484731,-0.62843 0,-0.1807021 -0.06591,-0.3295591 -0.197334,-0.4472881 C 10.701528,9.539273 10.501676,9.4733593 10.247054,9.4733593 Z m 2.849184,0.00405 c -0.06571,0 -0.150467,0.00523 -0.254509,0.016191 -0.369606,0.04107 -0.668343,0.172391 -0.895588,0.3941599 -0.303909,0.298441 -0.455889,0.699973 -0.455889,1.203732 0,0.339501 0.08657,0.614437 0.259062,0.825255 0.172479,0.210821 0.407919,0.31624 0.706351,0.31624 0.27104,0 0.491063,-0.09574 0.660814,-0.287398 0.164275,-0.180686 0.246413,-0.401216 0.246413,-0.661318 0,-0.260087 -0.07508,-0.468324 -0.225667,-0.624382 -0.147854,-0.1588 -0.338028,-0.237811 -0.57075,-0.237811 -0.257372,0 -0.460345,0.09131 -0.608191,0.274747 h -0.01215 c 0.0356,-0.216301 0.123475,-0.396797 0.26311,-0.541907 0.158799,-0.1670116 0.367822,-0.2685018 0.627924,-0.3040945 0.09308,-0.013746 0.179663,-0.018979 0.259063,-0.016191 z M 6.4354917,9.5199595 V 9.8898328 H 7.6918456 L 6.5751427,12.189516 H 7.0391286 L 8.1603845,9.8078575 V 9.5199538 Z m 2.4084746,0.7119175 c -0.082141,0 -0.1493621,0.02852 -0.2013817,0.08602 -0.052023,0.0575 -0.077922,0.127337 -0.077922,0.209476 0,0.08488 0.024587,0.156029 0.073878,0.213525 0.052023,0.05477 0.1192454,0.08197 0.2013817,0.08197 0.084873,0 0.153409,-0.02721 0.2054285,-0.08197 0.052023,-0.05476 0.077921,-0.125913 0.077921,-0.213525 0,-0.08489 -0.025899,-0.154723 -0.077921,-0.209476 -0.049281,-0.0575 -0.1165047,-0.08602 -0.2013807,-0.08602 z m 3.5828577,0.518632 c 0.147849,0 0.265562,0.05049 0.353175,0.151794 0.08762,0.101303 0.131556,0.237061 0.131556,0.40681 h -5.07e-4 c 0,0.167011 -0.0382,0.303572 -0.114857,0.41035 -0.08214,0.117731 -0.194106,0.176588 -0.336478,0.176588 -0.172486,0 -0.305624,-0.06934 -0.398715,-0.20897 -0.08207,-0.125956 -0.124194,-0.287602 -0.127001,-0.48473 -0.0028,-0.0575 0.0082,-0.111112 0.03289,-0.160397 0.09583,-0.194392 0.249123,-0.291445 0.459937,-0.291445 z m -3.5869055,0.894064 c -0.082131,0 -0.1493622,0.02852 -0.2013816,0.08602 -0.052023,0.0575 -0.077921,0.127337 -0.077921,0.209476 0,0.08488 0.024587,0.156028 0.073877,0.213524 0.052023,0.05477 0.1192453,0.08248 0.2013817,0.08248 0.084873,0 0.1534089,-0.02771 0.2054285,-0.08248 0.052023,-0.05475 0.077921,-0.125911 0.077921,-0.213524 0,-0.08489 -0.025899,-0.154722 -0.077921,-0.209476 -0.049281,-0.0575 -0.1165046,-0.08602 -0.2013807,-0.08602 z"
     style="fill:#ffffff;fill-opacity:1;stroke:none;stroke-width:0.587482;stroke-linecap:round;stroke-opacity:1"
     id="rect1072" />
  <path
     d="m 8.4664999,1.0273071 c -4.1085659,0 -7.4391922,3.3306267 -7.4391922,7.4391926 0,0.8914796 0.1565799,1.7460773 0.4444092,2.5382963 0.1961476,0.540117 0.4525,1.051274 0.7622125,1.524942 0.1332892,0.204342 0.2764868,0.401698 0.4289049,0.591166 0.4910068,0.611439 1.0767523,1.143683 1.7347433,1.57455 0.2392712,0.156656 0.4881852,0.299942 0.7456764,0.428389 0.9998219,0.500397 2.1287638,0.78185 3.3232459,0.78185 1.1944808,0 2.3229051,-0.28148 3.3227291,-0.78185 0.257462,-0.128418 0.506405,-0.271704 0.745676,-0.428389 0.649773,-0.425121 1.228591,-0.949284 1.715624,-1.550779 0.152129,-0.187949 0.295097,-0.383484 0.428389,-0.585999 0.318221,-0.481634 0.581744,-1.002063 0.781849,-1.552846 0.287864,-0.792416 0.444925,-1.6475319 0.444925,-2.5393303 0,-0.8917605 -0.15703,-1.7468296 -0.444925,-2.5393297 C 15.280109,5.4295271 15.047703,4.9563752 14.769867,4.5148808 14.475993,4.0460761 14.130904,3.6124247 13.74256,3.2219619 12.395031,1.8665419 10.528843,1.0273071 8.4664999,1.0273071 Z"
     style="fill:none;fill-opacity:1;stroke:#cdebff;stroke-width:1.00011;stroke-linecap:round;stroke-opacity:1"
     id="rect863" />
</svg>
