<?xml version="1.0" encoding="UTF-8" standalone="no"?>
<svg
   xmlns:dc="http://purl.org/dc/elements/1.1/"
   xmlns:cc="http://creativecommons.org/ns#"
   xmlns:rdf="http://www.w3.org/1999/02/22-rdf-syntax-ns#"
   xmlns:svg="http://www.w3.org/2000/svg"
   xmlns="http://www.w3.org/2000/svg"
   xmlns:sodipodi="http://sodipodi.sourceforge.net/DTD/sodipodi-0.dtd"
   xmlns:inkscape="http://www.inkscape.org/namespaces/inkscape"
   viewBox="0 0 64 64"
   version="1.1"
   id="svg65"
   sodipodi:docname="mate-panel-fish.svg"
   width="64"
   height="64"
   inkscape:version="1.0.2 (e86c870879, 2021-01-15)">
  <metadata
     id="metadata69">
    <rdf:RDF>
      <cc:Work
         rdf:about="">
        <dc:format>image/svg+xml</dc:format>
        <dc:type
           rdf:resource="http://purl.org/dc/dcmitype/StillImage" />
        <dc:title></dc:title>
      </cc:Work>
    </rdf:RDF>
  </metadata>
  <sodipodi:namedview
     pagecolor="#ffffff"
     bordercolor="#666666"
     borderopacity="1"
     objecttolerance="10"
     gridtolerance="10"
     guidetolerance="10"
     inkscape:pageopacity="0"
     inkscape:pageshadow="2"
     inkscape:window-width="1920"
     inkscape:window-height="992"
     id="namedview67"
     showgrid="false"
     inkscape:zoom="6.1208931"
     inkscape:cx="-8.5807034"
     inkscape:cy="29.93493"
     inkscape:window-x="0"
     inkscape:window-y="0"
     inkscape:window-maximized="1"
     inkscape:current-layer="svg65"
     inkscape:document-rotation="0" />
  <defs
     id="defs7">
    <linearGradient
       id="linearGradient3764"
       x1="1"
       x2="47"
       gradientUnits="userSpaceOnUse"
       gradientTransform="rotate(-90,23.999998,24)">
      <stop
         style="stop-color:#343a44;stop-opacity:1"
         id="stop2" />
      <stop
         offset="1"
         style="stop-color:#3c4350;stop-opacity:1"
         id="stop4" />
    </linearGradient>
    <linearGradient
       id="linearGradient3092"
       gradientUnits="userSpaceOnUse"
       gradientTransform="rotate(-90,72.706689,-24.706691)"
       x1="1"
       x2="47">
      <stop
         style="stop-color:#26a8de;stop-opacity:1"
         id="stop2-6" />
      <stop
         offset="1"
         style="stop-color:#38aee1;stop-opacity:1"
         id="stop4-7" />
    </linearGradient>
    <style
       type="text/css"
       id="style858" />
    <filter
       id="filter1057"
       x="-0.027000001"
       y="-0.027000001"
       width="1.054"
       height="1.054"
       color-interpolation-filters="sRGB">
      <feGaussianBlur
         stdDeviation="0.61875"
         id="feGaussianBlur860" />
    </filter>
    <linearGradient
       id="linearGradient1053"
       x1="-127"
       x2="-72"
       y1="60"
       y2="5"
       gradientTransform="translate(131.5,-0.51)"
       gradientUnits="userSpaceOnUse">
      <stop
         stop-color="#32d7ff"
         offset="0"
         id="stop863" />
      <stop
         stop-color="#329bff"
         offset="1"
         id="stop865" />
    </linearGradient>
    <style
       type="text/css"
       id="style868" />
    <style
       type="text/css"
       id="style870" />
    <style
       type="text/css"
       id="style872" />
    <style
       type="text/css"
       id="style874" />
    <style
       type="text/css"
       id="style876" />
    <style
       type="text/css"
       id="style878" />
    <style
       type="text/css"
       id="style880" />
    <style
       type="text/css"
       id="style861" />
    <style
       type="text/css"
       id="style863" />
    <style
       type="text/css"
       id="style865" />
    <style
       type="text/css"
       id="style867" />
    <style
       type="text/css"
       id="style869" />
    <style
       type="text/css"
       id="style871" />
    <style
       type="text/css"
       id="style873" />
    <style
       type="text/css"
       id="style875" />
    <style
       type="text/css"
       id="style877" />
    <filter
       id="filter11290"
       x="-.024"
       y="-.024"
       width="1.048"
       height="1.048"
       color-interpolation-filters="sRGB">
      <feGaussianBlur
         stdDeviation="0.15875313"
         id="feGaussianBlur879" />
    </filter>
    <linearGradient
       id="linearGradient1005"
       x1=".8714"
       x2="16.246"
       y1="16.164"
       y2=".78937"
       gradientTransform="matrix(3.7796,0,0,3.7796,-0.13241,0.025278)"
       gradientUnits="userSpaceOnUse">
      <stop
         stop-color="#00c8ff"
         offset="0"
         id="stop882" />
      <stop
         stop-color="#14a0ff"
         offset="1"
         id="stop884" />
    </linearGradient>
  </defs>
  <circle
     transform="matrix(3.7796,0,0,3.7796,-0.10278795,0.02458453)"
     cx="8.4937"
     cy="8.46"
     r="7.9376998"
     filter="url(#filter11290)"
     opacity="0.25"
     stroke-width="0.14032"
     id="circle889" />
  <path
     d="m 62.0004,32.00045 c 0,3.5964 -0.63305,7.0448 -1.794,10.24 -0.80698,2.2212 -1.8686,4.3212 -3.1519,6.2636 -0.53754,0.8167 -1.1155,1.6054 -1.729,2.3633 -1.9641,2.4257 -4.2982,4.5382 -6.9186,6.2526 -0.96493,0.63187 -1.9678,1.2098 -3.0061,1.7277 -4.0321,2.0179 -8.5839,3.153 -13.401,3.153 -4.8171,0 -9.3689,-1.1351 -13.401,-3.1531 -1.0384,-0.518 -2.0425,-1.096 -3.0074,-1.7277 -2.6535,-1.7376 -5.0155,-3.8832 -6.9957,-6.349 -0.61468,-0.76408 -1.1915,-1.56 -1.729,-2.3841 -1.249,-1.9102 -2.2837,-3.9712 -3.0747,-6.1494 -1.1608,-3.1949 -1.7927,-6.6419 -1.7927,-10.237 0,-16.569 13.432,-30.001 30.001,-30.001 8.317,0 15.843,3.3846 21.277,8.8507 1.5661,1.5747 2.9584,3.3234 4.1436,5.214 1.1205,1.7805 2.0572,3.6882 2.7857,5.6951 1.161,3.196 1.7941,6.6442 1.7941,10.24 z"
     fill="url(#linearGradient1005)"
     stroke-width="0.11719"
     id="path891"
     style="fill:url(#linearGradient1005)" />
  <circle
     cx="-1124.8"
     cy="-1279.3"
     r="0"
     fill="#5e4aa6"
     id="circle884" />
  <g
     transform="matrix(3.7796,0,0,3.7796,123.83,-38.184)"
     fill="#5e4aa6"
     stroke-width="0.26458"
     id="g894">
    <circle
       cx="-299.01999"
       cy="-338.76999"
       r="0"
       id="circle886" />
    <circle
       cx="-8.1062002"
       cy="-3.9487"
       r="0"
       fill-rule="evenodd"
       id="circle888" />
    <circle
       cx="-278.25"
       cy="-357.69"
       r="0"
       id="circle890" />
    <circle
       cx="12.663"
       cy="-22.858999"
       r="0"
       fill-rule="evenodd"
       id="circle892" />
  </g>
  <g
     id="g985"
     transform="matrix(1.1510408,0,0,1.1510408,-77.030112,-7.0252827)"
     style="fill:#ffffff;fill-opacity:1">
    <path
       d="m 96.67615,26.161793 c -0.285225,-2.827978 -2.76628,-5.257449 -5.402085,-5.257449 -2.692445,0 -5.167432,0.931533 -7.137711,2.479032 -0.522913,-0.01618 -1.120672,0.04147 -1.744729,0.191161 -1.756866,0.419747 -3.035322,1.37252 -2.855287,2.128064 0.11935,0.500661 0.853653,0.782852 1.839804,0.799035 -1.062009,1.749786 -1.685054,3.7939 -1.685054,5.985684 0,4.24399 2.303042,7.944838 5.716642,9.958609 -0.339843,0.368163 -0.652377,0.883996 -0.870847,1.500973 -0.48549,1.370497 -0.321637,2.676262 0.363106,2.917995 0.684743,0.242745 1.631448,-0.671594 2.116937,-2.04108 0.103167,-0.295339 0.171945,-0.585622 0.217459,-0.864778 0.269043,0.08901 0.557302,0.163853 0.866802,0.208356 1.438263,0.207344 2.687388,-0.207345 2.791566,-0.926477 0.103167,-0.71812 -0.977048,-1.470629 -2.416323,-1.677973 -0.615965,-0.08901 -1.192484,-0.05866 -1.663814,0.05664 -0.02124,-0.07485 -0.867813,-1.614253 -0.941648,-2.808761 -0.09508,-1.554578 0.368163,-3.08994 1.376566,-4.275344 0.394461,-0.461215 0.868824,-0.832412 1.374543,-1.147981 -0.09103,1.21777 0.191162,2.16751 0.765658,2.311134 0.75352,0.189139 1.720454,-1.080215 2.159418,-2.831012 0.03742,-0.150704 0.06473,-0.298374 0.09204,-0.446044 l 0.400529,-0.06979 c 2.843149,-0.603828 4.936824,-3.218393 4.636427,-6.189995 z"
       fill="#ffffff"
       fill-opacity="0.846774"
       id="path957"
       style="fill:#ffffff;fill-opacity:1;stroke-width:1.01144" />
    <path
       d="m 92.768969,41.646894 c 0.285225,2.827978 2.76628,5.257449 5.402085,5.257449 2.692446,0 5.167436,-0.931533 7.137706,-2.479032 0.52393,0.01618 1.12068,-0.04147 1.74574,-0.19015 1.75687,-0.419746 3.03533,-1.373531 2.85529,-2.129075 -0.11935,-0.500661 -0.85365,-0.782852 -1.8398,-0.799035 1.06201,-1.749786 1.68505,-3.792889 1.68505,-5.984673 0,-4.243989 -2.30304,-7.944837 -5.71664,-9.958608 0.33984,-0.368164 0.65339,-0.883996 0.87085,-1.500973 0.48448,-1.370497 0.32163,-2.676262 -0.36311,-2.917996 -0.68474,-0.242745 -1.63145,0.671594 -2.11694,2.04108 -0.10316,0.29534 -0.17194,0.585622 -0.21746,0.863767 -0.26904,-0.08901 -0.5573,-0.163852 -0.8668,-0.208356 -1.43826,-0.207344 -2.687385,0.207345 -2.791563,0.926477 -0.103167,0.71812 0.977048,1.470629 2.416323,1.677974 0.61597,0.08901 1.19248,0.05866 1.66483,-0.05664 0.0212,0.07485 0.86781,1.614254 0.94164,2.808761 0.0951,1.554578 -0.36816,3.08994 -1.37656,4.275344 -0.39446,0.462227 -0.86782,0.834435 -1.37353,1.150004 0.091,-1.21777 -0.19015,-2.16751 -0.76566,-2.311134 -0.753523,-0.188127 -1.720456,1.080215 -2.15942,2.831012 -0.03742,0.150704 -0.06473,0.298374 -0.09204,0.446044 l -0.400529,0.06979 c -2.847195,0.601805 -4.939858,3.217381 -4.639461,6.187972 z"
       fill="#ffffff"
       fill-opacity="0.846774"
       id="path959"
       style="fill:#ffffff;fill-opacity:1;stroke-width:1.01144" />
  </g>
  <circle
     cx="-1194.3423"
     cy="-1279.3"
     r="0"
     fill="#5e4aa6"
     id="circle893" />
  <g
     transform="matrix(3.7796,0,0,3.7796,54.28775,-38.184)"
     fill="#5e4aa6"
     stroke-width="0.26458"
     id="g903">
    <circle
       cx="-299.01999"
       cy="-338.76999"
       r="0"
       id="circle895" />
    <circle
       cx="-8.1062002"
       cy="-3.9487"
       r="0"
       fill-rule="evenodd"
       id="circle897" />
    <circle
       cx="-278.25"
       cy="-357.69"
       r="0"
       id="circle899" />
    <circle
       cx="12.663"
       cy="-22.858999"
       r="0"
       fill-rule="evenodd"
       id="circle901" />
  </g>
  <g
     fill="#5e4aa6"
     id="g937"
     transform="translate(-69.54225)">
    <circle
       cx="-1050.3"
       cy="-1279.3"
       r="0"
       id="circle915" />
    <g
       transform="matrix(3.7796,0,0,3.7796,198.32,-38.184)"
       stroke-width="0.26458"
       id="g925">
      <circle
         cx="-299.01999"
         cy="-338.76999"
         r="0"
         id="circle917" />
      <circle
         cx="-8.1062002"
         cy="-3.9487"
         r="0"
         fill-rule="evenodd"
         id="circle919" />
      <circle
         cx="-278.25"
         cy="-357.69"
         r="0"
         id="circle921" />
      <circle
         cx="12.663"
         cy="-22.858999"
         r="0"
         fill-rule="evenodd"
         id="circle923" />
    </g>
    <g
       transform="matrix(3.7796,0,0,3.7796,74.386,0.024585)"
       stroke-width="0.26458"
       id="g935">
      <circle
         cx="-330.35001"
         cy="-328.38"
         r="0"
         id="circle927" />
      <circle
         cx="-312.10999"
         cy="-326.25"
         r="0"
         id="circle929" />
      <circle
         cx="-306.01999"
         cy="-333.07001"
         r="0"
         id="circle931" />
      <circle
         cx="-308.84"
         cy="-326.01001"
         r="0"
         id="circle933" />
    </g>
  </g>
</svg>
