<?xml version="1.0" encoding="UTF-8" standalone="no"?>
<svg
   xmlns:dc="http://purl.org/dc/elements/1.1/"
   xmlns:cc="http://creativecommons.org/ns#"
   xmlns:rdf="http://www.w3.org/1999/02/22-rdf-syntax-ns#"
   xmlns:svg="http://www.w3.org/2000/svg"
   xmlns="http://www.w3.org/2000/svg"
   xmlns:sodipodi="http://sodipodi.sourceforge.net/DTD/sodipodi-0.dtd"
   xmlns:inkscape="http://www.inkscape.org/namespaces/inkscape"
   viewBox="0 0 64 64"
   version="1.1"
   id="svg37"
   sodipodi:docname="mattermost-desktop.svg"
   width="64"
   height="64"
   inkscape:version="1.0.2 (e86c870879, 2021-01-15)">
  <metadata
     id="metadata41">
    <rdf:RDF>
      <cc:Work
         rdf:about="">
        <dc:format>image/svg+xml</dc:format>
        <dc:type
           rdf:resource="http://purl.org/dc/dcmitype/StillImage" />
        <dc:title></dc:title>
      </cc:Work>
    </rdf:RDF>
  </metadata>
  <sodipodi:namedview
     pagecolor="#ffffff"
     bordercolor="#666666"
     borderopacity="1"
     objecttolerance="10"
     gridtolerance="10"
     guidetolerance="10"
     inkscape:pageopacity="0"
     inkscape:pageshadow="2"
     inkscape:window-width="1920"
     inkscape:window-height="992"
     id="namedview39"
     showgrid="false"
     inkscape:zoom="6.1208931"
     inkscape:cx="18.091947"
     inkscape:cy="25.826414"
     inkscape:window-x="0"
     inkscape:window-y="0"
     inkscape:window-maximized="1"
     inkscape:current-layer="svg37"
     inkscape:document-rotation="0" />
  <defs
     id="defs7">
    <linearGradient
       id="linearGradient3764"
       x1="1"
       x2="47"
       gradientUnits="userSpaceOnUse"
       gradientTransform="rotate(-90,23.999998,24)">
      <stop
         style="stop-color:#0c90c0;stop-opacity:1"
         id="stop2" />
      <stop
         offset="1"
         style="stop-color:#0d9ed3;stop-opacity:1"
         id="stop4" />
    </linearGradient>
    <linearGradient
       id="linearGradient3092"
       gradientUnits="userSpaceOnUse"
       gradientTransform="rotate(-90,72.706689,-24.706691)"
       x1="1"
       x2="47">
      <stop
         style="stop-color:#26a8de;stop-opacity:1"
         id="stop2-6" />
      <stop
         offset="1"
         style="stop-color:#38aee1;stop-opacity:1"
         id="stop4-7" />
    </linearGradient>
    <style
       type="text/css"
       id="style858" />
    <filter
       id="filter1057"
       x="-0.027000001"
       y="-0.027000001"
       width="1.054"
       height="1.054"
       color-interpolation-filters="sRGB">
      <feGaussianBlur
         stdDeviation="0.61875"
         id="feGaussianBlur860" />
    </filter>
    <linearGradient
       id="linearGradient1053"
       x1="-127"
       x2="-72"
       y1="60"
       y2="5"
       gradientTransform="translate(131.5,-0.51)"
       gradientUnits="userSpaceOnUse">
      <stop
         stop-color="#32d7ff"
         offset="0"
         id="stop863" />
      <stop
         stop-color="#329bff"
         offset="1"
         id="stop865" />
    </linearGradient>
    <style
       type="text/css"
       id="style868" />
    <style
       type="text/css"
       id="style870" />
    <style
       type="text/css"
       id="style872" />
    <style
       type="text/css"
       id="style874" />
    <style
       type="text/css"
       id="style876" />
    <style
       type="text/css"
       id="style878" />
    <style
       type="text/css"
       id="style880" />
    <style
       type="text/css"
       id="style863" />
    <style
       type="text/css"
       id="style865" />
    <style
       type="text/css"
       id="style867" />
    <style
       type="text/css"
       id="style869" />
    <style
       type="text/css"
       id="style871" />
    <style
       type="text/css"
       id="style873" />
    <style
       type="text/css"
       id="style875" />
    <style
       type="text/css"
       id="style877" />
    <style
       type="text/css"
       id="style879" />
    <filter
       id="filter11290"
       x="-.024"
       y="-.024"
       width="1.048"
       height="1.048"
       color-interpolation-filters="sRGB">
      <feGaussianBlur
         stdDeviation="0.15875313"
         id="feGaussianBlur881" />
    </filter>
    <linearGradient
       id="linearGradient1005"
       x1=".8714"
       x2="16.246"
       y1="16.164"
       y2=".78937"
       gradientTransform="matrix(3.7796,0,0,3.7796,-0.13241,0.025278)"
       gradientUnits="userSpaceOnUse">
      <stop
         stop-color="#00c8ff"
         offset="0"
         id="stop884" />
      <stop
         stop-color="#14a0ff"
         offset="1"
         id="stop886" />
    </linearGradient>
  </defs>
  <circle
     transform="matrix(3.7796,0,0,3.7796,-0.10278795,0.02458453)"
     cx="8.4937"
     cy="8.46"
     r="7.9376998"
     filter="url(#filter11290)"
     opacity="0.25"
     stroke-width="0.14032"
     id="circle891" />
  <path
     d="m 62.0004,32.00045 c 0,3.5964 -0.63305,7.0448 -1.794,10.24 -0.80698,2.2212 -1.8686,4.3212 -3.1519,6.2636 -0.53754,0.8167 -1.1155,1.6054 -1.729,2.3633 -1.9641,2.4257 -4.2982,4.5382 -6.9186,6.2526 -0.96493,0.63187 -1.9678,1.2098 -3.0061,1.7277 -4.0321,2.0179 -8.5839,3.153 -13.401,3.153 -4.8171,0 -9.3689,-1.1351 -13.401,-3.1531 -1.0384,-0.518 -2.0425,-1.096 -3.0074,-1.7277 -2.6535,-1.7376 -5.0155,-3.8832 -6.9957,-6.349 -0.61468,-0.76408 -1.1915,-1.56 -1.729,-2.3841 -1.249,-1.9102 -2.2837,-3.9712 -3.0747,-6.1494 -1.1608,-3.1949 -1.7927,-6.6419 -1.7927,-10.237 0,-16.569 13.432,-30.001 30.001,-30.001 8.317,0 15.843,3.3846 21.277,8.8507 1.5661,1.5747 2.9584,3.3234 4.1436,5.214 1.1205,1.7805 2.0572,3.6882 2.7857,5.6951 1.161,3.196 1.7941,6.6442 1.7941,10.24 z"
     fill="url(#linearGradient1005)"
     stroke-width="0.11719"
     id="path893"
     style="fill:url(#linearGradient1005)" />
  <g
     id="g27">
    <g
       id="g25">
      <g
         transform="translate(1,1)"
         id="g23">
        <g
           style="opacity:0.1"
           id="g21">
          <!-- color: #3a569c -->
        </g>
      </g>
    </g>
  </g>
  <circle
     cx="-1124.8"
     cy="-1279.3"
     r="0"
     fill="#5e4aa6"
     id="circle884" />
  <g
     transform="matrix(3.7796,0,0,3.7796,123.83,-38.184)"
     fill="#5e4aa6"
     stroke-width="0.26458"
     id="g894">
    <circle
       cx="-299.01999"
       cy="-338.76999"
       r="0"
       id="circle886" />
    <circle
       cx="-8.1062002"
       cy="-3.9487"
       r="0"
       fill-rule="evenodd"
       id="circle888" />
    <circle
       cx="-278.25"
       cy="-357.69"
       r="0"
       id="circle890" />
    <circle
       cx="12.663"
       cy="-22.858999"
       r="0"
       fill-rule="evenodd"
       id="circle892" />
  </g>
  <path
     d="M 32,14.5 A 17.5,17.5 0 0 0 14.5,32 17.5,17.5 0 0 0 32,49.5 17.5,17.5 0 0 0 49.5,32 17.5,17.5 0 0 0 42.5,18.023333 V 20.8735 A 12.833333,12.833333 0 0 1 46,29.666667 12.833333,12.833333 0 0 1 33.166667,42.5 12.833333,12.833333 0 0 1 20.333333,29.666667 12.833333,12.833333 0 0 1 30.761,17.070167 l 1.810667,-2.546834 A 17.5,17.5 0 0 0 32,14.5 m 5.635,1.166667 c -0.1015,0.0023 -0.1645,0.0315 -0.2345,0.114333 L 29.48,26.933167 c -0.5985,0.841166 -0.98,1.706833 -0.98,2.7335 0,2.577166 2.0895,4.666666 4.666667,4.666666 2.577166,0 4.666666,-2.0895 4.666666,-4.666666 V 15.898833 c 0,-0.138833 -0.09567,-0.2345 -0.198333,-0.232166"
     style="opacity:1;fill:#e3f6fd;fill-opacity:1;stroke:none;stroke-width:1.16667"
     id="path931" />
  <circle
     cx="-1191.5304"
     cy="-1279.3"
     r="0"
     fill="#5e4aa6"
     id="circle895" />
  <g
     transform="matrix(3.7796,0,0,3.7796,57.099714,-38.184)"
     fill="#5e4aa6"
     stroke-width="0.26458"
     id="g905">
    <circle
       cx="-299.01999"
       cy="-338.76999"
       r="0"
       id="circle897" />
    <circle
       cx="-8.1062002"
       cy="-3.9487"
       r="0"
       fill-rule="evenodd"
       id="circle899" />
    <circle
       cx="-278.25"
       cy="-357.69"
       r="0"
       id="circle901" />
    <circle
       cx="12.663"
       cy="-22.858999"
       r="0"
       fill-rule="evenodd"
       id="circle903" />
  </g>
  <g
     fill="#5e4aa6"
     id="g939"
     transform="translate(-66.730286)">
    <circle
       cx="-1050.3"
       cy="-1279.3"
       r="0"
       id="circle917" />
    <g
       transform="matrix(3.7796,0,0,3.7796,198.32,-38.184)"
       stroke-width="0.26458"
       id="g927">
      <circle
         cx="-299.01999"
         cy="-338.76999"
         r="0"
         id="circle919" />
      <circle
         cx="-8.1062002"
         cy="-3.9487"
         r="0"
         fill-rule="evenodd"
         id="circle921" />
      <circle
         cx="-278.25"
         cy="-357.69"
         r="0"
         id="circle923" />
      <circle
         cx="12.663"
         cy="-22.858999"
         r="0"
         fill-rule="evenodd"
         id="circle925" />
    </g>
    <g
       transform="matrix(3.7796,0,0,3.7796,74.386,0.024585)"
       stroke-width="0.26458"
       id="g937">
      <circle
         cx="-330.35001"
         cy="-328.38"
         r="0"
         id="circle929" />
      <circle
         cx="-312.10999"
         cy="-326.25"
         r="0"
         id="circle931" />
      <circle
         cx="-306.01999"
         cy="-333.07001"
         r="0"
         id="circle933" />
      <circle
         cx="-308.84"
         cy="-326.01001"
         r="0"
         id="circle935" />
    </g>
  </g>
</svg>
