<?xml version="1.0" encoding="UTF-8" standalone="no"?>
<svg
   xmlns:dc="http://purl.org/dc/elements/1.1/"
   xmlns:cc="http://creativecommons.org/ns#"
   xmlns:rdf="http://www.w3.org/1999/02/22-rdf-syntax-ns#"
   xmlns:svg="http://www.w3.org/2000/svg"
   xmlns="http://www.w3.org/2000/svg"
   xmlns:sodipodi="http://sodipodi.sourceforge.net/DTD/sodipodi-0.dtd"
   xmlns:inkscape="http://www.inkscape.org/namespaces/inkscape"
   viewBox="0 0 64 64"
   version="1.1"
   id="svg41"
   sodipodi:docname="mendeleydesktop.svg"
   width="64"
   height="64"
   inkscape:version="1.0.2 (e86c870879, 2021-01-15)">
  <metadata
     id="metadata45">
    <rdf:RDF>
      <cc:Work
         rdf:about="">
        <dc:format>image/svg+xml</dc:format>
        <dc:type
           rdf:resource="http://purl.org/dc/dcmitype/StillImage" />
        <dc:title></dc:title>
      </cc:Work>
    </rdf:RDF>
  </metadata>
  <sodipodi:namedview
     pagecolor="#ffffff"
     bordercolor="#666666"
     borderopacity="1"
     objecttolerance="10"
     gridtolerance="10"
     guidetolerance="10"
     inkscape:pageopacity="0"
     inkscape:pageshadow="2"
     inkscape:window-width="1920"
     inkscape:window-height="992"
     id="namedview43"
     showgrid="false"
     inkscape:zoom="6.1208931"
     inkscape:cx="-11.1596"
     inkscape:cy="27.102811"
     inkscape:window-x="0"
     inkscape:window-y="0"
     inkscape:window-maximized="1"
     inkscape:current-layer="svg41"
     inkscape:document-rotation="0" />
  <defs
     id="defs7">
    <linearGradient
       id="linearGradient3764"
       x1="1"
       x2="47"
       gradientUnits="userSpaceOnUse"
       gradientTransform="rotate(-90,23.999998,24)">
      <stop
         style="stop-color:#b12d42;stop-opacity:1"
         id="stop2" />
      <stop
         offset="1"
         style="stop-color:#c13148;stop-opacity:1"
         id="stop4" />
    </linearGradient>
    <filter
       id="filter1057"
       x="-0.027000001"
       y="-0.027000001"
       width="1.054"
       height="1.054"
       color-interpolation-filters="sRGB">
      <feGaussianBlur
         stdDeviation="0.61875"
         id="feGaussianBlur872" />
    </filter>
    <linearGradient
       id="linearGradient1053"
       x1="-127"
       x2="-72"
       y1="60"
       y2="5"
       gradientTransform="translate(131.5,-0.51)"
       gradientUnits="userSpaceOnUse">
      <stop
         stop-color="#df2a2a"
         offset="0"
         id="stop875" />
      <stop
         stop-color="#f83f3f"
         offset="1"
         id="stop877" />
    </linearGradient>
    <filter
       id="filter11290"
       x="-.024"
       y="-.024"
       width="1.048"
       height="1.048"
       color-interpolation-filters="sRGB">
      <feGaussianBlur
         stdDeviation="0.15875313"
         id="feGaussianBlur854" />
    </filter>
    <linearGradient
       id="linearGradient1005"
       x1=".73911"
       x2="16.388"
       y1="16.296"
       y2=".64687"
       gradientTransform="matrix(3.779602,0,0,3.779602,-0.132702,0.02456715)"
       gradientUnits="userSpaceOnUse">
      <stop
         stop-color="#dc2828"
         offset="0"
         id="stop857" />
      <stop
         stop-color="#ff4141"
         offset="1"
         id="stop859" />
    </linearGradient>
  </defs>
  <circle
     cx="8.4665003"
     cy="8.4665003"
     r="7.9376998"
     filter="url(#filter11290)"
     opacity="0.25"
     stroke-width="0.14032"
     id="circle864"
     transform="scale(3.779602)" />
  <path
     d="m 62.000383,31.999811 c 0,3.596442 -0.633045,7.0448 -1.79395,10.240453 -0.806983,2.221197 -1.868598,4.321219 -3.151924,6.263557 -0.537535,0.816696 -1.115511,1.605386 -1.729016,2.363347 -1.964108,2.425711 -4.298164,4.538168 -6.918562,6.252596 -0.964932,0.631874 -1.96785,1.20985 -3.006144,1.727731 -4.032079,2.017892 -8.583854,3.152982 -13.400957,3.152982 -4.817103,0 -9.368877,-1.13509 -13.400957,-3.153095 C 17.560465,58.329387 16.556376,57.751411 15.591444,57.11965 12.937899,55.382054 10.575912,53.236487 8.595779,50.770675 7.981102,50.00659 7.404297,49.210644 6.866762,48.386577 5.617755,46.476367 4.583089,44.41535 3.792056,42.237165 2.631302,39.042305 1.99939,35.59527 1.99939,32.000113 c 0,-16.569019 13.431572,-30.0005904 30.000591,-30.0005904 8.317015,0 15.842958,3.384558 21.27727,8.8506934 1.566116,1.574658 2.958445,3.323366 4.143577,5.213961 1.120463,1.780457 2.057162,3.688211 2.785718,5.695104 1.161018,3.195994 1.794064,6.644163 1.794064,10.240454 z"
     fill="url(#linearGradient1005)"
     stroke-width="0.11719"
     id="path866"
     style="fill:url(#linearGradient1005)" />
  <g
     id="g27">
    <g
       id="g25">
      <g
         transform="translate(1,1)"
         id="g23">
        <g
           style="opacity:0.1"
           id="g21">
          <!-- color: #37b8d5 -->
        </g>
      </g>
    </g>
  </g>
  <g
     id="g31">
    <g
       id="g29">
      <!-- color: #37b8d5 -->
    </g>
  </g>
  <g
     fill="#5e4aa6"
     id="g892">
    <circle
       cx="-1248.7"
       cy="-1241.6"
       r="0"
       id="circle882" />
    <circle
       cx="-1140.3"
       cy="-1301.8"
       r="0"
       id="circle884" />
    <circle
       cx="-1158.1"
       cy="-1246"
       r="0"
       id="circle886" />
    <circle
       cx="-1157.3"
       cy="-1267.7"
       r="0"
       id="circle888" />
    <circle
       cx="-57.756001"
       cy="-2.1829"
       r="0"
       fill-rule="evenodd"
       id="circle890" />
  </g>
  <path
     d="m 23.538462,20.461538 c -2.973846,0 -5.384616,2.410769 -5.384616,5.384616 v 6.923077 c 0,3.076922 -1.584615,3.076922 -2.307693,3.076922 -2.124615,0 -3.846153,1.721539 -3.846153,3.846154 0,2.124615 1.721538,3.846154 3.846153,3.846154 2.124616,0 3.846154,-1.721539 3.846154,-3.846154 0,-2.307692 -1.112307,-2.307692 -0.463076,-4.30923 0.361538,-1.113845 2.001538,-2.613845 4.309231,-2.613845 2.307692,0 4.615384,1.538461 4.615384,3.076922 0,1.538462 -0.769231,1.538462 -0.769231,3.846154 0,2.124615 2.066154,3.846154 4.615385,3.846154 2.549231,0 4.615384,-1.721539 4.615384,-3.846154 0,-2.307692 -0.923077,-2.307692 -0.923077,-3.846154 0,-1.538461 2.461539,-3.076922 4.769231,-3.076922 2.307693,0 3.990769,1.486154 4.309231,2.613845 0.684616,2.426155 -0.463076,2.001539 -0.463076,4.30923 0,2.124615 1.721538,3.846154 3.846153,3.846154 2.124616,0 3.846154,-1.721539 3.846154,-3.846154 0,-2.124616 -1.721538,-3.846154 -3.846154,-3.846154 -0.723077,0 -2.307693,0 -2.307693,-3.076922 v -6.923077 c 0,-2.973847 -2.410769,-5.384616 -5.384615,-5.384616 -5.384615,0 -4.792307,3.076923 -8.461538,3.076923 -3.669231,0 -3.076923,-3.076923 -8.461538,-3.076923 M 32,25.076923 A 4.6153846,4.6153846 0 0 1 36.615384,29.692307 4.6153846,4.6153846 0 0 1 32,34.307692 4.6153846,4.6153846 0 0 1 27.384615,29.692307 4.6153846,4.6153846 0 0 1 32,25.076923 Z"
     style="opacity:1;fill:#ffffff;fill-opacity:1;stroke:none;stroke-width:1.53846"
     id="path951" />
  <g
     transform="matrix(3.779602,0,0,3.779602,-77.521014,0.02456706)"
     fill="#5e4aa6"
     stroke-width="0.26458"
     id="g880">
    <circle
       cx="-330.35001"
       cy="-328.38"
       r="0"
       id="circle868" />
    <circle
       cx="-312.10999"
       cy="-326.25"
       r="0"
       id="circle870" />
    <circle
       cx="-306.01999"
       cy="-333.07001"
       r="0"
       id="circle872" />
    <circle
       cx="-308.84"
       cy="-326.01001"
       r="0"
       id="circle874" />
    <circle
       cx="-279"
       cy="-327.64999"
       r="0"
       id="circle876" />
    <circle
       cx="11.912"
       cy="7.1715002"
       r="0"
       fill-rule="evenodd"
       id="circle878" />
  </g>
</svg>
