<?xml version="1.0" encoding="UTF-8"?>
<svg width="64" height="64" version="1.1" viewBox="0 0 16.933 16.933" xmlns="http://www.w3.org/2000/svg" xmlns:cc="http://creativecommons.org/ns#" xmlns:dc="http://purl.org/dc/elements/1.1/" xmlns:rdf="http://www.w3.org/1999/02/22-rdf-syntax-ns#">
 <metadata>
  <rdf:RDF>
   <cc:Work rdf:about="">
    <dc:format>image/svg+xml</dc:format>
    <dc:type rdf:resource="http://purl.org/dc/dcmitype/StillImage"/>
    <dc:title/>
   </cc:Work>
  </rdf:RDF>
 </metadata>
 <defs>
  <filter id="filter11290" x="-.024" y="-.024" width="1.048" height="1.048" color-interpolation-filters="sRGB">
   <feGaussianBlur stdDeviation="0.15875313"/>
  </filter>
  <linearGradient id="linearGradient1005" x1=".8714" x2="16.246" y1="16.164" y2=".78937" gradientTransform="translate(-.0351 .0064999)" gradientUnits="userSpaceOnUse">
   <stop stop-color="#ffc841" offset="0"/>
   <stop stop-color="#ffc841" offset="1"/>
  </linearGradient>
  <style type="text/css"/>
 </defs>
 <circle cx="8.4665" cy="8.4665" r="7.9377" filter="url(#filter11290)" opacity=".25" stroke-width=".14032"/>
 <path d="m16.404 8.4664c0 0.95154-0.16749 1.8639-0.47464 2.7094-0.21351 0.58768-0.49439 1.1433-0.83393 1.6572-0.14222 0.21608-0.29514 0.42475-0.45746 0.62529-0.51966 0.64179-1.1372 1.2007-1.8305 1.6543-0.2553 0.16718-0.52065 0.3201-0.79536 0.45712-1.0668 0.53389-2.2711 0.83421-3.5456 0.83421s-2.4788-0.30032-3.5456-0.83424c-0.27474-0.13705-0.5404-0.28997-0.7957-0.45712-0.70207-0.45973-1.327-1.0274-1.8509-1.6798-0.16263-0.20216-0.31524-0.41275-0.45746-0.63078-0.33046-0.5054-0.60421-1.0507-0.8135-1.627-0.30711-0.84529-0.4743-1.7573-0.4743-2.7085 0-4.3838 3.5537-7.9375 7.9375-7.9375 2.2005 0 4.1917 0.89548 5.6295 2.3417 0.41436 0.41662 0.78274 0.87929 1.0963 1.3795 0.29645 0.47107 0.54428 0.97582 0.73704 1.5068 0.30718 0.84559 0.47467 1.7579 0.47467 2.7094z" fill="url(#linearGradient1005)" stroke-width=".031006"/>
 <g transform="translate(32.619 -7.599)" fill="#5e4aa6" stroke-width=".26458">
  <circle cx="-330.35" cy="-328.38" r="0"/>
  <circle cx="-312.11" cy="-326.25" r="0"/>
  <circle cx="-306.02" cy="-333.07" r="0"/>
  <circle cx="-308.84" cy="-326.01" r="0"/>
 </g>
 <g transform="matrix(.0097069 0 0 .0097069 3.4961 3.4985)">
  <path d="m880.8 959.6h-737.6c-22.1 0-40-17.9-40-40v-815.6c0-22.1 17.9-40 40-40h737.7c22.1 0 40 17.9 40 40v815.5c-0.1 22.1-18 40.1-40.1 40.1z" fill="#fafafa" p-id="1799"/>
  <g fill="#ffc841">
   <path d="m283.3 317.1m-38.9 0a38.9 38.9 0 1 0 77.8 0 38.9 38.9 0 1 0-77.8 0z" p-id="1800"/>
   <path d="m751.6 346.3h-333.2c-15.5 0-28.1-12.6-28.1-28.1v-2.2c0-15.5 12.6-28.1 28.1-28.1h333.2c15.5 0 28.1 12.6 28.1 28.1v2.2c0 15.5-12.6 28.1-28.1 28.1z" p-id="1801"/>
   <path d="m283.3 511.8m-38.9 0a38.9 38.9 0 1 0 77.8 0 38.9 38.9 0 1 0-77.8 0z" p-id="1802"/>
   <path d="m751.6 541h-333.2c-15.5 0-28.1-12.6-28.1-28.1v-2.2c0-15.5 12.6-28.1 28.1-28.1h333.2c15.5 0 28.1 12.6 28.1 28.1v2.2c0 15.5-12.6 28.1-28.1 28.1z" p-id="1803"/>
   <path d="m283.3 706.5m-38.9 0a38.9 38.9 0 1 0 77.8 0 38.9 38.9 0 1 0-77.8 0z" p-id="1804"/>
   <path d="m751.6 735.7h-333.2c-15.5 0-28.1-12.6-28.1-28.1v-2.2c0-15.5 12.6-28.1 28.1-28.1h333.2c15.5 0 28.1 12.6 28.1 28.1v2.2c0 15.5-12.6 28.1-28.1 28.1z" p-id="1805"/>
  </g>
 </g>
</svg>
