<?xml version="1.0" encoding="UTF-8" standalone="no"?>
<svg
   xmlns:dc="http://purl.org/dc/elements/1.1/"
   xmlns:cc="http://creativecommons.org/ns#"
   xmlns:rdf="http://www.w3.org/1999/02/22-rdf-syntax-ns#"
   xmlns:svg="http://www.w3.org/2000/svg"
   xmlns="http://www.w3.org/2000/svg"
   xmlns:sodipodi="http://sodipodi.sourceforge.net/DTD/sodipodi-0.dtd"
   xmlns:inkscape="http://www.inkscape.org/namespaces/inkscape"
   height="64"
   viewBox="0 0 64 64"
   width="64"
   version="1.1"
   id="svg22"
   sodipodi:docname="messengerfordesktop.svg"
   inkscape:version="1.0.2 (e86c870879, 2021-01-15)">
  <metadata
     id="metadata28">
    <rdf:RDF>
      <cc:Work
         rdf:about="">
        <dc:format>image/svg+xml</dc:format>
        <dc:type
           rdf:resource="http://purl.org/dc/dcmitype/StillImage" />
        <dc:title></dc:title>
      </cc:Work>
    </rdf:RDF>
  </metadata>
  <defs
     id="defs26">
    <style
       type="text/css"
       id="style855" />
    <style
       type="text/css"
       id="style857" />
    <style
       type="text/css"
       id="style859" />
    <filter
       id="filter951"
       x="-.10129"
       y="-.07175"
       width="1.2026"
       height="1.1435"
       color-interpolation-filters="sRGB">
      <feGaussianBlur
         stdDeviation="15.306655"
         id="feGaussianBlur861" />
    </filter>
    <style
       type="text/css"
       id="style864" />
    <filter
       id="filter1057"
       x="-.027"
       y="-.027"
       width="1.054"
       height="1.054"
       color-interpolation-filters="sRGB">
      <feGaussianBlur
         stdDeviation="0.61875"
         id="feGaussianBlur866" />
    </filter>
    <linearGradient
       id="linearGradient1053"
       x1="-127"
       x2="-72"
       y1="60"
       y2="5"
       gradientTransform="translate(136.41676,-19.592918)"
       gradientUnits="userSpaceOnUse">
      <stop
         stop-color="#32d7ff"
         offset="0"
         id="stop869" />
      <stop
         stop-color="#329bff"
         offset="1"
         id="stop871" />
    </linearGradient>
    <style
       type="text/css"
       id="style874" />
    <style
       type="text/css"
       id="style876" />
    <style
       type="text/css"
       id="style878" />
    <style
       type="text/css"
       id="style880" />
    <style
       type="text/css"
       id="style882" />
    <style
       type="text/css"
       id="style884" />
    <style
       type="text/css"
       id="style886" />
    <style
       type="text/css"
       id="style895" />
    <style
       type="text/css"
       id="style897" />
    <style
       type="text/css"
       id="style899" />
    <style
       type="text/css"
       id="style901" />
    <style
       type="text/css"
       id="style903" />
    <style
       type="text/css"
       id="style905" />
    <style
       type="text/css"
       id="style907" />
    <style
       type="text/css"
       id="style909" />
    <style
       type="text/css"
       id="style911" />
    <style
       type="text/css"
       id="style913" />
    <style
       type="text/css"
       id="style915" />
    <style
       type="text/css"
       id="style917" />
    <style
       type="text/css"
       id="style919" />
    <style
       type="text/css"
       id="style921" />
    <style
       type="text/css"
       id="style923" />
    <style
       type="text/css"
       id="style925" />
    <style
       type="text/css"
       id="style927" />
    <style
       type="text/css"
       id="style929" />
    <style
       type="text/css"
       id="style931" />
    <filter
       id="filter11290"
       x="-.024"
       y="-.024"
       width="1.048"
       height="1.048"
       color-interpolation-filters="sRGB">
      <feGaussianBlur
         stdDeviation="0.15875313"
         id="feGaussianBlur933" />
    </filter>
    <linearGradient
       id="linearGradient1005"
       x1=".8714"
       x2="16.246"
       y1="16.164"
       y2=".78937"
       gradientTransform="matrix(3.7796,0,0,3.7796,-0.13241,0.025278)"
       gradientUnits="userSpaceOnUse">
      <stop
         stop-color="#00c8ff"
         offset="0"
         id="stop936" />
      <stop
         stop-color="#14a0ff"
         offset="1"
         id="stop938" />
    </linearGradient>
  </defs>
  <sodipodi:namedview
     pagecolor="#ffffff"
     bordercolor="#666666"
     borderopacity="1"
     objecttolerance="10"
     gridtolerance="10"
     guidetolerance="10"
     inkscape:pageopacity="0"
     inkscape:pageshadow="2"
     inkscape:window-width="1920"
     inkscape:window-height="940"
     id="namedview24"
     showgrid="false"
     inkscape:zoom="4.0364583"
     inkscape:cx="0.24205073"
     inkscape:cy="52.626056"
     inkscape:window-x="0"
     inkscape:window-y="38"
     inkscape:window-maximized="1"
     inkscape:current-layer="svg22"
     inkscape:document-rotation="0" />
  <linearGradient
     id="a"
     gradientTransform="matrix(0.26480135,0,0,0.26683463,-153.40179,-5.49995)"
     gradientUnits="userSpaceOnUse"
     x1="25.25"
     x2="24.5"
     y1="1004.1122"
     y2="1053.3622">
    <stop
       offset="0"
       stop-color="#00c6ff"
       id="stop2" />
    <stop
       offset="1"
       stop-color="#0068ff"
       id="stop4" />
  </linearGradient>
  <linearGradient
     id="b"
     gradientUnits="userSpaceOnUse"
     x1="23.280001"
     x2="23.4"
     y1="1052.243"
     y2="1004.0031"
     gradientTransform="matrix(1.25,0,0,1.25,-69.651791,-1253.4527)">
    <stop
       offset="0"
       stop-color="#e6e6e6"
       id="stop7" />
    <stop
       offset="1"
       stop-color="#fff"
       id="stop9" />
  </linearGradient>
  <circle
     transform="matrix(3.7796,0,0,3.7796,-0.10278795,0.02458453)"
     cx="8.4937"
     cy="8.46"
     r="7.9376998"
     filter="url(#filter11290)"
     opacity="0.25"
     stroke-width="0.14032"
     id="circle943" />
  <path
     d="m 62.0004,32.00045 c 0,3.5964 -0.63305,7.0448 -1.794,10.24 -0.80698,2.2212 -1.8686,4.3212 -3.1519,6.2636 -0.53754,0.8167 -1.1155,1.6054 -1.729,2.3633 -1.9641,2.4257 -4.2982,4.5382 -6.9186,6.2526 -0.96493,0.63187 -1.9678,1.2098 -3.0061,1.7277 -4.0321,2.0179 -8.5839,3.153 -13.401,3.153 -4.8171,0 -9.3689,-1.1351 -13.401,-3.1531 -1.0384,-0.518 -2.0425,-1.096 -3.0074,-1.7277 -2.6535,-1.7376 -5.0155,-3.8832 -6.9957,-6.349 -0.61468,-0.76408 -1.1915,-1.56 -1.729,-2.3841 -1.249,-1.9102 -2.2837,-3.9712 -3.0747,-6.1494 -1.1608,-3.1949 -1.7927,-6.6419 -1.7927,-10.237 0,-16.569 13.432,-30.001 30.001,-30.001 8.317,0 15.843,3.3846 21.277,8.8507 1.5661,1.5747 2.9584,3.3234 4.1436,5.214 1.1205,1.7805 2.0572,3.6882 2.7857,5.6951 1.161,3.196 1.7941,6.6442 1.7941,10.24 z"
     fill="url(#linearGradient1005)"
     stroke-width="0.11719"
     id="path945"
     style="fill:url(#linearGradient1005)" />
  <g
     fill="#5e4aa6"
     id="g914">
    <circle
       cx="-1202"
       cy="-1306.3"
       r="0"
       id="circle890" />
    <g
       transform="matrix(3.7796,0,0,3.7796,46.634,-65.215)"
       stroke-width="0.26458"
       id="g900">
      <circle
         cx="-299.01999"
         cy="-338.76999"
         r="0"
         id="circle892" />
      <circle
         cx="-8.1062002"
         cy="-3.9487"
         r="0"
         fill-rule="evenodd"
         id="circle894" />
      <circle
         cx="-278.25"
         cy="-357.69"
         r="0"
         id="circle896" />
      <circle
         cx="12.663"
         cy="-22.858999"
         r="0"
         fill-rule="evenodd"
         id="circle898" />
    </g>
    <circle
       cx="-1124.8"
       cy="-1279.3"
       r="0"
       id="circle902" />
    <g
       id="g912">
      <circle
         cx="-1006.3"
         cy="-1318.6"
         r="0"
         id="circle904" />
      <circle
         cx="93.192001"
         cy="-53.109001"
         r="0"
         fill-rule="evenodd"
         id="circle906" />
      <circle
         cx="-927.84003"
         cy="-1390.1"
         r="0"
         id="circle908" />
      <circle
         cx="171.69"
         cy="-124.58"
         r="0"
         fill-rule="evenodd"
         id="circle910" />
    </g>
  </g>
  <text
     x="-4.9240799"
     y="16.420322"
     id="text922"><tspan
       x="-4.9240799"
       y="16.420322"
       id="tspan920" /></text>
  <g
     fill="#5e4aa6"
     id="g966">
    <g
       transform="matrix(3.7796,0,0,3.7796,0.019246,-0.0012424)"
       stroke-width="0.26458"
       id="g932">
      <circle
         cx="-330.35001"
         cy="-328.38"
         r="0"
         id="circle924" />
      <circle
         cx="-39.433998"
         cy="6.4400001"
         r="0"
         fill-rule="evenodd"
         id="circle926" />
      <circle
         cx="-330.38"
         cy="-328.5"
         r="0"
         id="circle928" />
      <circle
         cx="-301.70001"
         cy="-344.42999"
         r="0"
         id="circle930" />
    </g>
    <circle
       cx="-1274.8"
       cy="-1318.1"
       r="0"
       id="circle934" />
    <g
       transform="matrix(3.7796,0,0,3.7796,-112.84,-73.605)"
       image-rendering="optimizeSpeed"
       stroke-width="0.26458"
       id="g944">
      <circle
         cx="-330.35001"
         cy="-328.38"
         r="0"
         id="circle936" />
      <circle
         cx="-312.10999"
         cy="-326.25"
         r="0"
         id="circle938" />
      <circle
         cx="-306.01999"
         cy="-333.07001"
         r="0"
         id="circle940" />
      <circle
         cx="-308.84"
         cy="-326.01001"
         r="0"
         id="circle942" />
    </g>
    <g
       image-rendering="optimizeSpeed"
       id="g952">
      <circle
         cx="-1160"
         cy="-1257.6"
         r="0"
         id="circle946" />
      <circle
         cx="-1160"
         cy="-1257.6"
         r="0"
         id="circle948" />
      <circle
         cx="-1244.2"
         cy="-1289.6"
         r="0"
         id="circle950" />
    </g>
    <circle
       cx="-1124.8"
       cy="-1279.3"
       r="0"
       image-rendering="optimizeSpeed"
       id="circle954" />
    <g
       transform="matrix(3.7796,0,0,3.7796,123.83,-38.184)"
       image-rendering="optimizeSpeed"
       stroke-width="0.26458"
       id="g964">
      <circle
         cx="-299.01999"
         cy="-338.76999"
         r="0"
         id="circle956" />
      <circle
         cx="-8.1062002"
         cy="-3.9487"
         r="0"
         fill-rule="evenodd"
         id="circle958" />
      <circle
         cx="-278.25"
         cy="-357.69"
         r="0"
         id="circle960" />
      <circle
         cx="12.663"
         cy="-22.858999"
         r="0"
         fill-rule="evenodd"
         id="circle962" />
    </g>
  </g>
  <path
     d="M 28.949894,23.937425 12.894339,40.9368 l 14.611908,-8.017 7.634503,8.017 15.964911,-16.999375 -14.44976,7.876625 z"
     fill="#ffffff"
     id="path1106"
     style="stroke-width:1.25" />
  <g
     fill="#5e4aa6"
     id="g965"
     transform="translate(-72.046465)">
    <circle
       cx="-1248.7"
       cy="-1241.6"
       r="0"
       id="circle947" />
    <circle
       cx="-1351.5"
       cy="-1275.4"
       r="0"
       id="circle949" />
    <circle
       cx="-251.96001"
       cy="-9.9196997"
       r="0"
       fill-rule="evenodd"
       id="circle951" />
    <circle
       cx="-1124.8"
       cy="-1279.3"
       r="0"
       id="circle953" />
    <g
       transform="matrix(3.7796,0,0,3.7796,123.83,-38.184)"
       stroke-width="0.26458"
       id="g963">
      <circle
         cx="-299.01999"
         cy="-338.76999"
         r="0"
         id="circle955" />
      <circle
         cx="-8.1062002"
         cy="-3.9487"
         r="0"
         fill-rule="evenodd"
         id="circle957" />
      <circle
         cx="-278.25"
         cy="-357.69"
         r="0"
         id="circle959" />
      <circle
         cx="12.663"
         cy="-22.858999"
         r="0"
         fill-rule="evenodd"
         id="circle961" />
    </g>
  </g>
  <g
     fill="#5e4aa6"
     id="g993"
     transform="translate(-72.046465)">
    <circle
       cx="-1210.5"
       cy="-1317.5"
       r="0"
       id="circle971" />
    <g
       transform="matrix(3.7796,0,0,3.7796,38.116,-76.336)"
       stroke-width="0.26458"
       id="g981">
      <circle
         cx="-299.01999"
         cy="-338.76999"
         r="0"
         id="circle973" />
      <circle
         cx="-8.1062002"
         cy="-3.9487"
         r="0"
         fill-rule="evenodd"
         id="circle975" />
      <circle
         cx="-278.25"
         cy="-357.69"
         r="0"
         id="circle977" />
      <circle
         cx="12.663"
         cy="-22.858999"
         r="0"
         fill-rule="evenodd"
         id="circle979" />
    </g>
    <g
       transform="matrix(3.7796,0,0,3.7796,-85.817,-38.128)"
       stroke-width="0.26458"
       id="g991">
      <circle
         cx="-330.35001"
         cy="-328.38"
         r="0"
         id="circle983" />
      <circle
         cx="-312.10999"
         cy="-326.25"
         r="0"
         id="circle985" />
      <circle
         cx="-306.01999"
         cy="-333.07001"
         r="0"
         id="circle987" />
      <circle
         cx="-308.84"
         cy="-326.01001"
         r="0"
         id="circle989" />
    </g>
  </g>
</svg>
