<?xml version="1.0" encoding="UTF-8" standalone="no"?>
<svg
   xmlns:dc="http://purl.org/dc/elements/1.1/"
   xmlns:cc="http://creativecommons.org/ns#"
   xmlns:rdf="http://www.w3.org/1999/02/22-rdf-syntax-ns#"
   xmlns:svg="http://www.w3.org/2000/svg"
   xmlns="http://www.w3.org/2000/svg"
   xmlns:xlink="http://www.w3.org/1999/xlink"
   xmlns:sodipodi="http://sodipodi.sourceforge.net/DTD/sodipodi-0.dtd"
   xmlns:inkscape="http://www.inkscape.org/namespaces/inkscape"
   height="64"
   viewBox="0 0 64 64"
   width="64"
   version="1.1"
   id="svg36"
   sodipodi:docname="mess.svg"
   inkscape:version="1.0.2 (e86c870879, 2021-01-15)">
  <metadata
     id="metadata42">
    <rdf:RDF>
      <cc:Work
         rdf:about="">
        <dc:format>image/svg+xml</dc:format>
        <dc:type
           rdf:resource="http://purl.org/dc/dcmitype/StillImage" />
        <dc:title></dc:title>
      </cc:Work>
    </rdf:RDF>
  </metadata>
  <defs
     id="defs40">
    <filter
       color-interpolation-filters="sRGB"
       height="1.048"
       width="1.048"
       y="-.024"
       x="-.024"
       id="filter2761">
      <feGaussianBlur
         id="feGaussianBlur2"
         stdDeviation="0.14552168" />
    </filter>
    <linearGradient
       gradientUnits="userSpaceOnUse"
       gradientTransform="translate(0 -.07421)"
       y2="1.17"
       y1="15.576"
       x2="15.65"
       x1="1.3315"
       id="linearGradient1024-6">
      <stop
         id="stop5"
         offset="0"
         stop-color="#dddfe1" />
      <stop
         id="stop7"
         offset="1"
         stop-opacity=".99608"
         stop-color="#f3f4f6" />
    </linearGradient>
    <filter
       id="filter11290"
       x="-.024"
       y="-.024"
       width="1.048"
       height="1.048"
       color-interpolation-filters="sRGB">
      <feGaussianBlur
         stdDeviation="0.15875313"
         id="feGaussianBlur864" />
    </filter>
    <linearGradient
       id="linearGradient1005"
       x1=".73911"
       x2="16.388"
       y1="16.296"
       y2=".64687"
       gradientTransform="translate(-0.0078552,-5.0139e-5)"
       gradientUnits="userSpaceOnUse">
      <stop
         stop-color="#dddfe1"
         offset="0"
         id="stop867" />
      <stop
         stop-color="#f3f4f6"
         offset="1"
         id="stop869" />
    </linearGradient>
  </defs>
  <sodipodi:namedview
     pagecolor="#ffffff"
     bordercolor="#666666"
     borderopacity="1"
     objecttolerance="10"
     gridtolerance="10"
     guidetolerance="10"
     inkscape:pageopacity="0"
     inkscape:pageshadow="2"
     inkscape:window-width="1920"
     inkscape:window-height="940"
     id="namedview38"
     showgrid="false"
     inkscape:zoom="4.0364583"
     inkscape:cx="20.056161"
     inkscape:cy="39.242341"
     inkscape:window-x="0"
     inkscape:window-y="38"
     inkscape:window-maximized="1"
     inkscape:current-layer="svg36"
     inkscape:document-rotation="0" />
  <linearGradient
     id="a">
    <stop
       offset="0"
       stop-color="#b3b3b3"
       id="stop2" />
    <stop
       offset="1"
       stop-color="#f2f2f2"
       id="stop4" />
  </linearGradient>
  <linearGradient
     id="b"
     gradientUnits="userSpaceOnUse"
     x1="23.266073"
     x2="23.200933"
     xlink:href="#a"
     y1="23.631073"
     y2="4.5693903" />
  <linearGradient
     id="c"
     gradientUnits="userSpaceOnUse"
     x1="34.851109"
     x2="34.900906"
     xlink:href="#a"
     y1="33.550179"
     y2="29.517899" />
  <linearGradient
     id="d"
     gradientUnits="userSpaceOnUse"
     x1="30.334541"
     x2="30.286602"
     xlink:href="#a"
     y1="39.453079"
     y2="33.954521" />
  <radialGradient
     id="e"
     cx="14.831183"
     cy="33.774925"
     gradientTransform="matrix(0.4858479,0.02009349,-0.02123822,0.51352654,8.54362,14.998835)"
     gradientUnits="userSpaceOnUse"
     r="3.489625"
     xlink:href="#a" />
  <linearGradient
     id="f"
     gradientUnits="userSpaceOnUse"
     x1="23.998114"
     x2="23.74268"
     y1="45.805595"
     y2="2.1795535">
    <stop
       offset="0"
       stop-color="#ff8f00"
       id="stop11" />
    <stop
       offset="1"
       stop-color="#ffc400"
       id="stop13" />
  </linearGradient>
  <g
     id="g939"
     transform="matrix(3.779602,0,0,3.779602,-0.10280494,0.02456761)">
    <circle
       cx="8.4937"
       cy="8.46"
       r="7.9376998"
       filter="url(#filter11290)"
       opacity="0.25"
       stroke-width="0.14032"
       id="circle876" />
    <path
       d="m 16.431,8.4599 c 0,0.95154 -0.16749,1.8639 -0.47464,2.7094 -0.21351,0.58768 -0.49439,1.1433 -0.83393,1.6572 -0.14222,0.21608 -0.29514,0.42475 -0.45746,0.62529 -0.51966,0.64179 -1.1372,1.2007 -1.8305,1.6543 -0.2553,0.16718 -0.52065,0.3201 -0.79536,0.45712 -1.0668,0.53389 -2.2711,0.83421 -3.5456,0.83421 -1.2745,0 -2.4788,-0.30032 -3.5456,-0.83424 -0.27474,-0.13705 -0.5404,-0.28997 -0.7957,-0.45712 -0.70207,-0.45973 -1.327,-1.0274 -1.8509,-1.6798 -0.16263,-0.20216 -0.31524,-0.41275 -0.45746,-0.63078 -0.33046,-0.5054 -0.60421,-1.0507 -0.8135,-1.627 -0.30711,-0.84529 -0.4743,-1.7573 -0.4743,-2.7085 0,-4.3838 3.5537,-7.9375 7.9375,-7.9375 2.2005,0 4.1917,0.89548 5.6295,2.3417 0.41436,0.41662 0.78274,0.87929 1.0963,1.3795 0.29645,0.47107 0.54428,0.97582 0.73704,1.5068 0.30718,0.84559 0.47467,1.7579 0.47467,2.7094 z"
       fill="url(#linearGradient1005)"
       stroke-width="0.031006"
       id="path878"
       style="fill:url(#linearGradient1005)" />
    <g
       fill="#5e4aa6"
       stroke-width="0.26458"
       id="g888">
      <circle
         cx="-330.35001"
         cy="-328.38"
         r="0"
         id="circle880" />
      <circle
         cx="-312.10999"
         cy="-326.25"
         r="0"
         id="circle882" />
      <circle
         cx="-306.01999"
         cy="-333.07001"
         r="0"
         id="circle884" />
      <circle
         cx="-308.84"
         cy="-326.01001"
         r="0"
         id="circle886" />
    </g>
    <g
       transform="translate(0.50437,-0.63228)"
       id="g910">
      <path
         d="m 6.23,11.584 c 0,0 0.42392,-0.87757 0.82906,-0.87757 0.40514,0 3.8874,0.07559 4.1603,-0.04843 0.27285,-0.12402 1.4386,-0.61184 1.3808,-1.4221 C 12.54228,8.42563 12.6694,6.896 12.6694,6.896 c 0,0 0.45164,4.6797 0.3855,4.9856 -0.03399,0.28546 -0.11315,1.0119 -1.1421,1.2341 -1.029,0.22216 -1.5493,-0.70157 -1.5493,-0.70157 0,0 -0.45602,-0.83019 -0.99974,-0.83019 h -3.1337 z"
         fill="#ff7d37"
         id="path890" />
      <path
         d="m 10.55,5.027 c 0,0 -1.05,0.024804 0,0 H 5.523 c 0,0 -2.0836,-0.00827 -2.3068,2.1414 0.05788,0 0,0 0,0 0,0 -0.12718,2.1876 -0.29631,4.725 0,0 -0.12659,1.0653 1.2554,1.2528 1.4656,0.1989 2.1332,-2.282 2.9269,-2.282 h 4.2581 c 0.63285,0 1.3111,-0.631 1.3111,-1.5313 0,-0.90035 3.91e-4,-2.2569 -3.99e-4,-2.4616 7.96e-4,-0.20685 -0.1152,-1.7886 -2.121,-1.8444 z"
         fill="#ffbe37"
         id="path892" />
      <g
         transform="translate(0.011111)"
         fill="#ffffff"
         id="g908">
        <rect
           x="5.4021001"
           y="6.5553002"
           width="0.88441998"
           height="2.5590999"
           ry="0.44220999"
           id="rect894" />
        <rect
           transform="rotate(-90)"
           x="-8.2770004"
           y="4.5647998"
           width="0.88441998"
           height="2.5590999"
           ry="0.44220999"
           id="rect896" />
        <g
           transform="translate(0,-0.037725)"
           id="g906">
          <circle
             cx="10.275"
             cy="7.1023002"
             r="0.42386001"
             id="circle898" />
          <circle
             cx="10.275"
             cy="8.6428003"
             r="0.42386001"
             id="circle900" />
          <circle
             transform="rotate(-90)"
             cx="-7.8724999"
             cy="9.5047998"
             r="0.42386001"
             id="circle902" />
          <circle
             transform="rotate(-90)"
             cx="-7.8724999"
             cy="11.045"
             r="0.42386001"
             id="circle904" />
        </g>
      </g>
    </g>
  </g>
</svg>
