<?xml version="1.0" encoding="UTF-8" standalone="no"?>
<svg
   xmlns:dc="http://purl.org/dc/elements/1.1/"
   xmlns:cc="http://creativecommons.org/ns#"
   xmlns:rdf="http://www.w3.org/1999/02/22-rdf-syntax-ns#"
   xmlns:svg="http://www.w3.org/2000/svg"
   xmlns="http://www.w3.org/2000/svg"
   xmlns:xlink="http://www.w3.org/1999/xlink"
   xmlns:sodipodi="http://sodipodi.sourceforge.net/DTD/sodipodi-0.dtd"
   xmlns:inkscape="http://www.inkscape.org/namespaces/inkscape"
   enable-background="new 0 0 64 64"
   height="64"
   viewBox="0 0 64 64"
   width="64"
   version="1.1"
   id="svg32"
   sodipodi:docname="minesweeper.svg"
   inkscape:version="1.0.2 (e86c870879, 2021-01-15)">
  <metadata
     id="metadata38">
    <rdf:RDF>
      <cc:Work
         rdf:about="">
        <dc:format>image/svg+xml</dc:format>
        <dc:type
           rdf:resource="http://purl.org/dc/dcmitype/StillImage" />
        <dc:title></dc:title>
      </cc:Work>
    </rdf:RDF>
  </metadata>
  <defs
     id="defs36">
    <filter
       id="filter2761"
       x="-0.024"
       y="-0.024"
       width="1.048"
       height="1.048"
       color-interpolation-filters="sRGB">
      <feGaussianBlur
         stdDeviation="0.14552168"
         id="feGaussianBlur2" />
    </filter>
    <filter
       id="filter2761-367"
       x="-0.024"
       y="-0.024"
       width="1.048"
       height="1.048"
       color-interpolation-filters="sRGB">
      <feGaussianBlur
         stdDeviation="0.14552168"
         id="feGaussianBlur2-5" />
    </filter>
    <linearGradient
       id="linearGradient1024"
       x1="1.3315001"
       x2="15.65"
       y1="15.576"
       y2="1.17"
       gradientUnits="userSpaceOnUse">
      <stop
         stop-color="#dddfe1"
         offset="0"
         id="stop5" />
      <stop
         stop-color="#f3f4f6"
         stop-opacity=".99608"
         offset="1"
         id="stop7-36" />
    </linearGradient>
    <filter
       id="filter2761-5"
       x="-0.024"
       y="-0.024"
       width="1.048"
       height="1.048"
       color-interpolation-filters="sRGB">
      <feGaussianBlur
         stdDeviation="0.14552168"
         id="feGaussianBlur2-35" />
    </filter>
    <filter
       id="filter2761-3"
       x="-0.024"
       y="-0.024"
       width="1.048"
       height="1.048"
       color-interpolation-filters="sRGB">
      <feGaussianBlur
         stdDeviation="0.14552168"
         id="feGaussianBlur4" />
    </filter>
    <linearGradient
       id="linearGradient1024-9"
       x1="1.3315001"
       x2="15.65"
       y1="15.576"
       y2="1.17"
       gradientTransform="translate(-8.4984e-4,0.14045)"
       gradientUnits="userSpaceOnUse">
      <stop
         stop-color="#dddfe1"
         offset="0"
         id="stop7-3" />
      <stop
         stop-color="#f3f4f6"
         stop-opacity=".99608"
         offset="1"
         id="stop9-7" />
    </linearGradient>
    <filter
       color-interpolation-filters="sRGB"
       height="1.048"
       width="1.048"
       y="-0.024"
       x="-0.024"
       id="filter2761-3-3">
      <feGaussianBlur
         id="feGaussianBlur2-6"
         stdDeviation="0.14552168" />
    </filter>
    <linearGradient
       gradientUnits="userSpaceOnUse"
       gradientTransform="matrix(3.7796,0,0,3.7796,-0.0026448,0.53066)"
       y2="1.17"
       y1="15.576"
       x2="15.65"
       x1="1.3315001"
       id="linearGradient1024-6-7">
      <stop
         id="stop5-5"
         offset="0"
         stop-color="#dddfe1" />
      <stop
         id="stop7-7"
         offset="1"
         stop-opacity=".99608"
         stop-color="#f3f4f6" />
    </linearGradient>
    <filter
       id="filter2761-36"
       x="-0.024"
       y="-0.024"
       width="1.048"
       height="1.048"
       color-interpolation-filters="sRGB">
      <feGaussianBlur
         stdDeviation="0.14552168"
         id="feGaussianBlur2-7" />
    </filter>
    <linearGradient
       id="a-9"
       x1="23.487"
       x2="23.487"
       y1="15.18"
       y2="32.912998"
       gradientTransform="matrix(0.12676,0,0,0.12676,-27.515,6.7925)"
       gradientUnits="userSpaceOnUse">
      <stop
         stop-color="#141414"
         offset="0"
         id="stop5-53" />
      <stop
         stop-color="#30277f"
         offset="1"
         id="stop7-56" />
    </linearGradient>
    <radialGradient
       id="c-7"
       cx="24.047001"
       cy="23.948999"
       r="2.9867001"
       gradientTransform="matrix(0.2056,-3.7539e-8,2.8431e-8,0.15571,-39.607,5.456)"
       gradientUnits="userSpaceOnUse">
      <stop
         stop-color="#2839e6"
         offset="0"
         id="stop10" />
      <stop
         stop-opacity="0"
         offset="1"
         id="stop12-5" />
    </radialGradient>
    <linearGradient
       id="d-6"
       x1="361.35999"
       x2="361.35999"
       y1="616.07001"
       y2="722.78998"
       gradientTransform="matrix(0.0040372,0,0,0.0040372,-25.925,7.1257)"
       gradientUnits="userSpaceOnUse">
      <stop
         stop-color="#fff"
         offset="0"
         id="stop15" />
      <stop
         stop-color="#fff"
         stop-opacity="0"
         offset="1"
         id="stop17-3" />
    </linearGradient>
    <radialGradient
       id="radialGradient123131"
       cx="-24.473"
       cy="9.8347998"
       r="1.1409"
       gradientTransform="matrix(1.4202,0,0,1.0512,0.054505,-1.1471)"
       gradientUnits="userSpaceOnUse"
       xlink:href="#a-9" />
    <linearGradient
       id="linearGradient123141"
       x1="-24.485001"
       x2="-24.485001"
       y1="8.6962004"
       y2="9.7505999"
       gradientTransform="translate(-10.196,-0.6431)"
       gradientUnits="userSpaceOnUse"
       xlink:href="#d-6" />
    <linearGradient
       id="linearGradient123149"
       x1="-24.478001"
       x2="-24.478001"
       y1="11.104"
       y2="8.4912004"
       gradientTransform="translate(-10.229,-0.6431)"
       gradientUnits="userSpaceOnUse">
      <stop
         stop-color="#2d1edc"
         offset="0"
         id="stop22" />
      <stop
         stop-color="#141414"
         offset="1"
         id="stop24" />
    </linearGradient>
    <radialGradient
       id="radialGradient123155"
       cx="-24.473"
       cy="9.8347998"
       r="1.1409"
       gradientTransform="matrix(1.1403,0,0,0.84405,-6.7958,0.89063)"
       gradientUnits="userSpaceOnUse"
       xlink:href="#a-9" />
    <linearGradient
       id="linearGradient123157"
       x1="-24.478001"
       x2="-24.478001"
       y1="11.104"
       y2="8.4912004"
       gradientTransform="matrix(0.8029,0,0,0.8029,-15.053,1.2953)"
       gradientUnits="userSpaceOnUse"
       xlink:href="#a-9" />
    <radialGradient
       id="radialGradient123159"
       cx="-24.473"
       cy="9.8347998"
       r="1.5211"
       gradientTransform="matrix(0.93082,0,0,0.93082,-11.889,0.037279)"
       gradientUnits="userSpaceOnUse">
      <stop
         stop-color="#291dc0"
         offset="0"
         id="stop29" />
      <stop
         stop-color="#1b1b23"
         offset="1"
         id="stop31" />
    </radialGradient>
    <linearGradient
       id="linearGradient123161"
       x1="361.35999"
       x2="361.35999"
       y1="616.07001"
       y2="722.78998"
       gradientTransform="matrix(0.0040372,0,0,0.0040372,-36.122,6.4826)"
       gradientUnits="userSpaceOnUse"
       xlink:href="#d-6" />
    <linearGradient
       id="linearGradient123197"
       x1="-36.117001"
       x2="-33.220001"
       y1="10.638"
       y2="7.7403998"
       gradientUnits="userSpaceOnUse">
      <stop
         offset="0"
         id="stop35" />
      <stop
         stop-opacity="0"
         offset="1"
         id="stop37" />
    </linearGradient>
    <linearGradient
       id="linearGradient952"
       x1="-20.384001"
       x2="-23.271999"
       y1="6.1331"
       y2="15.312"
       gradientUnits="userSpaceOnUse">
      <stop
         stop-color="#232323"
         offset="0"
         id="stop40" />
      <stop
         stop-color="#323296"
         offset=".95004"
         id="stop42" />
      <stop
         stop-color="#232323"
         offset="1"
         id="stop44" />
    </linearGradient>
    <linearGradient
       id="linearGradient1000"
       x1="-25.122"
       x2="-15.582"
       y1="9.3423996"
       y2="9.3423996"
       gradientUnits="userSpaceOnUse">
      <stop
         stop-color="#407fff"
         offset="0"
         id="stop47" />
      <stop
         stop-color="#ff407a"
         offset="1"
         id="stop49" />
    </linearGradient>
    <filter
       color-interpolation-filters="sRGB"
       height="1.048"
       width="1.048"
       y="-0.024"
       x="-0.024"
       id="filter2761-3-9">
      <feGaussianBlur
         id="feGaussianBlur2-3"
         stdDeviation="0.14552168" />
    </filter>
    <linearGradient
       inkscape:collect="always"
       xlink:href="#a"
       id="linearGradient1001"
       gradientUnits="userSpaceOnUse"
       x1="23.932795"
       y1="46.115501"
       x2="8.7911654"
       y2="7.6056881"
       gradientTransform="translate(98.929656)" />
    <linearGradient
       inkscape:collect="always"
       xlink:href="#a"
       id="linearGradient1003"
       gradientUnits="userSpaceOnUse"
       x1="23.932795"
       y1="46.115501"
       x2="8.7911654"
       y2="7.6056881"
       gradientTransform="translate(98.929656)" />
    <filter
       id="filter11290"
       x="-.024"
       y="-.024"
       width="1.048"
       height="1.048"
       color-interpolation-filters="sRGB">
      <feGaussianBlur
         stdDeviation="0.15875313"
         id="feGaussianBlur912" />
    </filter>
    <linearGradient
       id="linearGradient1005"
       x1=".73911"
       x2="16.388"
       y1="16.296"
       y2=".64687"
       gradientTransform="matrix(3.7796,0,0,3.7796,-0.13209,0.02482778)"
       gradientUnits="userSpaceOnUse">
      <stop
         stop-color="#dddfe1"
         offset="0"
         id="stop915" />
      <stop
         stop-color="#f3f4f6"
         offset="1"
         id="stop917" />
    </linearGradient>
  </defs>
  <sodipodi:namedview
     pagecolor="#ffffff"
     bordercolor="#666666"
     borderopacity="1"
     objecttolerance="10"
     gridtolerance="10"
     guidetolerance="10"
     inkscape:pageopacity="0"
     inkscape:pageshadow="2"
     inkscape:window-width="1920"
     inkscape:window-height="936"
     id="namedview34"
     showgrid="false"
     inkscape:zoom="5.7084141"
     inkscape:cx="10.990314"
     inkscape:cy="34.762636"
     inkscape:window-x="0"
     inkscape:window-y="38"
     inkscape:window-maximized="1"
     inkscape:current-layer="svg32"
     inkscape:document-rotation="0" />
  <linearGradient
     id="a"
     gradientUnits="userSpaceOnUse"
     x1="23.932795"
     x2="8.7911654"
     y1="46.115501"
     y2="7.6056881">
    <stop
       offset="0"
       stop-color="#333"
       id="stop2" />
    <stop
       offset="1"
       stop-color="#4d4d4d"
       id="stop4" />
  </linearGradient>
  <radialGradient
     id="b"
     cx="47.015461"
     cy="40.96669"
     gradientTransform="matrix(-0.29611787,-0.08620885,-0.08620885,0.29611784,154.08103,17.680875)"
     gradientUnits="userSpaceOnUse"
     r="15.734341">
    <stop
       offset="0"
       stop-color="#ffce31"
       id="stop7" />
    <stop
       offset="1"
       stop-color="#ffd42a"
       id="stop9" />
  </radialGradient>
  <radialGradient
     id="c"
     cx="47.015461"
     cy="40.96669"
     gradientTransform="matrix(-0.43611346,-0.12696581,-0.1269658,0.43611346,162.30631,13.869189)"
     gradientUnits="userSpaceOnUse"
     r="15.734342">
    <stop
       offset="0"
       stop-color="#ed4c5c"
       id="stop12" />
    <stop
       offset="1"
       stop-color="#f55"
       id="stop14" />
  </radialGradient>
  <linearGradient
     id="d"
     gradientTransform="matrix(0.67524112,0.66559465,0.71395451,-0.62950353,91.94246,14.25434)"
     gradientUnits="userSpaceOnUse"
     x1="29.597948"
     x2="24.622061"
     y1="26.466421"
     y2="4.5896759">
    <stop
       offset="0"
       stop-color="#241f1c"
       id="stop17" />
    <stop
       offset="1"
       stop-color="#4d4d4d"
       id="stop19" />
  </linearGradient>
  <circle
     transform="matrix(3.7796,0,0,3.7796,-0.10278795,0.02458453)"
     cx="8.4937"
     cy="8.46"
     r="7.9376998"
     filter="url(#filter11290)"
     opacity="0.25"
     stroke-width="0.14032"
     id="circle922" />
  <path
     d="m 62.0004,32.00045 c 0,3.5964 -0.63305,7.0448 -1.794,10.24 -0.80698,2.2212 -1.8686,4.3212 -3.1519,6.2636 -0.53754,0.8167 -1.1155,1.6054 -1.729,2.3633 -1.9641,2.4257 -4.2982,4.5382 -6.9186,6.2526 -0.96493,0.63187 -1.9678,1.2098 -3.0061,1.7277 -4.0321,2.0179 -8.5839,3.153 -13.401,3.153 -4.8171,0 -9.3689,-1.1351 -13.401,-3.1531 -1.0384,-0.518 -2.0425,-1.096 -3.0074,-1.7277 -2.6535,-1.7376 -5.0155,-3.8832 -6.9957,-6.349 -0.61468,-0.76408 -1.1915,-1.56 -1.729,-2.3841 -1.249,-1.9102 -2.2837,-3.9712 -3.0747,-6.1494 -1.1608,-3.1949 -1.7927,-6.6419 -1.7927,-10.237 0,-16.569 13.432,-30.0010003 30.001,-30.0010003 8.317,0 15.843,3.3846 21.277,8.8507003 1.5661,1.5747 2.9584,3.3234 4.1436,5.214 1.1205,1.7805 2.0572,3.6882 2.7857,5.6951 1.161,3.196 1.7941,6.6442 1.7941,10.24 z"
     fill="url(#linearGradient1005)"
     stroke-width="0.11719"
     id="path924"
     style="fill:url(#linearGradient1005)" />
  <g
     id="g1021"
     transform="matrix(0.81818182,0,0,0.81818182,-66.989798,12.363636)">
    <circle
       cx="121.79173"
       cy="26.346434"
       fill="url(#a)"
       r="19.653566"
       id="circle22"
       style="fill:url(#linearGradient1001)" />
    <path
       d="m 109.54631,2.070778 c 6.7989,-1.1200908 19.34529,11.24707 27.65423,23.419338 l -1.70763,0.876654 C 127.62915,15.059954 115.75165,3.4305105 110.13534,4.294128 c -3.08276,0.5166781 -4.07647,4.8039772 -3.86722,8.707845 l -1.79696,0.0088 C 104.1384,5.6900316 106.75192,2.7836553 109.54631,2.070778 Z"
       fill="url(#d)"
       id="path24"
       style="fill:url(#d)" />
    <path
       d="m 102.63167,12.015631 5.36006,-5.2707286 3.39471,3.3053726 c -5.4494,5.270729 0,0 -5.4494,5.270729 z"
       fill="url(#a)"
       id="path26"
       style="fill:url(#linearGradient1003)" />
    <path
       d="m 130.61108,29.679457 c 0.004,0.0068 3.88872,-1.149841 3.89523,-1.145034 0.007,0.0048 0.0993,4.094235 0.1071,4.096481 0.008,0.0022 2.26921,-3.406407 2.27729,-3.406993 0.008,-5.78e-4 2.67533,3.050522 2.68275,3.047175 0.007,-0.0033 -0.41208,-4.069077 -0.40623,-4.074782 0.006,-0.0057 3.99951,0.579435 4.00311,0.572061 0.004,-0.0074 -2.90056,-2.82778 -2.89966,-2.835935 9e-4,-0.0081 3.45228,-2.162775 3.45037,-2.170726 -0.002,-0.0079 -4.03184,-0.263334 -4.03632,-0.270122 -0.004,-0.0068 1.28969,-3.893 1.28317,-3.897807 -0.007,-0.0048 -3.27657,2.424329 -3.28434,2.422084 -0.008,-0.0022 -1.47636,-3.801646 -1.48444,-3.801061 -0.008,5.78e-4 -0.98816,3.977622 -0.99557,3.98097 -0.007,0.0033 -3.55161,-1.93146 -3.55747,-1.925756 -0.006,0.0057 1.76262,3.669741 1.75902,3.677115 -0.004,0.0074 -3.96501,0.842479 -3.96591,0.850633 -9e-4,0.0082 3.68865,1.644747 3.69056,1.652698 0.002,0.0079 -2.52315,3.222211 -2.51866,3.228999 z"
       fill="url(#c)"
       id="path28"
       style="fill:url(#c);stroke-width:0.457638" />
    <path
       d="m 132.56019,28.415932 2.64484,-0.77747 0.0727,2.78148 1.54627,-2.313323 1.82156,2.06901 -0.27582,-2.766747 2.71808,0.388425 -1.96885,-1.925579 2.34278,-1.473908 -2.74063,-0.183411 0.87126,-2.646582 -2.23004,1.644577 -1.00793,-2.580892 -0.67599,2.703049 -2.41549,-1.307573 1.19437,2.496734 -2.69283,0.577573 2.50586,1.12217 z"
       fill="url(#b)"
       id="path30"
       style="fill:url(#b);stroke-width:0.310733" />
  </g>
  <g
     transform="matrix(3.7796,0,0,3.7796,-64.046846,0.02458453)"
     fill="#5e4aa6"
     stroke-width="0.26458"
     id="g934">
    <circle
       cx="-330.35001"
       cy="-328.38"
       r="0"
       id="circle926" />
    <circle
       cx="-312.10999"
       cy="-326.25"
       r="0"
       id="circle928" />
    <circle
       cx="-306.01999"
       cy="-333.07001"
       r="0"
       id="circle930" />
    <circle
       cx="-308.84"
       cy="-326.01001"
       r="0"
       id="circle932" />
  </g>
</svg>
