<?xml version="1.0" encoding="UTF-8" standalone="no"?>
<svg
   xmlns:dc="http://purl.org/dc/elements/1.1/"
   xmlns:cc="http://creativecommons.org/ns#"
   xmlns:rdf="http://www.w3.org/1999/02/22-rdf-syntax-ns#"
   xmlns:svg="http://www.w3.org/2000/svg"
   xmlns="http://www.w3.org/2000/svg"
   xmlns:xlink="http://www.w3.org/1999/xlink"
   xmlns:sodipodi="http://sodipodi.sourceforge.net/DTD/sodipodi-0.dtd"
   xmlns:inkscape="http://www.inkscape.org/namespaces/inkscape"
   inkscape:version="1.0 (4035a4fb49, 2020-05-01)"
   sodipodi:docname="mplayer.svg"
   viewBox="0 0 64 64"
   version="1.1"
   image-rendering="optimizeSpeed"
   enable-background="new 0 0 1024 1024"
   height="64"
   width="64"
   id="Calculator">
  <metadata
     id="metadata40">
    <rdf:RDF>
      <cc:Work
         rdf:about="">
        <dc:format>image/svg+xml</dc:format>
        <dc:type
           rdf:resource="http://purl.org/dc/dcmitype/StillImage" />
        <dc:title></dc:title>
      </cc:Work>
    </rdf:RDF>
  </metadata>
  <sodipodi:namedview
     inkscape:current-layer="Calculator"
     inkscape:window-maximized="1"
     inkscape:window-y="36"
     inkscape:window-x="0"
     inkscape:cy="51.612633"
     inkscape:cx="61.195449"
     inkscape:zoom="4.2150193"
     showgrid="false"
     id="namedview38"
     inkscape:window-height="932"
     inkscape:window-width="1920"
     inkscape:pageshadow="2"
     inkscape:pageopacity="0"
     guidetolerance="10"
     gridtolerance="10"
     objecttolerance="10"
     borderopacity="1"
     bordercolor="#666666"
     pagecolor="#ffffff" />
  <defs
     id="defs15">
    <linearGradient
       gradientUnits="userSpaceOnUse"
       gradientTransform="matrix(3.7795,0,0,3.7795,102.52744,0.031541)"
       y2="1.852"
       y1="15.081"
       x2="7.9373"
       x1="7.9373"
       id="linearGradient862-3">
      <stop
         id="stop2"
         offset="0"
         stop-color="#f1efeb" />
      <stop
         id="stop4"
         offset="1"
         stop-color="#fdfcfc" />
    </linearGradient>
    <linearGradient
       gradientUnits="userSpaceOnUse"
       gradientTransform="matrix(2.1429,0,0,2.1429,-723.8227,-1107.5)"
       y2="45.449"
       y1="18.796"
       x2="29.969"
       x1="29.969"
       id="linearGradient898">
      <stop
         id="stop7"
         offset="0"
         stop-color="#cf30ac" />
      <stop
         id="stop9"
         offset="1"
         stop-color="#ab31f8" />
    </linearGradient>
    <filter
       color-interpolation-filters="sRGB"
       height="1.216"
       width="1.216"
       y="-.108"
       x="-.108"
       id="filter1022">
      <feGaussianBlur
         id="feGaussianBlur12"
         stdDeviation="1.44" />
    </filter>
    <linearGradient
       id="linearGradient1057">
      <stop
         stop-color="#fff"
         offset="0"
         id="stop867" />
      <stop
         stop-color="#fff"
         stop-opacity="0"
         offset="1"
         id="stop869" />
    </linearGradient>
    <linearGradient
       id="linearGradient982"
       x1="34.999"
       x2="34.999"
       y1="27.545"
       y2="52.847"
       gradientTransform="matrix(1.5625,0,0,1.5625,0.40633,-5.1891)"
       gradientUnits="userSpaceOnUse">
      <stop
         stop-color="#32b4ff"
         offset="0"
         id="stop872" />
      <stop
         stop-color="#3287ff"
         offset="1"
         id="stop874" />
    </linearGradient>
    <style
       type="text/css"
       id="style877" />
    <style
       type="text/css"
       id="style879" />
    <linearGradient
       id="linearGradient1047"
       x1="21.314"
       x2="21.314"
       y1="18.052"
       y2="43.681"
       gradientTransform="matrix(1.5625,0,0,1.5625,-9.2253,1.3231)"
       gradientUnits="userSpaceOnUse">
      <stop
         stop-color="#14dc78"
         offset="0"
         id="stop881" />
      <stop
         stop-color="#14a03c"
         offset="1"
         id="stop883" />
    </linearGradient>
    <linearGradient
       id="linearGradient1049"
       x1="41.729"
       x2="41.729"
       y1="12.316"
       y2="37.368"
       gradientTransform="matrix(1.5625,0,0,1.5625,-8.1072,-10.908)"
       gradientUnits="userSpaceOnUse">
      <stop
         stop-color="#ff3c64"
         offset="0"
         id="stop886" />
      <stop
         stop-color="#ff4628"
         offset="1"
         id="stop888" />
    </linearGradient>
    <linearGradient
       id="linearGradient1059"
       x1="34.427"
       x2="34.427"
       y1="32.234"
       y2="39.768"
       gradientTransform="matrix(1,0,0,1.2271,0.20646,-10.975)"
       gradientUnits="userSpaceOnUse"
       xlink:href="#linearGradient1057" />
    <linearGradient
       id="linearGradient1063"
       x1="34.427"
       x2="34.427"
       y1="32.234"
       y2="39.768"
       gradientTransform="matrix(1,0,0,1.2271,-12.55,-19.793)"
       gradientUnits="userSpaceOnUse"
       xlink:href="#linearGradient1057" />
    <linearGradient
       id="linearGradient1067"
       x1="34.427"
       x2="34.427"
       y1="32.234"
       y2="39.768"
       gradientTransform="matrix(1,0,0,1.2271,5.7554,-25.761)"
       gradientUnits="userSpaceOnUse"
       xlink:href="#linearGradient1057" />
    <filter
       id="filter11290"
       x="-.024"
       y="-.024"
       width="1.048"
       height="1.048"
       color-interpolation-filters="sRGB">
      <feGaussianBlur
         stdDeviation="0.15875313"
         id="feGaussianBlur894" />
    </filter>
    <linearGradient
       id="linearGradient1005"
       x1=".73911"
       x2="16.388"
       y1="16.296"
       y2=".64687"
       gradientTransform="matrix(3.7796,0,0,3.7796,-0.13193795,0.02458353)"
       gradientUnits="userSpaceOnUse">
      <stop
         stop-color="#dddfe1"
         offset="0"
         id="stop897" />
      <stop
         stop-color="#f3f4f6"
         offset="1"
         id="stop899" />
    </linearGradient>
    <linearGradient
       y2="45.449"
       x2="29.969"
       y1="18.796"
       x1="29.969"
       gradientTransform="matrix(2.1429,0,0,2.1429,-723.8227,-1107.5)"
       gradientUnits="userSpaceOnUse"
       id="linearGradient1004"
       xlink:href="#linearGradient898"
       inkscape:collect="always" />
  </defs>
  <circle
     id="circle904"
     stroke-width="0.14032"
     opacity="0.25"
     filter="url(#filter11290)"
     r="7.9376998"
     cy="8.46"
     cx="8.4937"
     transform="matrix(3.7796,0,0,3.7796,-0.10278795,0.02458453)" />
  <path
     id="path906"
     stroke-width="0.11719"
     fill="url(#linearGradient1005)"
     d="m 62.000012,32.000017 c 0,3.5964 -0.63305,7.0448 -1.794,10.24 -0.80698,2.2212 -1.8686,4.3212 -3.1519,6.2636 -0.53754,0.8167 -1.1155,1.6054 -1.729,2.3633 -1.9641,2.4257 -4.2982,4.5382 -6.9186,6.2526 -0.96493,0.63187 -1.9678,1.2099 -3.0061,1.7277 -4.0321,2.0179 -8.5839,3.153 -13.401,3.153 -4.8171,0 -9.3689,-1.1351 -13.401,-3.1531 -1.0384,-0.51799 -2.0425,-1.096 -3.0074,-1.7277 -2.6535,-1.7376 -5.0155,-3.8832 -6.9957,-6.349 -0.61468,-0.76408 -1.1915,-1.56 -1.729,-2.3841 -1.249,-1.9102 -2.2837,-3.9712 -3.0747,-6.1494 -1.1608,-3.1949 -1.7927,-6.6419 -1.7927,-10.237 0,-16.569 13.432,-30.0010005 30.001,-30.0010005 8.317,0 15.843,3.3846 21.277,8.8507005 1.5661,1.5747 2.9584,3.3234 4.1436,5.214 1.1205,1.7805 2.0572,3.6882 2.7857,5.6951 1.161,3.196 1.7941,6.6442 1.7941,10.24 z"
     style="fill:url(#linearGradient1005)" />
  <circle
     id="circle908"
     fill="#5e4aa6"
     r="0"
     cy="-1241.6"
     cx="-1248.7" />
  <circle
     id="circle910"
     fill-rule="evenodd"
     fill="#5e4aa6"
     r="0"
     cy="23.855017"
     cx="-149.14998" />
  <g
     id="g934"
     stroke-width="0.26458"
     fill="#5e4aa6"
     transform="matrix(3.7796,0,0,3.7796,-102.91999,-38.719983)">
    <circle
       id="circle926"
       r="0"
       cy="-328.38"
       cx="-330.35001" />
    <circle
       id="circle928"
       r="0"
       cy="-326.25"
       cx="-312.10999" />
    <circle
       id="circle930"
       r="0"
       cy="-333.07001"
       cx="-306.01999" />
    <circle
       id="circle932"
       r="0"
       cy="-326.01001"
       cx="-308.84" />
  </g>
  <g
     transform="translate(-102.5273)"
     id="g1002">
    <path
       id="path996"
       stroke-width="0"
       opacity="0.15"
       filter="url(#filter1022)"
       d="m 134.5273,17.342 a 16,16 0 0 0 -16,16 16,16 0 0 0 16,16 16,16 0 0 0 16,-16 16,16 0 0 0 -16,-16 z m -4.2598,6.6602 c 0.34816,0.01806 0.67355,0.13305 0.97656,0.34375 l 11.213,7.7266 c 0.3532,0.2488 0.59792,0.57707 0.73437,0.98242 0.13645,0.4054 0.13645,0.81524 0,1.2246 -0.13642,0.40535 -0.38109,0.7337 -0.73828,0.97852 l -11.209,7.7266 c -0.40534,0.27692 -0.84641,0.38832 -1.332,0.32812 -0.48561,-0.0602 -0.88781,-0.27346 -1.2129,-0.63867 -0.32508,-0.36523 -0.49023,-0.79357 -0.49023,-1.2832 v -15.451 c 0,-0.48963 0.16515,-0.91994 0.49023,-1.2852 0.32512,-0.36522 0.72727,-0.57847 1.2129,-0.63867 0.12107,-0.01538 0.23942,-0.01969 0.35547,-0.01367 z" />
    <path
       style="fill:url(#linearGradient1004)"
       id="path998"
       stroke-width="0"
       fill="url(#linearGradient898)"
       d="m 134.5273,16 a 16,16 0 0 0 -16,16 16,16 0 0 0 16,16 16,16 0 0 0 16,-16 16,16 0 0 0 -16,-16 z m -4.2598,6.6602 c 0.34816,0.01806 0.67355,0.13305 0.97656,0.34375 l 11.213,7.7266 c 0.3532,0.2488 0.59792,0.57707 0.73437,0.98242 0.13645,0.4054 0.13645,0.81524 0,1.2246 -0.13642,0.40535 -0.38109,0.7337 -0.73828,0.97852 l -11.209,7.7266 c -0.40534,0.27692 -0.84641,0.38832 -1.332,0.32812 -0.48561,-0.0602 -0.88781,-0.27346 -1.2129,-0.63867 -0.32508,-0.36523 -0.49023,-0.79357 -0.49023,-1.2832 v -15.451 c 0,-0.48963 0.16515,-0.91994 0.49023,-1.2852 0.32512,-0.36522 0.72727,-0.57847 1.2129,-0.63867 0.12107,-0.01539 0.23942,-0.01969 0.35547,-0.01367 z" />
  </g>
</svg>
