<?xml version="1.0" encoding="UTF-8"?>
<svg width="64" height="64" version="1.1" viewBox="0 0 64 64" xmlns="http://www.w3.org/2000/svg" xmlns:cc="http://creativecommons.org/ns#" xmlns:dc="http://purl.org/dc/elements/1.1/" xmlns:rdf="http://www.w3.org/1999/02/22-rdf-syntax-ns#">
 <metadata>
  <rdf:RDF>
   <cc:Work rdf:about="">
    <dc:format>image/svg+xml</dc:format>
    <dc:type rdf:resource="http://purl.org/dc/dcmitype/StillImage"/>
    <dc:title/>
   </cc:Work>
  </rdf:RDF>
 </metadata>
 <defs>
  <linearGradient id="d" x1="32" x2="32" y1="2" y2="62" gradientUnits="userSpaceOnUse">
   <stop stop-opacity="0" offset="0"/>
   <stop offset="1"/>
  </linearGradient>
  <linearGradient id="f" x1="32" x2="32" y1="2" y2="62" gradientUnits="userSpaceOnUse">
   <stop stop-color="#e65555" offset="0"/>
   <stop stop-color="#df3a3a" offset=".22539"/>
   <stop stop-color="#e14b4b" offset=".22539"/>
   <stop stop-color="#ce2121" offset=".46111"/>
   <stop stop-color="#c31e1e" offset=".46111"/>
   <stop stop-color="#782323" offset=".75362"/>
   <stop stop-color="#9b3c3c" offset=".75362"/>
   <stop stop-color="#5f2d2d" offset="1"/>
  </linearGradient>
  <linearGradient id="b" x1="32" x2="32" y1="2" y2="62" gradientUnits="userSpaceOnUse">
   <stop stop-color="#e65555" offset="0"/>
   <stop stop-color="#dc4141" offset=".22539"/>
   <stop stop-color="#d22d2d" offset="1"/>
  </linearGradient>
  <linearGradient id="a" x1="45" x2="45" y1="27" y2="63" gradientUnits="userSpaceOnUse">
   <stop stop-color="#f06464" offset="0"/>
   <stop stop-color="#f02828" offset="1"/>
  </linearGradient>
  <filter id="filter895" x="-.024" y="-.024" width="1.048" height="1.048" color-interpolation-filters="sRGB">
   <feGaussianBlur stdDeviation="0.6"/>
  </filter>
 </defs>
 <g fill-rule="evenodd">
  <circle cx="32" cy="32" r="30" filter="url(#filter895)" opacity=".25" style="paint-order:stroke fill markers"/>
  <circle cx="32" cy="32" r="30" fill="url(#f)" style="paint-order:stroke fill markers"/>
  <path d="m32 2a30 30 0 0 0-8 1.0879v57.793a30 30 0 0 0 8 1.1191 30 30 0 0 0 30-30 30 30 0 0 0-30-30z" fill="url(#b)" style="paint-order:stroke fill markers"/>
  <circle cx="32" cy="32" r="30" fill="url(#d)" opacity=".15" style="paint-order:stroke fill markers"/>
  <circle cx="45" cy="45" r="18" fill="url(#a)" style="paint-order:stroke fill markers"/>
 </g>
 <path d="m36.62 50.955s3.5955-0.98876 3.6404-1.1685c0.04494-0.17977 0.13483-9.8876 0.13483-9.8876l7.0562-1.6629v14.427l-10.292-1.4382 10.427 3.7753 5.7938-1.8181-0.04104-16.429-5.8876-1.7528-10.697 4.0449z" fill="#fff"/>
</svg>
