<?xml version="1.0" encoding="UTF-8" standalone="no"?>
<svg
   xmlns:dc="http://purl.org/dc/elements/1.1/"
   xmlns:cc="http://creativecommons.org/ns#"
   xmlns:rdf="http://www.w3.org/1999/02/22-rdf-syntax-ns#"
   xmlns:svg="http://www.w3.org/2000/svg"
   xmlns="http://www.w3.org/2000/svg"
   xmlns:xlink="http://www.w3.org/1999/xlink"
   xmlns:sodipodi="http://sodipodi.sourceforge.net/DTD/sodipodi-0.dtd"
   xmlns:inkscape="http://www.inkscape.org/namespaces/inkscape"
   height="64"
   viewBox="0 0 64 64"
   width="64"
   version="1.1"
   id="svg45"
   sodipodi:docname="multimedia.svg"
   inkscape:version="1.0.1 (3bc2e813f5, 2020-09-07, custom)">
  <metadata
     id="metadata51">
    <rdf:RDF>
      <cc:Work
         rdf:about="">
        <dc:format>image/svg+xml</dc:format>
        <dc:type
           rdf:resource="http://purl.org/dc/dcmitype/StillImage" />
        <dc:title></dc:title>
      </cc:Work>
    </rdf:RDF>
  </metadata>
  <defs
     id="defs49">
    <style
       type="text/css"
       id="style2" />
    <filter
       id="filter2761-3"
       x="-.024"
       y="-.024"
       width="1.048"
       height="1.048"
       color-interpolation-filters="sRGB">
      <feGaussianBlur
         stdDeviation="0.14552168"
         id="feGaussianBlur4" />
    </filter>
    <linearGradient
       id="linearGradient4673"
       x1="1.2573"
       x2="15.644"
       y1="15.429"
       y2="1.1082"
       gradientTransform="translate(-7e-4 .21485)"
       gradientUnits="userSpaceOnUse">
      <stop
         stop-color="#32dcff"
         offset="0"
         id="stop7-3" />
      <stop
         stop-color="#3296ff"
         offset="1"
         id="stop9-6" />
    </linearGradient>
    <style
       type="text/css"
       id="style863" />
    <filter
       id="filter1057"
       x="-.027"
       y="-.027"
       width="1.054"
       height="1.054"
       color-interpolation-filters="sRGB">
      <feGaussianBlur
         stdDeviation="0.61875"
         id="feGaussianBlur865" />
    </filter>
    <linearGradient
       id="linearGradient1053"
       x1="-127"
       x2="-72"
       y1="60"
       y2="5"
       gradientTransform="translate(131.9693,-6.7800742)"
       gradientUnits="userSpaceOnUse">
      <stop
         stop-color="#32d7ff"
         offset="0"
         id="stop868" />
      <stop
         stop-color="#329bff"
         offset="1"
         id="stop870" />
    </linearGradient>
    <style
       type="text/css"
       id="style873" />
    <style
       type="text/css"
       id="style875" />
    <style
       type="text/css"
       id="style877" />
    <style
       type="text/css"
       id="style879" />
    <style
       type="text/css"
       id="style881" />
    <style
       type="text/css"
       id="style883" />
    <style
       type="text/css"
       id="style885" />
    <filter
       id="filter11290"
       x="-.024"
       y="-.024"
       width="1.048"
       height="1.048"
       color-interpolation-filters="sRGB">
      <feGaussianBlur
         stdDeviation="0.15875313"
         id="feGaussianBlur877" />
    </filter>
    <linearGradient
       id="linearGradient1005"
       x1=".73911"
       x2="16.388"
       y1="16.296"
       y2=".64687"
       gradientTransform="matrix(3.779602,0,0,3.779602,-0.1319476,0.02456655)"
       gradientUnits="userSpaceOnUse">
      <stop
         stop-color="#00c8ff"
         offset="0"
         id="stop880" />
      <stop
         stop-color="#14a0ff"
         offset="1"
         id="stop882" />
    </linearGradient>
    <linearGradient
       id="linearGradient874"
       x1="4.2341"
       x2="12.701"
       y1="8.326"
       y2="8.326"
       gradientTransform="matrix(3.779602,0,0,3.779602,-56.495351,0.53088309)"
       gradientUnits="userSpaceOnUse">
      <stop
         stop-color="#f9f9f9"
         offset="0"
         id="stop885" />
      <stop
         stop-color="#ccf2f6"
         offset="1"
         id="stop887" />
    </linearGradient>
  </defs>
  <sodipodi:namedview
     pagecolor="#ffffff"
     bordercolor="#666666"
     borderopacity="1"
     objecttolerance="10"
     gridtolerance="10"
     guidetolerance="10"
     inkscape:pageopacity="0"
     inkscape:pageshadow="2"
     inkscape:window-width="1920"
     inkscape:window-height="992"
     id="namedview47"
     showgrid="false"
     inkscape:zoom="4.328125"
     inkscape:cx="17.369913"
     inkscape:cy="38.94295"
     inkscape:window-x="0"
     inkscape:window-y="0"
     inkscape:window-maximized="1"
     inkscape:current-layer="svg45"
     inkscape:document-rotation="0" />
  <linearGradient
     id="a">
    <stop
       offset="0"
       stop-color="#1584d8"
       id="stop2" />
    <stop
       offset="1"
       stop-color="#1cb2ff"
       id="stop4" />
  </linearGradient>
  <linearGradient
     id="b"
     gradientUnits="userSpaceOnUse"
     x1="347.75446"
     x2="347.96899"
     y1="540.87024"
     y2="501.64725"
     gradientTransform="matrix(1.2019191,0,0,1.2019191,-291.88863,-648.44174)">
    <stop
       offset="0"
       stop-color="#2e3e46"
       id="stop7" />
    <stop
       offset="1"
       stop-color="#435a64"
       id="stop9" />
  </linearGradient>
  <linearGradient
     id="c"
     gradientUnits="userSpaceOnUse"
     x1="342.95013"
     x2="343.58224"
     xlink:href="#a"
     y1="538.62598"
     y2="506.25388" />
  <linearGradient
     id="d"
     gradientUnits="userSpaceOnUse"
     x1="348.90558"
     x2="348.62125"
     xlink:href="#a"
     y1="506.90762"
     y2="503.0499"
     gradientTransform="matrix(1.2019191,0,0,1.2019191,-291.88863,-593.52362)" />
  <linearGradient
     id="e"
     gradientUnits="userSpaceOnUse"
     x1="348.9053"
     x2="348.62097"
     xlink:href="#a"
     y1="537.41217"
     y2="533.5545"
     gradientTransform="matrix(1.2019191,0,0,1.2019191,-291.88863,-593.52362)" />
  <linearGradient
     id="f"
     gradientUnits="userSpaceOnUse"
     x1="363.98691"
     x2="363.70258"
     xlink:href="#a"
     y1="522.38715"
     y2="518.52942"
     gradientTransform="matrix(1.2019191,0,0,1.2019191,-291.88863,-593.52362)" />
  <linearGradient
     id="g"
     gradientUnits="userSpaceOnUse"
     x1="333.48053"
     x2="333.1962"
     xlink:href="#a"
     y1="522.38708"
     y2="518.52942"
     gradientTransform="matrix(1.2019191,0,0,1.2019191,-291.88863,-593.52362)" />
  <linearGradient
     id="h"
     gradientUnits="userSpaceOnUse"
     x1="359.29352"
     x2="359.00919"
     xlink:href="#a"
     y1="533.05347"
     y2="529.19574"
     gradientTransform="matrix(1.2019191,0,0,1.2019191,-291.88863,-593.52362)" />
  <linearGradient
     id="i"
     gradientUnits="userSpaceOnUse"
     x1="338.02325"
     x2="337.73892"
     xlink:href="#a"
     y1="533.07562"
     y2="529.2179"
     gradientTransform="matrix(1.2019191,0,0,1.2019191,-291.88863,-593.52362)" />
  <linearGradient
     id="j"
     gradientUnits="userSpaceOnUse"
     x1="338.05618"
     x2="337.77185"
     xlink:href="#a"
     y1="511.33853"
     y2="507.4808"
     gradientTransform="matrix(1.2019191,0,0,1.2019191,-291.88863,-593.52362)" />
  <linearGradient
     id="k"
     gradientUnits="userSpaceOnUse"
     x1="353.10199"
     x2="352.75418"
     xlink:href="#a"
     y1="543.11346"
     y2="500.26346"
     gradientTransform="matrix(1.2019191,0,0,1.2019191,-291.88863,-648.44174)" />
  <circle
     cx="8.4937"
     cy="8.46"
     r="7.9376998"
     filter="url(#filter11290)"
     opacity="0.25"
     stroke-width="0.14032"
     id="circle894"
     transform="matrix(3.779602,0,0,3.779602,-0.10280494,0.02456761)" />
  <path
     d="m 62.000383,31.999811 c 0,3.596442 -0.633046,7.0448 -1.79395,10.240453 -0.806983,2.221197 -1.868598,4.321219 -3.151924,6.263557 -0.537535,0.816696 -1.115512,1.605386 -1.729017,2.363347 -1.964108,2.425711 -4.298163,4.538168 -6.918561,6.252596 -0.964932,0.631873 -1.96785,1.20985 -3.006145,1.727731 -4.032079,2.017892 -8.583854,3.152982 -13.400957,3.152982 -4.817102,0 -9.368877,-1.13509 -13.400956,-3.153095 -1.038408,-0.517995 -2.042497,-1.095971 -3.00743,-1.727732 -2.653545,-1.737596 -5.015532,-3.883163 -6.9956646,-6.348975 -0.614677,-0.764085 -1.191482,-1.560031 -1.729017,-2.384098 -1.249007,-1.91021 -2.283673,-3.971227 -3.074706,-6.149412 -1.160754,-3.19486 -1.792665,-6.641895 -1.792665,-10.237052 0,-16.569019 13.4315706,-30.0005905 30.0005906,-30.0005905 8.317014,0 15.842958,3.384558 21.277269,8.8506935 1.566116,1.574658 2.958446,3.323366 4.143578,5.213961 1.120463,1.780457 2.057162,3.688211 2.785718,5.695104 1.161018,3.195994 1.794064,6.644163 1.794064,10.240454 z"
     fill="url(#linearGradient1005)"
     stroke-width="0.11719"
     id="path896"
     style="fill:url(#linearGradient1005)" />
  <circle
     cx="-1237.0637"
     cy="-1322.1426"
     r="0"
     fill="#5e4aa6"
     stroke-width="1.00001"
     id="circle22" />
  <g
     transform="matrix(3.779602,0,0,3.779602,11.558779,-81.030887)"
     fill="#5e4aa6"
     stroke-width="0.26458"
     id="g32">
    <circle
       cx="-299.01999"
       cy="-338.76999"
       r="0"
       id="circle24" />
    <circle
       cx="-8.1062002"
       cy="-3.9487"
       r="0"
       fill-rule="evenodd"
       id="circle26" />
    <circle
       cx="-278.25"
       cy="-357.69"
       r="0"
       id="circle28" />
    <circle
       cx="12.663"
       cy="-22.858999"
       r="0"
       fill-rule="evenodd"
       id="circle30" />
  </g>
  <circle
     cx="-1191.649"
     cy="-1279.3"
     r="0"
     fill="#5e4aa6"
     id="circle889"
     style="stroke-width:1" />
  <circle
     cx="-1073.1956"
     cy="-1318.5997"
     r="0"
     id="circle891"
     style="fill:#5e4aa6;stroke-width:1.00001" />
  <circle
     cx="26.342754"
     cy="-53.108513"
     r="0"
     fill-rule="evenodd"
     id="circle893"
     style="fill:#5e4aa6;stroke-width:1.00001" />
  <circle
     cx="-994.69324"
     cy="-1390.1099"
     r="0"
     id="circle895"
     style="fill:#5e4aa6;stroke-width:1.00001" />
  <circle
     cx="104.84206"
     cy="-124.58192"
     r="0"
     fill-rule="evenodd"
     id="circle897"
     style="fill:#5e4aa6;stroke-width:1.00001" />
  <path
     id="rect1079"
     style="fill:#ffffff;fill-opacity:1;stroke-width:0.5;stroke-linecap:round;paint-order:stroke fill markers"
     d="M 32.207031 12.123047 A 1.6065186 1.6065186 0 0 0 30.599609 13.728516 A 1.6065186 1.6065186 0 0 0 32.207031 15.335938 A 1.6065186 1.6065186 0 0 0 33.8125 13.728516 A 1.6065186 1.6065186 0 0 0 32.207031 12.123047 z M 19.166016 17.447266 A 1.6065186 1.6065186 0 0 0 17.560547 19.054688 A 1.6065186 1.6065186 0 0 0 19.166016 20.662109 A 1.6065186 1.6065186 0 0 0 20.773438 19.054688 A 1.6065186 1.6065186 0 0 0 19.166016 17.447266 z M 44.353516 17.625 C 42.242635 17.600675 38.743428 19.686678 35.898438 19.310547 A 13.446527 13.446527 0 0 0 34.890625 19.0625 C 34.86638 19.052929 34.840498 19.049144 34.816406 19.039062 L 34.828125 19.050781 A 13.446527 13.446527 0 0 0 32.164062 18.78125 A 13.446527 13.446527 0 0 0 18.71875 32.228516 A 13.446527 13.446527 0 0 0 32.164062 45.675781 A 13.446527 13.446527 0 0 0 45.611328 32.228516 A 13.446527 13.446527 0 0 0 44.970703 28.125 L 45.027344 28.175781 C 43.957872 23.903501 47.543753 19.614549 45.685547 18.160156 C 45.360757 17.782537 44.904428 17.631349 44.353516 17.625 z M 13.595703 30.728516 A 1.6065186 1.6065186 0 0 0 12.060547 32.333984 A 1.6065186 1.6065186 0 0 0 13.666016 33.941406 A 1.6065186 1.6065186 0 0 0 15.273438 32.333984 A 1.6065186 1.6065186 0 0 0 13.666016 30.728516 A 1.6065186 1.6065186 0 0 0 13.595703 30.728516 z M 50.261719 30.728516 A 1.6065186 1.6065186 0 0 0 48.726562 32.333984 A 1.6065186 1.6065186 0 0 0 50.333984 33.941406 A 1.6065186 1.6065186 0 0 0 51.939453 32.333984 A 1.6065186 1.6065186 0 0 0 50.333984 30.728516 A 1.6065186 1.6065186 0 0 0 50.261719 30.728516 z M 44.691406 43.546875 A 1.6065186 1.6065186 0 0 0 43.085938 45.154297 A 1.6065186 1.6065186 0 0 0 44.691406 46.759766 A 1.6065186 1.6065186 0 0 0 46.298828 45.154297 A 1.6065186 1.6065186 0 0 0 44.691406 43.546875 z M 19.126953 43.574219 A 1.6065186 1.6065186 0 0 0 17.519531 45.181641 A 1.6065186 1.6065186 0 0 0 19.126953 46.787109 A 1.6065186 1.6065186 0 0 0 20.734375 45.181641 A 1.6065186 1.6065186 0 0 0 19.126953 43.574219 z M 32.207031 48.787109 A 1.6065186 1.6065186 0 0 0 30.599609 50.392578 A 1.6065186 1.6065186 0 0 0 32.207031 52 A 1.6065186 1.6065186 0 0 0 33.8125 50.392578 A 1.6065186 1.6065186 0 0 0 32.207031 48.787109 z " />
  <g
     fill="#5e4aa6"
     stroke-width="0.26458"
     id="g906"
     transform="matrix(3.779602,0,0,3.779602,-56.594773,0.02456761)">
    <circle
       cx="-330.35001"
       cy="-328.38"
       r="0"
       id="circle898" />
    <circle
       cx="-312.10999"
       cy="-326.25"
       r="0"
       id="circle900" />
    <circle
       cx="-306.01999"
       cy="-333.07001"
       r="0"
       id="circle902" />
    <circle
       cx="-308.84"
       cy="-326.01001"
       r="0"
       id="circle904" />
  </g>
</svg>
