<?xml version="1.0" encoding="UTF-8" standalone="no"?>
<svg
   xmlns:dc="http://purl.org/dc/elements/1.1/"
   xmlns:cc="http://creativecommons.org/ns#"
   xmlns:rdf="http://www.w3.org/1999/02/22-rdf-syntax-ns#"
   xmlns:svg="http://www.w3.org/2000/svg"
   xmlns="http://www.w3.org/2000/svg"
   xmlns:xlink="http://www.w3.org/1999/xlink"
   xmlns:sodipodi="http://sodipodi.sourceforge.net/DTD/sodipodi-0.dtd"
   xmlns:inkscape="http://www.inkscape.org/namespaces/inkscape"
   height="64"
   width="64"
   version="1.1"
   id="svg44"
   sodipodi:docname="multimedia-audio-player.svg"
   inkscape:version="1.0.1 (3bc2e813f5, 2020-09-07, custom)">
  <metadata
     id="metadata50">
    <rdf:RDF>
      <cc:Work
         rdf:about="">
        <dc:format>image/svg+xml</dc:format>
        <dc:type
           rdf:resource="http://purl.org/dc/dcmitype/StillImage" />
        <dc:title></dc:title>
      </cc:Work>
    </rdf:RDF>
  </metadata>
  <defs
     id="defs48">
    <filter
       id="filter2174"
       x="-.15989"
       y="-.094877"
       width="1.3198"
       height="1.1898"
       color-interpolation-filters="sRGB">
      <feGaussianBlur
         stdDeviation="0.25608494"
         id="feGaussianBlur4" />
    </filter>
    <filter
       id="filter2761-36"
       x="-.024"
       y="-.024"
       width="1.048"
       height="1.048"
       color-interpolation-filters="sRGB">
      <feGaussianBlur
         stdDeviation="0.14552168"
         id="feGaussianBlur7" />
    </filter>
    <linearGradient
       id="linearGradient4673-7"
       x1="1.2573"
       x2="15.644"
       y1="15.429"
       y2="1.1082"
       gradientTransform="matrix(3.7796,0,0,3.7796,-0.55672364,-5.8796323)"
       gradientUnits="userSpaceOnUse">
      <stop
         stop-color="#32dcff"
         offset="0"
         id="stop10" />
      <stop
         stop-color="#3296ff"
         offset="1"
         id="stop12" />
    </linearGradient>
    <style
       type="text/css"
       id="style858" />
    <filter
       id="filter1057"
       x="-.027"
       y="-.027"
       width="1.054"
       height="1.054"
       color-interpolation-filters="sRGB">
      <feGaussianBlur
         stdDeviation="0.61875"
         id="feGaussianBlur860" />
    </filter>
    <linearGradient
       id="linearGradient1053"
       x1="-127"
       x2="-72"
       y1="60"
       y2="5"
       gradientTransform="translate(131.5,-0.51)"
       gradientUnits="userSpaceOnUse">
      <stop
         stop-color="#32d7ff"
         offset="0"
         id="stop863" />
      <stop
         stop-color="#329bff"
         offset="1"
         id="stop865" />
    </linearGradient>
    <style
       type="text/css"
       id="style868" />
    <style
       type="text/css"
       id="style870" />
    <style
       type="text/css"
       id="style872" />
    <style
       type="text/css"
       id="style874" />
    <style
       type="text/css"
       id="style876" />
    <style
       type="text/css"
       id="style878" />
    <style
       type="text/css"
       id="style880" />
    <filter
       id="filter11290"
       x="-.024"
       y="-.024"
       width="1.048"
       height="1.048"
       color-interpolation-filters="sRGB">
      <feGaussianBlur
         stdDeviation="0.15875313"
         id="feGaussianBlur876" />
    </filter>
    <linearGradient
       id="linearGradient1005"
       x1=".73911"
       x2="16.388"
       y1="16.296"
       y2=".64687"
       gradientTransform="matrix(3.779602,0,0,3.779602,-0.1319475,0.02456655)"
       gradientUnits="userSpaceOnUse">
      <stop
         stop-color="#00c8ff"
         offset="0"
         id="stop879" />
      <stop
         stop-color="#14a0ff"
         offset="1"
         id="stop881" />
    </linearGradient>
    <linearGradient
       id="linearGradient874"
       x1="4.2341"
       x2="12.701"
       y1="8.326"
       y2="8.326"
       gradientTransform="matrix(3.779602,0,0,3.779602,-73.157672,0.53088309)"
       gradientUnits="userSpaceOnUse">
      <stop
         stop-color="#f9f9f9"
         offset="0"
         id="stop884" />
      <stop
         stop-color="#ccf2f6"
         offset="1"
         id="stop886" />
    </linearGradient>
  </defs>
  <sodipodi:namedview
     pagecolor="#ffffff"
     bordercolor="#666666"
     borderopacity="1"
     objecttolerance="10"
     gridtolerance="10"
     guidetolerance="10"
     inkscape:pageopacity="0"
     inkscape:pageshadow="2"
     inkscape:window-width="1920"
     inkscape:window-height="992"
     id="namedview46"
     showgrid="false"
     inkscape:zoom="4.328125"
     inkscape:cx="-15.543211"
     inkscape:cy="43.095046"
     inkscape:window-x="0"
     inkscape:window-y="0"
     inkscape:window-maximized="1"
     inkscape:current-layer="svg44"
     inkscape:document-rotation="0" />
  <linearGradient
     id="a">
    <stop
       offset="0"
       stop-color="#d3d3d3"
       id="stop2" />
    <stop
       offset="1"
       stop-color="#fcf9f9"
       id="stop4" />
  </linearGradient>
  <linearGradient
     id="b"
     gradientUnits="userSpaceOnUse"
     x1="424.01041"
     x2="424.01041"
     y1="476.30264"
     y2="547.68207">
    <stop
       offset="0"
       stop-color="#00cafe"
       id="stop7" />
    <stop
       offset="1"
       stop-color="#1460f3"
       id="stop9" />
  </linearGradient>
  <linearGradient
     id="c"
     gradientUnits="userSpaceOnUse"
     x1="408.3053"
     x2="408.3053"
     xlink:href="#a"
     y1="544.80835"
     y2="502.245" />
  <linearGradient
     gradientUnits="userSpaceOnUse"
     x1="2.819"
     x2="11.758417"
     y1="1044.2982"
     y2="1044.2982"
     id="linearGradient17">
    <stop
       offset="0"
       stop-color="#333538"
       id="stop13" />
    <stop
       offset="1"
       stop-color="#566069"
       id="stop15" />
  </linearGradient>
  <linearGradient
     id="d"
     gradientUnits="userSpaceOnUse"
     x1="406.80603"
     x2="408.35867"
     xlink:href="#a"
     y1="535.62695"
     y2="511.58536" />
  <linearGradient
     id="e"
     gradientUnits="userSpaceOnUse"
     x1="408.2847"
     x2="408.2847"
     xlink:href="#a"
     y1="546.44092"
     y2="500.5705" />
  <linearGradient
     id="f"
     gradientUnits="userSpaceOnUse"
     x1="356.74911"
     x2="356.74911"
     y1="566.73016"
     y2="522.771">
    <stop
       offset="0"
       stop-color="#8d3aff"
       id="stop21" />
    <stop
       offset="1"
       stop-color="#ff3680"
       id="stop23" />
  </linearGradient>
  <circle
     cx="8.4937"
     cy="8.46"
     r="7.9376998"
     filter="url(#filter11290)"
     opacity="0.25"
     stroke-width="0.14032"
     id="circle893"
     transform="matrix(3.779602,0,0,3.779602,-0.10280494,0.02456761)" />
  <path
     d="m 62.000382,31.999811 c 0,3.596442 -0.633045,7.0448 -1.79395,10.240453 -0.806983,2.221197 -1.868597,4.321219 -3.151923,6.263557 -0.537535,0.816696 -1.115512,1.605386 -1.729017,2.363347 -1.964108,2.425711 -4.298163,4.538168 -6.918562,6.252596 -0.964932,0.631873 -1.967849,1.20985 -3.006144,1.727731 -4.032079,2.017892 -8.583854,3.152982 -13.400957,3.152982 -4.817102,0 -9.368877,-1.13509 -13.400956,-3.153095 -1.038408,-0.517995 -2.042497,-1.095971 -3.00743,-1.727732 -2.653545,-1.737596 -5.015532,-3.883163 -6.9956645,-6.348975 -0.614677,-0.764085 -1.191482,-1.560031 -1.729017,-2.384098 -1.249007,-1.91021 -2.283673,-3.971227 -3.074706,-6.149412 -1.160754,-3.19486 -1.792665,-6.641895 -1.792665,-10.237052 0,-16.569019 13.4315705,-30.0005905 30.0005905,-30.0005905 8.317014,0 15.842957,3.384558 21.277269,8.8506935 1.566116,1.574658 2.958446,3.323366 4.143578,5.213961 1.120463,1.780457 2.057161,3.688211 2.785718,5.695104 1.161018,3.195994 1.794063,6.644163 1.794063,10.240454 z"
     fill="url(#linearGradient1005)"
     stroke-width="0.11719"
     id="path895"
     style="fill:url(#linearGradient1005)" />
  <g
     transform="matrix(3.7796,0,0,3.7796,-2.2133,2.8507)"
     id="g27">
    <circle
       cx="8.0832005"
       cy="9.5944996"
       r="2.0072999"
       fill="none"
       stroke="#ffffff"
       stroke-dashoffset="0.42096"
       stroke-width="1.4287"
       id="circle21" />
    <path
       transform="matrix(0.92513,0,0,0.92027,0.66666,0.21997)"
       d="m 9.3776,3.1823 v 6.4778 h 1.4265 V 5.5325 c 0,0 0.45602,0.22216 0.54956,0.24555 0.09354,0.023386 1.9176,0.72495 0.99389,2.7595 l 0.04099,0.023665 c 0,0 1.4708,-1.8189 0.50345,-3.208 -0.96736,-1.389 -1.7125,-1.1671 -3.5144,-2.171 z"
       fill="#1688ff"
       filter="url(#filter2174)"
       id="path23" />
    <path
       d="m 9.3776,3.1823 v 6.4778 h 1.4265 V 5.5325 c 0,0 0.45602,0.22216 0.54956,0.24555 0.09354,0.023386 1.9176,0.72495 0.99389,2.7595 l 0.04099,0.023665 c 0,0 1.4708,-1.8189 0.50345,-3.208 -0.96736,-1.389 -1.7125,-1.1671 -3.5144,-2.171 z"
       fill="#ffffff"
       id="path25" />
  </g>
  <circle
     cx="-1041.0197"
     cy="-1279.3"
     r="0"
     fill="#5e4aa6"
     id="circle884" />
  <circle
     cx="-922.56549"
     cy="-1318.599"
     r="0"
     id="circle886"
     style="fill:#5e4aa6;stroke-width:1.00001" />
  <circle
     cx="176.97224"
     cy="-53.108505"
     r="0"
     fill-rule="evenodd"
     id="circle888"
     style="fill:#5e4aa6;stroke-width:1.00001" />
  <circle
     cx="-844.06323"
     cy="-1390.1091"
     r="0"
     id="circle890"
     style="fill:#5e4aa6;stroke-width:1.00001" />
  <circle
     cx="255.47151"
     cy="-124.58187"
     r="0"
     fill-rule="evenodd"
     id="circle892"
     style="fill:#5e4aa6;stroke-width:1.00001" />
  <g
     fill="#5e4aa6"
     stroke-width="0.26458"
     id="g905"
     transform="matrix(3.779602,0,0,3.779602,-73.257094,0.02456761)">
    <circle
       cx="-330.35001"
       cy="-328.38"
       r="0"
       id="circle897" />
    <circle
       cx="-312.10999"
       cy="-326.25"
       r="0"
       id="circle899" />
    <circle
       cx="-306.01999"
       cy="-333.07001"
       r="0"
       id="circle901" />
    <circle
       cx="-308.84"
       cy="-326.01001"
       r="0"
       id="circle903" />
  </g>
</svg>
