<?xml version="1.0" encoding="UTF-8" standalone="no"?>
<svg
   xmlns:dc="http://purl.org/dc/elements/1.1/"
   xmlns:cc="http://creativecommons.org/ns#"
   xmlns:rdf="http://www.w3.org/1999/02/22-rdf-syntax-ns#"
   xmlns:svg="http://www.w3.org/2000/svg"
   xmlns="http://www.w3.org/2000/svg"
   xmlns:sodipodi="http://sodipodi.sourceforge.net/DTD/sodipodi-0.dtd"
   xmlns:inkscape="http://www.inkscape.org/namespaces/inkscape"
   height="64"
   width="64"
   version="1.1"
   id="svg28"
   sodipodi:docname="mumble.svg"
   inkscape:version="1.0.1 (3bc2e813f5, 2020-09-07, custom)">
  <metadata
     id="metadata34">
    <rdf:RDF>
      <cc:Work
         rdf:about="">
        <dc:format>image/svg+xml</dc:format>
        <dc:type
           rdf:resource="http://purl.org/dc/dcmitype/StillImage" />
        <dc:title></dc:title>
      </cc:Work>
    </rdf:RDF>
  </metadata>
  <defs
     id="defs32">
    <linearGradient
       id="linearGradient11422"
       x1="-6.1472001"
       x2="-6.1472001"
       y1="-137.82001"
       y2="-100.78"
       gradientTransform="matrix(2.0044,0,0,2.0044,121.65141,271.61)"
       gradientUnits="userSpaceOnUse">
      <stop
         stop-color="#32b4ff"
         offset="0"
         id="stop860" />
      <stop
         stop-color="#3287ff"
         offset="1"
         id="stop862" />
    </linearGradient>
    <style
       type="text/css"
       id="style865" />
    <style
       type="text/css"
       id="style852" />
    <filter
       id="filter1057"
       x="-.027"
       y="-.027"
       width="1.054"
       height="1.054"
       color-interpolation-filters="sRGB">
      <feGaussianBlur
         stdDeviation="0.61875"
         id="feGaussianBlur854" />
    </filter>
    <linearGradient
       id="linearGradient1053"
       x1="-127"
       x2="-72"
       y1="60"
       y2="5"
       gradientTransform="translate(132.15793,-13.857867)"
       gradientUnits="userSpaceOnUse">
      <stop
         stop-color="#32d7ff"
         offset="0"
         id="stop857" />
      <stop
         stop-color="#329bff"
         offset="1"
         id="stop859" />
    </linearGradient>
    <style
       type="text/css"
       id="style862" />
    <style
       type="text/css"
       id="style864" />
    <style
       type="text/css"
       id="style866" />
    <style
       type="text/css"
       id="style868" />
    <style
       type="text/css"
       id="style870" />
    <style
       type="text/css"
       id="style872" />
    <style
       type="text/css"
       id="style874" />
    <style
       type="text/css"
       id="style875" />
    <style
       type="text/css"
       id="style877" />
    <style
       type="text/css"
       id="style879" />
    <style
       type="text/css"
       id="style881" />
    <style
       type="text/css"
       id="style883" />
    <style
       type="text/css"
       id="style885" />
    <style
       type="text/css"
       id="style887" />
    <style
       type="text/css"
       id="style889" />
    <style
       type="text/css"
       id="style891" />
    <filter
       id="filter11290"
       x="-.024"
       y="-.024"
       width="1.048"
       height="1.048"
       color-interpolation-filters="sRGB">
      <feGaussianBlur
         stdDeviation="0.15875313"
         id="feGaussianBlur893" />
    </filter>
    <linearGradient
       id="linearGradient1005"
       x1=".8714"
       x2="16.246"
       y1="16.164"
       y2=".78937"
       gradientTransform="matrix(3.7796,0,0,3.7796,-0.13241,0.025278)"
       gradientUnits="userSpaceOnUse">
      <stop
         stop-color="#00c8ff"
         offset="0"
         id="stop896" />
      <stop
         stop-color="#14a0ff"
         offset="1"
         id="stop898" />
    </linearGradient>
  </defs>
  <sodipodi:namedview
     pagecolor="#ffffff"
     bordercolor="#666666"
     borderopacity="1"
     objecttolerance="10"
     gridtolerance="10"
     guidetolerance="10"
     inkscape:pageopacity="0"
     inkscape:pageshadow="2"
     inkscape:window-width="1920"
     inkscape:window-height="992"
     id="namedview30"
     showgrid="false"
     inkscape:zoom="3.0604465"
     inkscape:cx="13.404634"
     inkscape:cy="54.407717"
     inkscape:window-x="0"
     inkscape:window-y="0"
     inkscape:window-maximized="1"
     inkscape:current-layer="svg28"
     inkscape:document-rotation="0" />
  <linearGradient
     id="a"
     gradientUnits="userSpaceOnUse"
     x1="399.57144"
     x2="399.57144"
     y1="545.79797"
     y2="517.79797">
    <stop
       offset="0"
       stop-color="#3889e9"
       id="stop2" />
    <stop
       offset="1"
       stop-color="#5ea5fb"
       id="stop4" />
  </linearGradient>
  <linearGradient
     id="b"
     gradientUnits="userSpaceOnUse"
     x1="-318.57867"
     x2="-318.57867"
     y1="653.95679"
     y2="301.29816"
     gradientTransform="matrix(0.17296349,0,0,0.17296349,193.62459,-52.645695)">
    <stop
       offset="0"
       stop-color="#0a80fd"
       id="stop7" />
    <stop
       offset="1"
       stop-color="#56c5fa"
       id="stop9" />
  </linearGradient>
  <circle
     transform="matrix(3.7796,0,0,3.7796,-0.10278795,0.02458453)"
     cx="8.4937"
     cy="8.46"
     r="7.9376998"
     filter="url(#filter11290)"
     opacity="0.25"
     stroke-width="0.14032"
     id="circle903" />
  <path
     d="m 62.0004,32.00045 c 0,3.5964 -0.63305,7.0448 -1.794,10.24 -0.80698,2.2212 -1.8686,4.3212 -3.1519,6.2636 -0.53754,0.8167 -1.1155,1.6054 -1.729,2.3633 -1.9641,2.4257 -4.2982,4.5382 -6.9186,6.2526 -0.96493,0.63187 -1.9678,1.2098 -3.0061,1.7277 -4.0321,2.0179 -8.5839,3.153 -13.401,3.153 -4.8171,0 -9.3689,-1.1351 -13.401,-3.1531 -1.0384,-0.518 -2.0425,-1.096 -3.0074,-1.7277 -2.6535,-1.7376 -5.0155,-3.8832 -6.9957,-6.349 -0.61468,-0.76408 -1.1915,-1.56 -1.729,-2.3841 -1.249,-1.9102 -2.2837,-3.9712 -3.0747,-6.1494 -1.1608,-3.1949 -1.7927,-6.6419 -1.7927,-10.237 0,-16.569 13.432,-30.001 30.001,-30.001 8.317,0 15.843,3.3846 21.277,8.8507 1.5661,1.5747 2.9584,3.3234 4.1436,5.214 1.1205,1.7805 2.0572,3.6882 2.7857,5.6951 1.161,3.196 1.7941,6.6442 1.7941,10.24 z"
     fill="url(#linearGradient1005)"
     stroke-width="0.11719"
     id="path905"
     style="fill:url(#linearGradient1005)" />
  <circle
     cx="400.57138"
     cy="531.79791"
     fill="url(#a)"
     r="0"
     transform="matrix(1.6374665,0,0,1.6374665,-644.58019,-848.71933)"
     id="circle12" />
  <circle
     cx="-1124.8"
     cy="-1279.3"
     r="0"
     fill="#5e4aa6"
     id="circle869" />
  <g
     transform="matrix(3.7796,0,0,3.7796,123.83,-38.184)"
     fill="#5e4aa6"
     stroke-width="0.26458"
     id="g883">
    <circle
       cx="-299.01999"
       cy="-338.76999"
       r="0"
       id="circle875" />
    <circle
       cx="-8.1062002"
       cy="-3.9487"
       r="0"
       fill-rule="evenodd"
       id="circle877" />
    <circle
       cx="-278.25"
       cy="-357.69"
       r="0"
       id="circle879" />
    <circle
       cx="12.663"
       cy="-22.858999"
       r="0"
       fill-rule="evenodd"
       id="circle881" />
  </g>
  <circle
     cx="-1124.8"
     cy="-1279.3"
     r="0"
     fill="#5e4aa6"
     id="circle878" />
  <g
     transform="matrix(3.7796,0,0,3.7796,123.83,-38.184)"
     fill="#5e4aa6"
     stroke-width="0.26458"
     id="g888">
    <circle
       cx="-299.01999"
       cy="-338.76999"
       r="0"
       id="circle880" />
    <circle
       cx="-8.1062002"
       cy="-3.9487"
       r="0"
       fill-rule="evenodd"
       id="circle882" />
    <circle
       cx="-278.25"
       cy="-357.69"
       r="0"
       id="circle884" />
    <circle
       cx="12.663"
       cy="-22.858999"
       r="0"
       fill-rule="evenodd"
       id="circle886" />
  </g>
  <g
     transform="matrix(1.3072754,0,0,1.3072754,8.4690428,8.135448)"
     id="g978">
    <circle
       cx="18"
       cy="19"
       fill="#ffffff"
       fill-opacity="0.846774"
       r="2"
       id="circle968" />
    <g
       fill="none"
       stroke="#dff1ff"
       stroke-miterlimit="10"
       stroke-width="2"
       id="g976">
      <path
         d="M 15.5,24.5 C 13.4,23.6 12,21.5 12,19 c 0,-3.3 2.7,-6 6,-6 3.3,0 6,2.7 6,6 0,2.4 -1.4,4.4 -3.4,5.4"
         id="path970" />
      <path
         d="M 13.5,29 C 9.7,27.3 7,23.5 7,19 7,12.9 11.9,8 18,8 c 6.1,0 11,4.9 11,11 0,4.3 -2.5,8.1 -6.2,9.9"
         id="path972" />
      <path
         d="M 11.4,33.6 C 5.9,31.1 2,25.5 2,19 2,10.2 9.2,3 18,3 c 8.8,0 16,7.2 16,16 0,6.3 -3.7,11.8 -9,14.4"
         id="path974" />
    </g>
  </g>
  <circle
     cx="-1203.8025"
     cy="-1279.3"
     r="0"
     fill="#5e4aa6"
     id="circle907" />
  <g
     transform="matrix(3.7796,0,0,3.7796,44.827591,-38.184)"
     fill="#5e4aa6"
     stroke-width="0.26458"
     id="g917">
    <circle
       cx="-299.01999"
       cy="-338.76999"
       r="0"
       id="circle909" />
    <circle
       cx="-8.1062002"
       cy="-3.9487"
       r="0"
       fill-rule="evenodd"
       id="circle911" />
    <circle
       cx="-278.25"
       cy="-357.69"
       r="0"
       id="circle913" />
    <circle
       cx="12.663"
       cy="-22.858999"
       r="0"
       fill-rule="evenodd"
       id="circle915" />
  </g>
  <g
     fill="#5e4aa6"
     id="g951"
     transform="translate(-79.002409)">
    <circle
       cx="-1050.3"
       cy="-1279.3"
       r="0"
       id="circle929" />
    <g
       transform="matrix(3.7796,0,0,3.7796,198.32,-38.184)"
       stroke-width="0.26458"
       id="g939">
      <circle
         cx="-299.01999"
         cy="-338.76999"
         r="0"
         id="circle931" />
      <circle
         cx="-8.1062002"
         cy="-3.9487"
         r="0"
         fill-rule="evenodd"
         id="circle933" />
      <circle
         cx="-278.25"
         cy="-357.69"
         r="0"
         id="circle935" />
      <circle
         cx="12.663"
         cy="-22.858999"
         r="0"
         fill-rule="evenodd"
         id="circle937" />
    </g>
    <g
       transform="matrix(3.7796,0,0,3.7796,74.386,0.024585)"
       stroke-width="0.26458"
       id="g949">
      <circle
         cx="-330.35001"
         cy="-328.38"
         r="0"
         id="circle941" />
      <circle
         cx="-312.10999"
         cy="-326.25"
         r="0"
         id="circle943" />
      <circle
         cx="-306.01999"
         cy="-333.07001"
         r="0"
         id="circle945" />
      <circle
         cx="-308.84"
         cy="-326.01001"
         r="0"
         id="circle947" />
    </g>
  </g>
</svg>
