<?xml version="1.0" encoding="UTF-8"?>
<svg width="64" height="64" version="1" xmlns="http://www.w3.org/2000/svg">
 <defs>
  <filter id="filter2174" x="-.15989" y="-.094877" width="1.3198" height="1.1898" color-interpolation-filters="sRGB">
   <feGaussianBlur stdDeviation="0.25608494"/>
  </filter>
  <filter id="filter11290" x="-.024" y="-.024" width="1.048" height="1.048" color-interpolation-filters="sRGB">
   <feGaussianBlur stdDeviation="0.15875313"/>
  </filter>
  <linearGradient id="linearGradient1005" x1=".8714" x2="16.246" y1="16.164" y2=".78937" gradientTransform="matrix(3.7796 0 0 3.7796 -.13266 .024566)" gradientUnits="userSpaceOnUse">
   <stop stop-color="#ffc841" offset="0"/>
   <stop stop-color="#ffc841" offset="1"/>
  </linearGradient>
 </defs>
 <circle transform="matrix(3.7796 0 0 3.7796 -.10281 .024567)" cx="8.4937" cy="8.46" r="7.9377" filter="url(#filter11290)" opacity=".25" stroke-width=".14032"/>
 <path d="m62 32c0 3.5964-0.63305 7.0448-1.794 10.24-0.80699 2.2212-1.8686 4.3212-3.1519 6.2636-0.53753 0.8167-1.1155 1.6054-1.729 2.3633-1.9641 2.4257-4.2982 4.5382-6.9186 6.2526-0.96493 0.63187-1.9678 1.2099-3.0061 1.7277-4.0321 2.0179-8.5838 3.153-13.401 3.153-4.8171 0-9.3689-1.1351-13.401-3.1531-1.0384-0.518-2.0425-1.096-3.0074-1.7277-2.6535-1.7376-5.0155-3.8832-6.9957-6.349-0.61468-0.76408-1.1915-1.56-1.729-2.3841-1.249-1.9102-2.2837-3.9712-3.0747-6.1494-1.1608-3.1949-1.7927-6.6419-1.7927-10.237 0-16.569 13.432-30.001 30.001-30.001 8.317 0 15.843 3.3846 21.277 8.8507 1.5661 1.5747 2.9584 3.3234 4.1436 5.214 1.1205 1.7805 2.0572 3.6882 2.7857 5.6951 1.161 3.196 1.7941 6.6442 1.7941 10.24z" fill="url(#linearGradient1005)" stroke-width=".11719"/>
 <g transform="translate(-51.788 -26.784)">
  <circle cx="78.757" cy="66.891" r="7.5868" fill="none" stroke="#fff" stroke-dashoffset=".42096" stroke-width="5.3999"/>
  <path transform="matrix(3.4966 0 0 3.4783 50.726 31.459)" d="m9.3776 3.1823v6.4778h1.4265v-4.1276s0.45602 0.22216 0.54956 0.24555c0.09354 0.023386 1.9176 0.72495 0.99389 2.7595l0.04099 0.023665s1.4708-1.8189 0.50345-3.208c-0.96736-1.389-1.7125-1.1671-3.5144-2.171z" fill="#cc8d00" filter="url(#filter2174)"/>
  <path d="m83.65 42.656v24.483h5.3916v-15.601s1.7236 0.83968 2.0771 0.92808c0.35354 0.08839 7.2478 2.74 3.7565 10.43l0.15493 0.08944s5.559-6.8747 1.9028-12.125c-3.6562-5.2499-6.4726-4.4112-13.283-8.2055z" fill="#fff" stroke-width="3.7796"/>
 </g>
</svg>
