<?xml version="1.0" encoding="UTF-8"?>
<svg width="64" height="64" version="1.1" xmlns="http://www.w3.org/2000/svg" xmlns:cc="http://creativecommons.org/ns#" xmlns:dc="http://purl.org/dc/elements/1.1/" xmlns:rdf="http://www.w3.org/1999/02/22-rdf-syntax-ns#" xmlns:xlink="http://www.w3.org/1999/xlink">
 <metadata>
  <rdf:RDF>
   <cc:Work rdf:about="">
    <dc:format>image/svg+xml</dc:format>
    <dc:type rdf:resource="http://purl.org/dc/dcmitype/StillImage"/>
    <dc:title/>
   </cc:Work>
  </rdf:RDF>
 </metadata>
 <defs>
  <linearGradient id="linearGradient886" x1="74.341" x2="74.032" y1="15.186" y2="49.356" gradientUnits="userSpaceOnUse">
   <stop stop-color="#336df5" offset="0"/>
   <stop stop-color="#42afe6" offset="1"/>
  </linearGradient>
  <linearGradient id="linearGradient894" x1="76.747" x2="91.891" y1="32" y2="32" gradientUnits="userSpaceOnUse">
   <stop stop-color="#63c644" offset="0"/>
   <stop stop-color="#96ca6b" stop-opacity=".98204" offset="1"/>
  </linearGradient>
  <linearGradient id="linearGradient902" x1="95.889" x2="95.172" y1="17.085" y2="48.949" gradientUnits="userSpaceOnUse">
   <stop stop-color="#5da624" offset="0"/>
   <stop stop-color="#6ba63f" stop-opacity=".9521" offset="1"/>
  </linearGradient>
  <filter id="filter936" x="-.11782" y="-.099693" width="1.2356" height="1.1994" color-interpolation-filters="sRGB">
   <feGaussianBlur stdDeviation="1.4087092"/>
  </filter>
  <style type="text/css"/>
  <style type="text/css"/>
  <style type="text/css"/>
  <style type="text/css"/>
  <filter id="filter11290" x="-.024" y="-.024" width="1.048" height="1.048" color-interpolation-filters="sRGB">
   <feGaussianBlur stdDeviation="0.15875313"/>
  </filter>
  <linearGradient id="linearGradient1005" x1=".73911" x2="16.388" y1="16.296" y2=".64687" gradientTransform="matrix(3.7796 0 0 3.7796 -.13155 .025017)" gradientUnits="userSpaceOnUse">
   <stop stop-color="#dddfe1" offset="0"/>
   <stop stop-color="#f3f4f6" offset="1"/>
  </linearGradient>
 </defs>
 <circle transform="matrix(3.7796 0 0 3.7796 -.10279 .024585)" cx="8.4937" cy="8.46" r="7.9377" filter="url(#filter11290)" opacity=".25" stroke-width=".14032"/>
 <path d="m62 32c0 3.5964-0.63305 7.0448-1.794 10.24-0.80698 2.2212-1.8686 4.3212-3.1519 6.2636-0.53754 0.8167-1.1155 1.6054-1.729 2.3633-1.9641 2.4257-4.2982 4.5382-6.9186 6.2526-0.96493 0.63187-1.9678 1.2099-3.0061 1.7277-4.0321 2.0179-8.5839 3.153-13.401 3.153s-9.3689-1.1351-13.401-3.1531c-1.0384-0.51799-2.0425-1.096-3.0074-1.7277-2.6535-1.7376-5.0155-3.8832-6.9957-6.349-0.61468-0.76408-1.1915-1.56-1.729-2.3841-1.249-1.9102-2.2837-3.9712-3.0747-6.1494-1.1608-3.1949-1.7927-6.6419-1.7927-10.237 0-16.569 13.432-30.001 30.001-30.001 8.317 0 15.843 3.3846 21.277 8.8507 1.5661 1.5747 2.9584 3.3234 4.1436 5.214 1.1205 1.7805 2.0572 3.6882 2.7857 5.6951 1.161 3.196 1.7941 6.6442 1.7941 10.24z" fill="url(#linearGradient1005)" stroke-width=".11719"/>
 <g transform="translate(-52.35,1.0437)" filter="url(#filter936)" opacity=".15" stroke-width="1.3043">
  <path d="m98.698 21.565-7.8261-6.5217v33.913l7.8261-6.5217z"/>
  <path d="m70.002 21.565 7.8261-6.5217v33.913l-7.8261-6.5217z"/>
  <path d="m77.828 15.043c-1.5887 4.5443-1.2874 9.1957 0 13.912l13.043 20.001c0.83609-4.5639 1.7987-9.1265 0-13.69z"/>
  <path d="m90.872 35.266v13.69l5.8696-4.8913z"/>
  <path d="m77.828 15.043-5.88 4.8991 5.88 9.013z"/>
 </g>
 <g transform="translate(-52.35)" stroke-width="1.3043">
  <path d="m98.698 21.565-7.8261-6.5217v33.913l7.8261-6.5217z" fill="url(#linearGradient902)"/>
  <path d="m70.002 21.565 7.8261-6.5217v33.913l-7.8261-6.5217z" fill="url(#linearGradient886)"/>
  <path d="m77.828 15.043c-1.5887 4.5443-1.2874 9.1957 0 13.912l13.043 20.001c0.83609-4.5639 1.7987-9.1265 0-13.69z" fill="url(#linearGradient894)"/>
  <path d="m90.872 35.266v13.69l5.8696-4.8913z" fill="#569e41"/>
  <path d="m77.828 15.043-5.88 4.8991 5.88 9.013z" fill="#5db54e"/>
 </g>
 <g fill="#5e4aa6">
  <circle cx="-1173.8" cy="-1241.6" r="0"/>
  <circle cx="-74.23" cy="23.855" r="0" fill-rule="evenodd"/>
  <g transform="matrix(3.7796 0 0 3.7796 -28 -38.72)" stroke-width=".26458">
   <circle cx="-330.35" cy="-328.38" r="0"/>
   <circle cx="-312.11" cy="-326.25" r="0"/>
   <circle cx="-306.02" cy="-333.07" r="0"/>
   <circle cx="-308.84" cy="-326.01" r="0"/>
  </g>
 </g>
</svg>
