<?xml version="1.0" encoding="UTF-8"?>
<svg width="64" height="64" version="1.1" xmlns="http://www.w3.org/2000/svg" xmlns:cc="http://creativecommons.org/ns#" xmlns:dc="http://purl.org/dc/elements/1.1/" xmlns:rdf="http://www.w3.org/1999/02/22-rdf-syntax-ns#" xmlns:xlink="http://www.w3.org/1999/xlink">
 <metadata>
  <rdf:RDF>
   <cc:Work rdf:about="">
    <dc:format>image/svg+xml</dc:format>
    <dc:type rdf:resource="http://purl.org/dc/dcmitype/StillImage"/>
    <dc:title/>
   </cc:Work>
  </rdf:RDF>
 </metadata>
 <defs>
  <linearGradient id="linearGradient1104" x1="24.413" x2="48" y1="34.717" y2="34.717" gradientTransform="matrix(1.3059 0 0 1.3059 .020163 -3.0289)" gradientUnits="userSpaceOnUse">
   <stop stop-color="#36b512" offset="0"/>
   <stop stop-color="#93e62f" offset="1"/>
  </linearGradient>
  <linearGradient id="linearGradient4441" x2="48" y1="1047.5" y2="1047.5" gradientTransform="matrix(1.2834 0 0 1.2789 1.0977 -1284.4)" gradientUnits="userSpaceOnUse">
   <stop stop-color="#257b0c" offset="0"/>
   <stop stop-color="#93e62f" offset="1"/>
  </linearGradient>
  <style type="text/css"/>
  <style type="text/css"/>
  <style type="text/css"/>
  <style type="text/css"/>
  <style type="text/css"/>
  <style type="text/css"/>
  <style type="text/css"/>
  <style type="text/css"/>
  <filter id="filter11290" x="-.024" y="-.024" width="1.048" height="1.048" color-interpolation-filters="sRGB">
   <feGaussianBlur stdDeviation="0.15875313"/>
  </filter>
  <linearGradient id="linearGradient1038" x1="62.057" x2="2.4418" y1="2.1585" y2="61.774" gradientUnits="userSpaceOnUse">
   <stop stop-color="#505050" offset="0"/>
   <stop stop-color="#282828" offset="1"/>
  </linearGradient>
 </defs>
 <circle transform="matrix(3.7796 0 0 3.7796 -.10279 .024585)" cx="8.4937" cy="8.46" r="7.9377" filter="url(#filter11290)" opacity=".25" stroke-width=".14032"/>
 <circle cx="32" cy="32" r="30" fill="url(#linearGradient1038)" stroke-width=".7172"/>
 <path d="m61.752 28.154c-15.596 0.59607-29.615 8.4375-29.615 8.4375s0.60903 8.1681 4.9375 17.18h7.5898c-3.115-7.1611-3.3867-13.713-3.3867-13.713s8.1468-6.9707 20.715-7.4297a30 30 0 0 0 0.007812-0.62891 30 30 0 0 0-0.24805-3.8457zm-0.45703 10.312c-7.8146 0.66946-13.16 4.082-13.16 4.082s-0.003574 5.4699 2.7324 11.223h1.7734a30 30 0 0 0 3.3945-3.8203c-0.64194-2.5825-0.67969-4.5469-0.67969-4.5469s1.8276-1.2403 4.3965-2.0156a30 30 0 0 0 1.543-4.9219z" fill="url(#linearGradient1104)" stroke-width="1.1001"/>
 <path d="m10.328 52.744a30 30 0 0 0 21.672 9.2559 30 30 0 0 0 21.67-9.2559c-14.448-1.6e-5 -28.895 1.21e-4 -43.342 0z" fill="url(#linearGradient4441)" stroke-width="1.1001"/>
 <g fill="#5e4aa6">
  <g transform="translate(-66.041 -20.91)">
   <circle cx="-1248.7" cy="-1241.6" r="0"/>
   <circle cx="-149.15" cy="23.855" r="0" fill-rule="evenodd"/>
   <circle cx="-1248.7" cy="-1241.6" r="0"/>
   <circle cx="-149.15" cy="23.855" r="0" fill-rule="evenodd"/>
   <circle cx="-1150.9" cy="-1256.6" r="0"/>
   <circle cx="-51.327" cy="8.8744" r="0" fill-rule="evenodd"/>
   <g transform="matrix(3.7796,0,0,3.7796,167.86,4.61)" stroke-width=".26458">
    <g transform="translate(-.0272 .0065001)">
     <circle cx="-330.35" cy="-328.38" r="0"/>
     <circle cx="-312.11" cy="-326.25" r="0"/>
     <circle cx="-306.02" cy="-333.07" r="0"/>
     <circle cx="-308.84" cy="-326.01" r="0"/>
     <circle cx="-330.35" cy="-328.38" r="0"/>
     <circle cx="-312.11" cy="-326.25" r="0"/>
     <circle cx="-306.02" cy="-333.07" r="0"/>
     <circle cx="-308.84" cy="-326.01" r="0"/>
    </g>
    <g transform="translate(-.02705 .0064503)">
     <circle cx="-330.35" cy="-328.38" r="0"/>
     <circle cx="-312.11" cy="-326.25" r="0"/>
     <circle cx="-306.02" cy="-333.07" r="0"/>
     <circle cx="-308.84" cy="-326.01" r="0"/>
    </g>
   </g>
  </g>
  <circle cx="-1321.5" cy="-1290.2" r="0"/>
  <circle cx="-221.93" cy="-24.707" r="0" fill-rule="evenodd"/>
  <g transform="matrix(3.7796 0 0 3.7796 -175.7 -87.282)" stroke-width=".26458">
   <circle cx="-330.35" cy="-328.38" r="0"/>
   <circle cx="-312.11" cy="-326.25" r="0"/>
   <circle cx="-306.02" cy="-333.07" r="0"/>
   <circle cx="-308.84" cy="-326.01" r="0"/>
  </g>
 </g>
</svg>
