<?xml version="1.0" encoding="UTF-8"?>
<svg width="64" height="64" version="1.1" xmlns="http://www.w3.org/2000/svg">
 <defs>
  <filter id="filter893" x="-.027" y="-.027" width="1.054" height="1.054" color-interpolation-filters="sRGB">
   <feGaussianBlur stdDeviation="0.675"/>
  </filter>
  <linearGradient id="linearGradient937" x1="31.967" x2="31.967" y1="61.641" y2="2.1444" gradientTransform="translate(1.4868e-6)" gradientUnits="userSpaceOnUse">
   <stop stop-color="#1a1a1a" offset="0"/>
   <stop stop-color="#4c4c4c" offset="1"/>
  </linearGradient>
 </defs>
 <circle cx="32" cy="32" r="30" filter="url(#filter893)" opacity=".3" stroke-linecap="round" stroke-width="2.3495"/>
 <circle cx="32" cy="32" r="30" fill="url(#linearGradient937)" stroke-linecap="round" stroke-width="2.3495"/>
 <path d="m23.648 10.074c-3.9348 2.0764-7.2277 5.9591-7.3223 10.581-0.07543 2.3987 0.42516 4.9277 1.5978 6.9946 4.1144 0.06995 8.351 2.4193 9.7938 6.4213 2.1135 5.2898-0.37442 12.312-5.9358 14.261-2.8527 1.0272-6.0249 0.56916-8.7816-0.53762 3.7688 2.3727 8.7871 3.2806 12.837 1.0423 2.1203-1.1232 3.9869-2.8225 5.2583-4.8358-2.001-3.607-2.0805-8.4456 0.66105-11.703 3.5137-4.4793 10.835-5.859 15.308-2.0202 2.3164 1.9544 3.5041 4.9305 3.9238 7.8696 0.16869-4.4463-1.547-9.2411-5.4996-11.632-2.0325-1.2961-4.4326-2.0065-6.8149-2.1711-2.1244 3.5371-6.2745 6.0277-10.467 5.2857-5.6327-0.79546-10.495-6.4364-9.407-12.228 0.53214-2.9843 2.5194-5.4996 4.8523-7.3292z" fill="#f9f9f9" fill-rule="evenodd"/>
 <circle cx="32" cy="53" r="9" fill="#ff3232" fill-rule="evenodd" stroke-linecap="square" stroke-linejoin="round" stroke-width=".75354" style="paint-order:stroke markers fill"/>
</svg>
