<?xml version="1.0" encoding="UTF-8" standalone="no"?>
<svg
   xmlns:dc="http://purl.org/dc/elements/1.1/"
   xmlns:cc="http://creativecommons.org/ns#"
   xmlns:rdf="http://www.w3.org/1999/02/22-rdf-syntax-ns#"
   xmlns:svg="http://www.w3.org/2000/svg"
   xmlns="http://www.w3.org/2000/svg"
   xmlns:xlink="http://www.w3.org/1999/xlink"
   xmlns:sodipodi="http://sodipodi.sourceforge.net/DTD/sodipodi-0.dtd"
   xmlns:inkscape="http://www.inkscape.org/namespaces/inkscape"
   inkscape:version="1.0 (4035a4fb49, 2020-05-01)"
   sodipodi:docname="onboard.svg"
   viewBox="0 0 64 64"
   version="1.1"
   image-rendering="optimizeSpeed"
   enable-background="new 0 0 1024 1024"
   height="64"
   width="64"
   id="Iterm">
  <metadata
     id="metadata30">
    <rdf:RDF>
      <cc:Work
         rdf:about="">
        <dc:format>image/svg+xml</dc:format>
        <dc:type
           rdf:resource="http://purl.org/dc/dcmitype/StillImage" />
        <dc:title></dc:title>
      </cc:Work>
    </rdf:RDF>
  </metadata>
  <sodipodi:namedview
     inkscape:current-layer="Iterm"
     inkscape:window-maximized="1"
     inkscape:window-y="36"
     inkscape:window-x="0"
     inkscape:cy="23.771531"
     inkscape:cx="69.497246"
     inkscape:zoom="4.2150193"
     showgrid="false"
     id="namedview28"
     inkscape:window-height="932"
     inkscape:window-width="1920"
     inkscape:pageshadow="2"
     inkscape:pageopacity="0"
     guidetolerance="10"
     gridtolerance="10"
     objecttolerance="10"
     borderopacity="1"
     bordercolor="#666666"
     pagecolor="#ffffff" />
  <defs
     id="defs12">
    <linearGradient
       gradientUnits="userSpaceOnUse"
       gradientTransform="matrix(1.1667,0,0,1.1667,110.89648,-6.2518)"
       y2="45.398"
       y1="20.763"
       x2="32.113"
       x1="32.113"
       id="a">
      <stop
         id="stop2"
         offset="0"
         stop-color="#808080" />
      <stop
         id="stop4"
         offset="1"
         stop-color="#1a1a1a" />
    </linearGradient>
    <linearGradient
       gradientUnits="userSpaceOnUse"
       gradientTransform="matrix(3.7796,0,0,3.7796,116.70978,0)"
       y2="1.852"
       y1="15.081"
       x2="7.9373"
       x1="7.9373"
       id="linearGradient862">
      <stop
         id="stop7"
         offset="0"
         stop-color="#e6e6e6" />
      <stop
         id="stop9"
         offset="1"
         stop-color="#fff" />
    </linearGradient>
    <linearGradient
       id="linearGradient1057">
      <stop
         stop-color="#fff"
         offset="0"
         id="stop857" />
      <stop
         stop-color="#fff"
         stop-opacity="0"
         offset="1"
         id="stop859" />
    </linearGradient>
    <linearGradient
       id="linearGradient982"
       x1="34.999"
       x2="34.999"
       y1="27.545"
       y2="52.847"
       gradientTransform="matrix(1.5625,0,0,1.5625,0.40633,-5.1891)"
       gradientUnits="userSpaceOnUse">
      <stop
         stop-color="#32b4ff"
         offset="0"
         id="stop862" />
      <stop
         stop-color="#3287ff"
         offset="1"
         id="stop864" />
    </linearGradient>
    <style
       type="text/css"
       id="style867" />
    <style
       type="text/css"
       id="style869" />
    <linearGradient
       id="linearGradient1047"
       x1="21.314"
       x2="21.314"
       y1="18.052"
       y2="43.681"
       gradientTransform="matrix(1.5625,0,0,1.5625,-9.2253,1.3231)"
       gradientUnits="userSpaceOnUse">
      <stop
         stop-color="#14dc78"
         offset="0"
         id="stop871" />
      <stop
         stop-color="#14a03c"
         offset="1"
         id="stop873" />
    </linearGradient>
    <linearGradient
       id="linearGradient1049"
       x1="41.729"
       x2="41.729"
       y1="12.316"
       y2="37.368"
       gradientTransform="matrix(1.5625,0,0,1.5625,-8.1072,-10.908)"
       gradientUnits="userSpaceOnUse">
      <stop
         stop-color="#ff3c64"
         offset="0"
         id="stop876" />
      <stop
         stop-color="#ff4628"
         offset="1"
         id="stop878" />
    </linearGradient>
    <linearGradient
       id="linearGradient1059"
       x1="34.427"
       x2="34.427"
       y1="32.234"
       y2="39.768"
       gradientTransform="matrix(1,0,0,1.2271,0.20646,-10.975)"
       gradientUnits="userSpaceOnUse"
       xlink:href="#linearGradient1057" />
    <linearGradient
       id="linearGradient1063"
       x1="34.427"
       x2="34.427"
       y1="32.234"
       y2="39.768"
       gradientTransform="matrix(1,0,0,1.2271,-12.55,-19.793)"
       gradientUnits="userSpaceOnUse"
       xlink:href="#linearGradient1057" />
    <linearGradient
       id="linearGradient1067"
       x1="34.427"
       x2="34.427"
       y1="32.234"
       y2="39.768"
       gradientTransform="matrix(1,0,0,1.2271,5.7554,-25.761)"
       gradientUnits="userSpaceOnUse"
       xlink:href="#linearGradient1057" />
    <filter
       id="filter11290"
       x="-.024"
       y="-.024"
       width="1.048"
       height="1.048"
       color-interpolation-filters="sRGB">
      <feGaussianBlur
         stdDeviation="0.15875313"
         id="feGaussianBlur884" />
    </filter>
    <linearGradient
       id="linearGradient1005"
       x1=".73911"
       x2="16.388"
       y1="16.296"
       y2=".64687"
       gradientTransform="matrix(3.7796,0,0,3.7796,-0.13193795,0.02458353)"
       gradientUnits="userSpaceOnUse">
      <stop
         stop-color="#dddfe1"
         offset="0"
         id="stop887" />
      <stop
         stop-color="#f3f4f6"
         offset="1"
         id="stop889" />
    </linearGradient>
    <linearGradient
       y2="45.398"
       x2="32.113"
       y1="20.763"
       x1="32.113"
       gradientTransform="matrix(1.1667,0,0,1.1667,-5.81315,-6.252205)"
       gradientUnits="userSpaceOnUse"
       id="linearGradient988"
       xlink:href="#a"
       inkscape:collect="always" />
  </defs>
  <mask
     id="mask17">
    <g
       id="g">
      <path
         id="path14"
         fill="#fff"
         d="m969.75 392.05c-1.1-4.35-2.35-9-3.65-13.6-1-3.4-2-6.85-3.15-10.5-1.6-5.15-3.4-10.5-5.3-15.85-6.45-18.25-14.15-36.05-23.15-53.65-3.8-7.4-7.95-14.95-12.3-22.4-20.3-34.5-45.8-67.2-76.35-97.75-72.6-72.6-157.15-116.65-253.65-132.05-16.25-2.6-32.8-4.4-50.05-5.35-9.7-0.55-19.85-0.85-30.1-0.85-9.35 0-18.6 0.25-27.9 0.75-118.35 6.1-220.3 51.95-305.85 137.5q-138.25 138.25-138.25 333.75c0 130.35 46.1 241.65 138.25 333.8 56.7 56.65 120.55 95.9 191.1 117.55 36.75 11.25 74.8 17.85 114.75 19.95h0.4c8.5 0.45 16.6 0.7 24.5 0.7h3c10.3 0 20.5-0.3 30.1-0.8 2.5-0.15 4.75-0.3 6.95-0.45 20.2-1.45 39.9-4.05 58.7-7.7 7.95-1.55 15.8-3.3 23.4-5.15 80.8-20.3 152.15-61.6 214.65-124.1 48.6-48.6 84.4-102.5 107.35-161.8 18.45-47.65 28.65-98.8 30.55-153.5 0.2-6.05 0.3-12.25 0.3-18.5v-3c-0.2-40.65-4.95-79.5-14.3-117z" />
    </g>
  </mask>
  <circle
     id="circle894"
     stroke-width="0.14032"
     opacity="0.25"
     filter="url(#filter11290)"
     r="7.9376998"
     cy="8.46"
     cx="8.4937"
     transform="matrix(3.7796,0,0,3.7796,-0.10278795,0.02458453)" />
  <path
     id="path896"
     stroke-width="0.11719"
     fill="url(#linearGradient1005)"
     d="m 62.000012,32.000017 c 0,3.5964 -0.63305,7.0448 -1.794,10.24 -0.80698,2.2212 -1.8686,4.3212 -3.1519,6.2636 -0.53754,0.8167 -1.1155,1.6054 -1.729,2.3633 -1.9641,2.4257 -4.2982,4.5382 -6.9186,6.2526 -0.96493,0.63187 -1.9678,1.2099 -3.0061,1.7277 -4.0321,2.0179 -8.5839,3.153 -13.401,3.153 -4.8171,0 -9.3689,-1.1351 -13.401,-3.1531 -1.0384,-0.51799 -2.0425,-1.096 -3.0074,-1.7277 -2.6535,-1.7376 -5.0155,-3.8832 -6.9957,-6.349 -0.61468,-0.76408 -1.1915,-1.56 -1.729,-2.3841 -1.249,-1.9102 -2.2837,-3.9712 -3.0747,-6.1494 -1.1608,-3.1949 -1.7927,-6.6419 -1.7927,-10.237 0,-16.569 13.432,-30.0010005 30.001,-30.0010005 8.317,0 15.843,3.3846 21.277,8.8507005 1.5661,1.5747 2.9584,3.3234 4.1436,5.214 1.1205,1.7805 2.0572,3.6882 2.7857,5.6951 1.161,3.196 1.7941,6.6442 1.7941,10.24 z"
     style="fill:url(#linearGradient1005)" />
  <circle
     id="circle898"
     fill="#5e4aa6"
     r="0"
     cy="-1241.6"
     cx="-1248.7" />
  <circle
     id="circle900"
     fill-rule="evenodd"
     fill="#5e4aa6"
     r="0"
     cy="23.855017"
     cx="-149.14998" />
  <g
     id="g924"
     stroke-width="0.26458"
     fill="#5e4aa6"
     transform="matrix(3.7796,0,0,3.7796,-102.91999,-38.719983)">
    <circle
       id="circle916"
       r="0"
       cy="-328.38"
       cx="-330.35001" />
    <circle
       id="circle918"
       r="0"
       cy="-326.25"
       cx="-312.10999" />
    <circle
       id="circle920"
       r="0"
       cy="-333.07001"
       cx="-306.01999" />
    <circle
       id="circle922"
       r="0"
       cy="-326.01001"
       cx="-308.84" />
  </g>
  <path
     d="m 40.38415,34.727595 -2.7879,0.0201 -0.0402,-5.5758 2.7879,-0.0201 c 3.0793,-0.0222 5.5579,-2.5368 5.5357,-5.616 -0.0222,-3.0792 -2.5368,-5.5578 -5.6161,-5.5356 -3.0796,0.0222 -5.5579,2.5368 -5.5357,5.616 l 0.0201,2.7879 -5.5759,0.04021 -0.0201,-2.7879 c -0.0222,-3.0792 -2.5368,-5.5578 -5.6161,-5.5356 -3.0793,0.0222 -5.5579,2.5368 -5.5357,5.616 0.0222,3.0792 2.5368,5.5578 5.6161,5.5356 l 2.7879,-0.0201 0.0402,5.5758 -2.7879,0.0201 c -3.0793,0.0222 -5.5579,2.5368 -5.5357,5.616 0.0222,3.0792 2.5368,5.5578 5.6161,5.5356 3.0796,-0.0222 5.5579,-2.5368 5.5357,-5.616 l -0.0201,-2.7879 5.5759,-0.04021 0.02,2.7809 c 2e-5,0.0028 -3.1e-4,0.0049 -3e-4,0.007 0.0222,3.0792 2.5368,5.5578 5.6161,5.5356 3.0793,-0.0222 5.5579,-2.5368 5.5357,-5.616 -0.0222,-3.0792 -2.5365,-5.5571 -5.6157,-5.5356 z m -0.10053,-13.94 c 1.5396,-0.01108 2.7969,1.2282 2.808,2.7678 0.0112,1.5396 -1.2282,2.7969 -2.7678,2.808 l -2.7879,0.0201 -0.0201,-2.7879 c -0.0112,-1.5396 1.2282,-2.7969 2.7678,-2.808 z m -19.495,2.9287 c -0.0112,-1.5396 1.2282,-2.7969 2.7678,-2.808 1.5396,-0.01108 2.7969,1.2282 2.808,2.7678 l 0.0201,2.7879 -2.7879,0.0201 c -1.5396,0.01108 -2.7969,-1.2285 -2.808,-2.7678 z m 2.9287,19.495 c -1.5396,0.01108 -2.7969,-1.2282 -2.808,-2.7678 -0.0112,-1.5396 1.2282,-2.7969 2.7678,-2.808 l 2.7879,-0.0201 0.0201,2.7879 c 0.0112,1.5396 -1.2282,2.7969 -2.7678,2.808 z m 5.5156,-8.4039 -0.0402,-5.5758 5.5759,-0.04021 0.0402,5.5758 z m 11.212,8.2833 c -1.5396,0.01108 -2.7969,-1.2282 -2.808,-2.7678 l -0.0201,-2.7879 2.7876,-0.0201 c 1.5396,-0.01108 2.7969,1.2282 2.808,2.7678 0.0112,1.5396 -1.2278,2.7969 -2.7675,2.808 z"
     fill="url(#a)"
     stroke-width="0.24412"
     id="path986"
     style="fill:url(#linearGradient988)" />
</svg>
