<?xml version="1.0" encoding="UTF-8" standalone="no"?>
<svg
   xmlns:dc="http://purl.org/dc/elements/1.1/"
   xmlns:cc="http://creativecommons.org/ns#"
   xmlns:rdf="http://www.w3.org/1999/02/22-rdf-syntax-ns#"
   xmlns:svg="http://www.w3.org/2000/svg"
   xmlns="http://www.w3.org/2000/svg"
   xmlns:sodipodi="http://sodipodi.sourceforge.net/DTD/sodipodi-0.dtd"
   xmlns:inkscape="http://www.inkscape.org/namespaces/inkscape"
   inkscape:version="1.0 (4035a4fb49, 2020-05-01)"
   sodipodi:docname="online-account.svg"
   id="svg32"
   version="1.1"
   height="64"
   width="64">
  <metadata
     id="metadata36">
    <rdf:RDF>
      <cc:Work
         rdf:about="">
        <dc:format>image/svg+xml</dc:format>
        <dc:type
           rdf:resource="http://purl.org/dc/dcmitype/StillImage" />
        <dc:title></dc:title>
      </cc:Work>
    </rdf:RDF>
  </metadata>
  <sodipodi:namedview
     inkscape:current-layer="svg32"
     inkscape:window-maximized="1"
     inkscape:window-y="36"
     inkscape:window-x="0"
     inkscape:cy="10.529232"
     inkscape:cx="44.19342"
     inkscape:zoom="4.2150193"
     showgrid="false"
     id="namedview34"
     inkscape:window-height="932"
     inkscape:window-width="1920"
     inkscape:pageshadow="2"
     inkscape:pageopacity="0"
     guidetolerance="10"
     gridtolerance="10"
     objecttolerance="10"
     borderopacity="1"
     bordercolor="#666666"
     pagecolor="#ffffff" />
  <defs
     id="defs20">
    <radialGradient
       gradientUnits="userSpaceOnUse"
       gradientTransform="matrix(0,4.5259225,-8.9102586,0,190.21264,-46.533567)"
       fx="9.7251997"
       r="12.672"
       cy="9.9089003"
       cx="10.255"
       id="radialGradient5521-1">
      <stop
         id="stop2"
         offset="0"
         stop-color="#90dbec" />
      <stop
         id="stop4"
         offset=".26238"
         stop-color="#42baea" />
      <stop
         id="stop6"
         offset=".70495"
         stop-color="#3689e6" />
      <stop
         id="stop8"
         offset="1"
         stop-color="#2b63a0" />
    </radialGradient>
    <filter
       color-interpolation-filters="sRGB"
       height="1.096"
       width="1.096"
       y="-0.048"
       x="-0.048"
       id="filter975">
      <feGaussianBlur
         id="feGaussianBlur11"
         stdDeviation="0.56" />
    </filter>
    <filter
       color-interpolation-filters="sRGB"
       height="1.2418"
       width="1.1952"
       y="-0.12089"
       x="-0.097593002"
       id="filter862">
      <feGaussianBlur
         id="feGaussianBlur14"
         stdDeviation="0.7574652" />
    </filter>
    <filter
       color-interpolation-filters="sRGB"
       height="1.2665"
       width="1.211"
       y="-0.13327"
       x="-0.1055"
       id="filter866">
      <feGaussianBlur
         id="feGaussianBlur17"
         stdDeviation="0.7574652" />
    </filter>
    <style
       type="text/css"
       id="style863" />
    <filter
       id="filter11290"
       x="-0.024"
       y="-0.024"
       width="1.048"
       height="1.048"
       color-interpolation-filters="sRGB">
      <feGaussianBlur
         stdDeviation="0.15875313"
         id="feGaussianBlur865" />
    </filter>
    <linearGradient
       id="linearGradient1005"
       x1="0.8714"
       x2="16.246"
       y1="16.164"
       y2="0.78937"
       gradientTransform="matrix(3.7796,0,0,3.7796,-0.13319795,0.02439453)"
       gradientUnits="userSpaceOnUse">
      <stop
         stop-color="#00c8ff"
         offset="0"
         id="stop868" />
      <stop
         stop-color="#14a0ff"
         offset="1"
         id="stop870" />
    </linearGradient>
  </defs>
  <circle
     id="circle875"
     fill="#5e4aa6"
     r="0"
     cy="-1279.3"
     cx="-1124.8" />
  <g
     id="g885"
     stroke-width="0.26458"
     fill="#5e4aa6"
     transform="matrix(3.7796,0,0,3.7796,123.83001,-38.183983)">
    <circle
       id="circle877"
       r="0"
       cy="-338.76999"
       cx="-299.01999" />
    <circle
       id="circle879"
       fill-rule="evenodd"
       r="0"
       cy="-3.9487"
       cx="-8.1062002" />
    <circle
       id="circle881"
       r="0"
       cy="-357.69"
       cx="-278.25" />
    <circle
       id="circle883"
       fill-rule="evenodd"
       r="0"
       cy="-22.858999"
       cx="12.663" />
  </g>
  <circle
     id="circle887"
     stroke-width="0.14032"
     opacity="0.25"
     filter="url(#filter11290)"
     r="7.9376998"
     cy="8.46"
     cx="8.4937"
     transform="matrix(3.7796,0,0,3.7796,-0.10278795,0.02458453)" />
  <path
     id="path889"
     stroke-width="0.11719"
     fill="url(#linearGradient1005)"
     d="m 62.000012,32.000017 c 0,3.5964 -0.63305,7.0448 -1.794,10.24 -0.80698,2.2212 -1.8686,4.3212 -3.1519,6.2636 -0.53754,0.8167 -1.1155,1.6054 -1.729,2.3633 -1.9641,2.4257 -4.2982,4.5382 -6.9186,6.2526 -0.96493,0.63187 -1.9678,1.2098 -3.0061,1.7277 -4.0321,2.0179 -8.5839,3.153 -13.401,3.153 -4.8171,0 -9.3689,-1.1351 -13.401,-3.1531 -1.0384,-0.518 -2.0425,-1.096 -3.0074,-1.7277 -2.6535,-1.7376 -5.0155,-3.8832 -6.9957,-6.349 -0.61468,-0.76408 -1.1915,-1.56 -1.729,-2.3841 -1.249,-1.9102 -2.2837,-3.9712 -3.0747,-6.1494 -1.1608,-3.1949 -1.7927,-6.6419 -1.7927,-10.237 0,-16.569 13.432,-30.0010005 30.001,-30.0010005 8.317,0 15.843,3.3846 21.277,8.8507005 1.5661,1.5747 2.9584,3.3234 4.1436,5.214 1.1205,1.7805 2.0572,3.6882 2.7857,5.6951 1.161,3.196 1.7941,6.6442 1.7941,10.24 z"
     style="fill:url(#linearGradient1005)" />
  <g
     id="g899"
     stroke-width="0.26458"
     fill="#5e4aa6"
     transform="matrix(3.7796,0,0,3.7796,-0.10278795,0.02458453)">
    <circle
       id="circle891"
       r="0"
       cy="-328.38"
       cx="-330.35001" />
    <circle
       id="circle893"
       r="0"
       cy="-326.25"
       cx="-312.10999" />
    <circle
       id="circle895"
       r="0"
       cy="-333.07001"
       cx="-306.01999" />
    <circle
       id="circle897"
       r="0"
       cy="-326.01001"
       cx="-308.84" />
  </g>
  <path
     d="m 34.723608,19.333463 c -3.031243,0 -5.656326,1.745647 -6.957445,4.279246 -0.84335,-0.538907 -1.841699,-0.855848 -2.914984,-0.855848 -3.008212,0 -5.446836,2.452366 -5.446836,5.477478 0,0.480966 0.07564,0.946274 0.191472,1.390745 C 17.423134,31.098715 16,33.6057 16,36.450485 c 0,4.551875 3.643915,8.21622 8.170162,8.21622 h 15.659681 c 4.52624,0 8.170157,-3.66453 8.170157,-8.21622 0,-3.634816 -2.333324,-6.699299 -5.57442,-7.788333 0.08798,-0.472402 0.127662,-0.956839 0.127662,-1.45491 0,-4.348703 -3.505561,-7.873947 -7.829748,-7.873947 z"
     color="#000000"
     fill="#ffffff"
     id="path971"
     style="stroke-width:1.85715" />
</svg>
