<?xml version="1.0" encoding="UTF-8"?>
<svg width="64" height="64" version="1.1" xmlns="http://www.w3.org/2000/svg" xmlns:cc="http://creativecommons.org/ns#" xmlns:dc="http://purl.org/dc/elements/1.1/" xmlns:rdf="http://www.w3.org/1999/02/22-rdf-syntax-ns#">
 <metadata>
  <rdf:RDF>
   <cc:Work rdf:about="">
    <dc:format>image/svg+xml</dc:format>
    <dc:type rdf:resource="http://purl.org/dc/dcmitype/StillImage"/>
    <dc:title/>
   </cc:Work>
  </rdf:RDF>
 </metadata>
 <defs>
  <style type="text/css"/>
  <style type="text/css"/>
  <filter id="filter11290" x="-.024" y="-.024" width="1.048" height="1.048" color-interpolation-filters="sRGB">
   <feGaussianBlur stdDeviation="0.15875313"/>
  </filter>
  <linearGradient id="linearGradient1307" x1="16.393" x2=".60977" y1=".69761" y2="16.375" gradientTransform="matrix(3.7796 0 0 3.7796 -.13249 .024378)" gradientUnits="userSpaceOnUse">
   <stop stop-color="#ffdc32" offset="0"/>
   <stop stop-color="#ff7832" offset="1"/>
  </linearGradient>
 </defs>
 <circle transform="matrix(3.7796 0 0 3.7796 -.1028 .024568)" cx="8.4937" cy="8.46" r="7.9377" filter="url(#filter11290)" opacity=".25" stroke-width=".14032"/>
 <path d="m62 32c0 3.5964-0.63304 7.0448-1.794 10.24-0.80698 2.2212-1.8686 4.3212-3.1519 6.2636-0.53754 0.8167-1.1155 1.6054-1.729 2.3633-1.9641 2.4257-4.2982 4.5382-6.9186 6.2526-0.96493 0.63187-1.9678 1.2099-3.0061 1.7277-4.0321 2.0179-8.5839 3.153-13.401 3.153s-9.3689-1.1351-13.401-3.1531c-1.0384-0.518-2.0425-1.096-3.0074-1.7277-2.6536-1.7376-5.0155-3.8832-6.9957-6.349-0.61467-0.76408-1.1915-1.56-1.729-2.3841-1.249-1.9102-2.2837-3.9712-3.0747-6.1494-1.1608-3.1949-1.7927-6.6419-1.7927-10.237 0-16.569 13.432-30.001 30.001-30.001 8.317 0 15.843 3.3846 21.277 8.8507 1.5661 1.5747 2.9584 3.3234 4.1436 5.214 1.1205 1.7805 2.0572 3.6882 2.7857 5.6951 1.161 3.196 1.7941 6.6442 1.7941 10.24z" fill="url(#linearGradient1307)" stroke-width=".11719"/>
 <g fill="#5e4aa6">
  <circle cx="-1168.4" cy="-1251.4" r="0"/>
  <circle cx="-68.875" cy="14.092" r="0" fill-rule="evenodd"/>
  <circle cx="-1168.4" cy="-1251.4" r="0"/>
  <circle cx="-68.875" cy="14.092" r="0" fill-rule="evenodd"/>
 </g>
 <g transform="matrix(1.447 0 0 1.447 -5.8754 -2.9961)" fill="#fafafa">
  <path d="m19.061 12.803c-2.7588 0-4.9797 2.221-4.9797 4.9797 0 2.7588 2.221 4.9798 4.9797 4.9798 2.7588 0 4.9797-2.221 4.9797-4.9798s-2.2209-4.9797-4.9797-4.9797zm-3.557 12.805v9.9595h7.1139v-9.9595z" stroke-width="1.1526"/>
  <g transform="matrix(.80676 0 0 .80676 -303.74 -398.09)">
   <path transform="rotate(-36.621,416.41,534.81)" d="m420.91 541.36-10.562-7.9019 12.124-5.1962z"/>
   <path d="m411.91 509.56h11.8v11.8h-11.8z"/>
  </g>
 </g>
 <g transform="matrix(1.3 0 0 1.3 -698.35 -681.55)" font-size="12.666px" stroke-width=".76923">
  <text x="730.88" y="132.19" font-family="'Droid Sans'" stroke-width=".76923"/>
 </g>
 <circle cx="-1373.6" cy="-1274.2" r="0" fill="#5e4aa6"/>
 <g transform="matrix(1.3 0 0 1.3 -691.29 -682.78)" font-size="12.666px" stroke-width=".76923">
  <text x="730.88" y="132.19" font-family="'Droid Sans'" stroke-width=".76923"/>
 </g>
 <circle cx="-1366.5" cy="-1275.4" r="0" fill="#5e4aa6"/>
 <circle cx="-1366.5" cy="-1275" r="0" fill="#5e4aa6"/>
</svg>
