<?xml version="1.0" encoding="UTF-8"?>
<svg width="64" height="64" version="1.1" viewBox="0 0 64 64" xmlns="http://www.w3.org/2000/svg" xmlns:cc="http://creativecommons.org/ns#" xmlns:dc="http://purl.org/dc/elements/1.1/" xmlns:rdf="http://www.w3.org/1999/02/22-rdf-syntax-ns#">
 <metadata>
  <rdf:RDF>
   <cc:Work rdf:about="">
    <dc:format>image/svg+xml</dc:format>
    <dc:type rdf:resource="http://purl.org/dc/dcmitype/StillImage"/>
    <dc:title/>
   </cc:Work>
  </rdf:RDF>
 </metadata>
 <defs>
  <style type="text/css"/>
  <style type="text/css"/>
  <style type="text/css"/>
  <style type="text/css"/>
  <style type="text/css"/>
  <style type="text/css"/>
  <style type="text/css"/>
  <style type="text/css"/>
  <style type="text/css"/>
  <style type="text/css"/>
  <filter id="filter11290" x="-.024" y="-.024" width="1.048" height="1.048" color-interpolation-filters="sRGB">
   <feGaussianBlur stdDeviation="0.15875313"/>
  </filter>
  <linearGradient id="linearGradient1005" x1=".73911" x2="16.388" y1="16.296" y2=".64687" gradientTransform="matrix(3.7796 0 0 3.7796 -.13269 .025278)" gradientUnits="userSpaceOnUse">
   <stop stop-color="#393a6b" offset="0"/>
   <stop stop-color="#464783" offset="1"/>
  </linearGradient>
  <style type="text/css"/>
  <style type="text/css"/>
  <style type="text/css"/>
 </defs>
 <circle transform="matrix(3.7796 0 0 3.7796 1.6204e-5 1.6204e-5)" cx="8.4665" cy="8.4665" r="7.9377" filter="url(#filter11290)" opacity=".25" stroke-width=".14032"/>
 <path d="m62 32c0 3.5964-0.63304 7.0448-1.794 10.24-0.80698 2.2212-1.8686 4.3212-3.1519 6.2636-0.53754 0.8167-1.1155 1.6054-1.729 2.3633-1.9641 2.4257-4.2982 4.5382-6.9186 6.2526-0.96493 0.63187-1.9678 1.2099-3.0061 1.7277-4.0321 2.0179-8.5839 3.153-13.401 3.153s-9.3689-1.1351-13.401-3.1531c-1.0384-0.518-2.0425-1.096-3.0074-1.7277-2.6535-1.7376-5.0155-3.8832-6.9957-6.349-0.61468-0.76408-1.1915-1.56-1.729-2.3841-1.249-1.9102-2.2837-3.9712-3.0747-6.1494-1.1608-3.1949-1.7927-6.6419-1.7927-10.237 0-16.569 13.432-30.001 30.001-30.001 8.317 0 15.843 3.3846 21.277 8.8507 1.5661 1.5747 2.9584 3.3234 4.1436 5.214 1.1205 1.7805 2.0572 3.6882 2.7857 5.6951 1.161 3.196 1.7941 6.6442 1.7941 10.24z" fill="url(#linearGradient1005)" stroke-width=".11719"/>
 <g fill="#5e4aa6">
  <circle cx="-1248.7" cy="-1241.6" r="0"/>
  <circle cx="-149.15" cy="23.855" r="0" fill-rule="evenodd"/>
  <circle cx="-1248.7" cy="-1241.6" r="0"/>
  <circle cx="-149.15" cy="23.855" r="0" fill-rule="evenodd"/>
  <circle cx="-1150.9" cy="-1256.6" r="0"/>
  <circle cx="-51.327" cy="8.8744" r="0" fill-rule="evenodd"/>
  <g transform="matrix(3.7796,0,0,3.7796,167.86,4.61)" stroke-width=".26458">
   <g transform="translate(-.0272 .0065001)">
    <circle cx="-330.35" cy="-328.38" r="0"/>
    <circle cx="-312.11" cy="-326.25" r="0"/>
    <circle cx="-306.02" cy="-333.07" r="0"/>
    <circle cx="-308.84" cy="-326.01" r="0"/>
    <circle cx="-330.35" cy="-328.38" r="0"/>
    <circle cx="-312.11" cy="-326.25" r="0"/>
    <circle cx="-306.02" cy="-333.07" r="0"/>
    <circle cx="-308.84" cy="-326.01" r="0"/>
   </g>
   <g transform="translate(-.02705 .0064503)">
    <circle cx="-330.35" cy="-328.38" r="0"/>
    <circle cx="-312.11" cy="-326.25" r="0"/>
    <circle cx="-306.02" cy="-333.07" r="0"/>
    <circle cx="-308.84" cy="-326.01" r="0"/>
   </g>
  </g>
 </g>
 <path d="m43.627 17.318c-2.4677 0-4.4683 2.0011-4.4668 4.4688 5.1e-4 0.83631 0.23913 1.6548 0.68359 2.3633l-0.82812 0.82812h-10.852l-4.127 4.127c-0.46677-0.19527-0.96669-0.29676-1.4727-0.29688-2.1152-4.72e-4 -3.8301 1.715-3.8301 3.8301s1.7149 3.8301 3.8301 3.8301 3.8307-1.715 3.8301-3.8301c-1.73e-4 -0.63475-0.16087-1.2601-0.46289-1.8184l3.2891-3.2891h10.852l1.6914-1.6895c0.58457 0.2708 1.2191 0.41367 1.8633 0.41406 2.4677 0.0013 4.4688-2.0011 4.4688-4.4688s-2.0011-4.4688-4.4688-4.4688zm-21.701 1.2773c-1.0576 0-1.9141 0.85649-1.9141 1.9141s0.85649 1.916 1.9141 1.916c1.0576 0 1.9141-0.85844 1.9141-1.916s-0.85649-1.9141-1.9141-1.9141zm6.3828 0c-1.0576 0-1.9141 0.85649-1.9141 1.9141s0.8565 1.916 1.9141 1.916 1.9141-0.85844 1.9141-1.916-0.85649-1.9141-1.9141-1.9141zm6.3828 0c-1.0576 0-1.9141 0.85649-1.9141 1.9141s0.85649 1.916 1.9141 1.916c1.0576 0 1.916-0.85844 1.916-1.916s-0.85845-1.9141-1.916-1.9141zm8.9355 1.2773c1.0576 0 1.916 0.85649 1.916 1.9141 0 1.0576-0.85845 1.9141-1.916 1.9141s-1.9141-0.85649-1.9141-1.9141c0-1.0576 0.85649-1.9141 1.9141-1.9141zm0.63867 10.213c-1.621 9.83e-4 -3.0652 1.0244-3.6055 2.5527h-10.564l-8.1367 7.748c-0.2186-0.05949-0.44532-0.087891-0.67188-0.087891-1.4101-2.5e-5 -2.5527 1.1426-2.5527 2.5527s1.1426 2.5527 2.5527 2.5527 2.5539-1.1426 2.5527-2.5527c-1.85e-4 -0.21811-0.029388-0.43583-0.085938-0.64648l7.3613-7.0137h9.543c0.54065 1.5292 1.9854 2.5522 3.6074 2.5527 2.1152 6.89e-4 3.8301-1.715 3.8301-3.8301s-1.7149-3.8294-3.8301-3.8281zm-10.852 7.6582c-1.7626 0-3.1914 1.4288-3.1914 3.1914s1.4288 3.1922 3.1914 3.1914c0.62531-2.68e-4 1.2385-0.18584 1.7598-0.53125l1.8066 1.8086h22.473c0.017839-0.30094 0.046875-0.59873 0.046875-0.9043v-0.37305h-21.992l-1.4336-1.4336c0.34541-0.52126 0.53098-1.1324 0.53125-1.7578 7.39e-4 -1.7626-1.4288-3.1914-3.1914-3.1914zm0 1.2773c1.0576 0 1.916 0.85649 1.916 1.9141s-0.85845 1.916-1.916 1.916c-1.0576 0-1.9141-0.85844-1.9141-1.916s0.85649-1.9141 1.9141-1.9141zm-12.127 2.5527c0.70504 0 1.2773 0.57231 1.2773 1.2773 0 0.70504-0.57231 1.2754-1.2773 1.2754s-1.2754-0.57035-1.2754-1.2754c0-0.70504 0.57035-1.2773 1.2754-1.2773z" fill="#f9f9f9" stroke-width="1.2766" style="paint-order:normal"/>
 <g fill="#5e4aa6">
  <g transform="translate(73.406 -3.864)">
   <circle cx="-1248.7" cy="-1241.6" r="0"/>
   <circle cx="-149.15" cy="23.855" r="0" fill-rule="evenodd"/>
   <circle cx="-1248.7" cy="-1241.6" r="0"/>
   <circle cx="-149.15" cy="23.855" r="0" fill-rule="evenodd"/>
   <circle cx="-1150.9" cy="-1256.6" r="0"/>
   <circle cx="-51.327" cy="8.8744" r="0" fill-rule="evenodd"/>
   <g transform="matrix(3.7796,0,0,3.7796,167.86,4.61)" stroke-width=".26458">
    <g transform="translate(-.0272 .0065001)">
     <circle cx="-330.35" cy="-328.38" r="0"/>
     <circle cx="-312.11" cy="-326.25" r="0"/>
     <circle cx="-306.02" cy="-333.07" r="0"/>
     <circle cx="-308.84" cy="-326.01" r="0"/>
     <circle cx="-330.35" cy="-328.38" r="0"/>
     <circle cx="-312.11" cy="-326.25" r="0"/>
     <circle cx="-306.02" cy="-333.07" r="0"/>
     <circle cx="-308.84" cy="-326.01" r="0"/>
    </g>
    <g transform="translate(-.02705 .0064503)">
     <circle cx="-330.35" cy="-328.38" r="0"/>
     <circle cx="-312.11" cy="-326.25" r="0"/>
     <circle cx="-306.02" cy="-333.07" r="0"/>
     <circle cx="-308.84" cy="-326.01" r="0"/>
    </g>
   </g>
  </g>
  <g transform="translate(-94.714 -65.909)">
   <circle cx="-1248.7" cy="-1241.6" r="0"/>
   <circle cx="-149.15" cy="23.855" r="0" fill-rule="evenodd"/>
   <circle cx="-1150.9" cy="-1256.6" r="0"/>
   <circle cx="-51.327" cy="8.8744" r="0" fill-rule="evenodd"/>
   <g transform="matrix(3.7796 0 0 3.7796 -.10224 .02438)" stroke-width=".26458">
    <circle cx="-330.35" cy="-328.38" r="0"/>
    <circle cx="-312.11" cy="-326.25" r="0"/>
    <circle cx="-306.02" cy="-333.07" r="0"/>
    <circle cx="-308.84" cy="-326.01" r="0"/>
   </g>
  </g>
  <g transform="matrix(3.7796 0 0 3.7796 -94.824 -65.885)" stroke-width=".26458">
   <circle cx="-330.35" cy="-328.38" r="0"/>
   <circle cx="-312.11" cy="-326.25" r="0"/>
   <circle cx="-306.02" cy="-333.07" r="0"/>
   <circle cx="-308.84" cy="-326.01" r="0"/>
  </g>
  <g transform="translate(-212.13 -107.13)">
   <circle cx="-1248.7" cy="-1241.6" r="0"/>
   <circle cx="-149.15" cy="23.855" r="0" fill-rule="evenodd"/>
   <circle cx="-1150.9" cy="-1256.6" r="0"/>
   <circle cx="-51.327" cy="8.8744" r="0" fill-rule="evenodd"/>
   <g transform="matrix(3.7796,0,0,3.7796,167.86,4.61)" stroke-width=".26458">
    <g transform="translate(-.0272 .0065001)">
     <circle cx="-330.35" cy="-328.38" r="0"/>
     <circle cx="-312.11" cy="-326.25" r="0"/>
     <circle cx="-306.02" cy="-333.07" r="0"/>
     <circle cx="-308.84" cy="-326.01" r="0"/>
     <circle cx="-330.35" cy="-328.38" r="0"/>
     <circle cx="-312.11" cy="-326.25" r="0"/>
     <circle cx="-306.02" cy="-333.07" r="0"/>
     <circle cx="-308.84" cy="-326.01" r="0"/>
    </g>
    <g transform="translate(-.02705 .0064503)">
     <circle cx="-330.35" cy="-328.38" r="0"/>
     <circle cx="-312.11" cy="-326.25" r="0"/>
     <circle cx="-306.02" cy="-333.07" r="0"/>
     <circle cx="-308.84" cy="-326.01" r="0"/>
    </g>
   </g>
  </g>
 </g>
</svg>
