<?xml version="1.0" encoding="UTF-8"?>
<svg width="64" height="64" version="1.1" viewBox="0 0 16.933 16.933" xmlns="http://www.w3.org/2000/svg" xmlns:cc="http://creativecommons.org/ns#" xmlns:dc="http://purl.org/dc/elements/1.1/" xmlns:rdf="http://www.w3.org/1999/02/22-rdf-syntax-ns#" xmlns:xlink="http://www.w3.org/1999/xlink">
 <defs>
  <filter id="filter11290-0" x="-.024" y="-.024" width="1.048" height="1.048" color-interpolation-filters="sRGB">
   <feGaussianBlur stdDeviation="0.15875313"/>
  </filter>
  <linearGradient id="linearGradient1195" x1="2.637" x2="61.642" y1="61.847" y2="2.6618" gradientTransform="matrix(.26458 0 0 .26458 17.368 5.6098)" gradientUnits="userSpaceOnUse">
   <stop stop-color="#343434" offset="0"/>
   <stop stop-color="#757575" offset="1"/>
  </linearGradient>
  <linearGradient id="linearGradient987" x1="8.3788" x2="8.3788" y1="13.822" y2="3.4058" gradientTransform="translate(17.368 5.6098)" gradientUnits="userSpaceOnUse">
   <stop stop-color="#e0e0e0" offset="0"/>
   <stop stop-color="#fff" offset="1"/>
  </linearGradient>
  <radialGradient id="radialGradient4514-5" cx="259.52" cy="558.97" r="34" gradientTransform="matrix(.1323 7.0812e-8 -7.0812e-8 .1323 -8.4983 -59.87)" gradientUnits="userSpaceOnUse">
   <stop stop-color="#65257e" offset="0"/>
   <stop stop-color="#672680" offset=".72383"/>
   <stop stop-color="#a558c5" offset=".80104"/>
   <stop stop-color="#b363d5" offset=".94118"/>
   <stop stop-color="#66267f" offset="1"/>
  </radialGradient>
  <linearGradient id="linearGradient1019-1" x1="16.933" x2="16.933" y1="291.12" y2="268.25" gradientTransform="matrix(.37026 0 0 .37026 19.565 -89.476)" gradientUnits="userSpaceOnUse">
   <stop stop-color="#4e1d61" offset="0"/>
   <stop stop-color="#c68ede" offset="1"/>
  </linearGradient>
  <linearGradient id="linearGradient1033-0" x1="16.933" x2="16.933" y1="288.26" y2="272.06" gradientTransform="matrix(.37026 0 0 .37026 19.565 -89.476)" gradientUnits="userSpaceOnUse">
   <stop stop-color="#e5e5e5" offset="0"/>
   <stop stop-color="#f1f1f1" offset="1"/>
  </linearGradient>
  <linearGradient id="linearGradient4590-6" x1="47.902" x2="47.902" y1="1016.9" y2="991.52" gradientTransform="matrix(.067905 0 0 .067905 4.6757 -6.6972)" gradientUnits="userSpaceOnUse">
   <stop stop-color="#fff" offset="0"/>
   <stop stop-color="#fff" stop-opacity="0" offset="1"/>
  </linearGradient>
  <linearGradient id="linearGradient4574-2" x1="48.543" x2="48.543" y1="1016.1" y2="993.68" gradientTransform="matrix(.067905 0 0 .067905 4.6757 -6.6972)" gradientUnits="userSpaceOnUse">
   <stop stop-color="#d6d6d6" offset="0"/>
   <stop stop-color="#d0d0d0" offset="1"/>
  </linearGradient>
  <linearGradient id="linearGradient1011-8" x1="31.807" x2="31.807" y1="26.918" y2="36.986" gradientTransform="matrix(.26459 0 0 .26459 17.368 5.6135)" gradientUnits="userSpaceOnUse">
   <stop offset="0"/>
   <stop stop-opacity=".5" offset="1"/>
  </linearGradient>
  <linearGradient id="linearGradient4612-2" x1="299.74" x2="323.46" y1="304.59" y2="304.59" gradientTransform="matrix(.066937 0 0 .066426 4.9767 -5.8872)" gradientUnits="userSpaceOnUse">
   <stop stop-color="#1a1d1e" offset="0"/>
   <stop stop-color="#282d30" offset=".16667"/>
   <stop stop-color="#34393d" offset=".50565"/>
   <stop stop-color="#2a2e32" offset=".83333"/>
   <stop stop-color="#1b1d1f" offset="1"/>
  </linearGradient>
 </defs>
 <metadata>
  <rdf:RDF>
   <cc:Work rdf:about="">
    <dc:format>image/svg+xml</dc:format>
    <dc:type rdf:resource="http://purl.org/dc/dcmitype/StillImage"/>
   </cc:Work>
  </rdf:RDF>
 </metadata>
 <g transform="translate(-17.368 -5.6098)">
  <circle cx="25.834" cy="14.076" r="7.9377" filter="url(#filter11290-0)" image-rendering="optimizeSpeed" opacity=".25" stroke-width=".14032"/>
  <circle cx="25.834" cy="14.076" r="7.9373" fill="url(#linearGradient1195)" image-rendering="optimizeSpeed" stroke-linecap="round" stroke-width=".51902"/>
  <g stroke-width=".35931">
   <rect x="20.014" y="8.7534" width="11.642" height="11.642" rx="5.8212" ry="5.8212" opacity=".0375"/>
   <rect x="20.014" y="8.5201" width="11.642" height="11.642" rx="5.8212" ry="5.8212" opacity=".0625"/>
   <rect x="21.337" y="9.8419" width="8.9962" height="8.9962" rx="4.4983" ry="4.4983" opacity=".25"/>
   <rect x="21.39" y="9.8938" width="8.8903" height="8.8903" rx="4.4453" ry="4.4453" opacity=".25"/>
   <rect x="21.39" y="9.8938" width="8.8903" height="8.8903" rx="4.4453" ry="4.4453" opacity=".0875"/>
   <rect x="22.395" y="10.901" width="6.8794" height="6.8794" rx="3.4397" ry="3.4397" opacity=".25"/>
   <rect x="24.011" y="12.515" width="3.6469" height="3.6469" rx="1.8235" ry="1.8235" opacity=".25"/>
   <rect x="24.151" y="12.656" width="3.3664" height="3.3664" rx="1.6832" ry="1.6832" opacity=".25"/>
   <rect x="23.983" y="12.489" width="3.7044" height="3.7044" rx="1.8521" ry="1.8521" opacity=".25"/>
  </g>
  <path d="m25.835 12.488c-1.0261 0-1.8522 0.82606-1.8522 1.8522s0.82606 1.8522 1.8522 1.8522 1.8522-0.82606 1.8522-1.8522-0.82606-1.8522-1.8522-1.8522zm0 0.05685c0.99448 0 1.7953 0.80085 1.7953 1.7953 0 0.99448-0.80085 1.7953-1.7953 1.7953-0.99448 0-1.7953-0.80085-1.7953-1.7953 0-0.99448 0.80085-1.7953 1.7953-1.7953z" opacity=".0875" stroke-width=".25677"/>
  <path d="m25.175 11.694c-0.07453 0-0.13436 0.05983-0.13436 0.13436v1.4563l0.52609 0.51212-0.52609 0.51265v2.5421c0 0.07453 0.05983 0.13436 0.13436 0.13436h1.3188c0.07453 0 0.13436-0.05983 0.13436-0.13436v-1.4671l-0.52919-0.51524 0.52919-0.51524v-2.5255c0-0.07453-0.05983-0.13436-0.13436-0.13436z" opacity=".25" stroke-width=".25677"/>
  <g stroke-width=".35931">
   <rect x="20.014" y="8.3799" width="11.642" height="11.642" rx="5.8212" ry="5.8212" opacity=".175"/>
   <rect x="21.337" y="9.7017" width="8.9962" height="8.9962" rx="4.4983" ry="4.4983" opacity=".35"/>
   <rect x="21.39" y="9.7535" width="8.8903" height="8.8903" rx="4.4453" ry="4.4453" opacity=".35"/>
   <rect x="21.39" y="9.7535" width="8.8903" height="8.8903" rx="4.4453" ry="4.4453" opacity=".1225"/>
   <rect x="22.395" y="10.761" width="6.8794" height="6.8794" rx="3.4397" ry="3.4397" opacity=".35"/>
   <rect x="24.011" y="12.375" width="3.6469" height="3.6469" rx="1.8235" ry="1.8235" opacity=".35"/>
   <rect x="24.151" y="12.516" width="3.3664" height="3.3664" rx="1.6832" ry="1.6832" opacity=".35"/>
   <rect x="23.983" y="12.349" width="3.7044" height="3.7044" rx="1.8521" ry="1.8521" opacity=".35"/>
  </g>
  <path d="m25.835 12.347c-1.0261 0-1.8522 0.82606-1.8522 1.8522s0.82606 1.8522 1.8522 1.8522 1.8522-0.82606 1.8522-1.8522-0.82606-1.8522-1.8522-1.8522zm0 0.05685c0.99448 0 1.7953 0.80085 1.7953 1.7953 0 0.99448-0.80085 1.7953-1.7953 1.7953-0.99448 0-1.7953-0.80085-1.7953-1.7953 0-0.99448 0.80085-1.7953 1.7953-1.7953z" opacity=".1225" stroke-width=".25677"/>
  <path d="m25.175 11.554c-0.07453 0-0.13436 0.05983-0.13436 0.13436v1.4563l0.52609 0.51212-0.52609 0.51265v2.5421c0 0.07453 0.05983 0.13436 0.13436 0.13436h1.3188c0.07453 0 0.13436-0.05983 0.13436-0.13436v-1.4671l-0.52919-0.51524 0.52919-0.51524v-2.5255c0-0.07453-0.05983-0.13436-0.13436-0.13436z" opacity=".35" stroke-width=".25677"/>
  <g stroke-width=".37026">
   <rect x="20.014" y="8.2608" width="11.642" height="11.642" rx="5.8212" ry="5.8212" fill="url(#linearGradient987)"/>
   <rect x="21.39" y="9.6345" width="8.8903" height="8.8903" rx="4.4453" ry="4.4453" fill="url(#radialGradient4514-5)"/>
   <rect x="21.389" y="9.6345" width="8.8903" height="8.8903" rx="4.4453" ry="4.4453" fill="url(#linearGradient1019-1)" opacity=".35"/>
   <rect x="22.395" y="10.642" width="6.8794" height="6.8794" rx="3.4397" ry="3.4397" fill="url(#linearGradient1033-0)"/>
   <rect x="24.011" y="12.256" width="3.6469" height="3.6469" rx="1.8235" ry="1.8235" fill="url(#linearGradient4590-6)"/>
   <rect x="24.151" y="12.397" width="3.3664" height="3.3664" rx="1.6832" ry="1.6832" fill="url(#linearGradient4574-2)"/>
   <rect x="23.983" y="12.23" width="3.7044" height="3.7044" rx="1.8521" ry="1.8521" fill="#dfdfdf"/>
  </g>
  <path d="m25.835 12.228c-1.0261 0-1.8522 0.82606-1.8522 1.8522s0.82606 1.8522 1.8522 1.8522 1.8522-0.82606 1.8522-1.8522-0.82606-1.8522-1.8522-1.8522zm0 0.05684c0.99448 0 1.7953 0.80085 1.7953 1.7953 0 0.99448-0.80085 1.7953-1.7953 1.7953-0.99448 0-1.7953-0.80085-1.7953-1.7953 0-0.99448 0.80085-1.7953 1.7953-1.7953z" fill="url(#linearGradient1011-8)" opacity=".35" stroke-width=".26459"/>
  <path d="m25.175 11.435c-0.07453 0-0.13436 0.05983-0.13436 0.13436v1.4563l0.52609 0.51212-0.52609 0.51265v2.5421c0 0.07453 0.05983 0.13436 0.13436 0.13436h1.3188c0.07453 0 0.13436-0.05983 0.13436-0.13436v-1.4671l-0.52919-0.51524 0.52919-0.51524v-2.5255c0-0.07453-0.05983-0.13436-0.13436-0.13436h-1.3188z" fill="url(#linearGradient4612-2)" stroke-width=".26459"/>
 </g>
</svg>
