<?xml version="1.0" encoding="UTF-8" standalone="no"?>
<svg
   xmlns:dc="http://purl.org/dc/elements/1.1/"
   xmlns:cc="http://creativecommons.org/ns#"
   xmlns:rdf="http://www.w3.org/1999/02/22-rdf-syntax-ns#"
   xmlns:svg="http://www.w3.org/2000/svg"
   xmlns="http://www.w3.org/2000/svg"
   xmlns:sodipodi="http://sodipodi.sourceforge.net/DTD/sodipodi-0.dtd"
   xmlns:inkscape="http://www.inkscape.org/namespaces/inkscape"
   inkscape:version="1.0 (4035a4fb49, 2020-05-01)"
   sodipodi:docname="org.gnome.PowerStats.svg"
   viewBox="0 0 64 64"
   version="1.1"
   image-rendering="optimizeSpeed"
   enable-background="new 0 0 1024 1024"
   height="64"
   width="64"
   id="VirtualBox">
  <metadata
     id="metadata48">
    <rdf:RDF>
      <cc:Work
         rdf:about="">
        <dc:format>image/svg+xml</dc:format>
        <dc:type
           rdf:resource="http://purl.org/dc/dcmitype/StillImage" />
        <dc:title></dc:title>
      </cc:Work>
    </rdf:RDF>
  </metadata>
  <sodipodi:namedview
     inkscape:current-layer="VirtualBox"
     inkscape:window-maximized="1"
     inkscape:window-y="36"
     inkscape:window-x="0"
     inkscape:cy="23.585498"
     inkscape:cx="30.457776"
     inkscape:zoom="4.2150193"
     showgrid="false"
     id="namedview46"
     inkscape:window-height="932"
     inkscape:window-width="1920"
     inkscape:pageshadow="2"
     inkscape:pageopacity="0"
     guidetolerance="10"
     gridtolerance="10"
     objecttolerance="10"
     borderopacity="1"
     bordercolor="#666666"
     pagecolor="#ffffff" />
  <defs
     id="defs15">
    <linearGradient
       gradientUnits="userSpaceOnUse"
       gradientTransform="matrix(3.7796 0 0 3.7796 -1e-7 -1.0123e-6)"
       y2="1.852"
       y1="15.081"
       x2="7.9373"
       x1="7.9373"
       id="linearGradient862">
      <stop
         id="stop2"
         offset="0"
         stop-color="#767574" />
      <stop
         id="stop4"
         offset="1"
         stop-color="#d1e7ee" />
    </linearGradient>
    <radialGradient
       gradientUnits="userSpaceOnUse"
       gradientTransform="matrix(1.7319 0 0 1.7319 -39.028 -27.91)"
       r="5.5697"
       cy="38.101"
       cx="51.067"
       id="radialGradient894">
      <stop
         id="stop7"
         offset="0"
         stop-color="#fff" />
      <stop
         id="stop9"
         offset="1"
         stop-opacity="0"
         stop-color="#fff" />
    </radialGradient>
    <filter
       color-interpolation-filters="sRGB"
       height="1.2843"
       width="1.1742"
       y="-.14213"
       x="-.087087"
       id="filter1014">
      <feGaussianBlur
         id="feGaussianBlur12"
         stdDeviation="1.5156679" />
    </filter>
    <filter
       id="filter11290"
       x="-.024"
       y="-.024"
       width="1.048"
       height="1.048"
       color-interpolation-filters="sRGB">
      <feGaussianBlur
         stdDeviation="0.15875313"
         id="feGaussianBlur873" />
    </filter>
    <linearGradient
       id="linearGradient1005"
       x1=".73911"
       x2="16.388"
       y1="16.296"
       y2=".64687"
       gradientTransform="translate(-0.0078552,-5.0139e-5)"
       gradientUnits="userSpaceOnUse">
      <stop
         stop-color="#32dcff"
         offset="0"
         id="stop876" />
      <stop
         stop-color="#3296ff"
         offset="1"
         id="stop878" />
    </linearGradient>
  </defs>
  <g
     transform="matrix(3.779602,0,0,3.779602,-0.10280494,0.02456761)"
     id="g936">
    <circle
       cx="8.4937"
       cy="8.46"
       r="7.9376998"
       filter="url(#filter11290)"
       opacity="0.25"
       stroke-width="0.14032"
       id="circle885" />
    <path
       style="fill:url(#linearGradient1005)"
       d="m 16.431,8.4599 c 0,0.95154 -0.16749,1.8639 -0.47464,2.7094 -0.21351,0.58768 -0.49439,1.1433 -0.83393,1.6572 -0.14222,0.21608 -0.29514,0.42475 -0.45746,0.62529 -0.51966,0.64179 -1.1372,1.2007 -1.8305,1.6543 -0.2553,0.16718 -0.52065,0.3201 -0.79536,0.45712 -1.0668,0.53389 -2.2711,0.83421 -3.5456,0.83421 -1.2745,0 -2.4788,-0.30032 -3.5456,-0.83424 -0.27474,-0.13705 -0.5404,-0.28997 -0.7957,-0.45712 -0.70207,-0.45973 -1.327,-1.0274 -1.8509,-1.6798 -0.16263,-0.20216 -0.31524,-0.41275 -0.45746,-0.63078 -0.33046,-0.5054 -0.60421,-1.0507 -0.8135,-1.627 -0.30711,-0.84529 -0.4743,-1.7573 -0.4743,-2.7085 0,-4.3838 3.5537,-7.9375 7.9375,-7.9375 2.2005,0 4.1917,0.89548 5.6295,2.3417 0.41436,0.41662 0.78274,0.87929 1.0963,1.3795 0.29645,0.47107 0.54428,0.97582 0.73704,1.5068 0.30718,0.84559 0.47467,1.7579 0.47467,2.7094 z"
       fill="url(#linearGradient1005)"
       stroke-width="0.031006"
       id="path887" />
    <g
       fill="#5e4aa6"
       stroke-width="0.26458"
       id="g897">
      <circle
         cx="-330.35001"
         cy="-328.38"
         r="0"
         id="circle889" />
      <circle
         cx="-312.10999"
         cy="-326.25"
         r="0"
         id="circle891" />
      <circle
         cx="-306.01999"
         cy="-333.07001"
         r="0"
         id="circle893" />
      <circle
         cx="-308.84"
         cy="-326.01001"
         r="0"
         id="circle895" />
    </g>
    <g
       transform="translate(-28.386,6.1639)"
       id="g911">
      <g
         transform="translate(28.461,-6.0236)"
         fill="none"
         stroke="#ffffff"
         stroke-dashoffset="0.42096"
         stroke-width="2.3812"
         id="g903">
        <circle
           cx="8.4188004"
           cy="8.3270998"
           r="4.1536999"
           opacity="0.2"
           id="circle899" />
        <path
           d="M 11.198,11.399 A 4.1537,4.1537 0 0 1 8.4185,12.466 4.1537,4.1537 0 0 1 4.2648,8.3123 4.1537,4.1537 0 0 1 8.4185,4.1586 4.1537,4.1537 0 0 1 11.198,5.2257"
           id="path901" />
      </g>
      <circle
         cx="36.880001"
         cy="2.296"
         r="1.9878"
         fill="#ffffff"
         id="circle905" />
      <text
         x="35.788818"
         y="2.7006078"
         fill="#32c3ff"
         font-family="sans-serif"
         font-size="1.1259px"
         letter-spacing="0px"
         stroke-width="0.028147"
         word-spacing="0px"
         style="line-height:1.25"
         xml:space="preserve"
         id="text909"><tspan
           x="35.788818"
           y="2.7006078"
           fill="#32c3ff"
           stroke-width="0.028147"
           id="tspan907">70%</tspan></text>
    </g>
  </g>
</svg>
