<?xml version="1.0" encoding="UTF-8" standalone="no"?>
<svg
   xmlns:dc="http://purl.org/dc/elements/1.1/"
   xmlns:cc="http://creativecommons.org/ns#"
   xmlns:rdf="http://www.w3.org/1999/02/22-rdf-syntax-ns#"
   xmlns:svg="http://www.w3.org/2000/svg"
   xmlns="http://www.w3.org/2000/svg"
   xmlns:sodipodi="http://sodipodi.sourceforge.net/DTD/sodipodi-0.dtd"
   xmlns:inkscape="http://www.inkscape.org/namespaces/inkscape"
   version="1.1"
   viewBox="0 0 64 64"
   id="svg47"
   sodipodi:docname="org.freedesktop.Piper.svg"
   width="64"
   height="64"
   inkscape:version="1.0.2 (e86c870879, 2021-01-15)">
  <metadata
     id="metadata51">
    <rdf:RDF>
      <cc:Work
         rdf:about="">
        <dc:format>image/svg+xml</dc:format>
        <dc:type
           rdf:resource="http://purl.org/dc/dcmitype/StillImage" />
        <dc:title></dc:title>
      </cc:Work>
    </rdf:RDF>
  </metadata>
  <sodipodi:namedview
     pagecolor="#ffffff"
     bordercolor="#666666"
     borderopacity="1"
     objecttolerance="10"
     gridtolerance="10"
     guidetolerance="10"
     inkscape:pageopacity="0"
     inkscape:pageshadow="2"
     inkscape:window-width="1920"
     inkscape:window-height="992"
     id="namedview49"
     showgrid="false"
     inkscape:zoom="6.1208931"
     inkscape:cx="-10.546403"
     inkscape:cy="27.968314"
     inkscape:window-x="0"
     inkscape:window-y="0"
     inkscape:window-maximized="1"
     inkscape:current-layer="svg47"
     inkscape:document-rotation="0" />
  <defs
     id="defs7">
    <linearGradient
       id="linearGradient840"
       x1="1"
       x2="47"
       gradientUnits="userSpaceOnUse">
      <stop
         style="stop-color:#edc55b"
         offset="0"
         id="stop2" />
      <stop
         style="stop-color:#efcb6d"
         offset="1"
         id="stop4" />
    </linearGradient>
    <linearGradient
       id="f-5"
       x1="-6.1472001"
       x2="-6.1472001"
       y1="-137.82001"
       y2="-100.78"
       gradientTransform="matrix(2.0044,0,0,2.0044,-42.747576,249.6374)"
       gradientUnits="userSpaceOnUse">
      <stop
         stop-color="#14dc78"
         offset="0"
         id="stop840" />
      <stop
         stop-color="#14a03c"
         offset="1"
         id="stop842" />
    </linearGradient>
    <filter
       id="filter2076"
       x="-0.048"
       y="-0.048"
       width="1.096"
       height="1.096"
       color-interpolation-filters="sRGB">
      <feGaussianBlur
         stdDeviation="1.1"
         id="feGaussianBlur161" />
    </filter>
    <linearGradient
       id="linearGradient2070"
       x1="145"
       x2="200"
       y1="59"
       y2="4"
       gradientTransform="translate(-140.5,0.49999998)"
       gradientUnits="userSpaceOnUse">
      <stop
         stop-color="#ffc841"
         offset="0"
         id="stop154" />
      <stop
         stop-color="#ffbe37"
         offset=".4925"
         id="stop156" />
      <stop
         stop-color="#ffc841"
         offset="1"
         id="stop158" />
    </linearGradient>
    <filter
       id="filter11290"
       x="-.024"
       y="-.024"
       width="1.048"
       height="1.048"
       color-interpolation-filters="sRGB">
      <feGaussianBlur
         stdDeviation="0.15875313"
         id="feGaussianBlur857" />
    </filter>
    <linearGradient
       id="linearGradient1005"
       x1=".8714"
       x2="16.246"
       y1="16.164"
       y2=".78937"
       gradientTransform="matrix(3.779602,0,0,3.779602,-0.1326656,0.02456655)"
       gradientUnits="userSpaceOnUse">
      <stop
         stop-color="#ffc841"
         offset="0"
         id="stop860" />
      <stop
         stop-color="#ffc841"
         offset="1"
         id="stop862" />
    </linearGradient>
    <linearGradient
       id="linearGradient1063"
       x1="8.5858"
       x2="16.465"
       y1="-5.5948"
       y2="-13.703"
       gradientUnits="userSpaceOnUse">
      <stop
         stop-color="#f5f5f5"
         offset="0"
         id="stop865" />
      <stop
         stop-color="#fff"
         offset="1"
         id="stop867" />
    </linearGradient>
    <linearGradient
       id="linearGradient1071"
       x1="8.9222"
       x2="15.926"
       y1="-5.3552"
       y2="-11.992"
       gradientUnits="userSpaceOnUse">
      <stop
         stop-color="#ffdc96"
         offset="0"
         id="stop870" />
      <stop
         stop-color="#fff"
         offset="1"
         id="stop872" />
    </linearGradient>
    <filter
       id="filter1091"
       x="-.084016"
       y="-.084016"
       width="1.168"
       height="1.168"
       color-interpolation-filters="sRGB">
      <feGaussianBlur
         stdDeviation="0.30215974"
         id="feGaussianBlur875" />
    </filter>
  </defs>
  <circle
     cx="8.4937"
     cy="8.46"
     r="7.9376998"
     filter="url(#filter11290)"
     opacity="0.25"
     stroke-width="0.14032"
     id="circle882"
     transform="matrix(3.779602,0,0,3.779602,-0.10280494,0.02456761)" />
  <path
     d="m 62.000383,31.999811 c 0,3.596442 -0.633046,7.0448 -1.79395,10.240453 -0.806984,2.221197 -1.868598,4.321219 -3.151924,6.263557 -0.537535,0.816696 -1.115512,1.605386 -1.729017,2.363347 -1.964108,2.425711 -4.298163,4.538168 -6.918562,6.252596 -0.964932,0.631873 -1.967849,1.20985 -3.006144,1.727731 -4.032079,2.017892 -8.583854,3.152982 -13.400957,3.152982 -4.817102,0 -9.368877,-1.13509 -13.400956,-3.153095 -1.038408,-0.517995 -2.042497,-1.095971 -3.00743,-1.727732 -2.653545,-1.737596 -5.015532,-3.883163 -6.9956646,-6.348975 -0.614677,-0.764085 -1.191482,-1.560031 -1.729017,-2.384098 -1.249007,-1.91021 -2.283673,-3.971227 -3.074706,-6.149412 -1.160754,-3.19486 -1.792665,-6.641895 -1.792665,-10.237052 0,-16.569019 13.4315706,-30.0005905 30.0005906,-30.0005905 8.317014,0 15.842957,3.384558 21.277269,8.8506935 1.566116,1.574658 2.958446,3.323366 4.143578,5.213961 1.120463,1.780457 2.057162,3.688211 2.785718,5.695104 1.161018,3.195994 1.794064,6.644163 1.794064,10.240454 z"
     fill="url(#linearGradient1005)"
     stroke-width="0.11719"
     id="path884"
     style="fill:url(#linearGradient1005)" />
  <circle
     cx="12.39871"
     cy="22.095125"
     fill="url(#a)"
     r="0"
     id="circle4299"
     style="fill:url(#a);stroke-width:1.50101" />
  <circle
     cx="-1334.9465"
     cy="-1263.5726"
     r="0"
     fill="#5e4aa6"
     id="circle847" />
  <g
     fill="#5e4aa6"
     id="g859"
     transform="translate(-86.246576,-21.972602)">
    <circle
       cx="-149.14999"
       cy="23.855"
       r="0"
       fill-rule="evenodd"
       id="circle853" />
    <circle
       cx="-1150.9"
       cy="-1256.6"
       r="0"
       id="circle855" />
    <circle
       cx="-51.327"
       cy="8.8744001"
       r="0"
       fill-rule="evenodd"
       id="circle857" />
  </g>
  <g
     transform="matrix(1.6666667,0,0,1.6666667,-7.1551991,-7.1450008)"
     id="g939">
    <path
       d="m 16.993,11.987 0.0072,23 12.993,-0.0129 3.8e-5,-22.987 z"
       style="fill:#ea9b4a;fill-opacity:1"
       id="path937" />
  </g>
  <path
     d="m 27.833333,39.500151 v 8.333334 h 8.333334 v -8.333334 z"
     style="fill:#f2d392;stroke-width:1.66667"
     id="path945" />
  <g
     id="g999"
     transform="translate(5.9479475e-4)">
    <circle
       cx="31.166071"
       cy="44.500149"
       style="fill:#ffbe37;stroke-width:1.66667;paint-order:stroke fill markers;fill-opacity:1"
       id="circle947"
       r="1.6666667" />
    <circle
       cx="33.666073"
       cy="42.000149"
       style="fill:#ffbe37;stroke-width:1.66667;paint-order:stroke fill markers;fill-opacity:1"
       id="circle949"
       r="0.83333337" />
  </g>
  <path
     d="m 22.832738,14.500151 v 20 h 18.333334 v -20 z m 1.666667,1.666667 h 15 v 16.666667 h -15 z"
     style="fill:#9d9d9d;stroke-width:1.66667"
     id="path951" />
  <path
     d="m 31.166072,14.500151 v 16.666667 h -3.333334 v 5 h 8.333334 v -5 H 32.832738 V 14.500151 Z"
     style="fill:#7a7a7a;stroke-width:1.66667"
     id="path953" />
  <g
     fill="#5e4aa6"
     stroke-width="0.26458"
     id="g894"
     transform="matrix(3.779602,0,0,3.779602,-69.515646,0.02456761)">
    <circle
       cx="-330.35001"
       cy="-328.38"
       r="0"
       id="circle886" />
    <circle
       cx="-312.10999"
       cy="-326.25"
       r="0"
       id="circle888" />
    <circle
       cx="-306.01999"
       cy="-333.07001"
       r="0"
       id="circle890" />
    <circle
       cx="-308.84"
       cy="-326.01001"
       r="0"
       id="circle892" />
  </g>
</svg>
