<?xml version="1.0" encoding="UTF-8"?>
<svg width="64" height="64" version="1.1" viewBox="0 0 16.933 16.933" xmlns="http://www.w3.org/2000/svg" xmlns:cc="http://creativecommons.org/ns#" xmlns:dc="http://purl.org/dc/elements/1.1/" xmlns:rdf="http://www.w3.org/1999/02/22-rdf-syntax-ns#" xmlns:xlink="http://www.w3.org/1999/xlink">
 <defs>
  <filter id="filter11290-1" x="-.024" y="-.024" width="1.048" height="1.048" color-interpolation-filters="sRGB">
   <feGaussianBlur stdDeviation="0.15875313"/>
  </filter>
  <linearGradient id="linearGradient1005-2" x1=".73911" x2="16.388" y1="16.296" y2=".64687" gradientTransform="translate(16.629 5.7407)" gradientUnits="userSpaceOnUse">
   <stop stop-color="#dddfe1" offset="0"/>
   <stop stop-color="#f3f4f6" offset="1"/>
  </linearGradient>
  <linearGradient id="linearGradient1081" x1="11.144" x2="11.144" y1="15.929" y2="19.758" gradientTransform="matrix(.26458 0 0 .26458 21.27 -14.148)" gradientUnits="userSpaceOnUse">
   <stop stop-color="#ff5032" offset="0"/>
   <stop stop-color="#e63214" offset="1"/>
  </linearGradient>
  <linearGradient id="linearGradient1083" x1="11.144" x2="11.144" y1="15.929" y2="19.758" gradientTransform="matrix(.26458 0 0 .26458 18.211 4.706)" gradientUnits="userSpaceOnUse">
   <stop stop-color="#ff8214" offset="0"/>
   <stop stop-color="#ffbe14" offset="1"/>
  </linearGradient>
  <linearGradient id="linearGradient1085" x1="11.144" x2="11.144" y1="15.929" y2="19.758" gradientTransform="matrix(.26458 0 0 .26458 19.74 -14.148)" gradientUnits="userSpaceOnUse">
   <stop stop-color="#3cd23c" offset="0"/>
   <stop stop-color="#1eaa1e" offset="1"/>
  </linearGradient>
  <linearGradient id="linearGradient1053-6-9" x1="-127" x2="-72" y1="60" y2="5" gradientTransform="matrix(.20204 0 0 .16163 45.234 10.255)" gradientUnits="userSpaceOnUse">
   <stop stop-color="#32d7ff" offset="0"/>
   <stop stop-color="#329bff" offset="1"/>
  </linearGradient>
 </defs>
 <metadata>
  <rdf:RDF>
   <cc:Work rdf:about="">
    <dc:format>image/svg+xml</dc:format>
    <dc:type rdf:resource="http://purl.org/dc/dcmitype/StillImage"/>
   </cc:Work>
  </rdf:RDF>
 </metadata>
 <g transform="translate(-16.664 -5.734)">
  <circle cx="25.13" cy="14.201" r="7.9377" filter="url(#filter11290-1)" opacity=".25" stroke-width=".14032"/>
  <path d="m33.068 14.201c0 0.95153-0.16749 1.8639-0.47465 2.7093-0.21351 0.58768-0.49439 1.1433-0.83392 1.6572-0.14222 0.21608-0.29514 0.42475-0.45746 0.62528-0.51966 0.64179-1.1372 1.2007-1.8305 1.6543-0.2553 0.16718-0.52064 0.32011-0.79535 0.45711-1.0668 0.53389-2.2711 0.83422-3.5456 0.83422s-2.4788-0.30032-3.5456-0.83424c-0.27474-0.13705-0.5404-0.28998-0.79569-0.45711-0.70206-0.45973-1.327-1.0274-1.8509-1.6798-0.16263-0.20216-0.31524-0.41274-0.45746-0.63078-0.33046-0.5054-0.60422-1.0507-0.8135-1.627-0.30712-0.8453-0.47431-1.7573-0.47431-2.7085 0-4.3838 3.5538-7.9376 7.9376-7.9376 2.2005 0 4.1917 0.89549 5.6294 2.3417 0.41436 0.41663 0.78273 0.8793 1.0963 1.3795 0.29646 0.47108 0.54429 0.97582 0.73704 1.5068 0.30718 0.84559 0.47468 1.7579 0.47468 2.7093z" fill="url(#linearGradient1005-2)" stroke-width=".031006"/>
  <g>
   <g stroke-linecap="round" stroke-linejoin="round" stroke-width=".64549">
    <circle transform="scale(1,-1)" cx="24.209" cy="-9.4268" r=".52916" fill="url(#linearGradient1081)" style="paint-order:stroke fill markers"/>
    <circle cx="21.15" cy="9.4268" r=".52916" fill="url(#linearGradient1083)" style="paint-order:stroke fill markers"/>
    <circle transform="scale(1,-1)" cx="22.68" cy="-9.4268" r=".52916" fill="url(#linearGradient1085)" style="paint-order:stroke fill markers"/>
   </g>
   <path d="m22.364 11.065h5.5334c1.5453 0 2.7894 1.2441 2.7894 2.7894v3.311c0 1.5453-1.2441 2.7894-2.7894 2.7894h-5.5334c-1.5453 0-2.7894-1.2441-2.7894-2.7894v-3.311c0-1.5453 1.2441-2.7894 2.7894-2.7894z" color="#000000" color-rendering="auto" dominant-baseline="auto" fill="url(#linearGradient1053-6-9)" image-rendering="auto" shape-rendering="auto" solid-color="#000000" stop-color="#000000" style="font-feature-settings:normal;font-variant-alternates:normal;font-variant-caps:normal;font-variant-east-asian:normal;font-variant-ligatures:normal;font-variant-numeric:normal;font-variant-position:normal;font-variation-settings:normal;inline-size:0;isolation:auto;mix-blend-mode:normal;shape-margin:0;shape-padding:0;text-decoration-color:#000000;text-decoration-line:none;text-decoration-style:solid;text-indent:0;text-orientation:mixed;text-transform:none;white-space:normal"/>
  </g>
 </g>
</svg>
