<?xml version="1.0" encoding="UTF-8" standalone="no"?>
<svg
   xmlns:dc="http://purl.org/dc/elements/1.1/"
   xmlns:cc="http://creativecommons.org/ns#"
   xmlns:rdf="http://www.w3.org/1999/02/22-rdf-syntax-ns#"
   xmlns:svg="http://www.w3.org/2000/svg"
   xmlns="http://www.w3.org/2000/svg"
   xmlns:xlink="http://www.w3.org/1999/xlink"
   xmlns:sodipodi="http://sodipodi.sourceforge.net/DTD/sodipodi-0.dtd"
   xmlns:inkscape="http://www.inkscape.org/namespaces/inkscape"
   width="64"
   height="64"
   version="1.1"
   id="svg44"
   sodipodi:docname="pcloud.svg"
   inkscape:version="1.0.1 (3bc2e813f5, 2020-09-07)">
  <metadata
     id="metadata48">
    <rdf:RDF>
      <cc:Work
         rdf:about="">
        <dc:format>image/svg+xml</dc:format>
        <dc:type
           rdf:resource="http://purl.org/dc/dcmitype/StillImage" />
        <dc:title></dc:title>
      </cc:Work>
    </rdf:RDF>
  </metadata>
  <sodipodi:namedview
     pagecolor="#ffffff"
     bordercolor="#666666"
     borderopacity="1"
     objecttolerance="10"
     gridtolerance="10"
     guidetolerance="10"
     inkscape:pageopacity="0"
     inkscape:pageshadow="2"
     inkscape:window-width="1920"
     inkscape:window-height="1004"
     id="namedview46"
     showgrid="false"
     inkscape:zoom="4.5906698"
     inkscape:cx="-19.912354"
     inkscape:cy="24.891147"
     inkscape:window-x="0"
     inkscape:window-y="0"
     inkscape:window-maximized="1"
     inkscape:current-layer="svg44" />
  <defs
     id="defs18">
    <linearGradient
       inkscape:collect="always"
       id="linearGradient879">
      <stop
         style="stop-color:#00d2ec;stop-opacity:1"
         offset="0"
         id="stop875" />
      <stop
         style="stop-color:#09abb7;stop-opacity:1"
         offset="1"
         id="stop877" />
    </linearGradient>
    <linearGradient
       id="b"
       x1="399.57"
       x2="399.57"
       y1="545.8"
       y2="517.8"
       gradientTransform="matrix(2.1429,0,0,2.1429,-826.36,-1107.5)"
       gradientUnits="userSpaceOnUse">
      <stop
         stop-color="#3889e9"
         offset="0"
         id="stop2" />
      <stop
         stop-color="#5ea5fb"
         offset="1"
         id="stop4" />
    </linearGradient>
    <filter
       id="d"
       x="-.032008"
       y="-.04113"
       width="1.064"
       height="1.0823"
       color-interpolation-filters="sRGB">
      <feGaussianBlur
         stdDeviation="0.77372435"
         id="feGaussianBlur7" />
    </filter>
    <linearGradient
       id="linearGradient862"
       x1="7.9373"
       x2="7.9373"
       y1="11.58"
       y2="1.6491"
       gradientTransform="scale(3.7796)"
       gradientUnits="userSpaceOnUse">
      <stop
         stop-color="#0ba4ae"
         offset="0"
         id="stop10" />
      <stop
         stop-color="#00d2ec"
         offset="1"
         id="stop12" />
    </linearGradient>
    <filter
       id="filter991"
       x="-.04675"
       y="-.049318"
       width="1.0935"
       height="1.0986"
       color-interpolation-filters="sRGB">
      <feGaussianBlur
         stdDeviation="0.62333984"
         id="feGaussianBlur15" />
    </filter>
    <linearGradient
       inkscape:collect="always"
       xlink:href="#linearGradient879"
       id="linearGradient881"
       x1="-43.866634"
       y1="-8.8673801"
       x2="-43.866634"
       y2="51.782196"
       gradientUnits="userSpaceOnUse"
       gradientTransform="translate(74.420177,10.31782)" />
    <linearGradient
       inkscape:collect="always"
       xlink:href="#b"
       id="linearGradient895"
       gradientUnits="userSpaceOnUse"
       gradientTransform="matrix(2.1429,0,0,2.1429,-826.36,-1107.5)"
       x1="399.57"
       y1="545.8"
       x2="399.57"
       y2="517.8" />
    <linearGradient
       inkscape:collect="always"
       xlink:href="#b"
       id="linearGradient897"
       gradientUnits="userSpaceOnUse"
       gradientTransform="matrix(2.1429,0,0,2.1429,-826.36,-1107.5)"
       x1="399.57"
       y1="545.8"
       x2="399.57"
       y2="517.8" />
    <linearGradient
       id="linearGradient1057">
      <stop
         stop-color="#fff"
         offset="0"
         id="stop916" />
      <stop
         stop-color="#fff"
         stop-opacity="0"
         offset="1"
         id="stop918" />
    </linearGradient>
    <linearGradient
       id="linearGradient982"
       x1="34.999"
       x2="34.999"
       y1="27.545"
       y2="52.847"
       gradientTransform="matrix(1.5625,0,0,1.5625,0.40633,-5.1891)"
       gradientUnits="userSpaceOnUse">
      <stop
         stop-color="#32b4ff"
         offset="0"
         id="stop921" />
      <stop
         stop-color="#3287ff"
         offset="1"
         id="stop923" />
    </linearGradient>
    <style
       type="text/css"
       id="style926" />
    <style
       type="text/css"
       id="style928" />
    <linearGradient
       id="linearGradient1047"
       x1="21.314"
       x2="21.314"
       y1="18.052"
       y2="43.681"
       gradientTransform="matrix(1.5625,0,0,1.5625,-9.2253,1.3231)"
       gradientUnits="userSpaceOnUse">
      <stop
         stop-color="#14dc78"
         offset="0"
         id="stop930" />
      <stop
         stop-color="#14a03c"
         offset="1"
         id="stop932" />
    </linearGradient>
    <linearGradient
       id="linearGradient1049"
       x1="41.729"
       x2="41.729"
       y1="12.316"
       y2="37.368"
       gradientTransform="matrix(1.5625,0,0,1.5625,-8.1072,-10.908)"
       gradientUnits="userSpaceOnUse">
      <stop
         stop-color="#ff3c64"
         offset="0"
         id="stop935" />
      <stop
         stop-color="#ff4628"
         offset="1"
         id="stop937" />
    </linearGradient>
    <linearGradient
       id="linearGradient1059"
       x1="34.427"
       x2="34.427"
       y1="32.234"
       y2="39.768"
       gradientTransform="matrix(1,0,0,1.2271,0.20646,-10.975)"
       gradientUnits="userSpaceOnUse"
       xlink:href="#linearGradient1057" />
    <linearGradient
       id="linearGradient1063"
       x1="34.427"
       x2="34.427"
       y1="32.234"
       y2="39.768"
       gradientTransform="matrix(1,0,0,1.2271,-12.55,-19.793)"
       gradientUnits="userSpaceOnUse"
       xlink:href="#linearGradient1057" />
    <linearGradient
       id="linearGradient1067"
       x1="34.427"
       x2="34.427"
       y1="32.234"
       y2="39.768"
       gradientTransform="matrix(1,0,0,1.2271,5.7554,-25.761)"
       gradientUnits="userSpaceOnUse"
       xlink:href="#linearGradient1057" />
    <filter
       id="filter11290"
       x="-.024"
       y="-.024"
       width="1.048"
       height="1.048"
       color-interpolation-filters="sRGB">
      <feGaussianBlur
         stdDeviation="0.15875313"
         id="feGaussianBlur943" />
    </filter>
    <linearGradient
       id="linearGradient1005"
       x1=".73911"
       x2="16.388"
       y1="16.296"
       y2=".64687"
       gradientTransform="matrix(3.7796,0,0,3.7796,-72.796198,-47.99467)"
       gradientUnits="userSpaceOnUse">
      <stop
         stop-color="#dddfe1"
         offset="0"
         id="stop946" />
      <stop
         stop-color="#f3f4f6"
         offset="1"
         id="stop948" />
    </linearGradient>
  </defs>
  <circle
     transform="matrix(3.7796,0,0,3.7796,-0.10278795,0.02458453)"
     cx="8.4937"
     cy="8.46"
     r="7.9376998"
     filter="url(#filter11290)"
     opacity="0.25"
     stroke-width="0.14032"
     id="circle953" />
  <circle
     style="fill:url(#linearGradient881);fill-opacity:1;stroke-width:1.74368;stroke-linecap:round"
     id="path873"
     cx="32"
     cy="32"
     r="30" />
  <circle
     cx="32.02"
     cy="32.043999"
     r="30.000999"
     fill-opacity="0"
     id="circle24"
     style="stroke-width:1.5715" />
  <circle
     cx="32.02"
     cy="32.043999"
     r="0"
     fill="url(#b)"
     id="circle26"
     style="fill:url(#linearGradient895);stroke-width:1.5715" />
  <circle
     cx="32.02"
     cy="32.043999"
     r="30.000999"
     fill-opacity="0"
     id="circle28"
     style="stroke-width:1.5715" />
  <circle
     cx="32.02"
     cy="32.043999"
     r="0"
     fill="url(#b)"
     id="circle30"
     style="fill:url(#linearGradient897);stroke-width:1.5715" />
  <path
     id="path32"
     style="stroke-width:1.71833;fill:#ffffff;fill-opacity:1;opacity:0.5"
     d="M 20.251953 13.175781 A 13.779483 13.779483 0 0 0 6.4921875 26.552734 A 13.779483 13.779483 0 0 0 2.1503906 29.013672 A 30 30 0 0 0 2 32 A 30 30 0 0 0 2.8671875 39.158203 C 3.6596883 39.017391 4.4548097 38.891856 5.2558594 38.802734 C 5.371534 33.76429 9.4950113 29.738421 14.542969 29.734375 C 14.550069 29.73514 14.557353 29.735528 14.564453 29.736328 C 14.645453 22.470007 20.567464 16.621328 27.845703 16.619141 C 28.390256 16.619688 28.930528 16.665639 29.46875 16.732422 A 13.779483 13.779483 0 0 0 20.251953 13.175781 z M 57.050781 28.119141 C 57.175673 28.913096 57.259701 29.719785 57.259766 30.548828 C 57.253766 32.675889 56.811544 34.778482 55.960938 36.728516 C 57.754581 37.340631 59.498226 38.084127 61.1875 38.9375 A 30 30 0 0 0 62 32 A 30 30 0 0 0 61.884766 29.378906 A 10.043649 10.043649 0 0 0 57.050781 28.119141 z " />
  <path
     d="m 40.823,14.896 a 14.28,14.257 0 0 0 -7.974,2.4453 12.151,12.131 0 0 0 -4.6482,-0.92774 12.151,12.131 0 0 0 -12.147,11.996 8.5014,8.4875 0 0 0 -0.01956,-0.002 8.5014,8.4875 0 0 0 -8.4924,8.293 37.852,37.79 0 0 0 -4.615,0.80469 30.05,30.001 0 0 0 29.083,22.539 30.05,30.001 0 0 0 28.932,-22.008 37.852,37.79 0 0 0 -7.0271,-3.2324 14.28,14.257 0 0 0 1.1875,-5.6523 14.28,14.257 0 0 0 -14.279,-14.256 z"
     filter="url(#d)"
     opacity="0.05"
     id="path34"
     style="stroke-width:1.5715" />
  <path
     id="path36"
     style="stroke-width:1.71833;fill:#ffffff;fill-opacity:1"
     d="M 41.646484 14.958984 C 38.538392 14.963984 35.502776 15.895036 32.927734 17.632812 C 31.316665 16.964842 29.590062 16.620902 27.845703 16.619141 C 20.566917 16.621141 14.645367 22.470116 14.564453 29.736328 C 14.557353 29.735591 14.550089 29.735175 14.542969 29.734375 C 9.4949018 29.738375 5.371545 33.76429 5.2558594 38.802734 C 4.454635 38.891875 3.6598596 39.017351 2.8671875 39.158203 A 30 30 0 0 0 32 62 A 30 30 0 0 0 61.1875 38.9375 C 59.498274 38.084146 57.754552 37.340629 55.960938 36.728516 C 56.811543 34.778373 57.253752 32.673827 57.259766 30.546875 C 57.259163 21.938142 50.268775 14.960078 41.646484 14.958984 z " />
  <path
     d="m32 23c-8.8227 0-16 7.1773-16 16 0 8.8227 7.1773 16 16 16 8.8227 0 16-7.1773 16-16 0-8.8227-7.1773-16-16-16zm0 2.666c7.352 0 13.334 5.982 13.334 13.334 0 7.352-5.982 13.334-13.334 13.334-7.352 0-13.334-5.982-13.334-13.334 0-7.352 5.982-13.334 13.334-13.334zm-4.666 5.334c-1.1053 0-2 0.896-2 2v13.334c0 1.104 0.89467 2 2 2 1.1053 0 2-0.896 2-2v-3.334h4.666c3.308 0 6-2.692 6-6s-2.692-6-6-6h-6.666zm2 4h4.666c1.1027 0 2 0.89733 2 2s-0.89733 2-2 2h-4.666v-4z"
     fill="#00bcd4"
     stroke-width=".53333"
     id="path40" />
  <path
     d="m32 23c-8.8227 0-16 7.1773-16 16 0 0.16886 0.020171 0.33238 0.025391 0.5 0.26749-8.59 7.3208-15.5 15.975-15.5 8.6538 0 15.707 6.91 15.975 15.5 0.00522-0.16762 0.025391-0.33114 0.025391-0.5 0-8.8227-7.1773-16-16-16zm-4.666 8c-1.1053 0-2 0.896-2 2v1c0-1.104 0.89467-2 2-2h6.666c3.1394 0 5.7194 2.4253 5.9746 5.5 0.013705-0.16509 0.025391-0.33144 0.025391-0.5 0-3.308-2.692-6-6-6h-6.666zm8.5938 6.5c-0.22381 0.85985-0.99887 1.5-1.9277 1.5h-4.666v1h4.666c1.1027 0 2-0.89733 2-2 0-0.1738-0.030388-0.33911-0.072266-0.5zm-17.236 2c-0.006249 0.16727-0.02539 0.33123-0.02539 0.5 0 7.352 5.982 13.334 13.334 13.334 7.352 0 13.334-5.982 13.334-13.334 0-0.16877-0.019141-0.33273-0.02539-0.5-0.26597 7.1194-6.1254 12.834-13.309 12.834-7.1832 0-13.043-5.7146-13.309-12.834z"
     filter="url(#filter991)"
     opacity=".15"
     stroke-width=".53333"
     id="path42" />
  <circle
     cx="-1321.3643"
     cy="-1289.6193"
     r="0"
     fill="#5e4aa6"
     id="circle957" />
  <circle
     cx="-221.81424"
     cy="-24.164238"
     r="0"
     fill="#5e4aa6"
     fill-rule="evenodd"
     id="circle959" />
  <g
     transform="matrix(3.7796,0,0,3.7796,-175.58425,-86.739237)"
     fill="#5e4aa6"
     stroke-width="0.26458"
     id="g983">
    <circle
       cx="-330.35001"
       cy="-328.38"
       r="0"
       id="circle975" />
    <circle
       cx="-312.10999"
       cy="-326.25"
       r="0"
       id="circle977" />
    <circle
       cx="-306.01999"
       cy="-333.07001"
       r="0"
       id="circle979" />
    <circle
       cx="-308.84"
       cy="-326.01001"
       r="0"
       id="circle981" />
  </g>
</svg>
