<?xml version="1.0" encoding="UTF-8" standalone="no"?>
<svg
   xmlns:dc="http://purl.org/dc/elements/1.1/"
   xmlns:cc="http://creativecommons.org/ns#"
   xmlns:rdf="http://www.w3.org/1999/02/22-rdf-syntax-ns#"
   xmlns:svg="http://www.w3.org/2000/svg"
   xmlns="http://www.w3.org/2000/svg"
   xmlns:xlink="http://www.w3.org/1999/xlink"
   xmlns:sodipodi="http://sodipodi.sourceforge.net/DTD/sodipodi-0.dtd"
   xmlns:inkscape="http://www.inkscape.org/namespaces/inkscape"
   width="64"
   height="64"
   version="1.1"
   viewBox="0 0 16.933 16.933"
   id="svg152"
   sodipodi:docname="popcorntime.svg"
   inkscape:version="1.0.1 (3bc2e813f5, 2020-09-07)">
  <metadata
     id="metadata156">
    <rdf:RDF>
      <cc:Work
         rdf:about="">
        <dc:format>image/svg+xml</dc:format>
        <dc:type
           rdf:resource="http://purl.org/dc/dcmitype/StillImage" />
        <dc:title></dc:title>
      </cc:Work>
    </rdf:RDF>
  </metadata>
  <sodipodi:namedview
     pagecolor="#ffffff"
     bordercolor="#666666"
     borderopacity="1"
     objecttolerance="10"
     gridtolerance="10"
     guidetolerance="10"
     inkscape:pageopacity="0"
     inkscape:pageshadow="2"
     inkscape:window-width="1920"
     inkscape:window-height="1004"
     id="namedview154"
     showgrid="false"
     inkscape:zoom="3.1054688"
     inkscape:cx="-42.419097"
     inkscape:cy="17.806679"
     inkscape:window-x="0"
     inkscape:window-y="0"
     inkscape:window-maximized="1"
     inkscape:current-layer="svg152"
     inkscape:document-rotation="0" />
  <defs
     id="defs74">
    <linearGradient
       id="linearGradient1089">
      <stop
         stop-color="#fff"
         offset="0"
         id="stop2" />
      <stop
         stop-color="#fff"
         stop-opacity=".81961"
         offset=".87848"
         id="stop4" />
      <stop
         stop-color="#fff"
         stop-opacity="0"
         offset="1"
         id="stop6" />
    </linearGradient>
    <linearGradient
       id="linearGradient1079">
      <stop
         stop-color="#000001"
         offset="0"
         id="stop9" />
      <stop
         stop-color="#460201"
         offset="1"
         id="stop11" />
    </linearGradient>
    <linearGradient
       id="linearGradient974"
       x1="2.2366"
       x2="2.2366"
       y1="13.119"
       y2="42.318"
       gradientTransform="matrix(.15669 0 0 .15669 9.3819 7.3387)"
       gradientUnits="userSpaceOnUse">
      <stop
         stop-color="#d40d0e"
         offset="0"
         id="stop14" />
      <stop
         stop-color="#790708"
         offset="1"
         id="stop16" />
    </linearGradient>
    <linearGradient
       id="linearGradient982"
       x1="-2.552"
       x2="15.98"
       y1="15.093"
       y2="55.064"
       gradientTransform="matrix(.15669 0 0 .15669 9.3819 7.3387)"
       gradientUnits="userSpaceOnUse">
      <stop
         stop-color="#fff"
         offset="0"
         id="stop19" />
      <stop
         stop-color="#979797"
         offset="1"
         id="stop21" />
    </linearGradient>
    <linearGradient
       id="linearGradient998"
       x1="-81.301"
       x2="-84.621"
       y1="25.932"
       y2="51.122"
       gradientTransform="matrix(.15669 0 0 .15669 18.318 5.517)"
       gradientUnits="userSpaceOnUse">
      <stop
         stop-color="#adc7d9"
         stop-opacity=".99216"
         offset="0"
         id="stop24" />
      <stop
         stop-color="#616e78"
         stop-opacity=".99608"
         offset="1"
         id="stop26" />
    </linearGradient>
    <linearGradient
       id="linearGradient1006"
       x1="-78.188"
       x2="-81.388"
       y1="51.099"
       y2="22.185"
       gradientTransform="matrix(.15669 0 0 .15669 18.318 5.517)"
       gradientUnits="userSpaceOnUse">
      <stop
         stop-color="#440506"
         stop-opacity=".97647"
         offset="0"
         id="stop29" />
      <stop
         stop-color="#97090b"
         offset="1"
         id="stop31" />
    </linearGradient>
    <radialGradient
       id="radialGradient1022"
       cx="51.783"
       cy="-71.55"
       r="26.61"
       gradientTransform="matrix(1.921 .023523 -.019226 1.5701 -49.551 42.593)"
       gradientUnits="userSpaceOnUse">
      <stop
         stop-color="#f9eee5"
         offset="0"
         id="stop34" />
      <stop
         stop-color="#f4e7db"
         offset=".31739"
         id="stop36" />
      <stop
         stop-color="#d3b28f"
         offset="1"
         id="stop38" />
    </radialGradient>
    <radialGradient
       id="radialGradient1034"
       cx="51.067"
       cy="-67.575"
       r="26.61"
       gradientTransform="matrix(4.7569 2.9686 -1.4582 2.3366 -148.45 -241.15)"
       gradientUnits="userSpaceOnUse">
      <stop
         stop-color="#ecded0"
         stop-opacity="0"
         offset="0"
         id="stop41" />
      <stop
         stop-color="#ebddcf"
         stop-opacity="0"
         offset=".33654"
         id="stop43" />
      <stop
         stop-color="#cca987"
         offset="1"
         id="stop45" />
    </radialGradient>
    <linearGradient
       id="linearGradient1081"
       x1="-16.631"
       x2="-16.631"
       y1="-4.616"
       y2=".58114"
       gradientTransform="translate(-17.009 -11.387)"
       gradientUnits="userSpaceOnUse"
       xlink:href="#linearGradient1079" />
    <radialGradient
       id="radialGradient1091"
       cx="-33.569"
       cy="-13.357"
       r="4.3295"
       gradientUnits="userSpaceOnUse"
       xlink:href="#linearGradient1089" />
    <linearGradient
       id="linearGradient1138"
       x1="-23.529"
       x2="-23.529"
       y1="-1.3942"
       y2="6.5906"
       gradientTransform="translate(-21.515 .93544)"
       gradientUnits="userSpaceOnUse">
      <stop
         stop-color="#290000"
         offset="0"
         id="stop50" />
      <stop
         stop-color="#420002"
         offset=".14975"
         id="stop52" />
      <stop
         stop-color="#3b0002"
         offset="1"
         id="stop54" />
    </linearGradient>
    <linearGradient
       id="linearGradient1054"
       x1="48.251"
       x2="48.251"
       y1="-35.021"
       y2="-44.108"
       gradientUnits="userSpaceOnUse">
      <stop
         stop-color="#e2ac81"
         offset="0"
         id="stop57" />
      <stop
         stop-color="#ebc6a8"
         stop-opacity="0"
         offset="1"
         id="stop59" />
    </linearGradient>
    <radialGradient
       id="radialGradient1103"
       cx="79.186"
       cy="-9.4116"
       r="30.805"
       gradientTransform="matrix(.15669 0 0 .060559 -3.5029 13.658)"
       gradientUnits="userSpaceOnUse">
      <stop
         offset="0"
         id="stop62" />
      <stop
         stop-opacity=".16975"
         offset=".59509"
         id="stop64" />
      <stop
         stop-opacity="0"
         offset="1"
         id="stop66" />
    </radialGradient>
    <linearGradient
       id="linearGradient862"
       x1="7.9373"
       x2="7.9373"
       y1="15.081"
       y2="1.852"
       gradientUnits="userSpaceOnUse"
       gradientTransform="translate(-0.57894493,-2.4747137)">
      <stop
         stop-color="#f3f1ee"
         offset="0"
         id="stop69" />
      <stop
         stop-color="#fff"
         offset="1"
         id="stop71" />
    </linearGradient>
    <radialGradient
       id="radialGradient1463"
       cx="58.46"
       cy="10.178"
       r="7.2759"
       gradientTransform="matrix(-1.2984,0.66652,-0.55127,-1.0739,84.6,2.8304)"
       gradientUnits="userSpaceOnUse">
      <stop
         stop-color="#fde34e"
         offset="0"
         id="stop981" />
      <stop
         stop-color="#f8a621"
         offset="1"
         id="stop983" />
    </radialGradient>
    <linearGradient
       id="linearGradient1473"
       x1="85.563"
       x2="85.563"
       y1="10.399"
       y2="6.5915"
       gradientTransform="translate(-23.132,-0.44226)"
       gradientUnits="userSpaceOnUse">
      <stop
         stop-color="#fafafa"
         offset="0"
         id="stop986" />
      <stop
         stop-color="#e8f3f5"
         offset="1"
         id="stop988" />
    </linearGradient>
    <filter
       id="filter1119"
       x="-.44953"
       y="-.56045"
       width="1.8991"
       height="2.1209"
       color-interpolation-filters="sRGB">
      <feGaussianBlur
         stdDeviation="0.42050151"
         id="feGaussianBlur991" />
    </filter>
    <filter
       id="filter1153"
       x="-.04632"
       y="-.085148"
       width="1.0926"
       height="1.1703"
       color-interpolation-filters="sRGB">
      <feGaussianBlur
         stdDeviation="0.16041279"
         id="feGaussianBlur994" />
    </filter>
    <linearGradient
       id="linearGradient1181"
       x1="85.793"
       x2="85.793"
       y1="10.441"
       y2="6.5316"
       gradientTransform="matrix(-1.6091,0,0,1.6091,136.74,25.921)"
       gradientUnits="userSpaceOnUse">
      <stop
         stop-color="#fafafa"
         offset="0"
         id="stop997" />
      <stop
         stop-color="#e8f3f5"
         offset="1"
         id="stop999" />
    </linearGradient>
    <filter
       id="filter1204"
       x="-.027792"
       y="-.051089"
       width="1.0556"
       height="1.1022"
       color-interpolation-filters="sRGB">
      <feGaussianBlur
         stdDeviation="0.15487236"
         id="feGaussianBlur1002" />
    </filter>
    <filter
       id="filter1176"
       x="-.44449"
       y="-.55416"
       width="1.889"
       height="2.1083"
       color-interpolation-filters="sRGB">
      <feGaussianBlur
         stdDeviation="0.41578343"
         id="feGaussianBlur1005" />
    </filter>
    <filter
       id="filter1241"
       x="-.44984"
       y="-.56084"
       width="1.8997"
       height="2.1217"
       color-interpolation-filters="sRGB">
      <feGaussianBlur
         stdDeviation="0.42079226"
         id="feGaussianBlur1008" />
    </filter>
    <linearGradient
       id="linearGradient1448-3"
       x1="3.9687"
       x2="3.9687"
       y1="16.404"
       y2="2.6458"
       gradientTransform="matrix(0.91667,0,0,0.91667,8.0592699,-5.6371343)"
       gradientUnits="userSpaceOnUse">
      <stop
         stop-color="#dcdcdc"
         offset="0"
         id="stop1011" />
      <stop
         stop-color="#f0f0f0"
         offset="1"
         id="stop1013" />
    </linearGradient>
    <filter
       id="filter861-6"
       x="-.027"
       y="-.027"
       width="1.054"
       height="1.054"
       color-interpolation-filters="sRGB">
      <feGaussianBlur
         stdDeviation="0.16371"
         id="feGaussianBlur1016" />
    </filter>
    <linearGradient
       id="linearGradient1005-9"
       x1="0.73910999"
       x2="16.388"
       y1="16.296"
       y2="0.64687002"
       gradientTransform="matrix(0.999973,0,0,0.999973,29.619574,0.0066542)"
       gradientUnits="userSpaceOnUse">
      <stop
         stop-color="#cfdade"
         offset="0"
         id="stop4-3" />
      <stop
         stop-color="#eaeff2"
         offset="1"
         id="stop6-6" />
    </linearGradient>
    <linearGradient
       id="a-3"
       x1="32"
       x2="32"
       y1="2"
       y2="62"
       gradientTransform="matrix(0.26459055,0,0,0.26459055,-0.15900677,-8.0053167)"
       gradientUnits="userSpaceOnUse">
      <stop
         stop-color="#f5faff"
         offset="0"
         id="stop2-7" />
      <stop
         stop-color="#cfdef0"
         offset="1"
         id="stop4-5" />
    </linearGradient>
    <filter
       color-interpolation-filters="sRGB"
       height="1.048"
       width="1.048"
       y="-.024"
       x="-.024"
       id="filter2761-3">
      <feGaussianBlur
         id="feGaussianBlur2"
         stdDeviation="0.14552168" />
    </filter>
    <linearGradient
       gradientUnits="userSpaceOnUse"
       gradientTransform="matrix(3.7796 0 0 3.7796 -.0026448 .53066)"
       y2="1.17"
       y1="15.576"
       x2="15.65"
       x1="1.3315"
       id="linearGradient1024">
      <stop
         id="stop5"
         offset="0"
         stop-color="#dddfe1" />
      <stop
         id="stop7"
         offset="1"
         stop-opacity=".99608"
         stop-color="#f3f4f6" />
    </linearGradient>
    <linearGradient
       id="linearGradient1057">
      <stop
         stop-color="#fff"
         offset="0"
         id="stop957" />
      <stop
         stop-color="#fff"
         stop-opacity="0"
         offset="1"
         id="stop959" />
    </linearGradient>
    <linearGradient
       id="linearGradient982-3"
       x1="34.999"
       x2="34.999"
       y1="27.545"
       y2="52.847"
       gradientTransform="matrix(1.5625,0,0,1.5625,0.40633,-5.1891)"
       gradientUnits="userSpaceOnUse">
      <stop
         stop-color="#32b4ff"
         offset="0"
         id="stop962" />
      <stop
         stop-color="#3287ff"
         offset="1"
         id="stop964" />
    </linearGradient>
    <style
       type="text/css"
       id="style967" />
    <style
       type="text/css"
       id="style969" />
    <linearGradient
       id="linearGradient1047"
       x1="21.314"
       x2="21.314"
       y1="18.052"
       y2="43.681"
       gradientTransform="matrix(1.5625,0,0,1.5625,-9.2253,1.3231)"
       gradientUnits="userSpaceOnUse">
      <stop
         stop-color="#14dc78"
         offset="0"
         id="stop971" />
      <stop
         stop-color="#14a03c"
         offset="1"
         id="stop973" />
    </linearGradient>
    <linearGradient
       id="linearGradient1049"
       x1="41.729"
       x2="41.729"
       y1="12.316"
       y2="37.368"
       gradientTransform="matrix(1.5625,0,0,1.5625,-8.1072,-10.908)"
       gradientUnits="userSpaceOnUse">
      <stop
         stop-color="#ff3c64"
         offset="0"
         id="stop976" />
      <stop
         stop-color="#ff4628"
         offset="1"
         id="stop978" />
    </linearGradient>
    <linearGradient
       id="linearGradient1059"
       x1="34.427"
       x2="34.427"
       y1="32.234"
       y2="39.768"
       gradientTransform="matrix(1,0,0,1.2271,0.20646,-10.975)"
       gradientUnits="userSpaceOnUse"
       xlink:href="#linearGradient1057" />
    <linearGradient
       id="linearGradient1063"
       x1="34.427"
       x2="34.427"
       y1="32.234"
       y2="39.768"
       gradientTransform="matrix(1,0,0,1.2271,-12.55,-19.793)"
       gradientUnits="userSpaceOnUse"
       xlink:href="#linearGradient1057" />
    <linearGradient
       id="linearGradient1067"
       x1="34.427"
       x2="34.427"
       y1="32.234"
       y2="39.768"
       gradientTransform="matrix(1,0,0,1.2271,5.7554,-25.761)"
       gradientUnits="userSpaceOnUse"
       xlink:href="#linearGradient1057" />
    <filter
       id="filter11290"
       x="-.024"
       y="-.024"
       width="1.048"
       height="1.048"
       color-interpolation-filters="sRGB">
      <feGaussianBlur
         stdDeviation="0.15875313"
         id="feGaussianBlur984" />
    </filter>
    <linearGradient
       id="linearGradient1005"
       x1=".73911"
       x2="16.388"
       y1="16.296"
       y2=".64687"
       gradientTransform="translate(-0.0348049,0.0066193)"
       gradientUnits="userSpaceOnUse">
      <stop
         stop-color="#dddfe1"
         offset="0"
         id="stop987" />
      <stop
         stop-color="#f3f4f6"
         offset="1"
         id="stop989" />
    </linearGradient>
  </defs>
  <circle
     cx="8.4665003"
     cy="8.4665003"
     r="7.9376998"
     filter="url(#filter11290)"
     opacity="0.25"
     stroke-width="0.14032"
     id="circle994" />
  <path
     d="m 16.403949,8.4666191 c 0,0.9515288 -0.167491,1.8638999 -0.474653,2.7092799 -0.213509,0.587681 -0.49439,1.143295 -0.833923,1.657212 -0.142222,0.216081 -0.295137,0.424753 -0.457456,0.625277 -0.519658,0.641787 -1.13721,1.200708 -1.83051,1.654301 -0.255299,0.167179 -0.520637,0.320113 -0.795348,0.457112 -1.066806,0.533892 -2.2711125,0.834215 -3.5456119,0.834215 -1.274499,0 -2.478806,-0.300323 -3.545611,-0.834242 -0.274738,-0.137048 -0.540401,-0.289977 -0.795693,-0.457111 -0.702058,-0.459731 -1.326991,-1.02741 -1.850909,-1.679807 -0.162631,-0.202159 -0.315245,-0.412742 -0.457455,-0.63078 -0.330458,-0.505398 -0.604217,-1.050693 -0.813499,-1.626997 -0.307122,-0.845301 -0.474309,-1.7573015 -0.474309,-2.7084863 0,-4.3837944 3.553814,-7.9376084 7.937608,-7.9376084 2.2004969,0 4.1917119,0.895491 5.6294289,2.341702 0.414356,0.416631 0.782728,0.879299 1.096306,1.37951 0.29646,0.471081 0.54429,0.9758171 0.737035,1.5067989 0.307175,0.8455917 0.47468,1.75791 0.47468,2.70928 z"
     fill="url(#linearGradient1005)"
     stroke-width="0.0310059"
     id="path996"
     style="fill:url(#linearGradient1005)" />
  <ellipse
     cx="8.9044"
     cy="13.088"
     rx="4.8267"
     ry="1.8655"
     fill="url(#radialGradient1103)"
     id="ellipse80" />
  <g
     transform="matrix(.15669 0 0 .15669 2.2189 15.191)"
     id="g94">
    <path
       d="m16.168-40.193c0.1797-1.4925-0.25144-3.0867 1.3229-4.3467-2.4869 0.55918-7.8983-9.437 2.6458-10.3-16.245-4.4386 4.4647-22.348 10.016-9.1659 10.961-23.82 44.505-9.9676 30.522 10.016 4.8758-0.7253 10.366 7.2957 2.3624 10.867 3.4873 2.0972 3.2129 6.3021-1.7009 6.8036l-30.333 4.6302z"
       fill="url(#radialGradient1022)"
       id="path84" />
    <path
       transform="scale(.26458)"
       d="m182.6-289.41c-17.192 1e-3 -35.269 6.2248-49.994 20.559a125 117.86 0 0 1 101.26 57.59c24.644-43.82-10.847-78.151-51.266-78.148z"
       fill="url(#radialGradient1034)"
       id="path86" />
    <path
       d="m37.013-74.038c-0.91365-0.38293-1.974-0.41582-2.9674-0.0091-1.6234 0.66465-2.5475 2.2914-2.3884 3.9481 0.02011 0.4501 0.08107 0.64577 0.26949 1.106l5.74e-4 0.0014 0.40531 0.98899 0.80995 1.9782 2.83e-4 6.93e-4 1.4679 3.5863 6.5543-2.6835c0.42302-0.18494 0.74383-0.39646 1.1034-0.68961 1.2003-1.0607 1.6577-2.7957 1.0149-4.3658-0.73388-1.7924-2.6403-2.7316-4.4653-2.3019-0.43396-0.71413-1.0703-1.2518-1.805-1.5598z"
       fill="#cc1e1f"
       id="path88" />
    <path
       d="m23.386-75.384c-0.4928 0.48152-0.84138 1.1093-0.9306 1.7707-0.14579 1.0808 0.44852 1.905 1.397 2.0873 0.25048 0.06333 0.37566 0.05968 0.68413 0.02419l9.63e-4 -1.03e-4 0.66301-0.07651 1.326-0.15258 4.66e-4 -5.3e-5 2.4037-0.27637 0.4998-3.7053 0.0888-0.65829c0.03162-0.2836 0.01693-0.51059-0.02994-0.77444-0.20105-0.89441-0.9997-1.458-2.0521-1.3369-1.2014 0.13825-2.3057 1.1196-2.6418 2.2815-0.52283 0.13963-1.013 0.42963-1.4093 0.81689z"
       fill="#cc1e1f"
       id="path90" />
    <path
       d="m16.168-40.193c0.1797-1.4925-0.25144-3.0867 1.3229-4.3467-2.4869 0.55918-7.8983-9.437 2.6458-10.3-16.245-4.4386 4.4647-22.348 10.016-9.1659 10.961-23.82 44.505-9.9676 30.522 10.016 4.8758-0.7253 10.366 7.2957 2.3624 10.867 3.4873 2.0972 3.2129 6.3021-1.7009 6.8036l-30.333 4.6302z"
       fill="url(#linearGradient1054)"
       id="path92" />
  </g>
  <path
     d="m6.9834 9.5359 0.22209 4.7675 0.67472-0.06768 0.67472-0.07651 0.67472-0.07121 0.67472-0.07244 0.67472-0.07105 0.67472-0.07347 0.67472-0.07105 0.5182-4.7231c0.035529-0.38686-0.51076-0.43751-0.78048 0.061664-0.030932-0.51279-0.79812-0.35293-0.78048 0.063543-0.023511-0.42078-0.78276-0.40046-0.78048 0.064996-0.011023-0.4738-0.81731-0.43793-0.78048 0.069583-0.039327-0.51878-0.80634-0.41531-0.78048 0.06325-0.022068-0.47097-0.80715-0.36122-0.78048 0.066743-0.024596-0.43232-0.79082-0.44491-0.78048 0.069212z"
     fill="url(#linearGradient982)"
     id="path96" />
  <path
     d="m8.5443 9.3999c-0.022068-0.47097-0.80715-0.36122-0.78048 0.066743l0.11633 4.769 0.67472-0.07651zm1.561-0.13283c-0.011023-0.4738-0.81731-0.43793-0.78048 0.069583l-0.09518 4.7513 0.67472-0.07244zm1.561-0.12854c-0.030932-0.51279-0.79812-0.35293-0.78048 0.063543l-0.30669 4.7424 0.67472-0.07347z"
     fill="url(#linearGradient974)"
     id="path98" />
  <g
     transform="matrix(.15669 0 0 .15669 -3.5029 14.562)"
     fill-opacity=".10454"
     opacity=".185"
     id="g118">
    <path
       d="m68.451-1.6071-12.001-8.221-4.3467-27.923c-0.37103-2.329 1.7327-1.1431 1.7201 0.65863-3e-3 -1.8413 1.4272-2.6613 2.1067 0.80668 0.0065-2.3703 1.2157-2.2482 2.0558 0.7872-0.01238-2.3238 1.3071-2.6999 2.0497 0.78486 0.19962-2.9731 1.6827-2.1223 2.2268 0.85266-0.02026-1.9271 1.8186-3.2974 2.6897 1.0299-0.15466-3.3477 2.0068-2.147 2.0813 0.79694z"
       id="path100" />
    <path
       d="m68.556-1.6238-12.001-8.221-4.3467-27.923c-0.37103-2.329 1.7327-1.1431 1.7201 0.65863-3e-3 -1.8413 1.4272-2.6613 2.1067 0.80668 0.0065-2.3703 1.2157-2.2482 2.0558 0.7872-0.01238-2.3238 1.3071-2.6999 2.0497 0.78486 0.19962-2.9731 1.6827-2.1223 2.2268 0.85266-0.02026-1.9271 1.8186-3.2974 2.6897 1.0299-0.15466-3.3477 2.0068-2.147 2.0813 0.79694z"
       id="path102" />
    <path
       d="m68.652-1.6363-12.001-8.221-4.3467-27.923c-0.37103-2.329 1.7327-1.1431 1.7201 0.65863-3e-3 -1.8413 1.4272-2.6613 2.1067 0.80668 0.0065-2.3703 1.2157-2.2482 2.0558 0.7872-0.01238-2.3238 1.3071-2.6999 2.0497 0.78486 0.19962-2.9731 1.6827-2.1223 2.2268 0.85266-0.02026-1.9271 1.8186-3.2974 2.6897 1.0299-0.15466-3.3477 2.0068-2.147 2.0813 0.79694z"
       id="path104" />
    <path
       d="m68.748-1.6321-12.001-8.221-4.3467-27.923c-0.37103-2.329 1.7327-1.1431 1.7201 0.65863-3e-3 -1.8413 1.4272-2.6613 2.1067 0.80668 0.0065-2.3703 1.2157-2.2482 2.0558 0.7872-0.01238-2.3238 1.3071-2.6999 2.0497 0.78486 0.19962-2.9731 1.6827-2.1223 2.2268 0.85266-0.02026-1.9271 1.8186-3.2974 2.6897 1.0299-0.15466-3.3477 2.0068-2.147 2.0813 0.79694z"
       id="path106" />
    <path
       d="m68.84-1.6447-12.001-8.221-4.3467-27.923c-0.37103-2.329 1.7327-1.1431 1.7201 0.65863-3e-3 -1.8413 1.4272-2.6613 2.1067 0.80668 0.0065-2.3703 1.2157-2.2482 2.0558 0.7872-0.01238-2.3238 1.3071-2.6999 2.0497 0.78486 0.19962-2.9731 1.6827-2.1223 2.2268 0.85266-0.02026-1.9271 1.8186-3.2974 2.6897 1.0299-0.15466-3.3477 2.0068-2.147 2.0813 0.79694z"
       id="path108" />
    <path
       d="m69.017-1.6388-12.001-8.221-4.3467-27.923c-0.37103-2.329 1.7327-1.1431 1.7201 0.65863-3e-3 -1.8413 1.4272-2.6613 2.1067 0.80668 0.0065-2.3703 1.2157-2.2482 2.0558 0.7872-0.01238-2.3238 1.3071-2.6999 2.0497 0.78486 0.19962-2.9731 1.6827-2.1223 2.2268 0.85266-0.02026-1.9271 1.8186-3.2974 2.6897 1.0299-0.15466-3.3477 2.0068-2.147 2.0813 0.79694z"
       id="path110" />
    <path
       d="m69.247-1.5561-12.001-8.221-4.3467-27.923c-0.37103-2.329 1.7327-1.1431 1.7201 0.65863-3e-3 -1.8413 1.4272-2.6613 2.1067 0.80668 0.0065-2.3703 1.2157-2.2482 2.0558 0.7872-0.01238-2.3238 1.3071-2.6999 2.0497 0.78486 0.19962-2.9731 1.6827-2.1223 2.2268 0.85266-0.02026-1.9271 1.8186-3.2974 2.6897 1.0299-0.15466-3.3477 2.0068-2.147 2.0813 0.79694z"
       id="path112" />
    <path
       d="m69.413-1.4852-12.001-8.221-4.3467-27.923c-0.37103-2.329 1.7327-1.1431 1.7201 0.65863-3e-3 -1.8413 1.4272-2.6613 2.1067 0.80668 0.0065-2.3703 1.2157-2.2482 2.0558 0.7872-0.01238-2.3238 1.3071-2.6999 2.0497 0.78486 0.19962-2.9731 1.6827-2.1223 2.2268 0.85266-0.02026-1.9271 1.8186-3.2974 2.6897 1.0299-0.15466-3.3477 2.0068-2.147 2.0813 0.79694z"
       id="path114" />
    <path
       d="m69.619-1.438-12.001-8.221-4.3467-27.923c-0.37103-2.329 1.7327-1.1431 1.7201 0.65863-3e-3 -1.8413 1.4272-2.6613 2.1067 0.80668 0.0065-2.3703 1.2157-2.2482 2.0558 0.7872-0.01238-2.3238 1.3071-2.6999 2.0497 0.78486 0.19962-2.9731 1.6827-2.1223 2.2268 0.85266-0.02026-1.9271 1.8186-3.2974 2.6897 1.0299-0.15466-3.3477 2.0068-2.147 2.0813 0.79694z"
       id="path116" />
  </g>
  <path
     d="m7.2054 14.303-1.8803-1.2881-0.68107-4.3751c-0.058136-0.36492 0.27149-0.17911 0.26951 0.1032-4.7e-4 -0.28851 0.22362-0.41699 0.33009 0.12639 0.0010185-0.37139 0.19048-0.35227 0.32212 0.12334-0.0019398-0.3641 0.20481-0.42303 0.32116 0.12298 0.031278-0.46583 0.26365-0.33253 0.34891 0.1336-0.0031744-0.30195 0.28494-0.51666 0.42144 0.16137-0.024234-0.52453 0.31443-0.3364 0.3261 0.12487z"
     fill="url(#linearGradient998)"
     id="path120" />
  <path
     d="m6.8917 14.088-0.30294-0.20753-0.35299-4.6313c-0.0031744-0.30195 0.28494-0.51666 0.42144 0.16137zm-0.55352-0.37918-0.27113-0.18573-0.50136-4.5305c-0.0019398-0.3641 0.20481-0.42303 0.32116 0.12298zm-0.53693-0.36782-0.24407-0.1672-0.64369-4.4309c-4.7e-4 -0.28851 0.22362-0.41699 0.33009 0.12639"
     fill="url(#linearGradient1006)"
     id="path122" />
  <g
     transform="matrix(.15669 0 0 .15669 15.62 7.3176)"
     id="g144">
    <g
       transform="translate(0 -.094494)"
       id="g132">
      <g
         transform="translate(1.2757 10.016)"
         id="g128">
        <circle
           cx="-33.569"
           cy="-13.357"
           r="3.8034"
           fill="none"
           stroke="url(#radialGradient1091)"
           stroke-linecap="round"
           stroke-linejoin="round"
           stroke-width="1.0523"
           id="circle124" />
        <circle
           cx="-33.569"
           cy="-13.357"
           r="3.8034"
           fill="url(#linearGradient1081)"
           id="circle126" />
      </g>
      <circle
         cx="-31.49"
         cy="-4.5688"
         r="1.0158"
         fill="#fff"
         id="circle130" />
    </g>
    <g
       transform="translate(.18899 -.14174)"
       id="g142">
      <g
         transform="translate(-22.726 10.064)"
         id="g138">
        <circle
           cx="-33.569"
           cy="-13.357"
           r="3.8034"
           fill="none"
           stroke="url(#radialGradient1091)"
           stroke-linecap="round"
           stroke-linejoin="round"
           stroke-width="1.0523"
           id="circle134" />
        <circle
           cx="-33.569"
           cy="-13.357"
           r="3.8034"
           fill="url(#linearGradient1081)"
           id="circle136" />
      </g>
      <circle
         cx="-55.492"
         cy="-4.5215"
         r="1.0158"
         fill="#fff"
         id="circle140" />
    </g>
  </g>
  <g
     transform="matrix(.15669 0 0 .15669 15.656 7.3176)"
     id="g150">
    <path
       d="m-48.635-0.44417h8.41c0.8376 0 1.5119 0.67431 1.5119 1.5119v1.8426c0 6.67-11.434 6.4808-11.434 0v-1.8426c0-0.8376 0.67431-1.5119 1.5119-1.5119z"
       fill="url(#linearGradient1138)"
       id="path146" />
    <path
       d="m-44.43 5.0835a3.4254 3.4254 0 0 0-3.1166 2.0128c1.8714 0.97368 4.3816 0.99623 6.2492 0.037207a3.4254 3.4254 0 0 0-3.1326-2.05z"
       fill="#580e10"
       id="path148" />
  </g>
  <g
     transform="translate(-40.710745,-1.9637527)"
     fill="#5e4aa6"
     stroke-width="0.26458"
     id="g1031">
    <circle
       cx="-330.35001"
       cy="-328.38"
       r="0"
       id="circle1023" />
    <circle
       cx="-312.10999"
       cy="-326.25"
       r="0"
       id="circle1025" />
    <circle
       cx="-306.01999"
       cy="-333.07001"
       r="0"
       id="circle1027" />
    <circle
       cx="-308.84"
       cy="-326.01001"
       r="0"
       id="circle1029" />
  </g>
  <circle
     cx="-349.09961"
     cy="-343.47818"
     r="0"
     fill="#5e4aa6"
     id="circle998"
     style="stroke-width:0.264578" />
  <circle
     cx="-58.182751"
     cy="-8.6664762"
     r="0"
     fill="#5e4aa6"
     fill-rule="evenodd"
     id="circle1000"
     style="stroke-width:0.264578" />
  <g
     transform="translate(-45.951307,-25.222452)"
     fill="#5e4aa6"
     stroke-width="0.26458"
     id="g1024">
    <circle
       cx="-330.35001"
       cy="-328.38"
       r="0"
       id="circle1016" />
    <circle
       cx="-312.10999"
       cy="-326.25"
       r="0"
       id="circle1018" />
    <circle
       cx="-306.01999"
       cy="-333.07001"
       r="0"
       id="circle1020" />
    <circle
       cx="-308.84"
       cy="-326.01001"
       r="0"
       id="circle1022" />
  </g>
</svg>
