<?xml version="1.0" encoding="UTF-8" standalone="no"?>
<svg
   xmlns:dc="http://purl.org/dc/elements/1.1/"
   xmlns:cc="http://creativecommons.org/ns#"
   xmlns:rdf="http://www.w3.org/1999/02/22-rdf-syntax-ns#"
   xmlns:svg="http://www.w3.org/2000/svg"
   xmlns="http://www.w3.org/2000/svg"
   xmlns:sodipodi="http://sodipodi.sourceforge.net/DTD/sodipodi-0.dtd"
   xmlns:inkscape="http://www.inkscape.org/namespaces/inkscape"
   width="64"
   height="64"
   version="1.1"
   id="svg17"
   sodipodi:docname="preferences-web-browser-shortcuts.svg"
   inkscape:version="1.0.1 (3bc2e813f5, 2020-09-07)">
  <metadata
     id="metadata21">
    <rdf:RDF>
      <cc:Work
         rdf:about="">
        <dc:format>image/svg+xml</dc:format>
        <dc:type
           rdf:resource="http://purl.org/dc/dcmitype/StillImage" />
        <dc:title></dc:title>
      </cc:Work>
    </rdf:RDF>
  </metadata>
  <sodipodi:namedview
     pagecolor="#ffffff"
     bordercolor="#666666"
     borderopacity="1"
     objecttolerance="10"
     gridtolerance="10"
     guidetolerance="10"
     inkscape:pageopacity="0"
     inkscape:pageshadow="2"
     inkscape:window-width="1920"
     inkscape:window-height="985"
     id="namedview19"
     showgrid="false"
     inkscape:zoom="4.5409514"
     inkscape:cx="-22.571608"
     inkscape:cy="22.170806"
     inkscape:window-x="0"
     inkscape:window-y="0"
     inkscape:window-maximized="1"
     inkscape:current-layer="svg17"
     inkscape:document-rotation="0" />
  <defs
     id="defs7">
    <linearGradient
       id="a"
       x1="40"
       x2="40"
       y1="59"
       y2="15"
       gradientUnits="userSpaceOnUse"
       gradientTransform="translate(70.885227)">
      <stop
         offset="0"
         id="stop2" />
      <stop
         stop-opacity="0"
         offset="1"
         id="stop4" />
    </linearGradient>
    <linearGradient
       id="a-3"
       x1="40"
       x2="40"
       y1="59"
       y2="15"
       gradientUnits="userSpaceOnUse"
       gradientTransform="translate(73.448499)">
      <stop
         offset="0"
         id="stop2-5" />
      <stop
         stop-opacity="0"
         offset="1"
         id="stop4-6" />
    </linearGradient>
    <filter
       id="filter2761"
       x="-.024"
       y="-.024"
       width="1.048"
       height="1.048"
       color-interpolation-filters="sRGB">
      <feGaussianBlur
         stdDeviation="0.14552168"
         id="feGaussianBlur846" />
    </filter>
    <linearGradient
       id="linearGradient1024"
       x1="1.3315"
       x2="15.65"
       y1="15.576"
       y2="1.17"
       gradientUnits="userSpaceOnUse"
       gradientTransform="matrix(3.779602,0,0,3.779602,-0.00321238,0.53084538)">
      <stop
         stop-color="#00c8ff"
         offset="0"
         id="stop849" />
      <stop
         stop-color="#14a0ff"
         offset="1"
         id="stop851" />
    </linearGradient>
    <filter
       id="filter985"
       x="-.059096"
       y="-.060921"
       width="1.1182"
       height="1.1218"
       color-interpolation-filters="sRGB">
      <feGaussianBlur
         stdDeviation="0.21619832"
         id="feGaussianBlur854" />
    </filter>
    <filter
       id="filter1015"
       x="-.084"
       y="-.084"
       width="1.168"
       height="1.168"
       color-interpolation-filters="sRGB">
      <feGaussianBlur
         stdDeviation="0.3089756"
         id="feGaussianBlur857" />
    </filter>
    <linearGradient
       id="linearGradient1025"
       x1="7.9876"
       x2="12.91"
       y1="7.7203"
       y2="12.495"
       gradientUnits="userSpaceOnUse">
      <stop
         stop-color="#fafaff"
         offset="0"
         id="stop860" />
      <stop
         stop-color="#a1d8ff"
         offset="1"
         id="stop862" />
    </linearGradient>
    <filter
       id="filter2761-3"
       x="-.024"
       y="-.024"
       width="1.048"
       height="1.048"
       color-interpolation-filters="sRGB">
      <feGaussianBlur
         stdDeviation="0.14552168"
         id="feGaussianBlur2" />
    </filter>
    <linearGradient
       id="linearGradient1024-6"
       x1="1.3315"
       x2="15.65"
       y1="15.576"
       y2="1.17"
       gradientUnits="userSpaceOnUse"
       gradientTransform="translate(0.7523229,-6.0494795)">
      <stop
         stop-color="#00c8ff"
         offset="0"
         id="stop5" />
      <stop
         stop-color="#14a0ff"
         offset="1"
         id="stop7" />
    </linearGradient>
    <filter
       id="filter914"
       x="-.085107"
       y="-.082922"
       width="1.1702"
       height="1.1658"
       color-interpolation-filters="sRGB">
      <feGaussianBlur
         stdDeviation="0.33551342"
         id="feGaussianBlur10" />
    </filter>
    <style
       type="text/css"
       id="style862" />
    <filter
       id="filter1057"
       x="-.027"
       y="-.027"
       width="1.054"
       height="1.054"
       color-interpolation-filters="sRGB">
      <feGaussianBlur
         stdDeviation="0.61875"
         id="feGaussianBlur864" />
    </filter>
    <linearGradient
       id="linearGradient1053"
       x1="-127"
       x2="-72"
       y1="60"
       y2="5"
       gradientTransform="translate(131.5,-0.51000031)"
       gradientUnits="userSpaceOnUse">
      <stop
         stop-color="#32d7ff"
         offset="0"
         id="stop867" />
      <stop
         stop-color="#329bff"
         offset="1"
         id="stop869" />
    </linearGradient>
    <style
       type="text/css"
       id="style872" />
    <style
       type="text/css"
       id="style874" />
    <style
       type="text/css"
       id="style876" />
    <style
       type="text/css"
       id="style878" />
    <style
       type="text/css"
       id="style880" />
    <style
       type="text/css"
       id="style882" />
    <style
       type="text/css"
       id="style884" />
    <linearGradient
       id="b"
       x1="399.57"
       x2="399.57"
       y1="545.8"
       y2="517.8"
       gradientTransform="matrix(2.1429,0,0,2.1429,-787.03888,-1112.6769)"
       gradientUnits="userSpaceOnUse">
      <stop
         stop-color="#3889e9"
         offset="0"
         id="stop898" />
      <stop
         stop-color="#5ea5fb"
         offset="1"
         id="stop900" />
    </linearGradient>
    <linearGradient
       id="k"
       x1="15"
       x2="9"
       y1="9"
       y2="9"
       gradientTransform="matrix(3.5556,0,0,8,-88.158883,-42.076931)"
       gradientUnits="userSpaceOnUse">
      <stop
         stop-color="#a1daff"
         offset="0"
         id="stop903" />
      <stop
         stop-color="#abebf9"
         stop-opacity="0"
         offset="1"
         id="stop905" />
    </linearGradient>
    <style
       type="text/css"
       id="style908" />
    <style
       type="text/css"
       id="style910" />
    <style
       type="text/css"
       id="style912" />
    <style
       type="text/css"
       id="style914" />
    <style
       type="text/css"
       id="style916" />
    <style
       type="text/css"
       id="style918" />
    <style
       type="text/css"
       id="style920" />
    <style
       type="text/css"
       id="style922" />
    <style
       type="text/css"
       id="style924" />
    <style
       type="text/css"
       id="style926" />
    <style
       type="text/css"
       id="style928" />
    <style
       type="text/css"
       id="style930" />
    <style
       type="text/css"
       id="style932" />
    <style
       type="text/css"
       id="style934" />
    <style
       type="text/css"
       id="style936" />
    <style
       type="text/css"
       id="style938" />
    <style
       type="text/css"
       id="style940" />
    <style
       type="text/css"
       id="style942" />
    <style
       type="text/css"
       id="style944" />
    <style
       type="text/css"
       id="style946" />
    <style
       type="text/css"
       id="style948" />
    <filter
       id="filter11290"
       x="-.024"
       y="-.024"
       width="1.048"
       height="1.048"
       color-interpolation-filters="sRGB">
      <feGaussianBlur
         stdDeviation="0.15875313"
         id="feGaussianBlur950" />
    </filter>
    <linearGradient
       id="linearGradient1005"
       x1=".8714"
       x2="16.246"
       y1="16.164"
       y2=".78937"
       gradientTransform="matrix(3.7796,0,0,3.7796,-0.13201,0.0257282)"
       gradientUnits="userSpaceOnUse">
      <stop
         stop-color="#00c8ff"
         offset="0"
         id="stop953" />
      <stop
         stop-color="#14a0ff"
         offset="1"
         id="stop955" />
    </linearGradient>
  </defs>
  <circle
     transform="matrix(3.7796,0,0,3.7796,-0.10278795,0.02458453)"
     cx="8.4937"
     cy="8.46"
     r="7.9376998"
     filter="url(#filter11290)"
     opacity="0.25"
     stroke-width="0.14032"
     id="circle882" />
  <path
     d="m 62.0004,32.00045 c 0,3.5964 -0.63305,7.0448 -1.794,10.24 -0.80698,2.2212 -1.8686,4.3212 -3.1519,6.2636 -0.53754,0.8167 -1.1155,1.6054 -1.729,2.3633 -1.9641,2.4257 -4.2982,4.5382 -6.9186,6.2526 -0.96493,0.63187 -1.9678,1.2098 -3.0061,1.7277 -4.0321,2.0179 -8.5839,3.153 -13.401,3.153 -4.8171,0 -9.3689,-1.1351 -13.401,-3.1531 -1.0384,-0.518 -2.0425,-1.096 -3.0074,-1.7277 -2.6535,-1.7376 -5.0155,-3.8832 -6.9957,-6.349 -0.61468,-0.76408 -1.1915,-1.56 -1.729,-2.3841 -1.249,-1.9102 -2.2837,-3.9712 -3.0747,-6.1494 -1.1608,-3.1949 -1.7927,-6.6419 -1.7927,-10.237 0,-16.569 13.432,-30.0009998 30.001,-30.0009998 8.317,0 15.843,3.3846 21.277,8.8506998 1.5661,1.5747 2.9584,3.3234 4.1436,5.214 1.1205,1.7805 2.0572,3.6882 2.7857,5.6951 1.161,3.196 1.7941,6.6442 1.7941,10.24 z"
     fill="url(#linearGradient1005)"
     stroke-width="0.11719"
     id="path884"
     style="fill:url(#linearGradient1005)" />
  <circle
     cx="8.4673996"
     cy="8.3260002"
     r="4.4138999"
     fill="#1496ff"
     filter="url(#filter1015)"
     id="circle873"
     transform="matrix(3.779602,0,0,3.779602,-0.00321238,0.53084538)" />
  <g
     transform="matrix(3.779602,0,0,3.779602,-0.91194209,-0.57431024)"
     id="g885">
    <path
       d="m 13.048,7.8742 a 2.6848,5.7985 52.956 0 1 -0.18913,0.32349 2.6848,5.7985 52.956 0 1 -0.27698,0.40824 2.6848,5.7985 52.956 0 1 -0.31625,0.40927 2.6848,5.7985 52.956 0 1 -0.35191,0.4072 2.6848,5.7985 52.956 0 1 -0.38395,0.39997 2.6848,5.7985 52.956 0 1 -0.41289,0.38912 2.6848,5.7985 52.956 0 1 -0.43666,0.37465 2.6848,5.7985 52.956 0 1 -0.32194,0.25424 2.6848,5.7985 52.956 0 1 -0.46818,0.34106 2.6848,5.7985 52.956 0 1 -0.48058,0.31677 2.6848,5.7985 52.956 0 1 -0.48782,0.28887 2.6848,5.7985 52.956 0 1 -0.48988,0.25838 2.6848,5.7985 52.956 0 1 -0.4873,0.22582 2.6848,5.7985 52.956 0 1 -0.48058,0.19068 2.6848,5.7985 52.956 0 1 -0.3979,0.13022 4.4139,4.4139 0 0 0 1.6159,0.31057 4.4139,4.4139 0 0 0 4.4136,-4.4141 4.4139,4.4139 0 0 0 -0.04754,-0.61442 z"
       fill="#ffffff"
       opacity="0.55"
       id="path875" />
    <path
       transform="matrix(0.93108,0,0,0.94458,0.98435,0.77737)"
       d="m 8.6817,4.075 a 4.4139,4.4139 0 0 0 -4.4141,4.4136 4.4139,4.4139 0 0 0 0.11989,0.99889 4.4139,4.4139 0 0 0 2.6783,3.1047 2.6848,5.7985 52.956 0 0 0.3979,-0.13022 2.6848,5.7985 52.956 0 0 0.48058,-0.19068 2.6848,5.7985 52.956 0 0 0.4873,-0.22582 2.6848,5.7985 52.956 0 0 0.48988,-0.25838 2.6848,5.7985 52.956 0 0 0.48782,-0.28887 2.6848,5.7985 52.956 0 0 0.48058,-0.31677 2.6848,5.7985 52.956 0 0 0.46818,-0.34106 2.6848,5.7985 52.956 0 0 0.32194,-0.25424 2.6848,5.7985 52.956 0 0 0.43666,-0.37465 2.6848,5.7985 52.956 0 0 0.41289,-0.38912 2.6848,5.7985 52.956 0 0 0.38395,-0.39997 2.6848,5.7985 52.956 0 0 0.35191,-0.4072 2.6848,5.7985 52.956 0 0 0.31625,-0.40927 2.6848,5.7985 52.956 0 0 0.27698,-0.40824 2.6848,5.7985 52.956 0 0 0.18913,-0.32349 4.4139,4.4139 0 0 0 -2.0665,-3.147 4.4139,4.4139 0 0 0 -2.2996,-0.65214 z"
       fill="#0096ff"
       filter="url(#filter985)"
       opacity="0.25"
       id="path877" />
    <path
       d="m 8.6817,4.075 a 4.4139,4.4139 0 0 0 -4.4141,4.4136 4.4139,4.4139 0 0 0 0.11989,0.99889 4.4139,4.4139 0 0 0 2.6783,3.1047 2.6848,5.7985 52.956 0 0 0.3979,-0.13022 2.6848,5.7985 52.956 0 0 0.48058,-0.19068 2.6848,5.7985 52.956 0 0 0.4873,-0.22582 2.6848,5.7985 52.956 0 0 0.48988,-0.25838 2.6848,5.7985 52.956 0 0 0.48782,-0.28887 2.6848,5.7985 52.956 0 0 0.48058,-0.31677 2.6848,5.7985 52.956 0 0 0.46818,-0.34106 2.6848,5.7985 52.956 0 0 0.32194,-0.25424 2.6848,5.7985 52.956 0 0 0.43666,-0.37465 2.6848,5.7985 52.956 0 0 0.41289,-0.38912 2.6848,5.7985 52.956 0 0 0.38395,-0.39997 2.6848,5.7985 52.956 0 0 0.35191,-0.4072 2.6848,5.7985 52.956 0 0 0.31625,-0.40927 2.6848,5.7985 52.956 0 0 0.27698,-0.40824 2.6848,5.7985 52.956 0 0 0.18913,-0.32349 4.4139,4.4139 0 0 0 -2.0665,-3.147 4.4139,4.4139 0 0 0 -2.2996,-0.65214 z"
       fill="url(#linearGradient1025)"
       id="path879"
       style="fill:url(#linearGradient1025)" />
    <path
       d="m 13.039,7.8737 a 2.6848,5.7985 52.956 0 0 0.2408,-2.6515 2.6848,5.7985 52.956 0 0 -2.3083,-0.49505 4.4139,4.4139 0 0 1 0.19327,0.11885 4.4139,4.4139 0 0 1 0.35139,0.26665 4.4139,4.4139 0 0 1 0.32297,0.30075 4.4139,4.4139 0 0 1 0.29093,0.33176 4.4139,4.4139 0 0 1 0.25683,0.35863 4.4139,4.4139 0 0 1 0.21962,0.38292 4.4139,4.4139 0 0 1 0.18035,0.40255 4.4139,4.4139 0 0 1 0.13901,0.41857 4.4139,4.4139 0 0 1 0.09663,0.43046 4.4139,4.4139 0 0 1 0.01654,0.13539 z"
       fill="#ffffff"
       opacity="0.55"
       id="path881" />
    <path
       d="M 4.4055,9.4875 A 2.6848,5.7985 52.956 0 0 4.09235,12.263 2.6848,5.7985 52.956 0 0 7.08385,12.59217 4.4139,4.4139 0 0 1 6.9805,12.55445 4.4139,4.4139 0 0 1 6.58311,12.36222 4.4139,4.4139 0 0 1 6.20743,12.13175 4.4139,4.4139 0 0 1 5.85604,11.86459 4.4139,4.4139 0 0 1 5.53307,11.56384 4.4139,4.4139 0 0 1 5.24214,11.2326 4.4139,4.4139 0 0 1 4.98531,10.87346 4.4139,4.4139 0 0 1 4.76569,10.49106 4.4139,4.4139 0 0 1 4.58534,10.08799 4.4139,4.4139 0 0 1 4.44633,9.66942 4.4139,4.4139 0 0 1 4.40551,9.48752 Z"
       fill="#ffffff"
       opacity="0.55"
       id="path883" />
  </g>
  <circle
     cx="-1288.4114"
     cy="-1279.3"
     r="0"
     fill="#5e4aa6"
     id="circle888"
     style="stroke-width:1" />
  <circle
     cx="-1169.9579"
     cy="-1318.5997"
     r="0"
     id="circle890"
     style="fill:#5e4aa6;stroke-width:1.00001" />
  <circle
     cx="-70.419533"
     cy="-53.108513"
     r="0"
     fill-rule="evenodd"
     id="circle892"
     style="fill:#5e4aa6;stroke-width:1.00001" />
  <circle
     cx="-1091.4556"
     cy="-1390.1099"
     r="0"
     id="circle894"
     style="fill:#5e4aa6;stroke-width:1.00001" />
  <circle
     cx="8.0797834"
     cy="-124.58192"
     r="0"
     fill-rule="evenodd"
     id="circle896"
     style="fill:#5e4aa6;stroke-width:1.00001" />
  <path
     id="rect1006"
     style="fill:#004b87;fill-opacity:1;stroke-width:0.857143;stroke-linecap:round;paint-order:stroke fill markers"
     d="m 46.992781,27.917412 -6.857143,13.714286 h 5.142857 v 10.285714 l 6.857143,-13.714286 h -5.142857 z" />
  <g
     transform="matrix(3.7796,0,0,3.7796,-16.433883,-49.006931)"
     fill="#5e4aa6"
     stroke-width="0.26458"
     id="g894">
    <circle
       cx="-299.01999"
       cy="-338.76999"
       r="0"
       id="circle886" />
    <circle
       cx="-8.1062002"
       cy="-3.9487"
       r="0"
       fill-rule="evenodd"
       id="circle888-3" />
    <circle
       cx="-278.25"
       cy="-357.69"
       r="0"
       id="circle890-6" />
    <circle
       cx="12.663"
       cy="-22.858999"
       r="0"
       fill-rule="evenodd"
       id="circle892-7" />
  </g>
  <circle
     cx="71.34111"
     cy="26.899069"
     r="0"
     fill="url(#b)"
     stroke-width="1.5715"
     id="circle960"
     style="fill:url(#b)" />
  <g
     fill="#5e4aa6"
     id="g1004"
     transform="translate(-68.608883,-1.0769306)">
    <circle
       cx="-1196.5"
       cy="-1289"
       r="0"
       id="circle966" />
    <circle
       cx="-1206.4"
       cy="-1312.1"
       r="0"
       id="circle968" />
    <g
       transform="matrix(3.7796,0,0,3.7796,42.247,-70.951)"
       stroke-width="0.26458"
       id="g978">
      <circle
         cx="-299.01999"
         cy="-338.76999"
         r="0"
         id="circle970" />
      <circle
         cx="-8.1062002"
         cy="-3.9487"
         r="0"
         fill-rule="evenodd"
         id="circle972" />
      <circle
         cx="-278.25"
         cy="-357.69"
         r="0"
         id="circle974" />
      <circle
         cx="12.663"
         cy="-22.858999"
         r="0"
         fill-rule="evenodd"
         id="circle976" />
    </g>
    <g
       transform="translate(-81.583,-32.767)"
       id="g1002">
      <circle
         cx="-1050.3"
         cy="-1279.3"
         r="0"
         id="circle980" />
      <g
         transform="matrix(3.7796,0,0,3.7796,198.32,-38.184)"
         stroke-width="0.26458"
         id="g990">
        <circle
           cx="-299.01999"
           cy="-338.76999"
           r="0"
           id="circle982" />
        <circle
           cx="-8.1062002"
           cy="-3.9487"
           r="0"
           fill-rule="evenodd"
           id="circle984" />
        <circle
           cx="-278.25"
           cy="-357.69"
           r="0"
           id="circle986" />
        <circle
           cx="12.663"
           cy="-22.858999"
           r="0"
           fill-rule="evenodd"
           id="circle988" />
      </g>
      <g
         transform="matrix(3.7796,0,0,3.7796,74.386,0.024585)"
         stroke-width="0.26458"
         id="g1000">
        <circle
           cx="-330.35001"
           cy="-328.38"
           r="0"
           id="circle992" />
        <circle
           cx="-312.10999"
           cy="-326.25"
           r="0"
           id="circle994" />
        <circle
           cx="-306.01999"
           cy="-333.07001"
           r="0"
           id="circle996" />
        <circle
           cx="-308.84"
           cy="-326.01001"
           r="0"
           id="circle998" />
      </g>
    </g>
  </g>
</svg>
