<?xml version="1.0" encoding="UTF-8" standalone="no"?>
<svg
   xmlns:dc="http://purl.org/dc/elements/1.1/"
   xmlns:cc="http://creativecommons.org/ns#"
   xmlns:rdf="http://www.w3.org/1999/02/22-rdf-syntax-ns#"
   xmlns:svg="http://www.w3.org/2000/svg"
   xmlns="http://www.w3.org/2000/svg"
   xmlns:xlink="http://www.w3.org/1999/xlink"
   xmlns:sodipodi="http://sodipodi.sourceforge.net/DTD/sodipodi-0.dtd"
   xmlns:inkscape="http://www.inkscape.org/namespaces/inkscape"
   width="64"
   height="64"
   version="1.1"
   id="svg27"
   sodipodi:docname="preferences-devices-cpu.svg"
   inkscape:version="1.0.1 (3bc2e813f5, 2020-09-07)">
  <metadata
     id="metadata31">
    <rdf:RDF>
      <cc:Work
         rdf:about="">
        <dc:format>image/svg+xml</dc:format>
        <dc:type
           rdf:resource="http://purl.org/dc/dcmitype/StillImage" />
        <dc:title></dc:title>
      </cc:Work>
    </rdf:RDF>
  </metadata>
  <sodipodi:namedview
     pagecolor="#ffffff"
     bordercolor="#666666"
     borderopacity="1"
     objecttolerance="10"
     gridtolerance="10"
     guidetolerance="10"
     inkscape:pageopacity="0"
     inkscape:pageshadow="2"
     inkscape:window-width="1920"
     inkscape:window-height="985"
     id="namedview29"
     showgrid="false"
     inkscape:zoom="4.5409514"
     inkscape:cx="32.3952"
     inkscape:cy="33.248454"
     inkscape:window-x="0"
     inkscape:window-y="0"
     inkscape:window-maximized="1"
     inkscape:current-layer="svg27"
     inkscape:document-rotation="0" />
  <defs
     id="defs7">
    <linearGradient
       id="a"
       x1="31.637"
       x2="56"
       y1="43.058"
       y2="43.058"
       gradientUnits="userSpaceOnUse">
      <stop
         offset="0"
         id="stop2" />
      <stop
         stop-opacity="0"
         offset="1"
         id="stop4" />
    </linearGradient>
    <filter
       id="filter2761"
       x="-.024"
       y="-.024"
       width="1.048"
       height="1.048"
       color-interpolation-filters="sRGB">
      <feGaussianBlur
         stdDeviation="0.14552168"
         id="feGaussianBlur2" />
    </filter>
    <linearGradient
       id="a-9"
       x1="23.487"
       x2="23.487"
       y1="15.18"
       y2="32.913"
       gradientTransform="matrix(.12676 0 0 .12676 -27.515 6.7925)"
       gradientUnits="userSpaceOnUse">
      <stop
         stop-color="#141414"
         offset="0"
         id="stop5" />
      <stop
         stop-color="#30277f"
         offset="1"
         id="stop7" />
    </linearGradient>
    <radialGradient
       id="c-7"
       cx="24.047"
       cy="23.949"
       r="2.9867"
       gradientTransform="matrix(0.2056,-3.7539e-8,2.8431e-8,0.15571,-39.607,5.456)"
       gradientUnits="userSpaceOnUse">
      <stop
         stop-color="#2839e6"
         offset="0"
         id="stop10" />
      <stop
         stop-opacity="0"
         offset="1"
         id="stop12" />
    </radialGradient>
    <linearGradient
       id="d-6"
       x1="361.36"
       x2="361.36"
       y1="616.07"
       y2="722.79"
       gradientTransform="matrix(.0040372 0 0 .0040372 -25.925 7.1257)"
       gradientUnits="userSpaceOnUse">
      <stop
         stop-color="#fff"
         offset="0"
         id="stop15" />
      <stop
         stop-color="#fff"
         stop-opacity="0"
         offset="1"
         id="stop17" />
    </linearGradient>
    <radialGradient
       id="radialGradient123131"
       cx="-24.473"
       cy="9.8348"
       r="1.1409"
       gradientTransform="matrix(1.4202,0,0,1.0512,0.054505,-1.1471)"
       gradientUnits="userSpaceOnUse"
       xlink:href="#a-9" />
    <linearGradient
       id="linearGradient123141"
       x1="-24.485"
       x2="-24.485"
       y1="8.6962"
       y2="9.7506"
       gradientTransform="translate(-10.196,-0.6431)"
       gradientUnits="userSpaceOnUse"
       xlink:href="#d-6" />
    <linearGradient
       id="linearGradient123149"
       x1="-24.478"
       x2="-24.478"
       y1="11.104"
       y2="8.4912"
       gradientTransform="translate(-10.229,-0.6431)"
       gradientUnits="userSpaceOnUse">
      <stop
         stop-color="#2d1edc"
         offset="0"
         id="stop22" />
      <stop
         stop-color="#141414"
         offset="1"
         id="stop24" />
    </linearGradient>
    <radialGradient
       id="radialGradient123155"
       cx="-24.473"
       cy="9.8348"
       r="1.1409"
       gradientTransform="matrix(1.1403,0,0,0.84405,-6.7958,0.89063)"
       gradientUnits="userSpaceOnUse"
       xlink:href="#a-9" />
    <linearGradient
       id="linearGradient123157"
       x1="-24.478"
       x2="-24.478"
       y1="11.104"
       y2="8.4912"
       gradientTransform="matrix(0.8029,0,0,0.8029,-15.053,1.2953)"
       gradientUnits="userSpaceOnUse"
       xlink:href="#a-9" />
    <radialGradient
       id="radialGradient123159"
       cx="-24.473"
       cy="9.8348"
       r="1.5211"
       gradientTransform="matrix(0.93082,0,0,0.93082,-11.889,0.037279)"
       gradientUnits="userSpaceOnUse">
      <stop
         stop-color="#291dc0"
         offset="0"
         id="stop29" />
      <stop
         stop-color="#1b1b23"
         offset="1"
         id="stop31" />
    </radialGradient>
    <linearGradient
       id="linearGradient123161"
       x1="361.36"
       x2="361.36"
       y1="616.07"
       y2="722.79"
       gradientTransform="matrix(0.0040372,0,0,0.0040372,-36.122,6.4826)"
       gradientUnits="userSpaceOnUse"
       xlink:href="#d-6" />
    <linearGradient
       id="linearGradient123197"
       x1="-36.117"
       x2="-33.22"
       y1="10.638"
       y2="7.7404"
       gradientUnits="userSpaceOnUse">
      <stop
         offset="0"
         id="stop35" />
      <stop
         stop-opacity="0"
         offset="1"
         id="stop37" />
    </linearGradient>
    <linearGradient
       id="linearGradient952"
       x1="-20.384"
       x2="-23.272"
       y1="6.1331"
       y2="15.312"
       gradientUnits="userSpaceOnUse">
      <stop
         stop-color="#232323"
         offset="0"
         id="stop40" />
      <stop
         stop-color="#323296"
         offset=".95004"
         id="stop42" />
      <stop
         stop-color="#232323"
         offset="1"
         id="stop44" />
    </linearGradient>
    <linearGradient
       id="linearGradient1000"
       x1="-25.122"
       x2="-15.582"
       y1="9.3424"
       y2="9.3424"
       gradientUnits="userSpaceOnUse">
      <stop
         stop-color="#407fff"
         offset="0"
         id="stop47" />
      <stop
         stop-color="#ff407a"
         offset="1"
         id="stop49" />
    </linearGradient>
    <linearGradient
       id="linearGradient1024"
       x1="1.3315"
       x2="15.65"
       y1="15.576"
       y2="1.17"
       gradientUnits="userSpaceOnUse">
      <stop
         stop-color="#dddfe1"
         offset="0"
         id="stop52" />
      <stop
         stop-color="#f3f4f6"
         stop-opacity=".99608"
         offset="1"
         id="stop54" />
    </linearGradient>
    <filter
       color-interpolation-filters="sRGB"
       height="1.048"
       width="1.048"
       y="-.024"
       x="-.024"
       id="filter2761-3">
      <feGaussianBlur
         id="feGaussianBlur2-3"
         stdDeviation="0.14552168" />
    </filter>
    <linearGradient
       gradientUnits="userSpaceOnUse"
       gradientTransform="matrix(3.7796 0 0 3.7796 -.0026448 .53066)"
       y2="1.17"
       y1="15.576"
       x2="15.65"
       x1="1.3315"
       id="linearGradient1024-6">
      <stop
         id="stop5-7"
         offset="0"
         stop-color="#dddfe1" />
      <stop
         id="stop7-5"
         offset="1"
         stop-opacity=".99608"
         stop-color="#f3f4f6" />
    </linearGradient>
    <linearGradient
       id="linearGradient886"
       x1="74.341"
       x2="74.032"
       y1="15.186"
       y2="49.356"
       gradientUnits="userSpaceOnUse">
      <stop
         stop-color="#336df5"
         offset="0"
         id="stop891" />
      <stop
         stop-color="#42afe6"
         offset="1"
         id="stop893" />
    </linearGradient>
    <linearGradient
       id="linearGradient894"
       x1="76.747"
       x2="91.891"
       y1="32"
       y2="32"
       gradientUnits="userSpaceOnUse">
      <stop
         stop-color="#63c644"
         offset="0"
         id="stop896" />
      <stop
         stop-color="#96ca6b"
         stop-opacity=".98204"
         offset="1"
         id="stop898" />
    </linearGradient>
    <linearGradient
       id="linearGradient902"
       x1="95.889"
       x2="95.172"
       y1="17.085"
       y2="48.949"
       gradientUnits="userSpaceOnUse">
      <stop
         stop-color="#5da624"
         offset="0"
         id="stop901" />
      <stop
         stop-color="#6ba63f"
         stop-opacity=".9521"
         offset="1"
         id="stop903" />
    </linearGradient>
    <filter
       id="filter936"
       x="-.11782"
       y="-.099693"
       width="1.2356"
       height="1.1994"
       color-interpolation-filters="sRGB">
      <feGaussianBlur
         stdDeviation="1.4087092"
         id="feGaussianBlur906" />
    </filter>
    <style
       type="text/css"
       id="style909" />
    <style
       type="text/css"
       id="style911" />
    <style
       type="text/css"
       id="style913" />
    <style
       type="text/css"
       id="style915" />
    <filter
       id="filter11290"
       x="-.024"
       y="-.024"
       width="1.048"
       height="1.048"
       color-interpolation-filters="sRGB">
      <feGaussianBlur
         stdDeviation="0.15875313"
         id="feGaussianBlur917" />
    </filter>
    <linearGradient
       id="linearGradient1005"
       x1=".73911"
       x2="16.388"
       y1="16.296"
       y2=".64687"
       gradientTransform="matrix(3.7796,0,0,3.7796,-0.13115,0.025467)"
       gradientUnits="userSpaceOnUse">
      <stop
         stop-color="#dddfe1"
         offset="0"
         id="stop920" />
      <stop
         stop-color="#f3f4f6"
         offset="1"
         id="stop922" />
    </linearGradient>
  </defs>
  <circle
     transform="matrix(3.7796,0,0,3.7796,-0.10278795,0.02458453)"
     cx="8.4937"
     cy="8.46"
     r="7.9376998"
     filter="url(#filter11290)"
     opacity="0.25"
     stroke-width="0.14032"
     id="circle927" />
  <path
     d="m 62.0004,32.00045 c 0,3.5964 -0.63305,7.0448 -1.794,10.24 -0.80698,2.2212 -1.8686,4.3212 -3.1519,6.2636 -0.53754,0.8167 -1.1155,1.6054 -1.729,2.3633 -1.9641,2.4257 -4.2982,4.5382 -6.9186,6.2526 -0.96493,0.63187 -1.9678,1.2099 -3.0061,1.7277 -4.0321,2.0179 -8.5839,3.153 -13.401,3.153 -4.8171,0 -9.3689,-1.1351 -13.401,-3.1531 -1.0384,-0.51799 -2.0425,-1.096 -3.0074,-1.7277 -2.6535,-1.7376 -5.0155,-3.8832 -6.9957,-6.349 -0.61468,-0.76408 -1.1915,-1.56 -1.729,-2.3841 -1.249,-1.9102 -2.2837,-3.9712 -3.0747,-6.1494 -1.1608,-3.1949 -1.7927,-6.6419 -1.7927,-10.237 0,-16.569 13.432,-30.001 30.001,-30.001 8.317,0 15.843,3.3846 21.277,8.8507 1.5661,1.5747 2.9584,3.3234 4.1436,5.214 1.1205,1.7805 2.0572,3.6882 2.7857,5.6951 1.161,3.196 1.7941,6.6442 1.7941,10.24 z"
     fill="url(#linearGradient1005)"
     stroke-width="0.11719"
     id="path929"
     style="fill:url(#linearGradient1005)" />
  <g
     id="g1020"
     transform="matrix(0.67307692,0,0,0.67307692,10.461539,10.461539)">
    <g
       fill="#8e8e8e"
       id="g13">
      <path
         d="m 61.714285,40 v 2 H 2.2857133 v -2 z m 0,6 v 2 H 2.2857133 v -2 z m 0,6 v 2 H 2.2857133 v -2 z m 0,-30 v 2 H 2.2857133 v -2 z m 0,6 v 2 H 2.2857133 v -2 z m 0,6 v 2 H 2.2857133 v -2 z m 0,-18 v 2 H 2.2857133 v -2 z m 0,-6 v 2 H 2.2857133 v -2 z"
         id="path9"
         style="stroke-width:1.06904" />
      <path
         d="M 24,61.714285 H 22 V 2.2857133 h 2 z m -6,0 H 16 V 2.2857133 h 2 z m -6,0 H 10 V 2.2857133 h 2 z m 30,0 H 40 V 2.2857133 h 2 z m -6,0 H 34 V 2.2857133 h 2 z m -6,0 H 28 V 2.2857133 h 2 z m 18,0 H 46 V 2.2857133 h 2 z m 6,0 H 52 V 2.2857133 h 2 z"
         id="path11"
         style="stroke-width:1.06904" />
    </g>
    <rect
       transform="matrix(0,-1,-1,0,0,0)"
       x="-56"
       y="-56"
       width="48"
       height="48"
       rx="2.5"
       ry="2.5"
       fill="#4d4d4d"
       id="rect15" />
    <g
       fill="#00ffff"
       id="g19">
      <path
         d="m 14,23 h 12 v 2 H 14 Z m 14,0 h 6 v 2 h -6 z m 8,0 h 14 v 2 H 36 Z m -22,8 h 16 v 2 H 14 Z m 18,0 h 16 v 2 H 32 Z m -18,8 h 6 v 2 h -6 z m 8,0 h 6 v 2 h -6 z m 8,0 h 12 v 2 H 30 Z"
         opacity="0.5"
         id="path17" />
    </g>
    <path
       d="m 28.709,36.833 c -1.7084,0 -3.0837,1.3753 -3.0837,3.0837 0,1.7084 1.3753,3.0837 3.0837,3.0837 1.7084,0 3.0837,-1.3753 3.0837,-3.0837 0,-1.7084 -1.3753,-3.0837 -3.0837,-3.0837 z m -5.3964,-7.7092 a 2.3066,2.3066 0 0 0 -2.3128,2.3128 2.3128,2.3128 0 1 0 4.6255,0 2.3066,2.3066 0 0 0 -2.3128,-2.3128 z m 11.564,-7.7092 -3.0837,3.0837 4.6255,4.6255 -4.6255,4.6255 3.0837,3.0837 7.7092,-7.7092 -3.0837,-3.0837 z m -7.7092,0 a 1.54185,1.54185 0 1 0 0,3.0837 1.54185,1.54185 0 1 0 0,-3.0837 z"
       fill="#ffffff"
       stroke="#4d4d4d"
       stroke-width="2"
       id="path23" />
    <path
       d="m 28.916,36.626 c -1.7084,0 -3.0837,1.3753 -3.0837,3.0837 0,1.7084 1.3753,3.0837 3.0837,3.0837 1.7084,0 3.0837,-1.3753 3.0837,-3.0837 0,-1.7084 -1.3753,-3.0837 -3.0837,-3.0837 z m -5.3964,-7.7092 a 2.3066,2.3066 0 0 0 -2.3128,2.3128 2.3128,2.3128 0 1 0 4.6255,0 2.3066,2.3066 0 0 0 -2.3128,-2.3128 z m 11.564,-7.7092 -3.0837,3.0837 4.6255,4.6255 -4.6255,4.6255 3.0837,3.0837 7.7092,-7.7092 -3.0837,-3.0837 z m -7.7092,0 a 1.54185,1.54185 0 1 0 0,3.0837 1.54185,1.54185 0 1 0 0,-3.0837 z"
       fill="#ffffff"
       id="path25" />
  </g>
  <g
     fill="#5e4aa6"
     id="g969"
     transform="translate(-75.64372)">
    <circle
       cx="-1173.8"
       cy="-1241.6"
       r="0"
       id="circle955" />
    <circle
       cx="-74.230003"
       cy="23.855"
       r="0"
       fill-rule="evenodd"
       id="circle957" />
    <g
       transform="matrix(3.7796,0,0,3.7796,-28,-38.72)"
       stroke-width="0.26458"
       id="g967">
      <circle
         cx="-330.35001"
         cy="-328.38"
         r="0"
         id="circle959" />
      <circle
         cx="-312.10999"
         cy="-326.25"
         r="0"
         id="circle961" />
      <circle
         cx="-306.01999"
         cy="-333.07001"
         r="0"
         id="circle963" />
      <circle
         cx="-308.84"
         cy="-326.01001"
         r="0"
         id="circle965" />
    </g>
  </g>
</svg>
