<?xml version="1.0" encoding="UTF-8"?>
<!-- Created with Inkscape (http://www.inkscape.org/) -->
<svg width="64" height="64" version="1.1" viewBox="0 0 16.933 16.933" xmlns="http://www.w3.org/2000/svg" xmlns:cc="http://creativecommons.org/ns#" xmlns:dc="http://purl.org/dc/elements/1.1/" xmlns:rdf="http://www.w3.org/1999/02/22-rdf-syntax-ns#">
 <defs>
  <filter id="filter11290" x="-.024" y="-.024" width="1.048" height="1.048" color-interpolation-filters="sRGB">
   <feGaussianBlur stdDeviation="0.15875313"/>
  </filter>
  <linearGradient id="linearGradient1005" x1=".73911" x2="12.872" y1="16.296" y2="4.1627" gradientTransform="translate(-.00805 -5.0139e-5)" gradientUnits="userSpaceOnUse">
   <stop stop-color="#3caaff" offset="0"/>
   <stop stop-color="#b496ff" offset="1"/>
  </linearGradient>
 </defs>
 <metadata>
  <rdf:RDF>
   <cc:Work rdf:about="">
    <dc:format>image/svg+xml</dc:format>
    <dc:type rdf:resource="http://purl.org/dc/dcmitype/StillImage"/>
    <dc:title/>
   </cc:Work>
  </rdf:RDF>
 </metadata>
 <circle cx="8.4937" cy="8.46" r="7.9377" filter="url(#filter11290)" opacity=".25" stroke-width=".14032"/>
 <g fill="#5e4aa6" stroke-width=".26458">
  <circle cx="-330.35" cy="-328.38" r="0"/>
  <circle cx="-312.11" cy="-326.25" r="0"/>
  <circle cx="-306.02" cy="-333.07" r="0"/>
  <circle cx="-308.84" cy="-326.01" r="0"/>
 </g>
 <path d="m16.431 8.4599c0 0.95154-0.16749 1.8639-0.47464 2.7094-0.21351 0.58768-0.49439 1.1433-0.83393 1.6572-0.14222 0.21608-0.29514 0.42475-0.45746 0.62529-0.51966 0.64179-1.1372 1.2007-1.8305 1.6543-0.2553 0.16718-0.52065 0.3201-0.79536 0.45712-1.0668 0.53389-2.2711 0.83421-3.5456 0.83421s-2.4788-0.30032-3.5456-0.83424c-0.27474-0.13705-0.5404-0.28997-0.7957-0.45712-0.70207-0.45973-1.327-1.0274-1.8509-1.6798-0.16263-0.20216-0.31524-0.41275-0.45746-0.63078-0.33046-0.5054-0.60421-1.0507-0.8135-1.627-0.30711-0.84529-0.4743-1.7573-0.4743-2.7085 0-4.3838 3.5537-7.9375 7.9375-7.9375 2.2005 0 4.1917 0.89548 5.6295 2.3417 0.41436 0.41662 0.78274 0.87929 1.0963 1.3795 0.29645 0.47107 0.54428 0.97582 0.73704 1.5068 0.30718 0.84559 0.47467 1.7579 0.47467 2.7094z" fill="url(#linearGradient1005)" stroke-width=".031006"/>
 <g stroke-width=".019409">
  <path d="m12.072 3.5469-7.5132 2.0132c-0.28604 0.076645-0.45357 0.36681-0.37693 0.65286l1.3984 5.2188c0.076645 0.28604 0.36681 0.45357 0.65286 0.37693l7.5074-2.0116c0.28604-0.076645 0.45357-0.36681 0.37693-0.65286l-1.3984-5.2188c-0.070289-0.28774-0.36681-0.45357-0.6465-0.37863z" fill="#f1f3f7"/>
  <rect transform="rotate(-15)" x="2.9642" y="7.8601" width="7.7783" height="4.6001" fill="#fcfcfd"/>
  <circle transform="rotate(-15)" cx="10.572" cy="7.2415" r=".17111" fill="#f0582f"/>
  <circle transform="rotate(-15)" cx="9.9728" cy="7.2415" r=".17111" fill="#fbd303"/>
  <circle transform="rotate(-15)" cx="9.3738" cy="7.2415" r=".17111" fill="#6eb1e1"/>
 </g>
 <path d="m3.8982 12.944 2.1121-0.56594 0.56593 2.1121-2.1121 0.56593z" fill="#fff" opacity=".1" stroke-width="1.3321"/>
 <path d="m3.4952 8.2951-0.33175 1.9069c0.10767-0.10585 0.23186-0.19473 0.36576-0.26654l1.3733 3.5991-0.61124-3.8042c0.15107-0.00455 0.30146 0.010765 0.44465 0.050251zm5.5334 3.8533c0.10585 0.10767 0.19473 0.23186 0.26654 0.36576l-3.7308 1.4086 3.9361-0.64573a1.5205 1.5205 0 0 1-0.050465 0.44385l1.4855-1.2407z" fill="#fff" stroke-width="1.3321"/>
 <path d="m3.5778 11.225 3.6686-0.98301 0.98301 3.6686-3.6686 0.983z" fill="none" opacity=".2" stroke="#fff" stroke-dasharray="0.70486709, 0.70486709" stroke-dashoffset="1" stroke-width=".43731"/>
</svg>
