<?xml version="1.0" encoding="UTF-8"?>
<svg width="64" height="64" version="1.1" viewBox="0 0 16.933 16.933" xmlns="http://www.w3.org/2000/svg" xmlns:cc="http://creativecommons.org/ns#" xmlns:dc="http://purl.org/dc/elements/1.1/" xmlns:rdf="http://www.w3.org/1999/02/22-rdf-syntax-ns#" xmlns:xlink="http://www.w3.org/1999/xlink">
 <defs>
  <filter id="filter11290-4" x="-.024" y="-.024" width="1.048" height="1.048" color-interpolation-filters="sRGB">
   <feGaussianBlur stdDeviation="0.15875313"/>
  </filter>
  <linearGradient id="linearGradient1005-44" x1="2.3176" x2="14.487" y1="14.718" y2="2.5484" gradientTransform="translate(-.034965 .00655)" gradientUnits="userSpaceOnUse">
   <stop stop-color="#ff7832" offset="0"/>
   <stop stop-color="#f03c8c" offset=".33083"/>
   <stop stop-color="#32b4ff" offset=".66165"/>
   <stop stop-color="#b950fa" offset="1"/>
  </linearGradient>
  <linearGradient id="linearGradient2104" x1="5.8143" x2="11.298" y1="11.731" y2="5.2019" gradientTransform="matrix(1 0 0 1 -3.3167 .7465)" gradientUnits="userSpaceOnUse" xlink:href="#linearGradient1005-44"/>
  <linearGradient id="linearGradient1330" x1="2.3176" x2="14.487" y1="14.718" y2="2.5484" gradientTransform="matrix(1 0 0 1 -3.3517 .75305)" gradientUnits="userSpaceOnUse" xlink:href="#linearGradient1005-44"/>
 </defs>
 <metadata>
  <rdf:RDF>
   <cc:Work rdf:about="">
    <dc:format>image/svg+xml</dc:format>
    <dc:type rdf:resource="http://purl.org/dc/dcmitype/StillImage"/>
    <dc:title/>
   </cc:Work>
  </rdf:RDF>
 </metadata>
 <g transform="translate(3.3167 -.7465)">
  <circle transform="matrix(1 0 0 1 -3.3167 .7465)" cx="8.4665" cy="8.4665" r="7.9377" filter="url(#filter11290-4)" opacity=".25" stroke-width=".14032"/>
  <path d="m13.088 9.2131c0 0.95156-0.16749 1.8639-0.47465 2.7095-0.21352 0.58769-0.4944 1.1433-0.83395 1.6572-0.14222 0.21608-0.29515 0.42476-0.45747 0.6253-0.51967 0.6418-1.1372 1.2007-1.8305 1.6543-0.2553 0.16718-0.52066 0.32011-0.79538 0.45713-1.0668 0.5339-2.2711 0.83423-3.5457 0.83423s-2.4788-0.30033-3.5457-0.83426c-0.27475-0.13705-0.54041-0.28998-0.79572-0.45713-0.70208-0.45974-1.327-1.0274-1.8509-1.6798-0.16263-0.20216-0.31525-0.41276-0.45747-0.63079-0.33047-0.50541-0.60422-1.0507-0.81352-1.627-0.30712-0.84531-0.47431-1.7573-0.47431-2.7086 0-4.3839 3.5538-7.9377 7.9377-7.9377 2.2005 0 4.1918 0.8955 5.6296 2.3417 0.41437 0.41663 0.78276 0.87931 1.0963 1.3795 0.29646 0.47108 0.54429 0.97584 0.73706 1.5068 0.30719 0.84561 0.47468 1.7579 0.47468 2.7095z" fill="url(#linearGradient1330)" stroke-width=".031007"/>
  <path d="m5.1498 3.2601c0.71365 5e-7 1.3979 0.12559 2.032 0.35598 0.44076 0.16011 0.85746 0.37078 1.2429 0.62545 0.16205 0.10665 0.31856 0.22136 0.46896 0.34311 0.48134 0.38975 0.90051 0.85288 1.2407 1.3729 0.1254 0.19144 0.24008 0.39049 0.34285 0.59653 0.40043 0.8001 0.62565 1.7033 0.62565 2.6593 0 0.95591-0.22522 1.8591-0.62567 2.6593-0.10272 0.20608-0.2175 0.40526-0.34285 0.59678-0.34481 0.52655-0.77055 0.9952-1.2599 1.3881-0.15162 0.12197-0.30956 0.23644-0.47308 0.34311-0.37904 0.24786-0.78802 0.45315-1.2202 0.61011-0.63395 0.23034-1.3179 0.35572-2.0313 0.35572-3.2879 2e-6 -5.9531-2.6653-5.9531-5.9531 0-1.6503 0.67161-3.1437 1.7562-4.2222 0.31247-0.31076 0.65947-0.58705 1.0346-0.82222 0.35331-0.22234 0.73186-0.40821 1.1301-0.55278 0.63418-0.23038 1.3184-0.356 2.032-0.356z" fill="#fff" stroke-width=".023256"/>
  <path d="m5.1492 12.521a0.10952 0.10952 0 0 0 0.076492-0.03303l1.827-1.827a2.7598 2.7598 0 0 0 0.048681-0.04346 2.7598 2.7598 0 0 0 0-3.9028 2.7598 2.7598 0 0 0-3.9028 0 2.7598 2.7598 0 0 0-8.765e-4 3.9028 2.7598 2.7598 0 0 0 0.066061 0.06084c0.00351 0.0043 0.00438 0.0087 0.00869 0.01303l1.7966 1.7966a0.10952 0.10952 0 0 0 0.079968 0.03303zm-0.019991-2.4755a1.3803 1.3803 0 0 1-0.95613-0.40418 1.3803 1.3803 0 0 1 0-1.9513 1.3803 1.3803 0 0 1 1.9522 0 1.3803 1.3803 0 0 1 0 1.9513 1.3803 1.3803 0 0 1-0.99612 0.40418z" color="#000000" fill="url(#linearGradient2104)" overflow="visible" stroke-width=".86921" style="isolation:auto;mix-blend-mode:normal;paint-order:fill markers stroke"/>
 </g>
</svg>
