<?xml version="1.0" encoding="UTF-8"?>
<svg width="64" height="64" version="1.1" viewBox="0 0 16.933 16.933" xmlns="http://www.w3.org/2000/svg" xmlns:cc="http://creativecommons.org/ns#" xmlns:dc="http://purl.org/dc/elements/1.1/" xmlns:rdf="http://www.w3.org/1999/02/22-rdf-syntax-ns#" xmlns:xlink="http://www.w3.org/1999/xlink">
 <defs>
  <filter id="filter11290-5" x="-.024" y="-.024" width="1.048" height="1.048" color-interpolation-filters="sRGB">
   <feGaussianBlur stdDeviation="0.15875313"/>
  </filter>
  <linearGradient id="linearGradient1005-3" x1=".9215" x2="16.137" y1="16.113" y2=".89807" gradientTransform="matrix(1 0 0 1 3.7925 3.6337)" gradientUnits="userSpaceOnUse">
   <stop stop-color="#a53cff" offset="0"/>
   <stop stop-color="#b496ff" offset="1"/>
  </linearGradient>
  <linearGradient id="linearGradient2997" x1="26.531" x2="44.537" y1="35.031" y2="35.031" gradientTransform="matrix(.294 0 0 .294 1.8472 1.8482)" gradientUnits="userSpaceOnUse">
   <stop stop-color="#32dcff" offset="0"/>
   <stop stop-color="#3296ff" offset="1"/>
  </linearGradient>
 </defs>
 <metadata>
  <rdf:RDF>
   <cc:Work rdf:about="">
    <dc:format>image/svg+xml</dc:format>
    <dc:type rdf:resource="http://purl.org/dc/dcmitype/StillImage"/>
    <dc:title/>
   </cc:Work>
  </rdf:RDF>
 </metadata>
 <g transform="translate(-3.8277 -3.6273)">
  <circle transform="matrix(1 0 0 1 3.8277 3.6273)" cx="8.4665" cy="8.4665" r="7.9377" filter="url(#filter11290-5)" opacity=".25" stroke-width=".14032"/>
  <path d="m20.232 12.094c0 0.95155-0.16749 1.8639-0.47466 2.7093-0.21351 0.58769-0.4944 1.1433-0.83394 1.6572-0.14222 0.21608-0.29514 0.42476-0.45746 0.62529-0.51967 0.6418-1.1372 1.2007-1.8305 1.6543-0.2553 0.16718-0.52065 0.32012-0.79536 0.45712-1.0668 0.5339-2.2712 0.83423-3.5457 0.83423-1.2745 0-2.4789-0.30033-3.5457-0.83426-0.27474-0.13706-0.54041-0.28998-0.79571-0.45712-0.70207-0.45974-1.327-1.0274-1.8509-1.6798-0.16263-0.20216-0.31525-0.41275-0.45746-0.63079-0.33046-0.50541-0.60423-1.0507-0.81351-1.627-0.30713-0.84532-0.47432-1.7573-0.47432-2.7085 0-4.3839 3.5539-7.9378 7.9378-7.9378 2.2005 0 4.1918 0.89551 5.6295 2.3417 0.41436 0.41664 0.78274 0.87932 1.0963 1.3795 0.29646 0.47109 0.5443 0.97584 0.73705 1.5068 0.30718 0.84561 0.47469 1.7579 0.47469 2.7093z" fill="url(#linearGradient1005-3)" stroke-width=".031006"/>
  <g stroke-width="1.1112">
   <path d="m17.478 11.766c-0.11112-0.15557-0.23224-0.30003-0.3556-0.44448-0.65895-0.77229-1.4157-1.4601-2.2447-1.9591-0.52894-0.32002-1.0968-0.57784-1.6835-0.70006a4.4415 4.4415 0 0 0-0.9001-0.096675c-0.2978 0-0.59671 0.033337-0.89566 0.095564-0.58783 0.12446-1.1523 0.38115-1.6824 0.70008-0.82898 0.50004-1.5868 1.189-2.2491 1.9602-0.12224 0.14335-0.24002 0.28892-0.35116 0.44448a0.53338 0.53338 0 0 0 0 0.65563c0.33669 0.47338 0.73895 0.8923 1.1446 1.2779 0.88007 0.82454 1.888 1.5157 2.998 1.7957a4.2316 4.2316 0 0 0 2.0702 0c1.1101-0.28003 2.1191-0.97122 3.0003-1.7968a8.7599 8.7599 0 0 0 1.1468-1.2757 0.54117 0.54117 0 0 0 0-0.65672" fill="#fafafa"/>
   <path d="m14.943 12.093a2.6469 2.6469 0 1 1-5.2927 0 2.6469 2.6469 0 0 1 5.2927 0" fill="url(#linearGradient2997)"/>
   <path d="m13.767 12.093a1.4696 1.4696 0 1 1-2.9392 0 1.4696 1.4696 0 0 1 2.9392 0" fill="#141414"/>
   <path d="m13.473 11.505a0.58783 0.58783 0 1 1-1.1757 0 0.58783 0.58783 0 0 1 1.1757 0" fill="#f9f9f9"/>
   <path d="m14.351 9.0707-4.7782 5.6661c0.2178 0.14112 0.44004 0.26669 0.66895 0.38003l4.7749-5.6672c-0.21224-0.1489-0.46006-0.27336-0.66674-0.37783" fill="#d5122d"/>
  </g>
 </g>
</svg>
