<?xml version="1.0" encoding="UTF-8" standalone="no"?>
<svg
   xmlns:dc="http://purl.org/dc/elements/1.1/"
   xmlns:cc="http://creativecommons.org/ns#"
   xmlns:rdf="http://www.w3.org/1999/02/22-rdf-syntax-ns#"
   xmlns:svg="http://www.w3.org/2000/svg"
   xmlns="http://www.w3.org/2000/svg"
   xmlns:xlink="http://www.w3.org/1999/xlink"
   xmlns:sodipodi="http://sodipodi.sourceforge.net/DTD/sodipodi-0.dtd"
   xmlns:inkscape="http://www.inkscape.org/namespaces/inkscape"
   inkscape:version="1.0 (4035a4fb49, 2020-05-01)"
   sodipodi:docname="preferences-color2.svg"
   id="svg210"
   viewBox="0 0 16.933 16.933"
   version="1.1"
   height="64"
   width="64">
  <metadata
     id="metadata214">
    <rdf:RDF>
      <cc:Work
         rdf:about="">
        <dc:format>image/svg+xml</dc:format>
        <dc:type
           rdf:resource="http://purl.org/dc/dcmitype/StillImage" />
        <dc:title></dc:title>
      </cc:Work>
    </rdf:RDF>
  </metadata>
  <sodipodi:namedview
     inkscape:current-layer="svg210"
     inkscape:window-maximized="1"
     inkscape:window-y="36"
     inkscape:window-x="0"
     inkscape:cy="-5.3131977"
     inkscape:cx="17.275947"
     inkscape:zoom="2.9804688"
     showgrid="false"
     id="namedview212"
     inkscape:window-height="932"
     inkscape:window-width="1920"
     inkscape:pageshadow="2"
     inkscape:pageopacity="0"
     guidetolerance="10"
     gridtolerance="10"
     objecttolerance="10"
     borderopacity="1"
     bordercolor="#666666"
     pagecolor="#ffffff" />
  <defs
     id="defs80">
    <linearGradient
       gradientUnits="userSpaceOnUse"
       gradientTransform="matrix(.99997 0 0 .99997 3.7616e-5 .0083364)"
       y2="1.852"
       y1="15.081"
       x2="7.9373"
       x1="7.9373"
       id="linearGradient862-3">
      <stop
         id="stop2"
         offset="0"
         stop-color="#f1efeb" />
      <stop
         id="stop4"
         offset="1"
         stop-color="#fdfcfc" />
    </linearGradient>
    <linearGradient
       gradientUnits="userSpaceOnUse"
       gradientTransform="translate(.031579 -.025181)"
       y2="10.806"
       y1="12.46"
       x2="4.7162"
       x1="4.7162"
       id="linearGradient921">
      <stop
         id="stop7"
         offset="0"
         stop-color="#8290ae" />
      <stop
         id="stop9"
         offset="1"
         stop-color="#fff" />
    </linearGradient>
    <linearGradient
       gradientUnits="userSpaceOnUse"
       gradientTransform="matrix(.60872 0 0 .60872 1.8827 4.5398)"
       y2="10.806"
       y1="12.56"
       x2="4.7162"
       x1="4.7162"
       id="linearGradient925">
      <stop
         id="stop12"
         offset="0"
         stop-color="#c0c6d4" />
      <stop
         id="stop14"
         offset="1"
         stop-color="#515769" />
    </linearGradient>
    <linearGradient
       gradientUnits="userSpaceOnUse"
       gradientTransform="matrix(.38175 0 0 .38175 2.9564 7.1877)"
       y2="10.806"
       y1="12.56"
       x2="4.7162"
       x1="4.7162"
       id="linearGradient929">
      <stop
         id="stop17"
         offset="0"
         stop-color="#2f323b" />
      <stop
         id="stop19"
         offset="1"
         stop-color="#111419" />
    </linearGradient>
    <radialGradient
       gradientUnits="userSpaceOnUse"
       gradientTransform="translate(0 -.00063009)"
       r="4"
       cy="44"
       cx="18"
       id="radialGradient981">
      <stop
         id="stop22"
         offset="0"
         stop-color="#8290ae" />
      <stop
         id="stop24"
         offset=".75"
         stop-color="#020403" />
      <stop
         id="stop26"
         offset=".84466"
         stop-color="#2b402c" />
      <stop
         id="stop28"
         offset=".88874"
         stop-color="#3a5635" />
      <stop
         id="stop30"
         offset=".94376"
         stop-color="#4a8242" />
      <stop
         id="stop32"
         offset="1"
         stop-color="#010201" />
    </radialGradient>
    <filter
       color-interpolation-filters="sRGB"
       height="1.024"
       width="1.024"
       y="-.012"
       x="-.012"
       id="filter1037">
      <feGaussianBlur
         id="feGaussianBlur35"
         stdDeviation="0.040000286" />
    </filter>
    <radialGradient
       gradientUnits="userSpaceOnUse"
       r="1.0583"
       cy="11.377"
       cx="4.7624"
       id="radialGradient1043">
      <stop
         id="stop38"
         offset="0"
         stop-opacity="0" />
      <stop
         id="stop40"
         offset=".70384"
         stop-opacity="0" />
      <stop
         id="stop42"
         offset="1" />
    </radialGradient>
    <radialGradient
       gradientUnits="userSpaceOnUse"
       gradientTransform="scale(3.7796)"
       r=".64421"
       cy="11.641"
       cx="4.7624"
       id="radialGradient1057">
      <stop
         id="stop45"
         offset="0"
         stop-opacity="0" />
      <stop
         id="stop47"
         offset=".8214"
         stop-opacity="0" />
      <stop
         id="stop49"
         offset="1" />
    </radialGradient>
    <radialGradient
       gradientUnits="userSpaceOnUse"
       gradientTransform="matrix(1.25 0 0 1.25 -1.1906 -2.6458)"
       r="1.0583"
       cy="11.641"
       cx="4.7624"
       id="radialGradient1076">
      <stop
         id="stop52"
         offset="0" />
      <stop
         id="stop54"
         offset="1"
         stop-opacity="0"
         stop-color="#111419" />
    </radialGradient>
    <linearGradient
       gradientUnits="userSpaceOnUse"
       y2="3.9687"
       y1="12.725"
       x2="4.7624"
       x1="4.7624"
       id="linearGradient1226">
      <stop
         id="stop57"
         offset="0"
         stop-color="#4dae33" />
      <stop
         id="stop59"
         offset="1"
         stop-color="#6fc84a" />
    </linearGradient>
    <linearGradient
       gradientUnits="userSpaceOnUse"
       y2="3.7041"
       y1="12.171"
       x2="4.7624"
       x1="4.7624"
       id="linearGradient1234">
      <stop
         id="stop62"
         offset="0"
         stop-color="#fcaa00" />
      <stop
         id="stop64"
         offset="1"
         stop-color="#fdc500" />
    </linearGradient>
    <linearGradient
       gradientUnits="userSpaceOnUse"
       y2="3.7041"
       y1="12.435"
       x2="4.7624"
       x1="4.7624"
       id="linearGradient1242">
      <stop
         id="stop67"
         offset="0"
         stop-color="#f36d01" />
      <stop
         id="stop69"
         offset="1"
         stop-color="#f69901" />
    </linearGradient>
    <linearGradient
       gradientUnits="userSpaceOnUse"
       gradientTransform="rotate(90,5.19,12.069)"
       y2="3.7041"
       y1="12.435"
       x2="4.7624"
       x1="4.7624"
       id="linearGradient1250">
      <stop
         id="stop72"
         offset="0"
         stop-color="#db2f2f" />
      <stop
         id="stop74"
         offset="1"
         stop-color="#e54243" />
    </linearGradient>
    <filter
       color-interpolation-filters="sRGB"
       height="1.2164"
       width="1.2156"
       y="-.10822"
       x="-.10778"
       id="filter1275">
      <feGaussianBlur
         id="feGaussianBlur77"
         stdDeviation="0.47804664" />
    </filter>
    <linearGradient
       id="linearGradient1057">
      <stop
         stop-color="#fff"
         offset="0"
         id="stop1041" />
      <stop
         stop-color="#fff"
         stop-opacity="0"
         offset="1"
         id="stop1043" />
    </linearGradient>
    <linearGradient
       id="linearGradient982"
       x1="34.999"
       x2="34.999"
       y1="27.545"
       y2="52.847"
       gradientTransform="matrix(1.5625,0,0,1.5625,0.40633,-5.1891)"
       gradientUnits="userSpaceOnUse">
      <stop
         stop-color="#32b4ff"
         offset="0"
         id="stop1046" />
      <stop
         stop-color="#3287ff"
         offset="1"
         id="stop1048" />
    </linearGradient>
    <style
       type="text/css"
       id="style1051" />
    <style
       type="text/css"
       id="style1053" />
    <linearGradient
       id="linearGradient1047"
       x1="21.314"
       x2="21.314"
       y1="18.052"
       y2="43.681"
       gradientTransform="matrix(1.5625,0,0,1.5625,-9.2253,1.3231)"
       gradientUnits="userSpaceOnUse">
      <stop
         stop-color="#14dc78"
         offset="0"
         id="stop1055" />
      <stop
         stop-color="#14a03c"
         offset="1"
         id="stop1057" />
    </linearGradient>
    <linearGradient
       id="linearGradient1049"
       x1="41.729"
       x2="41.729"
       y1="12.316"
       y2="37.368"
       gradientTransform="matrix(1.5625,0,0,1.5625,-8.1072,-10.908)"
       gradientUnits="userSpaceOnUse">
      <stop
         stop-color="#ff3c64"
         offset="0"
         id="stop1060" />
      <stop
         stop-color="#ff4628"
         offset="1"
         id="stop1062" />
    </linearGradient>
    <linearGradient
       id="linearGradient1059"
       x1="34.427"
       x2="34.427"
       y1="32.234"
       y2="39.768"
       gradientTransform="matrix(1,0,0,1.2271,0.20646,-10.975)"
       gradientUnits="userSpaceOnUse"
       xlink:href="#linearGradient1057" />
    <linearGradient
       id="linearGradient1063"
       x1="34.427"
       x2="34.427"
       y1="32.234"
       y2="39.768"
       gradientTransform="matrix(1,0,0,1.2271,-12.55,-19.793)"
       gradientUnits="userSpaceOnUse"
       xlink:href="#linearGradient1057" />
    <linearGradient
       id="linearGradient1067"
       x1="34.427"
       x2="34.427"
       y1="32.234"
       y2="39.768"
       gradientTransform="matrix(1,0,0,1.2271,5.7554,-25.761)"
       gradientUnits="userSpaceOnUse"
       xlink:href="#linearGradient1057" />
    <filter
       id="filter11290"
       x="-.024"
       y="-.024"
       width="1.048"
       height="1.048"
       color-interpolation-filters="sRGB">
      <feGaussianBlur
         stdDeviation="0.15875313"
         id="feGaussianBlur1068" />
    </filter>
    <linearGradient
       id="linearGradient1005"
       x1=".73911"
       x2="16.388"
       y1="16.296"
       y2=".64687"
       gradientTransform="translate(-0.034805,0.0066193)"
       gradientUnits="userSpaceOnUse">
      <stop
         stop-color="#dddfe1"
         offset="0"
         id="stop1071" />
      <stop
         stop-color="#f3f4f6"
         offset="1"
         id="stop1073" />
    </linearGradient>
  </defs>
  <circle
     id="circle1078"
     stroke-width="0.14032"
     opacity="0.25"
     filter="url(#filter11290)"
     r="7.9376998"
     cy="8.4665003"
     cx="8.4665003" />
  <path
     id="path1080"
     stroke-width="0.0310059"
     fill="url(#linearGradient1005)"
     d="m 16.403949,8.4666193 c 0,0.951529 -0.167491,1.8638997 -0.474653,2.7092797 -0.213509,0.587681 -0.49439,1.143295 -0.833923,1.657211 -0.142222,0.216081 -0.295137,0.424754 -0.457456,0.625278 -0.519658,0.641787 -1.13721,1.200709 -1.83051,1.654301 -0.2553,0.167179 -0.520637,0.320113 -0.795349,0.457112 -1.066805,0.533892 -2.271112,0.834215 -3.545611,0.834215 -1.274499,0 -2.478806,-0.300323 -3.545611,-0.834242 C 4.646098,15.432726 4.380435,15.279797 4.125143,15.112663 3.423085,14.652932 2.798152,14.085253 2.274234,13.432856 2.111603,13.230697 1.958989,13.020114 1.816779,12.802075 1.486321,12.296678 1.212562,11.751383 1.00328,11.175079 0.696158,10.329778 0.528971,9.4177773 0.528971,8.4665923 c 0,-4.383794 3.553814,-7.937608 7.937608,-7.937608 2.200497,0 4.191712,0.895491 5.629429,2.341702 0.414356,0.416631 0.782728,0.879299 1.096306,1.37951 0.29646,0.471081 0.54429,0.975817 0.737035,1.506799 0.307175,0.845592 0.47468,1.75791 0.47468,2.70928 z"
     style="fill:url(#linearGradient1005)" />
  <path
     id="path96"
     opacity=".15"
     filter="url(#filter1275)"
     d="m-3.5091 11.696c0 1.1726 0.94401 2.1166 2.1166 2.1166h6.3499c0.55884 0 1.0642-0.21602 1.4417-0.5674 0.00686-0.0062 0.013885-0.01226 0.02067-0.0186 0.032601-0.03115 0.063498-0.06398 0.094049-0.09715 0.022668-0.0241 0.045514-0.04805 0.067178-0.07338 0.00977-0.01166 0.018906-0.02379 0.028422-0.03566 0.072627-0.08869 0.14072-0.1826 0.19998-0.28525 0.24373-0.42215 0.3241-0.89122 0.26458-1.3379v-6.1127c0-1.1726-0.94401-2.1166-2.1166-2.1166-0.84158 0-1.5631 0.48774-1.9048 1.1958-0.65912-0.51324-1.5861-0.60543-2.3564-0.16071-0.79216 0.45735-1.1743 1.3422-1.0268 2.1916-0.79644-0.073476-1.5976 0.30853-2.0252 1.049-0.43389 0.75153-0.35663 1.6527 0.12402 2.3083-0.75256 0.32381-1.2774 1.0701-1.2774 1.944z"
     transform="rotate(90 4.9631 12.296)" />
  <g
     id="g208"
     stroke-linejoin="round"
     stroke-linecap="round">
    <path
       id="path98"
       stroke-width=".052916"
       stroke-opacity=".2"
       stroke="#7f7f7f"
       fill="url(#linearGradient1250)"
       d="m14.084 11.641c0 1.1726-0.94401 2.1166-2.1166 2.1166h-6.3499c-1.1726 0-2.1166-0.94401-2.1166-2.1166s0.94402-2.1166 2.1166-2.1166h6.3499c1.1726 0 2.1166 0.94401 2.1166 2.1166z" />
    <g
       id="g118"
       stroke-opacity=".15"
       transform="rotate(90,5.19,12.069)">
      <g
         id="g114"
         stroke-width=".052916">
        <rect
           id="rect100"
           stroke="#fdfdfd"
           fill="none"
           ry=".26458"
           rx=".26458"
           height="1.3229"
           width="3.1749"
           y="8.7925"
           x="3.1749" />
        <rect
           id="rect102"
           stroke="#fdfdfd"
           fill="none"
           ry=".26458"
           rx=".26458"
           height="1.3229"
           width="3.1749"
           y="7.2051"
           x="3.1749" />
        <rect
           id="rect104"
           stroke="#000"
           fill="#bb1112"
           ry=".26458"
           rx=".26458"
           height="1.3229"
           width="3.1749"
           y="8.7311"
           x="3.1749" />
        <rect
           id="rect106"
           stroke="#fdfdfd"
           fill="none"
           ry=".26458"
           rx=".26458"
           height="1.3229"
           width="3.1749"
           y="5.6176"
           x="3.1749" />
        <rect
           id="rect108"
           stroke="#000"
           fill="#c72020"
           ry=".26458"
           rx=".26458"
           height="1.3229"
           width="3.1749"
           y="7.1436"
           x="3.1749" />
        <path
           id="path110"
           stroke="#fdfdfd"
           fill="none"
           d="m4.7624 3.7656c-0.81246 0-1.4773 0.60462-1.574 1.3901 0.030141 0.113 0.12838 0.1974 0.25114 0.1974h2.6458c0.12276 0 0.221-0.084398 0.25114-0.1974-0.096781-0.78545-0.76157-1.3901-1.574-1.3901z" />
        <rect
           id="rect112"
           stroke="#000"
           fill="#d22b2b"
           ry=".26458"
           rx=".26458"
           height="1.3229"
           width="3.1749"
           y="5.5561"
           x="3.1749" />
      </g>
      <path
         id="path116"
         stroke-width=".2"
         stroke="#000"
         fill="#db3636"
         d="m18 14c-3.0708 0-5.5834 2.2852-5.9492 5.2539 0.11392 0.4271 0.48524 0.74609 0.94922 0.74609h10c0.46398 0 0.8353-0.31899 0.94922-0.74609-0.36579-2.9687-2.8784-5.2539-5.9492-5.2539z"
         transform="scale(.26458)" />
    </g>
    <g
       id="g142"
       transform="rotate(60 5.264 12.454)">
      <path
         id="path120"
         stroke-width=".052916"
         stroke-opacity=".2"
         stroke="#7f7f7f"
         fill="url(#linearGradient1242)"
         d="m4.7624 3.1749c1.1726 0 2.1166 0.94401 2.1166 2.1166v6.3499c0 1.1726-0.94401 2.1166-2.1166 2.1166s-2.1166-0.94402-2.1166-2.1166v-6.3499c0-1.1726 0.94401-2.1166 2.1166-2.1166z" />
      <g
         id="g140"
         stroke-opacity=".15">
        <g
           id="g136"
           stroke-width=".052916">
          <rect
             id="rect122"
             stroke="#fdfdfd"
             fill="none"
             ry=".26458"
             rx=".26458"
             height="1.3229"
             width="3.1749"
             y="8.7925"
             x="3.1749" />
          <rect
             id="rect124"
             stroke="#fdfdfd"
             fill="none"
             ry=".26458"
             rx=".26458"
             height="1.3229"
             width="3.1749"
             y="7.2051"
             x="3.1749" />
          <rect
             id="rect126"
             stroke="#000"
             fill="#ce5801"
             ry=".26458"
             rx=".26458"
             height="1.3229"
             width="3.1749"
             y="8.7311"
             x="3.1749" />
          <rect
             id="rect128"
             stroke="#fdfdfd"
             fill="none"
             ry=".26458"
             rx=".26458"
             height="1.3229"
             width="3.1749"
             y="5.6176"
             x="3.1749" />
          <rect
             id="rect130"
             stroke="#000"
             fill="#dd6d01"
             ry=".26458"
             rx=".26458"
             height="1.3229"
             width="3.1749"
             y="7.1436"
             x="3.1749" />
          <path
             id="path132"
             stroke="#fdfdfd"
             fill="none"
             d="m4.7624 3.7656c-0.81246 0-1.4773 0.60462-1.574 1.3901 0.030141 0.113 0.12838 0.1974 0.25114 0.1974h2.6458c0.12276 0 0.221-0.084398 0.25114-0.1974-0.096781-0.78545-0.76157-1.3901-1.574-1.3901z" />
          <rect
             id="rect134"
             stroke="#000"
             fill="#e57d00"
             ry=".26458"
             rx=".26458"
             height="1.3229"
             width="3.1749"
             y="5.5561"
             x="3.1749" />
        </g>
        <path
           id="path138"
           stroke-width=".2"
           stroke="#000"
           fill="#ed8b01"
           d="m18 14c-3.0708 0-5.5834 2.2852-5.9492 5.2539 0.11392 0.4271 0.48524 0.74609 0.94922 0.74609h10c0.46398 0 0.8353-0.31899 0.94922-0.74609-0.36579-2.9687-2.8784-5.2539-5.9492-5.2539z"
           transform="scale(.26458)" />
      </g>
    </g>
    <g
       id="g166"
       transform="rotate(30 5.1333 13.168)">
      <path
         id="path144"
         stroke-width=".052916"
         stroke-opacity=".2"
         stroke="#7f7f7f"
         fill="url(#linearGradient1234)"
         d="m4.7624 3.1749c1.1726 0 2.1166 0.94401 2.1166 2.1166v6.3499c0 1.1726-0.94401 2.1166-2.1166 2.1166s-2.1166-0.94402-2.1166-2.1166v-6.3499c0-1.1726 0.94401-2.1166 2.1166-2.1166z" />
      <g
         id="g164"
         stroke-opacity=".15">
        <g
           id="g160"
           stroke-width=".052916">
          <rect
             id="rect146"
             stroke="#fdfdfd"
             fill="none"
             ry=".26458"
             rx=".26458"
             height="1.3229"
             width="3.1749"
             y="8.7925"
             x="3.1749" />
          <rect
             id="rect148"
             stroke="#fdfdfd"
             fill="none"
             ry=".26458"
             rx=".26458"
             height="1.3229"
             width="3.1749"
             y="7.2051"
             x="3.1749" />
          <rect
             id="rect150"
             stroke="#000"
             fill="#d68f01"
             ry=".26458"
             rx=".26458"
             height="1.3229"
             width="3.1749"
             y="8.7311"
             x="3.1749" />
          <rect
             id="rect152"
             stroke="#fdfdfd"
             fill="none"
             ry=".26458"
             rx=".26458"
             height="1.3229"
             width="3.1749"
             y="5.6176"
             x="3.1749" />
          <rect
             id="rect154"
             stroke="#000"
             fill="#e3a101"
             ry=".26458"
             rx=".26458"
             height="1.3229"
             width="3.1749"
             y="7.1436"
             x="3.1749" />
          <path
             id="path156"
             stroke="#fdfdfd"
             fill="none"
             d="m4.7624 3.7656c-0.81246 0-1.4773 0.60462-1.574 1.3901 0.030141 0.113 0.12838 0.1974 0.25114 0.1974h2.6458c0.12276 0 0.221-0.084398 0.25114-0.1974-0.096781-0.78545-0.76157-1.3901-1.574-1.3901z" />
          <rect
             id="rect158"
             stroke="#000"
             fill="#eaad01"
             ry=".26458"
             rx=".26458"
             height="1.3229"
             width="3.1749"
             y="5.5561"
             x="3.1749" />
        </g>
        <path
           id="path162"
           stroke-width=".2"
           stroke="#000"
           fill="#f2b800"
           d="m18 14c-3.0708 0-5.5834 2.2852-5.9492 5.2539 0.11392 0.4271 0.48524 0.74609 0.94922 0.74609h10c0.46398 0 0.8353-0.31899 0.94922-0.74609-0.36579-2.9687-2.8784-5.2539-5.9492-5.2539z"
           transform="scale(.26458)" />
      </g>
    </g>
    <g
       id="g190"
       transform="translate(.79373)">
      <path
         id="path168"
         stroke-width=".052916"
         stroke-opacity=".2"
         stroke="#7f7f7f"
         fill="url(#linearGradient1226)"
         d="m4.7624 3.1749c1.1726 0 2.1166 0.94401 2.1166 2.1166v6.3499c0 1.1726-0.94401 2.1166-2.1166 2.1166s-2.1166-0.94402-2.1166-2.1166v-6.3499c0-1.1726 0.94401-2.1166 2.1166-2.1166z" />
      <g
         id="g188"
         stroke-opacity=".15">
        <g
           id="g184"
           stroke-width=".052916">
          <rect
             id="rect170"
             stroke="#fdfdfd"
             fill="none"
             ry=".26458"
             rx=".26458"
             height="1.3229"
             width="3.1749"
             y="8.7925"
             x="3.1749" />
          <rect
             id="rect172"
             stroke="#fdfdfd"
             fill="none"
             ry=".26458"
             rx=".26458"
             height="1.3229"
             width="3.1749"
             y="7.2051"
             x="3.1749" />
          <rect
             id="rect174"
             stroke="#000"
             fill="#29860a"
             ry=".26458"
             rx=".26458"
             height="1.3229"
             width="3.1749"
             y="8.7311"
             x="3.1749" />
          <rect
             id="rect176"
             stroke="#fdfdfd"
             fill="none"
             ry=".26458"
             rx=".26458"
             height="1.3229"
             width="3.1749"
             y="5.6176"
             x="3.1749" />
          <rect
             id="rect178"
             stroke="#000"
             fill="#3b9a1a"
             ry=".26458"
             rx=".26458"
             height="1.3229"
             width="3.1749"
             y="7.1436"
             x="3.1749" />
          <path
             id="path180"
             stroke="#fdfdfd"
             fill="none"
             d="m4.7624 3.7656c-0.81246 0-1.4773 0.60462-1.574 1.3901 0.030141 0.113 0.12838 0.1974 0.25114 0.1974h2.6458c0.12276 0 0.221-0.084398 0.25114-0.1974-0.096781-0.78545-0.76157-1.3901-1.574-1.3901z" />
          <rect
             id="rect182"
             stroke="#000"
             fill="#4eaa2a"
             ry=".26458"
             rx=".26458"
             height="1.3229"
             width="3.1749"
             y="5.5561"
             x="3.1749" />
        </g>
        <path
           id="path186"
           stroke-width=".2"
           stroke="#000"
           fill="#5db837"
           d="m18 14c-3.0708 0-5.5834 2.2852-5.9492 5.2539 0.11392 0.4271 0.48524 0.74609 0.94922 0.74609h10c0.46398 0 0.8353-0.31899 0.94922-0.74609-0.36579-2.9687-2.8784-5.2539-5.9492-5.2539z"
           transform="scale(.26458)" />
      </g>
    </g>
    <g
       id="g206"
       transform="translate(.79373)">
      <circle
         id="circle192"
         stroke-width="1.0162"
         fill="url(#radialGradient1076)"
         r="1.3229"
         cy="11.906"
         cx="4.7624" />
      <circle
         id="circle194"
         stroke-width=".81296"
         fill="url(#linearGradient921)"
         r="1.0583"
         cy="11.641"
         cx="4.7624" />
      <circle
         id="circle196"
         stroke-width=".81296"
         opacity=".35"
         fill="url(#radialGradient1043)"
         r="1.0583"
         cy="11.641"
         cx="4.7624" />
      <circle
         id="circle198"
         stroke-width=".49486"
         fill="url(#linearGradient925)"
         r=".64421"
         cy="11.641"
         cx="4.7624" />
      <circle
         id="circle200"
         stroke-width=".31034"
         fill="url(#linearGradient929)"
         r=".40401"
         cy="11.641"
         cx="4.7624" />
      <path
         id="path202"
         stroke-width="3.0727"
         filter="url(#filter1037)"
         fill="url(#radialGradient981)"
         d="m17.939 40a4 4 0 0 0-0.04492 2e-3 3.7708 3.5 0 0 1 0.10547-2e-3 4 4 0 0 0-0.06055 0zm-0.04492 2e-3a4 4 0 0 0-0.16602 0.0078 3.7708 3.5 0 0 1 0.16602-0.0078zm-2.293 0.79688a4 4 0 0 0-0.125 0.09961 3.7708 3.5 0 0 1 0.125-0.09961zm-0.125 0.09961a4 4 0 0 0-1.4766 3.1015 4 4 0 0 0 4 4 4 4 0 0 0 4-4 4 4 0 0 0-1.5547-3.1641 3.7708 3.5 0 0 1 1.3262 2.6641 3.7708 3.5 0 0 1-3.7715 3.5 3.7708 3.5 0 0 1-3.7715-3.5 3.7708 3.5 0 0 1 1.248-2.6016z"
         transform="scale(.26458)" />
      <path
         id="path204"
         stroke-width="1.8704"
         opacity=".35"
         fill="url(#radialGradient1057)"
         d="m17.98 41.564a2.4349 2.4349 0 0 0-2.416 2.4355 2.4349 2.4349 0 0 0 2.4355 2.4355 2.4349 2.4349 0 0 0 2.4355-2.4355 2.4349 2.4349 0 0 0-2.4355-2.4355 2.4349 2.4349 0 0 0-0.01953 0zm-0.029297 0.43555a2 2 0 0 1 0.048828 0 2 2 0 0 1 2 2 2 2 0 0 1-2 2 2 2 0 0 1-2-2 2 2 0 0 1 1.9512-2z"
         transform="scale(.26458)" />
    </g>
  </g>
  <circle
     style="stroke-width:0.264578"
     id="circle1082"
     fill="#5e4aa6"
     r="0"
     cy="-351.61383"
     cx="-362.90204" />
  <circle
     style="stroke-width:0.264578"
     id="circle1084"
     fill-rule="evenodd"
     fill="#5e4aa6"
     r="0"
     cy="-16.802139"
     cx="-71.985168" />
  <g
     id="g1108"
     stroke-width="0.26458"
     fill="#5e4aa6"
     transform="translate(-59.753721,-33.358116)">
    <circle
       id="circle1100"
       r="0"
       cy="-328.38"
       cx="-330.35001" />
    <circle
       id="circle1102"
       r="0"
       cy="-326.25"
       cx="-312.10999" />
    <circle
       id="circle1104"
       r="0"
       cy="-333.07001"
       cx="-306.01999" />
    <circle
       id="circle1106"
       r="0"
       cy="-326.01001"
       cx="-308.84" />
  </g>
</svg>
