<?xml version="1.0" encoding="UTF-8" standalone="no"?>
<svg
   xmlns:dc="http://purl.org/dc/elements/1.1/"
   xmlns:cc="http://creativecommons.org/ns#"
   xmlns:rdf="http://www.w3.org/1999/02/22-rdf-syntax-ns#"
   xmlns:svg="http://www.w3.org/2000/svg"
   xmlns="http://www.w3.org/2000/svg"
   xmlns:xlink="http://www.w3.org/1999/xlink"
   xmlns:sodipodi="http://sodipodi.sourceforge.net/DTD/sodipodi-0.dtd"
   xmlns:inkscape="http://www.inkscape.org/namespaces/inkscape"
   inkscape:version="1.0 (4035a4fb49, 2020-05-01)"
   sodipodi:docname="preferences-desktop-screensaver.svg"
   id="svg52"
   version="1.1"
   height="64"
   width="64">
  <metadata
     id="metadata56">
    <rdf:RDF>
      <cc:Work
         rdf:about="">
        <dc:format>image/svg+xml</dc:format>
        <dc:type
           rdf:resource="http://purl.org/dc/dcmitype/StillImage" />
        <dc:title></dc:title>
      </cc:Work>
    </rdf:RDF>
  </metadata>
  <sodipodi:namedview
     inkscape:current-layer="svg52"
     inkscape:window-maximized="1"
     inkscape:window-y="0"
     inkscape:window-x="0"
     inkscape:cy="-7.6418505"
     inkscape:cx="20.895806"
     inkscape:zoom="3.2460938"
     showgrid="false"
     id="namedview54"
     inkscape:window-height="1000"
     inkscape:window-width="1920"
     inkscape:pageshadow="2"
     inkscape:pageopacity="0"
     guidetolerance="10"
     gridtolerance="10"
     objecttolerance="10"
     borderopacity="1"
     bordercolor="#666666"
     pagecolor="#ffffff" />
  <defs
     id="defs24">
    <linearGradient
       gradientUnits="userSpaceOnUse"
       gradientTransform="matrix(2.1429 0 0 2.1429 -826.36 -1107.5)"
       y2="517.8"
       y1="545.8"
       x2="399.57"
       x1="399.57"
       id="b">
      <stop
         id="stop2"
         offset="0"
         stop-color="#3889e9" />
      <stop
         id="stop4"
         offset="1"
         stop-color="#5ea5fb" />
    </linearGradient>
    <linearGradient
       xlink:href="#linearGradient863"
       gradientUnits="userSpaceOnUse"
       gradientTransform="matrix(3.7796,0,0,3.7796,96.409431,0)"
       y2="1.0583"
       y1="6.879"
       x2="7.9373"
       x1="7.9373"
       id="linearGradient865" />
    <linearGradient
       id="linearGradient863">
      <stop
         id="stop8"
         offset="0"
         stop-color="#fff" />
      <stop
         id="stop10"
         offset="1"
         stop-color="#ccf0ff" />
    </linearGradient>
    <linearGradient
       gradientUnits="userSpaceOnUse"
       gradientTransform="matrix(3.7796,0,0,3.7796,96.409431,0)"
       y2="1.852"
       y1="15.081"
       x2="7.9373"
       x1="7.9373"
       id="linearGradient855">
      <stop
         id="stop13"
         offset="0"
         stop-color="#2858e4" />
      <stop
         id="stop15"
         offset="1"
         stop-color="#5ab9f4" />
    </linearGradient>
    <linearGradient
       gradientTransform="translate(96.409431)"
       xlink:href="#linearGradient863"
       gradientUnits="userSpaceOnUse"
       y2="6.9915"
       y1="19"
       x2="57.008"
       x1="45"
       id="linearGradient910" />
    <linearGradient
       gradientTransform="translate(96.409431)"
       gradientUnits="userSpaceOnUse"
       y2="46.915"
       y1="17.22"
       x2="32.136"
       x1="32.136"
       id="linearGradient992">
      <stop
         id="stop19"
         offset="0"
         stop-color="#e8f6fc" />
      <stop
         id="stop21"
         offset="1"
         stop-color="#ccdefa" />
    </linearGradient>
    <linearGradient
       xlink:href="#linearGradient863"
       gradientUnits="userSpaceOnUse"
       gradientTransform="matrix(3.7796,0,0,3.7796,-142.40583,0)"
       y2="1.0583"
       y1="6.879"
       x2="7.9373"
       x1="7.9373"
       id="linearGradient865-6" />
    <linearGradient
       gradientUnits="userSpaceOnUse"
       gradientTransform="matrix(3.7796,0,0,3.7796,-142.40583,0)"
       y2="1.852"
       y1="15.081"
       x2="7.9373"
       x1="7.9373"
       id="linearGradient855-1">
      <stop
         id="stop13-2"
         offset="0"
         stop-color="#2858e4" />
      <stop
         id="stop15-7"
         offset="1"
         stop-color="#5ab9f4" />
    </linearGradient>
    <linearGradient
       gradientTransform="translate(-142.40583)"
       xlink:href="#linearGradient863"
       gradientUnits="userSpaceOnUse"
       y2="6.9915"
       y1="19"
       x2="57.008"
       x1="45"
       id="linearGradient910-0" />
    <linearGradient
       gradientTransform="translate(-142.40583)"
       gradientUnits="userSpaceOnUse"
       y2="46.915"
       y1="17.22"
       x2="32.136"
       x1="32.136"
       id="linearGradient992-9">
      <stop
         id="stop19-3"
         offset="0"
         stop-color="#e8f6fc" />
      <stop
         id="stop21-6"
         offset="1"
         stop-color="#ccdefa" />
    </linearGradient>
    <filter
       id="filter2761"
       x="-.024"
       y="-.024"
       width="1.048"
       height="1.048"
       color-interpolation-filters="sRGB">
      <feGaussianBlur
         stdDeviation="0.14552168"
         id="feGaussianBlur881" />
    </filter>
    <linearGradient
       id="linearGradient1024-1"
       x1="1.3315"
       x2="15.65"
       y1="15.576"
       y2="1.17"
       gradientTransform="matrix(3.779602,0,0,3.779602,87.30049,0.25036112)"
       gradientUnits="userSpaceOnUse">
      <stop
         stop-color="#00c8ff"
         offset="0"
         id="stop884" />
      <stop
         stop-color="#14a0ff"
         offset="1"
         id="stop886" />
    </linearGradient>
    <filter
       id="filter951"
       x="-.10129"
       y="-.07175"
       width="1.2026"
       height="1.1435"
       color-interpolation-filters="sRGB">
      <feGaussianBlur
         stdDeviation="15.306655"
         id="feGaussianBlur889" />
    </filter>
    <style
       id="style2"
       type="text/css" />
    <style
       id="style4"
       type="text/css" />
    <filter
       id="filter2761-3"
       x="-.024"
       y="-.024"
       width="1.048"
       height="1.048"
       color-interpolation-filters="sRGB">
      <feGaussianBlur
         stdDeviation="0.14552168"
         id="feGaussianBlur863" />
    </filter>
    <linearGradient
       id="c"
       x1="352.61"
       x2="394.95"
       y1="507.72"
       y2="546.21"
       gradientTransform="matrix(0.2399,0,0,0.25621,-81.085,-126.64)"
       gradientUnits="userSpaceOnUse">
      <stop
         stop-color="#fafdfc"
         offset="0"
         id="stop866" />
      <stop
         stop-color="#c6efff"
         offset="1"
         id="stop868" />
    </linearGradient>
    <linearGradient
       id="linearGradient2645-3"
       x1="15.752"
       x2="1.3927"
       y1="281.24"
       y2="295.6"
       gradientTransform="translate(-0.13126,-280.07)"
       gradientUnits="userSpaceOnUse">
      <stop
         stop-color="#0a82f0"
         offset="0"
         id="stop871" />
      <stop
         stop-color="#3250e6"
         offset="1"
         id="stop873" />
    </linearGradient>
    <linearGradient
       id="linearGradient981"
       x1="2.5804"
       x2="14.354"
       y1="8.326"
       y2="8.326"
       gradientTransform="matrix(0.93636,0,0,1,0.53883,-2e-7)"
       gradientUnits="userSpaceOnUse">
      <stop
         stop-color="#1478f0"
         offset="0"
         id="stop876" />
      <stop
         stop-color="#145af0"
         offset="1"
         id="stop878" />
    </linearGradient>
    <linearGradient
       y2="517.8"
       x2="399.57"
       y1="545.8"
       x1="399.57"
       gradientTransform="matrix(2.1429,0,0,2.1429,-936.58863,-1180.7608)"
       gradientUnits="userSpaceOnUse"
       id="linearGradient977"
       xlink:href="#b"
       inkscape:collect="always" />
    <filter
       id="filter11290"
       x="-.024"
       y="-.024"
       width="1.048"
       height="1.048"
       color-interpolation-filters="sRGB">
      <feGaussianBlur
         stdDeviation="0.15875313"
         id="feGaussianBlur979" />
    </filter>
    <linearGradient
       gradientTransform="matrix(3.779602,0,0,3.779602,-0.132489,0.0243795)"
       id="linearGradient7233"
       x1="16.439"
       x2=".60699"
       y1=".60248"
       y2="16.435"
       gradientUnits="userSpaceOnUse">
      <stop
         stop-color="#0a82f0"
         offset="0"
         id="stop982" />
      <stop
         stop-color="#3250e6"
         offset="1"
         id="stop984" />
    </linearGradient>
    <clipPath
       id="aw">
      <path
         d="m481 318h22v22h-22z"
         id="path987" />
    </clipPath>
    <clipPath
       id="av">
      <path
         d="m507 318h22v22h-22z"
         id="path990" />
    </clipPath>
    <clipPath
       id="au">
      <path
         d="m530 318h22v22h-22z"
         id="path993" />
    </clipPath>
    <clipPath
       id="at">
      <path
         d="m672 1064c0-1.105 4.925-2 11-2s11 0.895 11 2-4.925 2-11 2-11-0.895-11-2"
         id="path996" />
    </clipPath>
    <clipPath
       id="as">
      <path
         d="m660 1057h51v65.001h-51z"
         id="path999" />
    </clipPath>
    <clipPath
       id="ar">
      <path
         d="m659 517h53v18h-53z"
         id="path1002-6" />
    </clipPath>
    <clipPath
       id="aq">
      <path
         d="m659 500h53v18h-53z"
         id="path1005" />
    </clipPath>
    <clipPath
       id="ap">
      <path
         d="m648 112h73v60h-73z"
         id="path1008" />
    </clipPath>
    <clipPath
       id="ao">
      <path
         d="m826 1056h59v60h-59z"
         id="path1011" />
    </clipPath>
    <clipPath
       id="an">
      <path
         d="m805 276h100v100h-100z"
         id="path1014" />
    </clipPath>
    <clipPath
       id="am">
      <path
         d="m145 1063.8h74.152v45.21h-74.152z"
         id="path1017" />
    </clipPath>
    <clipPath
       id="al">
      <path
         d="m151 667h57v57h-57z"
         id="path1020" />
    </clipPath>
    <clipPath
       id="ak">
      <path
         d="m154 697h51v51h-51z"
         id="path1023" />
    </clipPath>
    <clipPath
       id="aj">
      <path
         d="m500.04 864.45h36.012v67.52h-36.012z"
         id="path1026" />
    </clipPath>
    <clipPath
       id="ai">
      <path
         d="m836 870.54h47v55.539h-47z"
         id="path1029" />
    </clipPath>
    <clipPath
       id="ah">
      <path
         d="m318.03 702.35h62.848v37.991h-62.848z"
         id="path1032" />
    </clipPath>
    <clipPath
       id="ag">
      <path
         d="m485.03 133.35h62.847v37.991h-62.847z"
         id="path1035" />
    </clipPath>
    <clipPath
       id="af">
      <path
         d="m493.37 677.93h45.643v68.067h-45.643z"
         id="path1038" />
    </clipPath>
    <clipPath
       id="ae">
      <path
         d="m144.34 1018.2h71.467v78h-71.467z"
         id="path1041" />
    </clipPath>
    <clipPath
       id="ad">
      <path
         d="m293.21 1068.6 66.323-38.292 36.047 62.435-66.323 38.292z"
         id="path1044" />
    </clipPath>
    <clipPath
       id="ac">
      <path
         d="m488.86 1054.5h10v10.706h-10z"
         id="path1047" />
    </clipPath>
    <clipPath
       id="ab">
      <path
         d="m508 1066.8h10.001v10.705h-10.001z"
         id="path1050" />
    </clipPath>
    <clipPath
       id="aa">
      <path
         d="m525 1045.8h10v10.706h-10z"
         id="path1053" />
    </clipPath>
    <clipPath
       id="z">
      <path
         d="m836 1043.7h25.5v31.5h-25.5z"
         id="path1056" />
    </clipPath>
    <clipPath
       id="y">
      <path
         d="m838 1062.2h24v24h-24z"
         id="path1059" />
    </clipPath>
    <clipPath
       id="x">
      <path
         d="m134 489.24h7v6h-7z"
         id="path1062" />
    </clipPath>
    <clipPath
       id="w">
      <path
         d="m216 489.24h7v6h-7z"
         id="path1065" />
    </clipPath>
    <clipPath
       id="v">
      <path
         d="m838 477.24h22v22h-22z"
         id="path1068" />
    </clipPath>
    <clipPath
       id="u">
      <path
         d="m704 1061.2h25v25h-25z"
         id="path1071" />
    </clipPath>
    <clipPath
       id="t">
      <path
         d="m663.04 1078.6-1.808-3.514-21.07-47.453c13.336-18.439 48.336-26.938 73.836-3.439 0.842 0 6.476 6.246 6 7l-18.386 25.895c-0.483 0.765-1.453 0.946-2.177 0.431l-15.505-11.011c-0.359-0.255-0.847-0.153-1.07 0.238l-18.272 31.869c-0.218 0.384-0.502 0.578-0.782 0.578-0.282 0-0.561-0.197-0.766-0.594"
         id="path1074" />
    </clipPath>
    <clipPath
       id="s">
      <path
         d="m127 820.24h100v100h-100z"
         id="path1077" />
    </clipPath>
    <clipPath
       id="r">
      <path
         d="m809 680.24c0-22.092 17.908-40 40-40s40 17.908 40 40c0 22.091-17.908 40-40 40s-40-17.909-40-40"
         id="path1080" />
    </clipPath>
    <clipPath
       id="q">
      <path
         d="m658 469.24h44v45h-44z"
         id="path1083" />
    </clipPath>
    <clipPath
       id="p">
      <path
         d="m651 271.24h58v58h-58z"
         id="path1086" />
    </clipPath>
    <clipPath
       id="o">
      <path
         d="m662 307.24h38v8h-38z"
         id="path1089" />
    </clipPath>
    <clipPath
       id="n">
      <path
         d="m858.98 137.24c0.013-0.101 0.021-0.203 0.021-0.307v-6.693h15.75c1.237 0 2.25-1.013 2.25-2.25v-11.25l-27-4.5-27 4.5v-2.25l27-4.5 27 4.5v-27c0-1.237-1.013-2.25-2.25-2.25h-49.5c-1.237 0-2.25 1.013-2.25 2.25v-4.25h54v54zm-35.979 0v-9.25c0 1.237 1.013 2.25 2.25 2.25h15.75v6.693c0 0.104 7e-3 0.207 0.02 0.307zm22.5-7h9v4.5h-9zm1.125-9c-0.62 0-1.125-0.506-1.125-1.125v-2.25c0-0.619 0.505-1.125 1.125-1.125h6.75c0.619 0 1.125 0.506 1.125 1.125v2.25c0 0.619-0.506 1.125-1.125 1.125z"
         id="path1092" />
    </clipPath>
    <clipPath
       id="m">
      <path
         d="m531.27 136.24c6.325-2.29 10.727-8.277 10.727-15.484 0-11.316-10.2-20.563-25.65-34.575l-4.35-3.941-4.35 3.941c-15.45 14.012-25.65 23.259-25.65 34.575v-39.516h60v55zm-26.983 0c2.995-1.052 5.686-2.883 7.71-5.25 2.024 2.367 4.715 4.198 7.71 5.25zm-22.29 0v-15.484c0 7.207 4.402 13.194 10.727 15.484z"
         id="path1095" />
    </clipPath>
    <clipPath
       id="l">
      <path
         d="m648 79.241h64v64h-64z"
         id="path1098" />
    </clipPath>
    <clipPath
       id="k">
      <path
         d="m500 691.74c0-3.037 2.463-5.5 5.5-5.5s5.5 2.463 5.5 5.5-2.463 5.5-5.5 5.5-5.5-2.463-5.5-5.5"
         id="path1101" />
    </clipPath>
    <clipPath
       id="j">
      <path
         d="m500 669.74c0-3.037 2.463-5.5 5.5-5.5s5.5 2.463 5.5 5.5c0 3.038-2.463 5.5-5.5 5.5s-5.5-2.462-5.5-5.5"
         id="path1104" />
    </clipPath>
    <clipPath
       id="i">
      <path
         d="m494 680.74c0-3.037 2.462-5.5 5.5-5.5s5.5 2.463 5.5 5.5c0 3.038-2.462 5.5-5.5 5.5s-5.5-2.462-5.5-5.5"
         id="path1107" />
    </clipPath>
    <clipPath
       id="h">
      <path
         d="m513 691.74c0-3.037 2.463-5.5 5.5-5.5s5.5 2.463 5.5 5.5-2.463 5.5-5.5 5.5-5.5-2.463-5.5-5.5"
         id="path1110" />
    </clipPath>
    <clipPath
       id="g">
      <path
         d="m513 669.74c0-3.037 2.463-5.5 5.5-5.5s5.5 2.463 5.5 5.5c0 3.038-2.463 5.5-5.5 5.5s-5.5-2.462-5.5-5.5"
         id="path1113" />
    </clipPath>
    <clipPath
       id="f-0">
      <path
         d="m507 680.74c0-3.037 2.463-5.5 5.5-5.5s5.5 2.463 5.5 5.5c0 3.038-2.463 5.5-5.5 5.5s-5.5-2.462-5.5-5.5"
         id="path1116" />
    </clipPath>
    <clipPath
       id="e-7">
      <path
         d="m520 680.74c0-3.037 2.463-5.5 5.5-5.5s5.5 2.463 5.5 5.5c0 3.038-2.463 5.5-5.5 5.5s-5.5-2.462-5.5-5.5"
         id="path1119" />
    </clipPath>
    <clipPath
       id="d-8">
      <path
         d="m321 322.24c-4.97 0-9-4.029-9-9 0-4.97 4.03-9 9-9h45c4.971 0 9 4.03 9 9 0 4.971-4.029 9-9 9z"
         id="path1122" />
    </clipPath>
    <clipPath
       id="c-2">
      <path
         d="m322 297.24c-4.971 0-9-4.029-9-9 0-4.97 4.029-9 9-9h45c4.971 0 9 4.03 9 9 0 4.971-4.029 9-9 9z"
         id="path1125" />
    </clipPath>
    <clipPath
       id="b-6">
      <path
         d="m155 83.24h44v53h-44z"
         id="path1128" />
    </clipPath>
    <filter
       id="filter1060"
       x="-.057822"
       y="-.062348"
       width="1.1156"
       height="1.1247"
       color-interpolation-filters="sRGB">
      <feGaussianBlur
         stdDeviation="2.970385"
         id="feGaussianBlur1131" />
    </filter>
    <linearGradient
       id="linearGradient864"
       x1=".44868"
       x2="23.785"
       y1=".87915"
       y2="23.018"
       gradientTransform="matrix(0.45196,0,0,0.45196,3.3348,2.8246)"
       gradientUnits="userSpaceOnUse">
      <stop
         stop-color="#fff"
         offset="0"
         id="stop1134" />
      <stop
         stop-color="#c8f0ff"
         offset="1"
         id="stop1136" />
    </linearGradient>
  </defs>
  <circle
     id="circle46"
     stroke-width="1.5715"
     fill="url(#b)"
     r="0"
     cy="32.044"
     cx="32.02" />
  <circle
     cx="-78.208626"
     cy="-41.216812"
     r="0"
     fill="url(#b)"
     stroke-width="1.5715"
     id="circle46-0"
     style="fill:url(#linearGradient977)" />
  <path
     id="path1145"
     stroke-width="0.11719"
     fill="url(#linearGradient7233)"
     d="m 62.000389,31.999817 c 0,3.59644 -0.63305,7.0448 -1.79395,10.24045 -0.80699,2.221199 -1.8686,4.321219 -3.15193,6.26356 -0.53753,0.816689 -1.11551,1.605379 -1.72901,2.363339 -1.96411,2.42571 -4.29817,4.53817 -6.91856,6.2526 -0.96494,0.631871 -1.96785,1.20985 -3.00615,1.72773 -4.03208,2.01789 -8.58385,3.15298 -13.40096,3.15298 -4.8171,0 -9.36887,-1.13509 -13.40095,-3.15309 -1.03841,-0.518 -2.0425,-1.09597 -3.00743,-1.72773 -2.653548,-1.7376 -5.015528,-3.88317 -6.995668,-6.34898 -0.61467,-0.76408 -1.19148,-1.56003 -1.72901,-2.3841 -1.24901,-1.91021 -2.28368,-3.97123 -3.07471,-6.14941 -1.16075,-3.19486 -1.79267,-6.64189 -1.79267,-10.23705 0,-16.56902 13.431578,-30.0005925 30.000598,-30.0005925 8.31701,0 15.84295,3.384558 21.27726,8.8506925 1.56612,1.57466 2.95845,3.32337 4.14358,5.21396 1.12047,1.78046 2.05716,3.68821 2.78572,5.69511 1.16102,3.19599 1.79406,6.64416 1.79406,10.24045 z"
     style="fill:url(#linearGradient7233)" />
  <g
     transform="matrix(3.779602,0,0,3.779602,-261.79278,90.621293)"
     id="g1165"
     fill="#5e4aa6">
    <circle
       id="circle1147"
       stroke-width="0.26458"
       r="0"
       cy="-328.38"
       cx="-330.35001" />
    <g
       id="g1163"
       stroke-width="0.26458">
      <circle
         id="circle1149"
         r="0"
         cy="-337.26999"
         cx="-299.17001" />
      <circle
         id="circle1151"
         r="0"
         cy="-339.42001"
         cx="-299.81" />
      <circle
         id="circle1153"
         r="0"
         cy="-338.13"
         cx="-302.25" />
      <circle
         id="circle1155"
         r="0"
         cy="-335.91"
         cx="-301.89001" />
      <circle
         id="circle1157"
         r="0"
         cy="-351.04999"
         cx="-304.76001" />
      <circle
         id="circle1159"
         r="0"
         cy="-349.54001"
         cx="-304.82999" />
      <circle
         id="circle1161"
         r="0"
         cy="-336.91"
         cx="-359.94" />
    </g>
  </g>
  <circle
     id="circle1169"
     stroke-width="1.00001"
     fill="#5e4aa6"
     r="0"
     cy="-1231.1056"
     cx="-1314.2986" />
  <circle
     id="circle1171"
     stroke-width="1.00001"
     fill-rule="evenodd"
     fill="#5e4aa6"
     r="0"
     cy="34.388374"
     cx="-214.74051" />
  <g
     id="g1179"
     transform="matrix(1.333368,0,0,-1.333368,511.17363,935.85369)">
    <g
       id="g1177"
       clip-path="url(#aw)">
      <g
         id="g1175"
         transform="translate(448,326)">
        <path
           id="path1173"
           fill-rule="evenodd"
           fill="#ffffff"
           d="M 0,0 C 3.866,0 7,3.134 7,7 7,10.866 3.866,14 0,14 -3.866,14 -7,10.866 -7,7 -7,3.134 -3.866,0 0,0" />
      </g>
    </g>
  </g>
  <g
     id="g1187"
     transform="matrix(1.333368,0,0,-1.333368,511.17363,935.85369)">
    <g
       id="g1185"
       clip-path="url(#av)">
      <g
         id="g1183"
         transform="translate(474,326)">
        <path
           id="path1181"
           fill-rule="evenodd"
           fill="#ffffff"
           d="M 0,0 C 3.866,0 7,3.134 7,7 7,10.866 3.866,14 0,14 -3.866,14 -7,10.866 -7,7 -7,3.134 -3.866,0 0,0" />
      </g>
    </g>
  </g>
  <g
     id="g1195"
     transform="matrix(1.333368,0,0,-1.333368,511.17363,935.85369)">
    <g
       id="g1193"
       clip-path="url(#au)">
      <g
         id="g1191"
         transform="translate(497,326)">
        <path
           id="path1189"
           fill-rule="evenodd"
           fill="#ffffff"
           d="M 0,0 C 3.866,0 7,3.134 7,7 7,10.866 3.866,14 0,14 -3.866,14 -7,10.866 -7,7 -7,3.134 -3.866,0 0,0" />
      </g>
    </g>
  </g>
  <g
     id="g1201"
     transform="matrix(1.333368,0,0,-1.333368,511.17363,935.85369)">
    <g
       id="g1199"
       clip-path="url(#at)">
      <path
         id="path1197"
         fill-rule="evenodd"
         fill="#ffffff"
         d="m 593,1073 h 36 v -18 h -36 z m 18,-11 c 6.075,0 11,0.895 11,2 0,1.105 -4.925,2 -11,2 -6.075,0 -11,-0.895 -11,-2 0,-1.105 4.925,-2 11,-2" />
    </g>
  </g>
  <g
     id="g1209"
     transform="matrix(1.333368,0,0,-1.333368,511.17363,935.85369)">
    <g
       id="g1207"
       clip-path="url(#as)">
      <g
         id="g1205"
         transform="translate(583.42,1063)">
        <path
           id="path1203"
           fill="#ffffff"
           d="M 0,0 C 0,0 21.582,23.182 21.582,35.147 21.582,47.195 11.898,57 0,57 c -11.816,0 -21.418,-9.805 -21.418,-21.853 0,-8.06 9.766,-21.188 16.002,-28.832 z m 0,42.542 c 3.938,0 7.14,-3.323 7.14,-7.395 0,-3.822 -3.202,-7.146 -7.14,-7.146 -3.856,0 -7.222,3.324 -7.222,7.146 0,4.072 3.366,7.395 7.222,7.395" />
      </g>
    </g>
  </g>
  <g
     id="g1217"
     transform="matrix(1.333368,0,0,-1.333368,511.17363,935.85369)">
    <g
       id="g1215"
       clip-path="url(#ar)">
      <g
         id="g1213"
         transform="translate(562,535)">
        <path
           id="path1211"
           fill-rule="evenodd"
           fill="#ffffff"
           d="m 0,0 h 35 c 2.762,0 5,-2.238 5,-5 0,-2.762 -2.238,-5 -5,-5 H 0 c -2.762,0 -5,2.238 -5,5 0,2.762 2.238,5 5,5" />
      </g>
    </g>
  </g>
  <g
     id="g1225"
     transform="matrix(1.333368,0,0,-1.333368,511.17363,935.85369)">
    <g
       id="g1223"
       clip-path="url(#aq)">
      <g
         id="g1221"
         transform="translate(562,518)">
        <path
           id="path1219"
           fill-rule="evenodd"
           fill="#ffffff"
           d="m 0,0 h 35 c 2.762,0 5,-2.238 5,-5 0,-2.762 -2.238,-5 -5,-5 H 0 c -2.762,0 -5,2.238 -5,5 0,2.762 2.238,5 5,5" />
      </g>
    </g>
  </g>
  <g
     id="g1233"
     transform="matrix(1.333368,0,0,-1.333368,511.17363,935.85369)">
    <g
       id="g1231"
       clip-path="url(#ap)">
      <g
         id="g1229"
         transform="translate(536.43,133.83)">
        <path
           id="path1227"
           fill="#ffffff"
           d="M 0,0 C -10.01,-12.916 -22.288,-9.047 -24.23,-8.072 -29.077,-6.779 -30.694,1.943 -24.556,4.846 -14.538,8.072 -5.496,4.521 0.968,1.293 0.324,0.326 0,0 0,0 m 10.667,3.553 c 4.521,8.072 6.139,15.826 6.139,15.826 H 1.617 v 5.812 h 17.767 v 2.26 H 1.617 v 8.723 h -8.074 v -8.723 h -16.156 v -2.584 h 16.156 v -5.812 h -13.57 V 16.47 H 7.756 c 0,-0.325 0,-0.325 -0.324,-0.968 0,-2.909 -1.936,-6.779 -3.554,-10.014 -20.677,8.079 -26.491,3.235 -28.108,2.584 -13.564,-9.689 -0.968,-21.963 1.293,-21.638 14.538,-3.227 23.905,2.91 30.369,10.657 0.324,-0.325 0.967,-0.325 1.292,-0.325 4.528,-2.578 25.848,-12.592 25.848,-12.592 V -3.552 C 30.694,-3.227 19.066,0.643 10.667,3.553" />
      </g>
    </g>
  </g>
  <g
     id="g1241"
     transform="matrix(1.333368,0,0,-1.333368,511.17363,935.85369)">
    <g
       id="g1239"
       clip-path="url(#ao)">
      <g
         id="g1237"
         transform="translate(720.03,1091.5)">
        <path
           id="path1235"
           fill="#ffffff"
           d="m 0,0 c -0.149,0.354 -0.224,0.837 -0.224,1.451 0,0.372 0.103,0.828 0.306,1.368 0.205,0.539 0.428,0.958 0.671,1.256 -0.019,0.409 0.051,0.902 0.209,1.478 0.159,0.576 0.368,0.976 0.629,1.2 0,2.586 0.86,5.269 2.581,8.05 1.722,2.782 3.744,4.73 6.07,5.846 2.585,1.228 5.6,1.842 9.041,1.842 2.475,0 4.949,-0.511 7.423,-1.534 0.912,-0.391 1.749,-0.837 2.512,-1.34 0.762,-0.502 1.423,-1.022 1.981,-1.562 0.559,-0.54 1.07,-1.172 1.534,-1.897 0.465,-0.725 0.856,-1.413 1.172,-2.064 0.318,-0.651 0.619,-1.437 0.908,-2.358 0.287,-0.921 0.524,-1.753 0.71,-2.497 0.186,-0.744 0.391,-1.655 0.614,-2.734 l 0.028,-0.14 C 37.188,4.822 37.7,3.426 37.7,2.179 37.7,1.919 37.616,1.547 37.448,1.064 37.28,0.58 37.196,0.227 37.196,0.003 c 0,-0.019 0.015,-0.052 0.043,-0.099 0.028,-0.047 0.061,-0.093 0.098,-0.139 0.038,-0.046 0.057,-0.077 0.057,-0.098 1.432,-2.121 2.553,-4.116 3.363,-5.985 0.809,-1.869 1.214,-3.808 1.214,-5.817 0,-0.8 -0.182,-1.73 -0.544,-2.791 -0.363,-1.06 -0.879,-1.59 -1.549,-1.59 -0.167,0 -0.349,0.069 -0.544,0.209 -0.194,0.14 -0.371,0.303 -0.529,0.489 -0.159,0.186 -0.335,0.428 -0.53,0.725 -0.195,0.297 -0.344,0.543 -0.447,0.739 -0.103,0.196 -0.228,0.438 -0.377,0.725 -0.147,0.288 -0.231,0.451 -0.251,0.489 -0.019,0.019 -0.047,0.028 -0.085,0.028 l -0.138,-0.111 c -1.099,-2.864 -2.327,-4.938 -3.684,-6.222 0.372,-0.372 0.944,-0.73 1.716,-1.075 0.772,-0.345 1.414,-0.73 1.925,-1.158 0.511,-0.426 0.841,-1.031 0.991,-1.814 -0.037,-0.074 -0.074,-0.223 -0.112,-0.447 -0.036,-0.224 -0.101,-0.391 -0.195,-0.501 -1.19,-1.804 -4,-2.706 -8.427,-2.706 -0.986,0 -2.013,0.084 -3.084,0.251 -1.069,0.168 -1.981,0.354 -2.734,0.558 -0.753,0.204 -1.726,0.483 -2.916,0.837 -0.279,0.093 -0.493,0.158 -0.643,0.196 -0.259,0.075 -0.687,0.115 -1.282,0.125 -0.595,0.009 -0.967,0.023 -1.116,0.042 -0.763,-0.838 -1.949,-1.442 -3.559,-1.814 -1.609,-0.372 -3.176,-0.558 -4.702,-0.558 -0.65,0 -1.293,0.014 -1.925,0.042 -0.632,0.028 -1.498,0.113 -2.595,0.252 -1.098,0.139 -2.038,0.33 -2.82,0.572 -0.781,0.241 -1.473,0.613 -2.078,1.115 -0.604,0.502 -0.906,1.098 -0.906,1.786 0,0.744 0.093,1.298 0.279,1.661 0.187,0.364 0.569,0.815 1.144,1.353 0.205,0.038 0.581,0.159 1.131,0.363 0.549,0.204 1.009,0.316 1.381,0.334 0.074,0 0.204,0.019 0.39,0.057 0.038,0.037 0.057,0.074 0.057,0.111 l -0.057,0.084 c -0.892,0.204 -1.897,1.185 -3.014,2.944 -1.117,1.758 -1.796,3.214 -2.038,4.367 l -0.139,0.084 c -0.074,0 -0.186,-0.185 -0.334,-0.557 -0.335,-0.763 -0.842,-1.455 -1.521,-2.079 -0.679,-0.622 -1.4,-0.971 -2.163,-1.046 h -0.028 c -0.073,0 -0.129,0.041 -0.167,0.125 -0.037,0.083 -0.084,0.134 -0.139,0.153 -0.428,1.004 -0.642,1.934 -0.642,2.79 0,5.116 2.343,9.45 7.032,13.002 z" />
      </g>
    </g>
  </g>
  <g
     id="g1249"
     transform="matrix(1.333368,0,0,-1.333368,511.17363,935.85369)">
    <g
       id="g1247"
       clip-path="url(#an)">
      <g
         id="g1245"
         transform="translate(655,300)">
        <path
           id="path1243"
           stroke-width="8"
           stroke-miterlimit="10"
           stroke="#ffffff"
           fill="none"
           d="M 0,0 C 16.568,0 30,13.432 30,30 30,46.568 16.568,60 0,60 -16.568,60 -30,46.568 -30,30 -30,13.432 -16.568,0 0,0 Z" />
      </g>
    </g>
  </g>
  <g
     id="g1257"
     transform="matrix(1.333368,0,0,-1.333368,511.17363,935.85369)">
    <g
       id="g1255"
       clip-path="url(#am)">
      <g
         id="g1253"
         transform="translate(66.849,1083.1)">
        <path
           id="path1251"
           fill="#ffffff"
           d="m 0,0 c 0,5.302 -3.661,9.749 -8.591,10.948 -0.209,8.314 -7.006,14.991 -15.366,14.991 -4.897,0 -9.254,-2.293 -12.07,-5.861 -1.579,2.041 -4.05,3.358 -6.828,3.358 -4.769,0 -8.633,-3.868 -8.633,-8.639 0,-0.416 0.031,-0.825 0.089,-1.224 -0.726,0.13 -1.47,0.203 -2.232,0.203 -6.913,0 -12.515,-5.607 -12.515,-12.524 0,-6.916 5.602,-12.523 12.515,-12.523 h 42.394 c 6.21,0.013 11.241,5.053 11.241,11.269 z" />
      </g>
    </g>
  </g>
  <g
     id="g1265"
     transform="matrix(1.333368,0,0,-1.333368,511.17363,935.85369)">
    <g
       id="g1263"
       clip-path="url(#al)">
      <g
         id="g1261"
         transform="translate(65.5,681)">
        <path
           id="path1259"
           stroke-width="4"
           stroke-miterlimit="10"
           stroke="#ffffff"
           fill="none"
           d="M 0,0 C 9.113,0 16.5,7.387 16.5,16.5 16.5,25.613 9.113,33 0,33 -9.113,33 -16.5,25.613 -16.5,16.5 -16.5,7.387 -9.113,0 0,0 Z" />
      </g>
    </g>
  </g>
  <g
     id="g1273"
     transform="matrix(1.333368,0,0,-1.333368,511.17363,935.85369)">
    <g
       id="g1271"
       clip-path="url(#ak)">
      <g
         id="g1269"
         transform="translate(77.5,711)">
        <path
           id="path1267"
           stroke-width="4"
           stroke-miterlimit="10"
           stroke="#ffffff"
           fill="none"
           d="M 0,0 C 7.456,0 13.5,6.044 13.5,13.5 13.5,20.956 7.456,27 0,27 -7.456,27 -13.5,20.956 -13.5,13.5 -13.5,6.044 -7.456,0 0,0 Z" />
      </g>
    </g>
  </g>
  <g
     id="g1281"
     transform="matrix(1.333368,0,0,-1.333368,511.17363,935.85369)">
    <g
       id="g1279"
       clip-path="url(#aj)">
      <g
         id="g1277"
         transform="translate(455.91,931.53)">
        <path
           id="path1275"
           fill="#ffffff"
           d="m 0,0 c -0.742,-1.039 -4.75,-2.821 -8.165,-3.563 -4.305,-0.891 -6.531,-1.633 -8.758,-2.82 -2.969,-1.782 -4.601,-4.009 -4.305,-6.087 0.149,-0.445 3.711,-5.64 7.868,-11.578 4.304,-5.938 7.868,-10.985 8.016,-11.134 0.149,-0.297 -0.445,-0.297 -2.524,-0.148 -6.531,0.445 -12.469,-2.969 -15.142,-8.314 -0.742,-1.632 -0.89,-2.523 -0.89,-4.453 0,-4.453 2.376,-8.016 6.829,-10.094 1.781,-0.742 2.375,-0.891 6.086,-0.891 4.007,0 4.156,0 6.829,1.336 7.125,3.414 10.093,10.095 7.125,16.181 -0.594,1.336 -4.305,7.719 -8.313,14.251 l -7.274,12.024 h 1.187 c 4.75,0.297 8.017,1.781 10.244,4.305 1.929,2.227 2.523,4.453 2.374,8.016 C 1.039,0.297 0.742,1.039 0,0" />
      </g>
    </g>
  </g>
  <g
     id="g1289"
     transform="matrix(1.333368,0,0,-1.333368,511.17363,935.85369)">
    <g
       id="g1287"
       clip-path="url(#ai)">
      <g
         id="g1285"
         transform="translate(784,902.31)">
        <path
           id="path1283"
           fill="#ffffff"
           d="m 0,0 c 0,-1.565 -0.904,-2.931 -2.251,-3.674 l -27.781,-18.472 c -0.012,-0.008 -0.026,-0.014 -0.037,-0.02 l -0.017,-0.011 c -0.684,-0.376 -1.48,-0.592 -2.331,-0.592 -2.53,0 -4.583,1.913 -4.583,4.269 v 37 c 0,2.356 2.053,4.27 4.583,4.27 0.851,0 1.647,-0.217 2.331,-0.596 l 0.017,-0.008 c 0.011,-0.009 0.022,-0.014 0.037,-0.02 L -2.251,3.675 C -0.904,2.932 0,1.565 0,0" />
      </g>
    </g>
  </g>
  <g
     id="g1297"
     transform="matrix(1.333368,0,0,-1.333368,511.17363,935.85369)">
    <g
       id="g1295"
       clip-path="url(#ah)">
      <g
         id="g1293"
         transform="translate(223.75,708.35)">
        <path
           id="path1291"
           fill-rule="evenodd"
           fill="#ffffff"
           d="m 0,0 c -15.123,0 -27.418,12.329 -27.418,27.486 0,1.382 1.111,2.505 2.487,2.505 1.379,0 2.499,-1.123 2.499,-2.505 0,-12.4 10.06,-22.487 22.432,-22.487 12.375,0 22.443,10.087 22.443,22.487 0,1.382 1.112,2.505 2.488,2.505 1.378,0 2.499,-1.123 2.499,-2.505 C 27.43,12.329 15.126,0 0,0" />
      </g>
    </g>
  </g>
  <g
     id="g1305"
     transform="matrix(1.333368,0,0,-1.333368,511.17363,935.85369)">
    <g
       id="g1303"
       clip-path="url(#ag)">
      <g
         id="g1301"
         transform="translate(390.75,139.35)">
        <path
           id="path1299"
           fill-rule="evenodd"
           fill="#ffffff"
           d="m 0,0 c -15.123,0 -27.418,12.329 -27.418,27.485 0,1.383 1.111,2.506 2.487,2.506 1.379,0 2.499,-1.123 2.499,-2.506 0,-12.398 10.06,-22.486 22.432,-22.486 12.375,0 22.443,10.088 22.443,22.486 0,1.383 1.112,2.506 2.488,2.506 1.378,0 2.499,-1.123 2.499,-2.506 C 27.43,12.329 15.126,0 0,0" />
      </g>
    </g>
  </g>
  <g
     id="g1313"
     transform="matrix(1.333368,0,0,-1.333368,511.17363,935.85369)">
    <g
       id="g1311"
       clip-path="url(#af)">
      <g
         id="g1309"
         transform="translate(423.93,686.39)">
        <path
           id="path1307"
           fill="#ffffff"
           d="m 0,0 c 0.245,-0.286 0.605,-0.456 0.986,-0.456 0.382,0 0.743,0.17 0.988,0.456 L 19.49,20.497 c 0.333,0.388 0.408,0.933 0.191,1.388 -0.211,0.463 -0.674,0.756 -1.184,0.756 h -9.93 c -2.118,4.172 -3.109,8.382 -2.973,12.63 0.135,4.248 1.954,12.361 5.455,24.34 C 0.093,53.021 -6.607,41.171 -6.607,28.386 v -5.745 h -9.93 c -0.51,0 -0.966,-0.293 -1.184,-0.756 -0.211,-0.462 -0.135,-1 0.191,-1.388 z" />
      </g>
    </g>
  </g>
  <g
     id="g1321"
     transform="matrix(1.333368,0,0,-1.333368,378.24502,1091.5733)">
    <g
       id="g1319"
       clip-path="url(#ae)">
      <g
         id="g1317"
         transform="translate(9.1685,1040.9)">
        <path
           id="path1315"
           fill-rule="evenodd"
           fill="#ffffff"
           d="M 0,0 25.314,21.067 -0.763,39.718 c 5.846,7.671 15.079,12.622 25.468,12.622 17.673,0 32,-14.327 32,-32 0,-17.673 -14.327,-32 -32,-32 C 14.757,-11.66 5.869,-7.121 0,0 m 27.349,31.812 c 2.835,0 5.132,2.297 5.132,5.132 0,2.834 -2.297,5.132 -5.132,5.132 -2.834,0 -5.132,-2.298 -5.132,-5.132 0,-2.835 2.298,-5.132 5.132,-5.132" />
      </g>
    </g>
  </g>
  <g
     id="g1329"
     transform="matrix(1.333368,0,0,-1.333368,378.24502,1091.5733)">
    <g
       id="g1327"
       clip-path="url(#ad)">
      <g
         id="g1325"
         transform="translate(194.25,1130.3)">
        <path
           id="path1323"
           fill-rule="evenodd"
           fill="#ffffff"
           d="M 0,0 C 20.173,-11.579 43.841,2 51.309,14.862 58.776,27.723 56.341,46 40.841,52.5 25.341,59 -4.646,59.111 -13.659,43.5 -22.672,27.889 -20.174,11.578 0,0" />
      </g>
    </g>
  </g>
  <g
     id="g1337"
     transform="matrix(1.333368,0,0,-1.333368,378.24502,1091.5733)">
    <g
       id="g1335"
       clip-path="url(#ac)">
      <g
         id="g1333"
         transform="translate(473.86,1057.5)">
        <path
           id="path1331"
           fill-rule="evenodd"
           fill="#ffffff"
           d="M 0,0 C 1.657,0 3,1.501 3,3.353 3,5.205 1.657,6.706 0,6.706 -1.656,6.706 -3,5.205 -3,3.353 -3,1.501 -1.656,0 0,0" />
      </g>
    </g>
  </g>
  <g
     id="g1345"
     transform="matrix(1.333368,0,0,-1.333368,378.24502,1091.5733)">
    <g
       id="g1343"
       clip-path="url(#ab)">
      <g
         id="g1341"
         transform="translate(493,1069.8)">
        <path
           id="path1339"
           fill-rule="evenodd"
           fill="#ffffff"
           d="M 0,0 C 1.657,0 3,1.501 3,3.353 3,5.205 1.657,6.706 0,6.706 -1.657,6.706 -3,5.205 -3,3.353 -3,1.501 -1.657,0 0,0" />
      </g>
    </g>
  </g>
  <g
     id="g1353"
     transform="matrix(1.333368,0,0,-1.333368,378.24502,1091.5733)">
    <g
       id="g1351"
       clip-path="url(#aa)">
      <g
         id="g1349"
         transform="translate(510,1048.8)">
        <path
           id="path1347"
           fill-rule="evenodd"
           fill="#ffffff"
           d="M 0,0 C 1.657,0 3,1.501 3,3.353 3,5.205 1.657,6.706 0,6.706 -1.657,6.706 -3,5.205 -3,3.353 -3,1.501 -1.657,0 0,0" />
      </g>
    </g>
  </g>
  <g
     id="g1361"
     transform="matrix(1.333368,0,0,-1.333368,378.24502,1091.5733)">
    <g
       id="g1359"
       clip-path="url(#z)">
      <g
         id="g1357"
         transform="translate(806.5,1072.2)">
        <path
           id="path1355"
           stroke-miterlimit="10"
           stroke-linecap="round"
           stroke="#ffffff"
           fill="none"
           d="M 0,0 C -3.667,-14 -9.5,-21.833 -17.5,-23.5" />
      </g>
    </g>
  </g>
  <g
     id="g1369"
     transform="matrix(1.333368,0,0,-1.333368,378.24502,1091.5733)">
    <g
       id="g1367"
       clip-path="url(#y)">
      <g
         id="g1365"
         transform="translate(802,1066.2)">
        <path
           id="path1363"
           fill-rule="evenodd"
           fill="#ffffff"
           d="m 0,0 c -4.971,0 -9,4.029 -9,9 0,4.971 4.029,9 9,9 C 4.971,18 9,13.971 9,9 9,4.029 4.971,0 0,0 m 0,6 c 1.657,0 3,1.343 3,3 0,1.657 -1.343,3 -3,3 -1.657,0 -3,-1.343 -3,-3 0,-1.657 1.343,-3 3,-3" />
      </g>
    </g>
  </g>
  <g
     id="g1377"
     transform="matrix(1.333368,0,0,-1.333368,378.24502,1091.5733)">
    <g
       id="g1375"
       clip-path="url(#x)">
      <g
         id="g1373"
         transform="translate(122,495.24)">
        <path
           id="path1371"
           fill-rule="evenodd"
           fill="#ffffff"
           d="M 0,0 H 3 C 3.553,0 4,-0.447 4,-1 V -3 C 4,-3.553 3.553,-4 3,-4 H 0 c -0.553,0 -1,0.447 -1,1 v 2 c 0,0.553 0.447,1 1,1" />
      </g>
    </g>
  </g>
  <g
     id="g1385"
     transform="matrix(1.333368,0,0,-1.333368,378.24502,1091.5733)">
    <g
       id="g1383"
       clip-path="url(#w)">
      <g
         id="g1381"
         transform="translate(204,495.24)">
        <path
           id="path1379"
           fill-rule="evenodd"
           fill="#ffffff"
           d="M 0,0 H 3 C 3.553,0 4,-0.447 4,-1 V -3 C 4,-3.553 3.553,-4 3,-4 H 0 c -0.553,0 -1,0.447 -1,1 v 2 c 0,0.553 0.447,1 1,1" />
      </g>
    </g>
  </g>
  <g
     id="g1393"
     transform="matrix(1.333368,0,0,-1.333368,378.24502,1091.5733)">
    <g
       id="g1391"
       clip-path="url(#v)">
      <g
         id="g1389"
         transform="translate(805,482.24)">
        <path
           id="path1387"
           fill-rule="evenodd"
           fill="#ffffff"
           d="M 0,0 C 4.418,0 8,3.582 8,8 8,12.418 4.418,16 0,16 -4.418,16 -8,12.418 -8,8 -8,3.582 -4.418,0 0,0" />
      </g>
    </g>
  </g>
  <g
     id="g1401"
     transform="matrix(1.333368,0,0,-1.333368,378.24502,1091.5733)">
    <g
       id="g1399"
       clip-path="url(#u)">
      <g
         id="g1397"
         transform="translate(658,1075.7)">
        <path
           id="path1395"
           fill="#ffffff"
           d="M 0,0 C 0,-4.694 3.806,-8.5 8.5,-8.5 13.194,-8.5 17,-4.694 17,0 17,4.694 13.194,8.5 8.5,8.5 3.806,8.5 0,4.694 0,0" />
      </g>
    </g>
  </g>
  <g
     id="g1407"
     transform="matrix(1.333368,0,0,-1.333368,378.24502,1091.5733)">
    <g
       id="g1405"
       clip-path="url(#t)">
      <path
         id="path1403"
         fill-rule="evenodd"
         fill="#ffffff"
         d="m 465.44,1082.2 h 85.864 v -75.319 H 465.44 Z m 64.45,-25.106 c -0.483,0.765 -1.453,0.947 -2.178,0.431 l -15.504,-11.01 c -0.359,-0.255 -0.847,-0.153 -1.071,0.238 l -18.271,31.869 c -0.438,0.771 -1.139,0.776 -1.549,-0.016 l -1.807,-3.514 -21.07,-47.452 c 13.336,-18.44 48.336,-26.94 73.836,-3.44 0.841,0 6.477,6.246 6,7 z" />
    </g>
  </g>
  <g
     id="g1415"
     transform="matrix(1.333368,0,0,-1.333368,378.24502,1091.5733)">
    <g
       id="g1413"
       clip-path="url(#s)">
      <g
         id="g1411"
         transform="translate(-23,837.24)">
        <path
           id="path1409"
           stroke-width="8"
           stroke-miterlimit="10"
           stroke="#ffffff"
           fill="none"
           d="M 0,0 C 18.778,0 34,15.222 34,34 34,52.778 18.778,68 0,68 -18.778,68 -34,52.778 -34,34 -34,15.222 -18.778,0 0,0 Z" />
      </g>
    </g>
  </g>
  <g
     id="g1421"
     transform="matrix(1.333368,0,0,-1.333368,378.24502,1091.5733)">
    <g
       id="g1419"
       clip-path="url(#r)">
      <path
         id="path1417"
         fill-rule="evenodd"
         fill="#ffffff"
         d="m 644,721.24 h 82 v -82 h -82 z m 41,-81 c 22.092,0 40,17.908 40,40 0,22.092 -17.908,40 -40,40 -22.092,0 -40,-17.908 -40,-40 0,-22.092 17.908,-40 40,-40" />
    </g>
  </g>
  <g
     id="g1429"
     transform="matrix(1.333368,0,0,-1.333368,378.24502,1091.5733)">
    <g
       id="g1427"
       clip-path="url(#q)">
      <g
         id="g1425"
         transform="translate(613.88,476.03)">
        <path
           id="path1423"
           fill="#ffffff"
           d="m 0,0 c 0.187,-0.771 0.148,-1.502 -0.116,-2.193 -0.266,-0.692 -0.678,-1.303 -1.239,-1.833 -0.561,-0.531 -1.247,-0.949 -2.057,-1.255 -0.81,-0.305 -1.683,-0.457 -2.617,-0.457 -5.889,-0.033 -11.156,-0.049 -15.798,-0.049 h -15.891 c -1.122,0 -2.111,0.209 -2.968,0.627 -0.857,0.418 -1.543,0.932 -2.056,1.543 -0.515,0.611 -0.858,1.279 -1.029,2.002 -0.171,0.723 -0.148,1.375 0.071,1.953 0.186,0.451 0.373,0.917 0.56,1.398 0.157,0.418 0.343,0.893 0.561,1.424 0.219,0.53 0.452,1.069 0.701,1.615 l 1.776,4.438 h 5.329 l -2.01,-6.077 h 30.099 l -2.009,6.077 h 5.094 C -2.944,7.573 -2.353,6.094 -1.822,4.775 -1.604,4.197 -1.387,3.635 -1.168,3.088 -0.95,2.541 -0.756,2.051 -0.584,1.616 -0.413,1.183 -0.272,0.812 -0.163,0.507 -0.055,0.201 0,0.033 0,0 m -22.922,9.236 c -0.601,0.698 -1.289,1.571 -2.064,2.618 -0.776,1.046 -1.575,2.125 -2.398,3.235 -0.822,1.11 -1.637,2.204 -2.443,3.283 -0.808,1.079 -1.527,2.015 -2.16,2.808 -0.728,0.856 -1.013,1.562 -0.855,2.117 0.158,0.555 0.696,0.832 1.614,0.832 0.506,-0.031 1.187,-0.024 2.041,0.024 0.855,0.048 1.567,0.072 2.136,0.072 0.633,0 1.029,0.19 1.187,0.57 0.158,0.381 0.237,0.889 0.237,1.523 0,0.698 -0.008,1.467 -0.024,2.308 -0.016,0.841 -0.024,1.705 -0.024,2.593 0,0.888 -0.008,1.76 -0.023,2.617 -0.016,0.856 -0.024,1.65 -0.024,2.379 0,0.318 0.024,0.65 0.071,1 0.047,0.348 0.158,0.666 0.333,0.951 0.173,0.285 0.426,0.523 0.758,0.714 0.332,0.19 0.784,0.285 1.353,0.285 0.665,0 1.274,0.009 1.827,0.024 0.555,0.016 1.195,0.024 1.923,0.024 1.044,0 1.748,-0.246 2.112,-0.737 0.364,-0.492 0.562,-1.277 0.593,-2.356 v -1.855 c 0,-0.73 0.008,-1.507 0.023,-2.331 0.017,-0.826 0.025,-1.651 0.025,-2.475 v -2.236 c 0,-0.92 0.095,-1.659 0.284,-2.213 0.191,-0.555 0.617,-0.817 1.282,-0.785 0.475,0 1.052,-0.016 1.732,-0.047 0.68,-0.032 1.274,-0.049 1.78,-0.049 0.855,0 1.4,-0.23 1.638,-0.69 0.237,-0.46 0.071,-1.054 -0.498,-1.784 -0.602,-0.76 -1.298,-1.68 -2.089,-2.759 -0.791,-1.08 -1.606,-2.197 -2.445,-3.355 -0.838,-1.158 -1.661,-2.284 -2.467,-3.379 -0.807,-1.094 -1.528,-2.037 -2.16,-2.83 -0.57,-0.73 -1.116,-1.103 -1.637,-1.119 -0.523,-0.016 -1.069,0.326 -1.638,1.023" />
      </g>
    </g>
  </g>
  <g
     id="g1437"
     transform="matrix(1.333368,0,0,-1.333368,378.24502,1091.5733)">
    <g
       id="g1435"
       clip-path="url(#p)">
      <g
         id="g1433"
         transform="translate(588.67,331.24)">
        <path
           id="path1431"
           fill="#ffffff"
           d="m 0,0 h -49.301 c -2.41,0 -4.367,-1.941 -4.367,-4.299 v -49.402 c 0,-2.393 1.957,-4.299 4.367,-4.299 H 0 c 2.41,0 4.332,1.941 4.332,4.299 V -4.334 C 4.332,-1.941 2.375,0 0,0 m -33.403,-53.008 h -8.839 v 6.795 h 8.839 z m -8.91,24.58 h 8.84 v -6.795 h -8.84 z m 8.945,-15.566 h -8.84 v 6.795 h 8.84 z m 12.998,-9.014 h -8.84 v 6.795 h 8.84 z m -8.91,24.58 h 8.84 v -6.795 h -8.84 z m 8.944,-15.566 h -8.839 v 6.795 h 8.839 z m 13.277,-9.014 h -8.84 v 6.795 h 8.84 z m -8.909,24.58 h 8.84 v -6.795 h -8.84 z m 8.945,-15.566 h -8.84 v 6.795 h 8.84 z m 5.276,24.441 c 0,-2.392 -1.957,-4.299 -4.368,-4.299 h -37.77 c -2.411,-0.035 -4.367,1.907 -4.367,4.299 v 10.054 c 0,2.392 1.956,4.333 4.332,4.333 h 37.805 c 2.411,0 4.368,-1.941 4.368,-4.333 z" />
      </g>
    </g>
  </g>
  <g
     id="g1445"
     transform="matrix(1.333368,0,0,-1.333368,378.24502,1091.5733)">
    <g
       id="g1443"
       clip-path="url(#o)">
      <g
         id="g1441"
         transform="translate(609.3,312.46)">
        <path
           id="path1439"
           fill="#ffffff"
           d="m 0,0 h -0.72 c -0.206,0 -0.377,0 -0.514,-0.212 -0.103,-0.142 -0.103,-0.283 -0.103,-0.46 v -0.566 c 0,-0.178 0,-0.319 0.103,-0.461 0.137,-0.212 0.308,-0.212 0.514,-0.212 H 0 c 0.205,0 0.376,0 0.514,0.212 0.102,0.142 0.102,0.283 0.102,0.461 v 0.566 c 0,0.213 0,0.318 -0.102,0.46 C 0.376,0 0.239,0 0,0 M -5.003,4.779 H -7.95 c -0.548,0 -0.993,-0.46 -0.993,-1.026 V 1.346 h 0.993 v 2.407 h 2.947 V 1.346 h 0.993 v 2.407 c 0,0.566 -0.445,1.026 -0.993,1.026 m 0,-6.973 H -7.95 v 2.407 h -0.993 v -2.407 c 0,-0.567 0.411,-1.027 0.993,-1.027 h 2.947 c 0.582,0 0.993,0.46 0.993,1.027 v 2.407 h -0.993 z m -14.357,0 h -2.947 V 0.39 h -0.994 v -2.584 c 0,-0.567 0.411,-1.027 0.994,-1.027 h 2.947 c 0.583,0 0.994,0.46 0.994,1.027 V 0.39 h -0.994 z m 0,6.973 h -2.947 c -0.548,0 -0.994,-0.46 -0.994,-1.026 V 1.522 h 0.994 v 2.231 h 2.947 V 1.522 h 0.994 v 2.231 c 0,0.566 -0.446,1.026 -0.994,1.026 m 7.195,0 h -2.946 c -0.549,0 -0.994,-0.46 -0.994,-1.026 V 1.522 h 0.994 v 2.231 h 2.946 V 1.522 h 0.994 v 2.231 c 0,0.566 -0.445,1.026 -0.994,1.026 m 0,-6.973 h -2.946 V 0.39 h -0.994 v -2.584 c 0,-0.567 0.445,-1.027 0.994,-1.027 h 2.946 c 0.583,0 0.994,0.46 0.994,1.027 V 0.39 h -0.994 z M 6.51,4.779 H 3.563 C 3.015,4.779 2.569,4.319 2.569,3.753 V 1.169 H 3.563 V 3.753 H 6.51 V 1.169 h 0.994 v 2.584 c 0,0.566 -0.445,1.026 -0.994,1.026 m 0,-6.973 H 3.563 v 2.23 H 2.569 v -2.23 c 0,-0.567 0.446,-1.027 0.994,-1.027 H 6.51 c 0.583,0 0.994,0.46 0.994,1.027 v 2.23 H 6.51 Z m 7.195,0 h -2.946 v 2.053 H 9.765 v -2.053 c 0,-0.567 0.411,-1.027 0.994,-1.027 h 2.946 c 0.583,0 0.994,0.46 0.994,1.027 v 2.053 h -0.994 z m 0,6.973 h -2.946 c -0.548,0 -0.994,-0.46 -0.994,-1.026 V 0.992 h 0.994 v 2.761 h 2.946 V 0.992 h 0.994 v 2.761 c 0,0.566 -0.479,1.026 -0.994,1.026" />
      </g>
    </g>
  </g>
  <g
     id="g1453"
     transform="matrix(1.333368,0,0,-1.333368,378.24502,1091.5733)">
    <g
       id="g1451"
       clip-path="url(#n)">
      <g
         id="g1449"
         transform="translate(766.75,130.24)">
        <path
           id="path1447"
           fill="#ffffff"
           d="M 0,0 H -15.75 V 6.693 C -15.75,7.932 -16.763,9 -18.057,9 H -31.443 C -32.682,9 -33.75,7.987 -33.75,6.693 V 0 H -49.5 c -1.237,0 -2.25,-1.013 -2.25,-2.25 V -13.5 l 27,-4.5 27,4.5 V -2.25 C 2.25,-1.013 1.237,0 0,0 m -29.25,4.5 h 9 V 0 h -9 z m 9,-16.875 c 0,-0.619 -0.506,-1.125 -1.125,-1.125 h -6.75 c -0.619,0 -1.125,0.506 -1.125,1.125 v 2.25 c 0,0.619 0.506,1.125 1.125,1.125 h 6.75 c 0.619,0 1.125,-0.506 1.125,-1.125 z m -4.5,-7.875 27,4.5 v -27 C 2.25,-43.987 1.237,-45 0,-45 h -49.5 c -1.237,0 -2.25,1.013 -2.25,2.25 v 27 z" />
      </g>
    </g>
  </g>
  <g
     id="g1461"
     transform="matrix(1.333368,0,0,-1.333368,378.24502,1091.5733)">
    <g
       id="g1459"
       clip-path="url(#m)">
      <g
         id="g1457"
         transform="translate(392,82.24)">
        <path
           id="path1455"
           fill="#ffffff"
           d="M 0,0 -4.35,3.941 C -19.8,17.953 -30,27.2 -30,38.516 -30,47.762 -22.755,55 -13.5,55 -8.28,55 -3.27,52.572 0,48.75 3.27,52.572 8.28,55 13.5,55 22.755,55 30,47.762 30,38.516 30,27.2 19.8,17.953 4.35,3.941 Z" />
      </g>
    </g>
  </g>
  <g
     id="g1469"
     transform="matrix(1.333368,0,0,-1.333368,378.24502,1091.5733)">
    <g
       id="g1467"
       clip-path="url(#l)">
      <g
         id="g1465"
         transform="translate(542.77,113.24)">
        <path
           id="path1463"
           fill="#ffffff"
           d="m 0,0 c 0,2.621 0.885,4.8 2.689,6.604 1.804,1.804 3.983,2.689 6.604,2.689 2.622,0 4.801,-0.885 6.604,-2.689 1.805,-1.804 2.69,-3.983 2.69,-6.604 0,-2.621 -0.885,-4.834 -2.69,-6.639 -1.803,-1.803 -3.982,-2.689 -6.604,-2.689 -2.621,0 -4.809,0.877 -6.604,2.689 C 0.876,-4.809 0,-2.588 0,0 m -13.141,-6.06 c 0.545,-1.94 1.363,-3.846 2.35,-5.617 l -6.128,-7.523 6.944,-6.945 7.524,6.127 c 1.769,-0.986 3.71,-1.803 5.65,-2.382 L 4.221,-32 h 10.008 l 1.022,9.6 c 1.94,0.579 3.778,1.396 5.651,2.382 l 7.49,-6.127 7.012,6.945 -6.162,7.523 c 0.953,1.771 1.805,3.677 2.383,5.617 l 9.601,1.056 V 5.004 l -9.601,1.021 c -0.578,1.941 -1.43,3.745 -2.383,5.618 l 6.162,7.523 -7.012,7.013 -7.49,-6.161 c -1.907,0.953 -3.711,1.803 -5.651,2.382 L 14.229,32 H 4.221 L 3.199,22.4 c -2.008,-0.579 -3.88,-1.429 -5.65,-2.382 l -7.524,6.161 -6.944,-7.013 6.128,-7.523 C -11.744,9.77 -12.562,7.966 -13.141,6.025 L -22.774,5.004 V -5.004 Z" />
      </g>
    </g>
  </g>
  <g
     id="g1475"
     transform="matrix(1.333368,0,0,-1.333368,378.24502,1091.5733)">
    <g
       id="g1473"
       clip-path="url(#k)">
      <path
         id="path1471"
         fill-rule="evenodd"
         fill="#ffffff"
         d="m 473,698.24 h 13 v -13 h -13 z m 6.5,-12 c 3.037,0 5.5,2.463 5.5,5.5 0,3.038 -2.463,5.5 -5.5,5.5 -3.037,0 -5.5,-2.462 -5.5,-5.5 0,-3.037 2.463,-5.5 5.5,-5.5" />
    </g>
  </g>
  <g
     id="g1481"
     transform="matrix(1.333368,0,0,-1.333368,378.24502,1091.5733)">
    <g
       id="g1479"
       clip-path="url(#j)">
      <path
         id="path1477"
         fill-rule="evenodd"
         fill="#ffffff"
         d="m 473,676.24 h 13 v -13 h -13 z m 6.5,-12 c 3.037,0 5.5,2.463 5.5,5.5 0,3.038 -2.463,5.5 -5.5,5.5 -3.037,0 -5.5,-2.462 -5.5,-5.5 0,-3.037 2.463,-5.5 5.5,-5.5" />
    </g>
  </g>
  <g
     id="g1487"
     transform="matrix(1.333368,0,0,-1.333368,378.24502,1091.5733)">
    <g
       id="g1485"
       clip-path="url(#i)">
      <path
         id="path1483"
         fill-rule="evenodd"
         fill="#ffffff"
         d="m 467,687.24 h 13 v -13 h -13 z m 6.5,-12 c 3.037,0 5.5,2.463 5.5,5.5 0,3.038 -2.463,5.5 -5.5,5.5 -3.037,0 -5.5,-2.462 -5.5,-5.5 0,-3.037 2.463,-5.5 5.5,-5.5" />
    </g>
  </g>
  <g
     id="g1493"
     transform="matrix(1.333368,0,0,-1.333368,378.24502,1091.5733)">
    <g
       id="g1491"
       clip-path="url(#h)">
      <path
         id="path1489"
         fill-rule="evenodd"
         fill="#ffffff"
         d="m 486,698.24 h 13 v -13 h -13 z m 6.5,-12 c 3.037,0 5.5,2.463 5.5,5.5 0,3.038 -2.463,5.5 -5.5,5.5 -3.037,0 -5.5,-2.462 -5.5,-5.5 0,-3.037 2.463,-5.5 5.5,-5.5" />
    </g>
  </g>
  <g
     id="g1499"
     transform="matrix(1.333368,0,0,-1.333368,378.24502,1091.5733)">
    <g
       id="g1497"
       clip-path="url(#g)">
      <path
         id="path1495"
         fill-rule="evenodd"
         fill="#ffffff"
         d="m 486,676.24 h 13 v -13 h -13 z m 6.5,-12 c 3.037,0 5.5,2.463 5.5,5.5 0,3.038 -2.463,5.5 -5.5,5.5 -3.037,0 -5.5,-2.462 -5.5,-5.5 0,-3.037 2.463,-5.5 5.5,-5.5" />
    </g>
  </g>
  <g
     id="g1505"
     transform="matrix(1.333368,0,0,-1.333368,378.24502,1091.5733)">
    <g
       id="g1503"
       clip-path="url(#f-0)">
      <path
         id="path1501"
         fill-rule="evenodd"
         fill="#ffffff"
         d="m 480,687.24 h 13 v -13 h -13 z m 6.5,-12 c 3.037,0 5.5,2.463 5.5,5.5 0,3.038 -2.463,5.5 -5.5,5.5 -3.037,0 -5.5,-2.462 -5.5,-5.5 0,-3.037 2.463,-5.5 5.5,-5.5" />
    </g>
  </g>
  <g
     id="g1511"
     transform="matrix(1.333368,0,0,-1.333368,378.24502,1091.5733)">
    <g
       id="g1509"
       clip-path="url(#e-7)">
      <path
         id="path1507"
         fill-rule="evenodd"
         fill="#ffffff"
         d="m 493,687.24 h 13 v -13 h -13 z m 6.5,-12 c 3.037,0 5.5,2.463 5.5,5.5 0,3.038 -2.463,5.5 -5.5,5.5 -3.037,0 -5.5,-2.462 -5.5,-5.5 0,-3.037 2.463,-5.5 5.5,-5.5" />
    </g>
  </g>
  <g
     id="g1517"
     transform="matrix(1.333368,0,0,-1.333368,378.24502,1091.5733)">
    <g
       id="g1515"
       clip-path="url(#d-8)">
      <path
         id="path1513"
         fill-rule="evenodd"
         fill="#ffffff"
         d="m 161,327.24 h 73 v -28 h -73 z m 14,-5 h 45 c 4.971,0 9,-4.029 9,-9 0,-4.97 -4.029,-9 -9,-9 h -45 c -4.971,0 -9,4.03 -9,9 0,4.971 4.029,9 9,9" />
    </g>
  </g>
  <g
     id="g1523"
     transform="matrix(1.333368,0,0,-1.333368,378.24502,1091.5733)">
    <g
       id="g1521"
       clip-path="url(#c-2)">
      <path
         id="path1519"
         fill-rule="evenodd"
         fill="#ffffff"
         d="m 162,302.24 h 73 v -28 h -73 z m 14,-5 h 45 c 4.971,0 9,-4.029 9,-9 0,-4.97 -4.029,-9 -9,-9 h -45 c -4.971,0 -9,4.03 -9,9 0,4.971 4.029,9 9,9" />
    </g>
  </g>
  <g
     id="g1531"
     transform="matrix(1.333368,0,0,-1.333368,378.24502,1091.5733)">
    <g
       id="g1529"
       clip-path="url(#b-6)">
      <g
         id="g1527"
         transform="translate(104.49,129.57)">
        <path
           id="path1525"
           fill="#ffffff"
           d="m 0,0 c -4.298,-0.338 -8.165,-0.637 -11.604,-0.898 -1.458,-0.113 -2.906,-0.225 -4.344,-0.336 -1.44,-0.114 -2.747,-0.207 -3.924,-0.282 -1.178,-0.074 -2.168,-0.149 -2.972,-0.224 -0.803,-0.074 -1.28,-0.113 -1.428,-0.113 -0.188,-0.037 -0.403,-0.065 -0.645,-0.084 -0.244,-0.018 -0.459,-0.065 -0.645,-0.139 l -0.673,-0.225 -2.467,1.121 c 0.187,0.263 0.412,0.506 0.674,0.731 0.185,0.186 0.42,0.364 0.7,0.533 0.28,0.168 0.569,0.27 0.868,0.309 0.225,0.037 0.822,0.093 1.795,0.168 0.971,0.074 2.167,0.168 3.588,0.28 0,0.486 0.047,1.15 0.14,1.992 0.092,0.841 0.317,1.674 0.672,2.497 0.356,0.822 0.869,1.553 1.541,2.188 0.673,0.636 1.589,1.009 2.747,1.123 1.346,0.111 2.439,-0.094 3.281,-0.618 0.84,-0.523 1.494,-1.169 1.961,-1.935 0.467,-0.768 0.795,-1.553 0.981,-2.358 0.187,-0.804 0.299,-1.43 0.337,-1.878 1.606,0.111 2.942,0.205 4.008,0.279 1.064,0.076 1.653,0.131 1.765,0.169 0.412,0.038 0.87,-0.038 1.373,-0.225 0.505,-0.186 0.907,-0.43 1.206,-0.729 C -0.99,1.271 -0.888,1.158 -0.757,1.01 -0.626,0.859 -0.505,0.71 -0.392,0.561 -0.243,0.41 -0.112,0.224 0,0 m -15.528,6.676 c -0.709,-0.074 -1.28,-0.326 -1.709,-0.757 -0.43,-0.431 -0.758,-0.944 -0.982,-1.543 -0.223,-0.599 -0.374,-1.206 -0.448,-1.823 -0.075,-0.617 -0.112,-1.114 -0.112,-1.488 1.159,0.076 2.344,0.169 3.559,0.281 1.215,0.112 2.402,0.206 3.56,0.281 -0.037,0.336 -0.121,0.804 -0.252,1.402 -0.131,0.599 -0.346,1.178 -0.645,1.74 -0.299,0.561 -0.691,1.028 -1.176,1.403 -0.487,0.373 -1.084,0.542 -1.795,0.504 m 21.919,-41.24 c 0.186,-1.047 0.159,-1.917 -0.084,-2.61 -0.244,-0.691 -0.925,-1.168 -2.046,-1.43 -0.374,-0.113 -1.187,-0.299 -2.439,-0.562 -1.252,-0.262 -2.747,-0.579 -4.485,-0.953 -1.737,-0.374 -3.597,-0.777 -5.577,-1.207 -1.982,-0.43 -3.878,-0.832 -5.691,-1.205 -1.812,-0.375 -3.437,-0.711 -4.877,-1.011 -1.438,-0.3 -2.457,-0.505 -3.054,-0.617 -1.383,-0.3 -2.402,-0.206 -3.055,0.28 -0.654,0.486 -0.982,1.217 -0.982,2.189 v 34.452 c 0,0.934 0.197,1.691 0.589,2.271 0.393,0.58 0.962,0.889 1.709,0.926 0.299,0 0.664,0.02 1.094,0.057 0.43,0.037 0.85,0.074 1.261,0.112 0.485,0.037 0.991,0.075 1.514,0.112 l 0.504,-8.023 c -0.037,-0.038 -0.112,-0.057 -0.224,-0.057 -0.074,0 -0.187,-0.01 -0.336,-0.027 -0.15,-0.02 -0.318,-0.029 -0.505,-0.029 -0.784,-0.075 -1.159,-0.542 -1.121,-1.403 0.038,-0.336 0.075,-0.805 0.112,-1.402 0.037,-0.599 0.066,-1.225 0.084,-1.88 0.019,-0.655 0.047,-1.29 0.084,-1.907 0.037,-0.617 0.074,-1.114 0.113,-1.488 0.037,-0.711 0.149,-1.112 0.336,-1.206 0.186,-0.093 0.598,-0.14 1.233,-0.14 h 0.785 c 0.225,0 0.439,0.01 0.645,0.027 0.205,0.02 0.439,0.038 0.701,0.057 0.261,0.018 0.597,0.047 1.008,0.084 0.785,0.075 1.29,0.243 1.513,0.506 0.225,0.261 0.319,0.654 0.281,1.177 0,0.262 -0.028,0.721 -0.084,1.375 -0.056,0.655 -0.113,1.337 -0.168,2.048 -0.056,0.71 -0.103,1.384 -0.14,2.02 -0.037,0.635 -0.074,1.085 -0.112,1.346 -0.076,0.45 -0.168,0.768 -0.281,0.954 -0.112,0.187 -0.318,0.262 -0.617,0.224 -0.148,0 -0.299,-0.009 -0.447,-0.027 -0.151,-0.019 -0.3,-0.028 -0.449,-0.028 h -0.449 l -0.505,7.967 c 2.542,0.225 4.877,0.412 7.008,0.561 0.897,0.076 1.803,0.15 2.719,0.224 0.916,0.076 1.766,0.141 2.551,0.198 0.785,0.055 1.476,0.111 2.074,0.168 0.598,0.056 1.046,0.103 1.346,0.14 1.083,0.074 1.942,-0.113 2.578,-0.561 0.635,-0.449 1.027,-1.122 1.178,-2.021 0.037,-0.299 0.168,-1.196 0.391,-2.693 0.224,-1.496 0.505,-3.291 0.841,-5.386 0.336,-2.095 0.691,-4.349 1.065,-6.761 0.374,-2.413 0.729,-4.667 1.066,-6.761 0.336,-2.095 0.625,-3.891 0.869,-5.387 0.242,-1.496 0.4,-2.395 0.476,-2.693 m -35.261,-4.881 c 0,-0.525 0.028,-0.983 0.084,-1.375 0.057,-0.393 0.122,-0.701 0.197,-0.926 0.074,-0.299 0.168,-0.524 0.279,-0.674 -0.933,0.486 -1.831,0.973 -2.69,1.459 -0.747,0.412 -1.495,0.832 -2.242,1.263 -0.747,0.43 -1.383,0.795 -1.906,1.094 -0.972,0.561 -1.635,1.235 -1.99,2.02 -0.355,0.785 -0.439,1.608 -0.253,2.469 0.076,0.224 0.244,1.047 0.505,2.469 0.262,1.421 0.588,3.142 0.981,5.162 0.392,2.019 0.803,4.189 1.233,6.508 0.43,2.32 0.831,4.49 1.205,6.509 0.374,2.02 0.701,3.76 0.982,5.218 0.28,1.459 0.439,2.319 0.476,2.581 0.15,0.823 0.42,1.459 0.813,1.908 0.392,0.449 0.849,0.561 1.373,0.336 0.299,-0.149 0.543,-0.317 0.728,-0.504 0.114,-0.113 0.188,-0.207 0.225,-0.281 z" />
      </g>
    </g>
  </g>
  <g
     transform="translate(110.22863,73.541714)"
     id="g2068">
    <g
       style="opacity:0.5;fill:#2249a9;fill-opacity:1"
       transform="matrix(0.06794213,0,0,0.06794213,-95.622062,-58.934797)"
       fill="#0f9bff"
       filter="url(#filter951)"
       id="g1008">
      <path
         style="fill:#2249a9;fill-opacity:1"
         d="M 256,0 C 179.456,0.094 117.43,62.122 117.33,138.67 v 85.333 c 0,5.891 4.776,10.667 10.667,10.667 h 42.667 c 5.891,0 10.667,-4.776 10.667,-10.667 V 138.67 c -10e-4,-41.238 33.429,-74.667 74.666,-74.667 41.237,0 74.667,33.429 74.667,74.667 v 85.333 c 0,5.891 4.776,10.667 10.667,10.667 h 42.666 c 5.891,0 10.667,-4.776 10.667,-10.667 V 138.67 C 394.57,62.125 332.541,0.1 255.994,0 Z"
         id="path1002" />
      <path
         style="fill:#2249a9;fill-opacity:1"
         d="m 128,213.33 h 256 c 29.455,0 53.333,23.878 53.333,53.333 v 192 c 0,29.456 -23.878,53.334 -53.333,53.334 H 128 c -29.455,0 -53.333,-23.878 -53.333,-53.333 v -192 c 0,-29.456 23.878,-53.334 53.333,-53.334 z"
         id="path1004" />
    </g>
    <path
       d="m -78.22863,-58.93464 c -5.200562,0.0064 -9.415081,4.221041 -9.421875,9.421875 v 5.796875 c 0,0.400247 0.324362,0.724609 0.724609,0.724609 h 2.898438 c 0.400247,0 0.726562,-0.324362 0.726562,-0.724609 v -5.796875 c -6.8e-5,-2.801797 2.270537,-5.074219 5.072266,-5.074219 2.80173,0 5.072266,2.272422 5.072266,5.074219 v 5.796875 c 0,0.400247 0.324362,0.724609 0.724609,0.724609 h 2.900391 c 0.400247,0 0.724609,-0.324362 0.724609,-0.724609 v -5.796875 c -0.0064,-5.20063 -4.221109,-9.415081 -9.421875,-9.421875 z"
       style="opacity:0.8;fill:#ffffff;fill-opacity:1;stroke-width:2;stroke-linecap:round"
       id="rect1025" />
    <path
       d="m -86.925896,-44.4405 c -2.001235,0 -3.623047,1.621744 -3.623046,3.623047 v 13.044922 c -2e-6,2.001236 1.621811,3.623047 3.623046,3.623047 h 17.394532 c 2.001235,0 3.623046,-1.621743 3.623046,-3.623047 v -13.044922 c 10e-7,-2.001235 -1.621811,-3.623047 -3.623046,-3.623047 z m 8.712891,4.333985 c 2.001235,0.0084 3.615847,1.637436 3.607422,3.638672 -0.0079,1.369237 -0.783224,2.617629 -2.007813,3.230469 l 0.558594,3.914062 c 0.0053,0.03648 0.0082,0.07248 0.0078,0.109375 -0.004,0.400247 -0.332175,0.720873 -0.732422,0.716797 h -2.898438 c -0.0339,0 -0.068,-0.0011 -0.101562,-0.0059 -0.396307,-0.05605 -0.67324,-0.424006 -0.617188,-0.820312 l 0.560547,-3.912109 c -1.23974,-0.613586 -2.021468,-1.88037 -2.015625,-3.263672 0.0084,-2.001236 1.637437,-3.615847 3.638672,-3.607422 z"
       style="fill:#ffffff;fill-opacity:1;stroke-width:2;stroke-linecap:round"
       id="rect1021" />
  </g>
</svg>
