<?xml version="1.0" encoding="UTF-8" standalone="no"?>
<svg
   xmlns:dc="http://purl.org/dc/elements/1.1/"
   xmlns:cc="http://creativecommons.org/ns#"
   xmlns:rdf="http://www.w3.org/1999/02/22-rdf-syntax-ns#"
   xmlns:svg="http://www.w3.org/2000/svg"
   xmlns="http://www.w3.org/2000/svg"
   xmlns:xlink="http://www.w3.org/1999/xlink"
   xmlns:sodipodi="http://sodipodi.sourceforge.net/DTD/sodipodi-0.dtd"
   xmlns:inkscape="http://www.inkscape.org/namespaces/inkscape"
   inkscape:version="1.0 (4035a4fb49, 2020-05-01)"
   sodipodi:docname="preferences-desktop-emoticons.svg"
   viewBox="0 0 64 64"
   version="1.1"
   image-rendering="optimizeSpeed"
   enable-background="new 0 0 1024 1024"
   height="64"
   width="64"
   id="Iterm">
  <metadata
     id="metadata45">
    <rdf:RDF>
      <cc:Work
         rdf:about="">
        <dc:format>image/svg+xml</dc:format>
        <dc:type
           rdf:resource="http://purl.org/dc/dcmitype/StillImage" />
        <dc:title></dc:title>
      </cc:Work>
    </rdf:RDF>
  </metadata>
  <sodipodi:namedview
     inkscape:current-layer="Iterm"
     inkscape:window-maximized="1"
     inkscape:window-y="0"
     inkscape:window-x="0"
     inkscape:cy="10.810054"
     inkscape:cx="22.294141"
     inkscape:zoom="4.5906698"
     showgrid="false"
     id="namedview43"
     inkscape:window-height="1000"
     inkscape:window-width="1920"
     inkscape:pageshadow="2"
     inkscape:pageopacity="0"
     guidetolerance="10"
     gridtolerance="10"
     objecttolerance="10"
     borderopacity="1"
     bordercolor="#666666"
     pagecolor="#ffffff" />
  <defs
     id="defs19">
    <linearGradient
       gradientUnits="userSpaceOnUse"
       gradientTransform="matrix(3.7796,0,0,3.7796,2.0380378,-11.354185)"
       y2="1.852"
       y1="15.081"
       x2="7.9373"
       x1="7.9373"
       id="linearGradient862">
      <stop
         id="stop2"
         offset="0"
         stop-color="#e6e6e6" />
      <stop
         id="stop4"
         offset="1"
         stop-color="#fff" />
    </linearGradient>
    <linearGradient
       xlink:href="#linearGradient4207"
       gradientUnits="userSpaceOnUse"
       gradientTransform="translate(-371.07 -499.41)"
       y2="534.8"
       y1="538.8"
       x2="0"
       id="linearGradient4213" />
    <linearGradient
       id="linearGradient4207">
      <stop
         id="stop8"
         offset="0"
         stop-color="#814b13" />
      <stop
         id="stop10"
         offset="1"
         stop-color="#9d5b17" />
    </linearGradient>
    <linearGradient
       xlink:href="#linearGradient4207"
       gradientUnits="userSpaceOnUse"
       gradientTransform="translate(-371.07 -499.41)"
       y2="524.8"
       y1="528.8"
       x2="0"
       id="linearGradient882" />
    <linearGradient
       gradientUnits="userSpaceOnUse"
       y2="43.477"
       y1="20.91"
       x2="29.234"
       x1="29.234"
       id="linearGradient905">
      <stop
         id="stop14"
         offset="0"
         stop-color="#ffe999" />
      <stop
         id="stop16"
         offset="1"
         stop-color="#ffb633" />
    </linearGradient>
    <filter
       id="filter11290"
       x="-.024"
       y="-.024"
       width="1.048"
       height="1.048"
       color-interpolation-filters="sRGB">
      <feGaussianBlur
         stdDeviation="0.15875313"
         id="feGaussianBlur870" />
    </filter>
    <linearGradient
       id="a-9"
       x1="23.487"
       x2="23.487"
       y1="15.18"
       y2="32.913"
       gradientTransform="matrix(.12676 0 0 .12676 -27.515 6.7925)"
       gradientUnits="userSpaceOnUse">
      <stop
         stop-color="#141414"
         offset="0"
         id="stop873" />
      <stop
         stop-color="#30277f"
         offset="1"
         id="stop875" />
    </linearGradient>
    <radialGradient
       id="c-7"
       cx="24.047"
       cy="23.949"
       r="2.9867"
       gradientTransform="matrix(0.2056,-3.7539e-8,2.8431e-8,0.15571,-39.607,5.456)"
       gradientUnits="userSpaceOnUse">
      <stop
         stop-color="#2839e6"
         offset="0"
         id="stop878" />
      <stop
         stop-opacity="0"
         offset="1"
         id="stop880" />
    </radialGradient>
    <linearGradient
       id="d-6"
       x1="361.36"
       x2="361.36"
       y1="616.07"
       y2="722.79"
       gradientTransform="matrix(.0040372 0 0 .0040372 -25.925 7.1257)"
       gradientUnits="userSpaceOnUse">
      <stop
         stop-color="#fff"
         offset="0"
         id="stop883" />
      <stop
         stop-color="#fff"
         stop-opacity="0"
         offset="1"
         id="stop885" />
    </linearGradient>
    <radialGradient
       id="radialGradient123131"
       cx="-24.473"
       cy="9.8348"
       r="1.1409"
       gradientTransform="matrix(1.4202,0,0,1.0512,0.054505,-1.1471)"
       gradientUnits="userSpaceOnUse"
       xlink:href="#a-9" />
    <linearGradient
       id="linearGradient123141"
       x1="-24.485"
       x2="-24.485"
       y1="8.6962"
       y2="9.7506"
       gradientTransform="translate(-10.196,-0.6431)"
       gradientUnits="userSpaceOnUse"
       xlink:href="#d-6" />
    <linearGradient
       id="linearGradient123149"
       x1="-24.478"
       x2="-24.478"
       y1="11.104"
       y2="8.4912"
       gradientTransform="translate(-10.229,-0.6431)"
       gradientUnits="userSpaceOnUse">
      <stop
         stop-color="#2d1edc"
         offset="0"
         id="stop890" />
      <stop
         stop-color="#141414"
         offset="1"
         id="stop892" />
    </linearGradient>
    <radialGradient
       id="radialGradient123155"
       cx="-24.473"
       cy="9.8348"
       r="1.1409"
       gradientTransform="matrix(1.1403,0,0,0.84405,-6.7958,0.89063)"
       gradientUnits="userSpaceOnUse"
       xlink:href="#a-9" />
    <linearGradient
       id="linearGradient123157"
       x1="-24.478"
       x2="-24.478"
       y1="11.104"
       y2="8.4912"
       gradientTransform="matrix(0.8029,0,0,0.8029,-15.053,1.2953)"
       gradientUnits="userSpaceOnUse"
       xlink:href="#a-9" />
    <radialGradient
       id="radialGradient123159"
       cx="-24.473"
       cy="9.8348"
       r="1.5211"
       gradientTransform="matrix(0.93082,0,0,0.93082,-11.889,0.037279)"
       gradientUnits="userSpaceOnUse">
      <stop
         stop-color="#291dc0"
         offset="0"
         id="stop897" />
      <stop
         stop-color="#1b1b23"
         offset="1"
         id="stop899" />
    </radialGradient>
    <linearGradient
       id="linearGradient123161"
       x1="361.36"
       x2="361.36"
       y1="616.07"
       y2="722.79"
       gradientTransform="matrix(0.0040372,0,0,0.0040372,-36.122,6.4826)"
       gradientUnits="userSpaceOnUse"
       xlink:href="#d-6" />
    <linearGradient
       id="linearGradient123197"
       x1="-36.117"
       x2="-33.22"
       y1="10.638"
       y2="7.7404"
       gradientUnits="userSpaceOnUse">
      <stop
         offset="0"
         id="stop903" />
      <stop
         stop-opacity="0"
         offset="1"
         id="stop905" />
    </linearGradient>
    <linearGradient
       id="linearGradient952"
       x1="-20.384"
       x2="-23.272"
       y1="6.1331"
       y2="15.312"
       gradientUnits="userSpaceOnUse">
      <stop
         stop-color="#232323"
         offset="0"
         id="stop908" />
      <stop
         stop-color="#323296"
         offset=".95004"
         id="stop910" />
      <stop
         stop-color="#232323"
         offset="1"
         id="stop912" />
    </linearGradient>
    <linearGradient
       id="linearGradient1000"
       x1="-25.122"
       x2="-15.582"
       y1="9.3424"
       y2="9.3424"
       gradientUnits="userSpaceOnUse">
      <stop
         stop-color="#407fff"
         offset="0"
         id="stop915" />
      <stop
         stop-color="#ff407a"
         offset="1"
         id="stop917" />
    </linearGradient>
    <linearGradient
       id="linearGradient1005"
       x1=".73911"
       x2="16.388"
       y1="16.296"
       y2=".64687"
       gradientTransform="matrix(3.779602,0,0,3.779602,-0.1319475,0.02456655)"
       gradientUnits="userSpaceOnUse">
      <stop
         stop-color="#dddfe1"
         offset="0"
         id="stop920" />
      <stop
         stop-color="#f3f4f6"
         offset="1"
         id="stop922" />
    </linearGradient>
  </defs>
  <mask
     id="mask24">
    <g
       id="g">
      <path
         id="path21"
         fill="#fff"
         d="m969.75 392.05c-1.1-4.35-2.35-9-3.65-13.6-1-3.4-2-6.85-3.15-10.5-1.6-5.15-3.4-10.5-5.3-15.85-6.45-18.25-14.15-36.05-23.15-53.65-3.8-7.4-7.95-14.95-12.3-22.4-20.3-34.5-45.8-67.2-76.35-97.75-72.6-72.6-157.15-116.65-253.65-132.05-16.25-2.6-32.8-4.4-50.05-5.35-9.7-0.55-19.85-0.85-30.1-0.85-9.35 0-18.6 0.25-27.9 0.75-118.35 6.1-220.3 51.95-305.85 137.5q-138.25 138.25-138.25 333.75c0 130.35 46.1 241.65 138.25 333.8 56.7 56.65 120.55 95.9 191.1 117.55 36.75 11.25 74.8 17.85 114.75 19.95h0.4c8.5 0.45 16.6 0.7 24.5 0.7h3c10.3 0 20.5-0.3 30.1-0.8 2.5-0.15 4.75-0.3 6.95-0.45 20.2-1.45 39.9-4.05 58.7-7.7 7.95-1.55 15.8-3.3 23.4-5.15 80.8-20.3 152.15-61.6 214.65-124.1 48.6-48.6 84.4-102.5 107.35-161.8 18.45-47.65 28.65-98.8 30.55-153.5 0.2-6.05 0.3-12.25 0.3-18.5v-3c-0.2-40.65-4.95-79.5-14.3-117z" />
    </g>
  </mask>
  <circle
     transform="matrix(3.779602,0,0,3.779602,-0.10280494,0.02456761)"
     id="circle929"
     stroke-width="0.14032"
     opacity="0.25"
     filter="url(#filter11290)"
     r="7.9376998"
     cy="8.46"
     cx="8.4937" />
  <path
     id="path931"
     stroke-width="0.11719"
     fill="url(#linearGradient1005)"
     d="m 62.000382,31.999811 c 0,3.596442 -0.633045,7.0448 -1.79395,10.240453 -0.806983,2.221197 -1.868597,4.321219 -3.151923,6.263557 -0.537535,0.816696 -1.115512,1.605386 -1.729017,2.363347 -1.964108,2.425711 -4.298163,4.538168 -6.918562,6.252596 -0.964932,0.631873 -1.967849,1.20985 -3.006144,1.727731 -4.032079,2.017892 -8.583854,3.152982 -13.400957,3.152982 -4.817102,0 -9.368877,-1.13509 -13.400956,-3.153095 -1.038408,-0.517995 -2.042497,-1.095971 -3.00743,-1.727732 -2.653545,-1.737596 -5.015532,-3.883163 -6.9956645,-6.348975 -0.614677,-0.764085 -1.191482,-1.560031 -1.729017,-2.384098 -1.249007,-1.91021 -2.283673,-3.971227 -3.074706,-6.149412 -1.160754,-3.19486 -1.792665,-6.641895 -1.792665,-10.237052 0,-16.569019 13.4315705,-30.0005905 30.0005905,-30.0005905 8.317014,0 15.842957,3.384558 21.277269,8.8506935 1.566116,1.574658 2.958446,3.323366 4.143578,5.213961 1.120463,1.780457 2.057161,3.688211 2.785718,5.695104 1.161018,3.195994 1.794063,6.644163 1.794063,10.240454 z"
     style="fill:url(#linearGradient1005)" />
  <g
     id="g40"
     transform="matrix(1.4286 0 0 1.4286 -10.139 -14.265)">
    <rect
       id="rect32"
       fill="url(#linearGradient905)"
       ry="14"
       rx="14"
       height="28"
       width="28"
       y="18.385"
       x="15.497" />
    <ellipse
       id="ellipse34"
       stroke-width="5.0394"
       fill="url(#linearGradient882)"
       ry="2"
       rx="2"
       cy="27.385"
       cx="24.497" />
    <ellipse
       id="ellipse36"
       stroke-width="5.0394"
       fill="url(#linearGradient882)"
       ry="2"
       rx="2"
       cy="27.385"
       cx="34.497" />
    <path
       id="path38"
       stroke-width="1.2312"
       fill="url(#linearGradient4213)"
       d="m24.171 35.692a6.1563 7.3876 0 0 0 5.3266 3.6938 6.1563 7.3876 0 0 0 5.3218-3.6938h-0.7479a6.1563 7.3876 0 0 1-4.5739 2.4625 6.1563 7.3876 0 0 1-4.5763-2.4625z" />
  </g>
  <g
     transform="matrix(3.779602,0,0,3.779602,-78.900128,0.02456761)"
     id="g941"
     stroke-width="0.26458"
     fill="#5e4aa6">
    <circle
       id="circle933"
       r="0"
       cy="-328.38"
       cx="-330.35001" />
    <circle
       id="circle935"
       r="0"
       cy="-326.25"
       cx="-312.10999" />
    <circle
       id="circle937"
       r="0"
       cy="-333.07001"
       cx="-306.01999" />
    <circle
       id="circle939"
       r="0"
       cy="-326.01001"
       cx="-308.84" />
  </g>
</svg>
