<?xml version="1.0" encoding="UTF-8" standalone="no"?>
<svg
   xmlns:dc="http://purl.org/dc/elements/1.1/"
   xmlns:cc="http://creativecommons.org/ns#"
   xmlns:rdf="http://www.w3.org/1999/02/22-rdf-syntax-ns#"
   xmlns:svg="http://www.w3.org/2000/svg"
   xmlns="http://www.w3.org/2000/svg"
   xmlns:xlink="http://www.w3.org/1999/xlink"
   xmlns:sodipodi="http://sodipodi.sourceforge.net/DTD/sodipodi-0.dtd"
   xmlns:inkscape="http://www.inkscape.org/namespaces/inkscape"
   inkscape:version="1.0 (4035a4fb49, 2020-05-01)"
   sodipodi:docname="preferences-desktop-wallpaper.svg"
   id="svg59"
   version="1.1"
   height="64"
   width="64">
  <metadata
     id="metadata63">
    <rdf:RDF>
      <cc:Work
         rdf:about="">
        <dc:format>image/svg+xml</dc:format>
        <dc:type
           rdf:resource="http://purl.org/dc/dcmitype/StillImage" />
        <dc:title></dc:title>
      </cc:Work>
    </rdf:RDF>
  </metadata>
  <sodipodi:namedview
     inkscape:current-layer="svg59"
     inkscape:window-maximized="1"
     inkscape:window-y="0"
     inkscape:window-x="0"
     inkscape:cy="33.276173"
     inkscape:cx="-13.512722"
     inkscape:zoom="6.4921875"
     showgrid="false"
     id="namedview61"
     inkscape:window-height="1000"
     inkscape:window-width="1920"
     inkscape:pageshadow="2"
     inkscape:pageopacity="0"
     guidetolerance="10"
     gridtolerance="10"
     objecttolerance="10"
     borderopacity="1"
     bordercolor="#666666"
     pagecolor="#ffffff" />
  <defs
     id="defs29">
    <linearGradient
       gradientUnits="userSpaceOnUse"
       gradientTransform="matrix(2.1429 0 0 2.1429 -925.89 -1107.5)"
       y2="517.8"
       y1="545.8"
       x2="399.57"
       x1="399.57"
       id="b">
      <stop
         id="stop2"
         offset="0"
         stop-color="#3889e9" />
      <stop
         id="stop4"
         offset="1"
         stop-color="#5ea5fb" />
    </linearGradient>
    <linearGradient
       gradientUnits="userSpaceOnUse"
       gradientTransform="matrix(0.72559,0.0036045,-0.0038878,0.67325,-283.34764,-279.18)"
       y2="463.62"
       y1="507.29"
       x2="543.25"
       x1="542.64"
       id="a">
      <stop
         id="stop7"
         offset="0"
         stop-color="#132e51" />
      <stop
         id="stop9"
         offset="1"
         stop-color="#2767b9" />
    </linearGradient>
    <linearGradient
       gradientUnits="userSpaceOnUse"
       gradientTransform="matrix(0.57339,0,0,0.57339,-205.21716,-222.90446)"
       y2="431.85"
       y1="446.71"
       x2="518.54"
       x1="516.86"
       id="d">
      <stop
         id="stop12"
         offset="0"
         stop-color="#eefefe" />
      <stop
         id="stop14"
         offset="1"
         stop-color="#d6fefe" />
    </linearGradient>
    <linearGradient
       xlink:href="#linearGradient863"
       gradientUnits="userSpaceOnUse"
       gradientTransform="matrix(3.7796,0,0,3.7796,77.592359,0)"
       y2="1.0583"
       y1="6.879"
       x2="7.9373"
       x1="7.9373"
       id="linearGradient865" />
    <linearGradient
       id="linearGradient863">
      <stop
         id="stop18"
         offset="0"
         stop-color="#fff" />
      <stop
         id="stop20"
         offset="1"
         stop-color="#ccf0ff" />
    </linearGradient>
    <linearGradient
       gradientUnits="userSpaceOnUse"
       gradientTransform="matrix(3.7796,0,0,3.7796,77.592359,0)"
       y2="1.852"
       y1="15.081"
       x2="7.9373"
       x1="7.9373"
       id="linearGradient855">
      <stop
         id="stop23"
         offset="0"
         stop-color="#82cdfb" />
      <stop
         id="stop25"
         offset="1"
         stop-color="#319af6" />
    </linearGradient>
    <linearGradient
       gradientTransform="translate(77.592359)"
       xlink:href="#linearGradient863"
       gradientUnits="userSpaceOnUse"
       y2="6.9915"
       y1="19"
       x2="57.008"
       x1="45"
       id="linearGradient910" />
    <linearGradient
       id="linearGradient1235"
       inkscape:collect="always">
      <stop
         id="stop1231"
         offset="0"
         style="stop-color:#ffffff;stop-opacity:1" />
      <stop
         id="stop1233"
         offset="1"
         style="stop-color:#9fd4fb;stop-opacity:1" />
    </linearGradient>
    <linearGradient
       id="linearGradient1227"
       inkscape:collect="always">
      <stop
         id="stop1223"
         offset="0"
         style="stop-color:#6cbffa;stop-opacity:1" />
      <stop
         id="stop1225"
         offset="1"
         style="stop-color:#329bf5;stop-opacity:1" />
    </linearGradient>
    <linearGradient
       gradientUnits="userSpaceOnUse"
       y2="13.123"
       y1="6.7137"
       x2="13.959"
       x1="6.5814"
       id="linearGradient1124"
       gradientTransform="matrix(3.779602,0,0,3.779602,-92.48652,0.53084538)">
      <stop
         id="stop1120"
         offset="0"
         stop-color="#fff" />
      <stop
         style="stop-color:#9fd4fb;stop-opacity:1"
         id="stop1122"
         offset="1"
         stop-color="#e6e6ff" />
    </linearGradient>
    <linearGradient
       gradientUnits="userSpaceOnUse"
       y2="14.519"
       y1="8.4996"
       x2="2.8442"
       x1="5.7215"
       id="linearGradient1118"
       gradientTransform="matrix(3.779602,0,0,3.779602,-92.48652,0.53084538)">
      <stop
         style="stop-color:#6cbffa;stop-opacity:1"
         id="stop1114"
         offset="0"
         stop-color="#c3d2ff" />
      <stop
         style="stop-color:#329bf6;stop-opacity:1"
         id="stop1116"
         offset="1"
         stop-color="#82c8ff" />
    </linearGradient>
    <linearGradient
       gradientUnits="userSpaceOnUse"
       gradientTransform="matrix(0.72559,0.0036045,-0.0038878,0.67325,-282.90091,-279.18)"
       y2="463.62"
       y1="507.29"
       x2="543.25"
       x1="542.64"
       id="a-2">
      <stop
         id="stop7-9"
         offset="0"
         stop-color="#132e51" />
      <stop
         id="stop9-1"
         offset="1"
         stop-color="#2767b9" />
    </linearGradient>
    <linearGradient
       gradientUnits="userSpaceOnUse"
       gradientTransform="matrix(0.57339,0,0,0.57339,-204.77376,-222.84996)"
       y2="431.85"
       y1="446.71"
       x2="518.54"
       x1="516.86"
       id="d-2">
      <stop
         id="stop12-7"
         offset="0"
         stop-color="#eefefe" />
      <stop
         id="stop14-0"
         offset="1"
         stop-color="#d6fefe" />
    </linearGradient>
    <linearGradient
       xlink:href="#linearGradient863"
       gradientUnits="userSpaceOnUse"
       gradientTransform="matrix(3.7796,0,0,3.7796,78.039091,0)"
       y2="1.0583"
       y1="6.879"
       x2="7.9373"
       x1="7.9373"
       id="linearGradient865-9" />
    <linearGradient
       gradientUnits="userSpaceOnUse"
       gradientTransform="matrix(3.7796,0,0,3.7796,78.039091,0)"
       y2="1.852"
       y1="15.081"
       x2="7.9373"
       x1="7.9373"
       id="linearGradient855-0">
      <stop
         id="stop23-6"
         offset="0"
         stop-color="#82cdfb" />
      <stop
         id="stop25-2"
         offset="1"
         stop-color="#319af6" />
    </linearGradient>
    <linearGradient
       gradientTransform="translate(78.039091)"
       xlink:href="#linearGradient863"
       gradientUnits="userSpaceOnUse"
       y2="6.9915"
       y1="19"
       x2="57.008"
       x1="45"
       id="linearGradient910-61" />
    <linearGradient
       gradientUnits="userSpaceOnUse"
       gradientTransform="matrix(1.0000066,0,0,1.0000066,19.187825,0)"
       y2="1.0583"
       y1="6.879"
       x2="7.9373"
       x1="7.9373"
       id="linearGradient865-3">
      <stop
         id="stop2-6"
         offset="0"
         stop-color="#fff" />
      <stop
         id="stop4-7"
         offset="1"
         stop-color="#fcc" />
    </linearGradient>
    <linearGradient
       gradientTransform="translate(19.187825)"
       gradientUnits="userSpaceOnUse"
       y2="3.9327"
       y1="14.579"
       x2="12.314"
       x1="2.6278"
       id="linearGradient855-5">
      <stop
         id="stop7-3"
         offset="0"
         stop-color="#d462aa" />
      <stop
         id="stop9-5"
         offset=".15178"
         stop-color="#56c7d9" />
      <stop
         id="stop11"
         offset=".33294"
         stop-color="#2da8b8" />
      <stop
         id="stop13"
         offset=".53353"
         stop-color="#72cb6b" />
      <stop
         id="stop15"
         offset=".71019"
         stop-color="#c4dc2b" />
      <stop
         id="stop17"
         offset=".8623"
         stop-color="#f9da3e" />
      <stop
         id="stop19"
         offset="1"
         stop-color="#f69429" />
    </linearGradient>
    <linearGradient
       gradientUnits="userSpaceOnUse"
       gradientTransform="matrix(0.26458,0,0,0.26458,19.187825,0)"
       y2="6.9915"
       y1="19"
       x2="57.008"
       x1="45"
       id="linearGradient910-6">
      <stop
         id="stop22"
         offset="0"
         stop-color="#fff" />
      <stop
         id="stop24"
         offset="1"
         stop-color="#ffe3cc" />
    </linearGradient>
    <style
       type="text/css"
       id="style872" />
    <filter
       id="filter2761"
       x="-.024"
       y="-.024"
       width="1.048"
       height="1.048"
       color-interpolation-filters="sRGB">
      <feGaussianBlur
         stdDeviation="0.14552168"
         id="feGaussianBlur874" />
    </filter>
    <linearGradient
       id="linearGradient4673"
       x1="1.2573"
       x2="15.644"
       y1="15.429"
       y2="1.1082"
       gradientTransform="matrix(3.7796,0,0,3.7796,-0.0026448,0.53066)"
       gradientUnits="userSpaceOnUse">
      <stop
         stop-color="#32dcff"
         offset="0"
         id="stop877" />
      <stop
         stop-color="#3296ff"
         offset="1"
         id="stop879" />
    </linearGradient>
    <style
       id="style4"
       type="text/css" />
    <style
       id="style6"
       type="text/css" />
    <style
       id="style8"
       type="text/css" />
    <filter
       color-interpolation-filters="sRGB"
       height="1.048"
       width="1.048"
       y="-.024"
       x="-.024"
       id="filter2761-36">
      <feGaussianBlur
         id="feGaussianBlur10"
         stdDeviation="0.14552168" />
    </filter>
    <linearGradient
       gradientUnits="userSpaceOnUse"
       gradientTransform="matrix(3.7796,0,0,3.7796,111.78704,0.53107)"
       y2="1.17"
       y1="15.576"
       x2="15.65"
       x1="1.3315"
       id="linearGradient1024-6">
      <stop
         id="stop13-7"
         offset="0"
         stop-color="#00dc96" />
      <stop
         id="stop15-5"
         offset="1"
         stop-color="#14d29b" />
    </linearGradient>
    <linearGradient
       gradientUnits="userSpaceOnUse"
       gradientTransform="matrix(0.27476,0,0,0.27476,-24.952118,-0.32515)"
       y2="12.461"
       y1="57.955"
       x2="45.628"
       x1="45.628"
       id="b-2">
      <stop
         id="stop2-3"
         offset="0" />
      <stop
         id="stop4-5"
         offset="1"
         stop-opacity="0" />
    </linearGradient>
    <style
       type="text/css"
       id="style872-0" />
    <style
       type="text/css"
       id="style874" />
    <style
       type="text/css"
       id="style876" />
    <filter
       id="filter2761-3"
       x="-.024"
       y="-.024"
       width="1.048"
       height="1.048"
       color-interpolation-filters="sRGB">
      <feGaussianBlur
         stdDeviation="0.14552168"
         id="feGaussianBlur878" />
    </filter>
    <linearGradient
       id="linearGradient1024-6-6"
       x1="1.3315"
       x2="15.65"
       y1="15.576"
       y2="1.17"
       gradientTransform="matrix(3.7796,0,0,3.7796,-0.0020773,0.53047)"
       gradientUnits="userSpaceOnUse">
      <stop
         stop-color="#00dc96"
         offset="0"
         id="stop881" />
      <stop
         stop-color="#14d29b"
         offset="1"
         id="stop883" />
    </linearGradient>
    <filter
       id="filter2761-9"
       x="-.024"
       y="-.024"
       width="1.048"
       height="1.048"
       color-interpolation-filters="sRGB">
      <feGaussianBlur
         stdDeviation="0.14552168"
         id="feGaussianBlur998" />
    </filter>
    <linearGradient
       gradientTransform="matrix(3.779602,0,0,3.779602,-92.48652,0.53084538)"
       id="linearGradient1024"
       x1="1.3315"
       x2="13.449"
       y1="15.576"
       y2="3.4588"
       gradientUnits="userSpaceOnUse">
      <stop
         stop-color="#3caaff"
         offset="0"
         id="stop1001" />
      <stop
         stop-color="#b496ff"
         offset="1"
         id="stop1003" />
    </linearGradient>
    <linearGradient
       gradientTransform="matrix(3.779602,0,0,3.779602,-92.48652,0.53084538)"
       id="linearGradient1354"
       x1="6.5814"
       x2="13.959"
       y1="6.7137"
       y2="13.123"
       gradientUnits="userSpaceOnUse">
      <stop
         stop-color="#fff"
         offset="0"
         id="stop1006" />
      <stop
         stop-color="#e6e6ff"
         offset="1"
         id="stop1008" />
    </linearGradient>
    <linearGradient
       gradientTransform="matrix(3.779602,0,0,3.779602,-92.48652,0.53084538)"
       id="linearGradient1356"
       x1="5.7215"
       x2="2.8442"
       y1="8.4996"
       y2="14.519"
       gradientUnits="userSpaceOnUse">
      <stop
         stop-color="#c3d2ff"
         offset="0"
         id="stop1011" />
      <stop
         stop-color="#82c8ff"
         offset="1"
         id="stop1013" />
    </linearGradient>
    <linearGradient
       y2="517.8"
       x2="399.57"
       y1="545.8"
       x1="399.57"
       gradientTransform="matrix(2.1429,0,0,2.1429,-1025.0206,-1107.5)"
       gradientUnits="userSpaceOnUse"
       id="linearGradient1076"
       xlink:href="#b"
       inkscape:collect="always" />
    <style
       type="text/css"
       id="style1080" />
    <filter
       id="filter11290"
       x="-.024"
       y="-.024"
       width="1.048"
       height="1.048"
       color-interpolation-filters="sRGB">
      <feGaussianBlur
         stdDeviation="0.15875313"
         id="feGaussianBlur1082" />
    </filter>
    <linearGradient
       id="linearGradient1005"
       x1=".8714"
       x2="16.246"
       y1="16.164"
       y2=".78937"
       gradientTransform="matrix(3.7796,0,0,3.7796,-0.13319795,0.02439453)"
       gradientUnits="userSpaceOnUse">
      <stop
         stop-color="#00c8ff"
         offset="0"
         id="stop1085" />
      <stop
         stop-color="#14a0ff"
         offset="1"
         id="stop1087" />
    </linearGradient>
    <linearGradient
       gradientTransform="matrix(1.0819735,0,0,1.0819735,82.848551,-2.1287372)"
       y2="50.718597"
       x2="-26.365437"
       y1="26.627005"
       x1="-53.180744"
       gradientUnits="userSpaceOnUse"
       id="linearGradient1207"
       xlink:href="#linearGradient1235"
       inkscape:collect="always" />
    <linearGradient
       gradientTransform="matrix(1.0819735,0,0,1.0819735,82.848551,-2.1287372)"
       y2="54.144566"
       x2="-68.231903"
       y1="31.860245"
       x1="-55.722927"
       gradientUnits="userSpaceOnUse"
       id="linearGradient1209"
       xlink:href="#linearGradient1227"
       inkscape:collect="always" />
  </defs>
  <circle
     id="circle31"
     stroke-width="1.5715"
     fill="url(#b)"
     r="0"
     cy="32.044"
     cx="-67.505" />
  <circle
     cx="-166.63559"
     cy="32.043999"
     r="0"
     fill="url(#b)"
     stroke-width="1.5715"
     id="circle31-8"
     style="fill:url(#linearGradient1076)" />
  <circle
     id="circle1092"
     fill="#5e4aa6"
     r="0"
     cy="-1279.3"
     cx="-1124.8" />
  <g
     id="g1102"
     stroke-width="0.26458"
     fill="#5e4aa6"
     transform="matrix(3.7796,0,0,3.7796,123.83001,-38.183983)">
    <circle
       id="circle1094"
       r="0"
       cy="-338.76999"
       cx="-299.01999" />
    <circle
       id="circle1096"
       fill-rule="evenodd"
       r="0"
       cy="-3.9487"
       cx="-8.1062002" />
    <circle
       id="circle1098"
       r="0"
       cy="-357.69"
       cx="-278.25" />
    <circle
       id="circle1100"
       fill-rule="evenodd"
       r="0"
       cy="-22.858999"
       cx="12.663" />
  </g>
  <circle
     id="circle1104"
     stroke-width="0.14032"
     opacity="0.25"
     filter="url(#filter11290)"
     r="7.9376998"
     cy="8.46"
     cx="8.4937"
     transform="matrix(3.7796,0,0,3.7796,-0.10278795,0.02458453)" />
  <path
     id="path1106"
     stroke-width="0.11719"
     fill="url(#linearGradient1005)"
     d="m 62.000012,32.000017 c 0,3.5964 -0.63305,7.0448 -1.794,10.24 -0.80698,2.2212 -1.8686,4.3212 -3.1519,6.2636 -0.53754,0.8167 -1.1155,1.6054 -1.729,2.3633 -1.9641,2.4257 -4.2982,4.5382 -6.9186,6.2526 -0.96493,0.63187 -1.9678,1.2098 -3.0061,1.7277 -4.0321,2.0179 -8.5839,3.153 -13.401,3.153 -4.8171,0 -9.3689,-1.1351 -13.401,-3.1531 -1.0384,-0.518 -2.0425,-1.096 -3.0074,-1.7277 -2.6535,-1.7376 -5.0155,-3.8832 -6.9957,-6.349 -0.61468,-0.76408 -1.1915,-1.56 -1.729,-2.3841 -1.249,-1.9102 -2.2837,-3.9712 -3.0747,-6.1494 -1.1608,-3.1949 -1.7927,-6.6419 -1.7927,-10.237 0,-16.569 13.432,-30.0010005 30.001,-30.0010005 8.317,0 15.843,3.3846 21.277,8.8507005 1.5661,1.5747 2.9584,3.3234 4.1436,5.214 1.1205,1.7805 2.0572,3.6882 2.7857,5.6951 1.161,3.196 1.7941,6.6442 1.7941,10.24 z"
     style="fill:url(#linearGradient1005)" />
  <g
     id="g1116"
     stroke-width="0.26458"
     fill="#5e4aa6"
     transform="matrix(3.7796,0,0,3.7796,-0.10278795,0.02458453)">
    <circle
       id="circle1108"
       r="0"
       cy="-328.38"
       cx="-330.35001" />
    <circle
       id="circle1110"
       r="0"
       cy="-326.25"
       cx="-312.10999" />
    <circle
       id="circle1112"
       r="0"
       cy="-333.07001"
       cx="-306.01999" />
    <circle
       id="circle1114"
       r="0"
       cy="-326.01001"
       cx="-308.84" />
  </g>
  <circle
     cx="46.669636"
     cy="15.806862"
     r="4.0880175"
     fill="#ffffff"
     id="circle1193"
     style="stroke-width:3.7796" />
  <path
     d="M 29.025391 26.001953 C 27.594172 27.011183 26.548018 28.027891 25.830078 29.042969 C 25.828678 29.045069 25.823566 29.048681 25.822266 29.050781 C 25.821832 29.051391 25.822687 29.054088 25.822266 29.054688 C 25.130989 30.034433 24.777889 31.01061 24.652344 31.982422 C 24.630264 32.228013 24.568715 32.575809 24.578125 32.835938 C 24.585025 33.421462 24.69887 34.00448 24.875 34.582031 C 25.052728 35.15586 25.346088 35.806757 25.701172 36.435547 C 25.92057 36.808066 26.193654 37.219198 26.46875 37.585938 C 26.827883 38.087792 27.306165 38.558903 27.792969 39.091797 C 28.353631 39.670862 28.964752 40.200588 29.626953 40.757812 C 29.924828 41.008496 30.267472 41.289462 30.582031 41.535156 C 31.207632 42.0027 31.373222 42.145593 32.511719 42.935547 C 33.677573 43.744477 35.050123 44.662704 36.453125 45.513672 C 37.880703 46.340556 39.538748 47.19603 40.921875 47.908203 C 43.577223 49.307647 46.028495 50.831973 48.226562 52.367188 C 49.30775 53.125047 50.385687 53.953365 51.451172 54.8125 C 52.855951 53.6136 54.161433 52.303249 55.324219 50.867188 C 55.937719 50.109287 56.517148 49.320606 57.054688 48.503906 C 58.337987 46.561506 59.398098 44.461434 60.205078 42.240234 C 60.398964 41.706615 60.574332 41.162487 60.738281 40.615234 C 58.368092 39.499184 55.853917 38.330149 53.507812 37.007812 C 51.563083 35.911682 46.781791 32.973001 41.816406 30.402344 C 39.333714 29.117078 36.805143 27.922821 34.5625 27.097656 C 32.628781 26.479994 30.976253 26.175427 29.025391 26.001953 z "
     style="opacity:1;fill:url(#linearGradient1207);fill-opacity:1;stroke-width:2.16395;stroke-linecap:round"
     id="path1195" />
  <path
     d="M 28.150391 25.96875 C 25.842922 25.98091 21.877792 26.670838 19.658203 27.880859 C 18.308447 28.482495 16.795763 29.249525 15.103516 30.224609 C 13.411187 31.199693 11.541736 32.381477 9.4824219 33.814453 C 7.4431046 35.23356 5.2138938 36.902818 2.7910156 38.853516 C 3.0609039 40.007478 3.391871 41.137752 3.7910156 42.236328 C 4.5820156 44.414528 5.6181875 46.476519 6.8671875 48.386719 C 7.4046875 49.210819 7.9810231 50.005451 8.5957031 50.769531 C 10.575903 53.235331 12.938297 55.381541 15.591797 57.119141 C 16.556697 57.750841 17.559256 58.329656 18.597656 58.847656 C 22.629756 60.865656 27.1829 62 32 62 C 36.8171 62 41.368291 60.865556 45.400391 58.847656 C 46.438691 58.329756 47.44132 57.751011 48.40625 57.119141 C 49.478404 56.417683 50.488422 55.633621 51.458984 54.804688 C 50.317985 53.871361 49.05713 52.887061 47.572266 51.859375 C 45.60803 50.499885 43.351394 49.106793 40.826172 47.806641 C 38.30095 46.50653 35.583571 44.999479 33.107422 43.34375 C 31.869348 42.515927 30.692321 41.652663 29.628906 40.757812 C 28.565491 39.862964 27.616406 38.935597 26.835938 37.988281 C 26.055512 37.041006 25.443879 36.073034 25.054688 35.087891 C 24.665481 34.102748 24.499083 33.102203 24.609375 32.09375 C 24.719667 31.085297 25.106116 30.069898 25.824219 29.052734 C 26.542282 28.03557 27.593221 27.015181 29.027344 26.003906 C 28.775205 25.977466 28.480031 25.96701 28.150391 25.96875 z "
     style="opacity:1;fill:url(#linearGradient1209);fill-opacity:1;stroke-width:2.16395;stroke-linecap:round"
     id="path1197" />
</svg>
