<?xml version="1.0" encoding="UTF-8" standalone="no"?>
<svg
   xmlns:dc="http://purl.org/dc/elements/1.1/"
   xmlns:cc="http://creativecommons.org/ns#"
   xmlns:rdf="http://www.w3.org/1999/02/22-rdf-syntax-ns#"
   xmlns:svg="http://www.w3.org/2000/svg"
   xmlns="http://www.w3.org/2000/svg"
   xmlns:xlink="http://www.w3.org/1999/xlink"
   xmlns:sodipodi="http://sodipodi.sourceforge.net/DTD/sodipodi-0.dtd"
   xmlns:inkscape="http://www.inkscape.org/namespaces/inkscape"
   inkscape:version="1.0 (4035a4fb49, 2020-05-01)"
   sodipodi:docname="qbittorrent.svg"
   id="svg37"
   version="1.1"
   height="64"
   width="64">
  <metadata
     id="metadata41">
    <rdf:RDF>
      <cc:Work
         rdf:about="">
        <dc:format>image/svg+xml</dc:format>
        <dc:type
           rdf:resource="http://purl.org/dc/dcmitype/StillImage" />
        <dc:title></dc:title>
      </cc:Work>
    </rdf:RDF>
  </metadata>
  <sodipodi:namedview
     inkscape:current-layer="svg37"
     inkscape:window-maximized="1"
     inkscape:window-y="0"
     inkscape:window-x="0"
     inkscape:cy="48.714637"
     inkscape:cx="-46.594232"
     inkscape:zoom="3.2460938"
     showgrid="false"
     id="namedview39"
     inkscape:window-height="1000"
     inkscape:window-width="1920"
     inkscape:pageshadow="2"
     inkscape:pageopacity="0"
     guidetolerance="10"
     gridtolerance="10"
     objecttolerance="10"
     borderopacity="1"
     bordercolor="#666666"
     pagecolor="#ffffff" />
  <defs
     id="defs25">
    <linearGradient
       gradientUnits="userSpaceOnUse"
       gradientTransform="matrix(1.5429 0 0 1.8 -11.971 -3024.2)"
       y2="1682"
       y1="1713.3"
       x2="27.535"
       x1="27.535"
       id="b">
      <stop
         id="stop2"
         offset="0"
         stop-color="#197cf1" />
      <stop
         id="stop4"
         offset="1"
         stop-color="#20bcfa" />
    </linearGradient>
    <linearGradient
       gradientUnits="userSpaceOnUse"
       y2="30.26"
       y1="13.01"
       x2="42.99"
       x1="25.04"
       id="c">
      <stop
         id="stop7"
         offset="0"
         stop-color="#292c2f" />
      <stop
         id="stop9"
         offset="1"
         stop-opacity="0"
         stop-color="#292c2f" />
    </linearGradient>
    <linearGradient
       xlink:href="#c"
       gradientUnits="userSpaceOnUse"
       y2="40.44"
       y1="18.26"
       x2="36.06"
       x1="14.59"
       id="d" />
    <linearGradient
       xlink:href="#c"
       gradientUnits="userSpaceOnUse"
       y2="30.26"
       y1="13.01"
       x2="42.99"
       x1="25.04"
       id="e" />
    <filter
       color-interpolation-filters="sRGB"
       height="1.0814"
       width="1.1214"
       y="-.040695"
       x="-.060696"
       id="g">
      <feGaussianBlur
         id="feGaussianBlur14"
         stdDeviation="0.47117776" />
    </filter>
    <filter
       color-interpolation-filters="sRGB"
       height="1.0849"
       width="1.0773"
       y="-.042456"
       x="-.038666"
       id="f">
      <feGaussianBlur
         id="feGaussianBlur17"
         stdDeviation="0.47117776" />
    </filter>
    <linearGradient
       gradientUnits="userSpaceOnUse"
       gradientTransform="matrix(3.7796,0,0,3.7796,11.781043,-36.048313)"
       y2="1.852"
       y1="15.081"
       x2="7.9373"
       x1="7.9373"
       id="linearGradient862-3">
      <stop
         id="stop20"
         offset="0"
         stop-color="#f1efeb" />
      <stop
         id="stop22"
         offset="1"
         stop-color="#fdfcfc" />
    </linearGradient>
    <filter
       id="filter11290"
       x="-.024"
       y="-.024"
       width="1.048"
       height="1.048"
       color-interpolation-filters="sRGB">
      <feGaussianBlur
         stdDeviation="0.15875313"
         id="feGaussianBlur866" />
    </filter>
    <linearGradient
       id="a-9"
       x1="23.487"
       x2="23.487"
       y1="15.18"
       y2="32.913"
       gradientTransform="matrix(.12676 0 0 .12676 -27.515 6.7925)"
       gradientUnits="userSpaceOnUse">
      <stop
         stop-color="#141414"
         offset="0"
         id="stop869" />
      <stop
         stop-color="#30277f"
         offset="1"
         id="stop871" />
    </linearGradient>
    <radialGradient
       id="c-7"
       cx="24.047"
       cy="23.949"
       r="2.9867"
       gradientTransform="matrix(0.2056,-3.7539e-8,2.8431e-8,0.15571,-39.607,5.456)"
       gradientUnits="userSpaceOnUse">
      <stop
         stop-color="#2839e6"
         offset="0"
         id="stop874" />
      <stop
         stop-opacity="0"
         offset="1"
         id="stop876" />
    </radialGradient>
    <linearGradient
       id="d-6"
       x1="361.36"
       x2="361.36"
       y1="616.07"
       y2="722.79"
       gradientTransform="matrix(.0040372 0 0 .0040372 -25.925 7.1257)"
       gradientUnits="userSpaceOnUse">
      <stop
         stop-color="#fff"
         offset="0"
         id="stop879" />
      <stop
         stop-color="#fff"
         stop-opacity="0"
         offset="1"
         id="stop881" />
    </linearGradient>
    <radialGradient
       id="radialGradient123131"
       cx="-24.473"
       cy="9.8348"
       r="1.1409"
       gradientTransform="matrix(1.4202,0,0,1.0512,0.054505,-1.1471)"
       gradientUnits="userSpaceOnUse"
       xlink:href="#a-9" />
    <linearGradient
       id="linearGradient123141"
       x1="-24.485"
       x2="-24.485"
       y1="8.6962"
       y2="9.7506"
       gradientTransform="translate(-10.196,-0.6431)"
       gradientUnits="userSpaceOnUse"
       xlink:href="#d-6" />
    <linearGradient
       id="linearGradient123149"
       x1="-24.478"
       x2="-24.478"
       y1="11.104"
       y2="8.4912"
       gradientTransform="translate(-10.229,-0.6431)"
       gradientUnits="userSpaceOnUse">
      <stop
         stop-color="#2d1edc"
         offset="0"
         id="stop886" />
      <stop
         stop-color="#141414"
         offset="1"
         id="stop888" />
    </linearGradient>
    <radialGradient
       id="radialGradient123155"
       cx="-24.473"
       cy="9.8348"
       r="1.1409"
       gradientTransform="matrix(1.1403,0,0,0.84405,-6.7958,0.89063)"
       gradientUnits="userSpaceOnUse"
       xlink:href="#a-9" />
    <linearGradient
       id="linearGradient123157"
       x1="-24.478"
       x2="-24.478"
       y1="11.104"
       y2="8.4912"
       gradientTransform="matrix(0.8029,0,0,0.8029,-15.053,1.2953)"
       gradientUnits="userSpaceOnUse"
       xlink:href="#a-9" />
    <radialGradient
       id="radialGradient123159"
       cx="-24.473"
       cy="9.8348"
       r="1.5211"
       gradientTransform="matrix(0.93082,0,0,0.93082,-11.889,0.037279)"
       gradientUnits="userSpaceOnUse">
      <stop
         stop-color="#291dc0"
         offset="0"
         id="stop893" />
      <stop
         stop-color="#1b1b23"
         offset="1"
         id="stop895" />
    </radialGradient>
    <linearGradient
       id="linearGradient123161"
       x1="361.36"
       x2="361.36"
       y1="616.07"
       y2="722.79"
       gradientTransform="matrix(0.0040372,0,0,0.0040372,-36.122,6.4826)"
       gradientUnits="userSpaceOnUse"
       xlink:href="#d-6" />
    <linearGradient
       id="linearGradient123197"
       x1="-36.117"
       x2="-33.22"
       y1="10.638"
       y2="7.7404"
       gradientUnits="userSpaceOnUse">
      <stop
         offset="0"
         id="stop899" />
      <stop
         stop-opacity="0"
         offset="1"
         id="stop901" />
    </linearGradient>
    <linearGradient
       id="linearGradient952"
       x1="-20.384"
       x2="-23.272"
       y1="6.1331"
       y2="15.312"
       gradientUnits="userSpaceOnUse">
      <stop
         stop-color="#232323"
         offset="0"
         id="stop904" />
      <stop
         stop-color="#323296"
         offset=".95004"
         id="stop906" />
      <stop
         stop-color="#232323"
         offset="1"
         id="stop908" />
    </linearGradient>
    <linearGradient
       id="linearGradient1000"
       x1="-25.122"
       x2="-15.582"
       y1="9.3424"
       y2="9.3424"
       gradientUnits="userSpaceOnUse">
      <stop
         stop-color="#407fff"
         offset="0"
         id="stop911" />
      <stop
         stop-color="#ff407a"
         offset="1"
         id="stop913" />
    </linearGradient>
    <linearGradient
       id="linearGradient1005"
       x1=".73911"
       x2="16.388"
       y1="16.296"
       y2=".64687"
       gradientTransform="matrix(3.779602,0,0,3.779602,-0.1319476,0.0245663)"
       gradientUnits="userSpaceOnUse">
      <stop
         stop-color="#dddfe1"
         offset="0"
         id="stop916" />
      <stop
         stop-color="#f3f4f6"
         offset="1"
         id="stop918" />
    </linearGradient>
  </defs>
  <circle
     transform="matrix(3.779602,0,0,3.779602,-0.10280494,0.02456761)"
     id="circle925"
     stroke-width="0.14032"
     opacity="0.25"
     filter="url(#filter11290)"
     r="7.9376998"
     cy="8.46"
     cx="8.4937" />
  <path
     id="path927"
     stroke-width="0.11719"
     fill="url(#linearGradient1005)"
     d="m 62.000383,31.999811 c 0,3.596442 -0.633046,7.0448 -1.793951,10.240454 -0.806983,2.221196 -1.868597,4.321219 -3.151923,6.263556 -0.537535,0.816697 -1.115512,1.605386 -1.729017,2.363348 -1.964108,2.425711 -4.298163,4.538168 -6.918562,6.252595 -0.964932,0.631874 -1.967849,1.209851 -3.006144,1.727732 -4.032079,2.017892 -8.583854,3.152982 -13.400957,3.152982 -4.817102,0 -9.368877,-1.13509 -13.400956,-3.153095 -1.038408,-0.517995 -2.042497,-1.095972 -3.00743,-1.727732 -2.653545,-1.737596 -5.015532,-3.883163 -6.9956646,-6.348976 -0.614677,-0.764084 -1.191482,-1.56003 -1.729017,-2.384097 -1.249007,-1.910211 -2.283673,-3.971228 -3.074706,-6.149413 -1.160754,-3.194859 -1.792665,-6.641894 -1.792665,-10.237052 0,-16.569019 13.4315706,-30.0005907 30.0005906,-30.0005907 8.317014,0 15.842957,3.384558 21.277269,8.8506937 1.566116,1.574658 2.958446,3.323367 4.143578,5.213961 1.120463,1.780458 2.057161,3.688212 2.785718,5.695105 1.161018,3.195993 1.794064,6.644162 1.794064,10.240453 z"
     style="fill:url(#linearGradient1005)" />
  <path
     id="path31"
     stroke-width="1.9999"
     fill-rule="evenodd"
     fill="url(#b)"
     color="#000000"
     d="m32 7a25 25 0 0 0-25 25 25 25 0 0 0 25 25 25 25 0 0 0 25-25 25 25 0 0 0-25-25zm1.5 8.5h3v9.1191a10.5 9 0 0 1 6-1.6191 10.5 9 0 0 1 10.5 9 10.5 9 0 0 1-10.5 9 10.5 9 0 0 1-6-1.6289v3.1289h-3v-27zm-6 6h3v27h-3v-9.1191a10.5 9 0 0 1-6 1.6191 10.5 9 0 0 1-10.5-9 10.5 9 0 0 1 10.5-9 10.5 9 0 0 1 6 1.6289v-3.1289zm-6 4.5a7.5 6 0 0 0-7.5 6 7.5 6 0 0 0 7.5 6 7.5 6 0 0 0 6-2.4141v-7.1738a7.5 6 0 0 0-6-2.4121zm21 0a7.5 6 0 0 0-6 2.4141v7.1758a7.5 6 0 0 0 6 2.4102 7.5 6 0 0 0 7.5-6 7.5 6 0 0 0-7.5-6z" />
  <g
     transform="matrix(3.779602,0,0,3.779602,-71.211577,-58.339254)"
     id="g937"
     stroke-width="0.26458"
     fill="#5e4aa6">
    <circle
       id="circle929"
       r="0"
       cy="-328.38"
       cx="-330.35001" />
    <circle
       id="circle931"
       r="0"
       cy="-326.25"
       cx="-312.10999" />
    <circle
       id="circle933"
       r="0"
       cy="-333.07001"
       cx="-306.01999" />
    <circle
       id="circle935"
       r="0"
       cy="-326.01001"
       cx="-308.84" />
  </g>
</svg>
