<?xml version="1.0" encoding="UTF-8"?>
<svg width="64" height="64" version="1.1" viewBox="0 0 16.933 16.933" xmlns="http://www.w3.org/2000/svg" xmlns:cc="http://creativecommons.org/ns#" xmlns:dc="http://purl.org/dc/elements/1.1/" xmlns:rdf="http://www.w3.org/1999/02/22-rdf-syntax-ns#">
 <defs>
  <filter id="filter11290" x="-.024" y="-.024" width="1.048" height="1.048" color-interpolation-filters="sRGB">
   <feGaussianBlur stdDeviation="0.15875313"/>
  </filter>
  <linearGradient id="linearGradient1005" x1=".73911" x2="16.388" y1="16.296" y2=".64687" gradientTransform="matrix(1 0 0 1 1.4673 1.4619)" gradientUnits="userSpaceOnUse">
   <stop stop-color="#00dc96" offset="0"/>
   <stop stop-color="#14d29b" offset="1"/>
  </linearGradient>
  <linearGradient id="c" x1="32" x2="32" y1="16.002" y2="47.998" gradientTransform="matrix(.26458 0 0 .26458 1.5025 1.4552)" gradientUnits="userSpaceOnUse">
   <stop stop-color="#fff" offset="0"/>
   <stop stop-color="#daffd8" offset="1"/>
  </linearGradient>
 </defs>
 <metadata>
  <rdf:RDF>
   <cc:Work rdf:about="">
    <dc:format>image/svg+xml</dc:format>
    <dc:type rdf:resource="http://purl.org/dc/dcmitype/StillImage"/>
    <dc:title/>
   </cc:Work>
  </rdf:RDF>
 </metadata>
 <g transform="translate(-1.5025 -1.4552)">
  <circle transform="matrix(1 0 0 1 1.5025 1.4552)" cx="8.4665" cy="8.4665" r="7.9377" filter="url(#filter11290)" opacity=".25" stroke-width=".14032"/>
  <path d="m17.907 9.922c0 0.95155-0.16749 1.8639-0.47466 2.7093-0.21351 0.58769-0.4944 1.1433-0.83394 1.6572-0.14222 0.21608-0.29514 0.42476-0.45746 0.62529-0.51967 0.6418-1.1372 1.2007-1.8305 1.6543-0.2553 0.16718-0.52065 0.32012-0.79536 0.45712-1.0668 0.5339-2.2712 0.83423-3.5457 0.83423-1.2745 0-2.4789-0.30033-3.5457-0.83426-0.27474-0.13705-0.54041-0.28998-0.79571-0.45712-0.70207-0.45974-1.327-1.0274-1.8509-1.6798-0.16263-0.20216-0.31525-0.41275-0.45746-0.63079-0.33046-0.50541-0.60423-1.0507-0.81351-1.627-0.30713-0.84532-0.47432-1.7573-0.47432-2.7085 0-4.3839 3.5539-7.9378 7.9378-7.9378 2.2005 0 4.1918 0.89551 5.6295 2.3417 0.41436 0.41664 0.78274 0.87932 1.0963 1.3795 0.29647 0.47109 0.5443 0.97584 0.73705 1.5068 0.30718 0.84561 0.47469 1.7579 0.47469 2.7093z" fill="url(#linearGradient1005)" stroke-width=".031006"/>
  <path d="m8.2753 5.6891c-0.85431 0-1.4909 0.30578-1.911 0.91779-0.41905 0.60635-0.62839 1.4837-0.62839 2.6329 0 1.1739 0.20969 2.0652 0.62839 2.6826 0.29207 0.42997 0.68448 0.70892 1.1751 0.83767 0 0 0.09902-0.0039 0.10749 0.0956 0.16931 1.2981 1.0281 1.2992 2.0066 1.2992 0 0 0.12661 1.8e-4 0.12661-0.11834v-0.7152c0-0.11993-0.12661-0.11989-0.12661-0.11989-0.48924 0-0.61624 0.03061-0.7457-0.43254 0.16825-0.03845 0.31853-0.0909 0.46458-0.15968 0.32239-0.15838 0.58822-0.3891 0.79634-0.6935 0.21093-0.30583 0.36507-0.68321 0.46561-1.1322 0.10476-0.44797 0.15555-0.96226 0.15555-1.5436 0-1.1615-0.21208-2.0446-0.63923-2.6453-0.42574-0.60351-1.0528-0.90538-1.8753-0.90538zm-0.00723 0.57878v0.00259c0.1806 0 0.31581 0.059288 0.43151 0.18345 0.067374 0.070194 0.12666 0.16141 0.18345 0.27181 0.030334 0.080071 0.061987 0.16688 0.085267 0.26458 0.067373 0.26314 0.1146 0.58097 0.14211 0.96015 0.027514 0.37883 0.03824 0.80907 0.03824 1.2898 0 0.48361-0.010729 0.91879-0.03824 1.3033-0.027514 0.38306-0.07615 0.70546-0.14211 0.97565-0.024691 0.10053-0.05352 0.19304-0.085267 0.27699-0.00705 0.0095-0.00934 0.02214-0.014986 0.03307-0.052205 0.09629-0.10638 0.17898-0.16847 0.24495-0.11429 0.12945-0.25231 0.19017-0.43151 0.19017-0.17778 0-0.31673-0.06072-0.42995-0.19017-0.11288-0.13227-0.20497-0.32334-0.27234-0.58083-0.067374-0.26173-0.1146-0.58065-0.14211-0.95808-0.026101-0.38026-0.043926-0.81439-0.043926-1.2966 0-0.47794 0.015002-0.90387 0.043926-1.2785 0.027514-0.37354 0.07474-0.68898 0.14211-0.94258 0.067371-0.25362 0.16087-0.44257 0.27234-0.56637 0.11288-0.12275 0.25076-0.18345 0.42995-0.18345zm3.9134 0.48678c-0.37883 1.4303-0.12703 1.4304-0.88471 1.4304v0.83458h0.50591v2.5037h-5.29e-4s-0.12654 0.7148 0.50591 1.0718c0.65045 0.3679 1.8698 0.01799 1.8945 0v-0.83354s-0.27554 0.09395-0.478 0.07597c-0.15979 0-0.28972-0.05803-0.38603-0.1695-0.09771-0.11323-0.14728-0.27953-0.14728-0.50282v-2.1456h1.0113v-0.83458h-1.0113v-1.4304h-1.0098z" fill="url(#c)" stroke-width=".26458"/>
 </g>
</svg>
