<?xml version="1.0" encoding="UTF-8" standalone="no"?>
<svg
   xmlns:dc="http://purl.org/dc/elements/1.1/"
   xmlns:cc="http://creativecommons.org/ns#"
   xmlns:rdf="http://www.w3.org/1999/02/22-rdf-syntax-ns#"
   xmlns:svg="http://www.w3.org/2000/svg"
   xmlns="http://www.w3.org/2000/svg"
   xmlns:sodipodi="http://sodipodi.sourceforge.net/DTD/sodipodi-0.dtd"
   xmlns:inkscape="http://www.inkscape.org/namespaces/inkscape"
   inkscape:version="1.0 (4035a4fb49, 2020-05-01)"
   sodipodi:docname="redshift.svg"
   id="svg468"
   version="1.1"
   height="64"
   width="64">
  <metadata
     id="metadata472">
    <rdf:RDF>
      <cc:Work
         rdf:about="">
        <dc:format>image/svg+xml</dc:format>
        <dc:type
           rdf:resource="http://purl.org/dc/dcmitype/StillImage" />
        <dc:title></dc:title>
      </cc:Work>
    </rdf:RDF>
  </metadata>
  <sodipodi:namedview
     inkscape:current-layer="svg468"
     inkscape:window-maximized="1"
     inkscape:window-y="0"
     inkscape:window-x="0"
     inkscape:cy="38.913499"
     inkscape:cx="-15.882773"
     inkscape:zoom="3.2460938"
     showgrid="false"
     id="namedview470"
     inkscape:window-height="1000"
     inkscape:window-width="1920"
     inkscape:pageshadow="2"
     inkscape:pageopacity="0"
     guidetolerance="10"
     gridtolerance="10"
     objecttolerance="10"
     borderopacity="1"
     bordercolor="#666666"
     pagecolor="#ffffff" />
  <defs
     id="defs357">
    <radialGradient
       gradientUnits="userSpaceOnUse"
       gradientTransform="matrix(.9979 -.065517 .032525 .4954 -30.301 518.39)"
       r="81.495"
       cy="963.87"
       cx="488.23"
       id="SVGID_1_">
      <stop
         id="stop2"
         offset=".3169"
         stop-color="#727375" />
      <stop
         id="stop4"
         offset=".5207"
         stop-color="#727375" />
      <stop
         id="stop6"
         offset=".724"
         stop-color="#747576" />
      <stop
         id="stop8"
         offset=".7973"
         stop-color="#7B7C7B" />
      <stop
         id="stop10"
         offset=".8495"
         stop-color="#868784" />
      <stop
         id="stop12"
         offset=".8917"
         stop-color="#979890" />
      <stop
         id="stop14"
         offset=".9274"
         stop-color="#ADAEA0" />
      <stop
         id="stop16"
         offset=".934"
         stop-color="#B2B3A4" />
      <stop
         id="stop18"
         offset=".9736"
         stop-color="#B0B1A3" />
      <stop
         id="stop20"
         offset="1"
         stop-color="#9DA5B0" />
    </radialGradient>
    <radialGradient
       gradientUnits="userSpaceOnUse"
       gradientTransform="matrix(-.9826 .186 -.1329 -.702 1176.5 1505.5)"
       r="82.471"
       cy="942.51"
       cx="530.28"
       id="SVGID_2_">
      <stop
         id="stop23"
         offset=".5207"
         stop-opacity="0"
         stop-color="#727375" />
      <stop
         id="stop25"
         offset=".724"
         stop-opacity=".1968"
         stop-color="#747576" />
      <stop
         id="stop27"
         offset=".7973"
         stop-opacity=".2676"
         stop-color="#7B7C7B" />
      <stop
         id="stop29"
         offset=".8495"
         stop-opacity=".3182"
         stop-color="#868784" />
      <stop
         id="stop31"
         offset=".8917"
         stop-opacity=".359"
         stop-color="#979890" />
      <stop
         id="stop33"
         offset=".9274"
         stop-opacity=".3936"
         stop-color="#ADAEA0" />
      <stop
         id="stop35"
         offset=".934"
         stop-opacity=".4"
         stop-color="#B2B3A4" />
      <stop
         id="stop37"
         offset=".9736"
         stop-opacity=".6"
         stop-color="#B0B1A3" />
      <stop
         id="stop39"
         offset="1"
         stop-color="#B2B3A4" />
    </radialGradient>
    <radialGradient
       gradientUnits="userSpaceOnUse"
       gradientTransform="matrix(-.8848 .466 -.2036 -.3865 1238.3 1088)"
       r="30.148"
       cy="970.28"
       cx="552.17"
       id="SVGID_3_">
      <stop
         id="stop42"
         offset="0"
         stop-color="#8B8986" />
      <stop
         id="stop44"
         offset=".7171"
         stop-opacity="0"
         stop-color="#8B8986" />
    </radialGradient>
    <radialGradient
       gradientUnits="userSpaceOnUse"
       gradientTransform="matrix(.019733 .9998 -2.2362 .044135 2636.6 399.35)"
       r="28.923"
       cy="954.24"
       cx="512.87"
       id="SVGID_4_">
      <stop
         id="stop47"
         offset="0"
         stop-opacity=".4" />
      <stop
         id="stop49"
         offset=".209"
         stop-opacity=".3164"
         stop-color="#131313" />
      <stop
         id="stop51"
         offset=".6314"
         stop-opacity=".1474"
         stop-color="#434445" />
      <stop
         id="stop53"
         offset="1"
         stop-opacity="0"
         stop-color="#727375" />
    </radialGradient>
    <linearGradient
       gradientUnits="userSpaceOnUse"
       y2="493.14"
       y1="47.659"
       x2="511.5"
       x1="511.5"
       id="SVGID_5_">
      <stop
         id="stop56"
         offset="0"
         stop-color="#FFFB6C" />
      <stop
         id="stop58"
         offset=".2225"
         stop-color="#FEF669" />
      <stop
         id="stop60"
         offset=".4924"
         stop-color="#FAE761" />
      <stop
         id="stop62"
         offset=".7858"
         stop-color="#F3CF53" />
      <stop
         id="stop64"
         offset="1"
         stop-color="#EDB847" />
    </linearGradient>
    <radialGradient
       gradientUnits="userSpaceOnUse"
       r="244.56"
       cy="297.18"
       cx="511.5"
       id="SVGID_6_">
      <stop
         id="stop67"
         offset="0"
         stop-color="#FFFEF8" />
      <stop
         id="stop69"
         offset=".1681"
         stop-color="#FFFDE5" />
      <stop
         id="stop71"
         offset=".5059"
         stop-color="#FEF9B5" />
      <stop
         id="stop73"
         offset=".5418"
         stop-color="#FEF9B0" />
      <stop
         id="stop75"
         offset=".7222"
         stop-color="#FEF8AE" />
      <stop
         id="stop77"
         offset=".8138"
         stop-color="#FEF6A6" />
      <stop
         id="stop79"
         offset=".8853"
         stop-color="#FDF299" />
      <stop
         id="stop81"
         offset=".9461"
         stop-color="#FCEC86" />
      <stop
         id="stop83"
         offset="1"
         stop-color="#FBE56E" />
    </radialGradient>
    <linearGradient
       gradientUnits="userSpaceOnUse"
       y2="452.53"
       y1="489.54"
       x2="511.5"
       x1="511.5"
       id="SVGID_7_">
      <stop
         id="stop86"
         offset="0"
         stop-opacity=".6"
         stop-color="#FCE46E" />
      <stop
         id="stop88"
         offset="1"
         stop-opacity="0"
         stop-color="#FBE56E" />
    </linearGradient>
    <linearGradient
       gradientUnits="userSpaceOnUse"
       y2="897.5"
       y1="897.5"
       x2="617.05"
       x1="398.74"
       id="SVGID_8_">
      <stop
         id="stop91"
         offset="0"
         stop-color="#999795" />
      <stop
         id="stop93"
         offset=".149"
         stop-color="#9B9A98" />
      <stop
         id="stop95"
         offset=".2567"
         stop-color="#A3A2A1" />
      <stop
         id="stop97"
         offset=".351"
         stop-color="#B1B1B1" />
      <stop
         id="stop99"
         offset=".4239"
         stop-color="#C0C2C3" />
      <stop
         id="stop101"
         offset=".5097"
         stop-color="#C0C2C3" />
      <stop
         id="stop103"
         offset=".5936"
         stop-color="#C0C2C3" />
      <stop
         id="stop105"
         offset=".7272"
         stop-color="#AEAFAE" />
      <stop
         id="stop107"
         offset=".8871"
         stop-color="#9F9D9C" />
      <stop
         id="stop109"
         offset="1"
         stop-color="#999795" />
    </linearGradient>
    <linearGradient
       gradientUnits="userSpaceOnUse"
       y2="940.95"
       y1="930.65"
       x2="550.74"
       x1="589.66"
       id="SVGID_9_">
      <stop
         id="stop112"
         offset=".2835"
         stop-color="#A4A197" />
      <stop
         id="stop114"
         offset=".8697"
         stop-opacity=".4259"
         stop-color="#A9A7A3" />
      <stop
         id="stop116"
         offset=".984"
         stop-opacity=".3141"
         stop-color="#AAA8A6" />
      <stop
         id="stop118"
         offset="1"
         stop-opacity=".3"
         stop-color="#AAA8A6" />
    </linearGradient>
    <linearGradient
       gradientUnits="userSpaceOnUse"
       y2="937.38"
       y1="934.46"
       x2="481.42"
       x1="429.24"
       id="SVGID_10_">
      <stop
         id="stop121"
         offset=".055878"
         stop-color="#A4A197" />
      <stop
         id="stop123"
         offset="1"
         stop-opacity=".3"
         stop-color="#AAA8A6" />
    </linearGradient>
    <linearGradient
       gradientUnits="userSpaceOnUse"
       y2="927.03"
       y1="964.24"
       x2="599.68"
       x1="562.24"
       id="SVGID_11_">
      <stop
         id="stop126"
         offset=".055878"
         stop-opacity="0"
         stop-color="#FEFEFE" />
      <stop
         id="stop128"
         offset=".4324"
         stop-opacity=".3988"
         stop-color="#CCD5E0" />
      <stop
         id="stop130"
         offset=".8089"
         stop-opacity=".7976"
         stop-color="#A1B1C5" />
      <stop
         id="stop132"
         offset="1"
         stop-color="#90A3BB" />
    </linearGradient>
    <linearGradient
       gradientUnits="userSpaceOnUse"
       y2="869.03"
       y1="839.91"
       x2="544.4"
       x1="622.96"
       id="SVGID_12_">
      <stop
         id="stop135"
         offset="0"
         stop-color="#95AAC3" />
      <stop
         id="stop137"
         offset=".369"
         stop-color="#BFDAE6" />
      <stop
         id="stop139"
         offset=".4537"
         stop-opacity=".9118"
         stop-color="#D0DEE4" />
      <stop
         id="stop141"
         offset=".55"
         stop-opacity=".8115"
         stop-color="#DAE0E3" />
      <stop
         id="stop143"
         offset=".657"
         stop-opacity=".7"
         stop-color="#DEE1E3" />
      <stop
         id="stop145"
         offset="1"
         stop-opacity="0"
         stop-color="#E0E2E3" />
    </linearGradient>
    <linearGradient
       gradientUnits="userSpaceOnUse"
       y2="914.36"
       y1="914.36"
       x2="592.72"
       x1="398.32"
       id="SVGID_13_">
      <stop
         id="stop148"
         offset="0"
         stop-color="#90A3BB" />
      <stop
         id="stop150"
         offset=".069455"
         stop-color="#92A6BD" />
      <stop
         id="stop152"
         offset=".1196"
         stop-color="#9AAFC4" />
      <stop
         id="stop154"
         offset=".1638"
         stop-color="#A7BFCF" />
      <stop
         id="stop156"
         offset=".2042"
         stop-color="#B9D5DF" />
      <stop
         id="stop158"
         offset=".2421"
         stop-color="#D1F2F4" />
      <stop
         id="stop160"
         offset=".2436"
         stop-color="#D2F3F5" />
      <stop
         id="stop162"
         offset=".3049"
         stop-color="#D8F4F6" />
      <stop
         id="stop164"
         offset=".3848"
         stop-color="#E8F9FA" />
      <stop
         id="stop166"
         offset=".46"
         stop-color="#FEFEFE" />
      <stop
         id="stop168"
         offset=".9441"
         stop-opacity="0"
         stop-color="#FEFEFE" />
    </linearGradient>
    <linearGradient
       gradientUnits="userSpaceOnUse"
       y2="951.5"
       y1="951.5"
       x2="592.42"
       x1="433.25"
       id="SVGID_14_">
      <stop
         id="stop171"
         offset=".03638"
         stop-opacity="0"
         stop-color="#FEFEFE" />
      <stop
         id="stop173"
         offset=".46"
         stop-color="#FEFEFE" />
      <stop
         id="stop175"
         offset=".9441"
         stop-opacity="0"
         stop-color="#FEFEFE" />
    </linearGradient>
    <linearGradient
       gradientUnits="userSpaceOnUse"
       y2="863.8"
       y1="850.45"
       x2="456.82"
       x1="400.28"
       id="SVGID_15_">
      <stop
         id="stop178"
         offset="0"
         stop-color="#93A6BB" />
      <stop
         id="stop180"
         offset=".3687"
         stop-color="#A2B7C8" />
      <stop
         id="stop182"
         offset=".6895"
         stop-color="#ABC0CF" />
      <stop
         id="stop184"
         offset=".7051"
         stop-opacity=".9771"
         stop-color="#AEC2CF" />
      <stop
         id="stop186"
         offset=".8153"
         stop-opacity=".8153"
         stop-color="#C0CBCE" />
      <stop
         id="stop188"
         offset=".8937"
         stop-opacity=".7"
         stop-color="#C7CFCE" />
      <stop
         id="stop190"
         offset=".902"
         stop-opacity=".6607"
         stop-color="#C8CFCE" />
      <stop
         id="stop192"
         offset=".9992"
         stop-opacity=".2"
         stop-color="#CDD2CE" />
    </linearGradient>
    <linearGradient
       gradientUnits="userSpaceOnUse"
       y2="879.82"
       y1="879.82"
       x2="547.22"
       x1="436.23"
       id="SVGID_16_">
      <stop
         id="stop195"
         offset="0"
         stop-color="#484A4C" />
      <stop
         id="stop197"
         offset="1"
         stop-opacity="0"
         stop-color="#484A4C" />
    </linearGradient>
    <linearGradient
       gradientUnits="userSpaceOnUse"
       y2="876.3"
       y1="863.53"
       x2="434.68"
       x1="585.22"
       id="SVGID_17_">
      <stop
         id="stop200"
         offset="0"
         stop-color="#484A4C" />
      <stop
         id="stop202"
         offset="1"
         stop-opacity="0"
         stop-color="#484A4C" />
    </linearGradient>
    <linearGradient
       gradientUnits="userSpaceOnUse"
       y2="901.12"
       y1="901.12"
       x2="583.72"
       x1="453.76"
       id="SVGID_18_">
      <stop
         id="stop205"
         offset="0"
         stop-opacity="0"
         stop-color="#484A4C" />
      <stop
         id="stop207"
         offset="1"
         stop-color="#484A4C" />
    </linearGradient>
    <linearGradient
       gradientUnits="userSpaceOnUse"
       y2="921.85"
       y1="900.35"
       x2="540.56"
       x1="618.62"
       id="SVGID_19_">
      <stop
         id="stop210"
         offset="0"
         stop-color="#90A3BB" />
      <stop
         id="stop212"
         offset=".078475"
         stop-color="#99AEC3" />
      <stop
         id="stop214"
         offset=".2149"
         stop-color="#B0CAD7" />
      <stop
         id="stop216"
         offset=".3737"
         stop-color="#D2F3F5" />
      <stop
         id="stop218"
         offset="1"
         stop-opacity="0"
         stop-color="#D2F3F5" />
    </linearGradient>
    <linearGradient
       gradientUnits="userSpaceOnUse"
       y2="879.07"
       y1="879.07"
       x2="625.53"
       x1="398.06"
       id="SVGID_20_">
      <stop
         id="stop221"
         offset="0"
         stop-color="#9CB1C7" />
      <stop
         id="stop223"
         offset=".022397"
         stop-color="#A0B6CB" />
      <stop
         id="stop225"
         offset=".049301"
         stop-color="#ADC5D7" />
      <stop
         id="stop227"
         offset=".078411"
         stop-color="#C2DDEA" />
      <stop
         id="stop229"
         offset=".086583"
         stop-color="#C9E5F1" />
      <stop
         id="stop231"
         offset=".235"
         stop-color="#C9E5F1" />
      <stop
         id="stop233"
         offset=".2857"
         stop-color="#D9EBF3" />
      <stop
         id="stop235"
         offset=".357"
         stop-color="#E9F1F5" />
      <stop
         id="stop237"
         offset=".4388"
         stop-color="#F2F5F6" />
      <stop
         id="stop239"
         offset=".554"
         stop-color="#F5F6F6" />
      <stop
         id="stop241"
         offset=".6039"
         stop-color="#E9F1F5" />
      <stop
         id="stop243"
         offset=".7198"
         stop-color="#D2E8F2" />
      <stop
         id="stop245"
         offset=".7924"
         stop-color="#C9E5F1" />
      <stop
         id="stop247"
         offset="1"
         stop-color="#9CB1C7" />
    </linearGradient>
    <linearGradient
       gradientUnits="userSpaceOnUse"
       y2="846.51"
       y1="846.51"
       x2="621.77"
       x1="405.23"
       id="SVGID_21_">
      <stop
         id="stop250"
         offset="0"
         stop-opacity="0"
         stop-color="#fff" />
      <stop
         id="stop252"
         offset=".0050673"
         stop-opacity=".032447"
         stop-color="#E3E4E4" />
      <stop
         id="stop254"
         offset=".012946"
         stop-opacity=".082893"
         stop-color="#BFC0C0" />
      <stop
         id="stop256"
         offset=".021803"
         stop-opacity=".1396"
         stop-color="#9FA0A1" />
      <stop
         id="stop258"
         offset=".031597"
         stop-opacity=".2023"
         stop-color="#838586" />
      <stop
         id="stop260"
         offset=".042661"
         stop-opacity=".2732"
         stop-color="#6D6F71" />
      <stop
         id="stop262"
         offset=".055582"
         stop-opacity=".3559"
         stop-color="#5C5E60" />
      <stop
         id="stop264"
         offset=".071559"
         stop-opacity=".4582"
         stop-color="#515354" />
      <stop
         id="stop266"
         offset=".093966"
         stop-opacity=".6017"
         stop-color="#4A4C4E" />
      <stop
         id="stop268"
         offset=".1562"
         stop-color="#484A4C" />
      <stop
         id="stop270"
         offset=".205"
         stop-color="#484A4C" />
      <stop
         id="stop272"
         offset=".5013"
         stop-color="#484A4C" />
      <stop
         id="stop274"
         offset=".8051"
         stop-color="#484A4C" />
      <stop
         id="stop276"
         offset=".8827"
         stop-opacity=".6017"
         stop-color="#4A4C4E" />
      <stop
         id="stop278"
         offset=".9107"
         stop-opacity=".4582"
         stop-color="#515354" />
      <stop
         id="stop280"
         offset=".9306"
         stop-opacity=".3559"
         stop-color="#5C5E60" />
      <stop
         id="stop282"
         offset=".9468"
         stop-opacity=".2732"
         stop-color="#6D6F71" />
      <stop
         id="stop284"
         offset=".9606"
         stop-opacity=".2023"
         stop-color="#838586" />
      <stop
         id="stop286"
         offset=".9728"
         stop-opacity=".1396"
         stop-color="#9FA0A1" />
      <stop
         id="stop288"
         offset=".9838"
         stop-opacity=".082893"
         stop-color="#BFC0C0" />
      <stop
         id="stop290"
         offset=".9937"
         stop-opacity=".032447"
         stop-color="#E3E4E4" />
      <stop
         id="stop292"
         offset="1"
         stop-opacity="0"
         stop-color="#fff" />
    </linearGradient>
    <linearGradient
       gradientUnits="userSpaceOnUse"
       y2="840.48"
       y1="513.84"
       x2="511.5"
       x1="511.5"
       id="SVGID_22_">
      <stop
         id="stop295"
         offset="0"
         stop-color="#DFE0E4" />
      <stop
         id="stop297"
         offset=".111"
         stop-color="#DFE0E4" />
      <stop
         id="stop299"
         offset=".2268"
         stop-color="#E7E8EC" />
      <stop
         id="stop301"
         offset=".4419"
         stop-color="#F0F0F4" />
      <stop
         id="stop303"
         offset=".8147"
         stop-color="#F2F2F6" />
    </linearGradient>
    <radialGradient
       gradientUnits="userSpaceOnUse"
       gradientTransform="matrix(-.0016507 -1 .5695 -.00094004 28.772 1351.6)"
       r="421.87"
       cy="842.89"
       cx="507.95"
       id="SVGID_23_">
      <stop
         id="stop306"
         offset="0"
         stop-opacity=".03"
         stop-color="#F3F3F7" />
      <stop
         id="stop308"
         offset="1"
         stop-color="#D7D8DC" />
    </radialGradient>
    <linearGradient
       gradientUnits="userSpaceOnUse"
       y2="644.02"
       y1="651.21"
       x2="641.86"
       x1="720.02"
       id="SVGID_24_">
      <stop
         id="stop311"
         offset=".1621"
         stop-color="#D0D4DB" />
      <stop
         id="stop313"
         offset=".9781"
         stop-opacity=".026117"
         stop-color="#D0D4DB" />
      <stop
         id="stop315"
         offset="1"
         stop-opacity="0"
         stop-color="#D0D4DB" />
    </linearGradient>
    <linearGradient
       gradientUnits="userSpaceOnUse"
       y2="811.87"
       y1="532.05"
       x2="629.79"
       x1="667.84"
       id="SVGID_25_">
      <stop
         id="stop318"
         offset="0"
         stop-opacity=".7"
         stop-color="#DFE1E6" />
      <stop
         id="stop320"
         offset="1"
         stop-opacity="0"
         stop-color="#DFE1E6" />
    </linearGradient>
    <radialGradient
       gradientUnits="userSpaceOnUse"
       gradientTransform="matrix(.0047142 1 -8.741 .041207 4839.7 -15.425)"
       r="115.96"
       cy="497.59"
       cx="492.52"
       id="SVGID_26_">
      <stop
         id="stop323"
         offset="0"
         stop-color="#FDFEFF" />
      <stop
         id="stop325"
         offset=".05886"
         stop-color="#FDFEFF" />
      <stop
         id="stop327"
         offset=".068549"
         stop-color="#FDFEFF" />
      <stop
         id="stop329"
         offset=".1357"
         stop-opacity=".8912"
         stop-color="#FBFCFD" />
      <stop
         id="stop331"
         offset=".1616"
         stop-opacity=".8491"
         stop-color="#F4F5F7" />
      <stop
         id="stop333"
         offset=".1804"
         stop-opacity=".8187"
         stop-color="#E8E9EB" />
      <stop
         id="stop335"
         offset=".192"
         stop-opacity=".8"
         stop-color="#DCDDE0" />
      <stop
         id="stop337"
         offset=".2951"
         stop-opacity="0"
         stop-color="#DDDEE1" />
      <stop
         id="stop339"
         offset="1"
         stop-opacity="0"
         stop-color="#DFE0E4" />
    </radialGradient>
    <linearGradient
       gradientUnits="userSpaceOnUse"
       y2="635.09"
       y1="636.25"
       x2="357.68"
       x1="348.4"
       id="SVGID_27_">
      <stop
         id="stop342"
         offset="0"
         stop-opacity=".6"
         stop-color="#DDE9F3" />
      <stop
         id="stop344"
         offset=".019282"
         stop-opacity=".5857"
         stop-color="#DDE9F3" />
      <stop
         id="stop346"
         offset=".1348"
         stop-opacity=".5"
         stop-color="#DDE9F3" />
    </linearGradient>
    <filter
       color-interpolation-filters="sRGB"
       height="1.094"
       width="1.166"
       y="-.046981"
       x="-.083001"
       id="d">
      <feGaussianBlur
         id="feGaussianBlur349"
         stdDeviation="0.93963163" />
    </filter>
    <linearGradient
       gradientUnits="userSpaceOnUse"
       gradientTransform="matrix(1.4286,0,0,1.4286,-167.46614,-246.33991)"
       y2="204.45"
       y1="171.64"
       x2="125.24"
       x1="125.24"
       id="linearGradient1341">
      <stop
         id="stop352"
         offset="0"
         stop-color="#ffe352" />
      <stop
         id="stop354"
         offset="1"
         stop-color="#ff361f" />
    </linearGradient>
    <filter
       id="filter11290"
       x="-.024"
       y="-.024"
       width="1.048"
       height="1.048"
       color-interpolation-filters="sRGB">
      <feGaussianBlur
         stdDeviation="0.15875313"
         id="feGaussianBlur1299" />
    </filter>
    <linearGradient
       id="linearGradient1005"
       x1=".73911"
       x2="13.303"
       y1="16.296"
       y2="3.7322"
       gradientTransform="matrix(3.7796,0,0,3.7796,-0.1319305,0.024583)"
       gradientUnits="userSpaceOnUse">
      <stop
         stop-color="#ff7d1e"
         offset="0"
         id="stop1302" />
      <stop
         stop-color="#ffa53c"
         offset="1"
         id="stop1304" />
    </linearGradient>
  </defs>
  <circle
     transform="matrix(3.7796,0,0,3.7796,-0.10278795,0.02458453)"
     id="circle1309"
     stroke-width="0.14032"
     opacity="0.25"
     filter="url(#filter11290)"
     r="7.9376998"
     cy="8.46"
     cx="8.4937" />
  <path
     id="path1311"
     stroke-width="0.11719"
     fill="url(#linearGradient1005)"
     d="m 62.000368,31.999811 c 0,3.596441 -0.633046,7.044796 -1.793951,10.240448 -0.806981,2.221196 -1.868595,4.321217 -3.151921,6.263553 -0.537535,0.816696 -1.115511,1.605385 -1.729015,2.363346 -1.964107,2.42571 -4.298162,4.538166 -6.918558,6.252593 -0.964932,0.631873 -1.967849,1.20985 -3.006143,1.727731 -4.032077,2.01789 -8.583849,3.15298 -13.40095,3.15298 -4.8171,0 -9.368872,-1.13509 -13.400949,-3.153094 -1.038408,-0.517994 -2.042496,-1.09597 -3.007428,-1.727731 -2.653544,-1.737595 -5.015529,-3.883161 -6.9956625,-6.348972 -0.614676,-0.764084 -1.191481,-1.56003 -1.729016,-2.384096 -1.249006,-1.91021 -2.283672,-3.971226 -3.074704,-6.149409 -1.160753,-3.194858 -1.792664,-6.641891 -1.792664,-10.237047 0,-16.56901 13.4315645,-30.000575 30.0005755,-30.000575 8.317009,0 15.842949,3.384557 21.277258,8.85069 1.566115,1.574657 2.958444,3.323364 4.143575,5.213958 1.120463,1.780456 2.057161,3.688209 2.785717,5.695101 1.161017,3.195992 1.794061,6.644159 1.794061,10.240448 z"
     style="fill:url(#linearGradient1005)" />
  <path
     id="path373"
     stroke-width=".1287"
     opacity=".25"
     filter="url(#d)"
     d="m32.001 7.9997c-7.5058 0-13.586 6.0851-13.586 13.586 0 3.3116 1.1863 6.3491 3.1562 8.7031.000257-.000171-.000235.0021 0 .002-.17533.1239-.4556.42449.10547.83594.74809.5486 3.5412 12.118 2.6934 14.512.74809.39898 1.4961 1.5957 1.4961 1.5957s.14885.09947-.15039.19922c-.13174.04391.22916.26395 1.0254.49414-1e-4 5e-6-.02344 0-.02344 0s-.967.66887.11523 1.5117c-1.0972.75807 0 1.5859 0 1.5859s-1.2873 1.0223.35352 1.7754c1.0972 1.2618 1.7773 1.1465 1.7773 1.1465s.02794.0092.0293.0098c-.0031.000342-.06055.0059-.06055.0059s.16453 2.1199 2.6133 2.0352c2.4488-.08478 3.002-.88281 3.002-.88281s.41092-.50133.33008-1.1133c.0751-.01932.14264-.02777.21875-.04883 1.9151-.55858 1.8164-1.7656 1.8164-1.7656s1.3352-.64426.4375-1.916c.76804-.9426 0-1.6348 0-1.6348s.44458-.44498.33984-.83398c-.000447-.0017-.0089-.0023-.0098-.0039.49864-.1772.70989-.32978.60352-.36523-.29924-.09975-.15039-.19922-.15039-.19922s.748-1.1967 1.4961-1.5957c-.84784-2.3939 1.9453-13.963 2.6934-14.512.56107-.41145.2808-.71204.10547-.83594.000235.000113-.000257-.0021 0-.002 1.97-2.359 3.1562-5.3916 3.1562-8.7031 3.7e-5-7.5009-6.0781-13.586-13.584-13.586z" />
  <g
     id="g466"
     stroke-width="2.5806"
     transform="matrix(.049873 0 0 .049873 6.4901 50.95)">
    <g
       id="g383"
       transform="translate(0,-896)">
      <path
         id="path375"
         fill="url(#SVGID_1_)"
         d="m450 956.4s3.3 42.5 52.4 40.8 60.2-17.7 60.2-17.7 8.8-10.5 6.6-23.2-119.2.1-119.2.1z"
         class="st0" />
      <path
         id="path377"
         fill="url(#SVGID_2_)"
         d="m450 956.4s3.3 42.5 52.4 40.8 60.2-17.7 60.2-17.7 8.8-10.5 6.6-23.2-119.2.1-119.2.1z"
         class="st1" />
      <path
         id="path379"
         fill="url(#SVGID_3_)"
         d="m450 956.4s3.3 42.5 52.4 40.8 60.2-17.7 60.2-17.7 8.8-10.5 6.6-23.2-119.2.1-119.2.1z"
         class="st2" />
      <path
         id="path381"
         fill="url(#SVGID_4_)"
         d="m450 956.4s3.3 42.5 52.4 40.8 60.2-17.7 60.2-17.7 8.8-10.5 6.6-23.2-119.2.1-119.2.1z"
         class="st3" />
    </g>
    <g
       id="g391"
       transform="translate(0,-896)">
      <path
         id="path385"
         fill="url(#SVGID_5_)"
         d="m511.5 509.5c219 2 207.9-28.6 209.1-27.8 39.5-47.3 63.3-108.1 63.3-174.5 0-150.4-121.9-272.4-272.4-272.4s-272.4 122-272.4 272.4c0 66.4 23.8 127.3 63.3 174.5 1.2-.8-9.9 29.8 209.1 27.8z"
         class="st6" />
      <path
         id="path387"
         fill="url(#SVGID_6_)"
         d="m511.5 499.4c209.7 1.9 199-27.4 200.1-26.6 37.8-45.2 60.6-103.5 60.6-167.1 0-144-116.7-260.7-260.7-260.7s-260.7 116.7-260.7 260.7c0 63.6 22.8 121.8 60.6 167.1 1.1-.8-9.6 28.5 200.1 26.6z"
         class="st7" />
      <path
         id="path389"
         fill="url(#SVGID_7_)"
         d="m511.5 499.4c209.7 1.9 199-27.4 200.1-26.6 37.8-45.2 60.6-103.5 60.6-167.1 0-144-116.7-260.7-260.7-260.7s-260.7 116.7-260.7 260.7c0 63.6 22.8 121.8 60.6 167.1 1.1-.8-9.6 28.5 200.1 26.6z"
         class="st8" />
    </g>
    <g
       id="g395"
       transform="translate(0,-896)">
      <path
         id="path393"
         stroke-width="2.5806"
         fill="url(#SVGID_8_)"
         d="m405.6 835.4s-19.4 13.4 2.3 30.3c-22 15.2 0 31.8 0 31.8s-25.8 20.5 7.1 35.6c22 25.3 35.6 23 35.6 23s50 20.3 123 .1c38.4-11.2 36.4-35.4 36.4-35.4s26.8-12.9 8.8-38.4c15.4-18.9 0-32.8 0-32.8s8.9-8.9 6.8-16.7c-2.1-7.9-220 2.5-220 2.5z"
         class="st9" />
    </g>
    <g
       id="g401"
       transform="translate(0,-896)">
      <path
         id="path397"
         fill="url(#SVGID_9_)"
         d="m600.2 923.8s-27.4 13.1-47.4 13.9c-20.1.7 8.4 2.6 8.4 2.6s39-5.5 39-10.9v-5.6z"
         class="st10" />
      <path
         id="path399"
         fill="url(#SVGID_10_)"
         d="m416.1 928.6s24.1 10.4 59.5 10-15 7.3-54.7-1.8c-14.7-10.5-4.8-8.2-4.8-8.2z"
         class="st11" />
    </g>
    <g
       id="g405"
       transform="translate(0,-896)">
      <path
         id="path403"
         stroke-width="2.5806"
         fill="url(#SVGID_11_)"
         d="m595.6 915.8s-2.1 27.6-26.2 37.1 10.8 4.1 22.1-4.4c8.7-5.6 17.9-13.7 18.4-26.7s-14.3-6-14.3-6z"
         class="st12" />
    </g>
    <g
       id="g409"
       transform="translate(0,-896)">
      <path
         id="path407"
         stroke-width="2.5806"
         fill="url(#SVGID_12_)"
         d="m544.9 865.7c28 1.3 47.8-8.6 49.4-9.6-10.2 10.3-39.7 17.9-39.7 17.9s46.1-3.6 63.4-22.5c8.2-9.5 9.4-17.8 6.4-20.2-12-9.6-93.1 30.6-79.5 34.4z"
         class="st13" />
    </g>
    <g
       id="g413"
       transform="translate(0,-896)">
      <path
         id="path411"
         stroke-width="2.5806"
         fill="url(#SVGID_13_)"
         d="m425.1 890.2s8.8.5 8.3 5.4-15.6 2.5-15.6 2.5 11.3 12.1 13.8 16.4 60 15 84.3 11.6c24.2-3.3 62.3-6.5 67-11.5 4.6-5 20.1 5-.6 6.1-20.7 1.2-90.6 18.9-131.4 10.6s-29.7 8.8-29.7 8.8-2.9-4-6.2-7.2c-22.9-10.2-19-25.2-7.1-35.6 9.3-14.1 17.2-7.1 17.2-7.1z"
         class="st14" />
    </g>
    <g
       id="g417"
       transform="translate(0,-896)">
      <path
         id="path415"
         stroke-width="2.5806"
         fill="url(#SVGID_14_)"
         d="m435.1 945.5s22.6 17.7 75.6 15.2c53-2.6 66.3-9.6 76.6-19.6s4.4 7.7-13.1 13.5-39 11-65.1 10.3-73.8-10-75.4-15.4 1.4-4 1.4-4z"
         class="st15" />
    </g>
    <g
       id="g421"
       transform="translate(0,-896)">
      <path
         id="path419"
         stroke-width="2.5806"
         fill="url(#SVGID_15_)"
         d="m415.3 838.4s-11.1 8.1 4.6 12.4 38.7 5.5 38.7 5.5 4.4 5-2.7 4.2c-7.1-.9-36.2-3.5-36.2-3.5s-10.3 0-1.5 5.6 14.2 9.3 14.2 9.3 4.9 6-2.5 3-14.1-4.8-26.1-12.8c-6.4-8-11-14.6 1.7-26.8 9.3-1.1 9.8 3.1 9.8 3.1z"
         class="st16" />
    </g>
    <g
       id="g429"
       transform="translate(0,-896)">
      <path
         id="path423"
         opacity=".5"
         fill="url(#SVGID_16_)"
         d="m436.2 876.9s26.2 11.4 111 2.6c-52.8 3.3-111-2.6-111-2.6z"
         class="st17" />
      <path
         id="path425"
         opacity=".5"
         fill="url(#SVGID_17_)"
         d="m473.9 870s92.2 2.3 120.4-14c-34.5 30.8-120.4 14-120.4 14z"
         class="st18" />
      <path
         id="path427"
         opacity=".5"
         fill="url(#SVGID_18_)"
         d="m583.7 893.6s-70.6 14.7-130 6.8c.1.1 55.1 22.4 130-6.8z"
         class="st19" />
    </g>
    <g
       id="g433"
       transform="translate(0,-896)">
      <path
         id="path431"
         stroke-width="2.5806"
         fill="url(#SVGID_19_)"
         d="m596.3 891.2s2.9 7.5-9.1 10.4-18.7 9.1-22.8 9.1c-4.2 0-28.7 6.2-28.7 6.2s-9.1 5.4 6.2 6.2c15.4.8 54.7-6.2 54.7-6.2s7.6 1.8 2.2 6.3 17.3-2.4 22-12.5c7.4-7.9 3.8-20.2-2.1-28.4-5.8-2.1-22.4 8.9-22.4 8.9z"
         class="st20" />
    </g>
    <g
       id="g437"
       transform="translate(0,-896)">
      <path
         id="path435"
         stroke-width="2.5806"
         fill="url(#SVGID_20_)"
         d="m407.8 865.8s16 8.8 18.1 11.3 4.1 5.7 3.3 8 44.8 9.2 65.8 8.5 83.6-12.9 84.6-14.6-6.3-3.5-1.4-5.9 36.3-13.2 40.6-23.6c5.5 5.2 12 18.7 0 32.8-1.4.9-22.9 14.9-45.4 17.9l27.4-13.3s-85.3 9.8-130.7 8.1-56.8-11.3-55.4.5c11.7 6.2 19.1 13.1 19.1 13.1s-18.7-3-24.8-9.8c-7.8-7.5-19.5-20.4-1.2-33z"
         class="st21" />
    </g>
    <g
       id="g441"
       transform="translate(0,-896)">
      <path
         id="path439"
         stroke-width="2.5806"
         fill="url(#SVGID_21_)"
         d="m621.8 833.2s-15.6 26.9-121.7 26.5-94.5-22.6-94.5-22.6z"
         class="st22" />
    </g>
    <g
       id="g445"
       transform="translate(0,-896)">
      <path
         id="path443"
         stroke-width="2.5806"
         fill="url(#SVGID_22_)"
         d="m718.5 480.5s12 31-207 29c-219 2-207-29-207-29s-15 7 0 18 71 243 54 291c15 8 30 32 30 32s3 2-3 4 36 22 126 22 132-20 126-22-3-4-3-4 15-24 30-32c-17-48 39-280 54-291s0-18 0-18z"
         class="st23" />
    </g>
    <g
       transform="translate(0,-896)"
       id="Layer_4_copy">
      <path
         id="path447"
         stroke-width="2.5806"
         fill="url(#SVGID_23_)"
         d="m718.5 480.5s12 31-207 29c-219 2-207-29-207-29s-15 7 0 18 71 243 54 291c15 8 30 32 30 32s3 2-3 4 36 22 126 22 132-20 126-22-3-4-3-4 15-24 30-32c-17-48 39-280 54-291s0-18 0-18z"
         class="st24" />
    </g>
    <g
       id="g452"
       transform="translate(0,-896)">
      <path
         id="path450"
         stroke-width="2.5806"
         fill="url(#SVGID_24_)"
         d="m684.3 499s-71.9 267.1-44.9 315.3c7.3-7.2 15-20.7 25.1-24.9-11.5-61.6 29-245.5 54-291 .8-3.2 6.7-3.5 6.7-9.6 1-4.1-6.7-8.4-6.7-8.4s2.1 6.4-12 11.8c-11.6 5.4-22.2 6.8-22.2 6.8z"
         class="st25" />
    </g>
    <g
       id="g456"
       transform="translate(0,-896)">
      <path
         id="path454"
         stroke-width="2.5806"
         fill="url(#SVGID_25_)"
         d="m676.1 501.6s-79.3 244.1-38.5 319.8l5.2-6.6c-27-66.4 44.6-315.7 44.6-315.7z"
         class="st26" />
    </g>
    <g
       id="g460"
       transform="translate(0,-896)">
      <path
         id="path458"
         stroke-width="2.5806"
         fill="url(#SVGID_26_)"
         d="m718.5 480.5s12 31-207 29c-219 2-207-29-207-29s-15 7 0 18c2.4 1.8 14.4 39.3 18.6 51.1 49.1 20.8 150.8 11.3 350.5-29 17.9-3.6 25.5-17.7 45-22.1 14.9-11-.1-18-.1-18z"
         class="st27" />
    </g>
    <g
       id="g464"
       transform="translate(0,-896)">
      <path
         id="path462"
         stroke-width="2.5806"
         fill="url(#SVGID_27_)"
         d="m304.5 480.5s-15 7 0 18 71 243 54 291c2.7 1.5 5.5 3.4 8.1 5.7 0 0 0-.1.1-.1 20.6-55.8-42.3-289.5-49.9-294.2-5.4-3.3-7.2-9.5-7.9-12.9-5.6-4.3-4.4-7.5-4.4-7.5z"
         class="st28" />
    </g>
  </g>
  <g
     transform="matrix(3.7796,0,0,3.7796,-97.049798,-38.568329)"
     id="g1321"
     stroke-width="0.26458"
     fill="#5e4aa6">
    <circle
       id="circle1313"
       r="0"
       cy="-328.38"
       cx="-330.35001" />
    <circle
       id="circle1315"
       r="0"
       cy="-326.25"
       cx="-312.10999" />
    <circle
       id="circle1317"
       r="0"
       cy="-333.07001"
       cx="-306.01999" />
    <circle
       id="circle1319"
       r="0"
       cy="-326.01001"
       cx="-308.84" />
  </g>
</svg>
