<?xml version="1.0" encoding="UTF-8"?>
<svg width="64" height="64" version="1.1" viewBox="0 0 64 64" xmlns="http://www.w3.org/2000/svg">
 <defs>
  <filter id="filter11290" x="-.024" y="-.024" width="1.048" height="1.048" color-interpolation-filters="sRGB">
   <feGaussianBlur stdDeviation="0.15875313"/>
  </filter>
  <linearGradient id="linearGradient1005" x1=".73911" x2="13.303" y1="16.296" y2="3.7322" gradientTransform="matrix(3.7796 0 0 3.7796 -.13163 .025034)" gradientUnits="userSpaceOnUse">
   <stop stop-color="#ff7d1e" offset="0"/>
   <stop stop-color="#ffa53c" offset="1"/>
  </linearGradient>
 </defs>
 <circle transform="matrix(3.7796 0 0 3.7796 -.10279 .024584)" cx="8.4937" cy="8.46" r="7.9377" filter="url(#filter11290)" opacity=".25" stroke-width=".14032"/>
 <path d="m62 32c0 3.5964-0.63304 7.0448-1.7939 10.24-0.80699 2.2212-1.8686 4.3212-3.1519 6.2636-0.53753 0.8167-1.1155 1.6054-1.729 2.3633-1.9641 2.4257-4.2982 4.5382-6.9186 6.2526-0.96493 0.63187-1.9678 1.2098-3.0061 1.7277-4.0321 2.0179-8.5838 3.153-13.401 3.153-4.8172 0-9.3689-1.1351-13.401-3.1531-1.0384-0.518-2.0425-1.096-3.0074-1.7277-2.6535-1.7376-5.0155-3.8832-6.9957-6.349-0.61468-0.76408-1.1915-1.56-1.729-2.3841-1.249-1.9102-2.2837-3.9712-3.0747-6.1494-1.1608-3.1949-1.7927-6.6419-1.7927-10.237 0-16.569 13.432-30.001 30.001-30.001 8.317 0 15.843 3.3846 21.277 8.8507 1.5661 1.5747 2.9584 3.3234 4.1436 5.214 1.1205 1.7805 2.0572 3.6882 2.7857 5.6951 1.161 3.196 1.7941 6.6442 1.7941 10.24z" fill="url(#linearGradient1005)" stroke-width=".11719"/>
 <path d="m32 14.5a17.5 17.5 0 0 0-17.5 17.5 17.5 17.5 0 0 0 17.5 17.5 17.5 17.5 0 0 0 17.5-17.5 17.5 17.5 0 0 0-17.5-17.5zm0 9.3333a8.1667 8.1667 0 0 1 8.1667 8.1667 8.1667 8.1667 0 0 1-8.1667 8.1667 8.1667 8.1667 0 0 1-8.1667-8.1667 8.1667 8.1667 0 0 1 8.1667-8.1667z" fill="#333" stroke-width="1.1667"/>
 <path d="m31.999 16.833a2.3333 2.3333 0 0 0-2.3333 2.3333 2.3333 2.3333 0 0 0 2.3333 2.3333 2.3333 2.3333 0 0 0 2.3333-2.3333 2.3333 2.3333 0 0 0-2.3333-2.3333zm-6.4167 1.7204a2.3333 2.3333 0 0 0-2.3333 2.3333 2.3333 2.3333 0 0 0 2.3333 2.3333 2.3333 2.3333 0 0 0 2.3333-2.3333 2.3333 2.3333 0 0 0-2.3333-2.3333zm12.833 0a2.3333 2.3333 0 0 0-2.3333 2.3333 2.3333 2.3333 0 0 0 2.3333 2.3333 2.3333 2.3333 0 0 0 2.3333-2.3333 2.3333 2.3333 0 0 0-2.3333-2.3333zm-17.529 4.6963a2.3333 2.3333 0 0 0-2.3333 2.3333 2.3333 2.3333 0 0 0 2.3333 2.3333 2.3333 2.3333 0 0 0 2.3333-2.3333 2.3333 2.3333 0 0 0-2.3333-2.3333zm22.226 0a2.3333 2.3333 0 0 0-2.3333 2.3333 2.3333 2.3333 0 0 0 2.3333 2.3333 2.3333 2.3333 0 0 0 2.3333-2.3333 2.3333 2.3333 0 0 0-2.3333-2.3333zm-23.946 6.4167a2.3333 2.3333 0 0 0-2.3333 2.3333 2.3333 2.3333 0 0 0 2.3333 2.3333 2.3333 2.3333 0 0 0 2.3333-2.3333 2.3333 2.3333 0 0 0-2.3333-2.3333zm25.667 0a2.3333 2.3333 0 0 0-2.3333 2.3333 2.3333 2.3333 0 0 0 2.3333 2.3333 2.3333 2.3333 0 0 0 2.3333-2.3333 2.3333 2.3333 0 0 0-2.3333-2.3333zm-23.946 6.4167a2.3333 2.3333 0 0 0-2.3333 2.3333 2.3333 2.3333 0 0 0 2.3333 2.3333 2.3333 2.3333 0 0 0 2.3333-2.3333 2.3333 2.3333 0 0 0-2.3333-2.3333zm22.226 0a2.3333 2.3333 0 0 0-2.3333 2.3333 2.3333 2.3333 0 0 0 2.3333 2.3333 2.3333 2.3333 0 0 0 2.3333-2.3333 2.3333 2.3333 0 0 0-2.3333-2.3333zm-17.529 4.6963a2.3333 2.3333 0 0 0-2.3333 2.3333 2.3333 2.3333 0 0 0 2.3333 2.3333 2.3333 2.3333 0 0 0 2.3333-2.3333 2.3333 2.3333 0 0 0-2.3333-2.3333zm12.833 0a2.3333 2.3333 0 0 0-2.3333 2.3333 2.3333 2.3333 0 0 0 2.3333 2.3333 2.3333 2.3333 0 0 0 2.3333-2.3333 2.3333 2.3333 0 0 0-2.3333-2.3333zm-6.4167 1.7204a2.3333 2.3333 0 0 0-2.3333 2.3333 2.3333 2.3333 0 0 0 2.3333 2.3333 2.3333 2.3333 0 0 0 2.3333-2.3333 2.3333 2.3333 0 0 0-2.3333-2.3333z" fill="#faf8f0" stroke-width="1.1667" style="paint-order:normal"/>
</svg>
