<?xml version="1.0" encoding="UTF-8" standalone="no"?>
<svg
   xmlns:dc="http://purl.org/dc/elements/1.1/"
   xmlns:cc="http://creativecommons.org/ns#"
   xmlns:rdf="http://www.w3.org/1999/02/22-rdf-syntax-ns#"
   xmlns:svg="http://www.w3.org/2000/svg"
   xmlns="http://www.w3.org/2000/svg"
   xmlns:xlink="http://www.w3.org/1999/xlink"
   xmlns:sodipodi="http://sodipodi.sourceforge.net/DTD/sodipodi-0.dtd"
   xmlns:inkscape="http://www.inkscape.org/namespaces/inkscape"
   inkscape:version="1.0 (4035a4fb49, 2020-05-01)"
   sodipodi:docname="session-properties.svg"
   viewBox="0 0 64 64"
   version="1.1"
   image-rendering="optimizeSpeed"
   enable-background="new 0 0 1024 1024"
   height="64"
   width="64"
   id="App-Store">
  <metadata
     id="metadata28">
    <rdf:RDF>
      <cc:Work
         rdf:about="">
        <dc:format>image/svg+xml</dc:format>
        <dc:type
           rdf:resource="http://purl.org/dc/dcmitype/StillImage" />
        <dc:title></dc:title>
      </cc:Work>
    </rdf:RDF>
  </metadata>
  <sodipodi:namedview
     inkscape:current-layer="App-Store"
     inkscape:window-maximized="1"
     inkscape:window-y="36"
     inkscape:window-x="0"
     inkscape:cy="16.188888"
     inkscape:cx="-18.335285"
     inkscape:zoom="6.2109375"
     showgrid="false"
     id="namedview26"
     inkscape:window-height="964"
     inkscape:window-width="1920"
     inkscape:pageshadow="2"
     inkscape:pageopacity="0"
     guidetolerance="10"
     gridtolerance="10"
     objecttolerance="10"
     borderopacity="1"
     bordercolor="#666666"
     pagecolor="#ffffff" />
  <defs
     id="defs15">
    <linearGradient
       gradientUnits="userSpaceOnUse"
       y2="49.334"
       y1="14.666"
       x2="32"
       x1="32"
       id="a">
      <stop
         id="stop2"
         offset="0"
         stop-color="#e7e7e7" />
      <stop
         id="stop4"
         offset="1"
         stop-color="#fff" />
    </linearGradient>
    <filter
       color-interpolation-filters="sRGB"
       height="1.1154"
       width="1.125"
       y="-.057692"
       x="-.0625"
       id="c">
      <feGaussianBlur
         id="feGaussianBlur7"
         stdDeviation="0.83333784" />
    </filter>
    <linearGradient
       gradientUnits="userSpaceOnUse"
       gradientTransform="matrix(3.7796,0,0,3.7796,1.0903597,-13.511075)"
       y2="1.852"
       y1="15.081"
       x2="7.9373"
       x1="7.9373"
       id="linearGradient862-3">
      <stop
         id="stop10"
         offset="0"
         stop-color="#373737" />
      <stop
         id="stop12"
         offset="1"
         stop-color="#6b6b6b" />
    </linearGradient>
    <linearGradient
       gradientUnits="userSpaceOnUse"
       y2="12.461"
       y1="57.955"
       x2="45.628"
       x1="45.628"
       id="b">
      <stop
         id="stop2-3"
         offset="0" />
      <stop
         id="stop4-6"
         offset="1"
         stop-opacity="0" />
    </linearGradient>
    <linearGradient
       id="b-3"
       x1="399.57"
       x2="399.57"
       y1="545.8"
       y2="517.8"
       gradientTransform="matrix(2.1429,0,0,2.1429,-897.94628,-1138.5208)"
       gradientUnits="userSpaceOnUse">
      <stop
         stop-color="#3889e9"
         offset="0"
         id="stop850" />
      <stop
         stop-color="#5ea5fb"
         offset="1"
         id="stop852" />
    </linearGradient>
    <linearGradient
       id="linearGradient1001"
       x1="32.431"
       x2="32.431"
       y1="61.873"
       y2="1.6692"
       gradientTransform="matrix(0.26457812,0,0,0.26457812,-31.030853,-6.0244504)"
       gradientUnits="userSpaceOnUse">
      <stop
         stop-color="#1d2123"
         offset="0"
         id="stop855" />
      <stop
         stop-color="#33393e"
         offset="1"
         id="stop857" />
    </linearGradient>
    <linearGradient
       id="linearGradient1057">
      <stop
         stop-color="#fff"
         offset="0"
         id="stop4-3" />
      <stop
         stop-color="#fff"
         stop-opacity="0"
         offset="1"
         id="stop6" />
    </linearGradient>
    <linearGradient
       id="linearGradient982"
       x1="34.999"
       x2="34.999"
       y1="27.545"
       y2="52.847"
       gradientTransform="matrix(1.5625,0,0,1.5625,0.40633,-5.1891)"
       gradientUnits="userSpaceOnUse">
      <stop
         stop-color="#32b4ff"
         offset="0"
         id="stop9" />
      <stop
         stop-color="#3287ff"
         offset="1"
         id="stop11" />
    </linearGradient>
    <style
       type="text/css"
       id="style14" />
    <style
       type="text/css"
       id="style16" />
    <linearGradient
       id="linearGradient1047"
       x1="21.314"
       x2="21.314"
       y1="18.052"
       y2="43.681"
       gradientTransform="matrix(1.5625,0,0,1.5625,-9.2253,1.3231)"
       gradientUnits="userSpaceOnUse">
      <stop
         stop-color="#14dc78"
         offset="0"
         id="stop18" />
      <stop
         stop-color="#14a03c"
         offset="1"
         id="stop20" />
    </linearGradient>
    <linearGradient
       id="linearGradient1049"
       x1="41.729"
       x2="41.729"
       y1="12.316"
       y2="37.368"
       gradientTransform="matrix(1.5625,0,0,1.5625,-8.1072,-10.908)"
       gradientUnits="userSpaceOnUse">
      <stop
         stop-color="#ff3c64"
         offset="0"
         id="stop23" />
      <stop
         stop-color="#ff4628"
         offset="1"
         id="stop25" />
    </linearGradient>
    <linearGradient
       id="linearGradient1059"
       x1="34.427"
       x2="34.427"
       y1="32.234"
       y2="39.768"
       gradientTransform="matrix(1,0,0,1.2271,0.20646,-10.975)"
       gradientUnits="userSpaceOnUse"
       xlink:href="#linearGradient1057" />
    <linearGradient
       id="linearGradient1063"
       x1="34.427"
       x2="34.427"
       y1="32.234"
       y2="39.768"
       gradientTransform="matrix(1,0,0,1.2271,-12.55,-19.793)"
       gradientUnits="userSpaceOnUse"
       xlink:href="#linearGradient1057" />
    <linearGradient
       id="linearGradient1067"
       x1="34.427"
       x2="34.427"
       y1="32.234"
       y2="39.768"
       gradientTransform="matrix(1,0,0,1.2271,5.7554,-25.761)"
       gradientUnits="userSpaceOnUse"
       xlink:href="#linearGradient1057" />
    <filter
       id="filter2761"
       x="-.024"
       y="-.024"
       width="1.048"
       height="1.048"
       color-interpolation-filters="sRGB">
      <feGaussianBlur
         stdDeviation="0.14552168"
         id="feGaussianBlur31" />
    </filter>
    <linearGradient
       id="linearGradient1024"
       x1="1.3315"
       x2="15.65"
       y1="15.576"
       y2="1.17"
       gradientTransform="matrix(3.7796,0,0,3.7796,72.4059,0.53085)"
       gradientUnits="userSpaceOnUse">
      <stop
         stop-color="#dddfe1"
         offset="0"
         id="stop34" />
      <stop
         stop-color="#f3f4f6"
         stop-opacity=".99608"
         offset="1"
         id="stop36" />
    </linearGradient>
    <filter
       id="filter2761-3"
       x="-.024"
       y="-.024"
       width="1.048"
       height="1.048"
       color-interpolation-filters="sRGB">
      <feGaussianBlur
         stdDeviation="0.14552168"
         id="feGaussianBlur2" />
    </filter>
    <linearGradient
       id="linearGradient1024-6"
       x1="1.3315"
       x2="15.65"
       y1="15.576"
       y2="1.17"
       gradientTransform="translate(0 -.07421)"
       gradientUnits="userSpaceOnUse">
      <stop
         stop-color="#dddfe1"
         offset="0"
         id="stop5" />
      <stop
         stop-color="#f3f4f6"
         stop-opacity=".99608"
         offset="1"
         id="stop7" />
    </linearGradient>
    <filter
       color-interpolation-filters="sRGB"
       height="1.1062"
       width="1.138"
       y="-.053076"
       x="-.069001"
       id="filter911">
      <feGaussianBlur
         id="feGaussianBlur2-3"
         stdDeviation="0.5750183" />
    </filter>
    <linearGradient
       gradientUnits="userSpaceOnUse"
       y2="24.006"
       y1="24.006"
       x2="34.001"
       x1="14"
       id="linearGradient921">
      <stop
         id="stop5-6"
         offset="0"
         stop-color="#fff" />
      <stop
         id="stop7-7"
         offset="1"
         stop-color="#e6e6e6" />
    </linearGradient>
    <linearGradient
       gradientUnits="userSpaceOnUse"
       gradientTransform="matrix(3.7795,0,0,3.7795,-78.322643,0.031541)"
       y2="1.852"
       y1="15.081"
       x2="7.9373"
       x1="7.9373"
       id="linearGradient862-3-7">
      <stop
         id="stop10-5"
         offset="0"
         stop-color="#1a1a1a" />
      <stop
         id="stop12-3"
         offset="1"
         stop-color="#4d4d4d" />
    </linearGradient>
    <filter
       id="filter11290"
       x="-0.024"
       y="-0.024"
       width="1.048"
       height="1.048"
       color-interpolation-filters="sRGB">
      <feGaussianBlur
         stdDeviation="0.15875313"
         id="feGaussianBlur861" />
    </filter>
    <linearGradient
       gradientTransform="translate(-1.5881348e-6)"
       gradientUnits="userSpaceOnUse"
       y2="2.6618319"
       x2="61.642139"
       y1="61.846527"
       x1="2.6369677"
       id="linearGradient1195"
       xlink:href="#linearGradient1193"
       inkscape:collect="always" />
    <linearGradient
       id="linearGradient1193"
       inkscape:collect="always">
      <stop
         id="stop1189"
         offset="0"
         style="stop-color:#1a1a1a;stop-opacity:1" />
      <stop
         id="stop1191"
         offset="1"
         style="stop-color:#4d4d4d;stop-opacity:1" />
    </linearGradient>
  </defs>
  <circle
     transform="scale(3.779602)"
     style="image-rendering:optimizeSpeed"
     id="circle943"
     stroke-width="0.14032"
     opacity="0.25"
     filter="url(#filter11290)"
     r="7.9376998"
     cy="8.4665003"
     cx="8.4665003" />
  <circle
     r="30"
     cy="32"
     cx="32"
     id="path1187"
     style="fill:url(#linearGradient1195);fill-opacity:1;stroke-width:1.96169;stroke-linecap:round;image-rendering:optimizeSpeed" />
  <circle
     cx="32"
     cy="32"
     r="30.000999"
     fill-opacity="0"
     stroke-width="1.5715"
     id="circle890" />
  <path
     id="path21"
     opacity=".35"
     filter="url(#c)"
     fill-rule="evenodd"
     d="m46.324 26.187c-1.1182-2.2359-2.6908-4.111-4.7186-5.6248-0.58325-0.44443-1.243-0.61806-1.9792-0.52089-0.73621 0.0972-1.3195 0.44443-1.7501 1.0415-0.44443 0.58323-0.61445 1.2394-0.5104 1.9687 0.10363 0.72957 0.44801 1.3161 1.0313 1.7605 1.3606 1.0277 2.4134 2.2848 3.156 3.771 0.74309 1.4859 1.1144 3.0695 1.1144 4.7498 0 1.4447-0.2813 2.823-0.84361 4.1356-0.56256 1.3125-1.323 2.4479-2.2814 3.4063-0.9584 0.95812-2.0935 1.7186-3.4061 2.2812-1.3126 0.56256-2.6911 0.84408-4.1356 0.84408-1.4443 0-2.8228-0.28152-4.1353-0.84408-1.3126-0.56258-2.4479-1.323-3.4063-2.2812-0.95814-0.9584-1.7186-2.0938-2.2812-3.4063-0.56257-1.3125-0.84385-2.6909-0.84385-4.1356 0-1.6803 0.37154-3.2636 1.1147-4.7498 0.74309-1.4859 1.7951-2.743 3.1562-3.771 0.58327-0.44466 0.92693-1.0312 1.0313-1.7605 0.10401-0.72902-0.066-1.3855-0.5104-1.9687-0.43061-0.59711-1.0103-0.94435-1.7396-1.0415-0.72928-0.0972-1.3926 0.0764-1.9897 0.52089-2.028 1.5138-3.6006 3.3889-4.7188 5.6248-1.1182 2.2362-1.6772 4.6181-1.6772 7.1458 0 2.1669 0.42372 4.2361 1.2709 6.2084 0.84743 1.9723 1.9861 3.6735 3.4168 5.1042 1.4304 1.4304 3.1319 2.5696 5.1042 3.4163 1.9723 0.84741 4.0418 1.2714 6.2084 1.2714s4.2361-0.42397 6.2084-1.2714c1.9723-0.84692 3.6738-1.9859 5.1042-3.4163s2.5691-3.1319 3.4165-5.1042c0.84718-1.9723 1.2706-4.0417 1.2706-6.2084 0-2.5277-0.55822-4.9096-1.6764-7.1458zm-14.324 7.1461c0.72212 0 1.3476-0.26363 1.8749-0.79168 0.52776-0.52753 0.79218-1.1527 0.79218-1.8748v-13.334c0-0.7224-0.26414-1.3473-0.79218-1.8749-0.52729-0.52804-1.1525-0.79192-1.8749-0.79192-0.72236 0-1.3473 0.26412-1.8751 0.79192-0.52778 0.52753-0.79166 1.1527-0.79166 1.8749v13.334c0 0.72208 0.26386 1.3473 0.79166 1.8748 0.52778 0.52806 1.153 0.79168 1.8751 0.79168z" />
  <path
     id="path23"
     fill-rule="evenodd"
     fill="url(#a)"
     d="m46.324 26.187c-1.1182-2.2359-2.6908-4.111-4.7186-5.6248-0.58325-0.44443-1.243-0.61806-1.9792-0.52089-0.73621 0.0972-1.3195 0.44443-1.7501 1.0415-0.44443 0.58323-0.61445 1.2394-0.5104 1.9687 0.10363 0.72957 0.44801 1.3161 1.0313 1.7605 1.3606 1.0277 2.4134 2.2848 3.156 3.771 0.74309 1.4859 1.1144 3.0695 1.1144 4.7498 0 1.4447-0.2813 2.823-0.84361 4.1356-0.56256 1.3125-1.323 2.4479-2.2814 3.4063-0.9584 0.95812-2.0935 1.7186-3.4061 2.2812-1.3126 0.56256-2.6911 0.84408-4.1356 0.84408-1.4443 0-2.8228-0.28152-4.1353-0.84408-1.3126-0.56258-2.4479-1.323-3.4063-2.2812-0.95814-0.9584-1.7186-2.0938-2.2812-3.4063-0.56257-1.3125-0.84385-2.6909-0.84385-4.1356 0-1.6803 0.37154-3.2636 1.1147-4.7498 0.74309-1.4859 1.7951-2.743 3.1562-3.771 0.58327-0.44466 0.92693-1.0312 1.0313-1.7605 0.10401-0.72902-0.066-1.3855-0.5104-1.9687-0.43061-0.59711-1.0103-0.94435-1.7396-1.0415-0.72928-0.0972-1.3926 0.0764-1.9897 0.52089-2.028 1.5138-3.6006 3.3889-4.7188 5.6248-1.1182 2.2362-1.6772 4.6181-1.6772 7.1458 0 2.1669 0.42372 4.2361 1.2709 6.2084 0.84743 1.9723 1.9861 3.6735 3.4168 5.1042 1.4304 1.4304 3.1319 2.5696 5.1042 3.4163 1.9723 0.84741 4.0418 1.2714 6.2084 1.2714s4.2361-0.42397 6.2084-1.2714c1.9723-0.84692 3.6738-1.9859 5.1042-3.4163s2.5691-3.1319 3.4165-5.1042c0.84718-1.9723 1.2706-4.0417 1.2706-6.2084 0-2.5277-0.55822-4.9096-1.6764-7.1458zm-14.324 7.1461c0.72212 0 1.3476-0.26363 1.8749-0.79168 0.52776-0.52753 0.79218-1.1527 0.79218-1.8748v-13.334c0-0.7224-0.26414-1.3473-0.79218-1.8749-0.52729-0.52804-1.1525-0.79192-1.8749-0.79192-0.72236 0-1.3473 0.26412-1.8751 0.79192-0.52778 0.52753-0.79166 1.1527-0.79166 1.8749v13.334c0 0.72208 0.26386 1.3473 0.79166 1.8748 0.52778 0.52806 1.153 0.79168 1.8751 0.79168z" />
  <g
     transform="matrix(3.779602,0,0,3.779602,-71.576279,-30.520871)"
     fill="#5e4aa6"
     stroke-width="0.26458"
     id="g884">
    <circle
       cx="-330.35001"
       cy="-328.37"
       r="0"
       image-rendering="optimizeSpeed"
       id="circle862" />
    <circle
       cx="-330.35001"
       cy="-328.38"
       r="0"
       image-rendering="optimizeSpeed"
       id="circle864" />
    <circle
       cx="-330.35001"
       cy="-328.38"
       r="0"
       image-rendering="optimizeSpeed"
       id="circle866" />
    <circle
       cx="-352.63"
       cy="-336.84"
       r="0"
       image-rendering="optimizeSpeed"
       id="circle868" />
    <circle
       cx="-330.35001"
       cy="-328.37"
       r="0"
       image-rendering="optimizeSpeed"
       id="circle870" />
    <circle
       cx="-305.84"
       cy="-328.26999"
       r="0"
       image-rendering="optimizeSpeed"
       id="circle872" />
    <circle
       cx="-305.84"
       cy="-328.28"
       r="0"
       image-rendering="optimizeSpeed"
       id="circle874" />
    <circle
       cx="-305.84"
       cy="-328.28"
       r="0"
       image-rendering="optimizeSpeed"
       id="circle876" />
    <circle
       cx="-328.12"
       cy="-336.73999"
       r="0"
       image-rendering="optimizeSpeed"
       id="circle878" />
    <circle
       cx="-305.84"
       cy="-328.26999"
       r="0"
       image-rendering="optimizeSpeed"
       id="circle880" />
    <circle
       cx="-305.03"
       cy="-328.69"
       r="0"
       id="circle882" />
  </g>
  <circle
     cx="-39.56728"
     cy="1.0232441"
     r="0"
     fill="url(#b)"
     stroke-width="1.5715"
     id="circle892"
     style="fill:url(#b-3)" />
  <circle
     style="stroke-width:1"
     cx="-1394.1384"
     cy="-1272.1208"
     r="0"
     fill="#5e4aa6"
     id="circle41" />
  <circle
     style="stroke-width:1"
     cx="-294.58841"
     cy="-6.6659131"
     r="0"
     fill="#5e4aa6"
     fill-rule="evenodd"
     id="circle43" />
</svg>
