<?xml version="1.0" encoding="UTF-8" standalone="no"?>
<svg
   xmlns:dc="http://purl.org/dc/elements/1.1/"
   xmlns:cc="http://creativecommons.org/ns#"
   xmlns:rdf="http://www.w3.org/1999/02/22-rdf-syntax-ns#"
   xmlns:svg="http://www.w3.org/2000/svg"
   xmlns="http://www.w3.org/2000/svg"
   xmlns:xlink="http://www.w3.org/1999/xlink"
   xmlns:sodipodi="http://sodipodi.sourceforge.net/DTD/sodipodi-0.dtd"
   xmlns:inkscape="http://www.inkscape.org/namespaces/inkscape"
   inkscape:version="1.0 (4035a4fb49, 2020-05-01)"
   sodipodi:docname="slack.svg"
   id="svg25"
   version="1.1"
   height="64"
   width="64">
  <metadata
     id="metadata29">
    <rdf:RDF>
      <cc:Work
         rdf:about="">
        <dc:format>image/svg+xml</dc:format>
        <dc:type
           rdf:resource="http://purl.org/dc/dcmitype/StillImage" />
        <dc:title></dc:title>
      </cc:Work>
    </rdf:RDF>
  </metadata>
  <sodipodi:namedview
     inkscape:current-layer="svg25"
     inkscape:window-maximized="1"
     inkscape:window-y="36"
     inkscape:window-x="0"
     inkscape:cy="21.859548"
     inkscape:cx="-8.2682083"
     inkscape:zoom="4.391796"
     showgrid="false"
     id="namedview27"
     inkscape:window-height="964"
     inkscape:window-width="1920"
     inkscape:pageshadow="2"
     inkscape:pageopacity="0"
     guidetolerance="10"
     gridtolerance="10"
     objecttolerance="10"
     borderopacity="1"
     bordercolor="#666666"
     pagecolor="#ffffff" />
  <defs
     id="defs7">
    <linearGradient
       gradientUnits="userSpaceOnUse"
       gradientTransform="matrix(3.7796,0,0,3.7796,4.7579336,-10.97087)"
       y2="1.852"
       y1="15.081"
       x2="7.9373"
       x1="7.9373"
       id="linearGradient862">
      <stop
         id="stop2"
         offset="0"
         stop-color="#f1efeb" />
      <stop
         id="stop4"
         offset="1"
         stop-color="#fff" />
    </linearGradient>
    <linearGradient
       id="linearGradient1057">
      <stop
         stop-color="#fff"
         offset="0"
         id="stop856" />
      <stop
         stop-color="#fff"
         stop-opacity="0"
         offset="1"
         id="stop858" />
    </linearGradient>
    <linearGradient
       id="linearGradient982"
       x1="34.999"
       x2="34.999"
       y1="27.545"
       y2="52.847"
       gradientTransform="matrix(1.5625,0,0,1.5625,0.40633,-5.1891)"
       gradientUnits="userSpaceOnUse">
      <stop
         stop-color="#32b4ff"
         offset="0"
         id="stop861" />
      <stop
         stop-color="#3287ff"
         offset="1"
         id="stop863" />
    </linearGradient>
    <style
       type="text/css"
       id="style866" />
    <style
       type="text/css"
       id="style868" />
    <linearGradient
       id="linearGradient1047"
       x1="21.314"
       x2="21.314"
       y1="18.052"
       y2="43.681"
       gradientTransform="matrix(1.5625,0,0,1.5625,-9.2253,1.3231)"
       gradientUnits="userSpaceOnUse">
      <stop
         stop-color="#14dc78"
         offset="0"
         id="stop870" />
      <stop
         stop-color="#14a03c"
         offset="1"
         id="stop872" />
    </linearGradient>
    <linearGradient
       id="linearGradient1049"
       x1="41.729"
       x2="41.729"
       y1="12.316"
       y2="37.368"
       gradientTransform="matrix(1.5625,0,0,1.5625,-8.1072,-10.908)"
       gradientUnits="userSpaceOnUse">
      <stop
         stop-color="#ff3c64"
         offset="0"
         id="stop875" />
      <stop
         stop-color="#ff4628"
         offset="1"
         id="stop877" />
    </linearGradient>
    <linearGradient
       id="linearGradient1059"
       x1="34.427"
       x2="34.427"
       y1="32.234"
       y2="39.768"
       gradientTransform="matrix(1,0,0,1.2271,0.20646,-10.975)"
       gradientUnits="userSpaceOnUse"
       xlink:href="#linearGradient1057" />
    <linearGradient
       id="linearGradient1063"
       x1="34.427"
       x2="34.427"
       y1="32.234"
       y2="39.768"
       gradientTransform="matrix(1,0,0,1.2271,-12.55,-19.793)"
       gradientUnits="userSpaceOnUse"
       xlink:href="#linearGradient1057" />
    <linearGradient
       id="linearGradient1067"
       x1="34.427"
       x2="34.427"
       y1="32.234"
       y2="39.768"
       gradientTransform="matrix(1,0,0,1.2271,5.7554,-25.761)"
       gradientUnits="userSpaceOnUse"
       xlink:href="#linearGradient1057" />
    <filter
       id="filter11290"
       x="-.024"
       y="-.024"
       width="1.048"
       height="1.048"
       color-interpolation-filters="sRGB">
      <feGaussianBlur
         stdDeviation="0.15875313"
         id="feGaussianBlur883" />
    </filter>
    <linearGradient
       id="linearGradient1005"
       x1=".73911"
       x2="16.388"
       y1="16.296"
       y2=".64687"
       gradientTransform="matrix(3.7796,0,0,3.7796,-0.13155,0.025017)"
       gradientUnits="userSpaceOnUse">
      <stop
         stop-color="#dddfe1"
         offset="0"
         id="stop886" />
      <stop
         stop-color="#f3f4f6"
         offset="1"
         id="stop888" />
    </linearGradient>
  </defs>
  <circle
     id="circle893"
     stroke-width="0.14032"
     opacity="0.25"
     filter="url(#filter11290)"
     r="7.9376998"
     cy="8.46"
     cx="8.4937"
     transform="matrix(3.7796,0,0,3.7796,-0.10278795,0.02458453)" />
  <path
     id="path895"
     stroke-width="0.11719"
     fill="url(#linearGradient1005)"
     d="m 62.0004,32.00045 c 0,3.5964 -0.63305,7.0448 -1.794,10.24 -0.80698,2.2212 -1.8686,4.3212 -3.1519,6.2636 -0.53754,0.8167 -1.1155,1.6054 -1.729,2.3633 -1.9641,2.4257 -4.2982,4.5382 -6.9186,6.2526 -0.96493,0.63187 -1.9678,1.2099 -3.0061,1.7277 -4.0321,2.0179 -8.5839,3.153 -13.401,3.153 -4.8171,0 -9.3689,-1.1351 -13.401,-3.1531 -1.0384,-0.51799 -2.0425,-1.096 -3.0074,-1.7277 -2.6535,-1.7376 -5.0155,-3.8832 -6.9957,-6.349 -0.61468,-0.76408 -1.1915,-1.56 -1.729,-2.3841 -1.249,-1.9102 -2.2837,-3.9712 -3.0747,-6.1494 -1.1608,-3.1949 -1.7927,-6.6419 -1.7927,-10.237 0,-16.569 13.432,-30.001 30.001,-30.001 8.317,0 15.843,3.3846 21.277,8.8507 1.5661,1.5747 2.9584,3.3234 4.1436,5.214 1.1205,1.7805 2.0572,3.6882 2.7857,5.6951 1.161,3.196 1.7941,6.6442 1.7941,10.24 z"
     style="fill:url(#linearGradient1005)" />
  <g
     id="g23"
     stroke-width="1.3043">
    <path
       id="path15"
       fill="#2eb67d"
       d="m36.565 15.043a3.2609 3.2609 0 0 0-3.2609 3.2609v9.1304a3.2609 3.2609 0 0 0 3.2609 3.2609 3.2609 3.2609 0 0 0 3.2609-3.2609v-9.1304a3.2609 3.2609 0 0 0-3.2609-3.2609zm9.1304 9.1304a3.2609 3.2609 0 0 0-3.2609 3.2609v3.2609h3.2609a3.2609 3.2609 0 0 0 3.2609-3.2609 3.2609 3.2609 0 0 0-3.2609-3.2609z" />
    <path
       id="path17"
       fill="#ecb22e"
       d="m48.957 36.565a3.2609 3.2609 0 0 0-3.2609-3.2609h-9.1304a3.2609 3.2609 0 0 0-3.2609 3.2609 3.2609 3.2609 0 0 0 3.2609 3.2609h9.1304a3.2609 3.2609 0 0 0 3.2609-3.2609zm-9.1304 9.1304a3.2609 3.2609 0 0 0-3.2609-3.2609h-3.2609v3.2609a3.2609 3.2609 0 0 0 3.2609 3.2609 3.2609 3.2609 0 0 0 3.2609-3.2609z" />
    <path
       id="path19"
       fill="#d6285e"
       d="m27.435 48.957a3.2609 3.2609 0 0 0 3.2609-3.2609v-9.1304a3.2609 3.2609 0 0 0-3.2609-3.2609 3.2609 3.2609 0 0 0-3.2609 3.2609v9.1304a3.2609 3.2609 0 0 0 3.2609 3.2609zm-9.1304-9.1304a3.2609 3.2609 0 0 0 3.2609-3.2609v-3.2609h-3.2609a3.2609 3.2609 0 0 0-3.2609 3.2609 3.2609 3.2609 0 0 0 3.2609 3.2609z" />
    <path
       id="path21"
       fill="#36c5f0"
       d="m15.043 27.435a3.2609 3.2609 0 0 0 3.2609 3.2609h9.1304a3.2609 3.2609 0 0 0 3.2609-3.2609 3.2609 3.2609 0 0 0-3.2609-3.2609h-9.1304a3.2609 3.2609 0 0 0-3.2609 3.2609zm9.1304-9.1304a3.2609 3.2609 0 0 0 3.2609 3.2609h3.2609v-3.2609a3.2609 3.2609 0 0 0-3.2609-3.2609 3.2609 3.2609 0 0 0-3.2609 3.2609z" />
  </g>
  <circle
     id="circle897"
     fill="#5e4aa6"
     r="0"
     cy="-1256.4594"
     cx="-1314.8979" />
  <circle
     id="circle899"
     fill-rule="evenodd"
     fill="#5e4aa6"
     r="0"
     cy="8.9956017"
     cx="-215.34802" />
  <g
     id="g923"
     stroke-width="0.26458"
     fill="#5e4aa6"
     transform="matrix(3.7796,0,0,3.7796,-169.11803,-53.579398)">
    <circle
       id="circle915"
       r="0"
       cy="-328.38"
       cx="-330.35001" />
    <circle
       id="circle917"
       r="0"
       cy="-326.25"
       cx="-312.10999" />
    <circle
       id="circle919"
       r="0"
       cy="-333.07001"
       cx="-306.01999" />
    <circle
       id="circle921"
       r="0"
       cy="-326.01001"
       cx="-308.84" />
  </g>
</svg>
