<?xml version="1.0" encoding="UTF-8" standalone="no"?>
<svg
   xmlns:dc="http://purl.org/dc/elements/1.1/"
   xmlns:cc="http://creativecommons.org/ns#"
   xmlns:rdf="http://www.w3.org/1999/02/22-rdf-syntax-ns#"
   xmlns:svg="http://www.w3.org/2000/svg"
   xmlns="http://www.w3.org/2000/svg"
   xmlns:sodipodi="http://sodipodi.sourceforge.net/DTD/sodipodi-0.dtd"
   xmlns:inkscape="http://www.inkscape.org/namespaces/inkscape"
   inkscape:version="1.0 (4035a4fb49, 2020-05-01)"
   sodipodi:docname="softwarecenter.svg"
   id="svg19"
   viewBox="0 0 16.933 16.933"
   version="1.1"
   height="64"
   width="64">
  <metadata
     id="metadata23">
    <rdf:RDF>
      <cc:Work
         rdf:about="">
        <dc:format>image/svg+xml</dc:format>
        <dc:type
           rdf:resource="http://purl.org/dc/dcmitype/StillImage" />
        <dc:title></dc:title>
      </cc:Work>
    </rdf:RDF>
  </metadata>
  <sodipodi:namedview
     inkscape:current-layer="svg19"
     inkscape:window-maximized="1"
     inkscape:window-y="36"
     inkscape:window-x="0"
     inkscape:cy="2.7734629"
     inkscape:cx="12.025496"
     inkscape:zoom="4.391796"
     showgrid="false"
     id="namedview21"
     inkscape:window-height="964"
     inkscape:window-width="1920"
     inkscape:pageshadow="2"
     inkscape:pageopacity="0"
     guidetolerance="10"
     gridtolerance="10"
     objecttolerance="10"
     borderopacity="1"
     bordercolor="#666666"
     pagecolor="#ffffff" />
  <defs
     id="defs7">
    <linearGradient
       gradientUnits="userSpaceOnUse"
       y2="15.436"
       y1="1.483"
       x2="8.6487"
       x1="8.6487"
       id="linearGradient1029">
      <stop
         id="stop2"
         offset="0"
         stop-color="#17b7f1" />
      <stop
         id="stop4"
         offset="1"
         stop-color="#1763e1" />
    </linearGradient>
    <filter
       id="filter11290"
       x="-.024"
       y="-.024"
       width="1.048"
       height="1.048"
       color-interpolation-filters="sRGB">
      <feGaussianBlur
         stdDeviation="0.15875313"
         id="feGaussianBlur848" />
    </filter>
    <linearGradient
       id="linearGradient1005"
       x1=".73911"
       x2="16.388"
       y1="16.296"
       y2=".64687"
       gradientTransform="translate(-0.0078552,-5.0139e-5)"
       gradientUnits="userSpaceOnUse">
      <stop
         stop-color="#ff8228"
         offset="0"
         id="stop851" />
      <stop
         stop-color="#ff7346"
         offset=".48355"
         id="stop853" />
      <stop
         stop-color="#ff8c55"
         offset="1"
         id="stop855" />
    </linearGradient>
  </defs>
  <g
     transform="translate(-0.02719985,0.00650014)"
     id="g905">
    <circle
       cx="8.4937"
       cy="8.46"
       r="7.9376998"
       filter="url(#filter11290)"
       opacity="0.25"
       stroke-width="0.14032"
       id="circle862" />
    <path
       style="fill:url(#linearGradient1005)"
       d="m 16.431,8.4599 c 0,0.95154 -0.16749,1.8639 -0.47464,2.7094 -0.21351,0.58768 -0.49439,1.1433 -0.83393,1.6572 -0.14222,0.21608 -0.29514,0.42475 -0.45746,0.62529 -0.51966,0.64179 -1.1372,1.2007 -1.8305,1.6543 -0.2553,0.16718 -0.52065,0.3201 -0.79536,0.45712 -1.0668,0.53389 -2.2711,0.83421 -3.5456,0.83421 -1.2745,0 -2.4788,-0.30032 -3.5456,-0.83424 -0.27474,-0.13705 -0.5404,-0.28997 -0.7957,-0.45712 -0.70207,-0.45973 -1.327,-1.0274 -1.8509,-1.6798 -0.16263,-0.20216 -0.31524,-0.41275 -0.45746,-0.63078 -0.33046,-0.5054 -0.60421,-1.0507 -0.8135,-1.627 -0.30711,-0.84529 -0.4743,-1.7573 -0.4743,-2.7085 0,-4.3838 3.5537,-7.9375 7.9375,-7.9375 2.2005,0 4.1917,0.89548 5.6295,2.3417 0.41436,0.41662 0.78274,0.87929 1.0963,1.3795 0.29645,0.47107 0.54428,0.97582 0.73704,1.5068 0.30718,0.84559 0.47467,1.7579 0.47467,2.7094 z"
       fill="url(#linearGradient1005)"
       stroke-width="0.031006"
       id="path864" />
    <g
       fill="#5e4aa6"
       stroke-width="0.26458"
       id="g874">
      <circle
         cx="-330.35001"
         cy="-328.38"
         r="0"
         id="circle866" />
      <circle
         cx="-312.10999"
         cy="-326.25"
         r="0"
         id="circle868" />
      <circle
         cx="-306.01999"
         cy="-333.07001"
         r="0"
         id="circle870" />
      <circle
         cx="-308.84"
         cy="-326.01001"
         r="0"
         id="circle872" />
    </g>
    <g
       transform="translate(-20.422,-2.583)"
       id="g882">
      <path
         d="m 32.22,5.9354 a 3.3072,3.3072 0 0 1 0.0027,0.13228 3.3072,3.3072 0 0 1 -3.3072,3.3072 3.3072,3.3072 0 0 1 -3.3072,-3.3072 3.3072,3.3072 0 0 1 0.0026,-0.13247"
         fill="none"
         stroke="#ffffff"
         stroke-dashoffset="0.42096"
         stroke-width="0.52916"
         id="path876" />
      <text
         x="25.170628"
         y="14.342777"
         fill="#ffffff"
         font-family="sans-serif"
         font-size="2.6665px"
         letter-spacing="0px"
         stroke-width="0.066664"
         word-spacing="0px"
         style="line-height:1.25"
         xml:space="preserve"
         id="text880"><tspan
           x="25.170628"
           y="14.342777"
           fill="#ffffff"
           stroke-width="0.066664"
           id="tspan878">SHOP</tspan></text>
    </g>
  </g>
</svg>
