<?xml version="1.0" encoding="UTF-8"?>
<svg width="64" height="64" version="1.1" viewBox="0 0 64 64" xmlns="http://www.w3.org/2000/svg">
 <defs>
  <linearGradient id="linearGradient1005" x1="2.9667" x2="16.101" y1="14.069" y2=".93425" gradientTransform="matrix(3.7796 0 0 3.7796 -.13267 .025297)" gradientUnits="userSpaceOnUse">
   <stop stop-color="#ff7d50" offset="0"/>
   <stop stop-color="#fa4b5a" offset=".51596"/>
   <stop stop-color="#ff509b" offset="1"/>
  </linearGradient>
  <filter id="filter11290" x="-.024" y="-.024" width="1.048" height="1.048" color-interpolation-filters="sRGB">
   <feGaussianBlur stdDeviation="0.15875313"/>
  </filter>
 </defs>
 <circle transform="matrix(3.7796 0 0 3.7796 1.5533e-5 1.5533e-5)" cx="8.4665" cy="8.4665" r="7.9377" filter="url(#filter11290)" opacity=".25" stroke-width=".14032"/>
 <path d="m62 32c0 3.5964-0.63304 7.0448-1.794 10.24-0.80699 2.2212-1.8686 4.3212-3.1519 6.2636-0.53754 0.8167-1.1155 1.6054-1.729 2.3633-1.9641 2.4257-4.2982 4.5382-6.9186 6.2526-0.96493 0.63187-1.9678 1.2098-3.0061 1.7277-4.0321 2.0179-8.5839 3.153-13.401 3.153-4.8171 0-9.3689-1.1351-13.401-3.1531-1.0384-0.51799-2.0425-1.096-3.0074-1.7277-2.6535-1.7376-5.0155-3.8832-6.9957-6.349-0.61468-0.76408-1.1915-1.56-1.729-2.3841-1.249-1.9102-2.2837-3.9712-3.0747-6.1494-1.1608-3.1949-1.7927-6.6419-1.7927-10.237 0-16.569 13.432-30.001 30.001-30.001 8.317 0 15.843 3.3846 21.277 8.8507 1.5661 1.5747 2.9584 3.3234 4.1436 5.214 1.1205 1.7805 2.0572 3.6882 2.7857 5.6951 1.161 3.196 1.7941 6.6442 1.7941 10.24z" fill="url(#linearGradient1005)" stroke-width=".11719"/>
 <g transform="matrix(1.3333 0 0 1.3333 98.56 -15.868)" fill="#f9f9f9">
  <path d="m-43.77 22.838-14.523 4.15-5.215 13.557 9.457 8.404 0.256-0.064 12.266-3.066 5.186-15.553zm-0.883 1.293-4.449 15.12-8.01-11.566zm0.979 0.221 6.02 6.02-10.314 8.596zm-14.12 4.109 7.574 10.939h-11.781zm19.842 3.451-4.229 12.689-5.922-4.23m-14.06 0.029h12.465l0.107 0.135-4.438 7.098zm13.389 0.717 5.688 4.061-9.75 2.437z" color="#000000" color-rendering="auto" fill-rule="evenodd" image-rendering="auto" shape-rendering="auto" solid-color="#000000" isolation="auto" mix-blend-mode="normal" white-space="normal"/>
  <circle cx="-62.92" cy="40.401" r="2"/>
  <circle cx="-48.92" cy="40.401" r="2"/>
  <circle cx="-53.92" cy="48.401" r="2"/>
  <circle cx="-41.92" cy="45.401" r="2"/>
  <circle cx="-36.92" cy="30.401" r="2"/>
  <circle cx="-43.92" cy="23.401" r="2"/>
  <circle cx="-57.92" cy="27.401" r="2"/>
 </g>
</svg>
