<?xml version="1.0" encoding="UTF-8"?>
<svg width="64" height="64" version="1.1" xmlns="http://www.w3.org/2000/svg" xmlns:cc="http://creativecommons.org/ns#" xmlns:dc="http://purl.org/dc/elements/1.1/" xmlns:rdf="http://www.w3.org/1999/02/22-rdf-syntax-ns#">
 <metadata>
  <rdf:RDF>
   <cc:Work rdf:about="">
    <dc:format>image/svg+xml</dc:format>
    <dc:type rdf:resource="http://purl.org/dc/dcmitype/StillImage"/>
    <dc:title/>
   </cc:Work>
  </rdf:RDF>
 </metadata>
 <defs>
  <filter id="filter11290" x="-.024" y="-.024" width="1.048" height="1.048" color-interpolation-filters="sRGB">
   <feGaussianBlur stdDeviation="0.15875313"/>
  </filter>
  <linearGradient id="linearGradient1005" x1=".73911" x2="16.388" y1="16.296" y2=".64687" gradientTransform="matrix(3.7796 0 0 3.7796 -.13216 .024756)" gradientUnits="userSpaceOnUse">
   <stop stop-color="#16ff6c" offset="0"/>
   <stop stop-color="#9fff1b" offset="1"/>
  </linearGradient>
 </defs>
 <circle transform="scale(3.7796)" cx="8.4665" cy="8.4665" r="7.9377" filter="url(#filter11290)" opacity=".25" stroke-width=".14032"/>
 <path d="m62 32c0 3.5964-0.63304 7.0448-1.794 10.24-0.80698 2.2212-1.8686 4.3212-3.1519 6.2636-0.53754 0.8167-1.1155 1.6054-1.729 2.3633-1.9641 2.4257-4.2982 4.5382-6.9186 6.2526-0.96493 0.63187-1.9678 1.2099-3.0061 1.7277-4.0321 2.0179-8.5839 3.153-13.401 3.153s-9.3689-1.1351-13.401-3.1531c-1.0384-0.51799-2.0425-1.096-3.0074-1.7277-2.6535-1.7376-5.0155-3.8832-6.9957-6.349-0.61468-0.76408-1.1915-1.56-1.729-2.3841-1.249-1.9102-2.2837-3.9712-3.0747-6.1494-1.1608-3.1949-1.7927-6.6419-1.7927-10.237 0-16.569 13.432-30.001 30.001-30.001 8.317 0 15.843 3.3846 21.277 8.8507 1.5661 1.5747 2.9584 3.3234 4.1436 5.214 1.1205 1.7805 2.0572 3.6882 2.7857 5.6951 1.161 3.196 1.7941 6.6442 1.7941 10.24z" fill="url(#linearGradient1005)" stroke-width=".11719"/>
 <path d="m44.296 44.411c-0.50323 0.82529-1.5835 1.087-2.4088 0.58039-6.5963-4.0292-14.9-4.9417-24.68-2.7074-0.94238 0.21471-1.8817-0.37574-2.0964-1.3185-0.21572-0.94271 0.37239-1.8821 1.3171-2.0968 10.702-2.445 19.882-1.3923 27.287 3.1334 0.82529 0.50658 1.087 1.5835 0.58039 2.4088zm3.4387-7.6497c-0.63406 1.0306-1.9827 1.356-3.0126 0.72196-7.5517-4.6418-19.063-5.986-27.995-3.2747-1.1584 0.34991-2.3819-0.30294-2.7335-1.4594-0.3489-1.1584 0.30428-2.3796 1.4607-2.7318 10.203-3.0958 22.887-1.5962 31.56 3.7329 1.0299 0.63406 1.3554 1.9827 0.72129 3.0113zm0.29522-7.9657c-9.0547-5.3781-23.994-5.8726-32.639-3.2488-1.3882 0.42103-2.8563-0.36266-3.277-1.7509-0.4207-1.3889 0.36232-2.856 1.7516-3.278 9.9239-3.0126 26.421-2.4306 36.846 3.7581 1.2514 0.74108 1.6606 2.3538 0.91923 3.6007-0.73806 1.2487-2.3551 1.6603-3.5997 0.91889z" fill="#141414" stroke-width="1.4047"/>
 <g transform="matrix(3.7796 0 0 3.7796 -17.158 -90.764)" fill="#5e4aa6" stroke-width=".26458">
  <circle cx="-330.35" cy="-328.38" r="0"/>
  <circle cx="-312.11" cy="-326.25" r="0"/>
  <circle cx="-306.02" cy="-333.07" r="0"/>
  <circle cx="-308.84" cy="-326.01" r="0"/>
 </g>
</svg>
