<?xml version="1.0" encoding="UTF-8" standalone="no"?>
<svg
   xmlns:dc="http://purl.org/dc/elements/1.1/"
   xmlns:cc="http://creativecommons.org/ns#"
   xmlns:rdf="http://www.w3.org/1999/02/22-rdf-syntax-ns#"
   xmlns:svg="http://www.w3.org/2000/svg"
   xmlns="http://www.w3.org/2000/svg"
   xmlns:xlink="http://www.w3.org/1999/xlink"
   xmlns:sodipodi="http://sodipodi.sourceforge.net/DTD/sodipodi-0.dtd"
   xmlns:inkscape="http://www.inkscape.org/namespaces/inkscape"
   inkscape:version="1.0 (4035a4fb49, 2020-05-01)"
   sodipodi:docname="stoken-gui.svg"
   id="svg40"
   viewBox="0 0 16.933 16.933"
   version="1.1"
   height="64"
   width="64">
  <metadata
     id="metadata44">
    <rdf:RDF>
      <cc:Work
         rdf:about="">
        <dc:format>image/svg+xml</dc:format>
        <dc:type
           rdf:resource="http://purl.org/dc/dcmitype/StillImage" />
        <dc:title></dc:title>
      </cc:Work>
    </rdf:RDF>
  </metadata>
  <sodipodi:namedview
     inkscape:current-layer="svg40"
     inkscape:window-maximized="1"
     inkscape:window-y="36"
     inkscape:window-x="0"
     inkscape:cy="25.189034"
     inkscape:cx="15.788903"
     inkscape:zoom="4.391796"
     showgrid="false"
     id="namedview42"
     inkscape:window-height="964"
     inkscape:window-width="1920"
     inkscape:pageshadow="2"
     inkscape:pageopacity="0"
     guidetolerance="10"
     gridtolerance="10"
     objecttolerance="10"
     borderopacity="1"
     bordercolor="#666666"
     pagecolor="#ffffff" />
  <defs
     id="defs18">
    <linearGradient
       gradientUnits="userSpaceOnUse"
       y2="13.758"
       y1="3.175"
       x2="6.6145"
       x1="6.6145"
       id="f">
      <stop
         id="stop2"
         offset="0"
         stop-color="#15c4fc" />
      <stop
         id="stop4"
         offset="1"
         stop-color="#1863ee" />
    </linearGradient>
    <filter
       color-interpolation-filters="sRGB"
       height="1.12"
       width="1.12"
       y="-.06"
       x="-.06"
       id="k">
      <feGaussianBlur
         id="feGaussianBlur7"
         stdDeviation="0.264575" />
    </filter>
    <filter
       color-interpolation-filters="sRGB"
       height="1.1007"
       width="1.1484"
       y="-.050355"
       x="-.074214"
       id="i">
      <feGaussianBlur
         id="feGaussianBlur10"
         stdDeviation="0.089997363" />
    </filter>
    <linearGradient
       gradientTransform="translate(0.23095141,-2.8151878)"
       gradientUnits="userSpaceOnUse"
       y2="1.852"
       y1="15.081"
       x2="7.9373"
       x1="7.9373"
       id="linearGradient862">
      <stop
         id="stop13"
         offset="0"
         stop-color="#f1efeb" />
      <stop
         id="stop15"
         offset="1"
         stop-color="#fff" />
    </linearGradient>
    <linearGradient
       id="linearGradient1057">
      <stop
         stop-color="#fff"
         offset="0"
         id="stop871" />
      <stop
         stop-color="#fff"
         stop-opacity="0"
         offset="1"
         id="stop873" />
    </linearGradient>
    <linearGradient
       id="linearGradient982"
       x1="34.999"
       x2="34.999"
       y1="27.545"
       y2="52.847"
       gradientTransform="matrix(1.5625,0,0,1.5625,0.40633,-5.1891)"
       gradientUnits="userSpaceOnUse">
      <stop
         stop-color="#32b4ff"
         offset="0"
         id="stop876" />
      <stop
         stop-color="#3287ff"
         offset="1"
         id="stop878" />
    </linearGradient>
    <style
       type="text/css"
       id="style881" />
    <style
       type="text/css"
       id="style883" />
    <linearGradient
       id="linearGradient1047"
       x1="21.314"
       x2="21.314"
       y1="18.052"
       y2="43.681"
       gradientTransform="matrix(1.5625,0,0,1.5625,-9.2253,1.3231)"
       gradientUnits="userSpaceOnUse">
      <stop
         stop-color="#14dc78"
         offset="0"
         id="stop885" />
      <stop
         stop-color="#14a03c"
         offset="1"
         id="stop887" />
    </linearGradient>
    <linearGradient
       id="linearGradient1049"
       x1="41.729"
       x2="41.729"
       y1="12.316"
       y2="37.368"
       gradientTransform="matrix(1.5625,0,0,1.5625,-8.1072,-10.908)"
       gradientUnits="userSpaceOnUse">
      <stop
         stop-color="#ff3c64"
         offset="0"
         id="stop890" />
      <stop
         stop-color="#ff4628"
         offset="1"
         id="stop892" />
    </linearGradient>
    <linearGradient
       id="linearGradient1059"
       x1="34.427"
       x2="34.427"
       y1="32.234"
       y2="39.768"
       gradientTransform="matrix(1,0,0,1.2271,0.20646,-10.975)"
       gradientUnits="userSpaceOnUse"
       xlink:href="#linearGradient1057" />
    <linearGradient
       id="linearGradient1063"
       x1="34.427"
       x2="34.427"
       y1="32.234"
       y2="39.768"
       gradientTransform="matrix(1,0,0,1.2271,-12.55,-19.793)"
       gradientUnits="userSpaceOnUse"
       xlink:href="#linearGradient1057" />
    <linearGradient
       id="linearGradient1067"
       x1="34.427"
       x2="34.427"
       y1="32.234"
       y2="39.768"
       gradientTransform="matrix(1,0,0,1.2271,5.7554,-25.761)"
       gradientUnits="userSpaceOnUse"
       xlink:href="#linearGradient1057" />
    <filter
       id="filter11290"
       x="-.024"
       y="-.024"
       width="1.048"
       height="1.048"
       color-interpolation-filters="sRGB">
      <feGaussianBlur
         stdDeviation="0.15875313"
         id="feGaussianBlur898" />
    </filter>
    <linearGradient
       id="linearGradient1005"
       x1=".73911"
       x2="16.388"
       y1="16.296"
       y2=".64687"
       gradientTransform="translate(-0.0348049,0.0066191)"
       gradientUnits="userSpaceOnUse">
      <stop
         stop-color="#dddfe1"
         offset="0"
         id="stop901" />
      <stop
         stop-color="#f3f4f6"
         offset="1"
         id="stop903" />
    </linearGradient>
  </defs>
  <circle
     id="circle908"
     stroke-width="0.14032"
     opacity="0.25"
     filter="url(#filter11290)"
     r="7.9376998"
     cy="8.4665003"
     cx="8.4665003" />
  <path
     id="path910"
     stroke-width="0.0310059"
     fill="url(#linearGradient1005)"
     d="m 16.40395,8.466619 c 0,0.9515288 -0.167492,1.8639 -0.474654,2.70928 -0.213509,0.587681 -0.49439,1.143295 -0.833923,1.657211 -0.142222,0.216081 -0.295137,0.424754 -0.457456,0.625278 -0.519658,0.641787 -1.13721,1.200708 -1.83051,1.654301 -0.255299,0.167179 -0.520637,0.320113 -0.795348,0.457112 -1.066806,0.533892 -2.2711129,0.834215 -3.5456119,0.834215 -1.274499,0 -2.478806,-0.300323 -3.545611,-0.834242 -0.274738,-0.137049 -0.540401,-0.289977 -0.795693,-0.457111 -0.702058,-0.459731 -1.326991,-1.02741 -1.850909,-1.679807 -0.162631,-0.202159 -0.315245,-0.412742 -0.457455,-0.630781 -0.330458,-0.505397 -0.604217,-1.050692 -0.813499,-1.626996 -0.307122,-0.845301 -0.474309,-1.7573016 -0.474309,-2.7084864 0,-4.3837949 3.553814,-7.9376082 7.937608,-7.9376082 2.2004969,0 4.1917119,0.8954911 5.6294289,2.3417016 0.414356,0.4166311 0.782728,0.8792989 1.096306,1.3795103 0.29646,0.4710813 0.54429,0.975817 0.737035,1.5067988 0.307175,0.8455917 0.47468,1.75791 0.47468,2.70928 z"
     style="fill:url(#linearGradient1005)" />
  <g
     id="g38"
     transform="translate(29.978)">
    <g
       id="g30"
       transform="translate(-28.126)">
      <circle
         id="circle24"
         style="paint-order:stroke markers fill"
         opacity=".25"
         filter="url(#k)"
         r="5.2915"
         cy="8.4665"
         cx="6.6145" />
      <circle
         id="circle26"
         style="paint-order:stroke markers fill"
         fill="url(#f)"
         r="5.2915"
         cy="8.4665"
         cx="6.6145" />
      <path
         id="path28"
         style="paint-order:stroke markers fill"
         stroke-width="3.7796"
         opacity=".25"
         d="M 26,16 A 15.999,15.999 0 0 0 15.816,19.6719 V 22.418 A 14,14 0 0 0 11.9996,32 14,14 0 0 0 15.816,41.5938 v 2.7363 A 15.999,15.999 0 0 0 26,48 15.999,15.999 0 0 0 41.998,32.002 15.999,15.999 0 0 0 26,16 Z"
         transform="matrix(.26458 0 0 .26458 -.26457 0)" />
    </g>
    <g
       id="g36"
       aria-label="S"
       stroke-width=".26458"
       transform="translate(-28.126)">
      <path
         id="path32"
         opacity=".25"
         filter="url(#i)"
         d="m7.8204 6.5323v0.54552q-0.31845-0.1523-0.6009-0.22707t-0.54552-0.074767q-0.45691 0-0.70613 0.17722-0.24645 0.17722-0.24645 0.50398 0 0.27414 0.16338 0.41537 0.16615 0.13846 0.62582 0.2243l0.33783 0.069228q0.62582 0.11907 0.92212 0.42091 0.29907 0.29907 0.29907 0.80305 0 0.6009-0.40429 0.91104-0.40152 0.31014-1.1797 0.31014-0.29353 0-0.62582-0.06646-0.32953-0.06646-0.68398-0.19661v-0.57598q0.3406 0.19107 0.66736 0.28799t0.64244 0.09692q0.47906 0 0.73936-0.1883t0.2603-0.53721q0-0.3046-0.1883-0.47629-0.18553-0.17169-0.61198-0.25753l-0.3406-0.066459q-0.62582-0.12461-0.90551-0.39045-0.27968-0.26584-0.27968-0.73936 0-0.54829 0.38491-0.86397 0.38768-0.31568 1.0661-0.31568 0.29076 0 0.59259 0.052614 0.30184 0.052613 0.61752 0.15784z" />
      <path
         id="path34"
         fill="#fff"
         d="m7.8204 6.5323v0.54552q-0.31845-0.1523-0.6009-0.22707t-0.54552-0.074767q-0.45691 0-0.70613 0.17722-0.24645 0.17722-0.24645 0.50398 0 0.27414 0.16338 0.41537 0.16615 0.13846 0.62582 0.2243l0.33783 0.069228q0.62582 0.11907 0.92212 0.42091 0.29907 0.29907 0.29907 0.80305 0 0.6009-0.40429 0.91104-0.40152 0.31014-1.1797 0.31014-0.29353 0-0.62582-0.06646-0.32953-0.06646-0.68398-0.19661v-0.57598q0.3406 0.19107 0.66736 0.28799t0.64244 0.09692q0.47906 0 0.73936-0.1883t0.2603-0.53721q0-0.3046-0.1883-0.47629-0.18553-0.17169-0.61198-0.25753l-0.3406-0.066459q-0.62582-0.12461-0.90551-0.39045-0.27968-0.26584-0.27968-0.73936 0-0.54829 0.38491-0.86397 0.38768-0.31568 1.0661-0.31568 0.29076 0 0.59259 0.052614 0.30184 0.052613 0.61752 0.15784z" />
    </g>
  </g>
  <circle
     style="stroke-width:0.264578"
     id="circle912"
     fill="#5e4aa6"
     r="0"
     cy="-336.94952"
     cx="-352.3136" />
  <circle
     style="stroke-width:0.264578"
     id="circle914"
     fill-rule="evenodd"
     fill="#5e4aa6"
     r="0"
     cy="-2.1378169"
     cx="-61.396732" />
  <g
     id="g938"
     stroke-width="0.26458"
     fill="#5e4aa6"
     transform="translate(-49.165288,-18.693793)">
    <circle
       id="circle930"
       r="0"
       cy="-328.38"
       cx="-330.35001" />
    <circle
       id="circle932"
       r="0"
       cy="-326.25"
       cx="-312.10999" />
    <circle
       id="circle934"
       r="0"
       cy="-333.07001"
       cx="-306.01999" />
    <circle
       id="circle936"
       r="0"
       cy="-326.01001"
       cx="-308.84" />
  </g>
</svg>
