<?xml version="1.0" encoding="UTF-8"?>
<!-- Created with Inkscape (http://www.inkscape.org/) -->
<svg width="64" height="64" version="1.1" viewBox="0 0 16.933 16.933" xmlns="http://www.w3.org/2000/svg" xmlns:cc="http://creativecommons.org/ns#" xmlns:dc="http://purl.org/dc/elements/1.1/" xmlns:rdf="http://www.w3.org/1999/02/22-rdf-syntax-ns#">
 <defs>
  <filter id="filter11290" x="-.024" y="-.024" width="1.048" height="1.048" color-interpolation-filters="sRGB">
   <feGaussianBlur stdDeviation="0.15875313"/>
  </filter>
  <linearGradient id="linearGradient1005" x1=".73911" x2="16.388" y1="16.296" y2=".64687" gradientTransform="translate(-.0078552 -5.0139e-5)" gradientUnits="userSpaceOnUse">
   <stop stop-color="#ff8228" offset="0"/>
   <stop stop-color="#ff7346" offset=".48355"/>
   <stop stop-color="#ff8c55" offset="1"/>
  </linearGradient>
  <filter id="filter859" x="-.19864" y="-.085967" width="1.3973" height="1.1719" color-interpolation-filters="sRGB">
   <feGaussianBlur stdDeviation="0.18176567"/>
  </filter>
 </defs>
 <metadata>
  <rdf:RDF>
   <cc:Work rdf:about="">
    <dc:format>image/svg+xml</dc:format>
    <dc:type rdf:resource="http://purl.org/dc/dcmitype/StillImage"/>
    <dc:title/>
   </cc:Work>
  </rdf:RDF>
 </metadata>
 <circle cx="8.4937" cy="8.46" r="7.9377" filter="url(#filter11290)" opacity=".25" stroke-width=".14032"/>
 <path d="m16.431 8.4599c0 0.95154-0.16749 1.8639-0.47464 2.7094-0.21351 0.58768-0.49439 1.1433-0.83393 1.6572-0.14222 0.21608-0.29514 0.42475-0.45746 0.62529-0.51966 0.64179-1.1372 1.2007-1.8305 1.6543-0.2553 0.16718-0.52065 0.3201-0.79536 0.45712-1.0668 0.53389-2.2711 0.83421-3.5456 0.83421s-2.4788-0.30032-3.5456-0.83424c-0.27474-0.13705-0.5404-0.28997-0.7957-0.45712-0.70207-0.45973-1.327-1.0274-1.8509-1.6798-0.16263-0.20216-0.31524-0.41275-0.45746-0.63078-0.33046-0.5054-0.60421-1.0507-0.8135-1.627-0.30711-0.84529-0.4743-1.7573-0.4743-2.7085 0-4.3838 3.5537-7.9375 7.9375-7.9375 2.2005 0 4.1917 0.89548 5.6295 2.3417 0.41436 0.41662 0.78274 0.87929 1.0963 1.3795 0.29645 0.47107 0.54428 0.97582 0.73704 1.5068 0.30718 0.84559 0.47467 1.7579 0.47467 2.7094z" fill="url(#linearGradient1005)" stroke-width=".031006"/>
 <g fill="#5e4aa6" stroke-width=".26458">
  <circle cx="-330.35" cy="-328.38" r="0"/>
  <circle cx="-312.11" cy="-326.25" r="0"/>
  <circle cx="-306.02" cy="-333.07" r="0"/>
  <circle cx="-308.84" cy="-326.01" r="0"/>
 </g>
 <g transform="translate(-25.875 -4.018)">
  <path d="m37.673 7.3704a3.3072 3.3072 0 0 1 0.0027 0.13228 3.3072 3.3072 0 0 1-3.3072 3.3072 3.3072 3.3072 0 0 1-3.3072-3.3072 3.3072 3.3072 0 0 1 0.0026-0.13247" fill="none" stroke="#fff" stroke-dashoffset=".42096" stroke-width=".52916"/>
  <rect transform="matrix(-.70711 .70711 .70711 .70711 0 0)" x="-12.307" y="33.926" width=".51973" height="2.89" ry=".25986" fill="#fafafa" stroke-width=".61734"/>
  <path transform="matrix(1.0596 0 0 1 25.281 4.6607)" d="m8.4673 7.8556c-0.14396 0-0.25968 0.11603-0.25968 0.25999v4.5548c0 0.0135 0.0019 0.02631 0.0038 0.03924 5.06e-4 0.0033 3.27e-4 0.0066 9.88e-4 0.0099 0.0029 0.01507 0.0077 0.02937 0.01308 0.04339 6.79e-4 0.0017 9.26e-4 0.0035 0.0016 0.0051 0.02629 0.06489 0.0777 0.11662 0.1426 0.14291 0.0022 9.26e-4 0.0044 0.0014 0.0067 0.0022 0.01352 0.0051 0.0273 0.0094 0.04179 0.01212 0.01637 0.0032 0.03284 0.0048 0.04945 0.0048 0.0169-2.1e-5 0.03347-0.0017 0.04945-0.0048 1e-4 -1.9e-5 2.12e-4 2e-5 3.26e-4 0 0.01228-0.0024 0.02382-0.0065 0.03541-0.01052 0.0044-0.0015 0.0091-0.0021 0.0134-0.0038 0.0142-0.0058 0.0274-0.01325 0.04019-0.02137 0.0014-9.26e-4 3e-3 -0.0016 0.0044-0.0025 0.01456-0.0096 0.02822-0.02087 0.04052-0.03318l1.6761-1.6761c0.1018-0.1018 0.1018-0.2657 0-0.3675s-0.2657-0.1018-0.3675 0l-1.2326 1.2326v-3.9274c5.5e-5 -0.14396-0.11597-0.25999-0.25994-0.25999z" fill="#ff6446" filter="url(#filter859)" stroke-width=".61734"/>
  <path d="m34.368 12.516c-0.14396 0-0.25968 0.11603-0.25968 0.25999v4.5548c0 0.0135 0.0019 0.02631 0.0038 0.03924 5.06e-4 0.0033 3.27e-4 0.0066 9.88e-4 0.0099 0.0029 0.01507 0.0077 0.02937 0.01308 0.04339 6.79e-4 0.0017 9.26e-4 0.0035 0.0016 0.0051 0.02629 0.06489 0.0777 0.11662 0.1426 0.14291 0.0022 9.26e-4 0.0044 0.0014 0.0067 0.0022 0.01352 0.0051 0.0273 0.0094 0.04179 0.01212 0.01637 0.0032 0.03284 0.0048 0.04945 0.0048 0.0169-2.1e-5 0.03347-0.0017 0.04945-0.0048 1e-4 -1.9e-5 2.12e-4 2e-5 3.26e-4 0 0.01228-0.0024 0.02382-0.0065 0.03541-0.01052 0.0044-0.0015 0.0091-0.0021 0.0134-0.0038 0.0142-0.0058 0.0274-0.01325 0.04019-0.02137 0.0014-9.26e-4 3e-3 -0.0016 0.0044-0.0025 0.01456-0.0096 0.02822-0.02087 0.04052-0.03318l1.6761-1.6761c0.1018-0.1018 0.1018-0.2657 0-0.3675s-0.2657-0.1018-0.3675 0l-1.2326 1.2326v-3.9274c5.5e-5 -0.14396-0.11597-0.25999-0.25994-0.25999z" fill="#fafafa" stroke-width=".61734"/>
 </g>
</svg>
