<?xml version="1.0" encoding="UTF-8"?>
<svg width="64" height="64" version="1.1" viewBox="0 0 64 64" xmlns="http://www.w3.org/2000/svg" xmlns:cc="http://creativecommons.org/ns#" xmlns:dc="http://purl.org/dc/elements/1.1/" xmlns:rdf="http://www.w3.org/1999/02/22-rdf-syntax-ns#" xmlns:xlink="http://www.w3.org/1999/xlink">
 <metadata>
  <rdf:RDF>
   <cc:Work rdf:about="">
    <dc:format>image/svg+xml</dc:format>
    <dc:type rdf:resource="http://purl.org/dc/dcmitype/StillImage"/>
    <dc:title/>
   </cc:Work>
  </rdf:RDF>
 </metadata>
 <defs>
  <linearGradient id="h-9" x1="156" x2="156" y1="80" y2="232" gradientUnits="userSpaceOnUse">
   <stop stop-color="#fff" offset="0"/>
   <stop stop-color="#fff" stop-opacity=".098039" offset=".125"/>
   <stop stop-color="#fff" stop-opacity=".098039" offset=".925"/>
   <stop stop-color="#fff" stop-opacity=".49804" offset="1"/>
  </linearGradient>
  <clipPath id="m">
   <path d="m266 205c0 25-9.7826 24.708-35 25h-158c-25.217-0.29153-35 0-35-25v-98.001c0-25 9.7826-24.708 35-25h158c25.217 0.29154 35 0 35 25z" color="#000000" fill="#808080"/>
  </clipPath>
  <filter id="k" x="-.0098948" y="-.015243" width="1.0198" height="1.0305" color-interpolation-filters="sRGB">
   <feGaussianBlur stdDeviation="0.9400002"/>
  </filter>
  <linearGradient id="g-1" x1="330" x2="333" y1="79.5" y2="79.5" gradientTransform="matrix(.42423 0 0 .61108 -105.2 -85.442)" gradientUnits="userSpaceOnUse">
   <stop stop-color="#ff4628" offset="0"/>
   <stop stop-color="#ff3c69" offset="1"/>
  </linearGradient>
  <linearGradient id="e-9" x1="330" x2="333" y1="79.5" y2="79.5" gradientTransform="matrix(.42423 0 0 .61108 -105.21 -94.775)" gradientUnits="userSpaceOnUse">
   <stop stop-color="#3287ff" offset="0"/>
   <stop stop-color="#32b4ff" offset="1"/>
  </linearGradient>
  <linearGradient id="f-2" x1="330" x2="333" y1="79.5" y2="79.5" gradientTransform="matrix(.42423 0 0 .61108 -105.2 -90.108)" gradientUnits="userSpaceOnUse">
   <stop stop-color="#ff8214" offset="0"/>
   <stop stop-color="#ffbe14" offset="1"/>
  </linearGradient>
  <style type="text/css"/>
  <style type="text/css"/>
  <style type="text/css"/>
  <style type="text/css"/>
  <style type="text/css"/>
  <style type="text/css"/>
  <style type="text/css"/>
  <style type="text/css"/>
  <style type="text/css"/>
  <style type="text/css"/>
  <style type="text/css"/>
  <linearGradient id="b-3" x1="399.57" x2="399.57" y1="545.8" y2="517.8" gradientTransform="matrix(2.1429 0 0 2.1429 -753.93 -1107.5)" gradientUnits="userSpaceOnUse">
   <stop stop-color="#3889e9" offset="0"/>
   <stop stop-color="#5ea5fb" offset="1"/>
  </linearGradient>
  <style type="text/css"/>
  <style type="text/css"/>
  <style type="text/css"/>
  <style type="text/css"/>
  <style type="text/css"/>
  <style type="text/css"/>
  <filter id="filter11290" x="-.024" y="-.024" width="1.048" height="1.048" color-interpolation-filters="sRGB">
   <feGaussianBlur stdDeviation="0.15875313"/>
  </filter>
  <linearGradient id="linearGradient1005" x1=".73911" x2="16.388" y1="16.296" y2=".64687" gradientTransform="matrix(3.7796 0 0 3.7796 -.13115 .025467)" gradientUnits="userSpaceOnUse">
   <stop stop-color="#1d2123" offset="0"/>
   <stop stop-color="#33393e" offset="1"/>
  </linearGradient>
  <linearGradient id="linearGradient1095" x1="399.57" x2="399.57" y1="545.8" y2="517.8" gradientTransform="matrix(2.1429 0 0 2.1429 -681.78 -1107.5)" gradientUnits="userSpaceOnUse" xlink:href="#b-3"/>
 </defs>
 <circle transform="matrix(3.7796 0 0 3.7796 -.10279 .024585)" cx="8.4937" cy="8.46" r="7.9377" filter="url(#filter11290)" opacity=".25" stroke-width=".14032"/>
 <path d="m62 32c0 3.5964-0.63305 7.0448-1.794 10.24-0.80698 2.2212-1.8686 4.3212-3.1519 6.2636-0.53754 0.8167-1.1155 1.6054-1.729 2.3633-1.9641 2.4257-4.2982 4.5382-6.9186 6.2526-0.96493 0.63187-1.9678 1.2099-3.0061 1.7277-4.0321 2.0179-8.5839 3.153-13.401 3.153s-9.3689-1.1351-13.401-3.1531c-1.0384-0.51799-2.0425-1.096-3.0074-1.7277-2.6535-1.7376-5.0155-3.8832-6.9957-6.349-0.61468-0.76408-1.1915-1.56-1.729-2.3841-1.249-1.9102-2.2837-3.9712-3.0747-6.1494-1.1608-3.1949-1.7927-6.6419-1.7927-10.237 0-16.569 13.432-30.001 30.001-30.001 8.317 0 15.843 3.3846 21.277 8.8507 1.5661 1.5747 2.9584 3.3234 4.1436 5.214 1.1205 1.7805 2.0572 3.6882 2.7857 5.6951 1.161 3.196 1.7941 6.6442 1.7941 10.24z" fill="url(#linearGradient1005)" stroke-width=".11719"/>
 <g transform="matrix(3.7796 0 0 3.7796 72.439 .45588)" fill="#5e4aa6" stroke-width=".26458">
  <circle cx="-330.35" cy="-328.37" r="0" image-rendering="optimizeSpeed"/>
  <circle cx="-330.35" cy="-328.38" r="0" image-rendering="optimizeSpeed"/>
  <circle cx="-330.35" cy="-328.38" r="0" image-rendering="optimizeSpeed"/>
  <circle cx="-352.63" cy="-336.84" r="0" image-rendering="optimizeSpeed"/>
  <circle cx="-330.35" cy="-328.37" r="0" image-rendering="optimizeSpeed"/>
  <circle cx="-305.84" cy="-328.27" r="0" image-rendering="optimizeSpeed"/>
  <circle cx="-305.84" cy="-328.28" r="0" image-rendering="optimizeSpeed"/>
  <circle cx="-305.84" cy="-328.28" r="0" image-rendering="optimizeSpeed"/>
  <circle cx="-328.12" cy="-336.74" r="0" image-rendering="optimizeSpeed"/>
  <circle cx="-305.84" cy="-328.27" r="0" image-rendering="optimizeSpeed"/>
  <circle cx="-305.03" cy="-328.69" r="0"/>
 </g>
 <circle cx="104.44" cy="32" r="0" fill="url(#b-3)" stroke-width="1.5715"/>
 <circle cx="-1250.1" cy="-1241.1" r="0" fill="#5e4aa6"/>
 <circle cx="-150.58" cy="24.311" r="0" fill="#5e4aa6" fill-rule="evenodd"/>
 <path transform="matrix(.16666 0 0 .16666 6.6675 8.6768)" d="m272 211c0 25-9.7826 24.708-35 25h-170c-25.217-0.29153-35 0-35-25v-110c0-25 9.7826-24.708 35-25h170c25.217 0.29154 35 0 35 25z" clip-path="url(#m)" color="#000000" fill="#fff" fill-opacity=".78431" filter="url(#k)" stroke="url(#h-9)" stroke-width="4"/>
 <g stroke-width="2.5196">
  <path d="m52 43.843c0 4.1664-1.6304 4.1178-5.8331 4.1664h-28.333c-4.2027-0.04858-5.8331 0-5.8331-4.1664v-18.333c0-4.1664 1.6304-4.1178 5.8331-4.1664h28.333c4.2027 0.04859 5.8331 0 5.8331 4.1664z" color="#000000" fill="#f3f4f5"/>
  <path d="m12 38.008-1.63e-4 5.8334c-1.16e-4 4.1664 1.6304 4.1178 5.8331 4.1664h28.33c4.2027-0.04858 5.8331 0 5.8331-4.1664l1.64e-4 -5.8334z" color="#000000" fill="#fff"/>
  <path d="m18.667 22.676h26.665c0.73862 0 1.3333 0.27874 1.3333 0.62496v0.70828h-29.331v-0.70828c0-0.34624 0.59462-0.62496 1.3333-0.62496z" enable-background="new" opacity=".3"/>
  <path d="m16 40.008h31.999v4.6663c0 0.73862-0.59462 1.3333-1.3333 1.3333h-29.331c-0.73862 0-1.3333-0.59463-1.3333-1.3333v-3.3332z" enable-background="new" opacity=".3"/>
  <rect x="12" y="37.675" width="39.999" height=".33332" enable-background="new" fill="#fff" opacity=".15"/>
  <path d="m24.713 15.99c-5.201 0-5.7603 0.60488-5.7346 6.5061v1.5133h25.932v-1.5133c0-5.9014-0.53385-6.5061-5.7346-6.5061z" color="#000000" fill="#ffeca1"/>
  <rect transform="rotate(90)" x="34.675" y="-38.001" width="1.3333" height="1.9999" rx=".66664" ry=".99996" enable-background="new" fill="url(#g-1)"/>
  <rect transform="rotate(90)" x="34.659" y="-47.333" width="1.3333" height="1.9999" rx=".66664" ry=".99996" enable-background="new" fill="url(#e-9)"/>
  <rect transform="rotate(90)" x="34.675" y="-42.667" width="1.3333" height="1.9999" rx=".66664" ry=".99996" enable-background="new" fill="url(#f-2)"/>
  <path d="m16 40.008h31.999v4.6663c0 0.73862-0.59462 1.3333-1.3333 1.3333h-29.331c-0.73862 0-1.3333-0.59463-1.3333-1.3333v-3.3332z" enable-background="new" fill="#515151"/>
 </g>
 <rect x="19.001" y="40.008" width="26" height="1.3842" enable-background="new" fill="#a3a3a3" stroke-width="5.1345"/>
 <g transform="matrix(3.7796 0 0 3.7796 144.58 .45588)" fill="#5e4aa6" stroke-width=".26458">
  <circle cx="-330.35" cy="-328.37" r="0" image-rendering="optimizeSpeed"/>
  <circle cx="-330.35" cy="-328.38" r="0" image-rendering="optimizeSpeed"/>
  <circle cx="-330.35" cy="-328.38" r="0" image-rendering="optimizeSpeed"/>
  <circle cx="-352.63" cy="-336.84" r="0" image-rendering="optimizeSpeed"/>
  <circle cx="-330.35" cy="-328.37" r="0" image-rendering="optimizeSpeed"/>
  <circle cx="-305.84" cy="-328.27" r="0" image-rendering="optimizeSpeed"/>
  <circle cx="-305.84" cy="-328.28" r="0" image-rendering="optimizeSpeed"/>
  <circle cx="-305.84" cy="-328.28" r="0" image-rendering="optimizeSpeed"/>
  <circle cx="-328.12" cy="-336.74" r="0" image-rendering="optimizeSpeed"/>
  <circle cx="-305.84" cy="-328.27" r="0" image-rendering="optimizeSpeed"/>
  <circle cx="-305.03" cy="-328.69" r="0"/>
 </g>
 <circle cx="176.59" cy="32" r="0" fill="url(#linearGradient1095)" stroke-width="1.5715"/>
 <g transform="translate(72.149)" fill="#5e4aa6">
  <circle cx="-1250.1" cy="-1241.1" r="0"/>
  <circle cx="-150.58" cy="24.311" r="0" fill-rule="evenodd"/>
  <circle cx="-1163.3" cy="-1241.6" r="0"/>
  <circle cx="-63.768" cy="23.855" r="0" fill-rule="evenodd"/>
  <g transform="matrix(3.7796,0,0,3.7796,-17.538,-38.72)" stroke-width=".26458">
   <circle cx="-330.35" cy="-328.38" r="0"/>
   <circle cx="-312.11" cy="-326.25" r="0"/>
   <circle cx="-306.02" cy="-333.07" r="0"/>
   <circle cx="-308.84" cy="-326.01" r="0"/>
  </g>
 </g>
</svg>
