<?xml version="1.0" encoding="UTF-8" standalone="no"?>
<svg
   xmlns:dc="http://purl.org/dc/elements/1.1/"
   xmlns:cc="http://creativecommons.org/ns#"
   xmlns:rdf="http://www.w3.org/1999/02/22-rdf-syntax-ns#"
   xmlns:svg="http://www.w3.org/2000/svg"
   xmlns="http://www.w3.org/2000/svg"
   xmlns:sodipodi="http://sodipodi.sourceforge.net/DTD/sodipodi-0.dtd"
   xmlns:inkscape="http://www.inkscape.org/namespaces/inkscape"
   width="64"
   height="64"
   version="1.1"
   id="svg34"
   sodipodi:docname="teams-for-linux.svg"
   inkscape:version="1.0.2 (e86c870879, 2021-01-15)">
  <metadata
     id="metadata40">
    <rdf:RDF>
      <cc:Work
         rdf:about="">
        <dc:format>image/svg+xml</dc:format>
        <dc:type
           rdf:resource="http://purl.org/dc/dcmitype/StillImage" />
        <dc:title></dc:title>
      </cc:Work>
    </rdf:RDF>
  </metadata>
  <defs
     id="defs38">
    <filter
       id="filter2761"
       x="-.024"
       y="-.024"
       width="1.048"
       height="1.048"
       color-interpolation-filters="sRGB">
      <feGaussianBlur
         stdDeviation="0.14552168"
         id="feGaussianBlur4" />
    </filter>
    <linearGradient
       id="linearGradient1024-6"
       x1="1.3315"
       x2="15.65"
       y1="15.576"
       y2="1.17"
       gradientUnits="userSpaceOnUse"
       gradientTransform="translate(-8.4984e-4,0.14045)">
      <stop
         stop-color="#dddfe1"
         offset="0"
         id="stop7" />
      <stop
         stop-color="#f3f4f6"
         stop-opacity=".99608"
         offset="1"
         id="stop9" />
    </linearGradient>
    <linearGradient
       id="linearGradient947"
       x1="31.952"
       x2="31.952"
       y1="49.045"
       y2="12.132"
       gradientUnits="userSpaceOnUse"
       gradientTransform="matrix(0.26457812,0,0,0.26457812,17.009915,-0.01800424)">
      <stop
         stop-color="#2d2d2d"
         offset="0"
         id="stop853" />
      <stop
         stop-color="#6b6b6b"
         offset="1"
         id="stop855" />
    </linearGradient>
    <style
       type="text/css"
       id="style858" />
    <style
       type="text/css"
       id="style860" />
    <filter
       id="filter1057"
       x="-.027"
       y="-.027"
       width="1.054"
       height="1.054"
       color-interpolation-filters="sRGB">
      <feGaussianBlur
         stdDeviation="0.61875"
         id="feGaussianBlur862" />
    </filter>
    <linearGradient
       id="linearGradient1053"
       x1="-127"
       x2="-72"
       y1="60"
       y2="5"
       gradientTransform="translate(131.5,-0.51000019)"
       gradientUnits="userSpaceOnUse">
      <stop
         stop-color="#dee0e2"
         offset="0"
         id="stop865" />
      <stop
         stop-color="#f1f3f5"
         stop-opacity=".99608"
         offset="1"
         id="stop867" />
    </linearGradient>
    <filter
       id="filter11290"
       x="-.024"
       y="-.024"
       width="1.048"
       height="1.048"
       color-interpolation-filters="sRGB">
      <feGaussianBlur
         stdDeviation="0.15875313"
         id="feGaussianBlur861" />
    </filter>
    <linearGradient
       id="linearGradient1005"
       x1=".73911"
       x2="16.388"
       y1="16.296"
       y2=".64687"
       gradientTransform="matrix(3.7796,0,0,3.7796,-0.13209,0.02482778)"
       gradientUnits="userSpaceOnUse">
      <stop
         stop-color="#dddfe1"
         offset="0"
         id="stop864" />
      <stop
         stop-color="#f3f4f6"
         offset="1"
         id="stop866" />
    </linearGradient>
  </defs>
  <sodipodi:namedview
     pagecolor="#ffffff"
     bordercolor="#666666"
     borderopacity="1"
     objecttolerance="10"
     gridtolerance="10"
     guidetolerance="10"
     inkscape:pageopacity="0"
     inkscape:pageshadow="2"
     inkscape:window-width="1920"
     inkscape:window-height="992"
     id="namedview36"
     showgrid="false"
     inkscape:zoom="6.4921875"
     inkscape:cx="-6.5572761"
     inkscape:cy="39.830687"
     inkscape:window-x="0"
     inkscape:window-y="0"
     inkscape:window-maximized="1"
     inkscape:current-layer="svg34"
     inkscape:document-rotation="0" />
  <circle
     transform="matrix(3.7796,0,0,3.7796,-0.10278795,0.02458453)"
     cx="8.4937"
     cy="8.46"
     r="7.9376998"
     filter="url(#filter11290)"
     opacity="0.25"
     stroke-width="0.14032"
     id="circle871" />
  <path
     d="m 62.0004,32.00045 c 0,3.5964 -0.63305,7.0448 -1.794,10.24 -0.80698,2.2212 -1.8686,4.3212 -3.1519,6.2636 -0.53754,0.8167 -1.1155,1.6054 -1.729,2.3633 -1.9641,2.4257 -4.2982,4.5382 -6.9186,6.2526 -0.96493,0.63187 -1.9678,1.2098 -3.0061,1.7277 -4.0321,2.0179 -8.5839,3.153 -13.401,3.153 -4.8171,0 -9.3689,-1.1351 -13.401,-3.1531 -1.0384,-0.518 -2.0425,-1.096 -3.0074,-1.7277 -2.6535,-1.7376 -5.0155,-3.8832 -6.9957,-6.349 -0.61468,-0.76408 -1.1915,-1.56 -1.729,-2.3841 -1.249,-1.9102 -2.2837,-3.9712 -3.0747,-6.1494 -1.1608,-3.1949 -1.7927,-6.6419 -1.7927,-10.237 0,-16.569 13.432,-30.0010003 30.001,-30.0010003 8.317,0 15.843,3.3846 21.277,8.8507003 1.5661,1.5747 2.9584,3.3234 4.1436,5.214 1.1205,1.7805 2.0572,3.6882 2.7857,5.6951 1.161,3.196 1.7941,6.6442 1.7941,10.24 z"
     fill="url(#linearGradient1005)"
     stroke-width="0.11719"
     id="path873"
     style="fill:url(#linearGradient1005)" />
  <g
     id="g874"
     transform="matrix(0.77586207,0,0,0.77586207,7.1724138,7.1724138)">
    <path
       style="fill:#5059c9"
       d="M 44.035714,26.000286 C 42.907929,26.000286 42,26.908215 42,28.036001 v 0.678571 12.09963 1.171597 H 42.373745 60.626254 61 v -1.171597 -12.09963 -0.678571 c 0,-1.127786 -0.907929,-2.035715 -2.035715,-2.035715 z"
       id="path6" />
    <circle
       style="fill:#5059c9"
       cx="51.5"
       cy="41.5"
       r="9.5"
       id="circle8" />
    <circle
       style="fill:#5059c9"
       cx="51.5"
       cy="16.5"
       r="6.5"
       id="circle10" />
    <circle
       style="fill:#7b83eb"
       cx="33.5"
       cy="13.5"
       r="9.5"
       id="circle12" />
    <path
       style="fill:#7b83eb"
       d="m 22.295456,26.000091 c -1.825681,0 -3.295454,1.469773 -3.295454,3.295455 V 32.591 43.795546 45.772818 h 0.669389 C 20.26976,46.57031 21.215929,47.091 22.295456,47.091 h 22.409091 c 1.079528,0 2.025696,-0.52069 2.626066,-1.318182 h 0.669389 V 43.795546 32.591 29.295546 c 0,-1.825682 -1.469773,-3.295455 -3.295455,-3.295455 z"
       id="path14" />
    <circle
       style="fill:#7b83eb"
       cx="33.5"
       cy="45.5"
       r="14.5"
       id="circle18" />
    <rect
       style="fill:#5059c9"
       width="29"
       height="29"
       x="3"
       y="18"
       rx="1.977"
       ry="1.977"
       id="rect22" />
    <rect
       style="fill:#ffffff"
       width="15"
       height="5"
       x="10"
       y="24"
       id="rect26" />
    <rect
       style="fill:#ffffff"
       width="13"
       height="5"
       x="29"
       y="-20"
       transform="rotate(90)"
       id="rect28" />
  </g>
  <g
     transform="matrix(3.779602,0,0,3.779602,53.682172,0.0794609)"
     id="g880" />
  <circle
     cx="-1189.9729"
     cy="-1265.568"
     r="0"
     fill="#5e4aa6"
     id="circle884"
     style="stroke-width:1" />
  <circle
     cx="-90.382828"
     cy="-0.1532231"
     r="0"
     fill="#5e4aa6"
     fill-rule="evenodd"
     id="circle886"
     style="stroke-width:1" />
  <g
     transform="matrix(3.7796,0,0,3.7796,-63.371139,0.02458453)"
     fill="#5e4aa6"
     stroke-width="0.26458"
     id="g883">
    <circle
       cx="-330.35001"
       cy="-328.38"
       r="0"
       id="circle875" />
    <circle
       cx="-312.10999"
       cy="-326.25"
       r="0"
       id="circle877" />
    <circle
       cx="-306.01999"
       cy="-333.07001"
       r="0"
       id="circle879" />
    <circle
       cx="-308.84"
       cy="-326.01001"
       r="0"
       id="circle881" />
  </g>
</svg>
