<?xml version="1.0" encoding="UTF-8"?>
<svg width="64" height="64" version="1.1" viewBox="0 0 64 64" xmlns="http://www.w3.org/2000/svg">
 <defs>
  <filter id="filter11290" x="-.024" y="-.024" width="1.048" height="1.048" color-interpolation-filters="sRGB">
   <feGaussianBlur stdDeviation="0.15875313"/>
  </filter>
  <linearGradient id="linearGradient1005" x1=".73911" x2="16.388" y1="16.296" y2=".64687" gradientTransform="matrix(3.7796 0 0 3.7796 -.1327 .024567)" gradientUnits="userSpaceOnUse">
   <stop stop-color="#dc2828" offset="0"/>
   <stop stop-color="#ff4141" offset="1"/>
  </linearGradient>
 </defs>
 <circle transform="matrix(3.7796 0 0 3.7796 -1.3999e-6 -1.4e-6)" cx="8.4665" cy="8.4665" r="7.9377" filter="url(#filter11290)" opacity=".25" stroke-width=".14032"/>
 <path d="m62 32c0 3.5964-0.63304 7.0448-1.794 10.24-0.80698 2.2212-1.8686 4.3212-3.1519 6.2636-0.53754 0.8167-1.1155 1.6054-1.729 2.3633-1.9641 2.4257-4.2982 4.5382-6.9186 6.2526-0.96493 0.63187-1.9678 1.2098-3.0061 1.7277-4.0321 2.0179-8.5839 3.153-13.401 3.153s-9.3689-1.1351-13.401-3.1531c-1.0384-0.518-2.0425-1.096-3.0074-1.7277-2.6535-1.7376-5.0155-3.8832-6.9957-6.349-0.61468-0.76408-1.1915-1.56-1.729-2.3841-1.249-1.9102-2.2837-3.9712-3.0747-6.1494-1.1608-3.1949-1.7927-6.6419-1.7927-10.237 0-16.569 13.432-30.001 30.001-30.001 8.317 0 15.843 3.3846 21.277 8.8507 1.5661 1.5747 2.9584 3.3234 4.1436 5.214 1.1205 1.7805 2.0572 3.6882 2.7857 5.6951 1.161 3.196 1.7941 6.6442 1.7941 10.24z" fill="url(#linearGradient1005)" stroke-width=".11719"/>
 <g transform="translate(1,1)">
  <g opacity=".1">
   <!-- color: #3a569c --></g>
 </g>
 <g transform="translate(-86.494,-30.291)" fill="#fff" stroke-width=".042796">
  <path d="m132.59 54.912c-2.98-2.98-8.2387-3.5935-13.059-3.5935s-10.079 0.61353-13.059 3.5935c-2.6294 2.6294-3.1553 7.45-3.1553 11.219 0 3.5059 0.52588 8.5019 2.7171 10.956 2.98 3.4182 8.3265 3.8565 13.41 3.8565s10.518-0.43824 13.41-3.8565c2.1912-2.5418 2.7171-7.5377 2.7171-10.956 0.1753-3.7688-0.35059-8.5892-2.98-11.219z" p-id="7354"/>
  <path d="m101.92 53.422c0.26294 0.26294 0.52588 0.52588 0.87647 0.70118 0.61353 0.43824 1.2271 0.78882 1.9282 1.0518 1.4024 0.52588 2.8924 0.35059 4.1194-0.52588 0.96412-1.0518 1.3147-2.6294 0.96412-4.0318-0.1753-0.70118-0.43824-1.4024-0.78883-2.0159-0.17529-0.35059-0.43823-0.61353-0.61353-0.96412-0.43823-0.35059-1.0518-1.0518-1.49-1.5776-0.43823-0.43824-0.87647-0.87647-1.4024-1.2271l-0.1753-0.17529c-2.0159-1.4024-3.9441-1.3147-5.5216 0-1.49 1.49-1.7529 3.4182-0.61353 5.5216l0.08764 0.17529c0.35059 0.52588 0.70118 1.0518 1.0518 1.49 0.52588 0.52588 1.1394 1.2271 1.5776 1.5776zm33.13 0c-0.26295 0.26294-0.52588 0.52588-0.87647 0.70118-0.61353 0.43824-1.2271 0.78882-1.9282 1.0518-1.4024 0.52588-2.8924 0.35059-4.1194-0.52588-0.96412-1.0518-1.3147-2.6294-0.96412-4.0318 0.17529-0.70118 0.43824-1.4024 0.78882-2.0159 0.1753-0.35059 0.43824-0.61353 0.61353-0.96412 0.43824-0.35059 1.0518-1.0518 1.49-1.5776 0.43824-0.43824 0.87647-0.87647 1.4024-1.2271l0.17529-0.17529c2.0159-1.4024 3.9441-1.3147 5.5216 0 1.4024 1.4024 1.7529 3.3306 0.61353 5.5216l-0.0876 0.17529c-0.35059 0.52588-0.70118 1.0518-1.0518 1.49-0.52589 0.52588-1.1394 1.2271-1.5777 1.5776z" p-id="7355"/>
  <path d="m136.71 57.016c-1.0518-2.1912-2.5418-4.1194-4.2946-5.7848-1.8406-1.5776-3.8565-2.8047-6.1353-3.5935-2.1912-0.70118-4.3824-0.96412-6.6613-0.87647-2.2788-0.08765-4.5578 0.17529-6.6613 0.87647-2.2788 0.78882-4.2946 2.0159-6.1353 3.5935-1.8406 1.6653-3.2429 3.5935-4.2946 5.7848-2.1035 4.7329-1.8406 10.167-1.5776 15.338 0.1753 2.6294 0 6.3981 4.9083 4.7329 0.0876 0 0.26294 0 0.35059 0.08765-2.2788-2.5418-2.8047-7.5377-2.8047-10.956 0-3.8565 0.52588-8.5892 3.1553-11.219 2.98-2.98 8.2387-3.5935 13.059-3.5935s10.079 0.61353 13.059 3.5935c2.6294 2.6294 3.1553 7.45 3.1553 11.219 0 3.5059-0.52588 8.5019-2.7171 11.044 0.0876-0.08765 0.26295-0.08765 0.35059-0.08765 4.8206 1.6653 4.7329-2.1035 4.9083-4.7329 0.1753-5.2588 0.43824-10.78-1.6653-15.426z" p-id="7356"/>
  <path d="m110.86 71.127a1.5776 1.8407 0 1 0 3.1553 0 1.5776 1.8407 0 1 0-3.1553 0z" p-id="7357"/>
  <path d="m122.95 71.127a1.5776 1.8407 0 1 0 3.1553 0 1.5776 1.8407 0 1 0-3.1553 0z" p-id="7358"/>
  <path d="m134.87 66.219c0.96412 0 1.7529-0.78882 1.7529-1.7529v-0.08765c-0.17529-3.5059-0.96412-7.3623-3.2429-9.6412-3.1553-3.1553-8.7647-3.7688-13.848-3.7688s-10.693 0.70118-13.761 3.8565c-2.2788 2.2788-3.0676 6.1353-3.2429 9.6412 0 0.96412 0.70118 1.7529 1.6653 1.8406h0.0876z" p-id="7359"/>
 </g>
</svg>
