<?xml version="1.0" encoding="UTF-8" standalone="no"?>
<svg
   xmlns:dc="http://purl.org/dc/elements/1.1/"
   xmlns:cc="http://creativecommons.org/ns#"
   xmlns:rdf="http://www.w3.org/1999/02/22-rdf-syntax-ns#"
   xmlns:svg="http://www.w3.org/2000/svg"
   xmlns="http://www.w3.org/2000/svg"
   xmlns:sodipodi="http://sodipodi.sourceforge.net/DTD/sodipodi-0.dtd"
   xmlns:inkscape="http://www.inkscape.org/namespaces/inkscape"
   version="1.1"
   viewBox="0 0 64 64"
   id="svg29"
   sodipodi:docname="toggldesktop.svg"
   width="64"
   height="64"
   inkscape:version="1.0.2 (e86c870879, 2021-01-15)">
  <metadata
     id="metadata33">
    <rdf:RDF>
      <cc:Work
         rdf:about="">
        <dc:format>image/svg+xml</dc:format>
        <dc:type
           rdf:resource="http://purl.org/dc/dcmitype/StillImage" />
        <dc:title></dc:title>
      </cc:Work>
    </rdf:RDF>
  </metadata>
  <sodipodi:namedview
     pagecolor="#ffffff"
     bordercolor="#666666"
     borderopacity="1"
     objecttolerance="10"
     gridtolerance="10"
     guidetolerance="10"
     inkscape:pageopacity="0"
     inkscape:pageshadow="2"
     inkscape:window-width="1920"
     inkscape:window-height="992"
     id="namedview31"
     showgrid="false"
     inkscape:zoom="6.1208931"
     inkscape:cx="10.770482"
     inkscape:cy="29.437925"
     inkscape:window-x="0"
     inkscape:window-y="0"
     inkscape:window-maximized="1"
     inkscape:current-layer="svg29"
     inkscape:document-rotation="0" />
  <defs
     id="defs7">
    <linearGradient
       id="bg"
       x2="0"
       y1="1"
       y2="47"
       gradientUnits="userSpaceOnUse"
       gradientTransform="translate(-67.267486)">
      <stop
         style="stop-color:#f35151"
         offset="0"
         id="stop2" />
      <stop
         style="stop-color:#f23e3e"
         offset="1"
         id="stop4" />
    </linearGradient>
    <filter
       color-interpolation-filters="sRGB"
       height="1.048"
       width="1.048"
       y="-.024"
       x="-.024"
       id="filter2761">
      <feGaussianBlur
         id="feGaussianBlur4"
         stdDeviation="0.14552168" />
    </filter>
    <linearGradient
       gradientUnits="userSpaceOnUse"
       gradientTransform="translate(31.146088,0.14045)"
       y2="1.1082"
       y1="14.536"
       x2="15.644"
       x1="2.2495"
       id="linearGradient4673">
      <stop
         id="stop7"
         offset="0"
         stop-color="#ff5050" />
      <stop
         id="stop9"
         offset=".47728"
         stop-color="#fa4b5a" />
      <stop
         id="stop11"
         offset="1"
         stop-color="#ff7864" />
    </linearGradient>
    <linearGradient
       gradientUnits="userSpaceOnUse"
       gradientTransform="matrix(0.32664815,0,0,0.32664815,0.63054332,0.95372475)"
       y2="4"
       y1="44"
       x2="0"
       id="linearGradient890">
      <stop
         id="stop4-3"
         offset="0"
         stop-color="#FFB900" />
      <stop
         id="stop6"
         offset="1"
         stop-color="#ff0" />
    </linearGradient>
    <filter
       color-interpolation-filters="sRGB"
       height="1.048"
       width="1.048"
       y="-.024"
       x="-.024"
       id="filter2761-67">
      <feGaussianBlur
         id="feGaussianBlur9"
         stdDeviation="0.14552168" />
    </filter>
    <linearGradient
       gradientUnits="userSpaceOnUse"
       gradientTransform="matrix(3.7796,0,0,3.7796,66.443573,0.53068)"
       y2="1.1082"
       y1="15.601"
       x2="15.644"
       x1="1.4377"
       id="linearGradient4673-5">
      <stop
         id="stop12"
         offset="0"
         stop-color="#dc2828" />
      <stop
         id="stop14"
         offset="1"
         stop-color="#fa4141" />
    </linearGradient>
    <linearGradient
       gradientTransform="scale(0.26457812)"
       gradientUnits="userSpaceOnUse"
       y2="9.67"
       y1="54.592"
       x2="34.134"
       x1="34.134"
       id="linearGradient915">
      <stop
         id="stop17"
         offset="0"
         stop-color="#ffb900" />
      <stop
         id="stop19"
         offset="1"
         stop-color="#ff0" />
    </linearGradient>
    <linearGradient
       id="linearGradient890-3"
       x2="0"
       y1="44"
       y2="4"
       gradientTransform="matrix(1.2346,0,0,1.2346,3.1419,3.6047)"
       gradientUnits="userSpaceOnUse">
      <stop
         stop-color="#FFB900"
         offset="0"
         id="stop861" />
      <stop
         stop-color="#ff0"
         offset="1"
         id="stop863" />
    </linearGradient>
    <filter
       id="filter2761-6"
       x="-.024"
       y="-.024"
       width="1.048"
       height="1.048"
       color-interpolation-filters="sRGB">
      <feGaussianBlur
         stdDeviation="0.14552168"
         id="feGaussianBlur866" />
    </filter>
    <filter
       id="filter2761-3"
       x="-.024"
       y="-.024"
       width="1.048"
       height="1.048"
       color-interpolation-filters="sRGB">
      <feGaussianBlur
         stdDeviation="0.14552168"
         id="feGaussianBlur935" />
    </filter>
    <linearGradient
       id="linearGradient4673-56"
       x1="1.4377"
       x2="15.644"
       y1="15.601"
       y2="1.1082"
       gradientTransform="translate(-8.4984e-4,0.14045)"
       gradientUnits="userSpaceOnUse">
      <stop
         stop-color="#dc2828"
         offset="0"
         id="stop938" />
      <stop
         stop-color="#fa4141"
         offset="1"
         id="stop940" />
    </linearGradient>
    <filter
       id="filter909"
       x="-.084"
       y="-.084"
       width="1.168"
       height="1.168"
       color-interpolation-filters="sRGB">
      <feGaussianBlur
         stdDeviation="0.27781045"
         id="feGaussianBlur943" />
    </filter>
    <filter
       id="filter11290"
       x="-.024"
       y="-.024"
       width="1.048"
       height="1.048"
       color-interpolation-filters="sRGB">
      <feGaussianBlur
         stdDeviation="0.15875313"
         id="feGaussianBlur881" />
    </filter>
    <linearGradient
       id="linearGradient1005"
       x1=".73911"
       x2="16.388"
       y1="16.296"
       y2=".64687"
       gradientTransform="matrix(3.779602,0,0,3.779602,-0.132702,0.02456735)"
       gradientUnits="userSpaceOnUse">
      <stop
         stop-color="#dc2828"
         offset="0"
         id="stop884" />
      <stop
         stop-color="#ff4141"
         offset="1"
         id="stop886" />
    </linearGradient>
  </defs>
  <circle
     cx="8.4665003"
     cy="8.4665003"
     r="7.9376998"
     filter="url(#filter11290)"
     opacity="0.25"
     stroke-width="0.14032"
     id="circle891"
     transform="scale(3.779602)" />
  <path
     d="m 62.000383,31.999811 c 0,3.596442 -0.633045,7.0448 -1.79395,10.240453 -0.806983,2.221197 -1.868598,4.321219 -3.151924,6.263557 -0.537535,0.816696 -1.115511,1.605386 -1.729016,2.363347 -1.964108,2.425711 -4.298164,4.538168 -6.918562,6.252596 -0.964932,0.631874 -1.96785,1.20985 -3.006144,1.727731 -4.032079,2.017892 -8.583854,3.152982 -13.400957,3.152982 -4.817103,0 -9.368877,-1.13509 -13.400957,-3.153095 C 17.560465,58.329387 16.556376,57.751411 15.591444,57.11965 12.937899,55.382054 10.575912,53.236487 8.595779,50.770675 7.981102,50.00659 7.404297,49.210644 6.866762,48.386577 5.617755,46.476367 4.583089,44.41535 3.792056,42.237165 2.631302,39.042305 1.99939,35.59527 1.99939,32.000113 c 0,-16.569019 13.431572,-30.0005902 30.000591,-30.0005902 8.317015,0 15.842958,3.384558 21.27727,8.8506932 1.566116,1.574658 2.958445,3.323366 4.143577,5.213961 1.120464,1.780457 2.057162,3.688211 2.785718,5.695104 1.161018,3.195994 1.794064,6.644163 1.794064,10.240454 z"
     fill="url(#linearGradient1005)"
     stroke-width="0.11719"
     id="path893"
     style="fill:url(#linearGradient1005)" />
  <g
     fill="#5e4aa6"
     id="g30">
    <circle
       cx="-1248.7"
       cy="-1241.6"
       r="0"
       id="circle24" />
    <circle
       cx="-1140.3"
       cy="-1301.8"
       r="0"
       id="circle26" />
    <circle
       cx="-1158.1"
       cy="-1246"
       r="0"
       id="circle28" />
  </g>
  <circle
     style="stroke-width:1"
     cx="-1157.3"
     cy="-1267.7"
     r="0"
     fill="#5e4aa6"
     id="circle36" />
  <circle
     style="stroke-width:1"
     cx="-57.756001"
     cy="-2.1829"
     r="0"
     fill="#5e4aa6"
     fill-rule="evenodd"
     id="circle38" />
  <path
     d="m 29.407543,14.5 -1.296296,1.296296 v 2.592593 h 7.777778 V 15.796296 L 34.592729,14.5 Z m -7.25874,1.815333 -7.648667,7.906889 0.648148,0.648148 h 1.296296 l 1.296297,1.296297 6.481481,-6.481482 -1.296296,-1.296296 V 17.092593 L 22.14879,16.31532 Z m 19.702407,0 -0.777272,0.777273 v 1.296296 l -1.296296,1.296296 6.481481,6.481482 1.296296,-1.296297 h 1.296297 l 0.648148,-0.648148 -7.648667,-7.906889 z"
     style="fill:#ffffff;stroke-width:1.2963;paint-order:normal;fill-opacity:1"
     id="path970" />
  <path
     d="m 24.222358,18.388889 -7.777778,7.777778 c -0.843668,2.038296 -1.318722,4.275444 -1.319111,6.481481 C 15.123654,41.955167 22.670303,49.5 31.977321,49.5 c 9.307019,0 16.853148,-7.544833 16.851852,-16.851852 -3.43e-4,-2.211481 -0.426157,-4.438907 -1.273507,-6.481481 l -7.777778,-7.777778 -3.888889,-1.296296 h -7.777778 z"
     style="fill:#ffffff;stroke-width:1.2963;paint-order:normal;fill-opacity:1;opacity:0.5"
     id="path972" />
  <path
     d="m 21.629766,27.462963 h 20.74074 l 1.296297,1.296296 v 7.777778 l -1.296297,1.296296 h -20.74074 l -1.296297,-1.296296 v -7.777778 z"
     style="fill:#ffffff;stroke-width:1.2963;paint-order:normal;fill-opacity:1;opacity:0.5"
     id="path974" />
  <path
     d="m 22.277914,28.759259 -0.648148,0.648148 v 6.481482 l 0.648148,0.648148 h 3.888889 l 0.648148,-0.648148 v -6.481482 l -0.648148,-0.648148 z m 9.074074,0 -0.648148,0.648148 v 6.481482 l 0.648148,0.648148 h 3.888889 l 0.648148,-0.648148 v -6.481482 l -0.648148,-0.648148 z m 6.481481,0 -0.648148,0.648148 v 0.648149 h 3.888889 v 6.481481 h 0.648148 l 0.648148,-0.648148 v -6.481482 l -0.648148,-0.648148 z m -14.907407,1.296297 h 2.592592 v 5.185185 h -2.592592 z m 9.074074,0 h 2.592593 v 5.185185 h -2.592593 z m -3.888889,1.296296 v 1.296296 h 1.296296 v -1.296296 z m 0,2.592593 v 1.296296 h 1.296296 v -1.296296 z"
     style="fill:#3e3e3e;stroke-width:1.2963;paint-order:normal"
     id="path976" />
  <g
     transform="matrix(3.779602,0,0,3.779602,-68.565671,0.02456706)"
     fill="#5e4aa6"
     stroke-width="0.26458"
     id="g907">
    <circle
       cx="-330.35001"
       cy="-328.38"
       r="0"
       id="circle895" />
    <circle
       cx="-312.10999"
       cy="-326.25"
       r="0"
       id="circle897" />
    <circle
       cx="-306.01999"
       cy="-333.07001"
       r="0"
       id="circle899" />
    <circle
       cx="-308.84"
       cy="-326.01001"
       r="0"
       id="circle901" />
    <circle
       cx="-279"
       cy="-327.64999"
       r="0"
       id="circle903" />
    <circle
       cx="11.912"
       cy="7.1715002"
       r="0"
       fill-rule="evenodd"
       id="circle905" />
  </g>
</svg>
