<?xml version="1.0" encoding="UTF-8"?>
<!-- Created with Inkscape (http://www.inkscape.org/) -->
<svg width="64" height="64" version="1.1" viewBox="0 0 16.933 16.933" xmlns="http://www.w3.org/2000/svg" xmlns:cc="http://creativecommons.org/ns#" xmlns:dc="http://purl.org/dc/elements/1.1/" xmlns:rdf="http://www.w3.org/1999/02/22-rdf-syntax-ns#" xmlns:xlink="http://www.w3.org/1999/xlink">
 <defs>
  <filter id="filter11290" x="-.024" y="-.024" width="1.048" height="1.048" color-interpolation-filters="sRGB">
   <feGaussianBlur stdDeviation="0.15875313"/>
  </filter>
  <linearGradient id="linearGradient888" x1="-81.49" x2="-76.144" y1="-33.072" y2="-23.812" gradientUnits="userSpaceOnUse">
   <stop stop-color="#f89f39" offset="0"/>
   <stop stop-color="#ff5f1c" offset="1"/>
  </linearGradient>
  <filter id="filter967" x="-.058135" y="-.061988" width="1.1163" height="1.124" color-interpolation-filters="sRGB">
   <feGaussianBlur stdDeviation="0.24586246"/>
  </filter>
  <linearGradient id="linearGradient6872" x1="-81.49" x2="-76.144" y1="-33.072" y2="-23.812" gradientUnits="userSpaceOnUse" xlink:href="#linearGradient888"/>
 </defs>
 <metadata>
  <rdf:RDF>
   <cc:Work rdf:about="">
    <dc:format>image/svg+xml</dc:format>
    <dc:type rdf:resource="http://purl.org/dc/dcmitype/StillImage"/>
    <dc:title/>
   </cc:Work>
  </rdf:RDF>
 </metadata>
 <circle cx="8.4937" cy="8.46" r="7.9377" filter="url(#filter11290)" opacity=".25" stroke-width=".14032"/>
 <path d="m16.439 8.46c0 0.95154-0.16749 1.8639-0.47464 2.7094-0.21351 0.58768-0.49439 1.1433-0.83393 1.6572-0.14222 0.21608-0.29514 0.42475-0.45746 0.62529-0.51966 0.64179-1.1372 1.2007-1.8305 1.6543-0.2553 0.16718-0.52065 0.3201-0.79536 0.45712-1.0668 0.53389-2.2711 0.83421-3.5456 0.83421s-2.4788-0.30032-3.5456-0.83424c-0.27474-0.13705-0.5404-0.28997-0.7957-0.45712-0.70207-0.45973-1.327-1.0274-1.8509-1.6798-0.16263-0.20216-0.31524-0.41275-0.45746-0.63078-0.33046-0.5054-0.60421-1.0507-0.8135-1.627-0.30711-0.84529-0.4743-1.7573-0.4743-2.7085 0-4.3838 3.5537-7.9375 7.9375-7.9375 2.2005 0 4.1917 0.89548 5.6295 2.3417 0.41436 0.41662 0.78274 0.87929 1.0963 1.3795 0.29645 0.47107 0.54428 0.97582 0.73704 1.5068 0.30718 0.84559 0.47467 1.7579 0.47467 2.7094z" fill="#fafafa" stroke-width=".031006"/>
 <g fill="#5e4aa6">
  <circle cx="-330.35" cy="-328.38" r="0" stroke-width=".26458"/>
  <g stroke-width=".26458">
   <circle cx="-299.17" cy="-337.27" r="0"/>
   <circle cx="-299.81" cy="-339.42" r="0"/>
   <circle cx="-302.25" cy="-338.13" r="0"/>
   <circle cx="-301.89" cy="-335.91" r="0"/>
   <circle cx="-304.76" cy="-351.05" r="0"/>
   <circle cx="-304.83" cy="-349.54" r="0"/>
   <circle cx="-359.94" cy="-336.91" r="0"/>
  </g>
 </g>
 <circle cx="40.465" cy="-9.1299" r="7.9373" fill-opacity="0" stroke-width=".41578"/>
 <g transform="translate(-26.529 -7.4177)">
  <g transform="matrix(1.0922 0 0 1.0922 96.519 41.311)" filter="url(#filter967)">
   <g transform="translate(17.699,5.8148)">
    <path d="m-74.346-32.808a0.92602 0.92602 0 0 0-0.06563 0.0021 0.92602 0.92602 0 0 0-0.09198 0.01137 0.92602 0.92602 0 0 0-0.08992 0.02015 0.92602 0.92602 0 0 0-0.08785 0.02945 0.92602 0.92602 0 0 0-0.08475 0.03772 0.92602 0.92602 0 0 0-0.0801 0.04599 0.92602 0.92602 0 0 0-0.07545 0.05374 0.92602 0.92602 0 0 0-0.06925 0.06149 0.92602 0.92602 0 0 0-0.06356 0.0677 0.92602 0.92602 0 0 0-0.05581 0.07338 0.92602 0.92602 0 0 0-0.04858 0.07906 0.92602 0.92602 0 0 0-0.04031 0.0832 0.92602 0.92602 0 0 0-0.03152 0.08681 0.92602 0.92602 0 0 0-0.02274 0.08992 0.92602 0.92602 0 0 0-0.01395 0.09146 0.92602 0.92602 0 0 0-0.0047 0.0925v6.6145a0.92602 0.92602 0 0 0 0.0021 0.06563 0.92602 0.92602 0 0 0 0.01137 0.09198 0.92602 0.92602 0 0 0 0.02015 0.08992 0.92602 0.92602 0 0 0 0.02946 0.08785 0.92602 0.92602 0 0 0 0.03772 0.08475 0.92602 0.92602 0 0 0 0.04599 0.0801 0.92602 0.92602 0 0 0 0.05374 0.07545 0.92602 0.92602 0 0 0 0.06149 0.06924 0.92602 0.92602 0 0 0 0.0677 0.06356 0.92602 0.92602 0 0 0 0.07338 0.05581 0.92602 0.92602 0 0 0 0.07906 0.04857 0.92602 0.92602 0 0 0 0.0832 0.04031 0.92602 0.92602 0 0 0 0.08681 0.03152 0.92602 0.92602 0 0 0 0.08992 0.02274 0.92602 0.92602 0 0 0 0.09146 0.01395 0.92602 0.92602 0 0 0 0.0925 0.0047h4.4978a0.92602 0.92602 0 0 0 0.06563-0.0021 0.92602 0.92602 0 0 0 0.09198-0.01137 0.92602 0.92602 0 0 0 0.08992-0.02015 0.92602 0.92602 0 0 0 0.08785-0.02945 0.92602 0.92602 0 0 0 0.08475-0.03772 0.92602 0.92602 0 0 0 0.0801-0.04599 0.92602 0.92602 0 0 0 0.07545-0.05374 0.92602 0.92602 0 0 0 0.06976-0.06098 0.92602 0.92602 0 0 0 0.06304-0.06821 0.92602 0.92602 0 0 0 0.05581-0.07338 0.92602 0.92602 0 0 0 0.04858-0.07906 0.92602 0.92602 0 0 0 0.04031-0.0832 0.92602 0.92602 0 0 0 0.03152-0.08681 0.92602 0.92602 0 0 0 0.02274-0.08992 0.92602 0.92602 0 0 0 0.01395-0.09146 0.92602 0.92602 0 0 0 0.0047-0.0925v-6.6145a0.92602 0.92602 0 0 0-0.0021-0.06563 0.92602 0.92602 0 0 0-0.01137-0.09198 0.92602 0.92602 0 0 0-0.02015-0.08992 0.92602 0.92602 0 0 0-0.02946-0.08785 0.92602 0.92602 0 0 0-0.03772-0.08475 0.92602 0.92602 0 0 0-0.04599-0.0801 0.92602 0.92602 0 0 0-0.05374-0.07545 0.92602 0.92602 0 0 0-0.06098-0.06925 0.92602 0.92602 0 0 0-0.06821-0.06356 0.92602 0.92602 0 0 0-0.07338-0.05581 0.92602 0.92602 0 0 0-0.07906-0.04858 0.92602 0.92602 0 0 0-0.0832-0.04031 0.92602 0.92602 0 0 0-0.08681-0.03152 0.92602 0.92602 0 0 0-0.08992-0.02274 0.92602 0.92602 0 0 0-0.09146-0.01395 0.92602 0.92602 0 0 0-0.0925-0.0047z" fill="#fcc105"/>
    <path d="m-72.098-30.036a1.4616 1.4616 0 0 0-1.4614 1.4614 1.4616 1.4616 0 0 0 1.4614 1.4614 1.4616 1.4616 0 0 0 1.4614-1.4614 1.4616 1.4616 0 0 0-1.4614-1.4614zm0.78185 0.72036 0.24701 0.24701-1.2345 1.235-0.82319-0.82319 0.24649-0.24701 0.5767 0.57618z" fill="#fff"/>
   </g>
   <g transform="translate(21.043,4.7624)">
    <path d="m-81.49-32.808a0.92602 0.92602 0 0 0-0.06563 0.0021 0.92602 0.92602 0 0 0-0.09198 0.01137 0.92602 0.92602 0 0 0-0.08992 0.02015 0.92602 0.92602 0 0 0-0.08785 0.02945 0.92602 0.92602 0 0 0-0.08475 0.03772 0.92602 0.92602 0 0 0-0.0801 0.04599 0.92602 0.92602 0 0 0-0.07545 0.05374 0.92602 0.92602 0 0 0-0.06925 0.06149 0.92602 0.92602 0 0 0-0.06356 0.0677 0.92602 0.92602 0 0 0-0.05581 0.07338 0.92602 0.92602 0 0 0-0.04858 0.07906 0.92602 0.92602 0 0 0-0.04031 0.0832 0.92602 0.92602 0 0 0-0.03152 0.08681 0.92602 0.92602 0 0 0-0.02274 0.08992 0.92602 0.92602 0 0 0-0.01395 0.09146 0.92602 0.92602 0 0 0-0.0047 0.0925v6.6145a0.92602 0.92602 0 0 0 0.0021 0.06563 0.92602 0.92602 0 0 0 0.01137 0.09198 0.92602 0.92602 0 0 0 0.02015 0.08992 0.92602 0.92602 0 0 0 0.02946 0.08785 0.92602 0.92602 0 0 0 0.03772 0.08475 0.92602 0.92602 0 0 0 0.04599 0.0801 0.92602 0.92602 0 0 0 0.05374 0.07545 0.92602 0.92602 0 0 0 0.06149 0.06924 0.92602 0.92602 0 0 0 0.0677 0.06356 0.92602 0.92602 0 0 0 0.07338 0.05581 0.92602 0.92602 0 0 0 0.07906 0.04857 0.92602 0.92602 0 0 0 0.0832 0.04031 0.92602 0.92602 0 0 0 0.08681 0.03152 0.92602 0.92602 0 0 0 0.08992 0.02274 0.92602 0.92602 0 0 0 0.09146 0.01395 0.92602 0.92602 0 0 0 0.0925 0.0047h4.4978a0.92602 0.92602 0 0 0 0.06563-0.0021 0.92602 0.92602 0 0 0 0.09198-0.01137 0.92602 0.92602 0 0 0 0.08992-0.02015 0.92602 0.92602 0 0 0 0.08785-0.02945 0.92602 0.92602 0 0 0 0.08475-0.03772 0.92602 0.92602 0 0 0 0.0801-0.04599 0.92602 0.92602 0 0 0 0.07545-0.05374 0.92602 0.92602 0 0 0 0.06976-0.06098 0.92602 0.92602 0 0 0 0.06304-0.06821 0.92602 0.92602 0 0 0 0.05581-0.07338 0.92602 0.92602 0 0 0 0.04858-0.07906 0.92602 0.92602 0 0 0 0.04031-0.0832 0.92602 0.92602 0 0 0 0.03152-0.08681 0.92602 0.92602 0 0 0 0.02274-0.08992 0.92602 0.92602 0 0 0 0.01395-0.09146 0.92602 0.92602 0 0 0 0.0047-0.0925v-6.6145a0.92602 0.92602 0 0 0-0.0021-0.06563 0.92602 0.92602 0 0 0-0.01137-0.09198 0.92602 0.92602 0 0 0-0.02015-0.08992 0.92602 0.92602 0 0 0-0.02946-0.08785 0.92602 0.92602 0 0 0-0.03772-0.08475 0.92602 0.92602 0 0 0-0.04599-0.0801 0.92602 0.92602 0 0 0-0.05374-0.07545 0.92602 0.92602 0 0 0-0.06098-0.06925 0.92602 0.92602 0 0 0-0.06821-0.06356 0.92602 0.92602 0 0 0-0.07338-0.05581 0.92602 0.92602 0 0 0-0.07906-0.04858 0.92602 0.92602 0 0 0-0.0832-0.04031 0.92602 0.92602 0 0 0-0.08681-0.03152 0.92602 0.92602 0 0 0-0.08992-0.02274 0.92602 0.92602 0 0 0-0.09146-0.01395 0.92602 0.92602 0 0 0-0.0925-0.0047z" fill="url(#linearGradient6872)"/>
    <g transform="translate(.0010063 .094556)" fill="#fff">
     <rect x="-81.218" y="-30.891" width="3.9522" height=".4911"/>
     <rect x="-81.218" y="-29.573" width="3.9522" height=".4911"/>
     <rect x="-81.218" y="-28.256" width="3.9522" height=".4911"/>
     <rect x="-81.218" y="-26.938" width="3.9522" height=".4911"/>
    </g>
   </g>
  </g>
  <g transform="matrix(1.0922 0 0 1.0922 96.519 41.311)">
   <g transform="translate(17.699,5.8148)">
    <path d="m-74.346-32.808a0.92602 0.92602 0 0 0-0.06563 0.0021 0.92602 0.92602 0 0 0-0.09198 0.01137 0.92602 0.92602 0 0 0-0.08992 0.02015 0.92602 0.92602 0 0 0-0.08785 0.02945 0.92602 0.92602 0 0 0-0.08475 0.03772 0.92602 0.92602 0 0 0-0.0801 0.04599 0.92602 0.92602 0 0 0-0.07545 0.05374 0.92602 0.92602 0 0 0-0.06925 0.06149 0.92602 0.92602 0 0 0-0.06356 0.0677 0.92602 0.92602 0 0 0-0.05581 0.07338 0.92602 0.92602 0 0 0-0.04858 0.07906 0.92602 0.92602 0 0 0-0.04031 0.0832 0.92602 0.92602 0 0 0-0.03152 0.08681 0.92602 0.92602 0 0 0-0.02274 0.08992 0.92602 0.92602 0 0 0-0.01395 0.09146 0.92602 0.92602 0 0 0-0.0047 0.0925v6.6145a0.92602 0.92602 0 0 0 0.0021 0.06563 0.92602 0.92602 0 0 0 0.01137 0.09198 0.92602 0.92602 0 0 0 0.02015 0.08992 0.92602 0.92602 0 0 0 0.02946 0.08785 0.92602 0.92602 0 0 0 0.03772 0.08475 0.92602 0.92602 0 0 0 0.04599 0.0801 0.92602 0.92602 0 0 0 0.05374 0.07545 0.92602 0.92602 0 0 0 0.06149 0.06924 0.92602 0.92602 0 0 0 0.0677 0.06356 0.92602 0.92602 0 0 0 0.07338 0.05581 0.92602 0.92602 0 0 0 0.07906 0.04857 0.92602 0.92602 0 0 0 0.0832 0.04031 0.92602 0.92602 0 0 0 0.08681 0.03152 0.92602 0.92602 0 0 0 0.08992 0.02274 0.92602 0.92602 0 0 0 0.09146 0.01395 0.92602 0.92602 0 0 0 0.0925 0.0047h4.4978a0.92602 0.92602 0 0 0 0.06563-0.0021 0.92602 0.92602 0 0 0 0.09198-0.01137 0.92602 0.92602 0 0 0 0.08992-0.02015 0.92602 0.92602 0 0 0 0.08785-0.02945 0.92602 0.92602 0 0 0 0.08475-0.03772 0.92602 0.92602 0 0 0 0.0801-0.04599 0.92602 0.92602 0 0 0 0.07545-0.05374 0.92602 0.92602 0 0 0 0.06976-0.06098 0.92602 0.92602 0 0 0 0.06304-0.06821 0.92602 0.92602 0 0 0 0.05581-0.07338 0.92602 0.92602 0 0 0 0.04858-0.07906 0.92602 0.92602 0 0 0 0.04031-0.0832 0.92602 0.92602 0 0 0 0.03152-0.08681 0.92602 0.92602 0 0 0 0.02274-0.08992 0.92602 0.92602 0 0 0 0.01395-0.09146 0.92602 0.92602 0 0 0 0.0047-0.0925v-6.6145a0.92602 0.92602 0 0 0-0.0021-0.06563 0.92602 0.92602 0 0 0-0.01137-0.09198 0.92602 0.92602 0 0 0-0.02015-0.08992 0.92602 0.92602 0 0 0-0.02946-0.08785 0.92602 0.92602 0 0 0-0.03772-0.08475 0.92602 0.92602 0 0 0-0.04599-0.0801 0.92602 0.92602 0 0 0-0.05374-0.07545 0.92602 0.92602 0 0 0-0.06098-0.06925 0.92602 0.92602 0 0 0-0.06821-0.06356 0.92602 0.92602 0 0 0-0.07338-0.05581 0.92602 0.92602 0 0 0-0.07906-0.04858 0.92602 0.92602 0 0 0-0.0832-0.04031 0.92602 0.92602 0 0 0-0.08681-0.03152 0.92602 0.92602 0 0 0-0.08992-0.02274 0.92602 0.92602 0 0 0-0.09146-0.01395 0.92602 0.92602 0 0 0-0.0925-0.0047z" fill="#fcc105"/>
    <path d="m-72.098-30.036a1.4616 1.4616 0 0 0-1.4614 1.4614 1.4616 1.4616 0 0 0 1.4614 1.4614 1.4616 1.4616 0 0 0 1.4614-1.4614 1.4616 1.4616 0 0 0-1.4614-1.4614zm0.78185 0.72036 0.24701 0.24701-1.2345 1.235-0.82319-0.82319 0.24649-0.24701 0.5767 0.57618z" fill="#fff"/>
   </g>
   <g transform="translate(21.043,4.7624)">
    <path d="m-81.49-32.808a0.92602 0.92602 0 0 0-0.06563 0.0021 0.92602 0.92602 0 0 0-0.09198 0.01137 0.92602 0.92602 0 0 0-0.08992 0.02015 0.92602 0.92602 0 0 0-0.08785 0.02945 0.92602 0.92602 0 0 0-0.08475 0.03772 0.92602 0.92602 0 0 0-0.0801 0.04599 0.92602 0.92602 0 0 0-0.07545 0.05374 0.92602 0.92602 0 0 0-0.06925 0.06149 0.92602 0.92602 0 0 0-0.06356 0.0677 0.92602 0.92602 0 0 0-0.05581 0.07338 0.92602 0.92602 0 0 0-0.04858 0.07906 0.92602 0.92602 0 0 0-0.04031 0.0832 0.92602 0.92602 0 0 0-0.03152 0.08681 0.92602 0.92602 0 0 0-0.02274 0.08992 0.92602 0.92602 0 0 0-0.01395 0.09146 0.92602 0.92602 0 0 0-0.0047 0.0925v6.6145a0.92602 0.92602 0 0 0 0.0021 0.06563 0.92602 0.92602 0 0 0 0.01137 0.09198 0.92602 0.92602 0 0 0 0.02015 0.08992 0.92602 0.92602 0 0 0 0.02946 0.08785 0.92602 0.92602 0 0 0 0.03772 0.08475 0.92602 0.92602 0 0 0 0.04599 0.0801 0.92602 0.92602 0 0 0 0.05374 0.07545 0.92602 0.92602 0 0 0 0.06149 0.06924 0.92602 0.92602 0 0 0 0.0677 0.06356 0.92602 0.92602 0 0 0 0.07338 0.05581 0.92602 0.92602 0 0 0 0.07906 0.04857 0.92602 0.92602 0 0 0 0.0832 0.04031 0.92602 0.92602 0 0 0 0.08681 0.03152 0.92602 0.92602 0 0 0 0.08992 0.02274 0.92602 0.92602 0 0 0 0.09146 0.01395 0.92602 0.92602 0 0 0 0.0925 0.0047h4.4978a0.92602 0.92602 0 0 0 0.06563-0.0021 0.92602 0.92602 0 0 0 0.09198-0.01137 0.92602 0.92602 0 0 0 0.08992-0.02015 0.92602 0.92602 0 0 0 0.08785-0.02945 0.92602 0.92602 0 0 0 0.08475-0.03772 0.92602 0.92602 0 0 0 0.0801-0.04599 0.92602 0.92602 0 0 0 0.07545-0.05374 0.92602 0.92602 0 0 0 0.06976-0.06098 0.92602 0.92602 0 0 0 0.06304-0.06821 0.92602 0.92602 0 0 0 0.05581-0.07338 0.92602 0.92602 0 0 0 0.04858-0.07906 0.92602 0.92602 0 0 0 0.04031-0.0832 0.92602 0.92602 0 0 0 0.03152-0.08681 0.92602 0.92602 0 0 0 0.02274-0.08992 0.92602 0.92602 0 0 0 0.01395-0.09146 0.92602 0.92602 0 0 0 0.0047-0.0925v-6.6145a0.92602 0.92602 0 0 0-0.0021-0.06563 0.92602 0.92602 0 0 0-0.01137-0.09198 0.92602 0.92602 0 0 0-0.02015-0.08992 0.92602 0.92602 0 0 0-0.02946-0.08785 0.92602 0.92602 0 0 0-0.03772-0.08475 0.92602 0.92602 0 0 0-0.04599-0.0801 0.92602 0.92602 0 0 0-0.05374-0.07545 0.92602 0.92602 0 0 0-0.06098-0.06925 0.92602 0.92602 0 0 0-0.06821-0.06356 0.92602 0.92602 0 0 0-0.07338-0.05581 0.92602 0.92602 0 0 0-0.07906-0.04858 0.92602 0.92602 0 0 0-0.0832-0.04031 0.92602 0.92602 0 0 0-0.08681-0.03152 0.92602 0.92602 0 0 0-0.08992-0.02274 0.92602 0.92602 0 0 0-0.09146-0.01395 0.92602 0.92602 0 0 0-0.0925-0.0047z" fill="url(#linearGradient6872)"/>
    <g transform="translate(.0010063 .094556)" fill="#fff">
     <rect x="-81.218" y="-30.891" width="3.9522" height=".4911"/>
     <rect x="-81.218" y="-29.573" width="3.9522" height=".4911"/>
     <rect x="-81.218" y="-28.256" width="3.9522" height=".4911"/>
     <rect x="-81.218" y="-26.938" width="3.9522" height=".4911"/>
    </g>
   </g>
  </g>
 </g>
</svg>
