<?xml version="1.0" encoding="UTF-8"?>
<svg width="64" height="64" version="1.1" viewBox="0 0 16.933 16.933" xmlns="http://www.w3.org/2000/svg" xmlns:cc="http://creativecommons.org/ns#" xmlns:dc="http://purl.org/dc/elements/1.1/" xmlns:rdf="http://www.w3.org/1999/02/22-rdf-syntax-ns#">
 <metadata>
  <rdf:RDF>
   <cc:Work rdf:about="">
    <dc:format>image/svg+xml</dc:format>
    <dc:type rdf:resource="http://purl.org/dc/dcmitype/StillImage"/>
    <dc:title/>
   </cc:Work>
  </rdf:RDF>
 </metadata>
 <defs>
  <filter id="filter11290" x="-.024" y="-.024" width="1.048" height="1.048" color-interpolation-filters="sRGB">
   <feGaussianBlur stdDeviation="0.15875313"/>
  </filter>
  <linearGradient id="linearGradient1005" x1=".73911" x2="16.388" y1="16.296" y2=".64687" gradientTransform="translate(-.0078552 -5.0139e-5)" gradientUnits="userSpaceOnUse">
   <stop stop-color="#8cd750" offset="0"/>
   <stop stop-color="#7dcd32" offset=".48311"/>
   <stop stop-color="#87d241" offset="1"/>
  </linearGradient>
  <filter id="filter2105" x="-.29796" y="-.12895" width="1.5959" height="1.2579" color-interpolation-filters="sRGB">
   <feGaussianBlur stdDeviation="0.44165673"/>
  </filter>
  <linearGradient id="linearGradient1288" x1="32.153" x2="32.153" y1="46.593" y2="4.0937" gradientTransform="matrix(.26458 0 0 .26458 .037939 -.52533)" gradientUnits="userSpaceOnUse">
   <stop stop-color="#d1ecba" offset="0"/>
   <stop stop-color="#d1ecba" stop-opacity="0" offset="1"/>
  </linearGradient>
 </defs>
 <g transform="translate(-.0272 .0065001)">
  <circle cx="8.4937" cy="8.46" r="7.9377" filter="url(#filter11290)" opacity=".25" stroke-width=".14032"/>
  <path d="m16.431 8.4599c0 0.95154-0.16749 1.8639-0.47464 2.7094-0.21351 0.58768-0.49439 1.1433-0.83393 1.6572-0.14222 0.21608-0.29514 0.42475-0.45746 0.62529-0.51966 0.64179-1.1372 1.2007-1.8305 1.6543-0.2553 0.16718-0.52065 0.3201-0.79536 0.45712-1.0668 0.53389-2.2711 0.83421-3.5456 0.83421s-2.4788-0.30032-3.5456-0.83424c-0.27474-0.13705-0.5404-0.28997-0.7957-0.45712-0.70207-0.45973-1.327-1.0274-1.8509-1.6798-0.16263-0.20216-0.31524-0.41275-0.45746-0.63078-0.33046-0.5054-0.60421-1.0507-0.8135-1.627-0.30711-0.84529-0.4743-1.7573-0.4743-2.7085 0-4.3838 3.5537-7.9375 7.9375-7.9375 2.2005 0 4.1917 0.89548 5.6295 2.3417 0.41436 0.41662 0.78274 0.87929 1.0963 1.3795 0.29645 0.47107 0.54428 0.97582 0.73704 1.5068 0.30718 0.84559 0.47467 1.7579 0.47467 2.7094z" fill="url(#linearGradient1005)" stroke-width=".031006"/>
  <g fill="#5e4aa6" stroke-width=".26458">
   <circle cx="-330.35" cy="-328.38" r="0"/>
   <circle cx="-312.11" cy="-326.25" r="0"/>
   <circle cx="-306.02" cy="-333.07" r="0"/>
   <circle cx="-308.84" cy="-326.01" r="0"/>
  </g>
  <path d="m8.496 0.52244c-3.1883 0-5.936 1.8807-7.1984 4.5924l7.2475 6.6873 7.1483-6.6863c-0.14012-0.30106-0.29623-0.5933-0.4718-0.87228-0.31356-0.50021-0.68219-0.9626-1.0966-1.3792-1.4378-1.4462-3.4285-2.3419-5.629-2.3419z" fill="url(#linearGradient1288)" opacity=".7" stroke-width=".26458"/>
  <g transform="translate(-.23644 1.3698)">
   <rect transform="matrix(-.70711 .70711 .70711 .70711 0 0)" x=".51204" y="9.0131" width=".84188" height="4.6813" ry=".42094" fill="#fafafa"/>
   <path d="m8.355 2.2466c-0.2332 0-0.42064 0.18795-0.42064 0.42115v7.3782c0 0.02186 3e-3 0.04261 0.0062 0.06356 8.24e-4 0.0053 5.2e-4 0.01072 0.0016 0.01602 0.0047 0.02441 0.01253 0.04758 0.02119 0.07028 1e-3 0.0027 0.0015 0.0056 0.0026 0.0083 0.04259 0.10511 0.12587 0.18891 0.23099 0.2315 0.0036 0.0015 0.0072 0.0023 0.01085 0.0036 0.0219 0.0082 0.04422 0.01515 0.06769 0.01964 0.02651 0.0052 0.0532 0.0078 0.0801 0.0078 0.02737-3.4e-5 0.05421-0.0028 0.0801-0.0078 1.62e-4 -3.1e-5 3.55e-4 3.2e-5 5.17e-4 0 0.0199-0.0039 0.03858-0.01052 0.05736-0.01705 0.0071-0.0025 0.01479-0.0034 0.0217-0.0062 0.023-0.0094 0.04438-0.02147 0.06511-0.03462 0.0023-0.0015 0.0049-0.0026 0.0072-0.0041 0.02359-0.01563 0.04572-0.0338 0.06563-0.05374l2.715-2.715c0.1649-0.1649 0.1649-0.4304 0-0.5953s-0.4304-0.1649-0.5953 0l-1.9967 1.9967v-6.3618c0-0.2332-0.18795-0.42115-0.42115-0.42115z" fill="#80d03a" filter="url(#filter2105)"/>
   <path d="m8.7264 2.2466c-0.2332 0-0.42064 0.18795-0.42064 0.42115v7.3782c0 0.02186 3e-3 0.04261 0.0062 0.06356 8.24e-4 0.0053 5.2e-4 0.01072 0.0016 0.01602 0.0047 0.02441 0.01253 0.04758 0.02119 0.07028 1e-3 0.0027 0.0015 0.0056 0.0026 0.0083 0.04259 0.10511 0.12587 0.18891 0.23099 0.2315 0.0036 0.0015 0.0072 0.0023 0.01085 0.0036 0.0219 0.0082 0.04422 0.01515 0.0677 0.01964 0.02651 0.0052 0.0532 0.0078 0.0801 0.0078 0.02737-3.4e-5 0.05421-0.0028 0.0801-0.0078 1.62e-4 -3.1e-5 3.55e-4 3.2e-5 5.17e-4 0 0.0199-0.0039 0.03858-0.01052 0.05736-0.01705 0.0071-0.0025 0.01479-0.0034 0.0217-0.0062 0.023-0.0094 0.04438-0.02147 0.06511-0.03462 0.0023-0.0015 0.0049-0.0026 0.0072-0.0041 0.02359-0.01563 0.04572-0.0338 0.06563-0.05374l2.715-2.715c0.1649-0.1649 0.1649-0.4304 0-0.5953s-0.4304-0.1649-0.5953 0l-1.9967 1.9967v-6.3618c0-0.2332-0.18795-0.42115-0.42115-0.42115z" fill="#fafafa"/>
  </g>
 </g>
</svg>
