<?xml version="1.0" encoding="UTF-8"?>
<svg width="64" height="64" version="1.1" xmlns="http://www.w3.org/2000/svg" xmlns:cc="http://creativecommons.org/ns#" xmlns:dc="http://purl.org/dc/elements/1.1/" xmlns:rdf="http://www.w3.org/1999/02/22-rdf-syntax-ns#">
 <metadata>
  <rdf:RDF>
   <cc:Work rdf:about="">
    <dc:format>image/svg+xml</dc:format>
    <dc:type rdf:resource="http://purl.org/dc/dcmitype/StillImage"/>
    <dc:title/>
   </cc:Work>
  </rdf:RDF>
 </metadata>
 <defs>
  <filter id="a" x="-.103" y="-.068" width="1.235" height="1.189">
   <feOffset dx="0" dy="1" in="SourceAlpha" result="shadowOffsetOuter1"/>
   <feGaussianBlur in="shadowOffsetOuter1" result="shadowBlurOuter1" stdDeviation="1"/>
   <feComposite in="shadowBlurOuter1" in2="SourceAlpha" operator="out" result="shadowBlurOuter1"/>
   <feColorMatrix in="shadowBlurOuter1" result="shadowMatrixOuter1" values="0 0 0 0 0   0 0 0 0 0   0 0 0 0 0  0 0 0 0.2 0"/>
   <feMerge>
    <feMergeNode in="shadowMatrixOuter1"/>
    <feMergeNode in="SourceGraphic"/>
   </feMerge>
  </filter>
  <filter id="filter11290-6" x="-.024" y="-.024" width="1.048" height="1.048" color-interpolation-filters="sRGB">
   <feGaussianBlur stdDeviation="0.15875313"/>
  </filter>
  <linearGradient id="linearGradient1005-3" x1=".73911" x2="16.388" y1="16.296" y2=".64687" gradientTransform="matrix(3.7796 0 0 3.7796 -.13189 .024491)" gradientUnits="userSpaceOnUse">
   <stop stop-color="#dddfe1" offset="0"/>
   <stop stop-color="#f3f4f6" offset="1"/>
  </linearGradient>
 </defs>
 <circle transform="matrix(3.7796 0 0 3.7796 -.1028 .024568)" cx="8.4937" cy="8.46" r="7.9377" filter="url(#filter11290-6)" opacity=".25" stroke-width=".14032"/>
 <path d="m62.001 32c0 3.5965-0.63305 7.0448-1.794 10.241-0.80698 2.2212-1.8686 4.3212-3.152 6.2636-0.53754 0.8167-1.1155 1.6054-1.7291 2.3634-1.9641 2.4257-4.2982 4.5382-6.9186 6.2526-0.96493 0.63187-1.9679 1.2099-3.0062 1.7278-4.0321 2.0179-8.5839 3.1531-13.401 3.1531-4.8171 0-9.3689-1.1351-13.401-3.1532-1.0384-0.518-2.0425-1.096-3.0075-1.7278-2.6536-1.7376-5.0155-3.8832-6.9957-6.349-0.61468-0.76408-1.1915-1.5601-1.7291-2.3841-1.249-1.9102-2.2837-3.9712-3.0748-6.1494-1.1608-3.1949-1.7927-6.6419-1.7927-10.237 0-16.569 13.432-30.001 30.001-30.001 8.317 0 15.843 3.3846 21.278 8.8507 1.5662 1.5747 2.9585 3.3234 4.1436 5.214 1.1205 1.7805 2.0572 3.6883 2.7858 5.6951 1.1611 3.1961 1.7941 6.6442 1.7941 10.241z" fill="url(#linearGradient1005-3)" stroke-width=".11719"/>
 <g transform="translate(7.5277 8.39)" fill="none">
  <g transform="translate(4,4)">
   <g id="ulauncher" transform="translate(3,2)">
    <g transform="translate(24.049)" fill="#599ccd">
     <path id="Shape" d="m0.37566 19.497v-14.974l9.0009-3.8102v19.4c0 2.34-9.0009 2.6114-9.0009-0.61996z"/>
    </g>
    <g transform="translate(4.9756,5.7556)" fill="#7ec183">
     <path d="m11.874 30.643c-2.8162 0-5.2534-0.39384-7.3025-1.1791s-2.6288-2.2628-3.9067-3.6153c-0.6858-0.72191 5.7087 0.42262 9.9695-0.50649 4.09-0.84442 6.0628-3.6416 6.7436-4.3076 1.3807-1.3484 2.0657-3.6375 2.0657-6.8688v-13.83c3.7118 1.4356 8.3972 6.336 9.0017 11.658v2.7882c0 2.3392-0.32756 4.486-0.98351 6.4372s-1.6627 3.6285-3.0127 5.0221c-1.3559 1.3986-3.0716 2.4798-5.1597 3.2437-2.0873 0.7696-4.5577 1.1478-7.4211 1.1478z"/>
    </g>
    <g transform="translate(0,10.689)" fill="#4675ab">
     <path d="m22 16.944c-0.85083 1.605-4.7708 6.4216-12.269 7.1805l-1.0822 0.02796c-1.6486-0.74658-3.0418-1.7094-4.1712-2.8959-1.3335-1.3978-2.3178-3.0628-2.9522-4.9975-0.63937-1.9347-0.95863-4.0725-0.95863-6.4076v-5.4365l9.0017-3.9664v8.7863c0 1.6181 0.18327 2.9954 0.55395 4.1284 0.36571 1.1355 0.87322 2.0556 1.5167 2.7692 0.64351 0.71533 1.4189 1.2251 2.3302 1.5293 0.9122 0.30833 1.9131 0.46127 2.9995 0.46127 2.2117 0 4.0087-0.67669 5.3902-2.0235l-0.35493 0.84442z"/>
    </g>
   </g>
  </g>
  <g transform="translate(7,6)" filter="url(#a)">
   <g transform="translate(24.049)" fill="#599ccd">
    <path d="m0.37566 19.497v-14.974l9.0009-3.8102v19.4c0 2.34-9.0009 2.6114-9.0009-0.61996z"/>
   </g>
   <g transform="translate(4.9756,5.7556)" fill="#7ec183">
    <path d="m11.874 30.643c-2.8162 0-5.2534-0.39384-7.3025-1.1791s-2.6288-2.2628-3.9067-3.6153c-0.6858-0.72191 5.7087 0.42262 9.9695-0.50649 4.09-0.84442 6.0628-3.6416 6.7436-4.3076 1.3807-1.3484 2.0657-3.6375 2.0657-6.8688v-13.83c3.7118 1.4356 8.3972 6.336 9.0017 11.658v2.7882c0 2.3392-0.32756 4.486-0.98351 6.4372s-1.6627 3.6285-3.0127 5.0221c-1.3559 1.3986-3.0716 2.4798-5.1597 3.2437-2.0873 0.7696-4.5577 1.1478-7.4211 1.1478z"/>
   </g>
   <g transform="translate(0,10.689)" fill="#4675ab">
    <path d="m22 16.944c-0.85083 1.605-4.7708 6.4216-12.269 7.1805l-1.0822 0.02796c-1.6486-0.74658-3.0418-1.7094-4.1712-2.8959-1.3335-1.3978-2.3178-3.0628-2.9522-4.9975-0.63937-1.9347-0.95863-4.0725-0.95863-6.4076v-5.4365l9.0017-3.9664v8.7863c0 1.6181 0.18327 2.9954 0.55395 4.1284 0.36571 1.1355 0.87322 2.0556 1.5167 2.7692 0.64351 0.71533 1.4189 1.2251 2.3302 1.5293 0.9122 0.30833 1.9131 0.46127 2.9995 0.46127 2.2117 0 4.0087-0.67669 5.3902-2.0235l-0.35493 0.84442z"/>
   </g>
  </g>
 </g>
</svg>
