<?xml version="1.0" encoding="UTF-8" standalone="no"?>
<svg
   xmlns:dc="http://purl.org/dc/elements/1.1/"
   xmlns:cc="http://creativecommons.org/ns#"
   xmlns:rdf="http://www.w3.org/1999/02/22-rdf-syntax-ns#"
   xmlns:svg="http://www.w3.org/2000/svg"
   xmlns="http://www.w3.org/2000/svg"
   xmlns:sodipodi="http://sodipodi.sourceforge.net/DTD/sodipodi-0.dtd"
   xmlns:inkscape="http://www.inkscape.org/namespaces/inkscape"
   inkscape:version="1.0 (4035a4fb49, 2020-05-01)"
   sodipodi:docname="usb-creator.svg"
   id="svg74"
   version="1.1"
   height="64"
   width="64">
  <metadata
     id="metadata78">
    <rdf:RDF>
      <cc:Work
         rdf:about="">
        <dc:format>image/svg+xml</dc:format>
        <dc:type
           rdf:resource="http://purl.org/dc/dcmitype/StillImage" />
        <dc:title></dc:title>
      </cc:Work>
    </rdf:RDF>
  </metadata>
  <sodipodi:namedview
     inkscape:current-layer="svg74"
     inkscape:window-maximized="1"
     inkscape:window-y="36"
     inkscape:window-x="0"
     inkscape:cy="42.884693"
     inkscape:cx="21.259441"
     inkscape:zoom="4.391796"
     showgrid="false"
     id="namedview76"
     inkscape:window-height="964"
     inkscape:window-width="1920"
     inkscape:pageshadow="2"
     inkscape:pageopacity="0"
     guidetolerance="10"
     gridtolerance="10"
     objecttolerance="10"
     borderopacity="1"
     bordercolor="#666666"
     pagecolor="#ffffff" />
  <defs
     id="defs48">
    <linearGradient
       gradientUnits="userSpaceOnUse"
       gradientTransform="matrix(2.1429 0 0 2.1429 -826.34 -1107.5)"
       y2="517.8"
       y1="545.8"
       x2="399.57"
       x1="399.57"
       id="b">
      <stop
         id="stop2"
         offset="0"
         stop-color="#3889e9" />
      <stop
         id="stop4"
         offset="1"
         stop-color="#5ea5fb" />
    </linearGradient>
    <clipPath
       id="clipPath953">
      <rect
         id="rect7"
         stroke-width=".99482"
         opacity="0"
         ry=".98744"
         rx="0"
         height="48"
         width="48"
         y="16"
         x="7.0117e-15" />
    </clipPath>
    <filter
       color-interpolation-filters="sRGB"
       height="1.1228"
       width="1.1173"
       y="-.061414"
       x="-.058649"
       id="filter943-7">
      <feGaussianBlur
         id="feGaussianBlur10"
         stdDeviation="1.0747504" />
    </filter>
    <linearGradient
       gradientUnits="userSpaceOnUse"
       gradientTransform="translate(0,14)"
       y2="7"
       y1="35"
       x2="26"
       x1="26"
       id="linearGradient885-9">
      <stop
         id="stop13"
         offset="0"
         stop-color="#b6b9bf" />
      <stop
         id="stop15"
         offset="1"
         stop-color="#dddfe2" />
    </linearGradient>
    <linearGradient
       gradientUnits="userSpaceOnUse"
       gradientTransform="translate(0,14)"
       y2="42"
       y1="42"
       x2="45"
       x1="3"
       id="linearGradient893-0">
      <stop
         id="stop18"
         offset="0"
         stop-color="#1a1a1a" />
      <stop
         id="stop20"
         offset=".11054"
         stop-color="#2c2c2e" />
      <stop
         id="stop22"
         offset=".29001"
         stop-color="#2b2b2d" />
      <stop
         id="stop24"
         offset=".51187"
         stop-color="#2a2b2d" />
      <stop
         id="stop26"
         offset=".75173"
         stop-color="#2b2b2d" />
      <stop
         id="stop28"
         offset=".89659"
         stop-color="#323232" />
      <stop
         id="stop30"
         offset="1"
         stop-color="#171717" />
    </linearGradient>
    <linearGradient
       gradientUnits="userSpaceOnUse"
       gradientTransform="matrix(0.88172,0,0,2.6012,-374.83,-1358.6)"
       y2="543.43"
       y1="544.2"
       x2="450.06"
       x1="450.06"
       id="c-20">
      <stop
         id="stop33"
         offset="0"
         stop-color="#24785a" />
      <stop
         id="stop35"
         offset="1"
         stop-color="#67e5b8" />
    </linearGradient>
    <linearGradient
       gradientUnits="userSpaceOnUse"
       gradientTransform="matrix(1.8844,0,0,1.8844,-841.23,-972.74)"
       y2="544.72"
       y1="546.85"
       x2="467.17"
       x1="467.17"
       id="b-7">
      <stop
         id="stop38"
         offset="0"
         stop-color="#040404" />
      <stop
         id="stop40"
         offset="1"
         stop-opacity=".90816"
         stop-color="#121212" />
    </linearGradient>
    <linearGradient
       gradientUnits="userSpaceOnUse"
       gradientTransform="matrix(3.7796,0,0,3.7796,-109.76296,0)"
       y2="1.852"
       y1="15.081"
       x2="7.9373"
       x1="7.9373"
       id="linearGradient862-3">
      <stop
         id="stop43"
         offset="0"
         stop-color="#4d4d4d" />
      <stop
         id="stop45"
         offset="1"
         stop-color="#808080" />
    </linearGradient>
    <style
       type="text/css"
       id="style905" />
    <filter
       id="filter11290"
       x="-.024"
       y="-.024"
       width="1.048"
       height="1.048"
       color-interpolation-filters="sRGB">
      <feGaussianBlur
         stdDeviation="0.15875313"
         id="feGaussianBlur907" />
    </filter>
    <linearGradient
       id="linearGradient1005"
       x1=".8714"
       x2="16.246"
       y1="16.164"
       y2=".78937"
       gradientTransform="matrix(3.7796,0,0,3.7796,-0.13319795,0.02439453)"
       gradientUnits="userSpaceOnUse">
      <stop
         stop-color="#00c8ff"
         offset="0"
         id="stop910" />
      <stop
         stop-color="#14a0ff"
         offset="1"
         id="stop912" />
    </linearGradient>
  </defs>
  <circle
     id="circle70"
     stroke-width="1.5715"
     fill="url(#b)"
     r="0"
     cy="31.998"
     cx="32.017" />
  <circle
     id="circle917"
     fill="#5e4aa6"
     r="0"
     cy="-1279.3"
     cx="-1124.8" />
  <g
     id="g927"
     stroke-width="0.26458"
     fill="#5e4aa6"
     transform="matrix(3.7796,0,0,3.7796,123.83001,-38.183983)">
    <circle
       id="circle919"
       r="0"
       cy="-338.76999"
       cx="-299.01999" />
    <circle
       id="circle921"
       fill-rule="evenodd"
       r="0"
       cy="-3.9487"
       cx="-8.1062002" />
    <circle
       id="circle923"
       r="0"
       cy="-357.69"
       cx="-278.25" />
    <circle
       id="circle925"
       fill-rule="evenodd"
       r="0"
       cy="-22.858999"
       cx="12.663" />
  </g>
  <circle
     id="circle929"
     stroke-width="0.14032"
     opacity="0.25"
     filter="url(#filter11290)"
     r="7.9376998"
     cy="8.46"
     cx="8.4937"
     transform="matrix(3.7796,0,0,3.7796,-0.10278795,0.02458453)" />
  <path
     id="path931"
     stroke-width="0.11719"
     fill="url(#linearGradient1005)"
     d="m 62.000012,32.000017 c 0,3.5964 -0.63305,7.0448 -1.794,10.24 -0.80698,2.2212 -1.8686,4.3212 -3.1519,6.2636 -0.53754,0.8167 -1.1155,1.6054 -1.729,2.3633 -1.9641,2.4257 -4.2982,4.5382 -6.9186,6.2526 -0.96493,0.63187 -1.9678,1.2098 -3.0061,1.7277 -4.0321,2.0179 -8.5839,3.153 -13.401,3.153 -4.8171,0 -9.3689,-1.1351 -13.401,-3.1531 -1.0384,-0.518 -2.0425,-1.096 -3.0074,-1.7277 -2.6535,-1.7376 -5.0155,-3.8832 -6.9957,-6.349 -0.61468,-0.76408 -1.1915,-1.56 -1.729,-2.3841 -1.249,-1.9102 -2.2837,-3.9712 -3.0747,-6.1494 -1.1608,-3.1949 -1.7927,-6.6419 -1.7927,-10.237 0,-16.569 13.432,-30.0010005 30.001,-30.0010005 8.317,0 15.843,3.3846 21.277,8.8507005 1.5661,1.5747 2.9584,3.3234 4.1436,5.214 1.1205,1.7805 2.0572,3.6882 2.7857,5.6951 1.161,3.196 1.7941,6.6442 1.7941,10.24 z"
     style="fill:url(#linearGradient1005)" />
  <g
     id="g941"
     stroke-width="0.26458"
     fill="#5e4aa6"
     transform="matrix(3.7796,0,0,3.7796,-0.10278795,0.02458453)">
    <circle
       id="circle933"
       r="0"
       cy="-328.38"
       cx="-330.35001" />
    <circle
       id="circle935"
       r="0"
       cy="-326.25"
       cx="-312.10999" />
    <circle
       id="circle937"
       r="0"
       cy="-333.07001"
       cx="-306.01999" />
    <circle
       id="circle939"
       r="0"
       cy="-326.01001"
       cx="-308.84" />
  </g>
  <path
     d="m 32.246289,14.499991 c -0.19951,3.55e-4 -0.383994,0.08717 -0.476166,0.229875 l -3.448114,5.33965 c -0.08559,0.13303 -0.08009,0.295186 0.01642,0.423626 0.09685,0.128842 0.270202,0.206618 0.456464,0.206886 l 1.737192,0.0033 -0.03284,15.316193 -5.375775,-2.929254 0.0033,-2.29546 c 0.834361,-0.443427 1.387181,-1.206871 1.389098,-2.072152 0.0034,-1.37297 -1.375107,-2.487359 -3.080315,-2.48921 -1.702047,-0.0032 -3.083351,1.109639 -3.086884,2.482642 -0.0034,0.865887 0.546701,1.626356 1.379246,2.072153 l -0.0065,3.027772 c -0.0013,0.456389 0.278874,0.881357 0.748733,1.136235 l 8.022612,4.367612 -0.0098,4.722274 c -1.131392,0.488739 -1.908885,1.440938 -1.91124,2.54832 -0.0016,1.605065 1.607545,2.906189 3.599173,2.909551 1.993933,0.0027 3.612232,-1.294045 3.615595,-2.899699 0.0034,-1.107146 -0.775282,-2.059132 -1.904672,-2.551604 l 0.01971,-8.981516 7.648246,-4.131168 c 0.09181,-0.0497 0.176073,-0.10584 0.252861,-0.167481 0.315912,-0.253685 0.49855,-0.601747 0.499156,-0.968756 l 0.0065,-3.622161 h 0.660068 c 0.179538,-1.07e-4 0.349142,-0.05561 0.476168,-0.157629 0.126944,-0.101978 0.199646,-0.239435 0.200318,-0.384217 l 0.0065,-3.799494 c 0.0011,-0.301166 -0.299605,-0.544929 -0.673204,-0.545131 l -4.712424,-0.0065 c -0.179551,1.07e-4 -0.352508,0.05892 -0.479451,0.160911 -0.126944,0.102025 -0.199628,0.239488 -0.200318,0.38422 l -0.0065,3.796208 c -0.0015,0.300846 0.303089,0.545248 0.676488,0.545131 l 0.656783,0.0033 -0.0065,2.893132 -4.998123,2.69938 0.02298,-11.060235 1.740476,0.0033 c 0.186362,2.58e-4 0.35662,-0.07895 0.45318,-0.206887 0.09735,-0.128608 0.105292,-0.286756 0.0197,-0.420341 l -3.425127,-5.352786 c -0.09181,-0.142276 -0.273593,-0.229319 -0.472885,-0.229874 z"
     style="fill:#ffffff;fill-opacity:1;stroke-width:3.36273;stroke-linecap:round"
     id="rect1118" />
</svg>
