<?xml version="1.0" encoding="UTF-8"?>
<svg width="64" height="64" version="1.1" viewBox="0 0 16.933 16.933" xmlns="http://www.w3.org/2000/svg" xmlns:cc="http://creativecommons.org/ns#" xmlns:dc="http://purl.org/dc/elements/1.1/" xmlns:rdf="http://www.w3.org/1999/02/22-rdf-syntax-ns#">
 <metadata>
  <rdf:RDF>
   <cc:Work rdf:about="">
    <dc:format>image/svg+xml</dc:format>
    <dc:type rdf:resource="http://purl.org/dc/dcmitype/StillImage"/>
    <dc:title/>
   </cc:Work>
  </rdf:RDF>
 </metadata>
 <defs>
  <filter id="filter1208" x="-.07843" y="-.071857" width="1.1569" height="1.1437" color-interpolation-filters="sRGB">
   <feGaussianBlur stdDeviation="0.4323125"/>
  </filter>
  <filter id="filter11290" x="-.024" y="-.024" width="1.048" height="1.048" color-interpolation-filters="sRGB">
   <feGaussianBlur stdDeviation="0.15875313"/>
  </filter>
  <linearGradient id="linearGradient1005" x1=".73911" x2="16.388" y1="16.296" y2=".64687" gradientTransform="translate(-.03491 .0064999)" gradientUnits="userSpaceOnUse">
   <stop stop-color="#00c8ff" offset="0"/>
   <stop stop-color="#14a0ff" offset="1"/>
  </linearGradient>
 </defs>
 <circle cx="8.4665" cy="8.4665" r="7.9377" filter="url(#filter11290)" opacity=".25" stroke-width=".14032"/>
 <path d="m16.404 8.4664c0 0.95154-0.16749 1.8639-0.47464 2.7094-0.21351 0.58768-0.49439 1.1433-0.83393 1.6572-0.14222 0.21608-0.29514 0.42475-0.45746 0.62529-0.51966 0.64179-1.1372 1.2007-1.8305 1.6543-0.2553 0.16718-0.52065 0.3201-0.79536 0.45712-1.0668 0.53389-2.2711 0.83421-3.5456 0.83421s-2.4788-0.30032-3.5456-0.83424c-0.27474-0.13705-0.5404-0.28997-0.7957-0.45712-0.70207-0.45973-1.327-1.0274-1.8509-1.6798-0.16263-0.20216-0.31524-0.41275-0.45746-0.63078-0.33046-0.5054-0.60421-1.0507-0.8135-1.627-0.30711-0.84529-0.4743-1.7573-0.4743-2.7085 0-4.3838 3.5537-7.9375 7.9375-7.9375 2.2005 0 4.1917 0.89548 5.6295 2.3417 0.41436 0.41662 0.78274 0.87929 1.0963 1.3795 0.29645 0.47107 0.54428 0.97582 0.73704 1.5068 0.30718 0.84559 0.47467 1.7579 0.47467 2.7094z" fill="url(#linearGradient1005)" stroke-width=".031006"/>
 <g transform="matrix(.7 0 0 .7 2.54 2.54)" fill="#0087ff" filter="url(#filter1208)">
  <g fill-rule="evenodd" stroke-width=".015243">
   <path d="m8.4658 15.671 6.6152-3.7386-0.04503-7.0332-6.5701 3.6002z" opacity=".6"/>
   <path d="m8.4672 15.686-6.6152-3.7386 0.045025-7.0332 6.5701 3.6002z" opacity=".3"/>
   <path d="m1.878 4.9333 6.6205-3.6863 6.5618 3.6878-6.5973 3.6146z"/>
  </g>
  <path d="m9.4829 5.2897c-0.051527 0.044681-0.14489 0.050032-0.20844 0.011627l-0.70395-0.4256c-0.057483-0.034751-0.071673-0.093824-0.032627-0.13855l0.60212-0.70525-2.1207 1.4692c-0.050056 0.034525-0.12916 0.038571-0.18765 0.00807-0.00344-0.00178-0.00641-0.0032-0.00985-0.00534-0.051323-0.031038-0.069143-0.082186-0.041974-0.12573l0.70895-1.1658-0.93877 0.2713c-0.056427 0.016385-0.12357 0.00653-0.16478-0.02698-0.042914-0.032769-0.053627-0.080369-0.027858-0.12004l0.40426-0.6147-0.86581-0.52345c-0.063261-0.038197-0.07299-0.10597-0.021522-0.15059 0.051705-0.044829 0.1453-0.049788 0.20853-0.011556l0.95538 0.57763c0.052678 0.031851 0.069763 0.085154 0.040742 0.12891l-0.28859 0.43888 0.92318-0.26653c0.05581-0.016515 0.12159-7e-3 0.16307 0.025497 0.042617 0.031702 0.054837 0.07859 0.031405 0.11841l-0.55304 0.9093 2.427-1.6807c0.052868-0.03685 0.13647-0.038571 0.19555-0.00394 0.060188 0.042972 0.073132 0.09461 0.034442 0.13999l-1.1542 1.3504 0.60392 0.36512c0.06332 0.038334 0.072669 0.10582 0.021202 0.15045zm0.70171 0.28666-0.36361-0.21983c-0.06319-0.038203-0.15702-0.033042-0.20849 0.011627-0.051527 0.044681-0.041739 0.1124 0.021451 0.1506l0.36361 0.21983c0.063059 0.038132 0.15695 0.033102 0.20849-0.011627 0.0515-0.044657 0.04162-0.11247-0.02145-0.1506zm0.78297 0.47337-0.38695-0.23394c-0.06306-0.038132-0.15702-0.033042-0.20848 0.011627-0.05154 0.044681-0.04162 0.11247 0.02145 0.1506l0.38695 0.23394c0.06302 0.038096 0.15695 0.033102 0.20848-0.011627 0.0515-0.044657 0.04157-0.1125-0.02145-0.1506z" stroke-width=".044893"/>
 </g>
 <g transform="matrix(.7 0 0 .7 2.54 2.54)">
  <g fill-rule="evenodd" stroke-width=".015243">
   <path d="m8.4658 15.671 6.6152-3.7386-0.04503-7.0332-6.5701 3.6002z" fill="#fff" opacity=".6"/>
   <path d="m8.4672 15.686-6.6152-3.7386 0.045025-7.0332 6.5701 3.6002z" fill="#fffeff" opacity=".3"/>
   <path d="m1.878 4.9333 6.6205-3.6863 6.5618 3.6878-6.5973 3.6146z" fill="#fafafa"/>
  </g>
  <path d="m9.4829 5.2897c-0.051527 0.044681-0.14489 0.050032-0.20844 0.011627l-0.70395-0.4256c-0.057483-0.034751-0.071673-0.093824-0.032627-0.13855l0.60212-0.70525-2.1207 1.4692c-0.050056 0.034525-0.12916 0.038571-0.18765 0.00807-0.00344-0.00178-0.00641-0.0032-0.00985-0.00534-0.051323-0.031038-0.069143-0.082186-0.041974-0.12573l0.70895-1.1658-0.93877 0.2713c-0.056427 0.016385-0.12357 0.00653-0.16478-0.02698-0.042914-0.032769-0.053627-0.080369-0.027858-0.12004l0.40426-0.6147-0.86581-0.52345c-0.063261-0.038197-0.07299-0.10597-0.021522-0.15059 0.051705-0.044829 0.1453-0.049788 0.20853-0.011556l0.95538 0.57763c0.052678 0.031851 0.069763 0.085154 0.040742 0.12891l-0.28859 0.43888 0.92318-0.26653c0.05581-0.016515 0.12159-7e-3 0.16307 0.025497 0.042617 0.031702 0.054837 0.07859 0.031405 0.11841l-0.55304 0.9093 2.427-1.6807c0.052868-0.03685 0.13647-0.038571 0.19555-0.00394 0.060188 0.042972 0.073132 0.09461 0.034442 0.13999l-1.1542 1.3504 0.60392 0.36512c0.06332 0.038334 0.072669 0.10582 0.021202 0.15045zm0.70171 0.28666-0.36361-0.21983c-0.06319-0.038203-0.15702-0.033042-0.20849 0.011627-0.051527 0.044681-0.041739 0.1124 0.021451 0.1506l0.36361 0.21983c0.063059 0.038132 0.15695 0.033102 0.20849-0.011627 0.0515-0.044657 0.04162-0.11247-0.02145-0.1506zm0.78297 0.47337-0.38695-0.23394c-0.06306-0.038132-0.15702-0.033042-0.20848 0.011627-0.05154 0.044681-0.04162 0.11247 0.02145 0.1506l0.38695 0.23394c0.06302 0.038096 0.15695 0.033102 0.20848-0.011627 0.0515-0.044657 0.04157-0.1125-0.02145-0.1506z" fill="#11a7ff" stroke-width=".044893"/>
 </g>
 <g transform="translate(28.132 .37405)" fill="#5e4aa6" stroke-width=".26458">
  <circle cx="-330.35" cy="-328.38" r="0"/>
  <circle cx="-312.11" cy="-326.25" r="0"/>
  <circle cx="-306.02" cy="-333.07" r="0"/>
  <circle cx="-308.84" cy="-326.01" r="0"/>
 </g>
</svg>
