<?xml version="1.0" encoding="UTF-8"?>
<svg width="64" height="64" version="1" xmlns="http://www.w3.org/2000/svg">
 <defs>
  <filter id="filter11290-36" x="-.024" y="-.024" width="1.048" height="1.048" color-interpolation-filters="sRGB">
   <feGaussianBlur stdDeviation="0.15875313"/>
  </filter>
  <linearGradient id="linearGradient1005-7" x1=".73911" x2="16.388" y1="16.296" y2=".64687" gradientTransform="matrix(3.7796 0 0 3.7796 -.13193 .024583)" gradientUnits="userSpaceOnUse">
   <stop stop-color="#2e55e7" offset="0"/>
   <stop stop-color="#0d7eef" offset="1"/>
  </linearGradient>
 </defs>
 <circle transform="matrix(3.7796,0,0,3.7796,1.6e-5,1.6e-5)" cx="8.4665" cy="8.4665" r="7.9377" filter="url(#filter11290-36)" opacity=".25" stroke-width=".14032"/>
 <path d="m62.001 32c0 3.5964-0.63304 7.0448-1.794 10.24-0.80698 2.2212-1.8686 4.3212-3.1519 6.2636-0.53754 0.8167-1.1155 1.6054-1.729 2.3633-1.9641 2.4257-4.2982 4.5382-6.9186 6.2526-0.96493 0.63187-1.9678 1.2099-3.0061 1.7277-4.0321 2.0179-8.5839 3.153-13.401 3.153s-9.3689-1.1351-13.401-3.1531c-1.0384-0.518-2.0425-1.096-3.0074-1.7277-2.6535-1.7376-5.0155-3.8832-6.9957-6.349-0.61468-0.76408-1.1915-1.56-1.729-2.3841-1.249-1.9102-2.2837-3.9712-3.0747-6.1494-1.1608-3.1949-1.7927-6.6419-1.7927-10.237 0-16.569 13.432-30.001 30.001-30.001 8.317 0 15.843 3.3846 21.277 8.8507 1.5661 1.5747 2.9584 3.3234 4.1436 5.214 1.1205 1.7805 2.0572 3.6882 2.7857 5.6951 1.161 3.196 1.7941 6.6442 1.7941 10.24z" fill="url(#linearGradient1005-7)" stroke-width=".11719"/>
 <g fill="#fff" fill-rule="evenodd">
  <path d="m39.222 16.078c-0.34213 0.03817-0.67508 0.15534-1.0078 0.37494 0.52056 0.64798-0.53028 6.7485 0.78562 7.5743l1.0269 0.64454v14.711l-1.6131 1.2086c-1.2433 0.93156 0.11255 6.2976-0.21359 6.9877 0.36031 0.21997 0.8986 0.45469 1.3696 0.39739 0.15088-0.0189 0.30361-0.06047 0.4551-0.13455l6.5648-3.2189c0.71544-0.35075 1.4375-0.64079 1.4375-1.4375v-22.316c0-0.79678-0.72206-1.0869-1.4375-1.4375l-6.5648-3.2189c-0.15145-0.07408-0.30418-0.11641-0.4551-0.13493-0.11778-0.01512-0.23362-0.01134-0.34769 0z" style="paint-order:stroke fill markers"/>
  <path d="m16.442 36.526 21.359-19.74c0.96974-0.89626 2.2257-0.57843 2.2257 1.2753v6.6442l-19.747 15.102c-0.3453 0.27138-1.2451 0.91897-2.0302 0.17235l-1.9977-1.8993c-0.52423-0.49842-0.22633-1.1702 0.18935-1.5544z" style="paint-order:stroke fill markers"/>
  <path d="m16.442 27.568 21.359 19.74c0.96974 0.89622 2.2257 0.57843 2.2257-1.2753v-6.6442l-19.747-15.102c-0.3453-0.27138-1.2451-0.91894-2.0302-0.17235l-1.9977 1.8993c-0.52423 0.49842-0.22633 1.1702 0.18935 1.5544z" style="paint-order:stroke fill markers"/>
 </g>
</svg>
