<?xml version="1.0" encoding="UTF-8"?>
<svg width="64" height="64" version="1" xmlns="http://www.w3.org/2000/svg">
 <defs>
  <filter id="filter11290-2" x="-.024" y="-.024" width="1.048" height="1.048" color-interpolation-filters="sRGB">
   <feGaussianBlur stdDeviation="0.15875313"/>
  </filter>
  <linearGradient id="linearGradient1005-9" x1="2.9667" x2="16.101" y1="14.069" y2=".93425" gradientTransform="matrix(3.7796 0 0 3.7796 76.777 18.412)" gradientUnits="userSpaceOnUse">
   <stop stop-color="#ff7d50" offset="0"/>
   <stop stop-color="#fa4b5a" offset=".51596"/>
   <stop stop-color="#ff509b" offset="1"/>
  </linearGradient>
  <linearGradient id="linearGradient984" x1="8.3681" x2="8.3681" y1="5.1468" y2="11.387" gradientTransform="matrix(3.7796 0 0 3.7796 76.91 18.386)" gradientUnits="userSpaceOnUse">
   <stop stop-color="#fff" offset="0"/>
   <stop stop-color="#ffcdd6" offset="1"/>
  </linearGradient>
 </defs>
 <g transform="translate(-76.91 -18.386)">
  <circle transform="matrix(3.7796 0 0 3.7796 76.91 18.386)" cx="8.4665" cy="8.4665" r="7.9377" filter="url(#filter11290-2)" opacity=".25" stroke-width=".14032"/>
  <path d="m138.91 50.387c0 3.5964-0.63305 7.0448-1.794 10.24-0.80698 2.2212-1.8686 4.3212-3.1519 6.2636-0.53755 0.8167-1.1155 1.6054-1.729 2.3633-1.9641 2.4257-4.2982 4.5382-6.9186 6.2526-0.96494 0.63187-1.9678 1.2098-3.0061 1.7277-4.0321 2.0179-8.5839 3.153-13.401 3.153-4.8171 0-9.3689-1.1351-13.401-3.1531-1.0384-0.518-2.0425-1.096-3.0074-1.7277-2.6535-1.7376-5.0155-3.8832-6.9957-6.349-0.61468-0.76408-1.1915-1.56-1.729-2.3841-1.249-1.9102-2.2837-3.9712-3.0747-6.1494-1.1608-3.1949-1.7927-6.6419-1.7927-10.237 0-16.569 13.432-30.001 30.001-30.001 8.317 0 15.843 3.3846 21.277 8.8507 1.5661 1.5747 2.9584 3.3234 4.1436 5.214 1.1205 1.7805 2.0572 3.6882 2.7857 5.6951 1.161 3.196 1.7941 6.6442 1.7941 10.24z" fill="url(#linearGradient1005-9)" stroke-width=".11719"/>
  <path d="m93.506 41.215 12.871 22.737s0.69771 1.2187 2.4514 1.2187c1.749 0 2.4467-1.2187 2.4467-1.2187s8.9448-13.699 12.596-21.006c0.36749-0.73494 0.76283-1.4792 0.93031-2.2793a3.8839 3.8839 0 0 0 0.0325-1.6745 3.591 3.591 0 0 0-0.96285-1.8048 3.8284 3.8284 0 0 0-2.1583-0.93961 4.4796 4.4796 0 0 0-2.4886 0.50235 3.2561 3.2561 0 0 0-1.2885 1.2466 3.9538 3.9538 0 0 0-0.40468 1.7304 4.7166 4.7166 0 0 0 0.26514 1.6187c0.12095 0.33034 0.27909 0.65119 0.40468 0.97684 0.0977 0.27931 0.2419 0.54419 0.26979 0.83726a2.977 2.977 0 0 1-0.13025 1.4001c-0.83725 2.1304-2.2839 4.1723-4.1957 5.4237-0.79077 0.51629-1.8048 0.64654-2.7444 0.68842-1.0792 0.04649-2.3258-0.0378-3.1956-0.51633-0.87449-0.47445-1.2838-1.3024-1.8327-2.0281-2.5118-3.3352-6.6192-10.638-6.6192-10.638s-1.7862-3.1584-5.0004-1.2466c-3.2096 1.9164-1.2513 4.977-1.2513 4.977z" fill="url(#linearGradient984)" fill-rule="evenodd" stroke-width="3.7796"/>
 </g>
</svg>
