<?xml version="1.0" encoding="UTF-8" standalone="no"?>
<svg
   xmlns:dc="http://purl.org/dc/elements/1.1/"
   xmlns:cc="http://creativecommons.org/ns#"
   xmlns:rdf="http://www.w3.org/1999/02/22-rdf-syntax-ns#"
   xmlns:svg="http://www.w3.org/2000/svg"
   xmlns="http://www.w3.org/2000/svg"
   xmlns:xlink="http://www.w3.org/1999/xlink"
   xmlns:sodipodi="http://sodipodi.sourceforge.net/DTD/sodipodi-0.dtd"
   xmlns:inkscape="http://www.inkscape.org/namespaces/inkscape"
   inkscape:version="1.0.2 (e86c870879, 2021-01-15)"
   sodipodi:docname="vocal.svg"
   viewBox="0 0 64 64"
   height="64"
   width="64"
   id="svg2"
   version="1.1">
  <metadata
     id="metadata8">
    <rdf:RDF>
      <cc:Work
         rdf:about="">
        <dc:format>image/svg+xml</dc:format>
        <dc:type
           rdf:resource="http://purl.org/dc/dcmitype/StillImage" />
        <dc:title></dc:title>
      </cc:Work>
    </rdf:RDF>
  </metadata>
  <defs
     id="defs6">
    <linearGradient
       inkscape:collect="always"
       id="linearGradient1097">
      <stop
         style="stop-color:#ffffff;stop-opacity:1"
         offset="0"
         id="stop1093" />
      <stop
         style="stop-color:#ffffff;stop-opacity:0"
         offset="1"
         id="stop1095" />
    </linearGradient>
    <linearGradient
       inkscape:collect="always"
       id="linearGradient1089">
      <stop
         style="stop-color:#fc6206;stop-opacity:1"
         offset="0"
         id="stop1085" />
      <stop
         style="stop-color:#e02700;stop-opacity:1"
         offset="1"
         id="stop1087" />
    </linearGradient>
    <linearGradient
       id="b"
       x1="399.57"
       x2="399.57"
       y1="545.8"
       y2="517.8"
       gradientTransform="matrix(2.1429,0,0,2.1429,-826.36,-1107.5)"
       gradientUnits="userSpaceOnUse">
      <stop
         stop-color="#3889e9"
         offset="0"
         id="stop2" />
      <stop
         stop-color="#5ea5fb"
         offset="1"
         id="stop4" />
    </linearGradient>
    <filter
       id="c"
       x="-.036"
       y="-.036"
       width="1.072"
       height="1.072"
       color-interpolation-filters="sRGB">
      <feGaussianBlur
         stdDeviation="0.41999874"
         id="feGaussianBlur7" />
    </filter>
    <linearGradient
       id="g"
       x1="32.02"
       x2="32.02"
       y1="2.043"
       y2="62.045"
       gradientUnits="userSpaceOnUse">
      <stop
         stop-color="#0369a3"
         offset="0"
         id="stop10" />
      <stop
         stop-color="#047fc6"
         offset="1"
         id="stop12" />
    </linearGradient>
    <linearGradient
       id="f"
       x1="32"
       x2="32"
       y1="7"
       y2="57"
       gradientUnits="userSpaceOnUse">
      <stop
         stop-color="#d2f3fc"
         offset="0"
         id="stop15" />
      <stop
         stop-color="#fff"
         offset="1"
         id="stop17" />
    </linearGradient>
    <linearGradient
       id="e"
       x1="45.501"
       x2="45.501"
       y1="7.1055"
       y2="29.896"
       gradientUnits="userSpaceOnUse">
      <stop
         stop-color="#ebfafe"
         offset="0"
         id="stop20" />
      <stop
         stop-color="#e7f8fc"
         offset="1"
         id="stop22" />
    </linearGradient>
    <filter
       id="k"
       x="-.036"
       y="-.036"
       width="1.072"
       height="1.072"
       color-interpolation-filters="sRGB">
      <feGaussianBlur
         stdDeviation="0.75"
         id="feGaussianBlur25" />
    </filter>
    <radialGradient
       id="d"
       cx="38.066"
       cy="26.192"
       r="25"
       gradientTransform="matrix(-.8 2.9886e-8 -1.9265e-8 -1 80.453 40.192)"
       gradientUnits="userSpaceOnUse">
      <stop
         stop-color="#1e353c"
         stop-opacity=".48538"
         offset="0"
         id="stop28" />
      <stop
         stop-color="#191919"
         stop-opacity="0"
         offset="1"
         id="stop30" />
    </radialGradient>
    <linearGradient
       id="h-26"
       x1="499.95"
       x2="499.95"
       y1="2.0078"
       y2="1026"
       gradientTransform="matrix(.99609 0 0 .99609 2 2)"
       gradientUnits="userSpaceOnUse">
      <stop
         stop-color="#fff"
         offset="0"
         id="stop33" />
      <stop
         stop-color="#d7d7d7"
         offset="1"
         id="stop35" />
    </linearGradient>
    <radialGradient
       id="i-5"
       cx="512.01"
       cy="512.01"
       r="470.16"
       gradientTransform="matrix(.97625 0 0 .97625 12.152 12.141)"
       gradientUnits="userSpaceOnUse">
      <stop
         stop-opacity="0"
         offset="0"
         id="stop38" />
      <stop
         stop-opacity=".52593"
         offset="1"
         id="stop40" />
    </radialGradient>
    <filter
       id="g-1"
       x="-.048"
       y="-.048"
       width="1.096"
       height="1.096"
       color-interpolation-filters="sRGB">
      <feGaussianBlur
         stdDeviation="6.174"
         id="feGaussianBlur43" />
    </filter>
    <linearGradient
       id="f-9"
       x1="2331.3"
       x2="2331.3"
       y1="435.51"
       y2="45.726"
       gradientTransform="matrix(2.6682,0,0,2.6682,-5700.6,-128.41)"
       gradientUnits="userSpaceOnUse">
      <stop
         stop-color="#807c76"
         offset=".057692"
         id="stop46" />
      <stop
         stop-color="#d4d7d0"
         offset=".38462"
         id="stop48" />
      <stop
         stop-color="#bdbfba"
         offset=".55769"
         id="stop50" />
      <stop
         stop-color="#acb3ac"
         offset=".63462"
         id="stop52" />
      <stop
         stop-color="#dadfda"
         offset=".75"
         id="stop54" />
      <stop
         stop-color="#c2c7c1"
         offset=".86274"
         id="stop56" />
      <stop
         stop-color="#7f7a75"
         offset=".94118"
         id="stop58" />
    </linearGradient>
    <filter
       id="d-6"
       x="-.06"
       y="-.06"
       width="1.12"
       height="1.12"
       color-interpolation-filters="sRGB">
      <feGaussianBlur
         stdDeviation="0.64998245"
         id="feGaussianBlur61" />
    </filter>
    <linearGradient
       id="a-3"
       x1="32"
       x2="32"
       y1="2"
       y2="62"
       gradientTransform="matrix(0.95161,0,0,0.95161,385.6,486.76)"
       gradientUnits="userSpaceOnUse">
      <stop
         stop-color="#f5faff"
         offset="0"
         id="stop927" />
      <stop
         stop-color="#cfdef0"
         offset="1"
         id="stop929" />
    </linearGradient>
    <style
       type="text/css"
       id="style987" />
    <linearGradient
       inkscape:collect="always"
       xlink:href="#linearGradient1089"
       id="linearGradient1091"
       x1="31.984375"
       y1="14.5"
       x2="31.984375"
       y2="50.037895"
       gradientUnits="userSpaceOnUse" />
    <linearGradient
       inkscape:collect="always"
       xlink:href="#linearGradient1097"
       id="linearGradient1099"
       x1="29.536596"
       y1="41.21381"
       x2="29.536596"
       y2="22.164768"
       gradientUnits="userSpaceOnUse" />
    <filter
       color-interpolation-filters="sRGB"
       height="1.048"
       width="1.048"
       y="-.024"
       x="-.024"
       id="filter2761">
      <feGaussianBlur
         id="feGaussianBlur2"
         stdDeviation="0.14552168" />
    </filter>
    <linearGradient
       gradientUnits="userSpaceOnUse"
       gradientTransform="translate(0 -.07421)"
       y2="1.17"
       y1="15.576"
       x2="15.65"
       x1="1.3315"
       id="linearGradient1024-6">
      <stop
         id="stop5"
         offset="0"
         stop-color="#dddfe1" />
      <stop
         id="stop7"
         offset="1"
         stop-opacity=".99608"
         stop-color="#f3f4f6" />
    </linearGradient>
    <filter
       id="filter11290"
       x="-.024"
       y="-.024"
       width="1.048"
       height="1.048"
       color-interpolation-filters="sRGB">
      <feGaussianBlur
         stdDeviation="0.15875313"
         id="feGaussianBlur897" />
    </filter>
    <linearGradient
       id="linearGradient1005"
       x1=".73911"
       x2="16.388"
       y1="16.296"
       y2=".64687"
       gradientTransform="matrix(3.7796,0,0,3.7796,-0.13196,0.0253951)"
       gradientUnits="userSpaceOnUse">
      <stop
         stop-color="#dddfe1"
         offset="0"
         id="stop900" />
      <stop
         stop-color="#f3f4f6"
         offset="1"
         id="stop902" />
    </linearGradient>
  </defs>
  <sodipodi:namedview
     inkscape:current-layer="g10"
     inkscape:window-maximized="1"
     inkscape:window-y="38"
     inkscape:window-x="0"
     inkscape:cy="37.997253"
     inkscape:cx="-21.491379"
     inkscape:zoom="3.6625922"
     showgrid="false"
     id="namedview4"
     inkscape:window-height="935"
     inkscape:window-width="1920"
     inkscape:pageshadow="2"
     inkscape:pageopacity="0"
     guidetolerance="10"
     gridtolerance="10"
     objecttolerance="10"
     borderopacity="1"
     bordercolor="#666666"
     pagecolor="#ffffff"
     inkscape:document-rotation="0" />
  <g
     id="g10"
     inkscape:label="Image"
     inkscape:groupmode="layer">
    <circle
       transform="matrix(3.7796,0,0,3.7796,1.6203648e-5,1.6203648e-5)"
       cx="8.4665003"
       cy="8.4665003"
       r="7.9376998"
       filter="url(#filter11290)"
       opacity="0.25"
       stroke-width="0.14032"
       id="circle907" />
    <path
       d="m 62.0004,32.00045 c 0,3.5964 -0.63304,7.0448 -1.794,10.24 -0.80698,2.2212 -1.8686,4.3212 -3.1519,6.2636 -0.53754,0.8167 -1.1155,1.6054 -1.729,2.3633 -1.9641,2.4257 -4.2982,4.5382 -6.9186,6.2526 -0.96493,0.63187 -1.9678,1.2098 -3.0061,1.7277 -4.0321,2.0179 -8.5839,3.153 -13.401,3.153 -4.8171,0 -9.3689,-1.1351 -13.401,-3.1531 -1.0384,-0.518 -2.0425,-1.096 -3.0074,-1.7277 -2.6535,-1.7376 -5.0155,-3.8832 -6.9957,-6.349 -0.61468,-0.76408 -1.1915,-1.56 -1.729,-2.3841 -1.249,-1.9102 -2.2837,-3.9712 -3.0747,-6.1494 -1.1608,-3.1949 -1.7927,-6.6419 -1.7927,-10.237 0,-16.569 13.432,-30.0009999 30.001,-30.0009999 8.317,0 15.843,3.3846 21.277,8.8506999 1.5661,1.5747 2.9584,3.3234 4.1436,5.214 1.1205,1.7805 2.0572,3.6882 2.7857,5.6951 1.161,3.196 1.7941,6.6442 1.7941,10.24 z"
       fill="url(#linearGradient1005)"
       stroke-width="0.11719"
       id="path909"
       style="fill:url(#linearGradient1005)" />
    <g
       id="g1083"
       style="fill-opacity:1;fill:url(#linearGradient1091);stroke:url(#linearGradient1099);stroke-opacity:1">
      <path
         id="rect1077"
         style="fill:url(#linearGradient1091);fill-opacity:1;stroke:url(#linearGradient1099);stroke-width:0.5;stroke-linejoin:round;stroke-miterlimit:4;stroke-dasharray:none;stroke-opacity:1;paint-order:stroke fill markers"
         d="M 31.984375 14.5 A 6.043166 6.043166 0 0 0 25.957031 20.542969 L 25.957031 30.691406 A 6.0431657 6.0431657 0 0 0 32 36.734375 A 6.0431657 6.0431657 0 0 0 38.042969 30.691406 L 38.042969 20.542969 A 6.043166 6.043166 0 0 0 31.984375 14.5 z " />
      <path
         id="rect1072"
         style="fill:url(#linearGradient1091);fill-opacity:1;stroke:url(#linearGradient1099);stroke-width:0.5;stroke-linejoin:round;stroke-miterlimit:4;stroke-dasharray:none;stroke-opacity:1;paint-order:stroke fill markers"
         d="M 21.90625 29.666016 A 1.0071945 1.0071945 0 0 0 20.919922 30.673828 L 20.919922 30.925781 C 20.919922 36.566069 25.322133 41.213104 30.929688 41.751953 L 30.929688 47.486328 L 26.964844 47.486328 A 1.0071945 1.0071945 0 0 0 26.964844 49.5 L 37.035156 49.5 A 1.0071945 1.0071945 0 0 0 37.035156 47.486328 L 32.943359 47.486328 L 32.943359 41.748047 C 38.611345 41.277184 43.080078 36.600498 43.080078 30.919922 L 43.080078 30.667969 A 1.0071943 1.0071943 0 0 0 42.072266 29.666016 A 1.0071943 1.0071943 0 0 0 41.064453 30.673828 L 41.064453 30.925781 C 41.064453 35.808156 36.998202 39.78125 32 39.78125 C 27.001799 39.78125 22.935547 35.808156 22.935547 30.925781 L 22.935547 30.673828 A 1.0071945 1.0071945 0 0 0 21.90625 29.666016 z " />
    </g>
    <g
       fill="#5e4aa6"
       id="g931"
       transform="translate(-78.595953,1.6203648e-5)">
      <circle
         cx="-1317.9"
         cy="-1241.1"
         r="0"
         id="circle917" />
      <circle
         cx="-1228.4"
         cy="-1247.2"
         r="0"
         id="circle919" />
      <g
         transform="matrix(3.7796,0,0,3.7796,-86.815,-82.958)"
         stroke-width="0.26458"
         id="g929">
        <circle
           cx="-330.35001"
           cy="-328.38"
           r="0"
           id="circle921" />
        <circle
           cx="-312.10999"
           cy="-326.25"
           r="0"
           id="circle923" />
        <circle
           cx="-306.01999"
           cy="-333.07001"
           r="0"
           id="circle925" />
        <circle
           cx="-308.84"
           cy="-326.01001"
           r="0"
           id="circle927" />
      </g>
    </g>
  </g>
</svg>
