<?xml version="1.0" encoding="UTF-8"?>
<!-- Created with Inkscape (http://www.inkscape.org/) -->
<svg width="64" height="64" version="1.1" viewBox="0 0 16.933 16.933" xmlns="http://www.w3.org/2000/svg" xmlns:cc="http://creativecommons.org/ns#" xmlns:dc="http://purl.org/dc/elements/1.1/" xmlns:rdf="http://www.w3.org/1999/02/22-rdf-syntax-ns#">
 <defs>
  <filter id="filter11290" x="-.024" y="-.024" width="1.048" height="1.048" color-interpolation-filters="sRGB">
   <feGaussianBlur stdDeviation="0.15875313"/>
  </filter>
  <linearGradient id="linearGradient1005" x1=".73911" x2="16.388" y1="16.296" y2=".64687" gradientTransform="translate(-.0078552 -5.0139e-5)" gradientUnits="userSpaceOnUse">
   <stop stop-color="#00c8ff" offset="0"/>
   <stop stop-color="#14a0ff" offset="1"/>
  </linearGradient>
  <filter id="filter985" x="-.059096" y="-.060921" width="1.1182" height="1.1218" color-interpolation-filters="sRGB">
   <feGaussianBlur stdDeviation="0.21619832"/>
  </filter>
  <filter id="filter1015" x="-.084" y="-.084" width="1.168" height="1.168" color-interpolation-filters="sRGB">
   <feGaussianBlur stdDeviation="0.3089756"/>
  </filter>
  <linearGradient id="linearGradient1025" x1="7.9876" x2="12.91" y1="7.7203" y2="12.495" gradientUnits="userSpaceOnUse">
   <stop stop-color="#fafaff" offset="0"/>
   <stop stop-color="#a1d8ff" offset="1"/>
  </linearGradient>
 </defs>
 <metadata>
  <rdf:RDF>
   <cc:Work rdf:about="">
    <dc:format>image/svg+xml</dc:format>
    <dc:type rdf:resource="http://purl.org/dc/dcmitype/StillImage"/>
    <dc:title/>
   </cc:Work>
  </rdf:RDF>
 </metadata>
 <circle cx="8.4937" cy="8.46" r="7.9377" filter="url(#filter11290)" opacity=".25" stroke-width=".14032"/>
 <path d="m16.431 8.4599c0 0.95154-0.16749 1.8639-0.47464 2.7094-0.21351 0.58768-0.49439 1.1433-0.83393 1.6572-0.14222 0.21608-0.29514 0.42475-0.45746 0.62529-0.51966 0.64179-1.1372 1.2007-1.8305 1.6543-0.2553 0.16718-0.52065 0.3201-0.79536 0.45712-1.0668 0.53389-2.2711 0.83421-3.5456 0.83421s-2.4788-0.30032-3.5456-0.83424c-0.27474-0.13705-0.5404-0.28997-0.7957-0.45712-0.70207-0.45973-1.327-1.0274-1.8509-1.6798-0.16263-0.20216-0.31524-0.41275-0.45746-0.63078-0.33046-0.5054-0.60421-1.0507-0.8135-1.627-0.30711-0.84529-0.4743-1.7573-0.4743-2.7085 0-4.3838 3.5537-7.9375 7.9375-7.9375 2.2005 0 4.1917 0.89548 5.6295 2.3417 0.41436 0.41662 0.78274 0.87929 1.0963 1.3795 0.29645 0.47107 0.54428 0.97582 0.73704 1.5068 0.30718 0.84559 0.47467 1.7579 0.47467 2.7094z" fill="url(#linearGradient1005)" stroke-width=".031006"/>
 <g fill="#5e4aa6" stroke-width=".26458">
  <circle cx="-330.35" cy="-328.38" r="0"/>
  <circle cx="-312.11" cy="-326.25" r="0"/>
  <circle cx="-306.02" cy="-333.07" r="0"/>
  <circle cx="-308.84" cy="-326.01" r="0"/>
 </g>
 <g transform="translate(.45751 -.79575)">
  <circle cx="8.036" cy="9.2557" r="4.4139" fill="#1496ff" filter="url(#filter1015)"/>
  <g transform="translate(-.67178 .6373)">
   <path d="m13.048 7.8742a2.6848 5.7985 52.956 0 1-0.18913 0.32349 2.6848 5.7985 52.956 0 1-0.27698 0.40824 2.6848 5.7985 52.956 0 1-0.31625 0.40927 2.6848 5.7985 52.956 0 1-0.35191 0.4072 2.6848 5.7985 52.956 0 1-0.38395 0.39997 2.6848 5.7985 52.956 0 1-0.41289 0.38912 2.6848 5.7985 52.956 0 1-0.43666 0.37465 2.6848 5.7985 52.956 0 1-0.32194 0.25424 2.6848 5.7985 52.956 0 1-0.46818 0.34106 2.6848 5.7985 52.956 0 1-0.48058 0.31677 2.6848 5.7985 52.956 0 1-0.48782 0.28887 2.6848 5.7985 52.956 0 1-0.48988 0.25838 2.6848 5.7985 52.956 0 1-0.4873 0.22582 2.6848 5.7985 52.956 0 1-0.48058 0.19068 2.6848 5.7985 52.956 0 1-0.3979 0.13022 4.4139 4.4139 0 0 0 1.6159 0.31057 4.4139 4.4139 0 0 0 4.4136-4.4141 4.4139 4.4139 0 0 0-0.04754-0.61442z" fill="#fff" opacity=".55"/>
   <path transform="matrix(.93108 0 0 .94458 .98435 .77737)" d="m8.6817 4.075a4.4139 4.4139 0 0 0-4.4141 4.4136 4.4139 4.4139 0 0 0 0.11989 0.99889 4.4139 4.4139 0 0 0 2.6783 3.1047 2.6848 5.7985 52.956 0 0 0.3979-0.13022 2.6848 5.7985 52.956 0 0 0.48058-0.19068 2.6848 5.7985 52.956 0 0 0.4873-0.22582 2.6848 5.7985 52.956 0 0 0.48988-0.25838 2.6848 5.7985 52.956 0 0 0.48782-0.28887 2.6848 5.7985 52.956 0 0 0.48058-0.31677 2.6848 5.7985 52.956 0 0 0.46818-0.34106 2.6848 5.7985 52.956 0 0 0.32194-0.25424 2.6848 5.7985 52.956 0 0 0.43666-0.37465 2.6848 5.7985 52.956 0 0 0.41289-0.38912 2.6848 5.7985 52.956 0 0 0.38395-0.39997 2.6848 5.7985 52.956 0 0 0.35191-0.4072 2.6848 5.7985 52.956 0 0 0.31625-0.40927 2.6848 5.7985 52.956 0 0 0.27698-0.40824 2.6848 5.7985 52.956 0 0 0.18913-0.32349 4.4139 4.4139 0 0 0-2.0665-3.147 4.4139 4.4139 0 0 0-2.2996-0.65214z" fill="#0096ff" filter="url(#filter985)" opacity=".25"/>
   <path d="m8.6817 4.075a4.4139 4.4139 0 0 0-4.4141 4.4136 4.4139 4.4139 0 0 0 0.11989 0.99889 4.4139 4.4139 0 0 0 2.6783 3.1047 2.6848 5.7985 52.956 0 0 0.3979-0.13022 2.6848 5.7985 52.956 0 0 0.48058-0.19068 2.6848 5.7985 52.956 0 0 0.4873-0.22582 2.6848 5.7985 52.956 0 0 0.48988-0.25838 2.6848 5.7985 52.956 0 0 0.48782-0.28887 2.6848 5.7985 52.956 0 0 0.48058-0.31677 2.6848 5.7985 52.956 0 0 0.46818-0.34106 2.6848 5.7985 52.956 0 0 0.32194-0.25424 2.6848 5.7985 52.956 0 0 0.43666-0.37465 2.6848 5.7985 52.956 0 0 0.41289-0.38912 2.6848 5.7985 52.956 0 0 0.38395-0.39997 2.6848 5.7985 52.956 0 0 0.35191-0.4072 2.6848 5.7985 52.956 0 0 0.31625-0.40927 2.6848 5.7985 52.956 0 0 0.27698-0.40824 2.6848 5.7985 52.956 0 0 0.18913-0.32349 4.4139 4.4139 0 0 0-2.0665-3.147 4.4139 4.4139 0 0 0-2.2996-0.65214z" fill="url(#linearGradient1025)"/>
   <path d="m13.039 7.8737a2.6848 5.7985 52.956 0 0 0.2408-2.6515 2.6848 5.7985 52.956 0 0-2.3083-0.49505 4.4139 4.4139 0 0 1 0.19327 0.11885 4.4139 4.4139 0 0 1 0.35139 0.26665 4.4139 4.4139 0 0 1 0.32297 0.30075 4.4139 4.4139 0 0 1 0.29093 0.33176 4.4139 4.4139 0 0 1 0.25683 0.35863 4.4139 4.4139 0 0 1 0.21962 0.38292 4.4139 4.4139 0 0 1 0.18035 0.40255 4.4139 4.4139 0 0 1 0.13901 0.41857 4.4139 4.4139 0 0 1 0.09663 0.43046 4.4139 4.4139 0 0 1 0.01654 0.13539z" fill="#fff" opacity=".55"/>
   <path d="m4.4055 9.4875a2.6848 5.7985 52.956 0 0-0.31315 2.7755 2.6848 5.7985 52.956 0 0 2.9915 0.32917 4.4139 4.4139 0 0 1-0.10335-0.03772 4.4139 4.4139 0 0 1-0.39739-0.19223 4.4139 4.4139 0 0 1-0.37568-0.23047 4.4139 4.4139 0 0 1-0.35139-0.26716 4.4139 4.4139 0 0 1-0.32297-0.30075 4.4139 4.4139 0 0 1-0.29093-0.33124 4.4139 4.4139 0 0 1-0.25683-0.35914 4.4139 4.4139 0 0 1-0.21962-0.3824 4.4139 4.4139 0 0 1-0.18035-0.40307 4.4139 4.4139 0 0 1-0.13901-0.41857 4.4139 4.4139 0 0 1-0.04082-0.1819z" fill="#fff" opacity=".55"/>
  </g>
 </g>
</svg>
