<?xml version="1.0" encoding="UTF-8" standalone="no"?>
<svg
   xmlns:dc="http://purl.org/dc/elements/1.1/"
   xmlns:cc="http://creativecommons.org/ns#"
   xmlns:rdf="http://www.w3.org/1999/02/22-rdf-syntax-ns#"
   xmlns:svg="http://www.w3.org/2000/svg"
   xmlns="http://www.w3.org/2000/svg"
   xmlns:sodipodi="http://sodipodi.sourceforge.net/DTD/sodipodi-0.dtd"
   xmlns:inkscape="http://www.inkscape.org/namespaces/inkscape"
   inkscape:version="1.0 (4035a4fb49, 2020-05-01)"
   sodipodi:docname="wine.svg"
   id="svg17"
   version="1.1"
   height="64"
   width="64">
  <metadata
     id="metadata21">
    <rdf:RDF>
      <cc:Work
         rdf:about="">
        <dc:format>image/svg+xml</dc:format>
        <dc:type
           rdf:resource="http://purl.org/dc/dcmitype/StillImage" />
        <dc:title></dc:title>
      </cc:Work>
    </rdf:RDF>
  </metadata>
  <sodipodi:namedview
     inkscape:current-layer="svg17"
     inkscape:window-maximized="1"
     inkscape:window-y="36"
     inkscape:window-x="0"
     inkscape:cy="36.000454"
     inkscape:cx="10.544377"
     inkscape:zoom="4.2150193"
     showgrid="false"
     id="namedview19"
     inkscape:window-height="932"
     inkscape:window-width="1920"
     inkscape:pageshadow="2"
     inkscape:pageopacity="0"
     guidetolerance="10"
     gridtolerance="10"
     objecttolerance="10"
     borderopacity="1"
     bordercolor="#666666"
     pagecolor="#ffffff" />
  <defs
     id="defs7">
    <linearGradient
       gradientUnits="userSpaceOnUse"
       gradientTransform="scale(3.7796)"
       y2="1.852"
       y1="15.081"
       x2="7.9373"
       x1="7.9373"
       id="linearGradient862-3">
      <stop
         id="stop2"
         offset="0"
         stop-color="#1560ff" />
      <stop
         id="stop4"
         offset="1"
         stop-color="#15afff" />
    </linearGradient>
    <linearGradient
       gradientUnits="userSpaceOnUse"
       gradientTransform="matrix(3.7796,0,0,3.7796,80.433527,0)"
       y2="1.852"
       y1="15.081"
       x2="7.9373"
       x1="7.9373"
       id="linearGradient862">
      <stop
         id="stop2-3"
         offset="0"
         stop-color="#0962ff" />
      <stop
         id="stop4-6"
         offset="1"
         stop-color="#23f4ff" />
    </linearGradient>
    <linearGradient
       gradientTransform="translate(103.94237,-18.239654)"
       gradientUnits="userSpaceOnUse"
       y2="45.288"
       y1="20.339"
       x2="32.468"
       x1="32.468"
       id="linearGradient901">
      <stop
         id="stop7"
         offset="0"
         stop-color="#fff" />
      <stop
         id="stop9"
         offset="1"
         stop-color="#d9f9ff" />
    </linearGradient>
    <style
       id="style851"
       type="text/css" />
    <style
       id="style853"
       type="text/css" />
    <style
       id="style855"
       type="text/css" />
    <filter
       color-interpolation-filters="sRGB"
       height="1.048"
       width="1.048"
       y="-.024"
       x="-.024"
       id="filter2761">
      <feGaussianBlur
         id="feGaussianBlur857"
         stdDeviation="0.14552168" />
    </filter>
    <linearGradient
       gradientUnits="userSpaceOnUse"
       gradientTransform="matrix(3.779602,0,0,3.779602,2.1145996,-13.690874)"
       y2="1.17"
       y1="15.576"
       x2="15.65"
       x1="1.3315"
       id="linearGradient1024">
      <stop
         id="stop860"
         offset="0"
         stop-color="#00c8ff" />
      <stop
         id="stop862"
         offset="1"
         stop-color="#14a0ff" />
    </linearGradient>
    <filter
       id="filter11290"
       x="-.024"
       y="-.024"
       width="1.048"
       height="1.048"
       color-interpolation-filters="sRGB">
      <feGaussianBlur
         stdDeviation="0.15875313"
         id="feGaussianBlur852" />
    </filter>
    <linearGradient
       id="linearGradient1005"
       x1=".8714"
       x2="16.246"
       y1="16.164"
       y2=".78937"
       gradientTransform="matrix(3.779602,0,0,3.779602,-0.13342,0.024567)"
       gradientUnits="userSpaceOnUse">
      <stop
         stop-color="#00c8ff"
         offset="0"
         id="stop855" />
      <stop
         stop-color="#14a0ff"
         offset="1"
         id="stop857" />
    </linearGradient>
  </defs>
  <circle
     transform="scale(3.779602)"
     id="circle862"
     stroke-width="0.14032"
     opacity="0.25"
     filter="url(#filter11290)"
     r="7.9376998"
     cy="8.4665003"
     cx="8.4665003" />
  <path
     id="path864"
     stroke-width="0.11719"
     fill="url(#linearGradient1005)"
     d="m 62.00038,31.999811 c 0,3.596442 -0.63304,7.0448 -1.79395,10.240453 -0.80698,2.221197 -1.86859,4.321219 -3.15192,6.263557 -0.53754,0.816696 -1.11551,1.605386 -1.72902,2.363347 -1.96411,2.425711 -4.29816,4.538168 -6.91856,6.252596 -0.96493,0.631874 -1.96785,1.20985 -3.00614,1.727731 -4.03208,2.017892 -8.58386,3.152982 -13.40096,3.152982 -4.8171,0 -9.36888,-1.13509 -13.40096,-3.153095 C 17.56046,58.329388 16.55638,57.751411 15.59144,57.11965 12.9379,55.382054 10.57591,53.236487 8.59578,50.770675 7.9811,50.006591 7.4043,49.210644 6.86676,48.386578 5.61776,46.476367 4.58309,44.41535 3.79206,42.237165 2.6313,39.042305 1.99939,35.595271 1.99939,32.000113 c 0,-16.569019 13.43157,-30.00059 30.00059,-30.00059 8.31702,0 15.84296,3.384557 21.27727,8.850693 1.56612,1.574658 2.95845,3.323367 4.14358,5.213961 1.12046,1.780457 2.05716,3.688211 2.78572,5.695105 1.16101,3.195993 1.79406,6.644162 1.79406,10.240453 z"
     style="fill:url(#linearGradient1005)" />
  <path
     id="path15"
     stroke-width="3.7796"
     fill="#fff"
     d="m18.339 31-0.01134-9.7514 10.938-1.629v11.38zm12.752-11.671 14.578-2.3282v14h-14.578zm14.582 13.671-0.0038 14-14.578-2.2489v-11.751zm-16.403 11.498-10.931-1.6441v-9.8572h10.927v11.498z" />
  <g
     transform="translate(103.94244,-18.239684)"
     id="g877"
     fill="#5e4aa6">
    <circle
       id="circle871"
       r="0"
       cy="-1262.9"
       cx="-1401.7" />
    <circle
       id="circle873"
       fill-rule="evenodd"
       r="0"
       cy="2.5994"
       cx="-302.14001" />
    <circle
       id="circle875"
       r="0"
       cy="-1279.3"
       cx="-1124.8" />
  </g>
  <g
     id="g887"
     stroke-width="0.26458"
     fill="#5e4aa6"
     transform="matrix(3.779602,0,0,3.779602,227.77244,-56.42369)">
    <circle
       id="circle879"
       r="0"
       cy="-338.76999"
       cx="-299.01999" />
    <circle
       id="circle881"
       fill-rule="evenodd"
       r="0"
       cy="-3.9487"
       cx="-8.1062002" />
    <circle
       id="circle883"
       r="0"
       cy="-357.69"
       cx="-278.25" />
    <circle
       id="circle885"
       fill-rule="evenodd"
       r="0"
       cy="-22.858999"
       cx="12.663" />
  </g>
  <g
     id="g874"
     stroke-width="0.26458"
     fill="#5e4aa6"
     transform="matrix(3.779602,0,0,3.779602,14.035977,-12.928062)">
    <circle
       id="circle866"
       r="0"
       cy="-328.38"
       cx="-330.35001" />
    <circle
       id="circle868"
       r="0"
       cy="-326.25"
       cx="-312.10999" />
    <circle
       id="circle870"
       r="0"
       cy="-333.07001"
       cx="-306.01999" />
    <circle
       id="circle872"
       r="0"
       cy="-326.01001"
       cx="-308.84" />
  </g>
</svg>
