<?xml version="1.0" encoding="UTF-8" standalone="no"?>
<svg
   xmlns:dc="http://purl.org/dc/elements/1.1/"
   xmlns:cc="http://creativecommons.org/ns#"
   xmlns:rdf="http://www.w3.org/1999/02/22-rdf-syntax-ns#"
   xmlns:svg="http://www.w3.org/2000/svg"
   xmlns="http://www.w3.org/2000/svg"
   xmlns:sodipodi="http://sodipodi.sourceforge.net/DTD/sodipodi-0.dtd"
   xmlns:inkscape="http://www.inkscape.org/namespaces/inkscape"
   inkscape:version="1.0 (4035a4fb49, 2020-05-01)"
   sodipodi:docname="wine.svg"
   id="svg17"
   version="1.1"
   height="64"
   width="64">
  <metadata
     id="metadata21">
    <rdf:RDF>
      <cc:Work
         rdf:about="">
        <dc:format>image/svg+xml</dc:format>
        <dc:type
           rdf:resource="http://purl.org/dc/dcmitype/StillImage" />
        <dc:title></dc:title>
      </cc:Work>
    </rdf:RDF>
  </metadata>
  <sodipodi:namedview
     inkscape:current-layer="svg17"
     inkscape:window-maximized="1"
     inkscape:window-y="36"
     inkscape:window-x="0"
     inkscape:cy="16.259662"
     inkscape:cx="1.6467978"
     inkscape:zoom="4.391796"
     showgrid="false"
     id="namedview19"
     inkscape:window-height="964"
     inkscape:window-width="1920"
     inkscape:pageshadow="2"
     inkscape:pageopacity="0"
     guidetolerance="10"
     gridtolerance="10"
     objecttolerance="10"
     borderopacity="1"
     bordercolor="#666666"
     pagecolor="#ffffff" />
  <defs
     id="defs7">
    <linearGradient
       gradientUnits="userSpaceOnUse"
       gradientTransform="matrix(3.7796,0,0,3.7796,-6.0111581,-23.197598)"
       y2="1.852"
       y1="15.081"
       x2="7.9373"
       x1="7.9373"
       id="linearGradient862-3">
      <stop
         id="stop2"
         offset="0"
         stop-color="#1560ff" />
      <stop
         id="stop4"
         offset="1"
         stop-color="#15afff" />
    </linearGradient>
    <style
       type="text/css"
       id="style848" />
    <filter
       id="filter11290"
       x="-.024"
       y="-.024"
       width="1.048"
       height="1.048"
       color-interpolation-filters="sRGB">
      <feGaussianBlur
         stdDeviation="0.15875313"
         id="feGaussianBlur850" />
    </filter>
    <linearGradient
       id="linearGradient1005"
       x1=".8714"
       x2="16.246"
       y1="16.164"
       y2=".78937"
       gradientTransform="matrix(3.7796,0,0,3.7796,-0.13281,0.02482815)"
       gradientUnits="userSpaceOnUse">
      <stop
         stop-color="#00c8ff"
         offset="0"
         id="stop853" />
      <stop
         stop-color="#14a0ff"
         offset="1"
         id="stop855" />
    </linearGradient>
  </defs>
  <circle
     id="circle872"
     stroke-width="0.14032"
     opacity="0.25"
     filter="url(#filter11290)"
     r="7.9376998"
     cy="8.46"
     cx="8.4937"
     transform="matrix(3.7796,0,0,3.7796,-0.10278795,0.02458453)" />
  <path
     id="path874"
     stroke-width="0.11719"
     fill="url(#linearGradient1005)"
     d="m 62.0004,32.00045 c 0,3.5964 -0.63305,7.0448 -1.794,10.24 -0.80698,2.2212 -1.8686,4.3212 -3.1519,6.2636 -0.53754,0.8167 -1.1155,1.6054 -1.729,2.3633 -1.9641,2.4257 -4.2982,4.5382 -6.9186,6.2526 -0.96493,0.63187 -1.9678,1.2098 -3.0061,1.7277 -4.0321,2.0179 -8.5839,3.153 -13.401,3.153 -4.8171,0 -9.3689,-1.1351 -13.401,-3.1531 -1.0384,-0.518 -2.0425,-1.096 -3.0074,-1.7277 -2.6535,-1.7376 -5.0155,-3.8832 -6.9957,-6.349 -0.61468,-0.76408 -1.1915,-1.56 -1.729,-2.3841 -1.249,-1.9102 -2.2837,-3.9712 -3.0747,-6.1494 -1.1608,-3.1949 -1.7927,-6.6419 -1.7927,-10.237 0,-16.569 13.432,-30.0009999 30.001,-30.0009999 8.317,0 15.843,3.3846 21.277,8.8506999 1.5661,1.5747 2.9584,3.3234 4.1436,5.214 1.1205,1.7805 2.0572,3.6882 2.7857,5.6951 1.161,3.196 1.7941,6.6442 1.7941,10.24 z"
     style="fill:url(#linearGradient1005)" />
  <path
     id="path15"
     stroke-width="3.7796"
     fill="#fff"
     d="m18.339 31-0.01134-9.7514 10.938-1.629v11.38zm12.752-11.671 14.578-2.3282v14h-14.578zm14.582 13.671-0.0038 14-14.578-2.2489v-11.751zm-16.403 11.498-10.931-1.6441v-9.8572h10.927v11.498z" />
  <circle
     id="circle860"
     fill="#5e4aa6"
     r="0"
     cy="-1287.9492"
     cx="-1202.8311" />
  <g
     id="g870"
     stroke-width="0.26458"
     fill="#5e4aa6"
     transform="matrix(3.7796,0,0,3.7796,45.798962,-46.833179)">
    <circle
       id="circle862"
       r="0"
       cy="-338.76999"
       cx="-299.01999" />
    <circle
       id="circle864"
       fill-rule="evenodd"
       r="0"
       cy="-3.9487"
       cx="-8.1062002" />
    <circle
       id="circle866"
       r="0"
       cy="-357.69"
       cx="-278.25" />
    <circle
       id="circle868"
       fill-rule="evenodd"
       r="0"
       cy="-22.858999"
       cx="12.663" />
  </g>
  <g
     id="g884"
     stroke-width="0.26458"
     fill="#5e4aa6"
     transform="matrix(3.7796,0,0,3.7796,-78.133838,-8.6246107)">
    <circle
       id="circle876"
       r="0"
       cy="-328.38"
       cx="-330.35001" />
    <circle
       id="circle878"
       r="0"
       cy="-326.25"
       cx="-312.10999" />
    <circle
       id="circle880"
       r="0"
       cy="-333.07001"
       cx="-306.01999" />
    <circle
       id="circle882"
       r="0"
       cy="-326.01001"
       cx="-308.84" />
  </g>
</svg>
