<?xml version="1.0" encoding="UTF-8" standalone="no"?>
<svg
   xmlns:dc="http://purl.org/dc/elements/1.1/"
   xmlns:cc="http://creativecommons.org/ns#"
   xmlns:rdf="http://www.w3.org/1999/02/22-rdf-syntax-ns#"
   xmlns:svg="http://www.w3.org/2000/svg"
   xmlns="http://www.w3.org/2000/svg"
   xmlns:sodipodi="http://sodipodi.sourceforge.net/DTD/sodipodi-0.dtd"
   xmlns:inkscape="http://www.inkscape.org/namespaces/inkscape"
   inkscape:version="1.0 (4035a4fb49, 2020-05-01)"
   sodipodi:docname="wps-office2019-kprometheus.svg"
   id="svg32"
   viewBox="0 0 16.933 16.933"
   version="1.1"
   height="64"
   width="64">
  <metadata
     id="metadata36">
    <rdf:RDF>
      <cc:Work
         rdf:about="">
        <dc:format>image/svg+xml</dc:format>
        <dc:type
           rdf:resource="http://purl.org/dc/dcmitype/StillImage" />
        <dc:title></dc:title>
      </cc:Work>
    </rdf:RDF>
  </metadata>
  <sodipodi:namedview
     inkscape:current-layer="svg32"
     inkscape:window-maximized="1"
     inkscape:window-y="36"
     inkscape:window-x="0"
     inkscape:cy="25.366619"
     inkscape:cx="28.824114"
     inkscape:zoom="4.391796"
     showgrid="false"
     id="namedview34"
     inkscape:window-height="964"
     inkscape:window-width="1920"
     inkscape:pageshadow="2"
     inkscape:pageopacity="0"
     guidetolerance="10"
     gridtolerance="10"
     objecttolerance="10"
     borderopacity="1"
     bordercolor="#666666"
     pagecolor="#ffffff" />
  <defs
     id="defs12">
    <linearGradient
       gradientUnits="userSpaceOnUse"
       gradientTransform="translate(0 -.9902)"
       y2="13.289"
       y1="5.0915"
       x2="9.0764"
       x1="8.9688"
       id="linearGradient863">
      <stop
         id="stop2"
         offset="0"
         stop-color="#f0faff" />
      <stop
         id="stop4"
         offset="1"
         stop-color="#c5e4fc" />
    </linearGradient>
    <linearGradient
       gradientTransform="translate(0.2220862,-5.6848814)"
       gradientUnits="userSpaceOnUse"
       y2="1.852"
       y1="15.081"
       x2="7.9373"
       x1="7.9373"
       id="linearGradient862-3">
      <stop
         id="stop7"
         offset="0"
         stop-color="#0e60de" />
      <stop
         id="stop9"
         offset="1"
         stop-color="#59d7ff" />
    </linearGradient>
    <style
       type="text/css"
       id="style863" />
    <filter
       id="filter11290"
       x="-.024"
       y="-.024"
       width="1.048"
       height="1.048"
       color-interpolation-filters="sRGB">
      <feGaussianBlur
         stdDeviation="0.15875313"
         id="feGaussianBlur865" />
    </filter>
    <linearGradient
       id="linearGradient1005"
       x1=".8714"
       x2="16.246"
       y1="16.164"
       y2=".78937"
       gradientTransform="translate(-0.0351379,0.0065693)"
       gradientUnits="userSpaceOnUse">
      <stop
         stop-color="#00c8ff"
         offset="0"
         id="stop868" />
      <stop
         stop-color="#14a0ff"
         offset="1"
         id="stop870" />
    </linearGradient>
  </defs>
  <circle
     id="circle887"
     stroke-width="0.14032"
     opacity="0.25"
     filter="url(#filter11290)"
     r="7.9376998"
     cy="8.4665003"
     cx="8.4665003" />
  <path
     id="path889"
     stroke-width="0.0310059"
     fill="url(#linearGradient1005)"
     d="m 16.403949,8.4666191 c 0,0.9515288 -0.167491,1.8638999 -0.474653,2.7092799 -0.213509,0.587681 -0.49439,1.143295 -0.833923,1.657212 -0.142222,0.216081 -0.295137,0.424753 -0.457456,0.625277 -0.519658,0.641787 -1.13721,1.200708 -1.83051,1.654301 -0.2553,0.167179 -0.520637,0.320087 -0.795348,0.457112 -1.066806,0.533892 -2.2711125,0.834215 -3.5456119,0.834215 -1.274499,0 -2.478806,-0.300323 -3.545611,-0.834242 -0.274738,-0.137051 -0.540401,-0.289977 -0.795693,-0.457111 -0.702058,-0.459731 -1.326991,-1.02741 -1.850909,-1.679807 -0.162631,-0.202159 -0.315245,-0.412742 -0.457455,-0.63078 -0.330458,-0.505398 -0.604217,-1.050693 -0.813499,-1.626997 -0.307122,-0.845301 -0.474309,-1.7573015 -0.474309,-2.7084863 0,-4.3837949 3.553814,-7.9376084 7.937608,-7.9376084 2.2004969,0 4.1917119,0.895491 5.6294289,2.3417018 0.414356,0.4166311 0.782728,0.8792989 1.096306,1.3795103 0.29646,0.4710813 0.54429,0.975817 0.737035,1.5067988 0.307175,0.8455917 0.47468,1.75791 0.47468,2.70928 z"
     style="fill:url(#linearGradient1005)" />
  <path
     id="path30"
     fill="url(#linearGradient863)"
     d="m3.696 4.7625c-0.274 0-0.449 0.246-0.334 0.494l2.721 5.891 0.245 0.53c0.113 0.246 0.306 0.488 0.576 0.493 0.27-5e-3 0.463-0.247 0.576-0.493l1.381-2.99 1.092-2.36c0.076-0.166 0.253-0.33 0.436-0.33h1.156c0.021 1e-3 0.041 4e-3 0.06 8e-3 5e-3 0 0.01 4e-3 0.014 6e-3a0.222 0.222 0 0 1 0.14 0.316l-0.864 1.872-0.109 0.234-0.432 0.936-0.109 0.234-0.055 0.12-0.053 0.114c-0.02 0.05-0.041 0.111-0.108 0.11-0.068 1e-3 -0.09-0.066-0.108-0.11l-0.432-0.936-0.109-0.234-0.052-0.113-0.66 1.424 0.785 1.7c0.114 0.246 0.307 0.488 0.576 0.492 0.27-5e-3 0.463-0.246 0.577-0.493l0.244-0.53 2.721-5.89c0.115-0.249-0.06-0.495-0.334-0.495h-3.456c-0.274 0-0.54 0.246-0.654 0.494l-1.585 3.431h0.00201l-0.1 0.214-0.107 0.234-0.108 0.234-0.109 0.234-0.108 0.234c-0.017999 0.044-0.04 0.111-0.108 0.11-0.066 1e-3 -0.088-0.06-0.108-0.11l-0.052011-0.113-0.056-0.12-0.108-0.235-0.109-0.234-0.432-0.936-0.865-1.872c-0.077-0.166 0.04-0.33 0.223-0.33h1.149c0.182 0 0.36 0.164 0.436 0.33l0.667 1.444 0.661-1.426-0.502-1.09c-0.115-0.247-0.38-0.493-0.655-0.493h-1.237z" />
  <circle
     style="stroke-width:0.264578"
     id="circle875"
     fill="#5e4aa6"
     r="0"
     cy="-350.45743"
     cx="-317.29001" />
  <g
     id="g885"
     stroke-width="0.26458"
     fill="#5e4aa6"
     transform="translate(13.070172,-22.085263)">
    <circle
       id="circle877"
       r="0"
       cy="-338.76999"
       cx="-299.01999" />
    <circle
       id="circle879"
       fill-rule="evenodd"
       r="0"
       cy="-3.9487"
       cx="-8.1062002" />
    <circle
       id="circle881"
       r="0"
       cy="-357.69"
       cx="-278.25" />
    <circle
       id="circle883"
       fill-rule="evenodd"
       r="0"
       cy="-22.858999"
       cx="12.663" />
  </g>
  <g
     id="g899"
     stroke-width="0.26458"
     fill="#5e4aa6"
     transform="translate(-19.719736,-11.976112)">
    <circle
       id="circle891"
       r="0"
       cy="-328.38"
       cx="-330.35001" />
    <circle
       id="circle893"
       r="0"
       cy="-326.25"
       cx="-312.10999" />
    <circle
       id="circle895"
       r="0"
       cy="-333.07001"
       cx="-306.01999" />
    <circle
       id="circle897"
       r="0"
       cy="-326.01001"
       cx="-308.84" />
  </g>
</svg>
