<?xml version="1.0" encoding="UTF-8"?>
<svg width="64" height="64" version="1.1" viewBox="0 0 16.933 16.933" xmlns="http://www.w3.org/2000/svg" xmlns:cc="http://creativecommons.org/ns#" xmlns:dc="http://purl.org/dc/elements/1.1/" xmlns:rdf="http://www.w3.org/1999/02/22-rdf-syntax-ns#">
 <defs>
  <filter id="filter11290" x="-.024" y="-.024" width="1.048" height="1.048" color-interpolation-filters="sRGB">
   <feGaussianBlur stdDeviation="0.15875313"/>
  </filter>
  <linearGradient id="linearGradient1005" x1=".73911" x2="13.303" y1="16.296" y2="3.7322" gradientTransform="translate(-24.31 -.087252)" gradientUnits="userSpaceOnUse">
   <stop stop-color="#ff7d1e" offset="0"/>
   <stop stop-color="#ffa53c" offset="1"/>
  </linearGradient>
 </defs>
 <metadata>
  <rdf:RDF>
   <cc:Work rdf:about="">
    <dc:format>image/svg+xml</dc:format>
    <dc:type rdf:resource="http://purl.org/dc/dcmitype/StillImage"/>
   </cc:Work>
  </rdf:RDF>
 </metadata>
 <g transform="translate(15.546 .97292)">
  <g transform="translate(8.7284 -.87902)">
   <circle cx="-15.808" cy="8.3726" r="7.9377" filter="url(#filter11290)" opacity=".25" stroke-width=".14032"/>
   <path d="m-7.871 8.3727c0 0.95153-0.16749 1.8639-0.47465 2.7093-0.21351 0.58768-0.49439 1.1433-0.83392 1.6572-0.14222 0.21608-0.29514 0.42475-0.45746 0.62528-0.51966 0.64179-1.1372 1.2007-1.8305 1.6543-0.2553 0.16718-0.52064 0.32009-0.79535 0.45711-1.0668 0.53389-2.2711 0.83421-3.5456 0.83421s-2.4788-0.30032-3.5456-0.83424c-0.27474-0.13705-0.5404-0.28998-0.79569-0.45711-0.70206-0.45973-1.327-1.0274-1.8509-1.6798-0.16263-0.20216-0.31524-0.41274-0.45746-0.63078-0.33046-0.5054-0.60422-1.0507-0.8135-1.627-0.30712-0.8453-0.47431-1.7573-0.47431-2.7085 0-4.3838 3.5538-7.9376 7.9376-7.9376 2.2005 0 4.1917 0.89549 5.6294 2.3417 0.41436 0.41663 0.78273 0.8793 1.0963 1.3795 0.29646 0.47108 0.54429 0.97582 0.73704 1.5068 0.30718 0.84559 0.47468 1.7579 0.47468 2.7093z" fill="url(#linearGradient1005)" stroke-width=".031006"/>
  </g>
 </g>
 <circle cx="8.4665" cy="8.4665" r="7.9378" fill-opacity="0" stroke-width=".41579"/>
 <path d="m9.988 5.0883-1.324 1.6001c-0.72836 0.87979-1.3246 1.6175-1.3246 1.6389 0 0.021497 0.62326 0.8215 1.3845 1.7781l1.3836 1.7393h1.45c1.1539 0 1.4423-0.0102 1.411-0.05181-0.07857-0.10387-2.6395-3.3287-2.6972-3.3961-0.05376-0.063064 0.06219-0.21728 1.2208-1.6164 0.70452-0.85094 1.3063-1.5798 1.3371-1.6195 0.05291-0.068673-0.01991-0.072535-1.3923-0.072535zm-5.6506 0s2.4489 3.2361 2.3993 3.2252c0.00561 0.016028-0.56132 0.74656-1.2601 1.6243-0.6988 0.87753-1.3259 1.6658-1.3929 1.7511l-0.12145 0.15564h2.9042l0.67935-0.85148c0.47128-0.59085 0.66775-0.86656 0.64161-0.90139-0.020894-0.027325-0.34431-0.43667-0.71931-0.90868l-0.68168-0.85811 0.71356-0.8607c0.39272-0.47325 0.71003-0.86361 0.70551-0.86813z" fill="#fff" fill-rule="evenodd" stroke-width=".03128"/>
</svg>
