<?xml version="1.0" encoding="UTF-8"?>
<svg width="64" height="64" version="1.1" viewBox="0 0 64 64" xmlns="http://www.w3.org/2000/svg">
 <defs>
  <filter id="filter11290" x="-.024" y="-.024" width="1.048" height="1.048" color-interpolation-filters="sRGB">
   <feGaussianBlur stdDeviation="0.15875313"/>
  </filter>
  <linearGradient id="linearGradient1005" x1=".73911" x2="16.388" y1="16.296" y2=".64687" gradientTransform="matrix(3.7796 0 0 3.7796 -.13169 .025278)" gradientUnits="userSpaceOnUse">
   <stop stop-color="#dddfe1" offset="0"/>
   <stop stop-color="#f3f4f6" offset="1"/>
  </linearGradient>
 </defs>
 <circle transform="matrix(3.7796 0 0 3.7796 -.10279 .024584)" cx="8.4937" cy="8.46" r="7.9377" filter="url(#filter11290)" opacity=".25" stroke-width=".14032"/>
 <path d="m62 32c0 3.5964-0.63305 7.0448-1.794 10.24-0.80698 2.2212-1.8686 4.3212-3.1519 6.2636-0.53754 0.8167-1.1155 1.6054-1.729 2.3633-1.9641 2.4257-4.2982 4.5382-6.9186 6.2526-0.96493 0.63187-1.9678 1.2098-3.0061 1.7277-4.0321 2.0179-8.5839 3.153-13.401 3.153s-9.3689-1.1351-13.401-3.1531c-1.0384-0.518-2.0425-1.096-3.0074-1.7277-2.6535-1.7376-5.0155-3.8832-6.9957-6.349-0.61468-0.76408-1.1915-1.56-1.729-2.3841-1.249-1.9102-2.2837-3.9712-3.0747-6.1494-1.1608-3.1949-1.7927-6.6419-1.7927-10.237 0-16.569 13.432-30.001 30.001-30.001 8.317 0 15.843 3.3846 21.277 8.8507 1.5661 1.5747 2.9584 3.3234 4.1436 5.214 1.1205 1.7805 2.0572 3.6882 2.7857 5.6951 1.161 3.196 1.7941 6.6442 1.7941 10.24z" fill="url(#linearGradient1005)" stroke-width=".11719"/>
 <circle cx="32" cy="32" r="30" fill-opacity="0" stroke-width="1.5715"/>
 <g transform="matrix(1.4583 0 0 1.4583 82.329 -2.9984)">
  <g fill="#3d3d3d">
   <path d="m-38.911 12.742 13.813 15.75c2.035 2.449-1.773 2.801-2.605 2.59l-14.406-16.496c-1.895-2.078 1.93-2.852 3.199-1.844"/>
   <path d="m-30.299 14.617-5.676 6.453-7.762 11.211c-2.559 5.863 1.937 3.457 2.781 1.742l6.645-10.91 8.04-8.336c1.559-2.449-1.012-4.707-4.04-0.16"/>
   <path d="m-41.954 33.922c1.168 0.223 1.582 0.313 2.305-0.133-0.074 0.43-0.148 0.855-0.223 1.285-0.707 0.223-1.418 0.488-2.125-0.133"/>
  </g>
  <path d="m-27.239 20.01-11.697 10.734-1.57 4.258 4.367-1.289 0.012 0.012 0.023-0.023h4e-3l11.578-10.75s0.192-0.637-0.979-1.883c-0.85-0.899-1.478-1.043-1.738-1.059z" fill="#3686dd"/>
 </g>
</svg>
