<?xml version="1.0" encoding="UTF-8" standalone="no"?>
<svg
   xmlns:dc="http://purl.org/dc/elements/1.1/"
   xmlns:cc="http://creativecommons.org/ns#"
   xmlns:rdf="http://www.w3.org/1999/02/22-rdf-syntax-ns#"
   xmlns:svg="http://www.w3.org/2000/svg"
   xmlns="http://www.w3.org/2000/svg"
   xmlns:sodipodi="http://sodipodi.sourceforge.net/DTD/sodipodi-0.dtd"
   xmlns:inkscape="http://www.inkscape.org/namespaces/inkscape"
   inkscape:version="1.0 (4035a4fb49, 2020-05-01)"
   sodipodi:docname="yast-upgrade.svg"
   id="svg16"
   version="1.1"
   height="64"
   width="64">
  <metadata
     id="metadata22">
    <rdf:RDF>
      <cc:Work
         rdf:about="">
        <dc:format>image/svg+xml</dc:format>
        <dc:type
           rdf:resource="http://purl.org/dc/dcmitype/StillImage" />
        <dc:title></dc:title>
      </cc:Work>
    </rdf:RDF>
  </metadata>
  <defs
     id="defs20">
    <linearGradient
       id="a"
       x1="-6.1472"
       x2="-6.1472"
       y1="-137.82"
       y2="-100.78"
       gradientTransform="matrix(1.885719,0,0,1.885719,42.818005,257.39718)"
       gradientUnits="userSpaceOnUse">
      <stop
         stop-color="#72cd77"
         offset="0"
         id="stop847" />
      <stop
         stop-color="#26c084"
         offset="1"
         id="stop849" />
    </linearGradient>
    <filter
       color-interpolation-filters="sRGB"
       height="1.048"
       width="1.048"
       y="-.024"
       x="-.024"
       id="filter2761">
      <feGaussianBlur
         id="feGaussianBlur842"
         stdDeviation="0.14552168" />
    </filter>
    <linearGradient
       gradientUnits="userSpaceOnUse"
       y2="1.1082"
       y1="15.429"
       x2="15.644"
       x1="1.2573"
       id="linearGradient4673"
       gradientTransform="matrix(3.779602,0,0,3.779602,-80.30721,0.53084538)">
      <stop
         id="stop845"
         offset="0"
         stop-color="#8cd750" />
      <stop
         id="stop847-3"
         offset=".47728"
         stop-color="#7dcd32" />
      <stop
         id="stop849-6"
         offset="1"
         stop-color="#87d241" />
    </linearGradient>
    <filter
       color-interpolation-filters="sRGB"
       height="1.2579"
       width="1.5959"
       y="-.12895"
       x="-.29796"
       id="filter2105">
      <feGaussianBlur
         id="feGaussianBlur852"
         stdDeviation="0.44165673" />
    </filter>
    <linearGradient
       gradientUnits="userSpaceOnUse"
       gradientTransform="matrix(1.0000071,0,0,1.0000071,0.03272,0.53084538)"
       y2="4.0937"
       y1="46.593"
       x2="32.153"
       x1="32.153"
       id="linearGradient2134">
      <stop
         id="stop855"
         offset="0"
         stop-color="#d1ecba" />
      <stop
         id="stop857"
         offset="1"
         stop-opacity="0"
         stop-color="#d1ecba" />
    </linearGradient>
    <linearGradient
       id="linearGradient890"
       x2="0"
       y1="44"
       y2="4"
       gradientTransform="matrix(1.2346,0,0,1.2346,2.3832028,3.6047)"
       gradientUnits="userSpaceOnUse">
      <stop
         stop-color="#FFB900"
         offset="0"
         id="stop4" />
      <stop
         stop-color="#ff0"
         offset="1"
         id="stop6" />
    </linearGradient>
    <filter
       id="filter2761-5"
       x="-.024"
       y="-.024"
       width="1.048"
       height="1.048"
       color-interpolation-filters="sRGB">
      <feGaussianBlur
         stdDeviation="0.14552168"
         id="feGaussianBlur9" />
    </filter>
    <linearGradient
       id="linearGradient4673-6"
       x1="1.4377"
       x2="15.644"
       y1="15.601"
       y2="1.1082"
       gradientTransform="matrix(3.7796,0,0,3.7796,66.443573,0.53068)"
       gradientUnits="userSpaceOnUse">
      <stop
         stop-color="#dc2828"
         offset="0"
         id="stop12" />
      <stop
         stop-color="#fa4141"
         offset="1"
         id="stop14" />
    </linearGradient>
    <linearGradient
       id="linearGradient915"
       x1="34.134"
       x2="34.134"
       y1="54.592"
       y2="9.67"
       gradientUnits="userSpaceOnUse">
      <stop
         stop-color="#ffb900"
         offset="0"
         id="stop17" />
      <stop
         stop-color="#ff0"
         offset="1"
         id="stop19" />
    </linearGradient>
    <linearGradient
       gradientUnits="userSpaceOnUse"
       gradientTransform="matrix(1.2346,0,0,1.2346,3.1419,3.6047)"
       y2="4"
       y1="44"
       x2="0"
       id="linearGradient890-3">
      <stop
         id="stop861"
         offset="0"
         stop-color="#FFB900" />
      <stop
         id="stop863"
         offset="1"
         stop-color="#ff0" />
    </linearGradient>
    <filter
       color-interpolation-filters="sRGB"
       height="1.048"
       width="1.048"
       y="-.024"
       x="-.024"
       id="filter2761-6">
      <feGaussianBlur
         id="feGaussianBlur866"
         stdDeviation="0.14552168" />
    </filter>
    <filter
       id="filter11290"
       x="-.024"
       y="-.024"
       width="1.048"
       height="1.048"
       color-interpolation-filters="sRGB">
      <feGaussianBlur
         stdDeviation="0.15875313"
         id="feGaussianBlur880" />
    </filter>
    <linearGradient
       id="linearGradient1005"
       x1=".73911"
       x2="16.388"
       y1="16.296"
       y2=".64687"
       gradientTransform="translate(-0.0078552,-5.0139e-5)"
       gradientUnits="userSpaceOnUse">
      <stop
         stop-color="#8cd750"
         offset="0"
         id="stop883" />
      <stop
         stop-color="#7dcd32"
         offset=".48311"
         id="stop885" />
      <stop
         stop-color="#87d241"
         offset="1"
         id="stop887" />
    </linearGradient>
    <filter
       id="filter2105-3"
       x="-.29796"
       y="-.12895"
       width="1.5959"
       height="1.2579"
       color-interpolation-filters="sRGB">
      <feGaussianBlur
         stdDeviation="0.44165673"
         id="feGaussianBlur890" />
    </filter>
    <linearGradient
       id="linearGradient1288"
       x1="32.153"
       x2="32.153"
       y1="46.593"
       y2="4.0937"
       gradientTransform="matrix(0.26458,0,0,0.26458,0.037939,-0.52533)"
       gradientUnits="userSpaceOnUse">
      <stop
         stop-color="#d1ecba"
         offset="0"
         id="stop893" />
      <stop
         stop-color="#d1ecba"
         stop-opacity="0"
         offset="1"
         id="stop895" />
    </linearGradient>
  </defs>
  <sodipodi:namedview
     inkscape:current-layer="svg16"
     inkscape:window-maximized="1"
     inkscape:window-y="0"
     inkscape:window-x="0"
     inkscape:cy="59.82809"
     inkscape:cx="-53.554225"
     inkscape:zoom="2.1075097"
     showgrid="false"
     id="namedview18"
     inkscape:window-height="1000"
     inkscape:window-width="1920"
     inkscape:pageshadow="2"
     inkscape:pageopacity="0"
     guidetolerance="10"
     gridtolerance="10"
     objecttolerance="10"
     borderopacity="1"
     bordercolor="#666666"
     pagecolor="#ffffff"
     inkscape:document-rotation="0" />
  <circle
     id="circle854"
     stroke-width="1.00001"
     fill="#5e4aa6"
     r="0"
     cy="-1241.6383"
     cx="-1248.6947" />
  <circle
     id="ellipse856"
     stroke-width="1.00001"
     fill-rule="evenodd"
     fill="#5e4aa6"
     r="0"
     cy="23.855606"
     cx="-149.14798" />
  <g
     id="g30"
     fill="#5e4aa6">
    <circle
       id="circle24"
       r="0"
       cy="-1241.6"
       cx="-1248.7" />
    <circle
       id="circle26"
       r="0"
       cy="-1301.8"
       cx="-1140.3" />
    <circle
       id="circle28"
       r="0"
       cy="-1246"
       cx="-1158.1" />
  </g>
  <circle
     id="circle36"
     fill="#5e4aa6"
     r="0"
     cy="-1267.7"
     cx="-1157.3" />
  <circle
     id="circle38"
     fill-rule="evenodd"
     fill="#5e4aa6"
     r="0"
     cy="-2.1829"
     cx="-57.756001" />
  <g
     transform="matrix(3.779602,0,0,3.779602,-0.10280494,0.02456761)"
     id="g953">
    <circle
       cx="8.4937"
       cy="8.46"
       r="7.9376998"
       filter="url(#filter11290)"
       opacity="0.25"
       stroke-width="0.14032"
       id="circle902" />
    <path
       style="fill:url(#linearGradient1005)"
       d="m 16.431,8.4599 c 0,0.95154 -0.16749,1.8639 -0.47464,2.7094 -0.21351,0.58768 -0.49439,1.1433 -0.83393,1.6572 -0.14222,0.21608 -0.29514,0.42475 -0.45746,0.62529 -0.51966,0.64179 -1.1372,1.2007 -1.8305,1.6543 -0.2553,0.16718 -0.52065,0.3201 -0.79536,0.45712 -1.0668,0.53389 -2.2711,0.83421 -3.5456,0.83421 -1.2745,0 -2.4788,-0.30032 -3.5456,-0.83424 -0.27474,-0.13705 -0.5404,-0.28997 -0.7957,-0.45712 -0.70207,-0.45973 -1.327,-1.0274 -1.8509,-1.6798 -0.16263,-0.20216 -0.31524,-0.41275 -0.45746,-0.63078 -0.33046,-0.5054 -0.60421,-1.0507 -0.8135,-1.627 -0.30711,-0.84529 -0.4743,-1.7573 -0.4743,-2.7085 0,-4.3838 3.5537,-7.9375 7.9375,-7.9375 2.2005,0 4.1917,0.89548 5.6295,2.3417 0.41436,0.41662 0.78274,0.87929 1.0963,1.3795 0.29645,0.47107 0.54428,0.97582 0.73704,1.5068 0.30718,0.84559 0.47467,1.7579 0.47467,2.7094 z"
       fill="url(#linearGradient1005)"
       stroke-width="0.031006"
       id="path904" />
    <g
       fill="#5e4aa6"
       stroke-width="0.26458"
       id="g914">
      <circle
         cx="-330.35001"
         cy="-328.38"
         r="0"
         id="circle906" />
      <circle
         cx="-312.10999"
         cy="-326.25"
         r="0"
         id="circle908" />
      <circle
         cx="-306.01999"
         cy="-333.07001"
         r="0"
         id="circle910" />
      <circle
         cx="-308.84"
         cy="-326.01001"
         r="0"
         id="circle912" />
    </g>
    <path
       style="fill:url(#linearGradient1288)"
       d="m 8.496,0.52244 c -3.1883,0 -5.936,1.8807 -7.1984,4.5924 l 7.2475,6.6873 7.1483,-6.6863 C 15.55328,4.81478 15.39717,4.52254 15.2216,4.24356 14.90804,3.74335 14.53941,3.28096 14.125,2.86436 12.6872,1.41816 10.6965,0.52246 8.496,0.52246 Z"
       fill="url(#linearGradient1288)"
       opacity="0.7"
       stroke-width="0.26458"
       id="path916" />
    <g
       transform="translate(-0.23644,1.3698)"
       id="g924">
      <rect
         transform="matrix(-0.70711,0.70711,0.70711,0.70711,0,0)"
         x="0.51204002"
         y="9.0130997"
         width="0.84188002"
         height="4.6813002"
         ry="0.42094001"
         fill="#fafafa"
         id="rect918" />
      <path
         d="m 8.355,2.2466 c -0.2332,0 -0.42064,0.18795 -0.42064,0.42115 v 7.3782 c 0,0.02186 0.003,0.04261 0.0062,0.06356 8.24e-4,0.0053 5.2e-4,0.01072 0.0016,0.01602 0.0047,0.02441 0.01253,0.04758 0.02119,0.07028 10e-4,0.0027 0.0015,0.0056 0.0026,0.0083 0.04259,0.10511 0.12587,0.18891 0.23099,0.2315 0.0036,0.0015 0.0072,0.0023 0.01085,0.0036 0.0219,0.0082 0.04422,0.01515 0.06769,0.01964 0.02651,0.0052 0.0532,0.0078 0.0801,0.0078 0.02737,-3.4e-5 0.05421,-0.0028 0.0801,-0.0078 1.62e-4,-3.1e-5 3.55e-4,3.2e-5 5.17e-4,0 0.0199,-0.0039 0.03858,-0.01052 0.05736,-0.01705 0.0071,-0.0025 0.01479,-0.0034 0.0217,-0.0062 0.023,-0.0094 0.04438,-0.02147 0.06511,-0.03462 0.0023,-0.0015 0.0049,-0.0026 0.0072,-0.0041 0.02359,-0.01563 0.04572,-0.0338 0.06563,-0.05374 l 2.715,-2.715 c 0.1649,-0.1649 0.1649,-0.4304 0,-0.5953 -0.1649,-0.1649 -0.4304,-0.1649 -0.5953,0 l -1.9967,1.9967 v -6.3618 c 0,-0.2332 -0.18795,-0.42115 -0.42115,-0.42115 z"
         fill="#80d03a"
         filter="url(#filter2105)"
         id="path920"
         style="filter:url(#filter2105-3)" />
      <path
         d="m 8.7264,2.2466 c -0.2332,0 -0.42064,0.18795 -0.42064,0.42115 v 7.3782 c 0,0.02186 0.003,0.04261 0.0062,0.06356 8.24e-4,0.0053 5.2e-4,0.01072 0.0016,0.01602 0.0047,0.02441 0.01253,0.04758 0.02119,0.07028 0.001,0.0027 0.0015,0.0056 0.0026,0.0083 0.04259,0.10511 0.12587,0.18891 0.23099,0.2315 0.0036,0.0015 0.0072,0.0023 0.01085,0.0036 0.0219,0.0082 0.04422,0.01515 0.0677,0.01964 0.02651,0.0052 0.0532,0.0078 0.0801,0.0078 0.02737,-3.4e-5 0.05421,-0.0028 0.0801,-0.0078 1.62e-4,-3.1e-5 3.55e-4,3.2e-5 5.17e-4,0 0.0199,-0.0039 0.03858,-0.01052 0.05736,-0.01705 0.0071,-0.0025 0.01479,-0.0034 0.0217,-0.0062 0.023,-0.0094 0.04438,-0.02147 0.06511,-0.03462 0.0023,-0.0015 0.0049,-0.0026 0.0072,-0.0041 0.02359,-0.01563 0.04572,-0.0338 0.06563,-0.05374 l 2.715,-2.715 c 0.1649,-0.1649 0.1649,-0.4304 0,-0.5953 -0.1649,-0.1649 -0.4304,-0.1649 -0.5953,0 l -1.9967,1.9967 v -6.3618 c 0,-0.2332 -0.18795,-0.42115 -0.42115,-0.42115 z"
         fill="#fafafa"
         id="path922" />
    </g>
  </g>
</svg>
