<?xml version="1.0" encoding="UTF-8" standalone="no"?>
<svg
   xmlns:dc="http://purl.org/dc/elements/1.1/"
   xmlns:cc="http://creativecommons.org/ns#"
   xmlns:rdf="http://www.w3.org/1999/02/22-rdf-syntax-ns#"
   xmlns:svg="http://www.w3.org/2000/svg"
   xmlns="http://www.w3.org/2000/svg"
   xmlns:sodipodi="http://sodipodi.sourceforge.net/DTD/sodipodi-0.dtd"
   xmlns:inkscape="http://www.inkscape.org/namespaces/inkscape"
   inkscape:version="1.0 (4035a4fb49, 2020-05-01)"
   sodipodi:docname="yast-sw_source.svg"
   id="svg16"
   version="1.1"
   height="64"
   width="64">
  <metadata
     id="metadata22">
    <rdf:RDF>
      <cc:Work
         rdf:about="">
        <dc:format>image/svg+xml</dc:format>
        <dc:type
           rdf:resource="http://purl.org/dc/dcmitype/StillImage" />
        <dc:title></dc:title>
      </cc:Work>
    </rdf:RDF>
  </metadata>
  <defs
     id="defs20">
    <linearGradient
       id="b"
       x1="-6.1472"
       x2="-6.1472"
       y1="-137.82"
       y2="-100.78"
       gradientTransform="matrix(0.53033,0,0,0.53033,11.536,352.06)"
       gradientUnits="userSpaceOnUse">
      <stop
         stop-color="#14dc78"
         offset="0"
         id="stop849" />
      <stop
         stop-color="#14a03c"
         offset="1"
         id="stop851" />
    </linearGradient>
    <linearGradient
       id="a"
       x1="-6.1738"
       x2="-6.1738"
       y1="-126.08"
       y2="-126.7"
       gradientTransform="matrix(0.53033,0,0,0.53033,11.537,352.06)"
       gradientUnits="userSpaceOnUse">
      <stop
         stop-color="#14e650"
         offset="0"
         id="stop854" />
      <stop
         stop-color="#148232"
         offset="1"
         id="stop856" />
    </linearGradient>
    <filter
       id="filter2761"
       x="-.024"
       y="-.024"
       width="1.048"
       height="1.048"
       color-interpolation-filters="sRGB">
      <feGaussianBlur
         stdDeviation="0.14552168"
         id="feGaussianBlur2" />
    </filter>
    <linearGradient
       id="linearGradient4673"
       x1="1.2573"
       x2="15.644"
       y1="15.429"
       y2="1.1082"
       gradientUnits="userSpaceOnUse">
      <stop
         stop-color="#ff8228"
         offset="0"
         id="stop5" />
      <stop
         stop-color="#ff7346"
         offset=".47728"
         id="stop7" />
      <stop
         stop-color="#ff8c55"
         offset="1"
         id="stop9" />
    </linearGradient>
    <linearGradient
       id="linearGradient865"
       x1="7.9373"
       x2="7.9373"
       y1="6.879"
       y2="1.0583"
       gradientTransform="matrix(1.0000066,0,0,1.0000066,19.187825,0)"
       gradientUnits="userSpaceOnUse">
      <stop
         stop-color="#fff"
         offset="0"
         id="stop2" />
      <stop
         stop-color="#fcc"
         offset="1"
         id="stop4" />
    </linearGradient>
    <linearGradient
       id="linearGradient855"
       x1="2.6278"
       x2="12.314"
       y1="14.579"
       y2="3.9327"
       gradientUnits="userSpaceOnUse"
       gradientTransform="translate(19.187825)">
      <stop
         stop-color="#d462aa"
         offset="0"
         id="stop7-3" />
      <stop
         stop-color="#56c7d9"
         offset=".15178"
         id="stop9-6" />
      <stop
         stop-color="#2da8b8"
         offset=".33294"
         id="stop11" />
      <stop
         stop-color="#72cb6b"
         offset=".53353"
         id="stop13" />
      <stop
         stop-color="#c4dc2b"
         offset=".71019"
         id="stop15" />
      <stop
         stop-color="#f9da3e"
         offset=".8623"
         id="stop17" />
      <stop
         stop-color="#f69429"
         offset="1"
         id="stop19" />
    </linearGradient>
    <linearGradient
       id="linearGradient910"
       x1="45"
       x2="57.008"
       y1="19"
       y2="6.9915"
       gradientTransform="matrix(0.26458,0,0,0.26458,19.187825,0)"
       gradientUnits="userSpaceOnUse">
      <stop
         stop-color="#fff"
         offset="0"
         id="stop22" />
      <stop
         stop-color="#ffe3cc"
         offset="1"
         id="stop24" />
    </linearGradient>
    <style
       id="style872"
       type="text/css" />
    <filter
       color-interpolation-filters="sRGB"
       height="1.048"
       width="1.048"
       y="-.024"
       x="-.024"
       id="filter2761-7">
      <feGaussianBlur
         id="feGaussianBlur874"
         stdDeviation="0.14552168" />
    </filter>
    <linearGradient
       gradientUnits="userSpaceOnUse"
       gradientTransform="matrix(3.7796,0,0,3.7796,-0.0026448,0.53066)"
       y2="1.1082"
       y1="15.429"
       x2="15.644"
       x1="1.2573"
       id="linearGradient4673-5">
      <stop
         id="stop877"
         offset="0"
         stop-color="#32dcff" />
      <stop
         id="stop879"
         offset="1"
         stop-color="#3296ff" />
    </linearGradient>
    <style
       type="text/css"
       id="style4" />
    <style
       type="text/css"
       id="style6" />
    <style
       type="text/css"
       id="style8" />
    <filter
       id="filter2761-36"
       x="-.024"
       y="-.024"
       width="1.048"
       height="1.048"
       color-interpolation-filters="sRGB">
      <feGaussianBlur
         stdDeviation="0.14552168"
         id="feGaussianBlur10" />
    </filter>
    <linearGradient
       id="linearGradient1024-6"
       x1="1.3315"
       x2="15.65"
       y1="15.576"
       y2="1.17"
       gradientTransform="matrix(3.7796,0,0,3.7796,111.78704,0.53107)"
       gradientUnits="userSpaceOnUse">
      <stop
         stop-color="#00dc96"
         offset="0"
         id="stop13-7" />
      <stop
         stop-color="#14d29b"
         offset="1"
         id="stop15-5" />
    </linearGradient>
    <linearGradient
       id="b-3"
       x1="45.628"
       x2="45.628"
       y1="57.955"
       y2="12.461"
       gradientTransform="matrix(0.27476,0,0,0.27476,-24.952118,-0.32515)"
       gradientUnits="userSpaceOnUse">
      <stop
         offset="0"
         id="stop2-3" />
      <stop
         stop-opacity="0"
         offset="1"
         id="stop4-5" />
    </linearGradient>
    <style
       id="style872-0"
       type="text/css" />
    <style
       id="style874"
       type="text/css" />
    <style
       id="style876"
       type="text/css" />
    <filter
       color-interpolation-filters="sRGB"
       height="1.048"
       width="1.048"
       y="-.024"
       x="-.024"
       id="filter2761-3">
      <feGaussianBlur
         id="feGaussianBlur878"
         stdDeviation="0.14552168" />
    </filter>
    <linearGradient
       gradientUnits="userSpaceOnUse"
       gradientTransform="matrix(3.7796,0,0,3.7796,-0.0020773,0.53047)"
       y2="1.17"
       y1="15.576"
       x2="15.65"
       x1="1.3315"
       id="linearGradient1024-6-6">
      <stop
         id="stop881"
         offset="0"
         stop-color="#00dc96" />
      <stop
         id="stop883"
         offset="1"
         stop-color="#14d29b" />
    </linearGradient>
    <filter
       id="filter11290"
       x="-.024"
       y="-.024"
       width="1.048"
       height="1.048"
       color-interpolation-filters="sRGB">
      <feGaussianBlur
         stdDeviation="0.15875313"
         id="feGaussianBlur896" />
    </filter>
    <linearGradient
       id="linearGradient1005"
       x1=".73911"
       x2="16.388"
       y1="16.296"
       y2=".64687"
       gradientTransform="matrix(3.779602,0,0,3.779602,-91.710185,-28.521642)"
       gradientUnits="userSpaceOnUse">
      <stop
         stop-color="#ff8228"
         offset="0"
         id="stop899" />
      <stop
         stop-color="#ff7346"
         offset=".48355"
         id="stop901" />
      <stop
         stop-color="#ff8c55"
         offset="1"
         id="stop903" />
    </linearGradient>
  </defs>
  <sodipodi:namedview
     inkscape:current-layer="svg16"
     inkscape:window-maximized="1"
     inkscape:window-y="0"
     inkscape:window-x="0"
     inkscape:cy="-3.2719108"
     inkscape:cx="-86.692856"
     inkscape:zoom="2.1075097"
     showgrid="false"
     id="namedview18"
     inkscape:window-height="1000"
     inkscape:window-width="1920"
     inkscape:pageshadow="2"
     inkscape:pageopacity="0"
     guidetolerance="10"
     gridtolerance="10"
     objecttolerance="10"
     borderopacity="1"
     bordercolor="#666666"
     pagecolor="#ffffff"
     inkscape:document-rotation="0" />
  <g
     transform="translate(91.57769,28.54602)"
     id="g972">
    <circle
       cx="8.4937"
       cy="8.46"
       r="7.9376998"
       filter="url(#filter11290)"
       opacity="0.25"
       stroke-width="0.14032"
       id="circle910"
       transform="matrix(3.779602,0,0,3.779602,-91.680495,-28.521452)" />
    <path
       style="fill:url(#linearGradient1005)"
       d="m -29.577855,3.453603 c 0,3.5964424 -0.633045,7.0448 -1.79395,10.240454 -0.806983,2.221196 -1.868597,4.321219 -3.151923,6.263556 -0.537535,0.816696 -1.115512,1.605386 -1.729017,2.363347 -1.964108,2.425711 -4.298163,4.538169 -6.918562,6.252596 -0.964932,0.631874 -1.967849,1.209851 -3.006144,1.727732 -4.032079,2.017891 -8.583854,3.152981 -13.400957,3.152981 -4.817102,0 -9.368877,-1.13509 -13.400956,-3.153095 -1.038408,-0.517994 -2.042497,-1.095971 -3.00743,-1.727731 -2.653545,-1.737597 -5.015532,-3.883164 -6.995665,-6.348976 -0.614677,-0.764084 -1.191482,-1.560031 -1.729017,-2.384097 -1.249007,-1.910211 -2.283673,-3.971228 -3.074706,-6.149413 -1.160754,-3.194859 -1.792665,-6.6418942 -1.792665,-10.2370517 0,-16.5690193 13.431571,-30.0005913 30.000591,-30.0005913 8.317014,0 15.842957,3.384558 21.277269,8.850694 1.566116,1.574658 2.958446,3.323367 4.143578,5.213961 1.120463,1.780458 2.057161,3.6882116 2.785718,5.6951047 1.161018,3.1959937 1.794063,6.64416236 1.794063,10.2404537 z"
       fill="url(#linearGradient1005)"
       stroke-width="0.11719"
       id="path912" />
    <path
       id="path924"
       stroke-width="2.00001"
       stroke-dashoffset="0.42096"
       stroke="#ffffff"
       fill="none"
       d="m -47.088754,-15.850714 a 12.4999,12.4999 0 0 1 0.0102,0.499965 12.4999,12.4999 0 0 1 -12.499899,12.4999002 12.4999,12.4999 0 0 1 -12.4999,-12.4999002 12.4999,12.4999 0 0 1 0.0098,-0.500683" />
  </g>
  <circle
     cx="-1248.6936"
     cy="-1241.6389"
     r="0"
     fill="#5e4aa6"
     stroke-width="1.00001"
     id="circle861" />
  <circle
     cx="-149.14687"
     cy="23.855019"
     r="0"
     fill="#5e4aa6"
     fill-rule="evenodd"
     stroke-width="1.00001"
     id="circle879" />
  <path
     style="stroke-width:0.833333"
     d="m 32,35 a 10,10 0 1 0 0,20 10,10 0 0 0 0,-20 z m 0,1.666667 c 0.288333,0 0.553333,0.02333 0.833333,0.05167 0.06667,0.0067 0.141667,-0.0083 0.208334,0 0.08833,0.01167 0.173333,0.03833 0.26,0.05333 0.24,0.03667 0.445,0.09833 0.678333,0.155 0.426667,0.106666 0.85,0.248333 1.25,0.416666 0.218333,0.09333 0.415,0.201667 0.625,0.313334 v 0.05167 C 35.901667,37.73 35.928333,37.82 36.01,37.865 c 0.03,0.01667 0.025,0.03667 0.05333,0.05167 0.04667,0.02667 0.113334,0.05667 0.103334,0.105 -0.01333,0.06667 -0.11,0.05167 -0.156667,0.103333 0.0067,0.09667 -0.07833,0.09167 -0.103333,0.156667 0.015,0.04167 0.09667,0.05333 0.103333,0.103333 -0.0083,0.05333 -0.123333,0.05 -0.103333,0.105 0.09,0.07 0.175,0.01667 0.26,0 C 36.353333,38.466667 36.52,38.48 36.635,38.385 36.62,38.296667 36.801667,38.31 36.791667,38.23 36.84,38.263333 36.9,38.296667 36.948333,38.333333 36.93,38.35 36.915,38.376667 36.895,38.385 c -0.03333,0.01667 -0.07167,0.03333 -0.103333,0.05333 L 36.635,38.541667 c -0.03833,0.02667 -0.116667,0.156666 -0.155,0.156666 -0.05,0 -0.121667,-0.06333 -0.156667,-0.05333 -0.05,0.01667 -0.04833,0.085 -0.105,0.105 -0.11,0.04 -0.326666,-0.06 -0.363333,0.105 0.04667,0.095 0.228333,0.05 0.311667,0.103333 a 0.51666667,0.51666667 0 0 1 0.156666,0.208334 0.98333333,0.98333333 0 0 1 0,0.313333 c -0.05167,0.133333 -0.211666,0.105 -0.365,0.103333 h -0.105 C 35.596667,39.566667 35.345,39.45 35.228333,39.635 c 0.0083,0.141667 0.03333,0.241667 0,0.365 -0.02167,0.09 -0.16,0.183333 -0.155,0.26 0,0.04 0.09333,0.1 0.103334,0.156667 0.0067,0.03 -0.01333,0.075 0,0.105 0.04333,0.08167 0.133333,-0.01667 0.208333,0 0.07333,0.01667 0.156667,0.125 0.156667,0.208333 A 0.43333333,0.43333333 0 0 1 35.49,40.938333 c -0.07333,0.11 -0.208333,0.095 -0.313333,0.155 -0.08667,0.05 -0.103334,0.175 -0.155,0.261667 -0.055,0.09333 -0.126667,0.126667 -0.105,0.26 a 0.60833333,0.60833333 0 0 1 -0.313334,0.311667 c -0.045,0.02 -0.113333,0.02333 -0.155,0.05333 -0.03333,0.02333 -0.05833,0.101667 -0.105,0.155 -0.05833,0.06667 -0.123333,0.106667 -0.155,0.156667 C 34.163333,42.33 34.16,42.395 34.135,42.448333 c -0.03667,0.07 -0.11,0.085 -0.155,0.155 -0.02167,0.03333 -0.03,0.113334 -0.05333,0.156667 -0.05333,0.09667 -0.113334,0.176667 -0.103334,0.261667 0.0083,0.08 0.1,0.08333 0.103334,0.155 0.005,0.04 -0.05333,0.06 -0.05167,0.105 0.0017,0.06333 0.04667,0.105 0.05167,0.155 0.01167,0.123333 -0.08,0.176666 -0.103334,0.261666 -0.01167,0.04 0.01,0.07 0,0.103334 -0.02,0.06167 -0.103333,0.135 -0.105,0.208333 0,0.05167 0.1,0.08333 0.105,0.156667 0.0033,0.04833 -0.06167,0.11 -0.05333,0.156666 0.01833,0.09 0.191667,0.19 0.261667,0.26 0.095,0.095 0.218333,0.16 0.26,0.26 0.035,0.085 0.04,0.25 0.105,0.313334 0.04667,0.04667 0.146666,0.05333 0.208333,0.103333 0.05667,0.045 0.09333,0.055 0.155,0.105 0.101667,0.08 0.255,0.271667 0.416667,0.26 0.085,-0.01667 0.166666,-0.08667 0.261666,-0.105 0.09833,-0.01667 0.211667,-0.06 0.311667,-0.05 0.07667,0.01667 0.18,0.055 0.26,0.05 0.08333,-0.01667 0.166667,-0.01 0.261667,-0.05 0.165,-0.07333 0.436666,-0.191667 0.676666,-0.158333 0.183334,0.02667 0.183334,0.231666 0.311667,0.313333 0.146667,0.01667 0.248333,-0.02833 0.365,0 0.08833,0.02167 0.2,0.138333 0.208333,0.208333 0.0083,0.07167 -0.095,0.163334 -0.105,0.208334 -0.02167,0.09667 0.01667,0.2 0,0.26 -0.01333,0.05 -0.05333,0.108333 -0.05,0.156666 0,0.04333 0.05833,0.15 0.103334,0.208334 0.055,0.07 0.141666,0.133333 0.208333,0.208333 0.121667,0.14 0.175,0.283333 0.26,0.468333 0.02167,0.04667 -0.02,0.09667 0,0.156667 -0.03667,0.28 -0.13,0.471667 -0.313333,0.781667 -0.085,0.1 -0.21,0.186666 -0.208334,0.311666 -0.005,0.3 0.17,0.491667 0.156667,0.781667 -0.03,0.39 0.03,0.416667 0,0.625 0.133333,0.06667 0.03833,0.278333 0,0.416667 -0.05667,0.165 -0.123333,0.201666 -0.155,0.313333 0.08833,0.03833 0.213333,0.02167 0.311667,0 L 37.885,50.885 a 8.6716667,8.6716667 0 0 1 -1.25,1.041667 8.2333333,8.2333333 0 0 1 -2.863333,1.25 A 8.3083333,8.3083333 0 0 1 32,53.333333 c -0.316667,0 -0.63,-0.01667 -0.938333,-0.05167 -0.243334,-0.02833 -0.49,-0.05667 -0.728334,-0.105 -0.471666,-0.09667 -0.915,-0.295 -1.355,-0.468334 -0.015,-0.02833 -0.055,-0.07 -0.05,-0.105 0.085,-0.03667 0.248334,0.123334 0.311667,0 0.03167,-0.05833 -0.04167,-0.2 0,-0.26 0.03,-0.04 0.198333,-0.04 0.26,-0.05167 0.08833,-0.01667 0.21,-0.02833 0.26,-0.05167 0.055,-0.035 0.115,-0.158333 0.105,-0.261667 -0.005,-0.04833 -0.06667,-0.06 -0.105,-0.103333 -0.03167,-0.03667 0.02167,-0.07 0,-0.105 -0.04,-0.05833 -0.138333,-0.07 -0.155,-0.155 0.12,-0.02333 0.295,0.1 0.466667,0.05167 0.08333,-0.02333 0.223333,-0.183334 0.261666,-0.26 0.01167,-0.02333 -0.01333,-0.075 0,-0.105 0.015,-0.03 0.04667,-0.08667 0.05167,-0.103334 0.01167,-0.045 -0.01,-0.02333 0,-0.05333 0.03,-0.08333 0.106667,-0.146667 0.156667,-0.208333 0.03833,-0.04667 0.121666,-0.106667 0.156666,-0.155 0.04,-0.05167 0.025,-0.05833 0.05167,-0.105 0.025,-0.15 -0.08833,-0.283334 -0.05167,-0.416667 0.04,-0.15 0.271667,-0.243333 0.416667,-0.311667 0.05,-0.02333 0.113333,-0.03833 0.155,-0.05333 0.1,-0.03333 0.22,-0.07 0.313333,-0.103333 0.156667,-0.05667 0.183334,-0.17 0.26,-0.313334 0.03667,-0.06667 0.09833,-0.158333 0.105,-0.208333 0.0067,-0.04333 -0.0083,-0.05167 0,-0.103333 0.0083,-0.04833 -0.01333,-0.1 0,-0.156667 C 31.965,48.938333 32,48.776667 32,48.698333 c 0,-0.06667 -0.05,-0.09667 -0.05167,-0.156666 -0.01167,-0.216667 0.07667,-0.195 0.155,-0.313334 0.04,-0.05833 0.07667,-0.166666 0.105,-0.208333 0.135,-0.2 0.381667,-0.268333 0.365,-0.571667 -0.0067,-0.1 -0.08333,-0.333333 -0.156666,-0.365 -0.04167,-0.01833 -0.095,-0.03 -0.156667,-0.05167 -0.196667,-0.07333 -0.366667,-0.296667 -0.571667,-0.313334 h -0.105 c -0.08,0 -0.17,-0.04 -0.26,-0.05167 -0.05667,-0.01667 -0.175,0.01667 -0.208333,0 -0.05167,-0.025 -0.06333,-0.128334 -0.105,-0.156667 -0.03333,-0.02333 -0.105,-0.03333 -0.155,-0.05167 -0.08333,-0.03 -0.113333,-0.09833 -0.208333,-0.105 -0.03,0 -0.07167,0.01667 -0.105,0 -0.05167,-0.01667 -0.108334,-0.02167 -0.156667,-0.05 -0.06,-0.03833 -0.13,-0.05333 -0.155,-0.105 0.055,-0.18 -0.12,-0.208333 -0.156667,-0.313333 -0.01667,-0.04833 0.01667,-0.165 0,-0.208333 -0.02167,-0.06167 -0.08833,-0.103334 -0.156666,-0.155 a 0.62333333,0.62333333 0 0 0 -0.365,-0.156667 c -0.07667,-0.01667 -0.168334,0.01667 -0.26,0 A 0.59333333,0.59333333 0 0 1 28.97833,45.208322 c -0.07,-0.08167 -0.09333,-0.17 -0.155,-0.208333 -0.05833,-0.03667 -0.116666,-0.06667 -0.156666,-0.105 -0.01833,-0.01667 -0.035,-0.01333 -0.05167,-0.05 -0.03,-0.06333 -0.09,-0.08333 -0.05333,-0.158333 -0.06667,-0.03333 -0.03167,0.065 -0.103334,0.05333 -0.065,-0.09167 -0.113333,-0.183333 -0.26,-0.156667 -0.06667,0.01667 -0.13,0.155 -0.208333,0.156667 -0.06667,0 -0.123333,-0.143333 -0.208333,-0.156667 -0.06667,-0.01667 -0.163334,0.06 -0.208334,0.05167 -0.07167,-0.01667 -0.09167,-0.06 -0.156666,-0.103333 -0.04833,-0.03333 -0.13,-0.106667 -0.156667,-0.105 -0.08333,0 -0.145,0.166666 -0.26,0.105 -0.05667,-0.07167 0.118333,-0.09 0.05167,-0.156667 -0.05,-0.04833 -0.06333,0.02833 -0.103334,0.05167 -0.04667,0.03 -0.105,0.03333 -0.156666,0.05333 -0.115,0.04333 -0.223334,0.055 -0.313334,0.103333 a 0.30833333,0.30833333 0 0 0 -0.155,0.156667 c -0.03833,0.07 -0.09833,0.205 -0.156666,0.208333 -0.07,0 -0.09333,-0.07667 -0.156667,-0.105 -0.191667,-0.08333 -0.31,0.05 -0.468333,0.05333 -0.146667,0 -0.371667,-0.226667 -0.365,-0.366667 0.005,-0.08333 0.04333,-0.206667 0.05333,-0.311667 0.0083,-0.08333 0.101667,-0.183333 0.103333,-0.26 0.0017,-0.103333 -0.193333,-0.145 -0.26,-0.156666 -0.156666,-0.02833 -0.343333,0.07 -0.521666,0 -0.03333,-0.05667 0.03333,-0.1 0.05333,-0.155 0.01167,-0.03 -0.01167,-0.07 0,-0.105 0.01833,-0.05333 0.13,-0.1 0.155,-0.156667 0.01833,-0.04333 -0.01667,-0.1 0,-0.155 0.02167,-0.06 0.1,-0.113333 0.105,-0.156667 0.0067,-0.05667 -0.06,-0.12 -0.105,-0.156666 -0.138333,0.01667 -0.233333,0.01167 -0.311667,0.05167 -0.18,0.08333 -0.131666,0.308334 -0.313333,0.365 A 1.5233333,1.5233333 0 0 1 23.926667,43.385 c -0.03,0.01667 -0.07,-0.0033 -0.103334,0 0.0033,-0.01667 -0.0033,-0.03333 0,-0.05167 0.0067,-0.03833 0.04333,-0.06667 0.05167,-0.105 a 8.1833333,8.1833333 0 0 1 0.521667,-1.561666 h 0.05 c 0.065,0.01667 0.103333,0.1 0.158333,0.105 0.151667,0.01667 0.185,-0.141667 0.311667,-0.208334 0.13,0.01667 0.195,-0.01667 0.313333,0 0.08,0.01667 0.196667,0.09667 0.26,0.103334 0.05333,0 0.05333,-0.05833 0.103333,-0.05167 0.05,0.01667 0.148334,0.095 0.156667,0.155 0.0083,0.075 -0.07333,0.178333 -0.05167,0.261667 0.07833,0.08 0.253334,0.108333 0.363334,0.155 0.07333,-0.06167 0.01167,-0.173334 0,-0.26 0,-0.03833 0.005,-0.12 0,-0.155 -0.0067,-0.06 -0.05,-0.105 -0.05,-0.156667 0,-0.238333 0.203333,-0.323333 0.363333,-0.416667 0.06833,-0.04 0.148333,-0.126666 0.208333,-0.156666 C 26.668333,41 26.721667,41.03 26.791667,40.99 26.918333,40.91833 27.006667,40.81 27.105,40.728333 27.15,40.62 27.1,40.471667 27.105,40.365 c 0.045,-0.02833 0.106667,0 0.155,0 0.07667,-0.01667 0.113333,-0.113333 0.156667,-0.156667 0.025,-0.025 0.07333,-0.02667 0.105,-0.05167 0.075,-0.06 0.08833,-0.13 0.155,-0.156667 a 0.43333333,0.43333333 0 0 1 0.105,-0.05167 C 27.831667,39.931667 27.91,39.925 27.99,39.895 c 0.05,-0.01667 0.188333,-0.03 0.208333,-0.05 0.025,-0.02667 -0.0067,-0.12 0,-0.158333 0.04,-0.186667 0.3,-0.196667 0.468334,-0.26 0.116666,-0.04333 0.233333,-0.178334 0.365,-0.155 -0.025,0.09 -0.126667,0.1 -0.105,0.208333 0.02833,0.15 0.208333,-0.03167 0.261666,-0.05333 0.1,-0.04333 0.283334,-0.105 0.416667,-0.155 0.116667,-0.04167 0.316667,-0.075 0.208333,-0.208334 -0.09167,-0.01667 -0.13,0.07 -0.208333,0.103334 C 29.55,39.183333 29.546667,39.12 29.5,39.115 c -0.045,0 -0.05833,0.06 -0.105,0.05167 -0.045,-0.01667 -0.09667,-0.1 -0.103333,-0.156667 -0.01833,-0.14 0.1,-0.156667 0.156666,-0.26 C 29.41,38.623333 29.241667,38.695 29.135,38.645 a 0.18833333,0.18833333 0 0 1 0.156667,-0.155 c 0.07167,-0.01667 0.27,0.01333 0.313333,0.05167 0.025,0.02167 -0.03833,0.07 0,0.105 0.04333,0.03833 0.1,0.01667 0.155,0 0.02,-0.095 -0.12,-0.04333 -0.103333,-0.105 C 29.77,38.46834 29.986667,38.50834 30.125,38.49 a 1.1333333,1.1333333 0 0 0 0.26,-0.105 c 0.06667,-0.03833 0.08667,-0.115 0.156667,-0.05167 0.02,0.06833 -0.01333,0.12 -0.05167,0.156667 -0.128333,0.113333 -0.265,0.233333 -0.365,0.363333 0.06167,0.06 0.156667,0.04167 0.26,0.05333 0.04,0.01667 0.115,-0.0083 0.156667,0 0.05,0.01667 0.116666,-0.01667 0.156666,0 0.07,0.01667 0.08667,0.155 0.155,0.155 0.113334,0 0.06667,-0.133334 0,-0.208334 0.02,-0.07833 0.08167,-0.151666 0.05333,-0.208333 -0.05167,-0.103333 -0.25,0.03167 -0.261667,-0.103333 -0.005,-0.08333 0.075,-0.09333 0.105,-0.156667 -0.01333,-0.16 0.12,-0.166667 0.105,-0.311667 -0.0083,-0.06 -0.06333,-0.04833 -0.105,-0.105 -0.02167,-0.03 -0.02667,-0.133333 -0.05167,-0.155 -0.08667,-0.07333 -0.25,-0.01667 -0.261666,-0.156666 -0.0033,-0.08333 0.01167,-0.171667 0,-0.261667 -0.01167,-0.08333 -0.08333,-0.346667 -0.155,-0.363333 -0.09333,-0.02 -0.15,0.155 -0.261667,0.208333 a 0.62666667,0.62666667 0 0 1 -0.26,0.05167 c -0.04,-0.01667 -0.1,-0.025 -0.103333,-0.105 -0.0067,-0.07 0.07833,-0.1 0.103333,-0.155 0.0067,-0.01333 -0.0033,-0.03333 0,-0.05333 0.121667,-0.03333 0.241667,-0.075 0.365,-0.103333 0.07,-0.01667 0.138333,-0.03833 0.208333,-0.05167 0.05,-0.01 0.106667,0.0083 0.156667,0 A 8.35,8.35 0 0 1 32,36.666667 Z m -3.385,0.781666 c -0.05333,0.303334 -0.338333,0.425 -0.678333,0.416667 -0.075,0.07333 -0.01,0.21 -0.05,0.311667 C 27.85,38.261667 27.71,38.34 27.625,38.333333 c -0.06167,0 -0.156667,-0.09833 -0.156667,-0.156666 0,-0.07167 0.115,-0.07333 0.05333,-0.155 0.0017,-0.01667 0.03333,-0.03667 0.05,-0.05333 0.035,-0.02 0.07167,-0.03167 0.105,-0.05167 C 27.978333,37.73 28.288333,37.595 28.615,37.448333 Z M 35.593333,37.76 c -0.03,0.01667 -0.025,0.03667 -0.05167,0.05333 -0.06333,0.03833 -0.108334,0.085 -0.156667,0.103334 -0.06667,0.025 -0.145,0.04167 -0.155,0.105 -0.0083,0.05 0.05333,0.055 0.05,0.103333 -0.02333,0.06167 -0.03667,0.08167 -0.05,0.156667 0.08333,0.138333 0.258333,-0.03167 0.363333,-0.05333 0.04667,-0.01667 0.08,-0.01167 0.105,-0.05 0.02833,-0.04667 0.03,-0.09333 0.05167,-0.158333 0.02333,-0.07 0.113333,-0.09333 0.105,-0.155 -0.0067,-0.06167 -0.158333,-0.113333 -0.261667,-0.105 z M 26.48,38.801667 c 0.07833,0.06333 0.19,0.2 0.05,0.261666 a 0.86,0.86 0 0 1 -0.258333,0.05 c -0.01667,0 -0.03833,-0.03833 -0.05333,-0.05 C 26.305,38.98 26.39,38.881667 26.48,38.801667 Z M 26.791667,39.115 c 0.04,0 0.05667,0.1 0.105,0.103333 0.045,0 0.07667,-0.05833 0.103333,-0.05167 0.07,0.01833 0.118333,0.156666 0.05167,0.208333 -0.055,0.01667 -0.06333,-0.05833 -0.103334,-0.05167 -0.113333,0.02 -0.176666,0.266667 -0.261666,0.26 -0.08,-0.01667 -0.133334,-0.201666 -0.05,-0.26 0,-0.05 -0.005,-0.05333 0,-0.105 C 26.66,39.188333 26.725,39.11 26.791667,39.115 Z M 26.375,39.166667 c 0.02333,0 0.04333,-0.01667 0.05167,0 -0.01167,0.08833 -0.035,0.115 -0.103334,0.156666 -0.118333,0.07167 -0.221666,0.16 -0.261666,0.311667 -0.01167,0.045 -0.15,0.166667 -0.208334,0.156667 -0.131666,-0.02833 0.075,-0.275 0.105,-0.313334 0.03333,-0.04167 0.06667,-0.055 0.105,-0.103333 C 26.1,39.328333 26.13,39.245 26.166667,39.218333 A 0.41,0.41 0 0 1 26.375,39.166667 Z m 11.301667,0.26 c 0.133333,-0.01667 0.2,0.13 0.261666,0.208333 0.05,0.06667 0.178334,0.163333 0.26,0.208333 0.04667,0.025 0.103334,0.08167 0.155,0.105 0.108334,0.04833 0.308334,0.205 0.313334,0.311667 0.0017,0.05333 -0.06,0.106667 -0.05167,0.156667 0.08167,0.01667 0.153333,-0.126667 0.155,-0.208334 0.153333,0.216667 0.285,0.446667 0.416667,0.676667 0.06333,0.11 0.15,0.2 0.208333,0.313333 -0.07333,0.02167 -0.09167,0.03333 -0.103333,0.103334 -0.01667,0.09333 0.035,0.245 -0.105,0.261666 -0.08667,0.01667 -0.19,-0.07667 -0.311667,-0.105 -0.05,-0.01667 -0.116667,0.01667 -0.156667,0 -0.09167,-0.03 -0.07667,-0.153333 -0.155,-0.208333 a 0.835,0.835 0 0 0 -0.261666,-0.105 c -0.045,0 -0.05667,0.01667 -0.103334,0 -0.05667,-0.01667 -0.161666,0.02333 -0.208333,0 A 0.535,0.535 0 0 1 37.833333,40.99 C 37.815,40.928333 37.986667,40.885 37.99,40.833333 c 0.0033,-0.04 -0.045,-0.095 -0.05333,-0.156666 -0.005,-0.03667 0.0083,-0.07833 0,-0.103334 C 37.925,40.53 37.85,40.523333 37.781667,40.52 H 37.625 c -0.07333,0 -0.221667,-0.0067 -0.313333,0 -0.055,0 -0.103334,-0.005 -0.155,0 -0.145,0.01667 -0.251667,-0.01667 -0.365,0 a 1.0466667,1.0466667 0 0 0 -0.313334,0.105 L 36.375,40.676667 A 0.685,0.685 0 0 1 36.27,40.73 c -0.045,0.02167 -0.11,0.09 -0.155,0.103333 -0.06667,0.01667 -0.143333,-0.01667 -0.261667,0 -0.08333,0 -0.205,-0.055 -0.208333,-0.156666 0,-0.155 0.271667,-0.075 0.416667,-0.103334 0.055,-0.01667 0.09,-0.065 0.156666,-0.105 0.03333,-0.01667 0.02333,-0.03167 0.05333,-0.05167 0.05,-0.035 0.146666,-0.116667 0.155,-0.156667 0.0067,-0.03667 -0.005,-0.075 0,-0.103333 0.0067,-0.035 0.06,-0.05833 0.105,-0.105 0.07,-0.07 0.121666,-0.163334 0.208333,-0.208334 0.05833,-0.03 0.128333,-0.055 0.155,-0.103333 0.0067,-0.05333 0,-0.055 0,-0.105 A 0.21666667,0.21666667 0 0 1 37,39.583333 c 0.09,-0.02 0.155,0.005 0.26,0 0.045,0 0.108333,0.02167 0.156667,0 0.04,-0.02667 0.06333,-0.08333 0.105,-0.105 a 0.41166667,0.41166667 0 0 1 0.155,-0.05 z m 0.938333,0.99 h -0.208333 c -0.07333,0 -0.166667,-0.03833 -0.208334,0 0.06167,0.1 0.173334,0.131666 0.311667,0.156666 a 0.32166667,0.32166667 0 0 0 0.105,-0.156666 z M 27.208333,39.478333 H 27.365 c 0.04167,0 0.08667,-0.01667 0.103333,0 -0.02667,0.11 -0.278333,0.09333 -0.363333,0.05333 0.0033,-0.04167 0.05,-0.04667 0.103333,-0.05333 z m -0.365,0.208334 c -0.07167,0.05333 -0.145,0.121666 -0.26,0.156666 -0.06333,0.02 -0.145,0.01833 -0.156666,-0.05167 -0.01333,-0.08667 0.1,-0.04333 0.156666,-0.05167 0.07333,-0.01667 0.175,-0.05 0.26,-0.05333 z m 10.833334,0 c -0.055,0.01833 -0.08167,0.14 0,0.156666 C 37.715,39.82 37.74,39.76 37.73,39.688333 c -0.02167,-0.02333 -0.03667,-0.01667 -0.05333,0 z m -0.103334,0.261666 c 0,0.09333 0.01667,0.178334 0,0.26 0.05333,0.103334 0.181667,0.01667 0.208334,-0.05167 0.03167,-0.173334 -0.025,-0.23 -0.105,-0.208334 -0.02667,0.01667 -0.075,-0.02167 -0.103334,0 z M 23.77,43.853333 c 0.095,0.085 0.15,0.205 0.261667,0.261667 a 0.78166667,0.78166667 0 0 0 0.155,0.05167 c 0.045,0.01667 0.06333,-0.01333 0.105,0 0.08833,0.03 0.19,0.07167 0.26,0.105 0.106666,0.04667 0.221666,0.206666 0.313333,0.26 0.005,0.05333 -0.01667,0.116666 0,0.155 0.04333,0.05833 0.085,0.116666 0.155,0.156666 0.085,0.04667 0.13,0.12 0.208333,0.156667 0.02833,0.01667 0.06167,-0.01667 0.105,0 0.11,0.03333 0.166667,0.183333 0.26,0.156667 C 25.655,45.138333 25.636667,45.06 25.646667,45 c 0.04167,-0.045 0.09,-0.105 0.155,-0.105 0.103333,0 0.118333,0.16 0.156666,0.261667 0.02167,0.05667 0.09,0.095 0.105,0.155 a 1.5716667,1.5716667 0 0 1 0,0.47 c -0.02667,0.07667 -0.145,0.07167 -0.208333,0.155 -0.03,0.04 -0.03,0.128333 -0.05333,0.156666 -0.04,0.05 -0.07333,0.05833 -0.103334,0.105 A 0.74833333,0.74833333 0 0 0 25.645,46.301667 C 25.595,46.408333 25.5,46.485 25.541667,46.615 c 0.01667,0.05 0.105,0.09333 0.105,0.155 0,0.07333 -0.145,0.128333 -0.156667,0.208333 -0.0083,0.05833 0.03333,0.131667 0.05167,0.208334 0.01333,0.05833 0.121666,0.118333 0.156666,0.156666 0.05833,0.06667 0.101667,0.178334 0.155,0.261667 0.105,0.161667 0.158334,0.361667 0.261667,0.52 0.055,0.08167 0.171667,0.121667 0.208333,0.208333 0.01667,0.04333 -0.01667,0.116667 0,0.156667 0.06,0.133333 0.333334,0.298333 0.468334,0.363333 0.06333,0.03333 0.15,0.02 0.208333,0.05333 0.08833,0.05 0.266667,0.183333 0.313333,0.26 0.03833,0.07 0.03167,0.253333 0.05,0.365 0.02667,0.146666 -0.005,0.258333 0,0.416666 0.0067,0.08667 0.05333,0.121667 0.05333,0.208334 v 0.155 c -0.0017,0.103333 0.0083,0.208333 0,0.313333 a 0.99666667,0.99666667 0 0 0 0,0.156667 c 0.005,0.05 0.05,0.05667 0.05167,0.103333 0.0033,0.05 -0.05667,0.118333 -0.05167,0.156667 0.01167,0.105 0.08333,0.163333 0.105,0.26 0.01667,0.07667 0.06167,0.273333 0.05,0.365 -0.005,0.04833 -0.04333,0.1 -0.05,0.156666 -0.005,0.04333 0.005,0.06333 0,0.103334 -0.005,0.03833 0.0083,0.07333 0,0.105 -0.05333,-0.03333 -0.105,-0.07 -0.156667,-0.105 A 8.6716667,8.6716667 0 0 1 26.115,50.885 L 25.958333,50.73 A 8.6666667,8.6666667 0 0 1 25.125,49.688333 c -0.02333,-0.03333 -0.03,-0.07167 -0.05167,-0.105 a 8.04,8.04 0 0 1 -0.73,-1.355 c -0.015,-0.03333 -0.03667,-0.06667 -0.05167,-0.103333 A 8.365,8.365 0 0 1 23.823333,46.51 8.35,8.35 0 0 1 23.666667,45 c 0,-0.396667 0.05,-0.765 0.105,-1.146667 z M 27,44.74 c 0.08,-0.03667 0.065,0.09167 0,0.103333 C 26.938333,44.86 26.94,44.77 27,44.74 Z"
     fill="#ffffff"
     id="path904" />
  <circle
     id="circle861-9"
     stroke-width="1.00001"
     fill="#5e4aa6"
     r="0"
     cy="-1291.4324"
     cx="-1370.3729" />
  <circle
     id="circle879-1"
     stroke-width="1.00001"
     fill-rule="evenodd"
     fill="#5e4aa6"
     r="0"
     cy="-25.938507"
     cx="-270.82617" />
  <g
     transform="matrix(3.779602,0,0,3.779602,-91.680495,-28.521452)"
     id="g922"
     stroke-width="0.26458"
     fill="#5e4aa6">
    <circle
       id="circle914"
       r="0"
       cy="-328.38"
       cx="-330.35001" />
    <circle
       id="circle916"
       r="0"
       cy="-326.25"
       cx="-312.10999" />
    <circle
       id="circle918"
       r="0"
       cy="-333.07001"
       cx="-306.01999" />
    <circle
       id="circle920"
       r="0"
       cy="-326.01001"
       cx="-308.84" />
  </g>
</svg>
