<?xml version="1.0" encoding="UTF-8" standalone="no"?>
<svg
   xmlns:dc="http://purl.org/dc/elements/1.1/"
   xmlns:cc="http://creativecommons.org/ns#"
   xmlns:rdf="http://www.w3.org/1999/02/22-rdf-syntax-ns#"
   xmlns:svg="http://www.w3.org/2000/svg"
   xmlns="http://www.w3.org/2000/svg"
   xmlns:sodipodi="http://sodipodi.sourceforge.net/DTD/sodipodi-0.dtd"
   xmlns:inkscape="http://www.inkscape.org/namespaces/inkscape"
   inkscape:version="1.0 (4035a4fb49, 2020-05-01)"
   sodipodi:docname="yast-update.svg"
   id="svg16"
   version="1.1"
   height="64"
   width="64">
  <metadata
     id="metadata22">
    <rdf:RDF>
      <cc:Work
         rdf:about="">
        <dc:format>image/svg+xml</dc:format>
        <dc:type
           rdf:resource="http://purl.org/dc/dcmitype/StillImage" />
        <dc:title></dc:title>
      </cc:Work>
    </rdf:RDF>
  </metadata>
  <defs
     id="defs20">
    <linearGradient
       gradientUnits="userSpaceOnUse"
       gradientTransform="matrix(0.53033,0,0,0.53033,11.536,352.06)"
       y2="-100.78"
       y1="-137.82"
       x2="-6.1472"
       x1="-6.1472"
       id="b">
      <stop
         id="stop849"
         offset="0"
         stop-color="#14dc78" />
      <stop
         id="stop851"
         offset="1"
         stop-color="#14a03c" />
    </linearGradient>
    <linearGradient
       gradientUnits="userSpaceOnUse"
       gradientTransform="matrix(0.53033,0,0,0.53033,11.537,352.06)"
       y2="-126.7"
       y1="-126.08"
       x2="-6.1738"
       x1="-6.1738"
       id="a">
      <stop
         id="stop854"
         offset="0"
         stop-color="#14e650" />
      <stop
         id="stop856"
         offset="1"
         stop-color="#148232" />
    </linearGradient>
    <filter
       id="filter2761"
       x="-.024"
       y="-.024"
       width="1.048"
       height="1.048"
       color-interpolation-filters="sRGB">
      <feGaussianBlur
         stdDeviation="0.14552168"
         id="feGaussianBlur2" />
    </filter>
    <linearGradient
       id="linearGradient4673"
       x1="1.2573"
       x2="15.644"
       y1="15.429"
       y2="1.1082"
       gradientUnits="userSpaceOnUse">
      <stop
         stop-color="#ff8228"
         offset="0"
         id="stop5" />
      <stop
         stop-color="#ff7346"
         offset=".47728"
         id="stop7" />
      <stop
         stop-color="#ff8c55"
         offset="1"
         id="stop9" />
    </linearGradient>
    <linearGradient
       id="linearGradient865"
       x1="7.9373"
       x2="7.9373"
       y1="6.879"
       y2="1.0583"
       gradientTransform="matrix(1.0000066,0,0,1.0000066,19.187825,0)"
       gradientUnits="userSpaceOnUse">
      <stop
         stop-color="#fff"
         offset="0"
         id="stop2" />
      <stop
         stop-color="#fcc"
         offset="1"
         id="stop4" />
    </linearGradient>
    <linearGradient
       id="linearGradient855"
       x1="2.6278"
       x2="12.314"
       y1="14.579"
       y2="3.9327"
       gradientUnits="userSpaceOnUse"
       gradientTransform="translate(19.187825)">
      <stop
         stop-color="#d462aa"
         offset="0"
         id="stop7-3" />
      <stop
         stop-color="#56c7d9"
         offset=".15178"
         id="stop9-6" />
      <stop
         stop-color="#2da8b8"
         offset=".33294"
         id="stop11" />
      <stop
         stop-color="#72cb6b"
         offset=".53353"
         id="stop13" />
      <stop
         stop-color="#c4dc2b"
         offset=".71019"
         id="stop15" />
      <stop
         stop-color="#f9da3e"
         offset=".8623"
         id="stop17" />
      <stop
         stop-color="#f69429"
         offset="1"
         id="stop19" />
    </linearGradient>
    <linearGradient
       id="linearGradient910"
       x1="45"
       x2="57.008"
       y1="19"
       y2="6.9915"
       gradientTransform="matrix(0.26458,0,0,0.26458,19.187825,0)"
       gradientUnits="userSpaceOnUse">
      <stop
         stop-color="#fff"
         offset="0"
         id="stop22" />
      <stop
         stop-color="#ffe3cc"
         offset="1"
         id="stop24" />
    </linearGradient>
    <style
       id="style872"
       type="text/css" />
    <filter
       color-interpolation-filters="sRGB"
       height="1.048"
       width="1.048"
       y="-.024"
       x="-.024"
       id="filter2761-7">
      <feGaussianBlur
         id="feGaussianBlur874"
         stdDeviation="0.14552168" />
    </filter>
    <linearGradient
       gradientUnits="userSpaceOnUse"
       gradientTransform="matrix(3.7796,0,0,3.7796,-0.0026448,0.53066)"
       y2="1.1082"
       y1="15.429"
       x2="15.644"
       x1="1.2573"
       id="linearGradient4673-5">
      <stop
         id="stop877"
         offset="0"
         stop-color="#32dcff" />
      <stop
         id="stop879"
         offset="1"
         stop-color="#3296ff" />
    </linearGradient>
    <style
       type="text/css"
       id="style4" />
    <style
       type="text/css"
       id="style6" />
    <style
       type="text/css"
       id="style8" />
    <filter
       id="filter2761-36"
       x="-.024"
       y="-.024"
       width="1.048"
       height="1.048"
       color-interpolation-filters="sRGB">
      <feGaussianBlur
         stdDeviation="0.14552168"
         id="feGaussianBlur10" />
    </filter>
    <linearGradient
       id="linearGradient1024-6"
       x1="1.3315"
       x2="15.65"
       y1="15.576"
       y2="1.17"
       gradientTransform="matrix(3.7796,0,0,3.7796,111.78704,0.53107)"
       gradientUnits="userSpaceOnUse">
      <stop
         stop-color="#00dc96"
         offset="0"
         id="stop13-7" />
      <stop
         stop-color="#14d29b"
         offset="1"
         id="stop15-5" />
    </linearGradient>
    <linearGradient
       id="b-3"
       x1="45.628"
       x2="45.628"
       y1="57.955"
       y2="12.461"
       gradientTransform="matrix(0.27476,0,0,0.27476,-24.952118,-0.32515)"
       gradientUnits="userSpaceOnUse">
      <stop
         offset="0"
         id="stop2-3" />
      <stop
         stop-opacity="0"
         offset="1"
         id="stop4-5" />
    </linearGradient>
    <style
       id="style872-0"
       type="text/css" />
    <style
       id="style874"
       type="text/css" />
    <style
       id="style876"
       type="text/css" />
    <filter
       color-interpolation-filters="sRGB"
       height="1.048"
       width="1.048"
       y="-.024"
       x="-.024"
       id="filter2761-3">
      <feGaussianBlur
         id="feGaussianBlur878"
         stdDeviation="0.14552168" />
    </filter>
    <linearGradient
       gradientUnits="userSpaceOnUse"
       gradientTransform="matrix(3.7796,0,0,3.7796,-0.0020773,0.53047)"
       y2="1.17"
       y1="15.576"
       x2="15.65"
       x1="1.3315"
       id="linearGradient1024-6-6">
      <stop
         id="stop881"
         offset="0"
         stop-color="#00dc96" />
      <stop
         id="stop883"
         offset="1"
         stop-color="#14d29b" />
    </linearGradient>
    <filter
       id="filter11290"
       x="-.024"
       y="-.024"
       width="1.048"
       height="1.048"
       color-interpolation-filters="sRGB">
      <feGaussianBlur
         stdDeviation="0.15875313"
         id="feGaussianBlur896" />
    </filter>
    <linearGradient
       id="linearGradient1005"
       x1=".73911"
       x2="16.388"
       y1="16.296"
       y2=".64687"
       gradientTransform="matrix(3.779602,0,0,3.779602,-141.36824,-41.424531)"
       gradientUnits="userSpaceOnUse">
      <stop
         stop-color="#ff8228"
         offset="0"
         id="stop899" />
      <stop
         stop-color="#ff7346"
         offset=".48355"
         id="stop901" />
      <stop
         stop-color="#ff8c55"
         offset="1"
         id="stop903" />
    </linearGradient>
  </defs>
  <sodipodi:namedview
     inkscape:current-layer="svg16"
     inkscape:window-maximized="1"
     inkscape:window-y="0"
     inkscape:window-x="0"
     inkscape:cy="35.780832"
     inkscape:cx="-74.346124"
     inkscape:zoom="2.1075097"
     showgrid="false"
     id="namedview18"
     inkscape:window-height="1000"
     inkscape:window-width="1920"
     inkscape:pageshadow="2"
     inkscape:pageopacity="0"
     guidetolerance="10"
     gridtolerance="10"
     objecttolerance="10"
     borderopacity="1"
     bordercolor="#666666"
     pagecolor="#ffffff"
     inkscape:document-rotation="0" />
  <g
     transform="translate(141.23575,41.448909)"
     id="g972">
    <circle
       cx="8.4937"
       cy="8.46"
       r="7.9376998"
       filter="url(#filter11290)"
       opacity="0.25"
       stroke-width="0.14032"
       id="circle910"
       transform="matrix(3.779602,0,0,3.779602,-141.33855,-41.424341)" />
    <path
       style="fill:url(#linearGradient1005)"
       d="m -79.23591,-9.449286 c 0,3.5964424 -0.633045,7.0448001 -1.79395,10.24045362 -0.806983,2.22119648 -1.868597,4.32121898 -3.151923,6.26355648 -0.537535,0.8166964 -1.115512,1.6053859 -1.729017,2.3633473 -1.964108,2.4257106 -4.298163,4.5381686 -6.918562,6.2525956 -0.964932,0.631874 -1.967849,1.209851 -3.006144,1.727732 -4.032079,2.017891 -8.583854,3.152981 -13.400954,3.152981 -4.81711,0 -9.36888,-1.13509 -13.40096,-3.153095 -1.03841,-0.517994 -2.0425,-1.095971 -3.00743,-1.727731 -2.65354,-1.737597 -5.01553,-3.883164 -6.99566,-6.3489759 -0.61468,-0.7640843 -1.19149,-1.5600307 -1.72902,-2.3840973 -1.24901,-1.9102109 -2.28367,-3.9712278 -3.07471,-6.14941246 -1.16075,-3.19485974 -1.79266,-6.64189454 -1.79266,-10.23705204 0,-16.5690193 13.43157,-30.0005913 30.00059,-30.0005913 8.31701,0 15.842956,3.384558 21.277268,8.850694 1.566116,1.574658 2.958446,3.323367 4.143578,5.213961 1.120463,1.780458 2.057161,3.688212 2.785718,5.695105 1.161018,3.195993 1.794063,6.644162 1.794063,10.2404534 z"
       fill="url(#linearGradient1005)"
       stroke-width="0.11719"
       id="path912" />
    <path
       id="path924"
       stroke-width="2.00001"
       stroke-dashoffset="0.42096"
       stroke="#ffffff"
       fill="none"
       d="m -96.746804,-28.753603 a 12.4999,12.4999 0 0 1 0.0102,0.499965 12.4999,12.4999 0 0 1 -12.499896,12.4999 12.4999,12.4999 0 0 1 -12.4999,-12.4999 12.4999,12.4999 0 0 1 0.01,-0.500683" />
  </g>
  <circle
     id="circle861"
     stroke-width="1.00001"
     fill="#5e4aa6"
     r="0"
     cy="-1241.6389"
     cx="-1248.6936" />
  <circle
     id="circle879"
     stroke-width="1.00001"
     fill-rule="evenodd"
     fill="#5e4aa6"
     r="0"
     cy="23.855019"
     cx="-149.14687" />
  <path
     style="stroke-width:0.833333"
     d="m 32,35 a 9.9333333,9.9333333 0 0 0 -5.051667,1.406667 L 31.426667,40.885 32.625,39.688333 29.916667,36.98 c 0.325,-0.08667 0.65,-0.163333 0.99,-0.208333 0.08667,-0.01333 0.171666,-0.04333 0.26,-0.05333 0.28,-0.02833 0.545,-0.05167 0.833333,-0.05167 A 8.3333333,8.3333333 0 0 1 40.333333,45 c 0,0.405 -0.04667,0.81 -0.105,1.198333 C 40.195,46.425 40.176667,46.655 40.125,46.875 a 7.895,7.895 0 0 1 -0.468333,1.355 c -0.02333,0.05 -0.03,0.105 -0.05333,0.155 -0.06667,0.153333 -0.18,0.273333 -0.26,0.416667 -0.0067,0.01333 0.0083,0.03833 0,0.05333 l 1.25,1.196667 A 9.9333333,9.9333333 0 0 0 42,45 10,10 0 0 0 32,35 Z m -8.593333,4.948333 A 9.9333333,9.9333333 0 0 0 22,45 10,10 0 0 0 32,55 9.9333333,9.9333333 0 0 0 37.051667,53.593333 l -1.25,-1.25 -3.228334,-3.176666 -1.146666,1.146666 2.656666,2.708334 c -0.325,0.08333 -0.65,0.161666 -0.99,0.208333 -0.08667,0.01167 -0.171666,0.04167 -0.26,0.05 -0.28,0.03 -0.545,0.05333 -0.833333,0.05333 -0.288333,0 -0.553333,-0.02333 -0.833333,-0.05167 -0.28,-0.02833 -0.561667,-0.05 -0.833334,-0.105 A 8.3616667,8.3616667 0 0 1 23.666667,45 c 0,-0.413333 0.04667,-0.8 0.105,-1.198333 C 23.805,43.575 23.823333,43.345 23.875,43.125 c 0.111667,-0.478333 0.278333,-0.913333 0.468333,-1.355 0.02167,-0.05 0.03,-0.105 0.05333,-0.155 0.06667,-0.15 0.18,-0.275 0.26,-0.416667 V 41.145 Z"
     fill="#ffffff"
     id="path904" />
  <circle
     id="circle861-9"
     stroke-width="1.00001"
     fill="#5e4aa6"
     r="0"
     cy="-1301.3058"
     cx="-1327.7162" />
  <circle
     id="circle879-1"
     stroke-width="1.00001"
     fill-rule="evenodd"
     fill="#5e4aa6"
     r="0"
     cy="-35.811924"
     cx="-228.16943" />
  <g
     transform="matrix(3.779602,0,0,3.779602,-141.33855,-41.424341)"
     id="g922"
     stroke-width="0.26458"
     fill="#5e4aa6">
    <circle
       id="circle914"
       r="0"
       cy="-328.38"
       cx="-330.35001" />
    <circle
       id="circle916"
       r="0"
       cy="-326.25"
       cx="-312.10999" />
    <circle
       id="circle918"
       r="0"
       cy="-333.07001"
       cx="-306.01999" />
    <circle
       id="circle920"
       r="0"
       cy="-326.01001"
       cx="-308.84" />
  </g>
</svg>
