<?xml version="1.0" encoding="UTF-8"?>
<svg width="64" height="64" version="1.1" viewBox="0 0 64 64" xmlns="http://www.w3.org/2000/svg" xmlns:cc="http://creativecommons.org/ns#" xmlns:dc="http://purl.org/dc/elements/1.1/" xmlns:rdf="http://www.w3.org/1999/02/22-rdf-syntax-ns#">
 <metadata>
  <rdf:RDF>
   <cc:Work rdf:about="">
    <dc:format>image/svg+xml</dc:format>
    <dc:type rdf:resource="http://purl.org/dc/dcmitype/StillImage"/>
    <dc:title/>
   </cc:Work>
  </rdf:RDF>
 </metadata>
 <defs>
  <filter id="filter11290-9" x="-.024" y="-.024" width="1.048" height="1.048" color-interpolation-filters="sRGB">
   <feGaussianBlur stdDeviation="0.15875313"/>
  </filter>
  <linearGradient id="linearGradient1005-7" x1=".8714" x2="16.246" y1="16.164" y2=".78937" gradientTransform="matrix(3.7796 0 0 3.7796 -.13461 .024699)" gradientUnits="userSpaceOnUse">
   <stop stop-color="#00c8ff" offset="0"/>
   <stop stop-color="#14a0ff" offset="1"/>
  </linearGradient>
 </defs>
 <linearGradient id="a" x1="399.57" x2="399.57" y1="545.8" y2="517.8" gradientUnits="userSpaceOnUse">
  <stop stop-color="#3889e9" offset="0"/>
  <stop stop-color="#5ea5fb" offset="1"/>
 </linearGradient>
 <circle transform="scale(3.7796)" cx="8.4665" cy="8.4665" r="7.9377" filter="url(#filter11290-9)" image-rendering="optimizeSpeed" opacity=".25" stroke-width=".14032"/>
 <path d="m62.001 32.001c0 3.5965-0.63305 7.0448-1.794 10.24-0.80702 2.2212-1.8686 4.3212-3.152 6.2636-0.53754 0.8167-1.1155 1.6054-1.7291 2.3633-1.9641 2.4257-4.2982 4.5382-6.9186 6.2526-0.96493 0.63187-1.9678 1.2099-3.0062 1.7277-4.0321 2.0179-8.5839 3.1531-13.401 3.1531-4.8171 0-9.3689-1.1351-13.401-3.1532-1.0384-0.51799-2.0425-1.096-3.0075-1.7277-2.6535-1.7376-5.0155-3.8832-6.9957-6.349-0.61468-0.76408-1.1915-1.56-1.7291-2.3841-1.249-1.9102-2.2837-3.9712-3.0748-6.1494-1.1608-3.195-1.7927-6.6419-1.7927-10.237 0-16.569 13.432-30.002 30.002-30.002 8.317 0 15.843 3.3847 21.277 8.8507 1.5662 1.5747 2.9584 3.3235 4.1436 5.214 1.1205 1.7805 2.0572 3.6883 2.7858 5.6951 1.1611 3.1961 1.7941 6.6442 1.7941 10.24z" fill="url(#linearGradient1005-7)" image-rendering="optimizeSpeed" stroke-width=".11719"/>
 <circle transform="matrix(1.6375 0 0 1.6375 -643.76 -848.88)" cx="400.57" cy="531.8" r="0" fill="url(#a)"/>
 <path d="m26.832 33.348c-0.52915-2.4739 1.5495-4.6526 3.9054-4.9684 3.3249-0.44583 6.141 2.3392 6.4315 5.5395 0.3787 4.1712-3.1294 7.6373-7.1737 7.8946-5.016 0.31905-9.1379-3.9197-9.3576-8.8079-0.26345-5.8603 4.7101-10.641 10.442-10.821 6.7042-0.21027 12.146 5.5005 12.284 12.076 0.15866 7.548-6.2909 13.651-13.71 13.747-8.3917 0.1081-15.158-7.0814-15.21-15.345-0.05831-9.2354 7.8719-16.665 16.979-16.673 10.079-0.0091 18.172 8.6624 18.136 18.613-0.01576 4.3339-1.5344 8.5955-4.223 11.99" fill="none" stroke="#fff" stroke-linecap="round" stroke-linejoin="round" stroke-opacity=".85081" stroke-width="2.9812"/>
</svg>
