<?xml version="1.0" encoding="UTF-8" standalone="no"?>
<svg
   xmlns:dc="http://purl.org/dc/elements/1.1/"
   xmlns:cc="http://creativecommons.org/ns#"
   xmlns:rdf="http://www.w3.org/1999/02/22-rdf-syntax-ns#"
   xmlns:svg="http://www.w3.org/2000/svg"
   xmlns="http://www.w3.org/2000/svg"
   xmlns:xlink="http://www.w3.org/1999/xlink"
   xmlns:sodipodi="http://sodipodi.sourceforge.net/DTD/sodipodi-0.dtd"
   xmlns:inkscape="http://www.inkscape.org/namespaces/inkscape"
   height="64"
   width="64"
   version="1.1"
   id="svg8"
   sodipodi:docname="zotero.svg"
   inkscape:version="1.0 (4035a4fb49, 2020-05-01)">
  <metadata
     id="metadata14">
    <rdf:RDF>
      <cc:Work
         rdf:about="">
        <dc:format>image/svg+xml</dc:format>
        <dc:type
           rdf:resource="http://purl.org/dc/dcmitype/StillImage" />
        <dc:title></dc:title>
      </cc:Work>
    </rdf:RDF>
  </metadata>
  <defs
     id="defs12">
    <radialGradient
       gradientUnits="userSpaceOnUse"
       gradientTransform="matrix(0.057428,0,0,0.057428,103.83996,56.098396)"
       r="470.16"
       cy="512.01"
       cx="512.01"
       id="a-3">
      <stop
         id="stop4"
         offset="0"
         stop-color="#14c878" />
      <stop
         id="stop6"
         offset="1"
         stop-color="#149632" />
    </radialGradient>
    <linearGradient
       id="a"
       x1="-6.1472"
       x2="-6.1472"
       y1="-137.82"
       y2="-100.78"
       gradientTransform="matrix(2.0044363,0,0,2.0044363,43.49944,271.60788)"
       gradientUnits="userSpaceOnUse">
      <stop
         stop-color="#ff8214"
         offset="0"
         id="stop864" />
      <stop
         stop-color="#ff6464"
         offset="1"
         id="stop866" />
    </linearGradient>
    <clipPath
       id="SVGID_2_">
      <use
         width="100%"
         height="100%"
         xlink:href="#SVGID_1_"
         id="use869" />
    </clipPath>
    <rect
       id="SVGID_1_"
       x="247.79"
       y="352.04"
       width="99.69"
       height="99.8" />
    <linearGradient
       id="a-36"
       x1="-6.1472"
       x2="-6.1472"
       y1="-137.82"
       y2="-100.78"
       gradientTransform="matrix(2.0044363,0,0,2.0044363,43.499439,271.60788)"
       gradientUnits="userSpaceOnUse">
      <stop
         stop-color="#14dc78"
         offset="0"
         id="stop908" />
      <stop
         stop-color="#14a03c"
         offset="1"
         id="stop910" />
    </linearGradient>
    <linearGradient
       id="a-367"
       x1="-6.1472"
       x2="-6.1472"
       y1="-140.25"
       y2="-98.292"
       gradientTransform="matrix(0.53033,0,0,0.53033,11.509,71.86151)"
       gradientUnits="userSpaceOnUse">
      <stop
         stop-color="#ff3c69"
         offset="0"
         id="stop837" />
      <stop
         stop-color="#ff462b"
         offset="1"
         id="stop839" />
    </linearGradient>
    <linearGradient
       gradientUnits="userSpaceOnUse"
       y2="15.436"
       y1="1.483"
       x2="8.6487"
       x1="8.6487"
       id="linearGradient1029">
      <stop
         id="stop2"
         offset="0"
         stop-color="#17b7f1" />
      <stop
         id="stop4-53"
         offset="1"
         stop-color="#1763e1" />
    </linearGradient>
    <filter
       color-interpolation-filters="sRGB"
       height="1.048"
       width="1.048"
       y="-.024"
       x="-.024"
       id="filter2761">
      <feGaussianBlur
         id="feGaussianBlur2"
         stdDeviation="0.14552168" />
    </filter>
    <linearGradient
       gradientUnits="userSpaceOnUse"
       y2="1.1082"
       y1="15.429"
       x2="15.644"
       x1="1.2573"
       id="linearGradient4673">
      <stop
         id="stop5"
         offset="0"
         stop-color="#ff8228" />
      <stop
         id="stop7"
         offset=".47728"
         stop-color="#ff7346" />
      <stop
         id="stop9"
         offset="1"
         stop-color="#ff8c55" />
    </linearGradient>
    <linearGradient
       gradientUnits="userSpaceOnUse"
       gradientTransform="matrix(1.0000066,0,0,1.0000066,19.187825,0)"
       y2="1.0583"
       y1="6.879"
       x2="7.9373"
       x1="7.9373"
       id="linearGradient865">
      <stop
         id="stop2-36"
         offset="0"
         stop-color="#fff" />
      <stop
         id="stop4-7"
         offset="1"
         stop-color="#fcc" />
    </linearGradient>
    <linearGradient
       gradientTransform="translate(19.187825)"
       gradientUnits="userSpaceOnUse"
       y2="3.9327"
       y1="14.579"
       x2="12.314"
       x1="2.6278"
       id="linearGradient855">
      <stop
         id="stop7-3"
         offset="0"
         stop-color="#d462aa" />
      <stop
         id="stop9-6"
         offset=".15178"
         stop-color="#56c7d9" />
      <stop
         id="stop11"
         offset=".33294"
         stop-color="#2da8b8" />
      <stop
         id="stop13"
         offset=".53353"
         stop-color="#72cb6b" />
      <stop
         id="stop15"
         offset=".71019"
         stop-color="#c4dc2b" />
      <stop
         id="stop17"
         offset=".8623"
         stop-color="#f9da3e" />
      <stop
         id="stop19"
         offset="1"
         stop-color="#f69429" />
    </linearGradient>
    <linearGradient
       gradientUnits="userSpaceOnUse"
       gradientTransform="matrix(0.26458,0,0,0.26458,19.187825,0)"
       y2="6.9915"
       y1="19"
       x2="57.008"
       x1="45"
       id="linearGradient910">
      <stop
         id="stop22"
         offset="0"
         stop-color="#fff" />
      <stop
         id="stop24"
         offset="1"
         stop-color="#ffe3cc" />
    </linearGradient>
    <style
       type="text/css"
       id="style872" />
    <filter
       id="filter2761-7"
       x="-.024"
       y="-.024"
       width="1.048"
       height="1.048"
       color-interpolation-filters="sRGB">
      <feGaussianBlur
         stdDeviation="0.14552168"
         id="feGaussianBlur874" />
    </filter>
    <linearGradient
       id="linearGradient4673-5"
       x1="1.2573"
       x2="15.644"
       y1="15.429"
       y2="1.1082"
       gradientTransform="matrix(3.7796,0,0,3.7796,-0.0026448,0.53066)"
       gradientUnits="userSpaceOnUse">
      <stop
         stop-color="#32dcff"
         offset="0"
         id="stop877" />
      <stop
         stop-color="#3296ff"
         offset="1"
         id="stop879" />
    </linearGradient>
    <style
       id="style4"
       type="text/css" />
    <style
       id="style6"
       type="text/css" />
    <style
       id="style8"
       type="text/css" />
    <filter
       color-interpolation-filters="sRGB"
       height="1.048"
       width="1.048"
       y="-.024"
       x="-.024"
       id="filter2761-36">
      <feGaussianBlur
         id="feGaussianBlur10"
         stdDeviation="0.14552168" />
    </filter>
    <linearGradient
       gradientUnits="userSpaceOnUse"
       gradientTransform="matrix(3.7796,0,0,3.7796,111.78704,0.53107)"
       y2="1.17"
       y1="15.576"
       x2="15.65"
       x1="1.3315"
       id="linearGradient1024-6">
      <stop
         id="stop13-7"
         offset="0"
         stop-color="#00dc96" />
      <stop
         id="stop15-5"
         offset="1"
         stop-color="#14d29b" />
    </linearGradient>
    <linearGradient
       gradientUnits="userSpaceOnUse"
       gradientTransform="matrix(0.27476,0,0,0.27476,-24.952118,-0.32515)"
       y2="12.461"
       y1="57.955"
       x2="45.628"
       x1="45.628"
       id="b">
      <stop
         id="stop2-3"
         offset="0" />
      <stop
         id="stop4-5"
         offset="1"
         stop-opacity="0" />
    </linearGradient>
    <style
       type="text/css"
       id="style872-0" />
    <style
       type="text/css"
       id="style874" />
    <style
       type="text/css"
       id="style876" />
    <filter
       id="filter2761-3"
       x="-.024"
       y="-.024"
       width="1.048"
       height="1.048"
       color-interpolation-filters="sRGB">
      <feGaussianBlur
         stdDeviation="0.14552168"
         id="feGaussianBlur878" />
    </filter>
    <linearGradient
       id="linearGradient1024-6-6"
       x1="1.3315"
       x2="15.65"
       y1="15.576"
       y2="1.17"
       gradientTransform="matrix(3.7796,0,0,3.7796,-0.0020773,0.53047)"
       gradientUnits="userSpaceOnUse">
      <stop
         stop-color="#00dc96"
         offset="0"
         id="stop881" />
      <stop
         stop-color="#14d29b"
         offset="1"
         id="stop883" />
    </linearGradient>
    <linearGradient
       id="linearGradient1057">
      <stop
         id="stop4-3"
         offset="0"
         stop-color="#fff" />
      <stop
         id="stop6-5"
         offset="1"
         stop-opacity="0"
         stop-color="#fff" />
    </linearGradient>
    <linearGradient
       gradientUnits="userSpaceOnUse"
       gradientTransform="matrix(1.5625,0,0,1.5625,0.40633,-5.1891)"
       y2="52.847"
       y1="27.545"
       x2="34.999"
       x1="34.999"
       id="linearGradient982">
      <stop
         id="stop9-67"
         offset="0"
         stop-color="#32b4ff" />
      <stop
         id="stop11-5"
         offset="1"
         stop-color="#3287ff" />
    </linearGradient>
    <style
       id="style14"
       type="text/css" />
    <style
       id="style16"
       type="text/css" />
    <linearGradient
       gradientUnits="userSpaceOnUse"
       gradientTransform="matrix(1.5625,0,0,1.5625,-9.2253,1.3231)"
       y2="43.681"
       y1="18.052"
       x2="21.314"
       x1="21.314"
       id="linearGradient1047">
      <stop
         id="stop18"
         offset="0"
         stop-color="#14dc78" />
      <stop
         id="stop20"
         offset="1"
         stop-color="#14a03c" />
    </linearGradient>
    <linearGradient
       gradientUnits="userSpaceOnUse"
       gradientTransform="matrix(1.5625,0,0,1.5625,-8.1072,-10.908)"
       y2="37.368"
       y1="12.316"
       x2="41.729"
       x1="41.729"
       id="linearGradient1049">
      <stop
         id="stop23"
         offset="0"
         stop-color="#ff3c64" />
      <stop
         id="stop25"
         offset="1"
         stop-color="#ff4628" />
    </linearGradient>
    <linearGradient
       xlink:href="#linearGradient1057"
       gradientUnits="userSpaceOnUse"
       gradientTransform="matrix(1,0,0,1.2271,0.20646,-10.975)"
       y2="39.768"
       y1="32.234"
       x2="34.427"
       x1="34.427"
       id="linearGradient1059" />
    <linearGradient
       xlink:href="#linearGradient1057"
       gradientUnits="userSpaceOnUse"
       gradientTransform="matrix(1,0,0,1.2271,-12.55,-19.793)"
       y2="39.768"
       y1="32.234"
       x2="34.427"
       x1="34.427"
       id="linearGradient1063" />
    <linearGradient
       xlink:href="#linearGradient1057"
       gradientUnits="userSpaceOnUse"
       gradientTransform="matrix(1,0,0,1.2271,5.7554,-25.761)"
       y2="39.768"
       y1="32.234"
       x2="34.427"
       x1="34.427"
       id="linearGradient1067" />
    <filter
       color-interpolation-filters="sRGB"
       height="1.048"
       width="1.048"
       y="-.024"
       x="-.024"
       id="filter2761-35">
      <feGaussianBlur
         id="feGaussianBlur31"
         stdDeviation="0.14552168" />
    </filter>
    <linearGradient
       gradientUnits="userSpaceOnUse"
       gradientTransform="matrix(3.7796,0,0,3.7796,72.4059,0.53085)"
       y2="1.17"
       y1="15.576"
       x2="15.65"
       x1="1.3315"
       id="linearGradient1024">
      <stop
         id="stop34"
         offset="0"
         stop-color="#dddfe1" />
      <stop
         id="stop36"
         offset="1"
         stop-opacity=".99608"
         stop-color="#f3f4f6" />
    </linearGradient>
    <filter
       color-interpolation-filters="sRGB"
       height="1.048"
       width="1.048"
       y="-.024"
       x="-.024"
       id="filter2761-3-6">
      <feGaussianBlur
         id="feGaussianBlur2-2"
         stdDeviation="0.14552168" />
    </filter>
    <linearGradient
       gradientUnits="userSpaceOnUse"
       gradientTransform="translate(0 -.07421)"
       y2="1.17"
       y1="15.576"
       x2="15.65"
       x1="1.3315"
       id="linearGradient1024-6-9">
      <stop
         id="stop5-1"
         offset="0"
         stop-color="#dddfe1" />
      <stop
         id="stop7-2"
         offset="1"
         stop-opacity=".99608"
         stop-color="#f3f4f6" />
    </linearGradient>
    <filter
       color-interpolation-filters="sRGB"
       height="1.048"
       width="1.048"
       y="-.024"
       x="-.024"
       id="filter2761-9">
      <feGaussianBlur
         id="feGaussianBlur2-1"
         stdDeviation="0.14552168" />
    </filter>
    <style
       type="text/css"
       id="style872-02" />
    <filter
       id="filter2761-7-3"
       x="-.024"
       y="-.024"
       width="1.048"
       height="1.048"
       color-interpolation-filters="sRGB">
      <feGaussianBlur
         stdDeviation="0.14552168"
         id="feGaussianBlur874-7" />
    </filter>
    <style
       id="style4-2"
       type="text/css" />
    <style
       id="style6-2"
       type="text/css" />
    <style
       id="style8-8"
       type="text/css" />
    <filter
       color-interpolation-filters="sRGB"
       height="1.048"
       width="1.048"
       y="-.024"
       x="-.024"
       id="filter2761-36-9">
      <feGaussianBlur
         id="feGaussianBlur10-7"
         stdDeviation="0.14552168" />
    </filter>
    <style
       type="text/css"
       id="style872-0-9" />
    <style
       type="text/css"
       id="style874-3" />
    <style
       type="text/css"
       id="style876-1" />
    <filter
       id="filter2761-3-9"
       x="-.024"
       y="-.024"
       width="1.048"
       height="1.048"
       color-interpolation-filters="sRGB">
      <feGaussianBlur
         stdDeviation="0.14552168"
         id="feGaussianBlur878-4" />
    </filter>
    <style
       id="style14-1"
       type="text/css" />
    <style
       id="style16-0"
       type="text/css" />
    <filter
       color-interpolation-filters="sRGB"
       height="1.048"
       width="1.048"
       y="-.024"
       x="-.024"
       id="filter2761-35-6">
      <feGaussianBlur
         id="feGaussianBlur31-1"
         stdDeviation="0.14552168" />
    </filter>
    <filter
       color-interpolation-filters="sRGB"
       height="1.048"
       width="1.048"
       y="-.024"
       x="-.024"
       id="filter2761-3-6-4">
      <feGaussianBlur
         id="feGaussianBlur2-2-7"
         stdDeviation="0.14552168" />
    </filter>
    <linearGradient
       gradientUnits="userSpaceOnUse"
       gradientTransform="matrix(1.502,0,0,1.5037,-3.9827,-3.342)"
       y2="24"
       y1="24"
       x2="36.937"
       x1="10.973"
       id="b-36">
      <stop
         id="stop2-7"
         offset="0"
         stop-color="#2a2c2f" />
      <stop
         id="stop4-53-6"
         offset="1"
         stop-color="#424649" />
    </linearGradient>
    <linearGradient
       gradientUnits="userSpaceOnUse"
       gradientTransform="matrix(0.13235,0,0,0.13075,-32.379,1.0873)"
       y2="269.49"
       y1="235.15"
       x2="657.65"
       x1="319.21"
       id="a-5">
      <stop
         id="stop7-6"
         offset="0"
         stop-color="#e54c18" />
      <stop
         id="stop9-2"
         offset="1"
         stop-color="#fec350" />
    </linearGradient>
    <filter
       color-interpolation-filters="sRGB"
       height="1.236"
       width="1.1991"
       y="-.11801"
       x="-.099574"
       id="c">
      <feGaussianBlur
         id="feGaussianBlur12"
         stdDeviation="1.9913168" />
    </filter>
    <linearGradient
       gradientUnits="userSpaceOnUse"
       gradientTransform="matrix(3.7795 0 0 3.7795 .00014309 .031541)"
       y2="1.852"
       y1="15.081"
       x2="7.9373"
       x1="7.9373"
       id="linearGradient862-3">
      <stop
         id="stop15-9"
         offset="0"
         stop-color="#f1efeb" />
      <stop
         id="stop17-1"
         offset="1"
         stop-color="#fdfcfc" />
    </linearGradient>
    <linearGradient
       id="linearGradient964"
       inkscape:collect="always">
      <stop
         id="stop960"
         offset="0"
         style="stop-color:#e1e6eb;stop-opacity:1" />
      <stop
         id="stop962"
         offset="1"
         style="stop-color:#f5f5f5;stop-opacity:1" />
    </linearGradient>
    <linearGradient
       id="linearGradient910-2"
       x1="45"
       x2="60.076"
       y1="19"
       y2="3.9236"
       gradientTransform="matrix(0.89283,0,0,-0.89283,114.05436,60.491)"
       gradientUnits="userSpaceOnUse">
      <stop
         stop-color="#fff"
         offset="0"
         id="stop2-3-7" />
      <stop
         stop-color="#ffefcc"
         offset="1"
         id="stop4-6" />
    </linearGradient>
    <radialGradient
       id="radialGradient1089"
       cx="-10.016"
       cy="4.9291"
       r="1.6997"
       gradientTransform="matrix(6.8413,0.088798,-0.13161,10.14,218.5036,-115.08867)"
       gradientUnits="userSpaceOnUse">
      <stop
         offset="0"
         id="stop7-7" />
      <stop
         stop-opacity=".33"
         offset=".47598"
         id="stop9-5" />
      <stop
         stop-opacity=".01"
         offset=".86209"
         id="stop11-0" />
      <stop
         stop-opacity="0"
         offset="1"
         id="stop13-9" />
    </radialGradient>
    <linearGradient
       id="linearGradient940"
       x1="30"
       x2="30"
       y1="54"
       y2="9"
       gradientTransform="matrix(1,0,0,-1,110.62576,63.947)"
       gradientUnits="userSpaceOnUse">
      <stop
         stop-color="#fff"
         offset="0"
         id="stop16" />
      <stop
         stop-color="#f5f5f5"
         offset="1"
         id="stop18-3" />
    </linearGradient>
    <linearGradient
       id="b-3"
       x1="399.57"
       x2="399.57"
       y1="545.8"
       y2="517.8"
       gradientTransform="matrix(2.1429,0,0,2.1429,-845.94449,-1189.0043)"
       gradientUnits="userSpaceOnUse">
      <stop
         stop-color="#3889e9"
         offset="0"
         id="stop21" />
      <stop
         stop-color="#5ea5fb"
         offset="1"
         id="stop23-6" />
    </linearGradient>
    <linearGradient
       id="linearGradient862"
       x1="7.9373"
       x2="7.9373"
       y1="15.081"
       y2="1.852"
       gradientTransform="matrix(3.7796,0,0,3.7796,110.62576,0)"
       gradientUnits="userSpaceOnUse">
      <stop
         stop-color="#424242"
         offset="0"
         id="stop26" />
      <stop
         stop-color="#272727"
         offset="1"
         id="stop28" />
    </linearGradient>
    <filter
       id="filter1154"
       x="-.10142"
       y="-.11549"
       width="1.2028"
       height="1.231"
       color-interpolation-filters="sRGB">
      <feGaussianBlur
         stdDeviation="1.1577746"
         id="feGaussianBlur31-0" />
    </filter>
    <style
       id="style921"
       type="text/css" />
    <style
       id="style923"
       type="text/css" />
    <style
       id="style925"
       type="text/css" />
    <style
       id="style927"
       type="text/css" />
    <filter
       color-interpolation-filters="sRGB"
       height="1.048"
       width="1.048"
       y="-.024"
       x="-.024"
       id="filter11290">
      <feGaussianBlur
         id="feGaussianBlur929"
         stdDeviation="0.15875313" />
    </filter>
    <linearGradient
       gradientUnits="userSpaceOnUse"
       gradientTransform="matrix(3.7796,0,0,3.7796,-0.13309,0.024828)"
       y2=".64687"
       y1="16.296"
       x2="16.388"
       x1=".73911"
       id="linearGradient1005">
      <stop
         id="stop932"
         offset="0"
         stop-color="#00dc96" />
      <stop
         id="stop934"
         offset="1"
         stop-color="#14d29b" />
    </linearGradient>
    <style
       id="style937"
       type="text/css" />
    <style
       id="style939"
       type="text/css" />
    <style
       id="style941"
       type="text/css" />
    <style
       id="style1239"
       type="text/css" />
    <style
       id="style1241"
       type="text/css" />
    <filter
       color-interpolation-filters="sRGB"
       height="1.048"
       width="1.048"
       y="-.024"
       x="-.024"
       id="filter11290-3">
      <feGaussianBlur
         id="feGaussianBlur1256"
         stdDeviation="0.15875313" />
    </filter>
    <linearGradient
       gradientUnits="userSpaceOnUse"
       gradientTransform="matrix(3.7796,0,0,3.7796,-0.13155,0.0250173)"
       y2=".64687"
       y1="16.296"
       x2="16.388"
       x1=".73911"
       id="linearGradient1005-6">
      <stop
         id="stop1259"
         offset="0"
         stop-color="#dddfe1" />
      <stop
         id="stop1261"
         offset="1"
         stop-color="#f3f4f6" />
    </linearGradient>
    <linearGradient
       gradientTransform="translate(74.651047,0.51509194)"
       gradientUnits="userSpaceOnUse"
       y2="1.8735155"
       x2="-12.677041"
       y1="60.7453"
       x1="-72.471146"
       id="linearGradient966"
       xlink:href="#linearGradient964"
       inkscape:collect="always" />
  </defs>
  <sodipodi:namedview
     inkscape:document-rotation="0"
     pagecolor="#c8c8c8"
     bordercolor="#666666"
     borderopacity="1"
     objecttolerance="10"
     gridtolerance="10"
     guidetolerance="10"
     inkscape:pageopacity="0"
     inkscape:pageshadow="2"
     inkscape:window-width="1920"
     inkscape:window-height="932"
     id="namedview10"
     showgrid="false"
     inkscape:zoom="4"
     inkscape:cx="-32.380695"
     inkscape:cy="40.545432"
     inkscape:window-x="0"
     inkscape:window-y="36"
     inkscape:window-maximized="1"
     inkscape:current-layer="svg8" />
  <circle
     transform="scale(3.779602)"
     style="filter:url(#filter11290-3)"
     id="circle1266"
     stroke-width="0.14032"
     opacity="0.25"
     filter="url(#filter11290)"
     r="7.9376998"
     cy="8.4665003"
     cx="8.4665003" />
  <circle
     style="fill:url(#linearGradient966);fill-opacity:1;stroke-width:3.12284;stroke-linecap:round"
     id="path958"
     cx="32"
     cy="32"
     r="30" />
  <g
     style="image-rendering:optimizeSpeed"
     id="g19"
     fill="#5e4aa6"
     transform="translate(91.864184,1.335144e-5)">
    <circle
       id="circle11"
       r="0"
       cy="-1241.6"
       cx="-1248.7" />
    <circle
       id="circle13"
       fill-rule="evenodd"
       r="0"
       cy="23.855"
       cx="-149.14999" />
    <circle
       id="circle15"
       r="0"
       cy="-1241.6"
       cx="-1248.7" />
    <circle
       id="circle17"
       fill-rule="evenodd"
       r="0"
       cy="23.855"
       cx="-149.14999" />
  </g>
  <circle
     cx="-1248.6936"
     cy="-1241.6389"
     r="0"
     fill="#5e4aa6"
     stroke-width="1.00001"
     id="circle875" />
  <circle
     cx="-149.14687"
     cy="23.855019"
     r="0"
     fill="#5e4aa6"
     fill-rule="evenodd"
     stroke-width="1.00001"
     id="ellipse877" />
  <circle
     cx="-1316.1913"
     cy="-1241.6389"
     r="0"
     fill="#5e4aa6"
     stroke-width="1.00001"
     id="circle915" />
  <circle
     cx="-216.6445"
     cy="23.855019"
     r="0"
     fill="#5e4aa6"
     fill-rule="evenodd"
     stroke-width="1.00001"
     id="ellipse927" />
  <path
     inkscape:connector-curvature="0"
     id="path849"
     d=""
     style="fill:#000000;stroke-width:1.33333" />
  <path
     inkscape:connector-curvature="0"
     id="path847"
     d=""
     style="fill:#000000;stroke-width:1.33333" />
  <path
     inkscape:connector-curvature="0"
     id="path849-3"
     d=""
     style="fill:#000000;stroke-width:1.33333" />
  <path
     inkscape:connector-curvature="0"
     id="path847-6"
     d=""
     style="fill:#000000;stroke-width:1.33333" />
  <circle
     cx="-1248.6936"
     cy="-1241.6389"
     r="0"
     fill="#5e4aa6"
     stroke-width="1.00001"
     id="circle844" />
  <circle
     cx="-149.14687"
     cy="23.855032"
     r="0"
     fill="#5e4aa6"
     fill-rule="evenodd"
     stroke-width="1.00001"
     id="ellipse846" />
  <circle
     id="circle41"
     fill="#5e4aa6"
     r="0"
     cy="-1241.6"
     cx="-1163.3359"
     style="stroke-width:1" />
  <circle
     id="circle43"
     fill-rule="evenodd"
     fill="#5e4aa6"
     r="0"
     cy="23.855"
     cx="-63.785969"
     style="stroke-width:1" />
  <path
     d="m 19.500232,17.000033 v 4.999201 h 2.500192 14.797265 L 20.04793,42.937316 a 2.5002411,2.5002411 0 0 0 -0.01423,0.0166 2.5002411,2.5002411 0 0 0 -0.06164,0.08298 2.5002411,2.5002411 0 0 0 -0.05927,0.08535 2.5002411,2.5002411 0 0 0 -0.05571,0.08773 2.5002411,2.5002411 0 0 0 -0.05098,0.0901 2.5002411,2.5002411 0 0 0 -0.04861,0.09128 2.5002411,2.5002411 0 0 0 -0.04386,0.09365 2.5002411,2.5002411 0 0 0 -0.03913,0.09602 2.5002411,2.5002411 0 0 0 -0.03675,0.09721 2.5002411,2.5002411 0 0 0 -0.03201,0.09839 2.5002411,2.5002411 0 0 0 -0.02727,0.09958 2.5002411,2.5002411 0 0 0 -0.02371,0.100768 2.5002411,2.5002411 0 0 0 -0.02015,0.101957 2.5002411,2.5002411 0 0 0 -0.01541,0.101957 2.5002411,2.5002411 0 0 0 -0.01071,0.103136 2.5002411,2.5002411 0 0 0 -0.0071,0.104325 2.5002411,2.5002411 0 0 0 -0.0024,0.103135 2.5002411,2.5002411 0 0 0 0.0024,0.103136 2.5002411,2.5002411 0 0 0 0.006,0.103135 2.5002411,2.5002411 0 0 0 0.01071,0.103136 2.5002411,2.5002411 0 0 0 0.01423,0.103135 2.5002411,2.5002411 0 0 0 0.01896,0.101947 2.5002411,2.5002411 0 0 0 0.02252,0.100767 2.5002411,2.5002411 0 0 0 0.02727,0.09958 2.5002411,2.5002411 0 0 0 0.032,0.09958 2.5002411,2.5002411 0 0 0 0.03557,0.09721 2.5002411,2.5002411 0 0 0 0.03912,0.09484 2.5002411,2.5002411 0 0 0 0.04386,0.09484 2.5002411,2.5002411 0 0 0 0.04623,0.09247 2.5002411,2.5002411 0 0 0 0.05098,0.0901 2.5002411,2.5002411 0 0 0 0.05572,0.08773 2.5002411,2.5002411 0 0 0 0.05808,0.08535 2.5002411,2.5002411 0 0 0 0.06165,0.08298 2.5002411,2.5002411 0 0 0 0.0652,0.08061 2.5002411,2.5002411 0 0 0 0.06758,0.07825 2.5002411,2.5002411 0 0 0 0.07231,0.07469 2.5002411,2.5002411 0 0 0 0.07468,0.07113 2.5002411,2.5002411 0 0 0 0.07706,0.06875 2.5002411,2.5002411 0 0 0 0.08061,0.06639 2.5002411,2.5002411 0 0 0 0.08298,0.06165 2.5002411,2.5002411 0 0 0 0.08535,0.05809 2.5002411,2.5002411 0 0 0 0.08773,0.05571 2.5002411,2.5002411 0 0 0 0.0901,0.05098 2.5002411,2.5002411 0 0 0 0.09246,0.04742 2.5002411,2.5002411 0 0 0 0.09365,0.04386 2.5002411,2.5002411 0 0 0 0.09602,0.03912 2.5002411,2.5002411 0 0 0 0.09721,0.03556 2.5002411,2.5002411 0 0 0 0.0984,0.03201 2.5002411,2.5002411 0 0 0 0.09958,0.02727 2.5002411,2.5002411 0 0 0 0.100769,0.02371 2.5002411,2.5002411 0 0 0 0.101956,0.01896 2.5002411,2.5002411 0 0 0 0.103135,0.01423 2.5002411,2.5002411 0 0 0 0.103137,0.01071 2.5002411,2.5002411 0 0 0 0.103134,0.0071 2.5002411,2.5002411 0 0 0 0.103137,0.0024 H 42.00082 44.50101 V 41.999635 H 42.00079 27.20116 L 43.950919,21.062754 a 2.5002411,2.5002411 0 0 0 0.013,-0.01541 2.5002411,2.5002411 0 0 0 0.0616,-0.08298 2.5002411,2.5002411 0 0 0 0.0593,-0.08535 2.5002411,2.5002411 0 0 0 0.0557,-0.08773 2.5002411,2.5002411 0 0 0 0.051,-0.0901 2.5002411,2.5002411 0 0 0 0.0474,-0.09128 2.5002411,2.5002411 0 0 0 0.0451,-0.09365 2.5002411,2.5002411 0 0 0 0.0391,-0.09602 2.5002411,2.5002411 0 0 0 0.0368,-0.09721 2.5002411,2.5002411 0 0 0 0.032,-0.0984 2.5002411,2.5002411 0 0 0 0.0284,-0.09958 2.5002411,2.5002411 0 0 0 0.0237,-0.100768 2.5002411,2.5002411 0 0 0 0.019,-0.101957 2.5002411,2.5002411 0 0 0 0.0154,-0.101946 2.5002411,2.5002411 0 0 0 0.0118,-0.103136 2.5002411,2.5002411 0 0 0 0.006,-0.103135 2.5002411,2.5002411 0 0 0 0.004,-0.103136 2.5002411,2.5002411 0 0 0 -0.002,-0.104325 2.5002411,2.5002411 0 0 0 -0.006,-0.103136 2.5002411,2.5002411 0 0 0 -0.0107,-0.103136 2.5002411,2.5002411 0 0 0 -0.0142,-0.101945 2.5002411,2.5002411 0 0 0 -0.019,-0.101957 2.5002411,2.5002411 0 0 0 -0.0225,-0.101946 2.5002411,2.5002411 0 0 0 -0.0273,-0.09958 2.5002411,2.5002411 0 0 0 -0.0308,-0.0984 2.5002411,2.5002411 0 0 0 -0.0356,-0.09721 2.5002411,2.5002411 0 0 0 -0.0391,-0.09602 2.5002411,2.5002411 0 0 0 -0.0439,-0.09484 2.5002411,2.5002411 0 0 0 -0.0474,-0.09129 2.5002411,2.5002411 0 0 0 -0.0498,-0.09129 2.5002411,2.5002411 0 0 0 -0.0557,-0.08773 2.5002411,2.5002411 0 0 0 -0.0581,-0.08535 2.5002411,2.5002411 0 0 0 -0.0617,-0.08298 2.5002411,2.5002411 0 0 0 -0.0652,-0.08061 2.5002411,2.5002411 0 0 0 -0.0676,-0.07825 2.5002411,2.5002411 0 0 0 -0.0723,-0.07469 2.5002411,2.5002411 0 0 0 -0.0735,-0.07231 2.5002411,2.5002411 0 0 0 -0.0782,-0.06875 2.5002411,2.5002411 0 0 0 -0.0806,-0.0652 2.5002411,2.5002411 0 0 0 -0.0818,-0.06165 2.5002411,2.5002411 0 0 0 -0.0865,-0.05927 2.5002411,2.5002411 0 0 0 -0.0877,-0.05452 2.5002411,2.5002411 0 0 0 -0.0889,-0.05098 2.5002411,2.5002411 0 0 0 -0.0925,-0.04861 2.5002411,2.5002411 0 0 0 -0.0936,-0.04268 2.5002411,2.5002411 0 0 0 -0.096,-0.04031 2.5002411,2.5002411 0 0 0 -0.0972,-0.03556 2.5002411,2.5002411 0 0 0 -0.0984,-0.032 2.5002411,2.5002411 0 0 0 -0.0996,-0.02727 2.5002411,2.5002411 0 0 0 -0.10077,-0.02371 2.5002411,2.5002411 0 0 0 -0.10195,-0.01896 2.5002411,2.5002411 0 0 0 -0.10314,-0.01541 2.5002411,2.5002411 0 0 0 -0.10313,-0.01071 2.5002411,2.5002411 0 0 0 -0.10314,-0.006 2.5002411,2.5002411 0 0 0 -0.10314,-0.0024 H 22.000446 Z"
     style="fill:#ff3232;fill-opacity:1;stroke-width:1.21394;stroke-linecap:round"
     id="rect969" />
  <circle
     cx="-1313.8712"
     cy="-1282.918"
     r="0"
     fill="#5e4aa6"
     stroke-width="1.00001"
     id="circle844-9" />
  <circle
     cx="-214.32449"
     cy="-17.423996"
     r="0"
     fill="#5e4aa6"
     fill-rule="evenodd"
     stroke-width="1.00001"
     id="ellipse846-3" />
  <circle
     id="circle41-7"
     fill="#5e4aa6"
     r="0"
     cy="-1282.879"
     cx="-1228.5135"
     style="stroke-width:1" />
  <circle
     id="circle43-4"
     fill-rule="evenodd"
     fill="#5e4aa6"
     r="0"
     cy="-17.424028"
     cx="-128.96359"
     style="stroke-width:1" />
  <g
     id="g38"
     stroke-width="0.66672"
     font-size="12.666px"
     transform="matrix(1.4999,0,0,1.4999,-724.41022,-834.34736)">
    <text
       id="text36"
       stroke-width="0.66672"
       font-family="'Droid Sans'"
       y="132.19"
       x="730.88" />
  </g>
  <g
     id="g42"
     stroke-width="0.66672"
     font-size="12.666px"
     transform="matrix(1.4999,0,0,1.4999,-724.41022,-834.34736)">
    <text
       id="text40"
       stroke-width="0.66672"
       font-family="'Droid Sans'"
       y="132.19"
       x="730.88" />
  </g>
  <rect
     id="rect44"
     opacity="0.40741"
     fill="#000cff"
     height="0"
     width="0.067495003"
     y="-50.914371"
     x="-78.635246"
     style="stroke-width:1" />
  <circle
     id="circle52"
     stroke-width="1.5715"
     fill="url(#b-3)"
     r="0"
     cy="-49.460228"
     cx="12.435499"
     style="fill:url(#b-3)" />
  <g
     transform="translate(-19.584509,-81.504226)"
     id="g989"
     fill="#5e4aa6">
    <circle
       id="circle945"
       r="0"
       cy="-1241.6"
       cx="-1248.7" />
    <circle
       id="circle947"
       fill-rule="evenodd"
       r="0"
       cy="23.855"
       cx="-149.14999" />
    <circle
       id="circle949"
       r="0"
       cy="-1241.6"
       cx="-1248.7" />
    <circle
       id="circle951"
       fill-rule="evenodd"
       r="0"
       cy="23.855"
       cx="-149.14999" />
    <circle
       id="circle953"
       r="0"
       cy="-1256.6"
       cx="-1150.9" />
    <circle
       id="circle955"
       fill-rule="evenodd"
       r="0"
       cy="8.8744001"
       cx="-51.327" />
    <g
       id="g987"
       stroke-width="0.26458"
       transform="matrix(3.7796,0,0,3.7796,167.86,4.61)">
      <g
         id="g965"
         transform="translate(-0.0272,0.0065001)">
        <circle
           id="circle957"
           r="0"
           cy="-328.38"
           cx="-330.35001" />
        <circle
           id="circle959"
           r="0"
           cy="-326.25"
           cx="-312.10999" />
        <circle
           id="circle961"
           r="0"
           cy="-333.07001"
           cx="-306.01999" />
        <circle
           id="circle963"
           r="0"
           cy="-326.01001"
           cx="-308.84" />
      </g>
      <g
         id="g975"
         transform="translate(-0.0272,0.0065001)">
        <circle
           id="circle967"
           r="0"
           cy="-328.38"
           cx="-330.35001" />
        <circle
           id="circle969"
           r="0"
           cy="-326.25"
           cx="-312.10999" />
        <circle
           id="circle971"
           r="0"
           cy="-333.07001"
           cx="-306.01999" />
        <circle
           id="circle973"
           r="0"
           cy="-326.01001"
           cx="-308.84" />
      </g>
      <g
         id="g985"
         transform="translate(-0.02705,0.0064503)">
        <circle
           id="circle977"
           r="0"
           cy="-328.38"
           cx="-330.35001" />
        <circle
           id="circle979"
           r="0"
           cy="-326.25"
           cx="-312.10999" />
        <circle
           id="circle981"
           r="0"
           cy="-333.07001"
           cx="-306.01999" />
        <circle
           id="circle983"
           r="0"
           cy="-326.01001"
           cx="-308.84" />
      </g>
    </g>
  </g>
  <g
     id="g1009"
     fill="#5e4aa6"
     transform="translate(-187.70451,-143.54923)">
    <circle
       id="circle991"
       r="0"
       cy="-1241.6"
       cx="-1248.7" />
    <circle
       id="circle993"
       fill-rule="evenodd"
       r="0"
       cy="23.855"
       cx="-149.14999" />
    <circle
       id="circle995"
       r="0"
       cy="-1256.6"
       cx="-1150.9" />
    <circle
       id="circle997"
       fill-rule="evenodd"
       r="0"
       cy="8.8744001"
       cx="-51.327" />
    <g
       id="g1007"
       stroke-width="0.26458"
       transform="matrix(3.7796,0,0,3.7796,-0.10224,0.02438)">
      <circle
         id="circle999"
         r="0"
         cy="-328.38"
         cx="-330.35001" />
      <circle
         id="circle1001"
         r="0"
         cy="-326.25"
         cx="-312.10999" />
      <circle
         id="circle1003"
         r="0"
         cy="-333.07001"
         cx="-306.01999" />
      <circle
         id="circle1005"
         r="0"
         cy="-326.01001"
         cx="-308.84" />
    </g>
  </g>
  <g
     id="g1023"
     stroke-width="0.26458"
     fill="#5e4aa6"
     transform="matrix(3.779602,0,0,3.779602,-187.81451,-143.52523)">
    <circle
       id="circle1015"
       r="0"
       cy="-328.38"
       cx="-330.35001" />
    <circle
       id="circle1017"
       r="0"
       cy="-326.25"
       cx="-312.10999" />
    <circle
       id="circle1019"
       r="0"
       cy="-333.07001"
       cx="-306.01999" />
    <circle
       id="circle1021"
       r="0"
       cy="-326.01001"
       cx="-308.84" />
  </g>
  <g
     id="g1065"
     fill="#5e4aa6"
     transform="translate(-305.12451,-184.77422)">
    <circle
       id="circle1025"
       r="0"
       cy="-1241.6"
       cx="-1248.7" />
    <circle
       id="circle1027"
       fill-rule="evenodd"
       r="0"
       cy="23.855"
       cx="-149.14999" />
    <circle
       id="circle1029"
       r="0"
       cy="-1256.6"
       cx="-1150.9" />
    <circle
       id="circle1031"
       fill-rule="evenodd"
       r="0"
       cy="8.8744001"
       cx="-51.327" />
    <g
       id="g1063"
       stroke-width="0.26458"
       transform="matrix(3.7796,0,0,3.7796,167.86,4.61)">
      <g
         id="g1041"
         transform="translate(-0.0272,0.0065001)">
        <circle
           id="circle1033"
           r="0"
           cy="-328.38"
           cx="-330.35001" />
        <circle
           id="circle1035"
           r="0"
           cy="-326.25"
           cx="-312.10999" />
        <circle
           id="circle1037"
           r="0"
           cy="-333.07001"
           cx="-306.01999" />
        <circle
           id="circle1039"
           r="0"
           cy="-326.01001"
           cx="-308.84" />
      </g>
      <g
         id="g1051"
         transform="translate(-0.0272,0.0065001)">
        <circle
           id="circle1043"
           r="0"
           cy="-328.38"
           cx="-330.35001" />
        <circle
           id="circle1045"
           r="0"
           cy="-326.25"
           cx="-312.10999" />
        <circle
           id="circle1047"
           r="0"
           cy="-333.07001"
           cx="-306.01999" />
        <circle
           id="circle1049"
           r="0"
           cy="-326.01001"
           cx="-308.84" />
      </g>
      <g
         id="g1061"
         transform="translate(-0.02705,0.0064503)">
        <circle
           id="circle1053"
           r="0"
           cy="-328.38"
           cx="-330.35001" />
        <circle
           id="circle1055"
           r="0"
           cy="-326.25"
           cx="-312.10999" />
        <circle
           id="circle1057"
           r="0"
           cy="-333.07001"
           cx="-306.01999" />
        <circle
           id="circle1059"
           r="0"
           cy="-326.01001"
           cx="-308.84" />
      </g>
    </g>
  </g>
  <circle
     id="circle1270"
     fill="#5e4aa6"
     r="0"
     cy="-1353.4059"
     cx="-1342.7948"
     style="stroke-width:1" />
  <circle
     id="circle1272"
     fill-rule="evenodd"
     fill="#5e4aa6"
     r="0"
     cy="-87.950813"
     cx="-243.24487"
     style="stroke-width:1" />
  <g
     id="g1296"
     stroke-width="0.26458"
     fill="#5e4aa6"
     transform="matrix(3.779602,0,0,3.779602,-197.01488,-150.52582)">
    <circle
       id="circle1288"
       r="0"
       cy="-328.38"
       cx="-330.35001" />
    <circle
       id="circle1290"
       r="0"
       cy="-326.25"
       cx="-312.10999" />
    <circle
       id="circle1292"
       r="0"
       cy="-333.07001"
       cx="-306.01999" />
    <circle
       id="circle1294"
       r="0"
       cy="-326.01001"
       cx="-308.84" />
  </g>
</svg>
