<?xml version="1.0" encoding="UTF-8"?>
<svg width="64" height="64" version="1.1" viewBox="0 0 64 64" xmlns="http://www.w3.org/2000/svg" xmlns:cc="http://creativecommons.org/ns#" xmlns:dc="http://purl.org/dc/elements/1.1/" xmlns:rdf="http://www.w3.org/1999/02/22-rdf-syntax-ns#">
 <metadata>
  <rdf:RDF>
   <cc:Work rdf:about="">
    <dc:format>image/svg+xml</dc:format>
    <dc:type rdf:resource="http://purl.org/dc/dcmitype/StillImage"/>
    <dc:title/>
   </cc:Work>
  </rdf:RDF>
 </metadata>
 <defs>
  <filter id="filter11290" x="-.024" y="-.024" width="1.048" height="1.048" color-interpolation-filters="sRGB">
   <feGaussianBlur stdDeviation="0.15875313"/>
  </filter>
  <linearGradient id="linearGradient1005" x1=".73911" x2="16.388" y1="16.296" y2=".64687" gradientTransform="matrix(3.7796 0 0 3.7796 -.13474 .024926)" gradientUnits="userSpaceOnUse">
   <stop stop-color="#00dc96" offset="0"/>
   <stop stop-color="#14d29b" offset="1"/>
  </linearGradient>
 </defs>
 <circle transform="scale(3.7796)" cx="8.4665" cy="8.4665" r="7.9377" filter="url(#filter11290)" opacity=".25" stroke-width=".14032"/>
 <path d="m62.001 32.001c0 3.5965-0.63305 7.0448-1.794 10.24-0.80698 2.2212-1.8686 4.3212-3.152 6.2636-0.53754 0.8167-1.1155 1.6054-1.729 2.3633-1.9641 2.4257-4.2982 4.5382-6.9186 6.2526-0.96493 0.63187-1.9678 1.2099-3.0061 1.7277-4.0321 2.0179-8.5842 3.1531-13.401 3.1531-4.8171 0-9.3693-1.1351-13.401-3.1532-1.0384-0.51799-2.0425-1.096-3.0075-1.7277-2.6535-1.7376-5.0155-3.8832-6.9957-6.349-0.61468-0.76408-1.1915-1.56-1.729-2.3841-1.249-1.9102-2.2837-3.9712-3.0747-6.1494-1.1608-3.195-1.7927-6.6419-1.7927-10.237 0-16.569 13.432-30.002 30.002-30.002 8.317 0 15.843 3.3847 21.277 8.8507 1.5661 1.5747 2.9584 3.3235 4.1436 5.214 1.1205 1.7805 2.0572 3.6883 2.7858 5.6951 1.161 3.1961 1.7941 6.6442 1.7941 10.24z" fill="url(#linearGradient1005)" stroke-width=".11719"/>
 <path d="m32 48.156c3.0248 0 6.5897-0.38072 8.1986-2.1224 1.1978-1.2967 1.5129-3.6798 1.4841-5.278-0.64787-0.90704-3.6196-3.3546-9.6827-3.3546s-9.0348 2.4476-9.6827 3.3546c-0.02878 1.5982 0.28631 3.9813 1.4841 5.278 1.6089 1.7417 5.1738 2.1224 8.1986 2.1224zm-4.6472-6.4074c0 1.5519 0.14668 2.942 0.92409 2.942 0.77732 0 0.92409-1.3524 0.92409-2.9043s-0.0334-2.9043-0.87693-2.9043c-0.84335 0-0.97125 1.3146-0.97125 2.8665zm9.2944 0c0 1.5519-0.14686 2.942-0.92409 2.942-0.77733 0-0.92409-1.3524-0.92409-2.9043s0.0334-2.9043 0.87695-2.9043c0.84337 0 0.97123 1.3146 0.97123 2.8665zm-20.875-8.9551c0 1.0827 0.11568 2.0227 0.32085 2.8462 2.5863-2.0436 4.0564-7.8405 2.5967-12.128-1.9742 3.1993-2.9176 6.8054-2.9176 9.2816zm5.6569 10.147c-3.0077-1.1096-6.9866-3.6745-6.9866-10.145 0-6.47 5.3496-18.296 17.558-18.296 12.208 0 17.558 11.826 17.558 18.296s-3.9789 9.0349-6.9866 10.145c-0.40377 4.7532-4.073 6.5597-10.571 6.5597s-10.167-1.8065-10.571-6.5597zm23.881-19.428c-1.4597 4.2874 0.0111 10.084 2.5967 12.128 0.20511-0.82353 0.32087-1.7636 0.32087-2.8462 0-2.4762-0.94329-6.0822-2.9176-9.2816zm-13.31-6.4209c-4.5713 0-8.277 3.5923-8.277 8.0236s3.7057 8.0237 8.277 8.0237 8.277-3.5923 8.277-8.0237c0-4.4313-3.7058-8.0236-8.277-8.0236z" color="#000000" color-rendering="auto" dominant-baseline="auto" fill="#fff" image-rendering="auto" shape-rendering="auto" solid-color="#000000" stop-color="#000000" style="font-feature-settings:normal;font-variant-alternates:normal;font-variant-caps:normal;font-variant-east-asian:normal;font-variant-ligatures:normal;font-variant-numeric:normal;font-variant-position:normal;font-variation-settings:normal;inline-size:0;isolation:auto;mix-blend-mode:normal;shape-margin:0;shape-padding:0;text-decoration-color:#000000;text-decoration-line:none;text-decoration-style:solid;text-indent:0;text-orientation:mixed;text-transform:none;white-space:normal"/>
</svg>
